<?xml version="1.0" encoding="UTF-8" standalone="no"?>
<svg
   xmlns:dc="http://purl.org/dc/elements/1.1/"
   xmlns:cc="http://creativecommons.org/ns#"
   xmlns:rdf="http://www.w3.org/1999/02/22-rdf-syntax-ns#"
   xmlns:svg="http://www.w3.org/2000/svg"
   xmlns="http://www.w3.org/2000/svg"
   xmlns:sodipodi="http://sodipodi.sourceforge.net/DTD/sodipodi-0.dtd"
   xmlns:inkscape="http://www.inkscape.org/namespaces/inkscape"
   width="12in"
   height="12in"
   viewBox="0 0 12 12"
   version="1.1"
   id="svg8"
   inkscape:version="1.0.1 (3bc2e813f5, 2020-09-07)"
   sodipodi:docname="Chrismas Graphics.svg">
  <defs
     id="defs2" />
  <sodipodi:namedview
     id="base"
     pagecolor="#ffffff"
     bordercolor="#666666"
     borderopacity="1.0"
     inkscape:pageopacity="0.0"
     inkscape:pageshadow="2"
     inkscape:zoom="0.66583926"
     inkscape:cx="589.43093"
     inkscape:cy="566.36904"
     inkscape:document-units="in"
     inkscape:current-layer="layer1"
     inkscape:document-rotation="0"
     showgrid="true"
     units="in"
     inkscape:snap-global="true"
     inkscape:window-width="1920"
     inkscape:window-height="1017"
     inkscape:window-x="-8"
     inkscape:window-y="-8"
     inkscape:window-maximized="1"
     inkscape:snap-nodes="true"
     inkscape:snap-others="false"
     inkscape:snap-smooth-nodes="true"
     inkscape:object-paths="true"
     inkscape:snap-intersection-paths="true"
     inkscape:snap-grids="false"
     inkscape:snap-to-guides="false">
    <inkscape:grid
       type="xygrid"
       id="grid849"
       units="in"
       spacingx="0.25"
       spacingy="0.25"
       empspacing="4" />
  </sodipodi:namedview>
  <metadata
     id="metadata5">
    <rdf:RDF>
      <cc:Work
         rdf:about="">
        <dc:format>image/svg+xml</dc:format>
        <dc:type
           rdf:resource="http://purl.org/dc/dcmitype/StillImage" />
        <dc:title></dc:title>
        <dc:creator>
          <cc:Agent>
            <dc:title>Doctor Wizard</dc:title>
          </cc:Agent>
        </dc:creator>
        <dc:rights>
          <cc:Agent>
            <dc:title>Copyright 2021+ by Doctor Wizard</dc:title>
          </cc:Agent>
        </dc:rights>
        <dc:publisher>
          <cc:Agent>
            <dc:title>Doctor Wizard</dc:title>
          </cc:Agent>
        </dc:publisher>
        <dc:source>Doctor Wizard</dc:source>
        <dc:contributor>
          <cc:Agent>
            <dc:title>Doctor Wizard</dc:title>
          </cc:Agent>
        </dc:contributor>
      </cc:Work>
    </rdf:RDF>
  </metadata>
  <g
     inkscape:label="Layer 1"
     inkscape:groupmode="layer"
     id="layer1">
    <path
       style="fill:#000000;stroke-width:1"
       d="M 4.7612546,4.6697419 C 4.3804316,4.5627724 3.8455406,3.9351414 3.4206996,3.0967595 3.2336496,2.727635 3.1636006,2.5249861 3.1488476,2.3103012 l -0.0068,-0.098958 0.01159,-0.09421 c 0.06946,-0.5646568 0.512686,-0.9834684 1.071211,-1.0122129 l 0.116819,-0.00601 0.09672,0.013164 c 0.240068,0.032672 0.460736,0.1417114 0.641943,0.3172067 l 0.08689,0.084148 0.05521,0.083333 c 0.148002,0.2233858 0.199567,0.4112274 0.241025,0.8780253 l 0.01638,0.1844747 -0.0056,0.3645833 -0.0056,0.3645834 -0.01608,0.1394656 c -0.08677,0.7527925 -0.273969,1.1307162 -0.570879,1.1525252 l -0.06538,0.0048 z m 0.443225,-1.6927178 c 0.01867,-0.011385 0.04326,-0.035976 0.05465,-0.054649 l 0.0207,-0.033949 4.2e-5,-0.043593 c 7.3e-5,-0.080216 -0.04231,-0.139121 -0.115976,-0.1611918 l -0.04024,-0.012055 -0.04364,0.013074 -0.04364,0.013074 -0.02913,0.031185 c -0.01602,0.017152 -0.03415,0.049816 -0.04028,0.072586 l -0.01115,0.041401 0.01232,0.038385 c 0.01457,0.045412 0.03483,0.070841 0.07739,0.097129 l 0.03125,0.019303 h 0.04687 0.04687 z m -0.01822,-0.4922438 c 0.01894,-0.012891 0.04424,-0.036685 0.05623,-0.052876 l 0.02179,-0.029439 -0.0016,-0.075138 C 5.2542866,1.9219351 5.0204426,1.5494989 4.6680246,1.3801806 l -0.09124,-0.043838 h -0.05913 -0.05913 l -0.02941,0.021375 c -0.01618,0.011756 -0.04047,0.043433 -0.05399,0.070393 l -0.02458,0.049019 0.0066,0.035213 c 0.0036,0.019367 0.01714,0.050851 0.03002,0.069964 0.02441,0.036222 0.0304,0.040099 0.145299,0.094083 0.226709,0.1065134 0.365454,0.3240418 0.404304,0.6338768 0.01823,0.1453667 0.06209,0.1955877 0.172327,0.197291 l 0.04273,6.604e-4 0.03444,-0.023437 z m -2.67719,2.1576294 C 1.9847336,4.5824181 1.5596854,4.1473581 1.5097469,3.619547 l -0.010041,-0.1061208 0.00987,-0.1041637 c 0.04582,-0.4835954 0.3786607,-0.875478 0.8515187,-1.0025681 l 0.101103,-0.027173 0.177083,-7.563e-4 c 0.0974,-4.156e-4 0.203353,0.00301 0.235461,0.00762 l 0.05838,0.00837 0.01755,0.089312 c 0.0096,0.049122 0.01539,0.091475 0.01274,0.094118 -0.0026,0.00264 -0.03771,-3e-4 -0.07792,-0.00654 -0.27841,-0.043197 -0.579163,0.025652 -0.80022,0.1831888 -0.07755,0.055264 -0.215178,0.1991157 -0.243364,0.2543653 -0.037691,0.073881 -0.018345,0.1642631 0.04478,0.2092136 l 0.0313,0.022285 0.04929,0.00474 0.04929,0.00474 0.03704,-0.017576 c 0.02037,-0.00967 0.05011,-0.036444 0.0661,-0.059504 0.109383,-0.1578489 0.321795,-0.2700857 0.540422,-0.2855635 l 0.08333,-0.0059 0.11456,0.015476 0.114559,0.015476 0.04169,-0.01496 c 0.02293,-0.00823 0.04573,-0.016008 0.05067,-0.017289 0.0049,-0.00128 0.04284,0.070327 0.08422,0.1591296 0.206173,0.4423969 0.50847,0.9263882 0.773603,1.2385688 0.03602,0.042411 0.06549,0.080763 0.06549,0.085228 0,0.019485 -0.411233,0.1371793 -0.682292,0.1952708 -0.388914,0.083349 -0.603788,0.1059658 -0.796875,0.083874 z M 0.99295631,3.9367264 C 0.88479661,3.8998041 0.80057561,3.8235423 0.74980211,3.7165512 l -0.027188,-0.057292 V 3.5134262 3.3675928 l 0.032102,-0.067738 0.032102,-0.067738 0.046846,-0.046845 c 0.059462,-0.059462 0.1410834,-0.1003939 0.22749169,-0.1140848 0.062048,-0.00983 0.3020833,-0.015638 0.3020833,-0.00731 0,0.00197 -0.00891,0.029483 -0.019806,0.061146 -0.010893,0.031663 -0.0273,0.1011912 -0.036458,0.1545079 l -0.016652,0.09694 V 3.50409 c 0,0.1500066 0.013329,0.2571065 0.046063,0.3701214 L 1.3601141,3.9561334 1.2028231,3.9554029 1.045532,3.9546724 Z M 3.4948306,1.0682412 c -0.0087,-0.030148 -0.02599,-0.094398 -0.03845,-0.14277786 l -0.02266,-0.087963 0.0046,-0.079502 0.0046,-0.079501 0.03223,-0.068882 0.03223,-0.068882 0.05032,-0.048218 c 0.05936,-0.056875 0.146218,-0.100254 0.250902,-0.1253053 l 0.07558,-0.018086 0.06505,0.00558 c 0.03578,0.00307 0.09164,0.01594 0.124143,0.028602 l 0.05909,0.023022 0.0582,0.051869 c 0.07799,0.069514 0.101514,0.1133197 0.149903,0.2791861 l 0.04103,0.140625 -0.133014,0.00676 c -0.263889,0.013407 -0.477371,0.078457 -0.694459,0.21161036 l -0.0435,0.026678 z"
       id="path1459" />
    <path
       style="fill:#000000;stroke-width:0.999999"
       d="m 3.4788334,10.883593 c -0.044512,-0.02269 -0.078186,-0.06229 -0.094554,-0.111178 l -0.010681,-0.03193 v -0.139506 c 0,-0.07673 -0.00256,-0.139506 -0.00569,-0.139506 -0.00313,0 -0.014119,0.01071 -0.024405,0.02379 -0.010286,0.01308 -0.040158,0.03466 -0.066361,0.04794 l -0.047643,0.02415 -0.062844,-0.0036 -0.062844,-0.0036 -0.039716,-0.02629 -0.039716,-0.02629 -0.018684,-0.04222 -0.018684,-0.04222 0.00645,-0.03825 0.00645,-0.03825 0.07645,-0.08081 c 0.042052,-0.04445 0.126123,-0.133038 0.1868311,-0.196866 L 3.3735706,9.9429826 3.3733593,9.8288145 3.3731482,9.7146465 3.2629818,9.8286567 3.1528155,9.942667 3.1152415,9.953066 C 3.0376805,9.97454 2.9644912,9.962596 2.9067252,9.919006 L 2.8766892,9.896348 2.8607102,9.854504 2.8447312,9.81266 2.8562852,9.774077 2.8678392,9.735497 3.0425943,9.5512843 C 3.1387113,9.4499678 3.2524647,9.3311413 3.295382,9.2872264 l 0.078031,-0.079846 7.52e-5,-0.1996166 c 3.75e-5,-0.1097888 -0.0023,-0.1996167 -0.00519,-0.1996167 -0.0029,0 -0.07935,0.042869 -0.1698938,0.095264 l -0.1646239,0.095264 -0.00837,0.019811 C 3.0208205,9.0293931 2.9741985,9.1841335 2.9218239,9.3623805 2.8201204,9.7085087 2.8083913,9.7372054 2.7590571,9.7606156 2.6475437,9.8135316 2.5100838,9.7096186 2.507384,9.5703636 l -8.454e-4,-0.043591 0.039488,-0.1302202 c 0.021728,-0.07162 0.038039,-0.1316658 0.036272,-0.1334356 -0.00177,-0.00177 -0.046201,0.021953 -0.098739,0.052696 l -0.095523,0.055912 -0.019924,0.068128 c -0.010962,0.03747 -0.045051,0.1526722 -0.075749,0.2560046 l -0.055813,0.1878763 -0.031929,0.029962 -0.031929,0.029962 -0.03404,0.0064 -0.03404,0.0064 -0.044214,-0.016711 C 1.9887096,9.9126597 1.9391926,9.8497667 1.9238394,9.7663336 l -0.00606,-0.032879 0.013133,-0.049317 c 0.00721,-0.02711 0.010681,-0.049317 0.00767,-0.049317 -0.00299,0 -0.061954,0.032127 -0.1310233,0.071395 l -0.1255787,0.071395 -0.035046,0.00471 c -0.049112,0.00659 -0.1091039,-0.01178 -0.146926,-0.044994 l -0.032146,-0.028224 -0.015923,-0.041663 -0.015922,-0.041666 0.00451,-0.046908 0.00451,-0.046908 0.023644,-0.035458 0.023644,-0.035458 0.1280136,-0.075151 c 0.070405,-0.041334 0.1280277,-0.077521 0.1280474,-0.080421 1.86e-5,-0.0029 -0.020403,-0.010512 -0.045358,-0.016909 l -0.045398,-0.011643 -0.035669,-0.029402 -0.035669,-0.029401 -0.022179,-0.047635 -0.022179,-0.047635 -7.72e-5,-0.042272 -7.69e-5,-0.042272 0.01643,-0.03269 c 0.00905,-0.01798 0.030788,-0.042286 0.048345,-0.054015 l 0.031918,-0.021333 h 0.033519 c 0.028987,0 0.2336033,0.04544 0.4590134,0.1019346 l 0.067894,0.017022 0.099559,-0.05563 c 0.054759,-0.030597 0.098153,-0.057036 0.096436,-0.058752 -0.00172,-0.00172 -0.067232,-0.018515 -0.1455874,-0.037335 l -0.1424646,-0.03421 -0.032431,-0.025222 c -0.041596,-0.032352 -0.06943,-0.075055 -0.083704,-0.1284251 l -0.011329,-0.042401 0.011893,-0.04462 c 0.014626,-0.054807 0.050039,-0.093483 0.097265,-0.1062012 l 0.035709,-0.00961 0.1385252,0.03326 c 0.076188,0.01829 0.2383067,0.05714 0.3602639,0.086328 l 0.2217389,0.053071 0.1700544,-0.097699 C 3.1083581,8.5280369 3.1849578,8.4819599 3.1850508,8.4793757 3.1852415,8.4740257 2.8605084,8.288174 2.8439865,8.2841948 2.8380365,8.2827548 2.6736193,8.3199058 2.478636,8.3667438 L 2.12412,8.4519018 2.087431,8.4420118 2.050742,8.4321218 2.022645,8.4001328 1.994548,8.3681438 1.988068,8.3298088 C 1.974906,8.2519078 2.007173,8.171763 2.07221,8.1207774 l 0.0279,-0.021869 0.1496483,-0.038115 0.1496484,-0.038115 -0.096363,-0.055038 c -0.053,-0.030272 -0.1011962,-0.054883 -0.107103,-0.054692 -0.00592,1.908e-4 -0.118694,0.026265 -0.2506389,0.057929 -0.131942,0.03167 -0.2545307,0.057566 -0.2724202,0.057546 -0.044704,-4.67e-5 -0.08912,-0.029545 -0.1119896,-0.074373 L 1.541729,7.9164834 v -0.040962 -0.040961 l 0.025842,-0.050938 0.025842,-0.050938 0.039471,-0.029692 0.039471,-0.029692 0.038028,-0.00643 c 0.020911,-0.00352 0.038028,-0.00933 0.038028,-0.012851 0,-0.00352 -0.043329,-0.031388 -0.096287,-0.061895 -0.052959,-0.0305 -0.1138332,-0.06731 -0.1352819,-0.081793 l -0.038995,-0.026321 -0.019727,-0.040728 -0.019727,-0.040728 2.063e-4,-0.041655 c 4.046e-4,-0.081734 0.055128,-0.1568656 0.1292507,-0.1774521 0.075999,-0.021108 0.1021206,-0.012879 0.263498,0.082892 0.053378,0.031681 0.1005509,0.057603 0.1048288,0.057603 0.00428,0 0.00183,-0.022179 -0.00544,-0.049317 l -0.013217,-0.049317 0.00989,-0.04863 0.00989,-0.04863 0.028308,-0.039079 0.028308,-0.039079 0.051234,-0.023447 0.051234,-0.023447 0.037081,0.00626 c 0.079787,0.013471 0.094915,0.038022 0.159926,0.2594511 0.026378,0.089803 0.058524,0.198216 0.071462,0.240922 l 0.023531,0.077645 0.095318,0.05579 c 0.052423,0.030684 0.096763,0.054345 0.098533,0.052575 0.00177,-0.00177 -0.014598,-0.061813 -0.036382,-0.1334357 L 2.5062599,7.431982 2.5066564,7.38971 c 0.00162,-0.1729627 0.2215417,-0.2799728 0.3020049,-0.1469514 0.013837,0.022883 0.1551353,0.4820789 0.2099705,0.6823964 l 0.00899,0.032879 0.1671659,0.096287 c 0.091941,0.052958 0.1697641,0.096287 0.1729373,0.096287 0.00318,0 0.00578,-0.088985 0.00578,-0.1977482 V 7.7551103 L 3.1317002,7.5009995 C 2.9986591,7.3612343 2.8817067,7.2341789 2.8718038,7.2186482 l -0.018008,-0.028238 v -0.040054 -0.040057 l 0.018149,-0.031729 0.018149,-0.031729 0.05085,-0.025842 0.05085,-0.025842 0.042937,5.64e-5 c 0.023616,2.82e-5 0.059846,0.00473 0.080511,0.010455 L 3.1528168,7.0160666 3.2629662,7.1300909 3.3731156,7.2441153 3.373343,7.1300938 3.3735705,7.0160722 3.1974374,6.831341 3.0213043,6.6466097 3.0032683,6.6051917 2.9852323,6.5637707 2.9962233,6.5271147 c 0.015077,-0.050323 0.041325,-0.080987 0.089143,-0.1041355 l 0.040505,-0.019614 h 0.053708 0.053708 l 0.044309,0.022545 c 0.024377,0.0124 0.054877,0.033902 0.067793,0.047773 l 0.023475,0.025222 0.00471,-0.1534528 0.00471,-0.1534528 0.019614,-0.037574 c 0.010793,-0.020657 0.037191,-0.049985 0.058662,-0.065152 l 0.03904,-0.027589 0.054063,-0.00369 0.054063,-0.00369 0.042272,0.022601 0.042272,0.022601 0.028181,0.045468 0.028181,0.045468 0.00316,0.153777 0.00316,0.1537769 0.036551,-0.033023 c 0.048525,-0.043842 0.093923,-0.06163 0.1572714,-0.06163 h 0.052251 l 0.041162,0.019924 0.041162,0.019924 0.023249,0.035119 c 0.012794,0.019304 0.025476,0.049453 0.028238,0.066967 l 0.00499,0.031848 -0.021812,0.039792 c -0.012005,0.021897 -0.055661,0.074725 -0.097034,0.117423 -0.041373,0.042698 -0.1185193,0.1231326 -0.1714353,0.1787427 l -0.096214,0.1011145 2.395e-4,0.1149431 2.396e-4,0.1149431 0.1054403,-0.1100536 0.1054404,-0.1100537 0.034925,-0.014401 c 0.01922,-0.00792 0.058451,-0.014401 0.087204,-0.014401 h 0.052279 l 0.045194,0.022911 c 0.04735,0.023982 0.072711,0.053947 0.086562,0.1022389 l 0.00826,0.028818 -0.00967,0.035864 -0.00967,0.035864 -0.2528285,0.2652565 -0.2528286,0.2652565 -4.086e-4,0.2004001 -4.087e-4,0.2004 0.00857,-0.00313 c 0.00471,-0.00172 0.082298,-0.045403 0.1723963,-0.09707 L 4.0940739,7.9580456 4.1949742,7.6151729 C 4.3022069,7.2507754 4.3139331,7.2218084 4.3637915,7.1981505 4.4769197,7.1444685 4.613506,7.2494175 4.613506,7.3900257 v 0.047874 L 4.57543,7.5651778 c -0.020939,0.070002 -0.036686,0.1286674 -0.034987,0.1303667 0.0017,0.0017 0.046243,-0.022207 0.098987,-0.053125 L 4.735328,7.5862065 4.750715,7.5325855 C 4.759165,7.5030935 4.79304,7.3883367 4.825956,7.2775701 L 4.885802,7.076178 4.91125,7.049631 C 4.925256,7.035033 4.952747,7.018753 4.972367,7.013469 l 0.035675,-0.00961 0.035227,0.00964 c 0.079897,0.021869 0.1364172,0.08296 0.1515168,0.1637756 l 0.00843,0.045107 -0.011808,0.050794 c -0.00648,0.027928 -0.00933,0.050794 -0.00631,0.050794 0.00302,0 0.062709,-0.032761 0.1326268,-0.072801 l 0.1271231,-0.072801 0.056419,1.448e-4 0.056419,1.454e-4 0.032693,0.019107 c 0.01798,0.010512 0.04507,0.036709 0.060204,0.058237 l 0.027505,0.039144 0.00426,0.051423 0.00426,0.051422 -0.020826,0.043033 -0.020826,0.043033 -0.038995,0.026265 c -0.021447,0.014458 -0.082324,0.051105 -0.1352823,0.081459 -0.052958,0.030354 -0.096287,0.058234 -0.096287,0.061957 0,0.00372 0.017106,0.00967 0.038028,0.013189 l 0.038028,0.00643 0.039471,0.029692 0.039471,0.029692 0.025842,0.050938 0.025842,0.050938 -2.068e-4,0.038239 c -1.136e-4,0.021023 -0.00831,0.056117 -0.018233,0.077969 l -0.018036,0.03973 -0.031076,0.018938 -0.031076,0.018938 -0.033646,3.78e-5 c -0.018531,9.5e-6 -0.1397218,-0.025342 -0.2693474,-0.056336 -0.1296284,-0.030999 -0.2431455,-0.056363 -0.2522649,-0.056363 -0.016542,0 -0.2050275,0.1023883 -0.1992052,0.1082106 0.00169,0.00169 0.068565,0.018684 0.1486113,0.037749 l 0.1455423,0.034677 0.047522,0.048534 0.047522,0.048534 0.012315,0.043966 0.012315,0.043966 -0.00645,0.043027 -0.00645,0.043027 -0.028404,0.032352 -0.028404,0.032352 -0.036819,0.00992 -0.036819,0.00992 -0.3592096,-0.08624 -0.3592096,-0.08624 -0.047671,0.027139 C 3.9853636,8.4472888 3.9375433,8.4753236 3.9377347,8.4794042 c 1.212e-4,0.00258 0.076729,0.048652 0.1702404,0.1023771 l 0.1700206,0.097679 0.3603019,-0.086308 0.3603017,-0.086308 0.035869,0.00967 c 0.1334864,0.035945 0.136158,0.2416491 0.00426,0.3281102 l -0.031335,0.020544 -0.1378517,0.032981 c -0.075816,0.018149 -0.139241,0.03437 -0.1409403,0.036069 -0.00623,0.00623 0.1825979,0.1088249 0.2002113,0.1087939 0.010004,-1.86e-5 0.1232791,-0.025391 0.2517379,-0.056363 0.1284561,-0.030982 0.2489312,-0.056315 0.2677225,-0.056295 l 0.034164,3.75e-5 0.031076,0.018938 0.031076,0.018938 0.018036,0.03973 c 0.00992,0.02184 0.018092,0.056639 0.018149,0.077304 l 1.147e-4,0.037574 -0.022179,0.047635 -0.022179,0.047635 -0.035669,0.029399 -0.035669,0.029401 -0.045392,0.011639 c -0.024969,0.0064 -0.045392,0.01426 -0.045392,0.017444 0,0.00321 0.057555,0.039192 0.1279009,0.079976 l 0.1279008,0.074154 0.02418,0.038017 0.024179,0.038017 0.00352,0.051665 0.00352,0.051665 -0.021756,0.042145 -0.021756,0.042148 -0.040488,0.028125 -0.040488,0.028125 -0.058146,1.719e-4 -0.058146,1.691e-4 -0.1296932,-0.073838 c -0.071329,-0.040617 -0.1316854,-0.071851 -0.134123,-0.069413 -0.00244,0.00244 -8.46e-5,0.015866 0.00521,0.02983 0.0053,0.013978 0.00967,0.048858 0.00967,0.07753 v 0.052133 l -0.024771,0.045502 -0.024771,0.045501 -0.034004,0.02356 c -0.018712,0.012963 -0.047824,0.028381 -0.064713,0.034268 l -0.030709,0.010709 -0.032842,-0.00617 c -0.018064,-0.00338 -0.047252,-0.018825 -0.064859,-0.034274 L 4.8872062,9.8876171 4.8680711,9.8246041 C 4.8575594,9.7899466 4.8233783,9.6750853 4.7921309,9.5693575 4.7608863,9.4636297 4.732209,9.3741907 4.7284045,9.3706032 4.7145675,9.3575552 4.543445,9.2601494 4.5401534,9.263441 c -0.00186,0.00186 0.014288,0.061866 0.035886,0.1333426 l 0.039271,0.1299581 -0.00364,0.057617 -0.00364,0.057617 -0.025532,0.038589 c -0.014034,0.021221 -0.042514,0.049825 -0.063264,0.063555 l -0.037726,0.024969 -0.044388,0.00386 -0.044388,0.00386 -0.032872,-0.017726 -0.032879,-0.017726 -0.018853,-0.036881 C 4.2977576,9.6841857 4.2453178,9.5175294 4.1915817,9.3341168 L 4.0939642,9.0007435 3.9300085,8.9068055 C 3.839834,8.8551405 3.7622931,8.8114595 3.7576967,8.8097345 l -0.00837,-0.00313 1.043e-4,0.2004001 1.042e-4,0.2004 0.077699,0.079846 c 0.042734,0.043915 0.156533,0.1630119 0.2528877,0.2646591 l 0.1751891,0.184813 0.00916,0.03313 0.00916,0.03313 -0.00721,0.031963 c -0.00397,0.017585 -0.016852,0.045003 -0.028632,0.060939 L 4.216371,9.9248637 4.171346,9.9442247 4.126321,9.9635857 H 4.078444 c -0.026321,0 -0.063594,-0.00648 -0.082802,-0.014401 L 3.9607092,9.9347857 3.8552858,9.8247152 3.7498623,9.7146446 3.749605,9.8295539 3.7493475,9.9444631 3.9207828,10.123479 c 0.094289,0.09846 0.1812396,0.197331 0.1932223,0.219719 l 0.021784,0.0407 -0.00617,0.03297 c -0.00341,0.01812 -0.014119,0.046 -0.023785,0.06193 l -0.017613,0.02896 -0.046995,0.02381 -0.046995,0.02381 h -0.050831 c -0.061976,0 -0.1076075,-0.01804 -0.1558511,-0.06163 l -0.036551,-0.03302 -0.00327,0.153004 -0.00327,0.153005 -0.021221,0.03991 -0.021221,0.03991 -0.036763,0.02432 -0.036763,0.02432 -0.054641,0.0045 -0.054641,0.0044 -0.040358,-0.02057 z"
       id="path1475" />
    <path
       style="fill:#000000;stroke-width:1"
       d="m 9.5461842,5.1652174 c -0.027832,-0.0018 -0.057853,-0.005 -0.066713,-0.007 l -0.01611,-0.0036 -0.0074,-0.01759 -0.0074,-0.01759 -0.00395,-0.139761 c -0.00217,-0.07687 -0.00407,-0.1544002 -0.00421,-0.172292 l -2.56e-4,-0.032529 -0.6783227,-2.877e-4 c -0.6283853,-2.665e-4 -0.804524,-0.00278 -0.8266957,-0.011826 -0.00474,-0.00194 -0.011926,-0.00992 -0.015976,-0.017752 l -0.00736,-0.014241 0.00806,-0.012302 C 7.9415971,4.6852797 8.1222453,4.4749531 8.5018593,4.0408383 8.6497798,3.8716811 8.7720015,3.7301636 8.773463,3.7263545 l 0.00266,-0.00693 -0.2041329,-2.87e-5 -0.204133,-2.92e-5 -0.017763,-0.00493 -0.017763,-0.00493 -0.012358,-0.014685 c -0.0068,-0.00808 -0.012346,-0.019399 -0.012331,-0.025159 l 2.89e-5,-0.010475 0.068383,-0.081929 C 8.4136619,3.5321968 8.5715645,3.3446051 8.7269458,3.1603857 8.8823271,2.9761662 9.0390973,2.7896913 9.075324,2.7459969 l 0.065867,-0.079444 -0.00835,-0.00299 c -0.00459,-0.00164 -0.094131,-0.00428 -0.1989762,-0.00586 l -0.1906276,-0.00286 -0.014096,-0.00536 c -0.00775,-0.00295 -0.015734,-0.00793 -0.017735,-0.011082 -0.00538,-0.00846 -0.00455,-0.036256 0.00142,-0.047411 0.017979,-0.033593 0.9884507,-1.2426631 0.9974371,-1.2426631 0.00912,0 0.9785157,1.2081386 0.9967847,1.2422753 0.0074,0.013894 0.0068,0.040753 -0.0012,0.051725 l -0.0066,0.00908 -0.0765,0.00352 c -0.04207,0.00193 -0.124207,0.0037 -0.182521,0.00393 -0.106433,4.207e-4 -0.156629,0.00359 -0.156629,0.00988 0,0.00515 0.119287,0.1486926 0.366544,0.4410666 0.438424,0.5184239 0.462383,0.5474991 0.462383,0.5611257 0,0.00508 -0.0056,0.015837 -0.01236,0.023915 l -0.01236,0.014685 -0.01776,0.00493 -0.01776,0.00493 -0.204132,2.87e-5 -0.204133,2.91e-5 0.0026,0.00693 c 0.0015,0.00379 0.131282,0.1539908 0.288491,0.3337395 0.373335,0.4268631 0.542714,0.624178 0.564991,0.6581777 l 0.0082,0.012487 -0.0076,0.014754 -0.0076,0.014754 -0.01317,0.00278 c -0.0072,0.00153 -0.0175,0.00412 -0.0228,0.00575 -0.0053,0.00162 -0.410849,0.00421 -0.901217,0.00573 l -0.8915788,0.00278 0.1373513,0.057398 c 0.075543,0.031567 0.1457776,0.061582 0.1560764,0.066697 l 0.018725,0.0093 -0.00249,0.1068 -0.00249,0.106799 -0.00531,0.01334 -0.00531,0.01334 -0.012702,0.0048 c -0.032007,0.01217 -0.2758865,0.01789 -0.4019339,0.0094 z M 9.3024839,4.4142927 c 0.017266,-0.00808 0.042312,-0.024905 0.055659,-0.037387 l 0.024267,-0.022698 0.014463,-0.02942 c 0.00795,-0.016184 0.016842,-0.042976 0.01975,-0.059543 l 0.00529,-0.030119 -0.00528,-0.029952 c -0.00714,-0.040506 -0.026582,-0.078443 -0.054544,-0.1064056 l -0.023227,-0.023225 -0.032486,-0.015388 -0.032486,-0.015388 h -0.050603 -0.050603 l -0.032646,0.015462 -0.032646,0.015462 -0.026628,0.026631 -0.026628,0.026626 -0.010283,0.022971 -0.010283,0.022971 -0.0021,0.055857 -0.0021,0.055856 0.010146,0.022934 c 0.024314,0.054966 0.068508,0.095564 0.1239872,0.1138969 l 0.028448,0.0094 0.039565,-0.0019 0.039565,-0.00194 z m 0.8428741,-0.3335216 0.0329,-0.00476 0.02616,-0.012806 0.02616,-0.012806 0.02669,-0.027986 c 0.01468,-0.015393 0.03132,-0.03835 0.03698,-0.051015 l 0.01029,-0.023031 0.0022,-0.054321 0.0022,-0.054321 -0.01531,-0.031095 c -0.0084,-0.017105 -0.02595,-0.042745 -0.03896,-0.056981 l -0.02366,-0.025886 -0.03032,-0.014 -0.03032,-0.014 h -0.05542 -0.05542 l -0.02867,0.014458 c -0.01577,0.00795 -0.039766,0.025303 -0.053325,0.038553 l -0.024653,0.024095 -0.012999,0.026672 c -0.00715,0.014671 -0.015419,0.040413 -0.018377,0.057205 l -0.00538,0.030531 0.00521,0.031442 c 0.013772,0.083115 0.075363,0.1464791 0.1550618,0.1595288 0.03592,0.00588 0.03215,0.00585 0.06905,5.089e-4 z m -0.4923473,-0.7823896 0.027307,-0.012991 0.02841,-0.030369 0.028409,-0.030369 0.00914,-0.028509 0.00914,-0.028509 -1.93e-5,-0.045784 -1.93e-5,-0.045785 -0.00848,-0.024951 c -0.011646,-0.034253 -0.031809,-0.060509 -0.065544,-0.085343 l -0.028525,-0.020999 -0.031529,-0.00853 -0.031529,-0.00853 -0.040617,0.00254 -0.040617,0.00254 -0.026808,0.012273 c -0.014744,0.00675 -0.037739,0.022498 -0.0511,0.034996 l -0.024293,0.022723 -0.014291,0.029422 c -0.00786,0.016184 -0.016477,0.043555 -0.019148,0.06083 l -0.00486,0.03141 0.00475,0.02949 c 0.012231,0.075947 0.061828,0.1344361 0.1300183,0.1533269 l 0.026507,0.00734 0.048193,-0.00162 0.048193,-0.00162 0.027307,-0.012991 z M 9.8453631,2.3818651 c 0.012137,-0.00398 0.034908,-0.017568 0.050603,-0.030191 l 0.028537,-0.022951 0.01584,-0.026334 c 0.00871,-0.014484 0.019267,-0.038064 0.023456,-0.052401 l 0.00762,-0.026066 -0.00206,-0.039214 -0.00206,-0.039214 -0.014604,-0.031107 C 9.9263057,2.058181 9.8835502,2.0223014 9.8236335,2.0060827 l -0.031267,-0.00846 -0.033182,0.00237 -0.033182,0.00237 -0.027143,0.012427 c -0.037026,0.016951 -0.063078,0.038909 -0.084856,0.071522 l -0.018325,0.027443 -0.00853,0.031506 -0.00853,0.031506 0.00236,0.036771 0.00236,0.036771 0.018772,0.036758 0.018772,0.036759 0.02485,0.020176 c 0.054429,0.044192 0.1342115,0.059322 0.1996289,0.037859 z M 9.4277769,1.3044176 c -0.00694,-0.011232 -0.00137,-0.068612 0.017661,-0.1820789 L 9.4651629,1.0047815 9.4004909,0.9392036 C 9.3161809,0.8537126 9.2823404,0.8173933 9.2673102,0.796269 l -0.012261,-0.017232 0.005,-0.00792 C 9.2665792,0.760764 9.2734062,0.759234 9.4040151,0.738849 9.4649801,0.729329 9.5257814,0.719384 9.5391298,0.716738 l 0.02427,-0.00481 0.051811,-0.107103 c 0.055503,-0.1147452 0.076301,-0.1516316 0.088025,-0.1561308 l 0.00738,-0.00283 0.014339,0.013738 0.014339,0.013738 0.060642,0.1210197 0.060642,0.1210197 0.089794,0.013257 c 0.049387,0.00729 0.1155852,0.017957 0.1471092,0.023702 l 0.05731,0.010445 0.0051,0.00804 0.0051,0.00804 -0.01369,0.019747 c -0.0075,0.010861 -0.05469,0.061916 -0.104816,0.1134541 l -0.091131,0.093705 0.019582,0.1170664 c 0.019277,0.1152436 0.02461,0.1699826 0.017657,0.1812319 -0.00775,0.012537 -0.03244,0.00312 -0.1548054,-0.059049 L 9.7102465,1.1802488 9.5825386,1.2450125 C 9.4608095,1.3067444 9.435273,1.3165465 9.4277769,1.3044176 Z"
       id="path1491" />
    <path
       style="fill:#000000;stroke-width:1"
       d="M 9.1231494,11.317693 C 8.5444864,11.174676 8.0961914,10.734271 7.9337504,10.149236 L 7.8838934,9.9696371 V 9.7322346 9.4948322 l 0.04897,-0.1763366 c 0.04725,-0.1701072 0.13275,-0.35891 0.227943,-0.5032562 l 0.04558,-0.069129 -0.123329,-0.1217997 -0.12333,-0.1217996 -0.05281,0.049618 -0.05281,0.049619 h -0.08024 -0.08022 L 7.6057523,8.5324734 C 7.5574097,8.4943729 7.4547635,8.4019176 7.3776495,8.3270173 L 7.2374415,8.1908357 7.2112084,8.1113506 7.1849753,8.0318655 7.1998001,7.939138 C 7.2295342,7.753186 7.3588874,7.6238346 7.5448386,7.5940995 l 0.092728,-0.014825 0.081386,0.02686 c 0.04476,0.014781 0.124059,0.062511 0.176215,0.1060872 l 0.09483,0.079227 0.05185,-0.1020131 c 0.05978,-0.1175997 0.08179,-0.1358582 0.141107,-0.1170267 0.06935,0.022014 0.07434,0.078194 0.0204,0.2288562 l -0.05083,0.1417231 0.03881,0.042888 0.03881,0.042888 v 0.077855 0.077855 l -0.07043,0.08545 c -0.03874,0.046997 -0.0665,0.087468 -0.06169,0.089938 0.0048,0.00247 0.06082,0.053873 0.124458,0.1142288 l 0.115733,0.1097402 0.146837,-0.1153922 c 0.08077,-0.063466 0.154738,-0.1153923 0.164375,-0.1153923 0.0096,0 0.07658,0.056315 0.148747,0.1251445 l 0.131209,0.1251445 0.153457,0.072691 0.153457,0.072691 h 0.271317 0.271317 l 0.148812,-0.070514 c 0.08185,-0.038783 0.2168584,-0.128244 0.3000404,-0.1988038 l 0.151221,-0.1282896 0.131773,0.101401 0.131773,0.1014009 0.0921,-0.094781 0.0921,-0.094781 -0.07738,-0.088554 -0.07738,-0.088554 v -0.066225 c 0,-0.036424 0.01693,-0.094787 0.03749,-0.1296961 l 0.03749,-0.063469 -0.04983,-0.1332796 -0.04984,-0.1332797 0.01454,-0.037628 c 0.008,-0.020685 0.03434,-0.043942 0.05865,-0.051661 l 0.04421,-0.014043 0.03607,0.02994 c 0.01975,0.016474 0.05242,0.068394 0.07239,0.11539 l 0.03631,0.08545 0.119901,-0.090114 c 0.187903,-0.1412195 0.347963,-0.149142 0.518422,-0.025662 l 0.08973,0.065001 0.03729,0.093201 c 0.04539,0.1134019 0.04734,0.2057083 0.0065,0.3021525 -0.0316,0.074502 -0.258051,0.308784 -0.397464,0.4112116 l -0.07788,0.057215 h -0.06972 c -0.03833,0 -0.0934,-0.016583 -0.122331,-0.03686 l -0.05264,-0.03686 -0.09188,0.091888 -0.09188,0.09189 0.05717,0.074977 c 0.08372,0.1097793 0.187208,0.3243505 0.241802,0.501292 l 0.04782,0.1549981 v 0.2859658 0.2859642 l -0.04298,0.146892 c -0.09344,0.319463 -0.237955,0.553927 -0.478873,0.77698 l -0.158363,0.146629 -0.20848,0.103463 -0.20848,0.103463 -0.1579716,0.03346 -0.157971,0.03346 -0.214797,-0.0013 -0.214796,-0.0013 -0.158276,-0.03912 z m 0.178223,-2.7811818 c -0.121463,-0.031475 -0.272051,-0.1142765 -0.3789,-0.2083281 l -0.102905,-0.090572 -0.06896,-0.1401212 c -0.03792,-0.077067 -0.07846,-0.1986237 -0.09008,-0.270127 l -0.02105,-0.1300065 0.01953,-0.1187002 c 0.01085,-0.065285 0.03058,-0.1473425 0.04404,-0.1823489 0.03241,-0.084282 0.03275,-0.083314 -0.03058,-0.083314 -0.03028,0 -0.08116,-0.00992 -0.113042,-0.022051 l -0.058,-0.02205 v -0.052562 c 0,-0.028909 0.01215,-0.064771 0.02713,-0.079693 l 0.02713,-0.027132 h 0.119835 0.119836 V 6.8480041 6.5865055 l 0.0234,-0.043732 0.0234,-0.043734 h 0.661671 0.6616706 l 0.02713,0.027132 0.02713,0.027132 v 0.2781 0.2781 h 0.119836 0.119835 l 0.02713,0.027132 c 0.01498,0.014912 0.02713,0.050784 0.02713,0.079693 v 0.052562 l -0.058,0.022051 c -0.03191,0.012133 -0.08385,0.02205 -0.115473,0.02205 h -0.05748 l 0.01671,0.039567 c 0.0091,0.021762 0.03184,0.1006131 0.05036,0.1752253 l 0.03366,0.1356585 -0.02583,0.1560855 -0.02583,0.1560833 -0.0713,0.1337941 -0.0713,0.133794 -0.100648,0.088597 c -0.05535,0.048729 -0.1551496,0.1152577 -0.2217366,0.1478396 l -0.121095,0.059243 -0.186883,0.00794 c -0.102797,0.00436 -0.218601,-2.698e-4 -0.257367,-0.01031 z m 0.433072,-0.3335869 c 0.04797,-0.024887 0.117166,-0.082272 0.153783,-0.1275213 l 0.06659,-0.082272 -0.03764,-0.057448 c -0.04578,-0.069876 -0.105488,-0.073505 -0.163051,-0.00992 -0.06407,0.070805 -0.154738,0.1107451 -0.251142,0.1106496 l -0.08591,-8.38e-5 -0.06783,-0.044809 c -0.03731,-0.024644 -0.08563,-0.057621 -0.107398,-0.073282 l -0.03957,-0.028473 -0.03805,0.024006 c -0.02084,0.013197 -0.04862,0.040765 -0.06156,0.061246 l -0.02349,0.037242 0.04573,0.062991 c 0.02516,0.034646 0.10119,0.091709 0.168954,0.1268092 l 0.1232,0.063818 0.115082,-0.00886 c 0.06329,-0.00486 0.154325,-0.029218 0.202272,-0.054105 z M 9.3702414,7.6844366 c 0.06299,-0.062995 0.01628,-0.1679583 -0.0746,-0.1679583 -0.05288,0 -0.09336,0.044116 -0.09336,0.1017439 0,0.095213 0.09967,0.134506 0.167956,0.066214 z m 0.420353,-0.010549 c 0.03416,-0.063844 0.0072,-0.1320229 -0.05878,-0.1485819 l -0.05531,-0.013891 -0.03362,0.027902 c -0.0733,0.060836 -0.02566,0.1806342 0.07184,0.1806342 h 0.0512 z"
       id="path1507" />
  </g>
</svg>
