<?xml version="1.0" encoding="UTF-8" standalone="no"?>
<!-- Created with Inkscape (http://www.inkscape.org/) -->

<svg
   xmlns:dc="http://purl.org/dc/elements/1.1/"
   xmlns:cc="http://creativecommons.org/ns#"
   xmlns:rdf="http://www.w3.org/1999/02/22-rdf-syntax-ns#"
   xmlns:svg="http://www.w3.org/2000/svg"
   xmlns="http://www.w3.org/2000/svg"
   xmlns:sodipodi="http://sodipodi.sourceforge.net/DTD/sodipodi-0.dtd"
   xmlns:inkscape="http://www.inkscape.org/namespaces/inkscape"
   width="18in"
   height="12in"
   viewBox="0 0 1296 864"
   version="1.1"
   id="svg8"
   inkscape:version="0.92.3 (2405546, 2018-03-11)"
   sodipodi:docname="Don'tBeAGrinchSecurityCamerasInUse.svg">
  <defs
     id="defs2" />
  <sodipodi:namedview
     id="base"
     pagecolor="#3f3f3f"
     bordercolor="#ff0000"
     borderopacity="1"
     inkscape:pageopacity="0"
     inkscape:pageshadow="2"
     inkscape:zoom="0.53588673"
     inkscape:cx="806.99155"
     inkscape:cy="569.32164"
     inkscape:document-units="in"
     inkscape:current-layer="layer1"
     showgrid="true"
     units="in"
     gridtolerance="10"
     inkscape:window-width="1920"
     inkscape:window-height="978"
     inkscape:window-x="-8"
     inkscape:window-y="29"
     inkscape:window-maximized="1"
     borderlayer="true">
    <inkscape:grid
       type="xygrid"
       id="grid815"
       units="in"
       spacingx="18"
       spacingy="18"
       empspacing="4"
       empcolor="#007fff"
       empopacity="0.25098039"
       color="#0000ff"
       opacity="0.1254902"
       originy="-1692" />
  </sodipodi:namedview>
  <metadata
     id="metadata5">
    <rdf:RDF>
      <cc:Work
         rdf:about="">
        <dc:format>image/svg+xml</dc:format>
        <dc:type
           rdf:resource="http://purl.org/dc/dcmitype/StillImage" />
        <dc:title></dc:title>
        <dc:creator>
          <cc:Agent>
            <dc:title>Doctor Wizard</dc:title>
          </cc:Agent>
        </dc:creator>
        <dc:rights>
          <cc:Agent>
            <dc:title>© 2019 Doctor Wizard and Wizlights</dc:title>
          </cc:Agent>
        </dc:rights>
        <dc:publisher>
          <cc:Agent>
            <dc:title>Doctor Wizard</dc:title>
          </cc:Agent>
        </dc:publisher>
      </cc:Work>
    </rdf:RDF>
  </metadata>
  <g
     inkscape:label="Layer 1"
     inkscape:groupmode="layer"
     id="layer1"
     transform="translate(0,-528.09999)">
    <path
       style="fill:#00ff00;fill-opacity:1;stroke-width:1"
       d="m 221.41642,1321.2384 c 6.1428,-2.8935 11.03834,-9.9366 15.60286,-22.4469 3.05444,-8.3716 5.69473,-14.221 8.33057,-18.4558 1.6554,-2.6594 2.93266,-3.673 8.22245,-6.5248 7.43385,-4.0075 9.15928,-6.0924 11.19332,-13.5255 2.39144,-8.7395 2.51889,-8.9597 7.42552,-12.8446 5.58474,-4.4217 9.07807,-8.1434 7.64372,-8.1434 -0.54183,0 -3.42548,0.7673 -6.40815,1.705 -5.31586,1.6713 -9.3408,4.0751 -11.81414,7.0556 -1.81201,2.1834 -3.8201,3.1117 -8.69205,4.0176 -10.71619,1.9928 -18.59173,7.1111 -30.24415,19.6555 -9.28333,9.994 -11.81634,11.5716 -15.73113,9.7969 -2.2579,-1.0235 -2.35008,-1.0069 -3.79578,0.6855 -1.39448,1.6325 -1.6207,1.6849 -3.84366,0.89 -1.29908,-0.4645 -4.1299,-1.8982 -6.29074,-3.1862 -3.38475,-2.0173 -4.14218,-2.2359 -5.47001,-1.5797 -0.84767,0.4191 -2.78003,0.762 -4.29412,0.762 -4.12313,0 -4.65021,-1.5491 -4.65021,-13.6672 0,-10.5822 -0.28354,-11.6181 -3.4199,-12.4942 -3.31631,-0.926 -5.04667,-0.2689 -6.78192,2.5758 -2.41535,3.96 -4.22849,4.1494 -7.4144,0.7751 -2.53242,-2.6822 -2.64616,-2.727 -4.92405,-1.9456 -1.28246,0.44 -2.33176,1.0155 -2.33176,1.279 0,0.2634 -0.96783,0.6759 -2.15072,0.9167 -1.84774,0.3761 -2.37155,0.1665 -3.71816,-1.4873 -2.37707,-2.9194 -6.86615,-12.723 -8.64668,-18.883 -2.13063,-7.3714 -2.59827,-13.9804 -1.65875,-23.4433 0.81471,-8.2058 1.25357,-9.5119 5.23594,-15.5823 2.86196,-4.3626 3.15935,-7.8754 1.04708,-12.3674 -0.71563,-1.5218 -1.30111,-3.5 -1.30111,-4.3959 0,-0.9026 1.48957,-3.8474 3.34068,-6.6043 5.59456,-8.3323 10.26611,-19.6602 12.47253,-30.244 0.78756,-3.7778 1.02148,-7.8087 0.93956,-16.1907 -0.0676,-6.9168 0.15494,-11.8828 0.58519,-13.0598 0.38184,-1.0445 0.69425,-3.3416 0.69425,-5.1047 0,-2.8727 0.38701,-3.7612 3.72786,-8.5574 2.05031,-2.9435 3.72918,-5.8421 3.7308,-6.4414 0.004,-1.3089 2.31809,-4.6446 3.22277,-4.6446 0.35331,0 1.47369,0.759 2.48978,1.6866 2.94269,2.6864 4.40764,2.1151 7.08765,-2.764 0.63964,-1.1646 0.75639,-1.1519 2.41561,0.2642 2.99967,2.5598 7.7027,1.5671 9.3949,-1.9831 1.38096,-2.8973 1.10127,-8.1057 -0.66843,-12.4473 -0.85498,-2.0973 -1.55451,-4.9821 -1.55451,-6.4106 0,-2.2478 0.27188,-2.7498 2.02085,-3.7314 1.78994,-1.0045 2.62602,-1.0411 7.31714,-0.3211 14.47305,2.2218 24.7571,0.3252 38.38521,-7.0787 5.61097,-3.0483 8.23886,-4.8336 8.23886,-5.5971 0,-0.6168 1.84273,-3.0858 4.09494,-5.4868 5.34687,-5.7001 8.64243,-10.7403 13.26168,-20.2818 7.09787,-14.6615 10.67675,-29.63151 14.06552,-58.83425 0.63926,-5.50869 0.35672,-37.57998 -0.37916,-43.04022 -0.91942,-6.8219 -0.45779,-7.77469 4.06392,-8.38769 7.67952,-1.041 31.1089,8.11083 66.40713,25.93954 16.38574,8.27618 23.14099,9.78093 26.47635,5.89743 0.6866,-0.79938 2.76683,-4.08348 4.62273,-7.29786 4.14289,-7.1754 7.18713,-16.76467 9.72684,-30.63928 2.81392,-15.37255 3.24329,-21.3767 3.60323,-50.38595 l 0.33288,-26.82901 1.87739,-1.45035 c 1.74076,-1.34482 2.08585,-1.38565 4.74249,-0.56108 4.83589,1.50095 6.61383,1.58459 7.73883,0.36402 0.56837,-0.61663 1.0334,-1.69466 1.0334,-2.3956 0,-1.30268 -0.2847,-1.6587 -3.26446,-4.08238 -2.14481,-1.74458 -2.145,-2.77423 -8.3e-4,-5.89158 0.9399,-1.36663 1.25238,-2.09758 0.69441,-1.6243 -0.83709,0.71002 -1.07822,0.68029 -1.37897,-0.17002 -0.20047,-0.56678 -2.12072,-2.26202 -4.26722,-3.7672 -2.86043,-2.00582 -4.48461,-2.70866 -6.08157,-2.63172 -3.47404,0.16736 -3.64771,0.087 -4.73394,-2.19197 -0.92396,-1.93852 -0.94944,-2.87317 -0.24243,-8.89223 0.62588,-5.32832 1.07703,-7.03737 2.17096,-8.22423 1.30637,-1.41731 1.56193,-1.45245 4.73453,-0.65093 1.84448,0.466 4.75266,1.60958 6.46261,2.5413 1.70995,0.93173 5.27796,2.2112 7.9289,2.84328 5.40042,1.28765 5.91153,1.84357 6.47962,7.04765 l 0.35521,3.25381 -2.75922,1.44917 c -1.51757,0.79705 -3.23049,1.44916 -3.8065,1.44916 -0.576,0 -1.04728,0.30358 -1.04728,0.67461 0,0.78475 3.41154,0.84807 12.65018,0.23478 3.6441,-0.24189 6.62564,-0.69725 6.62564,-1.01192 0,-0.31463 -0.90938,-0.58667 -2.02086,-0.60448 -1.11146,-0.0179 -3.00018,-0.55141 -4.19716,-1.18572 -2.07725,-1.10084 -2.18446,-1.33273 -2.35576,-5.09534 -0.18969,-4.16656 0.48969,-5.82958 2.38152,-5.82958 1.3077,0 5.06391,-2.03592 5.69655,-3.08759 0.24034,-0.39955 1.52476,-1.25863 2.85427,-1.90907 2.37257,-1.16076 2.48527,-1.15207 6.09192,0.4703 2.02105,0.90912 5.49339,2.27435 7.71633,3.03388 7.90814,2.70198 10.15289,2.55898 13.29196,-0.84671 1.80408,-1.95731 1.97421,-1.81038 -3.96495,-3.42385 -6.08009,-1.65174 -8.59077,-3.41356 -9.37661,-6.57986 -0.36038,-1.45201 -0.51654,-3.03213 -0.34704,-3.51138 0.16952,-0.47925 2.23589,-1.24513 4.59194,-1.70194 3.87055,-0.75045 4.42904,-1.06627 5.79012,-3.27425 0.8285,-1.34402 1.85872,-2.68644 2.28938,-2.98316 1.5695,-1.08137 0.72687,-1.69609 -1.43656,-1.048 -2.71229,0.8125 -9.92355,-0.26962 -13.60185,-2.04107 -2.90225,-1.39773 -6.80887,-5.41038 -8.22639,-8.44966 -1.46294,-3.13661 -2.65355,-4.36937 -5.57333,-5.77062 -2.56918,-1.233 -2.6401,-1.35074 -2.32231,-3.85455 0.83186,-6.55372 2.6815,-18.22022 3.05701,-19.2819 0.365,-1.03194 0.004,-1.17562 -2.91431,-1.15852 -4.47379,0.0262 -26.68349,1.8174 -27.01667,2.17887 -0.14531,0.15767 0.5762,2.49779 1.60338,5.20029 2.19063,5.76354 4.14778,12.80419 4.55944,16.40219 0.2721,2.3782 0.14893,2.61534 -1.82281,3.50916 -1.16304,0.52722 -5.34837,4.13686 -9.30073,8.02142 -3.95236,3.88455 -9.5089,8.73972 -12.34786,10.78926 -9.67428,6.98416 -10.72014,9.90245 -9.37575,26.16147 0.5975,7.22583 0.20358,9.10425 -2.13749,10.19296 -0.99294,0.46177 -3.26339,2.33196 -5.04542,4.156 -2.88694,2.95493 -3.18001,3.50641 -2.68898,5.05959 0.35268,1.11561 1.5581,2.26391 3.34818,3.18956 3.65046,1.88768 4.35158,2.64256 4.35158,4.68525 0,0.93138 0.41953,2.57361 0.93227,3.64936 0.86636,1.81768 0.77982,2.59569 -1.22443,11.00648 -3.82868,16.06693 -9.92381,33.20572 -14.62561,41.12551 -2.99302,5.04155 -4.34244,5.82821 -7.98973,4.65784 -1.25149,-0.40158 -4.02144,-1.03119 -6.15544,-1.39917 -4.91015,-0.84657 -13.24161,-4.51374 -18.66572,-8.2159 -15.73086,-10.73687 -38.47979,-33.32791 -42.74108,-42.44441 -0.78229,-1.6736 -2.01221,-3.62121 -2.73315,-4.32805 -1.5571,-1.52659 -1.68575,-3.46404 -0.32784,-4.93728 0.79967,-0.8676 2.43705,-1.05263 8.78173,-0.99237 6.58886,0.0627 8.16681,-0.12965 10.1711,-1.23902 2.24042,-1.24004 2.47263,-1.25062 4.17537,-0.19039 1.59208,0.99135 2.15158,1.0168 4.7823,0.2177 1.6386,-0.49775 4.33537,-1.91706 5.99282,-3.15403 1.65747,-1.23696 3.64989,-2.25111 4.42762,-2.25364 0.91934,-0.003 1.93831,-0.83978 2.91263,-2.39188 0.93182,-1.48434 1.83592,-2.24683 2.39041,-2.01599 1.32789,0.55283 4.17851,-3.13269 7.04242,-9.10503 1.78446,-3.72127 3.36234,-5.97309 5.38119,-7.67954 1.57101,-1.32794 3.04203,-2.41442 3.26894,-2.41442 0.22691,0 2.17214,0.7757 4.32271,1.7238 5.27727,2.32646 6.98439,2.05753 7.69265,-1.21185 0.71885,-3.31822 -0.86032,-6.34783 -4.42492,-8.4892 -3.5961,-2.16027 -3.35035,-3.22971 0.96448,-4.19724 1.96644,-0.44096 4.33781,-1.38846 5.2697,-2.10556 2.31175,-1.77892 3.35326,-5.68735 2.37367,-8.90759 -0.4095,-1.34621 -0.82752,-2.44766 -0.92891,-2.44766 -0.10139,0 -1.46364,0.77573 -3.0272,1.72385 -1.59707,0.96843 -4.00555,1.7814 -5.49613,1.85518 -2.46423,0.12195 -2.72756,-0.0365 -3.69558,-2.22425 -0.57326,-1.29558 -1.19771,-3.77932 -1.38766,-5.51941 -0.91901,-8.41865 -8.51955,-16.18977 -17.35811,-17.74773 -2.24321,-0.39541 -2.33175,-0.51361 -2.33175,-3.11239 0,-6.47767 -3.99617,-9.66133 -8.76717,-6.98461 -2.37538,1.33269 -4.06123,0.74295 -5.57483,-1.95018 -1.63309,-2.90578 -1.5166,-3.63687 0.66238,-4.15611 2.52555,-0.60181 2.36471,-1.68653 -0.25007,-1.68653 -1.82699,0 -2.21141,-0.29853 -2.81887,-2.18916 -0.38687,-1.20401 -0.98142,-5.07461 -1.32123,-8.60131 -0.64113,-6.65388 -2.18009,-15.77199 -4.32734,-25.63863 -0.68635,-3.15382 -1.41522,-6.54822 -1.61969,-7.54311 -0.34625,-1.68465 -0.07,-1.97375 4.02015,-4.20851 2.41556,-1.31978 5.36762,-3.32902 6.56013,-4.46499 3.90285,-3.71779 4.42233,-9.34174 1.12298,-12.15744 -1.39923,-1.19411 -2.16776,-1.34046 -5.10036,-0.97118 -2.99586,0.37723 -3.60639,0.25075 -4.61274,-0.95571 -0.98497,-1.18082 -1.10245,-2.07829 -0.77907,-5.95182 0.42679,-5.1123 -0.2343,-9.27168 -1.73185,-10.89643 -0.61794,-0.67042 -2.05224,-1.08565 -3.75009,-1.08565 -2.40716,0 -3.09212,0.3649 -5.50255,2.9315 -1.70982,1.82058 -3.19258,2.84318 -3.91274,2.69845 -0.7217,-0.14505 -1.90077,-1.91538 -3.12237,-4.68817 -1.07953,-2.45032 -2.72617,-5.10661 -3.65921,-5.90286 -2.72705,-2.3273 -7.63379,-1.70309 -10.642,1.35384 l -1.34078,1.36248 -1.41183,-2.0718 c -0.80638,-1.18332 -2.63129,-2.56595 -4.25543,-3.22407 -1.56398,-0.63375 -3.68302,-1.81682 -4.70899,-2.62905 -3.08087,-2.43901 -5.37311,-3.4347 -9.94882,-4.32149 -7.56527,-1.46618 -11.53137,-4.16152 -11.59247,-7.87822 -0.0119,-0.68315 0.91442,-4.12605 2.057,-7.6509 1.85509,-5.72288 2.31018,-6.53507 4.25196,-7.58835 2.73473,-1.4834 8.01617,-1.53067 12.42197,-0.11112 2.52982,0.81508 3.67632,0.89556 4.80563,0.33731 0.81574,-0.40324 2.42683,-0.73316 3.58023,-0.73316 1.98045,0 2.1561,0.19695 3.1587,3.54172 0.66948,2.23339 1.95127,4.48549 3.46988,6.09655 1.32452,1.40517 2.40823,2.83196 2.40823,3.17064 0,1.09611 4.24096,8.29043 6.24791,10.59891 2.53641,2.91748 6.17201,5.19279 12.82543,8.02666 6.00058,2.55581 10.11024,2.92083 15.46528,1.37359 4.52508,-1.30743 5.72188,-2.17131 7.11632,-5.1368 l 1.24195,-2.64125 -4.50438,-2.55523 c -4.55602,-2.58451 -7.10302,-5.05372 -16.31859,-15.82015 -6.31806,-7.38133 -8.97702,-8.93422 -15.08848,-8.81206 -4.01781,0.0803 -4.83997,-0.13129 -7.42789,-1.91191 -1.60051,-1.10122 -3.27751,-2.00222 -3.72664,-2.00222 -1.42408,0 -4.30865,-3.5707 -6.26734,-7.75805 -1.04133,-2.22623 -3.15302,-5.3762 -4.69264,-6.99995 -2.76089,-2.91179 -2.84901,-2.94834 -6.42656,-2.66531 -2.91196,0.23035 -5.12096,1.11106 -11.20136,4.46589 -5.57722,3.07718 -9.56609,4.72973 -15.12976,6.26813 -14.93285,4.12909 -24.05445,9.72214 -26.75837,16.40734 -2.06559,5.10695 -2.39908,9.23818 -1.10204,13.65122 2.35985,8.02906 3.59276,14.97525 4.23388,23.85365 0.36171,5.009 1.22812,15.22953 1.92536,22.71228 l 1.2677,13.60502 -1.31061,2.78722 c -0.72084,1.53297 -1.66524,2.93486 -2.09865,3.11532 -0.43343,0.18043 -2.02969,-0.28306 -3.54727,-1.02998 -3.34583,-1.64677 -9.18433,-1.82944 -11.78778,-0.36879 -2.96987,1.66623 -3.40904,3.30156 -1.90515,7.09434 0.71268,1.79739 1.2958,3.5695 1.2958,3.93801 0,1.4092 -2.04268,2.79023 -4.12701,2.79023 -2.82362,0 -4.34608,0.92922 -5.50447,3.35957 -2.03128,4.26167 -0.79254,10.06219 2.72995,12.78349 2.67111,2.06352 5.07387,2.35144 9.0797,1.08802 l 3.55872,-1.12243 2.72777,3.08865 c 1.50026,1.69875 2.72775,3.55863 2.72775,4.13307 0,0.57442 0.29698,1.64648 0.65997,2.38233 0.69293,1.40471 0.14662,4.08411 -1.73888,8.52833 -0.72958,1.71964 -0.77049,2.40809 -0.18835,3.16908 0.91728,1.19915 0.36756,2.30594 -2.3829,4.79771 -1.9932,1.80574 -2.0795,2.0682 -1.76544,5.36962 0.45932,4.82832 -0.0105,5.3729 -4.66597,5.41526 -7.15064,0.0651 -10.2332,3.22712 -8.35301,8.56845 0.56328,1.60023 1.02416,3.28962 1.02416,3.75421 0,0.46458 -1.3291,1.46275 -2.95356,2.21816 -1.62445,0.75541 -3.44322,1.85419 -4.0417,2.44173 -1.72656,1.69499 -1.38155,5.17194 0.77799,7.84043 1.78141,2.20122 1.82394,2.39377 0.93653,4.23981 -1.88099,3.913 -0.98379,6.1633 3.5926,9.01083 2.49041,1.54959 4.01796,2.01911 6.58482,2.02398 l 3.34218,0.006 -0.36706,1.99114 c -0.51054,2.76958 -12.06565,30.30028 -17.00251,40.50948 -6.9174,14.3049 -15.57337,28.14566 -23.63186,37.78716 -1.7016,2.03582 -3.6303,4.42024 -4.28598,5.29853 -3.24471,4.34637 -18.55855,18.79445 -28.22023,26.62477 -12.356851,10.01463 -15.374966,13.04464 -17.307837,17.37654 -1.528636,3.42605 -1.676705,5.93141 -0.696702,11.78857 0.817043,4.8831 2.50124,8.12265 7.046397,13.55356 1.995162,2.38405 3.476254,4.78281 3.476254,5.63014 0,2.87811 -1.875269,5.15078 -5.212169,6.31675 -4.681258,1.63563 -6.053792,3.03794 -6.419609,6.55913 -0.303222,2.91876 -0.231623,3.06236 3.249699,6.52188 3.944399,3.91963 3.945413,5.04822 0.0053,5.85024 -1.162991,0.23672 -3.524667,1.48273 -5.248166,2.76901 -2.407675,1.79684 -3.765903,2.33861 -5.862863,2.33861 -2.741404,0 -6.005956,1.92759 -6.005956,3.54636 0,2.47654 -2.890701,6.82014 -6.128475,9.20864 -6.280153,4.6325 -11.084334,11.2079 -12.166399,16.6518 -0.572604,2.8808 0.976193,4.3787 2.738359,2.6486 1.276823,-1.2537 3.087921,-0.983 3.168075,0.4736 0.0262,0.4753 0.14269,1.4058 0.258926,2.0674 0.116246,0.6615 -0.498709,3.0903 -1.366569,5.3969 -2.863367,7.6102 -5.157936,18.9299 -5.157936,25.4451 0,6.5565 1.493168,13.0492 3.879946,16.8711 1.849184,2.9611 2.828587,3.2247 3.285818,0.8845 0.544025,-2.783 2.054022,-6.2878 2.709343,-6.2878 0.312367,0 0.691616,4.933 0.842747,10.9624 0.309881,12.3621 1.608515,18.405 4.783844,22.2606 l 1.754721,2.1307 0.449064,-2.3294 c 0.497034,-2.5782 1.927971,-5.3652 2.754718,-5.3652 0.293506,0 0.858722,1.4005 1.256036,3.1124 2.764211,11.9102 12.108044,21.3519 22.258427,22.4917 2.725067,0.3061 4.241747,0.7925 4.435257,1.4222 0.55585,1.8092 3.72749,4.6805 5.17281,4.683 2.2183,0 5.18376,2.2927 6.10844,4.7148 0.66464,1.7408 0.69336,3.2998 0.14299,7.7626 -0.98414,7.9802 0.3932,16.9047 3.36954,21.8329 1.16407,1.9276 1.30171,5.2719 0.40641,9.8744 -0.69641,3.58 -0.30208,8.6809 1.07608,13.9195 0.81193,3.0864 0.79654,3.1613 -1.21932,5.9228 -1.12291,1.5382 -2.57128,4.309 -3.21861,6.1573 -2.94245,8.4015 -0.08,25.1815 6.91854,40.5579 2.58184,5.6725 11.93658,21.3775 15.60709,26.2018 3.01665,3.9649 6.76565,10.2027 6.76565,11.2573 0,0.4574 -1.12997,1.1988 -2.51105,1.6477 -2.73512,0.8891 -6.18651,5.1367 -6.20368,7.6349 -0.0138,2.0069 -0.5475,2.5612 -4.23435,4.3982 -1.82114,0.9075 -3.56996,2.1745 -3.88626,2.8157 -1.24104,2.516 -0.62026,7.0469 1.63588,11.9396 2.97472,6.4512 5.428,8.5684 11.09474,9.5751 2.42859,0.4314 4.97524,1.1642 5.65922,1.6283 2.78473,1.8896 6.30327,2.3923 21.45212,3.065 20.98824,0.9319 28.71942,1.7873 37.30804,4.127 7.8611,2.1417 13.44705,2.4479 16.70008,0.9154 z"
       id="path4530"
       inkscape:connector-curvature="0" />
    <text
       xml:space="preserve"
       style="font-style:normal;font-variant:normal;font-weight:normal;font-stretch:normal;font-size:214.19888306px;line-height:1.25;font-family:Grinched;-inkscape-font-specification:Grinched;letter-spacing:0px;word-spacing:0px;fill:#3721fc;fill-opacity:1;stroke:none;stroke-width:0.75"
       x="493.0105"
       y="805.62708"
       id="text4535"
       transform="scale(1.0345006,0.96665)"><tspan
         sodipodi:role="line"
         id="tspan4533"
         x="493.0105"
         y="805.62708"
         style="fill:#3721fc;fill-opacity:1;stroke-width:0.75">Don't  Be</tspan></text>
    <text
       xml:space="preserve"
       style="font-style:normal;font-variant:normal;font-weight:normal;font-stretch:normal;font-size:222.54377747px;line-height:1.25;font-family:Grinched;-inkscape-font-specification:Grinched;letter-spacing:0px;word-spacing:0px;fill:#3721fc;fill-opacity:1;stroke:none;stroke-width:0.75"
       x="545.40656"
       y="941.36707"
       id="text4539"
       transform="scale(0.93322433,1.0715537)"><tspan
         sodipodi:role="line"
         id="tspan4537"
         x="545.40656"
         y="941.36707"
         style="fill:#3721fc;fill-opacity:1;stroke-width:0.75">A  Grinch!</tspan></text>
    <text
       xml:space="preserve"
       style="font-style:normal;font-variant:normal;font-weight:normal;font-stretch:normal;font-size:144px;line-height:1.25;font-family:'Doctor Soos Bold';-inkscape-font-specification:'Doctor Soos Bold, ';letter-spacing:0px;word-spacing:0px;fill:#ff0000;fill-opacity:1;stroke:none;stroke-width:0.75"
       x="329.29099"
       y="1184.3031"
       id="text820"><tspan
         sodipodi:role="line"
         id="tspan818"
         x="329.29099"
         y="1184.3031"
         style="fill:#ff0000;fill-opacity:1;stroke-width:0.75">Security Cameras</tspan></text>
    <text
       xml:space="preserve"
       style="font-style:normal;font-variant:normal;font-weight:normal;font-stretch:normal;font-size:144px;line-height:1.25;font-family:'Doctor Soos Bold';-inkscape-font-specification:'Doctor Soos Bold, ';letter-spacing:0px;word-spacing:0px;fill:#ff0000;fill-opacity:1;stroke:none;stroke-width:0.75"
       x="626.85315"
       y="1324.1045"
       id="text824"><tspan
         sodipodi:role="line"
         id="tspan822"
         x="626.85315"
         y="1324.1045"
         style="fill:#ff0000;fill-opacity:1;stroke-width:0.75">In Use</tspan></text>
  </g>
</svg>
