<?xml version="1.0" encoding="UTF-8" standalone="no"?>
<svg
   xmlns:dc="http://purl.org/dc/elements/1.1/"
   xmlns:cc="http://creativecommons.org/ns#"
   xmlns:rdf="http://www.w3.org/1999/02/22-rdf-syntax-ns#"
   xmlns:svg="http://www.w3.org/2000/svg"
   xmlns="http://www.w3.org/2000/svg"
   xmlns:sodipodi="http://sodipodi.sourceforge.net/DTD/sodipodi-0.dtd"
   xmlns:inkscape="http://www.inkscape.org/namespaces/inkscape"
   width="11.3in"
   height="11.3in"
   viewBox="0 0 287.02 287.02001"
   version="1.1"
   id="svg2074"
   inkscape:version="1.0.1 (3bc2e813f5, 2020-09-07)"
   sodipodi:docname="Let's Work Together 2.5 2021 recut.svg">
  <defs
     id="defs2068" />
  <sodipodi:namedview
     id="base"
     pagecolor="#ffffff"
     bordercolor="#666666"
     borderopacity="1.0"
     inkscape:pageopacity="0.0"
     inkscape:pageshadow="2"
     inkscape:zoom="0.2030631"
     inkscape:cx="224.92114"
     inkscape:cy="556.81001"
     inkscape:document-units="in"
     inkscape:current-layer="layer1"
     showgrid="false"
     units="in"
     showguides="true"
     inkscape:guide-bbox="true"
     inkscape:window-width="1920"
     inkscape:window-height="1017"
     inkscape:window-x="-8"
     inkscape:window-y="-8"
     inkscape:window-maximized="1"
     inkscape:snap-global="false"
     inkscape:document-rotation="0">
    <sodipodi:guide
       position="-78.837523,297.3724"
       orientation="0,1"
       id="guide818"
       inkscape:locked="false" />
    <sodipodi:guide
       position="-73.661322,300.15958"
       orientation="0,1"
       id="guide820"
       inkscape:locked="false" />
  </sodipodi:namedview>
  <metadata
     id="metadata2071">
    <rdf:RDF>
      <cc:Work
         rdf:about="">
        <dc:format>image/svg+xml</dc:format>
        <dc:type
           rdf:resource="http://purl.org/dc/dcmitype/StillImage" />
        <dc:title></dc:title>
      </cc:Work>
    </rdf:RDF>
  </metadata>
  <g
     inkscape:label="Layer 1"
     inkscape:groupmode="layer"
     id="layer1"
     transform="translate(0,-9.979985)">
    <g
       aria-label="!"
       transform="matrix(1.2684066,0,-0.22404696,0.7883907,0,0)"
       id="text824"
       style="font-style:normal;font-variant:normal;font-weight:normal;font-stretch:normal;font-size:120.116px;line-height:1.25;font-family:'Franklin Gothic Heavy';-inkscape-font-specification:'Franklin Gothic Heavy, ';letter-spacing:0px;word-spacing:0px;fill:#000000;fill-opacity:1;stroke:none;stroke-width:0.986441">
      <path
         id="path854"
         style="stroke-width:0.986441"
         d="m 225.26131,358.78929 h 11.90603 v 14.8972 h -11.90603 z m 0,-72.66783 h 11.90603 v 38.41601 l -1.17301,20.93819 h -9.50137 l -1.23165,-20.93819 z m -171.324076,7.33416 14.248405,80.6651 H 208.06736 l -14.24841,-80.6651 z m 9.585264,2.73134 h 13.815349 l 2.04638,28.17591 h 12.384922 l -2.04638,-28.17591 h 13.815351 l 5.57856,76.61429 H 95.301337 L 93.068022,341.98708 H 80.683098 l 2.233315,30.81417 H 69.101066 Z m 48.283642,0 h 34.22425 l 1.21977,16.78193 h -20.40891 l 0.90064,12.01143 h 17.12965 l 1.19012,16.61413 h -17.12924 l 1.00339,13.5826 h 21.28118 l 1.26424,17.6242 h -35.09652 z m 40.88748,0 h 20.79269 c 5.65169,0 10.19166,2.00158 13.62007,6.00539 3.42179,3.96639 5.73751,9.37322 6.94705,16.22084 1.93659,10.9637 -0.0889,18.39172 -6.07652,22.28327 l 10.83401,32.10479 H 184.7165 l -9.33163,-29.13028 h -5.65162 l 2.11025,29.13028 h -13.57131 z m 14.76691,16.05239 1.0965,15.49131 h 5.37254 c 5.16328,0 7.24915,-2.80667 6.25772,-8.41948 -0.83279,-4.71476 -3.41201,-7.07183 -7.73799,-7.07183 z M 38.6433,201.53879 54.140499,289.27374 H 187.11588 l -15.4972,-87.73495 z m 62.76028,2.37607 c 5.9773,0 11.43989,3.1432 16.38786,9.42955 4.94135,6.24892 8.30768,14.44413 10.09886,24.58461 2.28689,12.94688 1.95096,23.94745 -1.0081,33.00278 -2.96567,9.01791 -8.12331,13.52688 -15.47283,13.52688 -5.62843,0 -11.03474,-2.95566 -16.218961,-8.86782 -5.190838,-5.94958 -8.764361,-14.46237 -10.720778,-25.53831 -2.26706,-12.83462 -1.876465,-23.72345 1.172204,-32.66653 3.042052,-8.9805 8.295936,-13.47116 15.761745,-13.47116 z m 48.95118,0.22482 c 10.67542,0 18.81304,8.21351 24.41254,24.64033 l -12.47769,3.42351 c -2.11,-6.81022 -5.09572,-10.21546 -8.95655,-10.21546 -3.48869,0 -5.37392,3.4804 -5.65632,10.44028 -0.2824,6.95988 0.16458,13.76972 1.34107,20.43026 1.57307,8.90565 4.54561,13.35842 8.91811,13.35842 3.41893,0 5.29103,-3.1615 5.61601,-9.48526 h -7.77994 l -1.14585,-16.16514 h 21.0021 l 3.05496,41.98399 h -6.90767 l -1.9056,-8.41947 c -1.52804,6.62311 -5.24605,9.93491 -11.15358,9.93491 -4.32598,0 -8.12535,-1.4971 -11.39855,-4.4906 -3.24995,-2.9935 -6.04719,-6.84703 -8.39175,-11.56179 -2.32793,-4.75218 -4.05686,-10.32761 -5.18708,-16.72622 -2.27368,-12.87204 -1.96292,-23.94841 0.93323,-33.22825 2.89615,-9.27985 8.12372,-13.91951 15.68256,-13.91951 z M 44.12263,205.7115 h 34.468294 l 1.298871,17.6242 H 69.388747 l 4.284777,59.21491 H 59.858177 L 55.573806,223.3357 H 45.386872 Z m 174.29542,0 h 34.46829 l 1.29888,17.6242 h -10.50105 l 4.28477,59.21491 h -13.81535 l -4.28437,-59.21491 h -10.18734 z m -37.56862,0.22417 h 34.22425 l 1.21988,16.78258 h -20.40891 l 0.90065,12.01144 h 17.12964 l 1.19001,16.61347 h -17.12924 l 1.0035,13.58325 h 21.28118 l 1.26424,17.6242 h -35.09652 z m -76.81617,15.82822 c -3.55847,0 -5.354999,3.98488 -5.389166,11.95506 -0.03417,7.9702 0.490798,15.02379 1.574756,21.16046 1.38139,7.82051 4.09565,11.7309 8.14255,11.7309 2.46534,0 4.04328,-1.66505 4.73423,-4.99532 0.68433,-3.36769 0.82694,-8.28834 0.42775,-14.76178 -0.39919,-6.47344 -0.8005,-10.85171 -1.20368,-13.13426 -0.694,-3.92896 -1.78888,-6.90357 -3.28543,-8.92418 -1.4733,-2.02061 -3.14037,-3.03088 -5.00101,-3.03088 z M 20.75171,105.581 36.248909,193.31595 H 253.35316 L 237.85597,105.581 Z m 92.06336,4.62695 c 6.76043,0 12.8972,3.58739 18.41055,10.76211 5.53706,7.17472 9.36424,16.75369 11.48093,28.737 2.19084,12.40309 1.80005,22.34505 -1.17218,29.82507 -2.97222,7.48003 -7.85035,11.21963 -14.63451,11.21964 -6.83159,0 -13.05004,-3.64465 -18.65477,-10.93385 -5.58101,-7.28921 -9.449834,-17.03991 -11.60697,-29.2522 -2.06276,-11.67799 -1.712982,-21.31421 1.049254,-28.90873 2.779216,-7.63268 7.821676,-11.44904 15.127696,-11.44904 z m -89.114414,1.20212 H 37.71971 l 14.753914,45.05223 -1.339868,-45.05223 h 11.742026 l 15.14503,45.05223 -1.161828,-45.05223 h 11.421801 l 0.921559,78.13957 H 76.678085 l -14.410047,-43.1055 1.209078,43.1055 H 50.419147 Z m 118.592394,0 h 25.36956 c 5.59811,0 10.31304,2.11862 14.145,6.35475 3.84895,4.19798 6.3835,9.75048 7.60362,16.65805 0.79545,4.50329 0.93062,8.49138 0.40546,11.96425 -0.53191,3.43471 -2.29696,6.46854 -5.29508,9.10182 l 14.80506,34.0607 h -16.54541 l -12.35898,-29.88145 h -4.69665 l 5.27816,29.88145 h -14.90844 z m 50.24085,0 h 14.0545 l 5.70295,32.28635 7.71109,-32.28635 h 13.3786 l -7.23006,28.56526 23.98569,49.57431 h -16.33192 l -13.61466,-29.53798 -2.98448,11.50607 3.18509,18.03191 h -14.0545 z m -76.51292,16.54399 c -4.88649,0 -5.96131,7.74723 -3.22444,23.24156 2.56833,14.54025 6.2008,21.81068 10.89753,21.81068 2.5144,0 4.00712,-1.75566 4.47811,-5.26668 0.48796,-3.5492 -0.0972,-10.01822 -1.75546,-19.40642 -2.39981,-13.58616 -5.86506,-20.37914 -10.39574,-20.37914 z m 44.11285,0.057 2.63919,14.94138 h 6.36908 c 1.87395,0 3.26919,-0.62968 4.18534,-1.88906 0.91614,-1.25939 1.15841,-3.11066 0.72699,-5.55312 -0.88308,-4.9994 -3.23421,-7.4992 -7.05326,-7.4992 z M 5.5204831,15.594517 21.017682,103.32947 H 200.76631 L 185.26911,15.594517 Z M 158.00482,18.9374 c 9.89158,0 17.556,6.392271 22.99285,19.177007 l -11.28481,6.011291 c -2.20446,-5.22839 -5.26395,-7.842667 -9.17788,-7.842667 -3.24976,0 -4.58784,1.621643 -4.01485,4.865534 0.25616,1.450212 0.82257,2.576193 1.69948,3.377623 0.87691,0.80143 2.43486,1.564441 4.67409,2.289548 6.16214,1.984489 10.59988,3.740143 13.31277,5.26668 2.71289,1.526534 5.21442,4.140812 7.50504,7.842666 2.28388,3.66368 3.86732,7.99524 4.7504,12.994638 1.39539,7.899822 0.53538,14.310956 -2.58012,19.234032 -3.12225,4.884913 -7.9214,7.327468 -14.39718,7.327468 -11.8367,0 -20.54473,-7.937819 -26.12435,-23.813781 l 13.13325,-4.00687 c 2.2746,6.296962 5.81979,9.445283 10.63512,9.445283 3.74789,0 5.33877,-1.602779 4.77252,-4.80851 -0.2966,-1.679184 -0.96491,-2.976893 -2.00437,-3.89282 -1.02248,-0.954086 -2.71245,-1.793862 -5.07029,-2.518961 -8.98091,-2.63328 -15.0555,-6.067813 -18.22328,-10.303945 -3.16778,-4.236141 -5.25715,-9.216216 -6.26831,-14.940721 -1.30102,-7.365536 -0.65134,-13.491113 1.94904,-18.376026 2.62411,-4.884913 7.19765,-7.327469 13.72088,-7.327469 z M 8.2067644,20.139528 H 23.115199 l 10.414943,58.962561 h 19.14267 l 3.38736,19.177004 H 22.009067 Z m 39.2818696,0 h 36.541615 l 3.185209,18.03256 H 65.297497 l 2.002059,11.334342 h 17.719577 l 3.063872,17.345629 H 70.363427 l 2.254806,12.765225 h 21.917961 l 3.296358,18.661809 H 61.290937 Z m 38.178596,0 h 34.26459 l 3.30654,18.71949 h -10.0696 l 10.49576,59.420075 H 109.53913 L 99.043376,38.859018 h -10.0696 z m 37.25336,0 h 10.49657 l 4.04512,32.973282 h -6.93823 z" />
    </g>
  </g>
</svg>
