<?xml version="1.0" encoding="UTF-8" standalone="no"?>
<!-- Created with Inkscape (http://www.inkscape.org/) -->

<svg
   xmlns:dc="http://purl.org/dc/elements/1.1/"
   xmlns:cc="http://creativecommons.org/ns#"
   xmlns:rdf="http://www.w3.org/1999/02/22-rdf-syntax-ns#"
   xmlns:svg="http://www.w3.org/2000/svg"
   xmlns="http://www.w3.org/2000/svg"
   xmlns:sodipodi="http://sodipodi.sourceforge.net/DTD/sodipodi-0.dtd"
   xmlns:inkscape="http://www.inkscape.org/namespaces/inkscape"
   width="11.3in"
   height="11.3in"
   viewBox="0 0 287.02 287.02001"
   version="1.1"
   id="svg2074"
   inkscape:version="0.92.4 (5da689c313, 2019-01-14)"
   sodipodi:docname="Let's Work Together 2.5.svg">
  <defs
     id="defs2068" />
  <sodipodi:namedview
     id="base"
     pagecolor="#ffffff"
     bordercolor="#666666"
     borderopacity="1.0"
     inkscape:pageopacity="0.0"
     inkscape:pageshadow="2"
     inkscape:zoom="0.66449955"
     inkscape:cx="224.92114"
     inkscape:cy="556.81001"
     inkscape:document-units="in"
     inkscape:current-layer="layer1"
     showgrid="false"
     units="in"
     showguides="true"
     inkscape:guide-bbox="true"
     inkscape:window-width="1920"
     inkscape:window-height="1017"
     inkscape:window-x="-8"
     inkscape:window-y="-8"
     inkscape:window-maximized="1"
     inkscape:snap-global="false">
    <sodipodi:guide
       position="-82.022876,279.91303"
       orientation="0,1"
       id="guide818"
       inkscape:locked="false" />
    <sodipodi:guide
       position="-78.041183,219.78946"
       orientation="0,1"
       id="guide820"
       inkscape:locked="false" />
  </sodipodi:namedview>
  <metadata
     id="metadata2071">
    <rdf:RDF>
      <cc:Work
         rdf:about="">
        <dc:format>image/svg+xml</dc:format>
        <dc:type
           rdf:resource="http://purl.org/dc/dcmitype/StillImage" />
        <dc:title></dc:title>
      </cc:Work>
    </rdf:RDF>
  </metadata>
  <g
     inkscape:label="Layer 1"
     inkscape:groupmode="layer"
     id="layer1"
     transform="translate(0,-9.979985)">
    <path
       style="fill:none;fill-opacity:1;fill-rule:evenodd;stroke:#000000;stroke-width:0.95999992;stroke-miterlimit:4;stroke-dasharray:none;stroke-dashoffset:0;stroke-opacity:1"
       d="M 13.259766 8.7480469 L 13.259766 270.17578 L 874.9707 270.17578 L 874.9707 8.7480469 L 13.259766 8.7480469 z M 741.43555 18.708984 C 788.85559 18.708984 820.18573 37.756317 835.42383 75.851562 L 776.23438 93.763672 C 770.09365 78.184408 757.64027 70.394531 738.87695 70.394531 C 723.29769 70.394531 715.50977 75.226613 715.50977 84.892578 C 715.50977 89.213838 717.27163 92.568974 720.79688 94.957031 C 724.32212 97.345088 731.14481 99.618667 741.26562 101.7793 C 769.12631 107.69257 788.91407 112.92397 800.62695 117.47266 C 812.33981 122.02134 822.11837 129.81122 829.96484 140.8418 C 837.81132 151.75863 841.73438 164.66557 841.73438 179.5625 C 841.73437 203.10195 832.1826 222.20549 813.07812 236.875 C 793.97365 251.43079 768.89828 258.70898 737.85352 258.70898 C 681.10867 258.70898 646.08422 235.05631 632.7793 187.75 L 699.13281 175.81055 C 704.70494 194.57389 719.03454 203.95508 742.11914 203.95508 C 760.08644 203.95508 769.07031 199.17921 769.07031 189.62695 C 769.07031 184.62341 766.96533 180.75657 762.75781 178.02734 C 758.66398 175.18441 751.2734 172.68209 740.58398 170.52148 C 699.75954 162.67498 673.54641 152.44095 661.94727 139.81836 C 650.34812 127.19574 644.54883 112.35639 644.54883 95.298828 C 644.54883 73.351413 652.85044 55.098761 669.45312 40.542969 C 686.16955 25.987176 710.16333 18.708984 741.43555 18.708984 z M 22.289062 22.291016 L 93.759766 22.291016 L 93.759766 197.98438 L 185.5293 197.98438 L 185.5293 255.12695 L 22.289062 255.12695 L 22.289062 22.291016 z M 210.60547 22.291016 L 385.78516 22.291016 L 385.78516 76.023438 L 280.71094 76.023438 L 280.71094 109.79688 L 365.6582 109.79688 L 365.6582 161.48242 L 280.71094 161.48242 L 280.71094 199.51953 L 385.78516 199.51953 L 385.78516 255.12695 L 210.60547 255.12695 L 210.60547 22.291016 z M 393.63281 22.291016 L 557.89648 22.291016 L 557.89648 78.070312 L 509.62305 78.070312 L 509.62305 255.12695 L 441.90625 255.12695 L 441.90625 78.070312 L 393.63281 78.070312 L 393.63281 22.291016 z M 572.22461 22.291016 L 622.54492 22.291016 L 614.01562 120.54297 L 580.75391 120.54297 L 572.22461 22.291016 z "
       transform="matrix(0.26458333,0,0,0.26458333,0,9.979985)"
       id="rect3289" />
    <text
       xml:space="preserve"
       style="font-style:normal;font-variant:normal;font-weight:normal;font-stretch:normal;font-size:16.93333435px;line-height:1.25;font-family:'Segoe UI';-inkscape-font-specification:'Segoe UI';letter-spacing:0px;word-spacing:0px;fill:none;fill-opacity:1;stroke:#000000;stroke-width:0.25399999;stroke-miterlimit:4;stroke-dasharray:none;stroke-opacity:1;"
       x="-451.30359"
       y="111.03573"
       id="text2637"><tspan
         sodipodi:role="line"
         id="tspan2635"
         x="-451.30359"
         y="111.03573"
         style="stroke-width:0.25399999;stroke-miterlimit:4;stroke-dasharray:none;stroke:#000000;stroke-opacity:1;fill:none;">L</tspan></text>
    <path
       style="font-style:normal;font-variant:normal;font-weight:normal;font-stretch:normal;font-size:92.42928314px;line-height:1.25;font-family:'Franklin Gothic Heavy';-inkscape-font-specification:'Franklin Gothic Heavy, Normal';font-variant-ligatures:normal;font-variant-caps:normal;font-variant-numeric:normal;font-feature-settings:normal;text-align:start;letter-spacing:0px;word-spacing:0px;writing-mode:lr-tb;text-anchor:start;fill:none;fill-opacity:1;stroke:#000000;stroke-width:0.95999992;stroke-miterlimit:4;stroke-dasharray:none;stroke-opacity:1"
       d="M 10.078125 276.88477 L 10.078125 538.3125 L 1050.8711 538.3125 L 1050.8711 276.88477 L 10.078125 276.88477 z M 447.50977 290.67188 C 479.91914 290.67188 506.30087 301.36141 526.65625 322.74023 C 547.12532 344.11906 557.36133 372.66195 557.36133 408.36914 C 557.36133 445.3272 547.06913 474.95168 526.48633 497.24023 C 505.90352 519.52881 479.35121 530.67187 446.82812 530.67188 C 414.07759 530.67188 387.35277 519.81178 366.65625 498.0918 C 346.07345 476.37183 335.7832 447.31723 335.7832 410.92773 C 335.7832 376.1303 345.6199 347.41683 365.29297 324.78711 C 385.07975 302.04368 412.48488 290.67188 447.50977 290.67188 z M 19.279297 294.25391 L 86.486328 294.25391 L 119.06641 428.49805 L 150.79297 294.25391 L 207.08398 294.25391 L 241.53906 428.49805 L 274.11914 294.25391 L 328.875 294.25391 L 267.125 527.08984 L 207.08398 527.08984 L 174.50391 398.64648 L 143.79883 527.08984 L 81.199219 527.08984 L 19.279297 294.25391 z M 587.80859 294.25391 L 709.42969 294.25391 C 736.26693 294.25391 757.07616 300.56686 771.85938 313.18945 C 786.75633 325.69833 794.20508 342.24337 794.20508 362.82617 C 794.20508 376.24481 791.476 388.12832 786.01758 398.47656 C 780.55916 408.71112 769.52849 417.75118 752.92578 425.59766 L 795.05859 527.08984 L 715.74023 527.08984 L 681.79492 438.05078 L 659.2793 438.05078 L 659.2793 527.08984 L 587.80859 527.08984 L 587.80859 294.25391 z M 828.66211 294.25391 L 896.03906 294.25391 L 896.03906 390.45898 L 960.3457 294.25391 L 1024.4824 294.25391 L 965.63281 379.37109 L 1038.6406 527.08984 L 960.3457 527.08984 L 920.08984 439.07422 L 896.03906 473.35938 L 896.03906 527.08984 L 828.66211 527.08984 L 828.66211 294.25391 z M 447.85156 343.55078 C 424.42582 343.55078 412.71289 366.63554 412.71289 412.80469 C 412.71289 456.1309 423.97032 477.79492 446.48633 477.79492 C 458.54033 477.79492 467.18307 472.56352 472.41406 462.10156 C 477.75877 451.52586 480.43164 432.24982 480.43164 404.27539 C 480.43164 363.79211 469.57153 343.55078 447.85156 343.55078 z M 659.2793 343.7207 L 659.2793 388.24219 L 689.8125 388.24219 C 698.79616 388.24219 706.01814 386.36592 711.47656 382.61328 C 716.93498 378.86061 719.66406 373.34432 719.66406 366.06641 C 719.66406 351.16947 710.50963 343.7207 692.20117 343.7207 L 659.2793 343.7207 z "
       transform="matrix(0.26458333,0,0,0.26458333,0,9.979985)"
       id="path2709" />
    <path
       style="font-style:italic;font-variant:normal;font-weight:normal;font-stretch:normal;font-size:90.6257782px;line-height:1.25;font-family:'Franklin Gothic Heavy';-inkscape-font-specification:'Franklin Gothic Heavy, Italic';font-variant-ligatures:normal;font-variant-caps:normal;font-variant-numeric:normal;font-feature-settings:normal;text-align:start;letter-spacing:0px;word-spacing:0px;writing-mode:lr-tb;text-anchor:start;fill:none;fill-opacity:1;stroke:#000000;stroke-width:0.95999992;stroke-miterlimit:4;stroke-dasharray:none;stroke-opacity:1"
       d="M 14.59375 562.81445 L 14.59375 824.24219 L 1050.8711 824.24219 L 1050.8711 562.81445 L 14.59375 562.81445 z M 313.45312 569.89453 C 342.10817 569.89453 365.63405 579.26047 384.03125 597.99219 C 402.42848 616.61238 411.62695 641.03201 411.62695 671.24805 C 411.62695 709.82644 400.70131 742.60531 378.84766 769.58789 C 356.994 796.45897 328.45026 809.89453 293.2168 809.89453 C 266.23422 809.89453 242.81933 801.08743 222.97266 783.4707 C 203.12595 765.74248 193.20312 740.37654 193.20312 707.37305 C 193.20313 669.12917 204.2962 636.68325 226.48438 610.03516 C 248.67252 583.27557 277.66218 569.89453 313.45312 569.89453 z M 547.93359 570.56445 C 599.1113 570.56445 631.16777 595.0386 644.10156 643.98633 L 581.38477 654.1875 C 577.03632 633.89481 565.60636 623.74805 547.09766 623.74805 C 530.37292 623.74805 518.38802 634.11875 511.14062 654.85742 C 503.89325 675.59609 500.26953 695.88767 500.26953 715.73438 C 500.26953 742.27094 510.74927 755.53906 531.71094 755.53906 C 548.10119 755.53906 559.75313 746.11858 566.66602 727.27539 L 529.36914 727.27539 L 537.56445 679.10742 L 638.24805 679.10742 L 617.3418 804.20898 L 584.22656 804.20898 L 582.2207 779.12109 C 569.28691 798.85628 548.65845 808.72461 520.33789 808.72461 C 499.59922 808.72461 482.65288 804.26361 469.49609 795.34375 C 456.45078 786.42389 446.30401 774.94136 439.05664 760.89258 C 431.92074 746.7323 428.35352 730.11894 428.35352 711.05273 C 428.35352 672.69733 439.22268 639.69257 460.96484 612.04102 C 482.707 584.38944 511.69667 570.56445 547.93359 570.56445 z M 37.328125 575.24805 L 202.56836 575.24805 L 193.87109 627.76367 L 143.5293 627.76367 L 113.92773 804.20898 L 47.697266 804.20898 L 77.300781 627.76367 L 28.464844 627.76367 L 37.328125 575.24805 z M 872.89648 575.24805 L 1038.1367 575.24805 L 1029.4395 627.76367 L 979.09766 627.76367 L 949.49609 804.20898 L 883.26562 804.20898 L 912.86914 627.76367 L 864.03125 627.76367 L 872.89648 575.24805 z M 692.60352 575.91602 L 856.67383 575.91602 L 848.31055 625.92383 L 750.4707 625.92383 L 744.61719 661.71484 L 826.73633 661.71484 L 818.37305 711.21875 L 736.25586 711.21875 L 729.56445 751.69336 L 831.58594 751.69336 L 822.72266 804.20898 L 654.4707 804.20898 L 692.60352 575.91602 z M 310.94531 623.08008 C 293.88609 623.08008 281.89921 634.95401 274.98633 658.70312 C 268.07342 682.45227 264.61719 703.47015 264.61719 721.75586 C 264.61719 745.05899 274.31803 756.71094 293.71875 756.71094 C 305.53756 756.71094 314.51212 751.74952 320.64453 741.82617 C 326.77692 731.79132 331.62736 717.12904 335.19531 697.83984 C 338.76326 678.55065 340.54687 665.50451 340.54688 658.70312 C 340.54687 646.99581 337.81692 638.13224 332.35352 632.11133 C 327.00158 626.09044 319.86517 623.08008 310.94531 623.08008 z "
       transform="matrix(0.26458333,0,0,0.26458333,0,9.979985)"
       id="path2649" />
    <path
       style="font-style:italic;font-variant:normal;font-weight:normal;font-stretch:normal;font-size:90.6257782px;line-height:1.25;font-family:'Franklin Gothic Heavy';-inkscape-font-specification:'Franklin Gothic Heavy, Italic';font-variant-ligatures:normal;font-variant-caps:normal;font-variant-numeric:normal;font-feature-settings:normal;text-align:start;letter-spacing:0px;word-spacing:0px;writing-mode:lr-tb;text-anchor:start;fill:none;fill-opacity:1;stroke:#000000;stroke-width:0.95999992;stroke-miterlimit:4;stroke-dasharray:none;stroke-opacity:1"
       d="M 10.078125 836.70312 L 10.078125 1077.0645 L 680.66797 1077.0645 L 680.66797 836.70312 L 10.078125 836.70312 z M 53.716797 844.8418 L 119.94727 844.8418 L 105.89844 928.79883 L 165.27148 928.79883 L 179.32031 844.8418 L 245.55078 844.8418 L 207.41797 1073.1328 L 141.1875 1073.1328 L 156.57422 981.31445 L 97.201172 981.31445 L 81.814453 1073.1328 L 15.583984 1073.1328 L 53.716797 844.8418 z M 285.1875 844.8418 L 449.25781 844.8418 L 440.89453 894.84766 L 343.05469 894.84766 L 337.20117 930.63867 L 419.32031 930.63867 L 410.95703 980.14453 L 328.83984 980.14453 L 322.14844 1020.6172 L 424.16992 1020.6172 L 415.30664 1073.1328 L 247.05469 1073.1328 L 285.1875 844.8418 z M 481.20117 844.8418 L 580.88086 844.8418 C 607.97493 844.8418 628.04455 850.80602 641.08984 862.73633 C 654.13514 874.55516 660.6582 890.66615 660.6582 911.07031 C 660.6582 943.73931 644.6582 965.87293 612.6582 977.46875 L 637.41016 1073.1328 L 569.8418 1073.1328 L 549.77344 986.33203 L 522.67969 986.33203 L 508.12891 1073.1328 L 443.06836 1073.1328 L 481.20117 844.8418 z M 538.40039 892.67383 L 530.53906 938.83398 L 556.29492 938.83398 C 581.04753 938.83398 593.42383 930.47083 593.42383 913.74609 C 593.42383 899.69731 583.05508 892.67383 562.31641 892.67383 L 538.40039 892.67383 z "
       transform="matrix(0.26458333,0,0,0.26458333,0,9.979985)"
       id="path2659" />
    <text
       xml:space="preserve"
       style="font-style:normal;font-variant:normal;font-weight:normal;font-stretch:normal;font-size:94.69837952px;line-height:1.25;font-family:'Franklin Gothic Heavy';-inkscape-font-specification:'Franklin Gothic Heavy, ';letter-spacing:0px;word-spacing:0px;fill:#000000;fill-opacity:1;stroke:none;stroke-width:0.98644137"
       x="239.75069"
       y="294.61096"
       id="text824"
       transform="skewX(-10.017201)"><tspan
         sodipodi:role="line"
         id="tspan822"
         x="239.75069"
         y="294.61096"
         style="stroke-width:0.98644137">!</tspan></text>
  </g>
</svg>
