<?xml version="1.0" encoding="UTF-8" standalone="no"?>
<svg
   xmlns:dc="http://purl.org/dc/elements/1.1/"
   xmlns:cc="http://creativecommons.org/ns#"
   xmlns:rdf="http://www.w3.org/1999/02/22-rdf-syntax-ns#"
   xmlns:svg="http://www.w3.org/2000/svg"
   xmlns="http://www.w3.org/2000/svg"
   xmlns:sodipodi="http://sodipodi.sourceforge.net/DTD/sodipodi-0.dtd"
   xmlns:inkscape="http://www.inkscape.org/namespaces/inkscape"
   width="10in"
   height="9in"
   viewBox="0 0 10 9"
   version="1.1"
   id="svg8"
   inkscape:version="1.0.1 (3bc2e813f5, 2020-09-07)"
   sodipodi:docname="On The Air Smaller sign.svg">
  <defs
     id="defs2" />
  <sodipodi:namedview
     id="base"
     pagecolor="#ffffff"
     bordercolor="#666666"
     borderopacity="1.0"
     inkscape:pageopacity="0.0"
     inkscape:pageshadow="2"
     inkscape:zoom="0.66583926"
     inkscape:cx="589.43093"
     inkscape:cy="566.36904"
     inkscape:document-units="in"
     inkscape:current-layer="layer1"
     inkscape:document-rotation="0"
     showgrid="true"
     units="in"
     inkscape:snap-global="false"
     inkscape:window-width="1920"
     inkscape:window-height="1017"
     inkscape:window-x="-8"
     inkscape:window-y="-8"
     inkscape:window-maximized="1"
     inkscape:snap-nodes="true"
     inkscape:snap-others="false"
     inkscape:snap-smooth-nodes="true"
     inkscape:object-paths="true"
     inkscape:snap-intersection-paths="true"
     inkscape:snap-grids="false"
     inkscape:snap-to-guides="false"
     showguides="false">
    <inkscape:grid
       type="xygrid"
       id="grid849"
       units="in"
       spacingx="0.25"
       spacingy="0.25"
       empspacing="4" />
  </sodipodi:namedview>
  <metadata
     id="metadata5">
    <rdf:RDF>
      <cc:Work
         rdf:about="">
        <dc:format>image/svg+xml</dc:format>
        <dc:type
           rdf:resource="http://purl.org/dc/dcmitype/StillImage" />
        <dc:title></dc:title>
        <dc:creator>
          <cc:Agent>
            <dc:title>Doctor Wizard</dc:title>
          </cc:Agent>
        </dc:creator>
        <dc:rights>
          <cc:Agent>
            <dc:title>Copyright 2021+ by Doctor Wizard</dc:title>
          </cc:Agent>
        </dc:rights>
        <dc:publisher>
          <cc:Agent>
            <dc:title>Doctor Wizard</dc:title>
          </cc:Agent>
        </dc:publisher>
        <dc:source>Doctor Wizard</dc:source>
        <dc:contributor>
          <cc:Agent>
            <dc:title>Doctor Wizard</dc:title>
          </cc:Agent>
        </dc:contributor>
      </cc:Work>
    </rdf:RDF>
  </metadata>
  <g
     inkscape:label="Layer 1"
     inkscape:groupmode="layer"
     id="layer1">
    <g
       id="g866"
       transform="matrix(1.4221192,0,0,1.4221192,-2.01225,0.12615092)"
       style="stroke-width:0.703176" />
    <g
       id="g871"
       transform="matrix(0.89616377,0,0,0.89616377,0.62651448,0.64903935)"
       style="stroke-width:1.11587" />
    <g
       id="g876"
       transform="matrix(0.78646676,0,0,0.78646676,0.55530382,-1.3522071)"
       style="stroke-width:1.27151">
      <path
         id="path853"
         style="font-size:2.29755px;line-height:1.25;font-family:Oliver;-inkscape-font-specification:Oliver;text-align:center;text-anchor:middle;fill:#8e00fd;fill-opacity:1;stroke-width:0.0132449"
         d="m 6.500265,7.8095333 q 0.033656,0 0.033656,-0.035899 0,-0.028046 -0.022437,-0.062824 0.1817398,0.015706 0.1817398,0.1604246 0,0.1076977 -0.09087,0.1772524 -0.084139,0.065067 -0.1940801,0.065067 -0.1974457,0 -0.3432863,-0.1750087 -0.075164,-0.09087 -0.1402313,-0.2198827 -0.075164,-0.1514498 -0.075164,-0.2456853 0,-0.1301346 0.1099413,-0.1301346 0.074042,0 0.1918365,0.1211598 0.097601,0.1121851 0.1963238,0.2243702 0.1065758,0.1211598 0.1525713,0.1211603 z M 6.6315215,6.8593259 q 0,0.195202 -0.1032102,0.3444081 -0.1177943,0.1671557 -0.3051434,0.1671557 -0.1278909,0 -0.2254919,-0.069555 -0.1088196,-0.077408 -0.1088196,-0.2008112 0,-0.095357 0.057214,-0.1705213 0.062824,-0.080773 0.1570591,-0.080773 0.07292,0 0.088626,0.040387 -0.084139,0.015706 -0.084139,0.065067 0,0.04824 0.06058,0.04824 0.1234036,0 0.1234036,-0.1626684 0,-0.1256472 -0.071798,-0.2008112 -0.071798,-0.076286 -0.1963239,-0.076286 -0.088626,0 -0.1357439,0.04263 -0.053849,0.04824 -0.063945,0.2355886 -0.00112,0.00785 -0.00112,0.2647567 v 0.2187609 q 0,0.3354333 0,0.3275803 0.00673,0.2512946 0.041508,0.3040215 0.00449,0.00561 0.038143,0.034777 0.026924,0.025803 0.026924,0.035899 0,0.020193 -0.021315,0.020193 -0.040387,0 -0.1245254,-0.00561 -0.083017,-0.00561 -0.1245254,-0.00561 -0.038143,0 -0.1177943,0.00561 -0.079651,0.00561 -0.1211599,0.00449 h -0.01795 l -0.00897,-0.00449 -0.00224,-0.010097 q 0,-0.014584 0.026924,-0.040387 0.033656,-0.03029 0.038143,-0.037021 0.033656,-0.053849 0.040387,-0.3253366 0.00112,-0.015706 0.00112,-0.3567485 0,-0.3062652 -0.00785,-0.5811186 -0.00337,-0.1121851 -0.034777,-0.1604246 -0.00449,-0.00673 -0.037021,-0.035899 -0.026924,-0.024681 -0.026924,-0.035899 0,-0.019071 0.041508,-0.019071 0.037021,0 0.1110632,0.00561 0.074042,0.00561 0.1110632,0.00561 0.095357,0 0.2838282,-0.019071 0.1895927,-0.020193 0.2838282,-0.020193 0.1929583,0 0.3040215,0.1290128 0.1054539,0.1222817 0.1054539,0.3186056 z M 4.9992289,6.4509723 q 0.034777,0 0.112185,-0.00561 0.07292,-0.00673 0.113307,-0.00561 l 0.033656,0.00112 0.010097,0.00449 0.00224,0.01234 q 0,0.013462 -0.028046,0.037021 -0.033656,0.03029 -0.037021,0.035899 -0.037021,0.053849 -0.043752,0.3275803 0,-0.00897 0,0.3589922 0,0.3062652 0.00785,0.5811186 0.00224,0.1032103 0.032534,0.1525717 0.00449,0.00673 0.038143,0.039265 0.03029,0.028046 0.03029,0.037021 0,0.020193 -0.022437,0.020193 -0.040387,0 -0.1234035,-0.00561 -0.083017,-0.00561 -0.1256473,-0.00561 -0.041508,0 -0.127891,0.00561 -0.085261,0.00449 -0.1290128,0.00449 l -0.00897,-0.00449 -0.00224,-0.011219 q 0,-0.013462 0.029168,-0.041509 0.034777,-0.032534 0.039265,-0.040387 0.038143,-0.068433 0.038143,-0.6731104 0,-0.3017778 -0.00785,-0.5844841 -0.00224,-0.105454 -0.031412,-0.1548154 -0.00449,-0.00673 -0.038143,-0.039265 -0.029168,-0.026925 -0.029168,-0.037021 0,-0.021315 0.028046,-0.021315 0.040387,0 0.120038,0.00673 0.080773,0.00561 0.120038,0.00561 z m -1.156628,1.0635143 q 0.07853,0 0.1009666,-0.032534 v -0.013462 q 0,-0.00673 -0.1043321,-0.374698 -0.039265,0.089748 -0.07853,0.1783742 -0.04824,0.1177943 -0.04824,0.1828616 0,0.043752 0.047118,0.054971 0.01795,0.00449 0.083017,0.00449 z M 3.6148653,6.6394432 q -0.057214,0 -0.057214,0.058336 0,0.037021 0.049361,0.04824 -0.015706,0.1234035 -0.1099413,0.1234035 -0.065067,0 -0.1155506,-0.077408 -0.044874,-0.068433 -0.044874,-0.1368658 0,-0.1581809 0.1211599,-0.2524164 0.1110632,-0.086383 0.2748534,-0.086383 0.1806179,0 0.2726097,0.1166725 0.063945,0.080773 0.1155506,0.2815845 l 0.2311012,0.8851401 q 0.059458,0.2277356 0.1346221,0.2277356 0.076286,0 0.076286,-0.086383 0,-0.022437 -0.014584,-0.045996 -0.014584,-0.024681 -0.016828,-0.033656 l 0.014584,-0.00673 q 0.06058,0.00337 0.094235,0.063945 0.026924,0.050483 0.026924,0.1166725 0,0.1211598 -0.099845,0.2030549 -0.094235,0.077408 -0.2187608,0.077408 -0.1323784,0 -0.2019331,-0.1032102 Q 4.0882862,7.917231 4.0310718,7.8218737 3.9424456,7.7186634 3.7629496,7.7186634 q -0.086382,0 -0.1536936,0.056093 -0.070677,0.059458 -0.070677,0.1469625 0,0.040387 0.056093,0.068433 0.056093,0.026924 0.056093,0.044874 0,0.01234 -0.021315,0.01234 -0.041508,0 -0.1245254,-0.00561 -0.083017,-0.00561 -0.1245254,-0.00561 -0.037021,0 -0.1110632,0.00561 -0.074042,0.00561 -0.1110632,0.00561 -0.035899,0 -0.043752,-0.00561 l -0.00112,-0.01234 q 0,-0.01234 0.013462,-0.021315 0.096479,-0.069555 0.120038,-0.096479 0.033656,-0.039265 0.070677,-0.1413532 L 3.6215964,6.9322462 q 0.04824,-0.1312565 0.04824,-0.2075424 0,-0.085261 -0.054971,-0.085261 z m 1.9687119,-0.5241658 -0.00579,-0.0029 -0.00144,-0.00796 q 0,-0.00796 0.018091,-0.024604 0.022433,-0.020262 0.025327,-0.024604 0.02171,-0.034011 0.026051,-0.2098551 7.224e-4,-0.00941 7.224e-4,-0.2293935 0,-0.196106 -0.00506,-0.3748448 -0.00217,-0.073811 -0.02388,-0.1049275 -0.00217,-0.0029 -0.02388,-0.021709 -0.017367,-0.015197 -0.017367,-0.023156 0,-0.011579 0.031117,-0.011579 0.021709,0 0.066575,0.00362 0.044866,0.00362 0.067298,0.00362 0.060062,0 0.1780151,-0.013025 0.1179531,-0.013749 0.1765678,-0.013749 0.059339,0 0.09552,0.027498 0.040524,0.031117 0.040524,0.088284 0,0.077429 -0.062233,0.1295313 -0.059338,0.049207 -0.1382149,0.049207 -0.025328,0 -0.053549,-0.00796 -0.038353,-0.010131 -0.039077,-0.027498 0.056444,-0.033287 0.056444,-0.078877 0,-0.073811 -0.083942,-0.073811 -0.029669,0 -0.040524,0.00941 -0.012301,0.0796 -0.012301,0.2257752 v 0.027498 q 0.068746,0.077429 0.1599241,0.077429 0.1128876,0 0.1794624,-0.096968 0.012301,0.048484 0.012301,0.091902 0,0.080324 -0.046313,0.1374914 -0.049931,0.060785 -0.1288076,0.060785 -0.069469,0 -0.1230186,-0.046313 -0.026051,-0.026051 -0.052825,-0.052102 -0.00434,0.00651 -0.00434,0.074535 0,0.334321 0.1259131,0.334321 0.033287,0 0.059339,-0.022432 0.026051,-0.023156 0.026051,-0.05572 0,-0.020986 -0.014473,-0.040524 -0.014473,-0.019538 -0.034011,-0.019538 -0.017367,0 -0.048484,0.015197 0.036905,-0.1222949 0.1751206,-0.1222949 0.086113,0 0.1317022,0.053549 0.043418,0.049931 0.043418,0.1367677 0,0.097691 -0.083218,0.1454513 -0.066575,0.039077 -0.172226,0.039077 -0.052102,0 -0.1555823,-0.01592 -0.1027567,-0.015197 -0.1548586,-0.015197 -0.022433,0 -0.073088,0.00434 -0.047036,0.00362 -0.073088,0.0029 z m -0.8155406,-0.00651 q -0.024604,0 -0.075982,0.00362 -0.051378,0.00362 -0.078153,0.0029 h -0.011579 l -0.00651,-0.0029 -7.225e-4,-0.00651 q 0,-0.010131 0.017367,-0.025327 0.020986,-0.019538 0.02388,-0.023156 0.022433,-0.035458 0.026774,-0.2127498 7.225e-4,-0.00651 7.225e-4,-0.2315643 0,-0.188146 -0.00506,-0.3719502 -0.00217,-0.070917 -0.022432,-0.1027567 -0.00217,-0.00434 -0.02388,-0.02388 -0.017367,-0.01592 -0.017367,-0.023156 0,-0.013025 0.018091,-0.013025 0.025327,0 0.076706,0.00434 0.052102,0.00362 0.078153,0.00362 0.022433,0 0.072364,-0.00362 0.047036,-0.00434 0.072364,-0.00362 l 0.02171,7.224e-4 0.00651,0.0029 0.00144,0.00796 q 0,0.00868 -0.018091,0.024604 -0.022432,0.018814 -0.025328,0.023156 -0.021709,0.033287 -0.021709,0.1056512 0,0.2084079 0.1592004,0.2084079 0.1599242,0 0.1599242,-0.1990006 0,-0.080324 -0.023156,-0.1150585 -0.00217,-0.00362 -0.02388,-0.022433 -0.018091,-0.01592 -0.018091,-0.023156 0,-0.013025 0.018091,-0.013025 0.025327,0 0.076706,0.00434 0.052102,0.00362 0.078153,0.00362 0.024604,0 0.073087,-0.00362 0.048484,-0.00362 0.072364,-0.00362 0.023156,0 0.028945,0.00362 l 0.00144,0.00796 q 0,0.00868 -0.018091,0.024604 -0.02171,0.019538 -0.024604,0.023156 -0.022432,0.034735 -0.026774,0.214197 0,-0.00796 0,0.2330116 0,0.1924879 0.00434,0.3690557 0.00217,0.070917 0.02388,0.1034803 0.00217,0.00362 0.02388,0.022432 0.017367,0.015197 0.017367,0.022433 0,0.013025 -0.013749,0.013025 -0.026774,0 -0.081047,-0.00362 -0.054273,-0.00362 -0.081048,-0.00362 -0.022433,0 -0.07164,0.00362 -0.046313,0.00434 -0.07164,0.00362 l -0.022433,-7.225e-4 -0.00651,-0.0029 -7.224e-4,-0.00724 q 0,-0.00868 0.018815,-0.023156 0.023156,-0.018091 0.025327,-0.020986 0.018815,-0.024604 0.02171,-0.097691 0,0.00144 0,-0.1063749 0,-0.1324258 -0.019538,-0.1816332 -0.034732,-0.085387 -0.1461729,-0.085387 -0.1034803,0 -0.1374913,0.093349 -0.019538,0.053549 -0.019538,0.1838043 0,0.1642659 0.027498,0.196106 0.00144,0.00217 0.023156,0.018814 0.017367,0.013025 0.017367,0.020262 0,0.012302 -0.013749,0.012302 -0.026774,0 -0.080324,-0.00362 -0.053549,-0.00362 -0.080324,-0.00362 z M 4.5219995,5.0609361 q -0.041971,0.036181 -0.041971,0.1555822 0,0.025328 0.00651,0.074535 0.00651,0.049207 0.00651,0.074535 0,0.067298 -0.034011,0.112164 -0.037629,0.048484 -0.1034803,0.048484 -0.059338,0 -0.1020331,-0.043418 -0.041971,-0.044142 -0.041971,-0.1034802 0,-0.073087 0.06368,-0.1367678 0.00651,0.041971 0.044142,0.041971 0.044142,0 0.044142,-0.044866 0,-0.04776 -0.06368,-0.04776 -0.038353,0 -0.081771,0.033287 -0.089008,0.066575 -0.089008,0.2568918 0,0.3509646 0.00434,0.4739832 0.0029,0.073087 0.024604,0.1034803 0.00217,0.0029 0.023156,0.020986 0.017367,0.015197 0.017367,0.022433 0,0.013025 -0.013749,0.013025 -0.026775,0 -0.080324,-0.00362 -0.053549,-0.00362 -0.080324,-0.00362 -0.027498,0 -0.083218,0.0029 -0.052826,0.00362 -0.082495,0.00362 l -0.00651,-0.0029 -7.225e-4,-0.00796 q 0,-0.00796 0.018091,-0.024604 0.02171,-0.020262 0.024604,-0.024604 0.026774,-0.041971 0.026774,-0.4616814 0,-0.1700551 -0.018091,-0.2453135 -0.036906,-0.156305 -0.1541357,-0.156305 -0.062957,0 -0.062957,0.050655 0,0.041971 0.040524,0.041971 0.041247,0 0.048484,-0.041971 0.06368,0.065128 0.06368,0.1280841 0,0.060785 -0.037629,0.1063748 -0.040524,0.049207 -0.099862,0.049207 -0.069469,0 -0.1078221,-0.046313 -0.036182,-0.042694 -0.036182,-0.1128876 0,-0.026051 0.00579,-0.076706 0.00651,-0.051378 0.00651,-0.076706 0,-0.1165058 -0.041247,-0.1526877 0.2568917,0.022432 0.5622671,0.022432 0.2380771,0 0.4320122,-0.022432 z M 6.2790433,4.7476753 q -0.040192,0 -0.1205757,0.00574 -0.080384,0.00574 -0.1205756,0.00574 -0.040192,0 -0.048231,-0.00574 l -0.00229,-0.011484 q 0,-0.011484 0.031005,-0.033302 0.031005,-0.021818 0.031005,-0.067752 0,-0.1194272 -0.4754125,-0.9462317 -0.00574,0.1837342 -0.00574,0.3801004 0,0.3066066 0,0.3077549 0.00689,0.2319647 0.043637,0.2847883 0.00345,0.0046 0.037895,0.035598 0.02756,0.025264 0.02756,0.035598 0,0.019521 -0.043637,0.019521 -0.024115,0 -0.070049,-0.0046 -0.045934,-0.0046 -0.070049,-0.0046 -0.039044,0 -0.1228723,0.00574 -0.08268,0.0046 -0.1263174,0.00345 h -0.022967 l -0.00918,-0.0046 -0.00115,-0.011484 q 0,0.00918 0.047082,-0.065455 0.048231,-0.074642 0.053972,-0.1906244 0.00804,-0.1779926 0.00804,-0.5247911 0,-0.3112 -0.00918,-0.5902466 -0.00345,-0.1125372 -0.032154,-0.1607675 -0.0046,-0.00689 -0.039044,-0.039044 -0.028708,-0.02756 -0.028708,-0.037895 0,-0.02067 0.021818,-0.02067 0.048231,0 0.1446909,0.00689 0.097608,0.00574 0.1458391,0.00574 0.037895,0 0.121724,-0.00574 0.078087,-0.00689 0.1205756,-0.00574 l 0.037895,0.00115 0.010335,0.00459 0.00115,0.012632 q 0,0.010335 -0.032154,0.037895 -0.032154,0.026412 -0.032154,0.08268 0,0.080384 0.196366,0.4455557 0.1297624,0.2319646 0.2583765,0.4650775 0,-0.2997166 0.016077,-0.5247911 0.00229,-0.033302 0.02067,-0.1102407 0.018374,-0.071197 0.018374,-0.1113889 0,-0.066604 -0.060862,-0.066604 -0.049379,0 -0.049379,0.056269 0,0.05512 0.064307,0.057417 l 0.00689,0.012631 q 0.00115,0.044785 -0.045934,0.07579 -0.041341,0.028708 -0.088422,0.028708 -0.086126,0 -0.1446908,-0.084977 -0.051675,-0.075791 -0.051675,-0.1653613 0,-0.125169 0.095313,-0.2135911 0.091867,-0.086126 0.2181845,-0.086126 0.1378008,0 0.2181845,0.084977 0.080384,0.084977 0.080384,0.2239262 0,0.028709 -0.00689,0.081532 -0.00804,0.056269 -0.00918,0.081532 -0.029857,1.0289122 -0.029857,1.0633624 0,0.084977 0.037895,0.1240207 0.00345,0.00229 0.039044,0.022967 0.02756,0.017225 0.02756,0.028708 0,0.018374 -0.035598,0.018374 -0.040192,0 -0.1228723,-0.00574 -0.08268,-0.00689 -0.1240207,-0.00689 z M 5.0457267,3.9369476 q 0,0.372062 -0.2652665,0.6327351 -0.2652664,0.2595247 -0.6396251,0.2595247 -0.4042155,0 -0.6579986,-0.2790465 -0.2445962,-0.2698598 -0.2445962,-0.6775203 0,-0.3766554 0.2468929,-0.6109166 0.2422997,-0.2319646 0.6246967,-0.2319646 0.3835454,0 0.6579986,0.2618214 0.2778982,0.2664147 0.2778982,0.6453668 z M 4.1121266,3.9139808 q 0,0.059713 0.057417,0.09646 0.049379,0.032154 0.1125372,0.032154 0.125169,0 0.2067012,-0.094164 0.076939,-0.08957 0.076939,-0.2170362 0,-0.2055528 -0.1332073,-0.3307218 Q 4.3004543,3.275504 4.0926049,3.275504 q -0.2273713,0 -0.351392,0.1711026 -0.1113889,0.1527292 -0.1113889,0.3881388 0,0.2767498 0.1309107,0.4891927 0.1538776,0.250338 0.4156989,0.250338 0.2044045,0 0.3422052,-0.1699543 0.1274657,-0.1584709 0.1274657,-0.3674687 0,-0.032154 -0.00345,-0.057417 -0.1240207,0.3582819 -0.4191439,0.3582819 -0.1504326,0 -0.2480414,-0.1171307 -0.091867,-0.1102405 -0.091867,-0.2629697 0,-0.1389491 0.08957,-0.2457447 0.095313,-0.1148339 0.2319646,-0.1148339 0.072346,0 0.1240207,0.041341 0.056269,0.043637 0.056269,0.1136857 0,0.1423941 -0.080384,0.135504 l -0.010335,-0.00115 q -0.048231,-0.074642 -0.083829,-0.074642 -0.098757,0 -0.098757,0.1022026 z" />
    </g>
  </g>
</svg>
