<?xml version="1.0" encoding="UTF-8" standalone="no"?>
<svg
   xmlns:dc="http://purl.org/dc/elements/1.1/"
   xmlns:cc="http://creativecommons.org/ns#"
   xmlns:rdf="http://www.w3.org/1999/02/22-rdf-syntax-ns#"
   xmlns:svg="http://www.w3.org/2000/svg"
   xmlns="http://www.w3.org/2000/svg"
   xmlns:sodipodi="http://sodipodi.sourceforge.net/DTD/sodipodi-0.dtd"
   xmlns:inkscape="http://www.inkscape.org/namespaces/inkscape"
   width="10in"
   height="9in"
   viewBox="0 0 10 9"
   version="1.1"
   id="svg8"
   inkscape:version="1.0.1 (3bc2e813f5, 2020-09-07)"
   sodipodi:docname="On The Air sign.svg">
  <defs
     id="defs2" />
  <sodipodi:namedview
     id="base"
     pagecolor="#ffffff"
     bordercolor="#666666"
     borderopacity="1.0"
     inkscape:pageopacity="0.0"
     inkscape:pageshadow="2"
     inkscape:zoom="0.66583926"
     inkscape:cx="589.43093"
     inkscape:cy="566.36904"
     inkscape:document-units="in"
     inkscape:current-layer="layer1"
     inkscape:document-rotation="0"
     showgrid="true"
     units="in"
     inkscape:snap-global="false"
     inkscape:window-width="1920"
     inkscape:window-height="1017"
     inkscape:window-x="-8"
     inkscape:window-y="-8"
     inkscape:window-maximized="1"
     inkscape:snap-nodes="true"
     inkscape:snap-others="false"
     inkscape:snap-smooth-nodes="true"
     inkscape:object-paths="true"
     inkscape:snap-intersection-paths="true"
     inkscape:snap-grids="false"
     inkscape:snap-to-guides="false"
     showguides="false">
    <inkscape:grid
       type="xygrid"
       id="grid849"
       units="in"
       spacingx="0.25"
       spacingy="0.25"
       empspacing="4" />
  </sodipodi:namedview>
  <metadata
     id="metadata5">
    <rdf:RDF>
      <cc:Work
         rdf:about="">
        <dc:format>image/svg+xml</dc:format>
        <dc:type
           rdf:resource="http://purl.org/dc/dcmitype/StillImage" />
        <dc:title></dc:title>
        <dc:creator>
          <cc:Agent>
            <dc:title>Doctor Wizard</dc:title>
          </cc:Agent>
        </dc:creator>
        <dc:rights>
          <cc:Agent>
            <dc:title>Copyright 2021+ by Doctor Wizard</dc:title>
          </cc:Agent>
        </dc:rights>
        <dc:publisher>
          <cc:Agent>
            <dc:title>Doctor Wizard</dc:title>
          </cc:Agent>
        </dc:publisher>
        <dc:source>Doctor Wizard</dc:source>
        <dc:contributor>
          <cc:Agent>
            <dc:title>Doctor Wizard</dc:title>
          </cc:Agent>
        </dc:contributor>
      </cc:Work>
    </rdf:RDF>
  </metadata>
  <g
     inkscape:label="Layer 1"
     inkscape:groupmode="layer"
     id="layer1">
    <g
       id="g866"
       transform="matrix(1.4221192,0,0,1.4221192,-2.01225,0.12615092)"
       style="stroke-width:0.703176" />
    <g
       id="g871"
       transform="matrix(0.89616377,0,0,0.89616377,0.62651448,0.64903935)"
       style="stroke-width:1.11587" />
    <g
       id="g876"
       transform="matrix(1.3893149,0,0,1.3893149,-1.8378698,-3.2099808)"
       style="stroke-width:0.719779">
      <path
         id="path853"
         style="font-size:2.29755px;line-height:1.25;font-family:Oliver;-inkscape-font-specification:Oliver;text-align:center;text-anchor:middle;stroke-width:0.00749772;fill:#8e00fd;fill-opacity:1"
         d="m 6.500265,7.8095333 q 0.033656,0 0.033656,-0.035899 0,-0.028046 -0.022437,-0.062824 0.1817398,0.015706 0.1817398,0.1604246 0,0.1076977 -0.09087,0.1772524 -0.084139,0.065067 -0.1940801,0.065067 -0.1974457,0 -0.3432863,-0.1750087 -0.075164,-0.09087 -0.1402313,-0.2198827 -0.075164,-0.1514498 -0.075164,-0.2456853 0,-0.1301346 0.1099413,-0.1301346 0.074042,0 0.1918365,0.1211598 0.097601,0.1121851 0.1963238,0.2243702 0.1065758,0.1211598 0.1525713,0.1211603 z M 6.6315215,6.8593259 q 0,0.195202 -0.1032102,0.3444081 -0.1177943,0.1671557 -0.3051434,0.1671557 -0.1278909,0 -0.2254919,-0.069555 -0.1088196,-0.077408 -0.1088196,-0.2008112 0,-0.095357 0.057214,-0.1705213 0.062824,-0.080773 0.1570591,-0.080773 0.07292,0 0.088626,0.040387 -0.084139,0.015706 -0.084139,0.065067 0,0.04824 0.06058,0.04824 0.1234036,0 0.1234036,-0.1626684 0,-0.1256472 -0.071798,-0.2008112 -0.071798,-0.076286 -0.1963239,-0.076286 -0.088626,0 -0.1357439,0.04263 -0.053849,0.04824 -0.063945,0.2355886 -0.00112,0.00785 -0.00112,0.2647567 v 0.2187609 q 0,0.3354333 0,0.3275803 0.00673,0.2512946 0.041508,0.3040215 0.00449,0.00561 0.038143,0.034777 0.026924,0.025803 0.026924,0.035899 0,0.020193 -0.021315,0.020193 -0.040387,0 -0.1245254,-0.00561 -0.083017,-0.00561 -0.1245254,-0.00561 -0.038143,0 -0.1177943,0.00561 -0.079651,0.00561 -0.1211599,0.00449 h -0.01795 l -0.00897,-0.00449 -0.00224,-0.010097 q 0,-0.014584 0.026924,-0.040387 0.033656,-0.03029 0.038143,-0.037021 0.033656,-0.053849 0.040387,-0.3253366 0.00112,-0.015706 0.00112,-0.3567485 0,-0.3062652 -0.00785,-0.5811186 -0.00337,-0.1121851 -0.034777,-0.1604246 -0.00449,-0.00673 -0.037021,-0.035899 -0.026924,-0.024681 -0.026924,-0.035899 0,-0.019071 0.041508,-0.019071 0.037021,0 0.1110632,0.00561 0.074042,0.00561 0.1110632,0.00561 0.095357,0 0.2838282,-0.019071 0.1895927,-0.020193 0.2838282,-0.020193 0.1929583,0 0.3040215,0.1290128 0.1054539,0.1222817 0.1054539,0.3186056 z M 4.9992289,6.4509723 q 0.034777,0 0.112185,-0.00561 0.07292,-0.00673 0.113307,-0.00561 l 0.033656,0.00112 0.010097,0.00449 0.00224,0.01234 q 0,0.013462 -0.028046,0.037021 -0.033656,0.03029 -0.037021,0.035899 -0.037021,0.053849 -0.043752,0.3275803 0,-0.00897 0,0.3589922 0,0.3062652 0.00785,0.5811186 0.00224,0.1032103 0.032534,0.1525717 0.00449,0.00673 0.038143,0.039265 0.03029,0.028046 0.03029,0.037021 0,0.020193 -0.022437,0.020193 -0.040387,0 -0.1234035,-0.00561 -0.083017,-0.00561 -0.1256473,-0.00561 -0.041508,0 -0.127891,0.00561 -0.085261,0.00449 -0.1290128,0.00449 l -0.00897,-0.00449 -0.00224,-0.011219 q 0,-0.013462 0.029168,-0.041509 0.034777,-0.032534 0.039265,-0.040387 0.038143,-0.068433 0.038143,-0.6731104 0,-0.3017778 -0.00785,-0.5844841 -0.00224,-0.105454 -0.031412,-0.1548154 -0.00449,-0.00673 -0.038143,-0.039265 -0.029168,-0.026925 -0.029168,-0.037021 0,-0.021315 0.028046,-0.021315 0.040387,0 0.120038,0.00673 0.080773,0.00561 0.120038,0.00561 z m -1.156628,1.0635143 q 0.07853,0 0.1009666,-0.032534 v -0.013462 q 0,-0.00673 -0.1043321,-0.374698 -0.039265,0.089748 -0.07853,0.1783742 -0.04824,0.1177943 -0.04824,0.1828616 0,0.043752 0.047118,0.054971 0.01795,0.00449 0.083017,0.00449 z M 3.6148653,6.6394432 q -0.057214,0 -0.057214,0.058336 0,0.037021 0.049361,0.04824 -0.015706,0.1234035 -0.1099413,0.1234035 -0.065067,0 -0.1155506,-0.077408 -0.044874,-0.068433 -0.044874,-0.1368658 0,-0.1581809 0.1211599,-0.2524164 0.1110632,-0.086383 0.2748534,-0.086383 0.1806179,0 0.2726097,0.1166725 0.063945,0.080773 0.1155506,0.2815845 l 0.2311012,0.8851401 q 0.059458,0.2277356 0.1346221,0.2277356 0.076286,0 0.076286,-0.086383 0,-0.022437 -0.014584,-0.045996 -0.014584,-0.024681 -0.016828,-0.033656 l 0.014584,-0.00673 q 0.06058,0.00337 0.094235,0.063945 0.026924,0.050483 0.026924,0.1166725 0,0.1211598 -0.099845,0.2030549 -0.094235,0.077408 -0.2187608,0.077408 -0.1323784,0 -0.2019331,-0.1032102 Q 4.0882862,7.917231 4.0310718,7.8218737 3.9424456,7.7186634 3.7629496,7.7186634 q -0.086382,0 -0.1536936,0.056093 -0.070677,0.059458 -0.070677,0.1469625 0,0.040387 0.056093,0.068433 0.056093,0.026924 0.056093,0.044874 0,0.01234 -0.021315,0.01234 -0.041508,0 -0.1245254,-0.00561 -0.083017,-0.00561 -0.1245254,-0.00561 -0.037021,0 -0.1110632,0.00561 -0.074042,0.00561 -0.1110632,0.00561 -0.035899,0 -0.043752,-0.00561 l -0.00112,-0.01234 q 0,-0.01234 0.013462,-0.021315 0.096479,-0.069555 0.120038,-0.096479 0.033656,-0.039265 0.070677,-0.1413532 L 3.6215964,6.9322462 q 0.04824,-0.1312565 0.04824,-0.2075424 0,-0.085261 -0.054971,-0.085261 z m 1.9687119,-0.5241658 -0.00579,-0.0029 -0.00144,-0.00796 q 0,-0.00796 0.018091,-0.024604 0.022433,-0.020262 0.025327,-0.024604 0.02171,-0.034011 0.026051,-0.2098551 7.224e-4,-0.00941 7.224e-4,-0.2293935 0,-0.196106 -0.00506,-0.3748448 -0.00217,-0.073811 -0.02388,-0.1049275 -0.00217,-0.0029 -0.02388,-0.021709 -0.017367,-0.015197 -0.017367,-0.023156 0,-0.011579 0.031117,-0.011579 0.021709,0 0.066575,0.00362 0.044866,0.00362 0.067298,0.00362 0.060062,0 0.1780151,-0.013025 0.1179531,-0.013749 0.1765678,-0.013749 0.059339,0 0.09552,0.027498 0.040524,0.031117 0.040524,0.088284 0,0.077429 -0.062233,0.1295313 -0.059338,0.049207 -0.1382149,0.049207 -0.025328,0 -0.053549,-0.00796 -0.038353,-0.010131 -0.039077,-0.027498 0.056444,-0.033287 0.056444,-0.078877 0,-0.073811 -0.083942,-0.073811 -0.029669,0 -0.040524,0.00941 -0.012301,0.0796 -0.012301,0.2257752 v 0.027498 q 0.068746,0.077429 0.1599241,0.077429 0.1128876,0 0.1794624,-0.096968 0.012301,0.048484 0.012301,0.091902 0,0.080324 -0.046313,0.1374914 -0.049931,0.060785 -0.1288076,0.060785 -0.069469,0 -0.1230186,-0.046313 -0.026051,-0.026051 -0.052825,-0.052102 -0.00434,0.00651 -0.00434,0.074535 0,0.334321 0.1259131,0.334321 0.033287,0 0.059339,-0.022432 0.026051,-0.023156 0.026051,-0.05572 0,-0.020986 -0.014473,-0.040524 -0.014473,-0.019538 -0.034011,-0.019538 -0.017367,0 -0.048484,0.015197 0.036905,-0.1222949 0.1751206,-0.1222949 0.086113,0 0.1317022,0.053549 0.043418,0.049931 0.043418,0.1367677 0,0.097691 -0.083218,0.1454513 -0.066575,0.039077 -0.172226,0.039077 -0.052102,0 -0.1555823,-0.01592 -0.1027567,-0.015197 -0.1548586,-0.015197 -0.022433,0 -0.073088,0.00434 -0.047036,0.00362 -0.073088,0.0029 z m -0.8155406,-0.00651 q -0.024604,0 -0.075982,0.00362 -0.051378,0.00362 -0.078153,0.0029 h -0.011579 l -0.00651,-0.0029 -7.225e-4,-0.00651 q 0,-0.010131 0.017367,-0.025327 0.020986,-0.019538 0.02388,-0.023156 0.022433,-0.035458 0.026774,-0.2127498 7.225e-4,-0.00651 7.225e-4,-0.2315643 0,-0.188146 -0.00506,-0.3719502 -0.00217,-0.070917 -0.022432,-0.1027567 -0.00217,-0.00434 -0.02388,-0.02388 -0.017367,-0.01592 -0.017367,-0.023156 0,-0.013025 0.018091,-0.013025 0.025327,0 0.076706,0.00434 0.052102,0.00362 0.078153,0.00362 0.022433,0 0.072364,-0.00362 0.047036,-0.00434 0.072364,-0.00362 l 0.02171,7.224e-4 0.00651,0.0029 0.00144,0.00796 q 0,0.00868 -0.018091,0.024604 -0.022432,0.018814 -0.025328,0.023156 -0.021709,0.033287 -0.021709,0.1056512 0,0.2084079 0.1592004,0.2084079 0.1599242,0 0.1599242,-0.1990006 0,-0.080324 -0.023156,-0.1150585 -0.00217,-0.00362 -0.02388,-0.022433 -0.018091,-0.01592 -0.018091,-0.023156 0,-0.013025 0.018091,-0.013025 0.025327,0 0.076706,0.00434 0.052102,0.00362 0.078153,0.00362 0.024604,0 0.073087,-0.00362 0.048484,-0.00362 0.072364,-0.00362 0.023156,0 0.028945,0.00362 l 0.00144,0.00796 q 0,0.00868 -0.018091,0.024604 -0.02171,0.019538 -0.024604,0.023156 -0.022432,0.034735 -0.026774,0.214197 0,-0.00796 0,0.2330116 0,0.1924879 0.00434,0.3690557 0.00217,0.070917 0.02388,0.1034803 0.00217,0.00362 0.02388,0.022432 0.017367,0.015197 0.017367,0.022433 0,0.013025 -0.013749,0.013025 -0.026774,0 -0.081047,-0.00362 -0.054273,-0.00362 -0.081048,-0.00362 -0.022433,0 -0.07164,0.00362 -0.046313,0.00434 -0.07164,0.00362 l -0.022433,-7.225e-4 -0.00651,-0.0029 -7.224e-4,-0.00724 q 0,-0.00868 0.018815,-0.023156 0.023156,-0.018091 0.025327,-0.020986 0.018815,-0.024604 0.02171,-0.097691 0,0.00144 0,-0.1063749 0,-0.1324258 -0.019538,-0.1816332 -0.034732,-0.085387 -0.1461729,-0.085387 -0.1034803,0 -0.1374913,0.093349 -0.019538,0.053549 -0.019538,0.1838043 0,0.1642659 0.027498,0.196106 0.00144,0.00217 0.023156,0.018814 0.017367,0.013025 0.017367,0.020262 0,0.012302 -0.013749,0.012302 -0.026774,0 -0.080324,-0.00362 -0.053549,-0.00362 -0.080324,-0.00362 z M 4.5219995,5.0609361 q -0.041971,0.036181 -0.041971,0.1555822 0,0.025328 0.00651,0.074535 0.00651,0.049207 0.00651,0.074535 0,0.067298 -0.034011,0.112164 -0.037629,0.048484 -0.1034803,0.048484 -0.059338,0 -0.1020331,-0.043418 -0.041971,-0.044142 -0.041971,-0.1034802 0,-0.073087 0.06368,-0.1367678 0.00651,0.041971 0.044142,0.041971 0.044142,0 0.044142,-0.044866 0,-0.04776 -0.06368,-0.04776 -0.038353,0 -0.081771,0.033287 -0.089008,0.066575 -0.089008,0.2568918 0,0.3509646 0.00434,0.4739832 0.0029,0.073087 0.024604,0.1034803 0.00217,0.0029 0.023156,0.020986 0.017367,0.015197 0.017367,0.022433 0,0.013025 -0.013749,0.013025 -0.026775,0 -0.080324,-0.00362 -0.053549,-0.00362 -0.080324,-0.00362 -0.027498,0 -0.083218,0.0029 -0.052826,0.00362 -0.082495,0.00362 l -0.00651,-0.0029 -7.225e-4,-0.00796 q 0,-0.00796 0.018091,-0.024604 0.02171,-0.020262 0.024604,-0.024604 0.026774,-0.041971 0.026774,-0.4616814 0,-0.1700551 -0.018091,-0.2453135 -0.036906,-0.156305 -0.1541357,-0.156305 -0.062957,0 -0.062957,0.050655 0,0.041971 0.040524,0.041971 0.041247,0 0.048484,-0.041971 0.06368,0.065128 0.06368,0.1280841 0,0.060785 -0.037629,0.1063748 -0.040524,0.049207 -0.099862,0.049207 -0.069469,0 -0.1078221,-0.046313 -0.036182,-0.042694 -0.036182,-0.1128876 0,-0.026051 0.00579,-0.076706 0.00651,-0.051378 0.00651,-0.076706 0,-0.1165058 -0.041247,-0.1526877 0.2568917,0.022432 0.5622671,0.022432 0.2380771,0 0.4320122,-0.022432 z M 6.2790433,4.7476753 q -0.040192,0 -0.1205757,0.00574 -0.080384,0.00574 -0.1205756,0.00574 -0.040192,0 -0.048231,-0.00574 l -0.00229,-0.011484 q 0,-0.011484 0.031005,-0.033302 0.031005,-0.021818 0.031005,-0.067752 0,-0.1194272 -0.4754125,-0.9462317 -0.00574,0.1837342 -0.00574,0.3801004 0,0.3066066 0,0.3077549 0.00689,0.2319647 0.043637,0.2847883 0.00345,0.0046 0.037895,0.035598 0.02756,0.025264 0.02756,0.035598 0,0.019521 -0.043637,0.019521 -0.024115,0 -0.070049,-0.0046 -0.045934,-0.0046 -0.070049,-0.0046 -0.039044,0 -0.1228723,0.00574 -0.08268,0.0046 -0.1263174,0.00345 h -0.022967 l -0.00918,-0.0046 -0.00115,-0.011484 q 0,0.00918 0.047082,-0.065455 0.048231,-0.074642 0.053972,-0.1906244 0.00804,-0.1779926 0.00804,-0.5247911 0,-0.3112 -0.00918,-0.5902466 -0.00345,-0.1125372 -0.032154,-0.1607675 -0.0046,-0.00689 -0.039044,-0.039044 -0.028708,-0.02756 -0.028708,-0.037895 0,-0.02067 0.021818,-0.02067 0.048231,0 0.1446909,0.00689 0.097608,0.00574 0.1458391,0.00574 0.037895,0 0.121724,-0.00574 0.078087,-0.00689 0.1205756,-0.00574 l 0.037895,0.00115 0.010335,0.00459 0.00115,0.012632 q 0,0.010335 -0.032154,0.037895 -0.032154,0.026412 -0.032154,0.08268 0,0.080384 0.196366,0.4455557 0.1297624,0.2319646 0.2583765,0.4650775 0,-0.2997166 0.016077,-0.5247911 0.00229,-0.033302 0.02067,-0.1102407 0.018374,-0.071197 0.018374,-0.1113889 0,-0.066604 -0.060862,-0.066604 -0.049379,0 -0.049379,0.056269 0,0.05512 0.064307,0.057417 l 0.00689,0.012631 q 0.00115,0.044785 -0.045934,0.07579 -0.041341,0.028708 -0.088422,0.028708 -0.086126,0 -0.1446908,-0.084977 -0.051675,-0.075791 -0.051675,-0.1653613 0,-0.125169 0.095313,-0.2135911 0.091867,-0.086126 0.2181845,-0.086126 0.1378008,0 0.2181845,0.084977 0.080384,0.084977 0.080384,0.2239262 0,0.028709 -0.00689,0.081532 -0.00804,0.056269 -0.00918,0.081532 -0.029857,1.0289122 -0.029857,1.0633624 0,0.084977 0.037895,0.1240207 0.00345,0.00229 0.039044,0.022967 0.02756,0.017225 0.02756,0.028708 0,0.018374 -0.035598,0.018374 -0.040192,0 -0.1228723,-0.00574 -0.08268,-0.00689 -0.1240207,-0.00689 z M 5.0457267,3.9369476 q 0,0.372062 -0.2652665,0.6327351 -0.2652664,0.2595247 -0.6396251,0.2595247 -0.4042155,0 -0.6579986,-0.2790465 -0.2445962,-0.2698598 -0.2445962,-0.6775203 0,-0.3766554 0.2468929,-0.6109166 0.2422997,-0.2319646 0.6246967,-0.2319646 0.3835454,0 0.6579986,0.2618214 0.2778982,0.2664147 0.2778982,0.6453668 z M 4.1121266,3.9139808 q 0,0.059713 0.057417,0.09646 0.049379,0.032154 0.1125372,0.032154 0.125169,0 0.2067012,-0.094164 0.076939,-0.08957 0.076939,-0.2170362 0,-0.2055528 -0.1332073,-0.3307218 Q 4.3004543,3.275504 4.0926049,3.275504 q -0.2273713,0 -0.351392,0.1711026 -0.1113889,0.1527292 -0.1113889,0.3881388 0,0.2767498 0.1309107,0.4891927 0.1538776,0.250338 0.4156989,0.250338 0.2044045,0 0.3422052,-0.1699543 0.1274657,-0.1584709 0.1274657,-0.3674687 0,-0.032154 -0.00345,-0.057417 -0.1240207,0.3582819 -0.4191439,0.3582819 -0.1504326,0 -0.2480414,-0.1171307 -0.091867,-0.1102405 -0.091867,-0.2629697 0,-0.1389491 0.08957,-0.2457447 0.095313,-0.1148339 0.2319646,-0.1148339 0.072346,0 0.1240207,0.041341 0.056269,0.043637 0.056269,0.1136857 0,0.1423941 -0.080384,0.135504 l -0.010335,-0.00115 q -0.048231,-0.074642 -0.083829,-0.074642 -0.098757,0 -0.098757,0.1022026 z" />
    </g>
    <path
       style="fill:#35cffe;stroke-width:1;fill-opacity:1"
       d="m 8.4014475,5.8755129 c -0.023156,-0.011806 -0.04068,-0.032409 -0.049195,-0.057845 l -0.00552,-0.016613 v -0.072584 c 0,-0.039922 -0.00132,-0.072584 -0.003,-0.072584 -0.00168,0 -0.00733,0.00557 -0.012695,0.012378 -0.0054,0.00681 -0.020898,0.018034 -0.03453,0.024944 l -0.02479,0.012565 -0.032693,-0.00187 -0.032693,-0.00187 -0.02067,-0.013679 -0.020658,-0.013679 -0.00973,-0.021967 -0.00973,-0.021967 0.00336,-0.019901 0.00336,-0.019902 0.039779,-0.042045 c 0.021883,-0.023128 0.065626,-0.069219 0.097213,-0.1024282 l 0.057434,-0.060341 -1.105e-4,-0.0594 -1.093e-4,-0.059402 -0.057314,0.059319 -0.057314,0.059319 -0.019553,0.0054 c -0.040355,0.01117 -0.078441,0.00496 -0.1084911,-0.017722 l -0.015626,-0.011794 -0.00829,-0.021772 -0.00829,-0.021771 0.00601,-0.020074 0.00601,-0.020073 0.09092,-0.095845 C 8.2245408,5.1295908 8.2837287,5.0677654 8.3060527,5.044917 l 0.040596,-0.041543 3.84e-5,-0.1038598 c 2.16e-5,-0.057122 -0.0012,-0.1038598 -0.00276,-0.1038598 -0.00156,0 -0.04128,0.022305 -0.088398,0.049565 l -0.085659,0.049565 -0.00432,0.010305 c -0.0024,0.00567 -0.026639,0.086185 -0.053891,0.1789264 -0.052918,0.1800886 -0.05902,0.1950194 -0.084686,0.2071995 -0.058023,0.027532 -0.1295396,-0.026534 -0.1309448,-0.098987 l -4.396e-4,-0.022681 0.02055,-0.067753 c 0.01129,-0.037264 0.019793,-0.068504 0.018869,-0.069426 -9.213e-4,-9.209e-4 -0.024033,0.011422 -0.051369,0.027418 l -0.0497,0.029091 -0.010329,0.035447 c -0.00564,0.019495 -0.023444,0.079434 -0.039406,0.1331977 l -0.029041,0.097751 -0.016611,0.01559 -0.016611,0.015589 -0.017715,0.00333 -0.017716,0.00333 -0.023,-0.0087 C 7.6262047,5.370344 7.6004307,5.337621 7.5924437,5.294212 l -0.00312,-0.017107 0.00685,-0.025659 c 0.00372,-0.014105 0.00552,-0.025659 0.00396,-0.025659 -0.00156,0 -0.032236,0.016715 -0.068172,0.037146 l -0.065337,0.037146 -0.018232,0.00245 c -0.025546,0.00342 -0.056762,-0.00613 -0.076447,-0.02341 l -0.016731,-0.014685 -0.00829,-0.021677 -0.00829,-0.021679 0.0024,-0.024405 0.0024,-0.024405 0.012299,-0.018448 0.012299,-0.018448 0.06661,-0.0391 c 0.036632,-0.021506 0.06661,-0.040334 0.066622,-0.041842 9.6e-6,-0.00151 -0.010569,-0.00546 -0.023601,-0.0088 L 7.4540387,5.03958 7.4354827,5.024282 7.4169267,5.008985 7.4053967,4.984201 7.3938667,4.959416 7.3938258,4.937422 7.3937862,4.915428 7.4023162,4.89842 c 0.00468,-0.00936 0.016022,-0.022001 0.02515,-0.028103 l 0.016611,-0.011098 h 0.017439 c 0.015085,0 0.121543,0.023643 0.2388222,0.053036 l 0.035323,0.00885 0.051801,-0.028944 c 0.028489,-0.01592 0.051069,-0.029676 0.05018,-0.030568 -8.948e-4,-8.949e-4 -0.034987,-0.00963 -0.07575,-0.019425 L 7.6877754,4.824368 7.6709004,4.811245 C 7.6492574,4.794412 7.6347724,4.772194 7.6273504,4.744427 l -0.00589,-0.022061 0.00625,-0.023215 c 0.00757,-0.028515 0.026039,-0.048639 0.050612,-0.055256 l 0.01858,-0.005 0.072075,0.017305 c 0.039635,0.00951 0.1239895,0.02973 0.1874435,0.044916 L 8.071794,4.728728 8.160276,4.677896 C 8.208943,4.649938 8.248794,4.625964 8.248842,4.62462 8.2489417,4.62183 8.0799848,4.525139 8.0713877,4.5230686 c -0.00312,-7.493e-4 -0.088638,0.01858 -0.1900894,0.04295 l -0.1844529,0.044307 -0.019085,-0.00514 -0.019085,-0.00514 -0.014617,-0.016644 -0.014617,-0.016643 -0.00336,-0.019946 c -0.00685,-0.040532 0.00997,-0.08223 0.043778,-0.1087577 L 7.6843758,4.4266756 7.76224,4.406845 7.8401043,4.3870145 7.7899723,4.358379 C 7.7623963,4.342628 7.7373183,4.329824 7.7342433,4.329922 7.7311233,4.3300212 7.6724853,4.343588 7.6038366,4.360062 7.5351846,4.376539 7.4714061,4.390014 7.462098,4.390003 7.438834,4.3899814 7.415725,4.374631 7.403835,4.351307 L 7.393865,4.331761 V 4.310448 4.289136 L 7.407305,4.262634 7.420757,4.236132 7.441295,4.220683 7.461833,4.205235 7.481614,4.201885 c 0.01093,-0.00183 0.019781,-0.00485 0.019781,-0.00669 0,-0.00183 -0.022544,-0.016331 -0.050096,-0.032204 C 7.423747,4.147122 7.392075,4.127969 7.380917,4.120434 L 7.360631,4.10674 7.350422,4.08555 7.340213,4.06436 7.3403199,4.042687 c 2.114e-4,-0.042526 0.028681,-0.081616 0.067247,-0.092327 0.039539,-0.010978 0.053134,-0.0067 0.1370965,0.043129 0.027768,0.016483 0.052318,0.029971 0.05454,0.029971 0.00228,0 9.525e-4,-0.011542 -0.00288,-0.025659 l -0.00685,-0.025659 0.00516,-0.025301 0.00516,-0.025301 0.014725,-0.020333 0.014725,-0.020333 0.026651,-0.012199 0.026651,-0.012199 0.019289,0.00325 c 0.041508,0.00701 0.049387,0.019782 0.083209,0.134991 0.013728,0.046723 0.030447,0.1031308 0.037185,0.1253503 l 0.012239,0.040399 0.049592,0.029027 c 0.027276,0.015964 0.050348,0.028275 0.051261,0.027354 9.2e-4,-9.208e-4 -0.00757,-0.032161 -0.018928,-0.069426 l -0.020598,-0.067754 2.066e-4,-0.021994 c 8.419e-4,-0.089991 0.115265,-0.1456682 0.1571313,-0.076458 0.00721,0.011902 0.080711,0.2508229 0.1092478,0.355047 l 0.00468,0.017107 0.08698,0.050097 c 0.047838,0.027553 0.088325,0.050097 0.089983,0.050097 0.00168,0 0.003,-0.046298 0.003,-0.102887 V 4.2477808 L 8.2208356,4.1155684 C 8.1516153,4.0428493 8.0907652,3.9767432 8.0856127,3.9686626 l -0.00937,-0.014692 v -0.02084 -0.020842 l 0.00949,-0.016509 0.00949,-0.016509 0.026459,-0.013446 0.026459,-0.013446 0.022339,2.7e-5 c 0.012287,1.63e-5 0.031143,0.00246 0.041893,0.00544 l 0.019553,0.0054 0.057314,0.059326 0.057314,0.059326 1.189e-4,-0.059325 1.177e-4,-0.059325 -0.09164,-0.096114 -0.09164,-0.096114 -0.00937,-0.021549 -0.00937,-0.021552 0.00577,-0.019071 c 0.00781,-0.026183 0.021499,-0.042136 0.046385,-0.054181 l 0.021078,-0.010209 h 0.027949 0.027948 l 0.023048,0.011734 c 0.012683,0.00645 0.028549,0.017639 0.035275,0.024856 l 0.012215,0.013123 0.0024,-0.079841 0.0024,-0.079841 0.010209,-0.01955 c 0.00564,-0.010749 0.019349,-0.026006 0.030519,-0.033898 l 0.02031,-0.014355 0.028129,-0.00192 0.028129,-0.00192 0.021991,0.011758 0.021991,0.011758 0.014665,0.023657 0.014665,0.023657 0.00168,0.080009 0.00168,0.080009 0.019013,-0.017182 c 0.025246,-0.02281 0.048871,-0.032066 0.081828,-0.032066 h 0.027192 l 0.021415,0.010365 0.021415,0.010365 0.012095,0.018272 c 0.00661,0.010041 0.01326,0.02573 0.014689,0.034842 l 0.00264,0.01657 -0.01141,0.020704 c -0.00625,0.011398 -0.028957,0.038879 -0.050492,0.061095 -0.021523,0.022216 -0.061662,0.064065 -0.089202,0.092999 l -0.05006,0.05261 1.249e-4,0.059804 1.249e-4,0.059804 0.054864,-0.05726 0.054864,-0.05726 0.018172,-0.00749 c 0.00997,-0.00412 0.030411,-0.00749 0.045376,-0.00749 h 0.027204 l 0.023517,0.011926 c 0.024634,0.012478 0.037833,0.028069 0.045039,0.053195 l 0.00432,0.014994 -0.00504,0.01866 -0.00504,0.01866 -0.1315453,0.1380115 -0.1315453,0.1380114 -2.125e-4,0.104267 -2.126e-4,0.104267 0.00444,-0.00163 c 0.0024,-8.949e-4 0.042817,-0.023622 0.089695,-0.050505 l 0.085227,-0.048876 0.052498,-0.1783948 c 0.055789,-0.189594 0.06189,-0.2046654 0.087833,-0.2169745 0.058864,-0.027931 0.1299251,0.026674 0.1299251,0.099832 v 0.024909 l -0.019805,0.066223 c -0.01093,0.036422 -0.019085,0.066945 -0.018208,0.067829 8.852e-4,8.846e-4 0.024057,-0.011554 0.051501,-0.027641 l 0.049892,-0.029247 0.00805,-0.027899 c 0.00444,-0.015345 0.022027,-0.075051 0.039142,-0.132683 l 0.031131,-0.1047835 0.013236,-0.013812 c 0.00733,-0.00759 0.021595,-0.016065 0.031804,-0.018815 l 0.018556,-0.005 0.018328,0.00502 c 0.041568,0.011374 0.070982,0.043163 0.078837,0.085211 l 0.00444,0.023469 -0.00613,0.026428 c -0.00336,0.01453 -0.0048,0.026428 -0.00324,0.026428 0.00156,0 0.032633,-0.017045 0.069,-0.037878 l 0.066142,-0.037878 0.029354,7.53e-5 0.029354,7.59e-5 0.017007,0.00994 c 0.00937,0.00546 0.023445,0.019099 0.031323,0.0303 l 0.014317,0.020366 0.00216,0.026755 0.00228,0.026755 -0.01081,0.02239 -0.010809,0.02239 -0.020286,0.013666 c -0.01117,0.00752 -0.042829,0.02659 -0.070382,0.042383 -0.027552,0.015793 -0.050096,0.030299 -0.050096,0.032236 0,0.00193 0.00889,0.00503 0.019781,0.00686 l 0.019781,0.00335 0.020538,0.015448 0.020538,0.015449 0.013452,0.026503 0.013452,0.026502 -1.081e-4,0.019895 c -5.89e-5,0.010942 -0.00432,0.029198 -0.00949,0.040567 l -0.00937,0.020671 -0.016166,0.00985 -0.016166,0.00985 -0.017499,2.17e-5 c -0.00961,4.9e-6 -0.0727,-0.013185 -0.14014,-0.029312 -0.067451,-0.016129 -0.1265069,-0.029325 -0.1312511,-0.029325 -0.00865,0 -0.1066775,0.053272 -0.1036388,0.056302 8.792e-4,8.792e-4 0.035671,0.00972 0.077324,0.019641 l 0.075726,0.018042 0.02473,0.025252 0.02473,0.025252 0.00637,0.022875 0.00637,0.022875 -0.00336,0.022386 -0.00336,0.022386 -0.014773,0.016833 -0.014773,0.016833 -0.019157,0.00516 -0.019157,0.00516 -0.1869163,-0.044863 -0.1868946,-0.04487 -0.024802,0.014121 c -0.1285175,0.073167 -0.1533985,0.087752 -0.1532988,0.089876 6.25e-5,0.00135 0.039923,0.025313 0.088578,0.053267 l 0.088457,0.050821 0.1874627,-0.044905 0.1874639,-0.044906 0.018664,0.00503 c 0.069457,0.018702 0.070838,0.1257286 0.00216,0.1707139 l -0.016298,0.010689 -0.071727,0.017159 c -0.039443,0.00944 -0.072448,0.017882 -0.073324,0.018766 -0.00324,0.00324 0.095003,0.056621 0.1041673,0.056604 0.00516,-1.09e-5 0.064136,-0.01321 0.1309772,-0.029325 0.066839,-0.016119 0.129518,-0.029301 0.1392945,-0.02929 l 0.017776,2.17e-5 0.016166,0.00985 0.016166,0.00985 0.00937,0.020671 c 0.00516,0.011362 0.00937,0.029469 0.00949,0.040221 l 6e-5,0.01955 -0.01153,0.024784 -0.01153,0.024785 -0.018556,0.015297 -0.018556,0.015297 -0.023613,0.00605 c -0.012995,0.00333 -0.023613,0.00742 -0.023613,0.00908 0,0.00167 0.029942,0.020392 0.06655,0.04161 l 0.06655,0.038581 0.012575,0.01978 0.012575,0.01978 0.0018,0.026881 0.0018,0.026881 -0.01129,0.021928 -0.01129,0.021929 -0.021066,0.014634 -0.021066,0.014634 -0.030254,8.93e-5 -0.030254,8.8e-5 -0.067475,-0.038418 c -0.037113,-0.021133 -0.06852,-0.037384 -0.069781,-0.036116 -0.00132,0.00127 -4.32e-5,0.00825 0.00276,0.01552 0.00276,0.00728 0.00504,0.02542 0.00504,0.040339 v 0.027125 l -0.012887,0.023674 -0.012887,0.023674 -0.017692,0.012258 c -0.00973,0.00675 -0.024886,0.014767 -0.033665,0.01783 l -0.015974,0.00557 -0.017091,-0.00321 c -0.00937,-0.00175 -0.024586,-0.00979 -0.03375,-0.017832 l -0.016659,-0.014635 -0.00997,-0.032785 C 9.1191029,5.306492 9.1013754,5.2467312 9.0851131,5.1917213 9.0688509,5.1367119 9.0539338,5.0901771 9.051952,5.0883107 9.044742,5.0815207 8.955724,5.0308427 8.954006,5.0325537 c -9.681e-4,9.678e-4 0.00745,0.032188 0.018676,0.069378 l 0.02043,0.067617 -0.00192,0.029978 -0.00192,0.029978 -0.013284,0.020078 c -0.00733,0.011038 -0.022123,0.025924 -0.032921,0.033067 l -0.019625,0.012992 -0.023096,0.00201 -0.023096,0.00201 -0.017103,-0.00922 -0.017103,-0.00922 -0.00985,-0.019189 C 8.827794,5.2514757 8.800513,5.1647657 8.772553,5.0693371 L 8.7214956,4.8958788 8.6361908,4.8470034 c -0.046913,-0.026881 -0.087256,-0.049608 -0.089659,-0.050505 l -0.00432,-0.00163 5.4e-5,0.1042669 5.41e-5,0.104267 0.040427,0.041543 c 0.022232,0.022849 0.081443,0.084814 0.1315765,0.1377007 l 0.091148,0.096158 0.0048,0.017238 0.0048,0.017237 -0.00372,0.01663 c -0.00204,0.00915 -0.00877,0.023414 -0.014893,0.031707 l -0.01117,0.015078 -0.023433,0.010077 -0.023421,0.010077 h -0.02491 c -0.013692,0 -0.033089,-0.00337 -0.043082,-0.00749 l -0.018172,-0.00749 -0.054852,-0.057269 -0.054852,-0.057268 -1.333e-4,0.059786 -1.346e-4,0.059787 0.089202,0.09314 c 0.049063,0.051228 0.094295,0.1026708 0.1005281,0.1143186 l 0.01129,0.021176 -0.00324,0.017155 c -0.0018,0.00943 -0.00733,0.023933 -0.012371,0.032221 l -0.00913,0.015068 -0.024453,0.012388 -0.024453,0.012388 h -0.026447 c -0.032248,0 -0.055981,-0.00938 -0.081083,-0.032066 l -0.019013,-0.01718 -0.00168,0.079607 -0.00168,0.079608 -0.01105,0.020765 -0.01105,0.020765 -0.019133,0.012653 -0.019133,0.012653 -0.028429,0.00234 -0.028429,0.00229 -0.020994,-0.010701 z"
       id="path1475" />
    <path
       style="fill:#d9ca00;stroke-width:1;fill-opacity:1"
       d="m 1.4538278,3.6333144 c -0.0038,-0.00625 -7.79e-4,-0.038169 0.0098,-0.1012905 l 0.01097,-0.065397 -0.03598,-0.036481 c -0.0469,-0.047559 -0.06573,-0.067763 -0.07409,-0.079515 l -0.0068,-0.00959 0.0028,-0.00441 c 0.0036,-0.00576 0.0074,-0.00661 0.08009,-0.017951 0.03391,-0.0053 0.06774,-0.010828 0.07517,-0.0123 l 0.0135,-0.00268 0.02882,-0.059581 c 0.03087,-0.063833 0.04245,-0.084353 0.04897,-0.086856 l 0.0041,-0.00157 0.008,0.00764 0.008,0.00764 0.03374,0.067323 0.03373,0.067323 0.04995,0.00737 c 0.02748,0.00406 0.0643,0.00999 0.08184,0.013185 l 0.03188,0.00581 0.0028,0.00447 0.0028,0.00447 -0.0076,0.010985 c -0.0042,0.00604 -0.03042,0.034444 -0.05831,0.063115 l -0.0507,0.052128 0.01089,0.065124 c 0.01073,0.06411 0.01369,0.094561 0.0098,0.1008193 -0.0043,0.00697 -0.01805,0.00174 -0.08612,-0.032849 l -0.0709,-0.036007 -0.07104,0.036028 c -0.06772,0.034342 -0.08192,0.039794 -0.08609,0.033047 z"
       id="path1538" />
    <path
       id="path1536"
       style="fill:#008300;stroke-width:96;fill-opacity:1"
       d="M 154.63867 351.14258 C 154.15877 351.14258 102.32914 415.71376 101.36914 417.50781 C 101.04476 418.10359 101.00692 419.5869 101.29492 420.03906 C 101.40052 420.20706 101.83329 420.47342 102.24609 420.63086 L 102.99414 420.91797 L 113.17383 421.07031 C 118.7736 421.15479 123.55118 421.29523 123.80078 421.38281 L 124.25195 421.54102 L 120.73438 425.78516 C 118.79978 428.11865 110.42715 438.07781 102.12891 447.91602 C 93.830859 457.75422 85.400004 467.77121 83.396484 470.17773 L 79.744141 474.55273 L 79.742188 475.11328 C 79.742188 475.42087 80.039497 476.02599 80.404297 476.45703 L 81.066406 477.24023 L 82.017578 477.50391 L 82.96875 477.76758 L 93.869141 477.76953 L 104.77148 477.76953 L 104.62695 478.14062 C 104.54881 478.34405 98.022886 485.90175 90.123047 494.93555 C 69.849863 518.11936 60.202616 529.35175 59.041016 531.12305 L 58.607422 531.7793 L 59.001953 532.54102 C 59.222753 532.95958 59.605869 533.3846 59.855469 533.48828 C 61.039533 533.97116 70.447044 534.10686 104.00586 534.12109 L 140.23242 534.13672 L 140.24609 535.87305 C 140.24609 536.82853 140.3516 540.96897 140.4668 545.07422 L 140.67773 552.53906 L 141.07031 553.47852 L 141.46484 554.41797 L 142.32812 554.60938 C 142.8014 554.71594 144.40455 554.88837 145.89062 554.98438 L 145.87891 554.98633 C 152.61052 555.43945 165.63399 555.13234 167.34375 554.48242 L 168.02539 554.22656 L 168.30469 553.51562 L 168.58203 552.80273 L 168.7168 547.09961 L 168.85156 541.39453 L 167.85156 540.89844 C 167.30148 540.62532 163.5515 539.02375 159.51758 537.33789 L 152.18164 534.27148 L 199.79688 534.12305 C 225.98491 534.04145 247.64738 533.90292 247.92578 533.81641 C 248.21186 533.72905 248.75858 533.59147 249.14258 533.50977 L 249.84375 533.36133 L 250.24609 532.57227 L 250.65039 531.78516 L 250.20898 531.11719 C 249.01926 529.30143 239.97301 518.76334 220.03516 495.9668 C 211.63919 486.36733 204.70907 478.34709 204.62891 478.14453 L 204.49414 477.77344 L 215.39453 477.77148 L 226.29688 477.76953 L 227.24805 477.50781 L 228.19727 477.24414 L 228.85938 476.45898 C 229.22417 476.02756 229.52344 475.45332 229.52344 475.18164 C 229.52344 474.45392 228.24409 472.90118 204.83008 445.21484 C 191.62547 429.60068 185.25391 421.93472 185.25391 421.66016 C 185.25391 421.32416 187.93498 421.15529 193.61914 421.13281 C 196.733 421.12033 201.11883 421.02459 203.36523 420.92188 L 207.45117 420.73438 L 207.80664 420.25 C 208.23547 419.66402 208.26469 418.22841 207.87109 417.48633 C 206.89545 415.66327 155.12827 351.14258 154.63867 351.14258 z M 159.02539 385.81836 L 160.69531 386.26953 C 163.89595 387.13574 166.17861 389.05306 167.58789 392.05469 L 168.36523 393.71484 L 168.48047 395.81055 L 168.5957 397.9043 L 168.19336 399.29688 C 167.96968 400.06257 167.40025 401.31999 166.93945 402.09375 L 166.0957 403.50195 L 164.57031 404.72656 C 163.73223 405.40096 162.52194 406.12768 161.86914 406.33984 L 161.85938 406.33789 C 158.36555 407.48413 154.10415 406.67647 151.19727 404.31641 L 149.87109 403.23828 L 148.86914 401.27539 L 147.86719 399.3125 L 147.74219 397.34961 L 147.61719 395.38477 L 148.06836 393.70312 L 148.51953 392.01953 L 149.49805 390.55469 C 150.66157 388.81296 152.05365 387.63966 154.03125 386.73438 L 155.48047 386.07227 L 157.25195 385.94531 L 159.02539 385.81836 z M 148.22266 435.48828 L 149.90625 435.94531 L 151.58984 436.40039 L 153.11523 437.52148 C 154.91619 438.84772 155.99123 440.2508 156.61523 442.08008 L 157.06641 443.41211 L 157.06641 445.85742 L 157.06836 448.30273 L 156.57812 449.82422 L 156.08789 451.34766 L 154.57227 452.96875 L 153.05469 454.5918 L 151.5957 455.28516 L 150.14258 455.97656 L 147.57031 456.0625 L 144.99609 456.15039 L 143.58008 455.75781 C 139.9388 454.74895 137.28952 451.62622 136.63672 447.57031 L 136.37695 445.99414 L 136.63672 444.31836 C 136.77592 443.3958 137.2358 441.93236 137.6582 441.06836 L 138.42578 439.49805 L 139.72266 438.2832 C 140.4369 437.61581 141.66593 436.77602 142.45312 436.41602 L 143.88477 435.75977 L 146.05273 435.625 L 148.22266 435.48828 z M 173.30078 476.61523 L 176.25977 476.61523 L 179.21875 476.61523 L 180.83789 477.36328 L 182.45898 478.10938 L 183.72266 479.49219 C 184.41674 480.25251 185.35153 481.62124 185.80273 482.53516 L 186.61719 484.19531 L 186.50195 487.09766 L 186.38672 489.99805 L 185.83984 491.22852 C 185.53744 491.90493 184.65243 493.13137 183.86523 493.95312 L 182.43945 495.44727 L 181.04297 496.13086 L 179.64648 496.81445 L 177.89062 497.06836 C 175.91974 497.35321 176.12121 497.35494 174.20312 497.04102 C 169.94648 496.34406 166.66107 492.96024 165.92188 488.52148 L 165.64453 486.8418 L 165.93164 485.21094 C 166.08812 484.3142 166.53966 482.93961 166.91406 482.15625 L 167.60547 480.73242 L 168.92188 479.44531 C 169.64572 478.7377 170.92473 477.81104 171.76953 477.38672 L 173.30078 476.61523 z M 125.93945 495.14648 L 128.64258 495.14648 L 131.3457 495.14648 L 133.08008 495.96875 L 134.81445 496.78906 L 136.05469 498.0293 C 137.54749 499.52258 138.5924 501.54972 138.9668 503.71289 L 139.24609 505.3125 L 138.9668 506.91992 C 138.81416 507.80466 138.33451 509.23561 137.91211 510.09961 L 137.14453 511.67188 L 135.84766 512.88477 C 135.13534 513.55129 133.79855 514.44982 132.87695 514.88086 L 131.18945 515.66602 L 129.07617 515.76953 L 126.96289 515.87109 L 125.44336 515.36914 C 122.4808 514.39004 120.12019 512.22064 118.82227 509.28516 L 118.28516 508.06055 L 118.40039 505.07812 L 118.51562 502.0957 L 119.0625 500.86914 L 119.60938 499.64258 L 121.03125 498.21875 L 122.45312 496.79688 L 124.19727 495.97266 L 125.93945 495.14648 z "
       transform="scale(0.01041667)" />
  </g>
</svg>
