<?xml version="1.0" encoding="UTF-8" standalone="no"?>
<!-- Created with Inkscape (http://www.inkscape.org/) -->

<svg
   xmlns:dc="http://purl.org/dc/elements/1.1/"
   xmlns:cc="http://creativecommons.org/ns#"
   xmlns:rdf="http://www.w3.org/1999/02/22-rdf-syntax-ns#"
   xmlns:svg="http://www.w3.org/2000/svg"
   xmlns="http://www.w3.org/2000/svg"
   xmlns:sodipodi="http://sodipodi.sourceforge.net/DTD/sodipodi-0.dtd"
   xmlns:inkscape="http://www.inkscape.org/namespaces/inkscape"
   width="11.5in"
   height="6in"
   viewBox="0 0 292.1 152.4"
   version="1.1"
   id="svg6799"
   inkscape:version="0.92.3 (2405546, 2018-03-11)"
   sodipodi:docname="wizlights.com.svg">
  <defs
     id="defs6793" />
  <sodipodi:namedview
     id="base"
     pagecolor="#ffffff"
     bordercolor="#666666"
     borderopacity="1.0"
     inkscape:pageopacity="0.0"
     inkscape:pageshadow="2"
     inkscape:zoom="0.5"
     inkscape:cx="-75.714286"
     inkscape:cy="560"
     inkscape:document-units="mm"
     inkscape:current-layer="layer1"
     showgrid="false"
     units="in"
     inkscape:window-width="1920"
     inkscape:window-height="1017"
     inkscape:window-x="-8"
     inkscape:window-y="-8"
     inkscape:window-maximized="1" />
  <metadata
     id="metadata6796">
    <rdf:RDF>
      <cc:Work
         rdf:about="">
        <dc:format>image/svg+xml</dc:format>
        <dc:type
           rdf:resource="http://purl.org/dc/dcmitype/StillImage" />
        <dc:title></dc:title>
      </cc:Work>
    </rdf:RDF>
  </metadata>
  <g
     inkscape:label="Layer 1"
     inkscape:groupmode="layer"
     id="layer1"
     transform="translate(0,-144.59998)">
    <g
       id="g6883"
       transform="matrix(1.8000955,0,0,1.8000955,73.088619,149.67268)">
      <path
         id="path5795"
         style="font-style:normal;font-variant:normal;font-weight:normal;font-stretch:normal;font-size:medium;line-height:1.25;font-family:'OCR A Extended';-inkscape-font-specification:'OCR A Extended, Normal';font-variant-ligatures:normal;font-variant-caps:normal;font-variant-numeric:normal;font-feature-settings:normal;text-align:start;letter-spacing:0px;word-spacing:0px;writing-mode:lr-tb;text-anchor:start;fill:#ff0000;fill-opacity:1;stroke:none;stroke-width:1.41359234"
         d="m 110.29374,3.9302274 c -3.30459,-0.025133 -5.10739,4.6089871 -2.55497,6.7866536 2.41449,1.895863 5.78727,2.364237 8.2179,4.137007 0.0164,1.69067 -2.57719,0.422724 -3.54561,0.808052 -1.4883,0.418863 -2.56076,-0.364472 -3.73339,-1.010595 -2.105,-0.567128 -3.34777,2.489941 -1.56137,3.648383 2.4478,2.256019 6.08764,1.125965 9.0555,1.299666 3.44391,-0.462923 5.06011,-5.148245 2.59489,-7.639776 -2.21354,-2.0862174 -5.47754,-2.5709802 -8.0826,-4.045368 1.9226,0.3146966 4.26657,-0.5642129 6.00003,0.3053094 1.31854,1.8276166 4.41639,0.023468 3.40959,-1.9968127 -1.41544,-2.851505 -5.14125,-2.3791687 -7.73145,-2.2962136 -0.68945,0.0045 -1.37915,-0.0078 -2.06852,0.00379 z M 92.515671,-0.34283985 C 90.357255,-0.3226272 90.292264,2.393752 90.552867,3.9265331 88.447909,3.37011 87.018008,6.4498172 88.910177,7.5933837 c 0.778744,0.5742057 2.15675,-0.071274 1.613121,1.4564083 0.422808,3.10461 -1.201063,7.284956 1.678176,9.604793 1.986048,1.486349 4.809444,1.233539 7.086047,0.65498 2.028089,-0.73973 3.944009,-4.07546 1.639729,-5.563096 -1.43585,-0.796355 -2.789394,0.500774 -3.149349,1.820123 -1.040346,0.03785 -3.791696,0.853398 -3.266159,-1.155528 0.278007,-2.01377 -0.540553,-5.1240951 0.378514,-6.496814 1.81692,-0.2466776 5.219174,0.955975 5.834434,-1.6412367 C 101.10392,4.1686004 98.46786,3.4535496 96.868582,3.9265331 94.641049,4.5261712 94.187578,3.4058379 94.526526,1.4151798 94.418968,0.44583571 93.495746,-0.37670549 92.515671,-0.34283985 Z M 71.784542,-1.4029743 c -2.151969,0.00341 -2.230254,2.7076015 -1.962803,4.2346254 0.145925,5.1931629 -0.266027,10.4631379 0.157469,15.6188769 0.71091,1.968954 3.961819,1.297243 3.830236,-0.794728 0.216635,-2.49312 -0.430245,-5.453819 0.316995,-7.6596094 1.538034,-0.8117233 3.437963,-3.0781137 5.311183,-1.8313265 0.476682,3.4274439 -0.173908,7.0821859 0.624696,10.4453589 0.951716,2.006654 4.254289,0.794955 3.717072,-1.357881 C 83.371367,13.751882 84.078946,10.057737 83.108913,6.6485749 81.553447,3.0965465 76.437278,3.1798915 73.809444,5.4361567 73.342604,3.4175643 75.16158,-1.1784095 71.784542,-1.4029743 Z M 54.139949,3.9006579 c -3.141038,0.1994428 -5.833215,3.3284818 -5.25558,6.5123521 -0.287004,2.490206 -0.09973,5.501133 2.319879,6.927109 2.092947,1.69544 5.418026,1.687756 7.663428,0.302357 0.245508,1.332105 0.183931,3.006007 -1.444561,3.335655 -2.173419,0.419431 -4.891865,-0.833374 -6.780726,0.601042 -1.500267,1.47276 0.264301,3.977198 2.200113,3.371879 2.950531,0.01703 6.60798,0.647069 8.682906,-2.075166 2.424674,-2.389218 0.901852,-6.177764 1.329974,-9.141264 C 62.569009,10.839066 63.367057,7.7296487 62.584063,4.9267904 61.871639,3.5968096 59.756896,3.6221927 59.081332,4.9585856 57.712872,3.7602178 55.842297,3.8216128 54.139949,3.9006579 Z m 1.876306,3.9839923 c 1.094003,0.4100821 2.397855,1.4093591 2.851421,2.4899408 0.588101,1.786548 -0.559091,2.86467 -1.941599,3.731883 -1.384884,1.310151 -4.728862,0.307846 -4.054002,-1.949498 0.0015,-1.547441 -0.580856,-3.9126618 1.51775,-4.2723258 0.542146,0 1.084288,0 1.62643,0 z M 37.749763,-2.5222515 c -2.926659,0.059733 -2.671105,5.5724528 0.385165,5.0766714 2.565291,0.7488634 3.88685,-2.6138436 2.449992,-4.3832224 -0.678479,-0.8721379 -1.869757,-0.7077152 -2.835157,-0.693449 z M 35.276114,3.8976979 C 32.943873,3.81902 32.634396,7.5989857 34.95896,7.8839311 c 2.384926,-0.5952133 2.288965,1.1292208 2.09883,3.0584309 -0.414382,1.746766 1.248362,5.570704 -1.793505,4.690016 -2.298814,-0.117264 -2.688865,3.598192 -0.407345,3.945554 2.929936,-0.123244 6.025341,0.434572 8.892861,-0.181876 2.037476,-0.956543 0.819725,-4.224822 -1.336628,-3.763678 -2.686579,0.347968 -0.754992,-3.922238 -1.338108,-5.6777104 -0.274244,-1.8764832 0.996128,-5.337918 -1.636777,-6.0259164 -1.380093,-0.093239 -2.777896,0.00227 -4.162174,-0.031038 z M 18.4603,-1.4325476 c -2.340712,-0.1059915 -2.649413,3.6966624 -0.317153,3.9581323 2.385755,-0.6013074 2.280865,1.1343307 2.094393,3.0569434 0,3.3499624 0,6.6998869 0,10.0498499 -1.607882,-0.495778 -4.123906,0.376167 -3.668334,2.418931 0.641468,2.529079 3.939097,1.358449 5.736853,1.598351 1.801352,-0.124569 5.339148,0.865397 5.682146,-1.860775 0.180036,-1.959112 -2.219175,-2.562123 -3.73339,-2.156507 C 24.120606,10.365204 24.502224,5.0280808 24.103262,-0.20385329 23.106536,-2.349952 20.222952,-1.0922219 18.4603,-1.4325476 Z M -0.39344087,3.8976979 C -2.7185842,3.8341606 -3.0350939,7.594065 -0.70985586,7.8839311 1.2505325,7.9681883 3.2209098,7.884196 5.1844626,7.9142122 2.639448,10.678046 -0.60162736,12.894699 -2.8160819,15.92213 c -0.7127153,1.613 0.2253824,4.069139 2.26295354,3.727492 C 2.9126859,19.42452 6.5191824,20.048235 9.9240218,19.44038 11.971926,18.521575 10.819105,15.198941 8.644319,15.661902 7.4010103,15.244514 1.8566507,16.567951 3.7721284,14.872094 6.0417665,12.410694 8.8876997,10.391094 10.893226,7.7249552 11.590914,6.1199801 10.749845,3.5811997 8.6731504,3.896922 5.6509584,3.8973005 2.6287247,3.895782 -0.39344087,3.897679 Z M -15.470505,-2.5222515 c -2.926284,0.059616 -2.671893,5.5719153 0.384426,5.0766714 2.565557,0.7492381 3.88785,-2.61350673 2.450731,-4.3832224 -0.678653,-0.8717632 -1.869731,-0.7079991 -2.835157,-0.693449 z m -2.47365,6.4199494 c -2.309703,-0.077909 -2.650771,3.650794 -0.355595,3.9810475 2.124346,-0.4323765 2.479316,0.7108114 2.137272,2.6851026 -0.483404,1.798017 1.351477,5.914319 -1.775761,5.06853 -2.238266,-0.136417 -2.738643,3.447013 -0.541895,3.917468 2.925557,0.03142 5.969112,0.304174 8.8662435,-0.08725 1.9937203,-0.723871 1.2789193,-3.955888 -0.8146905,-3.830221 -3.105087,0.76649 -1.193663,-3.48354 -1.716622,-5.299196 -0.385732,-1.975465 1.085809,-5.3668747 -1.438648,-6.3578584 -1.425828,-0.2267753 -2.918896,0.00397 -4.360304,-0.077626 z m -19.742071,0.029573 c -2.160176,0.038328 -2.295097,2.7323563 -1.903502,4.2907363 -0.0093,3.6372545 0.222934,7.4228485 1.881321,10.7175105 1.54126,1.490853 4.640684,0.88489 5.188606,-1.358071 0.568705,0.214467 1.173764,2.258177 2.570193,2.072213 1.562979,0.419772 3.323663,-0.427001 3.417754,-2.160179 1.617708,-3.840668 1.291149,-8.0740066 1.33363,-12.1390956 -0.530226,-2.1498762 -3.966191,-1.6540153 -3.917472,0.5419185 -0.252658,2.7197745 0.125095,5.5444731 -0.584032,8.1883181 -1.561363,-1.549183 0.51965,-4.9942277 -2.123229,-5.8240818 -1.95839,-0.5787857 -3.112559,1.7906358 -2.56458,3.4332358 -0.196116,3.965237 -1.586848,0.660166 -1.140175,-1.674433 -0.419943,-1.8740603 0.902411,-5.9148638 -2.158514,-6.0880718 z" />
    </g>
    <g
       id="g6872"
       transform="translate(-61.9125,193.675)">
      <path
         id="path5803"
         style="font-style:normal;font-variant:normal;font-weight:normal;font-stretch:normal;font-size:medium;line-height:1.25;font-family:'OCR A Extended';-inkscape-font-specification:'OCR A Extended, Normal';font-variant-ligatures:normal;font-variant-caps:normal;font-variant-numeric:normal;font-feature-settings:normal;text-align:start;letter-spacing:0px;word-spacing:0px;writing-mode:lr-tb;text-anchor:start;fill:#ff0000;fill-opacity:1;stroke:none;stroke-width:1.41359234"
         d="m 178.60416,3.9006579 c -0.97193,-0.1396073 -1.77727,1.0175781 -2.54906,0.1604256 -1.79281,-0.7447679 -3.32932,1.3073949 -2.77453,2.9948482 0.17466,3.7817713 -0.3107,7.6606313 0.16782,11.3990243 0.74034,1.949007 3.94327,1.294253 3.81988,-0.799156 0,-2.817658 0,-5.635317 0,-8.4529748 2.36198,-2.7474438 0.89412,2.7417288 1.29819,4.2050258 0.3584,1.904644 -1.0497,5.248664 1.45713,6.141238 1.94082,0.568377 3.07446,-1.783444 2.53131,-3.407345 0.19088,-2.428622 -0.38336,-5.213576 0.28974,-7.4175876 1.52115,-0.931258 0.4026,4.0371166 0.85879,5.4859926 0.14159,1.741164 -0.62554,5.121938 1.97125,5.433569 2.04147,0.172867 2.57433,-2.370293 2.08441,-3.905962 -0.43963,-3.229179 0.36865,-6.7059812 -0.69381,-9.8210758 -1.01721,-2.2777458 -4.16895,-2.5097446 -5.87436,-1.1370182 -0.70447,-0.6209711 -1.65242,-0.9283169 -2.58676,-0.8790041 z m -17.93956,0.00222 c -3.43092,0.2026299 -6.05413,3.7662862 -5.30215,7.134834 -0.25998,2.596909 -0.20311,5.724721 2.23116,7.332989 2.19646,1.757933 5.35733,1.526358 7.93622,0.922628 2.70939,-1.019035 4.44392,-3.923449 3.8332,-6.813252 0.25324,-2.6114815 0.21662,-5.7870247 -2.26887,-7.3773513 -1.78807,-1.5938202 -4.23817,-1.1948021 -6.42956,-1.1998477 z m 0.55151,3.9817742 c 1.36593,-0.1485667 4.25956,-0.3175732 4.15921,1.7846557 -0.22488,1.6190181 0.39432,3.5397491 -0.1996,5.0337821 -1.07331,1.501224 -3.13593,0.901317 -4.6612,0.834661 -2.22404,-1.109614 -0.68825,-3.953314 -1.1348,-5.8433098 -0.22137,-0.9571483 1.00504,-1.8066473 1.83639,-1.809789 z M 143.51492,3.9294893 c -2.42627,0.2246556 -4.20327,2.3028338 -5.70949,4.0254131 -1.03876,2.0593816 -0.68955,4.5833506 -0.38,6.7940236 0.87835,2.047874 2.89651,3.466658 4.76026,4.579868 2.44781,0.713575 5.12357,0.258714 7.62573,0.229909 2.13129,-0.556037 1.58148,-4.014027 -0.61139,-3.896763 -2.39685,-0.346303 -5.48074,1.043903 -7.12104,-1.42715 -1.60533,-0.791775 -0.70025,-2.954301 -0.72056,-4.3023033 1.24796,-1.2146893 2.51916,-2.6405515 4.46824,-2.0182367 1.71751,-0.08403 5.03824,0.7705788 5.38865,-1.7935129 0.21656,-2.0558117 -2.32933,-2.6042444 -3.87903,-2.194204 -1.27376,0.00303 -2.54766,-0.00541 -3.82137,0.00303 z M 127.39597,13.06821 c -2.35757,0.08138 -2.24842,3.072853 -1.89387,4.725066 0.7834,2.045414 3.54762,1.493238 5.23434,1.218588 1.70878,-0.912029 1.41453,-3.380887 0.92332,-4.937677 -0.86637,-1.541877 -2.86125,-0.867138 -4.26379,-1.005977 z" />
    </g>
  </g>
</svg>
