<?xml version="1.0" encoding="UTF-8" standalone="no"?>
<svg
   xmlns:dc="http://purl.org/dc/elements/1.1/"
   xmlns:cc="http://creativecommons.org/ns#"
   xmlns:rdf="http://www.w3.org/1999/02/22-rdf-syntax-ns#"
   xmlns:svg="http://www.w3.org/2000/svg"
   xmlns="http://www.w3.org/2000/svg"
   xmlns:sodipodi="http://sodipodi.sourceforge.net/DTD/sodipodi-0.dtd"
   xmlns:inkscape="http://www.inkscape.org/namespaces/inkscape"
   width="12in"
   height="12in"
   viewBox="0 0 12 12"
   version="1.1"
   id="svg8"
   inkscape:version="1.0.1 (3bc2e813f5, 2020-09-07)"
   sodipodi:docname="Neon Tree Design.svg">
  <defs
     id="defs2" />
  <sodipodi:namedview
     id="base"
     pagecolor="#1f1f1f"
     bordercolor="#666666"
     borderopacity="1.0"
     inkscape:pageopacity="0"
     inkscape:pageshadow="2"
     inkscape:zoom="0.66583926"
     inkscape:cx="521.09612"
     inkscape:cy="446.21992"
     inkscape:document-units="in"
     inkscape:current-layer="layer3"
     inkscape:document-rotation="0"
     showgrid="true"
     units="in"
     inkscape:snap-global="false"
     inkscape:window-width="1920"
     inkscape:window-height="1017"
     inkscape:window-x="-8"
     inkscape:window-y="-8"
     inkscape:window-maximized="1"
     inkscape:snap-nodes="true"
     inkscape:snap-others="false"
     inkscape:snap-smooth-nodes="true"
     inkscape:object-paths="true"
     inkscape:snap-intersection-paths="true"
     inkscape:snap-grids="true"
     inkscape:snap-to-guides="false"
     showguides="true"
     inkscape:guide-bbox="true">
    <inkscape:grid
       type="xygrid"
       id="grid849"
       units="in"
       spacingx="0.25"
       spacingy="0.25"
       empspacing="4" />
    <sodipodi:guide
       position="1.5957305,11.014402"
       orientation="0,-1"
       id="guide891" />
    <sodipodi:guide
       position="1.6739526,4.0213476"
       orientation="0,-1"
       id="guide893" />
    <sodipodi:guide
       position="0.98559824,11.749689"
       orientation="1,0"
       id="guide895" />
    <sodipodi:guide
       position="5.9918115,11.296001"
       orientation="1,0"
       id="guide897" />
    <sodipodi:guide
       position="3.5043493,11.030046"
       orientation="1,0"
       id="guide908" />
  </sodipodi:namedview>
  <metadata
     id="metadata5">
    <rdf:RDF>
      <cc:Work
         rdf:about="">
        <dc:format>image/svg+xml</dc:format>
        <dc:type
           rdf:resource="http://purl.org/dc/dcmitype/StillImage" />
        <dc:title></dc:title>
        <dc:creator>
          <cc:Agent>
            <dc:title>Doctor Wizard</dc:title>
          </cc:Agent>
        </dc:creator>
        <dc:rights>
          <cc:Agent>
            <dc:title>Copyright 2021+ by Doctor Wizard</dc:title>
          </cc:Agent>
        </dc:rights>
        <dc:publisher>
          <cc:Agent>
            <dc:title>Doctor Wizard</dc:title>
          </cc:Agent>
        </dc:publisher>
        <dc:source>Doctor Wizard</dc:source>
        <dc:contributor>
          <cc:Agent>
            <dc:title>Doctor Wizard</dc:title>
          </cc:Agent>
        </dc:contributor>
      </cc:Work>
    </rdf:RDF>
  </metadata>
  <g
     inkscape:label="Tree"
     inkscape:groupmode="layer"
     id="layer1" />
  <g
     inkscape:groupmode="layer"
     id="layer2"
     inkscape:label="Star" />
  <g
     inkscape:groupmode="layer"
     id="layer3"
     inkscape:label="Base">
    <path
       style="fill:none;stroke:#0041f7;stroke-width:0.0999999;stroke-linecap:butt;stroke-linejoin:miter;stroke-miterlimit:4;stroke-dasharray:none;stroke-opacity:1"
       d="M 3.070532,7.0873538 V 7.9383651 H 3.9212983 V 7.0873538"
       id="path889" />
    <path
       style="fill:none;stroke:#00d700;stroke-width:0.0999999;stroke-miterlimit:4;stroke-dasharray:none;stroke-opacity:1"
       d="M 1.8661318,7.1590826 C 1.645535,7.1398032 1.3973961,7.0838261 1.2919226,7.0295477 1.2107777,6.9877893 1.1753926,6.9577187 1.120314,6.8837129 L 1.0777508,6.8265227 1.2270375,6.6709606 C 1.3091455,6.5854011 1.427596,6.4515726 1.4902623,6.3735632 1.6767876,6.14137 1.9342634,5.7345469 1.901729,5.7234268 1.7119946,5.6585741 1.5923519,5.5687497 1.5169423,5.4345386 l -0.024071,-0.042835 0.120929,-0.079874 c 0.38104,-0.251675 0.6785233,-0.6413104 0.8158143,-1.0685302 0.048233,-0.150098 0.049322,-0.1568283 0.025273,-0.1568283 -0.028642,0 -0.1449694,-0.055423 -0.201399,-0.09596 C 2.20262,3.9539665 2.117793,3.8464858 2.117793,3.8185713 c 0,-0.00747 0.071532,-0.072665 0.1589537,-0.1448872 0.453844,-0.3749247 0.8697177,-0.8687979 1.1879371,-1.4107426 0.041154,-0.07008 0.080619,-0.1255394 0.087708,-0.1232435 0.00715,0.00229 0.046486,0.062293 0.087538,0.1333276 0.1700296,0.2941573 0.4053753,0.6247579 0.6346477,0.8915173 0.1600404,0.1862068 0.5409567,0.5504341 0.651267,0.6227338 0.021054,0.013798 0.026941,0.027388 0.024774,0.057161 -0.00159,0.021483 -0.00465,0.037319 -0.00681,0.03519 -0.00216,-0.00213 -0.023413,0.018035 -0.047269,0.04481 -0.070114,0.078714 -0.1187408,0.1182553 -0.1955763,0.1590221 -0.039759,0.021096 -0.07641,0.039755 -0.081435,0.041465 -0.016607,0.00564 0.075684,0.2723656 0.1359479,0.3928559 0.1380533,0.2760297 0.3163976,0.499608 0.5428704,0.6805581 0.062866,0.050232 0.1441799,0.1091587 0.1806891,0.1309462 0.058726,0.035045 0.065532,0.043024 0.059066,0.069163 -0.016301,0.065817 -0.1704005,0.2285321 -0.2506176,0.2646359 -0.027293,0.012284 -0.047178,0.026293 -0.044183,0.031132 0.00295,0.00483 -0.010549,0.015427 -0.030117,0.023529 -0.019556,0.0081 -0.038489,0.019479 -0.042073,0.025283 -0.017106,0.027691 0.2461629,0.4368615 0.4095077,0.6364477 0.061187,0.074758 0.1689145,0.1954846 0.2393999,0.2682793 L 5.9481735,6.780109 5.9127705,6.830959 C 5.8581325,6.9094404 5.7691276,6.9878579 5.703943,7.0149437 5.6523072,7.0364005 5.5488132,7.063988 5.3849239,7.0999824 5.1785462,7.1453083 4.7840506,7.1450757 4.5518822,7.0994907 4.3807807,7.0658951 4.3435841,7.066451 4.1619478,7.1053116 3.9746635,7.1453863 3.7993014,7.1589559 3.4643435,7.1592929 3.1937477,7.1595661 3.0420913,7.1465573 2.8089791,7.1030808 2.7307653,7.0884934 2.678821,7.0843722 2.6553693,7.0908944 2.446116,7.1490865 2.096922,7.179252 1.8660853,7.1590774 Z"
       id="path861" />
    <path
       style="fill:none;stroke:#f9d700;stroke-width:0.0999999;stroke-miterlimit:4;stroke-dasharray:none;stroke-opacity:1"
       d="m 3.518152,1.0687244 -0.053939,0.1048967 -0.09603,0.1873164 -0.042427,0.082419 -0.022052,0.040086 -0.035299,0.00721 -0.094662,0.013161 -0.3464223,0.048192 c 0.015195,0.030304 0.05768,0.056406 0.082498,0.080546 0.064923,0.063146 0.1347651,0.1225256 0.1978019,0.1873165 0.017538,0.018029 0.051484,0.037577 0.061859,0.059942 0.00433,0.00935 -0.00204,0.024102 -0.00353,0.033717 -0.00475,0.030661 -0.010765,0.061209 -0.016216,0.091786 -0.0129,0.072439 -0.02545,0.1449061 -0.038592,0.217287 -0.00689,0.037946 -0.018203,0.077697 -0.019978,0.1161362 l 0.1047327,-0.05187 0.2014083,-0.1022541 0.086606,-0.043859 0.036254,-0.015813 0.032225,0.014762 0.084591,0.042982 0.1973801,0.099597 0.1127889,0.056455 L 3.9295787,2.2338345 3.8899228,2.0090549 3.8738105,1.9191427 3.8686605,1.88034 3.8968016,1.8517086 3.9632668,1.7898946 4.1252474,1.636829 4.2130136,1.5520025 4.0941828,1.5356778 3.8686054,1.504094 3.7759581,1.4912721 3.7364621,1.4845207 3.7190452,1.4545947 3.676516,1.3721759 3.5760451,1.1754937 3.5221848,1.0687236 Z"
       id="path887" />
    <text
       xml:space="preserve"
       style="font-size:0.333333px;line-height:1.25;font-family:Arial;-inkscape-font-specification:Arial;stroke:none;stroke-width:0.0104167;stroke-opacity:1;fill:#f9d700;fill-opacity:1;"
       x="4.5838156"
       y="1.4392865"
       id="text935"><tspan
         sodipodi:role="line"
         id="tspan933"
         x="4.5838156"
         y="1.4392865"
         style="stroke:none;stroke-width:0.0104167;stroke-opacity:1;fill:#f9d700;fill-opacity:1;">Dark Gold</tspan></text>
    <text
       xml:space="preserve"
       style="font-style:normal;font-variant:normal;font-weight:normal;font-stretch:normal;font-size:0.333333px;line-height:1.25;font-family:Arial;-inkscape-font-specification:'Arial, Normal';font-variant-ligatures:normal;font-variant-caps:normal;font-variant-numeric:normal;font-variant-east-asian:normal;stroke:none;stroke-width:0.0104167;stroke-opacity:1;fill:#f9d700;fill-opacity:1;"
       x="4.6307497"
       y="1.8460413"
       id="text939"><tspan
         sodipodi:role="line"
         id="tspan963"
         x="4.6307497"
         y="1.8460413">Novoil Gold</tspan><tspan
         sodipodi:role="line"
         id="tspan965"
         x="4.6307497"
         y="2.2627075"></tspan></text>
    <text
       xml:space="preserve"
       style="font-size:0.333333px;line-height:1.25;font-family:Arial;-inkscape-font-specification:Arial;stroke:none;stroke-width:0.0104167;stroke-opacity:1;fill:#f9d700;fill-opacity:1;"
       x="4.7402606"
       y="2.2215073"
       id="text945"><tspan
         sodipodi:role="line"
         id="tspan943"
         x="4.7402606"
         y="2.2215073"
         style="stroke:none;stroke-width:0.0104167;stroke-opacity:1;fill:#f9d700;fill-opacity:1;">Casino Gold</tspan></text>
    <text
       xml:space="preserve"
       style="font-size:0.333333px;line-height:1.25;font-family:Arial;-inkscape-font-specification:Arial;stroke:none;stroke-width:0.0104167;stroke-opacity:1;fill:#00d700;fill-opacity:1;"
       x="5.3503938"
       y="4.4117274"
       id="text949"><tspan
         sodipodi:role="line"
         id="tspan947"
         x="5.3503938"
         y="4.4117274"
         style="stroke:none;stroke-width:0.0104167;stroke-opacity:1;fill:#00d700;fill-opacity:1;">Kelly Green</tspan><tspan
         sodipodi:role="line"
         x="5.3503938"
         y="4.8283935"
         style="stroke:none;stroke-width:0.0104167;stroke-opacity:1;fill:#00d700;fill-opacity:1;"
         id="tspan951" /></text>
    <text
       xml:space="preserve"
       style="font-size:0.333333px;line-height:1.25;font-family:Arial;-inkscape-font-specification:Arial;stroke:none;stroke-width:0.0104167;stroke-opacity:1;fill:#00d700;fill-opacity:1;"
       x="5.4911933"
       y="4.8341269"
       id="text955"><tspan
         sodipodi:role="line"
         id="tspan953"
         x="5.4911933"
         y="4.8341269"
         style="stroke:none;stroke-width:0.0104167;stroke-opacity:1;fill:#00d700;fill-opacity:1;">Coated Emerald Green</tspan></text>
    <text
       xml:space="preserve"
       style="font-size:0.333333px;line-height:1.25;font-family:Arial;-inkscape-font-specification:Arial;stroke:none;stroke-width:0.0104167;stroke-opacity:1;fill:#00d700;fill-opacity:1;"
       x="5.8197265"
       y="5.2252378"
       id="text959"><tspan
         sodipodi:role="line"
         id="tspan957"
         x="5.8197265"
         y="5.2252378"
         style="stroke:none;stroke-width:0.0104167;stroke-opacity:1;fill:#00d700;fill-opacity:1;">Apple Green</tspan><tspan
         sodipodi:role="line"
         x="5.8197265"
         y="5.6419039"
         style="stroke:none;stroke-width:0.0104167;stroke-opacity:1;fill:#00d700;fill-opacity:1;"
         id="tspan961" /></text>
    <text
       xml:space="preserve"
       style="font-size:0.333333px;line-height:1.25;font-family:Arial;-inkscape-font-specification:Arial;stroke-width:0.0104167;fill:#0041f7;fill-opacity:1;"
       x="4.4743047"
       y="7.6970549"
       id="text969"><tspan
         sodipodi:role="line"
         id="tspan967"
         x="4.4743047"
         y="7.6970549"
         style="stroke-width:0.0104167;fill:#0041f7;fill-opacity:1;">Horizon Blue</tspan></text>
    <text
       xml:space="preserve"
       style="font-size:0.333333px;line-height:1.25;font-family:Arial;-inkscape-font-specification:Arial;stroke-width:0.0104167;fill:#9933cc;"
       x="7.0087008"
       y="7.5249662"
       id="text973"><tspan
         sodipodi:role="line"
         id="tspan971"
         x="7.0087008"
         y="7.5249662"
         style="stroke-width:0.0104167;fill:#9933cc;">Purple?</tspan></text>
    <text
       xml:space="preserve"
       style="font-size:0.333333px;line-height:1.25;font-family:Arial;-inkscape-font-specification:Arial;stroke-width:0.0104167;fill:#f70000;fill-opacity:1;"
       x="6.7271013"
       y="3.4261281"
       id="text977"><tspan
         sodipodi:role="line"
         id="tspan975"
         x="6.7271013"
         y="3.4261281"
         style="stroke-width:0.0104167;fill:#f70000;fill-opacity:1;">2.5ft wide X</tspan><tspan
         sodipodi:role="line"
         x="6.7271013"
         y="3.8427944"
         style="stroke-width:0.0104167;fill:#f70000;fill-opacity:1;"
         id="tspan979">3.5ft Tall</tspan></text>
  </g>
</svg>
