<?xml version="1.0" encoding="UTF-8" standalone="no"?>
<svg
   xmlns:dc="http://purl.org/dc/elements/1.1/"
   xmlns:cc="http://creativecommons.org/ns#"
   xmlns:rdf="http://www.w3.org/1999/02/22-rdf-syntax-ns#"
   xmlns:svg="http://www.w3.org/2000/svg"
   xmlns="http://www.w3.org/2000/svg"
   xmlns:xlink="http://www.w3.org/1999/xlink"
   xmlns:sodipodi="http://sodipodi.sourceforge.net/DTD/sodipodi-0.dtd"
   xmlns:inkscape="http://www.inkscape.org/namespaces/inkscape"
   width="18in"
   height="24in"
   viewBox="0 0 18 24"
   version="1.1"
   id="svg8"
   inkscape:version="1.0.1 (3bc2e813f5, 2020-09-07)"
   sodipodi:docname="Donation Post Side Left (Draft 2).svg">
  <defs
     id="defs2">
    <rect
       x="-3.4953704"
       y="3.0324073"
       width="5.1388888"
       height="1.8055556"
       id="rect2323" />
    <path
       sodipodi:nodetypes="cc"
       inkscape:connector-curvature="0"
       id="path7406"
       d="m 376.48671,1207.3178 c 6.20181,-20.0133 40.57418,-21.6178 46.71846,-0.4008"
       style="fill:none;stroke:none;stroke-width:0.36;stroke-linecap:butt;stroke-linejoin:miter;stroke-miterlimit:4;stroke-dasharray:none;stroke-opacity:1" />
  </defs>
  <sodipodi:namedview
     id="base"
     pagecolor="#ffffff"
     bordercolor="#666666"
     borderopacity="1.0"
     inkscape:pageopacity="0.0"
     inkscape:pageshadow="2"
     inkscape:zoom="0.34"
     inkscape:cx="589.43093"
     inkscape:cy="1199.362"
     inkscape:document-units="in"
     inkscape:current-layer="layer1"
     inkscape:document-rotation="0"
     showgrid="true"
     units="in"
     inkscape:snap-global="false"
     inkscape:window-width="1920"
     inkscape:window-height="1017"
     inkscape:window-x="-8"
     inkscape:window-y="-8"
     inkscape:window-maximized="1"
     inkscape:snap-nodes="true"
     inkscape:snap-others="false"
     inkscape:snap-smooth-nodes="true"
     inkscape:object-paths="true"
     inkscape:snap-intersection-paths="true"
     inkscape:snap-grids="false"
     inkscape:snap-to-guides="false">
    <inkscape:grid
       type="xygrid"
       id="grid849"
       units="in"
       spacingx="0.25"
       spacingy="0.25"
       empspacing="4" />
  </sodipodi:namedview>
  <metadata
     id="metadata5">
    <rdf:RDF>
      <cc:Work
         rdf:about="">
        <dc:format>image/svg+xml</dc:format>
        <dc:type
           rdf:resource="http://purl.org/dc/dcmitype/StillImage" />
        <dc:title></dc:title>
        <dc:creator>
          <cc:Agent>
            <dc:title>Doctor Wizard</dc:title>
          </cc:Agent>
        </dc:creator>
        <dc:rights>
          <cc:Agent>
            <dc:title>Copyright 2021+ by Doctor Wizard</dc:title>
          </cc:Agent>
        </dc:rights>
        <dc:publisher>
          <cc:Agent>
            <dc:title>Doctor Wizard</dc:title>
          </cc:Agent>
        </dc:publisher>
        <dc:source>Doctor Wizard</dc:source>
        <dc:contributor>
          <cc:Agent>
            <dc:title>Doctor Wizard</dc:title>
          </cc:Agent>
        </dc:contributor>
      </cc:Work>
    </rdf:RDF>
  </metadata>
  <g
     inkscape:label="Layer 1"
     inkscape:groupmode="layer"
     id="layer1">
    <path
       style="fill:#000000;stroke-width:0.00246115"
       d="m 1.4098913,8.5218492 -0.011221,-0.00436 -0.010023,-0.00938 -0.010023,-0.00938 -0.00394,-0.0092 -0.00394,-0.0092 6.2e-6,-0.9762646 5.9e-6,-0.9762656 0.00658,-0.011209 0.00658,-0.011209 0.014345,-0.010053 0.014345,-0.010053 1.1193806,-8.862e-4 1.1193792,-8.861e-4 0.013875,0.0062 0.01389,0.0062 0.00608,0.00603 0.00608,0.00603 0.00608,0.010452 0.00608,0.010452 v 0.9756096 0.9756089 l -0.00394,0.0092 -0.00394,0.0092 -0.010023,0.00938 -0.010023,0.00938 -0.012025,0.0045 -0.012025,0.0045 L 2.5364008,8.5261279 1.421333,8.526 1.4101118,8.521644 Z m 1.9366859,-0.2894535 0.0096,-0.00319 0.00749,-0.010691 0.00749,-0.010691 1.12e-5,-0.702081 1.02e-5,-0.7020826 -0.00566,-0.00959 -0.00566,-0.00959 -0.011009,-0.00495 -0.011009,-0.00495 -0.8061731,8.863e-4 -0.806172,8.862e-4 -0.010342,0.00908 -0.010372,0.00906 v 0.7104916 0.7104907 l 0.00749,0.00728 0.00749,0.00728 0.00749,0.00266 0.00749,0.00266 0.8012131,2.551e-4 0.8012128,2.543e-4 0.0096,-0.00319 z m -1.2628761,-0.2919518 -0.012889,-0.00363 -0.013496,-0.01182 -0.013496,-0.01182 -0.00455,-0.014477 -0.00455,-0.014477 0.00101,-0.385688 0.00101,-0.3856889 0.00931,-0.014213 0.00931,-0.014211 0.016832,-0.00869 0.016832,-0.00869 H 2.5331376 2.977251 l 0.010205,0.00247 0.010205,0.00247 0.013314,0.010253 0.013314,0.010239 0.00637,0.01012 0.00637,0.01012 0.00111,0.3742491 0.00121,0.3742484 -0.00232,0.020124 -0.00232,0.020125 -0.0097,0.013081 -0.0097,0.013081 -0.015246,0.00761 -0.015246,0.00761 -0.4441136,5.089e-4 -0.4441113,5.095e-4 z M 4.0391153,7.7959629 V 7.0654435 h 0.3340193 0.334016 V 6.9199939 6.7745442 H 4.8732259 5.0393011 V 6.6290927 6.483643 H 5.3733204 5.7073366 V 6.6290927 6.7745442 H 5.5393968 5.3714554 v 0.1454165 0.1454167 l 0.1670075,8.86e-4 0.1670075,8.864e-4 0.00101,0.2917169 0.00101,0.2917179 H 5.8735487 6.0396051 V 7.5051333 7.3596835 H 6.3736256 6.7076437 V 6.7745799 6.1894772 L 6.5406344,6.1903634 6.373627,6.1912497 6.372617,6.4829666 6.371607,6.7746845 H 6.2055461 6.0394901 V 6.4821718 6.1896368 H 5.7054742 5.3714561 V 5.8987359 5.607836 H 5.5393974 5.7073388 V 5.7532858 5.8987355 H 6.3735082 7.0396775 V 5.6062009 5.313667 H 6.8736022 6.7075288 V 5.1682156 5.0227658 H 6.5414515 6.3753763 V 4.8756818 4.7285962 H 6.5414515 6.7075288 V 4.5831465 4.4376983 H 6.0394901 5.3714561 V 4.7302316 5.0227672 H 5.5393974 5.707337 V 5.1682169 5.3136684 H 5.8734124 6.0394877 V 5.1682169 5.0227672 H 6.2055649 6.3716402 V 5.313667 5.6045669 H 6.0394901 5.7073379 V 5.4591172 5.3136674 H 5.5393984 5.371457 V 5.1682161 5.0227664 H 5.2053816 5.0393044 V 5.1682161 5.3136674 H 4.8732291 4.7071538 V 5.1682161 5.0227664 H 4.8732291 5.0393044 V 4.8756477 4.7285289 l -0.1670074,8.86e-4 -0.1670094,8.862e-4 -0.00101,0.1462677 -0.00101,0.1462678 H 4.0371302 3.3709982 V 4.8757523 4.728667 H 3.2049221 3.0388469 V 4.5832273 4.4377787 H 2.870893 2.702951 V 4.2906941 4.1436096 H 2.5368747 2.3707987 V 3.9981584 3.8527078 H 1.8707054 1.3706114 V 3.7072566 3.5618085 H 2.2047226 3.038835 V 3.999792 4.4377784 H 3.2049101 3.3709855 V 4.2923451 4.146912 L 3.7040709,4.1460257 4.037156,4.1451396 4.038166,3.9988719 4.039176,3.8526042 H 3.7051369 3.3710792 V 3.7071545 3.5617064 h 0.8341125 0.8341111 v 0.1454149 0.1454151 l -0.1670076,8.862e-4 -0.1670093,8.862e-4 v 0.2909008 0.2909008 l 0.1670093,8.863e-4 0.1670076,8.861e-4 V 4.2923984 4.1469156 h 0.5000953 0.500092 V 3.9998313 3.8527459 H 5.705472 5.3714561 V 3.4147625 2.976776 H 5.5393974 5.707337 V 2.8313434 2.6859118 l 0.3330872,-8.864e-4 0.3330851,-8.86e-4 0.00101,-0.2917171 0.00101,-0.291718 h 0.3321319 0.33213 v 0.292536 0.2925332 H 6.8737179 6.7076443 V 2.8312233 2.9766744 H 6.8737179 7.039795 V 3.2692102 3.5617453 H 7.2077384 7.3756799 V 3.8542792 4.1468141 H 7.5417551 7.7078305 V 4.2922656 4.4377152 H 7.5417551 7.3756799 v 0.1454497 0.1454498 h 0.6661685 0.6661708 v 0.147084 0.1470841 H 8.5419539 8.3758691 V 5.3136847 5.6045846 H 8.2079352 8.0400012 V 5.4591348 5.3136851 H 7.8739164 7.7078411 V 5.4591348 5.6045846 H 7.5417657 7.3756904 v 0.147084 0.1470842 H 8.0418636 8.708033 V 6.0442041 6.1896538 H 8.5419663 8.3758815 V 6.4821882 6.7747224 H 8.5419663 8.708033 V 6.6292727 6.4838229 H 9.0420502 9.3760688 V 6.1912886 5.8987535 H 9.2100397 9.0440119 L 9.0430005,5.7524859 9.0419876,5.6062181 8.8749777,5.6053319 8.707969,5.6044458 V 5.4590308 5.3136156 H 9.2080515 9.7081452 V 6.0441341 6.7746535 H 9.2080432 8.7079523 v 0.2925349 0.292535 H 8.5418676 8.3757828 v 0.292534 0.292535 H 8.5418676 8.7079523 V 7.7977082 7.650624 H 8.8758861 9.04382 V 7.5051743 7.3597247 h 0.3321514 0.3321515 v 0.292534 0.2925349 H 9.5420381 9.3759534 V 8.0902433 8.235693 H 9.5420381 9.7081229 V 8.3811427 8.5265923 H 9.2080321 8.7079385 V 8.3811435 8.2356933 H 7.7077512 6.7075638 V 8.3811429 8.5265926 H 6.0395265 5.3714924 V 7.9431461 7.3597114 H 4.8713973 4.3713031 V 7.505161 7.6506108 h 0.334018 0.3340181 v 0.2925358 0.292535 H 4.8732631 4.707187 V 8.0902312 7.9447809 H 4.5392456 4.3713042 V 8.0902305 8.2356803 H 4.5373794 4.7034547 V 8.38113 8.5265797 H 4.3713042 4.0391526 Z m 2.0003748,0.294169 V 7.9446821 H 5.8734148 5.7073394 v 0.1454498 0.1454514 h 0.1660754 0.1660753 z m 0.6680375,0 V 7.9446821 H 7.3736967 8.0398653 V 7.6521466 7.3596126 H 7.8737806 7.7077054 V 7.5050623 7.6505121 H 7.5416388 7.3755626 V 7.505063 7.3596126 H 7.2076207 7.0396787 V 7.5050457 7.650479 l -0.3330852,8.852e-4 -0.3330842,8.862e-4 -0.00101,0.2917178 -0.00101,0.2917171 H 6.5394497 6.70741 Z m 2.3362576,0 V 7.9446821 H 9.20987 9.3759547 V 7.7975981 7.6505141 H 9.209927 9.0438799 l -0.00101,0.1462676 -0.00101,0.1462661 -0.1670086,8.861e-4 -0.16701,8.863e-4 v 0.145415 0.1454182 H 8.8757721 9.0437059 Z M 8.0398653,6.6274583 V 6.1894736 H 7.5397729 7.0396787 v 0.4379847 0.4379852 h 0.5000942 0.5000924 z m -0.6643027,0.00159 V 6.4836053 H 7.5416397 7.7077151 V 6.6290533 6.774503 H 7.5416397 7.3755626 Z m 0,-1.7535737 V 4.7283986 H 7.0415445 6.7075276 v 0.1470859 0.147084 H 7.0415445 7.3755626 Z M 3.7032314,4.5829446 V 4.437495 H 3.5371561 3.3710789 v 0.1454496 0.1454497 h 0.1660772 0.1660753 z m 0.6680352,0 V 4.437495 H 4.2051912 4.0391139 V 4.5829446 4.7283943 H 4.2051912 4.3712666 Z M 7.0396787,4.2904104 V 4.1433264 H 6.8736014 6.707528 v 0.147084 0.1470842 H 6.8736014 7.0396787 Z M 6.3753751,3.7069747 V 3.5615251 H 6.5414504 6.7075277 V 3.7069747 3.8524244 H 6.8736011 7.0396783 V 3.7069747 3.5615252 H 6.8736014 6.7075276 V 3.2689903 2.9764555 H 6.5395859 6.3716445 V 3.1219051 3.2673548 H 6.2055691 6.0394921 V 3.1219051 2.9764555 H 5.8734168 5.7073414 V 3.2689903 3.5615252 H 5.8734168 6.0394921 V 3.706975 3.8524247 H 6.2074353 6.3753769 Z M 4.0391153,6.33652 V 5.898534 H 3.8711739 3.7032325 V 6.0439853 6.1894349 H 3.2031374 2.7030441 V 6.0439853 5.898534 H 2.5369687 2.3708915 V 6.0439853 6.1894349 H 2.2029498 2.0350078 V 6.0439853 5.898534 H 2.2029494 2.3708908 V 5.6059991 5.3134657 H 2.5369302 2.702966 l 0.00101,0.1462661 0.00101,0.1462659 0.1670093,8.862e-4 0.1670094,8.863e-4 V 5.7531869 5.8986036 H 3.3711596 3.7033119 V 5.7531869 5.6077702 l 0.1670093,-8.863e-4 0.1670093,-8.862e-4 0.00101,-0.1462659 0.00101,-0.1462661 h 0.1659981 0.1659996 l 0.00101,0.1462661 0.00101,0.1462659 0.333084,8.862e-4 0.3330843,8.863e-4 V 5.7532034 5.8986365 H 4.705564 4.3715479 V 6.336623 6.7746065 H 4.2054708 4.0393946 Z M 1.3707043,5.4589162 V 4.7283986 H 1.5367815 1.7028568 V 4.5829827 4.437534 H 1.5367795 1.3707025 V 4.2920843 4.1466331 H 1.7028547 2.035006 v 0.583435 0.5834356 H 1.8689307 1.7028553 V 5.7514882 6.1894735 H 1.53678 1.3707028 Z m 2.0003749,0 V 5.3134649 h 0.166077 0.1660754 v 0.1454513 0.145448 H 3.5371555 3.3710792 Z M 9.0437852,4.8754796 V 4.7283987 H 9.375938 9.7080909 V 4.8754845 5.0225686 H 9.375938 9.0437852 Z M 8.0423541,4.4353161 8.0399055,4.4330984 V 4.2881955 4.1432895 H 7.8738353 7.707758 v -0.2909007 -0.2909 H 7.8738333 8.0399181 V 3.706937 3.8523883 h 0.167934 0.1679335 V 3.706937 3.5614888 H 8.5418523 8.707937 V 3.706937 3.8523883 H 8.5418703 8.3757856 v 0.292535 0.2925349 H 8.2103239 8.0448618 Z M 8.7079023,4.2920443 V 4.146593 H 8.8758361 9.0437699 V 4.2920443 4.4374941 H 8.8758361 8.7079023 Z M 9.375938,3.9978755 V 3.8524258 H 9.2098533 9.043788 V 3.706976 3.5615264 H 9.2098533 9.375938 V 3.706976 3.8524258 H 9.5420228 9.7081075 V 3.9978755 4.1433269 H 9.5420228 9.375938 Z m -7.9660467,-0.7356601 -0.011221,-0.00506 -0.0089,-0.00709 -0.0089,-0.00709 -0.00514,-0.010531 -0.00514,-0.010531 V 2.2460768 1.2702066 l 0.00514,-0.010531 0.00514,-0.010531 0.010706,-0.00878 0.010705,-0.00877 0.010509,-0.00345 0.010509,-0.00345 1.1147047,4.5e-6 1.1147057,5.2e-6 0.012798,0.00576 0.012798,0.00576 0.011479,0.012559 0.011479,0.012563 0.00101,0.9803914 0.00101,0.9803924 -0.00608,0.010492 -0.00608,0.010492 -0.00608,0.00603 -0.00608,0.00603 -0.013844,0.0062 -0.013845,0.0062 -1.115096,-1.86e-5 -1.1150964,-1.95e-5 -0.011221,-0.00506 z m 1.9389182,-0.2907182 0.010948,-0.00495 0.00566,-0.00959 0.00566,-0.00959 -1e-5,-0.7020811 -1.23e-5,-0.7020834 -0.00749,-0.010691 -0.00749,-0.010691 -0.0096,-0.00319 -0.0096,-0.00319 -0.8057269,8.861e-4 -0.8057278,8.862e-4 -0.010372,0.00906 -0.010342,0.00906 -0.00101,0.7056611 -0.00101,0.70566 0.00364,0.00841 0.00364,0.00841 0.012207,0.00656 0.012207,0.00656 0.8016419,9.9e-6 0.801642,8.8e-6 0.010948,-0.00495 z m -1.2564842,-0.2890275 -0.011722,-0.00247 -0.012677,-0.00683 -0.012677,-0.00683 -0.0092,-0.014047 -0.0092,-0.014063 -0.00101,-0.3856888 -0.00101,-0.3856881 0.00455,-0.014476 0.00455,-0.014476 0.013571,-0.011886 0.013571,-0.011886 0.01653,-0.00398 0.01653,-0.00398 0.4403808,8.863e-4 0.4403819,8.863e-4 0.016832,0.00869 0.016832,0.00869 0.00931,0.014211 0.00931,0.014213 V 2.242685 2.6316413 l -0.00282,0.00894 -0.00282,0.00892 -0.011706,0.01166 -0.011706,0.01166 -0.011555,0.00558 -0.011555,0.00558 -0.4403816,5.085e-4 -0.440382,5.097e-4 z m 1.94679,0.2939858 V 2.6855892 h 0.1660771 0.1660754 v 0.2909006 0.290901 H 4.2051917 4.0391153 Z M 4.7071506,2.8293709 V 2.3913862 H 4.8732259 5.0393011 V 2.2459697 2.1005199 H 4.8713597 4.7034183 V 2.2459697 2.391421 H 4.3712666 4.0391153 V 2.2459697 2.1005199 H 4.2051924 4.3712678 V 1.9534359 1.8063518 H 4.2051924 4.0391153 V 1.6609004 1.5154507 H 4.2051924 4.3712678 V 1.3699992 1.2245496 h 0.1660773 0.1660753 v 0.290901 0.2908998 H 4.8713618 5.0393032 V 1.6608991 1.5154494 H 5.5393985 6.0394906 V 1.369998 1.2245484 H 6.2055679 6.3716433 V 1.5154512 1.8063511 H 5.8715483 5.3714561 V 2.098886 2.391421 H 5.5393974 5.707337 V 2.2459697 2.1005199 H 5.8734124 6.0394877 V 2.2459697 2.391421 H 5.8734501 5.7074125 l -0.00101,0.1462678 -0.00101,0.146266 H 5.5393136 5.3732401 L 5.3722283,2.5376888 5.3712165,2.391421 H 5.2051805 5.0391428 V 2.8294053 3.2673908 H 4.8730676 4.7069923 Z m 2.7075979,0.432552 -0.011221,-0.00523 -0.00688,-0.00533 -0.00688,-0.00533 -0.00708,-0.012165 -0.00708,-0.012165 0.00101,-0.980358 0.00101,-0.9803587 0.011479,-0.012563 0.011479,-0.012559 0.012798,-0.00576 0.012798,-0.00576 1.1150685,-5.4e-6 1.1150671,-5.2e-6 0.012101,0.00451 0.012101,0.00451 0.010023,0.00938 0.010023,0.00938 0.0039,0.0092 0.0039,0.0092 V 2.246803 3.2230677 l -0.00654,0.011209 -0.00654,0.011209 -0.014345,0.010053 -0.014345,0.010053 -1.1201982,6.373e-4 -1.1202,6.361e-4 -0.011221,-0.00523 z M 9.363724,2.9657592 9.3741566,2.9566754 V 2.2459341 1.5351742 l -0.010433,-0.00906 -0.010433,-0.00906 H 8.5418203 7.7302699 l -0.010372,0.00906 -0.010342,0.00906 -0.00101,0.7051141 -0.00101,0.7051142 0.00446,0.00938 0.00446,0.00938 0.011494,0.00612 0.011494,0.00612 0.8069697,-7.648e-4 0.8069696,-7.64e-4 z m -1.2665404,-0.2832895 -0.011706,-0.00247 -0.012647,-0.00683 -0.012646,-0.00683 -0.00925,-0.014047 -0.00925,-0.014063 V 2.2460059 1.8537806 l 0.00925,-0.014213 0.00925,-0.014211 0.016792,-0.00869 0.016792,-0.00869 h 0.4478826 0.4478452 l 0.016792,0.00869 0.016792,0.00869 0.00919,0.014211 0.00919,0.014213 0.00111,0.3807849 0.00111,0.3807865 -0.00223,0.013436 -0.00223,0.013434 -0.00987,0.013227 -0.00987,0.013214 -0.015276,0.00761 -0.01529,0.00761 -0.440381,5.094e-4 -0.440379,5.097e-4 z M 6.7075276,1.3699662 V 1.2245165 H 6.8736009 7.0396781 V 1.3699662 1.5154159 H 6.8736009 6.7075276 Z"
       id="path2220" />
    <path
       style="fill:#00006e;fill-opacity:1;stroke:#000000;stroke-width:0.00196051;stroke-miterlimit:4;stroke-dasharray:none;stroke-opacity:1"
       d="m 2.3307506,20.464968 0.011903,-2.57616 0.089745,-0.333733 C 2.798285,16.194406 3.5574015,15.313451 4.9224193,14.665401 6.07882,14.116393 7.6119154,14.104425 8.736636,14.635626 c 1.488465,0.702992 2.316625,1.70973 2.593378,3.152588 0.06432,0.335339 0.06855,0.508412 0.06855,2.805151 v 2.447761 H 6.8587058 2.3188436 Z m 8.6776434,-0.09814 C 10.996112,18.171042 10.991836,18.037203 10.924054,17.75658 10.706033,16.85392 10.276495,16.133874 9.6745681,15.66204 9.3071463,15.374027 8.7903443,15.061821 8.4551314,14.92536 7.2458204,14.433067 5.8484288,14.532551 4.7289243,15.19064 3.6655505,15.815731 3.1153509,16.521155 2.815837,17.643457 l -0.091666,0.343489 -0.012237,2.347168 -0.012237,2.347168 h 4.1608006 4.1607994 z m -7.6474411,1.529338 c 0,-0.214987 0.039166,-0.248044 0.1196751,-0.101038 0.068281,0.124691 0.2153198,0.231881 0.318058,0.231881 0.080824,0 0.2205198,-0.102126 0.2205198,-0.16123 0,-0.06341 -0.1149941,-0.134398 -0.3000719,-0.185203 -0.2404707,-0.06602 -0.3235353,-0.141488 -0.3235353,-0.293989 0,-0.234478 0.2984894,-0.387321 0.528956,-0.270856 0.05553,0.02806 0.07732,0.02806 0.087219,0 0.00722,-0.02057 0.035287,-0.0374 0.062282,-0.0374 0.036395,0 0.049076,0.0465 0.049076,0.179922 0,0.138121 -0.012086,0.179924 -0.051965,0.179924 -0.028579,0 -0.052465,-0.02578 -0.053072,-0.05725 -0.00396,-0.202421 -0.3533423,-0.3083 -0.4506861,-0.136552 -0.053687,0.09473 0.00338,0.147469 0.2253752,0.208414 0.2750002,0.07549 0.3476694,0.144217 0.3476694,0.328817 0,0.127001 -0.016478,0.166318 -0.09721,0.231884 -0.1137825,0.09242 -0.3462311,0.107718 -0.4630133,0.03049 -0.06474,-0.04282 -0.078251,-0.04282 -0.1158917,0 -0.077376,0.08804 -0.103406,0.05084 -0.103406,-0.147811 z m 0.8660438,0.142846 c 5.94e-5,-0.0204 0.031257,-0.04478 0.069363,-0.05418 0.064264,-0.01586 0.069295,-0.04462 0.069295,-0.396095 0,-0.343558 -0.00654,-0.382806 -0.069295,-0.419845 -0.1181512,-0.06968 -0.078215,-0.09055 0.1732236,-0.09055 0.2316083,0 0.3206484,0.0385 0.1732251,0.0749 -0.058964,0.01457 -0.069295,0.04462 -0.069295,0.201727 v 0.184617 l 0.1969807,-0.0098 0.1969807,-0.0098 -0.00326,-0.106324 c -0.00174,-0.05847 -0.00466,-0.137138 -0.0064,-0.174807 -0.00187,-0.03939 -0.032585,-0.07575 -0.072439,-0.08559 -0.1474232,-0.03642 -0.058382,-0.0749 0.1732238,-0.0749 0.2276846,0 0.3170426,0.04048 0.1905475,0.08631 -0.042322,0.01534 -0.051965,0.09405 -0.051965,0.424244 0,0.33856 0.00861,0.405415 0.051965,0.405415 0.028579,0 0.051964,0.01903 0.051964,0.04231 0,0.03102 -0.06084,0.04041 -0.2283633,0.03517 -0.2401656,-0.0076 -0.3217396,-0.03481 -0.1963799,-0.06578 0.086042,-0.02124 0.1002958,-0.06608 0.083469,-0.26247 l -0.01219,-0.141835 H 4.7605863 4.5735282 v 0.182985 c 0,0.155473 0.010372,0.185557 0.069295,0.200092 0.1394866,0.03445 0.063262,0.06982 -0.1733019,0.0804 -0.1644613,0.0074 -0.2425681,-0.0011 -0.2425146,-0.02622 z m 1.2126439,-0.0037 c 2.3e-6,-0.0225 0.031189,-0.04089 0.069295,-0.04089 0.065579,0 0.069295,-0.02181 0.069295,-0.406712 0,-0.377978 -0.00488,-0.408175 -0.069295,-0.427474 -0.1742302,-0.05222 -0.036452,-0.08178 0.3810939,-0.08178 h 0.4503831 v 0.179924 c 0,0.184414 -0.05136,0.242397 -0.089069,0.100559 -0.039726,-0.149471 -0.2253763,-0.23735 -0.3823561,-0.180994 -0.070355,0.02526 -0.082897,0.05186 -0.082897,0.175847 0,0.08036 0.014178,0.154367 0.031515,0.164482 0.056122,0.03275 0.1417671,-0.01972 0.1630837,-0.09992 0.011403,-0.04299 0.042472,-0.07817 0.06899,-0.07817 0.036593,0 0.048215,0.05519 0.048215,0.228992 0,0.250772 -0.056809,0.308866 -0.1279742,0.130852 -0.026728,-0.06687 -0.06282,-0.09814 -0.1132593,-0.09814 -0.068235,0 -0.07322,0.01474 -0.063633,0.188101 l 0.010372,0.188101 0.1325658,0.01023 c 0.1668208,0.01301 0.2872344,-0.05875 0.3175596,-0.189117 0.038676,-0.166278 0.09105,-0.111981 0.07994,0.08288 l -0.010372,0.182121 -0.4417279,0.006 c -0.3336663,0.0045 -0.4417267,-0.004 -0.441722,-0.0349 z m 1.0393165,0 c 1.98e-5,-0.0225 0.031212,-0.04089 0.069329,-0.04089 0.065578,0 0.069295,-0.02181 0.069295,-0.406712 0,-0.377978 -0.00488,-0.408175 -0.069295,-0.427474 -0.1466089,-0.04393 -0.058429,-0.08178 0.1905464,-0.08178 0.2496793,0 0.3370854,0.03786 0.1895015,0.0821 -0.066337,0.01988 -0.069782,0.04369 -0.060629,0.419296 l 0.00966,0.398219 0.1109984,0.01009 c 0.1505272,0.01375 0.2489525,-0.04256 0.3081427,-0.176337 0.027228,-0.06153 0.064881,-0.111874 0.083677,-0.111874 0.037034,0 0.039304,0.162857 0.00406,0.294417 l -0.021883,0.08178 H 6.9206195 c -0.3303284,0 -0.4417489,-0.01023 -0.441722,-0.04089 z m 1.0393655,0.0037 c 9.4e-6,-0.0204 0.031199,-0.04478 0.069306,-0.05418 0.064472,-0.01592 0.069295,-0.04462 0.069295,-0.412729 0,-0.368928 -0.00453,-0.395622 -0.066813,-0.395622 -0.08985,0 -0.1747297,0.08539 -0.1990537,0.200224 -0.034275,0.161804 -0.080578,0.103136 -0.080578,-0.102087 V 21.078332 H 7.756399 8.2023184 l 0.023128,0.164636 c 0.031886,0.227012 -0.00919,0.266482 -0.09714,0.09339 -0.056809,-0.111769 -0.094286,-0.145846 -0.1693179,-0.153982 l -0.096359,-0.01036 0.0098,0.403008 c 0.00954,0.392888 0.011752,0.403276 0.089698,0.413707 0.043976,0.006 0.074639,0.02571 0.068166,0.04406 -0.016804,0.04761 -0.5119235,0.05369 -0.5119025,0.0062 z m 0.8315353,-0.0015 c -2.35e-5,-0.02122 0.035043,-0.04332 0.077913,-0.04907 0.075897,-0.01023 0.077948,-0.02081 0.077948,-0.403012 0,-0.375719 -0.00338,-0.393941 -0.077948,-0.424849 -0.1538331,-0.06373 -0.07103,-0.08219 0.3683926,-0.08219 0.4335873,0 0.4469394,0.002 0.4672329,0.0736 0.059698,0.210336 -0.017936,0.375943 -0.087683,0.187034 -0.048121,-0.130348 -0.2238496,-0.210731 -0.3565297,-0.163097 -0.078437,0.02817 -0.088266,0.05 -0.088266,0.196066 0,0.194755 0.0716,0.223381 0.1661745,0.06644 0.032458,-0.05387 0.070714,-0.09802 0.085003,-0.09814 0.014284,-1.21e-4 0.025983,0.102844 0.025983,0.228784 0,0.125952 -0.011691,0.2289 -0.025983,0.228787 -0.014284,-1.21e-4 -0.052535,-0.04428 -0.085003,-0.09814 -0.032458,-0.05386 -0.08391,-0.09793 -0.1143299,-0.09793 -0.045443,0 -0.053455,0.03357 -0.044918,0.188101 l 0.010372,0.1881 0.1333164,0.01023 c 0.1507244,0.01169 0.2347585,-0.04213 0.3007823,-0.192632 0.057834,-0.131835 0.1029874,-0.119962 0.1024279,0.02689 -0.00101,0.261944 0.015133,0.253529 -0.4862627,0.253529 -0.3216589,0 -0.4486059,-0.01089 -0.448635,-0.03862 z m 1.0537412,0.02498 c -0.035148,-0.0332 -0.00839,-0.06441 0.063518,-0.07404 0.075139,-0.01009 0.078308,-0.02433 0.087721,-0.395059 0.0098,-0.383629 0.00954,-0.384705 -0.077948,-0.422346 -0.174512,-0.07509 -0.0883,-0.09974 0.3072161,-0.08788 0.4521758,0.01356 0.5404818,0.05331 0.5404818,0.243307 0,0.114716 -0.06035,0.19243 -0.176439,0.227221 -0.07094,0.02126 -0.07103,0.02232 -0.0047,0.06618 0.03706,0.0245 0.08722,0.111437 0.111454,0.193171 0.04904,0.165446 0.06006,0.173573 0.123675,0.09141 0.02437,-0.03145 0.05621,-0.04594 0.07078,-0.03218 0.04112,0.03881 -0.10516,0.202578 -0.191727,0.214678 -0.115077,0.01608 -0.19928,-0.07668 -0.218914,-0.241143 -0.02073,-0.17369 -0.074348,-0.244006 -0.1860662,-0.244006 -0.07691,0 -0.082372,0.01209 -0.082372,0.182985 0,0.155473 0.010372,0.185557 0.069295,0.200093 0.038106,0.0094 0.069295,0.03379 0.069295,0.05418 0,0.03498 -0.469936,0.05677 -0.50524,0.02344 z m 0.6438179,-0.591621 c 0.139915,-0.132114 0.06285,-0.294419 -0.1397948,-0.294419 H 9.7702617 v 0.179923 c 0,0.178104 0.00105,0.179922 0.1039291,0.179922 0.057743,0 0.1347292,-0.02908 0.1732232,-0.06542 z m -5.5004872,-2.19973 0.012601,-1.218793 0.091493,-0.237012 c 0.050322,-0.130361 0.1431106,-0.328898 0.2062044,-0.441203 0.1382265,-0.246035 0.5571162,-0.649932 0.8361458,-0.806215 0.7406586,-0.414843 1.696893,-0.414843 2.4373071,0 0.1084479,0.06076 0.3236714,0.228245 0.4782719,0.372183 0.2240452,0.208592 0.3102763,0.318136 0.424897,0.539767 0.2321752,0.448932 0.254771,0.624894 0.2436445,1.897362 l -0.00954,1.09589 -2.3667886,0.0085 -2.3667888,0.0085 z m 2.5076224,0.983313 c -0.012131,-0.05729 -0.047679,-0.130906 -0.078983,-0.163568 -0.054096,-0.05645 -0.050043,-0.0594 0.081651,-0.0594 0.088474,0 0.1579571,-0.0207 0.1921674,-0.05725 0.05645,-0.06031 0.23431,-0.460035 0.23431,-0.5266 0,-0.02668 0.030012,-0.03116 0.095277,-0.0142 0.1838904,0.04778 0.9829471,-0.02179 1.1404534,-0.09927 0.1622453,-0.07981 0.3090304,-0.388252 0.2924835,-0.614585 -0.00406,-0.05643 -0.5706848,-0.320409 -0.9825533,-0.457794 -0.1457219,-0.04861 -0.2338537,-0.09619 -0.2338537,-0.126271 0,-0.02655 -0.024364,-0.108488 -0.054131,-0.182098 -0.048516,-0.119949 -0.089745,-0.152295 -0.3974946,-0.311867 -0.2765188,-0.14338 -0.3435454,-0.192448 -0.3442873,-0.25204 -9.399e-4,-0.07538 -0.1976459,-0.81483 -0.2298473,-0.864029 -0.042543,-0.06499 -0.073697,-0.01262 -0.1132927,0.190249 -0.023316,0.119498 -0.077517,0.279557 -0.1204439,0.355696 l -0.078052,0.138441 -0.1119658,-0.233023 c -0.1232432,-0.2565 -0.2959746,-0.476794 -0.3406991,-0.434506 -0.015757,0.0149 -0.029196,0.250338 -0.029871,0.5232 -9.688e-4,0.394353 -0.012768,0.516244 -0.057531,0.594253 -0.07273,0.126736 -0.2129091,0.247638 -0.4125242,0.3558 -0.087707,0.04752 -0.1848116,0.112857 -0.2157799,0.14516 -0.030967,0.03231 -0.1187198,0.241951 -0.1950044,0.465869 -0.1344491,0.394649 -0.1711963,0.468064 -0.3415296,0.68231 -0.072846,0.09161 -0.074454,0.101011 -0.017317,0.100892 0.1035439,-2.02e-4 0.2797332,-0.11991 0.382405,-0.259817 0.052977,-0.07219 0.1742721,-0.258984 0.2695453,-0.415105 0.2296258,-0.376274 0.4067767,-0.543446 0.7180884,-0.677634 0.1385827,-0.05973 0.273365,-0.133119 0.2995174,-0.16308 0.073731,-0.08446 0.1056411,-0.06567 0.1296938,0.07636 0.025226,0.148982 0.017596,0.146197 0.2329903,0.08499 l 0.1614078,-0.04587 v 0.125527 c 0,0.06903 -0.01656,0.166656 -0.036801,0.216931 -0.027298,0.06781 -0.026192,0.09474 0.00432,0.104332 0.1282563,0.04037 0.2334716,0.198008 0.3088706,0.462767 0.043558,0.152935 0.1087163,0.327369 0.1447984,0.387633 0.065312,0.109073 0.065231,0.110334 -0.016968,0.278062 -0.04542,0.09267 -0.1000412,0.208974 -0.1213765,0.258453 -0.03566,0.08268 -0.054097,0.08996 -0.2280478,0.08996 -0.181148,0 -0.2694181,0.03737 -0.19324,0.08183 0.019728,0.01142 0.074815,0.09348 0.1224046,0.182183 0.099585,0.185566 0.1749196,0.216008 0.1412561,0.05708 z M 3.6082215,20.15081 c -0.08001,-0.08043 -0.080265,-0.08287 -0.017005,-0.164853 0.079518,-0.103056 0.086147,-0.103322 0.1814516,-0.0077 l 0.077353,0.07774 -0.080287,0.08813 -0.080289,0.08813 z m 6.4771815,-0.0013 c -0.07856,-0.07897 -0.07881,-0.0815 -0.01559,-0.163429 0.07997,-0.103654 0.08574,-0.103734 0.186361,-0.0028 l 0.08225,0.08267 -0.08662,0.08178 -0.08662,0.08178 -0.07981,-0.0802 z M 9.5970343,19.279119 c 0,-0.4185 0.019472,-0.497139 0.087055,-0.351667 0.032737,0.07044 0.052033,0.0736 0.4499377,0.0736 0.404759,0 0.416031,-0.002 0.426807,-0.0736 0.0061,-0.04049 0.02558,-0.0736 0.04331,-0.0736 0.01773,0 0.03224,0.110401 0.03224,0.245348 0,0.232454 -0.03979,0.322694 -0.07932,0.179921 -0.01685,-0.06084 -0.04727,-0.06542 -0.433346,-0.06542 -0.410853,0 -0.4154487,8.36e-4 -0.4363614,0.07952 -0.034588,0.130148 0.034695,0.245079 0.1864372,0.309228 0.1724952,0.07292 0.1462992,0.101954 -0.09198,0.101954 H 9.5970389 Z m -5.7510533,0.19547 c 0,-0.01845 0.035078,-0.04615 0.077948,-0.06158 0.2403611,-0.08652 0.3472221,-0.34538 0.1842084,-0.446236 -0.1289083,-0.07975 -0.2072316,-0.0196 -0.2760576,0.212012 -0.035729,0.120242 -0.087834,0.216222 -0.1339351,0.24671 -0.089874,0.05944 -0.2977473,0.06387 -0.3748419,0.008 -0.1277104,-0.09258 -0.1731425,-0.288652 -0.097723,-0.421717 0.027381,-0.0483 0.027381,-0.07668 0,-0.102525 -0.071975,-0.06797 -0.037094,-0.08809 0.1526919,-0.08809 0.1876079,0 0.2531731,0.04223 0.1251204,0.08063 -0.1026842,0.03077 -0.2463777,0.171517 -0.2463777,0.24132 0,0.03485 0.028253,0.09631 0.062784,0.13657 0.1041505,0.12145 0.2033349,0.06313 0.2687788,-0.158028 0.066954,-0.226281 0.1788223,-0.333201 0.3486152,-0.333201 0.2489629,0 0.3923986,0.252456 0.2891395,0.508904 -0.023898,0.05936 -0.024001,0.100839 -3.026e-4,0.127811 0.019297,0.02195 0.024829,0.04962 0.012298,0.06145 -0.03743,0.03534 -0.3923414,0.02449 -0.3923402,-0.01195 z m 5.7275167,-0.956052 c -0.029187,-0.201736 5.774e-4,-0.28413 0.063995,-0.177122 0.025237,0.04258 0.046607,0.04541 0.1164786,0.01533 0.069738,-0.03 0.085577,-0.06047 0.085577,-0.164568 0,-0.07027 -0.01614,-0.156225 -0.03587,-0.191028 -0.047388,-0.08361 -0.1732437,-0.08223 -0.1966116,0.002 -0.024213,0.08741 -0.074257,0.08304 -0.093706,-0.0082 -0.066021,-0.309517 -0.058673,-0.331715 0.071553,-0.216194 0.048948,0.04343 0.253922,0.116098 0.5392283,0.191199 0.290015,0.07634 0.463805,0.138211 0.46983,0.167264 0.0062,0.03004 -0.153738,0.12295 -0.459044,0.266632 -0.2906233,0.136764 -0.4686081,0.239217 -0.4686081,0.269745 0,0.02707 -0.014224,0.04923 -0.031619,0.04923 -0.017388,0 -0.04493,-0.09201 -0.061201,-0.204456 z m 0.6817873,-0.419728 c 0,-0.01855 -0.2636057,-0.09551 -0.3271447,-0.09551 -0.026127,0 -0.024687,0.213001 0.00167,0.237828 0.024186,0.02284 0.3255457,-0.108913 0.3255457,-0.142322 z M 4.1341948,18.628524 C 4.123838,18.591007 3.9415522,18.47291 3.6697325,18.327569 3.4236846,18.196012 3.2223727,18.071299 3.2223727,18.050437 c 0,-0.0322 0.4706414,-0.153966 0.8950832,-0.23158 0.063565,-0.01155 0.1236965,-0.04112 0.1336257,-0.06555 0.0099,-0.02442 0.03197,-0.04442 0.048996,-0.04442 0.034939,0 0.034613,0.19539 -5.822e-4,0.343487 -0.023234,0.09777 -0.023479,0.09786 -0.066579,0.02425 -0.03452,-0.05897 -0.062226,-0.0696 -0.1371422,-0.05264 -0.051639,0.01169 -0.096023,0.02287 -0.098629,0.02482 -0.00256,0.002 -0.015593,0.0797 -0.028858,0.172716 -0.021977,0.154119 -0.017143,0.172667 0.054388,0.208813 0.068049,0.03438 0.086996,0.02976 0.1423176,-0.03474 0.085401,-0.09958 0.098992,-0.07655 0.073732,0.124876 -0.021382,0.170445 -0.07259,0.223388 -0.1045235,0.108063 z M 3.8892414,18.207762 c 0.00886,-0.06748 0.01245,-0.127055 0.00792,-0.13242 -0.00453,-0.0053 -0.091654,0.01023 -0.1935499,0.03458 l -0.1852612,0.04433 0.1551597,0.08778 c 0.085341,0.04829 0.1651461,0.08793 0.1773523,0.0881 0.012207,1.59e-4 0.029477,-0.05489 0.038385,-0.122366 z M 9.3069915,17.430667 C 9.1466016,17.202572 9.1389652,17.139531 9.281941,17.223841 c 0.055376,0.03264 0.1102418,0.01076 0.3684548,-0.147209 0.1668663,-0.102074 0.281587,-0.185435 0.2549337,-0.185265 -0.026658,1.6e-4 -0.2238479,0.04967 -0.4382146,0.110002 -0.2386832,0.06717 -0.3895138,0.09559 -0.3891318,0.07329 3.669e-4,-0.02003 0.1235888,-0.168891 0.2738787,-0.33082 0.1502892,-0.16193 0.268182,-0.299375 0.2619815,-0.305435 -0.00617,-0.006 -0.1372407,0.06527 -0.2912003,0.158537 -0.2194927,0.132949 -0.2799277,0.186113 -0.2799277,0.246256 0,0.126815 -0.055493,0.11983 -0.1529703,-0.01926 -0.087693,-0.125129 -0.094555,-0.245123 -0.00945,-0.164734 0.065439,0.06179 0.1337107,0.04003 0.4202154,-0.134023 0.3704218,-0.225021 0.3876498,-0.240455 0.3351376,-0.300199 -0.026506,-0.03017 -0.029405,-0.05517 -0.00779,-0.06773 0.032249,-0.01882 0.2465293,0.240613 0.2461942,0.298075 -4.55e-5,0.01474 -0.085831,0.117506 -0.1905458,0.228342 -0.10471,0.110839 -0.190392,0.20849 -0.190392,0.217005 0,0.0085 0.127818,-0.0196 0.2840418,-0.0625 0.1562212,-0.04288 0.2950528,-0.07798 0.3085118,-0.07798 0.04479,0 0.208159,0.294737 0.183907,0.331791 -0.01609,0.02456 -0.03416,0.01908 -0.05544,-0.01683 -0.01736,-0.02928 -0.04525,-0.05327 -0.06196,-0.05327 -0.01671,0 -0.1808352,0.0914 -0.3647135,0.203075 -0.2883063,0.175127 -0.3322109,0.213507 -0.3189845,0.278844 0.027636,0.136485 -0.033551,0.10878 -0.1614753,-0.07318 z m -4.9413378,0.03822 c 0,-0.06518 -0.052256,-0.09895 -0.3551101,-0.22937 -0.1953107,-0.08411 -0.3689817,-0.152765 -0.385935,-0.152558 -0.016958,2.01e-4 -0.049648,0.0247 -0.07266,0.0544 -0.023012,0.02971 -0.051011,0.04001 -0.062226,0.02288 -0.011176,-0.01713 0.040971,-0.153118 0.1159722,-0.302198 0.074989,-0.14908 0.1363522,-0.28123 0.1363522,-0.293665 0,-0.01248 0.023945,-0.05487 0.053199,-0.09433 l 0.053199,-0.07173 0.1546718,0.07096 c 0.085075,0.03903 0.1546715,0.08274 0.1546715,0.09715 0,0.01441 -0.058464,0.02642 -0.1299167,0.02669 -0.1478736,5.71e-4 -0.1799203,0.01642 -0.2618447,0.129458 -0.089173,0.123044 -0.072683,0.161098 0.1001563,0.231054 0.192836,0.07805 0.1756883,0.07836 0.198385,-0.0037 0.011828,-0.04271 -0.00699,-0.09221 -0.050812,-0.133579 -0.1110454,-0.104862 -0.048795,-0.108222 0.194689,-0.01049 0.2503442,0.10048 0.2867614,0.146656 0.1106967,0.140406 -0.2522984,-0.009 -0.2622197,0.09648 -0.019193,0.203963 0.1723667,0.07623 0.1779999,0.07664 0.2248335,0.01616 0.095603,-0.123442 0.093483,-0.01248 -0.00338,0.178923 -0.1046858,0.206803 -0.1557093,0.245954 -0.1557093,0.119458 z m 0.407556,-0.563744 c -0.012313,-0.01155 -0.00396,-0.04901 0.018588,-0.08308 0.036138,-0.05464 0.00581,-0.09518 -0.2571886,-0.343482 -0.26573,-0.250913 -0.3059765,-0.277583 -0.3700335,-0.245213 -0.1662432,0.08403 -0.087428,-0.03619 0.2022704,-0.308462 l 0.30945,-0.290846 0.121839,0.111503 c 0.1400961,0.12821 0.155855,0.181685 0.043882,0.148918 -0.2105496,-0.06162 -0.2377723,-0.05894 -0.3399131,0.03345 -0.055995,0.05065 -0.1018093,0.109059 -0.1018093,0.12979 0,0.02073 0.052733,0.083 0.1171898,0.138386 0.086333,0.07418 0.1273813,0.09106 0.1559014,0.06413 0.048087,-0.04541 0.050428,-0.143622 0.00406,-0.170678 -0.049344,-0.02879 -0.042892,-0.08178 0.010008,-0.08178 0.061434,0 0.38522,0.315048 0.3468147,0.33746 -0.017026,0.01 -0.053607,0.0045 -0.081279,-0.01195 -0.069025,-0.04122 -0.1971358,-0.03867 -0.225388,0.0045 -0.030303,0.04631 0.1880901,0.258879 0.2659687,0.258879 0.076455,0 0.203654,-0.151097 0.2033744,-0.241581 -8.75e-5,-0.03806 -0.022442,-0.109431 -0.049613,-0.158601 -0.076596,-0.13864 -0.010008,-0.134005 0.1385251,0.0097 l 0.1346068,0.130162 -0.3124236,0.295003 C 4.936219,16.793639 4.785556,16.916881 4.7732438,16.905255 Z m 3.7274741,-0.43358 C 8.287153,16.327495 8.2652839,16.28862 8.3968836,16.287048 c 0.085238,-10e-4 0.1298424,-0.04309 0.3201253,-0.301941 0.206357,-0.280717 0.2492938,-0.402575 0.141846,-0.402575 -0.026587,0 -0.026972,-0.01023 -0.00128,-0.03457 0.025702,-0.02426 0.094393,0.0027 0.2306926,0.08996 0.2010755,0.128993 0.2345185,0.196328 0.089989,0.181185 -0.070167,-0.0074 -0.1183725,0.03898 -0.3001208,0.288395 -0.2153653,0.295553 -0.2480419,0.368734 -0.1818862,0.407339 0.040331,0.02353 0.046816,0.08292 0.00861,0.07938 -0.014284,-0.0013 -0.1062007,-0.05654 -0.2042467,-0.122671 z M 8.0864956,16.244374 c -0.020974,-0.01315 -0.09713,-0.193226 -0.1692317,-0.400137 -0.1863374,-0.534694 -0.1926132,-0.543254 -0.2519026,-0.343486 -0.1273374,0.429046 -0.1282047,0.436315 -0.060594,0.506864 0.090048,0.09395 0.054712,0.105234 -0.1498297,0.04788 -0.1646791,-0.04618 -0.2431006,-0.11311 -0.1325173,-0.11311 0.086274,0 0.1609382,-0.118276 0.2479616,-0.3928 0.1028691,-0.324505 0.1048601,-0.356092 0.025959,-0.410569 -0.096372,-0.06654 -0.031689,-0.08543 0.1421796,-0.04153 0.1387359,0.03505 0.1654115,0.056 0.1989629,0.156439 0.1212203,0.362855 0.2179389,0.590513 0.2410912,0.567481 0.025364,-0.02523 0.1365933,-0.355868 0.1365933,-0.406036 0,-0.01345 -0.025237,-0.04827 -0.056088,-0.07741 -0.083676,-0.07902 -0.03403,-0.09657 0.141711,-0.05012 0.1564895,0.04137 0.218414,0.131118 0.090467,0.131118 -0.072963,0 -0.1117324,0.08035 -0.2719534,0.5637 -0.0619,0.18675 -0.1078899,0.277354 -0.132813,0.261706 z M 6.0632537,16.048386 c 0,-0.01367 0.02936,-0.04215 0.06524,-0.06332 0.061725,-0.03642 0.089291,-0.107479 0.2798393,-0.721495 C 6.449957,15.129445 6.50113,15.0264 6.5261202,15.0264 c 0.024306,0 0.1480829,0.198734 0.2750631,0.44163 0.1450031,0.277366 0.2504384,0.441626 0.2834714,0.441626 0.028929,0 0.052592,0.01288 0.052592,0.02849 0,0.03389 -0.4131915,0.08298 -0.4450751,0.05286 -0.012131,-0.01142 0.00513,-0.03517 0.038293,-0.05271 0.055191,-0.02916 0.055866,-0.04005 0.00792,-0.127705 -0.04981,-0.09094 -0.060828,-0.09477 -0.2165309,-0.07514 -0.090233,0.01129 -0.1755064,0.03683 -0.1895051,0.05656 -0.048203,0.0679 -0.026367,0.156515 0.042775,0.17359 0.1017986,0.02513 0.084491,0.06387 -0.038978,0.08716 -0.1470381,0.02777 -0.2728292,0.02575 -0.2728292,-0.0045 z m 0.5793054,-0.414731 c 0.017259,-0.01262 -0.1382295,-0.280114 -0.1628566,-0.280114 -0.014694,0 -0.036067,0.04048 -0.047516,0.08996 -0.011403,0.04948 -0.031095,0.124119 -0.043661,0.165877 -0.021824,0.07255 -0.016886,0.0749 0.1117566,0.05291 0.074035,-0.01262 0.1380475,-0.02554 0.1422645,-0.02863 z"
       id="path828"
       inkscape:connector-curvature="0" />
    <g
       id="g2297"
       transform="matrix(0.00390416,0.01340461,0.01530546,-0.00341928,12.688101,19.741577)"
       style="fill:#ff0000;fill-opacity:1;stroke-width:0.704677">
      <g
         id="g2238"
         style="fill:#ff0000;fill-opacity:1;stroke-width:0.704677">
        <polygon
           points="0,231 33,231 99,148 33,66 0,66 66,148 "
           id="polygon2230"
           style="fill:#ff0000;fill-opacity:1;stroke-width:0.704677" />
        <polygon
           points="50,231 83,231 149,148 83,66 50,66 116,148 "
           id="polygon2232"
           style="fill:#ff0000;fill-opacity:1;stroke-width:0.704677" />
        <polygon
           points="100,231 133,231 199,148 133,66 100,66 166,148 "
           id="polygon2234"
           style="fill:#ff0000;fill-opacity:1;stroke-width:0.704677" />
        <polygon
           points="149,231 231,231 297,148 231,66 149,66 215,148 "
           id="polygon2236"
           style="fill:#ff0000;fill-opacity:1;stroke-width:0.704677" />
      </g>
      <g
         id="g2240"
         style="fill:#ff0000;fill-opacity:1;stroke-width:0.704677" />
      <g
         id="g2242"
         style="fill:#ff0000;fill-opacity:1;stroke-width:0.704677" />
      <g
         id="g2244"
         style="fill:#ff0000;fill-opacity:1;stroke-width:0.704677" />
      <g
         id="g2246"
         style="fill:#ff0000;fill-opacity:1;stroke-width:0.704677" />
      <g
         id="g2248"
         style="fill:#ff0000;fill-opacity:1;stroke-width:0.704677" />
      <g
         id="g2250"
         style="fill:#ff0000;fill-opacity:1;stroke-width:0.704677" />
      <g
         id="g2252"
         style="fill:#ff0000;fill-opacity:1;stroke-width:0.704677" />
      <g
         id="g2254"
         style="fill:#ff0000;fill-opacity:1;stroke-width:0.704677" />
      <g
         id="g2256"
         style="fill:#ff0000;fill-opacity:1;stroke-width:0.704677" />
      <g
         id="g2258"
         style="fill:#ff0000;fill-opacity:1;stroke-width:0.704677" />
      <g
         id="g2260"
         style="fill:#ff0000;fill-opacity:1;stroke-width:0.704677" />
      <g
         id="g2262"
         style="fill:#ff0000;fill-opacity:1;stroke-width:0.704677" />
      <g
         id="g2264"
         style="fill:#ff0000;fill-opacity:1;stroke-width:0.704677" />
      <g
         id="g2266"
         style="fill:#ff0000;fill-opacity:1;stroke-width:0.704677" />
      <g
         id="g2268"
         style="fill:#ff0000;fill-opacity:1;stroke-width:0.704677" />
    </g>
    <text
       xml:space="preserve"
       style="font-size:0.812766px;line-height:1.25;font-family:Cooper;-inkscape-font-specification:Cooper;fill:#007100;fill-opacity:1;stroke-width:0.00671179"
       x="9.804553"
       y="9.0877914"
       id="text2301"
       transform="scale(1.0685531,0.9358449)"><tspan
         sodipodi:role="line"
         id="tspan2299"
         x="9.804553"
         y="9.0877914"
         style="fill:#007100;fill-opacity:1;stroke-width:0.00671179">Donate Online</tspan></text>
    <text
       xml:space="preserve"
       style="font-size:0.816507px;line-height:1.25;font-family:Cooper;-inkscape-font-specification:Cooper;fill:#9b00d6;fill-opacity:1;stroke-width:0.00674269"
       x="1.9162678"
       y="11.113337"
       id="text2305"
       transform="scale(1.0685531,0.9358449)"><tspan
         sodipodi:role="line"
         id="tspan2303"
         x="1.9162678"
         y="11.113337"
         style="fill:#9b00d6;fill-opacity:1;stroke-width:0.00674269">Facebook.com/Wizlights</tspan><tspan
         sodipodi:role="line"
         x="1.9162678"
         y="12.13397"
         style="fill:#9b00d6;fill-opacity:1;stroke-width:0.00674269"
         id="tspan2307" /></text>
    <text
       xml:space="preserve"
       style="font-size:0.810909px;line-height:1.25;font-family:Cooper;-inkscape-font-specification:Cooper;fill:#9b0000;fill-opacity:1;stroke-width:0.00669647"
       x="1.9521507"
       y="10.167056"
       id="text2311"
       transform="scale(1.0685531,0.9358449)"><tspan
         sodipodi:role="line"
         x="1.9521507"
         y="10.167056"
         style="fill:#9b0000;fill-opacity:1;stroke-width:0.00669647"
         id="tspan2327">Facebook.com/SafeAnimalShelter</tspan><tspan
         sodipodi:role="line"
         x="1.9521507"
         y="11.180693"
         style="fill:#9b0000;fill-opacity:1;stroke-width:0.00669647"
         id="tspan2313" /></text>
    <text
       xml:space="preserve"
       style="font-size:0.810909px;line-height:1.25;font-family:Cooper;-inkscape-font-specification:Cooper;fill:#0071d5;fill-opacity:1;stroke-width:0.00669644"
       x="1.8761275"
       y="12.040551"
       id="text2317"
       transform="scale(1.0685531,0.9358449)"><tspan
         sodipodi:role="line"
         id="tspan2315"
         x="1.8761275"
         y="12.040551"
         style="fill:#0071d5;fill-opacity:1;stroke-width:0.00669644">SafeAnimalShelter.com</tspan><tspan
         sodipodi:role="line"
         x="1.8761275"
         y="13.054188"
         style="fill:#0071d5;fill-opacity:1;stroke-width:0.00669644"
         id="tspan2319" /></text>
    <text
       xml:space="preserve"
       id="text2321"
       style="font-size:0.888889px;line-height:1.25;font-family:Cooper;-inkscape-font-specification:Cooper;white-space:pre;shape-inside:url(#rect2323);stroke-width:0.704677;"
       transform="matrix(1.5163721,0,0,1.3280473,-0.16422725,-0.08894399)" />
    <g
       id="g8762"
       transform="matrix(0.19110419,0,0,0.16737014,-69.504754,-185.8057)"
       style="stroke-width:0.704677">
      <path
         sodipodi:nodetypes="cc"
         inkscape:connector-curvature="0"
         id="path4733"
         d="m 376.48671,1207.3178 c 6.20181,-20.0133 40.57418,-21.6178 46.71846,-0.4008"
         style="fill:none;stroke:none;stroke-width:0.253684;stroke-linecap:butt;stroke-linejoin:miter;stroke-miterlimit:4;stroke-dasharray:none;stroke-opacity:1" />
      <text
         y="52.913555"
         x="21.282576"
         id="text7410"
         style="font-style:normal;font-variant:normal;font-weight:normal;font-stretch:normal;font-size:19.1797px;line-height:1.25;font-family:'Brush Script MT';-inkscape-font-specification:'Brush Script MT';letter-spacing:0px;word-spacing:0px;fill:#ff9f00;fill-opacity:1;stroke:none;stroke-width:0.11867;stroke-miterlimit:4;stroke-dasharray:none;stroke-opacity:1"
         xml:space="preserve"><textPath
           id="textPath7445"
           xlink:href="#path7406"
           style="stroke-width:0.11867"><tspan
             id="tspan7408"
             style="fill:#ff9f00;fill-opacity:1;stroke:none;stroke-width:0.11867;stroke-miterlimit:4;stroke-dasharray:none;stroke-opacity:1">Donations</tspan></textPath></text>
    </g>
    <text
       xml:space="preserve"
       style="font-size:0.812766px;line-height:1.25;font-family:Cooper;-inkscape-font-specification:Cooper;fill:#007100;fill-opacity:1;stroke-width:0.00671179"
       x="2.160198"
       y="0.83996129"
       id="text2301-6"
       transform="scale(1.0685531,0.9358449)"><tspan
         sodipodi:role="line"
         id="tspan2299-6"
         x="2.160198"
         y="0.83996129"
         style="fill:#007100;fill-opacity:1;stroke-width:0.00671179">Donate by Phone</tspan></text>
    <text
       xml:space="preserve"
       style="font-size:1.26141px;line-height:1.25;font-family:Cooper;-inkscape-font-specification:Cooper;fill:#ff0000;fill-opacity:1;stroke-width:0.0104167"
       x="12.410378"
       y="19.699095"
       id="text2367"
       transform="scale(1.0685531,0.9358449)"><tspan
         sodipodi:role="line"
         id="tspan2365"
         x="12.410378"
         y="19.699095"
         style="fill:#ff0000;fill-opacity:1;stroke-width:0.0104167">Ca$h</tspan></text>
  </g>
</svg>
