<?xml version="1.0" encoding="UTF-8" standalone="no"?>
<svg
   xmlns:dc="http://purl.org/dc/elements/1.1/"
   xmlns:cc="http://creativecommons.org/ns#"
   xmlns:rdf="http://www.w3.org/1999/02/22-rdf-syntax-ns#"
   xmlns:svg="http://www.w3.org/2000/svg"
   xmlns="http://www.w3.org/2000/svg"
   xmlns:sodipodi="http://sodipodi.sourceforge.net/DTD/sodipodi-0.dtd"
   xmlns:inkscape="http://www.inkscape.org/namespaces/inkscape"
   width="18in"
   height="24in"
   viewBox="0 0 18 24"
   version="1.1"
   id="svg8"
   inkscape:version="1.0.1 (3bc2e813f5, 2020-09-07)"
   sodipodi:docname="Donation Post Sign Bigger Left (Draft 3).svg">
  <defs
     id="defs2">
    <rect
       x="-3.4953704"
       y="3.0324073"
       width="5.1388888"
       height="1.8055556"
       id="rect2323" />
    <path
       sodipodi:nodetypes="cc"
       inkscape:connector-curvature="0"
       id="path7406"
       d="m 376.48671,1207.3178 c 6.20181,-20.0133 40.57418,-21.6178 46.71846,-0.4008"
       style="fill:none;stroke:none;stroke-width:0.36;stroke-linecap:butt;stroke-linejoin:miter;stroke-miterlimit:4;stroke-dasharray:none;stroke-opacity:1" />
  </defs>
  <sodipodi:namedview
     id="base"
     pagecolor="#ffffff"
     bordercolor="#666666"
     borderopacity="1.0"
     inkscape:pageopacity="0.0"
     inkscape:pageshadow="2"
     inkscape:zoom="0.2799099"
     inkscape:cx="1133.982"
     inkscape:cy="1164.601"
     inkscape:document-units="in"
     inkscape:current-layer="layer1"
     inkscape:document-rotation="0"
     showgrid="true"
     units="in"
     inkscape:snap-global="false"
     inkscape:window-width="1920"
     inkscape:window-height="1017"
     inkscape:window-x="-8"
     inkscape:window-y="-8"
     inkscape:window-maximized="1"
     inkscape:snap-nodes="true"
     inkscape:snap-others="false"
     inkscape:snap-smooth-nodes="true"
     inkscape:object-paths="true"
     inkscape:snap-intersection-paths="true"
     inkscape:snap-grids="false"
     inkscape:snap-to-guides="false"
     showguides="false"
     inkscape:guide-bbox="true">
    <inkscape:grid
       type="xygrid"
       id="grid849"
       units="in"
       spacingx="0.25"
       spacingy="0.25"
       empspacing="4" />
    <sodipodi:guide
       position="-2.3399017,4.3197556"
       orientation="1,0"
       id="guide918" />
  </sodipodi:namedview>
  <metadata
     id="metadata5">
    <rdf:RDF>
      <cc:Work
         rdf:about="">
        <dc:format>image/svg+xml</dc:format>
        <dc:type
           rdf:resource="http://purl.org/dc/dcmitype/StillImage" />
        <dc:title></dc:title>
        <dc:creator>
          <cc:Agent>
            <dc:title>Doctor Wizard</dc:title>
          </cc:Agent>
        </dc:creator>
        <dc:rights>
          <cc:Agent>
            <dc:title>Copyright 2021+ by Doctor Wizard</dc:title>
          </cc:Agent>
        </dc:rights>
        <dc:publisher>
          <cc:Agent>
            <dc:title>Doctor Wizard</dc:title>
          </cc:Agent>
        </dc:publisher>
        <dc:source>Doctor Wizard</dc:source>
        <dc:contributor>
          <cc:Agent>
            <dc:title>Doctor Wizard</dc:title>
          </cc:Agent>
        </dc:contributor>
      </cc:Work>
    </rdf:RDF>
  </metadata>
  <g
     inkscape:label="Layer 1"
     inkscape:groupmode="layer"
     id="layer1">
    <path
       id="path877"
       style="font-style:normal;font-variant:normal;font-weight:normal;font-stretch:normal;font-size:19.1797px;line-height:1.25;font-family:'Brush Script MT';-inkscape-font-specification:'Brush Script MT';letter-spacing:0px;word-spacing:0px;fill:#ff9f00;fill-opacity:1;stroke:none;stroke-width:0.0212235;stroke-miterlimit:4;stroke-dasharray:none;stroke-opacity:1"
       d="m 6.8855038,11.411024 v 1.2e-5 l 2.7e-5,1.2e-5 c -0.04164,0.0019 -0.08134,0.01473 -0.11906,0.03834 -0.05015,0.03055 -0.109359,0.08637 -0.177621,0.167428 l -0.067153,-0.0082 1.35e-5,3.64e-4 c -0.080187,-0.0098 -0.1433678,-0.01285 -0.1895216,-0.0091 -0.044981,0.003 -0.084945,0.01498 -0.1198995,0.03612 -0.03391,0.02124 -0.071892,0.05567 -0.1139647,0.10322 -0.051774,0.05579 -0.079943,0.09894 -0.084481,0.129447 -8.044e-4,0.0052 8.685e-4,0.0083 0.00502,0.0091 0.00417,9.2e-5 0.011644,-5.65e-4 0.022471,-0.002 0.012009,-0.0022 0.024456,-0.0039 0.037358,-0.0053 0.031303,-0.0036 0.077669,-0.0017 0.1391127,0.0057 0.018747,0.0024 0.034815,0.0048 0.048227,0.0072 0.01355,0.0017 0.028039,0.0041 0.043522,0.0068 -0.1790363,0.178743 -0.3281394,0.302714 -0.4474944,0.372243 l -0.00176,-0.01823 c -0.1443861,0.132732 -0.2532211,0.201655 -0.3264898,0.206785 -0.07118,0.005 -0.1100348,-0.027 -0.1165739,-0.09586 -0.00398,-0.04188 0.00261,-0.07791 0.019743,-0.108141 0.018192,-0.0303 0.049547,-0.07744 0.094046,-0.141426 0.045463,-0.06499 0.06713,-0.108637 0.065,-0.130959 -0.00106,-0.01117 -0.00545,-0.02352 -0.013002,-0.03704 -0.00769,-0.01446 -0.018401,-0.0329 -0.032123,-0.05537 -0.013729,-0.02246 -0.024964,-0.04088 -0.033706,-0.05527 0.035576,-0.01376 0.060336,-0.02484 0.074288,-0.03327 0.013818,-0.0094 0.019951,-0.02247 0.018399,-0.03922 -9.499e-4,-0.01024 -0.00823,-0.02566 -0.02178,-0.04626 -0.012503,-0.02068 -0.028926,-0.03828 -0.049267,-0.05279 -0.020431,-0.01545 -0.041639,-0.02239 -0.063626,-0.02084 l -2.87e-5,-3.4e-5 c -0.081644,0.0056 -0.1943377,0.04491 -0.3380967,0.117678 -0.143761,0.07277 -0.2890902,0.178904 -0.4359951,0.318393 -0.054894,0.05441 -0.094491,0.0979 -0.1187881,0.130498 -0.024298,0.0326 -0.039724,0.06413 -0.046316,0.09456 -0.00228,0.01004 -0.00389,0.02096 -0.00493,0.03265 -0.066018,0.09112 -0.1166083,0.157283 -0.1507247,0.196772 -0.035266,0.04041 -0.06727,0.06496 -0.096038,0.07368 -0.034722,0.01056 -0.059531,-0.0031 -0.074388,-0.04112 -0.026615,-0.06801 0.013526,-0.215132 0.1203866,-0.441336 l 7.08e-5,4.6e-5 c 0.027111,-0.05272 0.03686,-0.08879 0.029263,-0.108223 -0.015549,-0.03975 -0.038859,-0.07664 -0.069937,-0.110674 -0.030082,-0.03431 -0.053055,-0.04906 -0.068928,-0.04426 -0.034722,0.01055 -0.071984,0.04016 -0.1117733,0.08883 -0.072468,0.08431 -0.1341508,0.167808 -0.1850518,0.250497 -0.049908,0.08239 -0.091267,0.159683 -0.1240551,0.231911 -0.032145,0.07106 -0.058831,0.129089 -0.080076,0.174089 -0.020596,0.04387 -0.036845,0.06759 -0.048755,0.07116 -0.018852,0.0057 -0.033296,-0.0042 -0.043307,-0.02981 -0.017969,-0.04592 0.021189,-0.17 0.1174493,-0.372233 0.014807,-0.0302 0.024137,-0.05032 0.027992,-0.0604 0.00478,-0.01036 0.00829,-0.02132 0.010468,-0.03283 0.00211,-0.01147 0.00143,-0.02165 -0.00198,-0.03053 -0.00795,-0.02032 -0.023735,-0.03233 -0.04738,-0.03601 -0.022652,-0.0041 -0.049859,-0.0012 -0.081602,0.0085 -0.045629,0.01388 -0.084606,0.05044 -0.1169297,0.109691 -0.032669,0.05836 -0.064914,0.144757 -0.096733,0.259192 -0.017009,0.06151 -0.026597,0.107917 -0.028786,0.139224 -0.00103,0.02705 0.00566,0.0608 0.019977,0.101249 l -0.016635,-0.02269 -2.8e-5,-1.2e-5 c -0.01973,0.04814 -0.032425,0.07943 -0.038105,0.09385 -0.00627,0.01364 -0.01426,0.02827 -0.024035,0.04394 -0.00947,0.01432 -0.021684,0.02582 -0.036622,0.03447 l -0.019797,0.01141 -0.039253,-0.0075 c -0.00252,-0.06993 -0.01506,-0.139085 -0.03767,-0.207469 -0.021736,-0.06889 -0.046392,-0.122149 -0.073983,-0.159799 -0.028167,-0.03846 -0.053594,-0.06118 -0.076249,-0.06819 -0.02323,-0.0078 -0.053825,-0.0053 -0.091841,0.0077 0.00526,-0.03204 0.00216,-0.05591 -0.00931,-0.07159 -0.014945,-0.02041 -0.038296,-0.02925 -0.070087,-0.02656 -0.032364,0.002 -0.069203,0.01473 -0.1105274,0.03852 -0.058038,0.03339 -0.1088252,0.08604 -0.1523861,0.157934 -0.044139,0.07111 -0.076557,0.150539 -0.097259,0.238276 -0.020387,0.08644 -0.027083,0.171134 -0.020065,0.254062 0.00791,0.08243 0.030264,0.148746 0.067046,0.198939 0.045415,0.06196 0.098368,0.111209 0.1588933,0.147736 0.06141,0.03606 0.1229698,0.05693 0.1846791,0.06264 0.06171,0.0058 0.1171802,-0.0056 0.1664194,-0.03389 0.087045,-0.05008 0.1434802,-0.168406 0.1692618,-0.354964 0.068242,-0.03482 0.1141943,-0.07018 0.1378699,-0.106101 0.021326,-0.03236 0.042577,-0.08295 0.063793,-0.151445 0.026168,0.0517 0.057358,0.09619 0.093671,0.133299 0.049937,0.05106 0.090782,0.07174 0.1225259,0.06206 0.02083,-0.0063 0.03772,-0.02136 0.050646,-0.04506 0.013574,-0.02488 0.031976,-0.07001 0.055239,-0.135394 0.023905,-0.06657 0.046905,-0.126934 0.069006,-0.181095 0.021755,-0.05505 0.051077,-0.114872 0.087968,-0.179456 0.055591,-0.101905 0.1066585,-0.174262 0.1531797,-0.217073 -0.019323,0.08396 -0.035967,0.159186 -0.049909,0.225693 -0.014282,0.06562 -0.024466,0.116161 -0.030575,0.151624 -0.00551,0.03428 -0.00789,0.06662 -0.00704,0.097 7.771e-4,0.0304 0.00669,0.05973 0.01778,0.08798 0.03732,0.09539 0.096645,0.130726 0.1779887,0.105977 0.047615,-0.01448 0.098405,-0.06058 0.15237,-0.138268 0.047158,-0.06788 0.109057,-0.169681 0.1856278,-0.305384 0.0096,0.03844 0.024624,0.07569 0.045331,0.111745 0.032523,0.05394 0.067738,0.09739 0.1056394,0.130332 0.0379,0.03292 0.068356,0.0486 0.091384,0.04702 0.048153,-0.0034 0.1063807,-0.03927 0.1746879,-0.107714 0.068222,-0.06936 0.1715774,-0.184746 0.3100823,-0.346127 -0.046404,0.143732 -0.066111,0.252351 -0.059136,0.325855 0.00447,0.04653 0.016111,0.08085 0.035069,0.102934 0.020088,0.02292 0.050551,0.03299 0.091371,0.03015 0.1093462,-0.0076 0.2766847,-0.140496 0.5016691,-0.397926 0.012612,-0.0077 0.025171,-0.01508 0.037664,-0.02206 0.014015,-0.0086 0.026833,-0.01643 0.038481,-0.02351 0.012833,-0.0079 0.026265,-0.01608 0.040274,-0.0247 0.015192,-0.0094 0.030903,-0.01882 0.047121,-0.02811 -0.055829,0.09011 -0.095595,0.157722 -0.1192743,0.202823 -0.022635,0.04524 -0.036501,0.08498 -0.041582,0.119178 -0.00755,0.05085 2.947e-4,0.09418 0.023625,0.129991 0.024338,0.03588 0.059943,0.05672 0.1068064,0.06252 0.1257797,0.01543 0.3335908,-0.07998 0.6234181,-0.286208 -0.02056,0.07529 -0.02544,0.149599 -0.01458,0.222922 0.01304,0.08783 0.06066,0.143425 0.142855,0.166774 0.05914,0.01681 0.140699,0.0092 0.244702,-0.02288 0.0882,-0.02788 0.188053,-0.07402 0.299275,-0.137991 -0.01493,0.03515 -0.02512,0.0704 -0.03022,0.105768 -0.0083,0.06472 -0.0013,0.122856 0.02085,0.174401 0.02225,0.05155 0.05879,0.09059 0.109655,0.117121 0.08992,0.04692 0.234554,0.03926 0.433907,-0.02296 0.066,0.03874 0.122444,0.05956 0.16933,0.06244 0.03854,0.0023 0.09243,-0.002 0.161191,-0.01315 -0.01092,0.01497 -0.0207,0.03011 -0.02928,0.04542 -0.03372,0.06021 -0.03941,0.10153 -0.01707,0.123969 0.01466,0.01479 0.03682,0.02299 0.06649,0.02462 0.03113,0.0019 0.08523,-3.3e-5 0.162249,-0.0056 0.07852,-0.005 0.150236,-0.0088 0.215121,-0.01143 0.06569,-0.0028 0.139275,-0.0013 0.220757,0.0047 0.127541,0.0073 0.222614,0.02201 0.285172,0.0441 -0.09482,0.01572 -0.179538,0.03038 -0.254118,0.04395 -0.07379,0.01293 -0.13031,0.02358 -0.16956,0.03195 -0.03777,0.0084 -0.07233,0.01866 -0.103632,0.03074 -0.03131,0.01209 -0.05952,0.02801 -0.08463,0.04772 -0.08476,0.06654 -0.09851,0.128563 -0.04126,0.186045 0.03351,0.03365 0.10114,0.05802 0.202863,0.07309 0.09886,0.01466 0.248827,0.02847 0.449028,0.04141 -0.02873,0.0134 -0.05297,0.0266 -0.07258,0.03958 -0.03768,0.02607 -0.07016,0.06796 -0.09743,0.125653 -0.04476,0.09757 -0.04793,0.18687 -0.0096,0.267913 0.02981,0.06293 0.09629,0.126485 0.199483,0.190671 0.104153,0.06382 0.242855,0.128553 0.416103,0.194193 l 0.09727,-0.03592 c -0.08018,-0.03723 -0.147424,-0.07114 -0.201717,-0.101724 -0.05292,-0.03008 -0.09933,-0.06208 -0.139254,-0.09593 -0.03854,-0.03335 -0.0662,-0.06771 -0.08295,-0.103071 -0.0085,-0.0181 -0.01732,-0.04374 -0.02621,-0.07692 0.09288,0.05685 0.177594,0.100019 0.254101,0.129477 0.07747,0.02911 0.151374,0.04587 0.221694,0.05026 0.07129,0.004 0.138863,-0.0058 0.202739,-0.02933 0.04258,-0.01575 0.07917,-0.03333 0.1097826,-0.05274 0.03061,-0.01941 0.06753,-0.04469 0.1107588,-0.07588 0.04461,-0.03071 0.07612,-0.04944 0.09451,-0.05618 0.02131,-0.0075 0.03857,-0.01181 0.0518,-0.01313 l 0.0239,-0.01795 c 0.0017,-0.02499 -0.0016,-0.04652 -0.01012,-0.06462 -0.0343,-0.07242 -0.115471,-0.09612 -0.2434968,-0.0711 -0.3000536,-0.174695 -0.7327086,-0.228538 -0.8004916,-0.265918 -0.130338,-0.02133 -0.224081,-0.03891 -0.281226,-0.05277 -0.05567,-0.01377 -0.09363,-0.03081 -0.113878,-0.05115 -0.02444,-0.02455 -0.01978,-0.05004 0.01397,-0.07653 0.06044,-0.04739 0.229008,-0.06981 0.505715,-0.06726 l -4e-6,-9.7e-5 c 0.06533,0.0024 0.106647,-0.0033 0.123909,-0.01673 0.03532,-0.02771 0.06466,-0.06076 0.08802,-0.0991 0.02406,-0.03764 0.0305,-0.06205 0.01932,-0.07326 -0.02444,-0.02455 -0.06966,-0.04399 -0.135711,-0.05834 -0.115773,-0.02778 -0.226523,-0.04701 -0.332256,-0.05769 -0.105035,-0.01 -0.201488,-0.01483 -0.289335,-0.01456 -0.08636,4.03e-4 -0.157066,3.05e-4 -0.212107,-1.95e-4 -0.05356,-4.73e-4 -0.08452,-0.005 -0.0929,-0.01325 -0.01327,-0.01331 -0.0085,-0.02892 0.01425,-0.0468 0.04081,-0.03201 0.185045,-0.04656 0.432704,-0.04365 0.03715,4.93e-4 0.06173,5.94e-4 0.07368,1.74e-4 0.01265,7.7e-5 0.02538,-0.0013 0.0382,-0.0037 0.01282,-0.0025 0.02315,-0.0069 0.03101,-0.01305 0.01806,-0.01417 0.02441,-0.03166 0.01908,-0.05248 -0.0046,-0.02009 -0.01811,-0.04135 -0.04046,-0.06379 -0.03212,-0.0323 -0.08525,-0.05053 -0.159396,-0.05472 -0.07337,-0.0049 -0.175743,0.0011 -0.307113,0.01809 -0.07057,0.0091 -0.122568,0.01874 -0.155971,0.02877 -0.0327,0.01068 -0.07063,0.03297 -0.11379,0.06687 -0.01723,0.01354 -0.03335,0.02722 -0.04838,0.04107 -0.03978,0.004 -0.07608,0.0077 -0.08982,0.0091 -0.01657,7.79e-4 -0.03493,6.12e-4 -0.05513,-1.02e-4 -0.01875,-0.0011 -0.03586,-0.0057 -0.05129,-0.01381 l -0.02042,-0.01069 -0.01028,-0.03452 c 0.0692,-0.03298 0.133058,-0.07362 0.191571,-0.121896 0.05941,-0.04779 0.101798,-0.091 0.127131,-0.129591 0.02586,-0.0394 0.03717,-0.06965 0.03397,-0.09075 -0.0026,-0.02191 -0.01916,-0.04509 -0.04946,-0.06952 0.03462,-0.01001 0.0572,-0.02305 0.06775,-0.03913 0.01372,-0.02092 0.01201,-0.04339 -0.0051,-0.06743 -0.01661,-0.02483 -0.04626,-0.04839 -0.08895,-0.07066 -0.05994,-0.03123 -0.135955,-0.04823 -0.228059,-0.05099 -0.09157,-0.0035 -0.18618,0.006 -0.28383,0.0284 -0.09621,0.02212 -0.184449,0.05437 -0.264672,0.09671 -0.05712,0.03083 -0.102361,0.06392 -0.135865,0.09924 -0.106327,0.03858 -0.19214,0.06511 -0.256918,0.07926 -0.06682,0.01428 -0.123783,0.01473 -0.170889,0.0014 -0.0431,-0.01223 -0.07439,-0.03287 -0.09391,-0.0619 -0.01952,-0.02903 -0.02361,-0.05953 -0.01229,-0.09152 0.0132,-0.03733 0.03804,-0.06698 0.07447,-0.08891 0.03744,-0.02164 0.112945,-0.05741 0.226558,-0.107277 0.0402,-0.01695 0.09053,-0.05009 0.151008,-0.09942 0.06149,-0.04905 0.09724,-0.08779 0.107301,-0.116233 0.01478,-0.04178 -0.0083,-0.07134 -0.06953,-0.08874 -0.118267,-0.0336 -0.283331,0.0276 -0.495155,0.183585 -0.04549,0.03502 -0.07734,0.06116 -0.09561,0.07847 -0.01826,0.01732 -0.03706,0.04083 -0.0564,0.07056 -0.0034,0.0051 -0.0065,0.01039 -0.0096,0.01568 -0.1077244,0.05796 -0.1952215,0.101581 -0.2606841,0.129546 -0.069027,0.02919 -0.1233244,0.04135 -0.1628979,0.03647 -0.057271,-0.0071 -0.081156,-0.04245 -0.071665,-0.106226 0.00698,-0.04715 0.024313,-0.09586 0.051947,-0.146135 0.028666,-0.05015 0.066409,-0.104357 0.1132558,-0.162623 0.048016,-0.05907 0.1061413,-0.125355 0.1743453,-0.198891 0.028876,0.0053 0.053081,0.01025 0.07259,0.01455 0.02069,0.0034 0.04081,0.0073 0.06032,0.01163 0.01965,0.0033 0.0439,0.0077 0.07278,0.01318 0.10483,-0.09162 0.194229,-0.18281 0.268169,-0.273533 -0.01534,-0.0037 -0.03689,-0.0086 -0.0646,-0.01498 -0.02666,-0.0061 -0.05742,-0.01311 -0.09228,-0.0212 0.02786,-0.03047 0.06785,-0.06747 0.119918,-0.110971 0.05206,-0.0435 0.07891,-0.07081 0.08057,-0.08191 0.0035,-0.02312 -0.02347,-0.03818 -0.08075,-0.0452 -0.01432,-0.0018 -0.02843,-0.0023 -0.04231,-0.0017 z m -1.4469057,0.453912 c -0.1125862,0.168005 -0.2099779,0.30172 -0.2922061,0.401118 -0.082315,0.09845 -0.1757045,0.180345 -0.2801301,0.245694 -0.028084,0.01459 -0.04788,0.02253 -0.059368,0.02381 -0.019894,0.0015 -0.03647,-0.0069 -0.049755,-0.02463 -0.013367,-0.01874 -0.021453,-0.043 -0.024288,-0.07277 -0.00776,-0.08189 0.042221,-0.165467 0.1500234,-0.250716 0.1088511,-0.08532 0.2940978,-0.192826 0.5557286,-0.322507 z M 1.4266586,12.35714 c -0.041356,0.0016 -0.082018,0.0068 -0.1220188,0.01573 -0.092315,0.0199 -0.1813874,0.05944 -0.2672129,0.118621 -0.085826,0.05919 -0.16206898,0.134463 -0.22870734,0.225856 -0.06493,0.08905 -0.1196685,0.185667 -0.1642401,0.289835 -0.044577,0.104167 -0.079326,0.203458 -0.1042473,0.297884 -0.025233,0.09314 -0.042836,0.18013 -0.052844,0.260986 -0.010327,0.07956 -0.013109,0.140166 -0.00833,0.181804 0.011923,0.102428 0.092908,0.197064 0.2429578,0.283894 0.058253,0.03375 0.10190506,0.0307 0.13095286,-0.0091 0.00912,-0.01249 0.016844,-0.02912 0.023197,-0.04988 0.00552,-0.02127 0.012732,-0.05706 0.021801,-0.107354 0.00876,-0.05159 0.018562,-0.100341 0.029443,-0.146246 0.010564,-0.04721 0.026695,-0.101189 0.048401,-0.16194 -0.03272,0.0466 -0.064593,0.101496 -0.095579,0.164656 -0.030404,0.06239 -0.048163,0.09708 -0.053306,0.10409 -0.00741,0.01014 -0.014206,0.01345 -0.020372,0.0099 l -8.82e-5,-1.56e-4 c -0.00966,-0.0056 -0.010424,-0.03554 -0.00236,-0.0897 0.00812,-0.05417 0.022198,-0.118222 0.042221,-0.19216 0.020029,-0.07395 0.044824,-0.150132 0.074386,-0.228551 0.028678,-0.07892 0.059993,-0.148549 0.093941,-0.208882 0.2238667,0.526091 0.4355602,0.926857 0.6351072,1.202275 0.029523,0.04042 0.05763,0.07332 0.084279,0.09874 0.026649,0.02542 0.06513,0.0527 0.1154388,0.0818 0.040602,0.02348 0.073612,0.03758 0.099042,0.04233 0.02631,0.0052 0.048969,0.0016 0.067996,-0.0107 0.019591,-0.0131 0.039921,-0.03411 0.060991,-0.06301 0.1127735,-0.154667 0.1959159,-0.329817 0.2494368,-0.525443 0.053522,-0.195617 0.07301,-0.38758 0.058483,-0.575927 C 2.3705904,13.176858 2.3206264,13.003532 2.2355358,12.846549 2.1510118,12.688784 2.034173,12.566735 1.8850035,12.48041 1.7870325,12.42371 1.688514,12.38671 1.5894566,12.369374 c -0.055395,-0.01021 -0.109695,-0.01423 -0.1628618,-0.01225 z m 1.4885091,0.193019 c 0.00404,0.09246 0.013564,0.171145 0.028635,0.236057 0.014498,0.06414 0.039865,0.120917 0.076074,0.170327 0.02471,0.03371 0.058065,0.06471 0.1000265,0.09296 -0.046264,0.109135 -0.088313,0.174595 -0.1261228,0.196357 -0.08089,0.04661 -0.1403,0.04401 -0.1782342,-0.0077 -0.0052,-0.007 -0.028963,-0.06085 -0.071359,-0.161326 -0.011856,-0.04002 -0.011536,-0.08646 9.851e-4,-0.13937 0.011913,-0.05368 0.03231,-0.11115 0.061191,-0.17237 0.028308,-0.06201 0.06457,-0.133611 0.1088042,-0.214816 z m -1.2804242,0.03552 c 0.078937,-8.92e-4 0.1576652,0.02133 0.2361714,0.06677 0.1068011,0.0618 0.1864008,0.152294 0.2388085,0.271484 0.052408,0.11918 0.079299,0.25359 0.080655,0.403212 0.00193,0.148847 -0.018346,0.29541 -0.060788,0.43968 -0.043324,0.143763 -0.1037102,0.268753 -0.1811695,0.374991 -0.030186,0.0414 -0.057949,0.07088 -0.083297,0.08842 -0.025656,0.01619 -0.049963,0.01765 -0.072908,0.0043 -0.010592,-0.0062 -0.023766,-0.0182 -0.039505,-0.03619 -0.015746,-0.018 -0.032898,-0.04181 -0.051456,-0.07144 -0.017994,-0.03039 -0.030896,-0.05228 -0.038695,-0.06569 -0.00779,-0.01339 -0.023363,-0.03852 -0.046709,-0.07534 -0.073053,-0.11669 -0.130927,-0.214607 -0.17363,-0.293737 -0.042704,-0.07914 -0.091192,-0.172725 -0.1454544,-0.280771 -0.054265,-0.108043 -0.092925,-0.181525 -0.1160116,-0.220428 -0.023408,-0.0402 -0.045273,-0.06619 -0.065571,-0.07793 -0.013235,-0.0077 -0.029812,-0.01505 -0.049745,-0.02211 -0.020768,-0.0075 -0.032033,-0.01185 -0.033836,-0.0129 0.035135,-0.05852 0.075758,-0.119396 0.1218788,-0.182652 0.1099252,-0.150769 0.2267448,-0.246433 0.350465,-0.287025 0.038385,-0.01284 0.076736,-0.02025 0.115022,-0.02218 l -1.46e-5,-1.1e-5 c 0.00525,-2.69e-4 0.010525,-4.49e-4 0.015787,-4.88e-4 z m 6.3989993,0.01003 c 0.01691,-4.6e-4 0.03428,-9.29e-4 0.05212,-0.0013 l -4e-6,-7.2e-5 c 0.02377,-4.96e-4 0.04838,-7.7e-4 0.0738,-10e-4 -0.09116,0.04418 -0.165992,0.08666 -0.224434,0.1274 -0.05793,0.03995 -0.103501,0.08523 -0.136752,0.135878 -0.0227,0.03458 -0.03871,0.0748 -0.04809,0.120644 -0.130788,0.01166 -0.215707,0.0073 -0.254762,-0.01308 -0.08356,-0.0436 -0.107909,-0.09194 -0.07308,-0.144999 0.0048,-0.0073 0.04805,-0.04999 0.129866,-0.1282 0.03487,-0.02714 0.08174,-0.04746 0.140623,-0.06101 0.05941,-0.01438 0.12647,-0.02364 0.201169,-0.02781 0.04232,-0.0028 0.08883,-0.005 0.139541,-0.0065 z m 1.192997,1.292542 c 0.275484,0.10383 0.459763,0.169954 0.552827,0.198366 l -0.200926,0.101606 -1.3e-5,1.2e-5 c -0.0073,0.0036 -0.01487,0.007 -0.02261,0.0098 -0.0073,0.0037 -0.01584,0.0075 -0.02553,0.01098 -0.0813,0.03004 -0.153215,0.03785 -0.215748,0.02348 -0.06116,-0.01387 -0.119166,-0.0451 -0.174035,-0.09371 0.04464,-0.05701 0.07311,-0.09894 0.08542,-0.125772 0.01232,-0.02682 0.01252,-0.06842 5.74e-4,-0.124793 z"
       sodipodi:nodetypes="ccccccccccccccccccccscccccccsccccscsccccccccccccccccccccccccccccccccccccccccccccccccscccscccccccccccccccccccccccccccccsccccccccccccccccccccsccccccccccsccccccccccccccccccccccccccccsccccccsccccccccccscccccccccscccscccccccccccccccccccsccccccccccccccscccccscccccccccccccccccccccscccccsccccccccccsccsccscscccccccscccccccccccccccccccccccccccccc" />
    <path
       style="fill:#000000;stroke-width:0.00246116"
       d="m 1.0173737,10.727316 -0.012112,-0.0054 -0.010819,-0.01156 -0.010819,-0.01156 -0.00426,-0.01134 -0.00426,-0.01134 6.7e-6,-1.2032401 6.3e-6,-1.2032424 0.0071,-0.013815 0.0071,-0.013815 0.015484,-0.012391 0.015484,-0.012391 1.2082886,-0.00109 1.208287,-0.00109 0.014977,0.00764 0.014993,0.00764 0.00656,0.00743 0.00656,0.00743 0.00656,0.012882 0.00656,0.012882 v 1.2024416 1.2024319 l -0.00426,0.01134 -0.00426,0.01134 -0.010819,0.01156 -0.010819,0.01156 -0.01298,0.0055 -0.01298,0.0056 -1.2035949,-1.59e-4 -1.2036333,-1.58e-4 -0.012112,-0.0054 z m 2.0905092,-0.356749 0.010361,-0.0039 0.00809,-0.01318 0.00809,-0.01318 1.21e-5,-0.8653111 1.1e-5,-0.8653131 -0.00611,-0.011818 -0.00611,-0.011818 -0.011883,-0.00611 -0.011883,-0.00611 -0.8702043,0.00109 -0.8702029,0.00109 -0.011163,0.011196 -0.011196,0.011163 v 0.8756553 0.8756759 l 0.00809,0.009 0.00809,0.009 0.00809,0.0033 0.00809,0.0033 0.8648503,3.14e-4 0.8648499,3.14e-4 0.010361,-0.0039 z m -1.3631813,-0.359829 -0.013913,-0.0045 -0.014568,-0.014568 -0.014568,-0.014568 -0.00491,-0.017843 -0.00491,-0.017843 0.00109,-0.4753585 0.00109,-0.4753595 0.01005,-0.017517 0.01005,-0.017516 0.018169,-0.010705 0.018169,-0.010705 H 2.229842 2.7092296 l 0.011016,0.00304 0.011016,0.00304 0.014371,0.012636 0.014371,0.01262 0.00687,0.012473 0.00687,0.012473 0.0012,0.46126 0.00131,0.4612592 -0.0025,0.024803 -0.0025,0.024804 -0.010476,0.016123 -0.010476,0.016123 -0.016456,0.00938 -0.016456,0.0094 -0.4793877,6.27e-4 -0.4793853,6.28e-4 z M 3.8554265,9.8326658 V 8.9323044 H 4.2159756 4.5765211 V 8.7530385 8.5737725 H 4.7557872 4.9350531 V 8.3945043 8.2152382 H 5.2956022 5.6561479 V 8.3945043 8.5737725 H 5.4748694 5.2935891 v 0.1792251 0.1792253 l 0.1802722,0.00109 0.1802722,0.00109 0.00109,0.3595395 0.00109,0.3595409 H 5.8355616 6.0148072 V 9.4742198 9.2949537 H 6.3753577 6.7359051 V 8.5738165 7.8526804 l -0.180274,0.00109 -0.180272,0.00109 -0.00109,0.3595396 -0.00109,0.3595409 H 6.1939282 6.0146831 V 8.213425 7.8528771 H 5.6541376 5.2935898 V 7.4943432 7.1358106 h 0.1812803 0.1812803 v 0.1792661 0.179266 H 6.375231 7.0943111 V 7.1337954 6.7732489 H 6.9150451 6.7357811 V 6.5939807 6.4147146 H 6.5565131 6.3772474 V 6.2334343 6.0521521 h 0.1792657 0.179268 V 5.872886 5.6936219 H 6.0146831 5.2935898 v 0.3605457 0.3605487 h 0.1812803 0.1812783 v 0.179266 0.1792682 h 0.1792661 0.179266 V 6.5939823 6.4147163 h 0.179268 0.1792661 V 6.7732489 7.1317815 H 6.0146831 5.6561494 V 6.9525154 6.7732494 H 5.4748711 5.2935907 V 6.5939813 6.4147153 h -0.179266 -0.179268 v 0.179266 0.1792681 H 4.7557906 4.5765246 V 6.5939813 6.4147153 h 0.179266 0.1792661 V 6.2333923 6.0520691 l -0.1802722,0.00109 -0.1802743,0.00109 -0.00109,0.1802742 -0.00109,0.1802743 H 3.8532837 3.1342435 V 6.2335212 6.0522393 H 2.9549767 2.7757108 V 5.8729857 5.6937209 H 2.5944169 2.4131359 V 5.51244 5.331159 H 2.2338689 2.0546022 V 5.1518912 4.9726241 H 1.5147885 0.97497401 V 4.7933563 4.6140922 H 1.8753353 2.7756979 v 0.5398124 0.539816 H 2.9549637 3.1342298 V 5.5144749 5.3352293 l 0.359541,-0.00109 0.3595407,-0.00109 0.00109,-0.1802742 0.00109,-0.1802741 H 3.4949215 3.1343309 V 4.7932304 4.6139663 h 0.9003628 0.9003612 v 0.1792232 0.1792233 l -0.1802724,0.00109 -0.1802741,0.00109 v 0.3585337 0.3585338 l 0.1802741,0.00109 0.1802724,0.00109 V 5.5145405 5.3352337 H 5.4748707 6.0146831 V 5.1539531 4.9726711 H 5.6541353 5.2935898 V 4.4328587 3.8930427 H 5.4748701 5.6561484 V 3.7137977 3.534554 l 0.359543,-0.00109 0.3595407,-0.00109 0.00109,-0.3595398 0.00109,-0.359541 h 0.358516 0.35851 v 0.3605447 0.3605457 h -0.179268 -0.179264 v 0.179266 0.1792679 h 0.179264 0.179268 v 0.3605488 0.360548 h 0.181283 0.18128 v 0.3605465 0.3605478 h 0.179266 0.179266 v 0.1792682 0.1792659 h -0.179266 -0.179266 v 0.1792661 0.179266 h 0.71908 0.719082 v 0.1812803 0.1812805 h -0.179256 -0.179276 v 0.358535 0.3585326 H 8.3553591 8.1740871 V 6.9525372 6.7732711 h -0.179277 -0.179266 v 0.1792661 0.179266 H 7.6362781 7.4570121 V 7.3130835 7.494364 h 0.719085 0.719081 v 0.179268 0.1792661 h -0.179257 -0.179276 v 0.3605472 0.3605468 h 0.179276 0.179257 V 8.3947261 8.21546 H 9.2557241 9.616273 V 7.854913 7.494365 H 9.4370571 9.2578421 l -0.0011,-0.1802742 -0.0011,-0.1802743 -0.180275,-0.00109 -0.180273,-0.00109 V 6.952409 6.7731855 H 9.4348961 9.97471 V 7.6735458 8.5739072 H 9.4349021 8.8950911 V 8.934455 9.2950028 h -0.179277 -0.179276 v 0.3605467 0.3605475 h 0.179276 0.179277 V 9.8348169 9.6535364 h 0.181272 0.181272 V 9.4742704 9.2950045 H 9.616168 9.974701 V 9.6555512 10.016099 H 9.795424 9.616148 v 0.179266 0.179265 h 0.179276 0.179277 v 0.179266 0.179266 H 9.4348901 8.8950761 v -0.179265 -0.179266 h -1.079629 -1.079628 v 0.179266 0.179266 H 6.0147224 5.293629 V 10.014068 9.2949881 H 4.7538134 4.2139987 V 9.474254 9.65352 h 0.3605476 0.3605479 v 0.360549 0.360547 H 4.7558273 4.5765604 V 10.19535 10.016083 H 4.3952801 4.2139998 v 0.179266 0.179266 h 0.1792659 0.179266 v 0.179266 0.179266 H 4.2139998 3.8554667 Z M 6.0146831,10.195227 V 10.015962 H 5.8354171 5.656151 v 0.179265 0.179268 h 0.1792661 0.179266 z m 0.721097,0 v -0.179265 h 0.71908 0.71908 V 9.655413 9.2948663 h -0.179276 -0.179266 v 0.1792661 0.179266 H 7.6361411 7.4568741 V 9.4741332 9.2948663 h -0.18128 -0.181281 v 0.1792456 0.1792458 l -0.359541,0.00109 -0.35954,0.00109 -0.00109,0.3595413 -0.00109,0.359539 h 0.181305 0.181301 z m 2.521817,0 V 10.015962 H 9.4368731 9.61615 V 9.8346812 9.6534009 H 9.4369351 9.2576991 l -0.0011,0.1802741 -0.0011,0.180272 -0.180273,0.0011 -0.180275,0.0011 v 0.179228 0.179227 h 0.181269 0.181272 z M 8.1739401,8.3924899 V 7.852676 h -0.539813 -0.539814 v 0.5398139 0.5398145 h 0.539814 0.539813 z m -0.717066,0.00196 V 8.2151917 h 0.179268 0.179266 v 0.179264 0.179266 h -0.179266 -0.179268 z m 0,-2.1612706 V 6.0519085 h -0.360548 -0.360546 v 0.1812826 0.1812803 h 0.360546 0.360548 z M 3.4928647,5.8726372 V 5.6933713 H 3.3135986 3.1343306 v 0.1792659 0.1792661 h 0.179268 0.1792661 z m 0.7210945,0 V 5.6933713 H 4.0346932 3.855425 v 0.1792659 0.1792661 h 0.1792682 0.179266 z M 7.0943131,5.5120904 V 5.33081 h -0.179269 -0.179264 v 0.1812804 0.1812804 h 0.179264 0.179269 z M 6.3772461,4.7930088 V 4.6137429 h 0.179266 0.179268 v 0.1792659 0.179266 h 0.179264 0.179268 V 4.7930088 4.6137431 H 6.9150441 6.7357801 V 4.2531952 3.8926476 H 6.5544991 6.3732192 V 4.0719134 4.2511795 H 6.1939531 6.0146853 V 4.0719134 3.8926476 H 5.8354192 5.6561532 v 0.3605476 0.3605479 h 0.179266 0.1792661 v 0.179266 0.1792661 H 6.1959675 6.377248 Z M 3.8554265,8.03391 V 7.4940944 H 3.6741461 3.4928658 v 0.179268 0.1792659 H 2.9530501 2.4132364 V 7.6733624 7.4940944 h -0.179266 -0.179268 v 0.179268 0.1792659 H 1.8734217 1.6921408 V 7.6733624 7.4940944 H 1.8734212 2.0547015 V 7.1335466 6.7730007 h 0.1792273 0.1792233 l 0.00109,0.1802722 0.00109,0.1802721 0.1802742,0.00109 0.1802743,0.00109 V 7.3149549 7.4941802 H 3.1344177 3.4929516 V 7.3149549 7.1357295 l 0.1802742,-0.00109 0.1802741,-0.00109 0.00109,-0.1802721 0.00109,-0.1802722 h 0.1791826 0.1791844 l 0.00109,0.1802722 0.00109,0.1802721 0.3595395,0.00109 0.3595399,0.00109 V 7.3149752 7.4942208 H 4.5748085 4.2142628 v 0.539816 0.5398124 H 4.034995 3.855728 Z M 0.97507441,6.9522678 V 6.0519085 H 1.1543423 1.3336083 V 5.8726842 5.6934194 H 1.1543401 0.97507241 V 5.5141534 5.3348855 H 1.333606 1.6921388 V 6.0539661 6.7730475 H 1.5128727 1.3336067 V 7.3128613 7.8526758 H 1.1543406 0.97507271 Z m 2.15925649,0 V 6.7729997 H 3.3135988 3.4928649 V 6.9522678 7.1315317 H 3.313598 3.1343309 Z M 9.2575971,6.233185 V 6.0519087 H 9.616132 9.974667 V 6.2331911 6.4144716 H 9.616132 9.2575971 Z m -1.08097,-0.5424992 -0.0026,-0.00273 V 5.5093605 5.3307645 h -0.17926 -0.179268 V 4.972231 4.6136982 h 0.179266 0.179276 v 0.1792641 0.179268 h 0.181272 0.181272 V 4.7929623 4.6136982 h 0.179257 0.179276 v 0.1792641 0.179268 H 8.7158171 8.5365411 V 5.3327781 5.693326 h -0.178604 -0.178604 z m 0.718409,-0.1765817 v -0.179268 h 0.181273 0.181272 v 0.179268 0.1792661 H 9.0763091 8.8950361 Z M 9.616132,5.1515425 V 4.9722765 H 9.4368551 9.2576001 V 4.7930104 4.6137445 h 0.179255 0.1792769 v 0.1792659 0.1792661 h 0.179276 0.179277 v 0.179266 0.1792682 H 9.795408 9.616132 Z m -8.5987583,-0.9066973 -0.012112,-0.00624 -0.00961,-0.00874 -0.00961,-0.00874 -0.00555,-0.01298 -0.00555,-0.01298 V 2.9924597 1.7897045 l 0.00555,-0.01298 0.00555,-0.01298 0.011556,-0.010819 0.011556,-0.010813 0.011343,-0.00425 0.011343,-0.00425 1.2032413,5.5e-6 1.2032424,6.5e-6 0.013815,0.0071 0.013815,0.0071 0.012391,0.015479 0.012391,0.015484 0.00109,1.2083275 0.00109,1.2083286 -0.00656,0.012931 -0.00656,0.012931 -0.00656,0.00743 -0.00656,0.00743 -0.014944,0.00764 -0.014944,0.00764 -1.2036637,-2.29e-5 -1.203664,-2.41e-5 -0.012112,-0.00624 z m 2.0929187,-0.3583087 0.011818,-0.00611 0.00611,-0.011818 0.00611,-0.011818 -1.08e-5,-0.8653114 -1.33e-5,-0.8653142 -0.00809,-0.013176 -0.00809,-0.013176 -0.010361,-0.00393 -0.010361,-0.00393 -0.8697226,0.00109 -0.8697235,0.00109 -0.011196,0.011163 -0.011163,0.011163 -0.00109,0.8697237 -0.00109,0.8697224 0.00393,0.010361 0.00393,0.010361 0.013176,0.00809 0.013176,0.00809 0.8653132,1.21e-5 0.8653131,1.09e-5 0.011818,-0.00611 z m -1.3562816,-0.3562248 -0.012653,-0.00304 -0.013684,-0.00841 -0.013684,-0.00841 -0.00994,-0.017313 -0.00994,-0.017332 -0.00109,-0.4753595 -0.00109,-0.4753585 0.00491,-0.017841 0.00491,-0.017841 0.014649,-0.014649 0.014649,-0.014649 0.017843,-0.00491 0.017843,-0.00491 0.4753585,0.00109 0.4753597,0.00109 0.018169,0.010705 0.018169,0.010705 0.01005,0.017516 0.01005,0.017517 V 2.9882884 3.467675 L 2.77085,3.478691 2.76781,3.48969 2.755174,3.504061 2.742538,3.518432 2.730066,3.525302 2.717594,3.532172 2.2422346,3.5327987 1.7668748,3.5334269 Z M 3.8554265,3.8926476 V 3.5341564 h 0.179268 0.179266 V 3.8926899 4.2512238 H 4.0346937 3.8554265 Z M 4.5765211,3.7113666 V 3.1715527 H 4.7557872 4.9350531 V 2.9923276 2.8130615 H 4.7537728 4.5724925 v 0.1792661 0.179268 H 4.2139592 3.8554265 V 2.9923276 2.8130615 h 0.179268 0.179266 V 2.6317812 2.4505007 h -0.179266 -0.179268 v -0.179268 -0.179266 h 0.179268 0.179266 V 1.9126985 1.7334325 h 0.1792682 0.179266 v 0.358534 0.3585326 H 4.7537751 4.9350554 V 2.2712311 2.091965 H 5.4748712 6.0146836 V 1.912697 1.733431 H 6.1939518 6.3732179 V 2.0919673 2.4504999 H 5.8334023 5.2935898 V 2.8110478 3.1715956 H 5.4748701 5.6561484 V 2.9923276 2.8130615 h 0.1792661 0.179266 v 0.1792661 0.179268 H 5.8354552 5.6562299 l -0.00109,0.1802743 -0.00109,0.180272 H 5.4747796 5.2955155 l -0.00109,-0.180272 -0.00109,-0.1802743 H 5.1141077 4.9348822 V 3.711409 4.2512238 H 4.7556163 4.5763503 Z m 2.922652,0.5331182 -0.01211,-0.00645 -0.0074,-0.00656 -0.0074,-0.00656 -0.0076,-0.014993 -0.0076,-0.014993 0.0011,-1.2082862 0.0011,-1.2082871 0.01239,-0.015484 0.01239,-0.015479 0.01381,-0.0071 0.01382,-0.0071 1.203634,-6.6e-6 1.2036319,-6.5e-6 0.01306,0.00556 0.01306,0.00556 0.01082,0.011564 0.01082,0.011556 0.0042,0.011343 0.0042,0.011343 v 1.2032717 1.2032412 l -0.0071,0.013815 -0.007,0.013815 -0.01548,0.012391 -0.01548,0.012391 -1.2091709,7.855e-4 -1.209173,7.841e-4 -0.01211,-0.00645 z M 9.602947,3.8794645 9.614207,3.8682685 V 2.9922837 2.1162758 L 9.602947,2.1051128 9.591687,2.0939498 H 8.7157641 7.8397561 l -0.0112,0.011163 -0.01116,0.011163 -0.0011,0.8690495 -0.0011,0.8690497 0.0048,0.011556 0.0048,0.011556 0.01241,0.00755 0.01241,0.00755 0.871064,-9.427e-4 0.8710639,-9.416e-4 z m -1.3671359,-0.3491528 -0.01264,-0.00304 -0.01365,-0.00841 -0.01365,-0.00841 -0.01,-0.017313 -0.01,-0.017332 V 2.9923723 2.5089565 l 0.01,-0.017517 0.01,-0.017516 0.01813,-0.010705 0.01813,-0.010705 h 0.483456 0.483416 l 0.01813,0.010705 0.01813,0.010705 0.0099,0.017516 0.0099,0.017517 0.0012,0.4693154 0.0012,0.4693174 -0.0024,0.01656 -0.0024,0.016558 -0.01066,0.016303 -0.01066,0.016286 -0.01649,0.00938 -0.0165,0.00938 -0.475359,6.279e-4 -0.475357,6.282e-4 z m -1.500031,-1.617654 v -0.179266 h 0.179264 0.179268 v 0.179266 0.1792661 h -0.179268 -0.179264 z"
       id="path2220" />
    <path
       style="fill:#00006e;fill-opacity:1;stroke:#000000;stroke-width:0.00196052;stroke-miterlimit:4;stroke-dasharray:none;stroke-opacity:1"
       d="m 1.0388369,20.178942 0.011797,-2.91498 0.088938,-0.377625 c 0.3625939,-1.539626 1.1148805,-2.536446 2.467617,-3.269728 1.1459964,-0.621215 2.665297,-0.634757 3.7798986,-0.03369 1.475073,0.79545 2.295783,1.934595 2.5700451,3.56722 0.06374,0.379443 0.06794,0.575279 0.06794,3.174088 v 2.769694 H 5.5260533 1.027037 Z m 8.5995696,-0.111051 c -0.01217,-2.484574 -0.01642,-2.636017 -0.08358,-2.953547 -0.21606,-1.02138 -0.641733,-1.836128 -1.238244,-2.370018 -0.364116,-0.325892 -0.876268,-0.67916 -1.208465,-0.833568 C 5.9096869,13.353718 4.524868,13.466286 3.4154358,14.210928 2.3616294,14.91823 1.81638,15.716434 1.5195609,16.986343 l -0.090842,0.388665 -0.012127,2.655871 -0.012127,2.65587 h 4.1233652 4.1233644 z m -7.5786362,1.73048 c 0,-0.243262 0.038814,-0.280669 0.1185984,-0.114328 0.067667,0.141091 0.2133825,0.262379 0.3151963,0.262379 0.080097,0 0.2185358,-0.115558 0.2185358,-0.182435 0,-0.07175 -0.1139595,-0.152075 -0.2973721,-0.209561 -0.2383071,-0.0747 -0.3206244,-0.160097 -0.3206244,-0.332656 0,-0.265316 0.2958038,-0.438261 0.5241968,-0.306478 0.05503,0.03175 0.076625,0.03175 0.086434,0 0.00715,-0.02328 0.03497,-0.04231 0.061721,-0.04231 0.036067,0 0.048634,0.05261 0.048634,0.203585 0,0.156286 -0.011977,0.203587 -0.051498,0.203587 -0.028322,0 -0.051993,-0.02917 -0.052594,-0.06478 -0.00392,-0.229043 -0.3501631,-0.348849 -0.4466311,-0.154512 -0.053204,0.107189 0.00334,0.166864 0.2233474,0.235825 0.2725259,0.08541 0.3445414,0.163185 0.3445414,0.372064 0,0.143704 -0.01633,0.188192 -0.096335,0.262382 -0.1127588,0.104572 -0.343116,0.121885 -0.4588476,0.03449 -0.064157,-0.04845 -0.077546,-0.04845 -0.114849,0 -0.07668,0.09962 -0.1024756,0.05753 -0.1024756,-0.16725 z m 0.8582518,0.161632 c 5.9e-5,-0.02308 0.030976,-0.05067 0.06874,-0.06131 0.063686,-0.01795 0.068672,-0.05049 0.068672,-0.44819 0,-0.388743 -0.00648,-0.433152 -0.068672,-0.475063 -0.1170882,-0.07885 -0.077511,-0.102456 0.1716652,-0.102456 0.2295243,0 0.3177634,0.04356 0.1716664,0.08475 -0.058433,0.01649 -0.068672,0.05049 -0.068672,0.228258 v 0.208899 l 0.1952084,-0.01112 0.1952084,-0.01112 -0.00323,-0.120307 c -0.00173,-0.06617 -0.00461,-0.155175 -0.00634,-0.197797 -0.00185,-0.04458 -0.032292,-0.08572 -0.071787,-0.09685 -0.1460968,-0.0412 -0.057856,-0.08475 0.1716653,-0.08475 0.2256361,0 0.3141901,0.04581 0.1888331,0.09766 -0.041941,0.01736 -0.051497,0.106422 -0.051497,0.480042 0,0.383086 0.00854,0.458735 0.051497,0.458735 0.028322,0 0.051498,0.02153 0.051498,0.04788 0,0.0351 -0.060292,0.04572 -0.2263087,0.0398 -0.2380047,-0.0086 -0.3188448,-0.03939 -0.194613,-0.07443 0.085268,-0.02403 0.099393,-0.07477 0.082718,-0.29699 L 3.6321883,21.465212 H 3.446811 3.2614358 v 0.207051 c 0,0.175922 0.010278,0.209962 0.068672,0.226409 0.1382315,0.03898 0.062693,0.079 -0.1717427,0.09097 -0.1629816,0.0084 -0.2403857,-0.0013 -0.2403327,-0.02967 z m 1.2017336,-0.0042 c 2.3e-6,-0.02545 0.030908,-0.04627 0.068672,-0.04627 0.064989,0 0.068672,-0.02468 0.068672,-0.460203 0,-0.427691 -0.00484,-0.461859 -0.068672,-0.483697 -0.1726629,-0.05909 -0.036124,-0.09254 0.3776649,-0.09254 h 0.4463309 v 0.203589 c 0,0.208668 -0.050898,0.274277 -0.088267,0.113785 -0.039368,-0.16913 -0.2233486,-0.268567 -0.378916,-0.204799 -0.069723,0.02858 -0.082151,0.05868 -0.082151,0.198975 0,0.09093 0.01405,0.174669 0.031231,0.186115 0.055618,0.03706 0.1404917,-0.02232 0.1616164,-0.113064 0.0113,-0.04865 0.04209,-0.08845 0.06837,-0.08845 0.036263,0 0.047781,0.06245 0.047781,0.259108 0,0.283755 -0.056298,0.349488 -0.1268228,0.148062 -0.026487,-0.07566 -0.062255,-0.11105 -0.1122404,-0.11105 -0.067622,0 -0.07256,0.01668 -0.06306,0.21284 l 0.010278,0.21284 0.1313731,0.01157 c 0.1653198,0.01472 0.28465,-0.06648 0.3147024,-0.21399 0.038329,-0.188147 0.090231,-0.126709 0.079221,0.09379 l -0.010278,0.206073 -0.4377536,0.0068 c -0.3306642,0.0051 -0.4377525,-0.0045 -0.4377478,-0.0395 z m 1.0299656,0 c 1.96e-5,-0.02545 0.030931,-0.04627 0.068705,-0.04627 0.064989,0 0.068672,-0.02468 0.068672,-0.460203 0,-0.427691 -0.00484,-0.461859 -0.068672,-0.483697 -0.1452898,-0.04971 -0.057903,-0.09254 0.1888321,-0.09254 0.2474328,0 0.3340526,0.04284 0.1877965,0.0929 -0.06574,0.02249 -0.069154,0.04944 -0.060083,0.474443 l 0.00957,0.450593 0.1099998,0.01142 c 0.1491729,0.01555 0.2467127,-0.04817 0.3053703,-0.199529 0.026983,-0.06962 0.064297,-0.126589 0.082924,-0.126589 0.036701,0 0.038951,0.184277 0.00402,0.33314 L 6.02517,22.002011 H 5.58741 c -0.3273565,0 -0.4377744,-0.01157 -0.4377478,-0.04627 z m 1.0300143,0.0042 c 9.5e-6,-0.02308 0.030922,-0.05067 0.068681,-0.06131 0.063889,-0.01802 0.068673,-0.05049 0.068673,-0.467011 0,-0.41745 -0.0045,-0.447655 -0.06621,-0.447655 -0.089041,0 -0.1731575,0.09662 -0.1972622,0.226557 -0.033969,0.183085 -0.079854,0.116701 -0.079854,-0.115514 v -0.222094 h 0.4419088 0.4419073 l 0.02291,0.186292 c 0.0316,0.256866 -0.0091,0.301529 -0.09627,0.10567 -0.05631,-0.126468 -0.09344,-0.165028 -0.167795,-0.174234 l -0.09549,-0.01172 0.0097,0.456013 c 0.0095,0.444561 0.01164,0.456316 0.08889,0.468118 0.04358,0.0068 0.07397,0.02909 0.06755,0.04986 -0.01666,0.05387 -0.5073175,0.06076 -0.5072969,0.007 z m 0.8240529,-0.0017 c -2.3e-5,-0.02401 0.03472,-0.04902 0.07722,-0.05553 0.07521,-0.01157 0.07725,-0.02355 0.07725,-0.456016 0,-0.425134 -0.0033,-0.445753 -0.07725,-0.480726 -0.152448,-0.07211 -0.07039,-0.093 0.365079,-0.093 0.429686,0 0.442918,0.0023 0.463029,0.08328 0.05916,0.238 -0.01778,0.425388 -0.08689,0.211633 -0.04769,-0.147492 -0.221835,-0.238446 -0.353322,-0.184548 -0.07773,0.03187 -0.08747,0.05658 -0.08747,0.221854 0,0.220369 0.07095,0.25276 0.164678,0.07517 0.03217,-0.06095 0.07008,-0.110916 0.08424,-0.111051 0.01415,-1.37e-4 0.02575,0.11637 0.02575,0.258874 0,0.142517 -0.01159,0.259005 -0.02575,0.258877 -0.01416,-1.37e-4 -0.05206,-0.0501 -0.08424,-0.11105 -0.03216,-0.06095 -0.08315,-0.11081 -0.1133,-0.11081 -0.04504,0 -0.05297,0.03799 -0.04452,0.212839 l 0.01028,0.21284 0.132117,0.01157 c 0.149368,0.01322 0.232646,-0.04767 0.298076,-0.217967 0.05732,-0.149175 0.102061,-0.135741 0.101506,0.03043 -0.001,0.296396 0.015,0.286873 -0.481887,0.286873 -0.318765,0 -0.44457,-0.01232 -0.444599,-0.04369 z m 1.04426,0.02827 c -0.03483,-0.03757 -0.0083,-0.07288 0.06295,-0.08378 0.07446,-0.01142 0.0776,-0.02753 0.08693,-0.447018 0.0097,-0.434084 0.0095,-0.435302 -0.07725,-0.477893 -0.172941,-0.08496 -0.0875,-0.112854 0.304453,-0.09943 0.448108,0.01534 0.535619,0.06032 0.535619,0.275306 0,0.129804 -0.05981,0.217739 -0.174852,0.257105 -0.0703,0.02406 -0.07039,0.02526 -0.0047,0.07487 0.03673,0.02773 0.08644,0.126093 0.110451,0.218578 0.0486,0.187204 0.05952,0.196401 0.122563,0.103431 0.02415,-0.03559 0.05571,-0.05198 0.07015,-0.03641 0.04075,0.04391 -0.104214,0.22922 -0.190002,0.242912 -0.114042,0.0182 -0.197487,-0.08677 -0.216944,-0.272859 -0.02054,-0.196534 -0.07368,-0.276098 -0.184393,-0.276098 -0.07622,0 -0.08163,0.01367 -0.08163,0.207052 0,0.175921 0.01028,0.209962 0.06867,0.226409 0.03777,0.01067 0.06867,0.03823 0.06867,0.06131 0,0.03958 -0.465708,0.06424 -0.500694,0.02653 z m 0.638027,-0.669432 c 0.138656,-0.14949 0.06228,-0.333142 -0.138538,-0.333142 h -0.136124 v 0.203587 c 0,0.201529 10e-4,0.203587 0.102993,0.203587 0.05723,0 0.133518,-0.03291 0.171665,-0.07402 z m -5.4509988,-2.489042 0.012488,-1.37909 0.09067,-0.268185 c 0.04987,-0.147506 0.1418231,-0.372154 0.2043492,-0.499229 0.1369827,-0.278395 0.5521036,-0.735413 0.8286228,-0.91225 0.7339948,-0.469404 1.6816258,-0.469404 2.4153788,0 0.107472,0.06875 0.320759,0.258264 0.473969,0.421133 0.222029,0.236026 0.307484,0.359978 0.421074,0.610758 0.230086,0.507976 0.252479,0.707081 0.241452,2.146905 l -0.0095,1.240022 -2.3454951,0.0096 -2.3454943,0.0096 z m 2.485061,1.11264 c -0.012022,-0.06482 -0.04725,-0.148122 -0.078272,-0.18508 -0.05361,-0.06388 -0.049594,-0.06722 0.080916,-0.06722 0.087678,0 0.156536,-0.02343 0.1904384,-0.06478 0.055942,-0.06824 0.2322018,-0.520539 0.2322018,-0.595859 0,-0.03019 0.029746,-0.03526 0.09442,-0.01607 0.1822348,0.05406 0.9741026,-0.02467 1.1301916,-0.112329 0.160786,-0.09031 0.306251,-0.439315 0.289853,-0.695417 -0.004,-0.06385 -0.565551,-0.362549 -0.973714,-0.518003 -0.144411,-0.055 -0.2317497,-0.108842 -0.2317497,-0.142878 0,-0.03004 -0.024146,-0.122757 -0.053639,-0.206048 -0.04808,-0.13568 -0.088941,-0.17228 -0.3939215,-0.352838 -0.2740311,-0.162238 -0.3404546,-0.217761 -0.3411899,-0.28519 -9.315e-4,-0.08529 -0.1958677,-0.921998 -0.2277793,-0.977666 -0.042161,-0.07354 -0.073034,-0.01427 -0.1122734,0.21527 -0.023106,0.135214 -0.07682,0.316324 -0.1193603,0.402478 l -0.07735,0.156649 -0.1109586,-0.263671 c -0.1221365,-0.290228 -0.2933139,-0.539495 -0.337636,-0.491646 -0.015615,0.01686 -0.028934,0.283263 -0.029603,0.592012 -9.623e-4,0.446219 -0.012653,0.584141 -0.057014,0.67241 -0.072076,0.143405 -0.2109935,0.280209 -0.4088126,0.402595 -0.086918,0.05377 -0.1831488,0.127701 -0.2138385,0.164251 -0.030689,0.03656 -0.1176516,0.273774 -0.1932499,0.527143 -0.1332395,0.446553 -0.169656,0.529623 -0.3384569,0.772047 -0.072191,0.103657 -0.073784,0.114297 -0.017161,0.114161 0.1026123,-2.28e-4 0.2772162,-0.13568 0.3789644,-0.293988 0.0525,-0.08169 0.1727042,-0.293045 0.2671202,-0.4697 0.2275597,-0.425762 0.4031169,-0.614921 0.7116275,-0.766757 0.1373359,-0.06759 0.2709056,-0.150627 0.2968227,-0.184528 0.073067,-0.09557 0.1046907,-0.07432 0.1285269,0.0864 0.024999,0.168577 0.017437,0.165425 0.2308939,0.09617 l 0.1599557,-0.05191 v 0.142037 c 0,0.07812 -0.016411,0.188574 -0.036469,0.245462 -0.027052,0.07673 -0.025957,0.107204 0.00428,0.118054 0.1271023,0.04569 0.231371,0.224049 0.3060916,0.523631 0.043165,0.17305 0.1077382,0.370424 0.1434961,0.438615 0.064726,0.123418 0.064647,0.124845 -0.016815,0.314632 -0.045011,0.104859 -0.099141,0.23646 -0.1202846,0.292446 -0.03534,0.09356 -0.05361,0.101794 -0.225996,0.101794 -0.1795182,0 -0.2669941,0.04228 -0.1915014,0.0926 0.019551,0.01292 0.074141,0.105777 0.1213033,0.206144 0.098689,0.209973 0.1733458,0.244419 0.1399853,0.06459 z M 2.3048141,19.823467 c -0.07929,-0.091 -0.079542,-0.09377 -0.016851,-0.186536 0.078803,-0.11661 0.085371,-0.116911 0.1798191,-0.0087 l 0.076658,0.08797 -0.079565,0.09972 -0.079567,0.09972 z m 6.4189044,-0.0015 c -0.07786,-0.08935 -0.0781,-0.09222 -0.01544,-0.184923 0.07925,-0.117287 0.08496,-0.117377 0.184684,-0.0032 l 0.08151,0.09354 -0.08584,0.09254 -0.08584,0.09254 -0.07909,-0.09075 z m -0.483974,-0.984835 c 0,-0.473541 0.01929,-0.562523 0.08627,-0.397918 0.03244,0.0797 0.05156,0.08328 0.445889,0.08328 0.401118,0 0.412288,-0.0023 0.422967,-0.08328 0.006,-0.04582 0.02535,-0.08328 0.04292,-0.08328 0.01757,0 0.03195,0.12492 0.03195,0.277614 0,0.263029 -0.03943,0.365137 -0.0786,0.203586 -0.0167,-0.06884 -0.04684,-0.07402 -0.429448,-0.07402 -0.407156,0 -0.411711,9.47e-4 -0.432435,0.08998 -0.03427,0.147265 0.03438,0.277312 0.18476,0.349897 0.170943,0.08251 0.144983,0.115363 -0.09115,0.115363 h -0.183114 z m -5.69931,0.221175 c 0,-0.02087 0.034763,-0.05222 0.077246,-0.06968 0.2381985,-0.0979 0.3440981,-0.390804 0.1825511,-0.504925 -0.1277485,-0.09024 -0.2053671,-0.02218 -0.2735739,0.239896 -0.035407,0.136056 -0.087044,0.24466 -0.1327301,0.279158 -0.089065,0.06726 -0.2950683,0.07226 -0.3714693,0.009 -0.1265613,-0.104754 -0.1715848,-0.326614 -0.096843,-0.477181 0.027134,-0.05465 0.027134,-0.08677 0,-0.11601 -0.071327,-0.07691 -0.03676,-0.09967 0.1513181,-0.09967 0.18592,0 0.2508953,0.04779 0.1239947,0.09123 -0.1017604,0.03481 -0.244161,0.194075 -0.244161,0.27306 0,0.03943 0.027999,0.108976 0.062219,0.154531 0.1032135,0.137424 0.2015054,0.07144 0.2663606,-0.178812 0.066351,-0.256041 0.1772133,-0.377023 0.3454786,-0.377023 0.246723,0 0.3888681,0.285657 0.2865382,0.575835 -0.023683,0.06718 -0.023785,0.114101 -3e-4,0.14462 0.019124,0.02484 0.024606,0.05615 0.012187,0.06953 -0.037093,0.03999 -0.3888115,0.02771 -0.3888103,-0.01352 z m 5.675985,-1.081792 c -0.02893,-0.228269 5.72e-4,-0.321498 0.06341,-0.200418 0.02501,0.04818 0.04619,0.05138 0.115431,0.01735 0.06911,-0.03394 0.08481,-0.06842 0.08481,-0.186211 0,-0.07951 -0.016,-0.176772 -0.03555,-0.216152 -0.04697,-0.09461 -0.171684,-0.09305 -0.194842,0.0023 -0.024,0.09891 -0.07359,0.09396 -0.09286,-0.0093 -0.06543,-0.350226 -0.05814,-0.375343 0.07091,-0.244628 0.04851,0.04914 0.251638,0.131366 0.534377,0.216345 0.287405,0.08638 0.459631,0.156389 0.465602,0.189263 0.0062,0.03399 -0.152354,0.139121 -0.454914,0.301699 -0.288008,0.154751 -0.464391,0.27068 -0.464391,0.305223 0,0.03062 -0.0141,0.05571 -0.03133,0.05571 -0.01724,0 -0.04452,-0.104107 -0.06065,-0.231345 z m 0.675654,-0.474932 c 0,-0.02099 -0.261235,-0.108075 -0.324202,-0.108075 -0.0259,0 -0.02446,0.241014 0.0017,0.269108 0.02396,0.02585 0.322617,-0.123238 0.322617,-0.161042 z m -6.0660183,0.599384 c -0.010264,-0.04245 -0.1909093,-0.17608 -0.4602835,-0.340538 -0.2438341,-0.148858 -0.4433348,-0.289974 -0.4433348,-0.31358 0,-0.03644 0.466407,-0.174215 0.88703,-0.262037 0.062993,-0.01307 0.1225836,-0.04653 0.1324235,-0.07417 0.00981,-0.02764 0.031682,-0.05026 0.048555,-0.05026 0.034624,0 0.034301,0.221088 -5.771e-4,0.388663 -0.023025,0.11063 -0.023268,0.110735 -0.06598,0.02744 -0.034209,-0.06673 -0.061666,-0.07876 -0.1359084,-0.05957 -0.051173,0.01322 -0.095159,0.02588 -0.097742,0.02809 -0.00254,0.0023 -0.015453,0.09018 -0.028598,0.195432 -0.021779,0.174388 -0.016989,0.195375 0.053898,0.236276 0.067436,0.0389 0.086213,0.03367 0.1410371,-0.03932 0.084632,-0.112674 0.098101,-0.08662 0.073069,0.1413 -0.02119,0.192863 -0.071937,0.252769 -0.1035831,0.122276 z M 2.5833057,17.624865 c 0.00878,-0.07636 0.012337,-0.143764 0.00785,-0.149835 -0.00449,-0.006 -0.090829,0.01157 -0.1918085,0.03913 l -0.1835944,0.05016 0.1537638,0.09933 c 0.084574,0.05463 0.1636602,0.09949 0.1757566,0.09969 0.012097,1.81e-4 0.029211,-0.0621 0.03804,-0.13846 z m 5.3690058,-0.8793 c -0.158947,-0.258094 -0.166515,-0.329426 -0.02483,-0.234028 0.05488,0.03694 0.109249,0.01217 0.365139,-0.166569 0.165365,-0.115498 0.279053,-0.209824 0.252641,-0.209632 -0.02642,1.82e-4 -0.221835,0.0562 -0.434273,0.12447 -0.236535,0.07601 -0.386009,0.108165 -0.385631,0.08294 3.64e-4,-0.02266 0.122477,-0.191103 0.271415,-0.374329 0.148937,-0.183228 0.265769,-0.33875 0.259625,-0.345606 -0.0061,-0.0068 -0.136006,0.07386 -0.288581,0.179387 -0.217517,0.150434 -0.277409,0.210591 -0.277409,0.278644 0,0.143494 -0.055,0.13559 -0.151594,-0.02179 -0.0869,-0.141585 -0.0937,-0.277361 -0.0094,-0.1864 0.06485,0.06992 0.132507,0.04529 0.416434,-0.151649 0.367089,-0.254616 0.384162,-0.27208 0.332122,-0.339682 -0.02627,-0.03414 -0.02914,-0.06242 -0.0077,-0.07664 0.03195,-0.02129 0.244311,0.272259 0.243979,0.337278 -4.5e-5,0.01668 -0.08506,0.13296 -0.188831,0.258374 -0.103769,0.125417 -0.18868,0.235911 -0.18868,0.245546 0,0.0096 0.126668,-0.02218 0.281487,-0.07072 0.154816,-0.04852 0.292397,-0.08824 0.305736,-0.08824 0.04439,0 0.206286,0.333502 0.182252,0.375429 -0.01595,0.02779 -0.03386,0.02159 -0.05493,-0.01904 -0.01721,-0.03313 -0.04484,-0.06027 -0.0614,-0.06027 -0.01657,0 -0.179208,0.103417 -0.361432,0.229785 -0.285713,0.198159 -0.329222,0.241587 -0.316114,0.315517 0.02739,0.154435 -0.03325,0.123087 -0.160023,-0.0828 z m -4.8968798,0.04324 c 0,-0.07375 -0.051786,-0.111967 -0.3519151,-0.259536 -0.1935535,-0.09517 -0.365662,-0.172856 -0.3824628,-0.172622 -0.016805,2.26e-4 -0.049201,0.02795 -0.072006,0.06155 -0.022805,0.03361 -0.050552,0.04527 -0.061666,0.0259 -0.011075,-0.01938 0.040603,-0.173256 0.1149287,-0.341944 0.074314,-0.168686 0.1351254,-0.318217 0.1351254,-0.332287 0,-0.01412 0.02373,-0.06209 0.05272,-0.106738 l 0.05272,-0.08116 0.1532802,0.08029 c 0.084309,0.04416 0.1532799,0.09362 0.1532799,0.109923 0,0.01631 -0.057938,0.02989 -0.1287479,0.0302 -0.1465431,6.45e-4 -0.1783015,0.01858 -0.2594888,0.146484 -0.088371,0.139226 -0.072029,0.182285 0.099255,0.261443 0.1911009,0.08831 0.1741075,0.08866 0.1966,-0.0042 0.011722,-0.04833 -0.00693,-0.104333 -0.050355,-0.151148 -0.1100463,-0.118653 -0.048356,-0.122455 0.1929373,-0.01187 0.248092,0.113697 0.2841815,0.165946 0.1097008,0.158874 -0.2500284,-0.01022 -0.2598605,0.109171 -0.01902,0.230788 0.170816,0.08626 0.1763985,0.08672 0.2228107,0.01829 0.094742,-0.139677 0.092642,-0.01412 -0.00334,0.202455 -0.1037438,0.234002 -0.1543082,0.278302 -0.1543082,0.135169 z m 0.403889,-0.637888 c -0.012202,-0.01307 -0.00392,-0.05545 0.01842,-0.09401 0.035813,-0.06182 0.00576,-0.107696 -0.2548743,-0.388654 -0.2633394,-0.283912 -0.3032238,-0.314089 -0.3667045,-0.277462 -0.1647474,0.09508 -0.086641,-0.04095 0.2004506,-0.34903 l 0.3066663,-0.329096 0.1207427,0.126168 c 0.1388356,0.145072 0.1544528,0.20558 0.043488,0.168503 -0.2086553,-0.06972 -0.2356331,-0.06669 -0.3368548,0.03786 -0.055492,0.05732 -0.1008933,0.123404 -0.1008933,0.14686 0,0.02345 0.052259,0.09392 0.1161354,0.156588 0.085556,0.08394 0.1262353,0.103041 0.1544987,0.07256 0.047655,-0.05138 0.049975,-0.162511 0.00402,-0.193126 -0.0489,-0.03258 -0.042506,-0.09254 0.00992,-0.09254 0.060881,0 0.3817542,0.356482 0.3436944,0.381843 -0.016873,0.01127 -0.053124,0.0051 -0.080548,-0.01352 -0.068404,-0.04665 -0.1953622,-0.04376 -0.2233601,0.0051 -0.03003,0.0524 0.1863979,0.292927 0.2635758,0.292927 0.075768,0 0.2018217,-0.17097 0.2015445,-0.273354 -8.67e-5,-0.04307 -0.02224,-0.123823 -0.049166,-0.17946 -0.075908,-0.156875 -0.00992,-0.151629 0.1372788,0.01097 l 0.133398,0.147287 -0.3096127,0.333801 c -0.170275,0.183633 -0.3195825,0.323084 -0.3317839,0.309929 z m 3.6939368,-0.490602 c -0.211609,-0.163014 -0.233282,-0.207002 -0.102866,-0.208781 0.08447,-0.0012 0.128674,-0.04876 0.317245,-0.341652 0.2045,-0.317638 0.247051,-0.455523 0.14057,-0.455523 -0.02635,0 -0.02673,-0.01157 -0.0013,-0.03912 0.02547,-0.02746 0.09354,0.003 0.228617,0.101793 0.199266,0.145959 0.232409,0.22215 0.08918,0.205016 -0.06953,-0.0084 -0.117307,0.0441 -0.29742,0.326324 -0.213428,0.334425 -0.245811,0.41723 -0.180251,0.460913 0.03997,0.02663 0.0464,0.09383 0.0085,0.08982 -0.01415,-0.0014 -0.105244,-0.06397 -0.202409,-0.138805 z m -0.410461,-0.25707 c -0.02079,-0.01487 -0.09625,-0.218639 -0.167709,-0.452763 C 6.3904256,14.345464 6.3842066,14.335779 6.325451,14.561821 6.1992592,15.047294 6.1984003,15.05552 6.265398,15.135347 c 0.089239,0.106303 0.054223,0.119076 -0.1484815,0.05417 -0.1631971,-0.05225 -0.240913,-0.127986 -0.1313247,-0.127986 0.085498,0 0.1594902,-0.133832 0.2457307,-0.444463 0.1019427,-0.367183 0.1039164,-0.402926 0.025727,-0.464567 -0.095505,-0.07529 -0.031403,-0.09667 0.1409004,-0.04699 0.1374876,0.03965 0.1639226,0.06337 0.1971716,0.177014 0.120131,0.410579 0.215979,0.668179 0.238923,0.642117 0.02513,-0.02856 0.135364,-0.402671 0.135364,-0.459438 0,-0.01522 -0.02501,-0.05462 -0.05559,-0.08759 -0.08292,-0.08941 -0.03372,-0.109278 0.140436,-0.05672 0.155083,0.04681 0.216449,0.148363 0.08965,0.148363 -0.0723,0 -0.110727,0.09091 -0.269505,0.637839 -0.06134,0.211312 -0.10692,0.313832 -0.131619,0.296126 z M 4.737758,15.181486 c 0,-0.01547 0.029095,-0.0477 0.064654,-0.07165 0.06117,-0.0412 0.088488,-0.121614 0.2773216,-0.816386 0.041249,-0.151767 0.091963,-0.268364 0.1167274,-0.268364 0.024087,0 0.1467505,0.224872 0.2725884,0.499714 0.1436984,0.313845 0.248185,0.49971 0.2809207,0.49971 0.028669,0 0.052119,0.01457 0.052119,0.03223 0,0.03835 -0.4094741,0.09389 -0.4410707,0.05981 -0.012022,-0.01292 0.00508,-0.0398 0.037948,-0.05964 0.054695,-0.033 0.055363,-0.04532 0.00785,-0.144502 -0.049362,-0.102905 -0.06028,-0.107234 -0.2145828,-0.08502 -0.089421,0.01277 -0.1739273,0.04167 -0.1878001,0.064 -0.047769,0.07684 -0.026129,0.177102 0.04239,0.196422 0.1008827,0.02843 0.083731,0.07226 -0.038628,0.09862 -0.1457151,0.03142 -0.2703744,0.02914 -0.2703744,-0.0051 z m 0.5740933,-0.469277 c 0.017104,-0.01427 -0.1369858,-0.316956 -0.1613913,-0.316956 -0.014562,0 -0.035743,0.04581 -0.047088,0.101795 -0.0113,0.05599 -0.030815,0.140442 -0.043268,0.187693 -0.021628,0.08209 -0.016735,0.08475 0.1107512,0.05987 0.073369,-0.01428 0.1368054,-0.0289 0.1409844,-0.0324 z"
       id="path828"
       inkscape:connector-curvature="0" />
    <g
       id="g2297"
       transform="matrix(0.00257467,0.01009347,0.01009347,-0.00257467,14.847762,21.241467)"
       style="fill:#ff0000;fill-opacity:1">
      <g
         id="g2238"
         style="fill:#ff0000;fill-opacity:1">
        <polygon
           points="33,66 0,66 66,148 0,231 33,231 99,148 "
           id="polygon2230"
           style="fill:#ff0000;fill-opacity:1" />
        <polygon
           points="83,66 50,66 116,148 50,231 83,231 149,148 "
           id="polygon2232"
           style="fill:#ff0000;fill-opacity:1" />
        <polygon
           points="133,66 100,66 166,148 100,231 133,231 199,148 "
           id="polygon2234"
           style="fill:#ff0000;fill-opacity:1" />
        <polygon
           points="231,66 149,66 215,148 149,231 231,231 297,148 "
           id="polygon2236"
           style="fill:#ff0000;fill-opacity:1" />
      </g>
      <g
         id="g2240"
         style="fill:#ff0000;fill-opacity:1" />
      <g
         id="g2242"
         style="fill:#ff0000;fill-opacity:1" />
      <g
         id="g2244"
         style="fill:#ff0000;fill-opacity:1" />
      <g
         id="g2246"
         style="fill:#ff0000;fill-opacity:1" />
      <g
         id="g2248"
         style="fill:#ff0000;fill-opacity:1" />
      <g
         id="g2250"
         style="fill:#ff0000;fill-opacity:1" />
      <g
         id="g2252"
         style="fill:#ff0000;fill-opacity:1" />
      <g
         id="g2254"
         style="fill:#ff0000;fill-opacity:1" />
      <g
         id="g2256"
         style="fill:#ff0000;fill-opacity:1" />
      <g
         id="g2258"
         style="fill:#ff0000;fill-opacity:1" />
      <g
         id="g2260"
         style="fill:#ff0000;fill-opacity:1" />
      <g
         id="g2262"
         style="fill:#ff0000;fill-opacity:1" />
      <g
         id="g2264"
         style="fill:#ff0000;fill-opacity:1" />
      <g
         id="g2266"
         style="fill:#ff0000;fill-opacity:1" />
      <g
         id="g2268"
         style="fill:#ff0000;fill-opacity:1" />
    </g>
    <text
       xml:space="preserve"
       style="font-size:1.443px;line-height:1.25;font-family:Cooper;-inkscape-font-specification:Cooper;fill:#007100;fill-opacity:1;stroke-width:0.00671179"
       x="0.99114329"
       y="-16.431993"
       id="text2301"
       transform="rotate(90)"><tspan
         sodipodi:role="line"
         id="tspan2299"
         x="0.99114329"
         y="-16.431993"
         style="fill:#007100;fill-opacity:1;stroke-width:0.00671179">Donate Online</tspan></text>
    <text
       xml:space="preserve"
       style="font-size:1.3809px;line-height:1.25;font-family:Cooper;-inkscape-font-specification:Cooper;fill:#9b00d6;fill-opacity:1;stroke-width:0.00674268"
       x="0.90522754"
       y="-14.868527"
       id="text2305"
       transform="rotate(90)"><tspan
         sodipodi:role="line"
         id="tspan2303"
         x="0.90522754"
         y="-14.868527"
         style="fill:#9b00d6;fill-opacity:1;stroke-width:0.00674268">Facebook.com/Wizlights</tspan><tspan
         sodipodi:role="line"
         x="0.90522754"
         y="-13.142403"
         style="fill:#9b00d6;fill-opacity:1;stroke-width:0.00674268"
         id="tspan2307" /></text>
    <text
       xml:space="preserve"
       style="font-size:1.26147px;line-height:1.25;font-family:Cooper;-inkscape-font-specification:Cooper;fill:#9b0000;fill-opacity:1;stroke-width:0.00669647"
       x="0.8676607"
       y="-13.308107"
       id="text2311"
       transform="rotate(90)"><tspan
         sodipodi:role="line"
         x="0.8676607"
         y="-13.308107"
         style="fill:#9b0000;fill-opacity:1;stroke-width:0.00669647"
         id="tspan2327">Facebook.com/SafeAnimalShelter</tspan><tspan
         sodipodi:role="line"
         x="0.8676607"
         y="-11.73127"
         style="fill:#9b0000;fill-opacity:1;stroke-width:0.00669647"
         id="tspan2313" /></text>
    <text
       xml:space="preserve"
       style="font-size:1.43885px;line-height:1.25;font-family:Cooper;-inkscape-font-specification:Cooper;fill:#0071d5;fill-opacity:1;stroke-width:0.00669645"
       x="0.98545992"
       y="-11.659802"
       id="text2317"
       transform="rotate(90)"><tspan
         sodipodi:role="line"
         id="tspan2315"
         x="0.98545992"
         y="-11.659802"
         style="fill:#0071d5;fill-opacity:1;stroke-width:0.00669645">SafeAnimalShelter.com</tspan><tspan
         sodipodi:role="line"
         x="0.98545992"
         y="-9.8612394"
         style="fill:#0071d5;fill-opacity:1;stroke-width:0.00669645"
         id="tspan2319" /></text>
    <text
       xml:space="preserve"
       id="text2321"
       style="font-size:0.888889px;line-height:1.25;font-family:Cooper;-inkscape-font-specification:Cooper;white-space:pre;shape-inside:url(#rect2323);" />
    <path
       sodipodi:nodetypes="cc"
       inkscape:connector-curvature="0"
       id="path4733"
       d="m -12.822099,14.312927 c 1.247068,-4.0243 8.1587074,-4.3469352 9.3942071,-0.08059"
       style="fill:none;stroke:none;stroke-width:0.0453698;stroke-linecap:butt;stroke-linejoin:miter;stroke-miterlimit:4;stroke-dasharray:none;stroke-opacity:1" />
    <path
       style="font-style:normal;font-variant:normal;font-weight:normal;font-stretch:normal;font-size:19.1797px;line-height:1.25;font-family:'Brush Script MT';-inkscape-font-specification:'Brush Script MT';letter-spacing:0px;word-spacing:0px;fill:#ff9f00;fill-opacity:1;stroke:none;stroke-width:0.0212235;stroke-miterlimit:4;stroke-dasharray:none;stroke-opacity:1"
       d="m 32.293398,9.0144892 c -0.05066,0.00138 -0.106883,0.02192 -0.168692,0.061649 -0.08991,0.05777 -0.14629,0.1190907 -0.169123,0.1839333 -0.01504,0.042733 -0.01132,0.083798 0.01132,0.1232209 0.02403,0.039887 0.05446,0.066337 0.09129,0.079345 0.06926,0.024391 0.147599,0.00892 0.234999,-0.046433 0.0874,-0.05535 0.142252,-0.1147016 0.164566,-0.1780596 0.01817,-0.05158 0.01717,-0.095815 -0.003,-0.1327156 -0.01961,-0.038435 -0.05152,-0.065427 -0.09572,-0.080941 -0.02072,-0.00729 -0.0426,-0.010627 -0.06562,-0.010005 z"
       id="path924" />
    <text
       xml:space="preserve"
       style="font-size:1.17925px;line-height:1.25;font-family:Cooper;-inkscape-font-specification:Cooper;fill:#007100;fill-opacity:1;stroke-width:0.00671178"
       x="0.95280248"
       y="1.2183381"
       id="text2301-6"><tspan
         sodipodi:role="line"
         id="tspan2299-6"
         x="0.95280248"
         y="1.2183381"
         style="fill:#007100;fill-opacity:1;stroke-width:0.00671178">Donate by Phone</tspan></text>
    <text
       xml:space="preserve"
       style="font-size:1.40845px;line-height:1.25;font-family:Cooper;-inkscape-font-specification:Cooper;fill:#ff0000;fill-opacity:1;stroke-width:0.0104167"
       x="17.092793"
       y="-16.363077"
       id="text2367"
       transform="rotate(90)"><tspan
         sodipodi:role="line"
         id="tspan2365"
         x="17.092793"
         y="-16.363077"
         style="fill:#ff0000;fill-opacity:1;stroke-width:0.0104167">Ca$h</tspan></text>
  </g>
</svg>
