<?xml version="1.0" encoding="UTF-8" standalone="no"?>
<svg
   xmlns:dc="http://purl.org/dc/elements/1.1/"
   xmlns:cc="http://creativecommons.org/ns#"
   xmlns:rdf="http://www.w3.org/1999/02/22-rdf-syntax-ns#"
   xmlns:svg="http://www.w3.org/2000/svg"
   xmlns="http://www.w3.org/2000/svg"
   xmlns:xlink="http://www.w3.org/1999/xlink"
   xmlns:sodipodi="http://sodipodi.sourceforge.net/DTD/sodipodi-0.dtd"
   xmlns:inkscape="http://www.inkscape.org/namespaces/inkscape"
   width="12in"
   height="18in"
   viewBox="0 0 12 18"
   version="1.1"
   id="svg8"
   inkscape:version="1.0.1 (3bc2e813f5, 2020-09-07)"
   sodipodi:docname="Donation Post Side Right (Draft 1).svg">
  <defs
     id="defs2">
    <rect
       x="-3.4953704"
       y="3.0324074"
       width="5.1388889"
       height="1.8055556"
       id="rect2323" />
    <path
       sodipodi:nodetypes="cc"
       inkscape:connector-curvature="0"
       id="path7406"
       d="m 376.48671,1207.3178 c 6.20181,-20.0133 40.57418,-21.6178 46.71846,-0.4008"
       style="fill:none;stroke:none;stroke-width:0.36;stroke-linecap:butt;stroke-linejoin:miter;stroke-miterlimit:4;stroke-dasharray:none;stroke-opacity:1" />
  </defs>
  <sodipodi:namedview
     id="base"
     pagecolor="#ffffff"
     bordercolor="#666666"
     borderopacity="1.0"
     inkscape:pageopacity="0.0"
     inkscape:pageshadow="2"
     inkscape:zoom="0.59"
     inkscape:cx="589.43093"
     inkscape:cy="937.206"
     inkscape:document-units="in"
     inkscape:current-layer="layer1"
     inkscape:document-rotation="0"
     showgrid="true"
     units="in"
     inkscape:snap-global="false"
     inkscape:window-width="1920"
     inkscape:window-height="1017"
     inkscape:window-x="-8"
     inkscape:window-y="-8"
     inkscape:window-maximized="1"
     inkscape:snap-nodes="true"
     inkscape:snap-others="false"
     inkscape:snap-smooth-nodes="true"
     inkscape:object-paths="true"
     inkscape:snap-intersection-paths="true"
     inkscape:snap-grids="false"
     inkscape:snap-to-guides="false">
    <inkscape:grid
       type="xygrid"
       id="grid849"
       units="in"
       spacingx="0.25"
       spacingy="0.25"
       empspacing="4" />
  </sodipodi:namedview>
  <metadata
     id="metadata5">
    <rdf:RDF>
      <cc:Work
         rdf:about="">
        <dc:format>image/svg+xml</dc:format>
        <dc:type
           rdf:resource="http://purl.org/dc/dcmitype/StillImage" />
        <dc:title></dc:title>
        <dc:creator>
          <cc:Agent>
            <dc:title>Doctor Wizard</dc:title>
          </cc:Agent>
        </dc:creator>
        <dc:rights>
          <cc:Agent>
            <dc:title>Copyright 2021+ by Doctor Wizard</dc:title>
          </cc:Agent>
        </dc:rights>
        <dc:publisher>
          <cc:Agent>
            <dc:title>Doctor Wizard</dc:title>
          </cc:Agent>
        </dc:publisher>
        <dc:source>Doctor Wizard</dc:source>
        <dc:contributor>
          <cc:Agent>
            <dc:title>Doctor Wizard</dc:title>
          </cc:Agent>
        </dc:contributor>
      </cc:Work>
    </rdf:RDF>
  </metadata>
  <g
     inkscape:label="Layer 1"
     inkscape:groupmode="layer"
     id="layer1">
    <path
       style="fill:#000000;stroke-width:0.00268244"
       d="m 5.0658369,6.9954847 -0.00806,-0.00357 -0.0072,-0.0077 -0.0072,-0.0077 -0.00283,-0.00755 -0.00283,-0.00755 4.5e-6,-0.8012044 4.3e-6,-0.8012052 0.00473,-0.0092 0.00473,-0.0092 0.010307,-0.00825 0.010307,-0.00825 0.8045653,-7.273e-4 0.8045644,-7.272e-4 0.00997,0.00509 0.00998,0.00509 0.00437,0.00495 0.00437,0.00495 0.00437,0.00858 0.00437,0.00858 v 0.8006669 0.8006663 l -0.00283,0.00755 -0.00283,0.00755 -0.0072,0.0077 -0.0072,0.0077 -0.00864,0.0037 -0.00864,0.0037 -0.8014654,-1.047e-4 -0.8014656,-1.049e-4 -0.00806,-0.00357 z m 1.3920112,-0.2375498 0.0069,-0.00262 0.00538,-0.00877 0.00538,-0.00877 8e-6,-0.5761864 7.3e-6,-0.5761877 -0.00407,-0.00787 -0.00407,-0.00787 -0.00791,-0.00407 -0.00791,-0.00407 -0.5794446,7.274e-4 -0.5794437,7.272e-4 -0.00743,0.00745 -0.00745,0.00743 v 0.5830889 0.5830881 l 0.00538,0.00597 0.00538,0.00597 0.00538,0.00218 0.00538,0.00218 0.5758794,2.094e-4 0.5758793,2.087e-4 0.0069,-0.00262 z M 5.550144,6.5183348 l -0.00926,-0.00298 -0.0097,-0.0097 -0.0097,-0.0097 -0.00327,-0.011881 -0.00327,-0.011881 7.272e-4,-0.3165279 7.273e-4,-0.3165286 0.00669,-0.011664 0.00669,-0.011663 0.012098,-0.00713 0.012098,-0.00713 h 0.3192109 0.3192107 l 0.00734,0.00203 0.00734,0.00203 0.00957,0.00841 0.00957,0.0084 0.00458,0.00831 0.00458,0.00831 8e-4,0.3071401 8.728e-4,0.3071395 -0.00167,0.016516 -0.00167,0.016516 -0.00698,0.010741 -0.00698,0.010741 -0.010958,0.00625 -0.010958,0.00625 -0.3192108,4.176e-4 -0.3192092,4.181e-4 z M 6.9556164,6.3997616 V 5.8002363 H 7.1956959 7.435773 V 5.6808681 5.5614999 H 7.5551412 7.6745094 V 5.4421303 5.3227621 H 7.9145889 8.1546661 V 5.4421303 5.5614999 H 8.0339579 7.9132484 v 0.119341 0.1193411 l 0.1200382,7.272e-4 0.1200382,7.274e-4 7.273e-4,0.2394073 7.272e-4,0.2394081 H 8.2741326 8.3934872 V 6.1610825 6.0417143 H 8.6335676 8.8736463 V 5.5615293 5.081345 L 8.7536068,5.0820723 8.6335686,5.0827997 8.6328414,5.322207 8.632114,5.5616151 H 8.5127589 8.3934046 V 5.3215547 5.081476 H 8.1533275 7.9132488 V 4.8427384 4.6040016 H 8.0339583 8.1546678 V 4.7233698 4.842738 H 8.6334833 9.1122987 V 4.6026597 4.3625819 H 8.9929305 8.8735637 V 4.2432123 4.1238441 H 8.7541941 8.6348259 V 4.0031346 3.8824238 H 8.7541941 8.8735637 V 3.7630556 3.6436887 H 8.3934046 7.9132488 V 3.8837659 4.1238452 H 8.0339583 8.1546665 V 4.2432134 4.362583 H 8.2740347 8.3934029 V 4.2432134 4.1238452 H 8.5127724 8.6321406 V 4.3625819 4.6013187 H 8.3934046 8.1546671 V 4.4819505 4.3625823 H 8.033959 7.9132495 V 4.2432127 4.1238445 H 7.7938813 7.6745117 V 4.2432127 4.3625823 H 7.5551435 7.4357753 V 4.2432127 4.1238445 H 7.5551435 7.6745117 V 4.0031066 3.8823686 L 7.5544736,3.8830958 7.434434,3.8838231 7.4337068,4.0038626 7.4329795,4.1239022 H 6.9541895 6.4754009 V 4.0031925 3.8824819 H 6.3560322 6.2366641 V 3.763122 3.6437546 H 6.1159455 5.9952357 V 3.5230447 3.4023349 H 5.8758668 5.7564981 V 3.2829654 3.1635966 H 5.3970514 5.037604 V 3.0442271 2.9248602 h 0.5995254 0.599526 V 3.2843061 3.6437544 H 6.3560236 6.4753918 V 3.5243997 3.4050451 L 6.7148,3.4043177 6.9542081,3.4035905 6.9549353,3.283551 6.9556626,3.1635115 H 6.7155662 6.4754591 V 3.0441433 2.9247764 H 7.0749853 7.6745105 V 3.0441161 3.1634559 L 7.5544723,3.1641832 7.4344328,3.1649104 V 3.403648 3.6423855 l 0.1200395,7.274e-4 0.1200382,7.272e-4 V 3.5244434 3.4050481 H 8.0339587 8.3934046 V 3.2843384 3.1636278 H 8.153326 7.9132488 V 2.8041819 2.4447337 H 8.0339583 8.1546665 V 2.3253795 2.2060261 L 8.394076,2.2052987 8.6334841,2.2045715 8.6342113,1.9651641 8.6349386,1.7257559 h 0.238723 0.2387216 V 1.9658354 2.2059126 H 8.9930137 8.8736468 V 2.3252808 2.4446503 H 8.9930137 9.1123832 V 2.6847296 2.9248083 H 9.2330941 9.3538036 V 3.1648861 3.4049648 H 9.4731718 9.59254 V 3.5243344 3.6437026 H 9.4731718 9.3538036 V 3.7630708 3.882439 H 9.8326185 10.311435 V 4.0031485 4.123858 H 10.192074 10.072699 V 4.3625964 4.6013332 H 9.9519949 9.8312908 V 4.481965 4.3625968 H 9.7119158 9.5925476 V 4.481965 4.6013332 H 9.4731794 9.3538112 V 4.7220427 4.8427522 H 9.8326294 10.311445 V 4.9621218 5.08149 h -0.119362 -0.119375 v 0.2400782 0.240078 h 0.119375 0.119362 V 5.442278 5.3229098 h 0.240078 0.240079 V 5.0828316 4.8427529 h -0.119335 -0.119334 l -7.27e-4,-0.1200395 -7.28e-4,-0.1200396 -0.12004,-7.273e-4 -0.120039,-7.272e-4 V 4.4818796 4.3625398 h 0.359439 0.359447 V 4.9620643 5.5615896 H 10.670832 10.311387 V 5.8016683 6.041747 h -0.119375 -0.119375 v 0.2400778 0.2400787 h 0.119375 0.119375 V 6.4011939 6.2804844 h 0.120704 0.120704 V 6.1611162 6.041748 h 0.238737 0.238737 v 0.2400779 0.2400786 h -0.119375 -0.119375 v 0.1193682 0.1193682 h 0.119375 0.119375 V 6.8800091 6.9993773 H 10.670824 10.311377 V 6.8800098 6.7606411 H 9.592483 8.8735889 V 6.8800093 6.9993775 H 8.3934308 7.913275 V 6.5205525 6.0417371 H 7.5538269 7.1943795 V 6.1611053 6.2804735 H 7.434458 7.6745367 V 6.5205529 6.7606316 H 7.5551679 7.4357992 V 6.6412628 6.5218941 H 7.3150897 7.1943802 V 6.6412623 6.7606305 H 7.3137484 7.4331166 V 6.8799987 6.9993669 H 7.1943802 6.9556432 Z M 8.3934046,6.6411813 V 6.5218131 H 8.2740364 8.1546682 v 0.1193682 0.1193696 h 0.1193682 0.1193682 z m 0.4801582,0 V 6.5218131 H 9.3523782 9.8311931 V 6.2817339 6.0416561 H 9.7118182 9.59245 V 6.1610243 6.2803925 H 9.4730881 9.3537193 V 6.1610248 6.0416561 H 9.2330095 9.1122996 v 0.1193546 0.1193547 l -0.2394082,7.264e-4 -0.2394073,7.273e-4 -7.273e-4,0.239408 -7.273e-4,0.2394075 h 0.1207258 0.1207231 z m 1.6792072,0 V 6.5218131 h 0.119375 0.119375 V 6.4011036 6.2803941 h -0.119334 -0.119348 l -7.27e-4,0.1200395 -7.27e-4,0.1200382 -0.120039,7.272e-4 -0.12004,7.274e-4 v 0.1193397 0.1193424 h 0.120704 0.120704 z M 9.8311931,5.4407889 V 5.0813421 H 9.471747 9.1122996 V 5.4407889 5.8002363 H 9.471747 9.8311931 Z m -0.4774738,0.00131 V 5.3227311 H 9.4730888 9.592457 V 5.4420979 5.5614661 H 9.4730888 9.3537193 Z m 0,-1.4391293 V 3.8822617 H 9.1136406 8.8735628 V 4.0029726 4.1236821 H 9.1136406 9.3537193 Z M 6.7141967,3.76289 V 3.6435218 H 6.5948285 6.4754589 V 3.76289 3.8822582 h 0.1193696 0.1193682 z m 0.4801565,0 V 3.6435218 H 7.074985 6.9556154 V 3.76289 3.8822582 H 7.074985 7.1943532 Z M 9.1122996,3.522812 V 3.4021025 H 8.99293 8.8735632 V 3.522812 3.6435215 H 8.99293 9.1122996 Z M 8.6348251,3.0439958 V 2.9246276 H 8.7541933 8.8735629 V 3.0439958 3.163364 H 8.9929297 9.1122993 V 3.0439958 2.9246278 H 8.99293 8.8735628 V 2.6845491 2.4444705 H 8.7528532 8.6321437 V 2.5638387 2.6832069 H 8.5127755 8.393406 V 2.5638387 2.4444705 H 8.2740378 8.1546696 V 2.6845491 2.9246278 H 8.2740378 8.393406 V 3.043996 3.1633642 H 8.5141168 8.6348264 Z M 6.9556164,5.2020207 V 4.8425727 H 6.8349069 6.7141974 V 4.9619422 5.0813104 H 6.3547493 5.9953026 V 4.9619422 4.8425727 H 5.8759344 5.7565648 V 4.9619422 5.0813104 H 5.6358552 5.5151453 V 4.9619422 4.8425727 H 5.6358548 5.7565643 V 4.602494 4.3624167 h 0.1193424 0.1193397 l 7.274e-4,0.1200382 7.272e-4,0.1200381 0.1200395,7.273e-4 0.1200396,7.273e-4 V 4.7232887 4.8426298 H 6.4755169 6.7142545 V 4.7232887 4.6039476 L 6.834294,4.6032203 6.9543335,4.602493 6.9550607,4.4824549 6.9557881,4.3624167 h 0.1193126 0.1193139 l 7.272e-4,0.1200382 7.274e-4,0.1200381 0.2394073,7.273e-4 0.2394075,7.273e-4 V 4.7233022 4.8426569 H 7.4346326 7.1945554 v 0.3594482 0.359446 H 7.075186 6.9558171 Z M 5.0376708,4.4817856 V 3.8822617 H 5.1570404 5.2764086 V 3.7629212 3.6435539 H 5.157039 5.0376695 V 3.5241857 3.4048162 H 5.2764071 5.5151439 V 3.8836318 4.3624479 H 5.3957757 5.2764075 V 4.7218946 5.081342 H 5.1570393 5.0376698 Z m 1.4377883,0 V 4.362416 H 6.5948286 6.7141968 V 4.4817856 4.6011524 H 6.594828 6.4754591 Z M 10.55277,4.0029686 V 3.8822618 h 0.238738 0.238738 V 4.0029727 4.1236822 H 10.791508 10.55277 Z M 9.832982,3.6417336 9.831222,3.6399136 V 3.5209942 3.4020722 H 9.7118575 9.5924879 V 3.1633348 2.9245979 h 0.1193682 0.119375 V 3.0439648 3.1633343 H 9.9519352 10.072639 V 3.0439648 2.9245979 h 0.119362 0.119375 V 3.0439648 3.1633343 H 10.192014 10.072639 V 3.403413 3.6434917 H 9.9537118 9.8347844 Z M 10.311351,3.5241529 V 3.4047833 h 0.120704 0.120704 V 3.5241529 3.6435211 H 10.432055 10.311351 Z M 10.791508,3.2827333 V 3.1633651 H 10.672133 10.552772 V 3.0439969 2.9246287 h 0.119361 0.119375 v 0.1193682 0.1193682 h 0.119375 0.119375 v 0.1193682 0.1193696 h -0.119375 -0.119375 z m -5.7256711,-0.6037442 -0.00806,-0.00415 -0.0064,-0.00582 -0.0064,-0.00582 -0.0037,-0.00864 -0.0037,-0.00864 V 1.8450608 1.04418 l 0.0037,-0.00864 0.0037,-0.00864 0.0077,-0.0072 0.0077,-0.0072 0.00755,-0.00283 0.00755,-0.00283 0.8012045,3.7e-6 0.8012052,4.3e-6 0.0092,0.00473 0.0092,0.00473 0.00825,0.010307 0.00825,0.010307 7.272e-4,0.8045913 7.274e-4,0.8045921 -0.00437,0.00861 -0.00437,0.00861 -0.00437,0.00495 -0.00437,0.00495 -0.00995,0.00509 -0.00995,0.00509 -0.8014859,-1.53e-5 -0.801486,-1.6e-5 -0.00806,-0.00415 z m 1.3936156,-0.2385877 0.00787,-0.00407 0.00407,-0.00787 0.00407,-0.00787 -7.2e-6,-0.5761864 -8.8e-6,-0.5761884 -0.00538,-0.00877 -0.00538,-0.00877 -0.0069,-0.00262 -0.0069,-0.00262 -0.5791238,7.272e-4 -0.5791244,7.273e-4 -0.00745,0.00743 -0.00743,0.00743 -7.274e-4,0.5791245 -7.272e-4,0.5791237 0.00262,0.0069 0.00262,0.0069 0.00877,0.00538 0.00877,0.00538 0.5761877,8e-6 0.5761877,7.3e-6 0.00787,-0.00407 z m -0.9031098,-0.2372001 -0.00842,-0.00203 -0.00911,-0.0056 -0.00911,-0.0056 -0.00662,-0.011528 -0.00662,-0.011541 -7.274e-4,-0.3165286 -7.272e-4,-0.3165279 0.00327,-0.01188 0.00327,-0.01188 0.00976,-0.00976 0.00976,-0.00976 0.011881,-0.00327 0.011881,-0.00327 0.3165279,7.273e-4 0.3165286,7.274e-4 0.012098,0.00713 0.012098,0.00713 0.00669,0.011663 0.00669,0.011664 V 1.842271 2.1614811 l -0.00203,0.00734 -0.00203,0.00732 -0.00841,0.00957 -0.00841,0.00957 -0.00831,0.00458 -0.00831,0.00458 -0.3165285,4.174e-4 -0.3165287,4.183e-4 z M 6.9556164,2.4444705 V 2.2057613 H 7.0749859 7.1943541 V 2.4444988 2.6832364 H 7.0749853 6.9556164 Z M 7.435773,2.3237606 V 1.9643138 H 7.5551412 7.6745094 V 1.8449728 1.7256046 H 7.5537999 7.4330904 V 1.8449728 1.9643423 H 7.1943532 6.9556164 V 1.8449728 1.7256046 H 7.0749859 7.1943541 V 1.6048951 1.4841856 H 7.0749859 6.9556164 V 1.364816 1.2454478 H 7.0749859 7.1943541 V 1.1260782 1.00671 H 7.3137237 7.4330919 V 1.2454477 1.4841845 H 7.5538014 7.6745109 V 1.3648149 1.2454467 H 8.0339591 8.393405 V 1.1260772 1.006709 H 8.5127746 8.6321428 V 1.2454482 1.484185 H 8.2726949 7.9132488 V 1.7242637 1.9643423 H 8.0339583 8.1546665 V 1.8449728 1.7256046 H 8.2740347 8.3934029 V 1.8449728 1.9643423 H 8.2740618 8.1547207 L 8.1539934,2.0843819 8.1532662,2.20442 H 8.033898 7.9145311 L 7.9138039,2.0843819 7.9130766,1.9643423 H 7.7937368 7.6743956 V 2.3237889 2.6832364 H 7.5550274 7.4356592 Z m 1.9461115,0.3549885 -0.00806,-0.00429 -0.00495,-0.00437 -0.00495,-0.00437 -0.00509,-0.00998 -0.00509,-0.00998 7.272e-4,-0.8045638 7.274e-4,-0.8045644 0.00825,-0.010307 0.00825,-0.010307 0.0092,-0.00473 0.0092,-0.00473 0.8014659,-4.4e-6 0.801465,-4.3e-6 0.0087,0.0037 0.0087,0.0037 0.0072,0.0077 0.0072,0.0077 0.0028,0.00755 0.0028,0.00755 V 1.845673 2.6468774 l -0.0047,0.0092 -0.0047,0.0092 -0.01031,0.00825 -0.01031,0.00825 -0.805153,5.23e-4 -0.8051544,5.221e-4 -0.00806,-0.00429 z m 1.4008445,-0.2430568 0.0075,-0.00745 V 1.8449436 1.2616345 l -0.0075,-0.00743 -0.0075,-0.00743 H 10.191978 9.6086685 l -0.00745,0.00743 -0.00743,0.00743 -7.272e-4,0.5786757 -7.273e-4,0.5786757 0.0032,0.00769 0.0032,0.00769 0.00826,0.00502 0.00826,0.00502 0.580017,-6.277e-4 0.580017,-6.27e-4 z m -0.9103378,-0.232491 -0.00841,-0.00203 -0.00909,-0.0056 -0.00909,-0.0056 -0.00665,-0.011528 -0.00665,-0.011541 V 1.8450026 1.5231096 l 0.00665,-0.011664 0.00665,-0.011663 0.01207,-0.00713 0.01207,-0.00713 h 0.3219198 0.321893 l 0.01207,0.00713 0.01207,0.00713 0.0066,0.011663 0.0066,0.011664 8.01e-4,0.3125039 8e-4,0.3125053 -0.0016,0.011026 -0.0016,0.011026 -0.0071,0.01085 -0.0071,0.01085 -0.01098,0.00625 -0.01099,0.00625 -0.316528,4.181e-4 -0.3165266,4.183e-4 z M 8.8735628,1.126051 V 1.0066828 H 8.9929296 9.1122992 V 1.126051 1.2454192 H 8.9929296 8.8735628 Z"
       id="path2220" />
    <path
       style="fill:#00006e;fill-opacity:1;stroke:#000000;stroke-width:0.00196052;stroke-miterlimit:4;stroke-dasharray:none;stroke-opacity:1"
       d="m 4.5408401,15.053063 0.00785,-1.93981 0.059184,-0.251296 c 0.2412903,-1.024564 0.7419039,-1.68791 1.6420905,-2.175882 0.7626101,-0.413395 1.7736386,-0.422407 2.5153567,-0.02242 0.9815958,0.529342 1.5277417,1.287401 1.7102517,2.373852 0.04242,0.252505 0.04521,0.382827 0.04521,2.112237 v 1.843128 H 7.526885 4.5329878 Z m 5.7226349,-0.0739 c -0.0081,-1.653392 -0.01092,-1.754171 -0.05562,-1.965476 C 10.064077,12.333997 9.7808101,11.791813 9.3838582,11.436529 9.141555,11.21966 8.8007402,10.984573 8.5796778,10.88182 7.782175,10.511131 6.8606389,10.586041 6.1223607,11.081572 5.4210989,11.552256 5.0582595,12.08343 4.8607394,12.928507 l -0.060451,0.258642 -0.00807,1.767383 -0.00807,1.767383 h 2.7439179 2.7439177 z m -5.0432487,1.151569 c 0,-0.161882 0.025829,-0.186774 0.078922,-0.07608 0.045029,0.09389 0.1419967,0.174603 0.2097493,0.174603 0.053301,0 0.1454259,-0.0769 0.1454259,-0.121404 0,-0.04775 -0.075835,-0.1012 -0.197888,-0.139455 -0.1585829,-0.04971 -0.2133614,-0.106539 -0.2133614,-0.22137 0,-0.176558 0.1968444,-0.291647 0.3488299,-0.20395 0.03662,0.02113 0.05099,0.02113 0.057518,0 0.00476,-0.01549 0.023271,-0.02816 0.041073,-0.02816 0.024001,0 0.032364,0.03501 0.032364,0.135478 0,0.104003 -0.00797,0.13548 -0.034269,0.13548 -0.018847,0 -0.034599,-0.01941 -0.034999,-0.04311 -0.00261,-0.15242 -0.2330182,-0.232146 -0.2972134,-0.102822 -0.035405,0.07133 0.00223,0.111042 0.1486279,0.156933 0.181354,0.05684 0.2292771,0.108593 0.2292771,0.247594 0,0.09563 -0.010867,0.125235 -0.064107,0.174605 -0.075036,0.06959 -0.2283286,0.08111 -0.3053428,0.02296 -0.042694,-0.03224 -0.051604,-0.03224 -0.076427,0 -0.051027,0.06629 -0.068193,0.03828 -0.068193,-0.111299 z m 0.5711288,0.107561 c 3.92e-5,-0.01536 0.020613,-0.03372 0.045743,-0.0408 0.04238,-0.01194 0.045698,-0.0336 0.045698,-0.298254 0,-0.258694 -0.00431,-0.288247 -0.045698,-0.316137 -0.077917,-0.05247 -0.05158,-0.06818 0.1142356,-0.06818 0.1527384,0 0.2114576,0.02899 0.1142365,0.0564 -0.038885,0.01097 -0.045698,0.0336 -0.045698,0.151897 v 0.139014 l 0.1299026,-0.0074 0.1299026,-0.0074 -0.00215,-0.08006 c -0.00115,-0.04403 -0.00307,-0.103263 -0.00422,-0.131627 -0.00123,-0.02966 -0.021489,-0.05704 -0.047771,-0.06445 -0.097221,-0.02742 -0.038501,-0.0564 0.1142357,-0.0564 0.1501509,0 0.2090797,0.03048 0.1256601,0.06499 -0.02791,0.01155 -0.034269,0.07082 -0.034269,0.31945 0,0.25493 0.00568,0.305271 0.034269,0.305271 0.018847,0 0.034269,0.01433 0.034269,0.03186 0,0.02336 -0.040122,0.03043 -0.1505985,0.02648 -0.1583817,-0.0057 -0.2121772,-0.02621 -0.1295064,-0.04953 0.056742,-0.01599 0.066142,-0.04976 0.055045,-0.197636 l -0.00804,-0.106754 H 6.1432408 6.0198818 v 0.137785 c 0,0.117069 0.00684,0.139722 0.045698,0.150667 0.091987,0.02594 0.041719,0.05257 -0.1142872,0.06054 -0.1084571,0.0056 -0.1599661,-8.45e-4 -0.1599308,-0.01974 z m 0.7997008,-0.0028 c 1.5e-6,-0.01694 0.020568,-0.03079 0.045698,-0.03079 0.043247,0 0.045698,-0.01642 0.045698,-0.306248 0,-0.284612 -0.00322,-0.30735 -0.045698,-0.321882 -0.1148994,-0.03932 -0.024039,-0.06158 0.2513195,-0.06158 H 7.185087 v 0.13548 c 0,0.138861 -0.03387,0.182522 -0.058738,0.07572 -0.026198,-0.11255 -0.1486286,-0.178721 -0.2521519,-0.136286 -0.046397,0.01902 -0.054668,0.03905 -0.054668,0.13241 0,0.06051 0.00935,0.116236 0.020783,0.123853 0.037011,0.02466 0.093491,-0.01485 0.1075486,-0.07524 0.00752,-0.03237 0.028009,-0.05886 0.045497,-0.05886 0.024132,0 0.031796,0.04156 0.031796,0.172427 0,0.188828 -0.037464,0.232572 -0.084395,0.09853 -0.017626,-0.05035 -0.041428,-0.0739 -0.074691,-0.0739 -0.044999,0 -0.048286,0.0111 -0.041964,0.141637 l 0.00684,0.141637 0.087423,0.0077 c 0.1100131,0.0098 0.1894221,-0.04424 0.2094206,-0.142402 0.025506,-0.125205 0.060045,-0.08432 0.052718,0.06241 l -0.00684,0.137134 -0.2913057,0.0045 c -0.2200425,0.0034 -0.291305,-0.003 -0.2913019,-0.02628 z m 0.6853967,0 c 1.31e-5,-0.01694 0.020583,-0.03079 0.04572,-0.03079 0.043247,0 0.045698,-0.01642 0.045698,-0.306248 0,-0.284612 -0.00322,-0.30735 -0.045698,-0.321882 -0.096684,-0.03308 -0.038532,-0.06158 0.1256594,-0.06158 0.1646557,0 0.2222973,0.02851 0.1249703,0.06182 -0.043747,0.01497 -0.046019,0.0329 -0.039983,0.315724 l 0.00637,0.299853 0.0732,0.0076 c 0.099268,0.01035 0.1641764,-0.03205 0.2032105,-0.132779 0.017956,-0.04633 0.042787,-0.08424 0.055182,-0.08424 0.024423,0 0.02592,0.122629 0.00268,0.221692 l -0.014431,0.06158 H 7.5677152 c -0.2178413,0 -0.2913196,-0.0077 -0.2913019,-0.03079 z m 0.6854291,0.0028 c 6.2e-6,-0.01536 0.020575,-0.03372 0.045705,-0.0408 0.042517,-0.01199 0.045698,-0.0336 0.045698,-0.310779 0,-0.277797 -0.00299,-0.297897 -0.044061,-0.297897 -0.059253,0 -0.1152288,0.0643 -0.1312697,0.150765 -0.022603,0.121836 -0.053139,0.07766 -0.053139,-0.07687 v -0.147795 h 0.2940706 0.2940699 l 0.015252,0.123969 c 0.021028,0.170936 -0.00606,0.200657 -0.064061,0.07032 -0.037464,-0.08416 -0.062179,-0.10982 -0.1116598,-0.115946 l -0.063546,-0.0078 0.00646,0.303459 c 0.00629,0.295839 0.00775,0.303661 0.059153,0.311515 0.029001,0.0045 0.049222,0.01936 0.044953,0.03318 -0.011082,0.03585 -0.3375975,0.04043 -0.3375837,0.0047 z m 0.5483715,-0.0011 c -1.55e-5,-0.01598 0.02311,-0.03262 0.051381,-0.03695 0.050052,-0.0077 0.051404,-0.01567 0.051404,-0.303462 0,-0.282911 -0.00223,-0.296632 -0.051404,-0.319905 -0.1014481,-0.04799 -0.046842,-0.06189 0.2429434,-0.06189 0.2859373,0 0.2947426,0.0015 0.3081255,0.05542 0.039369,0.15838 -0.011828,0.28308 -0.057824,0.140834 -0.031734,-0.09815 -0.1476218,-0.158677 -0.2351202,-0.12281 -0.051727,0.02121 -0.058209,0.03765 -0.058209,0.147635 0,0.146648 0.047218,0.168203 0.1095869,0.05003 0.021405,-0.04056 0.046634,-0.07381 0.056057,-0.0739 0.00942,-9.1e-5 0.017135,0.07744 0.017135,0.172271 0,0.09484 -0.00771,0.172358 -0.017135,0.172273 -0.00942,-9.1e-5 -0.034645,-0.03334 -0.056057,-0.0739 -0.021405,-0.04056 -0.055336,-0.07374 -0.075397,-0.07374 -0.029968,0 -0.035252,0.02528 -0.029622,0.141637 l 0.00684,0.141637 0.087918,0.0077 c 0.099398,0.0088 0.1548159,-0.03172 0.1983565,-0.145049 0.03814,-0.09927 0.067917,-0.09033 0.067548,0.02025 -6.682e-4,0.19724 0.00998,0.190903 -0.320675,0.190903 -0.212124,0 -0.2958416,-0.0082 -0.2958608,-0.02908 z m 0.6949094,0.01881 c -0.023179,-0.025 -0.00553,-0.0485 0.041888,-0.05575 0.049552,-0.0076 0.051642,-0.01832 0.057849,-0.297474 0.00646,-0.288867 0.00629,-0.289677 -0.051404,-0.31802 -0.1150852,-0.05654 -0.058231,-0.0751 0.2025994,-0.06617 0.2981961,0.01021 0.3564311,0.04014 0.3564311,0.183206 0,0.08638 -0.0398,0.144897 -0.116356,0.171094 -0.04678,0.01601 -0.04684,0.01681 -0.0031,0.04983 0.02444,0.01845 0.05752,0.08391 0.0735,0.145455 0.03234,0.124578 0.03961,0.130698 0.08156,0.06883 0.01607,-0.02368 0.03707,-0.03459 0.04668,-0.02423 0.02712,0.02922 -0.06935,0.152538 -0.126438,0.161649 -0.07589,0.01211 -0.131419,-0.05774 -0.144367,-0.181577 -0.01367,-0.130786 -0.04903,-0.183733 -0.1227051,-0.183733 -0.05072,0 -0.054322,0.0091 -0.054322,0.137785 0,0.117069 0.00684,0.139722 0.045698,0.150667 0.02513,0.0071 0.045698,0.02544 0.045698,0.0408 0,0.02634 -0.3099081,0.04275 -0.33319,0.01765 z m 0.4245775,-0.445482 c 0.09227,-0.09948 0.04145,-0.221693 -0.09219,-0.221693 h -0.090585 v 0.135479 c 0,0.13411 6.912e-4,0.135479 0.068538,0.135479 0.03808,0 0.08885,-0.0219 0.1142351,-0.04926 z M 6.002341,14.154157 6.010651,13.236424 6.070988,13.057957 c 0.033186,-0.09816 0.094377,-0.247655 0.1359854,-0.332219 0.091156,-0.185261 0.3674007,-0.489389 0.551412,-0.607068 0.4884412,-0.312371 1.1190479,-0.312371 1.6073278,0 0.071518,0.04575 0.2134512,0.171865 0.3154054,0.280248 0.1477508,0.157067 0.2046175,0.239552 0.2802063,0.406437 0.1531123,0.338039 0.1680135,0.470536 0.1606759,1.428685 l -0.00629,0.825189 -1.5608231,0.0064 -1.5608232,0.0064 z m 1.6536986,0.74042 c -0.008,-0.04314 -0.031443,-0.09857 -0.052087,-0.123164 -0.035675,-0.04251 -0.033002,-0.04473 0.053846,-0.04473 0.058346,0 0.1041678,-0.01559 0.1267284,-0.04311 0.037227,-0.04541 0.1545201,-0.346399 0.1545201,-0.396522 0,-0.02009 0.019792,-0.02346 0.062832,-0.01069 0.12127,0.03598 0.6482229,-0.01641 0.7520934,-0.07475 0.1069957,-0.0601 0.2037959,-0.292348 0.1928837,-0.462774 -0.00268,-0.04249 -0.3763488,-0.241263 -0.6479632,-0.344712 -0.096099,-0.0366 -0.1542192,-0.07243 -0.1542192,-0.09508 0,-0.01999 -0.016067,-0.08169 -0.035698,-0.137117 C 8.0769803,13.07161 8.049792,13.047252 7.8468405,12.927097 7.664485,12.819134 7.6202831,12.782186 7.6197938,12.737314 7.619174,12.680549 7.4894525,12.123759 7.4682167,12.086713 c -0.028056,-0.04894 -0.048601,-0.0095 -0.074713,0.143255 -0.015376,0.08998 -0.05112,0.210502 -0.079429,0.267834 l -0.051473,0.104244 -0.073838,-0.175463 c -0.081275,-0.193141 -0.195186,-0.359019 -0.2246804,-0.327177 -0.010391,0.01122 -0.019254,0.188501 -0.019699,0.393962 -6.389e-4,0.296942 -0.00842,0.388724 -0.03794,0.447464 -0.047963,0.09543 -0.1404069,0.186468 -0.2720468,0.267912 -0.05784,0.03578 -0.1218775,0.08498 -0.1423001,0.109303 -0.020422,0.02433 -0.078292,0.182186 -0.1285993,0.350793 -0.088665,0.297165 -0.1128986,0.352445 -0.2252281,0.513769 -0.04804,0.06898 -0.0491,0.07606 -0.01142,0.07597 0.068284,-1.52e-4 0.1844753,-0.09029 0.2521842,-0.195638 0.034937,-0.05436 0.114927,-0.195011 0.1777567,-0.312568 0.151431,-0.283329 0.2682565,-0.409207 0.4735568,-0.510248 0.091391,-0.04498 0.1802757,-0.100237 0.1975224,-0.122797 0.048623,-0.0636 0.069667,-0.04945 0.085529,0.0575 0.016636,0.112181 0.011604,0.110084 0.1536498,0.064 l 0.1064434,-0.03454 v 0.09452 c 0,0.05198 -0.010921,0.125489 -0.024269,0.163346 -0.018002,0.05106 -0.017273,0.07134 0.00285,0.07856 0.084581,0.0304 0.1539672,0.149097 0.2036905,0.348457 0.028725,0.115158 0.071695,0.246504 0.09549,0.291882 0.043071,0.08213 0.043018,0.08308 -0.01119,0.209376 -0.029953,0.06978 -0.065974,0.157355 -0.080044,0.194612 -0.023517,0.06226 -0.035675,0.06774 -0.1503904,0.06774 -0.1194614,0 -0.1776728,0.02814 -0.1274357,0.06162 0.01301,0.0086 0.049338,0.07039 0.080722,0.137181 0.065673,0.139729 0.115354,0.162651 0.093154,0.04298 z m -2.2727474,-0.07807 c -0.052764,-0.06056 -0.052932,-0.0624 -0.011214,-0.124132 0.05244,-0.0776 0.056811,-0.0778 0.1196617,-0.0058 l 0.051012,0.05854 -0.052947,0.06636 -0.052948,0.06636 z m 4.2714989,-10e-4 c -0.05181,-0.05946 -0.05197,-0.06137 -0.01028,-0.12306 0.05274,-0.07805 0.05654,-0.07811 0.122899,-0.0021 l 0.05424,0.06225 -0.05712,0.06158 -0.05712,0.06158 -0.05263,-0.06039 z m -0.322064,-0.655371 c 0,-0.315124 0.012841,-0.374338 0.05741,-0.2648 0.021589,0.05304 0.034314,0.05542 0.29672,0.05542 0.266926,0 0.274359,-0.0015 0.281466,-0.05542 0.004,-0.03049 0.01687,-0.05542 0.02856,-0.05542 0.01169,0 0.02126,0.08313 0.02126,0.184743 0,0.175035 -0.02624,0.242984 -0.05231,0.135478 -0.01111,-0.04581 -0.03117,-0.04926 -0.285778,-0.04926 -0.2709446,0 -0.2739753,6.29e-4 -0.2877666,0.05988 -0.02281,0.098 0.02288,0.184541 0.1229495,0.232844 0.1137551,0.05491 0.09648,0.07677 -0.060658,0.07677 H 9.3327301 Z m -3.7926399,0.147186 c 0,-0.01389 0.023133,-0.03475 0.051404,-0.04637 0.1585106,-0.06515 0.2289821,-0.260066 0.1214797,-0.336009 -0.085011,-0.06005 -0.1366628,-0.01476 -0.1820514,0.159642 -0.023562,0.09054 -0.057924,0.162812 -0.088326,0.185769 -0.059269,0.04476 -0.196355,0.04809 -0.2471965,0.006 -0.084221,-0.06971 -0.1141821,-0.21735 -0.064445,-0.317546 0.018057,-0.03637 0.018057,-0.05774 0,-0.0772 -0.047465,-0.05118 -0.024462,-0.06633 0.1006955,-0.06633 0.1237216,0 0.1669598,0.0318 0.082513,0.06071 -0.067717,0.02317 -0.1624784,0.12915 -0.1624784,0.181711 0,0.02624 0.018632,0.07252 0.041404,0.102835 0.068684,0.09145 0.134093,0.04754 0.1772512,-0.118993 0.044154,-0.170386 0.1179277,-0.250895 0.2299008,-0.250895 0.1641833,0 0.2587746,0.190095 0.1906785,0.383197 -0.01576,0.0447 -0.015828,0.07593 -1.996e-4,0.09624 0.012726,0.01653 0.016374,0.03736 0.00811,0.04627 -0.024684,0.02661 -0.2587369,0.01844 -0.2587361,-0.009 z m 3.7771182,-0.719893 c -0.019248,-0.151904 3.808e-4,-0.213945 0.042203,-0.13337 0.016643,0.03206 0.030736,0.03419 0.076814,0.01154 0.04599,-0.02259 0.056435,-0.04553 0.056435,-0.123917 0,-0.05291 -0.010644,-0.117635 -0.023655,-0.143841 -0.031251,-0.06296 -0.1142488,-0.06192 -0.1296592,0.0015 -0.015968,0.06582 -0.04897,0.06253 -0.061796,-0.0062 -0.043539,-0.233062 -0.038693,-0.249777 0.047187,-0.162791 0.03228,0.0327 0.1674536,0.08742 0.3556039,0.14397 0.191256,0.05748 0.305865,0.104071 0.309838,0.125947 0.0041,0.02262 -0.101385,0.09258 -0.302725,0.20077 -0.1916567,0.102981 -0.3090321,0.180127 -0.3090321,0.203114 0,0.02038 -0.00938,0.03707 -0.020852,0.03707 -0.011467,0 -0.02963,-0.06928 -0.04036,-0.153952 z M 9.7668231,13.27138 c 0,-0.01397 -0.17384,-0.07192 -0.215742,-0.07192 -0.01723,0 -0.01628,0.160386 0.0011,0.179081 0.01595,0.0172 0.214687,-0.08201 0.214687,-0.107167 z M 5.7301552,13.670248 C 5.7233252,13.641998 5.6031134,13.553073 5.4238568,13.443633 5.2615959,13.344573 5.128837,13.250666 5.128837,13.234957 c 0,-0.02425 0.3103733,-0.115934 0.5902794,-0.174376 0.041919,-0.0087 0.081574,-0.03096 0.088122,-0.04936 0.00653,-0.01839 0.021083,-0.03345 0.032311,-0.03345 0.023041,0 0.022826,0.147126 -3.84e-4,0.258641 -0.015322,0.07362 -0.015484,0.07369 -0.043907,0.01826 -0.022765,-0.0444 -0.041036,-0.05241 -0.090441,-0.03964 -0.034054,0.0088 -0.063324,0.01722 -0.065043,0.01869 -0.00169,0.0015 -0.010283,0.06001 -0.019031,0.130053 -0.014493,0.116049 -0.011305,0.130015 0.035867,0.157233 0.044876,0.02589 0.057371,0.02241 0.093854,-0.02616 0.056319,-0.07498 0.065282,-0.05764 0.048624,0.09403 -0.014101,0.128343 -0.047871,0.168208 -0.06893,0.08137 z M 5.5686161,13.35342 c 0.00584,-0.05081 0.00821,-0.09567 0.00522,-0.09971 -0.00299,-0.004 -0.060443,0.0077 -0.1276401,0.02604 l -0.122174,0.03338 0.102323,0.0661 c 0.05628,0.03636 0.1089087,0.06621 0.1169583,0.06634 0.00805,1.2e-4 0.019439,-0.04133 0.025314,-0.09214 z m 3.5728368,-0.585141 c -0.1057721,-0.171752 -0.1108081,-0.219221 -0.01652,-0.155737 0.036519,0.02458 0.072701,0.0081 0.2429844,-0.110846 0.1100431,-0.07686 0.1856978,-0.13963 0.1681208,-0.139502 -0.01758,1.21e-4 -0.1476207,0.0374 -0.2889888,0.08283 -0.1574041,0.05058 -0.2568722,0.07198 -0.2566203,0.05519 2.42e-4,-0.01508 0.081503,-0.127172 0.1806145,-0.249102 0.099111,-0.121931 0.1768576,-0.225425 0.1727686,-0.229988 -0.00407,-0.0045 -0.090506,0.04915 -0.1920375,0.119376 -0.1447486,0.100108 -0.1846036,0.14014 -0.1846036,0.185427 0,0.09549 -0.036596,0.09023 -0.1008791,-0.0145 -0.057831,-0.09422 -0.062356,-0.184574 -0.00623,-0.124042 0.043155,0.04653 0.088178,0.03014 0.2771189,-0.100917 0.2442816,-0.169438 0.2556429,-0.181059 0.2210128,-0.226046 -0.01748,-0.02272 -0.019392,-0.04154 -0.00514,-0.051 0.021267,-0.01417 0.1625784,0.181178 0.1623574,0.224446 -3e-5,0.0111 -0.056603,0.08848 -0.125659,0.171938 -0.069053,0.08346 -0.1255576,0.15699 -0.1255576,0.163402 0,0.0064 0.084292,-0.01476 0.1873167,-0.04706 0.103023,-0.03229 0.194578,-0.05872 0.203454,-0.05872 0.02954,0 0.137274,0.221933 0.121281,0.249834 -0.01061,0.01849 -0.02253,0.01437 -0.03656,-0.01267 -0.01145,-0.02205 -0.02984,-0.04011 -0.04086,-0.04011 -0.01102,0 -0.119255,0.06882 -0.240517,0.152913 -0.190129,0.131868 -0.2190827,0.160767 -0.2103603,0.209965 0.018225,0.102771 -0.022126,0.08191 -0.1064879,-0.0551 z m -3.2586578,0.02878 c 0,-0.04908 -0.034461,-0.07451 -0.234184,-0.172712 -0.1288013,-0.06333 -0.2433319,-0.11503 -0.2545121,-0.114874 -0.011183,1.51e-4 -0.032741,0.0186 -0.047917,0.04096 -0.015176,0.02237 -0.03364,0.03013 -0.041036,0.01723 -0.00737,-0.0129 0.027019,-0.115296 0.07648,-0.227551 0.049453,-0.112255 0.08992,-0.211762 0.08992,-0.221125 0,-0.0094 0.015791,-0.04132 0.035083,-0.07103 l 0.035083,-0.05401 0.1020012,0.05343 c 0.056104,0.02939 0.102001,0.0623 0.102001,0.07315 0,0.01085 -0.038555,0.01989 -0.085676,0.0201 -0.097518,4.3e-4 -0.1186518,0.01236 -0.1726784,0.09748 -0.058807,0.09265 -0.047932,0.121304 0.06605,0.17398 0.1271693,0.05877 0.1158609,0.059 0.1308287,-0.0028 0.0078,-0.03216 -0.00461,-0.06943 -0.033509,-0.100583 -0.073231,-0.07896 -0.032179,-0.08149 0.1283913,-0.0079 0.1650942,0.07566 0.1891102,0.11043 0.073001,0.105724 -0.1663829,-0.0068 -0.1729257,0.07265 -0.012657,0.153581 0.1136705,0.0574 0.1173854,0.05771 0.1482707,0.01217 0.063047,-0.09295 0.061649,-0.0094 -0.00223,0.134726 -0.069037,0.15572 -0.1026854,0.1852 -0.1026854,0.08995 z m 0.2687704,-0.424491 c -0.00812,-0.0087 -0.00261,-0.0369 0.012258,-0.06256 0.023832,-0.04114 0.00383,-0.07167 -0.1696079,-0.258637 -0.1752406,-0.188934 -0.2017819,-0.209016 -0.2440255,-0.184642 -0.1096322,0.06327 -0.057656,-0.02725 0.133391,-0.232267 l 0.2040729,-0.219001 0.080349,0.08396 c 0.092389,0.09654 0.1027815,0.136806 0.028939,0.112133 -0.1388509,-0.0464 -0.1568034,-0.04438 -0.2241621,0.02519 -0.036927,0.03814 -0.06714,0.08212 -0.06714,0.09773 0,0.01561 0.034776,0.0625 0.077283,0.104203 0.056934,0.05586 0.084004,0.06857 0.1028121,0.04829 0.031712,-0.03419 0.033256,-0.108145 0.00268,-0.128518 -0.032541,-0.02168 -0.028286,-0.06158 0.0066,-0.06158 0.040514,0 0.2540406,0.237226 0.2287135,0.254102 -0.011228,0.0075 -0.035352,0.0034 -0.053601,-0.009 -0.04552,-0.03104 -0.1300049,-0.02912 -0.1486363,0.0034 -0.019984,0.03487 0.1240395,0.194932 0.175398,0.194932 0.05042,0 0.1343035,-0.113774 0.1341191,-0.181907 -5.77e-5,-0.02866 -0.0148,-0.0824 -0.032718,-0.119424 -0.050513,-0.104394 -0.0066,-0.100904 0.091353,0.0073 l 0.088769,0.09801 -0.2060336,0.222133 c -0.1133105,0.122201 -0.2126681,0.215 -0.2207876,0.206246 z m 2.4581527,-0.32648 c -0.1408169,-0.108481 -0.1552389,-0.137753 -0.068453,-0.138937 0.056212,-7.65e-4 0.085627,-0.03245 0.2111126,-0.227357 0.136086,-0.211376 0.1644015,-0.303133 0.093543,-0.303133 -0.017533,0 -0.017787,-0.0077 -8.449e-4,-0.02603 0.01695,-0.01827 0.062249,0.002 0.1521346,0.06774 0.132603,0.09713 0.1546576,0.147832 0.059345,0.13643 -0.046273,-0.0056 -0.078063,0.02935 -0.1979203,0.217157 -0.1420267,0.222547 -0.1635759,0.277651 -0.1199483,0.30672 0.026597,0.01772 0.030874,0.06244 0.00568,0.05977 -0.00942,-9.46e-4 -0.070036,-0.04257 -0.1346943,-0.09237 z M 8.336574,11.875018 C 8.322742,11.865118 8.27252,11.729522 8.224971,11.573721 8.1020873,11.171104 8.0979486,11.164659 8.0588491,11.315081 c -0.083975,0.323065 -0.084547,0.328539 -0.03996,0.381661 0.059384,0.07074 0.036081,0.07924 -0.098808,0.03605 -0.1086007,-0.03477 -0.1603172,-0.08517 -0.087391,-0.08517 0.056895,0 0.1061337,-0.08906 0.1635229,-0.295773 0.067839,-0.244347 0.069152,-0.268132 0.017119,-0.309152 -0.063554,-0.0501 -0.020898,-0.06433 0.093763,-0.03127 0.091492,0.02639 0.1090837,0.04217 0.1312098,0.117796 0.079941,0.273225 0.1437239,0.444648 0.1589921,0.427305 0.016727,-0.019 0.090079,-0.267963 0.090079,-0.305739 0,-0.01013 -0.016643,-0.03635 -0.036988,-0.05829 -0.055182,-0.0595 -0.022442,-0.07272 0.093454,-0.03774 0.1031999,0.03115 0.1440372,0.09873 0.05966,0.09873 -0.048117,0 -0.073684,0.0605 -0.1793448,0.424458 -0.040821,0.14062 -0.07115,0.208843 -0.087586,0.197061 z M 7.0023092,11.727442 c 0,-0.01029 0.019362,-0.03174 0.043024,-0.04768 0.040706,-0.02742 0.058885,-0.08093 0.1845453,-0.543275 0.02745,-0.100995 0.061197,-0.178586 0.077677,-0.178586 0.016029,0 0.097656,0.149644 0.1813955,0.332541 0.095625,0.208852 0.1651563,0.332538 0.1869405,0.332538 0.019078,0 0.034683,0.0097 0.034683,0.02145 0,0.02552 -0.2724869,0.06248 -0.2935131,0.0398 -0.008,-0.0086 0.00338,-0.02648 0.025253,-0.03969 0.036397,-0.02196 0.036842,-0.03016 0.00522,-0.09616 -0.032848,-0.06848 -0.040114,-0.07136 -0.1427954,-0.05658 -0.059506,0.0085 -0.115741,0.02773 -0.1249727,0.04259 -0.031788,0.05113 -0.017388,0.117854 0.028209,0.130711 0.067133,0.01892 0.055719,0.04809 -0.025705,0.06563 -0.096967,0.02091 -0.1799223,0.01939 -0.1799223,-0.0034 z M 7.384343,11.415156 c 0.011382,-0.0095 -0.091158,-0.210922 -0.1073988,-0.210922 -0.00969,0 -0.023785,0.03048 -0.031335,0.06774 -0.00752,0.03726 -0.020506,0.09346 -0.028793,0.124903 -0.014392,0.05463 -0.011136,0.0564 0.0737,0.03984 0.048824,-0.0095 0.091038,-0.01923 0.093819,-0.02156 z"
       id="path828"
       inkscape:connector-curvature="0" />
    <g
       id="g2297"
       transform="matrix(-0.00257467,0.01009347,-0.01009347,-0.00257467,3.4523986,14.861467)"
       style="fill:#ff0000;fill-opacity:1">
      <g
         id="g2238"
         style="fill:#ff0000;fill-opacity:1">
	<polygon
   points="33,66 0,66 66,148 0,231 33,231 99,148 "
   id="polygon2230"
   style="fill:#ff0000;fill-opacity:1" />

	<polygon
   points="83,66 50,66 116,148 50,231 83,231 149,148 "
   id="polygon2232"
   style="fill:#ff0000;fill-opacity:1" />

	<polygon
   points="133,66 100,66 166,148 100,231 133,231 199,148 "
   id="polygon2234"
   style="fill:#ff0000;fill-opacity:1" />

	<polygon
   points="231,66 149,66 215,148 149,231 231,231 297,148 "
   id="polygon2236"
   style="fill:#ff0000;fill-opacity:1" />

</g>
      <g
         id="g2240"
         style="fill:#ff0000;fill-opacity:1">
</g>
      <g
         id="g2242"
         style="fill:#ff0000;fill-opacity:1">
</g>
      <g
         id="g2244"
         style="fill:#ff0000;fill-opacity:1">
</g>
      <g
         id="g2246"
         style="fill:#ff0000;fill-opacity:1">
</g>
      <g
         id="g2248"
         style="fill:#ff0000;fill-opacity:1">
</g>
      <g
         id="g2250"
         style="fill:#ff0000;fill-opacity:1">
</g>
      <g
         id="g2252"
         style="fill:#ff0000;fill-opacity:1">
</g>
      <g
         id="g2254"
         style="fill:#ff0000;fill-opacity:1">
</g>
      <g
         id="g2256"
         style="fill:#ff0000;fill-opacity:1">
</g>
      <g
         id="g2258"
         style="fill:#ff0000;fill-opacity:1">
</g>
      <g
         id="g2260"
         style="fill:#ff0000;fill-opacity:1">
</g>
      <g
         id="g2262"
         style="fill:#ff0000;fill-opacity:1">
</g>
      <g
         id="g2264"
         style="fill:#ff0000;fill-opacity:1">
</g>
      <g
         id="g2266"
         style="fill:#ff0000;fill-opacity:1">
</g>
      <g
         id="g2268"
         style="fill:#ff0000;fill-opacity:1">
</g>
    </g>
    <text
       xml:space="preserve"
       style="font-size:0.572738px;line-height:1.25;font-family:Cooper;-inkscape-font-specification:Cooper;stroke-width:0.00671179;fill:#007100;fill-opacity:1;"
       x="0.25534379"
       y="6.9652843"
       id="text2301"><tspan
         sodipodi:role="line"
         id="tspan2299"
         x="0.25534379"
         y="6.9652843"
         style="stroke-width:0.00671179;fill:#007100;fill-opacity:1;">Donate Online</tspan></text>
    <text
       xml:space="preserve"
       style="font-size:0.575374px;line-height:1.25;font-family:Cooper;-inkscape-font-specification:Cooper;stroke-width:0.00674269;fill:#9b00d6;fill-opacity:1;"
       x="0.22277756"
       y="8.4809179"
       id="text2305"><tspan
         sodipodi:role="line"
         id="tspan2303"
         x="0.22277756"
         y="8.4809179"
         style="stroke-width:0.00674269;fill:#9b00d6;fill-opacity:1;">Facebook.com/Wizlights</tspan><tspan
         sodipodi:role="line"
         x="0.22277756"
         y="9.2001352"
         style="stroke-width:0.00674269;fill:#9b00d6;fill-opacity:1;"
         id="tspan2307" /></text>
    <text
       xml:space="preserve"
       style="font-size:0.571429px;line-height:1.25;font-family:Cooper;-inkscape-font-specification:Cooper;stroke-width:0.00669647;fill:#9b0000;fill-opacity:1;"
       x="0.23040813"
       y="7.7611289"
       id="text2311"><tspan
         sodipodi:role="line"
         x="0.23040813"
         y="7.7611289"
         style="stroke-width:0.00669647;fill:#9b0000;fill-opacity:1;"
         id="tspan2327">Facebook.com/SafeAnimalShelter</tspan><tspan
         sodipodi:role="line"
         x="0.23040813"
         y="8.4754152"
         style="stroke-width:0.00669647;fill:#9b0000;fill-opacity:1;"
         id="tspan2313" /></text>
    <text
       xml:space="preserve"
       style="font-size:0.571429px;line-height:1.25;font-family:Cooper;-inkscape-font-specification:Cooper;stroke-width:0.00669644;fill:#0071d5;fill-opacity:1;"
       x="0.28276843"
       y="9.2402372"
       id="text2317"><tspan
         sodipodi:role="line"
         id="tspan2315"
         x="0.28276843"
         y="9.2402372"
         style="stroke-width:0.00669644;fill:#0071d5;fill-opacity:1;">SafeAnimalShelter.com</tspan><tspan
         sodipodi:role="line"
         x="0.28276843"
         y="9.9545231"
         style="stroke-width:0.00669644;fill:#0071d5;fill-opacity:1;"
         id="tspan2319" /></text>
    <text
       xml:space="preserve"
       id="text2321"
       style="line-height:1.25;font-family:Cooper;font-size:0.88888889px;-inkscape-font-specification:Cooper;white-space:pre;shape-inside:url(#rect2323);" />
    <g
       id="g8762"
       transform="matrix(0.12602724,0,0,0.12602724,-42.86774,-139.98322)">
      <path
         sodipodi:nodetypes="cc"
         inkscape:connector-curvature="0"
         id="path4733"
         d="m 376.48671,1207.3178 c 6.20181,-20.0133 40.57418,-21.6178 46.71846,-0.4008"
         style="fill:none;stroke:none;stroke-width:0.36;stroke-linecap:butt;stroke-linejoin:miter;stroke-miterlimit:4;stroke-dasharray:none;stroke-opacity:1" />
      <text
         y="52.913555"
         x="21.282576"
         id="text7410"
         style="font-style:normal;font-variant:normal;font-weight:normal;font-stretch:normal;font-size:19.1797px;line-height:1.25;font-family:'Brush Script MT';-inkscape-font-specification:'Brush Script MT';letter-spacing:0px;word-spacing:0px;fill:#ff9f00;fill-opacity:1;stroke:none;stroke-width:0.168404;stroke-miterlimit:4;stroke-dasharray:none;stroke-opacity:1"
         xml:space="preserve"><textPath
           id="textPath7445"
           xlink:href="#path7406"><tspan
             id="tspan7408"
             style="fill:#ff9f00;fill-opacity:1;stroke:none;stroke-width:0.168404;stroke-miterlimit:4;stroke-dasharray:none;stroke-opacity:1">Donations</tspan></textPath></text>
    </g>
    <text
       xml:space="preserve"
       style="font-size:0.572738px;line-height:1.25;font-family:Cooper;-inkscape-font-specification:Cooper;fill:#007100;fill-opacity:1;stroke-width:0.00671179"
       x="5.7265906"
       y="0.71184134"
       id="text2301-6"><tspan
         sodipodi:role="line"
         id="tspan2299-6"
         x="5.7265906"
         y="0.71184134"
         style="fill:#007100;fill-opacity:1;stroke-width:0.00671179">Donate by Phone</tspan></text>
    <text
       xml:space="preserve"
       style="font-size:0.888889px;line-height:1.25;font-family:Cooper;-inkscape-font-specification:Cooper;fill:#ff0000;fill-opacity:1;stroke-width:0.0104167"
       x="0.94401067"
       y="14.019102"
       id="text2367"><tspan
         sodipodi:role="line"
         id="tspan2365"
         x="0.94401067"
         y="14.019102"
         style="fill:#ff0000;fill-opacity:1;stroke-width:0.0104167">Ca$h</tspan></text>
  </g>
</svg>
