<?xml version="1.0" encoding="UTF-8" standalone="no"?>
<svg
   xmlns:dc="http://purl.org/dc/elements/1.1/"
   xmlns:cc="http://creativecommons.org/ns#"
   xmlns:rdf="http://www.w3.org/1999/02/22-rdf-syntax-ns#"
   xmlns:svg="http://www.w3.org/2000/svg"
   xmlns="http://www.w3.org/2000/svg"
   xmlns:xlink="http://www.w3.org/1999/xlink"
   xmlns:sodipodi="http://sodipodi.sourceforge.net/DTD/sodipodi-0.dtd"
   xmlns:inkscape="http://www.inkscape.org/namespaces/inkscape"
   width="12in"
   height="18in"
   viewBox="0 0 12 18"
   version="1.1"
   id="svg8"
   inkscape:version="1.0.1 (3bc2e813f5, 2020-09-07)"
   sodipodi:docname="Donation Post Side Left (Draft 1).svg">
  <defs
     id="defs2">
    <rect
       x="-3.4953704"
       y="3.0324074"
       width="5.1388889"
       height="1.8055556"
       id="rect2323" />
    <path
       sodipodi:nodetypes="cc"
       inkscape:connector-curvature="0"
       id="path7406"
       d="m 376.48671,1207.3178 c 6.20181,-20.0133 40.57418,-21.6178 46.71846,-0.4008"
       style="fill:none;stroke:none;stroke-width:0.36;stroke-linecap:butt;stroke-linejoin:miter;stroke-miterlimit:4;stroke-dasharray:none;stroke-opacity:1" />
  </defs>
  <sodipodi:namedview
     id="base"
     pagecolor="#ffffff"
     bordercolor="#666666"
     borderopacity="1.0"
     inkscape:pageopacity="0.0"
     inkscape:pageshadow="2"
     inkscape:zoom="0.59"
     inkscape:cx="589.43093"
     inkscape:cy="521.3959"
     inkscape:document-units="in"
     inkscape:current-layer="layer1"
     inkscape:document-rotation="0"
     showgrid="true"
     units="in"
     inkscape:snap-global="false"
     inkscape:window-width="1920"
     inkscape:window-height="1017"
     inkscape:window-x="-8"
     inkscape:window-y="-8"
     inkscape:window-maximized="1"
     inkscape:snap-nodes="true"
     inkscape:snap-others="false"
     inkscape:snap-smooth-nodes="true"
     inkscape:object-paths="true"
     inkscape:snap-intersection-paths="true"
     inkscape:snap-grids="false"
     inkscape:snap-to-guides="false">
    <inkscape:grid
       type="xygrid"
       id="grid849"
       units="in"
       spacingx="0.25"
       spacingy="0.25"
       empspacing="4" />
  </sodipodi:namedview>
  <metadata
     id="metadata5">
    <rdf:RDF>
      <cc:Work
         rdf:about="">
        <dc:format>image/svg+xml</dc:format>
        <dc:type
           rdf:resource="http://purl.org/dc/dcmitype/StillImage" />
        <dc:title></dc:title>
        <dc:creator>
          <cc:Agent>
            <dc:title>Doctor Wizard</dc:title>
          </cc:Agent>
        </dc:creator>
        <dc:rights>
          <cc:Agent>
            <dc:title>Copyright 2021+ by Doctor Wizard</dc:title>
          </cc:Agent>
        </dc:rights>
        <dc:publisher>
          <cc:Agent>
            <dc:title>Doctor Wizard</dc:title>
          </cc:Agent>
        </dc:publisher>
        <dc:source>Doctor Wizard</dc:source>
        <dc:contributor>
          <cc:Agent>
            <dc:title>Doctor Wizard</dc:title>
          </cc:Agent>
        </dc:contributor>
      </cc:Work>
    </rdf:RDF>
  </metadata>
  <g
     inkscape:label="Layer 1"
     inkscape:groupmode="layer"
     id="layer1">
    <path
       style="fill:#000000;stroke-width:0.00246116"
       d="m 1.038082,6.4838001 -0.0074,-0.00328 -0.00661,-0.00706 -0.00661,-0.00706 -0.0026,-0.00693 -0.0026,-0.00693 4.1e-6,-0.7351128 3.9e-6,-0.7351136 0.00434,-0.00844 0.00434,-0.00844 0.00946,-0.00757 0.00946,-0.00757 0.7381965,-6.673e-4 0.7381956,-6.672e-4 0.00915,0.00467 0.00916,0.00467 0.00401,0.00454 0.00401,0.00454 0.00401,0.00787 0.00401,0.00787 v 0.7346196 0.7346191 l -0.0026,0.00693 -0.0026,0.00693 -0.00661,0.00706 -0.00661,0.00706 -0.00793,0.00339 -0.00793,0.00339 -0.7353523,-9.6e-5 -0.7353524,-9.63e-5 -0.0074,-0.00328 z m 1.2771838,-0.2179542 0.00633,-0.0024 0.00494,-0.00805 0.00494,-0.00805 7.4e-6,-0.5286566 6.7e-6,-0.5286578 -0.00373,-0.00722 -0.00373,-0.00722 -0.00726,-0.00373 -0.00726,-0.00373 -0.531646,6.674e-4 -0.5316452,6.673e-4 -0.00682,0.00684 -0.00684,0.00682 v 0.5349897 0.534989 l 0.00494,0.00548 0.00494,0.00548 0.00494,0.002 0.00494,0.002 0.528375,1.921e-4 0.5283748,1.915e-4 0.00633,-0.0024 z m -0.8328273,-0.2198354 -0.0085,-0.00273 -0.0089,-0.0089 -0.0089,-0.0089 -0.003,-0.010901 -0.003,-0.010901 6.673e-4,-0.2904174 6.673e-4,-0.290418 0.00614,-0.010702 0.00614,-0.010701 0.0111,-0.00654 0.0111,-0.00654 h 0.292879 0.2928789 l 0.00673,0.00186 0.00673,0.00186 0.00878,0.00772 0.00878,0.00771 0.0042,0.00762 0.0042,0.00762 7.34e-4,0.281804 8.008e-4,0.2818035 -0.00153,0.015153 -0.00153,0.015154 -0.0064,0.00985 -0.0064,0.00985 -0.010054,0.00573 -0.010054,0.00573 -0.292879,3.832e-4 -0.2928775,3.836e-4 z M 2.771973,5.9372184 V 5.3871481 H 2.9922483 3.2125214 V 5.2776267 5.1681052 H 3.3220429 3.4315643 V 5.0585824 4.9490609 H 3.6518396 3.8721128 V 5.0585824 5.1681052 H 3.7613618 3.6506097 v 0.1094965 0.1094966 l 0.1101362,6.672e-4 0.1101362,6.674e-4 6.673e-4,0.2196585 6.672e-4,0.2196593 h 0.1095079 0.109509 V 5.718228 5.6087065 H 4.3115096 4.5317841 V 5.1681321 4.7275584 L 4.4216467,4.7282257 4.3115105,4.7288931 4.3108433,4.9485516 4.3101759,5.1682109 H 4.2006664 4.0911577 V 4.9479531 4.7276786 H 3.8708846 3.6506101 V 4.5086345 4.2895912 H 3.7613622 3.8721143 V 4.3991127 4.5086342 H 4.3114322 4.75075 V 4.28836 4.0680863 H 4.6412285 4.5317083 V 3.9585635 3.849042 H 4.4221855 4.3126641 V 3.7382899 3.6275366 H 4.4221855 4.5317083 V 3.5180151 3.4084948 H 4.0911577 3.6506101 V 3.628768 3.849043 H 3.7613622 3.8721131 V 3.9585645 4.0680873 H 3.9816346 4.0911561 V 3.9585645 3.849043 H 4.2006788 4.3102003 V 4.0680863 4.2871296 H 4.0911577 3.8721137 V 4.1776081 4.0680866 H 3.7613628 3.6506107 V 3.9585639 3.8490424 H 3.5410892 3.4315665 V 3.9585639 4.0680866 H 3.322045 3.2125235 V 3.9585639 3.8490424 H 3.322045 3.4315665 V 3.7382642 3.6274859 L 3.3214303,3.6281531 3.2112928,3.6288204 3.2106256,3.7389578 3.2099583,3.8490953 H 2.7706639 2.3313707 V 3.738343 3.6275899 H 2.2218487 2.1123273 V 3.518076 3.4085553 H 2.0015669 1.8908144 V 3.2978028 3.1870503 H 1.7812923 1.6717704 V 3.0775277 2.9680056 H 1.3419745 1.0121781 V 2.858483 2.7489627 h 0.5500703 0.550071 V 3.0787578 3.4085551 H 2.2218408 2.3313623 V 3.299046 3.189537 L 2.5510217,3.1888696 2.7706809,3.1882024 2.7713481,3.078065 2.7720154,2.9679276 H 2.5517247 2.3314241 V 2.8584061 2.7488858 h 0.5500711 0.5500702 v 0.1094953 0.1094954 l -0.1101363,6.673e-4 -0.1101374,6.673e-4 v 0.219044 0.219044 l 0.1101374,6.674e-4 0.1101363,6.672e-4 V 3.2990861 3.1895397 H 3.7613626 4.0911577 V 3.0787874 2.9680343 H 3.8708832 3.6506101 V 2.6382392 2.3084419 H 3.7613622 3.8721131 V 2.1989333 2.0894254 L 4.0917737,2.088758 4.3114329,2.0880908 4.3121002,1.8684322 4.3127675,1.6487728 H 4.5317981 4.7508275 V 1.8690481 2.0893213 H 4.6413048 4.5317845 V 2.1988428 2.3083654 H 4.6413048 4.7508275 V 2.5286405 2.7489151 H 4.8615809 4.9723331 V 2.9691888 3.1894633 H 5.0818545 5.191376 V 3.2989861 3.4085075 H 5.0818545 4.9723331 V 3.518029 3.6275505 H 5.4116504 5.8509692 V 3.7383026 3.8490548 H 5.7414543 5.6319266 V 4.0680996 4.2871429 H 5.5211794 5.4104322 V 4.1776214 4.0680999 H 5.3009045 5.191383 V 4.1776214 4.2871429 H 5.0818615 4.97234 V 4.397895 4.5086472 H 5.4116604 5.8509783 V 4.6181699 4.7276914 H 5.7414625 5.6319348 V 4.9479655 5.1682394 H 5.7414625 5.8509783 V 5.0587179 4.9491964 H 6.0712522 6.291527 V 4.7289224 4.5086478 H 6.182036 6.0725459 L 6.0718789,4.3985104 6.0712109,4.2883729 5.9610731,4.2877056 5.8509361,4.2870384 V 4.1775431 4.0680476 H 6.1807249 6.510521 V 4.6181172 5.1681875 H 6.1807194 5.8509251 V 5.388462 5.6087365 H 5.7413974 5.6318697 V 5.8290103 6.0492848 H 5.7413974 5.8509251 V 5.9385326 5.8277804 H 5.9616722 6.0724193 V 5.7182589 5.6087375 H 6.2914628 6.5105063 V 5.8290113 6.0492857 H 6.4009786 6.2914509 V 6.1588072 6.2683287 H 6.4009786 6.5105063 V 6.3778502 6.4873716 H 6.1807121 5.850916 V 6.3778508 6.2683289 H 5.1913237 4.5317314 V 6.3778503 6.4873718 H 4.0911817 3.6506341 V 6.0480452 5.6087275 H 3.320837 2.9910405 V 5.7182489 5.8277704 H 3.2113149 3.4315894 V 6.0480456 6.2683201 H 3.3220674 3.2125454 V 6.1587981 6.0492762 H 3.1017933 2.9910412 V 6.1587976 6.2683191 H 3.1005626 3.2100841 V 6.3778406 6.4873621 H 2.9910412 2.7719976 Z M 4.0911577,6.1587233 V 6.0492018 H 3.9816362 3.8721147 v 0.1095215 0.1095228 h 0.1095215 0.1095215 z m 0.4405498,0 V 6.0492018 H 4.9710252 5.4103426 V 5.8289269 5.6086531 H 5.3008149 5.1912935 V 5.7181746 5.8276961 H 5.0817778 4.9722557 V 5.7181751 5.6086531 H 4.8615033 4.7507508 v 0.109509 0.1095091 L 4.5310915,5.8283377 4.3114329,5.829005 4.3107656,6.0486642 4.3100983,6.2683229 H 4.4208654 4.53163 Z m 1.5406889,0 V 6.0492018 H 6.1819241 6.2914518 V 5.9384497 5.8276976 H 6.1819617 6.0724588 L 6.0717917,5.937835 6.0711247,6.0479712 5.9609878,6.0486384 5.8508499,6.0493058 V 6.1588011 6.2682989 H 5.961597 6.0723441 Z M 5.4103426,5.0573517 V 4.7275557 H 5.0805473 4.7507508 v 0.329796 0.3297964 h 0.3297965 0.3297953 z m -0.4380869,0.0012 V 4.9490325 H 5.0817784 5.1912999 V 5.0585527 5.1680742 H 5.0817784 4.9722557 Z m 0,-1.3204151 V 3.6273878 H 4.7519812 4.5317075 V 3.7381413 3.8488934 H 4.7519812 4.9722557 Z M 2.5504681,3.5178631 V 3.4083417 H 2.4409466 2.3314239 v 0.1095214 0.1095215 h 0.1095227 0.1095215 z m 0.4405483,0 V 3.4083417 H 2.8814949 2.7719721 V 3.5178631 3.6273846 H 2.8814949 2.9910164 Z M 4.7507508,3.2975892 V 3.1868371 H 4.641228 4.5317078 V 3.2975892 3.4083414 H 4.641228 4.7507508 Z M 4.3126633,2.8582707 V 2.7487493 H 4.4221848 4.5317076 V 2.8582707 2.9677922 H 4.6412278 4.7507505 V 2.8582707 2.7487494 H 4.641228 4.5317075 V 2.5284749 2.3082005 H 4.4209552 4.3102031 V 2.4177219 2.5272434 H 4.2006816 4.091159 V 2.4177219 2.3082005 H 3.9816375 3.872116 V 2.5284749 2.7487494 H 3.9816375 4.091159 V 2.8582709 2.9677924 H 4.2019123 4.3126645 Z M 2.771973,4.8382795 V 4.5084825 H 2.6612209 2.5504688 V 4.6180052 4.7275266 H 2.2206717 1.8908758 V 4.6180052 4.5084825 H 1.7813543 1.6718316 V 4.6180052 4.7275266 H 1.5610793 1.4503268 V 4.6180052 4.5084825 H 1.561079 1.6718311 V 4.288208 4.0679347 h 0.1094978 0.1094954 l 6.674e-4,0.1101362 6.672e-4,0.1101361 0.1101374,6.673e-4 0.1101375,6.673e-4 V 4.3990383 4.5085349 H 2.3314771 2.5505212 V 4.3990383 4.2895416 L 2.6606586,4.2888743 2.770796,4.288207 2.7714632,4.1780709 2.7721306,4.0679347 h 0.1094705 0.1094716 l 6.672e-4,0.1101362 6.674e-4,0.1101361 0.2196585,6.673e-4 0.2196587,6.673e-4 v 0.1095091 0.109509 H 3.2114751 2.9912019 V 4.838357 5.1681521 H 2.8816793 2.7721572 Z M 1.0122394,4.1774568 V 3.6273878 H 1.1217621 1.2312836 V 3.5178918 3.4083711 H 1.1217608 1.0122382 V 3.2988496 3.189327 h 0.219044 0.2190434 V 3.6286449 4.0679633 H 1.3408041 1.2312826 V 4.3977592 4.7275556 H 1.1217611 1.0122384 Z m 1.3191847,0 V 4.0679341 H 2.4409467 2.5504682 V 4.1774568 4.286977 H 2.4409462 2.3314241 Z M 6.0723964,3.7381376 V 3.6273879 H 6.2914408 6.5104852 V 3.7381413 3.8488935 H 6.2914408 6.0723964 Z M 5.4119839,3.406701 5.4103691,3.4050311 V 3.2959214 3.1868093 H 5.300851 5.1913282 V 2.9677654 2.748722 H 5.3008497 5.4103774 V 2.8582423 2.967765 H 5.5211246 5.6318715 V 2.8582423 2.748722 H 5.7413873 5.850915 V 2.8582423 2.967765 H 5.7413992 5.6318715 V 3.1880395 3.408314 H 5.5227547 5.4136376 Z M 5.8508921,3.2988195 V 3.1892968 H 5.9616392 6.0723863 V 3.2988195 3.408341 H 5.9616392 5.8508921 Z M 6.2914408,3.0773147 V 2.9677932 H 6.1819131 6.0723982 V 2.8582717 2.7487503 H 6.1819131 6.2914408 V 2.8582717 2.9677932 H 6.4009685 6.5104962 V 3.0773147 3.1868375 H 6.4009685 6.2914408 Z M 1.038082,2.5233735 l -0.0074,-0.00381 -0.00587,-0.00534 -0.00587,-0.00534 -0.00339,-0.00793 -0.00339,-0.00793 V 1.7582362 1.0234203 l 0.00339,-0.00793 0.00339,-0.00793 0.00706,-0.00661 0.00706,-0.006606 0.00693,-0.002597 0.00693,-0.002597 0.7351129,3.39e-6 0.7351136,3.95e-6 0.00844,0.00434 0.00844,0.00434 0.00757,0.009457 0.00757,0.00946 6.672e-4,0.7382203 6.674e-4,0.738221 -0.00401,0.0079 -0.00401,0.0079 -0.00401,0.00454 -0.00401,0.00454 -0.00913,0.00467 -0.00913,0.00467 -0.735371,-1.4e-5 -0.7353712,-1.47e-5 -0.0074,-0.00381 z m 1.2786559,-0.2189065 0.00722,-0.00373 0.00373,-0.00722 0.00373,-0.00722 -6.6e-6,-0.5286567 -8.1e-6,-0.5286584 -0.00494,-0.00805 -0.00494,-0.00805 -0.00633,-0.0024 -0.00633,-0.0024 -0.5313517,6.672e-4 -0.5313523,6.673e-4 -0.00684,0.00682 -0.00682,0.00682 -6.674e-4,0.5313524 -6.672e-4,0.5313516 0.0024,0.00633 0.0024,0.00633 0.00805,0.00494 0.00805,0.00494 0.5286578,7.4e-6 0.5286578,6.7e-6 0.00722,-0.00373 z m -0.828612,-0.2176334 -0.00773,-0.00186 -0.00836,-0.00514 -0.00836,-0.00514 -0.00607,-0.010577 -0.00607,-0.010589 -6.674e-4,-0.290418 -6.672e-4,-0.2904174 0.003,-0.0109 0.003,-0.0109 0.00895,-0.00895 0.00895,-0.00895 0.010901,-0.003 0.010901,-0.003 0.2904174,6.673e-4 0.2904181,6.674e-4 0.0111,0.00654 0.0111,0.00654 0.00614,0.010701 0.00614,0.010702 v 0.2928723 0.2928783 l -0.00186,0.00673 -0.00186,0.00672 -0.00772,0.00878 -0.00772,0.00878 -0.00762,0.0042 -0.00762,0.0042 -0.2904179,3.829e-4 -0.2904182,3.838e-4 z M 2.771973,2.3082005 V 2.0891825 H 2.8814957 2.9910172 V 2.3082264 2.5272705 H 2.8814952 2.771973 Z M 3.2125214,2.197448 V 1.867652 H 3.3220429 3.4315643 V 1.7581555 1.648634 H 3.3208122 3.2100601 V 1.7581555 1.8676782 H 2.9910164 2.771973 V 1.7581555 1.648634 H 2.8814957 2.9910172 V 1.5378819 1.4271297 H 2.8814957 2.771973 V 1.317607 1.2080855 H 2.8814957 2.9910172 V 1.0985627 0.98904128 H 3.10054 3.2100615 V 1.2080854 1.4271287 H 3.3208136 3.4315657 V 1.317606 1.2080845 H 3.7613629 4.091158 V 1.0985618 0.98904036 H 4.2006808 4.3102023 V 1.2080859 1.4271292 H 3.9804053 3.6506101 V 1.6474037 1.8676782 H 3.7613622 3.8721131 V 1.7581555 1.648634 H 3.9816346 4.0911561 V 1.7581555 1.8676782 H 3.9816595 3.8721629 L 3.8714956,1.9778157 3.8708284,2.0879518 H 3.7613069 3.6517866 L 3.6511194,1.9778157 3.6504521,1.8676782 H 3.5409566 3.4314599 V 2.1974739 2.5272705 H 3.3219385 3.212417 Z m 1.7855762,0.3257053 -0.0074,-0.00394 -0.00454,-0.00401 -0.00454,-0.00401 -0.00467,-0.00916 -0.00467,-0.00916 6.673e-4,-0.7381951 6.674e-4,-0.7381956 0.00757,-0.00946 0.00757,-0.009457 0.00844,-0.00434 0.00844,-0.00434 0.7353528,-4.03e-6 0.7353519,-3.95e-6 0.00798,0.003395 0.00798,0.003395 0.00661,0.007065 0.00661,0.00706 0.00257,0.00693 0.00257,0.00693 V 1.7587841 2.493897 l -0.00431,0.00844 -0.00431,0.00844 -0.00946,0.00757 -0.00946,0.00757 -0.7387357,4.799e-4 -0.7387369,4.79e-4 -0.0074,-0.00394 z M 6.283386,2.3001464 6.290266,2.2933064 V 1.7581287 1.222937 L 6.283386,1.216117 6.276506,1.209297 H 5.7413662 5.2061741 l -0.00684,0.00682 -0.00682,0.00682 -6.672e-4,0.5309405 -6.673e-4,0.5309406 0.00294,0.00706 0.00294,0.00706 0.00758,0.00461 0.00758,0.00461 0.5321713,-5.759e-4 0.5321712,-5.753e-4 z m -0.8352438,-0.2133128 -0.00772,-0.00186 -0.00834,-0.00514 -0.00834,-0.00514 -0.0061,-0.010577 -0.0061,-0.010589 V 1.7581828 1.4628429 l 0.0061,-0.010702 0.0061,-0.010701 0.011074,-0.00654 0.011074,-0.00654 h 0.2953646 0.2953399 l 0.011074,0.00654 0.011074,0.00654 0.00606,0.010701 0.00606,0.010702 7.349e-4,0.2867254 7.341e-4,0.2867266 -0.00147,0.010117 -0.00147,0.010116 -0.00651,0.00996 -0.00651,0.00995 -0.010074,0.00573 -0.010083,0.00573 -0.2904175,3.836e-4 -0.2904162,3.838e-4 z M 4.5317075,1.0985378 V 0.98901632 H 4.6412277 4.7507504 V 1.0985378 1.2080593 H 4.6412277 4.5317075 Z"
       id="path2220" />
    <path
       style="fill:#00006e;fill-opacity:1;stroke:#000000;stroke-width:0.00196052;stroke-miterlimit:4;stroke-dasharray:none;stroke-opacity:1"
       d="m 1.6453599,15.476792 0.00785,-1.93981 0.059184,-0.251296 c 0.2412903,-1.024564 0.7419039,-1.68791 1.6420905,-2.175882 0.7626101,-0.413395 1.7736386,-0.422407 2.5153567,-0.02242 0.9815958,0.529342 1.5277417,1.287401 1.7102517,2.373852 0.04242,0.252505 0.04521,0.382827 0.04521,2.112237 v 1.843128 H 4.6314048 1.6375076 Z m 5.7226349,-0.0739 C 7.3598948,13.7495 7.3570748,13.648721 7.3123748,13.437416 7.1685968,12.757726 6.8853299,12.215542 6.488378,11.860258 6.2460748,11.643389 5.90526,11.408302 5.6841976,11.305549 4.8866948,10.93486 3.9651587,11.00977 3.2268805,11.505301 2.5256187,11.975985 2.1627793,12.507159 1.9652592,13.352236 l -0.060451,0.258642 -0.00807,1.767383 -0.00807,1.767383 h 2.7439179 2.7439177 z m -5.0432487,1.151569 c 0,-0.161882 0.025829,-0.186774 0.078922,-0.07608 0.045029,0.09389 0.1419967,0.174603 0.2097493,0.174603 0.053301,0 0.1454259,-0.0769 0.1454259,-0.121404 0,-0.04775 -0.075835,-0.1012 -0.197888,-0.139455 -0.1585829,-0.04971 -0.2133614,-0.106539 -0.2133614,-0.22137 0,-0.176558 0.1968444,-0.291647 0.3488299,-0.20395 0.03662,0.02113 0.05099,0.02113 0.057518,0 0.00476,-0.01549 0.023271,-0.02816 0.041073,-0.02816 0.024001,0 0.032364,0.03501 0.032364,0.135478 0,0.104003 -0.00797,0.13548 -0.034269,0.13548 -0.018847,0 -0.034599,-0.01941 -0.034999,-0.04311 -0.00261,-0.15242 -0.2330182,-0.232146 -0.2972134,-0.102822 -0.035405,0.07133 0.00223,0.111042 0.1486279,0.156933 0.181354,0.05684 0.2292771,0.108593 0.2292771,0.247594 0,0.09563 -0.010867,0.125235 -0.064107,0.174605 -0.075036,0.06959 -0.2283286,0.08111 -0.3053428,0.02296 -0.042694,-0.03224 -0.051604,-0.03224 -0.076427,0 -0.051027,0.06629 -0.068193,0.03828 -0.068193,-0.111299 z m 0.5711288,0.107561 c 3.92e-5,-0.01536 0.020613,-0.03372 0.045743,-0.0408 0.04238,-0.01194 0.045698,-0.0336 0.045698,-0.298254 0,-0.258694 -0.00431,-0.288247 -0.045698,-0.316137 -0.077917,-0.05247 -0.05158,-0.06818 0.1142356,-0.06818 0.1527384,0 0.2114576,0.02899 0.1142365,0.0564 -0.038885,0.01097 -0.045698,0.0336 -0.045698,0.151897 v 0.139014 l 0.1299026,-0.0074 0.1299026,-0.0074 -0.00215,-0.08006 c -0.00115,-0.04403 -0.00307,-0.103263 -0.00422,-0.131627 -0.00123,-0.02966 -0.021489,-0.05704 -0.047771,-0.06445 -0.097221,-0.02742 -0.038501,-0.0564 0.1142357,-0.0564 0.1501509,0 0.2090797,0.03048 0.1256601,0.06499 -0.02791,0.01155 -0.034269,0.07082 -0.034269,0.31945 0,0.25493 0.00568,0.305271 0.034269,0.305271 0.018847,0 0.034269,0.01433 0.034269,0.03186 0,0.02336 -0.040122,0.03043 -0.1505985,0.02648 -0.1583817,-0.0057 -0.2121772,-0.02621 -0.1295064,-0.04953 0.056742,-0.01599 0.066142,-0.04976 0.055045,-0.197636 l -0.00804,-0.106754 H 3.2477606 3.1244016 v 0.137785 c 0,0.117069 0.00684,0.139722 0.045698,0.150667 0.091987,0.02594 0.041719,0.05257 -0.1142872,0.06054 -0.1084571,0.0056 -0.1599661,-8.45e-4 -0.1599308,-0.01974 z m 0.7997008,-0.0028 c 1.5e-6,-0.01694 0.020568,-0.03079 0.045698,-0.03079 0.043247,0 0.045698,-0.01642 0.045698,-0.306248 0,-0.284612 -0.00322,-0.30735 -0.045698,-0.321882 -0.1148994,-0.03932 -0.024039,-0.06158 0.2513195,-0.06158 h 0.2970136 v 0.13548 c 0,0.138861 -0.03387,0.182522 -0.058738,0.07572 -0.026198,-0.11255 -0.1486286,-0.178721 -0.2521519,-0.136286 -0.046397,0.01902 -0.054668,0.03905 -0.054668,0.13241 0,0.06051 0.00935,0.116236 0.020783,0.123853 0.037011,0.02466 0.093491,-0.01485 0.1075486,-0.07524 0.00752,-0.03237 0.028009,-0.05886 0.045497,-0.05886 0.024132,0 0.031796,0.04156 0.031796,0.172427 0,0.188828 -0.037464,0.232572 -0.084395,0.09853 -0.017626,-0.05035 -0.041428,-0.0739 -0.074691,-0.0739 -0.044999,0 -0.048286,0.0111 -0.041964,0.141637 l 0.00684,0.141637 0.087423,0.0077 c 0.1100131,0.0098 0.1894221,-0.04424 0.2094206,-0.142402 0.025506,-0.125205 0.060045,-0.08432 0.052718,0.06241 l -0.00684,0.137134 -0.2913057,0.0045 c -0.2200425,0.0034 -0.291305,-0.003 -0.2913019,-0.02628 z m 0.6853967,0 c 1.31e-5,-0.01694 0.020583,-0.03079 0.04572,-0.03079 0.043247,0 0.045698,-0.01642 0.045698,-0.306248 0,-0.284612 -0.00322,-0.30735 -0.045698,-0.321882 -0.096684,-0.03308 -0.038532,-0.06158 0.1256594,-0.06158 0.1646557,0 0.2222973,0.02851 0.1249703,0.06182 -0.043747,0.01497 -0.046019,0.0329 -0.039983,0.315724 l 0.00637,0.299853 0.0732,0.0076 c 0.099268,0.01035 0.1641764,-0.03205 0.2032105,-0.132779 0.017956,-0.04633 0.042787,-0.08424 0.055182,-0.08424 0.024423,0 0.02592,0.122629 0.00268,0.221692 l -0.014431,0.06158 H 4.672235 c -0.2178413,0 -0.2913196,-0.0077 -0.2913019,-0.03079 z m 0.6854291,0.0028 c 6.2e-6,-0.01536 0.020575,-0.03372 0.045705,-0.0408 0.042517,-0.01199 0.045698,-0.0336 0.045698,-0.310779 0,-0.277797 -0.00299,-0.297897 -0.044061,-0.297897 -0.059253,0 -0.1152288,0.0643 -0.1312697,0.150765 -0.022603,0.121836 -0.053139,0.07766 -0.053139,-0.07687 v -0.147795 h 0.2940706 0.2940699 l 0.015252,0.123969 c 0.021028,0.170936 -0.00606,0.200657 -0.064061,0.07032 -0.037464,-0.08416 -0.062179,-0.10982 -0.1116598,-0.115946 l -0.063546,-0.0078 0.00646,0.303459 c 0.00629,0.295839 0.00775,0.303661 0.059153,0.311515 0.029001,0.0045 0.049222,0.01936 0.044953,0.03318 -0.011082,0.03585 -0.3375975,0.04043 -0.3375837,0.0047 z m 0.5483715,-0.0011 c -1.55e-5,-0.01598 0.02311,-0.03262 0.051381,-0.03695 0.050052,-0.0077 0.051404,-0.01567 0.051404,-0.303462 0,-0.282911 -0.00223,-0.296632 -0.051404,-0.319905 -0.1014481,-0.04799 -0.046842,-0.06189 0.2429434,-0.06189 0.2859373,0 0.2947426,0.0015 0.3081255,0.05542 0.039369,0.15838 -0.011828,0.28308 -0.057824,0.140834 -0.031734,-0.09815 -0.1476218,-0.158677 -0.2351202,-0.12281 -0.051727,0.02121 -0.058209,0.03765 -0.058209,0.147635 0,0.146648 0.047218,0.168203 0.1095869,0.05003 0.021405,-0.04056 0.046634,-0.07381 0.056057,-0.0739 0.00942,-9.1e-5 0.017135,0.07744 0.017135,0.172271 0,0.09484 -0.00771,0.172358 -0.017135,0.172273 -0.00942,-9.1e-5 -0.034645,-0.03334 -0.056057,-0.0739 -0.021405,-0.04056 -0.055336,-0.07374 -0.075397,-0.07374 -0.029968,0 -0.035252,0.02528 -0.029622,0.141637 l 0.00684,0.141637 0.087918,0.0077 c 0.099398,0.0088 0.1548159,-0.03172 0.1983565,-0.145049 0.03814,-0.09927 0.067917,-0.09033 0.067548,0.02025 -6.682e-4,0.19724 0.00998,0.190903 -0.320675,0.190903 -0.212124,0 -0.2958416,-0.0082 -0.2958608,-0.02908 z m 0.6949094,0.01881 c -0.023179,-0.025 -0.00553,-0.0485 0.041888,-0.05575 0.049552,-0.0076 0.051642,-0.01832 0.057849,-0.297474 0.00646,-0.288867 0.00629,-0.289677 -0.051404,-0.31802 -0.1150852,-0.05654 -0.058231,-0.0751 0.2025994,-0.06617 0.2981961,0.01021 0.3564311,0.04014 0.3564311,0.183206 0,0.08638 -0.0398,0.144897 -0.116356,0.171094 -0.04678,0.01601 -0.04684,0.01681 -0.0031,0.04983 0.02444,0.01845 0.05752,0.08391 0.0735,0.145455 0.03234,0.124578 0.03961,0.130698 0.08156,0.06883 0.01607,-0.02368 0.03707,-0.03459 0.04668,-0.02423 0.02712,0.02922 -0.06935,0.152538 -0.126438,0.161649 -0.07589,0.01211 -0.131419,-0.05774 -0.144367,-0.181577 -0.01367,-0.130786 -0.04903,-0.183733 -0.1227051,-0.183733 -0.05072,0 -0.054322,0.0091 -0.054322,0.137785 0,0.117069 0.00684,0.139722 0.045698,0.150667 0.02513,0.0071 0.045698,0.02544 0.045698,0.0408 0,0.02634 -0.3099081,0.04275 -0.33319,0.01765 z M 6.7342599,16.23425 c 0.09227,-0.09948 0.04145,-0.221693 -0.09219,-0.221693 h -0.090585 v 0.135479 c 0,0.13411 6.912e-4,0.135479 0.068538,0.135479 0.03808,0 0.08885,-0.0219 0.1142351,-0.04926 z m -3.6273991,-1.656364 0.00831,-0.917733 0.060337,-0.178467 c 0.033186,-0.09816 0.094377,-0.247655 0.1359854,-0.332219 0.091156,-0.185261 0.3674007,-0.489389 0.551412,-0.607068 0.4884412,-0.312371 1.1190479,-0.312371 1.6073278,0 0.071518,0.04575 0.2134512,0.171865 0.3154054,0.280248 0.1477508,0.157067 0.2046175,0.239552 0.2802063,0.406437 0.1531123,0.338039 0.1680135,0.470536 0.1606759,1.428685 l -0.00629,0.825189 -1.5608231,0.0064 -1.5608232,0.0064 z m 1.6536986,0.74042 c -0.008,-0.04314 -0.031443,-0.09857 -0.052087,-0.123164 -0.035675,-0.04251 -0.033002,-0.04473 0.053846,-0.04473 0.058346,0 0.1041678,-0.01559 0.1267284,-0.04311 0.037227,-0.04541 0.1545201,-0.346399 0.1545201,-0.396522 0,-0.02009 0.019792,-0.02346 0.062832,-0.01069 0.12127,0.03598 0.6482229,-0.01641 0.7520934,-0.07475 0.1069957,-0.0601 0.2037959,-0.292348 0.1928837,-0.462774 -0.00268,-0.04249 -0.3763488,-0.241263 -0.6479632,-0.344712 -0.096099,-0.0366 -0.1542192,-0.07243 -0.1542192,-0.09508 0,-0.01999 -0.016067,-0.08169 -0.035698,-0.137117 -0.031995,-0.09032 -0.059184,-0.114676 -0.2621353,-0.234831 -0.1823555,-0.107963 -0.2265574,-0.144911 -0.2270467,-0.189783 -6.198e-4,-0.05676 -0.1303413,-0.613555 -0.1515771,-0.650601 -0.028056,-0.04894 -0.048601,-0.0095 -0.074713,0.143255 -0.015376,0.08998 -0.05112,0.210502 -0.079429,0.267834 l -0.051473,0.104244 -0.073838,-0.175463 c -0.081275,-0.193141 -0.195186,-0.359019 -0.2246804,-0.327177 -0.010391,0.01122 -0.019254,0.188501 -0.019699,0.393962 -6.389e-4,0.296942 -0.00842,0.388724 -0.03794,0.447464 -0.047963,0.09543 -0.1404069,0.186468 -0.2720468,0.267912 -0.05784,0.03578 -0.1218775,0.08498 -0.1423001,0.109303 -0.020422,0.02433 -0.078292,0.182186 -0.1285993,0.350793 -0.088665,0.297165 -0.1128986,0.352445 -0.2252281,0.513769 -0.04804,0.06898 -0.0491,0.07606 -0.01142,0.07597 0.068284,-1.52e-4 0.1844753,-0.09029 0.2521842,-0.195638 0.034937,-0.05436 0.114927,-0.195011 0.1777567,-0.312568 0.151431,-0.283329 0.2682565,-0.409207 0.4735568,-0.510248 0.091391,-0.04498 0.1802757,-0.100237 0.1975224,-0.122797 0.048623,-0.0636 0.069667,-0.04945 0.085529,0.0575 0.016636,0.112181 0.011604,0.110084 0.1536498,0.064 l 0.1064434,-0.03454 v 0.09452 c 0,0.05198 -0.010921,0.125489 -0.024269,0.163346 -0.018002,0.05106 -0.017273,0.07134 0.00285,0.07856 0.084581,0.0304 0.1539672,0.149097 0.2036905,0.348457 0.028725,0.115158 0.071695,0.246504 0.09549,0.291882 0.043071,0.08213 0.043018,0.08308 -0.01119,0.209376 -0.029953,0.06978 -0.065974,0.157355 -0.080044,0.194612 -0.023517,0.06226 -0.035675,0.06774 -0.1503904,0.06774 -0.1194614,0 -0.1776728,0.02814 -0.1274357,0.06162 0.01301,0.0086 0.049338,0.07039 0.080722,0.137181 0.065673,0.139729 0.115354,0.162651 0.093154,0.04298 z M 2.487812,15.240236 c -0.052764,-0.06056 -0.052932,-0.0624 -0.011214,-0.124132 0.05244,-0.0776 0.056811,-0.0778 0.1196617,-0.0058 l 0.051012,0.05854 -0.052947,0.06636 -0.052948,0.06636 z m 4.2714989,-10e-4 c -0.05181,-0.05946 -0.05197,-0.06137 -0.01028,-0.12306 0.05274,-0.07805 0.05654,-0.07811 0.122899,-0.0021 l 0.05424,0.06225 -0.05712,0.06158 -0.05712,0.06158 -0.05263,-0.06039 z m -0.322064,-0.655371 c 0,-0.315124 0.012841,-0.374338 0.05741,-0.2648 0.021589,0.05304 0.034314,0.05542 0.29672,0.05542 0.266926,0 0.274359,-0.0015 0.281466,-0.05542 0.004,-0.03049 0.01687,-0.05542 0.02856,-0.05542 0.01169,0 0.02126,0.08313 0.02126,0.184743 0,0.175035 -0.02624,0.242984 -0.05231,0.135478 -0.01111,-0.04581 -0.03117,-0.04926 -0.285778,-0.04926 -0.2709446,0 -0.2739753,6.29e-4 -0.2877666,0.05988 -0.02281,0.098 0.02288,0.184541 0.1229495,0.232844 0.1137551,0.05491 0.09648,0.07677 -0.060658,0.07677 H 6.4372499 Z M 2.644607,14.731051 c 0,-0.01389 0.023133,-0.03475 0.051404,-0.04637 0.1585106,-0.06515 0.2289821,-0.260066 0.1214797,-0.336009 -0.085011,-0.06005 -0.1366628,-0.01476 -0.1820514,0.159642 -0.023562,0.09054 -0.057924,0.162812 -0.088326,0.185769 -0.059269,0.04476 -0.196355,0.04809 -0.2471965,0.006 -0.084221,-0.06971 -0.1141821,-0.21735 -0.064445,-0.317546 0.018057,-0.03637 0.018057,-0.05774 0,-0.0772 -0.047465,-0.05118 -0.024462,-0.06633 0.1006955,-0.06633 0.1237216,0 0.1669598,0.0318 0.082513,0.06071 -0.067717,0.02317 -0.1624784,0.12915 -0.1624784,0.181711 0,0.02624 0.018632,0.07252 0.041404,0.102835 0.068684,0.09145 0.134093,0.04754 0.1772512,-0.118993 0.044154,-0.170386 0.1179277,-0.250895 0.2299008,-0.250895 0.1641833,0 0.2587746,0.190095 0.1906785,0.383197 -0.01576,0.0447 -0.015828,0.07593 -1.996e-4,0.09624 0.012726,0.01653 0.016374,0.03736 0.00811,0.04627 -0.024684,0.02661 -0.2587369,0.01844 -0.2587361,-0.009 z m 3.7771182,-0.719893 c -0.019248,-0.151904 3.808e-4,-0.213945 0.042203,-0.13337 0.016643,0.03206 0.030736,0.03419 0.076814,0.01154 0.04599,-0.02259 0.056435,-0.04553 0.056435,-0.123917 0,-0.05291 -0.010644,-0.117635 -0.023655,-0.143841 -0.031251,-0.06296 -0.1142488,-0.06192 -0.1296592,0.0015 -0.015968,0.06582 -0.04897,0.06253 -0.061796,-0.0062 -0.043539,-0.233062 -0.038693,-0.249777 0.047187,-0.162791 0.03228,0.0327 0.1674536,0.08742 0.3556039,0.14397 0.191256,0.05748 0.305865,0.104071 0.309838,0.125947 0.0041,0.02262 -0.101385,0.09258 -0.302725,0.20077 -0.1916567,0.102981 -0.3090321,0.180127 -0.3090321,0.203114 0,0.02038 -0.00938,0.03707 -0.020852,0.03707 -0.011467,0 -0.02963,-0.06928 -0.04036,-0.153952 z m 0.4496177,-0.316049 c 0,-0.01397 -0.17384,-0.07192 -0.215742,-0.07192 -0.01723,0 -0.01628,0.160386 0.0011,0.179081 0.01595,0.0172 0.214687,-0.08201 0.214687,-0.107167 z M 2.834675,14.093977 C 2.827845,14.065727 2.7076332,13.976802 2.5283766,13.867362 2.3661157,13.768302 2.2333568,13.674395 2.2333568,13.658686 c 0,-0.02425 0.3103733,-0.115934 0.5902794,-0.174376 0.041919,-0.0087 0.081574,-0.03096 0.088122,-0.04936 0.00653,-0.01839 0.021083,-0.03345 0.032311,-0.03345 0.023041,0 0.022826,0.147126 -3.84e-4,0.258641 -0.015322,0.07362 -0.015484,0.07369 -0.043907,0.01826 -0.022765,-0.0444 -0.041036,-0.05241 -0.090441,-0.03964 -0.034054,0.0088 -0.063324,0.01722 -0.065043,0.01869 -0.00169,0.0015 -0.010283,0.06001 -0.019031,0.130053 -0.014493,0.116049 -0.011305,0.130015 0.035867,0.157233 0.044876,0.02589 0.057371,0.02241 0.093854,-0.02616 0.056319,-0.07498 0.065282,-0.05764 0.048624,0.09403 -0.014101,0.128343 -0.047871,0.168208 -0.06893,0.08137 z M 2.6731359,13.777149 c 0.00584,-0.05081 0.00821,-0.09567 0.00522,-0.09971 -0.00299,-0.004 -0.060443,0.0077 -0.1276401,0.02604 l -0.122174,0.03338 0.102323,0.0661 c 0.05628,0.03636 0.1089087,0.06621 0.1169583,0.06634 0.00805,1.2e-4 0.019439,-0.04133 0.025314,-0.09214 z m 3.5728368,-0.585141 c -0.1057721,-0.171752 -0.1108081,-0.219221 -0.01652,-0.155737 0.036519,0.02458 0.072701,0.0081 0.2429844,-0.110846 0.1100431,-0.07686 0.1856978,-0.13963 0.1681208,-0.139502 -0.01758,1.21e-4 -0.1476207,0.0374 -0.2889888,0.08283 -0.1574041,0.05058 -0.2568722,0.07198 -0.2566203,0.05519 2.42e-4,-0.01508 0.081503,-0.127172 0.1806145,-0.249102 0.099111,-0.121931 0.1768576,-0.225425 0.1727686,-0.229988 -0.00407,-0.0045 -0.090506,0.04915 -0.1920375,0.119376 -0.1447486,0.100108 -0.1846036,0.14014 -0.1846036,0.185427 0,0.09549 -0.036596,0.09023 -0.1008791,-0.0145 -0.057831,-0.09422 -0.062356,-0.184574 -0.00623,-0.124042 0.043155,0.04653 0.088178,0.03014 0.2771189,-0.100917 0.2442816,-0.169438 0.2556429,-0.181059 0.2210128,-0.226046 -0.01748,-0.02272 -0.019392,-0.04154 -0.00514,-0.051 0.021267,-0.01417 0.1625784,0.181178 0.1623574,0.224446 -3e-5,0.0111 -0.056603,0.08848 -0.125659,0.171938 -0.069053,0.08346 -0.1255576,0.15699 -0.1255576,0.163402 0,0.0064 0.084292,-0.01476 0.1873167,-0.04706 0.103023,-0.03229 0.194578,-0.05872 0.203454,-0.05872 0.02954,0 0.137274,0.221933 0.121281,0.249834 -0.01061,0.01849 -0.02253,0.01437 -0.03656,-0.01267 -0.01145,-0.02205 -0.02984,-0.04011 -0.04086,-0.04011 -0.01102,0 -0.119255,0.06882 -0.240517,0.152913 -0.190129,0.131868 -0.2190827,0.160767 -0.2103603,0.209965 0.018225,0.102771 -0.022126,0.08191 -0.1064879,-0.0551 z m -3.2586578,0.02878 c 0,-0.04908 -0.034461,-0.07451 -0.234184,-0.172712 -0.1288013,-0.06333 -0.2433319,-0.11503 -0.2545121,-0.114874 -0.011183,1.51e-4 -0.032741,0.0186 -0.047917,0.04096 -0.015176,0.02237 -0.03364,0.03013 -0.041036,0.01723 -0.00737,-0.0129 0.027019,-0.115296 0.07648,-0.227551 0.049453,-0.112255 0.08992,-0.211762 0.08992,-0.221125 0,-0.0094 0.015791,-0.04132 0.035083,-0.07103 l 0.035083,-0.05401 0.1020012,0.05343 c 0.056104,0.02939 0.102001,0.0623 0.102001,0.07315 0,0.01085 -0.038555,0.01989 -0.085676,0.0201 -0.097518,4.3e-4 -0.1186518,0.01236 -0.1726784,0.09748 -0.058807,0.09265 -0.047932,0.121304 0.06605,0.17398 0.1271693,0.05877 0.1158609,0.059 0.1308287,-0.0028 0.0078,-0.03216 -0.00461,-0.06943 -0.033509,-0.100583 -0.073231,-0.07896 -0.032179,-0.08149 0.1283913,-0.0079 0.1650942,0.07566 0.1891102,0.11043 0.073001,0.105724 -0.1663829,-0.0068 -0.1729257,0.07265 -0.012657,0.153581 0.1136705,0.0574 0.1173854,0.05771 0.1482707,0.01217 0.063047,-0.09295 0.061649,-0.0094 -0.00223,0.134726 -0.069037,0.15572 -0.1026854,0.1852 -0.1026854,0.08995 z m 0.2687704,-0.424491 c -0.00812,-0.0087 -0.00261,-0.0369 0.012258,-0.06256 0.023832,-0.04114 0.00383,-0.07167 -0.1696079,-0.258637 -0.1752406,-0.188934 -0.2017819,-0.209016 -0.2440255,-0.184642 -0.1096322,0.06327 -0.057656,-0.02725 0.133391,-0.232267 l 0.2040729,-0.219001 0.080349,0.08396 c 0.092389,0.09654 0.1027815,0.136806 0.028939,0.112133 -0.1388509,-0.0464 -0.1568034,-0.04438 -0.2241621,0.02519 -0.036927,0.03814 -0.06714,0.08212 -0.06714,0.09773 0,0.01561 0.034776,0.0625 0.077283,0.104203 0.056934,0.05586 0.084004,0.06857 0.1028121,0.04829 0.031712,-0.03419 0.033256,-0.108145 0.00268,-0.128518 -0.032541,-0.02168 -0.028286,-0.06158 0.0066,-0.06158 0.040514,0 0.2540406,0.237226 0.2287135,0.254102 -0.011228,0.0075 -0.035352,0.0034 -0.053601,-0.009 -0.04552,-0.03104 -0.1300049,-0.02912 -0.1486363,0.0034 -0.019984,0.03487 0.1240395,0.194932 0.175398,0.194932 0.05042,0 0.1343035,-0.113774 0.1341191,-0.181907 -5.77e-5,-0.02866 -0.0148,-0.0824 -0.032718,-0.119424 -0.050513,-0.104394 -0.0066,-0.100904 0.091353,0.0073 l 0.088769,0.09801 -0.2060336,0.222133 c -0.1133105,0.122201 -0.2126681,0.215 -0.2207876,0.206246 z M 5.714238,12.469817 C 5.5734211,12.361336 5.5589991,12.332064 5.645785,12.33088 c 0.056212,-7.65e-4 0.085627,-0.03245 0.2111126,-0.227357 0.136086,-0.211376 0.1644015,-0.303133 0.093543,-0.303133 -0.017533,0 -0.017787,-0.0077 -8.449e-4,-0.02603 0.01695,-0.01827 0.062249,0.002 0.1521346,0.06774 0.132603,0.09713 0.1546576,0.147832 0.059345,0.13643 -0.046273,-0.0056 -0.078063,0.02935 -0.1979203,0.217157 -0.1420267,0.222547 -0.1635759,0.277651 -0.1199483,0.30672 0.026597,0.01772 0.030874,0.06244 0.00568,0.05977 -0.00942,-9.46e-4 -0.070036,-0.04257 -0.1346943,-0.09237 z m -0.2731442,-0.17107 c -0.013832,-0.0099 -0.064054,-0.145496 -0.111603,-0.301297 -0.1228837,-0.402617 -0.1270224,-0.409062 -0.1661219,-0.25864 -0.083975,0.323065 -0.084547,0.328539 -0.03996,0.381661 0.059384,0.07074 0.036081,0.07924 -0.098808,0.03605 -0.1086007,-0.03477 -0.1603172,-0.08517 -0.087391,-0.08517 0.056895,0 0.1061337,-0.08906 0.1635229,-0.295773 0.067839,-0.244347 0.069152,-0.268132 0.017119,-0.309152 -0.063554,-0.0501 -0.020898,-0.06433 0.093763,-0.03127 0.091492,0.02639 0.1090837,0.04217 0.1312098,0.117796 0.079941,0.273225 0.1437239,0.444648 0.1589921,0.427305 0.016727,-0.019 0.090079,-0.267963 0.090079,-0.305739 0,-0.01013 -0.016643,-0.03635 -0.036988,-0.05829 -0.055182,-0.0595 -0.022442,-0.07272 0.093454,-0.03774 0.1031999,0.03115 0.1440372,0.09873 0.05966,0.09873 -0.048117,0 -0.073684,0.0605 -0.1793448,0.424458 -0.040821,0.14062 -0.07115,0.208843 -0.087586,0.197061 z M 4.106829,12.151171 c 0,-0.01029 0.019362,-0.03174 0.043024,-0.04768 0.040706,-0.02742 0.058885,-0.08093 0.1845453,-0.543275 0.02745,-0.100995 0.061197,-0.178586 0.077677,-0.178586 0.016029,0 0.097656,0.149644 0.1813955,0.332541 0.095625,0.208852 0.1651563,0.332538 0.1869405,0.332538 0.019078,0 0.034683,0.0097 0.034683,0.02145 0,0.02552 -0.2724869,0.06248 -0.2935131,0.0398 -0.008,-0.0086 0.00338,-0.02648 0.025253,-0.03969 0.036397,-0.02196 0.036842,-0.03016 0.00522,-0.09616 -0.032848,-0.06848 -0.040114,-0.07136 -0.1427954,-0.05658 -0.059506,0.0085 -0.115741,0.02773 -0.1249727,0.04259 -0.031788,0.05113 -0.017388,0.117854 0.028209,0.130711 0.067133,0.01892 0.055719,0.04809 -0.025705,0.06563 -0.096967,0.02091 -0.1799223,0.01939 -0.1799223,-0.0034 z m 0.3820338,-0.312286 c 0.011382,-0.0095 -0.091158,-0.210922 -0.1073988,-0.210922 -0.00969,0 -0.023785,0.03048 -0.031335,0.06774 -0.00752,0.03726 -0.020506,0.09346 -0.028793,0.124903 -0.014392,0.05463 -0.011136,0.0564 0.0737,0.03984 0.048824,-0.0095 0.091038,-0.01923 0.093819,-0.02156 z"
       id="path828"
       inkscape:connector-curvature="0" />
    <g
       id="g2297"
       transform="matrix(0.00257467,0.01009347,0.01009347,-0.00257467,8.4757087,14.932089)"
       style="fill:#ff0000;fill-opacity:1">
      <g
         id="g2238"
         style="fill:#ff0000;fill-opacity:1">
	<polygon
   points="0,231 33,231 99,148 33,66 0,66 66,148 "
   id="polygon2230"
   style="fill:#ff0000;fill-opacity:1" />

	<polygon
   points="50,231 83,231 149,148 83,66 50,66 116,148 "
   id="polygon2232"
   style="fill:#ff0000;fill-opacity:1" />

	<polygon
   points="100,231 133,231 199,148 133,66 100,66 166,148 "
   id="polygon2234"
   style="fill:#ff0000;fill-opacity:1" />

	<polygon
   points="149,231 231,231 297,148 231,66 149,66 215,148 "
   id="polygon2236"
   style="fill:#ff0000;fill-opacity:1" />

</g>
      <g
         id="g2240"
         style="fill:#ff0000;fill-opacity:1">
</g>
      <g
         id="g2242"
         style="fill:#ff0000;fill-opacity:1">
</g>
      <g
         id="g2244"
         style="fill:#ff0000;fill-opacity:1">
</g>
      <g
         id="g2246"
         style="fill:#ff0000;fill-opacity:1">
</g>
      <g
         id="g2248"
         style="fill:#ff0000;fill-opacity:1">
</g>
      <g
         id="g2250"
         style="fill:#ff0000;fill-opacity:1">
</g>
      <g
         id="g2252"
         style="fill:#ff0000;fill-opacity:1">
</g>
      <g
         id="g2254"
         style="fill:#ff0000;fill-opacity:1">
</g>
      <g
         id="g2256"
         style="fill:#ff0000;fill-opacity:1">
</g>
      <g
         id="g2258"
         style="fill:#ff0000;fill-opacity:1">
</g>
      <g
         id="g2260"
         style="fill:#ff0000;fill-opacity:1">
</g>
      <g
         id="g2262"
         style="fill:#ff0000;fill-opacity:1">
</g>
      <g
         id="g2264"
         style="fill:#ff0000;fill-opacity:1">
</g>
      <g
         id="g2266"
         style="fill:#ff0000;fill-opacity:1">
</g>
      <g
         id="g2268"
         style="fill:#ff0000;fill-opacity:1">
</g>
    </g>
    <text
       xml:space="preserve"
       style="font-size:0.572738px;line-height:1.25;font-family:Cooper;-inkscape-font-specification:Cooper;fill:#007100;fill-opacity:1;stroke-width:0.00671179"
       x="7.0173497"
       y="6.4709344"
       id="text2301"><tspan
         sodipodi:role="line"
         id="tspan2299"
         x="7.0173497"
         y="6.4709344"
         style="fill:#007100;fill-opacity:1;stroke-width:0.00671179">Donate Online</tspan></text>
    <text
       xml:space="preserve"
       style="font-size:0.575374px;line-height:1.25;font-family:Cooper;-inkscape-font-specification:Cooper;fill:#9b00d6;fill-opacity:1;stroke-width:0.00674269"
       x="1.4586533"
       y="7.8982906"
       id="text2305"><tspan
         sodipodi:role="line"
         id="tspan2303"
         x="1.4586533"
         y="7.8982906"
         style="fill:#9b00d6;fill-opacity:1;stroke-width:0.00674269">Facebook.com/Wizlights</tspan><tspan
         sodipodi:role="line"
         x="1.4586533"
         y="8.6175079"
         style="fill:#9b00d6;fill-opacity:1;stroke-width:0.00674269"
         id="tspan2307" /></text>
    <text
       xml:space="preserve"
       style="font-size:0.571429px;line-height:1.25;font-family:Cooper;-inkscape-font-specification:Cooper;fill:#9b0000;fill-opacity:1;stroke-width:0.00669647"
       x="1.4839392"
       y="7.2314677"
       id="text2311"><tspan
         sodipodi:role="line"
         x="1.4839392"
         y="7.2314677"
         style="fill:#9b0000;fill-opacity:1;stroke-width:0.00669647"
         id="tspan2327">Facebook.com/SafeAnimalShelter</tspan><tspan
         sodipodi:role="line"
         x="1.4839392"
         y="7.9457541"
         style="fill:#9b0000;fill-opacity:1;stroke-width:0.00669647"
         id="tspan2313" /></text>
    <text
       xml:space="preserve"
       style="font-size:0.571429px;line-height:1.25;font-family:Cooper;-inkscape-font-specification:Cooper;fill:#0071d5;fill-opacity:1;stroke-width:0.00669644"
       x="1.4303674"
       y="8.5516777"
       id="text2317"><tspan
         sodipodi:role="line"
         id="tspan2315"
         x="1.4303674"
         y="8.5516777"
         style="fill:#0071d5;fill-opacity:1;stroke-width:0.00669644">SafeAnimalShelter.com</tspan><tspan
         sodipodi:role="line"
         x="1.4303674"
         y="9.2659636"
         style="fill:#0071d5;fill-opacity:1;stroke-width:0.00669644"
         id="tspan2319" /></text>
    <text
       xml:space="preserve"
       id="text2321"
       style="line-height:1.25;font-family:Cooper;font-size:0.88888889px;-inkscape-font-specification:Cooper;white-space:pre;shape-inside:url(#rect2323);" />
    <g
       id="g8762"
       transform="matrix(0.12602724,0,0,0.12602724,-45.727909,-139.84197)">
      <path
         sodipodi:nodetypes="cc"
         inkscape:connector-curvature="0"
         id="path4733"
         d="m 376.48671,1207.3178 c 6.20181,-20.0133 40.57418,-21.6178 46.71846,-0.4008"
         style="fill:none;stroke:none;stroke-width:0.36;stroke-linecap:butt;stroke-linejoin:miter;stroke-miterlimit:4;stroke-dasharray:none;stroke-opacity:1" />
      <text
         y="52.913555"
         x="21.282576"
         id="text7410"
         style="font-style:normal;font-variant:normal;font-weight:normal;font-stretch:normal;font-size:19.1797px;line-height:1.25;font-family:'Brush Script MT';-inkscape-font-specification:'Brush Script MT';letter-spacing:0px;word-spacing:0px;fill:#ff9f00;fill-opacity:1;stroke:none;stroke-width:0.168404;stroke-miterlimit:4;stroke-dasharray:none;stroke-opacity:1"
         xml:space="preserve"><textPath
           id="textPath7445"
           xlink:href="#path7406"><tspan
             id="tspan7408"
             style="fill:#ff9f00;fill-opacity:1;stroke:none;stroke-width:0.168404;stroke-miterlimit:4;stroke-dasharray:none;stroke-opacity:1">Donations</tspan></textPath></text>
    </g>
    <text
       xml:space="preserve"
       style="font-size:0.572738px;line-height:1.25;font-family:Cooper;-inkscape-font-specification:Cooper;fill:#007100;fill-opacity:1;stroke-width:0.00671179"
       x="1.6305454"
       y="0.65887523"
       id="text2301-6"><tspan
         sodipodi:role="line"
         id="tspan2299-6"
         x="1.6305454"
         y="0.65887523"
         style="fill:#007100;fill-opacity:1;stroke-width:0.00671179">Donate by Phone</tspan></text>
    <text
       xml:space="preserve"
       style="font-size:0.888889px;line-height:1.25;font-family:Cooper;-inkscape-font-specification:Cooper;fill:#ff0000;fill-opacity:1;stroke-width:0.0104167"
       x="8.8536158"
       y="13.948481"
       id="text2367"><tspan
         sodipodi:role="line"
         id="tspan2365"
         x="8.8536158"
         y="13.948481"
         style="fill:#ff0000;fill-opacity:1;stroke-width:0.0104167">Ca$h</tspan></text>
  </g>
</svg>
