<?xml version="1.0" encoding="UTF-8" standalone="no"?>
<!-- Created with Inkscape (http://www.inkscape.org/) -->

<svg
   xmlns:dc="http://purl.org/dc/elements/1.1/"
   xmlns:cc="http://creativecommons.org/ns#"
   xmlns:rdf="http://www.w3.org/1999/02/22-rdf-syntax-ns#"
   xmlns:svg="http://www.w3.org/2000/svg"
   xmlns="http://www.w3.org/2000/svg"
   xmlns:sodipodi="http://sodipodi.sourceforge.net/DTD/sodipodi-0.dtd"
   xmlns:inkscape="http://www.inkscape.org/namespaces/inkscape"
   version="1.1"
   width="320.0076"
   height="83.890434"
   id="svg5276"
   inkscape:version="0.92.4 (5da689c313, 2019-01-14)"
   sodipodi:docname="Hogwarts Direction Sign for Lamp Post.svg"
   inkscape:export-filename="C:\Users\Klemen\Downloads\The Chronicles of Narnia logo.png"
   inkscape:export-xdpi="1500.2426"
   inkscape:export-ydpi="1500.2426"
   viewBox="0 0 300.00711 78.647285">
  <sodipodi:namedview
     pagecolor="#ffffff"
     bordercolor="#666666"
     borderopacity="1"
     objecttolerance="10"
     gridtolerance="10"
     guidetolerance="10"
     inkscape:pageopacity="0"
     inkscape:pageshadow="2"
     inkscape:window-width="1920"
     inkscape:window-height="1017"
     id="namedview67"
     showgrid="false"
     inkscape:zoom="3.3010623"
     inkscape:cx="103.22721"
     inkscape:cy="8.4583171"
     inkscape:window-x="-8"
     inkscape:window-y="-8"
     inkscape:window-maximized="1"
     inkscape:current-layer="svg5276"
     fit-margin-top="0"
     fit-margin-left="0"
     fit-margin-right="0"
     fit-margin-bottom="0" />
  <defs
     id="defs5278">
    <clipPath
       id="clipPath3717">
      <path
         d="m 427.26,426.42 h 71.64 v 24 h -71.64 z"
         id="path3719"
         inkscape:connector-curvature="0" />
    </clipPath>
    <clipPath
       id="clipPath3733">
      <path
         d="m 427.264,426.42 h 71.589 v 23.968 h -71.589 z"
         id="path3735"
         inkscape:connector-curvature="0" />
    </clipPath>
    <clipPath
       id="clipPath3745">
      <path
         d="m 427.26,426.42 h 71.64 v 24 h -71.64 z"
         id="path3747"
         inkscape:connector-curvature="0" />
    </clipPath>
    <clipPath
       id="clipPath3773">
      <path
         d="m 427.264,426.42 h 71.589 v 23.968 h -71.589 z"
         id="path3775"
         inkscape:connector-curvature="0" />
    </clipPath>
    <clipPath
       id="clipPath3789">
      <path
         d="m 427.26,426.42 h 71.64 v 24 h -71.64 z"
         id="path3791"
         inkscape:connector-curvature="0" />
    </clipPath>
  </defs>
  <metadata
     id="metadata5281">
    <rdf:RDF>
      <cc:Work
         rdf:about="">
        <dc:format>image/svg+xml</dc:format>
        <dc:type
           rdf:resource="http://purl.org/dc/dcmitype/StillImage" />
        <dc:title />
      </cc:Work>
    </rdf:RDF>
  </metadata>
  <path
     id="path1471"
     style="font-style:normal;font-variant:normal;font-weight:normal;font-stretch:normal;font-size:81.1439209px;line-height:1.25;font-family:'Harry Potter';-inkscape-font-specification:'Harry Potter';letter-spacing:0px;word-spacing:0px;fill:#8e13e4;fill-opacity:1;stroke:none;stroke-width:1.26787376"
     d="m 224.08357,49.625204 q -0.66266,0.476941 -5.30126,3.895017 -5.21841,3.815529 -6.87506,3.815529 -0.2485,0 -0.33133,-0.15898 l -5.54975,-6.518194 q -1.07681,-2.305214 -1.07681,-3.179607 0,-0.953882 1.24248,-1.669293 l 1.65663,-0.953882 3.64462,-0.794901 q -0.66265,0.635921 -0.66265,1.589802 0,0.317961 0.16565,1.430824 0.24851,1.033372 0.16567,1.430822 0.2485,0.953882 2.23647,2.464196 1.98797,1.430823 2.89912,1.192352 0,-0.874391 1.57381,-2.782155 l -0.41416,0.07949 q 0.33133,-0.23847 0.33133,-0.715411 0,-1.033372 -6.4609,-8.107997 -6.37807,-7.154115 -6.37807,-7.790036 0,-0.397451 0.33132,-0.55643 l 0.74549,-0.794903 q 0.66266,-0.47694 5.30126,-3.895017 5.21842,-3.815528 6.87506,-3.815528 0.2485,0 0.33133,0.15898 l 5.54975,6.518193 q 1.07681,2.305215 1.07681,3.179607 0,0.953882 -1.24247,1.669294 l -5.96392,1.271842 v -0.31796 q 0.66266,-0.635922 0.66266,-1.669294 0,-0.39745 -0.2485,-1.510313 -0.16566,-1.112862 -0.0828,-1.589804 -0.24849,-0.953882 -1.57381,-1.748783 -1.24247,-0.874392 -2.3193,-0.874392 -0.91115,0 -1.8223,1.033373 -0.91116,1.033372 -0.91116,1.987254 0,0.55643 0.33133,0.953881 2.5678,3.179607 8.69737,9.538821 4.30728,4.451448 4.30728,5.882271 0,0.556431 -0.41416,0.874392 l -0.497,0.07949 z M 198.05969,8.1317138 c -3.76306,4.9549482 -7.5254,8.7248712 -11.28845,11.3507082 l -3.40759,-5.707398 c -0.11043,-0.158979 -0.30434,-0.238037 -0.58045,-0.238037 -0.88354,0 -2.7608,1.191345 -5.63232,3.57605 V 9.9591066 c -3.5894,2.7556584 -6.79125,5.0611224 -9.60755,6.9158934 l 4.30664,-0.159302 -0.16479,26.550294 c 0,0.847894 -0.11053,1.377381 -0.33142,1.589355 -0.2761,0.370954 -1.13321,0.848957 -2.56897,1.431885 0.497,0 1.24357,-0.02757 2.23755,-0.08057 1.04919,-0.05299 1.82112,-0.07874 2.31811,-0.07874 0.7731,0 1.93281,0.02574 3.47901,0.07874 1.60141,0.05299 2.79013,0.08057 3.56323,0.08057 -1.60142,-0.370954 -2.45853,-1.404186 -2.56897,-3.099976 -0.49699,-7.684049 -0.6347,-15.475559 -0.41382,-23.371582 0.49701,-0.635921 0.91196,-0.979722 1.24328,-1.032715 0.38655,-0.105987 0.9374,0.583444 1.65528,2.06726 0.55222,1.165856 0.94001,2.145773 1.16089,2.940674 -0.16567,0.900889 -0.82888,1.880805 -1.98852,2.940674 v 0.318604 l 7.62084,-4.291992 c 0.55222,-0.158981 0.82765,-0.504612 0.82765,-1.034546 0,-0.13275 -0.0207,-0.264589 -0.0549,-0.397339 h 2.90588 l -0.41381,33.625488 c 0.16567,1.324836 1.57361,2.462866 4.22423,3.416749 l 6.79322,2.385864 c -2.65063,-2.172731 -3.97705,-3.737281 -3.97705,-4.691163 0,-0.211973 0.0562,-0.423402 0.16663,-0.635375 l 0.74524,-33.782959 h 4.63805 l -0.74523,-3.41858 H 197.8949 Z M 149.87507,28.08337 147.39012,24.903763 q -1.32532,-1.669293 -1.32532,-3.577058 0,-0.715411 0.41416,-1.192351 0.82832,-1.033372 8.11755,-5.166861 2.73346,1.907764 5.79824,4.212979 4.3901,3.338586 3.97594,5.40533 l -0.33132,18.123757 3.06478,0.158981 -5.96391,6.438704 q -2.0708,1.430822 -2.98195,1.430822 -0.82832,0 -0.57983,-0.953882 v -2.861646 l -5.30125,3.179607 q -3.64461,0.635921 -6.79223,-13.831288 1.40814,-2.702666 5.13559,-4.292469 l 5.46692,-2.384705 q -2.81629,2.941135 -2.73346,4.61043 -0.16567,1.112862 -0.16567,2.225723 0,5.325842 2.40214,8.425958 1.32531,0.15898 1.8223,-1.430823 V 20.134354 l -1.24249,0.635921 q -0.41416,0.23847 -2.23646,1.351333 -3.06479,1.828273 -3.06479,3.259096 l 0.74549,2.623176 z m -17.83866,24.2445 q -0.24849,0.158979 -0.41415,0.158979 -0.0829,0 -0.16567,-0.07949 0,-0.07949 -0.0829,-0.07949 -0.16565,0 -0.33132,0.158979 l -0.66265,0.476942 q 0.41416,-0.635921 0.41416,-0.715412 -0.24851,-0.07949 -0.66267,-0.397451 l -4.72142,-6.518193 q -0.0828,0.556431 -0.0828,0.23847 -0.82832,0.635922 -1.98798,2.543686 -1.15964,1.828273 -1.73947,2.225725 -3.47894,2.543684 -4.14161,2.543684 -0.41415,0 -0.57981,-0.23847 l -6.37807,-7.313095 q -0.24851,-0.23847 -0.16567,-5.564312 0.0828,-2.543684 0.24849,-10.01576 0,-0.953882 0.16567,-3.020626 0.2485,-2.146235 0.2485,-3.259097 0,-1.828274 -3.14762,-2.543685 l 4.96993,-0.158981 7.37204,0.476942 q -2.07079,0.556431 -2.3193,2.225724 0.16567,0.715412 -0.0828,8.743918 l -0.33134,10.095251 q 0,2.464195 0.16567,2.782156 0.74549,1.510312 2.23647,1.112862 1.32531,-2.066744 3.64461,-5.087371 v -6.677174 q 0,-2.384704 0.0828,-3.974508 l 0.0829,-1.589803 q 0.0828,-0.794901 0.82832,-1.033372 l 4.30726,-3.497568 v 0.317961 q -0.41416,0.317961 -0.41416,0.635922 0,0.23847 0.41416,0.794902 0.497,0.47694 0.497,0.715411 -0.33133,7.710545 -0.0828,16.692934 0,1.112862 1.15966,3.656548 0.74548,-0.158981 4.88709,-5.325841 0,-1.430824 0.41416,-8.584938 0.2485,-4.371959 0,-8.425957 -0.16567,-2.543685 -2.56779,-3.100117 1.32531,0 3.8931,0.07949 2.65063,0.07949 3.97594,0.07949 0.74549,0 2.23646,-0.07949 1.57382,-0.07949 2.3193,-0.07949 -1.90513,0.794902 -2.15363,1.033373 -0.74548,0.55643 -0.74548,1.987254 l -0.41416,15.341601 z M 96.198588,40.165875 Q 96.032924,31.898898 95.618764,23.39345 l -6.543735,-3.497567 -0.993985,23.290618 2.484962,2.066744 z m 7.123562,-19.952031 -0.0828,20.905913 -0.497,18.998149 q -7.620548,6.438702 -13.832955,11.128622 -2.319299,1.748784 -3.313284,1.748784 -0.331328,0 -0.579824,-0.238471 l -3.893149,-6.518193 q -1.076818,-2.305215 -1.076818,-3.179607 0,-0.953881 1.242482,-1.669293 l 7.620552,-4.292469 v 0.317961 q -1.739473,1.589803 -1.98797,2.941136 0.496992,1.987254 1.408146,5.723292 0.41416,1.828273 0.745489,1.748783 0.579824,-0.07949 4.969925,-3.736037 1.98797,-1.669293 2.319298,-3.418078 v -2.305214 q 0,0.23847 -0.165664,-15.421092 l -6.295239,7.233605 -8.117544,-4.61043 -1.822306,-17.964777 8.448872,-11.844034 7.040728,3.577057 q -0.08283,-2.305214 -0.165664,-3.736037 1.490977,1.112862 5.135585,2.702665 2.89913,1.271843 2.89913,1.907765 z M 52.880859,8.5290527 36.893921,8.7670898 c 1.822306,0.7949021 2.953003,1.5891312 3.394775,2.3840332 0.220886,0.423948 0.331421,1.299065 0.331421,2.623901 l -0.0824,22.337036 c -3.258061,1.854771 -6.046789,3.152746 -8.366088,3.894654 L 31.922607,14.410401 c 0,-1.271843 0.636036,-2.384132 1.906128,-3.338013 H 18.339844 c 1.822307,0.794901 2.84247,2.120449 3.063354,3.975219 l 0.249024,24.799805 c -3.47895,-1.006875 -5.245683,-2.569593 -5.300904,-4.689331 -0.110442,-0.63592 0.221164,-1.139665 0.994263,-1.51062 l 2.980957,-1.113281 c -0.496992,-0.05299 -0.96631,-0.07874 -1.408081,-0.07874 -1.380535,0 -3.036734,0.503744 -4.969483,1.51062 -0.110442,4.504442 2.457216,7.365135 7.703248,8.583984 l 0.166626,15.342407 c 0,2.278718 -1.520318,3.86901 -4.557496,4.769898 l 18.969727,0.238037 C 33.911781,61.999502 32.614364,60.75301 32.338257,59.163208 L 32.171631,43.344727 c 2.429741,-0.582929 5.21847,-1.695216 8.366088,-3.338013 l -0.0824,22.415771 c -0.441771,1.695789 -1.684836,2.968023 -3.728027,3.815918 L 54.204712,66.47644 C 51.71975,65.522558 50.478516,64.356956 50.478516,62.979126 L 49.980469,34.282837 c 1.325313,-0.741909 2.430666,-1.111451 3.314208,-1.111451 1.157459,0 2.244897,0.622549 3.264771,1.854859 -0.334175,6.165019 -0.461523,10.232694 -0.377197,12.1344 0.331329,1.165855 3.284944,3.81512 8.862304,7.948608 l 1.490479,0.239868 c 1.767084,-0.211974 4.032143,-1.008035 6.793213,-2.385864 3.313284,-1.642798 4.831771,-3.126458 4.555664,-4.451294 -0.165664,-7.313095 -0.303376,-11.89645 -0.413818,-13.751221 -0.220886,-3.656546 -0.940281,-6.041067 -2.155151,-7.15393 L 74.65393,26.572266 68.772583,22.677612 c -4.086382,1.37783 -8.034816,3.392809 -11.845093,6.042481 -0.0095,0.152797 -0.01451,0.264628 -0.0238,0.415649 -0.588842,-0.110465 -1.138991,-0.177612 -1.622315,-0.177612 -1.159649,0 -2.95356,0.608543 -5.383301,1.827393 l -0.33142,-17.883911 c 0.165662,-1.21885 1.271016,-2.676769 3.314208,-4.3725593 z M 68.358765,25.858154 c 1.049206,2.543686 1.572876,10.730479 1.572876,24.561768 -0.607436,1.059869 -1.739965,1.828357 -3.396607,2.305297 -1.104427,-0.47694 -1.849167,-1.245428 -2.235717,-2.305297 L 63.885498,29.514771 c 0.276107,-0.741909 0.883135,-1.457082 1.8219,-2.145997 z" />
  <text
     xml:space="preserve"
     style="font-style:normal;font-variant:normal;font-weight:normal;font-stretch:normal;font-size:60px;line-height:1.25;font-family:'Harry Potter';-inkscape-font-specification:'Harry Potter';letter-spacing:0px;word-spacing:0px;fill:#000000;fill-opacity:1;stroke:none;stroke-width:0.9375"
     x="8.2359858"
     y="144.25116"
     id="text1606"><tspan
       sodipodi:role="line"
       id="tspan1604"
       x="8.2359858"
       y="200.2708"
       style="stroke-width:0.9375" /></text>
</svg>
