<?xml version="1.0" encoding="UTF-8" standalone="no"?>
<svg
   xmlns:dc="http://purl.org/dc/elements/1.1/"
   xmlns:cc="http://creativecommons.org/ns#"
   xmlns:rdf="http://www.w3.org/1999/02/22-rdf-syntax-ns#"
   xmlns:svg="http://www.w3.org/2000/svg"
   xmlns="http://www.w3.org/2000/svg"
   xmlns:sodipodi="http://sodipodi.sourceforge.net/DTD/sodipodi-0.dtd"
   xmlns:inkscape="http://www.inkscape.org/namespaces/inkscape"
   width="12in"
   height="12in"
   viewBox="0 0 12 12"
   version="1.1"
   id="svg8"
   inkscape:version="1.0.1 (3bc2e813f5, 2020-09-07)"
   sodipodi:docname="Kontroll Centah.svg">
  <defs
     id="defs2" />
  <sodipodi:namedview
     id="base"
     pagecolor="#ffffff"
     bordercolor="#666666"
     borderopacity="1.0"
     inkscape:pageopacity="0.0"
     inkscape:pageshadow="2"
     inkscape:zoom="0.66583926"
     inkscape:cx="642.50255"
     inkscape:cy="566.36904"
     inkscape:document-units="in"
     inkscape:current-layer="layer1"
     inkscape:document-rotation="0"
     showgrid="true"
     units="in"
     inkscape:snap-global="true"
     inkscape:window-width="1920"
     inkscape:window-height="1017"
     inkscape:window-x="-8"
     inkscape:window-y="-8"
     inkscape:window-maximized="1"
     inkscape:snap-nodes="true"
     inkscape:snap-others="false"
     inkscape:snap-smooth-nodes="true"
     inkscape:object-paths="true"
     inkscape:snap-intersection-paths="true"
     inkscape:snap-grids="false"
     inkscape:snap-to-guides="false">
    <inkscape:grid
       type="xygrid"
       id="grid849"
       units="in"
       spacingx="0.25"
       spacingy="0.25"
       empspacing="4" />
  </sodipodi:namedview>
  <metadata
     id="metadata5">
    <rdf:RDF>
      <cc:Work
         rdf:about="">
        <dc:format>image/svg+xml</dc:format>
        <dc:type
           rdf:resource="http://purl.org/dc/dcmitype/StillImage" />
        <dc:title></dc:title>
        <dc:creator>
          <cc:Agent>
            <dc:title>Doctor Wizard</dc:title>
          </cc:Agent>
        </dc:creator>
        <dc:rights>
          <cc:Agent>
            <dc:title>Copyright 2021+ by Doctor Wizard</dc:title>
          </cc:Agent>
        </dc:rights>
        <dc:publisher>
          <cc:Agent>
            <dc:title>Doctor Wizard</dc:title>
          </cc:Agent>
        </dc:publisher>
        <dc:source>Doctor Wizard</dc:source>
        <dc:contributor>
          <cc:Agent>
            <dc:title>Doctor Wizard</dc:title>
          </cc:Agent>
        </dc:contributor>
      </cc:Work>
    </rdf:RDF>
  </metadata>
  <g
     inkscape:label="Layer 1"
     inkscape:groupmode="layer"
     id="layer1">
    <path
       id="path901"
       style="font-size:2px;line-height:1.25;font-family:'Harry Potter';-inkscape-font-specification:'Harry Potter';fill:none;fill-opacity:1;stroke:#c100cd;stroke-width:0.01;stroke-miterlimit:4;stroke-dasharray:none;stroke-opacity:1"
       d="m 8.735007,7.1716776 q -0.016,0.012 -0.128,0.098 -0.126,0.096 -0.166,0.096 -0.006,0 -0.008,-0.004 l -0.134,-0.164 q -0.026,-0.058 -0.026,-0.08 0,-0.024 0.03,-0.042 l 0.04,-0.024 0.088,-0.02 q -0.016,0.016 -0.016,0.04 0,0.008 0.004,0.036 0.006,0.026 0.004,0.036 0.006,0.024 0.054,0.062 0.048,0.036 0.07,0.03 0,-0.022 0.038,-0.07 l -0.01,0.002 q 0.008,-0.006 0.008,-0.018 0,-0.026 -0.156,-0.204 -0.154,-0.18 -0.154,-0.196 0,-0.01 0.008,-0.014 l 0.018,-0.02 q 0.016,-0.012 0.128,-0.098 0.126,-0.096 0.166,-0.096 0.006,0 0.008,0.004 l 0.134,0.164 q 0.026,0.058 0.026,0.08 0,0.024 -0.03,0.042 l -0.144,0.032 v -0.008 q 0.016,-0.016 0.016,-0.042 0,-0.01 -0.006,-0.038 -0.004,-0.028 -0.002,-0.04 -0.006,-0.024 -0.038,-0.044 -0.03,-0.022 -0.056,-0.022 -0.022,0 -0.044,0.026 -0.022,0.026 -0.022,0.05 0,0.014 0.008,0.024 0.062,0.08 0.21,0.24 0.104,0.112 0.104,0.148 0,0.014 -0.01,0.022 l -0.012,0.002 z m -0.5119993,-0.704 h -0.112 l -0.018,0.85 q -0.004,0.008 -0.004,0.016 0,0.036 0.096,0.118 l -0.164,-0.06 q -0.096,-0.036 -0.102,-0.086 l 0.01,-0.846 h -0.168 q 0.172,-0.096 0.344,-0.332 l -0.004,0.254 h 0.104 z m -0.4159977,0.74 v -0.758 l -0.192,-0.132 q -0.054,0.018 -0.068,0.03 -0.032,0.028 -0.11,0.146 l -0.004,-0.47 q -0.008,-0.044 0.044,-0.108 l -0.252,0.02 q 0.04,0.048 0.04,0.098 l -0.018,1.094 q -0.01,0.042 -0.042,0.07 l 0.256,0.006 q -0.042,-0.032 -0.032,-0.096 l 0.004,-0.536 q 0.132,-0.15 0.15,-0.15 0.01,0 0.016,0.01 l 0.032,0.084 q 0.006,0.146 0.004,0.382 -0.002,0.242 -0.01,0.254 -0.006,0.128 -0.144,0.234 0.102,-0.026 0.112,-0.03 0.108,-0.044 0.214,-0.148 z m -0.9019991,-0.274 q -0.004,-0.208 -0.014,-0.422 l -0.158,-0.088 -0.024,0.586 0.06,0.052 z m 0.172,-0.502 -0.002,0.526 -0.012,0.478 q -0.184,0.162 -0.334,0.28 -0.056,0.044 -0.08,0.044 -0.008,0 -0.014,-0.006 l -0.094,-0.164 q -0.026,-0.058 -0.026,-0.08 0,-0.024 0.03,-0.042 l 0.184,-0.108 v 0.008 q -0.042,0.04 -0.048,0.074 0.012,0.05 0.034,0.144 0.01,0.046 0.018,0.044 0.014,-0.002 0.12,-0.094 0.048,-0.042 0.056,-0.086 v -0.058 q 0,0.006 -0.004,-0.388 l -0.152,0.182 -0.196,-0.116 -0.044,-0.452 0.204,-0.298 0.17,0.09 q -0.002,-0.058 -0.004,-0.094 0.036,0.028 0.124,0.068 0.07,0.032 0.07,0.048 z m -0.9219974,0.916 h 0.276 q -0.062,-0.034 -0.052,-0.108 0.016,-0.12 0.022,-0.326 0.006,-0.21 -0.002,-0.362 h -0.18 q 0.014,0.194 0.014,0.354 0,0.212 -0.022,0.354 -0.01,0.062 -0.056,0.088 z m 0.13,-1.146 q 0.026,0.018 0.062,0.018 0.008,0 0.026,-0.004 0.018,-0.004 0.026,-0.004 0.022,0 0.022,0.182 -0.058,0.056 -0.136,0.064 -0.048,-0.052 -0.078,-0.144 0.004,-0.032 0.006,-0.062 0.014,-0.046 0.072,-0.05 z m -0.2359997,1.116 q -0.004,0.008 -0.004,0.016 0,0.036 0.096,0.118 l -0.164,-0.06 q -0.096,-0.036 -0.102,-0.086 l 0.008,-1.118 q 0.1,-0.054 0.11,-0.068 l 0.068,-0.092 -0.004,0.254 z m -0.7799997,-0.962 -0.09,0.262 q 0.08,-0.11 0.174,-0.104 l 0.202,-0.044 q -0.034,0.152 -0.39,0.618 l 0.538,-0.008 0.09,-0.256 q -0.084,0.1 -0.182,0.114 l -0.216,0.032 q 0.124,-0.128 0.204,-0.266 0.072,-0.124 0.182,-0.388 z m -1.1159128,1.098 -0.19,-0.258 q -0.002,0.022 -0.002,0.01 -0.03,0.024 -0.072,0.098 -0.042,0.074 -0.062,0.09 -0.128,0.1 -0.154,0.1 -0.016,0 -0.024,-0.01 l -0.212,-0.288 q -0.012,-0.01 -0.014,-0.218 l -0.006,-0.454 q 0,-0.042 0.004,-0.124 0.004,-0.082 0.004,-0.124 0,-0.072 -0.124,-0.1 l 0.19,-0.006 0.24,0.02 q -0.078,0.02 -0.084,0.086 0.002,0.022 0.004,0.3 l 0.002,0.308 q 0.004,0.282 0.014,0.304 0.022,0.046 0.064,0.046 0.012,0 0.024,-0.002 0.046,-0.082 0.13,-0.2 l -0.01,-0.482 q 0.002,-0.032 0.03,-0.042 l 0.118,-0.136 v 0.012 q -0.014,0.012 -0.014,0.024 0,0.006 0.018,0.028 0.018,0.022 0.018,0.032 0,0.332 0.022,0.656 0,0.014 0.026,0.036 0.026,0.02 0.028,0.028 0.022,0.066 0.034,0.08 0.028,-0.006 0.18,-0.208 -0.004,-0.066 0.002,-0.338 0.004,-0.168 -0.012,-0.332 -0.01,-0.1 -0.102,-0.122 0.044,0 0.13,0.004 0.086,0.002 0.13,0.002 0.03,0 0.086,-0.002 0.058,-0.004 0.088,-0.004 -0.072,0.032 -0.08,0.04 -0.026,0.02 -0.026,0.078 l 0.006,0.644 -0.33,0.442 q -0.01,0.006 -0.016,0.006 -0.044,-0.014 -0.058,-0.024 z" />
    <g
       aria-label="|"
       transform="scale(1.0976694,0.91102112)"
       id="text837"
       style="font-size:1.82204px;line-height:1.25;font-family:'Harry Potter';-inkscape-font-specification:'Harry Potter';fill:none;stroke:#0d0a08;stroke-width:0.01;stroke-miterlimit:4;stroke-dasharray:none;stroke-opacity:1">
      <path
         d="M 1.5137101,6.9131506 1.462693,6.794718 l -0.00547,-0.01822 0.00729,0.5411459 -0.043729,-0.1038563 -0.029153,0.4955949 -0.09839,-0.8527147 0.049195,0.049195 -0.051017,-0.5138153 0.067415,0.045551 -0.041907,-0.5283916 0.1931362,0.00182 z"
         style="fill:none;stroke:#0d0a08;stroke-width:0.01;stroke-miterlimit:4;stroke-dasharray:none;stroke-opacity:1"
         id="path914" />
    </g>
    <path
       id="path869"
       style="font-size:1.24926px;line-height:1.25;font-family:'Auto Mission';-inkscape-font-specification:'Auto Mission';fill:none;stroke:#e70a08;stroke-width:0.0104167;stroke-opacity:1"
       d="m 10.367136,0.97129384 q 0,-0.0330416 0.01719,-0.0495623 0.01719,-0.0165208 0.03807,-0.0165208 0.02088,0 0.03807,0.0165208 0.01719,0.0165208 0.01719,0.0495623 V 1.7287084 q 0,0.033042 -0.01719,0.049562 -0.01719,0.01652 -0.03807,0.01652 -0.02088,0 -0.03807,-0.01652 -0.01719,-0.01652 -0.01719,-0.049562 V 1.6232295 q 0,-0.033042 -0.01228,-0.044479 -0.01105,-0.012709 -0.04298,-0.012709 h -0.202629 q -0.03193,0 -0.04421,0.012709 -0.01105,0.011437 -0.01105,0.044479 v 0.1054789 q 0,0.033042 -0.01719,0.049562 -0.01719,0.01652 -0.038073,0.01652 -0.02088,0 -0.038073,-0.01652 -0.017193,-0.01652 -0.017193,-0.049562 V 0.97129384 q 0,-0.0330416 0.017193,-0.0495623 0.017193,-0.0165208 0.038073,-0.0165208 0.020879,0 0.038073,0.0165208 0.01719,0.0165208 0.01719,0.0495623 V 1.2673972 q 0,0.033042 0.01105,0.045749 0.01228,0.011437 0.04421,0.011437 h 0.202629 q 0.03193,0 0.04298,-0.011437 0.01228,-0.012709 0.01228,-0.045749 z M 9.6401277,1.5533339 q 0.03193,0 0.042982,-0.011437 0.012281,-0.012709 0.012281,-0.045749 v -0.025416 q 0,-0.03177 -0.012281,-0.038125 -0.011052,-0.00636 -0.042982,-0.00636 H 9.3846921 q 0.00123,0 -0.00369,0.00127 -0.00492,0.00127 -0.013509,0.00636 -0.00859,0.00381 -0.019649,0.012709 -0.00982,0.00889 -0.020876,0.024146 -0.017193,0.024146 -0.019649,0.033042 -0.00246,0.00889 -0.00246,0.013979 0,0.017792 0.017193,0.026687 0.017193,0.00889 0.036842,0.00889 h 0.040526 q 0.03193,0 0.049122,0.019063 0.018421,0.017792 0.018421,0.050833 v 0.1016666 q 0,0.033042 -0.018421,0.052104 -0.017193,0.017792 -0.049122,0.017792 H 9.2348692 q -0.03193,0 -0.050351,-0.017792 -0.017193,-0.019062 -0.017193,-0.052104 V 1.6232262 q 0,-0.029229 0.00369,-0.048292 0.00369,-0.020333 0.00982,-0.035583 0.00737,-0.01652 0.018421,-0.033042 0.011052,-0.017792 0.02579,-0.041938 L 9.5283746,0.97129384 q 0.017193,-0.0279582 0.045439,-0.0470207 0.029473,-0.0190625 0.052806,-0.0190625 h 0.06263 q 0.04421,0 0.067543,0.0304999 0.024561,0.0292291 0.024561,0.0775206 v 0.7116647 q 0,0.033042 -0.018421,0.052104 -0.017193,0.017792 -0.049122,0.017792 H 9.5971457 q -0.03193,0 -0.050351,-0.017792 Q 9.529602,1.7579378 9.529602,1.7248959 V 1.6232293 q 0,-0.033042 0.017193,-0.050833 0.018421,-0.019063 0.050351,-0.019063 z m 0,-0.2325619 q 0.015964,0 0.025789,0 0.011052,-0.00127 0.017193,-0.00509 0.00737,-0.00509 0.00982,-0.013979 0.00246,-0.00889 0.00246,-0.025416 V 1.0640644 q 0,-0.03177 -0.013509,-0.038125 -0.012281,-0.00636 -0.04421,-0.00636 -0.019649,0 -0.03807,0.01652 -0.017193,0.01652 -0.03193,0.040666 L 9.4460949,1.2750222 q -0.00859,0.013979 -0.00859,0.024146 0,0.013979 0.012281,0.017792 0.012281,0.00381 0.024561,0.00381 z M 8.6576845,1.1593766 q -0.051578,0 -0.078596,-0.027959 -0.02579,-0.027959 -0.02579,-0.080062 v -0.038125 q 0,-0.052104 0.02579,-0.0800623 0.027018,-0.0279582 0.078596,-0.0279582 h 0.3438557 q 0.051578,0 0.077367,0.0279582 0.027017,0.0279582 0.027017,0.0800623 v 0.038125 q 0,0.052104 -0.027017,0.080062 -0.02579,0.027959 -0.077367,0.027959 h -0.049122 q -0.03193,0 -0.04421,0.012709 -0.011052,0.011437 -0.011052,0.044479 v 0.5121441 q 0,0.033042 -0.017193,0.049562 -0.017193,0.01652 -0.03807,0.01652 -0.020876,0 -0.03807,-0.01652 -0.017193,-0.01652 -0.017193,-0.049562 V 1.216564 q 0,-0.033042 -0.012281,-0.044479 Q 8.7632972,1.159376 8.7313672,1.159376 Z M 8.2462867,1.6232295 q 0.00369,0.0305 0.011052,0.044479 0.00737,0.012709 0.034385,0.012709 0.029473,0 0.039297,-0.012709 0.011052,-0.012709 0.011052,-0.044479 V 0.97129384 q 0,-0.0317707 0.015964,-0.0482915 0.015964,-0.0177916 0.035614,-0.0177916 0.017193,0 0.03193,0.0165208 0.014736,0.0165208 0.014736,0.0495623 V 1.686771 q 0,0.052104 -0.027017,0.080062 -0.025789,0.027959 -0.077367,0.027959 h -0.07491 q -0.051578,0 -0.074912,-0.027959 Q 8.1627777,1.738874 8.1566377,1.686771 L 8.101376,1.2254598 Q 8.097686,1.1924178 8.078043,1.1809808 8.059622,1.1682718 8.046113,1.1682718 H 7.992079 q -0.00246,0 -0.011052,0.00381 -0.00859,0.00254 -0.018421,0.00889 -0.00982,0.00636 -0.018421,0.017792 -0.00737,0.010163 -0.00737,0.026687 v 0.5045195 q 0,0.033042 -0.014736,0.049562 -0.014737,0.01525 -0.03193,0.01525 -0.019649,0 -0.035614,-0.01652 -0.015964,-0.017792 -0.015964,-0.048292 v -0.716745 q 0,-0.0495623 0.024561,-0.0787914 0.02579,-0.0292291 0.073684,-0.0292291 h 0.1326301 q 0.051579,0 0.074912,0.0279582 0.023333,0.0279582 0.029473,0.0800623 z M 7.5143657,1.0195854 q -0.03193,0 -0.04421,0.012709 -0.011052,0.011437 -0.011052,0.044479 v 0.1232705 q 0,0.033042 0.011052,0.045749 0.012281,0.011437 0.04421,0.011437 h 0.1019287 q 0.03193,0 0.047894,0.017792 0.015964,0.017792 0.015964,0.039396 0,0.021604 -0.015964,0.039396 -0.015964,0.017792 -0.047894,0.017792 H 7.366999 q -0.03193,0 -0.04421,0.012709 -0.011052,0.011437 -0.011052,0.044479 v 0.194437 q 0,0.033042 0.011052,0.045749 0.012281,0.011437 0.04421,0.011437 h 0.2492954 q 0.03193,0 0.047894,0.017792 0.015964,0.017792 0.015964,0.039396 0,0.021604 -0.015964,0.039396 -0.015964,0.017792 -0.047894,0.017792 H 7.3178767 q -0.051578,0 -0.078596,-0.027959 -0.02579,-0.027959 -0.02579,-0.080062 V 1.0132312 q 0,-0.052104 0.02579,-0.0800623 0.027017,-0.0279582 0.078596,-0.0279582 h 0.3291191 q 0.03193,0 0.047894,0.0177916 0.015964,0.0177916 0.015964,0.0393958 0,0.0216041 -0.015964,0.0393958 -0.015964,0.017792 -0.047894,0.017792 z M 6.6461324,1.6232295 q 0,0.033042 0.011052,0.04575 0.012281,0.011437 0.04421,0.011437 h 0.2370148 q 0.03193,0 0.047894,0.017792 0.015964,0.017792 0.015964,0.039396 0,0.021604 -0.015964,0.039396 -0.015964,0.017792 -0.047894,0.017792 h -0.298417 q -0.051578,0 -0.078596,-0.027959 -0.025789,-0.027959 -0.025789,-0.080062 V 1.0132312 q 0,-0.052104 0.025789,-0.0800623 0.027018,-0.0279582 0.078596,-0.0279582 H 6.983848 q 0.051578,0 0.077367,0.0279582 0.027018,0.0279582 0.027018,0.0800623 v 0.025417 q 0,0.052104 -0.027018,0.080062 -0.025789,0.027959 -0.077367,0.027959 H 6.701395 q -0.03193,0 -0.04421,0.012709 -0.011052,0.011437 -0.011052,0.044479 z M 5.6845684,1.4961466 q 0,0.033042 0.011052,0.045749 0.012281,0.011437 0.04421,0.011437 H 5.9486 q 0.03193,0 0.049122,0.019062 0.018421,0.017792 0.018421,0.050833 v 0.1016666 q 0,0.033042 -0.018421,0.052104 Q 5.980529,1.7947902 5.9486,1.7947902 H 5.6907087 q -0.051578,0 -0.078596,-0.027959 Q 5.586324,1.7388744 5.586324,1.686771 V 0.97129384 q 0,-0.0304999 0.015964,-0.0470207 0.015964,-0.0177916 0.035614,-0.0177916 0.017193,0 0.03193,0.0152499 0.014737,0.0152499 0.014737,0.0495623 z m -0.5194662,0 q 0,0.033042 0.011052,0.045749 0.012281,0.011437 0.04421,0.011437 h 0.2087695 q 0.03193,0 0.049122,0.019062 0.018421,0.017792 0.018421,0.050833 v 0.1016666 q 0,0.033042 -0.018421,0.052104 -0.017193,0.017792 -0.049122,0.017792 H 5.1712425 q -0.051578,0 -0.078596,-0.027959 -0.02579,-0.027959 -0.02579,-0.080062 V 0.97129384 q 0,-0.0304999 0.015964,-0.0470207 0.015964,-0.0177916 0.035614,-0.0177916 0.017193,0 0.03193,0.0152499 0.014736,0.0152499 0.014736,0.0495623 z M 4.8015995,0.9052107 q 0.051578,0 0.077367,0.0279582 0.027017,0.0279582 0.027017,0.0800623 V 1.686771 q 0,0.052104 -0.027017,0.080062 -0.025789,0.027959 -0.077367,0.027959 H 4.506866 q -0.051578,0 -0.078596,-0.027959 Q 4.402481,1.738874 4.402481,1.686771 V 1.0132312 q 0,-0.052104 0.025789,-0.0800623 Q 4.455288,0.9052107 4.506866,0.9052107 Z M 4.5007257,1.4961466 q 0,0.033042 0.011052,0.045749 0.012281,0.011437 0.04421,0.011437 h 0.1964897 q 0.03193,0 0.042982,-0.011437 0.012281,-0.012709 0.012281,-0.045749 V 1.0767727 q 0,-0.033042 -0.012281,-0.044479 -0.011052,-0.012709 -0.042982,-0.012709 h -0.196489 q -0.03193,0 -0.04421,0.012709 -0.011052,0.011437 -0.011052,0.044479 z M 4.0733622,1.0767727 q 0,-0.033042 -0.012281,-0.044479 -0.011052,-0.012709 -0.042982,-0.012709 H 3.8609085 q -0.03193,0 -0.04421,0.012709 -0.011052,0.011437 -0.011052,0.044479 v 0.1588537 q 0,0.033042 0.011052,0.04575 0.012281,0.011437 0.04421,0.011437 h 0.1571912 q 0.03193,0 0.042982,-0.011437 0.012281,-0.012709 0.012281,-0.04575 z m 0.092104,0.1741037 q 0,0.013979 0.00982,0.022875 0.011052,0.00889 0.017193,0.011437 0.067543,0.019062 0.067543,0.1029372 V 1.728708 q 0,0.033042 -0.015964,0.049562 -0.014737,0.01652 -0.033157,0.01652 -0.018421,0 -0.034385,-0.01652 -0.014734,-0.01652 -0.014734,-0.049562 V 1.4516675 q 0,-0.033042 -0.012281,-0.044479 -0.011052,-0.012709 -0.042982,-0.012709 H 3.9959947 q -0.03193,0 -0.04421,0.012709 -0.011052,0.011437 -0.011052,0.044479 V 1.686771 q 0,0.052104 -0.027018,0.080062 -0.025789,0.027959 -0.077367,0.027959 h -0.024561 q -0.051578,0 -0.078596,-0.027959 Q 3.7074017,1.738874 3.7074017,1.686771 V 1.0132312 q 0,-0.052104 0.025789,-0.0800623 0.027017,-0.0279582 0.078596,-0.0279582 H 4.069679 q 0.046666,0 0.071227,0.0304999 0.024561,0.0292291 0.024561,0.0775206 z m -1.0205126,-0.0915 q -0.051578,0 -0.078596,-0.027959 -0.02579,-0.027959 -0.02579,-0.080062 v -0.038125 q 0,-0.052104 0.02579,-0.0800623 0.027017,-0.0279582 0.078596,-0.0279582 h 0.3438558 q 0.051578,0 0.077367,0.0279582 0.027018,0.0279582 0.027018,0.0800623 v 0.038125 q 0,0.052104 -0.027018,0.080062 -0.02579,0.027959 -0.077367,0.027959 h -0.049122 q -0.03193,0 -0.04421,0.012709 -0.011052,0.011437 -0.011052,0.044479 v 0.5121441 q 0,0.033042 -0.017193,0.049562 -0.017193,0.01652 -0.03807,0.01652 -0.020877,0 -0.03807,-0.01652 Q 3.2739,1.7617503 3.2739,1.7287084 V 1.216564 Q 3.2739,1.183522 3.261619,1.172085 3.250567,1.159376 3.218637,1.159376 Z M 2.7335559,1.6232295 q 0.00369,0.0305 0.011052,0.044479 0.00737,0.012709 0.034385,0.012709 0.029473,0 0.039297,-0.012709 0.011052,-0.012709 0.011052,-0.044479 V 0.97129384 q 0,-0.0317707 0.015964,-0.0482915 0.015964,-0.0177916 0.035614,-0.0177916 0.017193,0 0.03193,0.0165208 0.014737,0.0165208 0.014737,0.0495623 V 1.686771 q 0,0.052104 -0.027017,0.080062 -0.025789,0.027959 -0.077367,0.027959 h -0.074912 q -0.051578,0 -0.074911,-0.027959 Q 2.650048,1.738875 2.6439077,1.686771 L 2.5886452,1.2254598 q -0.00369,-0.033042 -0.023333,-0.044479 -0.018421,-0.012709 -0.03193,-0.012709 h -0.054034 q -0.00246,0 -0.011052,0.00381 -0.00859,0.00254 -0.018421,0.00889 -0.00982,0.00636 -0.018421,0.017792 -0.00737,0.010163 -0.00737,0.026687 v 0.5045195 q 0,0.033042 -0.014737,0.049562 -0.014737,0.01525 -0.03193,0.01525 -0.019649,0 -0.035614,-0.01652 -0.015964,-0.017792 -0.015964,-0.048292 v -0.716745 q 0,-0.0495623 0.024561,-0.0787914 0.02579,-0.0292291 0.073684,-0.0292291 h 0.1326301 q 0.051578,0 0.074911,0.0279582 0.023333,0.0279582 0.029473,0.0800623 z M 2.0593549,0.9052107 q 0.051578,0 0.077367,0.0279582 0.027018,0.0279582 0.027018,0.0800623 V 1.686771 q 0,0.052104 -0.027018,0.080062 -0.025789,0.027959 -0.077367,0.027959 H 1.7646214 q -0.051578,0 -0.078596,-0.027959 -0.02579,-0.027959 -0.02579,-0.080062 V 1.0132312 q 0,-0.052104 0.02579,-0.0800623 0.027018,-0.0279582 0.078596,-0.0279582 z M 1.7584811,1.4961466 q 0,0.033042 0.011052,0.045749 0.012281,0.011437 0.04421,0.011437 h 0.196489 q 0.03193,0 0.042982,-0.011437 0.012281,-0.012709 0.012281,-0.045749 V 1.0767727 q 0,-0.033042 -0.012281,-0.044479 -0.011052,-0.012709 -0.042982,-0.012709 H 1.8137436 q -0.03193,0 -0.04421,0.012709 -0.011052,0.011437 -0.011052,0.044479 z M 1.0560351,1.2140224 q 0,0.025416 0.00859,0.036855 0.00859,0.010163 0.020877,0.010163 0.017193,0 0.036842,-0.01525 0.020878,-0.01525 0.033157,-0.029229 L 1.3986628,0.93062729 q 0.012281,-0.0139791 0.023333,-0.0190624 0.012281,-0.006354 0.022105,-0.006354 0.018421,0 0.030702,0.0165208 0.012281,0.0152499 0.012281,0.036854 0,0.0114374 -0.00369,0.0241457 -0.00369,0.0127083 -0.013509,0.0241457 l -0.1891196,0.222395 q -0.00246,0.00381 -0.00246,0.010162 0,0.011437 0.014737,0.01652 0.014737,0.00509 0.028245,0.00509 h 0.078596 q 0.051578,0 0.077367,0.027959 0.027018,0.027959 0.027018,0.080062 v 0.3596465 q 0,0.033042 -0.017193,0.049562 -0.017193,0.01652 -0.03807,0.01652 -0.020876,0 -0.03807,-0.01652 -0.017193,-0.01652 -0.017193,-0.049562 V 1.4326051 q 0,-0.033042 -0.012281,-0.044479 -0.011052,-0.012709 -0.042982,-0.012709 H 1.2341033 q -0.03193,0 -0.04421,0.012709 -0.011052,0.011437 -0.011052,0.044479 V 1.686771 q 0,0.052104 -0.027018,0.080062 -0.025789,0.027959 -0.077367,0.027959 h -0.024561 q -0.0515785,0 -0.0785956,-0.027959 Q 0.9455105,1.738874 0.9455105,1.686771 V 0.97129384 q 0,-0.0330416 0.0171927,-0.0495623 0.0171927,-0.0165208 0.0380696,-0.0165208 0.020877,0 0.03807,0.0165208 0.017193,0.0165208 0.017193,0.0495623 z" />
  </g>
</svg>
