<?xml version="1.0" encoding="UTF-8" standalone="no"?>
<!-- Created with Inkscape (http://www.inkscape.org/) -->

<svg
   xmlns:dc="http://purl.org/dc/elements/1.1/"
   xmlns:cc="http://creativecommons.org/ns#"
   xmlns:rdf="http://www.w3.org/1999/02/22-rdf-syntax-ns#"
   xmlns:svg="http://www.w3.org/2000/svg"
   xmlns="http://www.w3.org/2000/svg"
   xmlns:sodipodi="http://sodipodi.sourceforge.net/DTD/sodipodi-0.dtd"
   xmlns:inkscape="http://www.inkscape.org/namespaces/inkscape"
   width="11.3in"
   height="11.3in"
   viewBox="0 0 287.02 287.02001"
   version="1.1"
   id="svg2074"
   inkscape:version="0.92.4 (5da689c313, 2019-01-14)"
   sodipodi:docname="Let's Work Together.svg">
  <defs
     id="defs2068" />
  <sodipodi:namedview
     id="base"
     pagecolor="#ffffff"
     bordercolor="#666666"
     borderopacity="1.0"
     inkscape:pageopacity="0.0"
     inkscape:pageshadow="2"
     inkscape:zoom="0.66449955"
     inkscape:cx="703.47677"
     inkscape:cy="534.17782"
     inkscape:document-units="in"
     inkscape:current-layer="layer1"
     showgrid="false"
     units="in"
     showguides="true"
     inkscape:guide-bbox="true"
     inkscape:window-width="1920"
     inkscape:window-height="1017"
     inkscape:window-x="-8"
     inkscape:window-y="-8"
     inkscape:window-maximized="1" />
  <metadata
     id="metadata2071">
    <rdf:RDF>
      <cc:Work
         rdf:about="">
        <dc:format>image/svg+xml</dc:format>
        <dc:type
           rdf:resource="http://purl.org/dc/dcmitype/StillImage" />
        <dc:title></dc:title>
      </cc:Work>
    </rdf:RDF>
  </metadata>
  <g
     inkscape:label="Layer 1"
     inkscape:groupmode="layer"
     id="layer1"
     transform="translate(0,-9.979985)">
    <g
       id="g2707"
       transform="translate(-476.20772,306.06369)">
      <path
         d="m 525.29591,-243.70026 v 15.11905 h -43.19083 v -61.60448 h 18.9101 v 46.48543 z"
         style="font-style:normal;font-variant:normal;font-weight:normal;font-stretch:normal;font-size:92.42928314px;line-height:1.25;font-family:'Franklin Gothic Heavy';-inkscape-font-specification:'Franklin Gothic Heavy, Normal';font-variant-ligatures:normal;font-variant-caps:normal;font-variant-numeric:normal;font-feature-settings:normal;text-align:start;letter-spacing:0px;word-spacing:0px;writing-mode:lr-tb;text-anchor:start;fill:#000000;fill-opacity:1;stroke:none;stroke-width:0.2310732"
         id="path2686"
         inkscape:connector-curvature="0" />
      <path
         d="m 578.28028,-243.29407 v 14.71286 h -46.35004 v -61.60448 h 46.35004 v 14.21642 h -27.801 v 8.93604 h 22.47548 v 13.67484 h -22.47548 v 10.06432 z"
         style="font-style:normal;font-variant:normal;font-weight:normal;font-stretch:normal;font-size:92.42928314px;line-height:1.25;font-family:'Franklin Gothic Heavy';-inkscape-font-specification:'Franklin Gothic Heavy, Normal';font-variant-ligatures:normal;font-variant-caps:normal;font-variant-numeric:normal;font-feature-settings:normal;text-align:start;letter-spacing:0px;word-spacing:0px;writing-mode:lr-tb;text-anchor:start;fill:#000000;fill-opacity:1;stroke:none;stroke-width:0.2310732"
         id="path2688"
         inkscape:connector-curvature="0" />
      <path
         d="m 611.04573,-275.42769 v 46.84648 h -17.9172 v -46.84648 h -12.77221 v -14.758 h 43.46162 v 14.758 z"
         style="font-style:normal;font-variant:normal;font-weight:normal;font-stretch:normal;font-size:92.42928314px;line-height:1.25;font-family:'Franklin Gothic Heavy';-inkscape-font-specification:'Franklin Gothic Heavy, Normal';font-variant-ligatures:normal;font-variant-caps:normal;font-variant-numeric:normal;font-feature-settings:normal;text-align:start;letter-spacing:0px;word-spacing:0px;writing-mode:lr-tb;text-anchor:start;fill:#000000;fill-opacity:1;stroke:none;stroke-width:0.2310732"
         id="path2690"
         inkscape:connector-curvature="0" />
      <path
         d="m 638.66621,-264.18995 h -8.80064 l -2.25657,-25.99574 h 13.31378 z"
         style="font-style:normal;font-variant:normal;font-weight:normal;font-stretch:normal;font-size:92.42928314px;line-height:1.25;font-family:'Franklin Gothic Heavy';-inkscape-font-specification:'Franklin Gothic Heavy, Normal';font-variant-ligatures:normal;font-variant-caps:normal;font-variant-numeric:normal;font-feature-settings:normal;text-align:start;letter-spacing:0px;word-spacing:0px;writing-mode:lr-tb;text-anchor:start;fill:#000000;fill-opacity:1;stroke:none;stroke-width:0.2310732"
         id="path2692"
         inkscape:connector-curvature="0" />
      <path
         d="m 643.63067,-246.40814 17.55615,-3.15921 q 2.21144,7.4467 11.37314,7.4467 7.13077,0 7.13077,-3.79105 0,-1.98578 -1.66986,-3.06894 -1.62474,-1.12829 -5.8671,-1.98578 -16.2022,-3.11408 -20.80561,-8.12367 -4.60341,-5.0096 -4.60341,-11.77932 0,-8.71038 6.58919,-14.48721 6.63433,-5.77683 19.04549,-5.77683 18.81983,0 24.86745,15.11905 l -15.66063,4.73881 q -2.4371,-6.18302 -9.88379,-6.18302 -6.18302,0 -6.18302,3.83618 0,1.715 1.39908,2.66276 1.39908,0.94776 5.41578,1.80526 11.05721,2.34683 15.70576,4.15209 4.64854,1.80526 7.76261,6.18302 3.11407,4.33262 3.11407,10.24484 0,9.34222 -7.58209,15.16418 -7.58209,5.77683 -19.90298,5.77683 -22.52061,0 -27.801,-18.77469 z"
         style="font-style:normal;font-variant:normal;font-weight:normal;font-stretch:normal;font-size:92.42928314px;line-height:1.25;font-family:'Franklin Gothic Heavy';-inkscape-font-specification:'Franklin Gothic Heavy, Normal';font-variant-ligatures:normal;font-variant-caps:normal;font-variant-numeric:normal;font-feature-settings:normal;text-align:start;letter-spacing:0px;word-spacing:0px;writing-mode:lr-tb;text-anchor:start;fill:#000000;fill-opacity:1;stroke:none;stroke-width:0.2310732"
         id="path2694"
         inkscape:connector-curvature="0" />
    </g>
    <g
       id="g2726"
       transform="translate(-446.97922,282.08828)">
      <path
         d="m 533.99388,-194.2534 -16.3376,61.60447 H 501.77 l -8.62011,-33.984 -8.12367,33.984 h -16.56326 l -16.38272,-61.60447 h 17.7818 l 8.62011,35.51848 8.39446,-35.51848 H 501.77 l 9.11656,35.51848 8.62012,-35.51848 z"
         style="font-style:normal;font-variant:normal;font-weight:normal;font-stretch:normal;font-size:92.42928314px;line-height:1.25;font-family:'Franklin Gothic Heavy';-inkscape-font-specification:'Franklin Gothic Heavy, Normal';font-variant-ligatures:normal;font-variant-caps:normal;font-variant-numeric:normal;font-feature-settings:normal;text-align:start;letter-spacing:0px;word-spacing:0px;writing-mode:lr-tb;text-anchor:start;fill:#000000;fill-opacity:1;stroke:none;stroke-width:0.2310732"
         id="path2709"
         inkscape:connector-curvature="0" />
      <path
         d="m 565.20231,-131.70116 q -12.99787,0 -21.2118,-8.62012 -8.1688,-8.62011 -8.1688,-23.06219 0,-13.81023 7.80775,-22.7914 7.85288,-9.0263 21.75338,-9.0263 12.86247,0 20.94101,8.48472 8.12366,8.48472 8.12366,22.65601 0,14.66773 -8.1688,23.5135 -8.1688,8.84578 -21.0764,8.84578 z m -0.0903,-13.99077 q 4.78393,0 6.85998,-4.15209 2.12118,-4.19723 2.12118,-15.29958 0,-16.0668 -8.62011,-16.0668 -9.29709,0 -9.29709,18.32338 0,17.19509 8.93604,17.19509 z"
         style="font-style:normal;font-variant:normal;font-weight:normal;font-stretch:normal;font-size:92.42928314px;line-height:1.25;font-family:'Franklin Gothic Heavy';-inkscape-font-specification:'Franklin Gothic Heavy, Normal';font-variant-ligatures:normal;font-variant-caps:normal;font-variant-numeric:normal;font-feature-settings:normal;text-align:start;letter-spacing:0px;word-spacing:0px;writing-mode:lr-tb;text-anchor:start;fill:#000000;fill-opacity:1;stroke:none;stroke-width:0.2310732"
         id="path2711"
         inkscape:connector-curvature="0" />
      <path
         d="M 657.33825,-132.64893 H 636.3521 l -8.98116,-23.55863 h -5.95736 v 23.55863 h -18.91009 v -61.60447 h 32.17875 q 10.65103,0 16.51812,5.00959 5.91223,4.96446 5.91223,13.13326 0,5.32552 -2.16631,9.43248 -2.16631,4.06184 -8.75551,7.17591 z m -35.92467,-36.73703 h 8.07854 q 3.56539,0 5.7317,-1.48933 2.16631,-1.48934 2.16631,-4.37776 0,-5.91222 -7.26617,-5.91222 h -8.71038 z"
         style="font-style:normal;font-variant:normal;font-weight:normal;font-stretch:normal;font-size:92.42928314px;line-height:1.25;font-family:'Franklin Gothic Heavy';-inkscape-font-specification:'Franklin Gothic Heavy, Normal';font-variant-ligatures:normal;font-variant-caps:normal;font-variant-numeric:normal;font-feature-settings:normal;text-align:start;letter-spacing:0px;word-spacing:0px;writing-mode:lr-tb;text-anchor:start;fill:#000000;fill-opacity:1;stroke:none;stroke-width:0.2310732"
         id="path2713"
         inkscape:connector-curvature="0" />
      <path
         d="m 721.786,-132.64893 h -20.71536 l -10.65103,-23.28784 -6.36354,9.07143 v 14.21641 h -17.82693 v -61.60447 h 17.82693 v 25.45415 l 17.01457,-25.45415 h 16.96944 l -15.57036,22.52061 z"
         style="font-style:normal;font-variant:normal;font-weight:normal;font-stretch:normal;font-size:92.42928314px;line-height:1.25;font-family:'Franklin Gothic Heavy';-inkscape-font-specification:'Franklin Gothic Heavy, Normal';font-variant-ligatures:normal;font-variant-caps:normal;font-variant-numeric:normal;font-feature-settings:normal;text-align:start;letter-spacing:0px;word-spacing:0px;writing-mode:lr-tb;text-anchor:start;fill:#000000;fill-opacity:1;stroke:none;stroke-width:0.2310732"
         id="path2715"
         inkscape:connector-curvature="0" />
    </g>
    <g
       id="g2679"
       transform="translate(328.28504,502.59004)">
      <path
         d="m -290.30933,-326.5145 -7.8324,46.68467 h -17.52334 l 7.8324,-46.68467 h -12.92125 l 2.34529,-13.89477 h 43.71986 l -2.30104,13.89477 z"
         style="font-style:italic;font-variant:normal;font-weight:normal;font-stretch:normal;font-size:90.6257782px;line-height:1.25;font-family:'Franklin Gothic Heavy';-inkscape-font-specification:'Franklin Gothic Heavy, Italic';font-variant-ligatures:normal;font-variant-caps:normal;font-variant-numeric:normal;font-feature-settings:normal;text-align:start;letter-spacing:0px;word-spacing:0px;writing-mode:lr-tb;text-anchor:start;fill:#000000;fill-opacity:1;stroke:none;stroke-width:0.22656447"
         id="path2649"
         inkscape:connector-curvature="0" />
      <path
         d="m -250.7048,-278.3253 q -10.70871,0 -18.58536,-6.99164 -7.87666,-7.03589 -7.87666,-20.13415 0,-15.17804 8.80593,-25.754 8.80592,-10.62021 23.01045,-10.62021 11.37247,0 18.67386,7.43415 7.3014,7.38989 7.3014,19.38188 0,15.3108 -8.67317,26.01951 -8.67317,10.66446 -22.65645,10.66446 z m 0.13276,-14.07178 q 4.69059,0 7.12439,-3.93833 2.43379,-3.98258 3.84982,-11.63798 1.41603,-7.6554 1.41603,-10.3547 0,-4.64634 -2.16829,-7.03589 -2.12405,-2.38954 -5.66412,-2.38954 -6.77038,0 -9.51393,9.42543 -2.74356,9.42544 -2.74356,16.68258 0,9.24843 7.69966,9.24843 z"
         style="font-style:italic;font-variant:normal;font-weight:normal;font-stretch:normal;font-size:90.6257782px;line-height:1.25;font-family:'Franklin Gothic Heavy';-inkscape-font-specification:'Franklin Gothic Heavy, Italic';font-variant-ligatures:normal;font-variant-caps:normal;font-variant-numeric:normal;font-feature-settings:normal;text-align:start;letter-spacing:0px;word-spacing:0px;writing-mode:lr-tb;text-anchor:start;fill:#000000;fill-opacity:1;stroke:none;stroke-width:0.22656447"
         id="path2651"
         inkscape:connector-curvature="0" />
      <path
         d="m -186.05428,-312.92948 h 26.63902 l -5.53136,33.09965 h -8.76167 l -0.53101,-6.63763 q -5.1331,7.8324 -16.37282,7.8324 -8.23066,0 -13.45226,-3.54007 -5.17736,-3.54007 -8.05366,-9.11568 -2.83206,-5.61986 -2.83206,-13.18676 0,-15.2223 8.62892,-26.19651 8.62892,-10.97422 23.01045,-10.97422 20.31115,0 25.44425,19.42613 l -16.59407,2.69931 q -1.72579,-8.05366 -9.07143,-8.05366 -6.63763,0 -9.51394,8.23066 -2.8763,8.23066 -2.8763,16.10732 0,10.5317 8.31916,10.5317 6.50488,0 9.24843,-7.47839 h -9.86794 z"
         style="font-style:italic;font-variant:normal;font-weight:normal;font-stretch:normal;font-size:90.6257782px;line-height:1.25;font-family:'Franklin Gothic Heavy';-inkscape-font-specification:'Franklin Gothic Heavy, Italic';font-variant-ligatures:normal;font-variant-caps:normal;font-variant-numeric:normal;font-feature-settings:normal;text-align:start;letter-spacing:0px;word-spacing:0px;writing-mode:lr-tb;text-anchor:start;fill:#000000;fill-opacity:1;stroke:none;stroke-width:0.22656447"
         id="path2653"
         inkscape:connector-curvature="0" />
      <path
         d="m -108.26126,-293.72461 -2.34529,13.89478 h -44.51638 l 10.0892,-60.40244 h 43.4101 l -2.21254,13.23101 h -25.88676 l -1.54878,9.46969 h 21.72718 l -2.21255,13.09825 h -21.72717 l -1.77004,10.70871 z"
         style="font-style:italic;font-variant:normal;font-weight:normal;font-stretch:normal;font-size:90.6257782px;line-height:1.25;font-family:'Franklin Gothic Heavy';-inkscape-font-specification:'Franklin Gothic Heavy, Italic';font-variant-ligatures:normal;font-variant-caps:normal;font-variant-numeric:normal;font-feature-settings:normal;text-align:start;letter-spacing:0px;word-spacing:0px;writing-mode:lr-tb;text-anchor:start;fill:#000000;fill-opacity:1;stroke:none;stroke-width:0.22656447"
         id="path2655"
         inkscape:connector-curvature="0" />
      <path
         d="m -69.231995,-326.5145 -7.832403,46.68467 h -17.523344 l 7.832403,-46.68467 h -12.921253 l 2.345296,-13.89477 h 43.719858 l -2.301045,13.89477 z"
         style="font-style:italic;font-variant:normal;font-weight:normal;font-stretch:normal;font-size:90.6257782px;line-height:1.25;font-family:'Franklin Gothic Heavy';-inkscape-font-specification:'Franklin Gothic Heavy, Italic';font-variant-ligatures:normal;font-variant-caps:normal;font-variant-numeric:normal;font-feature-settings:normal;text-align:start;letter-spacing:0px;word-spacing:0px;writing-mode:lr-tb;text-anchor:start;fill:#000000;fill-opacity:1;stroke:none;stroke-width:0.22656447"
         id="path2657"
         inkscape:connector-curvature="0" />
    </g>
    <g
       id="g2684"
       transform="translate(61.894463,573.74305)">
      <path
         d="M -20.467532,-304.12356 H -36.17659 l -4.07108,24.29373 h -17.523344 l 10.089198,-60.40244 h 17.523344 l -3.717073,22.21394 h 15.709058 l 3.717073,-22.21394 H 3.0739302 l -10.089198,60.40244 H -24.538612 Z"
         style="font-style:italic;font-variant:normal;font-weight:normal;font-stretch:normal;font-size:90.6257782px;line-height:1.25;font-family:'Franklin Gothic Heavy';-inkscape-font-specification:'Franklin Gothic Heavy, Italic';font-variant-ligatures:normal;font-variant-caps:normal;font-variant-numeric:normal;font-feature-settings:normal;text-align:start;letter-spacing:0px;word-spacing:0px;writing-mode:lr-tb;text-anchor:start;fill:#000000;fill-opacity:1;stroke:none;stroke-width:0.22656447"
         id="path2659"
         inkscape:connector-curvature="0" />
      <path
         d="m 50.33385,-293.72461 -2.345296,13.89478 H 3.4721809 l 10.0891981,-60.40244 h 43.410102 l -2.212544,13.23101 H 28.872179 l -1.54878,9.46969 h 21.727176 l -2.212543,13.09825 H 25.110855 l -1.770034,10.70871 z"
         style="font-style:italic;font-variant:normal;font-weight:normal;font-stretch:normal;font-size:90.6257782px;line-height:1.25;font-family:'Franklin Gothic Heavy';-inkscape-font-specification:'Franklin Gothic Heavy, Italic';font-variant-ligatures:normal;font-variant-caps:normal;font-variant-numeric:normal;font-feature-settings:normal;text-align:start;letter-spacing:0px;word-spacing:0px;writing-mode:lr-tb;text-anchor:start;fill:#000000;fill-opacity:1;stroke:none;stroke-width:0.22656447"
         id="path2661"
         inkscape:connector-curvature="0" />
      <path
         d="m 100.20459,-305.14133 6.54913,25.3115 H 88.876369 l -5.310104,-22.9662 h -7.168641 l -3.849825,22.9662 H 55.334211 l 10.089198,-60.40244 h 26.373517 q 10.752964,0 15.930314,4.73484 5.17735,4.6906 5.17735,12.7885 0,12.96551 -12.7,17.5676 z m -21.727175,-10.22195 h 6.814634 q 9.823692,0 9.823692,-6.63763 0,-5.57561 -8.230661,-5.57561 h -6.327874 z"
         style="font-style:italic;font-variant:normal;font-weight:normal;font-stretch:normal;font-size:90.6257782px;line-height:1.25;font-family:'Franklin Gothic Heavy';-inkscape-font-specification:'Franklin Gothic Heavy, Italic';font-variant-ligatures:normal;font-variant-caps:normal;font-variant-numeric:normal;font-feature-settings:normal;text-align:start;letter-spacing:0px;word-spacing:0px;writing-mode:lr-tb;text-anchor:start;fill:#000000;fill-opacity:1;stroke:none;stroke-width:0.22656447"
         id="path2663"
         inkscape:connector-curvature="0" />
    </g>
    <text
       xml:space="preserve"
       style="font-style:normal;font-variant:normal;font-weight:normal;font-stretch:normal;font-size:16.93333435px;line-height:1.25;font-family:'Segoe UI';-inkscape-font-specification:'Segoe UI';letter-spacing:0px;word-spacing:0px;fill:#000000;fill-opacity:1;stroke:none;stroke-width:0.26458335"
       x="-451.30359"
       y="111.03573"
       id="text2637"><tspan
         sodipodi:role="line"
         id="tspan2635"
         x="-451.30359"
         y="111.03573"
         style="stroke-width:0.26458335">L</tspan></text>
  </g>
</svg>
