<?xml version="1.0" encoding="UTF-8" standalone="no"?>
<!-- Created with Inkscape (http://www.inkscape.org/) -->

<svg
   xmlns:dc="http://purl.org/dc/elements/1.1/"
   xmlns:cc="http://creativecommons.org/ns#"
   xmlns:rdf="http://www.w3.org/1999/02/22-rdf-syntax-ns#"
   xmlns:svg="http://www.w3.org/2000/svg"
   xmlns="http://www.w3.org/2000/svg"
   xmlns:sodipodi="http://sodipodi.sourceforge.net/DTD/sodipodi-0.dtd"
   xmlns:inkscape="http://www.inkscape.org/namespaces/inkscape"
   version="1.1"
   width="320.0076"
   height="83.890434"
   id="svg5276"
   inkscape:version="0.92.4 (5da689c313, 2019-01-14)"
   sodipodi:docname="Narnia Direction Sign for Lamp Post.svg"
   inkscape:export-filename="C:\Users\Klemen\Downloads\The Chronicles of Narnia logo.png"
   inkscape:export-xdpi="1500.2426"
   inkscape:export-ydpi="1500.2426"
   viewBox="0 0 300.00711 78.647285">
  <sodipodi:namedview
     pagecolor="#ffffff"
     bordercolor="#666666"
     borderopacity="1"
     objecttolerance="10"
     gridtolerance="10"
     guidetolerance="10"
     inkscape:pageopacity="0"
     inkscape:pageshadow="2"
     inkscape:window-width="1920"
     inkscape:window-height="1017"
     id="namedview67"
     showgrid="false"
     inkscape:zoom="3.3010623"
     inkscape:cx="153.66552"
     inkscape:cy="8.4583171"
     inkscape:window-x="-8"
     inkscape:window-y="-8"
     inkscape:window-maximized="1"
     inkscape:current-layer="svg5276"
     fit-margin-top="0"
     fit-margin-left="0"
     fit-margin-right="0"
     fit-margin-bottom="0" />
  <defs
     id="defs5278">
    <clipPath
       id="clipPath3717">
      <path
         d="m 427.26,426.42 h 71.64 v 24 h -71.64 z"
         id="path3719"
         inkscape:connector-curvature="0" />
    </clipPath>
    <clipPath
       id="clipPath3733">
      <path
         d="m 427.264,426.42 h 71.589 v 23.968 h -71.589 z"
         id="path3735"
         inkscape:connector-curvature="0" />
    </clipPath>
    <clipPath
       id="clipPath3745">
      <path
         d="m 427.26,426.42 h 71.64 v 24 h -71.64 z"
         id="path3747"
         inkscape:connector-curvature="0" />
    </clipPath>
    <clipPath
       id="clipPath3773">
      <path
         d="m 427.264,426.42 h 71.589 v 23.968 h -71.589 z"
         id="path3775"
         inkscape:connector-curvature="0" />
    </clipPath>
    <clipPath
       id="clipPath3789">
      <path
         d="m 427.26,426.42 h 71.64 v 24 h -71.64 z"
         id="path3791"
         inkscape:connector-curvature="0" />
    </clipPath>
  </defs>
  <metadata
     id="metadata5281">
    <rdf:RDF>
      <cc:Work
         rdf:about="">
        <dc:format>image/svg+xml</dc:format>
        <dc:type
           rdf:resource="http://purl.org/dc/dcmitype/StillImage" />
        <dc:title></dc:title>
      </cc:Work>
    </rdf:RDF>
  </metadata>
  <g
     transform="matrix(2.8364198,0,0,-3.7130671,205.40343,63.174246)"
     id="g3725">
    <path
       d="m 0,0 c -0.401,0.113 -0.907,0.408 -0.869,0.869 h -0.068 c 0.002,1.494 0.023,3.18 0.023,4.867 v 1.029 c 0.007,0.092 0.015,0.183 0.022,0.274 -0.023,0.178 -0.039,0.364 -0.022,0.503 0.011,0.092 0.039,0.399 0.022,0.48 -0.1,0.498 0.086,0.993 -0.022,1.372 -0.052,0.178 0.001,0.509 0.068,0.594 0.098,0.119 0.227,0.048 0.412,0.091 0.291,0.069 0.585,0.108 0.731,0.321 H 0.32 v 0.045 c -0.377,0.071 -0.836,-0.176 -1.257,-0.114 -0.106,0.015 -0.151,-0.081 -0.252,-0.046 l -0.046,0.069 h -0.32 l -0.32,0.068 h -0.32 c -0.265,0.064 -0.805,0.144 -1.12,0.046 -0.172,-0.054 -0.25,-0.207 -0.389,-0.274 v -0.069 c 1.165,0.461 1.277,-0.669 1.189,-1.76 0.041,-0.082 0.041,-0.471 0.023,-0.571 -0.018,-0.104 0.009,-0.253 0.023,-0.32 0.028,-0.139 -0.03,-0.323 0,-0.458 0.061,-0.277 -0.048,-0.65 -0.023,-0.891 L -2.401,6.034 C -2.356,5.906 -2.548,5.792 -2.378,5.645 l -0.114,-0.16 c 0.016,-0.108 0.093,-0.145 0.046,-0.228 -10e-4,-0.125 0.018,-0.178 0.045,-0.252 0.083,0.022 0.179,0.051 0.275,0.069 L -2.103,5.051 C -2.144,4.941 -2.374,4.812 -2.469,4.753 V 3.748 C -2.468,3.611 -2.372,3.549 -2.401,3.451 -2.428,3.357 -2.486,3.356 -2.492,3.245 -2.499,3.107 -2.434,2.924 -2.469,2.765 L -2.492,2.628 -2.446,2.468 -2.515,2.193 -2.469,1.852 C -2.582,1.215 -2.437,0.926 -2.766,0.48 -3.061,0.081 -3.534,-0.101 -4.024,0.023 -4.158,0.057 -4.198,0.015 -4.275,0.091 h -0.023 c 0.019,-0.21 0.254,-0.362 0.434,-0.411 h 0.183 c 0.123,-0.036 0.451,-0.099 0.64,-0.046 0.157,0.044 0.356,0.055 0.526,0.115 0.168,0.059 0.413,0.198 0.549,0.228 0.33,0.074 0.819,-0.096 1.074,-0.16 h 0.343 C -0.079,-0.301 0.475,-0.162 0.8,0 L 0.823,0.069 H 0.8 C 0.8,0.069 0.195,-0.055 0,0 M -4.572,-0.663 -4.641,-0.754 C -5.044,-0.963 -5.49,-1.125 -5.898,-1.303 -6.612,-1.613 -7.439,-1.746 -8.23,-1.966 -8.444,-2.025 -8.705,-2.021 -8.939,-2.08 h -0.229 c -0.198,-0.06 -0.494,-0.066 -0.708,-0.114 h -0.572 c -0.354,-0.081 -0.998,-0.08 -1.349,0 H -12.3 c -0.536,0.119 -1.164,0.128 -1.646,0.274 -0.18,0.055 -0.31,0.011 -0.48,0.069 -0.242,0.081 -0.544,0.187 -0.777,0.274 -0.092,0.007 -0.183,0.015 -0.275,0.023 l -0.182,0.183 c -0.272,0.112 -0.562,0.12 -0.823,0.228 -0.997,0.413 -1.999,0.93 -2.607,1.737 -0.173,0.231 -0.401,0.45 -0.571,0.686 -0.417,0.576 -0.734,1.311 -1.029,1.988 -0.129,0.294 -0.316,0.955 -0.046,1.234 v 0.046 c -0.188,-0.018 -0.477,-0.108 -0.686,-0.069 -0.533,0.1 -0.996,0.334 -1.44,0.526 -0.151,0.065 -0.322,0.089 -0.457,0.16 l -0.023,0.023 c 0.118,0.073 0.45,0.034 0.594,0.091 0.425,0.169 0.761,0.409 1.098,0.663 0.094,0.071 0.135,0.177 0.205,0.274 l 0.206,0.206 c 0.221,0.316 0.399,0.616 0.618,0.937 l 0.548,0.297 v 0.046 h -0.229 l -0.251,0.16 c -0.384,0.287 -0.492,0.96 -0.983,1.143 l 0.023,0.069 c -0.059,0.295 -0.817,0.728 -1.098,0.868 -0.234,0.117 -0.498,0.274 -0.754,0.366 -0.179,0.065 -0.343,0.018 -0.549,0.069 l -0.251,0.091 c -0.155,0.045 -0.293,-0.09 -0.434,-0.046 l -0.115,0.092 c -0.114,0.037 -0.566,-0.026 -0.64,-0.046 -0.11,-0.029 -0.137,0.052 -0.206,0.046 -0.269,-0.024 -0.735,-0.019 -0.983,-0.092 h -0.571 c -0.244,-0.057 -0.476,-0.019 -0.709,-0.068 h -0.366 c -0.574,-0.173 -1.433,-0.085 -1.92,0.068 -0.216,0.068 -0.469,0.098 -0.595,0.252 h -0.068 v -0.046 c 0.272,-0.255 0.553,-0.441 0.983,-0.549 0.412,-0.102 0.664,0.005 0.983,-0.205 l 0.251,-0.16 c 0.248,-0.336 0.182,-0.602 0.275,-1.029 0.025,-0.117 -0.035,-0.232 -0.023,-0.32 0.023,-0.161 0.05,-0.499 0.023,-0.571 -0.007,-0.228 0.093,-0.205 0.274,-0.229 l -0.251,-0.046 c -0.023,-0.173 0.001,-0.262 0.045,-0.388 0.005,-0.012 -0.058,-0.338 -0.068,-0.457 -0.031,-0.348 0.089,-0.64 0.023,-1.029 -0.031,-0.179 0,-0.424 0,-0.686 0.007,-0.67 0.015,-1.341 0.023,-2.011 0,-0.303 0.008,-0.717 -0.023,-0.915 -0.059,-0.366 0.027,-0.994 -0.161,-1.21 V 0.572 c -0.083,-0.18 -0.751,-0.632 -1.074,-0.412 h -0.046 c 0.082,-0.216 0.767,-0.277 1.12,-0.206 0.292,0.059 0.629,-0.038 1.007,0.046 0.477,0.107 1.185,0.095 1.623,-0.023 0.179,-0.048 0.425,0.02 0.571,-0.068 h 0.046 c -0.078,0.214 -0.37,0.245 -0.572,0.342 -0.238,0.116 -0.557,0.296 -0.708,0.503 -0.121,0.166 -0.162,0.396 -0.343,0.503 l 0.114,0.137 -0.023,0.822 c -0.028,0.129 -0.073,0.669 -0.023,0.823 0.051,0.157 -0.105,0.529 -0.068,0.754 0.05,0.306 0.023,0.689 0.023,1.166 v 0.503 c 0.062,0.353 0.082,1.324 0,1.76 -0.012,0.059 0.069,0.34 0.045,0.457 -0.099,0.491 0.073,1.129 -0.023,1.6 -0.027,0.138 0.054,0.182 -0.022,0.275 l 0.022,0.183 c 0.154,0.102 0.378,0.007 0.549,0.045 0.385,0.086 0.937,0.04 1.281,-0.023 0.096,-0.017 0.215,0.034 0.342,0 0.279,-0.073 0.492,-0.112 0.755,-0.228 0.122,-0.054 0.249,-0.174 0.366,-0.229 l 0.137,-0.023 c 0.114,-0.114 0.229,-0.228 0.343,-0.342 l 0.045,-0.16 0.16,-0.138 h 0.138 l -0.023,-0.228 0.068,-0.115 c 0.035,-0.122 -0.014,-0.264 0,-0.342 0.035,-0.192 0.097,-0.622 0.023,-0.846 -0.185,-0.566 -0.623,-1.112 -1.097,-1.394 -0.226,-0.135 -0.549,-0.203 -0.8,-0.298 -0.115,-0.007 -0.229,-0.015 -0.343,-0.022 -0.149,-0.058 -0.313,-0.07 -0.503,-0.115 -0.188,-0.044 -0.422,0.02 -0.572,-0.068 h -0.114 V 5.188 c 0.071,-0.066 0.223,-0.229 0.343,-0.229 l 0.091,0.046 c 0.166,0.039 0.789,-0.029 0.938,-0.069 0.562,-0.149 0.915,-0.414 1.257,-0.777 0.157,-0.167 0.246,-0.391 0.389,-0.571 l 0.205,-0.137 0.046,-0.206 c 0.23,-0.326 0.514,-0.648 0.732,-0.983 l 0.023,-0.16 0.205,-0.182 0.138,-0.206 0.251,-0.228 c 0.281,-0.373 0.611,-0.68 0.937,-1.006 0.808,-0.808 1.578,-1.412 2.629,-1.989 0.294,-0.16 0.637,-0.375 0.961,-0.502 0.404,-0.159 0.819,-0.303 1.211,-0.458 0.245,-0.096 0.476,-0.073 0.732,-0.16 0.793,-0.269 2.061,-0.46 2.972,-0.434 l 0.092,-0.046 h 1.303 c 0.301,0.092 0.761,0.046 1.074,0.115 h 0.297 c 0.415,0.127 0.858,0.126 1.281,0.251 0.099,0.008 0.198,0.015 0.297,0.023 0.193,0.063 0.787,0.21 0.914,0.32 h 0.023 l -0.091,0.183 h -0.023 l 0.023,0.045 0.16,-0.114 c 0.395,-0.006 0.506,0.116 0.8,0.229 0.551,0.211 1.035,0.431 1.555,0.686 0.249,0.122 0.471,0.325 0.777,0.388 v 0.046 c -0.267,0.089 -0.583,0.029 -0.823,0.137 -0.067,0.03 -0.173,0.185 -0.297,0.137 m -13.283,11.36 c 0.202,-0.146 0.381,-0.489 0.457,-0.755 0.136,-0.475 0.103,-1.005 0.183,-1.417 0.008,-0.206 0.015,-0.411 0.023,-0.617 l 0.114,-0.114 c 0.036,-0.126 -0.108,-0.241 -0.068,-0.435 0.033,-0.163 -0.031,-0.466 0,-0.662 l 0.045,-0.069 -0.023,-0.183 c 0.005,-0.146 0.049,-0.387 0.023,-0.526 -0.027,-0.147 -0.026,-0.333 0,-0.457 V 4.456 c 0,-0.47 -0.07,-0.866 -0.045,-1.302 l 0.091,-0.481 -0.091,-0.068 V 2.262 c -10e-4,-0.363 -0.042,-0.595 -0.046,-0.959 -0.002,-0.122 -0.062,-0.289 0,-0.389 -0.048,-0.28 -0.399,-0.562 -0.709,-0.434 l -0.023,-0.023 c 0.038,-0.103 0.104,-0.101 0.183,-0.16 0.085,-0.063 0.171,-0.184 0.274,-0.228 0.221,-0.094 0.695,0.064 0.938,0 0.444,-0.117 1.128,-0.233 1.623,-0.138 0.098,0.02 0.136,-0.074 0.251,-0.045 0.192,0.047 0.28,0.214 0.412,0.32 v 0.045 c -0.199,-0.025 -0.41,-0.065 -0.572,-0.114 -0.156,-0.047 -0.308,0.053 -0.388,0.023 -0.159,0.041 -0.295,0.168 -0.412,0.251 -0.145,0.104 -0.294,0.168 -0.389,0.321 l -0.045,0.182 c -0.042,0.09 -0.122,0.238 -0.16,0.343 v 0.206 c -0.06,0.257 -0.071,0.629 -0.114,0.89 -0.044,0.265 0.024,0.749 -0.023,1.052 l 0.023,0.274 c -0.008,0.214 -0.016,0.427 -0.023,0.64 0,0.103 0.024,0.203 0,0.252 0.001,0.205 -0.048,0.243 -0.092,0.365 -0.141,-0.001 -0.196,-0.028 -0.297,-0.045 v 0.068 l 0.046,0.046 c 0.096,0.006 0.173,0.033 0.228,0 l 0.115,0.046 c -0.001,0.175 0.03,0.369 0.045,0.48 0.019,0.128 -0.031,0.314 -0.022,0.434 0.028,0.416 0.008,0.915 0.068,1.257 0.044,0.249 -0.092,0.713 0,0.869 v 0.023 c 0.255,-0.092 0.498,-0.521 0.686,-0.709 0.493,-0.493 1.033,-0.953 1.463,-1.509 l 0.183,-0.114 0.023,-0.091 0.206,-0.16 0.137,-0.183 c 0.182,-0.138 0.343,-0.297 0.503,-0.457 0.103,-0.104 0.172,-0.237 0.297,-0.32 -0.023,-0.143 -0.25,-0.565 -0.343,-0.64 V 3.885 c 0.121,0.019 0.577,0.221 0.64,0.297 0.324,-0.009 0.717,-0.602 0.915,-0.8 0.098,-0.098 0.232,-0.166 0.274,-0.32 0.108,0.01 0.158,0.048 0.206,0.114 h 0.114 l -0.114,-0.137 h -0.069 c 0.033,-0.12 0.173,-0.173 0.252,-0.251 0.198,-0.206 0.396,-0.412 0.594,-0.617 l 0.137,-0.023 0.092,-0.206 0.32,-0.296 c 0.613,-0.503 1.182,-1.014 1.852,-1.463 0.115,-0.078 0.203,-0.235 0.32,-0.32 0.252,-0.184 1.011,-0.679 1.371,-0.457 l 0.023,0.046 c -0.32,0.151 -0.917,0.823 -0.731,1.28 L -7.019,0.8 c 0.022,0.119 0.101,0.165 0.115,0.297 0.006,0.065 -0.023,0.199 -0.023,0.297 V 2.468 L -6.95,2.696 c 0.029,0.229 0.082,0.691 0.023,0.96 -0.022,0.1 -0.08,0.279 -0.046,0.412 0.089,0.342 0.054,0.732 0.069,1.189 0.022,0.713 -0.036,1.557 0.068,2.308 l -0.023,0.937 -0.068,0.069 0.091,0.091 v 0.275 c 0.023,0.228 0.046,0.457 0.069,0.685 0.136,0.442 0.52,0.577 0.732,0.937 h -0.024 l -0.205,-0.045 c -0.152,-0.053 -0.454,-0.188 -0.686,-0.137 -0.156,0.034 -0.338,-0.046 -0.526,0 -0.201,0.049 -0.349,0.046 -0.549,0.091 h -0.503 c -0.216,0.055 -0.628,0.094 -0.868,0.023 -0.182,-0.054 -0.301,-0.177 -0.435,-0.274 v -0.046 c 0.17,0.022 0.307,0.096 0.435,0.137 0.306,0.099 0.93,-0.13 1.074,-0.229 0.289,-0.197 0.433,-0.64 0.549,-1.005 L -7.819,8.959 C -7.811,8.7 -7.804,8.441 -7.796,8.182 -7.763,8.045 -7.751,7.911 -7.75,7.748 l -0.023,-0.16 c 0.052,-0.312 0.02,-0.677 0.046,-0.96 L -7.75,6.376 C -7.718,6.153 -7.697,5.757 -7.704,5.531 -7.714,5.268 -7.72,4.804 -7.659,4.548 L -7.704,4.411 C -7.739,4.28 -7.742,3.896 -7.704,3.725 -7.671,3.574 -7.702,3.314 -7.727,3.199 V 2.536 C -7.747,2.416 -7.792,1.913 -7.75,1.76 L -7.773,1.737 c -0.206,0.025 -0.73,0.637 -0.869,0.799 -0.079,0.093 -0.21,0.164 -0.297,0.252 -0.239,0.24 -0.464,0.497 -0.709,0.731 l -0.228,0.137 -0.206,0.297 -0.16,0.069 -0.023,0.137 -0.16,0.183 c -0.156,0.15 -0.701,0.637 -0.755,0.823 l 0.298,0.891 v 0.16 c -0.156,-0.058 -0.246,-0.332 -0.343,-0.457 l -0.183,-0.16 c -0.384,0.006 -0.442,0.299 -0.663,0.457 l -0.206,0.092 v 0.137 l -0.137,0.137 -0.137,0.023 c -0.049,0.1 -0.107,0.207 -0.16,0.297 l -0.183,0.046 c -0.073,0.061 -0.021,0.087 -0.069,0.183 L -13.1,7.085 c -0.099,0.114 -0.198,0.229 -0.297,0.343 l -0.16,0.114 -0.069,0.137 c -0.087,0.088 -0.186,0.115 -0.297,0.183 -0.092,0.057 -0.106,0.203 -0.183,0.275 l -0.137,0.045 -0.229,0.297 c -0.203,0.204 -0.447,0.382 -0.64,0.595 -0.328,0.362 -0.773,0.888 -1.166,1.166 -0.385,0.271 -0.801,0.508 -1.303,0.662 -0.232,0.071 -0.457,-0.018 -0.64,0.092 h -0.023 c 0.05,-0.179 0.255,-0.201 0.389,-0.297 M 9.922,4.182 C 9.415,4.075 8.918,3.909 8.482,3.725 8.318,3.655 8.114,3.681 8.001,3.565 7.656,3.585 7.081,3.944 6.767,4.068 6.51,4.169 5.96,4.208 5.761,4.342 H 5.715 C 5.773,4.544 5.937,4.718 6.013,4.914 6.148,5.266 6.29,5.558 6.447,5.874 6.52,6.022 6.518,6.198 6.607,6.331 L 6.79,6.491 V 6.674 L 6.881,6.879 C 6.95,7.02 7.08,7.159 7.156,7.291 7.218,7.399 7.219,7.523 7.27,7.634 7.444,8.013 7.675,8.38 7.841,8.777 8.054,8.67 8.268,7.889 8.39,7.634 8.788,6.8 9.149,5.914 9.556,5.096 9.669,4.87 9.765,4.415 9.945,4.273 Z m 3.772,-3.839 c -0.129,0.057 -0.144,0.156 -0.343,0.16 -0.097,0.2 -0.26,0.306 -0.366,0.48 -0.131,0.215 -0.187,0.429 -0.297,0.663 -0.177,0.375 -0.409,0.77 -0.594,1.142 -0.099,0.197 -0.136,0.372 -0.229,0.571 l -0.16,0.274 C 11.639,3.818 11.616,3.963 11.5,4.091 l 0.045,0.137 C 11.8,4.238 12.1,4.284 12.277,4.159 h 0.091 v 0.046 l -0.183,0.137 -0.251,0.069 h -0.549 c -0.126,0.06 -0.179,0.356 -0.251,0.48 l -0.114,0.228 -0.206,0.16 0.023,0.206 c -0.036,0.121 -0.15,0.254 -0.206,0.366 l -0.046,0.16 C 10.401,6.338 10.244,6.713 10.06,7.039 10.001,7.142 9.999,7.296 9.922,7.382 l -0.16,0.114 c -0.047,0.102 0.035,0.185 0,0.252 L 9.602,7.931 C 9.489,8.112 9.452,8.307 9.351,8.502 9.305,8.589 9.204,8.686 9.168,8.777 9.124,8.886 9.163,8.979 9.122,9.074 L 8.985,9.257 C 8.807,9.58 8.663,9.922 8.504,10.24 8.394,10.46 8.313,10.821 8.161,10.994 L 8.139,11.017 C 7.678,9.918 7.114,8.888 6.63,7.794 6.524,7.554 6.342,7.298 6.241,7.062 5.854,6.16 5.442,5.266 4.961,4.456 4.763,4.458 4.527,4.498 4.366,4.456 4.225,4.419 4.067,4.316 3.932,4.273 V 4.228 C 4.062,4.243 4.191,4.258 4.321,4.273 4.478,4.243 4.685,4.206 4.824,4.182 4.802,3.962 4.676,3.818 4.595,3.656 4.457,3.379 4.351,3.11 4.207,2.856 4.118,2.701 4.087,2.487 3.955,2.376 L 3.978,2.262 C 3.943,2.092 3.711,1.854 3.635,1.691 3.585,1.584 3.58,1.496 3.521,1.394 L 3.406,1.257 3.384,1.029 3.155,0.869 C 2.822,0.466 2.755,0.107 2.035,0.137 2.118,-0.092 2.522,-0.095 2.789,-0.023 3.1,0.061 3.544,0.089 3.932,0.091 4.036,0.092 4.262,0.15 4.298,0.137 L 4.435,0.023 C 4.565,-0.008 4.694,-0.038 4.824,-0.069 5.25,-0.165 5.829,-0.094 5.99,0.16 H 6.013 V 0.183 C 5.864,0.17 5.662,0.08 5.487,0.114 5.029,0.205 4.559,0.315 4.412,0.709 4.306,0.995 4.453,1.424 4.527,1.669 4.542,1.783 4.557,1.897 4.572,2.011 4.882,2.653 5.208,3.377 5.578,3.976 5.971,3.896 6.306,3.675 6.607,3.496 L 6.835,3.451 6.927,3.291 C 7.018,3.225 7.11,3.195 7.201,3.131 l 0.16,-0.16 C 7.53,2.87 7.846,2.728 7.956,2.582 8.185,2.6 8.585,2.954 8.756,3.085 l 0.092,0.16 0.16,-0.023 0.091,0.092 C 9.224,3.393 9.39,3.46 9.511,3.519 9.687,3.607 9.899,3.623 10.037,3.748 10.21,3.702 10.36,3.149 10.448,2.971 10.489,2.887 10.604,2.765 10.631,2.673 L 10.608,2.582 10.7,2.445 10.905,2.216 V 2.011 C 10.994,1.75 11.175,1.469 11.294,1.211 11.36,1.067 11.513,0.699 11.385,0.526 11.35,0.115 10.733,-0.048 10.334,-0.091 L 10.311,-0.114 V -0.16 c 0.294,0.058 0.683,-0.027 0.983,0.046 0.115,0.028 0.175,0.093 0.229,0.114 0.133,0.052 0.15,-0.091 0.274,-0.069 0.33,0.059 0.903,0.137 1.325,0.046 0.295,-0.063 0.717,0.053 0.823,-0.091 0.211,0.012 0.218,0.141 0.344,0.228 v 0.092 c -0.229,0.01 -0.416,0.058 -0.595,0.137 m -48.559,3.77 c -0.297,-0.102 -0.646,-0.233 -0.937,-0.342 -0.165,-0.063 -0.358,-0.058 -0.48,-0.16 -0.206,0.025 -0.365,0.156 -0.526,0.228 -0.313,0.142 -0.649,0.243 -0.96,0.366 -0.2,0.079 -0.614,0.081 -0.754,0.206 l 0.228,0.434 -0.023,0.069 -0.137,0.022 v 0.046 c 0.432,0.162 0.588,0.879 0.777,1.303 0.049,0.109 0.186,0.172 0.229,0.274 v 0.183 l 0.137,0.206 c 0.13,0.246 0.227,0.493 0.366,0.708 0.063,0.099 0.06,0.213 0.114,0.321 0.145,0.287 0.302,0.604 0.458,0.891 0.147,-0.125 0.3,-0.746 0.411,-0.96 0.108,-0.209 0.25,-0.467 0.343,-0.686 l 0.046,-0.228 c 0.237,-0.48 0.513,-1.013 0.731,-1.509 0.128,-0.289 0.269,-0.576 0.389,-0.846 0.052,-0.117 0.06,-0.232 0.137,-0.32 -0.069,-0.166 -0.369,-0.144 -0.549,-0.206 m 4.367,-3.77 c -0.307,0.131 -0.586,0.393 -0.754,0.663 -0.08,0.128 -0.084,0.273 -0.16,0.411 -0.308,0.553 -0.622,1.234 -0.892,1.759 -0.149,0.291 -0.237,0.745 -0.434,0.983 l 0.023,0.069 c 0.134,0.107 0.625,0.097 0.754,0 h 0.046 v 0.045 c -0.172,0.111 -0.321,0.207 -0.572,0.252 -0.099,0.018 -0.294,-0.086 -0.411,-0.023 -0.112,0.06 -0.121,0.292 -0.183,0.412 l -0.092,0.091 -0.068,0.183 -0.183,0.137 0.023,0.206 -0.115,0.137 c -0.096,0.205 -0.137,0.373 -0.228,0.571 -0.071,0.155 -0.2,0.334 -0.275,0.48 -0.117,0.228 -0.156,0.475 -0.297,0.686 l -0.16,0.114 c -0.046,0.075 0.034,0.202 -0.023,0.297 -0.181,0.306 -0.415,0.66 -0.571,0.983 v 0.206 l -0.115,0.137 c -0.096,0.182 -0.196,0.396 -0.274,0.572 l -0.046,0.205 -0.16,0.206 c -0.15,0.296 -0.216,0.641 -0.411,0.892 l -0.046,0.022 c -0.601,-1.291 -1.226,-2.514 -1.806,-3.817 -0.057,-0.127 -0.171,-0.265 -0.229,-0.388 -0.128,-0.279 -0.204,-0.527 -0.343,-0.8 -0.088,-0.176 -0.246,-0.37 -0.274,-0.595 l 0.206,-0.068 -0.229,-0.023 C -38.901,5.306 -39.225,4.636 -39.3,4.502 -39.619,4.527 -40.067,4.559 -40.26,4.388 L -40.328,4.365 V 4.319 c 0.394,0 0.573,-0.027 0.845,-0.16 -0.113,-0.425 -0.363,-0.82 -0.548,-1.188 -0.091,-0.182 -0.109,-0.422 -0.252,-0.549 L -40.26,2.285 -40.374,2.148 C -40.462,2.017 -40.471,1.875 -40.557,1.737 L -40.74,1.509 -40.9,1.211 -40.923,1.006 -41.174,0.777 c -0.151,-0.2 -0.318,-0.455 -0.526,-0.594 -0.107,-0.072 -0.299,-0.042 -0.412,-0.114 h -0.045 l 0.023,-0.023 c 0.189,-0.144 0.917,-0.034 1.165,0.023 0.258,0.059 0.511,0.048 0.801,0.068 0.08,0.006 0.134,0.082 0.228,0.046 l 0.206,-0.137 c 0.318,-0.112 0.85,-0.07 1.166,-0.046 l 0.023,0.069 v 0.022 l 0.023,-0.068 c 0.091,0.013 0.133,0.039 0.182,0.091 l 0.023,0.069 c -0.132,-0.001 -0.383,-0.054 -0.434,-0.046 -0.47,0.074 -0.991,0.228 -1.12,0.64 -0.118,0.173 0.062,0.897 0.16,1.006 -0.004,0.118 -0.02,0.137 -0.092,0.182 0.038,0.15 0.208,0.134 0.252,0.274 l -0.023,0.092 0.137,0.16 c 0.192,0.368 0.322,0.719 0.503,1.097 0.065,0.135 0.187,0.27 0.229,0.434 0.364,-0.015 0.792,-0.303 1.051,-0.457 l 0.229,-0.046 0.137,-0.205 c 0.102,-0.091 0.258,-0.177 0.366,-0.252 0.198,-0.139 0.488,-0.25 0.64,-0.434 0.176,0.019 0.82,0.5 0.846,0.663 0.349,-0.01 0.613,0.227 0.892,0.365 0.11,0.055 0.235,0.06 0.32,0.137 0.226,-0.082 0.466,-0.873 0.594,-1.12 0.062,-0.118 0.26,-0.292 0.297,-0.388 l -0.023,-0.206 c 0.11,-0.358 0.413,-0.754 0.526,-1.142 0.185,-0.632 -0.556,-0.93 -1.097,-0.914 v -0.046 c 0.263,-0.068 0.508,-0.09 0.823,-0.023 h 0.274 l 0.137,0.092 0.183,-0.069 c 0.491,0.084 1.224,0.134 1.669,0.023 0.241,-0.06 0.365,0.098 0.48,-0.069 0.179,0.02 0.242,0.176 0.343,0.275 -0.046,0.069 -0.381,0.095 -0.48,0.137 m -12.254,-1.44 0.046,0.023 c -0.042,0.122 -0.182,0.279 -0.229,0.343 l -0.091,0.023 c 0.011,0.12 0,0.117 0,0.205 l -0.115,0.023 c 0.065,0.145 -0.103,0.421 -0.16,0.594 -0.047,0.146 0.015,0.285 -0.045,0.435 l -0.069,0.045 c -0.036,0.113 0.105,0.173 0.069,0.343 -0.027,0.125 0.024,0.31 0,0.434 -0.035,0.182 -0.059,0.469 -0.023,0.64 0.038,0.182 -0.087,0.34 -0.069,0.48 0.046,0.353 0.003,0.81 0.046,1.188 0.012,0.105 -0.092,0.136 -0.069,0.229 l 0.069,0.068 c -0.008,0.115 -0.015,0.229 -0.023,0.343 0.064,0.3 0.067,0.866 0.023,1.166 -0.076,0.518 0.053,0.891 -0.023,1.326 -0.02,0.113 0.044,0.112 0.046,0.205 0.009,0.366 0.052,1.153 0,1.509 -0.031,0.211 -0.014,0.536 0.023,0.709 -0.008,0.228 -0.016,0.457 -0.023,0.685 0.027,0.163 0.056,0.462 0.023,0.64 0.007,0.13 0.015,0.26 0.023,0.389 l -0.092,0.114 c -0.009,0.006 0.131,0.241 0.069,0.343 -0.012,0.131 -0.072,0.158 -0.16,0.206 0.029,0.132 0.147,0.144 0.183,0.251 l -0.023,0.092 c 0.005,0.116 0,0.497 0.045,0.663 0.07,0.256 0.141,0.552 0.275,0.754 0.098,0.148 0.348,0.301 0.526,0.366 l 0.183,0.023 0.022,0.137 v 0.046 c -0.468,-0.005 -0.879,-0.266 -1.348,-0.16 -0.24,0.053 -0.581,-0.011 -0.778,0.045 -0.352,0.101 -0.933,0.105 -1.28,0.069 l -0.023,-0.023 v -0.206 c 0.271,-0.026 0.474,0.06 0.709,-0.023 0.744,-0.263 0.685,-1.161 0.846,-2.011 0.027,-0.146 -0.074,-0.391 0,-0.572 l 0.091,-0.114 c -0.07,-0.283 -0.046,-0.513 -0.046,-0.846 -0.007,-0.091 -0.015,-0.183 -0.022,-0.274 0.078,-0.387 0.022,-1.074 0.022,-1.623 V 4.959 c 0,-0.883 0.095,-2.209 -0.045,-2.857 -0.045,-0.206 0.075,-0.547 -0.023,-0.708 l -0.023,-0.023 c -0.224,0.348 -0.624,0.731 -0.914,1.028 l -0.069,0.137 c -0.214,0.285 -0.49,0.523 -0.709,0.823 l -0.228,0.206 c -0.228,0.302 -0.481,0.566 -0.709,0.869 l -0.206,0.182 c -0.234,0.312 -0.496,0.581 -0.731,0.892 l -0.206,0.183 c -0.134,0.18 -0.277,0.419 -0.457,0.548 0.013,0.15 0.271,0.566 0.365,0.64 v 0.046 c -0.173,-0.027 -0.479,-0.122 -0.594,-0.228 -0.365,0 -0.757,0.651 -0.937,0.891 -0.193,0.256 -0.47,0.473 -0.663,0.731 -0.533,0.711 -1.119,1.387 -1.715,2.035 -0.141,-0.031 -0.258,-0.246 -0.343,-0.343 h -0.023 c 0.012,0.15 0.059,0.4 0.137,0.503 -0.129,0.366 -0.473,0.662 -0.708,0.937 -0.147,0.172 -0.256,0.366 -0.389,0.548 -0.205,0.283 -0.501,0.521 -0.709,0.801 -0.246,0.33 -0.546,0.739 -0.937,0.914 -0.112,0.05 -0.222,-0.009 -0.343,0.046 -0.083,0.037 -0.172,0.178 -0.274,0.205 -0.095,0.025 -0.278,-0.021 -0.389,0.046 h -0.091 c 0.074,-0.156 0.314,-0.224 0.434,-0.343 0.244,-0.241 0.432,-0.596 0.549,-0.96 0.007,-0.114 0.015,-0.229 0.022,-0.343 0.069,-0.264 0.092,-0.619 0.092,-0.937 0,-0.216 -0.026,-0.593 0.068,-0.686 l -0.114,-0.183 c 0.021,-0.096 -0.024,-0.343 0.023,-0.457 l 0.069,-0.045 0.022,-0.069 -0.114,-0.137 c 0.086,-0.19 0.07,-0.631 0.069,-0.983 L -54.96,8.616 c 0.108,-0.478 -0.011,-1.163 0,-1.645 0.01,-0.449 0.09,-1.31 0.023,-1.714 -0.048,-0.288 0.113,-0.648 0,-0.846 l -0.023,-0.229 0.114,-0.114 c -0.018,-0.094 -0.071,-0.083 -0.091,-0.137 -0.013,-0.035 0.023,-0.647 0.023,-0.823 0,-0.104 0.053,-0.414 0.045,-0.435 L -54.96,2.605 -54.937,2.376 C -54.946,2.208 -54.958,1.9 -54.983,1.76 c -0.068,-0.383 0.028,-0.872 -0.137,-1.143 -0.131,-0.215 -0.46,-0.26 -0.709,-0.366 -0.23,-0.097 -0.792,-0.38 -0.914,-0.571 l -0.023,-0.16 c -0.076,-0.151 -0.239,-0.17 -0.252,-0.411 l 0.138,0.022 V -0.8 c 0.152,0.037 0.238,0.237 0.365,0.32 0.254,0.165 0.985,0.341 1.121,0.549 l 0.137,-0.115 c 0.172,-0.079 0.319,0.038 0.503,0 0.184,-0.037 0.622,-0.048 0.846,-0.091 0.128,-0.025 0.355,0.041 0.457,0.023 0.354,-0.063 0.985,-0.069 1.28,0.045 0.161,0.063 0.277,0.208 0.412,0.298 v 0.068 c -0.579,-0.272 -1.579,-0.132 -1.898,0.297 -0.118,0.159 -0.189,0.413 -0.251,0.617 -0.097,0.316 0.034,1.161 -0.161,1.302 l 0.092,0.092 c -0.008,0.114 -0.015,0.228 -0.023,0.343 0.057,0.307 -0.03,0.76 0.023,1.028 0.038,0.196 -0.083,0.383 0,0.503 -0.009,0.105 -0.026,0.118 -0.092,0.16 0.02,0.096 0.067,0.08 0.092,0.137 v 1.943 c 0,0.764 -0.007,1.673 0.023,2.263 0.027,0.537 -0.06,1.166 0,1.692 h 0.023 c 0.088,-0.334 0.622,-0.862 0.846,-1.12 0.284,-0.329 0.54,-0.681 0.8,-1.029 l 0.16,-0.137 c 0.404,-0.538 0.849,-1.024 1.234,-1.577 l 0.137,-0.114 c 0.171,-0.227 0.336,-0.433 0.504,-0.663 0.09,-0.125 0.249,-0.198 0.297,-0.366 L -50.319,4.982 V 4.914 c 0.225,0.108 0.502,0.198 0.709,0.343 0.319,-0.031 0.678,-0.694 0.868,-0.915 0.374,-0.435 0.75,-0.859 1.098,-1.326 l 0.205,-0.183 0.069,-0.182 0.229,-0.138 c 0.082,-0.06 0.284,-0.32 0.343,-0.411 0.119,0.011 0.262,0.067 0.32,0.091 h 0.023 l -0.161,-0.137 c 0.018,-0.296 0.463,-0.615 0.618,-0.822 0.328,-0.44 0.708,-0.81 1.097,-1.188 0.236,-0.23 0.456,-0.499 0.732,-0.686 l 0.182,-0.046 0.046,-0.137 0.503,-0.411 h 0.137 l 0.092,-0.137 c 0.212,-0.149 0.483,-0.139 0.777,-0.206 0.093,-0.021 0.31,-0.072 0.366,-0.046 l 0.023,0.023 -0.206,0.069 c -0.132,0.092 -0.326,0.413 -0.503,0.434 M 2.217,4.502 c 0.152,0.02 0.313,0.32 0.321,0.48 0.122,0.034 0.256,0.382 0.32,0.503 0.157,0.299 0.38,0.629 0.503,0.937 0.054,0.137 0.05,0.241 0.114,0.366 0.606,1.181 0.627,3.281 0.206,4.549 -0.236,0.708 -0.658,1.333 -1.052,1.897 L 2.217,13.668 H 2.103 L 2.035,13.874 1.783,14.125 C 1.599,14.26 1.349,14.353 1.189,14.514 1.084,14.505 1.071,14.488 1.029,14.422 0.897,14.472 0.904,14.614 0.8,14.674 c -0.103,0.06 -0.235,0.043 -0.343,0.091 -0.348,0.156 -0.776,0.336 -1.28,0.229 h -0.32 c -0.259,-0.097 -0.536,-0.309 -0.778,-0.389 l 0.023,-0.16 -0.023,-0.023 c -0.096,0.021 -0.1,0.066 -0.137,0.138 -0.205,-0.072 -0.462,-0.355 -0.731,-0.16 -0.189,0.063 -0.355,0.374 -0.366,0.617 -0.507,-0.092 -0.7,-0.908 -0.503,-1.463 0.118,-0.331 0.401,-0.466 0.594,-0.709 l 0.092,0.046 0.114,-0.137 c 0.168,-0.046 0.336,-0.091 0.503,-0.137 0.54,-0.126 1.515,0.335 1.601,0.663 0.092,0.005 0.092,-0.028 0.182,-0.046 0.119,-0.024 0.306,0.004 0.389,0.023 0.236,0.053 0.782,-0.011 0.96,-0.069 C 1.916,12.816 2.453,11.88 2.835,10.742 3.014,10.21 3.217,9.34 3.063,8.594 L 3.041,8.388 3.086,8.296 C 3.066,8.169 2.921,8.093 2.881,7.954 2.751,7.508 2.711,7.094 2.538,6.697 2.023,5.516 1.244,4.523 0.526,3.542 0.31,3.248 0.099,2.969 -0.16,2.719 L -0.229,2.536 H -0.366 V 2.491 C -0.449,2.406 -0.53,2.319 -0.64,2.262 -0.633,1.89 -0.625,1.516 -0.617,1.143 c 0.234,0.043 0.423,0.332 0.571,0.48 0.461,0.46 0.925,0.918 1.303,1.462 0.151,0.217 0.486,0.399 0.503,0.731 L 1.829,3.793 1.852,3.862 1.829,3.931 c 0.133,0.066 0.362,0.408 0.388,0.571"
       id="path3727"
       style="fill:#e4192a;fill-opacity:1;fill-rule:evenodd;stroke:none"
       inkscape:connector-curvature="0" />
  </g>
</svg>
