<?xml version="1.0" encoding="UTF-8" standalone="no"?>
<!-- Created with Inkscape (http://www.inkscape.org/) -->

<svg
   xmlns:dc="http://purl.org/dc/elements/1.1/"
   xmlns:cc="http://creativecommons.org/ns#"
   xmlns:rdf="http://www.w3.org/1999/02/22-rdf-syntax-ns#"
   xmlns:svg="http://www.w3.org/2000/svg"
   xmlns="http://www.w3.org/2000/svg"
   xmlns:sodipodi="http://sodipodi.sourceforge.net/DTD/sodipodi-0.dtd"
   xmlns:inkscape="http://www.inkscape.org/namespaces/inkscape"
   width="18in"
   height="14in"
   viewBox="0 0 457.20001 355.60001"
   version="1.1"
   id="svg8"
   inkscape:version="0.92.4 (5da689c313, 2019-01-14)"
   sodipodi:docname="Podium Front Tinker.svg">
  <defs
     id="defs2">
    <path
       sodipodi:nodetypes="cc"
       inkscape:connector-curvature="0"
       id="path7406"
       d="m 376.48671,1207.3178 c 6.20181,-20.0133 40.57418,-21.6178 46.71846,-0.4008"
       style="fill:none;stroke:none;stroke-width:0.36000001;stroke-linecap:butt;stroke-linejoin:miter;stroke-miterlimit:4;stroke-dasharray:none;stroke-opacity:1" />
  </defs>
  <sodipodi:namedview
     id="base"
     pagecolor="#ffffff"
     bordercolor="#666666"
     borderopacity="1.0"
     inkscape:pageopacity="0.0"
     inkscape:pageshadow="2"
     inkscape:zoom="0.62162861"
     inkscape:cx="1106.3522"
     inkscape:cy="707.33733"
     inkscape:document-units="in"
     inkscape:current-layer="layer1"
     showgrid="false"
     units="in"
     showguides="true"
     inkscape:guide-bbox="true"
     inkscape:snap-global="false"
     inkscape:window-width="1920"
     inkscape:window-height="1017"
     inkscape:window-x="-8"
     inkscape:window-y="-8"
     inkscape:window-maximized="1">
    <sodipodi:guide
       position="131.53572,24.946429"
       orientation="0,1"
       id="guide815"
       inkscape:locked="false" />
    <sodipodi:guide
       position="139.09524,331.10715"
       orientation="0,1"
       id="guide817"
       inkscape:locked="false" />
    <sodipodi:guide
       position="24.946429,271.38691"
       orientation="1,0"
       id="guide819"
       inkscape:locked="false" />
    <sodipodi:guide
       position="430.89287,227.54167"
       orientation="1,0"
       id="guide821"
       inkscape:locked="false" />
    <sodipodi:guide
       position="228.29762,210.91072"
       orientation="1,0"
       id="guide1421"
       inkscape:locked="false" />
  </sodipodi:namedview>
  <metadata
     id="metadata5">
    <rdf:RDF>
      <cc:Work
         rdf:about="">
        <dc:format>image/svg+xml</dc:format>
        <dc:type
           rdf:resource="http://purl.org/dc/dcmitype/StillImage" />
        <dc:title></dc:title>
      </cc:Work>
    </rdf:RDF>
  </metadata>
  <g
     inkscape:label="Layer 1"
     inkscape:groupmode="layer"
     id="layer1"
     transform="translate(0,58.600013)">
    <g
       id="g2660"
       transform="matrix(1.384006,0,0,1.384006,-41.395577,19.540468)">
      <g
         transform="matrix(2.1959828,0,0,2.1959828,-755.05778,-2624.2285)"
         aria-label="Donations"
         style="font-style:normal;font-variant:normal;font-weight:normal;font-stretch:normal;font-size:19.17971611px;line-height:1.25;font-family:'Brush Script MT';-inkscape-font-specification:'Brush Script MT';letter-spacing:0px;word-spacing:0px;fill:#ff0000;fill-opacity:1;fill-rule:evenodd;stroke:none;stroke-width:0.16840424;stroke-miterlimit:4;stroke-dasharray:none;stroke-opacity:1"
         id="text7410">
        <path
           d="m 369.47274,1201.3463 q 0.0538,0.038 0.12334,-0.062 0.0481,-0.069 0.34095,-0.6868 0.29817,-0.6254 0.60602,-1.0844 -0.2146,0.6037 -0.32524,1.0743 -0.11299,0.4576 -0.20893,0.9727 -0.0983,0.5021 -0.15443,0.714 -0.0639,0.2065 -0.14942,0.3295 -0.27276,0.3921 -0.78015,0.039 -1.30692,-0.9092 -1.37743,-1.9393 -0.0281,-0.4188 0.0916,-1.214 0.11734,-0.8083 0.37473,-1.7358 0.25505,-0.9406 0.68859,-1.9738 0.43354,-1.0332 1.04324,-1.9096 0.62573,-0.8994 1.41124,-1.471 0.78551,-0.5716 1.61513,-0.7474 0.82193,-0.1811 1.69333,0.026 0.87675,0.1992 1.73009,0.7929 1.29924,0.9038 1.99747,2.5076 0.70358,1.5961 0.76974,3.5016 0.0638,1.8926 -0.48139,3.8406 -0.54519,1.9481 -1.60413,3.4702 -0.19789,0.2845 -0.37705,0.4108 -0.17381,0.1187 -0.40645,0.059 -0.22496,-0.054 -0.57859,-0.2998 -0.43821,-0.3049 -0.66683,-0.5666 -0.22863,-0.2617 -0.47764,-0.6745 -1.68227,-2.8131 -3.49385,-8.1462 -0.32356,0.5963 -0.60669,1.3805 -0.29081,0.7788 -0.49505,1.5151 -0.20424,0.7364 -0.2955,1.2776 -0.0913,0.5411 -0.007,0.5999 z m 1.51291,-5.0281 q 0.0154,0.011 0.19822,0.092 0.17514,0.076 0.29046,0.1565 0.17682,0.123 0.37135,0.5321 0.19219,0.3961 0.63807,1.4935 0.44588,1.0973 0.79884,1.9019 0.35296,0.8045 0.96329,1.9935 0.1952,0.3754 0.26004,0.5117 0.0648,0.1364 0.21459,0.4459 0.15509,0.3019 0.28912,0.4864 0.13404,0.1845 0.22629,0.2487 0.19988,0.139 0.4342,-0.017 0.23197,-0.1695 0.51543,-0.5769 0.72735,-1.0456 1.16357,-2.4762 0.42854,-1.4359 0.46332,-2.929 0.0401,-1.5008 -0.38535,-2.7095 -0.42549,-1.2087 -1.35571,-1.8558 -1.06091,-0.738 -2.16998,-0.3573 -1.11675,0.3753 -2.14895,1.859 -0.4332,0.6228 -0.7668,1.2007 z"
           style="fill:#ff0000;fill-opacity:1;fill-rule:evenodd;stroke:none;stroke-width:0.16840424;stroke-miterlimit:4;stroke-dasharray:none;stroke-opacity:1"
           id="path2615"
           inkscape:connector-curvature="0" />
        <path
           d="m 387.10207,1191.4082 0.3249,0.5368 q -0.23784,0.8007 -0.46133,1.1549 -0.2235,0.3543 -0.84379,0.6859 -0.29478,1.8642 -1.08796,2.3443 -0.44866,0.2715 -0.99663,0.1982 -0.54797,-0.073 -1.08264,-0.4504 -0.52667,-0.3818 -0.90976,-1.0148 -0.31034,-0.5127 -0.35207,-1.3413 -0.0337,-0.8335 0.17818,-1.6952 0.21507,-0.8745 0.63317,-1.5764 0.41325,-0.7099 0.94204,-1.0299 0.37656,-0.2279 0.66561,-0.2387 0.28421,-0.019 0.41029,0.1896 0.097,0.1602 0.0388,0.48 0.34325,-0.1201 0.54755,-0.036 0.19945,0.076 0.43706,0.4689 0.23276,0.3846 0.40247,1.081 0.17773,0.6915 0.17561,1.3934 l 0.2315,0.057 0.12018,-0.073 q 0.1362,-0.082 0.2256,-0.2241 0.0926,-0.1546 0.15307,-0.2897 0.0557,-0.1432 0.24816,-0.6209 z m -2.92578,-1.1082 q -0.42253,0.8031 -0.69642,1.4176 -0.27873,0.6066 -0.40356,1.1419 -0.12967,0.5273 -0.0382,0.9317 0.34281,1.0186 0.38645,1.0907 0.32004,0.5288 1.05714,0.083 0.34451,-0.2086 0.79488,-1.2912 -0.36412,-0.2941 -0.57263,-0.6386 -0.3055,-0.5048 -0.41238,-1.1516 -0.11174,-0.6549 -0.11531,-1.5832 z"
           style="fill:#ff0000;fill-opacity:1;fill-rule:evenodd;stroke:none;stroke-width:0.16840424;stroke-miterlimit:4;stroke-dasharray:none;stroke-opacity:1"
           id="path2617"
           inkscape:connector-curvature="0" />
        <path
           d="m 393.29892,1187.6456 q -1.03071,2.2413 -0.81715,2.9301 0.11926,0.3846 0.43233,0.2875 0.25941,-0.08 0.58767,-0.4763 0.33444,-0.4077 1.00366,-1.38 l 0.19137,0.6172 q -0.8819,1.6462 -1.38976,2.4115 -0.50786,0.7654 -0.93722,0.8985 -0.73349,0.2275 -1.03303,-0.7386 -0.0888,-0.2862 -0.0853,-0.5913 0.003,-0.305 0.064,-0.6473 0.0667,-0.3541 0.21678,-1.0085 0.14729,-0.6634 0.3486,-1.5004 -0.42944,0.4175 -0.96019,1.4253 -0.35115,0.6383 -0.5641,1.1848 -0.21573,0.5375 -0.45184,1.199 -0.22995,0.6498 -0.35955,0.8959 -0.12343,0.2344 -0.31127,0.2926 -0.28624,0.089 -0.71358,-0.4357 -0.42734,-0.5244 -0.67418,-1.3205 -0.15254,-0.492 -0.13118,-0.8025 0.0303,-0.3134 0.20318,-0.9259 0.32322,-1.1395 0.63457,-1.7165 0.30857,-0.5859 0.72004,-0.7135 0.28624,-0.089 0.4867,-0.043 0.20941,0.043 0.2732,0.2486 0.0277,0.09 0.005,0.2045 -0.0232,0.115 -0.0698,0.2177 -0.0376,0.1 -0.18022,0.3991 -0.92795,2.0036 -0.78372,2.4687 0.0804,0.2594 0.25038,0.2067 0.10734,-0.033 0.30608,-0.4675 0.20491,-0.4459 0.51598,-1.1503 0.31724,-0.716 0.79058,-1.5295 0.48227,-0.8163 1.15732,-1.6433 0.37146,-0.478 0.68454,-0.5751 0.14312,-0.044 0.39932,0.3076 0.26516,0.3493 0.38996,0.7518 0.061,0.1968 -0.19881,0.7186 z"
           style="fill:#ff0000;fill-opacity:1;fill-rule:evenodd;stroke:none;stroke-width:0.16840424;stroke-miterlimit:4;stroke-dasharray:none;stroke-opacity:1"
           id="path2619"
           inkscape:connector-curvature="0" />
        <path
           d="m 396.24031,1187.1946 q 1.35775,-1.3613 2.66425,-2.0543 1.30649,-0.693 2.03607,-0.7292 0.19643,-0.01 0.37314,0.1503 0.17625,0.1507 0.28045,0.3612 0.11356,0.21 0.11866,0.3129 0.008,0.1683 -0.11843,0.259 -0.12724,0.081 -0.44905,0.2098 0.0729,0.1464 0.18738,0.3752 0.11448,0.2287 0.17802,0.3756 0.0631,0.1375 0.0686,0.2497 0.0111,0.2245 -0.41659,0.8646 -0.41883,0.6302 -0.59152,0.9295 -0.16334,0.2987 -0.14248,0.7197 0.0343,0.6921 0.67037,0.6606 0.65475,-0.033 1.98769,-1.3269 l 0.0283,0.5706 q -2.23614,2.7457 -3.25569,2.7962 -0.36479,0.018 -0.53586,-0.2172 -0.16125,-0.2264 -0.18444,-0.6941 -0.0366,-0.7389 0.42696,-2.1684 -1.2905,1.583 -1.92261,2.2613 -0.63257,0.669 -1.06283,0.6903 -0.20578,0.01 -0.53207,-0.3299 -0.32629,-0.3402 -0.59731,-0.8893 -0.26213,-0.559 -0.29228,-1.167 -0.0218,-0.4396 0.048,-0.7337 0.0693,-0.3035 0.29724,-0.6243 0.22789,-0.3207 0.736,-0.8522 z m 4.42937,-1.251 q -2.37676,1.2336 -3.37652,2.0614 -0.9904,0.8274 -0.94959,1.6505 0.0148,0.2993 0.12747,0.4907 0.11216,0.1819 0.28988,0.1731 0.10289,-0.01 0.3583,-0.149 0.95337,-0.6286 1.72123,-1.595 0.76739,-0.9757 1.82923,-2.6317 z"
           style="fill:#ff0000;fill-opacity:1;fill-rule:evenodd;stroke:none;stroke-width:0.16840424;stroke-miterlimit:4;stroke-dasharray:none;stroke-opacity:1"
           id="path2621"
           inkscape:connector-curvature="0" />
        <path
           d="m 407.70511,1184.5086 0.39715,0.067 q 0.6367,-0.7953 1.09427,-1.0889 0.45913,-0.3028 0.96711,-0.2176 0.50798,0.085 0.46925,0.3161 -0.0186,0.1109 -0.49786,0.5337 -0.47927,0.4229 -0.73824,0.7213 0.30783,0.09 0.54332,0.1577 0.24473,0.07 0.38017,0.1112 -0.69069,0.8907 -1.65697,1.7827 -0.25551,-0.062 -0.42944,-0.1006 -0.17239,-0.048 -0.35556,-0.088 -0.17239,-0.048 -0.4279,-0.1098 -0.63354,0.7199 -1.08218,1.2999 -0.43785,0.5722 -0.71089,1.0677 -0.26379,0.497 -0.34281,0.9681 -0.10691,0.6373 0.40108,0.7225 0.35097,0.059 0.97634,-0.2161 0.63616,-0.2826 1.71762,-0.8988 l -0.10381,0.6188 q -2.9477,2.2878 -4.13915,2.0879 -0.41562,-0.07 -0.62,-0.4363 -0.19514,-0.3651 -0.10993,-0.8731 0.0573,-0.3417 0.27488,-0.7895 0.2268,-0.4463 0.75582,-1.3356 -0.14789,0.089 -0.28655,0.1798 -0.12788,0.083 -0.24497,0.1583 -0.1063,0.068 -0.23418,0.1507 -0.12633,0.074 -0.2542,0.1567 l 0.1069,-0.6372 q 1.10613,-0.6501 2.82471,-2.4604 -0.13699,-0.033 -0.25706,-0.053 -0.11852,-0.029 -0.28477,-0.057 -0.54492,-0.091 -0.82516,-0.062 -0.11548,0.01 -0.22328,0.029 -0.097,0.012 -0.13395,0.01 -0.0369,-0.01 -0.0276,-0.062 0.0511,-0.3048 0.53207,-0.8508 0.39155,-0.4661 0.70123,-0.6705 0.31891,-0.2029 0.72077,-0.221 0.41264,-0.026 1.12382,0.094 z"
           style="fill:#ff0000;fill-opacity:1;fill-rule:evenodd;stroke:none;stroke-width:0.16840424;stroke-miterlimit:4;stroke-dasharray:none;stroke-opacity:1"
           id="path2623"
           inkscape:connector-curvature="0" />
        <path
           d="m 413.89577,1187.0414 q -0.22082,-0.078 -0.36484,-0.3172 -0.13519,-0.2363 -0.0449,-0.4925 0.13694,-0.3886 0.67598,-0.7349 0.53904,-0.3462 0.93652,-0.2062 0.26498,0.093 0.38251,0.3235 0.12063,0.2212 0.0117,0.5304 -0.13383,0.3798 -0.65781,0.7115 -0.52399,0.3317 -0.93913,0.1854 z m -0.79057,4.1599 -0.2272,0.6448 q -1.24582,0.8022 -2.18696,1.1061 -0.93804,0.295 -1.45917,0.1114 -0.72429,-0.2552 -0.80995,-1.1393 -0.0856,-0.8842 0.2318,-1.7851 0.12138,-0.3445 0.30098,-0.6287 0.1827,-0.2931 0.35145,-0.462 0.16874,-0.1689 0.58623,-0.5084 1.94208,-1.5101 2.98435,-1.1428 0.5388,0.1898 0.39252,0.605 -0.0996,0.2826 -0.66454,0.7587 -0.55612,0.4793 -0.92019,0.639 -1.02989,0.4711 -1.37108,0.6786 -0.33236,0.2106 -0.46308,0.5815 -0.11204,0.318 0.0517,0.614 0.16379,0.2961 0.5436,0.4299 0.41514,0.1463 1.0156,0.02 0.6124,-0.1317 1.64389,-0.5229 z"
           style="fill:#ff0000;fill-opacity:1;fill-rule:evenodd;stroke:none;stroke-width:0.16840424;stroke-miterlimit:4;stroke-dasharray:none;stroke-opacity:1"
           id="path2625"
           inkscape:connector-curvature="0" />
        <path
           d="m 418.76725,1194.5818 -0.33371,0.5313 q -0.82228,0.1471 -1.23913,0.1065 -0.41684,-0.041 -0.99172,-0.4459 -1.79804,0.5739 -2.58319,0.081 -0.44412,-0.279 -0.62465,-0.8015 -0.18052,-0.5226 -0.0838,-1.1696 0.10464,-0.6421 0.49812,-1.2686 0.31877,-0.5075 1.04036,-0.917 0.72952,-0.4044 1.5946,-0.602 0.87798,-0.2006 1.69286,-0.1423 0.81986,0.05 1.34329,0.3792 0.37275,0.2341 0.51217,0.4875 0.14439,0.2455 0.0149,0.4517 -0.0996,0.1587 -0.41152,0.2503 0.26152,0.2527 0.27792,0.4731 0.0214,0.2125 -0.22268,0.6011 -0.23908,0.3807 -0.78508,0.8451 -0.53808,0.4694 -1.16615,0.7827 l 0.0531,0.2324 0.11896,0.075 q 0.13483,0.085 0.30157,0.1009 0.17965,0.013 0.32757,0.01 0.15291,-0.015 0.66623,-0.057 z m -0.32379,-3.1119 q -0.90729,-0.017 -1.57942,0.014 -0.66715,0.023 -1.2015,0.1522 -0.52937,0.121 -0.8496,0.3843 -0.75611,0.7637 -0.80094,0.8351 -0.32873,0.5234 0.4009,0.9817 0.34102,0.2142 1.51061,0.1303 0.0993,-0.4574 0.31344,-0.7984 0.31379,-0.4996 0.84374,-0.8856 0.53493,-0.394 1.36277,-0.8141 z"
           style="fill:#ff0000;fill-opacity:1;fill-rule:evenodd;stroke:none;stroke-width:0.16840424;stroke-miterlimit:4;stroke-dasharray:none;stroke-opacity:1"
           id="path2627"
           inkscape:connector-curvature="0" />
        <path
           d="m 424.85108,1198.9596 q -2.46514,-0.095 -3.01991,0.3653 -0.30981,0.2573 -0.1004,0.5094 0.1735,0.209 0.66486,0.3609 0.50455,0.1531 1.65884,0.3998 l -0.49713,0.4128 q -1.85826,-0.1855 -2.75966,-0.3621 -0.9014,-0.1766 -1.18858,-0.5225 -0.4906,-0.5908 0.28751,-1.2369 0.23056,-0.1915 0.51374,-0.3049 0.28318,-0.1134 0.62265,-0.1884 0.35265,-0.074 1.01474,-0.1853 0.66929,-0.1175 1.51966,-0.2516 -0.54996,-0.2371 -1.68411,-0.3422 -0.72411,-0.08 -1.31048,-0.068 -0.57916,0.01 -1.28068,0.041 -0.68834,0.036 -0.96528,0.01 -0.26376,-0.024 -0.3894,-0.1758 -0.19145,-0.2305 0.12973,-0.8259 0.32118,-0.5954 0.96241,-1.1279 0.39627,-0.3291 0.69141,-0.4281 0.30113,-0.092 0.93317,-0.1662 1.17654,-0.1371 1.82872,-0.07 0.65939,0.061 0.9346,0.3925 0.19146,0.2306 0.22588,0.4333 0.0404,0.2099 -0.1253,0.3475 -0.0721,0.06 -0.1872,0.082 -0.11515,0.023 -0.22786,0.019 -0.10673,0 -0.43764,-0.014 -2.20615,-0.091 -2.5808,0.2198 -0.20894,0.1735 -0.0953,0.3104 0.0718,0.086 0.549,0.1041 0.49039,0.019 1.26016,0.037 0.78297,0.019 1.71564,0.1457 0.93864,0.1335 1.96093,0.441 0.58367,0.1605 0.79307,0.4127 0.0957,0.1153 -0.13154,0.4866 -0.22128,0.3785 -0.5455,0.6477 -0.1585,0.1317 -0.73999,0.091 z"
           style="fill:#ff0000;fill-opacity:1;fill-rule:evenodd;stroke:none;stroke-width:0.16840424;stroke-miterlimit:4;stroke-dasharray:none;stroke-opacity:1"
           id="path2629"
           inkscape:connector-curvature="0" />
        <path
           d="m 424.12512,1201.5866 0.20996,-0.08 q 3.2419,1.3479 4.51969,1.8322 1.14957,-0.2187 1.43034,0.5161 0.0702,0.1838 0.0454,0.4338 l -0.14616,0.116 q -0.11835,0.01 -0.31081,0.079 -0.16622,0.064 -0.57434,0.3598 -0.39602,0.3017 -0.67547,0.4886 -0.27946,0.187 -0.66438,0.3341 -0.57739,0.2206 -1.21131,0.162 -0.62517,-0.062 -1.3056,-0.3734 -0.67168,-0.3148 -1.4799,-0.9083 0.0678,0.335 0.13803,0.5188 0.13704,0.3586 0.4691,0.703 0.34416,0.3497 0.80538,0.6647 0.47331,0.3204 1.17508,0.714 l -0.58614,0.2239 q -1.52138,-0.7019 -2.42761,-1.3683 -0.89748,-0.6696 -1.14148,-1.3082 -0.31419,-0.8224 0.11827,-1.7896 0.26283,-0.5717 0.60764,-0.8237 0.34816,-0.2433 1.00428,-0.494 z m 2.58524,2.7517 1.21709,-0.6454 q -0.81962,-0.3085 -3.23905,-1.4192 0.0868,0.5683 -0.0321,0.8343 -0.11893,0.266 -0.53637,0.8265 0.47224,0.5013 1.01248,0.6558 0.55234,0.1599 1.2872,-0.1208 0.0875,-0.034 0.15413,-0.069 0.07,-0.027 0.13663,-0.062 z"
           style="fill:#ff0000;fill-opacity:1;fill-rule:evenodd;stroke:none;stroke-width:0.16840424;stroke-miterlimit:4;stroke-dasharray:none;stroke-opacity:1"
           id="path2631"
           inkscape:connector-curvature="0" />
      </g>
      <text
         transform="scale(1.0107416,0.98937255)"
         id="text7410-9"
         y="140.06239"
         x="65.969849"
         style="font-style:italic;font-variant:normal;font-weight:normal;font-stretch:normal;font-size:38.3255806px;line-height:1.25;font-family:'Brush Script MT';-inkscape-font-specification:'Brush Script MT, Italic';font-variant-ligatures:normal;font-variant-caps:normal;font-variant-numeric:normal;font-feature-settings:normal;text-align:start;letter-spacing:0px;word-spacing:0px;writing-mode:lr-tb;text-anchor:start;fill:#ff0000;fill-opacity:1;stroke:none;stroke-width:0;stroke-miterlimit:4;stroke-dasharray:none;stroke-opacity:1"
         xml:space="preserve"><tspan
           style="fill:#ff0000;fill-opacity:1;stroke:none;stroke-width:0;stroke-miterlimit:4;stroke-dasharray:none"
           y="140.06239"
           x="65.969849"
           id="tspan7448"
           sodipodi:role="line">Accepted</tspan></text>
      <path
         inkscape:connector-curvature="0"
         id="path828"
         d="m 75.499472,78.50922 0.130094,-31.987989 0.97985,-4.14381 C 80.604577,25.48198 88.893378,14.54333 103.79805,6.4963627 c 12.62676,-6.81700196 29.36671,-6.96540096 41.64756,-0.369756 16.25255,8.7288363 25.29524,21.2294823 28.31715,39.1453623 0.70234,4.163791 0.74847,6.312789 0.74847,34.831361 v 30.39374 H 124.94039 75.369561 Z M 170.25089,77.2907 c -0.13315,-27.264888 -0.18052,-28.926795 -0.9209,-32.411207 -2.38056,-11.208248 -7.07073,-20.148975 -13.64316,-26.00785 -4.01191,-3.576168 -9.65489,-7.452993 -13.31509,-9.1471443 -13.2045,-6.112785 -28.46262,-4.877529 -40.68651,3.2937473 -11.611057,7.761931 -17.618644,16.521017 -20.889046,30.456489 l -1.000954,4.265069 -0.133827,29.144606 -0.133842,29.14467 h 45.431879 45.43182 z M 86.748307,96.28043 c 0,-2.66964 0.427646,-3.08005 1.306717,-1.25455 0.74561,1.54817 2.351057,2.87917 3.472896,2.87917 0.882495,0 2.407829,-1.26819 2.407829,-2.00185 0,-0.7875 -1.255674,-1.669 -3.276441,-2.29964 -2.62576,-0.81956 -3.532719,-1.75702 -3.532719,-3.65061 0,-2.91142 3.259199,-4.80918 5.775712,-3.36315 0.6063,0.34859 0.84415,0.34859 0.952337,0 0.07906,-0.25522 0.385318,-0.46438 0.680063,-0.46438 0.397768,0 0.535958,0.57767 0.535958,2.23422 0,1.71482 -0.13196,2.23397 -0.567704,2.23397 -0.311864,0 -0.572685,-0.31996 -0.579532,-0.71088 -0.04357,-2.51327 -3.858152,-3.82821 -4.921042,-1.69552 -0.58638,1.17618 0.03735,1.83122 2.460863,2.58798 3.002735,0.93727 3.796277,1.79063 3.796277,4.0828 0,1.57694 -0.179898,2.06509 -1.061458,2.87911 -1.242353,1.14767 -3.780466,1.3376 -5.055624,0.37847 -0.706892,-0.5316 -0.854419,-0.5316 -1.265383,0 -0.844897,1.0932 -1.129061,0.63139 -1.129061,-1.83514 z m 9.45633,1.77352 c 6.85e-4,-0.25273 0.34112,-0.55588 0.757438,-0.67285 0.701663,-0.19795 0.756565,-0.55401 0.756565,-4.91817 0,-4.26588 -0.07095,-4.75316 -0.756565,-5.21324 -1.290097,-0.865 -0.853985,-1.12433 1.891477,-1.12433 2.528898,0 3.501158,0.47807 1.891418,0.93018 -0.64384,0.1799 -0.756568,0.55401 -0.756568,2.50475 v 2.29242 l 2.150808,-0.12076 2.15086,-0.12076 -0.0374,-1.32023 c -0.0187,-0.726 -0.0498,-1.7028 -0.0703,-2.17053 -0.0187,-0.48928 -0.35606,-0.94076 -0.79099,-1.06283 -1.60974,-0.45192 -0.63748,-0.93024 1.89141,-0.93024 2.48614,0 3.46182,0.50297 2.08059,1.07185 -0.46188,0.19111 -0.56708,1.16784 -0.56708,5.26771 0,4.20381 0.0934,5.03389 0.56708,5.03389 0.31186,0 0.56771,0.23655 0.56771,0.52538 0,0.38532 -0.66432,0.50172 -2.49349,0.43698 -2.62239,-0.0921 -3.5131,-0.43262 -2.14426,-0.8167 0.93939,-0.26393 1.09507,-0.82061 0.91137,-3.25907 l -0.13259,-1.76051 h -2.04249 -2.042487 v 2.27194 c 0,1.93076 0.113907,2.30425 0.756567,2.48458 1.52309,0.42765 0.69071,0.86694 -1.892288,0.99847 -1.79574,0.0921 -2.648604,-0.0249 -2.648044,-0.32556 z m 13.240903,-0.0498 c 6e-5,-0.27949 0.34049,-0.50794 0.75663,-0.50794 0.71604,0 0.75656,-0.27078 0.75656,-5.05015 0,-4.69346 -0.056,-5.06832 -0.75656,-5.30791 -1.90244,-0.64844 -0.39777,-1.01565 4.16117,-1.01565 h 4.91775 v 2.23422 c 0,2.28999 -0.56086,3.00983 -0.97251,1.24845 -0.43387,-1.85606 -2.46093,-2.94702 -4.175,-2.24741 -0.76808,0.31373 -0.90509,0.64408 -0.90509,2.18348 0,0.99784 0.155,1.91688 0.34424,2.0425 0.61252,0.40648 1.54793,-0.24526 1.78067,-1.24074 0.12449,-0.53409 0.46375,-0.97082 0.75333,-0.97082 0.39963,0 0.52662,0.6851 0.52662,2.84331 0,3.11392 -0.62061,3.83531 -1.39735,1.62481 -0.29194,-0.83027 -0.68591,-1.21851 -1.23669,-1.21851 -0.74498,0 -0.79939,0.18239 -0.69487,2.33562 l 0.11329,2.33562 1.44752,0.12761 c 1.82151,0.1606 3.13632,-0.72949 3.46742,-2.34838 0.42204,-2.06466 0.99423,-1.39051 0.87284,1.02909 l -0.11329,2.26142 -4.82325,0.0747 c -3.64327,0.056 -4.82318,-0.0498 -4.82318,-0.43325 z m 11.3483,0 c 1.9e-4,-0.27949 0.3405,-0.50794 0.75701,-0.50794 0.71598,0 0.75656,-0.27078 0.75656,-5.05015 0,-4.69346 -0.056,-5.06832 -0.75656,-5.30791 -1.60085,-0.5453 -0.63805,-1.01565 2.08058,-1.01565 2.72623,0 3.68062,0.4706 2.06914,1.01938 -0.72432,0.24713 -0.76192,0.54281 -0.66195,5.20651 l 0.10582,4.94464 1.21192,0.12512 c 1.64366,0.17119 2.71832,-0.52849 3.36464,-2.18958 0.29755,-0.76379 0.70845,-1.38895 0.91368,-1.38895 0.40462,0 0.4289,2.02226 0.0436,3.65585 l -0.23903,1.01545 h -4.82356 c -3.60686,0 -4.8235,-0.12761 -4.82319,-0.50794 z m 11.34887,0.0498 c 1.2e-4,-0.25273 0.3405,-0.55588 0.75675,-0.67285 0.70396,-0.19795 0.75664,-0.55401 0.75664,-5.12478 0,-4.58085 -0.0498,-4.91245 -0.72956,-4.91245 -0.98103,0 -1.90791,1.06028 -2.17352,2.48633 -0.37412,2.00912 -0.87982,1.28069 -0.87982,-1.2675 v -2.43734 h 4.869 4.869 l 0.25274,2.04424 c 0.34796,2.81897 -0.10029,3.30887 -1.06078,1.15968 -0.61999,-1.38764 -1.02953,-1.81105 -1.84878,-1.91183 l -1.05212,-0.12948 0.10646,5.00421 c 0.10398,4.87859 0.12821,5.0075 0.97941,5.13704 0.47994,0.0722 0.81502,0.31934 0.74431,0.54716 -0.18363,0.59136 -5.58971,0.66675 -5.58953,0.0766 z m 9.0796,-0.0249 c -1.9e-4,-0.26394 0.38283,-0.53783 0.85068,-0.60942 0.82865,-0.12512 0.85113,-0.25833 0.85113,-5.0042 0,-4.66514 -0.0373,-4.8916 -0.85113,-5.27524 -1.6797,-0.79142 -0.77561,-1.02068 4.02244,-1.02068 4.73441,0 4.88019,0.0249 5.10175,0.91374 0.65185,2.61194 -0.19608,4.66825 -0.95739,2.32249 -0.52537,-1.61846 -2.44423,-2.61649 -3.893,-2.02513 -0.85636,0.34984 -0.96379,0.62124 -0.96379,2.43447 0,2.41841 0.78176,2.77372 1.81447,0.82504 0.35419,-0.66867 0.77206,-1.21702 0.92812,-1.21857 0.15624,0 0.28385,1.27696 0.28385,2.8407 0,1.56399 -0.12759,2.84226 -0.28385,2.84095 -0.15625,0 -0.57393,-0.54965 -0.92812,-1.21851 -0.35419,-0.66892 -0.91618,-1.21614 -1.24832,-1.21614 -0.49612,0 -0.58389,0.41706 -0.49052,2.33561 l 0.11324,2.33569 1.45567,0.12947 c 1.64579,0.14505 2.56339,-0.52288 3.28429,-2.39189 0.63144,-1.63707 1.12452,-1.48973 1.11835,0.33427 -0.0123,3.25248 0.16496,3.14796 -5.30953,3.14796 -3.51218,0 -4.89832,-0.13632 -4.89863,-0.47931 z m 11.50579,0.30999 c -0.38406,-0.41208 -0.0915,-0.79976 0.69358,-0.91947 0.82036,-0.12512 0.85499,-0.3019 0.95769,-4.90542 0.10646,-4.76349 0.10399,-4.77687 -0.85113,-5.24417 -1.90548,-0.93223 -0.96422,-1.23855 3.35451,-1.09121 4.93729,0.16931 5.90152,0.66189 5.90152,3.02103 0,1.42431 -0.65897,2.38941 -1.9266,2.82141 -0.77455,0.26393 -0.77536,0.27701 -0.0498,0.82168 0.40461,0.30439 0.95233,1.38372 1.21694,2.39849 0.53597,2.05432 0.65573,2.15535 1.35043,1.1351 0.26579,-0.39092 0.61376,-0.5702 0.773,-0.39964 0.4488,0.4818 -1.14811,2.51552 -2.09348,2.66573 -1.25661,0.19981 -2.17601,-0.95197 -2.39041,-2.99427 -0.22658,-2.15666 -0.81183,-3.02975 -2.03166,-3.02975 -0.83985,0 -0.89942,0.15126 -0.89942,2.27218 0,1.93045 0.11387,2.304 0.75663,2.48452 0.41582,0.11641 0.75651,0.41955 0.75651,0.67284 0,0.43388 -5.13119,0.70515 -5.5167,0.2907 z m 7.02984,-7.34536 c 1.52781,-1.64037 0.68634,-3.65566 -1.52646,-3.65566 h -1.49981 v 2.23397 c 0,2.21156 0.0123,2.23421 1.13484,2.23421 0.63052,0 1.47113,-0.36104 1.89143,-0.81252 z M 99.698014,63.67979 99.83559,48.54623 l 0.99902,-2.942853 c 0.54966,-1.618643 1.56262,-4.084112 2.25153,-5.478538 1.50926,-3.055023 6.08315,-8.069997 9.12989,-10.010589 8.08724,-5.151112 18.5284,-5.151112 26.61304,0 1.18415,0.754324 3.53415,2.834104 5.22226,4.621191 2.44636,2.590153 3.38792,3.950342 4.63944,6.702403 2.53512,5.574275 2.78187,7.759254 2.66035,23.559376 l -0.1046,13.60761 -25.84302,0.10519 -25.843016,0.10332 z m 27.380796,12.2097 c -0.13259,-0.71131 -0.5204,-1.62524 -0.86251,-2.03085 -0.59074,-0.70098 -0.54654,-0.73764 0.89158,-0.73764 0.96603,0 1.72477,-0.25709 2.09827,-0.71081 0.61625,-0.74885 2.55846,-5.71222 2.55846,-6.53857 0,-0.33116 0.32743,-0.38718 1.0403,-0.17554 2.00788,0.59323 10.73279,-0.27016 12.45265,-1.23258 1.77159,-0.99106 3.3743,-4.82082 3.19365,-7.63127 -0.0435,-0.70073 -6.23131,-3.978478 -10.72855,-5.684332 -1.59113,-0.603808 -2.55344,-1.194358 -2.55344,-1.56791 0,-0.329916 -0.2658,-1.347241 -0.59073,-2.261172 -0.52974,-1.489353 -0.97991,-1.890979 -4.34027,-3.872406 -3.01929,-1.780301 -3.75121,-2.389651 -3.7593,-3.129534 -0.0125,-0.93609 -2.15809,-10.117719 -2.50967,-10.728687 -0.46437,-0.806987 -0.80474,-0.15811 -1.23712,2.362448 -0.25459,1.483628 -0.84639,3.471217 -1.31512,4.416582 l -0.85218,1.718988 -1.22256,-2.893428 c -1.34568,-3.184811 -3.23174,-5.920375 -3.72008,-5.395312 -0.17243,0.184256 -0.31871,3.108434 -0.32618,6.49661 -0.0125,4.896578 -0.13944,6.410085 -0.62827,7.378731 -0.79411,1.573637 -2.32473,3.075005 -4.50436,4.418075 -0.95769,0.590114 -2.01796,1.401085 -2.35609,1.802463 -0.33801,0.400879 -1.29633,3.004104 -2.12927,5.784674 -1.46807,4.90031 -1.86932,5.81188 -3.72917,8.47212 -0.79541,1.13772 -0.81296,1.25412 -0.18923,1.25281 1.13049,0 3.05439,-1.4891 4.17548,-3.22614 0.57829,-0.89638 1.90287,-3.21581 2.94317,-5.15441 2.50724,-4.672175 4.4416,-6.747783 7.8408,-8.414109 1.51319,-0.741626 2.98487,-1.652941 3.27046,-2.024939 0.805,-1.048822 1.15346,-0.815577 1.41609,0.948478 0.27576,1.849896 0.19235,1.815162 2.54403,1.055171 l 1.76243,-0.569572 v 1.55845 c 0,0.857346 -0.18114,2.069259 -0.40212,2.69361 -0.29817,0.841911 -0.28634,1.176621 0.0498,1.295641 1.40047,0.50109 2.54932,2.45862 3.37262,5.7462 0.47557,1.89889 1.18701,4.065 1.58104,4.81317 0.71312,1.35427 0.71231,1.37008 -0.18487,3.45254 -0.49612,1.15066 -1.09234,2.59494 -1.32533,3.2094 -0.38968,1.02666 -0.59074,1.11686 -2.49006,1.11686 -1.97801,0 -2.9418,0.46437 -2.11003,1.01608 0.21538,0.14254 0.81688,1.16105 1.33659,2.26235 1.08736,2.30425 1.90991,2.68216 1.54233,0.70863 z M 89.448265,74.6022 c -0.873717,-0.99871 -0.876456,-1.02903 -0.1855,-2.0471 0.86824,-1.27958 0.940573,-1.28288 1.981241,-0.0946 l 0.844585,0.96534 -0.876706,1.09452 -0.876643,1.09426 z m 70.724495,-0.0249 c -0.85785,-0.98029 -0.86045,-1.01216 -0.16993,-2.0293 0.87334,-1.28711 0.93614,-1.28798 2.03483,-0.0311 l 0.89818,1.0266 -0.94574,1.01546 -0.94568,1.01539 -0.87142,-0.99585 z m -5.33251,-10.80575 c 0,-5.19662 0.2129,-6.17292 0.95054,-4.36654 0.35731,0.87465 0.56833,0.91375 4.91289,0.91375 4.41957,0 4.54269,-0.0249 4.66034,-0.91375 0.0667,-0.50296 0.27949,-0.91418 0.47309,-0.91418 0.1936,0 0.35171,1.37096 0.35171,3.0465 0,2.88639 -0.4345,4.00699 -0.86619,2.23422 -0.18426,-0.75545 -0.51604,-0.81253 -4.73168,-0.81253 -4.48611,0 -4.53628,0 -4.76467,0.98751 -0.37786,1.61603 0.37908,3.04301 2.0357,3.83947 1.88351,0.90559 1.59748,1.26601 -1.00426,1.26601 h -2.01753 z m -62.795917,2.42718 c 0,-0.22907 0.382826,-0.5733 0.851183,-0.76484 2.624514,-1.07403 3.791297,-4.28854 2.011368,-5.54066 -1.407559,-0.99044 -2.262789,-0.24339 -3.014312,2.63254 -0.390297,1.49303 -0.959124,2.68477 -1.462401,3.06312 -0.981407,0.73832 -3.251106,0.79323 -4.092953,0.099 -1.394424,-1.14954 -1.890544,-3.58401 -1.06706,-5.23627 0.298792,-0.59945 0.298792,-0.95221 0,-1.27304 -0.785823,-0.8439 -0.404615,-1.09382 1.667259,-1.09382 2.048531,0 2.764387,0.52475 1.366226,1.00095 -1.121216,0.3822 -2.690185,2.12989 -2.690185,2.99663 0,0.43263 0.308128,1.19573 0.685477,1.69571 1.137216,1.50803 2.220212,0.78402 2.934761,-1.96207 0.731106,-2.80976 1.952605,-4.13746 3.806547,-4.13746 2.718447,0 4.284615,3.13477 3.157111,6.31896 -0.26082,0.73714 -0.262065,1.25237 -0.0045,1.5872 0.211022,0.27265 0.271403,0.61564 0.133827,0.76292 -0.408348,0.43885 -4.28393,0.30377 -4.28393,-0.14939 z M 154.58323,54.32748 c -0.31871,-2.504936 0.006,-3.528049 0.69881,-2.199296 0.27575,0.528488 0.50918,0.563348 1.27185,0.191102 0.76142,-0.372867 0.93435,-0.750777 0.93435,-2.04355 0,-0.872286 -0.17617,-1.939721 -0.39155,-2.371911 -0.51727,-1.038054 -1.89166,-1.020872 -2.14682,0.0249 -0.26455,1.085487 -0.81072,1.031268 -1.02317,-0.100841 -0.7209,-3.843149 -0.64065,-4.118971 0.78129,-2.684584 0.5347,0.539071 2.7726,1.441671 5.88788,2.37409 3.16663,0.94798 5.06427,1.716373 5.13006,2.076978 0.0679,0.372867 -1.67865,1.526827 -5.01236,3.310615 -3.17329,1.698387 -5.11668,2.970557 -5.11668,3.349587 0,0.33614 -0.15563,0.61128 -0.34548,0.61128 -0.18986,0 -0.49052,-1.14239 -0.66836,-2.53855 z m 7.44447,-5.211741 c 0,-0.230321 -2.87837,-1.185833 -3.57212,-1.185833 -0.28509,0 -0.26954,2.644622 0.0187,2.952938 0.26394,0.283852 3.55464,-1.352283 3.55464,-1.767105 z M 95.191359,55.69296 c -0.113291,-0.46562 -2.103496,-1.93225 -5.071496,-3.736892 -2.686576,-1.633646 -4.884751,-3.182011 -4.884751,-3.44115 0,-0.399635 5.138973,-1.911834 9.773486,-2.875377 0.694069,-0.145043 1.350664,-0.510436 1.459039,-0.814083 0.108308,-0.303149 0.349212,-0.551521 0.534712,-0.551521 0.381583,0 0.377848,2.426317 -0.0062,4.265257 -0.253352,1.213967 -0.256464,1.215025 -0.726937,0.300659 -0.377224,-0.732165 -0.67944,-0.864132 -1.497445,-0.653544 -0.56397,0.145043 -1.048512,0.283852 -1.076959,0.308129 -0.03112,0.0249 -0.169938,0.989561 -0.314977,2.144828 -0.239656,1.913576 -0.187367,2.143957 0.593849,2.592824 0.74306,0.42703 0.949972,0.36914 1.553968,-0.431375 0.93248,-1.236563 1.081004,-0.950657 0.80512,1.550545 -0.233432,2.1165 -0.792608,2.77397 -1.141323,1.34176 z m -2.674686,-5.224815 c 0.09711,-0.837738 0.136326,-1.57756 0.08652,-1.644351 -0.0498,-0.06599 -1.000829,0.127609 -2.113392,0.429513 l -2.022884,0.550276 1.694213,1.090091 c 0.931795,0.599453 1.803209,1.091649 1.936482,1.093828 0.13321,0 0.321824,-0.681619 0.418931,-1.519419 z m 59.156567,-9.649113 c -1.75129,-2.832424 -1.83464,-3.615073 -0.27327,-2.568243 0.60444,0.40586 1.2037,0.133843 4.02317,-1.827921 1.82202,-1.267315 3.07465,-2.302504 2.78364,-2.300262 -0.29133,0 -2.44419,0.61688 -4.78485,1.365852 -2.60621,0.834251 -4.25313,1.18695 -4.24894,0.910257 0.005,-0.24837 1.34941,-2.097146 2.99046,-4.107829 1.64099,-2.010621 2.92829,-3.717347 2.86056,-3.792667 -0.0679,-0.07469 -1.4985,0.810784 -3.17957,1.968728 -2.39669,1.650701 -3.05658,2.310783 -3.05658,3.057638 0,1.574572 -0.60568,1.487798 -1.67026,-0.239033 -0.95756,-1.553656 -1.03245,-3.043632 -0.10276,-2.045543 0.71456,0.767273 1.45997,0.496743 4.58834,-1.664085 4.04463,-2.794202 4.23275,-2.985678 3.65932,-3.727679 -0.28945,-0.374112 -0.3212,-0.68473 -0.0859,-0.841098 0.35232,-0.233433 2.69187,2.987669 2.68826,3.701099 -4.4e-4,0.184255 -0.93722,1.459225 -2.0806,2.835473 -1.14337,1.376248 -2.0789,2.588846 -2.0789,2.694482 0,0.105191 1.39567,-0.243392 3.10146,-0.775864 1.70579,-0.532224 3.22172,-0.968398 3.36863,-0.968398 0.48927,0 2.27294,3.659829 2.00814,4.119845 -0.17555,0.305016 -0.37288,0.237166 -0.60506,-0.208532 -0.18924,-0.36353 -0.49426,-0.661389 -0.67658,-0.661389 -0.18239,0 -1.97457,1.134662 -3.98227,2.521617 -3.14808,2.174459 -3.62746,2.65097 -3.48305,3.462438 0.3019,1.694587 -0.36665,1.350478 -1.76311,-0.908513 z m -53.9546,0.474331 c 0,-0.809476 -0.570817,-1.228657 -3.877447,-2.848234 -2.132566,-1.044154 -4.028899,-1.896645 -4.214026,-1.89403 -0.184877,0 -0.542182,0.306884 -0.793417,0.67527 -0.251483,0.369132 -0.557123,0.496741 -0.679378,0.283852 -0.122009,-0.212889 0.447566,-1.901251 1.266256,-3.752267 0.818876,-1.851016 1.488855,-3.492069 1.488855,-3.646445 0,-0.153745 0.261442,-0.68137 0.580777,-1.171078 l 0.580777,-0.890711 1.688859,0.88125 c 0.92887,0.484291 1.688859,1.027284 1.688859,1.206247 0,0.179899 -0.638355,0.32805 -1.418576,0.331161 -1.61466,0 -1.964558,0.204175 -2.859129,1.60744 -0.97375,1.527761 -0.793603,2.000349 1.093641,2.869088 2.10555,0.969081 1.918308,0.972817 2.166118,-0.04357 0.128859,-0.530356 -0.07657,-1.144809 -0.554633,-1.658669 -1.212534,-1.301986 -0.532846,-1.343692 2.125843,-0.129476 2.733511,1.24758 3.131154,1.821137 1.208676,1.743388 -2.754863,-0.112042 -2.863236,1.198157 -0.209777,2.532637 1.882078,0.946734 1.943579,0.951528 2.45495,0.199816 1.043902,-1.53299 1.020812,-0.15562 -0.03735,2.221705 -1.143004,2.567744 -1.700189,3.053966 -1.700189,1.483191 z m 4.45013,-6.999948 c -0.13446,-0.145044 -0.0436,-0.60879 0.20293,-1.031643 0.39466,-0.678381 0.0635,-1.18166 -2.808267,-4.265069 -2.901519,-3.115404 -3.340931,-3.446565 -4.040414,-3.04469 -1.815224,1.043033 -0.954579,-0.449432 2.208632,-3.830264 l 3.378899,-3.611274 1.33037,1.384527 c 1.52969,1.592126 1.70174,2.255941 0.47932,1.849025 -2.29902,-0.765095 -2.59626,-0.731668 -3.71156,0.415195 -0.611278,0.629145 -1.111632,1.354275 -1.111632,1.611859 0,0.257085 0.575798,1.030584 1.279578,1.718116 0.942684,0.921213 1.390934,1.130928 1.702304,0.79653 0.52538,-0.56397 0.5509,-1.783353 0.0436,-2.119369 -0.53907,-0.357306 -0.46811,-1.015395 0.10894,-1.015395 0.67085,0 4.20624,3.911872 3.78687,4.190122 -0.18612,0.123259 -0.58513,0.05602 -0.88741,-0.149394 -0.7537,-0.511681 -2.15254,-0.480557 -2.46104,0.05602 -0.33116,0.575174 2.05375,3.214503 2.90413,3.214503 0.83481,0 2.22369,-1.87604 2.22064,-2.999748 -6.8e-4,-0.472464 -0.24526,-1.358631 -0.54156,-1.96935 -0.83637,-1.721415 -0.10956,-1.663897 1.51257,0.118276 l 1.46975,1.616464 -3.41133,3.662941 c -1.87629,2.014543 -3.52139,3.544917 -3.65578,3.400688 z m 40.70038,-5.383671 c -2.33157,-1.78908 -2.57035,-2.271754 -1.13335,-2.291051 0.93062,-0.0249 1.4177,-0.535336 3.49543,-3.749217 2.25321,-3.485658 2.72199,-4.998728 1.54881,-4.998728 -0.29009,0 -0.29444,-0.127609 -0.0123,-0.42889 0.28074,-0.301282 1.03071,0.03112 2.51894,1.116921 2.19556,1.601713 2.56071,2.437708 0.98265,2.249779 -0.76609,-0.09212 -1.29251,0.484292 -3.27706,3.58096 -2.35149,3.669913 -2.7083,4.578613 -1.98597,5.057802 0.44071,0.292566 0.51105,1.029462 0.0946,0.985764 -0.15625,-0.01867 -1.15963,-0.70185 -2.23018,-1.523154 z m -4.52252,-2.821158 c -0.22908,-0.162468 -1.06052,-2.399113 -1.84784,-4.968412 -2.03465,-6.639097 -2.10319,-6.745416 -2.75051,-4.265069 -1.39044,5.327461 -1.3999,5.41772 -0.66164,6.29368 0.98322,1.166532 0.59758,1.306841 -1.63594,0.59447 -1.79817,-0.573307 -2.65446,-1.404508 -1.44703,-1.404508 0.94207,0 1.75733,-1.468438 2.70749,-4.877281 1.12321,-4.029398 1.145,-4.421623 0.28323,-5.098015 -1.05231,-0.826345 -0.3461,-1.060834 1.55247,-0.515416 1.51488,0.435117 1.80614,0.695501 2.17254,1.942398 1.32358,4.50572 2.37962,7.332355 2.63248,7.046448 0.277,-0.313109 1.49146,-4.41876 1.49146,-5.04174 0,-0.166826 -0.27576,-0.599453 -0.61251,-0.960991 -0.91376,-0.981157 -0.37163,-1.199213 1.54729,-0.622483 1.70873,0.513548 2.38487,1.628105 0.98789,1.628105 -0.79677,0 -1.22001,0.997654 -2.9695,6.999452 -0.67589,2.31875 -1.17798,3.443763 -1.45019,3.249424 z M 116.25482,23.65524 c 0,-0.169316 0.32058,-0.523508 0.71224,-0.786196 0.67409,-0.451923 0.97506,-1.33448 3.05559,-8.958717 0.45441,-1.665455 1.01328,-2.945032 1.28611,-2.945032 0.26518,0 1.6169,2.467587 3.00342,5.48358 1.58329,3.4442 2.73457,5.483829 3.09524,5.483829 0.3156,0 0.57455,0.158111 0.57455,0.353571 0,0.420799 -4.51164,1.030085 -4.85979,0.656346 -0.13259,-0.142544 0.056,-0.436984 0.41831,-0.654416 0.60256,-0.362285 0.61003,-0.497365 0.0859,-1.585715 -0.54405,-1.129372 -0.66412,-1.176804 -2.36425,-0.932852 -0.9852,0.140677 -1.91638,0.457523 -2.06926,0.702285 -0.526,0.843278 -0.28821,1.943454 0.46686,2.155348 1.11157,0.312487 0.92252,0.792982 -0.42578,1.082437 -1.6055,0.344855 -2.97901,0.319956 -2.97901,-0.05602 z m 6.32543,-5.149804 c 0.18861,-0.158111 -1.50934,-3.478251 -1.77825,-3.478251 -0.1606,0 -0.39403,0.502967 -0.51853,1.117109 -0.12513,0.614391 -0.33988,1.54133 -0.47682,2.059797 -0.23841,0.900796 -0.18426,0.929803 1.22031,0.656845 0.80836,-0.15811 1.50735,-0.316844 1.55341,-0.355438 z"
         style="fill:#00006e;fill-opacity:1;stroke:none;stroke-width:0.03239528;stroke-miterlimit:4;stroke-dasharray:none;stroke-opacity:1" />
      <text
         transform="scale(1.0107416,0.98937255)"
         id="text7410-9-0"
         y="171.50542"
         x="88.162399"
         style="font-style:italic;font-variant:normal;font-weight:normal;font-stretch:normal;font-size:38.32577896px;line-height:1.25;font-family:'Brush Script MT';-inkscape-font-specification:'Brush Script MT, Italic';font-variant-ligatures:normal;font-variant-caps:normal;font-variant-numeric:normal;font-feature-settings:normal;text-align:start;letter-spacing:0px;word-spacing:0px;writing-mode:lr-tb;text-anchor:start;fill:#ff0000;fill-opacity:1;stroke:none;stroke-width:0;stroke-miterlimit:4;stroke-dasharray:none;stroke-opacity:1"
         xml:space="preserve"><tspan
           y="171.50542"
           x="88.162399"
           id="tspan2609"
           sodipodi:role="line">Here</tspan></text>
    </g>
    <text
       xml:space="preserve"
       style="font-style:normal;font-variant:normal;font-weight:normal;font-stretch:normal;font-size:52.10686493px;line-height:1.25;font-family:Saloon;-inkscape-font-specification:Saloon;letter-spacing:0px;word-spacing:0px;fill:#00c000;fill-opacity:1;stroke:#00c100;stroke-width:0;stroke-miterlimit:4;stroke-dasharray:none;stroke-opacity:1"
       x="239.66422"
       y="197.72011"
       id="text2664"><tspan
         sodipodi:role="line"
         id="tspan2662"
         x="239.66422"
         y="197.72011"
         style="fill:#00c000;fill-opacity:1;stroke:#00c100;stroke-width:0;stroke-miterlimit:4;stroke-dasharray:none;stroke-opacity:1">Guest</tspan></text>
    <text
       xml:space="preserve"
       style="font-style:normal;font-variant:normal;font-weight:normal;font-stretch:normal;font-size:52.10686493px;line-height:1.25;font-family:Saloon;-inkscape-font-specification:Saloon;letter-spacing:0px;word-spacing:0px;fill:#00c000;fill-opacity:1;stroke:#00c100;stroke-width:0;stroke-miterlimit:4;stroke-dasharray:none;stroke-opacity:1"
       x="258.81543"
       y="253.5094"
       id="text2668"><tspan
         sodipodi:role="line"
         id="tspan2666"
         x="258.81543"
         y="253.5094"
         style="fill:#00c000;fill-opacity:1;stroke:#00c100;stroke-width:0;stroke-miterlimit:4;stroke-dasharray:none;stroke-opacity:1">Book</tspan></text>
    <text
       xml:space="preserve"
       style="font-style:normal;font-variant:normal;font-weight:normal;font-stretch:normal;font-size:25.40000153px;line-height:1.25;font-family:'Arnold Boecklin';-inkscape-font-specification:'Arnold Boecklin';letter-spacing:0px;word-spacing:0px;fill:#000000;fill-opacity:1;stroke:none;stroke-width:0.26458335"
       x="279.63843"
       y="141.64532"
       id="text5690"><tspan
         sodipodi:role="line"
         id="tspan5688"
         x="279.63843"
         y="141.64532"
         style="stroke-width:0.26458335">Sign Our</tspan></text>
    <path
       style="fill:#e0e0e0;stroke:#3a3b39;stroke-width:0.15070595;stroke-miterlimit:4;stroke-dasharray:none;stroke-opacity:1;fill-opacity:1"
       d="m 305.88262,68.986889 0.0132,0.04967 -15.70651,4.605874 c -0.11983,0.03493 -0.23291,0.08225 -0.33918,0.13681 l -1.33834,0.35525 0.53448,2.01354 0.0451,-0.01199 0.91842,3.168629 -0.72312,0.41757 c -2.61515,0.764799 -1.13439,5.863778 1.48072,5.099033 l 0.72031,-0.416012 0.42529,1.468831 -0.86158,0.497013 c -2.61516,0.764804 -1.1343,5.864004 1.48073,5.099049 l 0.85876,-0.495471 0.43295,1.494191 -0.99963,0.577987 c -2.61438,0.766624 -1.1369,5.865723 1.47761,5.09905 l 1.17573,-0.679507 c 0.42054,0.413775 1.07635,0.591417 1.72973,0.399801 l 1.95275,-0.572289 3.72133,1.558413 c 2.65243,1.507039 4.41466,-0.05655 6.12645,-1.796212 l 2.30616,-3.32677 1.83685,-0.538405 c 0.92911,-0.272507 1.47913,-1.174397 1.23355,-2.021949 l -1.14814,-3.964177 0.50375,-0.290843 c 2.61445,-0.766486 1.13596,-5.866269 -1.47854,-5.099629 l -0.503,0.290643 -0.42935,-1.48063 0.64351,-0.371457 c 2.61488,-0.764731 1.13395,-5.862822 -1.48073,-5.099034 l -7.5e-4,2.01e-4 -0.64014,0.368941 -0.42508,-1.468073 0.78196,-0.450916 c 2.61513,-0.764796 1.13437,-5.863774 -1.48073,-5.099033 l -0.78889,0.455157 -0.12868,-0.484747 z"
       id="path5945"
       inkscape:connector-curvature="0" />
    <path
       style="font-style:normal;font-variant:normal;font-weight:normal;font-stretch:normal;font-size:medium;line-height:1.25;font-family:'OCR A Extended';-inkscape-font-specification:'OCR A Extended, Normal';font-variant-ligatures:normal;font-variant-caps:normal;font-variant-numeric:normal;font-feature-settings:normal;text-align:start;letter-spacing:0px;word-spacing:0px;writing-mode:lr-tb;text-anchor:start;fill:#ff0000;fill-opacity:1;stroke:#ff0000;stroke-width:0.56959724;stroke-miterlimit:4;stroke-dasharray:none;stroke-opacity:1"
       d="M 1059.4004 226.57031 C 1056.1139 226.64471 1052.7435 227.21667 1049.5059 228.21094 C 1053.5845 227.03348 1057.8524 226.53115 1061.875 226.83789 C 1073.3978 227.71665 1083.5882 234.6078 1092.0254 241.59766 C 1129.7578 272.857 1156.3648 315.22502 1177.5332 358.13086 C 1184.2277 371.69905 1190.7239 386.40782 1190.1387 401.63867 C 1189.611 415.36769 1182.4155 435.17731 1175.3516 451.55664 C 1168.2937 467.92213 1161.3711 480.85305 1161.3594 480.875 L 1161.9746 480.69531 C 1161.9746 480.69531 1168.9068 467.74853 1175.9707 451.36914 C 1183.0346 434.98981 1190.2301 415.17824 1190.7578 401.44922 C 1191.343 386.21837 1184.8469 371.51154 1178.1523 357.94336 C 1156.9839 315.03752 1130.377 272.66956 1092.6445 241.41016 C 1084.2073 234.4203 1074.0189 227.52909 1062.4961 226.65039 C 1061.4777 226.57269 1060.4433 226.54673 1059.4004 226.57031 z M 1049.5059 228.21094 C 1045.3234 229.41835 1041.3401 231.33491 1038.0293 233.83008 C 1028.7809 240.79994 1023.8704 252.12146 1020.4883 262.57617 C 1005.3619 309.3373 1005.548 359.45152 1010.6113 407.08008 C 1012.2124 422.14177 1015.4763 437.54409 1023.2188 450.58789 C 1031.8742 465.17045 1045.4657 476.9947 1059.6699 487.10156 C 1068.6528 493.49292 1089.8184 501.86133 1089.8184 501.86133 L 1161.3555 480.88281 L 1161.3555 480.87695 L 1090.4375 501.67383 C 1090.4375 501.67383 1069.2721 493.30544 1060.2891 486.91406 C 1046.0848 476.8072 1032.4935 464.98292 1023.8379 450.40039 C 1016.0957 437.35659 1012.8335 421.95404 1011.2324 406.89258 C 1006.1691 359.26397 1005.9811 309.14977 1021.1074 262.38867 C 1024.4895 251.9339 1029.4022 240.61264 1038.6504 233.64258 C 1041.7966 231.27142 1045.5514 229.42534 1049.5059 228.21094 z M 1122.9297 315.0957 C 1113.596 315.23345 1103.9614 323.50046 1107.0801 334.2793 C 1110.611 355.24758 1119.0943 375.74615 1119.0391 397.05469 C 1104.1974 388.51697 1112.974 358.44207 1091.4316 357.47656 C 1075.5407 357.033 1071.5886 377.16515 1078.9922 388.42969 C 1085.4359 418.65582 1068.3722 396.56513 1067.0703 378.10742 C 1060.1678 364.84572 1062.0463 331.80139 1038.6699 336.61133 C 1022.4932 341.21352 1026.8592 361.75406 1032.918 372.69727 C 1040.1123 400.08259 1049.4208 428.10118 1068.4785 449.57812 C 1083.0525 457.71717 1105.1617 446.96837 1104.8047 428.99805 C 1109.5119 429.47579 1118.1459 443.64513 1128.2812 439.45703 C 1140.8796 439.49373 1152.4352 429.60533 1149.6816 416.37695 C 1154.1828 384.24882 1143.2717 353.04946 1135.4727 322.37891 C 1132.6253 317.18253 1127.8187 315.02355 1122.9297 315.0957 z "
       transform="matrix(0.26458334,0,0,0.26458334,0,-58.600013)"
       id="path6415" />
    <path
       style="fill:#e0e0e0;stroke:#000000;stroke-width:0.15070595;stroke-miterlimit:4;stroke-dasharray:none;stroke-opacity:1;fill-opacity:1"
       d="m 343.02507,46.882039 v 0.05139 l -16.36246,0.422113 c -0.12479,0.003 -0.24623,0.01974 -0.36293,0.04521 h -1.38469 v 2.083268 h 0.0467 l 0.0747,3.298199 -0.80605,0.218072 c -2.72383,0.06827 -2.60081,5.37648 0.12298,5.308255 l 0.80293,-0.217288 0.0342,1.528776 -0.96026,0.259335 c -2.72384,0.06827 -2.60077,5.376721 0.12298,5.30827 l 0.95713,-0.258566 0.0351,1.555255 -1.11446,0.302181 c -2.72356,0.07023 -2.60373,5.377715 0.11996,5.307471 l 1.31071,-0.355123 c 0.30031,0.507818 0.88859,0.847766 1.56927,0.830193 l 2.03421,-0.05214 3.19696,2.460983 c 2.17701,2.137086 4.2814,1.077954 6.38221,-0.164315 l 3.08248,-2.62376 1.9135,-0.04913 c 0.96793,-0.02502 1.73092,-0.75561 1.71101,-1.637797 l -0.0927,-4.126057 0.56151,-0.151867 c 2.72359,-0.07008 2.60296,-5.378484 -0.12071,-5.30827 l -0.56073,0.151867 -0.0351,-1.541225 0.71727,-0.193928 c 2.72356,-0.06827 2.60015,-5.375666 -0.12298,-5.308255 h -7.9e-4 l -0.71337,0.192361 -0.0342,-1.527993 0.87147,-0.235206 c 2.72383,-0.06827 2.60081,-5.37648 -0.12298,-5.308256 l -0.87926,0.237528 v -0.501534 z"
       id="path5945-1"
       inkscape:connector-curvature="0" />
    <path
       style="font-style:normal;font-variant:normal;font-weight:normal;font-stretch:normal;font-size:medium;line-height:1.25;font-family:'OCR A Extended';-inkscape-font-specification:'OCR A Extended, Normal';font-variant-ligatures:normal;font-variant-caps:normal;font-variant-numeric:normal;font-feature-settings:normal;text-align:start;letter-spacing:0px;word-spacing:0px;writing-mode:lr-tb;text-anchor:start;fill:#00ff00;fill-opacity:1;stroke:#00ff00;stroke-width:0.576;stroke-miterlimit:4;stroke-dasharray:none;stroke-opacity:1"
       d="M 1265.9531 125.79102 C 1265.2569 125.7797 1264.5598 125.79559 1263.8633 125.82227 C 1268.1049 125.73157 1272.3572 126.34031 1276.1641 127.66797 C 1287.0758 131.47356 1295.1541 140.74745 1301.5156 149.66797 L 1301.5156 149.66992 C 1329.9654 189.56349 1344.8134 237.33765 1354.2656 284.23828 C 1357.255 299.06985 1359.7603 314.95251 1355.2871 329.52344 C 1351.2548 342.65755 1339.2172 359.9597 1328.1875 373.97852 C 1317.1682 387.98414 1307.1615 398.70436 1307.1426 398.72461 L 1307.7832 398.70898 C 1307.7832 398.70898 1317.8043 387.97395 1328.834 373.95508 C 1339.8637 359.93626 1351.9013 342.63607 1355.9336 329.50195 C 1360.4068 314.93103 1357.9016 299.04837 1354.9121 284.2168 C 1345.46 237.31616 1330.6138 189.54011 1302.1641 149.64648 C 1295.8026 140.72596 1287.7223 131.45007 1276.8105 127.64453 C 1273.4351 126.46729 1269.7109 125.85208 1265.9531 125.79102 z M 1307.1426 398.72461 L 1233.2578 400.63281 C 1233.2578 400.63281 1214.9488 387.11296 1207.9062 378.63086 C 1196.7704 365.2181 1186.6676 350.30337 1182.043 333.98828 C 1177.9064 319.39475 1178.7029 303.67123 1181.0195 288.70312 C 1188.3451 241.36965 1201.0218 192.88358 1227.6387 151.56836 C 1233.5898 142.3312 1241.2418 132.65119 1251.9688 128.28711 C 1255.6205 126.80147 1259.7267 125.98068 1263.8633 125.82227 C 1259.5084 125.91538 1255.1648 126.74539 1251.3223 128.30859 C 1240.5953 132.67245 1232.9413 142.35469 1226.9902 151.5918 C 1200.3733 192.90702 1187.6986 241.39315 1180.373 288.72656 C 1178.0563 303.6949 1177.2579 319.41818 1181.3945 334.01172 C 1186.019 350.3268 1196.122 365.24154 1207.2578 378.6543 C 1214.3003 387.13634 1232.6113 400.65625 1232.6113 400.65625 L 1307.1367 398.73242 C 1307.1367 398.73242 1307.1426 398.72463 1307.1426 398.72461 z M 1263.5684 176.15234 C 1261.5597 176.18175 1259.5703 176.28419 1257.6914 176.3125 C 1234.9116 176.77672 1236.8915 219.68724 1260.6836 215.83203 C 1280.6554 221.66454 1290.949 195.48538 1279.7617 181.70898 C 1275.7995 176.61922 1269.5944 176.06413 1263.5684 176.15234 z M 1259.7188 226.0918 C 1252.6176 226.13074 1245.4485 226.68445 1238.4355 226.28906 C 1220.4555 225.68261 1217.7991 254.70836 1235.666 257.2793 C 1252.2032 253.91338 1254.9674 262.81265 1252.3047 278.18164 C 1248.5416 292.17847 1262.8246 324.22081 1238.4805 317.63672 C 1221.0565 316.57476 1217.161 344.47053 1234.2617 348.13281 C 1257.0359 348.37716 1280.7303 350.50174 1303.2832 347.45508 C 1318.8034 341.82005 1313.2393 316.66039 1296.9414 317.63867 C 1272.7696 323.60543 1287.6492 290.52082 1283.5781 276.38672 C 1280.5753 261.00862 1292.0308 234.60703 1272.3789 226.89258 C 1268.2166 226.23059 1263.9794 226.06843 1259.7188 226.0918 z "
       transform="matrix(0.26458334,0,0,0.26458334,0,-58.600013)"
       id="path6402" />
    <path
       style="fill:#e0e0e0;stroke:#000000;stroke-width:0.15070595;stroke-miterlimit:4;stroke-dasharray:none;stroke-opacity:1;fill-opacity:1"
       d="m 367.95124,92.479668 -0.0259,0.0444 -14.35001,-7.873087 c -0.10934,-0.06022 -0.22269,-0.106906 -0.33634,-0.143656 l -1.1964,-0.697131 -1.04884,1.799986 0.0404,0.02352 -1.59592,2.887344 -0.80623,-0.217394 c -2.38782,-1.312345 -4.95398,3.335991 -2.56623,4.648352 l 0.80314,0.216501 -0.74011,1.338116 -0.96024,-0.259376 c -2.38783,-1.312352 -4.95408,3.336215 -2.56624,4.648366 l 0.95716,0.258469 -0.75266,1.361452 -1.11505,-0.29999 c -2.38857,-1.310518 -4.95713,3.33559 -2.56844,4.64616 l 1.31127,0.35305 c 0.004,0.58996 0.34095,1.17985 0.93791,1.50736 l 1.78386,0.97909 1.52323,3.73587 c 0.80505,2.94251 3.15652,3.08688 5.59709,3.0712 l 3.98427,-0.71508 1.67804,0.92091 c 0.8489,0.4657 1.87597,0.21858 2.30291,-0.55367 l 1.99721,-3.61166 0.56162,0.15149 c 2.38852,1.31066 4.95685,-3.33664 2.56819,-4.64723 l -0.56094,-0.15109 0.7456,-1.34933 0.71737,0.19356 c 2.38758,1.31221 4.95299,-3.33562 2.56622,-4.64835 l -6.9e-4,-4e-4 -0.71321,-0.192952 0.73973,-1.33744 0.87138,0.235526 c 2.38782,1.312346 4.95398,-3.335991 2.56623,-4.648352 l -0.87929,-0.237444 0.2525,-0.433335 z"
       id="path5945-7"
       inkscape:connector-curvature="0" />
    <path
       style="font-style:normal;font-variant:normal;font-weight:normal;font-stretch:normal;font-size:medium;line-height:1.25;font-family:'OCR A Extended';-inkscape-font-specification:'OCR A Extended, Normal';font-variant-ligatures:normal;font-variant-caps:normal;font-variant-numeric:normal;font-feature-settings:normal;text-align:start;letter-spacing:0px;word-spacing:0px;writing-mode:lr-tb;text-anchor:start;fill:#0000ff;fill-opacity:1;stroke:#0000ff;stroke-width:0.56959724;stroke-miterlimit:4;stroke-dasharray:none;stroke-opacity:1"
       d="m 1486.6641,316.16797 c -10.0133,-0.16016 -19.879,3.84132 -28.4473,8.20312 -43.7981,22.29666 -79.1605,57.80673 -109.3203,95.01563 -9.5377,11.76657 -18.1429,24.95084 -21.916,39.64258 -4.2183,16.4248 -2.9976,34.39845 -0.1289,51.59375 1.8144,10.87422 10.8281,31.77343 10.8281,31.77343 l 65.3594,35.85743 c 0,0 0.01,-0.002 0.01,-0.002 l -64.7949,-35.54883 c 0,10e-6 -9.0156,-20.8991 -10.8301,-31.77343 -2.869,-17.19533 -4.0873,-35.17082 0.1308,-51.59571 3.7732,-14.6917 12.3786,-27.87422 21.9161,-39.64062 30.1597,-37.20898 65.5223,-72.71888 109.3203,-95.01563 9.7923,-4.98497 21.2768,-9.49706 32.7421,-7.86718 3.9027,0.55479 7.8642,1.91211 11.5176,3.85742 -3.8093,-2.11176 -7.9812,-3.58023 -12.0879,-4.16406 -1.4331,-0.20377 -2.8664,-0.31306 -4.2968,-0.33594 z"
       transform="matrix(0.26458334,0,0,0.26458334,0,-58.600013)"
       id="path6393" />
    <path
       style="font-style:normal;font-variant:normal;font-weight:normal;font-stretch:normal;font-size:medium;line-height:1.25;font-family:'OCR A Extended';-inkscape-font-specification:'OCR A Extended, Normal';font-variant-ligatures:normal;font-variant-caps:normal;font-variant-numeric:normal;font-feature-settings:normal;text-align:start;letter-spacing:0px;word-spacing:0px;writing-mode:lr-tb;text-anchor:start;fill:#0000ff;fill-opacity:1;stroke:#0000ff;stroke-width:0.56959724;stroke-miterlimit:4;stroke-dasharray:none;stroke-opacity:1"
       d="m 1503.0488,320.66797 c 3.7109,2.05716 7.0782,4.72314 9.6992,7.78711 7.512,8.78169 9.8228,20.86319 10.8282,31.77344 v 0.002 c 4.4964,48.79207 -6.7283,97.54626 -22.1739,142.82812 -4.8841,14.31982 -10.7152,29.30313 -21.916,39.64063 -10.0964,9.31805 -29.2072,18.20606 -45.7949,24.76562 -16.5749,6.55446 -30.6226,10.78051 -30.6445,10.78711 l 0.5644,0.3086 c 0,0 14.0626,-4.22945 30.6504,-10.78907 16.5878,-6.55953 35.6985,-15.44757 45.7949,-24.76562 11.2008,-10.3375 17.032,-25.32273 21.9161,-39.64258 15.4456,-45.28183 26.6721,-94.03405 22.1757,-142.82617 v -0.002 c -1.0053,-10.91025 -3.318,-22.9918 -10.83,-31.77344 -2.7547,-3.22027 -6.3335,-5.99794 -10.2696,-8.09375 z"
       transform="matrix(0.26458334,0,0,0.26458334,0,-58.600013)"
       id="path6391" />
    <path
       style="font-style:normal;font-variant:normal;font-weight:normal;font-stretch:normal;font-size:medium;line-height:1.25;font-family:'OCR A Extended';-inkscape-font-specification:'OCR A Extended, Normal';font-variant-ligatures:normal;font-variant-caps:normal;font-variant-numeric:normal;font-feature-settings:normal;text-align:start;letter-spacing:0px;word-spacing:0px;writing-mode:lr-tb;text-anchor:start;fill:#0000ff;fill-opacity:1;stroke:#0000ff;stroke-width:0.56959724;stroke-miterlimit:4;stroke-dasharray:none;stroke-opacity:1"
       d="m 1419.0156,382.02734 c -12.6976,-0.15233 -22.792,18.42566 -10.5547,27.75977 12.8553,8.25017 26.4382,15.40723 39.5274,23.30469 -27.9499,8.61524 -58.4377,10.82213 -85.1973,22.50586 -11.1154,8.05576 -14.4304,28.25374 0.6133,33.9414 24.1934,12.06922 46.0057,30.39855 71.2891,39.6543 17.3753,1.84623 22.6432,-25.02014 6.2011,-30.42969 -6.7267,-7.68017 -49.2057,-20.50895 -29.6757,-24.4082 24.9123,-7.66024 51.9698,-10.08971 75.9082,-20.16211 10.9828,-8.06076 15.2753,-28.43381 0.07,-34.44922 -20.3288,-11.84199 -40.6516,-23.69275 -60.9844,-35.52734 -2.4047,-1.49061 -4.8459,-2.16125 -7.1973,-2.18946 z"
       transform="matrix(0.26458334,0,0,0.26458334,0,-58.600013)"
       id="path6386" />
  </g>
</svg>
