<?xml version="1.0" encoding="UTF-8" standalone="no"?>
<!-- Created with Inkscape (http://www.inkscape.org/) -->

<svg
   xmlns:dc="http://purl.org/dc/elements/1.1/"
   xmlns:cc="http://creativecommons.org/ns#"
   xmlns:rdf="http://www.w3.org/1999/02/22-rdf-syntax-ns#"
   xmlns:svg="http://www.w3.org/2000/svg"
   xmlns="http://www.w3.org/2000/svg"
   xmlns:sodipodi="http://sodipodi.sourceforge.net/DTD/sodipodi-0.dtd"
   xmlns:inkscape="http://www.inkscape.org/namespaces/inkscape"
   width="210mm"
   height="297mm"
   viewBox="0 0 210 297"
   version="1.1"
   id="svg8"
   inkscape:version="0.92.4 (5da689c313, 2019-01-14)"
   sodipodi:docname="SAFE Animal Shelter Logo.svg">
  <defs
     id="defs2" />
  <sodipodi:namedview
     id="base"
     pagecolor="#ffffff"
     bordercolor="#666666"
     borderopacity="1.0"
     inkscape:pageopacity="0.0"
     inkscape:pageshadow="2"
     inkscape:zoom="0.35"
     inkscape:cx="395.12953"
     inkscape:cy="560"
     inkscape:document-units="mm"
     inkscape:current-layer="layer1"
     showgrid="false"
     inkscape:window-width="1920"
     inkscape:window-height="1017"
     inkscape:window-x="-8"
     inkscape:window-y="-8"
     inkscape:window-maximized="1" />
  <metadata
     id="metadata5">
    <rdf:RDF>
      <cc:Work
         rdf:about="">
        <dc:format>image/svg+xml</dc:format>
        <dc:type
           rdf:resource="http://purl.org/dc/dcmitype/StillImage" />
        <dc:title></dc:title>
      </cc:Work>
    </rdf:RDF>
  </metadata>
  <g
     inkscape:label="Layer 1"
     inkscape:groupmode="layer"
     id="layer1">
    <path
       style="fill:#00006e;fill-opacity:1;stroke:#000000;stroke-width:0.06483842;stroke-miterlimit:4;stroke-dasharray:none;stroke-opacity:1"
       d="m 7.4500103,194.59644 0.2596975,-64.15326 1.9572593,-8.31084 C 17.646949,88.248033 34.203194,66.309893 63.974109,50.17172 89.19508,36.499977 122.63174,36.201934 147.1618,49.430204 c 32.46323,17.506369 50.52536,42.576839 56.56133,78.507856 1.40284,8.35079 1.49508,12.66081 1.49508,69.85577 v 60.95588 H 106.20427 7.1903192 Z M 196.7086,192.15251 c -0.26692,-54.6809 -0.36124,-58.01378 -1.8395,-65.00207 C 190.11409,104.67176 180.74588,86.740673 167.61792,74.990743 159.60451,67.818493 148.33309,60.04367 141.02213,56.64545 114.64719,44.386067 84.170197,46.863495 59.753934,63.251608 36.561851,78.818053 24.562055,96.385013 18.029678,124.33334 l -1.999272,8.55377 -0.266837,58.45075 -0.266831,58.45076 h 90.746612 90.74662 z M 29.918616,230.23715 c 0,-5.35372 0.854092,-6.17698 2.610102,-2.51587 1.489282,3.10499 4.696083,5.77445 6.936814,5.77445 1.762795,0 4.809516,-2.54344 4.809516,-4.01504 0,-1.57939 -2.508129,-3.34689 -6.544539,-4.61199 -5.244647,-1.6438 -7.056292,-3.52346 -7.056292,-7.32121 0,-5.83908 6.510026,-9.64528 11.53648,-6.745 1.211179,0.69885 1.686231,0.69885 1.9023,0 0.158388,-0.5123 0.769681,-0.93146 1.358417,-0.93146 0.793764,0 1.070438,1.15808 1.070438,4.48055 0,3.4396 -0.263316,4.48054 -1.133406,4.48054 -0.62337,0 -1.144214,-0.64153 -1.15743,-1.42563 -0.08497,-5.04086 -7.706341,-7.67753 -9.829416,-3.40054 -1.170937,2.35888 0.07306,3.67239 4.915403,5.19009 5.997732,1.87984 7.582646,3.59137 7.582646,8.18841 0,3.16273 -0.359431,4.14174 -2.120037,5.77448 -2.481611,2.3014 -7.551262,2.68248 -10.098268,0.75909 -1.411926,-1.06623 -1.70669,-1.06623 -2.527448,0 -1.687679,2.19242 -2.25528,1.26603 -2.25528,-3.68087 z m 18.88834,3.55725 c 0.0013,-0.50781 0.681741,-1.11502 1.512902,-1.34937 1.401504,-0.39513 1.511203,-1.11118 1.511203,-9.86384 0,-8.55551 -0.141269,-9.53289 -1.511203,-10.45528 -2.576857,-1.73503 -1.705853,-2.25488 3.778007,-2.25488 5.051336,0 6.993299,0.95881 3.778013,1.86533 -1.286005,0.36258 -1.511203,1.11118 -1.511203,5.02353 v 4.59747 l 4.296121,-0.24432 4.296127,-0.24431 -0.07163,-2.64759 c -0.03934,-1.45618 -0.102534,-3.4151 -0.140317,-4.35316 -0.03953,-0.98106 -0.710615,-1.88654 -1.579887,-2.13162 -3.215285,-0.90652 -1.273322,-1.86533 3.778007,-1.86533 4.965782,0 6.914665,1.00794 4.155814,2.14934 -0.923105,0.38191 -1.133399,2.34218 -1.133399,10.56481 0,8.43103 0.1869,10.0959 1.133399,10.0959 0.62337,0 1.133405,0.47395 1.133405,1.05324 0,0.77263 -1.326917,1.00597 -4.980582,0.87585 -5.237978,-0.18657 -7.017093,-0.86683 -4.283013,-1.63768 1.87642,-0.52904 2.187407,-1.64566 1.820393,-6.53622 l -0.264989,-3.53093 h -4.079723 -4.079724 v 4.55682 c 0,3.87169 0.227207,4.62087 1.511203,4.98287 3.042188,0.85772 1.379674,1.73837 -3.779713,2.00215 -3.58687,0.18339 -5.290368,-0.0269 -5.289209,-0.65278 z m 26.44764,-0.095 c 7.1e-5,-0.56007 0.680164,-1.01831 1.511325,-1.01831 1.430171,0 1.511203,-0.5431 1.511203,-10.12816 0,-9.4127 -0.106751,-10.1647 -1.511203,-10.64528 -3.799927,-1.30029 -0.794929,-2.03661 8.311621,-2.03661 h 9.822817 v 4.48055 c 0,4.59242 -1.120227,6.03635 -1.942562,2.50389 -0.866523,-3.72228 -4.915422,-5.91068 -8.339148,-4.50727 -1.534308,0.62893 -1.807917,1.29165 -1.807917,4.37907 0,2.00089 0.309338,3.8441 0.687419,4.09603 1.223939,0.81554 3.09192,-0.4913 3.556826,-2.48835 0.249262,-1.07072 0.926362,-1.94676 1.504688,-1.94676 0.798103,0 1.051485,1.37415 1.051485,5.70251 0,6.24492 -1.239119,7.69157 -2.791117,3.25858 -0.582974,-1.66517 -1.370101,-2.44394 -2.470165,-2.44394 -1.488079,0 -1.596799,0.36693 -1.38794,4.68421 l 0.226608,4.68421 2.891262,0.25655 c 3.638347,0.32284 6.264549,-1.46293 6.925935,-4.7095 0.84356,-4.14079 1.985881,-2.7886 1.74343,2.06373 l -0.226601,4.53528 -9.634044,0.14893 c -7.277228,0.11251 -9.634012,-0.10017 -9.633922,-0.86936 z m 22.667396,0 c 4.31e-4,-0.56007 0.680815,-1.01831 1.511982,-1.01831 1.430176,0 1.511206,-0.5431 1.511206,-10.12816 0,-9.4127 -0.10675,-10.1647 -1.511206,-10.64528 -3.197531,-1.09416 -1.274398,-2.03661 4.155806,-2.03661 5.44547,0 7.35181,0.94297 4.13302,2.04441 -1.44688,0.4951 -1.52196,1.08807 -1.3223,10.44161 l 0.21169,9.91671 2.42079,0.25247 c 3.283,0.34238 5.42962,-1.06024 6.72054,-4.39127 0.59377,-1.53212 1.41503,-2.78568 1.82503,-2.78568 0.80775,0 0.85718,4.0556 0.0894,7.3318 l -0.47731,2.03661 h -9.63469 c -7.20444,0 -9.634514,-0.25686 -9.633928,-1.0183 z m 22.668458,0.095 c 2e-4,-0.50781 0.68041,-1.11502 1.51157,-1.34937 1.40612,-0.39643 1.51121,-1.11118 1.51121,-10.27806 0,-9.18728 -0.0983,-9.85201 -1.45723,-9.85201 -1.9595,0 -3.81084,2.12628 -4.34134,4.98607 -0.74747,4.02937 -1.75745,2.56844 -1.75745,-2.54213 v -4.88787 h 9.72548 9.72547 l 0.50445,4.0999 c 0.69558,5.65323 -0.19984,6.63614 -2.11874,2.32573 -1.23897,-2.7831 -2.05646,-3.63199 -3.69281,-3.83461 l -2.10158,-0.26023 0.21258,10.03596 c 0.20725,9.78401 0.25636,10.04266 1.95623,10.30245 0.959,0.14656 1.62802,0.64045 1.48671,1.09753 -0.36658,1.18565 -11.16502,1.33716 -11.16455,0.15664 z m 18.13571,-0.0384 c -5e-4,-0.52891 0.76415,-1.0788 1.6992,-1.22197 1.65521,-0.25345 1.70011,-0.51848 1.70011,-10.03606 0,-9.35644 -0.0729,-9.81023 -1.70011,-10.5799 -3.35508,-1.58696 -1.54918,-2.04707 8.0346,-2.04707 9.45651,0 9.74772,0.0524 10.1903,1.83295 1.30199,5.23797 -0.39127,9.36202 -1.91236,4.65768 -1.04948,-3.24582 -4.88212,-5.24769 -7.77588,-4.06152 -1.71059,0.70119 -1.92514,1.24533 -1.92514,4.88253 0,4.84996 1.56153,5.56285 3.62425,1.6546 0.70794,-1.34133 1.54218,-2.4411 1.85386,-2.44394 0.31169,-0.003 0.56671,2.56099 0.56671,5.69737 0,3.13638 -0.25502,5.70019 -0.56671,5.69736 -0.31168,-0.003 -1.14592,-1.10261 -1.85386,-2.44393 -0.70794,-1.34134 -1.82997,-2.43879 -2.49341,-2.43879 -0.99103,0 -1.16582,0.8358 -0.97964,4.68421 l 0.2266,4.6842 2.90762,0.25761 c 3.28728,0.29123 5.12006,-1.049 6.56003,-4.79704 1.26127,-3.28291 2.24621,-2.98755 2.23386,0.66988 -0.0221,6.52311 0.33009,6.31349 -10.60534,6.31349 -7.01535,0 -9.78405,-0.27211 -9.78469,-0.96165 z m 22.98199,0.6222 c -0.76659,-0.82648 -0.18245,-1.60412 1.38527,-1.84417 1.63876,-0.25093 1.70779,-0.60589 1.91303,-9.83806 0.21238,-9.55336 0.20805,-9.58013 -1.70011,-10.51749 -3.80608,-1.86967 -1.92596,-2.48379 6.70035,-2.18855 9.86192,0.33752 11.78787,1.32746 11.78787,6.05896 0,2.85664 -1.31621,4.79204 -3.84815,5.65844 -1.54722,0.52944 -1.54886,0.55584 -0.10276,1.64788 0.8083,0.61039 1.9021,2.77511 2.43068,4.81049 1.06993,4.12004 1.30976,4.32242 2.69746,2.27634 0.53131,-0.78339 1.22606,-1.14398 1.5439,-0.80131 0.89653,0.96659 -2.29329,5.04473 -4.18155,5.34604 -2.50997,0.4005 -4.3464,-1.90918 -4.7746,-6.00503 -0.4522,-4.32536 -1.62163,-6.07643 -4.05812,-6.07643 -1.67747,0 -1.79649,0.30189 -1.79649,4.55681 0,3.8717 0.22721,4.62087 1.51121,4.98288 0.83116,0.23435 1.5112,0.84155 1.5112,1.34936 0,0.87095 -10.24922,1.41401 -11.01919,0.58386 z m 14.04159,-14.73147 c 3.05162,-3.29007 1.37084,-7.3318 -3.04898,-7.3318 h -2.99583 v 4.48054 c 0,4.43529 0.0229,4.48055 2.26681,4.48055 1.25934,0 2.93845,-0.72413 3.778,-1.62929 z m -119.965084,-54.77917 0.27482,-30.35119 1.995345,-5.90224 c 1.097444,-3.24623 3.121231,-8.19044 4.497306,-10.98712 3.014699,-6.12694 12.150641,-16.18502 18.236241,-20.076917 16.153694,-10.33071 37.009082,-10.33071 53.157422,0 2.36527,1.51316 7.05926,5.683917 10.43108,9.268357 4.8864,5.19453 6.76709,7.92244 9.26697,13.44164 5.06371,11.1796 5.55653,15.56155 5.31386,47.24939 l -0.20899,27.29059 -51.61943,0.20933 -51.619437,0.20933 z m 54.691014,24.48712 c -0.26467,-1.42678 -1.03991,-3.25973 -1.72276,-4.07323 -1.17984,-1.40559 -1.09136,-1.47909 1.78087,-1.47909 1.92952,0 3.44502,-0.51549 4.19115,-1.42562 1.23122,-1.50186 5.11029,-11.4561 5.11029,-13.11375 0,-0.6644 0.6545,-0.77577 2.0779,-0.35355 4.01062,1.18965 21.43797,-0.54246 24.87317,-2.47214 3.53857,-1.98772 6.73994,-9.66863 6.37905,-15.30493 -0.09,-1.40542 -12.44658,-7.97903 -21.4294,-11.40029 -3.17817,-1.21045 -5.1003,-2.39553 -5.1003,-3.14454 0,-0.66112 -0.53124,-2.70173 -1.18052,-4.53471 -1.05807,-2.98699 -1.9573,-3.79257 -8.66932,-7.76635 -6.03085,-3.57052 -7.49271,-4.79245 -7.50889,-6.27647 -0.0205,-1.87726 -4.31062,-20.291437 -5.01294,-21.516617 -0.92782,-1.61854 -1.60739,-0.31558 -2.47102,4.737727 -0.50856,2.9757 -1.69064,6.96171 -2.626856,8.8578 l -1.702203,3.44745 -2.441878,-5.80288 c -2.687908,-6.38757 -6.455202,-11.873457 -7.430632,-10.820407 -0.343665,0.37101 -0.636794,6.234107 -0.651388,13.029107 -0.02112,9.82043 -0.278502,12.85583 -1.254853,14.79847 -1.586144,3.15596 -4.643519,6.16688 -8.997115,8.8604 -1.912955,1.18351 -4.03072,2.8102 -4.706126,3.61484 -0.675413,0.80464 -2.589276,6.02527 -4.25303,11.60141 -2.932322,9.82781 -3.733786,11.65602 -7.448735,16.99132 -1.588771,2.28173 -1.623882,2.51524 -0.377804,2.51248 2.258184,-0.005 6.100954,-2.98613 8.340217,-6.47012 1.155419,-1.79768 3.800864,-6.44943 5.878766,-10.33722 5.008106,-9.37025 8.871754,-13.53326 15.661422,-16.87487 3.022489,-1.48756 5.962085,-3.31508 6.532448,-4.06117 1.607994,-2.1034 2.303962,-1.63541 2.82863,1.90206 0.550257,3.71002 0.383688,3.64065 5.081487,2.11634 l 3.52029,-1.14224 v 3.12582 c 0,1.7192 -0.36124,4.15018 -0.80274,5.40218 -0.59547,1.68859 -0.57136,2.35952 0.0934,2.59842 2.79725,1.00527 5.09199,4.93092 6.73645,11.52418 0.9499,3.80846 2.37101,8.15233 3.15804,9.65305 1.42443,2.71614 1.42275,2.74764 -0.37002,6.92447 -0.99052,2.30776 -2.18178,5.20403 -2.64723,6.43619 -0.77786,2.05915 -1.17995,2.24027 -4.97369,2.24027 -3.95082,0 -5.87598,0.93092 -4.21456,2.03797 0.43026,0.28669 1.6316,2.32827 2.66966,4.53683 2.17198,4.62113 3.81496,5.37918 3.08078,1.42144 z m -75.16414,-2.58204 c -1.745078,-2.0027 -1.750576,-2.0636 -0.370825,-4.10526 1.734257,-2.56623 1.878835,-2.57308 3.957452,-0.1876 l 1.686952,1.93599 -1.751111,2.19486 -1.75111,2.19487 z m 141.26669,-0.0353 c -1.71337,-1.96631 -1.71867,-2.02981 -0.34,-4.06987 1.74449,-2.58136 1.86988,-2.58336 4.06452,-0.0648 l 1.79401,2.05886 -1.88901,2.0366 -1.889,2.03661 -1.74052,-1.99746 z M 165.92693,165.0656 c 0,-10.42173 0.42458,-12.38005 1.89872,-8.75742 0.71389,1.75433 1.13479,1.83295 9.8131,1.83295 8.82777,0 9.0736,-0.0484 9.30868,-1.83295 0.13279,-1.00812 0.55782,-1.83295 0.94449,-1.83295 0.38668,0 0.70305,2.74942 0.70305,6.10983 0,5.78874 -0.86775,8.03598 -1.73013,4.48054 -0.36746,-1.51495 -1.03065,-1.62929 -9.45124,-1.62929 -8.96067,0 -9.0609,0.0208 -9.517,1.98008 -0.7545,3.2411 0.75676,6.10318 4.06618,7.70062 3.76208,1.81595 3.19084,2.53898 -2.00598,2.53898 h -4.02987 z m -125.429895,4.86771 c 0,-0.45914 0.765051,-1.14923 1.700104,-1.53352 5.242246,-2.15448 7.572874,-8.60088 4.01758,-11.11243 -2.811493,-1.98611 -4.519709,-0.48816 -6.020791,5.27968 -0.779241,2.99422 -1.915736,5.3845 -2.921115,6.14372 -1.960214,1.48027 -6.493828,1.59034 -8.175276,0.1985 -2.785292,-2.30558 -3.776211,-7.18818 -2.131329,-10.50183 0.597066,-1.2028 0.597066,-1.90958 0,-2.5533 -1.569734,-1.6924 -0.808886,-2.19355 3.330205,-2.19355 4.091698,0 5.521669,1.05211 2.728852,2.00778 -2.239521,0.76635 -5.373453,4.27124 -5.373453,6.00952 0,0.86787 0.616141,2.3983 1.369206,3.40097 2.271568,3.02448 4.434712,1.57231 5.862024,-3.93533 1.460326,-5.635 3.900098,-8.29758 7.60326,-8.29758 5.429867,0 8.558179,6.2868 6.306111,12.67305 -0.521307,1.47827 -0.523431,2.51143 -0.0066,3.1829 0.420911,0.54679 0.54156,1.23538 0.268111,1.5302 -0.816244,0.88004 -8.556911,0.60976 -8.556911,-0.29878 z M 165.41361,146.12509 c -0.63666,-5.02374 0.0126,-7.07554 1.3958,-4.41083 0.55042,1.06038 1.01656,1.13045 2.54041,0.38189 1.52093,-0.74713 1.86632,-1.50557 1.86632,-4.09817 0,-1.74975 -0.35199,-3.89045 -0.78219,-4.7571 -1.03348,-2.08197 -3.77843,-2.04768 -4.28809,0.0535 -0.52796,2.1767 -1.6194,2.06794 -2.04377,-0.20366 -1.43993,-7.70783 -1.27969,-8.26064 1.56057,-5.38385 1.06751,1.08124 5.53802,2.89117 11.76052,4.76137 6.32521,1.90107 10.11553,3.44182 10.24693,4.16532 0.13586,0.7481 -3.35299,3.06193 -10.01172,6.63982 -6.33844,3.40583 -10.22026,5.95719 -10.22026,6.71742 0,0.67419 -0.31034,1.2258 -0.68964,1.2258 -0.37929,0 -0.97999,-2.29118 -1.33488,-5.09152 z m 14.86975,-10.45234 c 0,-0.46192 -5.74925,-2.37832 -7.13501,-2.37832 -0.5698,0 -0.53851,5.30429 0.0349,5.92254 0.52754,0.56873 7.1001,-2.71217 7.1001,-3.54422 z M 46.782963,148.8641 c -0.226652,-0.93442 -4.201518,-3.87523 -10.129889,-7.49461 -5.366276,-3.27621 -9.756863,-6.3818 -9.756863,-6.90132 0,-0.80186 10.264631,-3.83417 19.521682,-5.76698 1.386356,-0.28946 2.69781,-1.02405 2.914349,-1.63243 0.216532,-0.60837 0.69734,-1.10613 1.068461,-1.10613 0.762091,0 0.75488,4.86578 -0.01268,8.55377 -0.506745,2.43479 -0.512178,2.43705 -1.452034,0.60365 -0.752775,-1.46845 -1.357141,-1.73336 -2.991066,-1.31103 -1.126221,0.29109 -2.094235,0.56934 -2.151138,0.61833 -0.05691,0.049 -0.340111,1.98449 -0.629338,4.30113 -0.479172,3.83798 -0.373819,4.29982 1.186233,5.19998 1.484093,0.85633 1.897479,0.74109 3.103939,-0.86525 1.862554,-2.47989 2.159127,-1.90635 1.608097,3.10983 -0.466278,4.24458 -1.583164,5.56298 -2.279757,2.69106 z M 41.44054,138.38597 c 0.194277,-1.68021 0.271897,-3.1641 0.172486,-3.29752 -0.09941,-0.13343 -1.998989,0.25406 -4.221289,0.86109 l -4.040543,1.10368 3.384018,2.18612 c 1.861215,1.20237 3.601839,2.1896 3.868058,2.19383 0.266219,0.004 0.642986,-1.36701 0.83727,-3.0472 z m 118.16061,-19.35174 c -3.4981,-5.68021 -3.66463,-7.25007 -0.54636,-5.15051 1.20768,0.81315 2.40426,0.26728 8.03596,-3.6659 3.63934,-2.54171 6.14138,-4.61785 5.56008,-4.61362 -0.58129,0.004 -4.88212,1.23698 -9.55741,2.73946 -5.20565,1.67292 -8.49525,2.38041 -8.48692,1.82527 0.008,-0.49858 2.69544,-4.20583 5.97325,-8.23832 3.27781,-4.032487 5.84902,-7.455247 5.71379,-7.606137 -0.13522,-0.15088 -2.99319,1.62572 -6.35105,3.94801 -4.78711,3.310747 -6.10519,4.634717 -6.10519,6.132427 0,3.15794 -1.21031,2.98395 -3.33625,-0.47958 -1.91261,-3.11601 -2.06221,-6.104247 -0.20536,-4.102307 1.42729,1.538817 2.91621,0.996597 9.16483,-3.33754 8.07886,-5.60365 8.4546,-5.98794 7.30931,-7.47577 -0.5782,-0.75112 -0.64129,-1.37357 -0.17099,-1.68694 0.70336,-0.46867 5.37678,5.99187 5.3695,7.42282 -0.001,0.36733 -1.87198,2.92618 -4.15581,5.686337 -2.28382,2.76016 -4.15241,5.19197 -4.15241,5.40401 0,0.21205 2.78771,-0.48826 6.19491,-1.55623 3.40719,-1.06798 6.43507,-1.94177 6.72861,-1.94177 0.97687,0 4.53994,7.33976 4.01101,8.26246 -0.35069,0.61177 -0.74499,0.47521 -1.209,-0.41872 -0.37872,-0.72962 -0.98685,-1.32659 -1.35138,-1.32659 -0.36454,0 -3.94399,2.27572 -7.95435,5.05715 -6.28793,4.36109 -7.2455,5.31686 -6.95701,6.94393 0.60265,3.39884 -0.73171,2.70853 -3.52176,-1.82194 z m -107.770089,0.95172 c 0,-1.62333 -1.139772,-2.46392 -7.744915,-5.71194 -4.259703,-2.09467 -8.047456,-3.80425 -8.417219,-3.79906 -0.36977,0.005 -1.082914,0.61485 -1.584767,1.35481 -0.501858,0.73996 -1.112527,0.99638 -1.357045,0.56982 -0.244517,-0.42656 0.893652,-3.81305 2.52927,-7.52555 1.635618,-3.7125 2.973846,-7.003367 2.973846,-7.313037 0,-0.30967 0.522111,-1.3667 1.160237,-2.34895 l 1.160238,-1.78591 3.373377,1.76698 c 1.85535,0.97184 3.37337,2.06052 3.37337,2.41929 0,0.35877 -1.27508,0.65793 -2.833503,0.66479 -3.225117,0.0142 -3.924034,0.40873 -5.710816,3.223697 -1.944982,3.06422 -1.585268,4.01175 2.18435,5.75387 4.205735,1.94366 3.831761,1.95138 4.326764,-0.0894 0.258011,-1.06374 -0.152567,-2.29612 -1.108247,-3.32647 -2.421985,-2.61124 -1.064244,-2.69489 4.246145,-0.26158 5.459996,2.50185 6.254242,3.65215 2.414234,3.49651 -5.502587,-0.22303 -5.718991,2.40265 -0.418612,5.0792 3.759311,1.89836 3.882168,1.90844 4.903602,0.40239 2.085016,-3.07424 2.038935,-0.31128 -0.0743,4.45562 -2.283065,5.14999 -3.396005,6.12493 -3.396005,2.97493 z m 8.888756,-14.03875 c -0.268504,-0.28949 -0.08609,-1.22052 0.405364,-2.06896 0.788118,-1.36058 0.126173,-2.36997 -5.609267,-8.553577 -5.795536,-6.24841 -6.673325,-6.91259 -8.070394,-6.10648 -3.625754,2.09208 -1.906761,-0.90113 4.411504,-7.68154 l 6.749084,-7.24275 2.657291,2.7768 c 3.055482,3.19291 3.399166,4.52441 0.957185,3.70841 -4.592056,-1.53448 -5.185794,-1.46774 -7.413476,0.83329 -1.221241,1.26145 -2.220446,2.71594 -2.220446,3.2322 0,0.51626 1.15015,2.06706 2.55589,3.44621 1.882968,1.84735 2.778191,2.26788 3.400209,1.59725 1.048756,-1.1307 1.099807,-3.57661 0.08872,-4.25033 -1.076174,-0.71709 -0.935387,-2.03661 0.217306,-2.03661 1.339978,0 8.401613,7.84552 7.563989,8.40365 -0.371372,0.24746 -1.169031,0.11315 -1.772561,-0.29848 -1.505357,-1.02672 -4.299507,-0.96324 -4.915686,0.11167 -0.660987,1.15307 4.102242,6.44676 5.80075,6.44676 1.667446,0 4.441668,-3.76271 4.435578,-6.01603 -0.0019,-0.9477 -0.489447,-2.72501 -1.081955,-3.94957 -1.670533,-3.45252 -0.218754,-3.33709 3.021214,0.24021 l 2.935779,3.24145 -6.813941,7.34639 c -3.747665,4.040507 -7.033624,7.109527 -7.302135,6.820037 z M 142.01565,95.149923 c -4.65709,-3.58765 -5.13405,-4.55572 -2.26386,-4.59487 1.85895,-0.0253 2.83185,-1.07312 6.98189,-7.51915 4.50064,-6.99061 5.43707,-10.02517 3.09364,-10.02517 -0.57996,0 -0.58821,-0.25624 -0.0277,-0.86057 0.56052,-0.60432 2.05867,0.0628 5.03138,2.24028 4.38544,3.21236 5.11483,4.88911 1.96276,4.51203 -1.53024,-0.18306 -2.58165,0.97056 -6.54559,7.18181 -4.69708,7.36004 -5.40975,9.18242 -3.96691,10.14382 0.8797,0.58617 1.02099,2.06465 0.1889,1.97674 -0.31168,-0.0329 -2.31622,-1.40765 -4.45453,-3.05492 z m -9.0334,-5.6576 c -0.45738,-0.32781 -2.1183,-4.81181 -3.69093,-9.96444 -4.06398,-13.31535 -4.20088,-13.52849 -5.49396,-8.55376 -2.7772,10.68439 -2.79615,10.86546 -1.32148,12.62229 1.96383,2.33956 1.19339,2.62068 -3.26777,1.19234 -3.59164,-1.14995 -5.30199,-2.81693 -2.89021,-2.81693 1.88171,0 3.51005,-2.94528 5.408,-9.78178 2.24347,-8.081059 2.28702,-8.86765 0.56621,-10.224262 -2.10192,-1.657065 -0.69106,-2.127571 3.10093,-1.034119 3.02582,0.872521 3.6076,1.394835 4.33934,3.895747 2.64383,9.036094 4.75324,14.705334 5.25818,14.131774 0.55325,-0.62845 2.9791,-8.862 2.9791,-10.11135 0,-0.33472 -0.55051,-1.20212 -1.22336,-1.92754 -1.8251,-1.967719 -0.74227,-2.404926 3.09069,-1.247906 3.41303,1.030256 4.76359,3.265116 1.97317,3.265116 -1.59143,0 -2.43679,2.00072 -5.93127,14.03766 -1.35011,4.65056 -2.35294,6.90684 -2.89664,6.51716 z m -44.126701,-4.88061 c 0,-0.34027 0.64025,-1.04977 1.422774,-1.57665 1.346333,-0.9065 1.947487,-2.67623 6.103252,-17.967119 0.907783,-3.340122 2.023896,-5.906174 2.56892,-5.906174 0.530049,0 3.229645,4.948967 5.999095,10.997703 3.16249,6.90717 5.46203,10.9977 6.18249,10.9977 0.63092,0 1.14713,0.31924 1.14713,0.70942 0,0.84401 -9.01168,2.06595 -9.70706,1.31624 -0.26454,-0.28521 0.11122,-0.87588 0.83502,-1.31259 1.20372,-0.72627 1.21836,-0.99759 0.17147,-3.18024 -1.08628,-2.26477 -1.32666,-2.36 -4.722509,-1.87087 -1.967882,0.28345 -3.827777,0.91723 -4.133099,1.4084 -1.051285,1.69119 -0.575094,3.89772 0.932929,4.32289 2.220227,0.62597 1.842648,1.5902 -0.850049,2.17082 -3.206853,0.69149 -5.950363,0.64099 -5.950363,-0.10953 z m 12.634591,-10.32788 c 0.37651,-0.31542 -3.014762,-6.97562 -3.55188,-6.97562 -0.320212,0 -0.786521,1.00813 -1.03626,2.24028 -0.249732,1.23215 -0.678194,3.091 -0.952138,4.13078 -0.476057,1.80695 -0.368308,1.86519 2.437519,1.31756 1.614569,-0.31513 3.010819,-0.63597 3.102759,-0.713 z"
       id="path828"
       inkscape:connector-curvature="0" />
  </g>
</svg>
