<?xml version="1.0" encoding="UTF-8" standalone="no"?>
<!-- Created with Inkscape (http://www.inkscape.org/) -->

<svg
   xmlns:dc="http://purl.org/dc/elements/1.1/"
   xmlns:cc="http://creativecommons.org/ns#"
   xmlns:rdf="http://www.w3.org/1999/02/22-rdf-syntax-ns#"
   xmlns:svg="http://www.w3.org/2000/svg"
   xmlns="http://www.w3.org/2000/svg"
   xmlns:sodipodi="http://sodipodi.sourceforge.net/DTD/sodipodi-0.dtd"
   xmlns:inkscape="http://www.inkscape.org/namespaces/inkscape"
   version="1.1"
   width="320.0076"
   height="83.890434"
   id="svg5276"
   inkscape:version="0.92.4 (5da689c313, 2019-01-14)"
   sodipodi:docname="The Shire Direction Sign for Lamp Post.svg"
   inkscape:export-filename="C:\Users\Klemen\Downloads\The Chronicles of Narnia logo.png"
   inkscape:export-xdpi="1500.2426"
   inkscape:export-ydpi="1500.2426"
   viewBox="0 0 300.00711 78.647285">
  <sodipodi:namedview
     pagecolor="#ffffff"
     bordercolor="#666666"
     borderopacity="1"
     objecttolerance="10"
     gridtolerance="10"
     guidetolerance="10"
     inkscape:pageopacity="0"
     inkscape:pageshadow="2"
     inkscape:window-width="1920"
     inkscape:window-height="1017"
     id="namedview67"
     showgrid="false"
     inkscape:zoom="3.3010623"
     inkscape:cx="168.21716"
     inkscape:cy="8.4583171"
     inkscape:window-x="-8"
     inkscape:window-y="-8"
     inkscape:window-maximized="1"
     inkscape:current-layer="svg5276"
     fit-margin-top="0"
     fit-margin-left="0"
     fit-margin-right="0"
     fit-margin-bottom="0" />
  <defs
     id="defs5278">
    <clipPath
       id="clipPath3717">
      <path
         d="m 427.26,426.42 h 71.64 v 24 h -71.64 z"
         id="path3719"
         inkscape:connector-curvature="0" />
    </clipPath>
    <clipPath
       id="clipPath3733">
      <path
         d="m 427.264,426.42 h 71.589 v 23.968 h -71.589 z"
         id="path3735"
         inkscape:connector-curvature="0" />
    </clipPath>
    <clipPath
       id="clipPath3745">
      <path
         d="m 427.26,426.42 h 71.64 v 24 h -71.64 z"
         id="path3747"
         inkscape:connector-curvature="0" />
    </clipPath>
    <clipPath
       id="clipPath3773">
      <path
         d="m 427.264,426.42 h 71.589 v 23.968 h -71.589 z"
         id="path3775"
         inkscape:connector-curvature="0" />
    </clipPath>
    <clipPath
       id="clipPath3789">
      <path
         d="m 427.26,426.42 h 71.64 v 24 h -71.64 z"
         id="path3791"
         inkscape:connector-curvature="0" />
    </clipPath>
  </defs>
  <metadata
     id="metadata5281">
    <rdf:RDF>
      <cc:Work
         rdf:about="">
        <dc:format>image/svg+xml</dc:format>
        <dc:type
           rdf:resource="http://purl.org/dc/dcmitype/StillImage" />
        <dc:title />
      </cc:Work>
    </rdf:RDF>
  </metadata>
  <g
     id="text831"
     style="font-style:normal;font-variant:normal;font-weight:normal;font-stretch:normal;font-size:37.52365494px;line-height:1.25;font-family:American-Uncial-Normal;-inkscape-font-specification:American-Uncial-Normal;letter-spacing:0px;word-spacing:0px;fill:#007600;fill-opacity:1;stroke:none;stroke-width:0.58630711;stroke-opacity:1"
     transform="matrix(0.92452201,0,0,1.5298957,-40.840111,-11.525348)"
     aria-label="The" />
  <g
     id="text835"
     style="font-style:normal;font-variant:normal;font-weight:normal;font-stretch:normal;font-size:78.33392334px;line-height:1.25;font-family:American-Uncial-Normal;-inkscape-font-specification:American-Uncial-Normal;letter-spacing:0px;word-spacing:0px;fill:#007600;fill-opacity:1;stroke:none;stroke-width:1.22396755;stroke-opacity:1"
     transform="matrix(0.90080466,0,0,1.5701764,-40.840111,-11.525348)"
     aria-label="S" />
  <g
     id="text839"
     style="font-style:normal;font-variant:normal;font-weight:normal;font-stretch:normal;font-size:53.78139877px;line-height:1.25;font-family:American-Uncial-Normal;-inkscape-font-specification:American-Uncial-Normal;letter-spacing:0px;word-spacing:0px;fill:#007600;fill-opacity:1;stroke:none;stroke-width:0.84033436;stroke-opacity:1"
     transform="matrix(1.0143778,0,0,1.3943742,-40.840111,-11.525348)"
     aria-label="hire">
    <path
       id="path879"
       style="fill:#007600;fill-opacity:1;stroke:none;stroke-width:0.84033436;stroke-opacity:1"
       d="m 285.10458,46.198306 1.55966,-0.107562 4.89411,-0.161345 3.97982,-0.161344 h 0.53781 l -2.36638,2.796633 q -0.32269,-0.05378 -0.59159,-0.05378 -0.21513,-0.05378 -0.43025,-0.05378 -0.32269,-0.05378 -0.75294,-0.05378 -0.37647,-0.05378 -1.07563,-0.05378 -0.53781,0 -1.29075,0 -0.69916,-0.05378 -2.25882,-0.107562 -1.77479,-0.05378 -2.47395,-0.05378 -0.64537,0 -0.91428,0 l -6.23864,0.107563 h -9.68066 q 0.26891,3.872261 3.33445,6.561331 3.06554,2.635288 7.31427,2.635288 2.85042,0 6.45377,-1.55966 3.60335,-1.559661 8.22855,-4.732763 l -4.84032,7.583177 q -0.5916,0.107563 -1.07563,0.161344 -0.43025,0.05378 -0.8605,0.107563 -0.32269,0.05378 -0.5916,0.05378 -0.26891,0 -0.59159,0 -0.16135,0 -0.32269,0 -0.16135,0 -0.32269,0 h -4.14117 -1.39831 l -2.47395,0.05378 -4.0336,0.107562 q -0.10757,-0.05378 -0.26891,-0.05378 -0.10756,0 -0.21513,0 -4.78654,0 -7.47561,-2.904196 -2.68907,-2.957977 -2.68907,-8.228554 0,-4.894107 2.47394,-8.820149 2.52773,-3.926042 6.61512,-5.37814 1.34453,-0.484032 3.22688,-0.752939 1.88235,-0.268907 3.87226,-0.268907 l 1.66722,0.05378 1.4521,0.05378 h 1.12941 3.87226 q 0.43025,0 0.91429,0.107563 0.48403,0.05378 0.96806,0.215126 0.96807,0.268907 1.88235,0.806721 0.91428,0.484032 1.55966,1.18319 0.69916,0.75294 1.02185,1.667224 0.32269,0.860502 0.32269,1.989912 0,1.18319 -0.48404,2.3126 -0.48403,1.129409 -1.39831,2.043693 -0.5916,0.537814 -1.77479,1.129409 -1.12941,0.591596 -3.1731,1.344535 l -1.07563,0.430251 z m -17.15627,0.860503 1.23698,0.05378 q 1.02184,0 2.3126,-0.107563 1.34453,-0.161344 2.63528,-0.376469 1.50588,-0.215126 2.95798,-0.537814 1.4521,-0.37647 2.52773,-0.806721 3.01176,-1.12941 4.6252,-2.850414 1.61344,-1.721005 1.61344,-3.81848 0,-1.882349 -1.4521,-3.173102 -1.4521,-1.290754 -3.54957,-1.290754 -1.34454,0 -3.06554,0.75294 -1.72101,0.752939 -3.49579,2.097474 -0.53782,0.37647 -1.07563,0.860503 -0.48403,0.430251 -1.02185,0.914283 -1.93613,1.828568 -3.06554,3.979824 -1.07562,2.097474 -1.18319,4.302513 z m -37.36462,-13.875601 0.37647,1.344535 0.21513,0.806721 0.10756,0.484032 q 2.3126,-1.398316 4.94789,-2.097474 2.63529,-0.75294 6.3462,-1.021847 l 2.79664,-0.161344 3.38822,-0.215125 q 2.79664,0 4.57142,1.882349 1.82857,1.882348 1.82857,4.840325 0,2.420163 -1.29075,4.625201 -1.23698,2.205037 -3.60336,3.926042 -0.0538,0 -0.10756,0.05378 0,0 0,0 -0.43025,0.322689 -0.91428,0.591596 -0.48404,0.215125 -1.02185,0.484032 -0.69916,0.268907 -1.61344,0.591596 -0.86051,0.322688 -2.15126,0.699158 0.21513,0.05378 0.37647,0.161344 0.21513,0.05378 0.37647,0.107563 0.26891,0.107563 0.53781,0.268907 0.26891,0.107563 0.53782,0.215125 0.43025,0.268907 0.91428,0.591596 0.48404,0.268907 1.07563,0.699158 2.04369,1.452098 3.11932,2.151256 1.07563,0.699158 1.93613,1.129409 0.21513,0.107563 0.37647,0.215126 0.21513,0.05378 0.43025,0.161344 0.10757,0 0.21513,0.05378 0.16134,0.05378 0.26891,0.107563 0.2689,0.107563 0.53781,0.215126 0.26891,0.05378 0.53781,0.161344 0.48404,0.107563 1.02185,0.215126 0.5916,0.05378 1.34454,0.161344 0.32268,0 0.64537,0.05378 0.37647,0 0.75294,0.05378 l 0.96807,0.107562 v 1.183191 q -0.26891,0.05378 -0.53782,0.107563 -0.21512,0 -0.43025,0 -0.16134,0.05378 -0.37647,0.107563 -0.21512,0 -0.37647,0 -0.48403,0.05378 -1.07563,0.107563 -0.59159,0.05378 -1.50588,0.107562 l -3.1731,0.268907 -2.95797,0.107563 q -0.75294,0 -1.29076,-0.05378 -0.53781,-0.107563 -1.07563,-0.322689 -0.43025,-0.161344 -0.91428,-0.430251 -0.43025,-0.322688 -1.02185,-0.806721 -2.79663,-2.151256 -4.57142,-3.334447 -1.77478,-1.18319 -3.38822,-1.774786 -1.29076,-0.430251 -2.68907,-0.591595 -1.34454,-0.161344 -3.22689,-0.215126 l -0.80672,-0.05378 -0.0538,1.021847 0.0538,2.043693 0.16135,3.549572 0.10756,1.021847 h -7.20671 q 0.26891,-1.12941 0.48403,-2.151256 0.21513,-1.021847 0.37647,-2.043694 0.26891,-1.828567 0.37647,-3.764697 0.10757,-1.989912 0.10757,-4.678982 0,-3.173103 -0.16135,-5.431921 -0.16134,-2.258819 -0.59159,-4.087387 -0.10757,-0.484032 -0.26891,-0.914284 -0.10756,-0.430251 -0.26891,-0.806721 -0.16134,-0.376469 -0.37647,-0.699158 -0.21512,-0.376469 -0.53781,-0.806721 l 7.36805,-0.322688 z m 0.43025,16.726015 h 1.18319 q 6.56133,0 11.61678,-3.280665 5.10924,-3.280666 5.10924,-7.475615 0,-0.05378 0,-0.05378 0,-0.05378 0,-0.107563 -0.10757,-1.882349 -1.93613,-3.44201 -1.82857,-1.613441 -3.97983,-1.613441 -0.96806,0 -2.04369,0.376469 -1.07563,0.37647 -2.20504,1.075628 -1.02184,0.699158 -2.04369,1.613442 -1.02185,0.860503 -1.93613,1.989912 -0.53781,0.645377 -0.96807,1.236972 -0.43025,0.537814 -0.75294,1.12941 -0.96806,1.55966 -1.39831,3.334446 -0.43025,1.721005 -0.5916,4.356294 l -0.0538,0.860502 z M 218.30052,32.806738 q -0.10756,0.268907 -0.16134,0.537814 -0.0538,0.215126 -0.10756,0.430251 -0.37647,1.344535 -0.53782,2.904196 -0.10756,1.505879 -0.16134,4.033605 v 7.368051 q 0,2.957977 0.16134,5.216796 0.16135,2.205037 0.48403,3.280665 0.0538,0.05378 0.0538,0.161345 0,0.05378 0.0538,0.161344 0.0538,0.05378 0.0538,0.161344 0.0538,0.107563 0.10756,0.161344 0.0538,0.268907 0.16134,0.537814 0.16135,0.268907 0.37647,0.645377 l -1.07562,0.05378 -2.58151,0.05378 q -0.69916,0 -1.55966,0.107563 -0.8605,0.05378 -2.42016,0.215125 0.0538,-0.484032 0.10756,-0.806721 0.0538,-0.37647 0.0538,-0.752939 0.0538,-0.161345 0.0538,-0.322689 0,-0.215125 0,-0.430251 0.0538,-0.268907 0.0538,-0.591595 0.0538,-0.37647 0.0538,-0.806721 0,-0.430252 0,-0.968066 0.0538,-0.537814 0.10757,-1.129409 0,-0.645377 0,-1.344535 0.0538,-0.752939 0.0538,-1.452098 0.0538,-1.290753 0.0538,-2.527725 0.0538,-1.290754 0.0538,-2.151256 0,-5.915954 -0.64538,-8.228554 -0.64537,-2.366382 -2.68907,-3.549573 v -0.752939 l 2.58151,0.107563 2.68907,-0.107563 3.71092,-0.161344 0.91428,-0.05378 z m 3.81848,-5.270577 q -1.12941,0.322688 -2.15125,0.699158 -1.02185,0.322689 -1.93613,0.699158 -1.88235,0.699159 -3.38823,1.398317 -1.50588,0.645377 -2.79664,1.398316 l -3.44201,-1.290753 q 0.21513,-0.107563 0.43026,-0.215126 0.21512,-0.107563 0.43025,-0.215126 0.0538,-0.05378 0.10756,-0.05378 0.10756,-0.05378 0.16134,-0.107563 0.75294,-0.322688 1.66723,-0.752939 0.91428,-0.430252 2.52772,-1.12941 1.55966,-0.699158 2.3126,-1.021846 0.80672,-0.322689 1.39832,-0.591596 0.16134,-0.05378 0.32269,-0.107563 0.16134,-0.107562 0.32269,-0.161344 l 4.0336,1.452098 z m -43.86461,-4.947889 -0.21513,1.290754 q -0.16134,0.806721 -0.2689,1.344535 -0.0538,0.484033 -0.0538,0.591595 0,0.05378 0,0.107563 0,0.05378 -0.0538,0.107563 0,0.37647 -0.0538,0.752939 0,0.322689 0,0.860503 0,0.268907 -0.0538,0.645377 0,0.322688 0,0.752939 0,0.537814 0,1.075628 0,0.537814 0,1.075628 l -0.0538,5.163014 v 0.806721 q 2.52773,-1.55966 5.00167,-2.473944 2.47394,-0.968065 4.78654,-1.236972 l 2.95798,-0.37647 2.47395,-0.322688 q 1.07562,-0.161344 1.98991,-0.215126 0.91428,-0.107563 1.50588,-0.107563 1.07562,0 2.09747,0.161345 1.02185,0.161344 1.77479,0.430251 2.68907,1.021846 4.24873,3.603353 1.61344,2.527726 1.61344,5.75461 0,2.635289 -1.12941,5.216796 -1.12941,2.581507 -3.22688,4.678982 -1.02185,1.021846 -2.42017,1.989911 -1.39831,0.914284 -3.1731,1.667224 -0.53781,0.215125 -1.29075,0.537814 -0.69916,0.322688 -1.88235,0.752939 l 2.3126,-0.268907 5.59326,-0.699158 q 0.86051,-0.107563 1.50588,-0.161344 0.69916,-0.107563 1.29076,-0.161344 0.43025,-0.05378 0.80672,-0.107563 0.43025,-0.05378 0.80672,-0.107563 0.43025,-0.107563 0.8605,-0.161344 0.43025,-0.107563 0.91428,-0.215126 l -2.36638,3.549573 h -23.82516 v -0.699159 q 2.42017,-0.107562 4.08739,-0.430251 1.66722,-0.37647 3.22688,-1.075628 0.43026,-0.215125 0.91429,-0.430251 0.48403,-0.268907 0.96806,-0.591595 2.58151,-1.559661 4.57142,-3.710917 2.0437,-2.151256 3.1731,-4.410075 0.53782,-1.18319 0.80673,-2.3126 0.32268,-1.129409 0.32268,-2.151256 0,-3.388228 -2.36638,-6.023516 -2.3126,-2.635289 -5.32436,-2.635289 -1.07562,0 -2.25882,0.37647 -1.1294,0.37647 -2.3126,1.075628 -1.88234,1.129409 -3.71091,2.904195 -1.82857,1.774787 -3.1731,3.979824 -0.21513,0.37647 -0.43026,0.75294 -0.21512,0.322688 -0.37647,0.699158 -0.91428,1.828567 -1.39831,3.926042 -0.48403,2.043693 -0.75294,5.324358 -0.10756,1.290754 -0.16135,2.258819 -0.0538,0.968065 -0.10756,1.93613 0,0.268907 0,0.591596 0,0.322688 0,0.645377 h -6.99158 q 0.21513,-0.806721 0.37647,-1.559661 0.16134,-0.75294 0.26891,-1.505879 0.21512,-1.290754 0.37647,-2.635289 0.21512,-1.344535 0.37647,-3.011758 0.16134,-1.882349 0.2689,-4.087386 0.16135,-2.205038 0.21513,-4.732763 0,-0.806721 0,-1.721005 0.0538,-0.968065 0.0538,-1.936131 0.0538,-1.18319 0.0538,-2.366381 0,-1.183191 0,-2.097475 0,-2.635288 -0.16134,-4.194949 -0.10757,-1.613442 -0.48403,-3.011758 -0.21513,-0.699158 -0.48404,-1.398316 -0.2689,-0.699159 -0.64537,-1.50588 l 1.07562,-0.107562 3.71092,-0.161345 3.81848,-0.268907 z m -13.53494,3.277441 q -3.82598,-0.08821 -5.98245,0.17642 -2.0869,0.17642 -3.75643,0.793892 l 0.20869,-2.558097 q 0,-2.822727 -1.80864,-4.586932 -1.80865,-1.852415 -4.66075,-1.852415 -0.48695,0 -1.04345,0.08821 -0.48695,0.08821 -0.97388,0.17642 -1.18259,0.264631 -2.2956,0.882103 -1.11302,0.617471 -2.0869,1.499573 -1.5304,1.411364 -2.22603,2.910938 -0.69564,1.499575 -0.69564,3.52841 0,3.087358 2.29559,4.675143 2.2956,1.587783 6.74765,1.587783 l 4.3825,-0.176421 1.80865,-0.08821 q 0.62607,0 1.18258,0.08821 0.62607,0 1.25214,0.08821 0.62607,0.176421 1.18258,0.352842 0.62606,0.17642 1.25214,0.441051 2.50428,0.970313 3.75642,3.263779 1.3217,2.293466 1.3217,5.910086 0,3.528409 -1.18257,6.615767 -1.11301,3.087358 -3.13036,5.116194 -0.97388,1.058523 -2.43472,1.852415 -1.39126,0.793892 -2.8521,1.234943 -0.13912,0 -0.27825,0 -0.13912,0.08821 -0.27825,0.08821 -0.90433,0.176421 -2.71297,0.264631 -1.73909,0.17642 -3.89555,0.17642 h -2.64341 -3.40861 l -3.33904,0.08821 q -4.31293,-0.08821 -6.4694,-2.999147 -2.0869,-2.999148 -2.01734,-9.173865 l 1.5304,0.08821 q 1.80865,0 3.26948,-0.08821 1.53039,-0.17642 2.29559,-0.264631 l 1.59996,-0.264631 0.69563,-0.176419 -0.13913,2.469885 q 0,3.61662 1.73909,5.998297 1.73909,2.293466 4.52162,2.293466 4.10424,0 7.37372,-3.440199 3.26948,-3.52841 3.26948,-7.850711 0,-2.028835 -0.90433,-3.61662 -0.90432,-1.587785 -2.43471,-2.381676 -0.13913,-0.08821 -0.27826,-0.08821 -0.0695,-0.08821 -0.20869,-0.08821 -1.04345,-0.441051 -2.15646,-0.617471 -1.11301,-0.176421 -2.78254,-0.176421 l -1.80865,0.08821 -4.10423,0.08821 q -5.00857,0 -7.86067,-2.293466 -2.8521,-2.381677 -2.8521,-6.439348 0,-0.441051 0,-0.882102 0.0695,-0.441051 0.13913,-0.882102 0.34781,-2.822729 1.87821,-5.380825 1.53039,-2.646307 3.68686,-4.234092 1.66952,-1.234943 3.68686,-1.764204 2.0869,-0.529262 4.939,-0.529262 l 3.19991,-0.08821 3.33905,-0.0882 3.19991,-0.26463 q 4.59119,0 7.16504,2.734516 2.57384,2.646308 2.78253,7.674292 z m -55.86011,21.863559 0.99179,-0.08234 3.11218,-0.123512 2.53078,-0.123512 h 0.34199 l -1.50478,2.140873 q -0.2052,-0.04117 -0.3762,-0.04117 -0.1368,-0.04117 -0.2736,-0.04117 -0.2052,-0.04117 -0.47879,-0.04117 -0.2394,-0.04117 -0.684,-0.04117 -0.342,0 -0.82079,0 -0.4446,-0.04117 -1.43639,-0.08235 -1.12859,-0.04117 -1.57319,-0.04117 -0.41039,0 -0.58139,0 l -3.96717,0.08234 h -6.155947 q 0.170991,2.964286 2.120377,5.022818 1.94939,2.017361 4.65117,2.017361 1.81258,0 4.10396,-1.193948 2.29138,-1.193949 5.23256,-3.623017 l -3.07797,5.80506 q -0.3762,0.08234 -0.68399,0.123512 -0.2736,0.04117 -0.5472,0.08234 -0.2052,0.04117 -0.3762,0.04117 -0.171,0 -0.3762,0 -0.10259,0 -0.2052,0 -0.1026,0 -0.2052,0 h -2.63338 -0.88918 l -1.57319,0.04117 -2.56499,0.08235 q -0.0683,-0.04117 -0.17099,-0.04117 -0.0684,0 -0.1368,0 -3.043774,0 -4.753767,-2.223215 -1.709984,-2.264385 -1.709984,-6.299108 0,-3.746529 1.573189,-6.751984 1.607386,-3.005457 4.206567,-4.117065 0.854995,-0.370536 2.051985,-0.576389 1.19699,-0.205853 2.46238,-0.205853 l 1.06019,0.04117 0.92339,0.04117 h 0.7182 2.46237 q 0.2736,0 0.5814,0.08234 0.3078,0.04117 0.6156,0.164683 0.6156,0.205853 1.19699,0.61756 0.58139,0.370536 0.99179,0.905753 0.44459,0.576389 0.64979,1.27629 0.20521,0.658731 0.20521,1.523314 0,0.905754 -0.30781,1.770338 -0.30779,0.864583 -0.88919,1.564484 -0.37619,0.411706 -1.12859,0.864583 -0.71819,0.452878 -2.01778,1.029266 l -0.684,0.329365 z m -10.909713,0.658731 0.786599,0.04117 q 0.649796,0 1.470584,-0.08234 0.855,-0.123512 1.67579,-0.288195 0.9576,-0.164682 1.88098,-0.411705 0.92339,-0.288195 1.60739,-0.61756 1.91519,-0.864584 2.94118,-2.182044 1.02599,-1.317461 1.02599,-2.923115 0,-1.440973 -0.92339,-2.429069 -0.9234,-0.988095 -2.25719,-0.988095 -0.85499,0 -1.94938,0.57639 -1.0944,0.576388 -2.22299,1.605654 -0.34199,0.288195 -0.68399,0.658731 -0.30779,0.329365 -0.64979,0.699901 -1.231192,1.399801 -1.949389,3.046626 Q 98.018029,46.7 97.949627,48.387996 Z M 74.912371,29.655362 74.775573,30.643456 q -0.102599,0.61756 -0.170999,1.029267 -0.0342,0.370536 -0.0342,0.452877 0,0.04117 0,0.08234 0,0.04117 -0.0342,0.08234 0,0.288195 -0.0342,0.57639 0,0.247024 0,0.65873 0,0.205853 -0.0342,0.494048 0,0.247024 0,0.576388 0,0.411707 0,0.823413 0,0.411707 0,0.823413 l -0.0342,3.952381 v 0.61756 q 1.607387,-1.193948 3.180575,-1.893849 1.573187,-0.741072 3.043775,-0.946925 l 1.880985,-0.288195 1.573188,-0.247024 q 0.683994,-0.123512 1.26539,-0.164682 0.581395,-0.08234 0.957592,-0.08234 0.683995,0 1.333789,0.123512 0.649795,0.123512 1.128591,0.329366 1.709987,0.782242 2.701782,2.758432 1.025992,1.93502 1.025992,4.40526 0,2.017361 -0.718197,3.993551 -0.718195,1.976191 -2.051984,3.581846 -0.649795,0.782243 -1.538988,1.523313 -0.889193,0.699901 -2.017784,1.276291 -0.341997,0.164682 -0.820793,0.411706 -0.444597,0.247024 -1.19699,0.576388 l 1.470588,-0.205852 3.556771,-0.535218 q 0.547196,-0.08234 0.957592,-0.123512 0.444597,-0.08234 0.820794,-0.123512 0.273597,-0.04117 0.512999,-0.08234 0.273598,-0.04117 0.512992,-0.08234 0.273598,-0.08234 0.547197,-0.123512 0.273598,-0.08234 0.581393,-0.164683 l -1.504787,2.717264 H 76.485559 v -0.535219 q 1.538988,-0.08235 2.599179,-0.329365 1.060192,-0.288195 2.051984,-0.823413 0.273598,-0.164683 0.581396,-0.329365 0.307797,-0.205854 0.615594,-0.452878 1.641588,-1.193948 2.906977,-2.840774 1.29959,-1.646825 2.017785,-3.375992 0.341997,-0.905754 0.512995,-1.770338 0.205198,-0.864582 0.205198,-1.646825 0,-2.59375 -1.504787,-4.611111 -1.470589,-2.017362 -3.385773,-2.017362 -0.683995,0 -1.436389,0.288194 -0.718195,0.288195 -1.470588,0.823413 -1.196991,0.864584 -2.359781,2.223215 -1.162791,1.358631 -2.017785,3.046627 -0.136798,0.288195 -0.273597,0.576389 -0.1368,0.247024 -0.239399,0.535219 -0.581395,1.399801 -0.889193,3.005456 -0.307797,1.564485 -0.478796,4.075893 -0.0684,0.988096 -0.102599,1.729167 -0.0342,0.741072 -0.0684,1.482144 0,0.205853 0,0.452877 0,0.247024 0,0.494048 h -4.445964 q 0.136798,-0.61756 0.239397,-1.193949 0.102599,-0.57639 0.171,-1.152779 0.136798,-0.988094 0.239397,-2.017361 0.136799,-1.029266 0.239399,-2.305555 0.102599,-1.440973 0.170998,-3.128969 0.102599,-1.687996 0.136799,-3.623017 0,-0.617559 0,-1.31746 0.0342,-0.741072 0.0342,-1.482143 0.0342,-0.905754 0.0342,-1.811508 0,-0.905755 0,-1.605655 0,-2.017362 -0.102599,-3.21131 -0.0684,-1.23512 -0.307798,-2.305556 -0.136798,-0.535218 -0.307798,-1.070437 -0.170998,-0.535218 -0.410396,-1.152778 l 0.683994,-0.08234 2.359782,-0.123512 2.42818,-0.205853 z m -10.9546,3.581845 q -1.23119,1.31746 -2.120383,2.429067 -0.854993,1.070437 -1.504788,2.140874 h 0.512996 l 2.53078,-0.04117 q 0.376197,0 0.991792,0 0.649795,0 1.470589,-0.04117 0.581395,-0.04117 0.991792,-0.04117 0.444596,-0.04117 0.752393,-0.04117 l 0.615596,-0.04117 -1.33379,2.182044 q -1.025991,0.04117 -1.812586,0.08234 -0.752394,0 -1.470588,0 -0.923392,0.04117 -1.949384,0.04117 -1.025992,0 -2.56498,0 -1.16279,2.634921 -1.675786,4.816964 -0.512996,2.140873 -0.512996,4.199405 0,2.017362 0.341996,3.417163 0.341998,1.358632 1.025993,2.099703 0.683994,0.741072 1.573187,1.152778 0.889193,0.411707 1.846786,0.411707 0.444596,0 0.854993,-0.08234 0.410397,-0.08235 0.820793,-0.247024 0.615595,-0.288194 1.23119,-0.741071 0.649795,-0.494048 1.33379,-1.193949 l 1.16279,-1.193948 0.410397,-0.411707 -1.402189,4.940477 q -0.205198,0.04117 -0.341997,0.08234 -0.136799,0 -0.273598,0.04117 -0.205198,0.04117 -0.444596,0.08234 -0.205198,0 -0.547196,0 -0.170999,0 -0.410397,0.04117 -0.205198,0 -0.444596,0 -0.341998,0 -0.649795,0 -0.307797,0 -0.444596,0 h -1.26539 l -1.060192,0.04117 -2.56498,0.164683 q -2.188782,-0.04117 -3.385773,-1.976191 -1.16279,-1.976191 -1.16279,-5.640378 0,-0.864583 0.0684,-1.729167 0.0684,-0.905754 0.170999,-1.770337 0.239397,-1.687997 0.649794,-3.334822 0.444597,-1.646826 1.025992,-3.087798 h -5.642956 l 1.538987,-2.182044 h 5.06156 q 0.478796,-1.070437 1.128591,-2.058533 0.683994,-1.029265 1.504788,-2.058531 l 5.369357,-0.452877 z" />
  </g>
</svg>
