<?xml version="1.0" encoding="UTF-8" standalone="no"?>
<!-- Created with Inkscape (http://www.inkscape.org/) -->

<svg
   xmlns:dc="http://purl.org/dc/elements/1.1/"
   xmlns:cc="http://creativecommons.org/ns#"
   xmlns:rdf="http://www.w3.org/1999/02/22-rdf-syntax-ns#"
   xmlns:svg="http://www.w3.org/2000/svg"
   xmlns="http://www.w3.org/2000/svg"
   xmlns:sodipodi="http://sodipodi.sourceforge.net/DTD/sodipodi-0.dtd"
   xmlns:inkscape="http://www.inkscape.org/namespaces/inkscape"
   version="1.1"
   width="300.00711"
   height="78.647285"
   id="svg5276"
   inkscape:version="0.48.2 r9819"
   sodipodi:docname="The Chronicles of Narnia logo.svg"
   inkscape:export-filename="C:\Users\Klemen\Downloads\The Chronicles of Narnia logo.png"
   inkscape:export-xdpi="1500.2426"
   inkscape:export-ydpi="1500.2426">
  <sodipodi:namedview
     pagecolor="#ffffff"
     bordercolor="#666666"
     borderopacity="1"
     objecttolerance="10"
     gridtolerance="10"
     guidetolerance="10"
     inkscape:pageopacity="0"
     inkscape:pageshadow="2"
     inkscape:window-width="1280"
     inkscape:window-height="972"
     id="namedview67"
     showgrid="false"
     inkscape:zoom="4.6562614"
     inkscape:cx="189.42382"
     inkscape:cy="8.4583171"
     inkscape:window-x="1016"
     inkscape:window-y="-8"
     inkscape:window-maximized="1"
     inkscape:current-layer="svg5276"
     fit-margin-top="0"
     fit-margin-left="0"
     fit-margin-right="0"
     fit-margin-bottom="0" />
  <defs
     id="defs5278">
    <clipPath
       id="clipPath3717">
      <path
         d="m 427.26,426.42 71.64,0 0,24 -71.64,0 0,-24 z"
         id="path3719"
         inkscape:connector-curvature="0" />
    </clipPath>
    <clipPath
       id="clipPath3733">
      <path
         d="m 427.264,426.42 71.589,0 0,23.968 -71.589,0 0,-23.968 z"
         id="path3735"
         inkscape:connector-curvature="0" />
    </clipPath>
    <clipPath
       id="clipPath3745">
      <path
         d="m 427.26,426.42 71.64,0 0,24 -71.64,0 0,-24 z"
         id="path3747"
         inkscape:connector-curvature="0" />
    </clipPath>
    <clipPath
       id="clipPath3773">
      <path
         d="m 427.264,426.42 71.589,0 0,23.968 -71.589,0 0,-23.968 z"
         id="path3775"
         inkscape:connector-curvature="0" />
    </clipPath>
    <clipPath
       id="clipPath3789">
      <path
         d="m 427.26,426.42 71.64,0 0,24 -71.64,0 0,-24 z"
         id="path3791"
         inkscape:connector-curvature="0" />
    </clipPath>
  </defs>
  <metadata
     id="metadata5281">
    <rdf:RDF>
      <cc:Work
         rdf:about="">
        <dc:format>image/svg+xml</dc:format>
        <dc:type
           rdf:resource="http://purl.org/dc/dcmitype/StillImage" />
        <dc:title></dc:title>
      </cc:Work>
    </rdf:RDF>
  </metadata>
  <g
     transform="translate(-441.06711,-613.99385)"
     id="layer1">
    <g
       transform="matrix(3.3588222,0,0,3.3588222,-1332.8479,-867.7247)"
       id="g5153">
      <g
         transform="matrix(1.25,0,0,-1.25,-5.9483339,1004.1273)"
         id="g3713">
        <g
           clip-path="url(#clipPath3717)"
           id="g3715">
          <g
             transform="translate(484.4348,434.76489)"
             id="g3721">
            <path
               d="m 0,0 c -0.401,0.113 -0.907,0.408 -0.869,0.869 l -0.068,0 c 0.002,1.494 0.023,3.18 0.023,4.867 l 0,1.029 c 0.007,0.092 0.015,0.183 0.022,0.274 -0.023,0.178 -0.039,0.363 -0.022,0.503 0.011,0.092 0.039,0.399 0.022,0.48 -0.1,0.498 0.086,0.993 -0.022,1.372 -0.052,0.178 0.001,0.509 0.068,0.594 0.098,0.119 0.227,0.048 0.412,0.091 0.291,0.069 0.585,0.107 0.731,0.321 l 0.023,0 0,0.045 c -0.377,0.071 -0.836,-0.176 -1.257,-0.114 -0.106,0.015 -0.151,-0.081 -0.252,-0.046 l -0.046,0.069 -0.32,0 -0.32,0.068 -0.32,0 c -0.265,0.064 -0.805,0.144 -1.12,0.046 -0.172,-0.054 -0.25,-0.207 -0.389,-0.274 l 0,-0.069 c 1.165,0.461 1.277,-0.669 1.189,-1.76 0.041,-0.082 0.041,-0.471 0.023,-0.571 -0.018,-0.104 0.009,-0.253 0.023,-0.32 0.028,-0.139 -0.03,-0.322 0,-0.457 C -2.407,6.739 -2.517,6.366 -2.492,6.125 L -2.4,6.034 C -2.356,5.906 -2.548,5.792 -2.378,5.645 L -2.492,5.485 C -2.476,5.377 -2.399,5.34 -2.446,5.256 -2.447,5.132 -2.428,5.079 -2.4,5.005 c 0.082,0.022 0.178,0.051 0.274,0.069 L -2.103,5.051 C -2.144,4.941 -2.374,4.812 -2.469,4.754 l 0,-1.006 C -2.468,3.611 -2.372,3.549 -2.4,3.451 -2.428,3.356 -2.486,3.356 -2.492,3.245 -2.499,3.107 -2.434,2.924 -2.469,2.765 L -2.492,2.628 -2.446,2.468 -2.515,2.193 -2.469,1.852 C -2.582,1.215 -2.437,0.926 -2.766,0.48 -3.061,0.081 -3.534,-0.101 -4.024,0.023 -4.158,0.057 -4.198,0.015 -4.275,0.092 l -0.023,0 c 0.019,-0.211 0.254,-0.363 0.434,-0.412 l 0.183,0 c 0.123,-0.036 0.451,-0.099 0.64,-0.046 0.157,0.044 0.356,0.055 0.526,0.115 0.168,0.059 0.413,0.198 0.549,0.228 0.33,0.074 0.819,-0.096 1.074,-0.16 l 0.343,0 C -0.079,-0.301 0.475,-0.162 0.8,0 l 0.023,0.069 -0.023,0 C 0.8,0.069 0.196,-0.055 0,0 M -4.572,-0.663 -4.641,-0.754 C -5.044,-0.963 -5.49,-1.125 -5.898,-1.303 -6.612,-1.613 -7.439,-1.746 -8.23,-1.966 -8.444,-2.025 -8.705,-2.021 -8.939,-2.08 l -0.229,0 c -0.198,-0.06 -0.494,-0.066 -0.708,-0.114 l -0.572,0 c -0.354,-0.081 -0.998,-0.08 -1.349,0 l -0.503,0 c -0.537,0.119 -1.164,0.128 -1.646,0.274 -0.18,0.055 -0.31,0.012 -0.48,0.068 -0.242,0.082 -0.544,0.189 -0.777,0.275 -0.092,0.007 -0.183,0.015 -0.275,0.023 l -0.182,0.183 c -0.272,0.112 -0.562,0.12 -0.823,0.228 -0.997,0.413 -1.999,0.93 -2.607,1.737 -0.173,0.231 -0.401,0.45 -0.571,0.686 -0.416,0.576 -0.734,1.311 -1.029,1.988 -0.129,0.294 -0.316,0.955 -0.046,1.234 l 0,0.046 c -0.188,-0.018 -0.477,-0.108 -0.686,-0.069 -0.533,0.1 -0.995,0.334 -1.44,0.526 -0.151,0.065 -0.322,0.089 -0.457,0.16 l -0.023,0.023 c 0.118,0.073 0.45,0.034 0.594,0.091 0.426,0.169 0.761,0.409 1.098,0.663 0.094,0.071 0.135,0.177 0.205,0.274 l 0.206,0.206 c 0.221,0.316 0.399,0.616 0.618,0.937 l 0.548,0.297 0,0.046 -0.228,0 -0.252,0.16 c -0.384,0.287 -0.492,0.96 -0.983,1.143 l 0.023,0.069 c -0.059,0.295 -0.817,0.728 -1.097,0.868 -0.234,0.117 -0.499,0.274 -0.755,0.366 -0.179,0.064 -0.343,0.018 -0.549,0.068 l -0.251,0.092 c -0.155,0.045 -0.293,-0.09 -0.434,-0.046 l -0.115,0.092 c -0.114,0.037 -0.566,-0.026 -0.64,-0.046 -0.109,-0.029 -0.137,0.052 -0.206,0.046 -0.269,-0.024 -0.735,-0.019 -0.983,-0.092 l -0.571,0 c -0.244,-0.057 -0.477,-0.019 -0.709,-0.068 l -0.366,0 c -0.574,-0.173 -1.433,-0.085 -1.92,0.068 -0.216,0.068 -0.468,0.098 -0.595,0.252 l -0.068,0 0,-0.046 c 0.273,-0.255 0.553,-0.442 0.983,-0.549 0.412,-0.102 0.664,0.005 0.983,-0.205 l 0.251,-0.16 c 0.248,-0.336 0.182,-0.602 0.275,-1.029 0.025,-0.118 -0.035,-0.232 -0.023,-0.32 0.023,-0.161 0.05,-0.499 0.023,-0.571 -0.007,-0.228 0.093,-0.205 0.274,-0.229 l -0.251,-0.046 c -0.023,-0.173 0.001,-0.262 0.045,-0.388 0.005,-0.012 -0.058,-0.338 -0.068,-0.458 -0.031,-0.347 0.089,-0.639 0.023,-1.028 -0.031,-0.179 0,-0.424 0,-0.686 0.007,-0.67 0.015,-1.341 0.023,-2.011 0,-0.303 0.008,-0.717 -0.023,-0.915 -0.059,-0.366 0.027,-0.994 -0.16,-1.21 l 0,-0.251 c -0.084,-0.18 -0.752,-0.632 -1.075,-0.412 l -0.046,0 c 0.082,-0.216 0.767,-0.277 1.121,-0.206 0.291,0.059 0.628,-0.038 1.006,0.046 0.477,0.107 1.185,0.095 1.623,-0.023 0.179,-0.048 0.425,0.02 0.571,-0.068 l 0.046,0 c -0.078,0.214 -0.37,0.245 -0.572,0.342 -0.238,0.116 -0.557,0.296 -0.708,0.503 -0.121,0.166 -0.162,0.396 -0.343,0.503 l 0.114,0.137 -0.023,0.822 c -0.028,0.129 -0.073,0.669 -0.023,0.823 0.051,0.157 -0.105,0.529 -0.068,0.755 0.05,0.305 0.023,0.688 0.023,1.165 l 0,0.503 c 0.062,0.353 0.082,1.324 0,1.76 -0.011,0.059 0.069,0.339 0.045,0.457 -0.099,0.491 0.073,1.129 -0.023,1.6 -0.027,0.138 0.054,0.182 -0.022,0.275 l 0.022,0.183 c 0.154,0.102 0.378,0.007 0.549,0.045 0.386,0.086 0.937,0.04 1.281,-0.023 0.096,-0.017 0.215,0.034 0.342,0 0.279,-0.073 0.492,-0.112 0.755,-0.228 0.122,-0.054 0.249,-0.174 0.366,-0.229 l 0.137,-0.023 c 0.114,-0.114 0.229,-0.228 0.343,-0.343 l 0.046,-0.159 0.16,-0.138 0.137,0 -0.023,-0.228 0.068,-0.114 c 0.035,-0.123 -0.014,-0.265 0,-0.343 0.035,-0.192 0.097,-0.622 0.023,-0.846 -0.186,-0.566 -0.623,-1.112 -1.097,-1.394 -0.226,-0.135 -0.549,-0.203 -0.8,-0.298 -0.115,-0.007 -0.229,-0.015 -0.343,-0.023 -0.149,-0.056 -0.313,-0.069 -0.503,-0.114 -0.188,-0.044 -0.422,0.02 -0.572,-0.068 l -0.114,0 0,-0.023 c 0.071,-0.066 0.223,-0.229 0.343,-0.229 l 0.091,0.046 c 0.166,0.039 0.789,-0.029 0.938,-0.069 0.562,-0.149 0.915,-0.414 1.257,-0.777 0.157,-0.167 0.246,-0.391 0.389,-0.571 l 0.206,-0.137 0.045,-0.206 c 0.23,-0.326 0.514,-0.648 0.732,-0.983 l 0.023,-0.16 0.205,-0.182 0.138,-0.206 0.251,-0.228 c 0.281,-0.373 0.611,-0.68 0.937,-1.006 0.808,-0.807 1.578,-1.412 2.63,-1.989 0.293,-0.16 0.636,-0.375 0.96,-0.503 0.403,-0.158 0.819,-0.302 1.211,-0.457 0.245,-0.096 0.476,-0.073 0.732,-0.16 0.793,-0.269 2.061,-0.46 2.972,-0.434 l 0.091,-0.046 1.304,0 c 0.301,0.092 0.761,0.046 1.074,0.115 l 0.297,0 c 0.415,0.127 0.858,0.126 1.281,0.251 0.099,0.008 0.198,0.015 0.297,0.023 0.193,0.063 0.787,0.21 0.914,0.32 l 0.023,0 -0.091,0.183 -0.023,0 0.023,0.046 0.16,-0.115 c 0.395,-0.006 0.506,0.116 0.8,0.229 0.551,0.211 1.035,0.431 1.555,0.686 0.249,0.122 0.471,0.325 0.777,0.388 l 0,0.046 c -0.267,0.089 -0.583,0.029 -0.823,0.137 -0.067,0.03 -0.173,0.185 -0.297,0.137 m -13.283,11.36 c 0.202,-0.146 0.381,-0.489 0.457,-0.755 0.136,-0.475 0.103,-1.005 0.183,-1.417 0.008,-0.206 0.015,-0.411 0.023,-0.617 l 0.114,-0.114 c 0.036,-0.126 -0.108,-0.241 -0.069,-0.435 0.034,-0.163 -0.03,-0.466 0,-0.663 l 0.046,-0.068 -0.023,-0.183 c 0.005,-0.146 0.049,-0.387 0.023,-0.526 -0.027,-0.147 -0.026,-0.333 0,-0.457 l 0,-1.006 c 0,-0.47 -0.07,-0.866 -0.046,-1.302 l 0.092,-0.481 -0.092,-0.068 0,-0.343 c 0,-0.363 -0.041,-0.595 -0.045,-0.959 -0.002,-0.122 -0.062,-0.289 0,-0.389 -0.048,-0.28 -0.399,-0.562 -0.709,-0.434 l -0.023,-0.023 c 0.038,-0.103 0.104,-0.101 0.183,-0.16 0.085,-0.063 0.171,-0.184 0.274,-0.228 0.221,-0.094 0.695,0.064 0.938,0 0.444,-0.117 1.128,-0.233 1.623,-0.137 0.098,0.018 0.136,-0.075 0.251,-0.046 0.192,0.047 0.28,0.214 0.412,0.32 l 0,0.045 c -0.199,-0.025 -0.41,-0.065 -0.571,-0.114 -0.157,-0.046 -0.309,0.053 -0.389,0.023 -0.159,0.041 -0.295,0.169 -0.412,0.251 -0.145,0.104 -0.294,0.168 -0.388,0.321 l -0.046,0.182 c -0.042,0.09 -0.122,0.238 -0.16,0.343 l 0,0.206 c -0.06,0.257 -0.071,0.629 -0.114,0.89 -0.044,0.264 0.024,0.749 -0.023,1.052 l 0.023,0.274 c -0.008,0.214 -0.016,0.427 -0.023,0.64 0,0.103 0.024,0.203 0,0.252 0.001,0.205 -0.048,0.243 -0.092,0.365 -0.141,-0.001 -0.196,-0.028 -0.297,-0.045 l 0,0.068 0.046,0.046 c 0.096,0.005 0.173,0.033 0.228,0 l 0.115,0.046 c -0.001,0.174 0.03,0.369 0.046,0.48 0.018,0.128 -0.032,0.314 -0.023,0.434 0.028,0.416 0.008,0.915 0.068,1.257 0.044,0.249 -0.092,0.713 0,0.869 l 0,0.023 c 0.256,-0.092 0.498,-0.521 0.686,-0.709 0.494,-0.493 1.033,-0.953 1.463,-1.509 l 0.183,-0.114 0.023,-0.091 0.206,-0.16 0.137,-0.183 c 0.182,-0.138 0.343,-0.297 0.503,-0.457 0.103,-0.104 0.172,-0.237 0.297,-0.32 -0.023,-0.143 -0.25,-0.565 -0.343,-0.64 l 0,-0.046 c 0.121,0.019 0.577,0.221 0.64,0.297 0.324,-0.009 0.717,-0.602 0.915,-0.8 0.098,-0.098 0.232,-0.166 0.274,-0.32 0.108,0.01 0.158,0.048 0.206,0.114 l 0.114,0 -0.114,-0.137 -0.069,0 c 0.033,-0.12 0.173,-0.173 0.252,-0.251 0.198,-0.206 0.396,-0.412 0.594,-0.617 l 0.137,-0.023 0.092,-0.206 0.32,-0.296 c 0.613,-0.503 1.182,-1.014 1.852,-1.463 0.115,-0.078 0.203,-0.235 0.32,-0.32 0.253,-0.184 1.011,-0.679 1.371,-0.457 l 0.023,0.045 c -0.32,0.152 -0.917,0.824 -0.731,1.281 L -7.019,0.8 c 0.022,0.119 0.101,0.165 0.115,0.297 0.006,0.065 -0.023,0.199 -0.023,0.297 l 0,1.074 -0.023,0.228 c 0.029,0.229 0.082,0.691 0.023,0.96 -0.022,0.1 -0.08,0.279 -0.046,0.412 0.089,0.343 0.054,0.732 0.069,1.188 0.022,0.714 -0.036,1.558 0.068,2.309 l -0.023,0.937 -0.068,0.069 0.091,0.091 0,0.274 c 0.023,0.229 0.046,0.458 0.069,0.686 0.136,0.442 0.52,0.577 0.732,0.938 l -0.023,0 -0.206,-0.046 c -0.152,-0.052 -0.454,-0.189 -0.686,-0.138 -0.156,0.035 -0.338,-0.045 -0.526,0 -0.201,0.05 -0.349,0.047 -0.548,0.092 l -0.504,0 c -0.216,0.055 -0.628,0.094 -0.868,0.023 -0.182,-0.054 -0.301,-0.177 -0.435,-0.274 l 0,-0.046 c 0.17,0.022 0.307,0.096 0.435,0.137 0.306,0.099 0.93,-0.13 1.074,-0.229 0.289,-0.197 0.433,-0.64 0.549,-1.005 L -7.819,8.959 C -7.811,8.7 -7.804,8.441 -7.796,8.182 -7.763,8.045 -7.751,7.911 -7.75,7.748 l -0.023,-0.16 c 0.052,-0.312 0.02,-0.677 0.046,-0.96 L -7.75,6.376 C -7.718,6.153 -7.697,5.757 -7.704,5.531 -7.714,5.268 -7.72,4.803 -7.659,4.548 L -7.704,4.411 c -0.035,-0.13 -0.038,-0.515 0,-0.686 0.033,-0.151 0.002,-0.411 -0.023,-0.526 l 0,-0.663 C -7.747,2.416 -7.792,1.913 -7.75,1.76 L -7.773,1.737 c -0.206,0.026 -0.73,0.636 -0.869,0.799 -0.079,0.093 -0.21,0.164 -0.297,0.252 -0.239,0.24 -0.464,0.497 -0.709,0.731 l -0.228,0.137 -0.206,0.298 -0.16,0.068 -0.023,0.137 -0.16,0.183 c -0.156,0.15 -0.701,0.637 -0.755,0.823 l 0.298,0.891 0,0.16 c -0.155,-0.058 -0.246,-0.332 -0.343,-0.457 l -0.183,-0.16 c -0.384,0.006 -0.442,0.299 -0.663,0.457 l -0.206,0.092 0,0.137 -0.137,0.137 -0.137,0.023 c -0.049,0.1 -0.107,0.207 -0.16,0.297 l -0.183,0.046 c -0.073,0.061 -0.021,0.087 -0.069,0.183 L -13.1,7.085 c -0.099,0.114 -0.198,0.229 -0.297,0.343 l -0.16,0.114 -0.069,0.137 c -0.087,0.088 -0.186,0.115 -0.297,0.183 -0.092,0.057 -0.105,0.203 -0.183,0.275 l -0.137,0.045 -0.229,0.297 c -0.203,0.204 -0.447,0.382 -0.64,0.595 -0.328,0.362 -0.773,0.888 -1.166,1.165 -0.385,0.272 -0.801,0.509 -1.303,0.663 -0.232,0.071 -0.457,-0.018 -0.64,0.092 l -0.023,0 c 0.05,-0.179 0.255,-0.201 0.389,-0.297 M 9.922,4.182 C 9.415,4.075 8.918,3.909 8.482,3.725 8.318,3.655 8.114,3.681 8.002,3.565 7.656,3.585 7.082,3.944 6.767,4.068 6.51,4.169 5.959,4.208 5.761,4.342 l -0.045,0 c 0.057,0.202 0.221,0.376 0.297,0.572 0.135,0.352 0.278,0.644 0.434,0.96 0.074,0.148 0.071,0.324 0.16,0.457 l 0.183,0.16 0,0.182 0.091,0.206 C 6.95,7.02 7.08,7.159 7.156,7.291 7.218,7.399 7.22,7.523 7.27,7.634 7.444,8.013 7.675,8.38 7.841,8.777 8.054,8.67 8.269,7.889 8.39,7.634 8.788,6.8 9.15,5.914 9.556,5.096 9.669,4.869 9.765,4.415 9.945,4.273 L 9.922,4.182 z m 3.772,-3.839 c -0.129,0.057 -0.144,0.156 -0.343,0.16 -0.096,0.2 -0.26,0.306 -0.365,0.48 -0.131,0.215 -0.188,0.429 -0.298,0.663 -0.177,0.375 -0.409,0.77 -0.594,1.142 -0.099,0.197 -0.136,0.372 -0.228,0.571 l -0.16,0.275 C 11.639,3.818 11.616,3.963 11.5,4.091 l 0.045,0.137 c 0.256,0.01 0.555,0.056 0.732,-0.069 l 0.091,0 0,0.046 -0.183,0.137 -0.251,0.069 -0.548,0 c -0.128,0.06 -0.18,0.356 -0.252,0.48 l -0.114,0.228 -0.206,0.16 0.023,0.206 c -0.036,0.121 -0.15,0.254 -0.206,0.366 l -0.046,0.16 C 10.401,6.338 10.244,6.713 10.059,7.039 10.001,7.142 9.999,7.296 9.922,7.382 l -0.16,0.115 c -0.047,0.101 0.036,0.184 0,0.251 L 9.602,7.931 C 9.489,8.112 9.452,8.307 9.35,8.502 9.305,8.588 9.204,8.686 9.167,8.777 9.123,8.886 9.163,8.979 9.122,9.074 L 8.985,9.257 C 8.807,9.58 8.663,9.922 8.504,10.239 8.394,10.46 8.313,10.821 8.161,10.994 L 8.139,11.017 C 7.678,9.918 7.114,8.888 6.63,7.794 6.524,7.554 6.342,7.298 6.241,7.062 5.855,6.16 5.442,5.266 4.961,4.456 4.763,4.458 4.527,4.498 4.367,4.456 4.225,4.419 4.067,4.316 3.932,4.273 l 0,-0.045 C 4.062,4.243 4.191,4.258 4.321,4.273 4.478,4.243 4.685,4.206 4.824,4.182 4.802,3.962 4.676,3.818 4.595,3.656 4.457,3.379 4.351,3.11 4.207,2.856 4.118,2.701 4.087,2.487 3.955,2.376 L 3.978,2.262 C 3.943,2.092 3.711,1.854 3.635,1.691 3.585,1.584 3.58,1.496 3.521,1.394 L 3.406,1.257 3.384,1.029 3.155,0.869 C 2.821,0.466 2.756,0.107 2.035,0.137 2.118,-0.092 2.522,-0.095 2.789,-0.023 3.1,0.061 3.545,0.09 3.932,0.092 c 0.105,0 0.33,0.058 0.366,0.045 L 4.435,0.023 C 4.565,-0.008 4.694,-0.038 4.824,-0.068 5.25,-0.165 5.829,-0.094 5.99,0.16 l 0.023,0 0,0.023 C 5.864,0.17 5.662,0.08 5.487,0.114 5.029,0.205 4.559,0.315 4.412,0.709 4.306,0.995 4.453,1.424 4.527,1.669 4.542,1.783 4.557,1.897 4.572,2.01 4.882,2.653 5.208,3.377 5.578,3.976 5.971,3.896 6.306,3.675 6.607,3.496 L 6.836,3.451 6.927,3.291 C 7.018,3.225 7.11,3.195 7.201,3.131 l 0.16,-0.16 C 7.53,2.869 7.846,2.728 7.956,2.582 8.184,2.6 8.584,2.954 8.756,3.085 l 0.091,0.16 0.16,-0.023 0.092,0.091 C 9.224,3.393 9.39,3.46 9.51,3.519 9.687,3.607 9.899,3.623 10.036,3.748 10.21,3.702 10.36,3.149 10.448,2.971 10.489,2.887 10.603,2.765 10.631,2.673 L 10.608,2.582 10.7,2.445 l 0.205,-0.229 0,-0.206 C 10.994,1.75 11.175,1.469 11.294,1.211 11.361,1.067 11.513,0.699 11.386,0.526 11.35,0.115 10.733,-0.048 10.334,-0.091 l -0.023,-0.023 0,-0.046 c 0.294,0.058 0.683,-0.027 0.983,0.046 0.115,0.028 0.175,0.093 0.229,0.114 0.133,0.052 0.15,-0.091 0.274,-0.068 0.33,0.058 0.904,0.136 1.326,0.045 0.294,-0.063 0.717,0.053 0.823,-0.091 0.21,0.012 0.216,0.141 0.342,0.228 l 0,0.092 c -0.228,0.01 -0.415,0.058 -0.594,0.137 m -48.559,3.77 c -0.297,-0.102 -0.646,-0.233 -0.937,-0.342 -0.165,-0.063 -0.358,-0.058 -0.48,-0.16 -0.206,0.025 -0.365,0.156 -0.526,0.228 -0.313,0.141 -0.648,0.243 -0.96,0.366 -0.2,0.079 -0.614,0.081 -0.754,0.206 l 0.228,0.434 -0.023,0.069 -0.137,0.022 0,0.046 c 0.432,0.162 0.588,0.878 0.778,1.303 0.048,0.109 0.185,0.173 0.228,0.274 l 0,0.183 0.137,0.206 c 0.13,0.246 0.227,0.493 0.366,0.708 0.063,0.099 0.06,0.212 0.114,0.321 0.145,0.287 0.302,0.604 0.458,0.891 0.147,-0.125 0.3,-0.746 0.411,-0.96 0.108,-0.209 0.25,-0.467 0.343,-0.686 l 0.046,-0.228 c 0.237,-0.48 0.513,-1.013 0.731,-1.509 0.128,-0.289 0.269,-0.576 0.389,-0.846 0.052,-0.117 0.06,-0.232 0.137,-0.32 -0.069,-0.166 -0.369,-0.144 -0.549,-0.206 m 4.367,-3.77 c -0.307,0.131 -0.586,0.393 -0.754,0.663 -0.08,0.128 -0.084,0.273 -0.16,0.411 -0.308,0.553 -0.622,1.234 -0.892,1.759 -0.149,0.291 -0.237,0.745 -0.434,0.983 l 0.023,0.069 c 0.134,0.107 0.625,0.097 0.754,0 l 0.046,0 0,0.045 c -0.172,0.111 -0.321,0.207 -0.572,0.252 -0.099,0.018 -0.294,-0.086 -0.411,-0.023 -0.113,0.06 -0.121,0.292 -0.183,0.412 l -0.092,0.091 -0.068,0.183 -0.183,0.137 0.023,0.206 -0.115,0.137 c -0.096,0.205 -0.137,0.373 -0.228,0.571 -0.071,0.155 -0.2,0.334 -0.275,0.48 -0.117,0.228 -0.156,0.475 -0.297,0.686 l -0.16,0.114 c -0.046,0.075 0.034,0.202 -0.023,0.297 -0.18,0.306 -0.414,0.66 -0.571,0.983 l 0,0.206 -0.115,0.137 c -0.096,0.182 -0.196,0.396 -0.274,0.572 l -0.046,0.205 -0.16,0.206 c -0.15,0.296 -0.216,0.641 -0.411,0.892 l -0.046,0.023 c -0.601,-1.292 -1.226,-2.515 -1.806,-3.818 -0.057,-0.127 -0.172,-0.265 -0.229,-0.388 -0.128,-0.279 -0.204,-0.527 -0.342,-0.8 -0.089,-0.176 -0.247,-0.369 -0.275,-0.595 l 0.206,-0.068 -0.229,-0.023 c -0.104,-0.042 -0.428,-0.712 -0.503,-0.846 -0.319,0.025 -0.767,0.057 -0.96,-0.114 l -0.068,-0.023 0,-0.046 c 0.394,0 0.573,-0.027 0.845,-0.16 -0.113,-0.425 -0.364,-0.82 -0.548,-1.188 -0.091,-0.182 -0.109,-0.422 -0.252,-0.549 L -40.26,2.285 -40.374,2.148 C -40.462,2.017 -40.471,1.875 -40.557,1.737 L -40.74,1.509 -40.9,1.211 -40.923,1.006 -41.174,0.777 c -0.151,-0.2 -0.318,-0.455 -0.526,-0.594 -0.107,-0.072 -0.299,-0.042 -0.412,-0.114 l -0.045,0 0.023,-0.023 c 0.189,-0.144 0.916,-0.034 1.165,0.023 0.258,0.059 0.511,0.048 0.801,0.068 0.08,0.006 0.134,0.082 0.228,0.046 l 0.206,-0.137 c 0.318,-0.112 0.85,-0.07 1.166,-0.046 l 0.023,0.069 0,0.023 0.023,-0.069 c 0.091,0.013 0.133,0.039 0.182,0.091 l 0.023,0.069 c -0.132,-0.001 -0.383,-0.054 -0.434,-0.046 -0.471,0.074 -0.991,0.228 -1.12,0.64 -0.118,0.173 0.062,0.897 0.16,1.006 -0.004,0.118 -0.02,0.137 -0.092,0.182 0.038,0.15 0.208,0.134 0.252,0.274 l -0.023,0.092 0.137,0.16 c 0.192,0.368 0.322,0.719 0.503,1.097 0.065,0.135 0.187,0.27 0.229,0.434 0.364,-0.015 0.792,-0.303 1.051,-0.457 l 0.229,-0.046 0.137,-0.206 c 0.102,-0.09 0.258,-0.176 0.366,-0.251 0.198,-0.139 0.489,-0.25 0.64,-0.434 0.176,0.019 0.82,0.5 0.846,0.663 0.349,-0.01 0.613,0.227 0.892,0.365 0.11,0.055 0.235,0.06 0.32,0.138 0.226,-0.083 0.466,-0.874 0.594,-1.121 0.062,-0.118 0.26,-0.292 0.297,-0.388 l -0.022,-0.206 c 0.109,-0.358 0.412,-0.754 0.525,-1.142 0.185,-0.632 -0.556,-0.93 -1.097,-0.914 l 0,-0.046 c 0.263,-0.068 0.508,-0.09 0.823,-0.023 l 0.274,0 0.137,0.092 0.183,-0.069 c 0.491,0.084 1.224,0.134 1.669,0.023 0.241,-0.06 0.365,0.098 0.48,-0.068 0.179,0.019 0.242,0.175 0.343,0.274 -0.046,0.069 -0.381,0.095 -0.48,0.137 m -12.254,-1.44 0.046,0.023 c -0.042,0.122 -0.182,0.279 -0.229,0.343 l -0.091,0.022 c 0.011,0.121 0,0.118 0,0.206 l -0.114,0.023 c 0.065,0.145 -0.104,0.421 -0.16,0.594 -0.048,0.146 0.014,0.285 -0.046,0.435 l -0.069,0.045 c -0.036,0.113 0.105,0.173 0.069,0.343 -0.027,0.125 0.024,0.31 0,0.435 -0.035,0.181 -0.058,0.468 -0.023,0.638 0.038,0.183 -0.087,0.341 -0.069,0.481 0.046,0.353 0.003,0.81 0.046,1.188 0.012,0.106 -0.093,0.136 -0.069,0.229 l 0.069,0.068 c -0.008,0.115 -0.015,0.229 -0.023,0.343 0.064,0.3 0.067,0.867 0.023,1.166 -0.076,0.518 0.053,0.891 -0.023,1.326 -0.02,0.113 0.044,0.112 0.046,0.206 0.009,0.365 0.052,1.152 0,1.508 -0.031,0.211 -0.014,0.536 0.023,0.709 -0.008,0.228 -0.015,0.457 -0.023,0.685 0.027,0.163 0.056,0.462 0.023,0.641 0.007,0.129 0.015,0.259 0.023,0.388 l -0.092,0.114 c -0.009,0.006 0.131,0.241 0.069,0.343 -0.012,0.131 -0.072,0.158 -0.16,0.206 0.029,0.132 0.147,0.144 0.183,0.251 l -0.023,0.092 c 0.005,0.116 0,0.497 0.046,0.663 0.069,0.256 0.14,0.552 0.274,0.754 0.098,0.148 0.348,0.301 0.526,0.366 l 0.183,0.023 0.022,0.137 0,0.045 c -0.468,-0.004 -0.879,-0.265 -1.348,-0.16 -0.24,0.054 -0.581,-0.01 -0.778,0.046 -0.352,0.101 -0.933,0.105 -1.28,0.069 l -0.023,-0.023 0,-0.206 c 0.271,-0.026 0.474,0.06 0.709,-0.023 0.744,-0.263 0.685,-1.161 0.846,-2.011 0.027,-0.146 -0.074,-0.391 0,-0.572 l 0.091,-0.114 c -0.07,-0.283 -0.046,-0.513 -0.046,-0.846 -0.007,-0.091 -0.015,-0.183 -0.022,-0.274 0.078,-0.387 0.023,-1.074 0.022,-1.623 l 0,-3.246 c 0,-0.883 0.095,-2.209 -0.045,-2.857 -0.045,-0.206 0.075,-0.548 -0.023,-0.708 l -0.023,-0.022 c -0.223,0.347 -0.624,0.73 -0.914,1.027 l -0.069,0.137 c -0.214,0.285 -0.49,0.523 -0.709,0.823 l -0.228,0.206 c -0.228,0.302 -0.481,0.566 -0.709,0.869 l -0.206,0.182 c -0.235,0.312 -0.496,0.581 -0.731,0.892 l -0.206,0.183 c -0.134,0.18 -0.277,0.419 -0.457,0.548 0.013,0.15 0.271,0.567 0.365,0.64 l 0,0.046 c -0.173,-0.027 -0.479,-0.122 -0.594,-0.229 -0.365,0.001 -0.757,0.652 -0.937,0.892 -0.193,0.256 -0.47,0.473 -0.663,0.731 -0.533,0.711 -1.118,1.386 -1.715,2.035 -0.141,-0.031 -0.258,-0.246 -0.343,-0.343 l -0.023,0 c 0.012,0.15 0.059,0.4 0.137,0.503 -0.129,0.366 -0.473,0.661 -0.708,0.937 -0.147,0.172 -0.256,0.366 -0.389,0.549 -0.205,0.281 -0.501,0.52 -0.709,0.8 -0.246,0.33 -0.545,0.739 -0.937,0.914 -0.112,0.05 -0.222,-0.009 -0.343,0.046 -0.083,0.037 -0.172,0.178 -0.274,0.205 -0.095,0.025 -0.278,-0.021 -0.389,0.046 l -0.091,0 c 0.075,-0.156 0.314,-0.225 0.434,-0.343 0.244,-0.241 0.432,-0.596 0.549,-0.96 0.007,-0.114 0.015,-0.229 0.022,-0.343 0.07,-0.264 0.092,-0.619 0.092,-0.937 0,-0.216 -0.026,-0.593 0.069,-0.686 l -0.115,-0.182 c 0.021,-0.098 -0.025,-0.344 0.023,-0.458 l 0.069,-0.045 0.023,-0.069 -0.115,-0.137 c 0.086,-0.19 0.07,-0.631 0.069,-0.983 L -54.96,8.617 c 0.108,-0.479 -0.011,-1.164 0,-1.646 0.01,-0.449 0.09,-1.31 0.023,-1.715 -0.048,-0.288 0.113,-0.647 0,-0.845 l -0.023,-0.229 0.114,-0.114 c -0.018,-0.094 -0.071,-0.083 -0.091,-0.137 -0.013,-0.035 0.023,-0.647 0.023,-0.823 0,-0.104 0.053,-0.414 0.045,-0.435 L -54.96,2.605 -54.937,2.376 C -54.946,2.208 -54.958,1.9 -54.983,1.76 c -0.068,-0.383 0.028,-0.872 -0.137,-1.143 -0.131,-0.215 -0.46,-0.26 -0.709,-0.366 -0.23,-0.097 -0.792,-0.379 -0.914,-0.571 l -0.023,-0.16 c -0.076,-0.151 -0.239,-0.17 -0.252,-0.411 l 0.138,0.022 0,0.069 c 0.152,0.037 0.238,0.237 0.365,0.32 0.254,0.165 0.985,0.341 1.121,0.549 l 0.137,-0.115 c 0.172,-0.079 0.319,0.038 0.503,0 0.184,-0.038 0.622,-0.048 0.846,-0.091 0.128,-0.025 0.355,0.041 0.457,0.023 0.354,-0.063 0.985,-0.069 1.28,0.046 0.161,0.062 0.277,0.207 0.412,0.297 l 0,0.068 c -0.579,-0.272 -1.579,-0.132 -1.898,0.297 -0.118,0.159 -0.189,0.413 -0.251,0.617 -0.097,0.316 0.034,1.161 -0.16,1.302 l 0.091,0.092 c -0.008,0.114 -0.015,0.228 -0.023,0.343 0.057,0.307 -0.03,0.76 0.023,1.028 0.038,0.196 -0.083,0.383 0,0.503 -0.009,0.105 -0.026,0.118 -0.091,0.16 0.019,0.096 0.066,0.08 0.091,0.137 l 0,1.943 c 0,0.764 -0.007,1.673 0.023,2.263 0.027,0.536 -0.06,1.166 0,1.692 l 0.023,0 c 0.088,-0.334 0.623,-0.862 0.846,-1.12 0.284,-0.329 0.54,-0.681 0.8,-1.029 l 0.16,-0.137 c 0.404,-0.538 0.849,-1.024 1.234,-1.577 l 0.137,-0.115 c 0.171,-0.226 0.336,-0.432 0.503,-0.662 0.091,-0.125 0.25,-0.198 0.298,-0.366 l -0.366,-0.686 0,-0.068 c 0.225,0.108 0.502,0.198 0.709,0.342 0.319,-0.03 0.678,-0.693 0.868,-0.914 0.374,-0.435 0.75,-0.859 1.098,-1.326 l 0.205,-0.183 0.069,-0.182 0.229,-0.138 c 0.082,-0.059 0.284,-0.32 0.343,-0.411 0.119,0.011 0.262,0.067 0.32,0.091 l 0.023,0 -0.161,-0.137 c 0.018,-0.296 0.463,-0.615 0.618,-0.822 0.328,-0.44 0.708,-0.81 1.097,-1.188 0.236,-0.23 0.456,-0.499 0.732,-0.686 l 0.183,-0.046 0.045,-0.137 0.503,-0.411 0.138,0 0.091,-0.137 c 0.212,-0.149 0.483,-0.139 0.777,-0.206 0.093,-0.021 0.31,-0.072 0.366,-0.046 l 0.023,0.023 -0.206,0.069 c -0.132,0.092 -0.326,0.413 -0.503,0.434 m 44.97,5.599 c 0.151,0.02 0.312,0.32 0.32,0.48 0.122,0.035 0.256,0.382 0.32,0.503 0.157,0.299 0.38,0.629 0.503,0.937 0.054,0.137 0.05,0.241 0.114,0.366 0.606,1.181 0.627,3.281 0.206,4.549 -0.236,0.708 -0.658,1.333 -1.052,1.897 l -0.411,0.434 -0.115,0 -0.068,0.206 -0.252,0.251 C 1.599,14.26 1.349,14.353 1.189,14.514 1.084,14.505 1.071,14.488 1.029,14.422 0.897,14.472 0.904,14.614 0.8,14.674 0.697,14.734 0.565,14.717 0.457,14.765 0.109,14.92 -0.319,15.1 -0.823,14.994 l -0.32,0 c -0.259,-0.097 -0.536,-0.309 -0.778,-0.389 l 0.023,-0.16 -0.023,-0.023 c -0.096,0.021 -0.1,0.066 -0.137,0.138 -0.205,-0.072 -0.462,-0.355 -0.731,-0.16 -0.189,0.063 -0.355,0.374 -0.366,0.617 -0.507,-0.092 -0.7,-0.908 -0.503,-1.463 0.117,-0.331 0.401,-0.466 0.594,-0.709 l 0.092,0.046 0.114,-0.137 c 0.168,-0.046 0.336,-0.092 0.503,-0.137 0.54,-0.126 1.515,0.335 1.601,0.663 0.092,0.005 0.092,-0.028 0.182,-0.046 0.119,-0.024 0.306,0.004 0.389,0.023 0.236,0.053 0.782,-0.011 0.96,-0.069 C 1.916,12.816 2.453,11.88 2.835,10.742 3.014,10.21 3.217,9.34 3.063,8.594 L 3.041,8.388 3.086,8.297 C 3.066,8.169 2.921,8.093 2.881,7.954 2.751,7.508 2.711,7.094 2.538,6.696 2.023,5.516 1.244,4.523 0.526,3.542 0.31,3.248 0.099,2.969 -0.16,2.719 l -0.069,-0.183 -0.137,0 0,-0.045 C -0.449,2.406 -0.529,2.319 -0.64,2.262 c 0.008,-0.373 0.015,-0.746 0.023,-1.119 0.234,0.043 0.423,0.332 0.571,0.48 0.461,0.46 0.925,0.918 1.303,1.462 0.151,0.217 0.487,0.399 0.503,0.731 L 1.829,3.794 1.852,3.862 1.829,3.931 c 0.133,0.066 0.363,0.408 0.389,0.571"
               id="path3723"
               style="fill:#f2bb1b;fill-opacity:1;fill-rule:evenodd;stroke:none"
               inkscape:connector-curvature="0" />
          </g>
          <g
             transform="translate(484.3107,434.88901)"
             id="g3725">
            <path
               d="m 0,0 c -0.401,0.113 -0.907,0.408 -0.869,0.869 l -0.068,0 c 0.002,1.494 0.023,3.18 0.023,4.867 l 0,1.029 c 0.007,0.092 0.015,0.183 0.022,0.274 -0.023,0.178 -0.039,0.364 -0.022,0.503 0.011,0.092 0.039,0.399 0.022,0.48 -0.1,0.498 0.086,0.993 -0.022,1.372 -0.052,0.178 0.001,0.509 0.068,0.594 0.098,0.119 0.227,0.048 0.412,0.091 0.291,0.069 0.585,0.108 0.731,0.321 l 0.023,0 0,0.045 c -0.377,0.071 -0.836,-0.176 -1.257,-0.114 -0.106,0.015 -0.151,-0.081 -0.252,-0.046 l -0.046,0.069 -0.32,0 -0.32,0.068 -0.32,0 c -0.265,0.064 -0.805,0.144 -1.12,0.046 -0.172,-0.054 -0.25,-0.207 -0.389,-0.274 l 0,-0.069 c 1.165,0.461 1.277,-0.669 1.189,-1.76 0.041,-0.082 0.041,-0.471 0.023,-0.571 -0.018,-0.104 0.009,-0.253 0.023,-0.32 0.028,-0.139 -0.03,-0.323 0,-0.458 0.061,-0.277 -0.048,-0.65 -0.023,-0.891 L -2.401,6.034 C -2.356,5.906 -2.548,5.792 -2.378,5.645 l -0.114,-0.16 c 0.016,-0.108 0.093,-0.145 0.046,-0.228 -10e-4,-0.125 0.018,-0.178 0.045,-0.252 0.083,0.022 0.179,0.051 0.275,0.069 L -2.103,5.051 C -2.144,4.941 -2.374,4.812 -2.469,4.753 l 0,-1.005 C -2.468,3.611 -2.372,3.549 -2.401,3.451 -2.428,3.357 -2.486,3.356 -2.492,3.245 -2.499,3.107 -2.434,2.924 -2.469,2.765 L -2.492,2.628 -2.446,2.468 -2.515,2.193 -2.469,1.852 C -2.582,1.215 -2.437,0.926 -2.766,0.48 -3.061,0.081 -3.534,-0.101 -4.024,0.023 -4.158,0.057 -4.198,0.015 -4.275,0.091 l -0.023,0 c 0.019,-0.21 0.254,-0.362 0.434,-0.411 l 0.183,0 c 0.123,-0.036 0.451,-0.099 0.64,-0.046 0.157,0.044 0.356,0.055 0.526,0.115 0.168,0.059 0.413,0.198 0.549,0.228 0.33,0.074 0.819,-0.096 1.074,-0.16 l 0.343,0 C -0.079,-0.301 0.475,-0.162 0.8,0 l 0.023,0.069 -0.023,0 C 0.8,0.069 0.195,-0.055 0,0 M -4.572,-0.663 -4.641,-0.754 C -5.044,-0.963 -5.49,-1.125 -5.898,-1.303 -6.612,-1.613 -7.439,-1.746 -8.23,-1.966 -8.444,-2.025 -8.705,-2.021 -8.939,-2.08 l -0.229,0 c -0.198,-0.06 -0.494,-0.066 -0.708,-0.114 l -0.572,0 c -0.354,-0.081 -0.998,-0.08 -1.349,0 l -0.503,0 c -0.536,0.119 -1.164,0.128 -1.646,0.274 -0.18,0.055 -0.31,0.011 -0.48,0.069 -0.242,0.081 -0.544,0.187 -0.777,0.274 -0.092,0.007 -0.183,0.015 -0.275,0.023 l -0.182,0.183 c -0.272,0.112 -0.562,0.12 -0.823,0.228 -0.997,0.413 -1.999,0.93 -2.607,1.737 -0.173,0.231 -0.401,0.45 -0.571,0.686 -0.417,0.576 -0.734,1.311 -1.029,1.988 -0.129,0.294 -0.316,0.955 -0.046,1.234 l 0,0.046 c -0.188,-0.018 -0.477,-0.108 -0.686,-0.069 -0.533,0.1 -0.996,0.334 -1.44,0.526 -0.151,0.065 -0.322,0.089 -0.457,0.16 l -0.023,0.023 c 0.118,0.073 0.45,0.034 0.594,0.091 0.425,0.169 0.761,0.409 1.098,0.663 0.094,0.071 0.135,0.177 0.205,0.274 l 0.206,0.206 c 0.221,0.316 0.399,0.616 0.618,0.937 l 0.548,0.297 0,0.046 -0.229,0 -0.251,0.16 c -0.384,0.287 -0.492,0.96 -0.983,1.143 l 0.023,0.069 c -0.059,0.295 -0.817,0.728 -1.098,0.868 -0.234,0.117 -0.498,0.274 -0.754,0.366 -0.179,0.065 -0.343,0.018 -0.549,0.069 l -0.251,0.091 c -0.155,0.045 -0.293,-0.09 -0.434,-0.046 l -0.115,0.092 c -0.114,0.037 -0.566,-0.026 -0.64,-0.046 -0.11,-0.029 -0.137,0.052 -0.206,0.046 -0.269,-0.024 -0.735,-0.019 -0.983,-0.092 l -0.571,0 c -0.244,-0.057 -0.476,-0.019 -0.709,-0.068 l -0.366,0 c -0.574,-0.173 -1.433,-0.085 -1.92,0.068 -0.216,0.068 -0.469,0.098 -0.595,0.252 l -0.068,0 0,-0.046 c 0.272,-0.255 0.553,-0.441 0.983,-0.549 0.412,-0.102 0.664,0.005 0.983,-0.205 l 0.251,-0.16 c 0.248,-0.336 0.182,-0.602 0.275,-1.029 0.025,-0.117 -0.035,-0.232 -0.023,-0.32 0.023,-0.161 0.05,-0.499 0.023,-0.571 -0.007,-0.228 0.093,-0.205 0.274,-0.229 l -0.251,-0.046 c -0.023,-0.173 0.001,-0.262 0.045,-0.388 0.005,-0.012 -0.058,-0.338 -0.068,-0.457 -0.031,-0.348 0.089,-0.64 0.023,-1.029 -0.031,-0.179 0,-0.424 0,-0.686 0.007,-0.67 0.015,-1.341 0.023,-2.011 0,-0.303 0.008,-0.717 -0.023,-0.915 -0.059,-0.366 0.027,-0.994 -0.161,-1.21 l 0,-0.251 c -0.083,-0.18 -0.751,-0.632 -1.074,-0.412 l -0.046,0 c 0.082,-0.216 0.767,-0.277 1.12,-0.206 0.292,0.059 0.629,-0.038 1.007,0.046 0.477,0.107 1.185,0.095 1.623,-0.023 0.179,-0.048 0.425,0.02 0.571,-0.068 l 0.046,0 c -0.078,0.214 -0.37,0.245 -0.572,0.342 -0.238,0.116 -0.557,0.296 -0.708,0.503 -0.121,0.166 -0.162,0.396 -0.343,0.503 l 0.114,0.137 -0.023,0.822 c -0.028,0.129 -0.073,0.669 -0.023,0.823 0.051,0.157 -0.105,0.529 -0.068,0.754 0.05,0.306 0.023,0.689 0.023,1.166 l 0,0.503 c 0.062,0.353 0.082,1.324 0,1.76 -0.012,0.059 0.069,0.34 0.045,0.457 -0.099,0.491 0.073,1.129 -0.023,1.6 -0.027,0.138 0.054,0.182 -0.022,0.275 l 0.022,0.183 c 0.154,0.102 0.378,0.007 0.549,0.045 0.385,0.086 0.937,0.04 1.281,-0.023 0.096,-0.017 0.215,0.034 0.342,0 0.279,-0.073 0.492,-0.112 0.755,-0.228 0.122,-0.054 0.249,-0.174 0.366,-0.229 l 0.137,-0.023 c 0.114,-0.114 0.229,-0.228 0.343,-0.342 l 0.045,-0.16 0.16,-0.138 0.138,0 -0.023,-0.228 0.068,-0.115 c 0.035,-0.122 -0.014,-0.264 0,-0.342 0.035,-0.192 0.097,-0.622 0.023,-0.846 -0.185,-0.566 -0.623,-1.112 -1.097,-1.394 -0.226,-0.135 -0.549,-0.203 -0.8,-0.298 -0.115,-0.007 -0.229,-0.015 -0.343,-0.022 -0.149,-0.058 -0.313,-0.07 -0.503,-0.115 -0.188,-0.044 -0.422,0.02 -0.572,-0.068 l -0.114,0 0,-0.023 c 0.071,-0.066 0.223,-0.229 0.343,-0.229 l 0.091,0.046 c 0.166,0.039 0.789,-0.029 0.938,-0.069 0.562,-0.149 0.915,-0.414 1.257,-0.777 0.157,-0.167 0.246,-0.391 0.389,-0.571 l 0.205,-0.137 0.046,-0.206 c 0.23,-0.326 0.514,-0.648 0.732,-0.983 l 0.023,-0.16 0.205,-0.182 0.138,-0.206 0.251,-0.228 c 0.281,-0.373 0.611,-0.68 0.937,-1.006 0.808,-0.808 1.578,-1.412 2.629,-1.989 0.294,-0.16 0.637,-0.375 0.961,-0.502 0.404,-0.159 0.819,-0.303 1.211,-0.458 0.245,-0.096 0.476,-0.073 0.732,-0.16 0.793,-0.269 2.061,-0.46 2.972,-0.434 l 0.092,-0.046 1.303,0 c 0.301,0.092 0.761,0.046 1.074,0.115 l 0.297,0 c 0.415,0.127 0.858,0.126 1.281,0.251 0.099,0.008 0.198,0.015 0.297,0.023 0.193,0.063 0.787,0.21 0.914,0.32 l 0.023,0 -0.091,0.183 -0.023,0 0.023,0.045 0.16,-0.114 c 0.395,-0.006 0.506,0.116 0.8,0.229 0.551,0.211 1.035,0.431 1.555,0.686 0.249,0.122 0.471,0.325 0.777,0.388 l 0,0.046 c -0.267,0.089 -0.583,0.029 -0.823,0.137 -0.067,0.03 -0.173,0.185 -0.297,0.137 m -13.283,11.36 c 0.202,-0.146 0.381,-0.489 0.457,-0.755 0.136,-0.475 0.103,-1.005 0.183,-1.417 0.008,-0.206 0.015,-0.411 0.023,-0.617 l 0.114,-0.114 c 0.036,-0.126 -0.108,-0.241 -0.068,-0.435 0.033,-0.163 -0.031,-0.466 0,-0.662 l 0.045,-0.069 -0.023,-0.183 c 0.005,-0.146 0.049,-0.387 0.023,-0.526 -0.027,-0.147 -0.026,-0.333 0,-0.457 l 0,-1.006 c 0,-0.47 -0.07,-0.866 -0.045,-1.302 l 0.091,-0.481 -0.091,-0.068 0,-0.343 c -10e-4,-0.363 -0.042,-0.595 -0.046,-0.959 -0.002,-0.122 -0.062,-0.289 0,-0.389 -0.048,-0.28 -0.399,-0.562 -0.709,-0.434 l -0.023,-0.023 c 0.038,-0.103 0.104,-0.101 0.183,-0.16 0.085,-0.063 0.171,-0.184 0.274,-0.228 0.221,-0.094 0.695,0.064 0.938,0 0.444,-0.117 1.128,-0.233 1.623,-0.138 0.098,0.02 0.136,-0.074 0.251,-0.045 0.192,0.047 0.28,0.214 0.412,0.32 l 0,0.045 c -0.199,-0.025 -0.41,-0.065 -0.572,-0.114 -0.156,-0.047 -0.308,0.053 -0.388,0.023 -0.159,0.041 -0.295,0.168 -0.412,0.251 -0.145,0.104 -0.294,0.168 -0.389,0.321 l -0.045,0.182 c -0.042,0.09 -0.122,0.238 -0.16,0.343 l 0,0.206 c -0.06,0.257 -0.071,0.629 -0.114,0.89 -0.044,0.265 0.024,0.749 -0.023,1.052 l 0.023,0.274 c -0.008,0.214 -0.016,0.427 -0.023,0.64 0,0.103 0.024,0.203 0,0.252 0.001,0.205 -0.048,0.243 -0.092,0.365 -0.141,-0.001 -0.196,-0.028 -0.297,-0.045 l 0,0.068 0.046,0.046 c 0.096,0.006 0.173,0.033 0.228,0 l 0.115,0.046 c -0.001,0.175 0.03,0.369 0.045,0.48 0.019,0.128 -0.031,0.314 -0.022,0.434 0.028,0.416 0.008,0.915 0.068,1.257 0.044,0.249 -0.092,0.713 0,0.869 l 0,0.023 c 0.255,-0.092 0.498,-0.521 0.686,-0.709 0.493,-0.493 1.033,-0.953 1.463,-1.509 l 0.183,-0.114 0.023,-0.091 0.206,-0.16 0.137,-0.183 c 0.182,-0.138 0.343,-0.297 0.503,-0.457 0.103,-0.104 0.172,-0.237 0.297,-0.32 -0.023,-0.143 -0.25,-0.565 -0.343,-0.64 l 0,-0.046 c 0.121,0.019 0.577,0.221 0.64,0.297 0.324,-0.009 0.717,-0.602 0.915,-0.8 0.098,-0.098 0.232,-0.166 0.274,-0.32 0.108,0.01 0.158,0.048 0.206,0.114 l 0.114,0 -0.114,-0.137 -0.069,0 c 0.033,-0.12 0.173,-0.173 0.252,-0.251 0.198,-0.206 0.396,-0.412 0.594,-0.617 l 0.137,-0.023 0.092,-0.206 0.32,-0.296 c 0.613,-0.503 1.182,-1.014 1.852,-1.463 0.115,-0.078 0.203,-0.235 0.32,-0.32 0.252,-0.184 1.011,-0.679 1.371,-0.457 l 0.023,0.046 c -0.32,0.151 -0.917,0.823 -0.731,1.28 L -7.019,0.8 c 0.022,0.119 0.101,0.165 0.115,0.297 0.006,0.065 -0.023,0.199 -0.023,0.297 l 0,1.074 -0.023,0.228 c 0.029,0.229 0.082,0.691 0.023,0.96 -0.022,0.1 -0.08,0.279 -0.046,0.412 0.089,0.342 0.054,0.732 0.069,1.189 0.022,0.713 -0.036,1.557 0.068,2.308 l -0.023,0.937 -0.068,0.069 0.091,0.091 0,0.275 c 0.023,0.228 0.046,0.457 0.069,0.685 0.136,0.442 0.52,0.577 0.732,0.937 l -0.024,0 -0.205,-0.045 c -0.152,-0.053 -0.454,-0.188 -0.686,-0.137 -0.156,0.034 -0.338,-0.046 -0.526,0 -0.201,0.049 -0.349,0.046 -0.549,0.091 l -0.503,0 c -0.216,0.055 -0.628,0.094 -0.868,0.023 -0.182,-0.054 -0.301,-0.177 -0.435,-0.274 l 0,-0.046 c 0.17,0.022 0.307,0.096 0.435,0.137 0.306,0.099 0.93,-0.13 1.074,-0.229 0.289,-0.197 0.433,-0.64 0.549,-1.005 L -7.819,8.959 C -7.811,8.7 -7.804,8.441 -7.796,8.182 -7.763,8.045 -7.751,7.911 -7.75,7.748 l -0.023,-0.16 c 0.052,-0.312 0.02,-0.677 0.046,-0.96 L -7.75,6.376 C -7.718,6.153 -7.697,5.757 -7.704,5.531 -7.714,5.268 -7.72,4.804 -7.659,4.548 L -7.704,4.411 c -0.035,-0.131 -0.038,-0.515 0,-0.686 0.033,-0.151 0.002,-0.411 -0.023,-0.526 l 0,-0.663 C -7.747,2.416 -7.792,1.913 -7.75,1.76 L -7.773,1.737 c -0.206,0.025 -0.73,0.637 -0.869,0.799 -0.079,0.093 -0.21,0.164 -0.297,0.252 -0.239,0.24 -0.464,0.497 -0.709,0.731 l -0.228,0.137 -0.206,0.297 -0.16,0.069 -0.023,0.137 -0.16,0.183 c -0.156,0.15 -0.701,0.637 -0.755,0.823 l 0.298,0.891 0,0.16 c -0.156,-0.058 -0.246,-0.332 -0.343,-0.457 l -0.183,-0.16 c -0.384,0.006 -0.442,0.299 -0.663,0.457 l -0.206,0.092 0,0.137 -0.137,0.137 -0.137,0.023 c -0.049,0.1 -0.107,0.207 -0.16,0.297 l -0.183,0.046 c -0.073,0.061 -0.021,0.087 -0.069,0.183 L -13.1,7.085 c -0.099,0.114 -0.198,0.229 -0.297,0.343 l -0.16,0.114 -0.069,0.137 c -0.087,0.088 -0.186,0.115 -0.297,0.183 -0.092,0.057 -0.106,0.203 -0.183,0.275 l -0.137,0.045 -0.229,0.297 c -0.203,0.204 -0.447,0.382 -0.64,0.595 -0.328,0.362 -0.773,0.888 -1.166,1.166 -0.385,0.271 -0.801,0.508 -1.303,0.662 -0.232,0.071 -0.457,-0.018 -0.64,0.092 l -0.023,0 c 0.05,-0.179 0.255,-0.201 0.389,-0.297 M 9.922,4.182 C 9.415,4.075 8.918,3.909 8.482,3.725 8.318,3.655 8.114,3.681 8.001,3.565 7.656,3.585 7.081,3.944 6.767,4.068 6.51,4.169 5.96,4.208 5.761,4.342 l -0.046,0 c 0.058,0.202 0.222,0.376 0.298,0.572 0.135,0.352 0.277,0.644 0.434,0.96 0.073,0.148 0.071,0.324 0.16,0.457 l 0.183,0.16 0,0.183 0.091,0.205 C 6.95,7.02 7.08,7.159 7.156,7.291 7.218,7.399 7.219,7.523 7.27,7.634 7.444,8.013 7.675,8.38 7.841,8.777 8.054,8.67 8.268,7.889 8.39,7.634 8.788,6.8 9.149,5.914 9.556,5.096 9.669,4.87 9.765,4.415 9.945,4.273 L 9.922,4.182 z m 3.772,-3.839 c -0.129,0.057 -0.144,0.156 -0.343,0.16 -0.097,0.2 -0.26,0.306 -0.366,0.48 -0.131,0.215 -0.187,0.429 -0.297,0.663 -0.177,0.375 -0.409,0.77 -0.594,1.142 -0.099,0.197 -0.136,0.372 -0.229,0.571 l -0.16,0.274 C 11.639,3.818 11.616,3.963 11.5,4.091 l 0.045,0.137 C 11.8,4.238 12.1,4.284 12.277,4.159 l 0.091,0 0,0.046 -0.183,0.137 -0.251,0.069 -0.549,0 c -0.126,0.06 -0.179,0.356 -0.251,0.48 l -0.114,0.228 -0.206,0.16 0.023,0.206 c -0.036,0.121 -0.15,0.254 -0.206,0.366 l -0.046,0.16 C 10.401,6.338 10.244,6.713 10.06,7.039 10.001,7.142 9.999,7.296 9.922,7.382 l -0.16,0.114 c -0.047,0.102 0.035,0.185 0,0.252 L 9.602,7.931 C 9.489,8.112 9.452,8.307 9.351,8.502 9.305,8.589 9.204,8.686 9.168,8.777 9.124,8.886 9.163,8.979 9.122,9.074 L 8.985,9.257 C 8.807,9.58 8.663,9.922 8.504,10.24 8.394,10.46 8.313,10.821 8.161,10.994 L 8.139,11.017 C 7.678,9.918 7.114,8.888 6.63,7.794 6.524,7.554 6.342,7.298 6.241,7.062 5.854,6.16 5.442,5.266 4.961,4.456 4.763,4.458 4.527,4.498 4.366,4.456 4.225,4.419 4.067,4.316 3.932,4.273 l 0,-0.045 C 4.062,4.243 4.191,4.258 4.321,4.273 4.478,4.243 4.685,4.206 4.824,4.182 4.802,3.962 4.676,3.818 4.595,3.656 4.457,3.379 4.351,3.11 4.207,2.856 4.118,2.701 4.087,2.487 3.955,2.376 L 3.978,2.262 C 3.943,2.092 3.711,1.854 3.635,1.691 3.585,1.584 3.58,1.496 3.521,1.394 L 3.406,1.257 3.384,1.029 3.155,0.869 C 2.822,0.466 2.755,0.107 2.035,0.137 2.118,-0.092 2.522,-0.095 2.789,-0.023 3.1,0.061 3.544,0.089 3.932,0.091 4.036,0.092 4.262,0.15 4.298,0.137 L 4.435,0.023 C 4.565,-0.008 4.694,-0.038 4.824,-0.069 5.25,-0.165 5.829,-0.094 5.99,0.16 l 0.023,0 0,0.023 C 5.864,0.17 5.662,0.08 5.487,0.114 5.029,0.205 4.559,0.315 4.412,0.709 4.306,0.995 4.453,1.424 4.527,1.669 4.542,1.783 4.557,1.897 4.572,2.011 4.882,2.653 5.208,3.377 5.578,3.976 5.971,3.896 6.306,3.675 6.607,3.496 L 6.835,3.451 6.927,3.291 C 7.018,3.225 7.11,3.195 7.201,3.131 l 0.16,-0.16 C 7.53,2.87 7.846,2.728 7.956,2.582 8.185,2.6 8.585,2.954 8.756,3.085 l 0.092,0.16 0.16,-0.023 0.091,0.092 C 9.224,3.393 9.39,3.46 9.511,3.519 9.687,3.607 9.899,3.623 10.037,3.748 10.21,3.702 10.36,3.149 10.448,2.971 10.489,2.887 10.604,2.765 10.631,2.673 L 10.608,2.582 10.7,2.445 l 0.205,-0.229 0,-0.205 C 10.994,1.75 11.175,1.469 11.294,1.211 11.36,1.067 11.513,0.699 11.385,0.526 11.35,0.115 10.733,-0.048 10.334,-0.091 l -0.023,-0.023 0,-0.046 c 0.294,0.058 0.683,-0.027 0.983,0.046 0.115,0.028 0.175,0.093 0.229,0.114 0.133,0.052 0.15,-0.091 0.274,-0.069 0.33,0.059 0.903,0.137 1.325,0.046 0.295,-0.063 0.717,0.053 0.823,-0.091 0.211,0.012 0.218,0.141 0.344,0.228 l 0,0.092 c -0.229,0.01 -0.416,0.058 -0.595,0.137 m -48.559,3.77 c -0.297,-0.102 -0.646,-0.233 -0.937,-0.342 -0.165,-0.063 -0.358,-0.058 -0.48,-0.16 -0.206,0.025 -0.365,0.156 -0.526,0.228 -0.313,0.142 -0.649,0.243 -0.96,0.366 -0.2,0.079 -0.614,0.081 -0.754,0.206 l 0.228,0.434 -0.023,0.069 -0.137,0.022 0,0.046 c 0.432,0.162 0.588,0.879 0.777,1.303 0.049,0.109 0.186,0.172 0.229,0.274 l 0,0.183 0.137,0.206 c 0.13,0.246 0.227,0.493 0.366,0.708 0.063,0.099 0.06,0.213 0.114,0.321 0.145,0.287 0.302,0.604 0.458,0.891 0.147,-0.125 0.3,-0.746 0.411,-0.96 0.108,-0.209 0.25,-0.467 0.343,-0.686 l 0.046,-0.228 c 0.237,-0.48 0.513,-1.013 0.731,-1.509 0.128,-0.289 0.269,-0.576 0.389,-0.846 0.052,-0.117 0.06,-0.232 0.137,-0.32 -0.069,-0.166 -0.369,-0.144 -0.549,-0.206 m 4.367,-3.77 c -0.307,0.131 -0.586,0.393 -0.754,0.663 -0.08,0.128 -0.084,0.273 -0.16,0.411 -0.308,0.553 -0.622,1.234 -0.892,1.759 -0.149,0.291 -0.237,0.745 -0.434,0.983 l 0.023,0.069 c 0.134,0.107 0.625,0.097 0.754,0 l 0.046,0 0,0.045 c -0.172,0.111 -0.321,0.207 -0.572,0.252 -0.099,0.018 -0.294,-0.086 -0.411,-0.023 -0.112,0.06 -0.121,0.292 -0.183,0.412 l -0.092,0.091 -0.068,0.183 -0.183,0.137 0.023,0.206 -0.115,0.137 c -0.096,0.205 -0.137,0.373 -0.228,0.571 -0.071,0.155 -0.2,0.334 -0.275,0.48 -0.117,0.228 -0.156,0.475 -0.297,0.686 l -0.16,0.114 c -0.046,0.075 0.034,0.202 -0.023,0.297 -0.181,0.306 -0.415,0.66 -0.571,0.983 l 0,0.206 -0.115,0.137 c -0.096,0.182 -0.196,0.396 -0.274,0.572 l -0.046,0.205 -0.16,0.206 c -0.15,0.296 -0.216,0.641 -0.411,0.892 l -0.046,0.022 c -0.601,-1.291 -1.226,-2.514 -1.806,-3.817 -0.057,-0.127 -0.171,-0.265 -0.229,-0.388 -0.128,-0.279 -0.204,-0.527 -0.343,-0.8 -0.088,-0.176 -0.246,-0.37 -0.274,-0.595 l 0.206,-0.068 -0.229,-0.023 c -0.104,-0.042 -0.428,-0.712 -0.503,-0.846 -0.319,0.025 -0.767,0.057 -0.96,-0.114 l -0.068,-0.023 0,-0.046 c 0.394,0 0.573,-0.027 0.845,-0.16 -0.113,-0.425 -0.363,-0.82 -0.548,-1.188 -0.091,-0.182 -0.109,-0.422 -0.252,-0.549 L -40.26,2.285 -40.374,2.148 C -40.462,2.017 -40.471,1.875 -40.557,1.737 L -40.74,1.509 -40.9,1.211 -40.923,1.006 -41.174,0.777 c -0.151,-0.2 -0.318,-0.455 -0.526,-0.594 -0.107,-0.072 -0.299,-0.042 -0.412,-0.114 l -0.045,0 0.023,-0.023 c 0.189,-0.144 0.917,-0.034 1.165,0.023 0.258,0.059 0.511,0.048 0.801,0.068 0.08,0.006 0.134,0.082 0.228,0.046 l 0.206,-0.137 c 0.318,-0.112 0.85,-0.07 1.166,-0.046 l 0.023,0.069 0,0.022 0.023,-0.068 c 0.091,0.013 0.133,0.039 0.182,0.091 l 0.023,0.069 c -0.132,-0.001 -0.383,-0.054 -0.434,-0.046 -0.47,0.074 -0.991,0.228 -1.12,0.64 -0.118,0.173 0.062,0.897 0.16,1.006 -0.004,0.118 -0.02,0.137 -0.092,0.182 0.038,0.15 0.208,0.134 0.252,0.274 l -0.023,0.092 0.137,0.16 c 0.192,0.368 0.322,0.719 0.503,1.097 0.065,0.135 0.187,0.27 0.229,0.434 0.364,-0.015 0.792,-0.303 1.051,-0.457 l 0.229,-0.046 0.137,-0.205 c 0.102,-0.091 0.258,-0.177 0.366,-0.252 0.198,-0.139 0.488,-0.25 0.64,-0.434 0.176,0.019 0.82,0.5 0.846,0.663 0.349,-0.01 0.613,0.227 0.892,0.365 0.11,0.055 0.235,0.06 0.32,0.137 0.226,-0.082 0.466,-0.873 0.594,-1.12 0.062,-0.118 0.26,-0.292 0.297,-0.388 l -0.023,-0.206 c 0.11,-0.358 0.413,-0.754 0.526,-1.142 0.185,-0.632 -0.556,-0.93 -1.097,-0.914 l 0,-0.046 c 0.263,-0.068 0.508,-0.09 0.823,-0.023 l 0.274,0 0.137,0.092 0.183,-0.069 c 0.491,0.084 1.224,0.134 1.669,0.023 0.241,-0.06 0.365,0.098 0.48,-0.069 0.179,0.02 0.242,0.176 0.343,0.275 -0.046,0.069 -0.381,0.095 -0.48,0.137 m -12.254,-1.44 0.046,0.023 c -0.042,0.122 -0.182,0.279 -0.229,0.343 l -0.091,0.023 c 0.011,0.12 0,0.117 0,0.205 l -0.115,0.023 c 0.065,0.145 -0.103,0.421 -0.16,0.594 -0.047,0.146 0.015,0.285 -0.045,0.435 l -0.069,0.045 c -0.036,0.113 0.105,0.173 0.069,0.343 -0.027,0.125 0.024,0.31 0,0.434 -0.035,0.182 -0.059,0.469 -0.023,0.64 0.038,0.182 -0.087,0.34 -0.069,0.48 0.046,0.353 0.003,0.81 0.046,1.188 0.012,0.105 -0.092,0.136 -0.069,0.229 l 0.069,0.068 c -0.008,0.115 -0.015,0.229 -0.023,0.343 0.064,0.3 0.067,0.866 0.023,1.166 -0.076,0.518 0.053,0.891 -0.023,1.326 -0.02,0.113 0.044,0.112 0.046,0.205 0.009,0.366 0.052,1.153 0,1.509 -0.031,0.211 -0.014,0.536 0.023,0.709 -0.008,0.228 -0.016,0.457 -0.023,0.685 0.027,0.163 0.056,0.462 0.023,0.64 0.007,0.13 0.015,0.26 0.023,0.389 l -0.092,0.114 c -0.009,0.006 0.131,0.241 0.069,0.343 -0.012,0.131 -0.072,0.158 -0.16,0.206 0.029,0.132 0.147,0.144 0.183,0.251 l -0.023,0.092 c 0.005,0.116 0,0.497 0.045,0.663 0.07,0.256 0.141,0.552 0.275,0.754 0.098,0.148 0.348,0.301 0.526,0.366 l 0.183,0.023 0.022,0.137 0,0.046 c -0.468,-0.005 -0.879,-0.266 -1.348,-0.16 -0.24,0.053 -0.581,-0.011 -0.778,0.045 -0.352,0.101 -0.933,0.105 -1.28,0.069 l -0.023,-0.023 0,-0.206 c 0.271,-0.026 0.474,0.06 0.709,-0.023 0.744,-0.263 0.685,-1.161 0.846,-2.011 0.027,-0.146 -0.074,-0.391 0,-0.572 l 0.091,-0.114 c -0.07,-0.283 -0.046,-0.513 -0.046,-0.846 -0.007,-0.091 -0.015,-0.183 -0.022,-0.274 0.078,-0.387 0.022,-1.074 0.022,-1.623 l 0,-3.246 c 0,-0.883 0.095,-2.209 -0.045,-2.857 -0.045,-0.206 0.075,-0.547 -0.023,-0.708 l -0.023,-0.023 c -0.224,0.348 -0.624,0.731 -0.914,1.028 l -0.069,0.137 c -0.214,0.285 -0.49,0.523 -0.709,0.823 l -0.228,0.206 c -0.228,0.302 -0.481,0.566 -0.709,0.869 l -0.206,0.182 c -0.234,0.312 -0.496,0.581 -0.731,0.892 l -0.206,0.183 c -0.134,0.18 -0.277,0.419 -0.457,0.548 0.013,0.15 0.271,0.566 0.365,0.64 l 0,0.046 c -0.173,-0.027 -0.479,-0.122 -0.594,-0.228 -0.365,0 -0.757,0.651 -0.937,0.891 -0.193,0.256 -0.47,0.473 -0.663,0.731 -0.533,0.711 -1.119,1.387 -1.715,2.035 -0.141,-0.031 -0.258,-0.246 -0.343,-0.343 l -0.023,0 c 0.012,0.15 0.059,0.4 0.137,0.503 -0.129,0.366 -0.473,0.662 -0.708,0.937 -0.147,0.172 -0.256,0.366 -0.389,0.548 -0.205,0.283 -0.501,0.521 -0.709,0.801 -0.246,0.33 -0.546,0.739 -0.937,0.914 -0.112,0.05 -0.222,-0.009 -0.343,0.046 -0.083,0.037 -0.172,0.178 -0.274,0.205 -0.095,0.025 -0.278,-0.021 -0.389,0.046 l -0.091,0 c 0.074,-0.156 0.314,-0.224 0.434,-0.343 0.244,-0.241 0.432,-0.596 0.549,-0.96 0.007,-0.114 0.015,-0.229 0.022,-0.343 0.069,-0.264 0.092,-0.619 0.092,-0.937 0,-0.216 -0.026,-0.593 0.068,-0.686 l -0.114,-0.183 c 0.021,-0.096 -0.024,-0.343 0.023,-0.457 l 0.069,-0.045 0.022,-0.069 -0.114,-0.137 c 0.086,-0.19 0.07,-0.631 0.069,-0.983 L -54.96,8.616 c 0.108,-0.478 -0.011,-1.163 0,-1.645 0.01,-0.449 0.09,-1.31 0.023,-1.714 -0.048,-0.288 0.113,-0.648 0,-0.846 l -0.023,-0.229 0.114,-0.114 c -0.018,-0.094 -0.071,-0.083 -0.091,-0.137 -0.013,-0.035 0.023,-0.647 0.023,-0.823 0,-0.104 0.053,-0.414 0.045,-0.435 L -54.96,2.605 -54.937,2.376 C -54.946,2.208 -54.958,1.9 -54.983,1.76 c -0.068,-0.383 0.028,-0.872 -0.137,-1.143 -0.131,-0.215 -0.46,-0.26 -0.709,-0.366 -0.23,-0.097 -0.792,-0.38 -0.914,-0.571 l -0.023,-0.16 c -0.076,-0.151 -0.239,-0.17 -0.252,-0.411 l 0.138,0.022 0,0.069 c 0.152,0.037 0.238,0.237 0.365,0.32 0.254,0.165 0.985,0.341 1.121,0.549 l 0.137,-0.115 c 0.172,-0.079 0.319,0.038 0.503,0 0.184,-0.037 0.622,-0.048 0.846,-0.091 0.128,-0.025 0.355,0.041 0.457,0.023 0.354,-0.063 0.985,-0.069 1.28,0.045 0.161,0.063 0.277,0.208 0.412,0.298 l 0,0.068 c -0.579,-0.272 -1.579,-0.132 -1.898,0.297 -0.118,0.159 -0.189,0.413 -0.251,0.617 -0.097,0.316 0.034,1.161 -0.161,1.302 l 0.092,0.092 c -0.008,0.114 -0.015,0.228 -0.023,0.343 0.057,0.307 -0.03,0.76 0.023,1.028 0.038,0.196 -0.083,0.383 0,0.503 -0.009,0.105 -0.026,0.118 -0.092,0.16 0.02,0.096 0.067,0.08 0.092,0.137 l 0,1.943 c 0,0.764 -0.007,1.673 0.023,2.263 0.027,0.537 -0.06,1.166 0,1.692 l 0.023,0 c 0.088,-0.334 0.622,-0.862 0.846,-1.12 0.284,-0.329 0.54,-0.681 0.8,-1.029 l 0.16,-0.137 c 0.404,-0.538 0.849,-1.024 1.234,-1.577 l 0.137,-0.114 c 0.171,-0.227 0.336,-0.433 0.504,-0.663 0.09,-0.125 0.249,-0.198 0.297,-0.366 l -0.366,-0.686 0,-0.068 c 0.225,0.108 0.502,0.198 0.709,0.343 0.319,-0.031 0.678,-0.694 0.868,-0.915 0.374,-0.435 0.75,-0.859 1.098,-1.326 l 0.205,-0.183 0.069,-0.182 0.229,-0.138 c 0.082,-0.06 0.284,-0.32 0.343,-0.411 0.119,0.011 0.262,0.067 0.32,0.091 l 0.023,0 -0.161,-0.137 c 0.018,-0.296 0.463,-0.615 0.618,-0.822 0.328,-0.44 0.708,-0.81 1.097,-1.188 0.236,-0.23 0.456,-0.499 0.732,-0.686 l 0.182,-0.046 0.046,-0.137 0.503,-0.411 0.137,0 0.092,-0.137 c 0.212,-0.149 0.483,-0.139 0.777,-0.206 0.093,-0.021 0.31,-0.072 0.366,-0.046 l 0.023,0.023 -0.206,0.069 c -0.132,0.092 -0.326,0.413 -0.503,0.434 M 2.217,4.502 c 0.152,0.02 0.313,0.32 0.321,0.48 0.122,0.034 0.256,0.382 0.32,0.503 0.157,0.299 0.38,0.629 0.503,0.937 0.054,0.137 0.05,0.241 0.114,0.366 0.606,1.181 0.627,3.281 0.206,4.549 -0.236,0.708 -0.658,1.333 -1.052,1.897 l -0.412,0.434 -0.114,0 -0.068,0.206 -0.252,0.251 C 1.599,14.26 1.349,14.353 1.189,14.514 1.084,14.505 1.071,14.488 1.029,14.422 0.897,14.472 0.904,14.614 0.8,14.674 c -0.103,0.06 -0.235,0.043 -0.343,0.091 -0.348,0.156 -0.776,0.336 -1.28,0.229 l -0.32,0 c -0.259,-0.097 -0.536,-0.309 -0.778,-0.389 l 0.023,-0.16 -0.023,-0.023 c -0.096,0.021 -0.1,0.066 -0.137,0.138 -0.205,-0.072 -0.462,-0.355 -0.731,-0.16 -0.189,0.063 -0.355,0.374 -0.366,0.617 -0.507,-0.092 -0.7,-0.908 -0.503,-1.463 0.118,-0.331 0.401,-0.466 0.594,-0.709 l 0.092,0.046 0.114,-0.137 c 0.168,-0.046 0.336,-0.091 0.503,-0.137 0.54,-0.126 1.515,0.335 1.601,0.663 0.092,0.005 0.092,-0.028 0.182,-0.046 0.119,-0.024 0.306,0.004 0.389,0.023 0.236,0.053 0.782,-0.011 0.96,-0.069 C 1.916,12.816 2.453,11.88 2.835,10.742 3.014,10.21 3.217,9.34 3.063,8.594 L 3.041,8.388 3.086,8.296 C 3.066,8.169 2.921,8.093 2.881,7.954 2.751,7.508 2.711,7.094 2.538,6.697 2.023,5.516 1.244,4.523 0.526,3.542 0.31,3.248 0.099,2.969 -0.16,2.719 l -0.069,-0.183 -0.137,0 0,-0.045 C -0.449,2.406 -0.53,2.319 -0.64,2.262 -0.633,1.89 -0.625,1.516 -0.617,1.143 c 0.234,0.043 0.423,0.332 0.571,0.48 0.461,0.46 0.925,0.918 1.303,1.462 0.151,0.217 0.486,0.399 0.503,0.731 L 1.829,3.793 1.852,3.862 1.829,3.931 c 0.133,0.066 0.362,0.408 0.388,0.571"
               id="path3727"
               style="fill:#e4192a;fill-opacity:1;fill-rule:evenodd;stroke:none"
               inkscape:connector-curvature="0" />
          </g>
        </g>
      </g>
      <g
         transform="matrix(1.25,0,0,-1.25,-5.9483339,1004.1273)"
         id="g3729">
        <g
           clip-path="url(#clipPath3733)"
           id="g3731">
          <g
             transform="matrix(0.062027,0,0,0.0620117,484.31876,434.86241)"
             id="g3737">
            <path
               d="m 0,0 c -6.473,1.822 -14.623,6.578 -14.006,14.006 l -1.106,0 c 0.03,24.097 0.369,51.287 0.369,78.493 l 0,16.587 c 0.122,1.476 0.246,2.949 0.368,4.424 -0.371,2.869 -0.642,5.856 -0.368,8.107 0.179,1.481 0.632,6.424 0.368,7.74 -1.611,8.029 1.385,16.01 -0.368,22.116 -0.824,2.867 0.022,8.209 1.106,9.584 1.578,1.91 3.655,0.775 6.633,1.473 4.695,1.1 9.435,1.728 11.796,5.161 l 0.37,0 0,0.737 c -6.076,1.15 -13.485,-2.845 -20.274,-1.844 -1.706,0.251 -2.43,-1.296 -4.055,-0.736 l -0.737,1.105 -5.16,0 -5.161,1.107 -5.159,0 c -4.271,1.031 -12.98,2.323 -18.061,0.737 -2.772,-0.865 -4.038,-3.339 -6.266,-4.424 l 0,-1.105 c 18.779,7.439 20.584,-10.789 19.167,-28.381 0.664,-1.321 0.65,-7.595 0.368,-9.216 -0.289,-1.663 0.144,-4.074 0.368,-5.159 0.461,-2.233 -0.481,-5.194 0,-7.371 0.994,-4.477 -0.771,-10.491 -0.368,-14.375 l 1.475,-1.475 c 0.718,-2.058 -2.378,-3.889 0.368,-6.267 l -1.843,-2.579 c 0.264,-1.746 1.499,-2.333 0.738,-3.685 -0.014,-2.01 0.291,-2.856 0.737,-4.056 1.334,0.351 2.885,0.829 4.421,1.107 l 0.368,-0.37 c -0.649,-1.77 -4.362,-3.852 -5.896,-4.792 l 0,-16.217 c 0.021,-2.209 1.573,-3.203 1.107,-4.791 -0.446,-1.517 -1.379,-1.524 -1.475,-3.318 -0.118,-2.231 0.937,-5.178 0.368,-7.739 l -0.368,-2.213 0.738,-2.58 -1.106,-4.423 0.736,-5.513 C -41.634,19.588 -39.286,14.936 -44.6,7.74 -49.348,1.307 -56.981,-1.631 -64.871,0.369 -67.043,0.92 -67.684,0.248 -68.925,1.475 l -0.369,0 c 0.309,-3.399 4.096,-5.85 7.004,-6.635 l 2.948,0 c 1.977,-0.574 7.271,-1.598 10.32,-0.738 2.524,0.713 5.734,0.876 8.478,1.843 2.703,0.955 6.662,3.196 8.846,3.685 5.319,1.196 13.209,-1.554 17.323,-2.579 l 5.529,0 C -1.276,-4.848 7.66,-2.613 12.9,0 l 0.37,1.105 -0.37,0 C 12.895,1.109 3.153,-0.889 0,0 z m -73.717,-10.688 -1.108,-1.475 c -6.498,-3.372 -13.684,-5.983 -20.269,-8.847 -11.507,-5.005 -24.845,-7.148 -37.598,-10.689 -3.439,-0.953 -7.648,-0.884 -11.426,-1.844 l -3.686,0 c -3.198,-0.96 -7.971,-1.064 -11.425,-1.84 l -9.216,0 c -5.706,-1.297 -16.083,-1.291 -21.744,0 l -8.111,0 c -8.654,1.929 -18.771,2.063 -26.538,4.42 -2.909,0.887 -5.003,0.188 -7.739,1.108 -3.91,1.313 -8.767,3.03 -12.535,4.423 -1.472,0.121 -2.947,0.244 -4.421,0.368 l -2.948,2.949 c -4.379,1.812 -9.057,1.941 -13.269,3.685 -16.071,6.659 -32.224,14.989 -42.02,28.014 -2.799,3.723 -6.472,7.258 -9.214,11.057 -6.711,9.294 -11.83,21.138 -16.587,32.05 -2.072,4.75 -5.096,15.411 -0.736,19.905 l 0,0.737 c -3.033,-0.286 -7.696,-1.735 -11.06,-1.106 -8.59,1.607 -16.053,5.388 -23.22,8.477 -2.439,1.051 -5.195,1.438 -7.37,2.581 l -0.37,0.367 c 1.904,1.185 7.263,0.553 9.583,1.475 6.855,2.723 12.264,6.589 17.692,10.689 1.516,1.145 2.178,2.856 3.317,4.424 l 3.32,3.317 c 3.56,5.094 6.425,9.937 9.952,15.111 l 8.844,4.792 0,0.737 -3.686,0 -4.054,2.581 c -6.196,4.628 -7.93,15.473 -15.849,18.429 l 0.369,1.106 c -0.944,4.765 -13.17,11.74 -17.693,14.007 -3.772,1.889 -8.038,4.414 -12.163,5.897 -2.893,1.04 -5.533,0.285 -8.846,1.105 l -4.055,1.475 c -2.505,0.725 -4.716,-1.459 -7.003,-0.737 l -1.843,1.473 c -1.844,0.606 -9.123,-0.414 -10.321,-0.736 -1.766,-0.475 -2.208,0.832 -3.317,0.736 -4.335,-0.375 -11.853,-0.297 -15.849,-1.473 l -9.215,0 c -3.934,-0.931 -7.678,-0.316 -11.426,-1.107 l -5.897,0 c -9.262,-2.785 -23.108,-1.37 -30.961,1.107 -3.473,1.095 -7.55,1.57 -9.584,4.054 l -1.105,0 0,-0.738 c 4.396,-4.115 8.924,-7.118 15.85,-8.846 6.642,-1.657 10.712,0.068 15.848,-3.317 l 4.054,-2.578 c 3.991,-5.419 2.935,-9.699 4.425,-16.588 0.408,-1.897 -0.569,-3.748 -0.37,-5.16 0.367,-2.595 0.813,-8.053 0.37,-9.216 -0.112,-3.666 1.503,-3.304 4.422,-3.685 l -4.055,-0.736 c -0.361,-2.788 0.024,-4.23 0.737,-6.267 0.073,-0.189 -0.936,-5.442 -1.104,-7.372 -0.491,-5.598 1.439,-10.318 0.367,-16.587 -0.494,-2.891 0,-6.836 0,-11.056 0.123,-10.812 0.246,-21.626 0.369,-32.436 0,-4.874 0.138,-11.551 -0.369,-14.743 -0.939,-5.911 0.433,-16.035 -2.581,-19.519 l 0,-4.055 c -1.354,-2.895 -12.122,-10.19 -17.322,-6.635 l -0.738,0 c 1.32,-3.49 12.354,-4.461 18.06,-3.316 4.692,0.939 10.128,-0.625 16.219,0.736 7.694,1.719 19.109,1.533 26.17,-0.37 2.891,-0.778 6.855,0.328 9.214,-1.105 l 0.738,0 c -1.254,3.457 -5.959,3.95 -9.215,5.53 -3.849,1.868 -8.991,4.763 -11.426,8.109 -1.949,2.676 -2.607,6.383 -5.529,8.108 l 1.842,2.21 -0.368,13.256 c -0.453,2.08 -1.173,10.784 -0.369,13.268 0.82,2.528 -1.698,8.534 -1.105,12.164 0.805,4.933 0.368,11.105 0.368,18.798 l 0,8.108 c 1.005,5.693 1.322,21.346 0,28.381 -0.179,0.955 1.123,5.473 0.737,7.372 -1.603,7.915 1.17,18.206 -0.368,25.801 -0.449,2.216 0.867,2.933 -0.369,4.423 l 0.369,2.948 c 2.471,1.651 6.091,0.122 8.846,0.737 6.212,1.389 15.1,0.645 20.641,-0.368 1.549,-0.283 3.47,0.544 5.53,0 4.482,-1.184 7.928,-1.806 12.162,-3.684 1.972,-0.877 4.008,-2.799 5.897,-3.688 l 2.213,-0.368 c 1.841,-1.843 3.686,-3.688 5.528,-5.528 l 0.738,-2.58 2.579,-2.212 2.211,0 -0.369,-3.687 1.107,-1.842 c 0.559,-1.981 -0.227,-4.261 0,-5.53 0.554,-3.091 1.556,-10.02 0.368,-13.636 -2.995,-9.134 -10.046,-17.929 -17.692,-22.484 -3.644,-2.172 -8.842,-3.269 -12.901,-4.793 -1.841,-0.121 -3.686,-0.244 -5.528,-0.367 -2.4,-0.921 -5.045,-1.121 -8.109,-1.844 -3.032,-0.715 -6.803,0.313 -9.214,-1.106 l -1.843,0 0,-0.369 c 1.148,-1.06 3.599,-3.693 5.528,-3.684 l 1.474,0.736 c 2.672,0.627 12.71,-0.468 15.113,-1.104 9.068,-2.412 14.764,-6.69 20.272,-12.534 2.535,-2.689 3.959,-6.306 6.266,-9.213 l 3.317,-2.212 0.738,-3.318 c 3.708,-5.259 8.278,-10.443 11.793,-15.848 l 0.37,-2.58 3.316,-2.939 2.212,-3.311 4.054,-3.687 c 4.529,-6.007 9.857,-10.962 15.113,-16.218 13.02,-13.022 25.436,-22.771 42.387,-32.066 4.728,-2.592 10.267,-6.059 15.48,-8.109 6.51,-2.559 13.21,-4.885 19.534,-7.374 3.941,-1.546 7.673,-1.177 11.796,-2.578 12.79,-4.341 33.233,-7.425 47.917,-7.004 l 1.474,-0.736 21.011,0 c 4.855,1.484 12.269,0.731 17.324,1.842 l 4.789,0 c 6.686,2.053 13.83,2.039 20.642,4.055 1.597,0.123 3.194,0.246 4.792,0.369 3.113,1.019 12.686,3.39 14.743,5.16 l 0.369,0 -1.475,2.949 -0.369,0 0.369,0.735 2.58,-1.842 c 6.37,-0.106 8.156,1.867 12.9,3.687 8.878,3.401 16.687,6.947 25.065,11.057 4.026,1.974 7.603,5.244 12.531,6.265 l 0,0.739 c -4.304,1.435 -9.396,0.465 -13.268,2.211 -1.074,0.483 -2.787,2.99 -4.792,2.212 z m -214.149,183.171 c 3.264,-2.357 6.141,-7.872 7.372,-12.163 2.197,-7.668 1.66,-16.213 2.949,-22.853 0.123,-3.318 0.245,-6.635 0.369,-9.951 l 1.842,-1.845 c 0.583,-2.023 -1.749,-3.88 -1.107,-7.003 0.544,-2.634 -0.49,-7.523 0,-10.688 l 0.738,-1.105 -0.367,-2.951 c 0.078,-2.349 0.778,-6.242 0.367,-8.477 -0.439,-2.38 -0.427,-5.369 0,-7.371 l 0,-16.217 c -0.001,-7.59 -1.129,-13.975 -0.738,-21.009 l 1.476,-7.741 -1.476,-1.107 0,-5.527 c -0.001,-5.856 -0.663,-9.6 -0.735,-15.465 -0.025,-1.97 -1.002,-4.653 0,-6.266 -0.771,-4.517 -6.437,-9.07 -11.429,-7.004 l -0.365,-0.369 c 0.611,-1.66 1.678,-1.631 2.948,-2.58 1.365,-1.02 2.753,-2.976 4.421,-3.686 3.56,-1.515 11.201,1.032 15.112,0 7.162,-1.884 18.19,-3.749 26.17,-2.21 1.588,0.306 2.191,-1.196 4.055,-0.737 3.094,0.758 4.507,3.459 6.636,5.16 l 0,0.737 c -3.216,-0.409 -6.604,-1.061 -9.215,-1.844 -2.523,-0.752 -4.973,0.848 -6.269,0.369 -2.562,0.664 -4.756,2.716 -6.634,4.053 -2.344,1.676 -4.749,2.705 -6.266,5.162 l -0.736,2.949 c -0.67,1.442 -1.968,3.828 -2.58,5.528 l 0,3.318 c -0.959,4.144 -1.143,10.146 -1.842,14.359 -0.708,4.259 0.392,12.073 -0.369,16.955 l 0.369,4.422 c -0.123,3.441 -0.245,6.881 -0.369,10.32 0.005,1.662 0.39,3.264 0,4.055 0.02,3.313 -0.766,3.924 -1.475,5.899 -2.28,-0.016 -3.162,-0.461 -4.791,-0.74 l 0,1.108 0.738,0.736 c 1.552,0.091 2.791,0.54 3.685,0 l 1.843,0.737 c -0.01,2.821 0.483,5.954 0.738,7.741 0.293,2.062 -0.502,5.069 -0.369,7.004 0.455,6.703 0.138,14.75 1.105,20.271 0.701,4.008 -1.479,11.498 0,14.006 l 0,0.369 c 4.117,-1.484 8.024,-8.392 11.057,-11.426 7.957,-7.957 16.662,-15.364 23.59,-24.326 l 2.948,-1.844 0.37,-1.473 3.317,-2.581 2.211,-2.95 c 2.937,-2.226 5.528,-4.788 8.109,-7.372 1.671,-1.669 2.783,-3.818 4.793,-5.159 -0.367,-2.303 -4.025,-9.098 -5.53,-10.32 l 0,-0.736 c 1.941,0.308 9.307,3.57 10.319,4.791 5.225,-0.155 11.552,-9.707 14.744,-12.901 1.584,-1.584 3.739,-2.685 4.423,-5.16 1.737,0.156 2.548,0.779 3.318,1.842 l 1.844,0 -1.844,-2.211 -1.105,0 c 0.532,-1.94 2.789,-2.79 4.055,-4.054 3.193,-3.317 6.389,-6.636 9.582,-9.952 l 2.212,-0.37 1.475,-3.309 5.158,-4.782 c 9.89,-8.113 19.064,-16.351 29.857,-23.59 1.861,-1.248 3.274,-3.785 5.161,-5.16 4.075,-2.971 16.306,-10.946 22.114,-7.371 l 0.369,0.736 c -5.161,2.45 -14.783,13.287 -11.796,20.641 l -1.843,1.105 c 0.352,1.916 1.63,2.657 1.843,4.79 0.106,1.048 -0.367,3.203 -0.368,4.792 l 0,17.309 -0.367,3.687 c 0.47,3.685 1.319,11.137 0.367,15.479 -0.351,1.605 -1.288,4.498 -0.736,6.635 1.428,5.527 0.873,11.812 1.104,19.168 0.364,11.512 -0.57,25.114 1.108,37.226 l -0.372,15.112 -1.104,1.106 1.476,1.474 0,4.424 c 0.368,3.685 0.737,7.371 1.104,11.057 2.193,7.124 8.393,9.305 11.796,15.113 l -0.37,0 -3.318,-0.739 c -2.439,-0.842 -7.316,-3.035 -11.055,-2.211 -2.511,0.553 -5.451,-0.741 -8.479,0 -3.24,0.794 -5.624,0.744 -8.845,1.475 l -8.11,0 c -3.494,0.893 -10.131,1.516 -14.007,0.368 -2.929,-0.869 -4.848,-2.849 -7.003,-4.423 l 0,-0.737 c 2.739,0.358 4.947,1.548 7.003,2.212 4.933,1.591 15.005,-2.099 17.325,-3.687 4.655,-3.188 6.976,-10.327 8.847,-16.217 l -0.738,-1.844 c 0.12,-4.176 0.245,-8.354 0.368,-12.531 0.523,-2.209 0.729,-4.377 0.736,-7.002 l -0.366,-2.582 c 0.835,-5.035 0.328,-10.911 0.736,-15.479 l -0.37,-4.055 c 0.522,-3.602 0.867,-9.996 0.739,-13.638 -0.151,-4.237 -0.242,-11.725 0.737,-15.849 l -0.737,-2.212 c -0.558,-2.099 -0.609,-8.291 0,-11.057 0.533,-2.435 0.039,-6.619 -0.369,-8.479 l 0,-10.688 c -0.325,-1.936 -1.044,-10.049 -0.37,-12.517 l -0.366,-0.367 c -3.316,0.406 -11.769,10.259 -14.007,12.884 -1.281,1.499 -3.386,2.637 -4.793,4.055 -3.847,3.88 -7.482,8.013 -11.425,11.794 l -3.686,2.211 -3.317,4.793 -2.581,1.106 -0.368,2.21 -2.583,2.95 c -2.518,2.41 -11.303,10.275 -12.161,13.269 l 4.793,14.374 0,2.581 c -2.503,-0.937 -3.958,-5.361 -5.531,-7.372 l -2.948,-2.581 c -6.187,0.1 -7.12,4.817 -10.689,7.372 l -3.318,1.475 0,2.212 -2.21,2.211 -2.211,0.367 c -0.795,1.609 -1.726,3.345 -2.581,4.793 l -2.949,0.737 c -1.171,0.986 -0.33,1.411 -1.106,2.949 l -2.211,1.843 c -1.598,1.843 -3.195,3.686 -4.792,5.529 l -2.58,1.842 -1.105,2.212 c -1.401,1.413 -3.008,1.842 -4.793,2.949 -1.482,0.92 -1.701,3.269 -2.948,4.423 l -2.21,0.737 -3.687,4.791 c -3.281,3.283 -7.211,6.156 -10.321,9.584 -5.297,5.837 -12.46,14.331 -18.796,18.798 -6.215,4.379 -12.913,8.204 -21.011,10.688 -3.741,1.148 -7.364,-0.302 -10.32,1.474 l -0.369,0 c 0.807,-2.875 4.104,-3.231 6.266,-4.79 z M 159.962,67.436 c -8.17,-1.733 -16.189,-4.401 -23.218,-7.372 -2.64,-1.121 -5.931,-0.701 -7.741,-2.582 -5.571,0.324 -14.84,6.107 -19.9,8.11 -4.151,1.64 -13.021,2.26 -16.22,4.424 l -0.74,0 c 0.931,3.248 3.581,6.056 4.799,9.215 2.181,5.677 4.471,10.387 7.001,15.479 1.181,2.393 1.14,5.232 2.58,7.372 l 2.949,2.581 0,2.948 1.471,3.317 c 1.11,2.265 3.201,4.51 4.431,6.635 0.998,1.746 1.02,3.751 1.838,5.529 2.811,6.119 6.52,12.034 9.211,18.43 3.421,-1.713 6.88,-14.315 8.85,-18.43 6.411,-13.445 12.23,-27.734 18.799,-40.913 1.82,-3.659 3.36,-10.993 6.26,-13.269 l -0.37,-1.474 z m 60.82,-61.907 c -2.09,0.92 -2.329,2.52 -5.53,2.579 -1.559,3.23 -4.189,4.935 -5.898,7.742 -2.11,3.472 -3.021,6.92 -4.792,10.689 -2.85,6.056 -6.588,12.424 -9.579,18.413 -1.589,3.176 -2.191,6.005 -3.69,9.214 l -2.58,4.423 c -1.07,2.974 -1.441,5.31 -3.311,7.371 l 0.73,2.214 c 4.112,0.158 8.951,0.902 11.8,-1.108 l 1.471,0 0,0.738 -2.951,2.212 -4.049,1.105 -8.851,0 c -2.04,0.972 -2.879,5.747 -4.049,7.739 l -1.84,3.687 -3.32,2.58 0.37,3.318 c -0.569,1.95 -2.42,4.102 -3.32,5.897 l -0.74,2.58 c -2.971,5.279 -5.5,11.32 -8.471,16.588 -0.939,1.655 -0.97,4.143 -2.22,5.527 l -2.579,1.843 c -0.759,1.642 0.569,2.981 0,4.056 l -2.58,2.948 c -1.82,2.925 -2.409,6.071 -4.05,9.214 -0.73,1.391 -2.359,2.963 -2.949,4.424 -0.71,1.769 -0.082,3.262 -0.741,4.791 l -2.209,2.949 c -2.861,5.217 -5.181,10.735 -7.74,15.849 -1.781,3.555 -3.092,9.371 -5.531,12.162 l -0.371,0.37 c -7.428,-17.709 -16.519,-34.319 -24.319,-51.972 -1.709,-3.866 -4.64,-7.992 -6.269,-11.794 C 94.382,99.322 87.733,84.909 79.983,71.859 c -3.194,0.034 -7.001,0.672 -9.584,0 -2.287,-0.597 -4.825,-2.27 -7.001,-2.949 l 0,-0.736 c 2.088,0.244 4.175,0.49 6.265,0.736 2.526,-0.496 5.872,-1.092 8.108,-1.474 -0.348,-3.542 -2.387,-5.87 -3.685,-8.479 C 71.86,54.485 70.154,50.15 67.82,46.059 66.39,43.553 65.892,40.096 63.765,38.317 l 0.369,-1.842 c -0.571,-2.744 -4.308,-6.576 -5.53,-9.2 -0.8,-1.728 -0.89,-3.158 -1.842,-4.793 l -1.842,-2.21 -0.368,-3.686 -3.687,-2.58 C 45.489,7.521 44.426,1.731 32.804,2.211 c 1.35,-3.697 7.849,-3.742 12.164,-2.581 5.011,1.352 12.178,1.812 18.43,1.845 1.68,0.007 5.321,0.945 5.896,0.736 l 2.211,-1.842 c 2.087,-0.492 4.178,-0.984 6.266,-1.474 6.872,-1.563 16.202,-0.403 18.801,3.685 l 0.37,0 0,0.369 c -2.4,-0.211 -5.658,-1.666 -8.48,-1.105 -7.379,1.465 -14.964,3.236 -17.325,9.582 -1.717,4.615 0.663,11.532 1.842,15.479 0.247,1.845 0.493,3.685 0.738,5.515 4.987,10.353 10.246,22.037 16.217,31.698 6.339,-1.292 11.729,-4.854 16.589,-7.74 l 3.681,-0.737 1.48,-2.58 c 1.458,-1.058 2.949,-1.54 4.418,-2.58 l 2.58,-2.581 c 2.72,-1.63 7.82,-3.909 9.59,-6.265 3.68,0.285 10.13,5.99 12.9,8.109 l 1.471,2.579 2.58,-0.368 1.47,1.474 c 2.019,1.276 4.699,2.355 6.64,3.317 2.851,1.414 6.259,1.679 8.479,3.686 2.801,-0.742 5.221,-9.655 6.631,-12.532 0.66,-1.343 2.509,-3.308 2.95,-4.791 l -0.371,-1.474 1.48,-2.213 3.311,-3.684 0,-3.318 c 1.431,-4.208 4.349,-8.736 6.27,-12.885 1.069,-2.33 3.53,-8.265 1.469,-11.058 -0.569,-6.618 -10.51,-9.256 -16.948,-9.952 l -0.371,-0.367 0,-0.739 c 4.749,0.933 11.011,-0.436 15.85,0.739 1.859,0.45 2.819,1.504 3.689,1.842 2.15,0.838 2.42,-1.461 4.421,-1.105 5.321,0.943 14.559,2.205 21.37,0.735 4.75,-1.022 11.56,0.86 13.27,-1.472 3.4,0.19 3.5,2.27 5.529,3.686 l 0,1.474 c -3.678,0.159 -6.7,0.942 -9.58,2.211 z M -562.095,66.33 c -4.803,-1.652 -10.429,-3.76 -15.111,-5.529 -2.661,-1.004 -5.78,-0.925 -7.74,-2.58 -3.33,0.41 -5.894,2.521 -8.478,3.685 -5.052,2.28 -10.459,3.909 -15.481,5.898 -3.225,1.276 -9.893,1.308 -12.163,3.317 l 3.686,7.004 -0.369,1.106 -2.211,0.369 0,0.736 c 6.968,2.617 9.471,14.164 12.532,21.01 0.785,1.756 2.983,2.78 3.686,4.423 l 0,2.948 2.211,3.317 c 2.084,3.967 3.662,7.947 5.897,11.426 1.02,1.586 0.97,3.42 1.844,5.161 2.329,4.643 4.865,9.742 7.372,14.376 2.376,-2.02 4.84,-12.028 6.634,-15.481 1.745,-3.363 4.033,-7.528 5.529,-11.059 l 0.736,-3.685 c 3.823,-7.733 8.268,-16.33 11.796,-24.327 2.052,-4.655 4.325,-9.295 6.265,-13.638 0.842,-1.888 0.973,-3.746 2.212,-5.161 -1.11,-2.683 -5.948,-2.32 -8.847,-3.316 z m 70.401,-60.801 c -4.955,2.117 -9.453,6.346 -12.164,10.69 -1.29,2.064 -1.342,4.406 -2.58,6.635 -4.957,8.906 -10.031,19.894 -14.374,28.363 -2.402,4.685 -3.827,12.01 -7.004,15.849 l 0.368,1.108 c 2.163,1.722 10.088,1.57 12.164,0 l 0.737,0 0,0.736 c -2.764,1.776 -5.175,3.328 -9.214,4.055 -1.595,0.286 -4.741,-1.383 -6.634,-0.369 -1.809,0.969 -1.952,4.701 -2.95,6.635 l -1.474,1.473 -1.106,2.948 -2.948,2.212 0.368,3.318 -1.843,2.213 c -1.556,3.304 -2.221,6.015 -3.686,9.212 -1.144,2.501 -3.212,5.385 -4.423,7.742 -1.886,3.673 -2.521,7.661 -4.791,11.057 l -2.58,1.844 c -0.742,1.195 0.542,3.25 -0.368,4.791 -2.916,4.932 -6.688,10.631 -9.215,15.85 l 0,3.316 -1.844,2.211 c -1.56,2.937 -3.167,6.381 -4.422,9.217 l -0.737,3.316 -2.581,3.317 c -2.423,4.777 -3.485,10.334 -6.634,14.375 l -0.737,0.369 c -9.687,-20.821 -19.772,-40.542 -29.119,-61.555 -0.914,-2.055 -2.766,-4.269 -3.686,-6.266 -2.072,-4.496 -3.298,-8.497 -5.528,-12.9 -1.432,-2.826 -3.981,-5.951 -4.423,-9.584 l 3.317,-1.105 -3.686,-0.37 c -1.677,-0.677 -6.906,-11.483 -8.109,-13.636 -5.155,0.406 -12.366,0.925 -15.48,-1.843 l -1.106,-0.368 0,-0.739 c 6.353,0.001 9.252,-0.433 13.637,-2.58 -1.824,-6.861 -5.868,-13.229 -8.846,-19.166 -1.468,-2.926 -1.752,-6.8 -4.054,-8.846 l 0.369,-2.213 -1.844,-2.211 c -1.415,-2.107 -1.559,-4.399 -2.947,-6.617 l -2.95,-3.687 -2.58,-4.791 -0.369,-3.316 -4.054,-3.688 c -2.432,-3.226 -5.127,-7.341 -8.477,-9.582 -1.722,-1.152 -4.817,-0.668 -6.634,-1.844 l -0.738,0 0.369,-0.367 c 3.063,-2.322 14.784,-0.55 18.797,0.367 4.158,0.952 8.237,0.78 12.901,1.106 1.294,0.092 2.168,1.324 3.686,0.738 l 3.316,-2.211 c 5.133,-1.797 13.701,-1.129 18.799,-0.738 l 0.369,1.105 0,0.37 0.368,-1.106 c 1.476,0.215 2.154,0.633 2.948,1.475 l 0.369,1.105 c -2.139,-0.021 -6.184,-0.867 -7.003,-0.738 -7.586,1.195 -15.976,3.668 -18.061,10.32 -1.9,2.784 1.004,14.459 2.581,16.219 -0.059,1.904 -0.324,2.213 -1.474,2.94 0.607,2.408 3.343,2.157 4.053,4.416 l -0.368,1.474 2.212,2.58 c 3.094,5.94 5.196,11.596 8.108,17.693 1.04,2.174 3.01,4.356 3.687,7.003 5.877,-0.251 12.777,-4.893 16.954,-7.374 l 3.686,-0.736 2.212,-3.317 c 1.648,-1.46 4.16,-2.84 5.898,-4.054 3.195,-2.238 7.876,-4.027 10.32,-7.004 2.832,0.313 13.215,8.061 13.637,10.69 5.63,-0.157 9.875,3.662 14.376,5.896 1.782,0.887 3.798,0.965 5.16,2.213 3.647,-1.331 7.522,-14.082 9.583,-18.061 0.992,-1.917 4.184,-4.709 4.791,-6.268 l -0.368,-3.316 c 1.762,-5.777 6.651,-12.156 8.476,-18.414 2.974,-10.19 -8.964,-14.992 -17.691,-14.742 l 0,-0.739 c 4.234,-1.095 8.188,-1.45 13.269,-0.366 l 4.422,0 2.212,1.474 2.949,-1.108 c 7.911,1.358 19.723,2.155 26.907,0.37 3.884,-0.965 5.882,1.584 7.741,-1.105 2.874,0.312 3.9,2.83 5.528,4.423 -0.739,1.114 -6.15,1.532 -7.74,2.211 z m -197.562,-23.22 0.737,0.369 c -0.67,1.97 -2.93,4.5 -3.686,5.529 l -1.474,0.367 c 0.186,1.946 -0.004,1.903 0,3.317 l -1.843,0.368 c 1.048,2.344 -1.668,6.79 -2.58,9.585 -0.767,2.346 0.232,4.586 -0.738,7.002 l -1.106,0.738 c -0.587,1.813 1.688,2.791 1.106,5.527 -0.426,2.008 0.386,4.989 0,7.004 -0.561,2.93 -0.939,7.556 -0.368,10.305 0.608,2.941 -1.398,5.491 -1.106,7.74 0.743,5.702 0.038,13.074 0.737,19.166 0.195,1.697 -1.492,2.195 -1.106,3.686 l 1.106,1.106 -0.369,5.528 c 1.027,4.833 1.079,13.97 0.369,18.799 -1.228,8.354 0.858,14.374 -0.369,21.377 -0.32,1.83 0.701,1.813 0.738,3.319 0.143,5.886 0.839,18.581 0,24.326 -0.497,3.395 -0.23,8.635 0.368,11.426 -0.122,3.686 -0.245,7.373 -0.368,11.058 0.436,2.622 0.904,7.438 0.368,10.321 0.124,2.087 0.245,4.177 0.369,6.265 l -1.475,1.842 c -0.146,0.09 2.108,3.884 1.106,5.529 -0.187,2.109 -1.164,2.551 -2.58,3.318 0.472,2.126 2.377,2.331 2.949,4.054 l -0.369,1.475 c 0.086,1.874 0.01,8.015 0.738,10.688 1.127,4.137 2.258,8.915 4.423,12.164 1.589,2.385 5.62,4.85 8.477,5.897 l 2.949,0.369 0.369,2.21 0,0.739 c -7.55,-0.08 -14.181,-4.281 -21.747,-2.58 -3.868,0.869 -9.364,-0.174 -12.532,0.737 -5.676,1.629 -15.042,1.697 -20.642,1.104 l -0.368,-0.366 0,-3.319 c 4.369,-0.426 7.648,0.969 11.427,-0.368 11.996,-4.249 11.044,-18.725 13.638,-32.436 0.444,-2.354 -1.197,-6.302 0,-9.215 l 1.474,-1.842 c -1.138,-4.566 -0.739,-8.275 -0.738,-13.637 -0.123,-1.474 -0.246,-2.949 -0.368,-4.423 1.264,-6.241 0.369,-17.317 0.368,-26.17 l 0,-52.339 c 10e-4,-14.247 1.529,-35.628 -0.736,-46.073 -0.723,-3.321 1.216,-8.831 -0.369,-11.413 l -0.369,-0.367 c -3.603,5.61 -10.061,11.781 -14.743,16.571 l -1.106,2.211 c -3.444,4.597 -7.893,8.437 -11.426,13.269 l -3.686,3.316 c -3.678,4.871 -7.743,9.127 -11.426,14.008 l -3.317,2.948 c -3.784,5.021 -8.004,9.361 -11.796,14.375 l -3.316,2.95 c -2.162,2.9 -4.457,6.755 -7.372,8.844 0.22,2.419 4.371,9.132 5.897,10.321 l 0,0.738 c -2.794,-0.434 -7.733,-1.975 -9.583,-3.686 -5.879,0.008 -12.197,10.499 -15.112,14.374 -3.107,4.129 -7.571,7.632 -10.69,11.794 -8.58,11.458 -18.025,22.352 -27.643,32.805 -2.278,-0.501 -4.157,-3.957 -5.529,-5.527 l -0.368,0 c 0.189,2.418 0.944,6.445 2.209,8.107 -2.076,5.905 -7.631,10.671 -11.424,15.113 -2.371,2.777 -4.126,5.899 -6.266,8.846 -3.306,4.548 -8.077,8.4 -11.426,12.901 -3.964,5.328 -8.798,11.923 -15.113,14.743 -1.809,0.808 -3.585,-0.15 -5.528,0.737 -1.331,0.606 -2.776,2.881 -4.424,3.318 -1.527,0.403 -4.471,-0.351 -6.265,0.737 l -1.474,0 c 1.208,-2.516 5.076,-3.62 7.002,-5.53 3.931,-3.894 6.973,-9.619 8.847,-15.48 0.122,-1.843 0.245,-3.687 0.368,-5.529 1.114,-4.254 1.473,-9.992 1.474,-15.112 0,-3.485 -0.421,-9.563 1.107,-11.057 l -1.844,-2.948 c 0.336,-1.564 -0.398,-5.539 0.369,-7.372 l 1.105,-0.738 0.37,-1.105 -1.844,-2.212 c 1.381,-3.055 1.131,-10.177 1.107,-15.848 l -0.37,-4.057 c 1.746,-7.709 -0.173,-18.756 0,-26.537 0.162,-7.229 1.454,-21.122 0.37,-27.643 -0.773,-4.644 1.817,-10.447 0,-13.639 l -0.37,-3.685 1.844,-1.844 c -0.297,-1.504 -1.153,-1.329 -1.474,-2.211 -0.205,-0.56 0.366,-10.434 0.367,-13.27 10e-4,-1.677 0.865,-6.668 0.738,-7.002 l -1.475,-1.107 0.37,-3.685 c -0.147,-2.71 -0.337,-7.676 -0.738,-9.937 -1.094,-6.179 0.452,-14.069 -2.212,-18.429 -2.115,-3.461 -7.414,-4.197 -11.426,-5.896 -3.704,-1.569 -12.779,-6.127 -14.743,-9.215 l -0.369,-2.581 c -1.23,-2.437 -3.845,-2.747 -4.054,-6.632 l 2.212,0.367 0,1.106 c 2.463,0.599 3.85,3.824 5.897,5.159 4.085,2.669 15.87,5.501 18.061,8.846 l 2.211,-1.841 c 2.778,-1.28 5.154,0.607 8.109,0 2.967,-0.612 10.032,-0.774 13.638,-1.475 2.069,-0.404 5.732,0.656 7.371,0.369 5.717,-1.008 15.88,-1.107 20.641,0.737 2.601,1.005 4.466,3.343 6.634,4.791 l 0,1.105 c -9.326,-4.391 -25.449,-2.129 -30.592,4.793 -1.902,2.559 -3.042,6.656 -4.054,9.951 -1.565,5.096 0.554,18.713 -2.58,20.993 l 1.474,1.474 c -0.122,1.843 -0.246,3.687 -0.368,5.53 0.921,4.951 -0.479,12.267 0.368,16.586 0.619,3.16 -1.34,6.164 0,8.109 -0.145,1.687 -0.412,1.903 -1.474,2.58 0.317,1.546 1.068,1.279 1.474,2.212 l 0,31.33 c 0.002,12.318 -0.12,26.973 0.368,36.49 0.445,8.647 -0.97,18.802 0,27.275 l 0.369,0 c 1.428,-5.389 10.041,-13.901 13.638,-18.061 4.587,-5.305 8.714,-10.971 12.9,-16.586 l 2.58,-2.211 c 6.51,-8.678 13.685,-16.519 19.903,-25.434 l 2.212,-1.842 c 2.743,-3.651 5.409,-6.98 8.109,-10.689 1.462,-2.008 4.029,-3.185 4.792,-5.896 l -5.897,-11.059 0,-1.105 c 3.631,1.753 8.089,3.204 11.426,5.529 5.148,-0.495 10.944,-11.184 14.006,-14.744 6.031,-7.017 12.089,-13.858 17.692,-21.379 l 3.317,-2.948 1.106,-2.949 3.686,-2.212 c 1.323,-0.966 4.58,-5.172 5.529,-6.633 1.92,0.17 4.236,1.084 5.16,1.473 l 0.369,0 -2.581,-2.211 c 0.28,-4.78 7.463,-9.915 9.952,-13.254 5.292,-7.096 11.416,-13.071 17.692,-19.165 3.807,-3.699 7.343,-8.044 11.796,-11.058 l 2.947,-0.737 0.738,-2.212 8.109,-6.635 2.212,0 1.474,-2.211 c 3.415,-2.397 7.785,-2.237 12.532,-3.317 1.488,-0.339 4.99,-1.164 5.898,-0.738 l 0.368,0.369 -3.318,1.106 c -2.129,1.496 -5.257,6.662 -8.108,7.004 z M 35.752,72.596 c 2.441,0.314 5.032,5.153 5.16,7.74 1.976,0.555 4.14,6.165 5.161,8.109 2.529,4.815 6.132,10.145 8.109,15.112 0.881,2.213 0.811,3.888 1.842,5.897 9.776,19.041 10.115,52.914 3.317,73.349 -3.8,11.424 -10.607,21.5 -16.954,30.592 l -6.635,7.003 -1.843,0 -1.105,3.319 -4.054,4.053 c -2.972,2.17 -6.999,3.673 -9.584,6.265 -1.688,-0.144 -1.904,-0.411 -2.58,-1.473 -2.117,0.796 -2.016,3.084 -3.686,4.055 -1.669,0.969 -3.791,0.7 -5.528,1.474 -5.618,2.501 -12.52,5.405 -20.642,3.686 l -5.158,0 c -4.18,-1.557 -8.647,-4.978 -12.535,-6.267 l 0.37,-2.58 -0.37,-0.368 c -1.558,0.329 -1.625,1.059 -2.21,2.211 -3.313,-1.15 -7.448,-5.721 -11.795,-2.58 -3.046,1.026 -5.722,6.036 -5.898,9.953 -8.179,-1.484 -11.288,-14.632 -8.107,-23.589 1.892,-5.33 6.457,-7.507 9.582,-11.427 l 1.475,0.736 1.842,-2.212 c 2.704,-0.736 5.409,-1.472 8.109,-2.211 8.702,-2.026 24.43,5.411 25.803,10.69 1.496,0.092 1.496,-0.451 2.947,-0.738 1.913,-0.377 4.931,0.066 6.266,0.369 3.805,0.865 12.614,-0.168 15.48,-1.106 18.364,-6.003 27.012,-21.09 33.174,-39.438 2.883,-8.585 6.168,-22.62 3.684,-34.647 l -0.368,-3.317 0.737,-1.475 c -0.32,-2.056 -2.663,-3.287 -3.316,-5.53 -2.092,-7.18 -2.736,-13.857 -5.53,-20.271 C 32.619,88.939 20.052,72.926 8.477,57.115 5.002,52.367 1.598,47.869 -2.58,43.845 l -1.107,-2.948 -2.21,0 0,-0.737 c -1.343,-1.359 -2.639,-2.765 -4.424,-3.685 0.124,-6.006 0.244,-12.027 0.368,-18.045 3.782,0.701 6.828,5.353 9.215,7.74 7.435,7.416 14.913,14.803 21.01,23.574 2.434,3.5 7.838,6.434 8.109,11.794 l 1.105,-0.368 0.37,1.105 -0.37,1.106 c 2.144,1.065 5.847,6.59 6.266,9.215 z"
               id="path3739"
               style="fill:none;stroke:#f2bb1b;stroke-width:1;stroke-linecap:butt;stroke-linejoin:miter;stroke-miterlimit:4;stroke-opacity:1;stroke-dasharray:none"
               inkscape:connector-curvature="0" />
          </g>
        </g>
      </g>
      <g
         transform="matrix(1.25,0,0,-1.25,-5.9483339,1004.1273)"
         id="g3741">
        <g
           clip-path="url(#clipPath3745)"
           id="g3743">
          <g
             transform="translate(446.1299,449.0527)"
             id="g3749">
            <path
               d="m 0,0 0.317,0.114 c 0,0 0.083,0.032 0.184,-0.006 C 0.603,0.07 0.742,0 0.742,0 l -0.006,-0.082 -0.241,-0.089 -0.184,0 C 0.237,-0.141 0.237,-0.141 0,-0.025 L 0,0"
               id="path3751"
               style="fill:#f2bb1b;fill-opacity:1;fill-rule:nonzero;stroke:none"
               inkscape:connector-curvature="0" />
          </g>
          <g
             transform="translate(447.3494,450.16631)"
             id="g3753">
            <path
               d="m 0,0 c 0,0 0.254,0.077 0.53,0.032 0.259,-0.043 0.902,-0.169 1.041,-0.164 l 0.172,0.043 -0.003,0.036 c 0,0 -0.069,0.157 0.093,0.208 0.173,0.033 0.194,-0.105 0.194,-0.105 0,0 0.038,-0.147 -0.113,-0.248 0,0 -0.082,-0.066 -0.228,-0.051 0,0 -0.453,0.039 -0.58,0.057 L 1.07,-1.658 1.097,-1.746 1.221,-1.821 1.305,-1.885 1.236,-1.939 c 0,0 -0.489,0.051 -0.712,0 l -0.085,0.039 0.054,0.064 0.109,0.057 0.045,0.106 0.03,1.508 -0.045,0.055 c 0,0 -0.311,0.072 -0.452,-0.034 0,0 -0.109,-0.054 -0.148,-0.147 L 0.069,-0.382 0.152,-0.376 0.21,-0.403 0.167,-0.485 c 0,0 -0.078,-0.048 -0.208,-0.045 0,0 -0.165,0.002 -0.193,0.175 0,0 -0.038,0.286 0.234,0.355"
               id="path3755"
               style="fill:#f2bb1b;fill-opacity:1;fill-rule:nonzero;stroke:none"
               inkscape:connector-curvature="0" />
          </g>
          <g
             transform="translate(449.29671,449.7084)"
             id="g3757">
            <path
               d="M 0,0 C 0,0 0.529,0.005 0.647,0.012 L 0.723,-0.024 0.676,-0.086 0.591,-0.119 0.527,-0.206 l 0,-0.409 c 0,0 0.289,-0.019 0.458,-0.039 l 0.245,-0.017 0.039,0.046 0,0.405 -0.031,0.063 -0.106,0.071 -0.041,0.054 0.053,0.042 0.584,-0.003 0.1,-0.024 -0.032,-0.061 -0.103,-0.052 -0.041,-0.112 0,-0.427 0.039,-0.019 0.216,0.049 0.047,0.065 0.085,0.008 L 2.036,-0.639 1.924,-0.74 c 0,0 -0.039,-0.035 -0.236,-0.063 l -0.049,-0.052 0,-0.4 0.072,-0.107 0.061,-0.021 0.055,-0.05 -0.065,-0.044 c 0,0 -0.375,0.051 -0.551,0.017 l -0.081,-0.015 -0.052,0.022 0.042,0.064 0.11,0.066 0.025,0.083 0,0.365 -0.025,0.042 -0.039,0.005 C 1.159,-0.826 0.792,-0.767 0.556,-0.772 L 0.51,-0.833 0.51,-1.257 0.554,-1.353 0.639,-1.387 0.676,-1.448 0.608,-1.48 c 0,0 -0.346,0.071 -0.534,0.012 l -0.104,-0.01 -0.023,0.057 0.073,0.049 c 0,0 0.102,0.046 0.11,0.137 l 0.002,0.355 -0.083,0.04 c 0,0 -0.049,0.002 -0.154,-0.076 l -0.094,-0.042 -0.014,0.066 c 0,0 0.13,0.147 0.282,0.199 l 0.071,0.059 0,0.389 -0.049,0.12 -0.094,0.056 -0.036,0.04 L 0,0"
               id="path3759"
               style="fill:#f2bb1b;fill-opacity:1;fill-rule:nonzero;stroke:none"
               inkscape:connector-curvature="0" />
          </g>
          <g
             transform="translate(451.5497,449.6922)"
             id="g3761">
            <path
               d="m 0,0 0.067,0.028 1.017,-0.011 0.118,-0.03 c 0,0 0.097,-0.07 0.023,-0.178 l -0.088,-0.128 -0.072,-0.02 -0.033,0.064 -0.005,0.067 -0.069,0.064 -0.356,0 -0.046,-0.069 0,-0.38 0.044,-0.045 0.166,0 0.085,0.041 0.068,0.091 0.047,0.037 0.043,-0.065 -0.008,-0.322 -0.022,-0.069 -0.074,0.028 -0.07,0.097 -0.051,0.024 -0.194,0 -0.051,-0.073 0,-0.361 0.086,-0.089 0.317,0 0.118,0.04 0.1,0.109 0.08,0.025 L 1.265,-1.22 1.166,-1.402 1.081,-1.443 c 0,0 -0.783,0.005 -0.927,-0.01 l -0.113,-0.007 -0.068,0.027 0.028,0.064 0.12,0.046 c 0,0 0.053,0.037 0.054,0.129 l 0,0.336 -0.023,0.048 -0.053,0.002 -0.071,-0.041 -0.097,-0.012 0.015,0.093 0.111,0.076 0.123,0.112 0,0.39 -0.043,0.081 -0.1,0.049 L 0,0"
               id="path3763"
               style="fill:#f2bb1b;fill-opacity:1;fill-rule:nonzero;stroke:none"
               inkscape:connector-curvature="0" />
          </g>
          <g
             transform="translate(456.22569,449.7072)"
             id="g3765">
            <path
               d="M 0,0 C 0,0 0.529,0.005 0.647,0.012 L 0.723,-0.025 0.676,-0.086 0.59,-0.119 0.527,-0.206 l 0,-0.409 c 0,0 0.289,-0.02 0.458,-0.039 l 0.245,-0.017 0.039,0.046 0,0.404 L 1.237,-0.157 1.132,-0.086 1.09,-0.032 1.144,0.01 1.728,0.007 1.828,-0.017 1.796,-0.078 1.693,-0.13 1.652,-0.243 l 0,-0.426 0.039,-0.02 0.215,0.049 0.048,0.066 0.085,0.008 -0.003,-0.074 -0.112,-0.1 c 0,0 -0.039,-0.035 -0.236,-0.063 l -0.049,-0.052 0,-0.4 0.071,-0.107 0.062,-0.021 0.059,-0.046 -0.069,-0.049 c 0,0 -0.375,0.052 -0.551,0.018 l -0.081,-0.015 -0.052,0.022 0.042,0.064 0.11,0.066 0.025,0.083 0,0.365 -0.025,0.042 -0.039,0.005 C 1.159,-0.826 0.792,-0.767 0.556,-0.772 L 0.51,-0.833 0.51,-1.257 0.554,-1.353 0.639,-1.387 0.676,-1.448 0.608,-1.48 c 0,0 -0.346,0.071 -0.535,0.012 l -0.104,-0.01 -0.023,0.057 0.074,0.049 c 0,0 0.102,0.046 0.11,0.137 l 0.002,0.355 -0.083,0.04 c 0,0 -0.049,0.002 -0.154,-0.076 l -0.094,-0.042 -0.014,0.066 c 0,0 0.13,0.147 0.282,0.199 l 0.071,0.058 0,0.39 -0.049,0.12 -0.094,0.056 -0.036,0.04 L 0,0"
               id="path3767"
               style="fill:#f2bb1b;fill-opacity:1;fill-rule:nonzero;stroke:none"
               inkscape:connector-curvature="0" />
          </g>
        </g>
      </g>
      <g
         transform="matrix(1.25,0,0,-1.25,-5.9483339,1004.1273)"
         id="g3769">
        <g
           clip-path="url(#clipPath3773)"
           id="g3771">
          <g
             transform="translate(468.7131,449.6922)"
             id="g3777">
            <path
               d="m 0,0 0.067,0.028 1.017,-0.011 0.118,-0.03 c 0,0 0.097,-0.07 0.023,-0.178 l -0.088,-0.128 -0.072,-0.02 -0.033,0.064 -0.005,0.067 -0.069,0.064 -0.356,0 -0.046,-0.069 0,-0.38 0.044,-0.045 0.166,0 0.085,0.041 0.068,0.091 0.047,0.037 0.043,-0.065 -0.008,-0.322 -0.022,-0.069 -0.074,0.028 -0.07,0.097 -0.051,0.024 -0.194,0 -0.051,-0.073 0,-0.361 0.086,-0.089 0.317,0 0.118,0.04 0.1,0.109 0.08,0.025 L 1.265,-1.22 1.166,-1.402 1.081,-1.443 c 0,0 -0.783,0.005 -0.927,-0.01 l -0.113,-0.007 -0.068,0.027 0.028,0.064 0.12,0.046 c 0,0 0.053,0.037 0.054,0.129 l 0,0.336 -0.023,0.048 -0.053,0.002 -0.078,-0.041 -0.09,-0.012 0.019,0.093 c 0,0 0.01,0.03 0.107,0.076 l 0.123,0.112 0,0.39 L 0.137,-0.109 0.039,-0.057 0,0"
               id="path3779"
               style="fill:#f2bb1b;fill-opacity:1;fill-rule:nonzero;stroke:none"
               inkscape:connector-curvature="0" />
          </g>
          <g
             transform="translate(455.9631,450.33611)"
             id="g3781">
            <path
               d="M 0,0 0.164,-0.071 0.101,-0.187 -0.116,-0.56 -0.112,-0.702 c 0,0 0.127,-0.028 0.064,-0.163 0,0 -0.04,-0.064 -0.132,-0.044 l -0.1,0.083 c 0,0 -0.027,0.037 0,0.16 0,0 0.065,0.157 0.043,0.308 l -0.05,0.114 c 0,0 -0.201,0.168 -0.532,0.024 0,0 -0.536,-0.162 -0.595,-0.963 0,0 -0.043,-0.676 0.477,-0.929 0,0 0.269,-0.18 0.757,-0.079 l 0.092,0.039 0.118,0.016 -0.026,-0.092 c 0,0 -0.435,-0.232 -0.855,-0.164 0,0 -0.788,0.157 -0.972,0.778 0,0 -0.354,0.879 0.407,1.426 0,0 0.207,0.195 0.735,0.233 0,0 0.181,0.034 0.681,-0.045"
               id="path3783"
               style="fill:#f2bb1b;fill-opacity:1;fill-rule:nonzero;stroke:none"
               inkscape:connector-curvature="0" />
          </g>
        </g>
      </g>
      <g
         transform="matrix(1.25,0,0,-1.25,-5.9483339,1004.1273)"
         id="g3785">
        <g
           clip-path="url(#clipPath3789)"
           id="g3787">
          <g
             transform="translate(459.1373,449.09669)"
             id="g3793">
            <path
               d="m 0,0 0.052,-0.066 0.123,0.013 0.14,0.09 0.061,0.208 C 0.346,0.415 0.201,0.464 0.201,0.464 L 0.05,0.473 -0.013,0.391 0,0 z m -0.551,0.59 0.094,0.029 C -0.37,0.608 0.02,0.599 0.265,0.612 c 0,0 0.247,0.009 0.367,-0.129 0,0 0.081,-0.081 0.112,-0.205 0,0 0.019,-0.136 -0.066,-0.241 0,0 -0.063,-0.096 -0.205,-0.136 l -0.02,-0.03 0.052,-0.051 c 0,0 0.116,-0.024 0.175,-0.142 L 0.899,-0.678 0.991,-0.729 1.052,-0.7 1.149,-0.661 1.146,-0.748 c 0,0 -0.091,-0.116 -0.212,-0.14 0,0 -0.116,-0.029 -0.282,0.081 0,0 -0.142,0.072 -0.228,0.249 0,0 -0.073,0.185 -0.174,0.287 l -0.06,0.035 -0.151,0 -0.05,-0.062 0.004,-0.356 0.09,-0.101 0.094,-0.074 -0.059,-0.044 c 0,0 -0.372,0.057 -0.529,0.018 l -0.097,-0.018 -0.063,0.015 0.044,0.086 0.098,0.039 c 0,0 0.053,0.033 0.053,0.14 l 0,0.423 -0.057,0.043 -0.059,-0.09 -0.057,-0.085 -0.078,0.049 c 0,0 -0.04,0.087 0.077,0.166 l 0.128,0.052 0.054,0.07 -0.008,0.387 c 0,0 -0.003,0.074 -0.097,0.09 L -0.551,0.59"
               id="path3795"
               style="fill:#f2bb1b;fill-opacity:1;fill-rule:nonzero;stroke:none"
               inkscape:connector-curvature="0" />
          </g>
          <g
             transform="translate(460.70329,448.9631)"
             id="g3797">
            <path
               d="m 0,0 c -0.009,-0.357 0.29,-0.525 0.29,-0.525 0.29,-0.156 0.498,0.067 0.498,0.067 0.223,0.202 0.189,0.531 0.189,0.531 C 0.962,0.388 0.736,0.531 0.736,0.531 0.501,0.684 0.25,0.531 0.25,0.531 -0.018,0.339 0,0 0,0 m 0.498,0.748 c 0,0 0.522,0.027 0.83,-0.455 0,0 0.152,-0.262 -0.021,-0.592 0,0 -0.232,-0.394 -0.761,-0.443 0,0 -0.445,-0.024 -0.738,0.269 0,0 -0.342,0.33 -0.175,0.72 0.02,0.045 0.198,0.485 0.865,0.501"
               id="path3799"
               style="fill:#f2bb1b;fill-opacity:1;fill-rule:nonzero;stroke:none"
               inkscape:connector-curvature="0" />
          </g>
          <g
             transform="translate(473.0701,448.9599)"
             id="g3801">
            <path
               d="m 0,0 c -0.009,-0.357 0.29,-0.525 0.29,-0.525 0.29,-0.156 0.498,0.067 0.498,0.067 0.223,0.202 0.189,0.531 0.189,0.531 C 0.962,0.388 0.736,0.531 0.736,0.531 0.501,0.684 0.25,0.531 0.25,0.531 -0.018,0.339 0,0 0,0 m 0.498,0.748 c 0,0 0.522,0.027 0.83,-0.455 0,0 0.153,-0.22 -0.021,-0.592 0,0 -0.232,-0.394 -0.76,-0.443 0,0 -0.446,-0.024 -0.739,0.269 0,0 -0.342,0.329 -0.174,0.72 0.019,0.045 0.197,0.485 0.864,0.501"
               id="path3803"
               style="fill:#f2bb1b;fill-opacity:1;fill-rule:nonzero;stroke:none"
               inkscape:connector-curvature="0" />
          </g>
          <g
             transform="translate(462.1548,449.6087)"
             id="g3805">
            <path
               d="m 0,0 0.044,0.089 0.114,0.049 c 0,0 0.091,0.031 0.183,-0.022 l 1.09,-0.883 0.086,-0.05 0.022,0.081 0,0.556 -0.074,0.119 -0.133,0.08 -0.036,0.05 0.069,0.036 c 0,0 0.313,-0.028 0.451,0 L 1.883,0.111 1.935,0.08 c 0,0 0.025,-0.044 -0.069,-0.083 L 1.791,-0.05 c 0,0 -0.038,-0.008 -0.038,-0.111 l 0,-1.104 L 1.717,-1.379 1.573,-1.34 0.634,-0.543 0.562,-0.509 0.551,-0.576 0.554,-1.124 0.629,-1.26 0.698,-1.287 0.723,-1.345 0.651,-1.382 c 0,0 -0.219,0.056 -0.357,0.017 l -0.089,-0.017 -0.047,0.031 0.033,0.069 0.1,0.053 0.027,0.094 0,0.958 L 0.285,-0.031 0.26,0.005 0.152,0.019 0,0"
               id="path3807"
               style="fill:#f2bb1b;fill-opacity:1;fill-rule:nonzero;stroke:none"
               inkscape:connector-curvature="0" />
          </g>
          <g
             transform="translate(464.399,449.6917)"
             id="g3809">
            <path
               d="m 0,0 0.08,0.027 c 0,0 0.38,-0.027 0.551,-0.003 L 0.752,-0.009 0.682,-0.08 c 0,0 -0.124,-0.005 -0.124,-0.135 l 0,-0.992 0.06,-0.123 0.09,-0.042 0.045,-0.086 -0.098,-0.011 c 0,0 -0.289,0.059 -0.481,0.009 l -0.086,-0.013 -0.097,0.016 c 0,0 -0.026,0.053 0.077,0.095 L 0.142,-1.325 0.195,-1.201 0.18,-0.209 0.133,-0.118 0.041,-0.071 -0.004,-0.01 0,0"
               id="path3811"
               style="fill:#f2bb1b;fill-opacity:1;fill-rule:nonzero;stroke:none"
               inkscape:connector-curvature="0" />
          </g>
          <g
             transform="translate(465.3474,448.9971)"
             id="g3813">
            <path
               d="m 0,0 c 0,0 -0.007,0.489 0.61,0.669 0,0 0.201,0.063 0.614,0.017 l 0.142,0.015 0.101,0.031 c 0,0 0.068,-0.022 0.05,-0.127 L 1.487,0.522 c 0,0 -0.024,-0.046 -0.009,-0.147 L 1.438,0.163 1.397,0.145 1.303,0.141 1.287,0.233 1.333,0.358 c 0,0 -0.019,0.122 -0.135,0.172 0,0 -0.282,0.143 -0.54,-0.037 0,0 -0.246,-0.188 -0.25,-0.516 0,0 -0.057,-0.37 0.357,-0.575 0,0 0.267,-0.123 0.505,0.054 l 0.131,0.123 0.099,0.05 0.006,-0.111 c 0,0 -0.21,-0.335 -0.765,-0.278 0,0 -0.35,0.057 -0.532,0.238 0,0 -0.243,0.182 -0.209,0.522"
               id="path3815"
               style="fill:#f2bb1b;fill-opacity:1;fill-rule:nonzero;stroke:none"
               inkscape:connector-curvature="0" />
          </g>
          <g
             transform="translate(467.1097,449.673)"
             id="g3817">
            <path
               d="m 0,0 0.072,0.036 c 0,0 0.428,-0.02 0.55,-0.004 L 0.751,0.013 c 0,0 0.027,-0.052 -0.072,-0.082 0,0 -0.108,-0.016 -0.115,-0.131 l 0,-0.961 c 0,0 -0.013,-0.109 0.119,-0.115 l 0.311,0.003 0.125,0.056 0.064,0.07 0.103,0.038 0.02,-0.082 -0.098,-0.18 -0.119,-0.056 c 0,0 -0.745,0.026 -0.892,-0.01 L 0.079,-1.45 0.007,-1.417 0.052,-1.345 c 0,0 0.151,0.013 0.148,0.187 L 0.19,-0.236 0.125,-0.095 0,-0.017 0,0"
               id="path3819"
               style="fill:#f2bb1b;fill-opacity:1;fill-rule:nonzero;stroke:none"
               inkscape:connector-curvature="0" />
          </g>
          <g
             transform="translate(476.61929,449.0614)"
             id="g3821">
            <path
               d="m 0,0 0.317,0.114 c 0,0 0.083,0.032 0.184,-0.006 C 0.603,0.07 0.742,0 0.742,0 l -0.006,-0.082 -0.241,-0.089 -0.184,0 C 0.237,-0.14 0.237,-0.141 0,-0.026 L 0,0"
               id="path3823"
               style="fill:#f2bb1b;fill-opacity:1;fill-rule:nonzero;stroke:none"
               inkscape:connector-curvature="0" />
          </g>
          <g
             transform="translate(470.30701,449.265)"
             id="g3825">
            <path
               d="m 0,0 c 0,0 -0.034,0.227 0.246,0.384 0,0 0.116,0.09 0.448,0.082 L 0.787,0.455 0.9,0.477 0.97,0.514 1.032,0.431 c 0,0 -0.057,-0.1 -0.037,-0.235 L 0.968,0.063 0.865,0.125 c 0,0 -0.006,0.142 -0.133,0.175 0,0 -0.236,0.081 -0.35,-0.048 0,0 -0.133,-0.149 0.042,-0.285 0,0 0.049,-0.057 0.297,-0.105 0,0 0.277,-0.028 0.394,-0.28 0,0 0.095,-0.257 -0.066,-0.431 0,0 -0.188,-0.212 -0.455,-0.227 0,0 -0.21,-0.016 -0.387,0.063 0,0 -0.201,0.099 -0.225,0.217 l 0.017,0.161 0.123,0.073 0.074,-0.031 0.023,-0.113 0.012,-0.106 c 0,0 0.114,-0.113 0.304,-0.098 0.007,-0.002 0.186,0.013 0.243,0.122 0,0 0.066,0.14 -0.05,0.23 0,0 -0.21,0.132 -0.429,0.195 0,0 -0.292,0.113 -0.299,0.363"
               id="path3827"
               style="fill:#f2bb1b;fill-opacity:1;fill-rule:nonzero;stroke:none"
               inkscape:connector-curvature="0" />
          </g>
          <g
             transform="translate(474.78889,449.68291)"
             id="g3829">
            <path
               d="m 0,0 0.082,0.029 c 0,0 0.776,0.002 0.88,0.004 l 0.264,-0.054 c 0,0 0.044,-0.058 0,-0.177 l -0.077,-0.139 -0.076,0.009 -0.016,0.1 -0.082,0.095 -0.315,0.005 -0.089,-0.079 0.003,-0.367 0.063,-0.043 0.164,-0.003 0.092,0.049 0.049,0.076 0.049,0.032 0.039,-0.083 c 0,0 -0.016,-0.197 0.002,-0.292 L 1.017,-0.914 0.945,-0.896 0.876,-0.804 0.778,-0.77 0.63,-0.768 0.584,-0.83 l 0,-0.387 0.095,-0.115 0.071,-0.031 0.042,-0.083 c 0,0 -0.02,-0.048 -0.123,-0.015 0,0 -0.312,0.055 -0.474,0.011 L 0.103,-1.463 0.035,-1.431 0.077,-1.35 c 0,0 0.142,0.02 0.144,0.149 L 0.214,-0.849 0.14,-0.783 0.046,-0.84 l -0.085,-0.011 0.015,0.09 0.18,0.108 0.052,0.1 -0.005,0.341 c 0,0 0.01,0.089 -0.091,0.127 L 0.033,-0.061 0,0"
               id="path3831"
               style="fill:#f2bb1b;fill-opacity:1;fill-rule:nonzero;stroke:none"
               inkscape:connector-curvature="0" />
          </g>
        </g>
      </g>
    </g>
  </g>
</svg>
