<?xml version="1.0" encoding="UTF-8" standalone="no"?>
<svg
   xmlns:dc="http://purl.org/dc/elements/1.1/"
   xmlns:cc="http://creativecommons.org/ns#"
   xmlns:rdf="http://www.w3.org/1999/02/22-rdf-syntax-ns#"
   xmlns:svg="http://www.w3.org/2000/svg"
   xmlns="http://www.w3.org/2000/svg"
   xmlns:sodipodi="http://sodipodi.sourceforge.net/DTD/sodipodi-0.dtd"
   xmlns:inkscape="http://www.inkscape.org/namespaces/inkscape"
   width="12in"
   height="12in"
   viewBox="0 0 12 12"
   version="1.1"
   id="svg8"
   inkscape:version="1.0.1 (3bc2e813f5, 2020-09-07)"
   sodipodi:docname="Frequence new '97.7'.svg">
  <defs
     id="defs2" />
  <sodipodi:namedview
     id="base"
     pagecolor="#ffffff"
     bordercolor="#666666"
     borderopacity="1.0"
     inkscape:pageopacity="0.0"
     inkscape:pageshadow="2"
     inkscape:zoom="0.72880595"
     inkscape:cx="629.06264"
     inkscape:cy="430.78551"
     inkscape:document-units="in"
     inkscape:current-layer="layer1"
     inkscape:document-rotation="0"
     showgrid="true"
     units="in"
     inkscape:snap-global="true"
     inkscape:window-width="1920"
     inkscape:window-height="1017"
     inkscape:window-x="-8"
     inkscape:window-y="-8"
     inkscape:window-maximized="1"
     inkscape:snap-nodes="true"
     inkscape:snap-others="false"
     inkscape:snap-smooth-nodes="true"
     inkscape:object-paths="true"
     inkscape:snap-intersection-paths="true"
     inkscape:snap-grids="false"
     inkscape:snap-to-guides="false">
    <inkscape:grid
       type="xygrid"
       id="grid849"
       units="in"
       spacingx="0.25"
       spacingy="0.25"
       empspacing="4" />
  </sodipodi:namedview>
  <metadata
     id="metadata5">
    <rdf:RDF>
      <cc:Work
         rdf:about="">
        <dc:format>image/svg+xml</dc:format>
        <dc:type
           rdf:resource="http://purl.org/dc/dcmitype/StillImage" />
        <dc:title></dc:title>
        <dc:creator>
          <cc:Agent>
            <dc:title>Doctor Wizard</dc:title>
          </cc:Agent>
        </dc:creator>
        <dc:rights>
          <cc:Agent>
            <dc:title>Copyright 2021+ by Doctor Wizard</dc:title>
          </cc:Agent>
        </dc:rights>
        <dc:publisher>
          <cc:Agent>
            <dc:title>Doctor Wizard</dc:title>
          </cc:Agent>
        </dc:publisher>
        <dc:source>Doctor Wizard</dc:source>
        <dc:contributor>
          <cc:Agent>
            <dc:title>Doctor Wizard</dc:title>
          </cc:Agent>
        </dc:contributor>
      </cc:Work>
    </rdf:RDF>
  </metadata>
  <g
     inkscape:label="Layer 1"
     inkscape:groupmode="layer"
     id="layer1">
    <path
       id="rect4397-56"
       style="opacity:0.928105;fill:none;stroke:#9a97ff;stroke-width:0.00999998;stroke-miterlimit:4;stroke-dasharray:none;stroke-opacity:1"
       d="m 9.5991509,4.6210411 -0.3622269,0.32739 c 0,0 0,0 0,0 L 8.9203176,4.5738671 c 0,0 0,0 0,0 l 0.3622269,-0.32739 c 0,0 0,0 0,0 l 0.3166064,0.374564 c 0,0 0,0 0,0 z m 2.1158501,1.306539 -0.102322,0.105807 -0.306964,-0.31742 v -0.634839 l 0.306964,-0.317419 0.102322,0.105806 z m -1.330179,0.31742 -0.102321,-0.105807 0.306964,-0.31742 h 0.613929 l 0.306964,0.31742 -0.102322,0.105806 z m -1.2278574,0 -0.1023212,-0.105807 0.3069642,-0.31742 h 0.6139286 l 0.3069648,0.31742 -0.102322,0.105806 z M 11.715001,3.5350021 11.612679,3.6408083 11.305715,3.3233889 V 2.6885499 L 11.612679,2.3711301 11.715,2.4769369 Z m -1.330179,0.317419 -0.102321,-0.105806 0.306964,-0.3174199 h 0.613929 l 0.306964,0.3174199 -0.102322,0.105806 z m -1.2278573,0 -0.1023213,-0.105806 0.3069642,-0.3174197 h 0.6139288 l 0.3069646,0.3174197 -0.102322,0.105806 z M 11.408036,0.255 11.510358,0.3608065 11.203394,0.678226 H 10.589465 L 10.2825,0.3608065 10.384822,0.255 Z M 11.715001,1.6304847 11.612679,1.7362911 11.305715,1.4188717 V 0.7840326 L 11.612679,0.466613 11.715001,0.5724196 Z M 10.384822,1.9479042 10.2825,1.8420978 10.589465,1.5246782 h 0.613929 l 0.306964,0.3174196 -0.102322,0.1058064 z m -1.2278574,0 L 9.0546432,1.8420978 9.3616075,1.5246782 H 9.9755362 L 10.2825,1.8420978 10.180179,1.9479042 Z M 8.8500003,0.5724196 8.9523218,0.4666131 9.259286,0.7840326 V 1.4188717 L 8.9523218,1.7362912 8.8500003,1.6304847 Z m 1.4324997,0 0.204643,0.211613 V 1.4188717 L 10.2825,1.6304847 10.077858,1.4188717 V 0.7840326 Z m -3.5483493,4.0486213 -0.3622269,0.32739 c 0,0 0,0 0,0 L 6.0553174,4.5738669 c 0,0 0,0 0,0 l 0.362227,-0.32739 c 0,0 0,0 0,0 l 0.3166063,0.374564 c 0,0 0,0 0,0 z m 2.1158496,1.30654 -0.1023215,0.105806 -0.3069643,-0.317419 v -0.63484 l 0.3069643,-0.317419 0.1023215,0.105806 z M 7.5198216,6.2449999 7.4175004,6.1391929 7.7244647,5.8217739 h 0.6139285 l 0.3069644,0.317419 -0.1023216,0.105807 z m -1.2278572,0 -0.1023212,-0.105807 0.3069643,-0.317419 H 7.110536 l 0.3069644,0.317419 -0.1023216,0.105806 z M 8.8500003,3.5350021 8.7476787,3.6408083 8.4407142,3.3233889 V 2.6885499 L 8.7476784,2.3711301 8.8499997,2.4769369 Z M 7.5198216,3.8524216 7.4175004,3.7466149 7.7244645,3.4291952 H 8.3383932 L 8.6453576,3.7466147 8.5430359,3.852421 Z m -1.2278571,0 L 6.1896432,3.7466149 6.4966075,3.4291954 H 7.1105362 L 7.4175005,3.7466148 7.3151789,3.8524211 Z M 8.5430359,0.255 8.6453574,0.3608065 8.3383932,0.678226 H 7.7244645 L 7.4175002,0.3608065 7.5198216,0.255 Z M 8.8500003,1.6304847 8.7476788,1.7362911 8.4407145,1.4188717 V 0.7840326 L 8.7476788,0.466613 8.8500003,0.5724196 Z M 7.5198217,1.9479042 7.4175002,1.8420978 7.7244646,1.5246782 H 8.3383931 L 8.6453573,1.8420978 8.5430359,1.9479042 Z m -1.2278573,0 L 6.189643,1.8420978 6.4966074,1.5246782 H 7.110536 L 7.4175002,1.8420978 7.3151787,1.9479042 Z M 5.9850002,0.5724196 6.0873216,0.4666131 6.3942859,0.7840326 V 1.4188717 L 6.0873216,1.7362912 5.9850002,1.6304847 Z m 1.4325,0 0.2046429,0.211613 V 1.4188717 L 7.4175002,1.6304847 7.2128574,1.4188717 V 0.7840326 Z m -3.5483496,4.0486216 -0.3622269,0.32739 c 0,0 0,0 0,0 L 3.1903174,4.5738668 c 0,0 0,0 0,0 L 3.5525443,4.2464769 c 0,0 0,0 0,0 l 0.3166063,0.3745643 c 0,0 0,0 0,0 z M 5.9850002,5.9275805 5.8826787,6.0333869 5.5757144,5.7159674 V 5.0811282 L 5.8826787,4.7637087 5.9850002,4.8695153 Z M 4.6548215,6.245 4.5525003,6.1391933 4.8594646,5.8217736 H 5.4733931 L 5.7803575,6.139193 5.6780359,6.2449994 Z m -1.2278571,0 L 3.3246431,6.1391933 3.6316074,5.8217736 H 4.2455359 L 4.5525003,6.139193 4.4501787,6.2449993 Z M 5.9850002,3.5350021 5.8826786,3.6408083 5.5757141,3.3233889 V 2.6885499 L 5.8826783,2.3711301 5.9849996,2.4769369 Z M 4.6548215,3.8524216 4.5525003,3.7466149 4.8594644,3.4291952 H 5.4733931 L 5.7803575,3.7466147 5.6780358,3.852421 Z m -1.227857,0 L 3.3246431,3.7466149 3.6316074,3.4291954 H 4.2455361 L 4.5525004,3.7466148 4.4501788,3.8524211 Z M 5.6780358,0.255 5.7803573,0.3608065 5.4733931,0.678226 H 4.8594644 L 4.5525001,0.3608065 4.6548215,0.255 Z M 5.9850002,1.6304847 5.8826787,1.7362911 5.5757144,1.4188717 V 0.7840326 L 5.8826787,0.466613 5.9850002,0.5724196 Z M 4.6548216,1.9479042 4.5525001,1.8420978 4.8594645,1.5246782 H 5.473393 L 5.7803572,1.8420978 5.6780358,1.9479042 Z m -1.2278572,0 L 3.3246429,1.8420978 3.6316073,1.5246782 H 4.2455359 L 4.5525001,1.8420978 4.4501786,1.9479042 Z M 3.1200001,0.5724196 3.2223215,0.4666131 3.5292858,0.7840326 V 1.4188717 L 3.2223215,1.7362912 3.1200001,1.6304847 Z m 1.4325,0 0.2046429,0.211613 V 1.4188717 L 4.5525001,1.6304847 4.3478573,1.4188717 V 0.7840326 Z M 1.0041505,4.6210413 0.64192361,4.9484312 c 0,0 0,0 0,0 L 0.32531725,4.5738668 c 0,0 0,0 0,0 L 0.68754419,4.2464769 c 0,0 0,0 0,0 L 1.0041505,4.6210413 c 0,0 0,0 0,0 z M 3.1200001,5.9275805 3.0176786,6.0333869 2.7107143,5.7159674 V 5.0811282 L 3.0176786,4.7637088 3.1200001,4.8695153 Z M 1.7898214,6.245 1.6875002,6.1391933 1.9944645,5.8217736 H 2.608393 L 2.9153574,6.139193 2.8130358,6.2449994 Z m -1.22785716,0 L 0.45964301,6.1391933 0.76660727,5.8217736 H 1.3805358 L 1.6875002,6.139193 1.5851786,6.2449993 Z M 3.1200001,3.5350021 3.0176785,3.6408083 2.710714,3.3233889 V 2.6885499 L 3.0176782,2.3711301 3.1199995,2.4769369 Z M 1.7898214,3.8524216 1.6875002,3.7466149 1.9944643,3.4291952 H 2.608393 L 2.9153574,3.7466147 2.8130357,3.852421 Z m -1.22785706,0 L 0.45964301,3.7466149 0.76660727,3.4291954 H 1.380536 L 1.6875003,3.7466148 1.5851787,3.8524211 Z M 2.8130357,0.25499999 2.9153572,0.36080649 2.608393,0.678226 H 1.9944643 L 1.6875,0.36080649 1.7898214,0.25499999 Z M 3.1200001,1.6304847 3.0176786,1.7362911 2.7107143,1.4188717 V 0.7840326 L 3.0176786,0.46661299 3.1200001,0.5724196 Z M 1.7898215,1.9479042 1.6875,1.8420978 1.9944644,1.5246782 H 2.6083929 L 2.9153571,1.8420978 2.8130357,1.9479042 Z m -1.22785726,0 L 0.45964282,1.8420978 0.76660717,1.5246782 H 1.3805358 L 1.6875,1.8420978 1.5851785,1.9479042 Z M 0.25499999,0.5724196 0.35732141,0.46661309 0.66428566,0.7840326 V 1.4188717 L 0.35732141,1.7362912 0.25499999,1.6304847 Z m 1.43250001,0 0.2046429,0.211613 V 1.4188717 L 1.6875,1.6304847 1.4828572,1.4188717 V 0.7840326 Z" />
  </g>
</svg>
