<?xml version="1.0" encoding="UTF-8" standalone="no"?>
<svg
   xmlns:dc="http://purl.org/dc/elements/1.1/"
   xmlns:cc="http://creativecommons.org/ns#"
   xmlns:rdf="http://www.w3.org/1999/02/22-rdf-syntax-ns#"
   xmlns:svg="http://www.w3.org/2000/svg"
   xmlns="http://www.w3.org/2000/svg"
   xmlns:sodipodi="http://sodipodi.sourceforge.net/DTD/sodipodi-0.dtd"
   xmlns:inkscape="http://www.inkscape.org/namespaces/inkscape"
   width="12in"
   height="12in"
   viewBox="0 0 12 12"
   version="1.1"
   id="svg8"
   inkscape:version="1.0.1 (3bc2e813f5, 2020-09-07)"
   sodipodi:docname="Elf Black Silhouette for cutting with 15px outline and registration marks.svg">
  <defs
     id="defs2" />
  <sodipodi:namedview
     id="base"
     pagecolor="#ffffff"
     bordercolor="#666666"
     borderopacity="1.0"
     inkscape:pageopacity="0.0"
     inkscape:pageshadow="2"
     inkscape:zoom="0.66583926"
     inkscape:cx="589.43093"
     inkscape:cy="566.36904"
     inkscape:document-units="in"
     inkscape:current-layer="layer1"
     inkscape:document-rotation="0"
     showgrid="true"
     units="in"
     inkscape:snap-global="true"
     inkscape:window-width="1920"
     inkscape:window-height="1017"
     inkscape:window-x="-8"
     inkscape:window-y="-8"
     inkscape:window-maximized="1"
     inkscape:snap-nodes="true"
     inkscape:snap-others="false"
     inkscape:snap-smooth-nodes="true"
     inkscape:object-paths="true"
     inkscape:snap-intersection-paths="true"
     inkscape:snap-grids="false"
     inkscape:snap-to-guides="false">
    <inkscape:grid
       type="xygrid"
       id="grid849"
       units="in"
       spacingx="0.25"
       spacingy="0.25"
       empspacing="4" />
  </sodipodi:namedview>
  <metadata
     id="metadata5">
    <rdf:RDF>
      <cc:Work
         rdf:about="">
        <dc:format>image/svg+xml</dc:format>
        <dc:type
           rdf:resource="http://purl.org/dc/dcmitype/StillImage" />
        <dc:title></dc:title>
        <dc:creator>
          <cc:Agent>
            <dc:title>Doctor Wizard</dc:title>
          </cc:Agent>
        </dc:creator>
        <dc:rights>
          <cc:Agent>
            <dc:title>Copyright 2021+ by Doctor Wizard</dc:title>
          </cc:Agent>
        </dc:rights>
        <dc:publisher>
          <cc:Agent>
            <dc:title>Doctor Wizard</dc:title>
          </cc:Agent>
        </dc:publisher>
        <dc:source>Doctor Wizard</dc:source>
        <dc:contributor>
          <cc:Agent>
            <dc:title>Doctor Wizard</dc:title>
          </cc:Agent>
        </dc:contributor>
      </cc:Work>
    </rdf:RDF>
  </metadata>
  <g
     inkscape:label="Layer 1"
     inkscape:groupmode="layer"
     id="layer1">
    <path
       style="fill:#000000;stroke-width:1"
       d="m 1.4286126,9.0847459 v -0.25 h 0.2516667 0.2516666 v 0.25 0.25 H 1.6802793 1.4286126 Z m 2.7216663,0.120011 c -0.0037,-0.0016 -0.07642,-0.0031 -0.161666,-0.0035 -0.170727,-6.35e-4 -0.281897,-0.004 -0.309931,-0.0095 -0.03158,-0.0061 -0.04721,-0.02291 -0.04932,-0.05284 -0.0012,-0.01656 -1.39e-4,-0.02099 0.0074,-0.03208 l 0.0088,-0.01287 -0.01038,-0.03213 c -0.02076,-0.06429 -0.02411,-0.09202 -0.02424,-0.200465 -1.08e-4,-0.0948 0.0024,-0.123576 0.01738,-0.196667 0.0017,-0.0083 0.0054,-0.027 0.0082,-0.04167 0.0028,-0.01467 0.01279,-0.04917 0.02215,-0.07667 0.0094,-0.0275 0.01859,-0.05525 0.0205,-0.06167 0.0019,-0.0064 0.0095,-0.02217 0.01684,-0.035 0.01348,-0.02355 0.01612,-0.02778 0.04368,-0.07 0.01632,-0.025 0.07337,-0.085255 0.100304,-0.1059246 0.01631,-0.012516 0.08936,-0.050011 0.109646,-0.056279 0.03419,-0.010562 0.146529,-0.0166 0.177282,-0.00953 0.0092,0.00211 0.02799,0.00411 0.04182,0.00445 0.01791,4.394e-4 0.02751,0.0023 0.03333,0.00648 0.04618,0.033099 0.04963,0.037505 0.05327,0.067887 0.0015,0.012604 0.0044,0.028156 0.0063,0.034561 0.002,0.0064 0.0036,0.031247 0.0036,0.055206 0,0.04823 -0.0073,0.08542 -0.02163,0.109817 -0.0043,0.0073 -0.01507,0.02676 -0.02393,0.04317 -0.0089,0.01641 -0.02462,0.03899 -0.03503,0.05017 -0.0228,0.02449 -0.06567,0.0541 -0.08233,0.05685 -0.0067,0.0011 -0.01643,0.0034 -0.02175,0.0051 -0.01696,0.0054 -0.04368,0.0033 -0.07074,-0.0055 -0.01444,-0.0047 -0.02947,-0.01062 -0.03339,-0.01317 -0.0063,-0.0041 -0.0091,-0.0036 -0.025,0.0044 l -0.01787,0.009 -9.66e-4,0.02733 c -8.95e-4,0.02534 -4.12e-4,0.02769 0.0067,0.0323 0.01634,0.01065 0.04876,0.01355 0.149299,0.01336 0.103954,-2e-4 0.1711,-0.0062 0.236667,-0.02127 0.0083,-0.0019 0.0225,-0.0051 0.03167,-0.007 0.0092,-0.002 0.06692,-0.005 0.128333,-0.0066 0.06142,-0.0017 0.116015,-0.0046 0.121331,-0.0064 0.0053,-0.0018 0.0134,-0.0034 0.01797,-0.0034 0.01699,0 0.05288,-0.0133 0.06564,-0.02433 0.0123,-0.01063 0.01266,-0.01151 0.0089,-0.0222 -0.0056,-0.01605 -0.005,-0.07295 9.11e-4,-0.08424 0.0045,-0.0086 0.0043,-0.0095 -0.0051,-0.01611 -0.0054,-0.0039 -0.01904,-0.01061 -0.03028,-0.01502 -0.01125,-0.0044 -0.02359,-0.01006 -0.02744,-0.01256 -0.0038,-0.0025 -0.01234,-0.0063 -0.01889,-0.0084 -0.01654,-0.0054 -0.03091,-0.02167 -0.04137,-0.04676 -0.008,-0.01926 -0.009,-0.02649 -0.0105,-0.075 -0.0022,-0.071759 0.0039,-0.2729562 0.0099,-0.3270179 0.0079,-0.071364 0.01912,-0.1030176 0.04649,-0.1312036 0.02299,-0.023677 0.03198,-0.02713 0.07066,-0.02713 h 0.03186 l -0.0046,-0.00917 c -0.0025,-0.00504 -0.01022,-0.026417 -0.01709,-0.0475 -0.0069,-0.021083 -0.01816,-0.051083 -0.02508,-0.066667 -0.0069,-0.015583 -0.01365,-0.035083 -0.01494,-0.043333 -0.0013,-0.00825 -0.0097,-0.0375 -0.01862,-0.065 -0.03248,-0.099871 -0.03984,-0.1234226 -0.03984,-0.127537 0,-0.00595 -0.0266,-0.067361 -0.0433,-0.099999 -0.01648,-0.032186 -0.02087,-0.054196 -0.02111,-0.1057973 -1.84e-4,-0.039636 0.0038,-0.065014 0.01786,-0.115 0.0034,-0.011917 0.0071,-0.029167 0.0083,-0.038333 0.0012,-0.00917 0.0035,-0.021167 0.0052,-0.026667 0.0016,-0.0055 0.0045,-0.01975 0.0064,-0.031667 0.0019,-0.011917 0.0047,-0.027667 0.0064,-0.035 0.0017,-0.00733 0.0041,-0.018258 0.0055,-0.024276 l 0.0025,-0.010943 -0.01343,0.00215 c -0.0075,0.0012 -0.01861,4.393e-4 -0.02522,-0.00174 -0.01503,-0.00496 -0.03456,-0.026463 -0.0373,-0.041073 -0.0039,-0.020619 0.0034,-0.148394 0.01146,-0.202446 0.0018,-0.011917 0.0056,-0.042667 0.0084,-0.068333 0.0028,-0.025667 0.0065,-0.054167 0.0082,-0.063333 0.0017,-0.00917 0.0047,-0.025667 0.0067,-0.036667 0.002,-0.011 0.0052,-0.02675 0.0071,-0.035 0.0019,-0.00825 0.0056,-0.0285 0.0081,-0.045 0.0081,-0.052682 0.01613,-0.096422 0.02586,-0.14 0.01205,-0.053978 0.01952,-0.086358 0.02421,-0.105 0.0025,-0.010083 0.0064,-0.027333 0.0086,-0.038333 0.0022,-0.011 0.0067,-0.029 0.0099,-0.04 0.0033,-0.011 0.0067,-0.02375 0.0075,-0.028333 8.26e-4,-0.00458 0.0053,-0.023333 0.01,-0.041667 0.0047,-0.018333 0.01039,-0.042333 0.01271,-0.053333 0.0023,-0.011 0.0122,-0.043704 0.02195,-0.072676 0.0098,-0.028972 0.01774,-0.054614 0.01774,-0.056983 0,-0.00237 -0.0032,-0.00717 -0.0071,-0.010658 -0.01074,-0.00955 -0.02279,-0.037881 -0.02283,-0.053653 -1.7e-5,-0.00768 -0.0013,-0.014767 -0.0029,-0.015741 -0.0036,-0.00223 -0.04598,-0.087841 -0.05218,-0.105422 -0.0025,-0.00718 -0.007,-0.023208 -0.0099,-0.035625 -0.0056,-0.023814 -0.0089,-0.037158 -0.01479,-0.059629 -0.002,-0.00755 -0.0036,-0.016668 -0.0036,-0.020272 0,-0.00428 -0.0061,-0.010369 -0.0175,-0.017571 -0.0096,-0.00606 -0.02275,-0.014402 -0.02917,-0.018536 -0.0064,-0.00413 -0.01717,-0.00925 -0.0239,-0.011379 -0.0068,-0.00215 -0.01816,-0.010297 -0.02563,-0.018392 -0.02199,-0.023855 -0.02243,-0.042963 -0.0025,-0.1067956 0.01355,-0.043307 0.01705,-0.059059 0.02224,-0.1 0.0039,-0.031137 0.004,-0.025458 -3.89e-4,-0.078333 -0.0086,-0.1043383 -0.01093,-0.125484 -0.02142,-0.195 -0.003,-0.020167 -0.0067,-0.04501 -0.0082,-0.055207 -0.0029,-0.020115 -0.01334,-0.039059 -0.03016,-0.054793 -0.01025,-0.00959 -0.0334,-0.041636 -0.0334,-0.046237 0,-0.00122 -0.0075,-0.014306 -0.01667,-0.029086 -0.0092,-0.01478 -0.01667,-0.028071 -0.01667,-0.029536 0,-0.00146 -0.0068,-0.014934 -0.01508,-0.02993 -0.0083,-0.014996 -0.02335,-0.044054 -0.03346,-0.064572 -0.01011,-0.020518 -0.01982,-0.039556 -0.02159,-0.042306 -0.0018,-0.00275 -0.0047,-0.00915 -0.0065,-0.014226 -0.0038,-0.010817 -0.01484,-0.015774 -0.035,-0.015774 -0.008,0 -0.02401,-0.00242 -0.03562,-0.00538 -0.04783,-0.012202 -0.0661,-0.030616 -0.0661,-0.066607 0,-0.020648 0.0071,-0.035475 0.02215,-0.046602 0.0071,-0.00521 0.0136,-0.010035 0.01452,-0.010723 0.004,-0.00301 -0.01783,-0.017233 -0.02918,-0.019004 -0.03466,-0.00541 -0.04288,-0.012009 -0.09481,-0.076102 -0.005,-0.00611 -0.01545,-0.015422 -0.02333,-0.020703 -0.0079,-0.00528 -0.02184,-0.01582 -0.03101,-0.023419 -0.0092,-0.0076 -0.03092,-0.024404 -0.04833,-0.037343 -0.01742,-0.012939 -0.03673,-0.027783 -0.04293,-0.032986 -0.01146,-0.00963 -0.02887,-0.022268 -0.05874,-0.042652 -0.0092,-0.00625 -0.02327,-0.01597 -0.03134,-0.02159 -0.0081,-0.00562 -0.01885,-0.010218 -0.02395,-0.010218 -0.01358,0 -0.02599,-0.00555 -0.03947,-0.017639 -0.009,-0.0081 -0.02404,-0.014604 -0.06192,-0.026823 -0.0275,-0.00887 -0.0614,-0.020514 -0.07532,-0.025873 -0.01393,-0.00536 -0.03793,-0.014135 -0.05333,-0.019503 -0.0154,-0.00537 -0.04826,-0.017497 -0.07301,-0.026955 -0.02475,-0.00946 -0.05925,-0.022164 -0.07667,-0.028237 -0.01742,-0.00607 -0.04817,-0.017402 -0.06833,-0.025177 -0.02017,-0.00777 -0.04567,-0.017481 -0.05667,-0.021568 -0.03114,-0.011572 -0.07682,-0.030465 -0.11329,-0.046856 -0.01831,-0.00823 -0.03369,-0.013778 -0.03417,-0.012332 -0.0058,0.017444 -0.01436,0.026633 -0.03421,0.036932 -0.01192,0.00619 -0.02752,0.015874 -0.03467,0.021531 -0.01894,0.014987 -0.04956,0.022286 -0.09398,0.022403 -0.05924,1.553e-4 -0.08614,-0.01174 -0.133957,-0.059228 -0.03212,-0.031905 -0.04249,-0.046068 -0.0624,-0.085252 -0.0073,-0.014434 -0.01515,-0.026948 -0.01738,-0.027809 -0.0044,-0.00172 -0.04585,0.00792 -0.05503,0.012804 -0.0144,0.00766 -0.092,0.019984 -0.190923,0.030326 -0.043044,0.0045 -0.3368024,0.00437 -0.3933334,-1.78e-4 -0.023833,-0.00192 -0.068083,-0.00503 -0.098333,-0.00692 -0.03025,-0.00189 -0.06025,-0.00426 -0.066667,-0.00526 -0.00642,-0.00101 -0.025167,-0.00328 -0.041667,-0.00505 -0.032851,-0.00353 -0.069551,-0.00865 -0.08,-0.011162 -0.00367,-8.819e-4 -0.015667,-0.00332 -0.026667,-0.00542 -0.011,-0.0021 -0.02825,-0.00543 -0.038333,-0.00739 -0.022331,-0.00436 -0.067462,-0.018225 -0.11,-0.033803 -0.047272,-0.017312 -0.073748,-0.034288 -0.1034604,-0.066339 -0.022971,-0.024779 -0.026988,-0.031156 -0.037788,-0.059992 -0.010394,-0.027751 -0.012085,-0.036209 -0.012085,-0.060448 0,-0.041485 0.0078,-0.059334 0.03876,-0.088748 0.019127,-0.018169 0.031967,-0.026831 0.058695,-0.039595 0.018816,-0.00899 0.042461,-0.018156 0.052545,-0.020377 0.010083,-0.00222 0.024333,-0.00545 0.031667,-0.00718 0.00733,-0.00173 0.025333,-0.00469 0.04,-0.00658 0.014667,-0.00189 0.034917,-0.00483 0.045,-0.00654 0.010083,-0.0017 0.030333,-0.00469 0.045,-0.00663 0.014667,-0.00194 0.036417,-0.00502 0.048333,-0.00683 0.025951,-0.00395 0.096277,-0.00859 0.1916666,-0.012668 0.0385,-0.00164 0.07825,-0.00468 0.088333,-0.00675 0.010083,-0.00207 0.026583,-0.0051 0.036667,-0.00673 0.010083,-0.00163 0.026583,-0.00524 0.036667,-0.00801 0.010083,-0.00277 0.026583,-0.00723 0.036667,-0.00992 0.028703,-0.00764 0.059178,-0.021937 0.090162,-0.042295 0.015672,-0.010297 0.041172,-0.026011 0.056667,-0.03492 0.022236,-0.012785 0.034843,-0.0234 0.059838,-0.050386 0.017417,-0.018804 0.032136,-0.036911 0.03271,-0.040237 0.0025,-0.014364 0.0259,-0.081462 0.03643,-0.104382 0.0085,-0.018468 0.01784,-0.031532 0.03581,-0.05 0.01456,-0.014974 0.02584,-0.029816 0.02812,-0.03701 0.0045,-0.014237 0.01412,-0.023838 0.03074,-0.03068 0.0067,-0.00275 0.01792,-0.010187 0.025,-0.016532 0.0071,-0.00634 0.01812,-0.014203 0.02454,-0.017462 0.0064,-0.00326 0.01499,-0.00852 0.01905,-0.01168 0.0062,-0.00483 0.04046,-0.016872 0.08618,-0.030297 0.0056,-0.00165 0.04027,-0.00301 0.07697,-0.00301 h 0.06673 l 0.0199,0.00994 c 0.01094,0.00547 0.02307,0.013344 0.02695,0.0175 0.01168,0.01252 0.02089,0.040628 0.02081,0.063514 -1.24e-4,0.035105 -0.0088,0.048993 -0.08031,0.1288834 l -0.04538,0.050685 -0.0155,0.047237 c -0.0085,0.025981 -0.01547,0.049488 -0.01544,0.052238 3.4e-5,0.00275 0.0027,0.00928 0.0059,0.014514 l 0.0058,0.00951 0.05698,1.73e-4 c 0.03134,9.54e-5 0.05861,-8.378e-4 0.06061,-0.00207 0.0035,-0.00219 0.01657,-0.0053 0.05408,-0.012925 0.02159,-0.00439 0.0574,-0.0043 0.121667,3.097e-4 0.08611,0.00617 0.09715,0.010061 0.13291,0.046827 0.02968,0.030515 0.03518,0.048042 0.03533,0.1125133 9.8e-5,0.044313 -0.0045,0.070384 -0.02557,0.1453342 -0.003,0.010553 -0.0046,0.01994 -0.0037,0.020859 9.2e-4,9.191e-4 0.01323,0.0047 0.02735,0.0084 0.04143,0.010851 0.117472,0.037732 0.157571,0.0557 0.02046,0.00917 0.04295,0.01771 0.05,0.018986 0.007,0.00128 0.02181,0.00655 0.03281,0.011712 0.011,0.00516 0.029,0.01337 0.04,0.018234 0.011,0.00486 0.02225,0.010222 0.025,0.011907 0.01185,0.00726 0.0847,0.043351 0.0875,0.043351 0.0028,0 0.02643,0.013009 0.05866,0.032279 0.0067,0.004 0.01802,0.010521 0.02516,0.014483 0.01855,0.010287 0.07116,0.045618 0.08781,0.058967 0.0078,0.00623 0.02802,0.018108 0.045,0.026393 0.01698,0.00829 0.04061,0.020948 0.05252,0.028138 0.01191,0.00719 0.02508,0.013073 0.02927,0.013073 0.01283,0 0.02908,0.00858 0.03932,0.020768 0.0084,0.00994 0.02653,0.022984 0.06502,0.046682 0.0047,0.00291 0.02134,0.00979 0.03691,0.015286 0.01557,0.00549 0.03562,0.014627 0.04455,0.020294 0.01397,0.00886 0.01936,0.010304 0.03846,0.010304 0.0183,0 0.02552,0.00176 0.04097,0.010012 0.01676,0.00894 0.02231,0.0101 0.05198,0.010833 l 0.03321,8.214e-4 0.01314,0.012829 c 0.01265,0.012357 0.01379,0.012764 0.03099,0.011052 0.03478,-0.00346 0.07812,-0.00884 0.09786,-0.012149 0.03668,-0.00614 0.0631,-0.010034 0.08833,-0.013001 0.01375,-0.00162 0.02832,-0.00426 0.03238,-0.00586 l 0.0074,-0.00292 -0.01165,-0.023305 c -0.01571,-0.031404 -0.04002,-0.10005 -0.04869,-0.1374718 -0.003,-0.013182 -0.0041,-0.014167 -0.01441,-0.014167 -0.0395,0 -0.137767,-0.043555 -0.173332,-0.076825 -0.0092,-0.00857 -0.01996,-0.017308 -0.02399,-0.019407 -0.0099,-0.00515 -0.0703,-0.074261 -0.08488,-0.097101 -0.03376,-0.052881 -0.04623,-0.073649 -0.05605,-0.093333 -0.0059,-0.011917 -0.01364,-0.024765 -0.01711,-0.028552 -0.0035,-0.00379 -0.01069,-0.019537 -0.01605,-0.035 -0.0054,-0.015463 -0.01564,-0.042365 -0.02285,-0.059781 -0.0072,-0.017417 -0.01583,-0.041923 -0.01916,-0.054458 l -0.0061,-0.022791 -0.01127,0.020061 c -0.02118,0.037699 -0.04633,0.052494 -0.07578,0.044566 -0.01249,-0.00336 -0.01419,-0.00297 -0.02347,0.00544 -0.01526,0.013843 -0.03843,0.028768 -0.05423,0.034947 -0.02501,0.00978 -0.05833,0.00556 -0.07033,-0.0089 -0.0036,-0.00436 -0.0081,-0.00508 -0.02173,-0.00348 -0.01252,0.00147 -0.02357,1.137e-4 -0.04077,-0.00501 -0.03855,-0.01148 -0.05686,-0.027568 -0.06026,-0.052957 -0.0042,-0.031377 0.0098,-0.055576 0.03831,-0.066128 0.01189,-0.0044 0.02433,-0.014587 0.05151,-0.042174 0.01971,-0.020003 0.03583,-0.037686 0.03583,-0.039296 0,-0.00161 0.0041,-0.00785 0.0092,-0.013875 0.02408,-0.028762 0.04335,-0.071435 0.05642,-0.1249482 0.0013,-0.00553 -5.68e-4,-0.00881 -0.0078,-0.013333 -0.0244,-0.015295 -0.05802,-0.041991 -0.08898,-0.070657 -0.03572,-0.033075 -0.08933,-0.089652 -0.09824,-0.1036777 -0.0029,-0.00458 -0.0095,-0.013261 -0.01461,-0.019283 -0.0051,-0.00602 -0.0093,-0.012654 -0.0093,-0.014738 0,-0.00208 -0.0021,-0.00616 -0.0048,-0.00905 -0.0026,-0.00289 -0.0092,-0.013666 -0.01456,-0.023938 -0.0087,-0.016574 -0.02107,-0.036611 -0.05016,-0.081325 -0.0048,-0.00733 -0.01284,-0.018261 -0.01794,-0.024283 -0.0051,-0.00602 -0.0093,-0.012634 -0.0093,-0.014692 0,-0.00206 -0.0064,-0.01189 -0.01417,-0.021848 -0.01701,-0.021735 -0.02703,-0.03513 -0.04228,-0.05648 -0.01633,-0.022869 -0.07372,-0.083915 -0.09184,-0.097698 -0.0084,-0.00642 -0.02526,-0.019917 -0.03739,-0.03 -0.02254,-0.018739 -0.03028,-0.025181 -0.08611,-0.071667 -0.01761,-0.014667 -0.04855,-0.041563 -0.06875,-0.05977 -0.03236,-0.029162 -0.04494,-0.042726 -0.08099,-0.087341 -0.04379,-0.054187 -0.01647,-0.1242651 0.04404,-0.112962 0.0096,0.0018 0.01725,0.0074 0.03331,0.024538 0.03444,0.036749 0.05565,0.057155 0.05945,0.05718 0.002,1.33e-5 0.007,0.00371 0.01128,0.00821 0.0065,0.0069 0.03003,0.024136 0.06133,0.04488 0.0039,0.0026 0.01502,0.00998 0.02464,0.016388 0.0096,0.00641 0.01818,0.010974 0.01901,0.010144 8.3e-4,-8.301e-4 -0.0029,-0.010291 -0.0083,-0.021024 -0.0089,-0.017653 -0.0098,-0.022631 -0.0098,-0.052162 0,-0.035337 0.0029,-0.046865 0.01484,-0.059747 0.0057,-0.00613 0.0081,-0.013441 0.0092,-0.027638 0.0029,-0.037625 0.03175,-0.058264 0.07109,-0.050883 0.01307,0.00245 0.04296,0.027382 0.04661,0.038871 0.0033,0.010411 0.0072,0.00719 0.0092,-0.00756 0.002,-0.015204 0.0095,-0.026997 0.02363,-0.037583 0.007,-0.00525 0.01419,-0.00687 0.03038,-0.00687 0.02375,0 0.03615,0.00648 0.04513,0.02357 0.01642,0.031279 0.03514,0.05143 0.04776,0.05143 0.0029,0 0.01358,0.00314 0.02383,0.00697 0.01583,0.00592 0.02351,0.00671 0.05096,0.00523 0.03381,-0.00182 0.07319,-0.00696 0.07616,-0.00993 9.56e-4,-9.565e-4 0.003,-0.011233 0.0046,-0.022838 0.0015,-0.011604 0.0045,-0.026349 0.0065,-0.032765 0.002,-0.00642 0.0058,-0.023667 0.0084,-0.038333 0.0061,-0.034855 0.01967,-0.083674 0.03031,-0.1094416 0.0047,-0.011307 0.0123,-0.031058 0.01697,-0.043892 0.0094,-0.02582 0.02856,-0.062127 0.03615,-0.068424 0.0027,-0.00223 0.0049,-0.00575 0.0049,-0.00782 1.13e-4,-0.00831 0.03617,-0.053803 0.07695,-0.097092 0.01492,-0.015835 0.03736,-0.060737 0.04954,-0.09912 0.0022,-0.00685 0.0053,-0.01329 0.007,-0.014313 0.0017,-0.00102 0.0086,-0.011919 0.01537,-0.024213 0.0068,-0.012294 0.02183,-0.036919 0.03341,-0.054722 0.01158,-0.017803 0.02105,-0.033836 0.02105,-0.035631 0,-0.00179 0.006,-0.010478 0.01339,-0.019298 0.03192,-0.038215 0.03576,-0.043132 0.03984,-0.051036 0.0024,-0.00458 0.01439,-0.018833 0.02672,-0.031667 0.01233,-0.012833 0.02337,-0.026354 0.02454,-0.030045 0.0024,-0.00753 0.0692,-0.069277 0.108295,-0.1000774 0.02969,-0.023387 0.08088,-0.054091 0.10721,-0.0643 0.0527,-0.020435 0.08307,-0.024441 0.198025,-0.026126 0.08009,-0.00117 0.0999,-5.244e-4 0.117323,0.00385 0.01976,0.00496 0.06451,0.024563 0.09799,0.042934 0.0083,0.00453 0.0194,0.0092 0.02477,0.010383 0.0054,0.00118 0.01552,0.00843 0.02254,0.016101 0.007,0.00767 0.01782,0.0192 0.024,0.025617 0.02072,0.02152 0.05203,0.1057347 0.05203,0.1399608 0,0.00543 0.0029,0.021529 0.0065,0.035786 0.0036,0.014256 0.0089,0.03567 0.01176,0.047587 0.0029,0.011917 0.01271,0.046735 0.02187,0.077374 0.0092,0.030639 0.01795,0.062139 0.01953,0.07 0.0028,0.013807 0.02015,0.084136 0.02731,0.1105169 0.0032,0.011847 0.01896,0.037555 0.03293,0.053775 0.0076,0.0088 0.0534,0.08672 0.0534,0.090812 0,0.00175 0.0054,0.013444 0.0121,0.025985 0.0067,0.012541 0.01705,0.037142 0.0231,0.054669 0.0061,0.017527 0.01476,0.042367 0.01935,0.055201 0.02724,0.076181 0.03718,0.1485707 0.03393,0.2468708 -0.002,0.060169 -0.002,0.060211 0.0062,0.071667 0.0045,0.0063 0.01219,0.018963 0.01702,0.028129 0.0048,0.00917 0.01088,0.018987 0.01343,0.021823 0.0025,0.00284 0.0099,0.016627 0.01642,0.030645 0.0065,0.014019 0.01303,0.026262 0.01456,0.027208 0.0015,9.454e-4 0.0184,-0.00573 0.03749,-0.014842 0.03616,-0.017254 0.115266,-0.043608 0.169704,-0.056534 0.03638,-0.00864 0.07425,-0.02198 0.102236,-0.036018 0.01069,-0.00536 0.02318,-0.010881 0.02776,-0.012268 0.0081,-0.00244 0.09325,-0.042494 0.103334,-0.048589 0.0028,-0.00166 0.0104,-0.00595 0.017,-0.00954 0.0066,-0.00358 0.0186,-0.01148 0.02667,-0.017552 0.0081,-0.00607 0.02531,-0.018177 0.03831,-0.026901 0.01301,-0.00872 0.02844,-0.021828 0.0343,-0.02912 0.0059,-0.00729 0.01397,-0.014133 0.01802,-0.015204 0.004,-0.00107 0.01037,-0.00661 0.01403,-0.012304 0.0059,-0.00917 0.01474,-0.016715 0.04485,-0.03828 0.01226,-0.00878 0.0499,-0.00817 0.0622,0.00101 0.01992,0.014874 0.02781,0.035055 0.02324,0.059441 -0.0032,0.017114 -0.06899,0.095035 -0.117239,0.1388763 -0.0072,0.00652 -0.01584,0.016019 -0.01924,0.021107 -0.0034,0.00509 -0.01241,0.011978 -0.02,0.015312 -0.0076,0.00333 -0.03181,0.022141 -0.05381,0.041793 -0.022,0.019652 -0.04318,0.037205 -0.04707,0.039006 -0.004,0.00184 -0.0087,0.00884 -0.01088,0.01598 -0.0021,0.0071 -0.0086,0.016584 -0.01459,0.021498 -0.02989,0.024363 -0.0401,0.03178 -0.04376,0.03178 -0.0066,0 -0.02752,0.024123 -0.0316,0.036377 -0.0021,0.00643 -0.01413,0.021647 -0.02758,0.035 -0.01308,0.012993 -0.02733,0.028873 -0.03167,0.03529 -0.0043,0.00642 -0.01762,0.025167 -0.02952,0.041667 -0.0119,0.0165 -0.02328,0.034125 -0.0253,0.039167 -0.002,0.00504 -0.0047,0.00917 -0.0061,0.00917 -0.0013,0 -0.0059,0.00637 -0.01023,0.014167 -0.0043,0.00779 -0.01059,0.017744 -0.01395,0.022116 -0.0034,0.00437 -0.0061,0.010539 -0.0061,0.013705 0,0.00317 -0.0079,0.017406 -0.0175,0.031646 -0.0096,0.01424 -0.0208,0.030803 -0.02484,0.036807 -0.01043,0.015492 -0.08701,0.097393 -0.112668,0.1204923 l -0.02155,0.0194 0.0093,0.013776 c 0.01611,0.023743 0.04932,0.059075 0.08877,0.094459 0.03992,0.035804 0.04511,0.043706 0.04511,0.068712 0,0.025962 -0.01384,0.047736 -0.03472,0.054626 l -0.01028,0.00339 0.0023,0.024183 c 0.0013,0.013301 0.0032,0.032433 0.0044,0.042517 0.0051,0.045186 -0.03464,0.069522 -0.07973,0.048878 -0.02254,-0.010319 -0.06027,-0.042724 -0.06856,-0.058878 -0.0033,-0.00642 -0.0093,-0.014667 -0.01339,-0.018333 -0.0041,-0.00367 -0.01202,-0.013417 -0.01765,-0.021667 -0.0056,-0.00825 -0.02408,-0.029343 -0.04099,-0.046874 l -0.03075,-0.031874 -0.0021,0.011874 c -0.0011,0.00653 -0.0036,0.028374 -0.0055,0.048541 -0.0019,0.020167 -0.0049,0.051667 -0.0067,0.07 -0.0018,0.018333 -0.0041,0.057717 -0.0051,0.087518 -0.0014,0.043176 -8.82e-4,0.054413 0.0026,0.055308 0.05589,0.014292 0.07938,0.027765 0.12871,0.07384 0.02047,0.019121 0.02734,0.028312 0.03803,0.050914 0.0162,0.034253 0.02052,0.059147 0.0181,0.1043267 -0.0022,0.040039 -0.0075,0.063447 -0.02283,0.1008773 -0.0086,0.021002 -0.01582,0.031557 -0.03671,0.053883 -0.01429,0.015271 -0.03271,0.032017 -0.04094,0.037215 -0.0082,0.0052 -0.01496,0.010453 -0.01497,0.011679 0,0.00237 -0.03127,0.012678 -0.05755,0.01897 -0.0087,0.00209 -0.02994,0.0038 -0.04712,0.0038 -0.03215,0 -0.06528,-0.00821 -0.09621,-0.023844 -0.01569,-0.00793 -0.08117,-0.070613 -0.0886,-0.084823 -0.03114,-0.059533 -0.04049,-0.08739 -0.04061,-0.1210833 l -9.3e-5,-0.02525 -0.02425,0.025688 c -0.0208,0.022034 -0.02627,0.026012 -0.03848,0.027964 -0.009,0.00144 -0.01929,0.0065 -0.02793,0.013718 -0.0075,0.00629 -0.01942,0.014364 -0.02643,0.017936 -0.009,0.00461 -0.01272,0.00865 -0.01269,0.013928 1.06e-4,0.020195 0.0287,0.1131856 0.04943,0.1607656 l 0.01162,0.026667 h 0.193622 c 0.137201,0 0.198965,0.00116 0.211956,0.00397 0.01008,0.00218 0.02733,0.00577 0.03833,0.00798 0.011,0.00221 0.02927,0.0069 0.0406,0.010412 0.0172,0.00534 0.02683,0.00608 0.05833,0.00451 0.02076,-0.00104 0.06369,-0.00273 0.0954,-0.00376 0.05423,-0.00176 0.05855,-0.00145 0.07241,0.00526 0.0086,0.00417 0.01651,0.00603 0.019,0.00447 0.0023,-0.00147 0.02001,-0.00382 0.03926,-0.00523 0.051,-0.00373 0.0865,-0.00821 0.101666,-0.012833 0.0073,-0.00223 0.02683,-0.00456 0.04333,-0.00517 0.0165,-6.123e-4 0.036,-0.00256 0.04333,-0.00433 0.0073,-0.00177 0.02074,-0.00407 0.02979,-0.0051 0.01857,-0.00212 0.02603,-0.00513 0.08494,-0.034221 0.02307,-0.011393 0.04857,-0.023038 0.05666,-0.025878 0.0081,-0.00284 0.01639,-0.00656 0.01845,-0.00827 0.004,-0.00334 0.03493,-0.014307 0.07517,-0.026678 0.01375,-0.00423 0.04225,-0.013351 0.06333,-0.020274 0.02108,-0.00692 0.05108,-0.015917 0.06667,-0.019986 0.06148,-0.016051 0.07575,-0.019541 0.095,-0.023238 0.011,-0.00211 0.026,-0.00524 0.03333,-0.00694 0.0073,-0.00171 0.02758,-0.0046 0.045,-0.00644 0.01742,-0.00184 0.04142,-0.00489 0.05333,-0.00679 0.0199,-0.00317 0.07425,-0.00738 0.152694,-0.01183 0.0195,-0.00111 0.0315,-0.00322 0.03231,-0.0057 7.03e-4,-0.00216 0.0029,-0.024933 0.0049,-0.0506 0.0037,-0.047103 0.01352,-0.089275 0.02686,-0.115 0.0078,-0.015013 0.04543,-0.051923 0.05762,-0.056486 0.0052,-0.00193 0.02091,-0.00351 0.035,-0.00351 0.03965,3.3e-6 0.05343,0.00757 0.13502,0.074085 0.01737,0.014165 0.03962,0.034688 0.04943,0.045608 0.0098,0.010919 0.02551,0.024966 0.03488,0.031216 l 0.01705,0.011363 0.0118,-0.00606 c 0.0065,-0.00333 0.02807,-0.010019 0.04795,-0.014864 0.01988,-0.00484 0.03787,-0.00976 0.03999,-0.010915 0.0021,-0.00116 0.01742,-0.014107 0.03402,-0.028774 0.04853,-0.042877 0.07431,-0.064169 0.09261,-0.076489 0.03,-0.020195 0.162971,-0.1571944 0.170687,-0.1758615 0.0025,-0.00598 0.0077,-0.015397 0.01166,-0.020927 0.0097,-0.013578 0.01152,-0.017008 0.05587,-0.104091 0.02128,-0.04178 0.04105,-0.080464 0.04393,-0.085964 0.0029,-0.0055 0.01001,-0.022971 0.01582,-0.038825 0.0089,-0.024229 0.01025,-0.031669 0.0085,-0.046667 -0.0038,-0.032407 -0.0092,-0.1172513 -0.0097,-0.1530945 -5.15e-4,-0.033213 -3.4e-5,-0.036042 0.0085,-0.048897 0.01907,-0.028799 0.0588,-0.047517 0.100861,-0.047517 0.0443,0 0.07397,0.015958 0.121903,0.065548 0.03966,0.041034 0.05697,0.065296 0.08166,0.1144518 0.02061,0.041038 0.02477,0.062686 0.02483,0.1291188 3.3e-5,0.034054 -0.0016,0.06777 -0.0037,0.076667 -0.0054,0.022651 -0.02295,0.074651 -0.02789,0.082643 -0.0023,0.00372 -0.0089,0.018666 -0.01477,0.033215 -0.0058,0.01455 -0.01206,0.028224 -0.01386,0.030388 -0.0018,0.00216 -0.0099,0.01754 -0.01798,0.03417 l -0.01472,0.030236 0.079,0.00138 c 0.09046,0.00158 0.180586,0.00698 0.207333,0.012425 0.01008,0.00205 0.02508,0.00501 0.03333,0.00658 0.09352,0.017786 0.169211,0.039354 0.215,0.061266 0.0092,0.00439 0.02909,0.013468 0.04428,0.020181 0.08219,0.036324 0.183862,0.1299577 0.196035,0.180533 0.0013,0.00524 0.0066,0.02044 0.01182,0.03378 0.0091,0.023291 0.0095,0.026491 0.0095,0.08062 0,0.054781 -2.9e-4,0.057146 -0.01029,0.08408 -0.02444,0.065793 -0.03893,0.08793 -0.09427,0.1440163 -0.02931,0.029699 -0.04287,0.040836 -0.06936,0.056962 -0.0031,0.00187 -0.01807,0.011093 -0.03333,0.020494 -0.06626,0.040819 -0.177173,0.08236 -0.266079,0.099656 -0.0064,0.00125 -0.01767,0.00365 -0.025,0.00533 -0.01304,0.00299 -0.03652,0.00705 -0.07667,0.013251 -0.02446,0.00378 -0.07484,0.00915 -0.121667,0.012983 -0.01925,0.00157 -0.05,0.0047 -0.06833,0.00696 -0.02168,0.00266 -0.08345,0.00408 -0.176667,0.00405 -0.136831,-3.87e-5 -0.191116,-0.00264 -0.231666,-0.011087 -0.03296,-0.00687 -0.04805,-0.00982 -0.06667,-0.013047 -0.02414,-0.00418 -0.03803,-0.00838 -0.06618,-0.019988 -0.02582,-0.010648 -0.06832,-0.034314 -0.0791,-0.044048 -0.0068,-0.00616 -0.0073,-0.00612 -0.02593,0.00212 -0.01344,0.00594 -0.02485,0.00839 -0.03907,0.00839 -0.01905,0 -0.02113,8.379e-4 -0.03998,0.01609 -0.01958,0.015847 -0.03455,0.032908 -0.06924,0.07891 -0.02975,0.039458 -0.0693,0.080488 -0.08483,0.088007 -0.01979,0.00958 -0.0519,0.00944 -0.07788,-3.31e-4 -0.01656,-0.00623 -0.02509,-0.013075 -0.0571,-0.045833 -0.03055,-0.031263 -0.04037,-0.043842 -0.05216,-0.066843 -0.008,-0.015583 -0.01963,-0.037333 -0.02586,-0.048333 -0.0096,-0.016956 -0.02283,-0.046149 -0.04049,-0.089434 -0.0033,-0.00798 -0.0054,-0.00922 -0.01385,-0.00803 -0.01,0.0014 -0.05888,0.013622 -0.103335,0.025816 -0.02073,0.00569 -0.05705,0.014452 -0.09667,0.023332 -0.01775,0.00398 -0.04257,0.00892 -0.065,0.012955 -0.01008,0.00181 -0.02658,0.00496 -0.03667,0.00701 -0.01008,0.00204 -0.04008,0.00523 -0.06667,0.00708 -0.02658,0.00185 -0.06633,0.00491 -0.08833,0.0068 -0.06749,0.0058 -0.15324,0.00394 -0.203373,-0.00441 -0.0019,-3.087e-4 -0.02449,0.00644 -0.0503,0.014994 -0.02581,0.00856 -0.04923,0.015556 -0.05205,0.015556 -0.0028,0 -0.01378,0.00383 -0.02437,0.00852 -0.01059,0.00468 -0.02687,0.00996 -0.03617,0.011724 -0.0093,0.00176 -0.02222,0.00597 -0.0287,0.00935 -0.01866,0.00973 -0.04738,0.01696 -0.07563,0.019049 -0.01434,0.00106 -0.03508,0.00459 -0.04608,0.00785 -0.011,0.00326 -0.03275,0.00928 -0.04833,0.013399 -0.01558,0.00411 -0.04483,0.013474 -0.065,0.020799 -0.02017,0.00733 -0.04642,0.016122 -0.05833,0.019547 -0.05562,0.015989 -0.0771,0.025403 -0.08434,0.036957 -0.0091,0.014555 -0.02024,0.038137 -0.03268,0.069315 -0.0055,0.013841 -0.01296,0.030143 -0.01653,0.036227 -0.0082,0.013893 -0.03308,0.076778 -0.0332,0.083746 -5e-5,0.00286 -0.0043,0.015101 -0.0095,0.027211 -0.0094,0.021947 -0.0094,0.022058 -0.0033,0.033886 0.0033,0.00653 0.01174,0.017279 0.01865,0.023894 0.02525,0.024171 0.04055,0.037319 0.04814,0.041377 0.0043,0.00228 0.01226,0.00653 0.01776,0.00943 0.01362,0.00719 0.02153,0.014296 0.02849,0.025576 0.0077,0.012532 0.07902,0.072151 0.08628,0.072151 0.0079,0 0.02193,0.015586 0.02996,0.033333 0.01036,0.022878 0.0093,0.048214 -0.0031,0.071667 -0.01701,0.032346 -0.01547,0.037408 0.02441,0.08 0.01888,0.020167 0.04012,0.045667 0.0472,0.056667 0.0071,0.011 0.01617,0.02375 0.02021,0.028333 0.0072,0.0082 0.01299,0.017971 0.02304,0.039 0.0035,0.00725 0.01,0.01283 0.02039,0.01743 0.0084,0.00372 0.02243,0.01317 0.03115,0.021001 0.01846,0.016578 0.01993,0.01734 0.06994,0.036323 0.02089,0.00793 0.04323,0.018588 0.04964,0.02368 0.0064,0.00509 0.02081,0.012117 0.03201,0.015612 0.0112,0.00349 0.03461,0.014256 0.05203,0.023914 0.01742,0.00966 0.04592,0.024298 0.06333,0.032532 0.04337,0.020503 0.138867,0.072706 0.153237,0.083766 0.0065,0.00498 0.01811,0.010833 0.02586,0.01301 0.01,0.0028 0.01777,0.00835 0.02667,0.019003 0.0069,0.00828 0.02232,0.022302 0.03424,0.03117 0.01192,0.00887 0.04267,0.035994 0.06833,0.060279 0.02567,0.024285 0.05242,0.047806 0.05945,0.05227 0.007,0.00446 0.01528,0.012631 0.01833,0.018151 0.0049,0.00882 0.01906,0.020397 0.07222,0.058968 0.0073,0.00532 0.0175,0.010661 0.02258,0.011867 0.01053,0.0025 0.03575,0.023953 0.03575,0.030411 0,0.00235 0.006,0.012253 0.01332,0.022002 0.02515,0.033475 0.02209,0.068641 -0.0079,0.091072 -0.0087,0.00647 -0.01435,0.00693 -0.09702,0.00786 l -0.08782,9.87e-4 0.01452,0.022346 c 0.01569,0.024134 0.01701,0.02566 0.03571,0.041046 0.0081,0.00665 0.01387,0.015124 0.01646,0.024109 0.0022,0.00762 0.01218,0.026608 0.02218,0.042191 0.03628,0.056556 0.03964,0.061855 0.04648,0.073333 0.0038,0.00642 0.01546,0.026667 0.02587,0.045 0.01041,0.018333 0.02214,0.036818 0.02607,0.041078 0.0076,0.0082 0.03082,0.049214 0.05112,0.09019 0.01006,0.020303 0.01241,0.029039 0.01348,0.05 0.0015,0.028732 -0.0038,0.043143 -0.02019,0.055162 -0.01705,0.012512 -0.06297,0.00719 -0.118687,-0.013762 -0.01755,-0.0066 -0.0364,-0.013122 -0.0419,-0.0145 -0.0055,-0.00138 -0.02313,-0.00776 -0.03917,-0.014185 l -0.02917,-0.01168 0.0075,0.00997 c 0.0041,0.00548 0.01125,0.015734 0.01583,0.02278 0.0046,0.00705 0.0165,0.024542 0.02649,0.03888 0.01,0.014338 0.02126,0.030569 0.02504,0.036069 0.0038,0.0055 0.0094,0.013 0.01241,0.016667 0.02536,0.030595 0.03939,0.048302 0.03939,0.049706 0,0.0047 0.02397,0.037963 0.05083,0.070541 0.0069,0.00834 0.0125,0.016705 0.0125,0.018596 0,0.00459 0.0081,0.015052 0.05538,0.072002 0.0057,0.00687 0.01271,0.016989 0.01557,0.022489 0.0029,0.0055 0.01257,0.01825 0.02159,0.028333 0.009,0.010083 0.02038,0.024333 0.02523,0.031667 0.02595,0.039193 0.05272,0.068777 0.102892,0.1137157 0.02432,0.02179 0.05704,0.051618 0.07269,0.066284 0.01565,0.014667 0.06218,0.056888 0.103386,0.093824 0.04121,0.036936 0.07942,0.071905 0.08491,0.077708 0.0055,0.0058 0.01614,0.01327 0.02365,0.016595 0.01476,0.00653 0.0435,0.034308 0.04675,0.045181 0.0026,0.00868 0.16157,0.1669467 0.170565,0.1698017 0.0086,0.00274 0.0307,0.026898 0.0307,0.033613 0,0.00567 0.02173,0.033025 0.04254,0.053554 l 0.0138,0.013611 0.01433,-0.0072 c 0.0079,-0.00396 0.02333,-0.012658 0.03433,-0.019331 0.011,-0.00667 0.02754,-0.015702 0.03675,-0.020065 0.0092,-0.00436 0.02308,-0.011925 0.03081,-0.016806 0.01639,-0.010349 0.06529,-0.028822 0.07629,-0.028822 0.0042,0 0.0155,-0.00313 0.0252,-0.00697 0.01373,-0.00543 0.02316,-0.00672 0.04271,-0.00583 0.0218,9.837e-4 0.02775,0.00272 0.0454,0.013229 0.01117,0.00665 0.02568,0.01387 0.03224,0.016037 0.01232,0.00407 0.03227,0.023625 0.03227,0.031635 0,0.0025 0.01514,0.022318 0.03364,0.044051 0.03619,0.042507 0.06863,0.088627 0.07931,0.112762 0.0037,0.00825 0.01212,0.023264 0.01882,0.033363 0.0067,0.010099 0.01496,0.025654 0.01834,0.034567 0.0034,0.00891 0.0091,0.022044 0.01272,0.02918 0.01267,0.025051 0.02706,0.060608 0.03172,0.07837 0.0026,0.00987 0.0073,0.02675 0.01043,0.03752 0.0048,0.016277 0.0055,0.029778 0.0043,0.08 -0.0016,0.068229 -0.004,0.077817 -0.02411,0.093834 -0.0068,0.00545 -0.0237,0.021488 -0.03747,0.035629 -0.01377,0.014141 -0.0279,0.026617 -0.03139,0.027724 -0.0088,0.0028 -0.008,0.013668 0.0012,0.01613 0.0041,0.00111 0.01565,0.00203 0.02561,0.00206 0.02213,5.67e-5 0.04258,0.00926 0.05697,0.025647 0.01016,0.01157 0.01035,0.012411 0.0092,0.040607 -6.47e-4,0.015836 -0.0024,0.031417 -0.0039,0.034626 -0.002,0.00427 -0.0013,0.00583 0.0026,0.00583 0.0029,0 0.01116,0.00525 0.01826,0.011667 0.01101,0.00995 0.01531,0.011674 0.02918,0.011716 0.01631,5e-5 0.04607,0.00798 0.0608,0.016195 0.0043,0.00242 0.01662,0.012124 0.02731,0.021574 0.01069,0.00945 0.0242,0.020824 0.03004,0.025276 0.0058,0.00445 0.0123,0.011951 0.01436,0.016667 0.0021,0.0047 0.01122,0.01982 0.02034,0.03357 0.02068,0.03116 0.04217,0.07305 0.05644,0.11 l 0.01094,0.02833 0.03968,0.0023 c 0.02183,0.0013 0.05918,0.0039 0.08302,0.0058 0.02383,0.0019 0.09208,0.0058 0.151667,0.0087 0.102347,0.0049 0.132905,0.0064 0.295,0.01469 0.08775,0.0045 0.148699,0.0091 0.173333,0.0131 0.011,0.0018 0.03125,0.0047 0.045,0.0065 0.01375,0.0018 0.03362,0.0056 0.04417,0.0085 0.01054,0.0029 0.02707,0.0074 0.03673,0.0099 0.02865,0.0075 0.06659,0.02179 0.08082,0.03037 0.0073,0.0044 0.02004,0.01169 0.02829,0.01618 0.01942,0.01058 0.02685,0.01929 0.03775,0.04425 0.01746,0.03997 0.0097,0.09826 -0.0187,0.140551 -0.01663,0.02476 -0.09165,0.09687 -0.110715,0.106418 -0.0092,0.0046 -0.01967,0.01096 -0.02333,0.01416 -0.0078,0.0068 -0.06496,0.03298 -0.103302,0.04733 -0.01465,0.0055 -0.02817,0.01125 -0.03006,0.01281 -0.0047,0.0039 -0.08631,0.03331 -0.09247,0.03331 -0.0027,0 -0.02655,0.0083 -0.05291,0.01841 -0.02636,0.01013 -0.06068,0.02146 -0.07626,0.0252 -0.01558,0.0037 -0.04633,0.0125 -0.06833,0.01947 -0.04705,0.01493 -0.06617,0.01982 -0.09333,0.02389 -0.011,0.0016 -0.0275,0.0045 -0.03667,0.0064 -0.02876,0.0058 -0.08952,0.01471 -0.138334,0.02018 -0.07734,0.0087 -0.08962,0.0097 -0.245,0.01973 -0.02933,0.0019 -0.07208,0.005 -0.095,0.0068 -0.04009,0.0032 -0.08236,0.0057 -0.23,0.01351 -0.166894,0.0088 -0.43552,0.0027 -0.59,-0.01348 -0.01742,-0.0018 -0.04817,-0.0048 -0.06833,-0.0067 -0.135181,-0.01258 -0.189291,-0.02063 -0.245,-0.03645 -0.01375,-0.0039 -0.03025,-0.008 -0.03667,-0.009 -0.01504,-0.0025 -0.07466,-0.03101 -0.106257,-0.05079 -0.01352,-0.0085 -0.04297,-0.03265 -0.06543,-0.05373 -0.06819,-0.06401 -0.07538,-0.06771 -0.131647,-0.06781 -0.02108,-3.7e-5 -0.04583,0.0016 -0.055,0.0037 -0.0092,0.0021 -0.02567,0.0055 -0.03667,0.0076 -0.03604,0.0069 -0.05311,0.01078 -0.06833,0.01563 -0.0083,0.0026 -0.02175,0.0059 -0.03,0.0074 -0.01556,0.0027 -0.046,0.01001 -0.08333,0.0201 -0.02454,0.0066 -0.06966,0.0172 -0.106667,0.02499 -0.01375,0.0029 -0.04075,0.0092 -0.06,0.01398 -0.01925,0.0048 -0.04175,0.0098 -0.05,0.01106 -0.0083,0.0013 -0.02475,0.0057 -0.03667,0.0099 -0.02129,0.0074 -0.03395,0.01019 -0.07622,0.0169 -0.01167,0.0019 -0.02253,0.0042 -0.02413,0.0052 -0.0034,0.0021 -0.02914,0.0086 -0.05799,0.01467 -0.011,0.0023 -0.029,0.007 -0.04,0.01034 -0.011,0.0034 -0.026,0.007 -0.03333,0.0081 -0.0073,0.0011 -0.02008,0.0035 -0.02833,0.0054 -0.0083,0.0019 -0.021,0.0047 -0.02833,0.0063 -0.0073,0.0016 -0.02083,0.0046 -0.03,0.0067 -0.0092,0.0021 -0.02304,0.0052 -0.03083,0.0069 -0.0078,0.0017 -0.02129,0.0047 -0.03,0.0067 -0.01877,0.0042 -0.03585,0.008 -0.06083,0.01342 -0.01008,0.0022 -0.02583,0.0061 -0.035,0.0088 -0.0092,0.0026 -0.02642,0.0062 -0.03833,0.0078 -0.01192,0.0017 -0.02992,0.0046 -0.04,0.0066 -0.01008,0.0019 -0.02883,0.0047 -0.04167,0.0062 -0.01283,0.0015 -0.02582,0.0038 -0.02885,0.0051 -0.01184,0.005 -0.353357,0.0092 -0.831148,0.01029 -0.275852,6.16e-4 -0.502989,-1.74e-4 -0.506667,-0.0018 z m 1.223334,-0.512147 c 0.0037,-9.52e-4 0.01942,-0.0032 0.035,-0.005 0.01558,-0.0018 0.03883,-0.0047 0.05167,-0.0064 0.01283,-0.0017 0.04733,-0.0055 0.07667,-0.0084 0.101914,-0.01003 0.131529,-0.01327 0.198333,-0.02167 0.01375,-0.0017 0.0415,-0.0047 0.06167,-0.0066 0.04149,-0.0039 0.07815,-0.0078 0.126667,-0.01318 0.01833,-0.0021 0.04533,-0.005 0.06,-0.0067 0.03975,-0.0043 0.132099,-0.01342 0.17,-0.01668 0.01833,-0.0016 0.04833,-0.0046 0.06667,-0.0067 0.01833,-0.0021 0.04758,-0.0051 0.065,-0.0067 0.01742,-0.0016 0.04817,-0.0046 0.06833,-0.0066 0.0635,-0.0064 0.09881,-0.0098 0.138333,-0.01334 0.02108,-0.0019 0.05333,-0.0049 0.07167,-0.0067 0.01833,-0.0018 0.05133,-0.0048 0.07333,-0.0068 0.09103,-0.008 0.108252,-0.0097 0.141667,-0.01326 0.06363,-0.0069 0.186074,-0.01588 0.22226,-0.01634 l 0.02393,-3.07e-4 0.0017,-0.04917 c 0.0025,-0.07203 0.0091,-0.117426 0.02413,-0.1671582 0.0047,-0.015396 0.01136,-0.033373 0.01488,-0.039951 0.0035,-0.00658 0.0064,-0.013337 0.0064,-0.015021 0,-0.00168 0.0056,-0.012781 0.0125,-0.02466 0.03193,-0.055174 0.04044,-0.066774 0.06546,-0.089295 l 0.02194,-0.019748 -0.0091,-0.013345 c -0.005,-0.00734 -0.01474,-0.02068 -0.02162,-0.029646 -0.0069,-0.00897 -0.0125,-0.017379 -0.0125,-0.018698 0,-0.00132 -0.0074,-0.015727 -0.01638,-0.032021 -0.03288,-0.059483 -0.06308,-0.1578153 -0.06915,-0.2251753 -0.0026,-0.028685 0.0082,-0.055109 0.03092,-0.07589 0.01679,-0.015346 0.01733,-0.016325 0.0099,-0.018179 -0.0074,-0.00185 -0.02349,-0.018094 -0.03585,-0.036096 -0.003,-0.00442 -0.01152,-0.00984 -0.01886,-0.012037 -0.01322,-0.00396 -0.03396,-0.023323 -0.03396,-0.031709 0,-0.00695 -0.02076,-0.024459 -0.034,-0.028679 -0.01115,-0.00355 -0.03267,-0.023151 -0.03267,-0.029746 0,-0.00381 -0.124491,-0.1172034 -0.148333,-0.1351127 -0.011,-0.00826 -0.02375,-0.017882 -0.02833,-0.021376 -0.0046,-0.00349 -0.01162,-0.00739 -0.01563,-0.00865 -0.0085,-0.00266 -0.02771,-0.02347 -0.02771,-0.029964 0,-0.00243 -0.01537,-0.018489 -0.03417,-0.03568 -0.01879,-0.017192 -0.04768,-0.044024 -0.0642,-0.059628 -0.01652,-0.015604 -0.04255,-0.038871 -0.05784,-0.051704 -0.01529,-0.012833 -0.04003,-0.033892 -0.05496,-0.046797 -0.01494,-0.012905 -0.03796,-0.032038 -0.05117,-0.042518 -0.01321,-0.01048 -0.02543,-0.021591 -0.02717,-0.024691 -0.003,-0.00532 -0.02972,-0.034509 -0.06422,-0.070109 -0.0085,-0.00874 -0.02028,-0.019532 -0.02625,-0.023989 -0.006,-0.00446 -0.01294,-0.013082 -0.01548,-0.019167 -0.0025,-0.00608 -0.006,-0.011064 -0.0077,-0.011064 -0.007,0 -0.0237,-0.018085 -0.0271,-0.029424 -0.0035,-0.011586 -0.02229,-0.032885 -0.05895,-0.066717 -0.0095,-0.00879 -0.01417,-0.015853 -0.01417,-0.021547 0,-0.00566 -0.0035,-0.011042 -0.01057,-0.016225 -0.01748,-0.012818 -0.04955,-0.047066 -0.05415,-0.057829 -0.0054,-0.012651 -0.0302,-0.04254 -0.06867,-0.082776 -0.01639,-0.017143 -0.03096,-0.034186 -0.03237,-0.037873 -0.0014,-0.00369 -0.0142,-0.019031 -0.02841,-0.034099 -0.02158,-0.022881 -0.02585,-0.026114 -0.02591,-0.019619 -9.7e-5,0.00904 -0.01034,0.04086 -0.01765,0.054822 -0.0067,0.01283 -0.02504,0.030039 -0.03665,0.034417 -0.0052,0.00195 -0.02063,0.00354 -0.03438,0.00354 -0.02717,0 -0.04571,-0.00699 -0.09035,-0.034066 -0.01392,-0.00844 -0.02476,-0.012601 -0.03286,-0.012601 -0.01034,0 -0.01168,8.433e-4 -0.0093,0.00583 0.0028,0.00599 0.0066,0.096436 0.0098,0.2333544 0.0017,0.073399 0.0014,0.078563 -0.0053,0.09711 -0.0086,0.023621 -0.02379,0.042897 -0.03868,0.049117 -0.01337,0.00559 -0.03953,0.00572 -0.05215,2.7e-4 -0.0051,-0.00221 -0.03436,-0.030397 -0.065,-0.06264 -0.05243,-0.055173 -0.06973,-0.071768 -0.10962,-0.1051741 l -0.01649,-0.013807 -0.0078,0.020473 c -0.02919,0.076511 -0.05005,0.1097433 -0.07585,0.120854 -0.01751,0.00754 -0.04515,0.00567 -0.07778,-0.00526 -0.05077,-0.01701 -0.08793,-0.039203 -0.126397,-0.075491 l -0.02274,-0.021454 -0.01078,0.025912 c -0.0059,0.014252 -0.01723,0.037913 -0.02512,0.052579 -0.0079,0.014667 -0.01895,0.038667 -0.0246,0.053333 -0.0056,0.014667 -0.01458,0.036417 -0.01986,0.048333 -0.01393,0.031444 -0.04097,0.1025347 -0.05551,0.1459264 l -0.01259,0.037593 0.0092,0.037407 c 0.0082,0.033475 0.02845,0.089984 0.04029,0.112407 0.01896,0.035916 0.03731,0.081478 0.04843,0.120259 0.0035,0.012059 0.008,0.026309 0.01006,0.031667 0.0021,0.00536 0.0053,0.018741 0.0071,0.029741 0.0018,0.011 0.0047,0.02825 0.0064,0.038333 0.0069,0.041577 0.01014,0.071002 0.01314,0.12 0.0056,0.091919 0.0064,0.097477 0.01265,0.094732 0.003,-0.00133 0.02129,-0.00364 0.04054,-0.00514 0.01925,-0.0015 0.04058,-0.00367 0.04739,-0.00484 0.01475,-0.00253 0.0343,0.00583 0.0549,0.023459 0.01104,0.00945 0.01524,0.016754 0.02346,0.040817 0.01052,0.030801 0.01462,0.046403 0.02081,0.079306 0.0021,0.011 0.0053,0.026993 0.0072,0.03554 0.0046,0.020973 0.0137,0.1783493 0.01413,0.24446 3.93e-4,0.059452 -0.0032,0.082517 -0.01781,0.1133332 -0.01524,0.03221 -0.06597,0.07613 -0.113494,0.09825 -0.01369,0.0064 -0.02536,0.01184 -0.02594,0.01216 -5.77e-4,3.17e-4 0.0035,0.0092 0.0092,0.01972 0.0056,0.01053 0.01022,0.02325 0.01022,0.02827 0,0.005 0.0039,0.01756 0.0086,0.02787 0.0063,0.01371 0.0083,0.0232 0.0077,0.03534 -8.78e-4,0.01654 -7.86e-4,0.0167 0.02424,0.04249 0.01382,0.01424 0.02686,0.02918 0.02898,0.0332 0.0036,0.0067 0.0057,0.0072 0.02801,0.0056 0.01328,-9.2e-4 0.02715,-0.0025 0.03082,-0.0034 z m 2.127274,-0.193282 0.04394,-0.0016 0.0021,-0.0096 c 0.0013,-0.006 1.33e-4,-0.01339 -0.0031,-0.01966 -0.0029,-0.0055 -0.0052,-0.01506 -0.0052,-0.02115 0,-0.0092 -0.0019,-0.01212 -0.01142,-0.01722 -0.01548,-0.0083 -0.02636,-0.02026 -0.03837,-0.04206 -0.0094,-0.01707 -0.0101,-0.01763 -0.01017,-0.0083 -1.24e-4,0.0153 -0.0249,0.08434 -0.03388,0.09441 -0.0044,0.0049 -0.01146,0.01395 -0.01575,0.0201 l -0.0078,0.01118 0.01786,-0.0023 c 0.0098,-0.0012 0.03763,-0.003 0.0618,-0.0039 z M 1.4286126,1.5864127 V 1.334746 H 1.6802793 1.9319459 V 1.5864127 1.8380793 H 1.6802793 1.4286126 Z m 7.5000003,0 V 1.334746 h 0.25 0.25 v 0.2516667 0.2516666 h -0.25 -0.25 z"
       id="path845" />
  </g>
</svg>
