<?xml version="1.0" encoding="UTF-8" standalone="no"?>
<!-- Created with Inkscape (http://www.inkscape.org/) -->

<svg
   xmlns:dc="http://purl.org/dc/elements/1.1/"
   xmlns:cc="http://creativecommons.org/ns#"
   xmlns:rdf="http://www.w3.org/1999/02/22-rdf-syntax-ns#"
   xmlns:svg="http://www.w3.org/2000/svg"
   xmlns="http://www.w3.org/2000/svg"
   xmlns:sodipodi="http://sodipodi.sourceforge.net/DTD/sodipodi-0.dtd"
   xmlns:inkscape="http://www.inkscape.org/namespaces/inkscape"
   width="18in"
   height="12in"
   viewBox="0 0 1296 864"
   version="1.1"
   id="svg8"
   inkscape:version="0.92.3 (2405546, 2018-03-11)"
   sodipodi:docname="104.1 fm SINGLE.svg">
  <defs
     id="defs2" />
  <sodipodi:namedview
     id="base"
     pagecolor="#3f3f3f"
     bordercolor="#ff0000"
     borderopacity="1"
     inkscape:pageopacity="0"
     inkscape:pageshadow="2"
     inkscape:zoom="0.87885424"
     inkscape:cx="630.98772"
     inkscape:cy="609.48576"
     inkscape:document-units="in"
     inkscape:current-layer="layer1"
     showgrid="true"
     units="in"
     gridtolerance="10"
     inkscape:window-width="1920"
     inkscape:window-height="1017"
     inkscape:window-x="-8"
     inkscape:window-y="-8"
     inkscape:window-maximized="1"
     borderlayer="true"
     inkscape:snap-global="false">
    <inkscape:grid
       type="xygrid"
       id="grid815"
       units="in"
       spacingx="18"
       spacingy="18"
       empspacing="4"
       empcolor="#007fff"
       empopacity="0.25098039"
       color="#0000ff"
       opacity="0.1254902"
       originy="-1692" />
  </sodipodi:namedview>
  <metadata
     id="metadata5">
    <rdf:RDF>
      <cc:Work
         rdf:about="">
        <dc:format>image/svg+xml</dc:format>
        <dc:type
           rdf:resource="http://purl.org/dc/dcmitype/StillImage" />
        <dc:title></dc:title>
        <dc:creator>
          <cc:Agent>
            <dc:title>Doctor Wizard</dc:title>
          </cc:Agent>
        </dc:creator>
        <dc:rights>
          <cc:Agent>
            <dc:title>© 2019 Doctor Wizard and Wizlights</dc:title>
          </cc:Agent>
        </dc:rights>
        <dc:publisher>
          <cc:Agent>
            <dc:title>Doctor Wizard</dc:title>
          </cc:Agent>
        </dc:publisher>
      </cc:Work>
    </rdf:RDF>
  </metadata>
  <g
     inkscape:label="Layer 1"
     inkscape:groupmode="layer"
     id="layer1"
     transform="translate(0,-528.09999)">
    <g
       id="g1721"
       transform="matrix(1,0,0,0.9374998,0,76.1584)"
       style="stroke-width:1.03279567">
      <path
         id="path905-1"
         style="fill:#00ff00;fill-opacity:1;stroke-width:1.03279555"
         d="m 865.65006,1210.3647 c -1.55533,-3.181 -1.64765,-12.404 -0.29641,-29.6116 0.23453,-2.9867 0.31656,-5.5449 0.1823,-5.685 -0.42088,-0.4392 -1.65299,1.0317 -2.02217,2.4138 -0.1944,0.7279 -0.84039,3.1495 -1.43554,5.3813 -3.67485,13.781 -7.79009,21.2333 -12.83552,23.2438 -4.5419,1.81 -9.70471,-1.3644 -15.854,-9.748 -1.57511,-2.1475 -4.88657,-6.0626 -7.3588,-8.7001 -4.8918,-5.2191 -5.73958,-6.581 -6.39017,-10.2652 -1.21989,-6.9083 3.03197,-15.272 9.31846,-18.33 5.03948,-2.4516 10.08679,-2.9026 18.99525,-1.6976 5.04536,0.6824 6.33775,0.7257 7.0784,0.2371 1.08381,-0.715 -0.3007,-1.1351 -5.49954,-1.669 -11.21926,-1.1519 -12.76931,-1.35 -14.79215,-1.8905 -4.52154,-1.2083 -7.83062,-3.7642 -10.42708,-8.054 -2.18222,-3.6054 -2.96907,-6.4222 -2.78697,-9.9769 0.26893,-5.25 2.06059,-7.9689 7.9831,-12.1143 4.43108,-3.1015 5.29743,-4.0029 7.97615,-8.2984 2.76681,-4.4368 4.40637,-6.0059 7.33627,-7.0209 3.62245,-1.2551 6.17701,-1.3867 9.07609,-0.468 6.00706,1.904 10.7519,7.5373 12.77979,15.1732 0.63622,2.3955 0.73191,3.8086 0.73662,10.8765 0.005,8.1002 0.21231,9.7035 1.12887,8.7475 0.31305,-0.3266 0.57711,-2.7617 0.83968,-7.7439 0.3253,-6.172 0.53053,-7.7666 1.36142,-10.5784 2.99108,-10.1221 8.88267,-16.2102 16.48989,-17.0398 2.62036,-0.2857 4.72345,0.3128 7.33765,2.0884 1.99975,1.3583 3.02898,2.657 6.37562,8.045 2.31884,3.7332 3.74183,5.1491 7.18541,7.1494 3.0338,1.7623 5.67021,4.2948 6.87776,6.6066 0.53203,1.0186 0.65655,2.0633 0.65655,5.5077 0,4.0631 -0.0515,4.3596 -1.16637,6.7221 -2.30439,4.8833 -5.25647,7.8658 -9.61666,9.7159 -1.93967,0.8231 -3.12484,1.0245 -7.60109,1.2919 -6.22275,0.3717 -10.51384,1.3652 -11.83073,2.7391 -1.63376,1.7047 -0.89658,1.853 8.59955,1.7306 5.07747,-0.066 9.57676,0.054 11.02975,0.2954 6.66809,1.1032 11.42712,6.0195 11.04643,11.4111 -0.2532,3.5862 -1.85073,6.4106 -7.39138,13.0678 -2.63144,3.1617 -3.95854,5.742 -5.81354,11.3027 -2.3342,6.9974 -3.72737,9 -7.20541,10.3579 -2.89998,1.1321 -4.98852,1.2861 -7.54661,0.5559 -5.55473,-1.5854 -10.58881,-7.8114 -13.62992,-16.8571 -0.82726,-2.4606 -1.1175,-4.0842 -1.28601,-7.1935 -0.28929,-5.3381 -0.52008,-7.1514 -0.91021,-7.1514 -0.64735,0 -1.46276,1.8528 -1.73635,3.9453 -0.48155,3.683 0.18589,7.5599 3.02726,17.5839 0.85465,3.015 1.65061,6.3405 1.76881,7.3899 l 0.2149,1.9079 -1.81619,0.4857 c -1.55578,0.416 -2.12939,0.8507 -4.00063,3.0315 -1.20144,1.4003 -2.46696,2.5458 -2.81227,2.5458 -0.37522,0 -0.9145,-0.5862 -1.34026,-1.4571 z M 325.20668,1105.697 c 1.12198,-0.3335 1.72946,-0.925 3.16558,-3.0818 3.14407,-4.7221 5.34439,-10.2684 6.2881,-15.8508 0.50014,-2.9584 0.6548,-4.9986 0.66057,-8.7136 0.002,-1.7465 0.0636,-3.4228 0.13527,-3.7252 0.32291,-1.3621 1.4214,-0.9471 2.76523,1.0449 0.28761,0.4262 1.25338,2.1087 2.14617,3.7387 0.8928,1.6299 2.37141,4.3289 3.2858,5.9977 0.91439,1.6687 1.93393,3.4469 2.26565,3.9514 1.80136,2.7397 4.65707,4.6749 8.00364,5.4238 5.5259,1.2364 11.44154,-1.221 13.74217,-5.7087 1.0347,-2.0183 1.30137,-3.2597 1.22402,-5.6978 -0.0512,-1.6147 -0.14111,-2.2728 -0.47577,-3.4839 -0.52316,-1.8933 -0.4735,-2.0333 1.21297,-3.4228 2.26881,-1.8691 3.81018,-4.1005 4.50557,-6.5225 0.40242,-1.4016 0.43683,-3.7358 0.0764,-5.1853 -0.72148,-2.9016 -2.70098,-5.731 -5.17801,-7.4011 -2.33642,-1.5754 -4.10561,-2.1574 -6.87123,-2.2607 -3.73513,-0.1393 -5.28096,0.3899 -12.5626,4.3006 -2.54883,1.369 -3.79969,1.9463 -6.40577,2.9568 -2.13029,0.826 -2.73861,0.9808 -3.305,0.8418 -0.45972,-0.113 -0.57562,-0.4382 -0.32403,-0.9094 0.27705,-0.519 0.80752,-0.9713 2.24719,-1.9164 2.36558,-1.5528 9.78039,-6.6587 11.19113,-7.7063 2.48766,-1.8473 3.88368,-3.4768 4.81675,-5.6225 1.4465,-3.3263 1.44176,-7.3915 -0.0123,-10.5628 -0.92707,-2.022 -2.82185,-4.154 -4.66158,-5.245 -2.33182,-1.383 -5.19823,-1.8728 -8.01704,-1.3699 -0.99388,0.1772 -2.2423,0.5421 -3.88925,1.1367 -1.01504,0.3665 -1.35494,0.2218 -2.90237,-1.2358 -3.37456,-3.1787 -7.30869,-4.352 -11.37945,-3.3935 -3.43083,0.8077 -6.71771,3.5568 -8.36474,6.996 -1.45905,3.0469 -1.56247,6.773 -0.27596,9.9421 0.68952,1.6987 1.81514,3.5214 6.21255,10.0603 3.26718,4.8582 3.62247,5.4549 3.80008,6.3814 0.18006,0.9391 -0.27517,1.5019 -1.06088,1.3115 -0.24433,-0.059 -2.70833,-2.3539 -6.80073,-6.3333 -4.5431,-4.4177 -6.7199,-6.435 -7.45271,-6.9069 -2.27935,-1.4673 -4.4057,-2.178 -6.92835,-2.3154 -4.09166,-0.2229 -7.80969,1.4164 -10.06401,4.437 -2.90296,3.8898 -2.74259,9.0417 0.42514,13.6571 0.89992,1.3112 0.86806,1.5918 -0.43222,3.8078 -1.93419,3.2964 -2.55579,5.126 -2.56603,7.5525 -0.005,1.1716 0.0626,1.6887 0.32257,2.4697 0.85959,2.5824 2.5569,4.5799 5.22504,6.1492 3.15054,1.8529 7.22735,2.2045 10.6997,0.9227 2.09174,-0.772 4.16989,-2.1658 10.12451,-6.7896 5.55268,-4.3118 6.36582,-4.9234 7.20759,-5.4215 0.86492,-0.5118 1.53989,-0.6122 1.87959,-0.2798 0.38135,0.3732 0.50965,1.6108 0.36276,3.4995 -0.16367,2.1046 -0.29386,2.7753 -0.97528,5.0242 -1.92029,6.3377 -5.29554,12.1656 -9.85555,17.0173 -1.42682,1.5181 -1.62562,1.8373 -1.62595,2.6115 -5.6e-4,1.7943 2.85752,4.7114 5.41858,5.5304 1.18508,0.3788 2.32448,0.4936 2.97647,0.2997 z m 274.88287,41.2244 c -1.12198,-0.3335 -1.72946,-0.925 -3.16558,-3.0818 -3.14407,-4.7221 -5.34439,-10.2684 -6.2881,-15.8508 -0.50014,-2.9584 -0.6548,-4.9986 -0.66057,-8.7136 -0.002,-1.7465 -0.0636,-3.4228 -0.13527,-3.7252 -0.32291,-1.3621 -1.4214,-0.9471 -2.76523,1.0449 -0.28761,0.4262 -1.25338,2.1087 -2.14617,3.7387 -0.8928,1.6299 -2.37141,4.3289 -3.2858,5.9977 -0.91439,1.6687 -1.93393,3.4469 -2.26565,3.9514 -1.80136,2.7397 -4.65707,4.6749 -8.00364,5.4238 -5.5259,1.2364 -11.44154,-1.221 -13.74217,-5.7087 -1.0347,-2.0183 -1.30137,-3.2597 -1.22402,-5.6978 0.0512,-1.6147 0.14111,-2.2728 0.47577,-3.4839 0.52316,-1.8933 0.4735,-2.0333 -1.21297,-3.4228 -2.26881,-1.8691 -3.81018,-4.1005 -4.50557,-6.5225 -0.40242,-1.4016 -0.43683,-3.7358 -0.0764,-5.1853 0.72148,-2.9016 2.70098,-5.731 5.17801,-7.4011 2.33642,-1.5754 4.10561,-2.1574 6.87123,-2.2607 3.73513,-0.1393 5.28096,0.3899 12.5626,4.3006 2.54883,1.369 3.79969,1.9463 6.40577,2.9568 2.13029,0.826 2.73861,0.9808 3.305,0.8418 0.45972,-0.113 0.57562,-0.4382 0.32403,-0.9094 -0.27705,-0.519 -0.80752,-0.9713 -2.24719,-1.9164 -2.36558,-1.5528 -9.78039,-6.6587 -11.19113,-7.7063 -2.48766,-1.8473 -3.88368,-3.4768 -4.81675,-5.6225 -1.4465,-3.3263 -1.44176,-7.3915 0.0123,-10.5628 0.92707,-2.022 2.82185,-4.154 4.66158,-5.245 2.33182,-1.383 5.19823,-1.8728 8.01704,-1.3699 0.99388,0.1772 2.2423,0.5421 3.88925,1.1367 1.01504,0.3665 1.35494,0.2218 2.90237,-1.2358 3.37456,-3.1787 7.30869,-4.352 11.37945,-3.3935 3.43083,0.8077 6.71771,3.5568 8.36474,6.996 1.45905,3.0469 1.56247,6.773 0.27596,9.9421 -0.68952,1.6987 -1.81514,3.5214 -6.21255,10.0603 -3.26718,4.8582 -3.62247,5.4549 -3.80008,6.3814 -0.18006,0.9391 0.27517,1.5019 1.06088,1.3115 0.24433,-0.059 2.70833,-2.3539 6.80073,-6.3333 4.5431,-4.4177 6.7199,-6.435 7.45271,-6.9069 2.27935,-1.4673 4.4057,-2.178 6.92835,-2.3154 4.09166,-0.2229 7.80969,1.4164 10.06401,4.437 2.90296,3.8898 2.74259,9.0417 -0.42514,13.6571 -0.89992,1.3112 -0.86806,1.5918 0.43222,3.8078 1.9342,3.2964 2.5558,5.126 2.56603,7.5525 0.005,1.1716 -0.0626,1.6887 -0.32257,2.4697 -0.85958,2.5824 -2.5569,4.5799 -5.22503,6.1492 -3.15055,1.8529 -7.22736,2.2045 -10.69971,0.9227 -2.09174,-0.772 -4.16989,-2.1658 -10.12451,-6.7896 -5.55268,-4.3118 -6.36582,-4.9234 -7.20759,-5.4215 -0.86492,-0.5118 -1.53989,-0.6122 -1.87959,-0.2798 -0.38135,0.3732 -0.50965,1.6108 -0.36276,3.4995 0.16367,2.1046 0.29386,2.7753 0.97528,5.0242 1.92029,6.3377 5.29554,12.1656 9.85555,17.0173 1.42682,1.5181 1.62562,1.8373 1.62595,2.6115 5.6e-4,1.7943 -2.85752,4.7114 -5.41858,5.5304 -1.18508,0.3788 -2.32448,0.4936 -2.97647,0.2997 z m -161.97844,57.5682 c 1.5154,-0.4462 2.33589,-1.2373 4.27559,-4.1223 4.24655,-6.3161 7.21841,-13.7349 8.49304,-21.2017 0.67551,-3.9572 0.8844,-6.6861 0.8922,-11.6554 0.003,-2.336 0.0859,-4.5782 0.1827,-4.9827 0.43614,-1.822 1.91982,-1.2668 3.73486,1.3976 0.38846,0.5702 1.69289,2.8206 2.89874,5.0008 1.20585,2.1802 3.20293,5.7904 4.43796,8.0225 1.23502,2.2321 2.61206,4.6106 3.0601,5.2854 2.43302,3.6646 6.29008,6.2532 10.81014,7.2548 7.46356,1.6539 15.45354,-1.6332 18.56089,-7.6359 1.39752,-2.6997 1.7577,-4.3601 1.65322,-7.6213 -0.0692,-2.1598 -0.19058,-3.0401 -0.64259,-4.66 -0.70661,-2.5324 -0.63954,-2.7198 1.63829,-4.5783 3.06438,-2.5002 5.14623,-5.4849 6.08546,-8.7244 0.54353,-1.8748 0.59001,-4.997 0.10325,-6.9358 -0.97447,-3.8813 -3.64809,-7.6658 -6.99369,-9.8998 -3.1557,-2.1072 -5.54525,-2.8857 -9.28065,-3.0238 -5.04485,-0.1863 -7.13273,0.5215 -16.9677,5.7525 -3.44258,1.8311 -5.13206,2.6033 -8.65197,3.9549 -2.87728,1.1048 -3.6989,1.312 -4.4639,1.126 -0.62093,-0.1511 -0.77746,-0.5861 -0.43765,-1.2164 0.3742,-0.6942 1.09067,-1.2992 3.03517,-2.5633 3.19507,-2.0771 13.20991,-8.9067 15.11532,-10.3079 3.35997,-2.4709 5.24551,-4.6506 6.50576,-7.5206 1.95371,-4.4493 1.94731,-9.8868 -0.0166,-14.1288 -1.25215,-2.7045 -3.81134,-5.5562 -6.29618,-7.0156 -3.14947,-1.8498 -7.021,-2.505 -10.82823,-1.8324 -1.34239,0.2371 -3.02856,0.7252 -5.25302,1.5205 -1.37097,0.4902 -1.83005,0.2966 -3.92009,-1.653 -4.55786,-4.2518 -9.8715,-5.8211 -15.36969,-4.5392 -4.63384,1.0804 -9.07328,4.7576 -11.29785,9.3579 -1.97067,4.0754 -2.11035,9.0594 -0.37272,13.2985 0.93131,2.272 2.45163,4.7101 8.391,13.4565 4.41282,6.4983 4.8927,7.2964 5.13258,8.5356 0.2432,1.2562 -0.37167,2.009 -1.43289,1.7543 -0.33,-0.079 -3.658,-3.1485 -9.1854,-8.4714 -6.13616,-5.909 -9.07626,-8.6074 -10.06602,-9.2385 -3.07862,-1.9627 -5.95058,-2.9133 -9.35781,-3.0971 -5.52641,-0.2981 -10.54816,1.8945 -13.59296,5.9349 -3.9209,5.203 -3.70429,12.0941 0.57421,18.2676 1.21548,1.7538 1.17245,2.1292 -0.58378,5.0933 -2.61243,4.4092 -3.452,6.8564 -3.46581,10.1022 -0.007,1.567 0.0846,2.2587 0.43568,3.3034 1.16099,3.4542 3.45348,6.126 7.0572,8.225 4.25529,2.4785 9.76164,2.9488 14.45158,1.2343 2.82521,-1.0327 5.63207,-2.8969 13.6747,-9.0817 7.49973,-5.7675 8.59801,-6.5856 9.73494,-7.2517 1.16821,-0.6846 2.07985,-0.8189 2.53867,-0.3743 0.51507,0.4992 0.68835,2.1545 0.48996,4.6809 -0.22105,2.815 -0.3969,3.7122 -1.31725,6.7203 -2.59365,8.4772 -7.15244,16.2726 -13.31143,22.7621 -1.92715,2.0307 -2.19565,2.4577 -2.1961,3.4932 -7.5e-4,2.4 3.85953,6.302 7.31863,7.3973 1.60063,0.5068 3.13956,0.6603 4.02017,0.401 z M 591.50302,1060.186 c 1.72245,-3.6246 1.82469,-14.1336 0.32826,-33.7407 -0.25974,-3.4031 -0.35058,-6.3181 -0.20189,-6.4777 0.4661,-0.5004 1.83062,1.1755 2.23946,2.7504 0.21528,0.8294 0.93069,3.5886 1.58979,6.1316 4.06972,15.7027 8.62716,24.1941 14.21473,26.485 5.02995,2.0624 10.74752,-1.5547 17.55757,-11.1073 1.74436,-2.4469 5.41164,-6.9079 8.14952,-9.9132 5.41744,-5.9469 6.35632,-7.4987 7.07681,-11.6966 1.35097,-7.8716 -3.35776,-17.4016 -10.31975,-20.886 -5.58099,-2.79341 -11.17065,-3.30741 -21.03635,-1.93431 -5.5875,0.77761 -7.01876,0.82691 -7.839,0.27021 -1.20027,-0.81471 0.33301,-1.29341 6.09049,-1.90171 12.4248,-1.3127 14.14141,-1.5383 16.38161,-2.1542 5.00739,-1.3767 8.67204,-4.289 11.5475,-9.177 2.41671,-4.1082 3.2881,-7.3177 3.08644,-11.3681 -0.29783,-5.9821 -2.28201,-9.0801 -8.84091,-13.8036 -4.90721,-3.534 -5.86666,-4.561 -8.83321,-9.4555 -3.06411,-5.05544 -4.87985,-6.84334 -8.12458,-7.99996 -4.01169,-1.43002 -6.84075,-1.58007 -10.05134,-0.53312 -6.65254,2.16934 -11.90722,8.58828 -14.15302,17.28888 -0.70458,2.7296 -0.81056,4.3397 -0.81576,12.3931 -0.006,9.2298 -0.23513,11.0566 -1.25017,9.9673 -0.34669,-0.3721 -0.63912,-3.1468 -0.92991,-8.8237 -0.36025,-7.0326 -0.58753,-8.8496 -1.50771,-12.0536 -3.31248,-11.53341 -9.83714,-18.47037 -18.26179,-19.41572 -2.90191,-0.32562 -5.23099,0.35643 -8.1261,2.37965 -2.21463,1.54768 -3.35445,3.02746 -7.06069,9.16677 -2.56802,4.2538 -4.1439,5.8671 -7.95748,8.1463 -3.35987,2.0081 -6.27956,4.8937 -7.61684,7.5279 -0.58914,1.1605 -0.72706,2.351 -0.72706,6.2756 0,4.6297 0.057,4.9676 1.29163,7.6595 2.55203,5.5642 5.8213,8.9625 10.65001,11.0707 2.14812,0.9378 3.46065,1.1673 8.41788,1.4719 6.89141,0.4236 11.6436,1.5556 13.10199,3.1212 1.80931,1.94241 0.99292,2.11141 -9.5236,1.97191 -5.62307,-0.075 -10.60581,0.062 -12.21495,0.3366 -7.38456,1.257 -12.65501,6.8588 -12.23339,13.0023 0.28043,4.0862 2.04961,7.3044 8.18561,14.8899 2.91418,3.6026 4.38391,6.5427 6.43822,12.8788 2.58503,7.9731 4.1279,10.255 7.97966,11.8022 3.21159,1.29 5.52454,1.4654 8.35752,0.6334 6.1516,-1.8064 11.72661,-8.9006 15.0945,-19.2076 0.91615,-2.8038 1.23757,-4.6537 1.42419,-8.1966 0.32038,-6.0825 0.57596,-8.1486 1.00802,-8.1486 0.7169,0 1.61993,2.1111 1.92292,4.4954 0.5333,4.1966 -0.20586,8.6141 -3.35255,20.0358 -0.94648,3.4355 -1.82797,7.2247 -1.95887,8.4204 l -0.23799,2.1739 2.01134,0.5535 c 1.72296,0.474 2.3582,0.9693 4.43051,3.4542 1.33053,1.5955 2.73204,2.9008 3.11445,2.9008 0.41554,0 1.01277,-0.668 1.48428,-1.6603 z m 150.54595,113.6067 c -1.5154,-0.4462 -2.33589,-1.2373 -4.27559,-4.1223 -4.24655,-6.3161 -7.21842,-13.7349 -8.49304,-21.2017 -0.67551,-3.9572 -0.8844,-6.6861 -0.8922,-11.6554 -0.003,-2.336 -0.0859,-4.5782 -0.1827,-4.9827 -0.43614,-1.822 -1.91982,-1.2668 -3.73487,1.3976 -0.38845,0.5702 -1.69288,2.8206 -2.89873,5.0008 -1.20586,2.1802 -3.20294,5.7904 -4.43797,8.0225 -1.23502,2.2321 -2.61206,4.6106 -3.0601,5.2854 -2.43302,3.6646 -6.29008,6.2532 -10.81014,7.2548 -7.46356,1.6539 -15.45354,-1.6332 -18.56089,-7.6359 -1.39752,-2.6997 -1.7577,-4.3601 -1.65322,-7.6213 0.0692,-2.1598 0.19058,-3.0401 0.64259,-4.66 0.70661,-2.5324 0.63954,-2.7198 -1.63829,-4.5783 -3.06438,-2.5002 -5.14623,-5.4849 -6.08546,-8.7244 -0.54353,-1.8748 -0.59001,-4.997 -0.10325,-6.9358 0.97447,-3.8813 3.64809,-7.6658 6.99369,-9.8998 3.1557,-2.1072 5.54525,-2.8857 9.28065,-3.0238 5.04485,-0.1863 7.13273,0.5215 16.9677,5.7525 3.44258,1.8311 5.13206,2.6033 8.65197,3.9549 2.87728,1.1048 3.6989,1.312 4.4639,1.126 0.62093,-0.1511 0.77746,-0.5861 0.43765,-1.2164 -0.3742,-0.6942 -1.09067,-1.2992 -3.03517,-2.5633 -3.19507,-2.0771 -13.20991,-8.9067 -15.11532,-10.3079 -3.35997,-2.4709 -5.24551,-4.6506 -6.50576,-7.5206 -1.95371,-4.4493 -1.94731,-9.8868 0.0166,-14.1288 1.25215,-2.7045 3.81134,-5.5562 6.29618,-7.0156 3.14947,-1.8498 7.021,-2.505 10.82823,-1.8324 1.34239,0.2371 3.02856,0.7252 5.25302,1.5205 1.37097,0.4902 1.83005,0.2966 3.92009,-1.653 4.55786,-4.2518 9.8715,-5.8211 15.36969,-4.5392 4.63385,1.0804 9.07329,4.7576 11.29785,9.3579 1.97067,4.0754 2.11036,9.0594 0.37273,13.2985 -0.93131,2.272 -2.45163,4.7101 -8.391,13.4565 -4.41282,6.4983 -4.8927,7.2964 -5.13259,8.5356 -0.24319,1.2562 0.37167,2.009 1.43289,1.7543 0.33,-0.079 3.65801,-3.1485 9.18541,-8.4714 6.13615,-5.909 9.07626,-8.6074 10.06602,-9.2385 3.07861,-1.9627 5.95057,-2.9133 9.3578,-3.0971 5.52641,-0.2981 10.54817,1.8945 13.59297,5.9349 3.9209,5.203 3.70429,12.0941 -0.57421,18.2676 -1.21548,1.7538 -1.17245,2.1292 0.58378,5.0933 2.61243,4.4092 3.452,6.8564 3.46581,10.1022 0.007,1.567 -0.0846,2.2587 -0.43568,3.3034 -1.16099,3.4542 -3.45348,6.126 -7.0572,8.225 -4.25529,2.4785 -9.76164,2.9488 -14.45159,1.2343 -2.82521,-1.0327 -5.63206,-2.8969 -13.67469,-9.0817 -7.49973,-5.7675 -8.59801,-6.5856 -9.73494,-7.2517 -1.16821,-0.6846 -2.07986,-0.8189 -2.53867,-0.3743 -0.51508,0.4992 -0.68836,2.1545 -0.48997,4.6809 0.22106,2.815 0.39691,3.7122 1.31726,6.7203 2.59365,8.4772 7.15244,16.2726 13.31142,22.7621 1.92715,2.0307 2.19566,2.4577 2.1961,3.4932 10e-4,2.4 -3.85952,6.302 -7.31862,7.3973 -1.60063,0.5068 -3.13956,0.6603 -4.02017,0.401 z m -13.30351,-112.1504 c -1.72245,-3.6246 -1.82469,-14.1336 -0.32825,-33.7407 0.25973,-3.4031 0.35057,-6.3181 0.20188,-6.4777 -0.4661,-0.5004 -1.83061,1.1755 -2.23946,2.7504 -0.21528,0.8294 -0.93069,3.5886 -1.58979,6.1316 -4.06972,15.7027 -8.62716,24.1941 -14.21473,26.485 -5.02995,2.0624 -10.74752,-1.5547 -17.55757,-11.1073 -1.74436,-2.4469 -5.41164,-6.9079 -8.14952,-9.9132 -5.41744,-5.9469 -6.35632,-7.4987 -7.07681,-11.6966 -1.35097,-7.8716 3.35776,-17.4016 10.31975,-20.886 5.58099,-2.7934 11.17065,-3.30733 21.03635,-1.9343 5.5875,0.7776 7.01876,0.8269 7.839,0.2702 1.20027,-0.8147 -0.33301,-1.2934 -6.09049,-1.90168 -12.4248,-1.31265 -14.14141,-1.53829 -16.38161,-2.15423 -5.00739,-1.37667 -8.67204,-4.28895 -11.5475,-9.17697 -2.41671,-4.10818 -3.2881,-7.31773 -3.08644,-11.36813 0.29783,-5.98208 2.28201,-9.08005 8.84091,-13.80353 4.90721,-3.53399 5.86666,-4.56103 8.83321,-9.45553 3.06411,-5.05544 4.87985,-6.84334 8.12458,-7.99996 4.01169,-1.43002 6.84075,-1.58007 10.05134,-0.53312 6.65254,2.16934 11.90723,8.58828 14.15302,17.28884 0.70458,2.72966 0.81056,4.3397 0.81577,12.39318 0.006,9.22973 0.23512,11.05653 1.25017,9.96723 0.34669,-0.37208 0.63912,-3.14678 0.92991,-8.82367 0.36025,-7.03263 0.58753,-8.8496 1.50771,-12.05355 3.31248,-11.53346 9.83714,-18.47042 18.26178,-19.41577 2.90192,-0.32562 5.231,0.35643 8.12611,2.37965 2.21463,1.54768 3.35444,3.02746 7.06069,9.16674 2.56802,4.25384 4.1439,5.86711 7.95748,8.14636 3.35987,2.00808 6.27956,4.89367 7.61684,7.5279 0.58914,1.16051 0.72706,2.35093 0.72706,6.27555 0,4.62974 -0.057,4.96758 -1.29163,7.6595 -2.55203,5.56418 -5.8213,8.96256 -10.65001,11.07071 -2.14813,0.93777 -3.46065,1.16733 -8.41788,1.47196 -6.89141,0.42356 -11.6436,1.55559 -13.10199,3.12112 -1.80931,1.9424 -0.99292,2.1114 9.5236,1.9719 5.62306,-0.075 10.60581,0.062 12.21495,0.3366 7.38456,1.257 12.65501,6.8588 12.23339,13.0023 -0.28043,4.0862 -2.04961,7.3044 -8.18561,14.8899 -2.91418,3.6026 -4.38391,6.5427 -6.43823,12.8788 -2.58502,7.9731 -4.12789,10.255 -7.97965,11.8022 -3.21159,1.29 -5.52454,1.4654 -8.35752,0.6334 -6.1516,-1.8064 -11.72661,-8.9006 -15.0945,-19.2076 -0.91615,-2.8038 -1.23757,-4.6537 -1.42419,-8.1966 -0.32038,-6.0825 -0.57596,-8.1486 -1.00802,-8.1486 -0.7169,0 -1.61993,2.1111 -1.92292,4.4954 -0.5333,4.1966 0.20586,8.6141 3.35255,20.0358 0.94648,3.4355 1.82797,7.2247 1.95887,8.4204 l 0.23799,2.1739 -2.01134,0.5535 c -1.72296,0.474 -2.3582,0.9693 -4.43051,3.4542 -1.33054,1.5955 -2.73205,2.9008 -3.11446,2.9008 -0.41554,0 -1.01277,-0.668 -1.48428,-1.6603 z m 238.96983,17.3272 -0.48812,-77.7706 31.23875,1.4205 0.73211,70.6683 -14.39905,26.2786 z m 47.83421,-42.614 1.2203,-45.81011 13.667,-24.14798 17.5718,25.21332 0.7322,47.94077 -14.3991,23.7929 z m -95.91266,150.5697 -0.97612,-83.0975 13.42284,-23.7928 17.81581,24.8582 1.22032,85.2281 -17.08369,24.148 z m 33.43529,-251.42297 52.22717,-0.71025 18.06,22.01728 -14.6432,22.72748 -57.1084,-0.35511 -15.86337,-20.59679 z m -34.6555,107.95557 -0.73222,-45.81007 14.88726,-29.47473 15.86348,24.14797 0.48811,46.16523 -16.10758,23.0826 z m 101.52587,154.1209 v -93.751 l 13.4229,-23.7928 17.8159,24.8582 0.244,87.3588 -14.3991,26.2787 z m -197.05308,-144.9482 43.74119,-1.1109 16.26561,22.5891 -13.18832,23.7 h -48.13735 l -13.18831,-21.4782 z m -34.06983,137.3859 v -79.6172 l 12.08929,-24.8109 16.04574,25.922 0.21985,82.2093 -15.60619,24.8109 z m 30.99254,-255.14529 47.03833,-0.74064 16.26561,22.9594 -13.18831,23.7 -51.43449,-0.37031 -14.28734,-21.47813 z m -31.21239,112.57499 -0.65939,-47.77029 13.40815,-30.73595 14.28733,25.18129 0.43962,48.14065 -14.50717,24.0703 z m -143.94591,142.6751 v -76.3501 l 13.40812,-29.4748 14.28735,24.148 -0.87922,83.8076 -12.74872,26.2787 z m 0,-153.7657 v -76.35015 l 13.40812,-29.47473 14.28735,24.14797 -0.87922,83.80761 -12.74872,26.2787 z m -82.6514,120.0296 h 38.46594 v 62.1455 h -38.46594 z m -59.64412,-122.8706 1.31883,-74.21946 12.3091,-24.14797 15.82599,25.21332 0.43961,76.35011 -12.96852,23.7929 z m -50.33543,9.5882 h 44.18087 l 15.38638,23.7928 -12.5289,24.8582 -48.35718,-1.0654 -13.62793,-22.3723 z m -37.14711,-2.4859 -0.43961,-74.21941 13.40812,-29.47473 14.28736,24.14797 0.2198,74.57457 -14.50716,23.0826 z m 91.43903,151.2799 v -90.91 l 12.08929,-23.7928 16.0458,24.8582 0.21981,84.5179 -12.96852,26.2786 z m -144.63194,-158.3822 1.09903,-45.81008 12.30911,-24.14798 15.82598,25.21332 0.65941,47.94074 -12.96851,23.7929 z m -87.04293,122.1603 -0.2198,-54.6881 12.08929,-23.7928 16.0458,24.8582 0.4396,56.8187 -15.60617,24.148 z m 30.77276,-223.01354 47.03834,-0.71025 16.26561,22.01728 -13.18833,22.72748 -51.43445,-0.35511 -14.28735,-20.59679 z m -31.21237,107.95554 -0.65942,-45.81004 13.40813,-29.47473 14.28736,24.14797 0.43961,46.1652 -14.50716,23.0826 z m 91.65885,115.058 -0.21981,-54.6881 12.08929,-23.7928 16.04579,24.8582 0.43962,47.9408 -12.96852,26.2787 z m -58.24843,19.1763 51.21465,-1.0653 16.04579,22.0172 -13.18832,22.7275 h -55.39095 l -13.18832,-20.5968 z m -84.18546,15.27 v -76.3501 l 13.40812,-29.4748 14.28735,24.148 -0.87921,83.8076 -12.74872,26.2787 z m 0,-153.7657 v -76.35013 l 13.40812,-29.47473 14.28735,24.14797 -0.87921,83.80759 -12.74872,26.2787 z" />
    </g>
  </g>
</svg>
