<?xml version="1.0" encoding="UTF-8" standalone="no"?>
<!-- Created with Inkscape (http://www.inkscape.org/) -->

<svg
   xmlns:dc="http://purl.org/dc/elements/1.1/"
   xmlns:cc="http://creativecommons.org/ns#"
   xmlns:rdf="http://www.w3.org/1999/02/22-rdf-syntax-ns#"
   xmlns:svg="http://www.w3.org/2000/svg"
   xmlns="http://www.w3.org/2000/svg"
   xmlns:sodipodi="http://sodipodi.sourceforge.net/DTD/sodipodi-0.dtd"
   xmlns:inkscape="http://www.inkscape.org/namespaces/inkscape"
   width="11.5in"
   height="11.5in"
   viewBox="0 0 1104 1104"
   version="1.1"
   id="svg2815"
   inkscape:version="0.92.3 (2405546, 2018-03-11)"
   sodipodi:docname="12x12 SheetRed (Time) - 14x on 12x12.svg">
  <defs
     id="defs2809" />
  <sodipodi:namedview
     id="base"
     pagecolor="#1f1f1f"
     bordercolor="#666666"
     borderopacity="1.0"
     inkscape:pageopacity="0"
     inkscape:pageshadow="2"
     inkscape:zoom="1.13"
     inkscape:cx="552"
     inkscape:cy="840.4485"
     inkscape:document-units="in"
     inkscape:current-layer="layer1"
     showgrid="true"
     inkscape:snap-global="false"
     showguides="true"
     units="in"
     gridtolerance="10"
     inkscape:window-width="1920"
     inkscape:window-height="1017"
     inkscape:window-x="-8"
     inkscape:window-y="-8"
     inkscape:window-maximized="1"
     inkscape:guide-bbox="true">
    <inkscape:grid
       type="xygrid"
       id="grid3368"
       units="in"
       spacingx="24"
       spacingy="24"
       empspacing="4" />
    <sodipodi:guide
       position="-820.06909,1154.5923"
       orientation="0,1"
       id="guide9322"
       inkscape:locked="false" />
  </sodipodi:namedview>
  <metadata
     id="metadata2812">
    <rdf:RDF>
      <cc:Work
         rdf:about="">
        <dc:format>image/svg+xml</dc:format>
        <dc:type
           rdf:resource="http://purl.org/dc/dcmitype/StillImage" />
        <dc:title></dc:title>
      </cc:Work>
    </rdf:RDF>
  </metadata>
  <g
     inkscape:label="Layer 1"
     inkscape:groupmode="layer"
     id="layer1"
     transform="translate(0,-40.2)">
    <path
       style="font-style:normal;font-variant:normal;font-weight:normal;font-stretch:normal;font-size:154.68310547px;line-height:125%;font-family:Software;-inkscape-font-specification:Software;font-variant-ligatures:normal;font-variant-caps:normal;font-variant-numeric:normal;font-feature-settings:normal;text-align:start;letter-spacing:0px;word-spacing:0px;writing-mode:lr-tb;text-anchor:start;fill:#fc0000;fill-opacity:1;stroke:none;stroke-width:0.81391335px;stroke-linecap:butt;stroke-linejoin:miter;stroke-opacity:1"
       d="m 16.668361,31.923835 -5.3726,8.7991 5.3726,8.4005 h 25.519104 l 10.0131,-17.1996 z m 120.019209,0 -10.5005,17.1996 v 42.6003 l 10.5005,9.998905 z m 42.3884,0 -5.3726,8.7991 5.3726,8.4005 h 25.5191 l 5.3726,-8.4005 -5.3726,-8.7991 z m 85.0079,0 10.6227,17.1996 h 25.5211 l 5.3725,-8.4005 -5.3725,-8.7991 z m 60.3371,0 10.378,17.1996 h 25.7638 l 6.9609,-11.2007 6.9608,11.2007 h 25.5191 l 10.6228,-17.1996 z m -62.0458,2.8002 v 66.998605 l 10.5004,-9.998905 v -39.6009 z m 60.3371,0 v 66.998605 l 10.5004,-9.998905 v -39.6009 z m 89.6227,0.1993 -10.5004,17.1995 v 39.6009 l 10.5004,9.998905 z m -44.8113,7.9999 -5.2502,8.8011 v 44.5993 l 5.2502,6.600805 5.2502,-6.600805 v -44.2008 z m -357.9385088,0.5999 -5.2502,8.5997 V 101.72264 L 14.835361,91.723735 v -39.6009 z m 162.4077088,0 -5.2503,8.5997 v 49.599805 l 10.5004,-9.998905 v -39.6009 z m 39.5611,0 -5.2502,8.5997 v 39.6009 l 10.5024,9.998905 V 52.122835 Z m 95.6326,0 -5.2502,8.5997 v 39.6009 l 10.5004,9.998905 V 52.122835 Z m -290.518209,51.0007 -9.8907998,9.399105 9.8907998,7.9998 h 25.519104 l 9.8908,-7.9998 -9.8908,-9.399105 z m 258.038209,0 -9.8888,9.399105 9.8888,7.9998 h 25.5211 l 9.8908,-7.9998 -9.8908,-9.399105 z M 4.3349612,106.12314 v 49.59968 l 5.2502,8.5998 5.2501998,-8.5998 v -40.99988 z m 50.0636038,0 -10.5025,8.5998 v 40.99988 l 5.2503,8.5998 5.2522,-8.5998 z m 82.289005,0 -10.5005,8.5998 v 44.00138 l 10.5005,17.1995 z m 30.055,0 v 49.59968 l 5.2503,8.5998 5.2501,-8.5998 v -40.99988 z m 50.0636,0 -10.5024,8.5998 v 40.99988 l 5.2502,8.5998 5.2522,-8.5998 z m 45.569,0 v 69.80068 l 10.5004,-17.1995 v -44.00138 z m 60.3371,0 v 69.80068 l 10.5004,-17.1995 v -44.00138 z m 44.8114,0 -5.2502,7.8006 v 47.59868 l 5.2502,14.4014 5.2502,-14.4014 v -47.59868 z m 44.8113,0 -10.5004,8.5998 v 44.00138 l 10.5004,17.1995 z m -343.144602,9.401 -7.0833,17.1995 h 29.4277 l 7.0813,-17.1995 z m -52.522007,43.20018 -5.3726,8.3985 5.3726,8.801 h 25.519104 l 5.3725,-8.801 -5.3725,-8.3985 z m 162.407609,0 -5.3726,8.3985 5.3726,8.801 h 25.5191 l 5.3726,-8.801 -5.3726,-8.3985 z"
       id="path924"
       inkscape:connector-curvature="0" />
  </g>
</svg>
