<?xml version="1.0" encoding="UTF-8" standalone="no"?>
<!-- Created with Inkscape (http://www.inkscape.org/) -->

<svg
   xmlns:dc="http://purl.org/dc/elements/1.1/"
   xmlns:cc="http://creativecommons.org/ns#"
   xmlns:rdf="http://www.w3.org/1999/02/22-rdf-syntax-ns#"
   xmlns:svg="http://www.w3.org/2000/svg"
   xmlns="http://www.w3.org/2000/svg"
   xmlns:sodipodi="http://sodipodi.sourceforge.net/DTD/sodipodi-0.dtd"
   xmlns:inkscape="http://www.inkscape.org/namespaces/inkscape"
   width="11.5in"
   height="11.5in"
   viewBox="0 0 3450 3450"
   version="1.1"
   id="svg2815"
   inkscape:version="0.92.3 (2405546, 2018-03-11)"
   sodipodi:docname="12x12 Sheet Calculator - Lt. Blue (Musical) Single w Weed Lines.svg">
  <defs
     id="defs2809" />
  <sodipodi:namedview
     id="base"
     pagecolor="#1f1f1f"
     bordercolor="#666666"
     borderopacity="1.0"
     inkscape:pageopacity="0"
     inkscape:pageshadow="2"
     inkscape:zoom="1.18"
     inkscape:cx="591.67677"
     inkscape:cy="893.52976"
     inkscape:document-units="in"
     inkscape:current-layer="layer1"
     showgrid="true"
     inkscape:snap-global="false"
     showguides="true"
     units="in"
     gridtolerance="10"
     inkscape:window-width="1920"
     inkscape:window-height="1017"
     inkscape:window-x="-8"
     inkscape:window-y="-8"
     inkscape:window-maximized="1"
     inkscape:guide-bbox="true">
    <sodipodi:guide
       position="-358.88172,1152.9684"
       orientation="0,1"
       id="guide1164"
       inkscape:locked="false" />
    <inkscape:grid
       type="xygrid"
       id="grid818"
       units="in"
       spacingx="24"
       spacingy="24" />
  </sodipodi:namedview>
  <metadata
     id="metadata2812">
    <rdf:RDF>
      <cc:Work
         rdf:about="">
        <dc:format>image/svg+xml</dc:format>
        <dc:type
           rdf:resource="http://purl.org/dc/dcmitype/StillImage" />
        <dc:title></dc:title>
      </cc:Work>
    </rdf:RDF>
  </metadata>
  <g
     inkscape:label="Layer 1"
     inkscape:groupmode="layer"
     id="layer1"
     transform="translate(0,-40.2)">
    <path
       id="path848"
       style="fill:none;fill-rule:evenodd;stroke:#00bfbc;stroke-width:3.12485647px;stroke-linecap:butt;stroke-linejoin:miter;stroke-opacity:1"
       d="m 1020.3638,1315.596 -61.29314,-37.2139 m 127.08254,59.3624 q -26.9977,0 -66.1633,-22.7093 v -14.2846 q 24.336,10.622 32.7015,13.5519 18.2519,5.8606 35.3633,5.8606 13.689,0 28.8988,-13.5525 15.2099,-13.1856 18.6322,-26.3719 H 969.41686 q -0.7606,-0.7325 -1.1405,-0.7325 -22.0546,0 -37.6447,-21.6105 -13.689,-19.4129 -13.689,-41.7559 0,-12.4532 7.2246,-21.9768 8.3655,-10.622 20.9136,-10.622 22.4348,0 39.5458,21.6105 16.35084,20.1454 16.35084,42.1222 0,10.2557 -3.04204,17.2151 H 1203.65 l 4.183,15.0174 q -21.6742,2.1978 -42.9682,17.5814 -17.8716,13.5525 -35.3632,26.7385 -20.9136,13.9184 -43.3484,13.9184 z"
       inkscape:connector-curvature="0" />
    <path
       id="path850"
       style="fill:none;fill-rule:evenodd;stroke:#00bfbc;stroke-width:3.12485647px;stroke-linecap:butt;stroke-linejoin:miter;stroke-opacity:1"
       d="m 1356.084,953.41099 -36.1192,63.48211 m 59.1332,-128.91891 q 0,26.9975 -22.7094,66.1632 h -14.2847 q 10.6217,-24.336 13.552,-32.7013 5.8606,-18.252 5.8606,-35.3634 0,-13.6887 -13.5523,-28.8986 -13.1862,-15.21 -26.3724,-18.6323 v 166.16861 q -0.7323,0.7606 -0.7323,1.1409 0,22.0543 -21.6103,37.6445 -19.413,13.6891 -41.7563,13.6891 -12.4532,0 -21.9764,-7.2247 -10.6221,-8.3655 -10.6221,-20.9137 0,-22.4346 21.6103,-39.54601 20.1453,-16.3505 42.1221,-16.3505 10.2559,0 17.2153,3.0417 v -205.7146 l 15.0174,-4.1826 q 2.1979,21.6743 17.5814,42.968 13.5524,17.8717 26.7383,35.3634 13.9188,20.9134 13.9188,43.3483 z"
       inkscape:connector-curvature="0" />
    <path
       id="path852"
       style="fill:none;fill-rule:evenodd;stroke:#00bfbc;stroke-width:3.12485647px;stroke-linecap:butt;stroke-linejoin:miter;stroke-opacity:1"
       d="m 964.15103,1107.6237 76.61647,-8.7562 h -0.5473 m 102.0263,-212.68203 -1.3028,169.23413 q 0,22.0903 -25.6229,37.0668 -23.0174,13.4787 -49.5089,13.4787 -14.7656,0 -26.0571,-7.4884 -12.5945,-7.8624 -12.5945,-20.2181 0,-22.0903 25.6229,-39.3132 23.4515,-15.7252 49.943,-15.7252 11.726,0 20.4115,2.9951 V 883.56467 l -154.60605,33.3225 -1.3031,175.97353 q 0,22.0903 -25.62292,37.0668 -23.01704,13.4787 -49.50857,13.4787 -14.76595,0 -26.0574,-7.4881 -12.59423,-7.8627 -12.59423,-20.2184 0,-22.0903 25.62292,-39.3132 23.45151,-15.7252 49.94305,-15.7252 11.72562,0 20.4115,2.9954 V 876.07627 l 192.3894,-41.5596 q 0.4342,51.6688 0.4342,51.6688 z"
       inkscape:connector-curvature="0" />
    <path
       id="path856"
       style="fill:none;fill-rule:evenodd;stroke:#00bfbc;stroke-width:3.12485647px;stroke-linecap:butt;stroke-linejoin:miter;stroke-opacity:1"
       d="m 1834.8238,469.3506 q -5.9107,23.91484 -37.193,47.17659 -27.4978,20.86248 -55.3241,27.98705 -15.3327,3.92567 -25.6879,-1.52577 -10.481,-4.94258 -7.0853,-18.68102 l 83.1279,-336.33643 71.7885,-36.49207 -73.4447,297.15635 q 6.4984,-2.61706 12.1773,-4.07106 40.3188,-10.32296 31.6413,24.78636 z m -175.7381,77.40592 -72.4819,37.14657 6.4745,-28.34904 q -22.383,23.84281 -48.9358,43.03368 -31.0309,22.24392 -54.8819,28.3506 -44.8622,11.48632 -35.5557,-26.16711 16.6005,-67.16544 159.6092,-140.0046 l 8.8034,-35.61836 q 6.6653,-26.96783 -15.4821,-21.29746 -20.4435,5.23444 -44.5947,27.62342 0.6323,1.7446 7.0129,8.21368 4.4209,3.63421 2.6604,10.75795 -3.144,12.72066 -21.8721,30.38485 -18.1607,17.51888 -32.9253,21.29902 -27.8259,7.12436 -22.041,-16.28175 8.4261,-34.09156 64.6225,-74.21784 49.763,-35.6193 90.6499,-46.08789 57.3559,-14.68526 45.5343,33.14473 z m -48.9116,-68.98068 q -68.7623,32.85787 -78.1944,71.01999 -7.0425,28.49447 15.1046,22.82401 42.5905,-10.90471 59.5682,-79.59684 z m -166.3471,35.44119 q -17.1268,43.46894 -58.8101,80.83263 -41.5573,36.85471 -88.1231,48.77726 -37.4798,9.59615 -51.1324,-12.6463 -11.8192,-18.89888 -3.0161,-54.51693 12.0732,-48.8476 66.2991,-104.67473 56.5579,-58.80761 109.9381,-72.47479 51.1092,-13.08565 40.9223,28.12933 -4.779,19.33568 -29.6278,38.09013 -22.2006,16.64673 -44.9158,22.46272 -12.4929,3.1986 -21.0802,-0.79903 -8.4607,-4.50667 -5.8199,-15.1918 6.1622,-24.93292 42.43,-48.99432 -24.9219,8.28744 -44.595,27.62342 -19.1057,19.19068 -24.6392,41.57934 l -22.0084,89.04513 q -9.6834,39.17989 11.3282,33.80014 31.2331,-7.99676 61.5626,-38.16387 27.3033,-26.53244 41.98,-57.93481 3.3423,-2.76237 7.8853,-3.92545 6.2466,-1.5993 11.4224,-1.01807 z m -179.493,-88.92967 q -4.6534,18.82663 -29.5023,37.5814 -22.2002,16.64642 -44.3473,22.31679 -12.4936,3.19891 -21.0802,-0.79872 -8.0192,-4.14293 -5.3784,-14.82838 4.779,-19.33567 28.7441,-38.81728 23.9647,-19.48129 46.1118,-25.15197 32.369,-8.28743 25.4523,19.69816 z m -87.5547,257.39587 -71.7883,36.49232 44.5193,-180.1256 71.7886,-36.49239 z m -91.3806,-60.01362 q -10.5639,42.74166 -67.012,83.88574 -49.76304,35.61933 -100.30412,48.55961 -21.01157,5.37966 -33.88982,1.5275 -15.21455,-5.16049 -10.81288,-22.96948 4.9045,-19.84437 28.61784,-38.30821 21.06472,-16.35578 44.34762,-22.31704 13.62878,-3.48946 20.95435,1.30775 7.89336,4.65185 4.87487,16.86379 -4.52719,18.31788 -23.44614,34.60088 l 11.23189,-2.39911 q 23.72479,-5.59777 49.39349,-25.51554 25.7942,-20.42653 30.9504,-41.28858 4.4017,-17.80899 -35.9175,-7.48584 -7.95053,2.03559 -20.6952,6.25199 -12.05104,3.56209 -14.32271,4.14372 -34.64032,8.86922 -48.71939,3.41794 -16.85723,-7.12308 -9.56328,-36.6352 10.31243,-41.72402 60.82999,-80.39637 45.21999,-34.45632 93.48939,-46.81482 45.998,-11.77727 39.3328,15.19087 -4.779,19.33536 -30.3215,38.74435 -23.0197,17.80955 -45.1671,23.4801 -12.4932,3.19867 -21.0802,-0.79893 -8.46111,-4.50645 -5.8202,-15.19189 3.0185,-12.21191 10.3928,-22.6794 -18.73582,9.08668 -35.00576,23.26165 -18.35085,16.1376 -21.99799,30.89364 -4.77894,19.33555 36.108,8.86707 8.51825,-2.181 22.27295,-6.17931 13.8808,-4.5072 17.2877,-5.37957 32.9374,-8.43308 45.7547,-2.18215 15.2795,7.05036 8.237,35.54484 z m -229.21294,98.24695 q -5.91075,23.915 -36.62528,47.03116 -27.49815,20.86276 -55.32409,27.98718 -30.66503,7.85136 -32.38848,-13.15577 -0.82724,-7.41425 8.3534,-44.55883 -23.07291,28.78574 -55.49101,52.33813 -34.94118,25.15156 -65.0388,32.85761 -42.59054,10.90472 -30.51766,-37.94294 l 36.84809,-149.08709 72.10088,-39.90873 -40.49521,163.84316 q -1.88635,7.63243 1.78033,14.31975 3.66667,6.68732 11.61687,4.65172 1.70361,-0.4361 5.93029,-2.47163 39.61784,-18.24626 62.17211,-62.15137 11.65425,-23.47904 23.47577,-71.30903 4.96571,-22.24311 10.4992,-44.63161 l 72.10088,-39.90873 -35.2131,142.47233 q 7.75974,-3.41669 14.57377,-5.16139 40.31952,-10.32315 31.64204,24.78608 z M 508.71538,897.0579 q -7.29395,29.51211 -45.95499,58.95254 -34.62484,26.0239 -69.2655,34.89312 -19.30762,4.94343 -31.68308,-0.94399 -13.70178,-6.97774 -9.55184,-23.7691 6.1625,-24.93266 35.1697,-51.90136 25.53876,-23.69751 56.38691,-38.74522 L 514.87147,588.05512 358.44465,895.97223 337.75317,906.51287 310.54747,693.75189 254.2676,919.30885 q -7.29429,29.51214 -45.95532,58.95254 -34.62451,26.02381 -69.26516,34.89301 -19.30797,4.9436 -31.68309,-0.9439 -13.701792,-6.9778 -9.551508,-23.76917 7.419828,-30.02094 46.583988,-61.49668 36.64075,-29.87647 70.71332,-38.60026 13.62909,-3.48956 24.10643,-2.83568 L 299.07867,643.30577 382.41112,600.99793 406.9133,755.8256 522.45487,529.39441 610.7076,484.3971 Z m 97.70092,-178.29899 -63.48221,37.76095 m 649.28371,-273.07647 -6.1734,36.82153 m 270.968,-85.87331 -16.1034,78.98977 52.9677,-12.93709 m -23.6506,67.27726 25.1739,-69.50196 m -300.5221,102.87698 44.7986,-15.20476 m -107.656,25.4487 -44.7211,2.22857 8.5993,-81.21968 m -323.42956,66.566 -75.52194,-1.6418 m 218.90414,61.29316 -12.03973,35.57193 m -67.03775,-1.09322 79.11392,-33.84882 M 1680.7241,454.915 1732.1665,431.93002 M 370.19116,992.77951 147.93576,1010.2143" />
    <path
       id="path848-8"
       style="fill:none;fill-rule:evenodd;stroke:#00bfbc;stroke-width:3.12485647px;stroke-linecap:butt;stroke-linejoin:miter;stroke-opacity:1"
       d="m 1344.6852,1170.5748 61.2932,37.2139 m -127.0826,-59.3624 q 26.9977,0 66.1633,22.7093 v 14.2846 q -24.336,-10.622 -32.7015,-13.5519 -18.2519,-5.8606 -35.3633,-5.8606 -13.689,0 -28.8987,13.5525 -15.2099,13.1856 -18.6322,26.3719 h 166.1688 q 0.7606,0.7325 1.1405,0.7325 22.0546,0 37.6447,21.6105 13.689,19.4129 13.689,41.7559 0,12.4532 -7.2246,21.9768 -8.3655,10.622 -20.9136,10.622 -22.4348,0 -39.5458,-21.6105 -16.3508,-20.1454 -16.3508,-42.1222 0,-10.2557 3.042,-17.2151 h -205.7145 l -4.183,-15.0174 q 21.6742,-2.1978 42.9682,-17.5814 17.8716,-13.5525 35.3632,-26.7385 20.9136,-13.9184 43.3483,-13.9184 z"
       inkscape:connector-curvature="0" />
    <g
       aria-label="%"
       transform="scale(1.0654558,0.93856544)"
       style="font-style:normal;font-variant:normal;font-weight:normal;font-stretch:normal;font-size:324.07849121px;line-height:125%;font-family:'Melody MakerNotes Only';-inkscape-font-specification:'Melody MakerNotes Only';font-variant-ligatures:normal;font-variant-caps:normal;font-variant-numeric:normal;font-feature-settings:normal;text-align:start;letter-spacing:0px;word-spacing:0px;writing-mode:lr-tb;text-anchor:start;fill:none;fill-opacity:1;stroke:#00bfbc;stroke-width:3.37581754px;stroke-linecap:butt;stroke-linejoin:miter;stroke-opacity:1"
       id="text1905-1-8-7-96-60" />
    <path
       id="path944"
       style="fill:none;stroke:#00bfbc;stroke-width:3.125px;stroke-linecap:butt;stroke-linejoin:miter;stroke-opacity:1"
       d="m 640.43689,1321.4193 -26.4085,-113.8079 m 168.4718,0.2702 q 0,20.0751 -12.4305,35.5877 -12.4304,15.8168 -33.4932,23.7252 0,1.825 3.4529,17.0335 2.417,10.3416 2.417,17.0334 0,21.9001 -14.5022,35.5877 -14.157,13.6877 -38.6727,13.6877 -20.0268,0 -33.8385,-9.4293 -15.1928,-10.6459 -15.1928,-27.3752 0,-10.95 8.9775,-20.6835 8.9777,-9.4292 21.0628,-9.4292 12.4305,0 19.3363,7.3001 7.2512,7.6042 7.2512,18.8585 0,10.3416 -7.9418,16.425 -7.9417,6.3875 -20.0268,6.6917 6.5605,7.9085 21.0628,7.9085 18.3003,0 30.0403,-10.0376 11.7399,-9.7334 11.7399,-25.8544 0,-7.3001 -5.5247,-34.3711 -12.7758,3.0417 -26.2421,3.0417 -38.6726,0 -63.8789,-26.4627 -23.8251,-24.9418 -23.8251,-59.9213 0,-31.3293 25.8968,-62.0504 11.74,-14.2959 52.4843,-49.2753 -2.7623,-13.3834 -5.5246,-26.7669 -3.1076,-15.8167 -3.1076,-26.4627 0,-19.7709 12.4304,-47.14613 14.5023,-32.24191 33.1479,-32.24191 11.74,0 20.7175,28.89604 6.9059,22.81267 6.9059,38.0211 0,53.8379 -47.9955,97.9424 l 7.5964,41.0628 q 4.8341,-0.6083 9.6681,-0.6083 26.2422,0 42.8162,18.5542 15.1928,17.0334 15.1928,40.7587 z m -39.7085,-209.87655 q 0,-16.12095 -12.0852,-16.12095 -16.2286,0 -26.5874,24.6377 -7.9417,19.1626 -7.9417,37.1086 0,3.0417 3.7982,24.0293 42.8161,-38.6294 42.8161,-69.65465 z m 18.991,219.00155 q 0,-15.2084 -11.0493,-26.4627 -10.704,-11.5584 -27.278,-10.95 h -3.1076 l 14.5022,78.4755 q 26.9327,-12.4709 26.9327,-41.0628 z m -37.2915,44.7129 -14.5022,-80.6048 q -13.121,3.0416 -21.408,11.2543 -7.9417,8.2125 -7.9417,19.4668 0,18.5543 18.991,27.3751 l 0.3453,5.7792 q -16.9193,-3.9542 -26.9328,-15.5126 -9.6681,-11.5583 -9.6681,-27.0709 0,-16.4252 11.7399,-30.4169 11.7399,-14.296 29.3498,-20.0752 l -6.2152,-35.5878 q -36.9462,31.9378 -44.8879,41.6712 -20.7175,24.9418 -20.7175,53.2295 0,5.1709 4.4888,15.5126 8.287,17.946 25.2062,27.6794 17.2646,10.0376 39.018,10.0376 12.4304,0 23.1344,-2.7375 z"
       inkscape:connector-curvature="0" />
    <text
       xml:space="preserve"
       style="font-style:normal;font-variant:normal;font-weight:normal;font-stretch:normal;font-size:453.75296021px;line-height:125%;font-family:'Melody MakerNotes Only';-inkscape-font-specification:'Melody MakerNotes Only';font-variant-ligatures:normal;font-variant-caps:normal;font-variant-numeric:normal;font-feature-settings:normal;text-align:start;letter-spacing:0px;word-spacing:0px;writing-mode:lr-tb;text-anchor:start;fill:none;fill-opacity:1;stroke:#00bfbc;stroke-width:2.36329651px;stroke-linecap:butt;stroke-linejoin:miter;stroke-opacity:1"
       x="-924.52399"
       y="2042.2727"
       id="text3139-92"
       transform="matrix(0,-1.1831054,0.84523324,0,0,0)"><tspan
         sodipodi:role="line"
         id="tspan3137-03"
         x="-924.52399"
         y="2042.2727"
         style="fill:none;stroke:#00bfbc;stroke-width:2.36329651px;stroke-opacity:1">^</tspan></text>
    <text
       xml:space="preserve"
       style="font-style:normal;font-variant:normal;font-weight:normal;font-stretch:normal;font-size:434.62017822px;line-height:125%;font-family:'Melody MakerNotes Only';-inkscape-font-specification:'Melody MakerNotes Only';font-variant-ligatures:normal;font-variant-caps:normal;font-variant-numeric:normal;font-feature-settings:normal;text-align:start;letter-spacing:0px;word-spacing:0px;writing-mode:lr-tb;text-anchor:start;fill:none;fill-opacity:1;stroke:#00bfbc;stroke-width:2.26364708px;stroke-linecap:butt;stroke-linejoin:miter;stroke-opacity:1"
       x="366.85294"
       y="1483.1979"
       id="text2935-53"
       transform="scale(1.1867451,0.84264094)"><tspan
         sodipodi:role="line"
         id="tspan2933-547"
         x="366.85294"
         y="1483.1979"
         style="fill:none;stroke:#00bfbc;stroke-width:2.26364708px;stroke-opacity:1">=</tspan></text>
    <g
       aria-label="+"
       transform="scale(1.0366341,0.96466053)"
       style="font-style:normal;font-variant:normal;font-weight:normal;font-stretch:normal;font-size:343.95245361px;line-height:125%;font-family:'Melody MakerNotes Only';-inkscape-font-specification:'Melody MakerNotes Only';font-variant-ligatures:normal;font-variant-caps:normal;font-variant-numeric:normal;font-feature-settings:normal;text-align:start;letter-spacing:0px;word-spacing:0px;writing-mode:lr-tb;text-anchor:start;fill:none;fill-opacity:1;stroke:#00bfbc;stroke-width:1.79141915px;stroke-linecap:butt;stroke-linejoin:miter;stroke-opacity:1"
       id="text2939-2-0" />
    <text
       xml:space="preserve"
       style="font-style:normal;font-variant:normal;font-weight:normal;font-stretch:normal;font-size:517.45013428px;line-height:125%;font-family:'Melody MakerNotes Only';-inkscape-font-specification:'Melody MakerNotes Only';font-variant-ligatures:normal;font-variant-caps:normal;font-variant-numeric:normal;font-feature-settings:normal;text-align:start;letter-spacing:0px;word-spacing:0px;writing-mode:lr-tb;text-anchor:start;fill:none;fill-opacity:1;stroke:#00bfbc;stroke-width:2.4000001;stroke-linecap:butt;stroke-linejoin:miter;stroke-miterlimit:4;stroke-dasharray:none;stroke-opacity:1"
       x="-1597.4175"
       y="1664.0392"
       id="text3305-5-6"
       transform="scale(-1.083254,0.92314453)"><tspan
         sodipodi:role="line"
         id="tspan3303-5-6"
         x="-1597.4175"
         y="1664.0392"
         style="fill:none;stroke:#00bfbc;stroke-width:2.4000001;stroke-miterlimit:4;stroke-dasharray:none;stroke-opacity:1">°</tspan></text>
    <path
       id="path1003"
       style="fill:none;stroke:#00bfbc;stroke-width:2.4000001;stroke-linecap:butt;stroke-linejoin:miter;stroke-miterlimit:4;stroke-dasharray:none;stroke-opacity:1"
       d="m 1688.9349,732.29372 v 66.89325 m -97.7867,-95.48881 81.4464,10.72334 v 0 m -89.1059,158.55228 93.9569,-55.91456 m -201.701,113.36103 -0.7659,-159.57356 m 213.7868,-39.78559 q 0,6.63594 -5.7048,11.9447 -5.3483,5.30876 -12.4794,5.30876 -7.4876,0 -12.8359,-4.97696 -4.9917,-5.30876 -4.9917,-12.2765 0,-6.63595 5.3483,-11.61291 5.3483,-4.97696 12.4793,-4.97696 7.1311,0 12.4794,4.97696 5.7048,4.97696 5.7048,11.61291 z m 0,70.00924 q 0,6.96774 -5.7048,12.2765 -5.3483,4.97696 -12.4794,4.97696 -7.131,0 -12.4793,-5.30875 -5.3483,-5.30876 -5.3483,-11.94471 0,-6.30415 5.3483,-11.61291 5.3483,-5.30875 12.4793,-5.30875 7.1311,0 12.4794,5.30875 5.7048,4.97696 5.7048,11.61291 z m -50.2739,-28.53457 q 0,54.08297 -54.9092,100.2028 -26.7414,22.23043 -104.8265,65.03228 l -2.8524,-7.63133 q 58.8312,-42.47007 80.2244,-67.35487 36.7249,-41.80647 36.7249,-91.90787 0,-24.8848 -11.0531,-42.13826 -13.1925,-20.57144 -38.1511,-20.57144 -19.967,0 -35.2988,11.9447 -14.9752,11.94471 -18.8973,30.52536 14.9752,-12.6083 32.4464,-12.6083 22.8193,0 22.8193,20.57144 0,13.93549 -14.6186,23.22582 -14.2621,8.95852 -29.594,8.95852 -12.1228,0 -19.6104,-9.29032 -7.4876,-9.29033 -7.4876,-20.90324 0,-28.20278 26.0284,-47.44702 24.2456,-17.91705 54.9091,-17.91705 33.1594,0 58.4747,23.5576 25.6718,23.22582 25.6718,53.75118 z"
       inkscape:connector-curvature="0" />
  </g>
</svg>
