<?xml version="1.0" encoding="UTF-8" standalone="no"?>
<!-- Created with Inkscape (http://www.inkscape.org/) -->

<svg
   xmlns:dc="http://purl.org/dc/elements/1.1/"
   xmlns:cc="http://creativecommons.org/ns#"
   xmlns:rdf="http://www.w3.org/1999/02/22-rdf-syntax-ns#"
   xmlns:svg="http://www.w3.org/2000/svg"
   xmlns="http://www.w3.org/2000/svg"
   xmlns:sodipodi="http://sodipodi.sourceforge.net/DTD/sodipodi-0.dtd"
   xmlns:inkscape="http://www.inkscape.org/namespaces/inkscape"
   width="12in"
   height="24in"
   viewBox="0 0 1152 2304"
   version="1.1"
   id="svg2815"
   inkscape:version="0.92.3 (2405546, 2018-03-11)"
   sodipodi:docname="12x24 Sheet Calculator - Red (Time) - Single w Weed Lines.svg">
  <defs
     id="defs2809" />
  <sodipodi:namedview
     id="base"
     pagecolor="#1f1f1f"
     bordercolor="#666666"
     borderopacity="1.0"
     inkscape:pageopacity="0"
     inkscape:pageshadow="2"
     inkscape:zoom="2.67"
     inkscape:cx="295.18791"
     inkscape:cy="2181.5199"
     inkscape:document-units="in"
     inkscape:current-layer="layer1"
     showgrid="true"
     inkscape:snap-global="false"
     showguides="true"
     units="in"
     gridtolerance="10"
     inkscape:window-width="1920"
     inkscape:window-height="1017"
     inkscape:window-x="-8"
     inkscape:window-y="-8"
     inkscape:window-maximized="1"
     inkscape:guide-bbox="true">
    <inkscape:grid
       type="xygrid"
       id="grid3368" />
    <sodipodi:guide
       position="-820.06909,1154.5923"
       orientation="0,1"
       id="guide9322"
       inkscape:locked="false" />
  </sodipodi:namedview>
  <metadata
     id="metadata2812">
    <rdf:RDF>
      <cc:Work
         rdf:about="">
        <dc:format>image/svg+xml</dc:format>
        <dc:type
           rdf:resource="http://purl.org/dc/dcmitype/StillImage" />
        <dc:title></dc:title>
      </cc:Work>
    </rdf:RDF>
  </metadata>
  <g
     inkscape:label="Layer 1"
     inkscape:groupmode="layer"
     id="layer1"
     transform="translate(0,1159.8)">
    <path
       id="path937"
       style="fill:none;fill-rule:evenodd;stroke:#000000;stroke-width:1px;stroke-linecap:butt;stroke-linejoin:miter;stroke-opacity:1"
       d="m 305.83478,-1042.3973 2.36857,2.4841 -2.3108,2.4263 m -258.116698,-4.7949 2.484113,2.253 -2.426343,2.4841 m 102.920688,-10.9277 18.85776,-3.4483 m -71.875001,14.2242 16.810341,5.9267 m 107.9277,-80.1468 -42.60313,0.3556 -84.637272,-0.2134 m 152.702702,0 59.74396,-0.071 m 35.77524,0.071 24.60882,0.071 v -0.071 m -62.37553,2.9872 1.92034,-2.9872 m 41.3229,8.7482 1.56473,2.9872 m 60.24182,131.86347 h 44.95021 v 0 h -0.21337 m 0,-74.53777 2e-5,5.2632 m -1.70699,-74.4665 1.70697,3.5561 m -44.73684,7.7525 0.14224,-5.4765 m -44.73684,-2.8449 1.7781,-2.845 m -14.93599,71.7639 2.56045,-2.4894 m 10.66857,0.2134 -0.14225,5.0498 m 44.66572,-3.8407 0.0711,3.6273 m -163.01563,69.34569 57.96586,-0.0711 h 60.31295 44.87909 m -325.462306,0.21335 94.381226,-0.2845 m 0.14224,0.0711 42.31864,0.14224 m 30.79659,-8.74822 1.63584,-2.9872 m -39.40256,-0.14224 1.63585,3.05832 m 42.95875,-65.64727 0.0711,5.0498 m -6.97011,-65.8606 1.99147,3.2717 m -39.68706,0 1.84922,-3.1294 m -7.04125,60.8819 v 4.7653 m -30.2276,-4.7653 v 4.8364 m -89.189188,60.81084 1.70697,-2.9872 m -39.544808,-0.14225 1.778094,3.05833 m 0.497866,-119.91462 2.27596,-2.2049 m 37.908962,58.8905 2.347084,2.4182 m 124.72134,52.37728 -5.3726,8.3985 5.3726,8.801 h 25.5191 l 5.3726,-8.801 -5.3726,-8.3985 z m -162.407607,0 -5.3726,8.3985 5.3726,8.801 h 25.519104 l 5.3725,-8.801 -5.3725,-8.3985 z m 61.453457,-63.54398 -7.0833,17.1995 h 29.4277 l 7.0813,-17.1995 z m 334.21315,10.9428 -10.5004,8.5998 v 44.00138 l 10.5004,17.1995 z m -44.8113,0 -5.2502,7.8006 v 47.59868 l 5.2502,14.4014 5.2502,-14.4014 v -47.59868 z m -44.8114,0 v 69.80068 l 10.5004,-17.1995 v -44.00138 z m -60.3371,0 v 69.80068 l 10.5004,-17.1995 v -44.00138 z m -45.569,0 -10.5024,8.5998 v 40.99988 l 5.2502,8.5998 5.2522,-8.5998 z m -50.0636,0 v 49.59968 l 5.2503,8.5998 5.2501,-8.5998 v -40.99988 z m -30.055,0 -10.5005,8.5998 v 44.00138 l 10.5005,17.1995 z m -82.289003,0 -10.5025,8.5998 v 40.99988 l 5.2503,8.5998 5.2522,-8.5998 z m -50.063604,0 v 49.59968 l 5.2502,8.5998 5.2502,-8.5998 v -40.99988 z m 270.371607,-11.5993 -9.8888,9.3991 9.8888,7.9998 h 25.5211 l 9.8908,-7.9998 -9.8908,-9.3991 z m -258.038207,0 -9.8908,9.3991 9.8908,7.9998 h 25.519104 l 9.8908,-7.9998 -9.8908,-9.3991 z m 290.518207,-51.0007 -5.2502,8.5997 v 39.6009 l 10.5004,9.9989 v -49.5998 z m -95.6326,0 -5.2502,8.5997 v 39.6009 l 10.5024,9.9989 v -49.5998 z m -39.5611,0 -5.2503,8.5997 v 49.5998 l 10.5004,-9.9989 v -39.6009 z m -162.407707,0 -5.2502,8.5997 v 49.5998 l 10.5004,-9.9989 v -39.6009 z m 357.938507,-0.5999 -5.2502,8.8011 v 44.5993 l 5.2502,6.6008 5.2502,-6.6008 v -44.2008 z m 44.8113,-7.9999 -10.5004,17.1995 v 39.6009 l 10.5004,9.9989 z m -89.6227,-0.1993 v 66.9986 l 10.5004,-9.9989 v -39.6009 z m -60.3371,0 v 66.9986 l 10.5004,-9.9989 v -39.6009 z m 62.0458,-2.8002 10.378,17.1996 h 25.7638 l 6.9609,-11.2007 6.9608,11.2007 h 25.5191 l 10.6228,-17.1996 z m -60.3371,0 10.6227,17.1996 h 25.5211 l 5.3725,-8.4005 -5.3725,-8.7991 z m -85.0079,0 -5.3726,8.7991 5.3726,8.4005 h 25.5191 l 5.3726,-8.4005 -5.3726,-8.7991 z m -42.3884,0 -10.5005,17.1996 v 42.6003 l 10.5005,9.9989 z m -120.019207,0 -5.3726,8.7991 5.3726,8.4005 h 25.519104 l 10.0131,-17.1996 z" />
  </g>
</svg>
