<?xml version="1.0" encoding="UTF-8" standalone="no"?>
<!-- Created with Inkscape (http://www.inkscape.org/) -->

<svg
   xmlns:dc="http://purl.org/dc/elements/1.1/"
   xmlns:cc="http://creativecommons.org/ns#"
   xmlns:rdf="http://www.w3.org/1999/02/22-rdf-syntax-ns#"
   xmlns:svg="http://www.w3.org/2000/svg"
   xmlns="http://www.w3.org/2000/svg"
   xmlns:sodipodi="http://sodipodi.sourceforge.net/DTD/sodipodi-0.dtd"
   xmlns:inkscape="http://www.inkscape.org/namespaces/inkscape"
   width="12in"
   height="24in"
   viewBox="0 0 1152 2304"
   version="1.1"
   id="svg2815"
   inkscape:version="0.92.3 (2405546, 2018-03-11)"
   sodipodi:docname="12x24 Sheet Calculator - Red (Time) - 14x on 12x12.svg">
  <defs
     id="defs2809" />
  <sodipodi:namedview
     id="base"
     pagecolor="#1f1f1f"
     bordercolor="#666666"
     borderopacity="1.0"
     inkscape:pageopacity="0"
     inkscape:pageshadow="2"
     inkscape:zoom="0.61580177"
     inkscape:cx="328.75615"
     inkscape:cy="1794.1513"
     inkscape:document-units="in"
     inkscape:current-layer="layer1"
     showgrid="true"
     inkscape:snap-global="false"
     showguides="true"
     units="in"
     gridtolerance="10"
     inkscape:window-width="1920"
     inkscape:window-height="1017"
     inkscape:window-x="-8"
     inkscape:window-y="-8"
     inkscape:window-maximized="1"
     inkscape:guide-bbox="true">
    <inkscape:grid
       type="xygrid"
       id="grid3368" />
    <sodipodi:guide
       position="-820.06909,1154.5923"
       orientation="0,1"
       id="guide9322"
       inkscape:locked="false" />
  </sodipodi:namedview>
  <metadata
     id="metadata2812">
    <rdf:RDF>
      <cc:Work
         rdf:about="">
        <dc:format>image/svg+xml</dc:format>
        <dc:type
           rdf:resource="http://purl.org/dc/dcmitype/StillImage" />
        <dc:title></dc:title>
      </cc:Work>
    </rdf:RDF>
  </metadata>
  <g
     inkscape:label="Layer 1"
     inkscape:groupmode="layer"
     id="layer1"
     transform="translate(0,1159.8)">
    <path
       style="font-style:normal;font-variant:normal;font-weight:normal;font-stretch:normal;font-size:154.68310547px;line-height:125%;font-family:Software;-inkscape-font-specification:Software;font-variant-ligatures:normal;font-variant-caps:normal;font-variant-numeric:normal;font-feature-settings:normal;text-align:start;letter-spacing:0px;word-spacing:0px;writing-mode:lr-tb;text-anchor:start;fill:#fc0000;fill-opacity:1;stroke:none;stroke-width:0.81391335px;stroke-linecap:butt;stroke-linejoin:miter;stroke-opacity:1"
       d="m 60.037773,-1111.9444 -5.3726,8.7991 5.3726,8.4005 h 25.519104 l 10.0131,-17.1996 z m 120.019207,0 -10.5005,17.1996 v 42.6003 l 10.5005,9.9989 z m 42.3884,0 -5.3726,8.7991 5.3726,8.4005 h 25.5191 l 5.3726,-8.4005 -5.3726,-8.7991 z m 85.0079,0 10.6227,17.1996 h 25.5211 l 5.3725,-8.4005 -5.3725,-8.7991 z m 60.3371,0 10.378,17.1996 h 25.7638 l 6.9609,-11.2007 6.9608,11.2007 h 25.5191 l 10.6228,-17.1996 z m -62.0458,2.8002 v 66.9986 l 10.5004,-9.9989 v -39.6009 z m 60.3371,0 v 66.9986 l 10.5004,-9.9989 v -39.6009 z m 89.6227,0.1993 -10.5004,17.1995 v 39.6009 l 10.5004,9.9989 z m -44.8113,7.9999 -5.2502,8.8011 v 44.5993 l 5.2502,6.6008 5.2502,-6.6008 v -44.2008 z m -357.938507,0.5999 -5.2502,8.5997 v 49.5998 l 10.5004,-9.9989 v -39.6009 z m 162.407707,0 -5.2503,8.5997 v 49.5998 l 10.5004,-9.9989 v -39.6009 z m 39.5611,0 -5.2502,8.5997 v 39.6009 l 10.5024,9.9989 v -49.5998 z m 95.6326,0 -5.2502,8.5997 v 39.6009 l 10.5004,9.9989 v -49.5998 z m -290.518207,51.0007 -9.8908,9.3991 9.8908,7.9998 h 25.519104 l 9.8908,-7.9998 -9.8908,-9.3991 z m 258.038207,0 -9.8888,9.3991 9.8888,7.9998 h 25.5211 l 9.8908,-7.9998 -9.8908,-9.3991 z m -270.371607,11.5993 v 49.59968 l 5.2502,8.5998 5.2502,-8.5998 v -40.99988 z m 50.063604,0 -10.5025,8.5998 v 40.99988 l 5.2503,8.5998 5.2522,-8.5998 z m 82.289003,0 -10.5005,8.5998 v 44.00138 l 10.5005,17.1995 z m 30.055,0 v 49.59968 l 5.2503,8.5998 5.2501,-8.5998 v -40.99988 z m 50.0636,0 -10.5024,8.5998 v 40.99988 l 5.2502,8.5998 5.2522,-8.5998 z m 45.569,0 v 69.80068 l 10.5004,-17.1995 v -44.00138 z m 60.3371,0 v 69.80068 l 10.5004,-17.1995 v -44.00138 z m 44.8114,0 -5.2502,7.8006 v 47.59868 l 5.2502,14.4014 5.2502,-14.4014 v -47.59868 z m 44.8113,0 -10.5004,8.5998 v 44.00138 l 10.5004,17.1995 z m -343.1446,9.401 -7.0833,17.1995 h 29.4277 l 7.0813,-17.1995 z m -52.522007,43.20018 -5.3726,8.3985 5.3726,8.801 h 25.519104 l 5.3725,-8.801 -5.3725,-8.3985 z m 162.407607,0 -5.3726,8.3985 5.3726,8.801 h 25.5191 l 5.3726,-8.801 -5.3726,-8.3985 z"
       id="path924"
       inkscape:connector-curvature="0" />
    <path
       style="font-style:normal;font-variant:normal;font-weight:normal;font-stretch:normal;font-size:154.68310547px;line-height:125%;font-family:Software;-inkscape-font-specification:Software;font-variant-ligatures:normal;font-variant-caps:normal;font-variant-numeric:normal;font-feature-settings:normal;text-align:start;letter-spacing:0px;word-spacing:0px;writing-mode:lr-tb;text-anchor:start;fill:#fc0000;fill-opacity:1;stroke:none;stroke-width:0.81391335px;stroke-linecap:butt;stroke-linejoin:miter;stroke-opacity:1"
       d="m 58.413877,-947.9306 -5.3726,8.7991 5.3726,8.4005 h 25.5191 l 10.0131,-17.1996 z m 120.019203,0 -10.5005,17.1996 v 42.6003 l 10.5005,9.9989 z m 42.3884,0 -5.3726,8.7991 5.3726,8.4005 h 25.5191 l 5.3726,-8.4005 -5.3726,-8.7991 z m 85.0079,0 10.6227,17.1996 h 25.5211 l 5.3725,-8.4005 -5.3725,-8.7991 z m 60.3371,0 10.378,17.1996 h 25.7638 l 6.9609,-11.2007 6.9608,11.2007 h 25.5191 l 10.6228,-17.1996 z m -62.0458,2.8002 v 66.9986 l 10.5004,-9.9989 v -39.6009 z m 60.3371,0 v 66.9986 l 10.5004,-9.9989 v -39.6009 z m 89.6227,0.1993 -10.5004,17.1995 v 39.6009 l 10.5004,9.9989 z m -44.8113,7.9999 -5.2502,8.8011 v 44.5993 l 5.2502,6.6008 5.2502,-6.6008 v -44.2008 z m -357.938503,0.5999 -5.2502,8.5997 v 49.5998 l 10.5004,-9.9989 v -39.6009 z m 162.407703,0 -5.2503,8.5997 v 49.5998 l 10.5004,-9.9989 v -39.6009 z m 39.5611,0 -5.2502,8.5997 v 39.6009 l 10.5024,9.9989 v -49.5998 z m 95.6326,0 -5.2502,8.5997 v 39.6009 l 10.5004,9.9989 v -49.5998 z m -290.518203,51.0007 -9.8908,9.3991 9.8908,7.9998 h 25.5191 l 9.8908,-7.9998 -9.8908,-9.3991 z m 258.038203,0 -9.8888,9.3991 9.8888,7.9998 h 25.5211 l 9.8908,-7.9998 -9.8908,-9.3991 z m -270.371603,11.5993 v 49.5997 l 5.2502,8.5998 5.2502,-8.5998 v -40.9999 z m 50.0636,0 -10.5025,8.5998 v 40.9999 l 5.2503,8.5998 5.2522,-8.5998 z m 82.289003,0 -10.5005,8.5998 v 44.0014 l 10.5005,17.1995 z m 30.055,0 v 49.5997 l 5.2503,8.5998 5.2501,-8.5998 v -40.9999 z m 50.0636,0 -10.5024,8.5998 v 40.9999 l 5.2502,8.5998 5.2522,-8.5998 z m 45.569,0 v 69.8007 l 10.5004,-17.1995 v -44.0014 z m 60.3371,0 v 69.8007 l 10.5004,-17.1995 v -44.0014 z m 44.8114,0 -5.2502,7.8006 v 47.5987 l 5.2502,14.4014 5.2502,-14.4014 v -47.5987 z m 44.8113,0 -10.5004,8.5998 v 44.0014 l 10.5004,17.1995 z m -343.1446,9.401 -7.0833,17.1995 h 29.4277 l 7.0813,-17.1995 z m -52.522003,43.2002 -5.3726,8.3985 5.3726,8.801 h 25.5191 l 5.3725,-8.801 -5.3725,-8.3985 z m 162.407603,0 -5.3726,8.3985 5.3726,8.801 h 25.5191 l 5.3726,-8.801 -5.3726,-8.3985 z"
       id="path924-7"
       inkscape:connector-curvature="0" />
    <path
       style="font-style:normal;font-variant:normal;font-weight:normal;font-stretch:normal;font-size:154.68310547px;line-height:125%;font-family:Software;-inkscape-font-specification:Software;font-variant-ligatures:normal;font-variant-caps:normal;font-variant-numeric:normal;font-feature-settings:normal;text-align:start;letter-spacing:0px;word-spacing:0px;writing-mode:lr-tb;text-anchor:start;fill:#fc0000;fill-opacity:1;stroke:none;stroke-width:0.81391335px;stroke-linecap:butt;stroke-linejoin:miter;stroke-opacity:1"
       d="m 509.85785,-1113.5683 -5.3726,8.7991 5.3726,8.4005 h 25.5191 l 10.0131,-17.1996 z m 120.0192,0 -10.5005,17.1996 v 42.6003 l 10.5005,9.9989 z m 42.3884,0 -5.3726,8.7991 5.3726,8.4005 h 25.5191 l 5.3726,-8.4005 -5.3726,-8.7991 z m 85.00789,0 10.6227,17.1996 h 25.5211 l 5.3725,-8.4005 -5.3725,-8.7991 z m 60.3371,0 10.378,17.1996 h 25.7638 l 6.9609,-11.2007 6.9608,11.2007 h 25.5191 l 10.6228,-17.1996 z m -62.0458,2.8002 v 66.9986 l 10.5004,-9.9989 v -39.6009 z m 60.3371,0 v 66.9986 l 10.5004,-9.9989 v -39.6009 z m 89.6227,0.1993 -10.5004,17.1995 v 39.6009 l 10.5004,9.9989 z m -44.8113,7.9999 -5.2502,8.8011 v 44.5993 l 5.2502,6.6008 5.2502,-6.6008 v -44.2008 z m -357.93849,0.5999 -5.2502,8.5997 v 49.5998 l 10.5004,-9.9989 v -39.6009 z m 162.4077,0 -5.2503,8.5997 v 49.5998 l 10.5004,-9.9989 v -39.6009 z m 39.5611,0 -5.2502,8.5997 v 39.6009 l 10.5024,9.9989 v -49.5998 z m 95.63259,0 -5.2502,8.5997 v 39.6009 l 10.5004,9.9989 v -49.5998 z m -290.51819,51.0007 -9.8908,9.3991 9.8908,7.9998 h 25.5191 l 9.8908,-7.9998 -9.8908,-9.3991 z m 258.03819,0 -9.8888,9.3991 9.8888,7.9998 h 25.5211 l 9.8908,-7.9998 -9.8908,-9.3991 z m -270.37159,11.5993 v 49.59971 l 5.2502,8.5998 5.2502,-8.5998 v -40.99991 z m 50.0636,0 -10.5025,8.5998 v 40.99991 l 5.2503,8.5998 5.2522,-8.5998 z m 82.289,0 -10.5005,8.5998 v 44.00141 l 10.5005,17.1995 z m 30.055,0 v 49.59971 l 5.2503,8.5998 5.2501,-8.5998 v -40.99991 z m 50.0636,0 -10.5024,8.5998 v 40.99991 l 5.2502,8.5998 5.2522,-8.5998 z m 45.56899,0 v 69.80071 l 10.5004,-17.1995 v -44.00141 z m 60.3371,0 v 69.80071 l 10.5004,-17.1995 v -44.00141 z m 44.8114,0 -5.2502,7.8006 v 47.59871 l 5.2502,14.4014 5.2502,-14.4014 v -47.59871 z m 44.8113,0 -10.5004,8.5998 v 44.00141 l 10.5004,17.1995 z m -343.14459,9.401 -7.0833,17.1995 h 29.4277 l 7.0813,-17.1995 z m -52.522,43.20021 -5.3726,8.3985 5.3726,8.801 h 25.5191 l 5.3725,-8.801 -5.3725,-8.3985 z m 162.4076,0 -5.3726,8.3985 5.3726,8.801 h 25.5191 l 5.3726,-8.801 -5.3726,-8.3985 z"
       id="path924-1"
       inkscape:connector-curvature="0" />
    <path
       style="font-style:normal;font-variant:normal;font-weight:normal;font-stretch:normal;font-size:154.68310547px;line-height:125%;font-family:Software;-inkscape-font-specification:Software;font-variant-ligatures:normal;font-variant-caps:normal;font-variant-numeric:normal;font-feature-settings:normal;text-align:start;letter-spacing:0px;word-spacing:0px;writing-mode:lr-tb;text-anchor:start;fill:#fc0000;fill-opacity:1;stroke:none;stroke-width:0.81391335px;stroke-linecap:butt;stroke-linejoin:miter;stroke-opacity:1"
       d="m 513.10565,-949.5545 -5.3726,8.7991 5.3726,8.4005 h 25.5191 l 10.0131,-17.1996 z m 120.0192,0 -10.5005,17.1996 v 42.6003 l 10.5005,9.9989 z m 42.3884,0 -5.3726,8.7991 5.3726,8.4005 h 25.5191 l 5.3726,-8.4005 -5.3726,-8.7991 z m 85.0079,0 10.6227,17.1996 h 25.5211 l 5.3725,-8.4005 -5.3725,-8.7991 z m 60.33715,0 10.378,17.1996 h 25.7638 l 6.9609,-11.2007 6.9608,11.2007 h 25.5191 l 10.6228,-17.1996 z m -62.04585,2.8002 v 66.9986 l 10.5004,-9.9989 v -39.6009 z m 60.33715,0 v 66.9986 l 10.5004,-9.9989 v -39.6009 z m 89.6227,0.1993 -10.5004,17.1995 v 39.6009 l 10.5004,9.9989 z m -44.8113,7.9999 -5.2502,8.8011 v 44.5993 l 5.2502,6.6008 5.2502,-6.6008 v -44.2008 z m -357.93855,0.5999 -5.2502,8.5997 v 49.5998 l 10.5004,-9.9989 v -39.6009 z m 162.4077,0 -5.2503,8.5997 v 49.5998 l 10.5004,-9.9989 v -39.6009 z m 39.5611,0 -5.2502,8.5997 v 39.6009 l 10.5024,9.9989 v -49.5998 z m 95.6326,0 -5.2502,8.5997 v 39.6009 l 10.5004,9.9989 v -49.5998 z m -290.5182,51.0007 -9.8908,9.3991 9.8908,7.9998 h 25.5191 l 9.8908,-7.9998 -9.8908,-9.3991 z m 258.0382,0 -9.8888,9.3991 9.8888,7.9998 h 25.5211 l 9.8908,-7.9998 -9.8908,-9.3991 z m -270.3716,11.5993 v 49.5997 l 5.2502,8.5998 5.2502,-8.5998 v -40.9999 z m 50.0636,0 -10.5025,8.5998 v 40.9999 l 5.2503,8.5998 5.2522,-8.5998 z m 82.289,0 -10.5005,8.5998 v 44.0014 l 10.5005,17.1995 z m 30.055,0 v 49.5997 l 5.2503,8.5998 5.2501,-8.5998 v -40.9999 z m 50.0636,0 -10.5024,8.5998 v 40.9999 l 5.2502,8.5998 5.2522,-8.5998 z m 45.569,0 v 69.8007 l 10.5004,-17.1995 v -44.0014 z m 60.33715,0 v 69.8007 L 829.65,-822.754 v -44.0014 z m 44.8114,0 -5.2502,7.8006 v 47.5987 l 5.2502,14.4014 5.2502,-14.4014 v -47.5987 z m 44.8113,0 -10.5004,8.5998 v 44.0014 l 10.5004,17.1995 z m -343.14465,9.401 -7.0833,17.1995 h 29.4277 l 7.0813,-17.1995 z m -52.522,43.2002 -5.3726,8.3985 5.3726,8.801 h 25.5191 l 5.3725,-8.801 -5.3725,-8.3985 z m 162.4076,0 -5.3726,8.3985 5.3726,8.801 h 25.5191 l 5.3726,-8.801 -5.3726,-8.3985 z"
       id="path924-5"
       inkscape:connector-curvature="0" />
    <path
       style="font-style:normal;font-variant:normal;font-weight:normal;font-stretch:normal;font-size:154.68310547px;line-height:125%;font-family:Software;-inkscape-font-specification:Software;font-variant-ligatures:normal;font-variant-caps:normal;font-variant-numeric:normal;font-feature-settings:normal;text-align:start;letter-spacing:0px;word-spacing:0px;writing-mode:lr-tb;text-anchor:start;fill:#fc0000;fill-opacity:1;stroke:none;stroke-width:0.81391335px;stroke-linecap:butt;stroke-linejoin:miter;stroke-opacity:1"
       d="m 1095.0565,-1103.323 -8.7991,-5.3726 -8.4005,5.3726 v 25.5191 l 17.1996,10.0131 z m 0,120.01924 -17.1996,-10.5005 h -42.6003 l -9.9989,10.5005 z m 0,42.38842 -8.7991,-5.37262 -8.4005,5.37262 v 25.5191 l 8.4005,5.3726 8.7991,-5.3726 z m 0,85.0079 -17.1996,10.6227 v 25.5211 l 8.4005,5.3725 8.7991,-5.3725 z m 0,60.3371 -17.1996,10.378 v 25.7638 l 11.2007,6.9609 -11.2007,6.9608 v 25.5191 l 17.1996,10.6228 z m -2.8002,-62.0458 h -66.9986 l 9.9989,10.5004 h 39.6009 z m 0,60.3371 h -66.9986 l 9.9989,10.5004 h 39.6009 z m -0.1993,89.6227 -17.1995,-10.5004 h -39.6009 l -9.9989,10.5004 z m -7.9999,-44.8113 -8.8011,-5.2502 h -44.5993 l -6.6008,5.2502 6.6008,5.2502 h 44.2008 z m -0.5999,-357.93856 -8.5997,-5.2502 h -49.5998 l 9.9989,10.5004 h 39.6009 z m 0,162.40774 -8.5997,-5.2503 h -49.5998 l 9.9989,10.50042 h 39.6009 z m 0,39.56112 -8.5997,-5.2502 h -39.6009 l -9.9989,10.5024 h 49.5998 z m 0,95.6326 -8.5997,-5.2502 h -39.6009 l -9.9989,10.5004 h 49.5998 z m -51.0007,-290.51826 -9.3991,-9.8908 -7.9998,9.8908 v 25.5191 l 7.9998,9.8908 9.3991,-9.8908 z m 0,258.03826 -9.3991,-9.8888 -7.9998,9.8888 v 25.5211 l 7.9998,9.8908 9.3991,-9.8908 z m -11.5993,-270.37166 h -49.59973 l -8.5998,5.2502 8.5998,5.2502 h 40.99993 z m 0,50.0636 -8.5998,-10.5025 h -40.99993 l -8.5998,5.2503 8.5998,5.2522 z m 0,82.28904 -8.5998,-10.5005 h -44.00143 l -17.1995,10.5005 z m 0,30.055 h -49.59973 l -8.5998,5.2503 8.5998,5.25012 h 40.99993 z m 0,50.06362 -8.5998,-10.5024 h -40.99993 l -8.5998,5.2502 8.5998,5.2522 z m 0,45.569 h -69.80073 l 17.1995,10.5004 h 44.00143 z m 0,60.3371 h -69.80073 l 17.1995,10.5004 h 44.00143 z m 0,44.8114 -7.8006,-5.2502 h -47.59873 l -14.4014,5.2502 14.4014,5.2502 h 47.59873 z m 0,44.8113 -8.5998,-10.5004 h -44.00143 l -17.1995,10.5004 z m -9.401,-343.14466 -17.19949,-7.0833 v 29.4277 l 17.19949,7.0813 z m -43.20023,-52.522 -8.3985,-5.3726 -8.801,5.3726 v 25.5191 l 8.801,5.3725 8.3985,-5.3725 z m 0,162.40766 -8.3985,-5.37262 -8.801,5.37262 v 25.5191 l 8.801,5.3726 8.3985,-5.3726 z"
       id="path924-6"
       inkscape:connector-curvature="0" />
    <path
       style="font-style:normal;font-variant:normal;font-weight:normal;font-stretch:normal;font-size:154.68310547px;line-height:125%;font-family:Software;-inkscape-font-specification:Software;font-variant-ligatures:normal;font-variant-caps:normal;font-variant-numeric:normal;font-feature-settings:normal;text-align:start;letter-spacing:0px;word-spacing:0px;writing-mode:lr-tb;text-anchor:start;fill:#fc0000;fill-opacity:1;stroke:none;stroke-width:0.81391335px;stroke-linecap:butt;stroke-linejoin:miter;stroke-opacity:1"
       d="m 58.41387,-774.17339 -5.3726,8.7991 5.3726,8.4005 h 25.5191 l 10.013107,-17.1996 z m 120.01921,0 -10.5005,17.1996 v 42.6003 l 10.5005,9.9989 z m 42.3884,0 -5.3726,8.7991 5.3726,8.4005 h 25.5191 l 5.3726,-8.4005 -5.3726,-8.7991 z m 85.0079,0 10.6227,17.1996 h 25.5211 l 5.3725,-8.4005 -5.3725,-8.7991 z m 60.3371,0 10.378,17.1996 h 25.7638 l 6.9609,-11.2007 6.9608,11.2007 h 25.5191 l 10.6228,-17.1996 z m -62.0458,2.8002 v 66.9986 l 10.5004,-9.9989 v -39.6009 z m 60.3371,0 v 66.9986 l 10.5004,-9.9989 v -39.6009 z m 89.6227,0.1993 -10.5004,17.1995 v 39.6009 l 10.5004,9.9989 z m -44.8113,7.9999 -5.2502,8.8011 v 44.5993 l 5.2502,6.6008 5.2502,-6.6008 v -44.2008 z m -357.93851,0.5999 -5.2502,8.5997 v 49.5998 l 10.5004,-9.9989 v -39.6009 z m 162.40771,0 -5.2503,8.5997 v 49.5998 l 10.5004,-9.9989 v -39.6009 z m 39.5611,0 -5.2502,8.5997 v 39.6009 l 10.5024,9.9989 v -49.5998 z m 95.6326,0 -5.2502,8.5997 v 39.6009 l 10.5004,9.9989 v -49.5998 z m -290.51821,51.0007 -9.8908,9.3991 9.8908,7.9998 h 25.5191 l 9.890807,-7.9998 -9.890807,-9.3991 z m 258.03821,0 -9.8888,9.3991 9.8888,7.9998 h 25.5211 l 9.8908,-7.9998 -9.8908,-9.3991 z m -270.37161,11.5993 v 49.5997 l 5.2502,8.5998 5.2502,-8.5998 v -40.9999 z m 50.063607,0 -10.50251,8.5998 v 40.9999 l 5.25031,8.5998 5.2522,-8.5998 z m 82.289003,0 -10.5005,8.5998 v 44.0014 l 10.5005,17.1995 z m 30.055,0 v 49.5997 l 5.2503,8.5998 5.2501,-8.5998 v -40.9999 z m 50.0636,0 -10.5024,8.5998 v 40.9999 l 5.2502,8.5998 5.2522,-8.5998 z m 45.569,0 v 69.8007 l 10.5004,-17.1995 v -44.0014 z m 60.3371,0 v 69.8007 l 10.5004,-17.1995 v -44.0014 z m 44.8114,0 -5.2502,7.8006 v 47.5987 l 5.2502,14.4014 5.2502,-14.4014 v -47.5987 z m 44.8113,0 -10.5004,8.5998 v 44.0014 l 10.5004,17.1995 z m -343.1446,9.401 -7.0833,17.1995 h 29.4277 l 7.0813,-17.1995 z m -52.52201,43.2002 -5.3726,8.3985 5.3726,8.801 h 25.5191 l 5.372507,-8.801 -5.372507,-8.3985 z m 162.40761,0 -5.3726,8.3985 5.3726,8.801 h 25.5191 l 5.3726,-8.801 -5.3726,-8.3985 z"
       id="path924-71"
       inkscape:connector-curvature="0" />
    <path
       style="font-style:normal;font-variant:normal;font-weight:normal;font-stretch:normal;font-size:154.68310547px;line-height:125%;font-family:Software;-inkscape-font-specification:Software;font-variant-ligatures:normal;font-variant-caps:normal;font-variant-numeric:normal;font-feature-settings:normal;text-align:start;letter-spacing:0px;word-spacing:0px;writing-mode:lr-tb;text-anchor:start;fill:#fc0000;fill-opacity:1;stroke:none;stroke-width:0.81391335px;stroke-linecap:butt;stroke-linejoin:miter;stroke-opacity:1"
       d="m 530.96854,-779.04509 -5.3726,8.7991 5.3726,8.4005 h 25.5191 l 10.0131,-17.1996 z m 120.0192,0 -10.5005,17.1996 v 42.6003 l 10.5005,9.9989 z m 42.3884,0 -5.3726,8.7991 5.3726,8.4005 h 25.5191 l 5.3726,-8.4005 -5.3726,-8.7991 z m 85.0079,0 10.6227,17.1996 h 25.52106 l 5.3725,-8.4005 -5.3725,-8.7991 z m 60.33706,0 10.378,17.1996 h 25.7638 l 6.9609,-11.2007 6.9608,11.2007 h 25.5191 l 10.6228,-17.1996 z m -62.04576,2.8002 v 66.9986 l 10.5004,-9.9989 v -39.6009 z m 60.33706,0 v 66.9986 l 10.5004,-9.9989 v -39.6009 z m 89.6227,0.1993 -10.5004,17.1995 v 39.6009 l 10.5004,9.9989 z m -44.8113,7.9999 -5.2502,8.8011 v 44.5993 l 5.2502,6.6008 5.2502,-6.6008 v -44.2008 z m -357.93846,0.5999 -5.2502,8.5997 v 49.5998 l 10.5004,-9.9989 v -39.6009 z m 162.4077,0 -5.2503,8.5997 v 49.5998 l 10.5004,-9.9989 v -39.6009 z m 39.5611,0 -5.2502,8.5997 v 39.6009 l 10.5024,9.9989 v -49.5998 z m 95.63256,0 -5.2502,8.5997 v 39.6009 l 10.5004,9.9989 v -49.5998 z m -290.51816,51.0007 -9.8908,9.3991 9.8908,7.9998 h 25.5191 l 9.8908,-7.9998 -9.8908,-9.3991 z m 258.0382,0 -9.8888,9.3991 9.8888,7.9998 h 25.52106 l 9.8908,-7.9998 -9.8908,-9.3991 z m -270.3716,11.5993 v 49.5997 l 5.2502,8.5998 5.2502,-8.5998 v -40.9999 z m 50.0636,0 -10.5025,8.5998 v 40.9999 l 5.2503,8.5998 5.2522,-8.5998 z m 82.289,0 -10.5005,8.5998 v 44.0014 l 10.5005,17.1995 z m 30.055,0 v 49.5997 l 5.2503,8.5998 5.2501,-8.5998 v -40.9999 z m 50.0636,0 -10.5024,8.5998 v 40.9999 l 5.2502,8.5998 5.2522,-8.5998 z m 45.569,0 v 69.8007 l 10.5004,-17.1995 v -44.0014 z m 60.33706,0 v 69.8007 l 10.5004,-17.1995 v -44.0014 z m 44.8114,0 -5.2502,7.8006 v 47.5987 l 5.2502,14.4014 5.2502,-14.4014 v -47.5987 z m 44.8113,0 -10.5004,8.5998 v 44.0014 l 10.5004,17.1995 z m -343.14456,9.401 -7.0833,17.1995 h 29.4277 l 7.0813,-17.1995 z m -52.522,43.2002 -5.3726,8.3985 5.3726,8.801 h 25.5191 l 5.3725,-8.801 -5.3725,-8.3985 z m 162.4076,0 -5.3726,8.3985 5.3726,8.801 h 25.5191 l 5.3726,-8.801 -5.3726,-8.3985 z"
       id="path924-70"
       inkscape:connector-curvature="0" />
    <path
       style="font-style:normal;font-variant:normal;font-weight:normal;font-stretch:normal;font-size:154.68310547px;line-height:125%;font-family:Software;-inkscape-font-specification:Software;font-variant-ligatures:normal;font-variant-caps:normal;font-variant-numeric:normal;font-feature-settings:normal;text-align:start;letter-spacing:0px;word-spacing:0px;writing-mode:lr-tb;text-anchor:start;fill:#fc0000;fill-opacity:1;stroke:none;stroke-width:0.81391335px;stroke-linecap:butt;stroke-linejoin:miter;stroke-opacity:1"
       d="m 59.457914,-605.05584 -5.3726,8.7991 5.3726,8.4005 h 25.5191 l 10.013103,-17.1996 z m 120.019216,0 -10.5005,17.1996 v 42.6003 l 10.5005,9.9989 z m 42.3884,0 -5.3726,8.7991 5.3726,8.4005 h 25.5191 l 5.3726,-8.4005 -5.3726,-8.7991 z m 85.0079,0 10.6227,17.1996 h 25.5211 l 5.3725,-8.4005 -5.3725,-8.7991 z m 60.3371,0 10.378,17.1996 h 25.7638 l 6.9609,-11.2007 6.9608,11.2007 h 25.5191 l 10.6228,-17.1996 z m -62.0458,2.8002 v 66.9986 l 10.5004,-9.9989 v -39.6009 z m 60.3371,0 v 66.9986 l 10.5004,-9.9989 v -39.6009 z m 89.6227,0.1993 -10.5004,17.1995 v 39.6009 l 10.5004,9.9989 z m -44.8113,7.9999 -5.2502,8.8011 v 44.5993 l 5.2502,6.6008 5.2502,-6.6008 v -44.2008 z m -357.938516,0.5999 -5.2502,8.5997 v 49.5998 l 10.5004,-9.9989 v -39.6009 z m 162.407716,0 -5.2503,8.5997 v 49.5998 l 10.5004,-9.9989 v -39.6009 z m 39.5611,0 -5.2502,8.5997 v 39.6009 l 10.5024,9.9989 v -49.5998 z m 95.6326,0 -5.2502,8.5997 v 39.6009 l 10.5004,9.9989 v -49.5998 z m -290.518216,51.0007 -9.8908,9.3991 9.8908,7.9998 h 25.5191 l 9.890803,-7.9998 -9.890803,-9.3991 z m 258.038216,0 -9.8888,9.3991 9.8888,7.9998 h 25.5211 l 9.8908,-7.9998 -9.8908,-9.3991 z m -270.371616,11.5993 v 49.5997 l 5.2502,8.5998 5.2502,-8.5998 v -40.9999 z m 50.063603,0 -10.5025,8.5998 v 40.9999 l 5.2503,8.5998 5.2522,-8.5998 z m 82.289013,0 -10.5005,8.5998 v 44.0014 l 10.5005,17.1995 z m 30.055,0 v 49.5997 l 5.2503,8.5998 5.2501,-8.5998 v -40.9999 z m 50.0636,0 -10.5024,8.5998 v 40.9999 l 5.2502,8.5998 5.2522,-8.5998 z m 45.569,0 v 69.8007 l 10.5004,-17.1995 v -44.0014 z m 60.3371,0 v 69.8007 l 10.5004,-17.1995 v -44.0014 z m 44.8114,0 -5.2502,7.8006 v 47.5987 l 5.2502,14.4014 5.2502,-14.4014 v -47.5987 z m 44.8113,0 -10.5004,8.5998 v 44.0014 l 10.5004,17.1995 z m -343.14461,9.401 -7.0833,17.1995 h 29.4277 l 7.0813,-17.1995 z m -52.522006,43.2002 -5.3726,8.3985 5.3726,8.801 h 25.5191 l 5.372503,-8.801 -5.372503,-8.3985 z m 162.407616,0 -5.3726,8.3985 5.3726,8.801 h 25.5191 l 5.3726,-8.801 -5.3726,-8.3985 z"
       id="path924-0"
       inkscape:connector-curvature="0" />
    <path
       style="font-style:normal;font-variant:normal;font-weight:normal;font-stretch:normal;font-size:154.68310547px;line-height:125%;font-family:Software;-inkscape-font-specification:Software;font-variant-ligatures:normal;font-variant-caps:normal;font-variant-numeric:normal;font-feature-settings:normal;text-align:start;letter-spacing:0px;word-spacing:0px;writing-mode:lr-tb;text-anchor:start;fill:#fc0000;fill-opacity:1;stroke:none;stroke-width:0.81391335px;stroke-linecap:butt;stroke-linejoin:miter;stroke-opacity:1"
       d="m 57.834024,-441.04198 -5.3726,8.7991 5.3726,8.4005 h 25.5191 l 10.013093,-17.1996 z m 120.019206,0 -10.5005,17.1996 v 42.6003 l 10.5005,9.9989 z m 42.3884,0 -5.3726,8.7991 5.3726,8.4005 h 25.51909 l 5.3726,-8.4005 -5.3726,-8.7991 z m 85.0079,0 10.6227,17.1996 h 25.5211 l 5.3725,-8.4005 -5.3725,-8.7991 z m 60.3371,0 10.378,17.1996 h 25.7638 l 6.9609,-11.2007 6.9608,11.2007 h 25.5191 l 10.6228,-17.1996 z m -62.0458,2.8002 v 66.9986 l 10.5004,-9.9989 v -39.6009 z m 60.3371,0 v 66.9986 l 10.5004,-9.9989 v -39.6009 z m 89.6227,0.1993 -10.5004,17.1995 v 39.6009 l 10.5004,9.9989 z m -44.8113,7.9999 -5.2502,8.8011 v 44.5993 l 5.2502,6.6008 5.2502,-6.6008 v -44.2008 z m -357.938506,0.5999 -5.2502,8.5997 v 49.5998 l 10.5004,-9.9989 v -39.6009 z m 162.407706,0 -5.2503,8.5997 v 49.5998 l 10.5004,-9.9989 v -39.6009 z m 39.5611,0 -5.2502,8.5997 v 39.6009 l 10.5024,9.9989 v -49.5998 z m 95.6326,0 -5.2502,8.5997 v 39.6009 l 10.5004,9.9989 v -49.5998 z m -290.518206,51.0007 -9.8908,9.3991 9.8908,7.9998 h 25.5191 l 9.890793,-7.9998 -9.890793,-9.3991 z m 258.038206,0 -9.8888,9.3991 9.8888,7.9998 h 25.5211 l 9.8908,-7.9998 -9.8908,-9.3991 z m -270.371606,11.5993 v 49.5997 l 5.2502,8.5998 5.2502,-8.5998 v -40.9999 z m 50.063593,0 -10.502493,8.5998 v 40.9999 l 5.250293,8.5998 5.2522,-8.5998 z m 82.289013,0 -10.5005,8.5998 v 44.0014 l 10.5005,17.1995 z m 30.055,0 v 49.5997 l 5.2503,8.5998 5.2501,-8.5998 v -40.9999 z m 50.0636,0 -10.5024,8.5998 v 40.9999 l 5.2502,8.5998 5.2522,-8.5998 z m 45.569,0 v 69.8007 l 10.5004,-17.1995 v -44.0014 z m 60.3371,0 v 69.8007 l 10.5004,-17.1995 v -44.0014 z m 44.8114,0 -5.2502,7.8006 v 47.5987 l 5.2502,14.4014 5.2502,-14.4014 v -47.5987 z m 44.8113,0 -10.5004,8.5998 v 44.0014 l 10.5004,17.1995 z m -343.14461,9.401 -7.0833,17.1995 h 29.4277 l 7.0813,-17.1995 z m -52.521996,43.2002 -5.3726,8.3985 5.3726,8.801 h 25.5191 l 5.372493,-8.801 -5.372493,-8.3985 z m 162.407606,0 -5.3726,8.3985 5.3726,8.801 h 25.5191 l 5.3726,-8.801 -5.3726,-8.3985 z"
       id="path924-7-6"
       inkscape:connector-curvature="0" />
    <path
       style="font-style:normal;font-variant:normal;font-weight:normal;font-stretch:normal;font-size:154.68310547px;line-height:125%;font-family:Software;-inkscape-font-specification:Software;font-variant-ligatures:normal;font-variant-caps:normal;font-variant-numeric:normal;font-feature-settings:normal;text-align:start;letter-spacing:0px;word-spacing:0px;writing-mode:lr-tb;text-anchor:start;fill:#fc0000;fill-opacity:1;stroke:none;stroke-width:0.81391335px;stroke-linecap:butt;stroke-linejoin:miter;stroke-opacity:1"
       d="m 509.27803,-606.67974 -5.3726,8.7991 5.3726,8.4005 h 25.5191 l 10.0131,-17.1996 z m 120.0192,0 -10.5005,17.1996 v 42.6003 l 10.5005,9.9989 z m 42.3884,0 -5.3726,8.7991 5.3726,8.4005 h 25.5191 l 5.3726,-8.4005 -5.3726,-8.7991 z m 85.0078,0 10.6228,17.1996 h 25.5211 l 5.3724,-8.4005 -5.3724,-8.7991 z m 60.3371,0 10.3781,17.1996 h 25.7638 l 6.9609,-11.2007 6.9607,11.2007 h 25.5191 l 10.6228,-17.1996 z m -62.0457,2.8002 v 66.9986 l 10.5003,-9.9989 v -39.6009 z m 60.3371,0 v 66.9986 l 10.5003,-9.9989 v -39.6009 z m 89.6226,0.1993 -10.5003,17.1995 v 39.6009 l 10.5003,9.9989 z m -44.8112,7.9999 -5.2502,8.8011 v 44.5993 l 5.2502,6.6008 5.2502,-6.6008 v -44.2008 z m -357.9385,0.5999 -5.2502,8.5997 v 49.5998 l 10.5004,-9.9989 v -39.6009 z m 162.4077,0 -5.2503,8.5997 v 49.5998 l 10.5004,-9.9989 v -39.6009 z m 39.5611,0 -5.2502,8.5997 v 39.6009 l 10.5024,9.9989 v -49.5998 z m 95.6326,0 -5.2502,8.5997 v 39.6009 l 10.5004,9.9989 v -49.5998 z m -290.5182,51.0007 -9.8908,9.3991 9.8908,7.9999 h 25.5191 l 9.8908,-7.9999 -9.8908,-9.3991 z m 258.0382,0 -9.8888,9.3991 9.8888,7.9999 h 25.5211 l 9.8908,-7.9999 -9.8908,-9.3991 z m -270.3716,11.5994 v 49.5997 l 5.2502,8.5998 5.2502,-8.5998 v -40.9999 z m 50.0636,0 -10.5025,8.5998 v 40.9999 l 5.2503,8.5998 5.2522,-8.5998 z m 82.289,0 -10.5005,8.5998 v 44.0014 l 10.5005,17.1995 z m 30.055,0 v 49.5997 l 5.2503,8.5998 5.2501,-8.5998 v -40.9999 z m 50.0636,0 -10.5024,8.5998 v 40.9999 l 5.2502,8.5998 5.2522,-8.5998 z m 45.5689,0 v 69.8007 l 10.5004,-17.1995 v -44.0014 z m 60.3371,0 v 69.8007 l 10.5004,-17.1995 v -44.0014 z m 44.8114,0 -5.2502,7.8006 v 47.5987 l 5.2502,14.4014 5.2502,-14.4014 v -47.5987 z m 44.8113,0 -10.5004,8.5998 v 44.0014 l 10.5004,17.1995 z m -343.1445,9.401 -7.0833,17.1995 h 29.4277 l 7.0813,-17.1995 z m -52.522,43.2002 -5.3726,8.3985 5.3726,8.801 h 25.5191 l 5.3725,-8.801 -5.3725,-8.3985 z m 162.4076,0 -5.3726,8.3985 5.3726,8.801 h 25.5191 l 5.3726,-8.801 -5.3726,-8.3985 z"
       id="path924-1-0"
       inkscape:connector-curvature="0" />
    <path
       style="font-style:normal;font-variant:normal;font-weight:normal;font-stretch:normal;font-size:154.68310547px;line-height:125%;font-family:Software;-inkscape-font-specification:Software;font-variant-ligatures:normal;font-variant-caps:normal;font-variant-numeric:normal;font-feature-settings:normal;text-align:start;letter-spacing:0px;word-spacing:0px;writing-mode:lr-tb;text-anchor:start;fill:#fc0000;fill-opacity:1;stroke:none;stroke-width:0.81391335px;stroke-linecap:butt;stroke-linejoin:miter;stroke-opacity:1"
       d="m 512.52583,-442.66588 -5.3726,8.7991 5.3726,8.4005 h 25.5191 l 10.0131,-17.1996 z m 120.0192,0 -10.5005,17.1996 v 42.6003 l 10.5005,9.9989 z m 42.3884,0 -5.3726,8.7991 5.3726,8.4005 h 25.5191 l 5.3726,-8.4005 -5.3726,-8.7991 z m 85.0079,0 10.6227,17.1996 h 25.5211 l 5.3725,-8.4005 -5.3725,-8.7991 z m 60.3371,0 10.378,17.1996 h 25.7638 l 6.9609,-11.2007 6.9608,11.2007 h 25.5191 l 10.6228,-17.1996 z m -62.0458,2.8002 v 66.9986 l 10.5004,-9.9989 v -39.6009 z m 60.3371,0 v 66.9986 l 10.5004,-9.9989 v -39.6009 z m 89.6227,0.1993 -10.5004,17.1995 v 39.6009 l 10.5004,9.9989 z m -44.8113,7.9999 -5.2502,8.8011 v 44.5993 l 5.2502,6.6008 5.2502,-6.6008 v -44.2008 z m -357.9385,0.5999 -5.2502,8.5997 v 49.5998 l 10.5004,-9.9989 v -39.6009 z m 162.4077,0 -5.2503,8.5997 v 49.5998 l 10.5004,-9.9989 v -39.6009 z m 39.5611,0 -5.2502,8.5997 v 39.6009 l 10.5024,9.9989 v -49.5998 z m 95.6326,0 -5.2502,8.5997 v 39.6009 l 10.5004,9.9989 v -49.5998 z m -290.5182,51.0007 -9.8908,9.3991 9.8908,7.9998 h 25.5191 l 9.8908,-7.9998 -9.8908,-9.3991 z m 258.0382,0 -9.8888,9.3991 9.8888,7.9998 h 25.5211 l 9.8908,-7.9998 -9.8908,-9.3991 z m -270.3716,11.5993 v 49.5997 l 5.2502,8.5998 5.2502,-8.5998 v -40.9999 z m 50.0636,0 -10.5025,8.5998 v 40.9999 l 5.2503,8.5998 5.2522,-8.5998 z m 82.289,0 -10.5005,8.5998 v 44.0014 l 10.5005,17.1995 z m 30.055,0 v 49.5997 l 5.2503,8.5998 5.2501,-8.5998 v -40.9999 z m 50.0636,0 -10.5024,8.5998 v 40.9999 l 5.2502,8.5998 5.2522,-8.5998 z m 45.569,0 v 69.8007 l 10.5004,-17.1995 v -44.0014 z m 60.3371,0 v 69.8007 l 10.5004,-17.1995 v -44.0014 z m 44.8114,0 -5.2502,7.8006 v 47.5987 l 5.2502,14.4014 5.2502,-14.4014 v -47.5987 z m 44.8113,0 -10.5004,8.5998 v 44.0014 l 10.5004,17.1995 z m -343.1446,9.401 -7.0833,17.1995 h 29.4277 l 7.0813,-17.1995 z m -52.522,43.2002 -5.3726,8.3985 5.3726,8.801 h 25.5191 l 5.3725,-8.801 -5.3725,-8.3985 z m 162.4076,0 -5.3726,8.3985 5.3726,8.801 h 25.5191 l 5.3726,-8.801 -5.3726,-8.3985 z"
       id="path924-5-5"
       inkscape:connector-curvature="0" />
    <path
       style="font-style:normal;font-variant:normal;font-weight:normal;font-stretch:normal;font-size:154.68310547px;line-height:125%;font-family:Software;-inkscape-font-specification:Software;font-variant-ligatures:normal;font-variant-caps:normal;font-variant-numeric:normal;font-feature-settings:normal;text-align:start;letter-spacing:0px;word-spacing:0px;writing-mode:lr-tb;text-anchor:start;fill:#fc0000;fill-opacity:1;stroke:none;stroke-width:0.81391335px;stroke-linecap:butt;stroke-linejoin:miter;stroke-opacity:1"
       d="m 1094.4766,-596.43434 -8.7991,-5.3726 -8.4005,5.3726 v 25.5191 l 17.1996,10.0131 z m 0,120.0192 -17.1996,-10.5005 h -42.6003 l -9.9989,10.5005 z m 0,42.38842 -8.7991,-5.37262 -8.4005,5.37262 v 25.5191 l 8.4005,5.3726 8.7991,-5.3726 z m 0,85.0079 -17.1996,10.6227 v 25.5211 l 8.4005,5.3725 8.7991,-5.3725 z m 0,60.3371 -17.1996,10.378 v 25.7638 l 11.2007,6.9609 -11.2007,6.9608 v 25.5191 l 17.1996,10.6228 z m -2.8002,-62.0458 h -66.9986 l 9.9989,10.5004 h 39.6009 z m 0,60.3371 h -66.9986 l 9.9989,10.5004 h 39.6009 z m -0.1993,89.6227 -17.1995,-10.5004 h -39.6009 l -9.9989,10.5004 z m -7.9999,-44.8113 -8.8011,-5.2502 h -44.5993 l -6.6008,5.2502 6.6008,5.2502 h 44.2008 z m -0.5999,-357.93852 -8.5997,-5.2502 h -49.5998 l 9.9989,10.5004 h 39.6009 z m 0,162.4077 -8.5997,-5.2503 h -49.5998 l 9.9989,10.50042 h 39.6009 z m 0,39.56112 -8.5997,-5.2502 h -39.6009 l -9.9989,10.5024 h 49.5998 z m 0,95.6326 -8.5997,-5.2502 h -39.6009 l -9.9989,10.5004 h 49.5998 z m -51.0007,-290.51822 -9.3991,-9.8908 -7.9998,9.8908 v 25.5191 l 7.9998,9.8908 9.3991,-9.8908 z m 0,258.03822 -9.3991,-9.8888 -7.9998,9.8888 v 25.5211 l 7.9998,9.8908 9.3991,-9.8908 z m -11.5993,-270.37162 h -49.59967 l -8.5998,5.2502 8.5998,5.2502 h 40.99987 z m 0,50.0636 -8.5998,-10.5025 h -40.99987 l -8.5998,5.2503 8.5998,5.2522 z m 0,82.289 -8.5998,-10.5005 h -44.00137 l -17.1995,10.5005 z m 0,30.055 h -49.59967 l -8.5998,5.2503 8.5998,5.25012 h 40.99987 z m 0,50.06362 -8.5998,-10.5024 h -40.99987 l -8.5998,5.2502 8.5998,5.2522 z m 0,45.569 h -69.80067 l 17.1995,10.5004 h 44.00137 z m 0,60.3371 h -69.80067 l 17.1995,10.5004 h 44.00137 z m 0,44.8114 -7.8006,-5.2502 h -47.59867 l -14.4014,5.2502 14.4014,5.2502 h 47.59867 z m 0,44.8113 -8.5998,-10.5004 h -44.00137 l -17.1995,10.5004 z m -9.401,-343.14462 -17.19949,-7.0833 v 29.4277 l 17.19949,7.0813 z m -43.20017,-52.522 -8.3985,-5.3726 -8.801,5.3726 v 25.5191 l 8.801,5.3725 8.3985,-5.3725 z m 0,162.40762 -8.3985,-5.37262 -8.801,5.37262 v 25.5191 l 8.801,5.3726 8.3985,-5.3726 z"
       id="path924-6-2"
       inkscape:connector-curvature="0" />
    <path
       style="font-style:normal;font-variant:normal;font-weight:normal;font-stretch:normal;font-size:154.68310547px;line-height:125%;font-family:Software;-inkscape-font-specification:Software;font-variant-ligatures:normal;font-variant-caps:normal;font-variant-numeric:normal;font-feature-settings:normal;text-align:start;letter-spacing:0px;word-spacing:0px;writing-mode:lr-tb;text-anchor:start;fill:#fc0000;fill-opacity:1;stroke:none;stroke-width:0.81391335px;stroke-linecap:butt;stroke-linejoin:miter;stroke-opacity:1"
       d="m 57.834014,-267.28477 -5.3726,8.7991 5.3726,8.4005 h 25.5191 l 10.013103,-17.1996 z m 120.019216,0 -10.5005,17.1996 v 42.6003 l 10.5005,9.9989 z m 42.3884,0 -5.3726,8.7991 5.3726,8.4005 h 25.51909 l 5.3726,-8.4005 -5.3726,-8.7991 z m 85.0079,0 10.6227,17.1996 h 25.5211 l 5.3725,-8.4005 -5.3725,-8.7991 z m 60.3371,0 10.378,17.1996 h 25.7638 l 6.9609,-11.2007 6.9608,11.2007 h 25.5191 l 10.6228,-17.1996 z m -62.0458,2.8002 v 66.9986 l 10.5004,-9.9989 v -39.6009 z m 60.3371,0 v 66.9986 l 10.5004,-9.9989 v -39.6009 z m 89.6227,0.1993 -10.5004,17.1995 v 39.6009 l 10.5004,9.9989 z m -44.8113,7.9999 -5.2502,8.8011 v 44.5993 l 5.2502,6.6008 5.2502,-6.6008 v -44.2008 z m -357.938516,0.5999 -5.2502,8.5997 v 49.5998 l 10.5004,-9.9989 v -39.6009 z m 162.407716,0 -5.2503,8.5997 v 49.5998 l 10.5004,-9.9989 v -39.6009 z m 39.5611,0 -5.2502,8.5997 v 39.6009 l 10.5024,9.9989 v -49.5998 z m 95.63259,0 -5.2502,8.5997 v 39.6009 l 10.50041,9.9989 v -49.5998 z m -290.518206,51.0007 -9.8908,9.3991 9.8908,7.9998 h 25.5191 l 9.890803,-7.9998 -9.890803,-9.3991 z m 258.038206,0 -9.8888,9.3991 9.8888,7.9998 h 25.5211 l 9.8908,-7.9998 -9.8908,-9.3991 z m -270.371606,11.5993 v 49.59975 l 5.2502,8.5998 5.2502,-8.5998 v -40.99995 z m 50.063603,0 -10.502503,8.5998 v 40.99995 l 5.250303,8.5998 5.2522,-8.5998 z m 82.289003,0 -10.5005,8.5998 v 44.00145 l 10.5005,17.1995 z m 30.055,0 v 49.59975 l 5.2503,8.5998 5.2501,-8.5998 v -40.99995 z m 50.0636,0 -10.5024,8.5998 v 40.99995 l 5.2502,8.5998 5.2522,-8.5998 z m 45.56901,0 v 69.80075 l 10.5004,-17.1995 v -44.00145 z m 60.3371,0 v 69.80075 l 10.5004,-17.1995 v -44.00145 z m 44.8114,0 -5.2502,7.8006 v 47.59875 l 5.2502,14.4014 5.2502,-14.4014 v -47.59875 z m 44.8113,0 -10.5004,8.5998 v 44.00145 l 10.5004,17.1995 z m -343.14461,9.401 -7.0833,17.1995 h 29.4277 l 7.0813,-17.1995 z m -52.522006,43.20025 -5.3726,8.3985 5.3726,8.801 h 25.5191 l 5.372503,-8.801 -5.372503,-8.3985 z m 162.407606,0 -5.3726,8.3985 5.3726,8.801 h 25.5191 l 5.3726,-8.801 -5.3726,-8.3985 z"
       id="path924-71-6"
       inkscape:connector-curvature="0" />
    <path
       style="font-style:normal;font-variant:normal;font-weight:normal;font-stretch:normal;font-size:154.68310547px;line-height:125%;font-family:Software;-inkscape-font-specification:Software;font-variant-ligatures:normal;font-variant-caps:normal;font-variant-numeric:normal;font-feature-settings:normal;text-align:start;letter-spacing:0px;word-spacing:0px;writing-mode:lr-tb;text-anchor:start;fill:#fc0000;fill-opacity:1;stroke:none;stroke-width:0.81391335px;stroke-linecap:butt;stroke-linejoin:miter;stroke-opacity:1"
       d="m 530.38873,-272.15647 -5.3727,8.7991 5.3727,8.4005 h 25.5191 l 10.013,-17.1996 z m 120.0192,0 -10.5006,17.1996 v 42.6003 l 10.5006,9.9989 z m 42.3884,0 -5.3727,8.7991 5.3727,8.4005 h 25.5191 l 5.3725,-8.4005 -5.3725,-8.7991 z m 85.0079,0 10.6227,17.1996 h 25.521 l 5.3725,-8.4005 -5.3725,-8.7991 z m 60.337,0 10.378,17.1996 h 25.7638 l 6.9609,-11.2007 6.9608,11.2007 h 25.5191 l 10.6228,-17.1996 z m -62.0457,2.8002 v 66.9986 l 10.5004,-9.9989 v -39.6009 z m 60.337,0 v 66.9986 l 10.5004,-9.9989 v -39.6009 z m 89.6227,0.1993 -10.5004,17.1995 v 39.6009 l 10.5004,9.9989 z m -44.8113,7.9999 -5.2502,8.8011 v 44.5993 l 5.2502,6.6008 5.2502,-6.6008 v -44.2008 z m -357.9385,0.5999 -5.2501,8.5997 v 49.5998 l 10.5004,-9.9989 v -39.6009 z m 162.4078,0 -5.2504,8.5997 v 49.5998 l 10.5005,-9.9989 v -39.6009 z m 39.561,0 -5.2502,8.5997 v 39.6009 l 10.5025,9.9989 v -49.5998 z m 95.6326,0 -5.2502,8.5997 v 39.6009 l 10.5004,9.9989 v -49.5998 z m -290.5181,51.0007 -9.8908,9.3991 9.8908,7.9998 h 25.5191 l 9.8907,-7.9998 -9.8907,-9.3991 z m 258.0382,0 -9.8888,9.3991 9.8888,7.9998 h 25.521 l 9.8908,-7.9998 -9.8908,-9.3991 z m -270.3716,11.5993 v 49.59975 l 5.2501,8.5998 5.2502,-8.5998 v -40.99995 z m 50.0636,0 -10.5026,8.5998 v 40.99995 l 5.2503,8.5998 5.2523,-8.5998 z m 82.289,0 -10.5006,8.5998 v 44.00145 l 10.5006,17.1995 z m 30.0549,0 v 49.59975 l 5.2504,8.5998 5.2501,-8.5998 v -40.99995 z m 50.0636,0 -10.5024,8.5998 v 40.99995 l 5.2502,8.5998 5.2522,-8.5998 z m 45.569,0 v 69.80075 l 10.5004,-17.1995 v -44.00145 z m 60.3371,0 v 69.80075 l 10.5004,-17.1995 v -44.00145 z m 44.8114,0 -5.2502,7.8006 v 47.59875 l 5.2502,14.4014 5.2502,-14.4014 v -47.59875 z m 44.8113,0 -10.5004,8.5998 v 44.00145 l 10.5004,17.1995 z m -343.1446,9.401 -7.0833,17.1995 h 29.4277 l 7.0813,-17.1995 z m -52.522,43.20025 -5.3726,8.3985 5.3726,8.801 h 25.5191 l 5.3725,-8.801 -5.3725,-8.3985 z m 162.4076,0 -5.3726,8.3985 5.3726,8.801 h 25.5191 l 5.3726,-8.801 -5.3726,-8.3985 z"
       id="path924-70-4"
       inkscape:connector-curvature="0" />
  </g>
</svg>
