<?xml version="1.0" encoding="UTF-8" standalone="no"?>
<!-- Created with Inkscape (http://www.inkscape.org/) -->

<svg
   xmlns:dc="http://purl.org/dc/elements/1.1/"
   xmlns:cc="http://creativecommons.org/ns#"
   xmlns:rdf="http://www.w3.org/1999/02/22-rdf-syntax-ns#"
   xmlns:svg="http://www.w3.org/2000/svg"
   xmlns="http://www.w3.org/2000/svg"
   xmlns:sodipodi="http://sodipodi.sourceforge.net/DTD/sodipodi-0.dtd"
   xmlns:inkscape="http://www.inkscape.org/namespaces/inkscape"
   width="12in"
   height="24in"
   viewBox="0 0 1152 2304"
   version="1.1"
   id="svg2815"
   inkscape:version="0.92.3 (2405546, 2018-03-11)"
   sodipodi:docname="12x24 Sheet Calculator - Gold (Free) - Single.svg">
  <defs
     id="defs2809" />
  <sodipodi:namedview
     id="base"
     pagecolor="#1f1f1f"
     bordercolor="#666666"
     borderopacity="1.0"
     inkscape:pageopacity="0"
     inkscape:pageshadow="2"
     inkscape:zoom="0.71"
     inkscape:cx="322.85661"
     inkscape:cy="1706.5222"
     inkscape:document-units="in"
     inkscape:current-layer="layer1"
     showgrid="true"
     inkscape:snap-global="false"
     showguides="true"
     units="in"
     gridtolerance="10"
     inkscape:window-width="1920"
     inkscape:window-height="1017"
     inkscape:window-x="-8"
     inkscape:window-y="-8"
     inkscape:window-maximized="1"
     inkscape:guide-bbox="true">
    <inkscape:grid
       type="xygrid"
       id="grid3368" />
    <sodipodi:guide
       position="-358.88172,1152.9684"
       orientation="0,1"
       id="guide1164"
       inkscape:locked="false" />
  </sodipodi:namedview>
  <metadata
     id="metadata2812">
    <rdf:RDF>
      <cc:Work
         rdf:about="">
        <dc:format>image/svg+xml</dc:format>
        <dc:type
           rdf:resource="http://purl.org/dc/dcmitype/StillImage" />
        <dc:title></dc:title>
      </cc:Work>
    </rdf:RDF>
  </metadata>
  <g
     inkscape:label="Layer 1"
     inkscape:groupmode="layer"
     id="layer1"
     transform="translate(0,1159.8)">
    <g
       id="g932">
      <g
         id="text2135"
         style="font-style:normal;font-variant:normal;font-weight:normal;font-stretch:normal;font-size:187.88502502px;line-height:125%;font-family:'Script MT Bold';-inkscape-font-specification:'Script MT Bold, ';font-variant-ligatures:normal;font-variant-caps:normal;font-variant-numeric:normal;font-feature-settings:normal;text-align:start;letter-spacing:0px;word-spacing:0px;writing-mode:lr-tb;text-anchor:start;fill:#ffab00;fill-opacity:1;stroke:none;stroke-width:1.95713556px;stroke-linecap:butt;stroke-linejoin:miter;stroke-opacity:1"
         transform="scale(0.93588294,1.0685097)"
         aria-label="Free!!">
        <path
           id="path923"
           style="fill:#ffab00;fill-opacity:1;stroke-width:1.95713556px"
           d="m 435.71669,-964.71031 q -5.4127,-8.62363 -5.4127,-18.43989 0,-8.07318 4.954,-20.8251 5.04574,-12.752 6.51359,-18.8069 1.46785,-6.0549 1.46785,-13.1189 0,-5.688 -0.82567,-9.7245 -0.82566,-4.0366 -0.82566,-4.5871 0,-1.6513 9.35755,-5.5962 9.4493,-3.9448 10.91715,-3.9448 1.74307,0 3.30266,5.4127 1.5596,5.4127 1.5596,12.2015 0,9.2658 -3.30267,18.8069 -3.30267,9.4493 -11.28411,21.6508 -7.8897,12.20149 -10.55018,18.0729 -2.66049,5.87141 -2.66049,11.00889 0,0.36696 0.36697,2.84396 0.36696,2.477 0.36696,2.9357 0,0.82567 -3.94485,2.11004 z m 8.89885,15.77941 q 0.55044,0 0.55044,0.9174 0,0.91741 -2.84396,7.98145 -2.84396,6.97229 -5.96315,9.908 -3.11918,2.84396 -8.71537,2.84396 -5.32096,0 -10.73366,-2.56874 -5.41271,-2.66048 -5.41271,-3.66963 0,-0.27522 0.91741,-1.92656 4.77052,-6.42185 7.33926,-16.88029 0.27522,-2.20178 0.91741,-2.20178 1.10089,0 2.477,1.65133 6.14663,5.77967 12.93544,5.77967 2.93571,0 5.50445,-0.91741 2.66048,-0.9174 3.02744,-0.9174 z m -69.81471,-15.77941 q -5.41271,-8.62363 -5.41271,-18.43989 0,-8.07318 4.954,-20.8251 5.04574,-12.752 6.51359,-18.8069 1.46786,-6.0549 1.46786,-13.1189 0,-5.688 -0.82567,-9.7245 -0.82567,-4.0366 -0.82567,-4.5871 0,-1.6513 9.35756,-5.5962 9.44929,-3.9448 10.91715,-3.9448 1.74307,0 3.30266,5.4127 1.55959,5.4127 1.55959,12.2015 0,9.2658 -3.30266,18.8069 -3.30267,9.4493 -11.28411,21.6508 -7.88971,12.20149 -10.55019,18.0729 -2.66048,5.87141 -2.66048,11.00889 0,0.36696 0.36696,2.84396 0.36697,2.477 0.36697,2.9357 0,0.82567 -3.94485,2.11004 z m 8.89885,15.77941 q 0.55044,0 0.55044,0.9174 0,0.91741 -2.84396,7.98145 -2.84396,6.97229 -5.96315,9.908 -3.11918,2.84396 -8.71537,2.84396 -5.32096,0 -10.73366,-2.56874 -5.41271,-2.66048 -5.41271,-3.66963 0,-0.27522 0.91741,-1.92656 4.77052,-6.42185 7.33926,-16.88029 0.27522,-2.20178 0.91741,-2.20178 1.10088,0 2.477,1.65133 6.14662,5.77967 12.93544,5.77967 2.9357,0 5.50444,-0.91741 2.66048,-0.9174 3.02745,-0.9174 z m -220.17875,-58.4394 c -5.62676,0 -10.0606,2.6917 -13.3021,8.07385 -3.18036,5.32097 -4.77074,10.33606 -4.77074,15.04541 0,4.58705 2.63089,8.0419 7.8907,10.36601 -3.85311,5.68792 -8.16429,11.00903 -12.93481,15.96302 v 8.2566 h 2.10989 c 8.50131,-8.44015 14.73809,-16.32834 18.71353,-23.6676 5.38212,-0.91741 10.33726,-2.53993 14.86314,-4.86403 -9.23524,14.49504 -13.85307,26.05522 -13.85307,34.67885 0,4.6482 1.28374,8.56206 3.85248,11.74241 2.56874,3.11918 5.71884,4.67941 9.44963,4.67941 8.31782,0 20.15372,-7.52356 35.505,-22.56904 0.99466,5.70251 3.34377,10.50621 7.06217,14.40383 5.13748,5.32095 11.867,7.98242 20.18482,7.98242 7.46158,0 14.281,-1.80576 20.4582,-5.41423 6.17722,-3.66963 13.14787,-9.32696 20.91525,-16.97202 v -0.009 c 0.99373,5.70655 3.34384,10.51323 7.06427,14.41296 5.13748,5.32095 11.8649,7.98242 20.18272,7.98242 7.46159,0 14.281,-1.80576 20.45821,-5.41423 6.17721,-3.66963 13.14995,-9.32696 20.91733,-16.97202 v -10.54878 c -7.40042,7.46158 -12.9361,12.29161 -16.60573,14.49338 -3.66962,2.14063 -7.52084,3.21162 -11.55744,3.21162 -10.33612,0 -16.72831,-5.96332 -19.17474,-17.88963 26.91062,-7.88969 40.36547,-18.16359 40.36547,-30.82381 0,-4.77052 -1.71305,-8.62391 -5.13804,-11.5596 -3.42499,-2.9357 -7.98149,-4.4034 -13.66941,-4.4034 -10.94772,0 -20.91516,5.2588 -29.90575,15.77838 -8.16795,9.5015 -12.61317,20.04228 -13.36054,31.61347 -7.18288,7.21335 -12.58256,11.91451 -16.17999,14.07297 -3.66962,2.14063 -7.52293,3.21162 -11.55952,3.21162 -10.33613,0 -16.72832,-5.96332 -19.17474,-17.88963 26.91062,-7.88969 40.36545,-18.16359 40.36545,-30.82381 0,-4.77052 -1.71095,-8.62391 -5.13594,-11.5596 -3.42499,-2.9357 -7.98149,-4.4034 -13.66941,-4.4034 -10.94774,0 -20.91725,5.2588 -29.90783,15.77838 -8.16451,9.49747 -12.60828,20.03343 -13.35847,31.59885 -6.77017,6.52565 -11.18015,10.5743 -13.15393,12.0696 -2.0183,1.46784 -4.12998,2.20261 -6.33175,2.20261 -2.0183,0 -3.63935,-0.765 -4.86257,-2.29401 -1.16204,-1.52902 -1.74258,-3.57848 -1.74258,-6.14721 0,-2.75223 0.5213,-5.90109 1.56102,-9.4484 1.03973,-3.60847 3.33123,-10.36703 6.87853,-20.27503 l 8.53348,-23.48479 -8.34982,0.3656 c -7.58391,14.43384 -16.45158,22.20292 -26.60422,23.30381 2.75222,-7.15578 4.12795,-12.66193 4.12795,-16.51501 0,-4.8929 -2.38558,-7.339 -7.1561,-7.339 z m 85.13644,7.52365 c 4.28124,0 6.42148,2.9354 6.42148,8.80681 0,11.86514 -7.82924,19.99887 -23.48633,24.40242 0,-9.84684 1.8357,-17.82757 5.50533,-23.94362 3.66963,-6.1772 7.52293,-9.26561 11.55952,-9.26561 z m 68.62253,0 c 4.28124,0 6.42149,2.9354 6.42149,8.80681 0,11.86514 -7.82926,19.99887 -23.48635,24.40242 0,-9.84684 1.83571,-17.82757 5.50534,-23.94362 3.66963,-6.1772 7.52293,-9.26561 11.55952,-9.26561 z m -176.60142,-62.01715 q -2.20178,12.385 -6.88056,17.9812 -4.67878,5.5045 -17.70596,5.5045 l -28.623111,-0.734 q -12.66022,0 -20.54992,4.954 -7.79797,4.8623 -7.79797,13.6694 0,8.2567 9.99974,12.9355 3.39441,1.5596 3.39441,2.8439 0,2.5688 -3.76137,6.42188 -3.66963,3.76137 -8.53189,5.59619 -12.385,-3.39441 -12.385,-15.96287 0,-8.8071 6.9723,-22.0178 6.97229,-13.3024 18.71511,-21.6508 11.74281,-8.4402 26.05437,-8.4402 1.192631,0 13.027181,1.0092 11.9263,0.9174 14.4033,0.9174 7.431,0 8.99059,-3.0275 z m -3.94486,55.9619 -1.65133,16.05463 q -1.46785,2.0183 -6.05489,3.94485 -4.58703,1.83482 -16.14637,4.86226 -2.20177,24.03607 -16.054631,38.80633 -13.85285,14.67852 -34.86147,14.67852 -14.77026,0 -23.02693,-6.42185 -8.16492,-6.42186 -8.16492,-12.66023 0,-2.9357 6.33011,-8.62362 6.42185,-5.68793 9.44929,-5.68793 2.29352,0 2.84397,1.74307 0.55044,1.65134 0.55044,8.53189 0.0917,6.78882 3.48615,11.46759 3.48615,4.58704 9.63277,4.58704 18.53163,0 23.66911,-38.34763 -8.44014,1.83482 -19.17381,7.88971 l 3.94485,-12.385 q 7.79796,-6.69708 16.60508,-9.81626 1.37611,-14.77027 4.95399,-23.48567 3.66963,-8.7153 11.926301,-17.0637 10.91715,-1.3762 14.862,-1.5596 -3.11919,6.0549 -4.31182,11.7428 -1.19262,5.6879 -1.55959,20.82513 12.01804,-3.94483 22.7517,-9.08233 z"
           inkscape:connector-curvature="0" />
      </g>
    </g>
  </g>
</svg>
