<?xml version="1.0" encoding="UTF-8" standalone="no"?>
<!-- Created with Inkscape (http://www.inkscape.org/) -->

<svg
   xmlns:dc="http://purl.org/dc/elements/1.1/"
   xmlns:cc="http://creativecommons.org/ns#"
   xmlns:rdf="http://www.w3.org/1999/02/22-rdf-syntax-ns#"
   xmlns:svg="http://www.w3.org/2000/svg"
   xmlns="http://www.w3.org/2000/svg"
   xmlns:sodipodi="http://sodipodi.sourceforge.net/DTD/sodipodi-0.dtd"
   xmlns:inkscape="http://www.inkscape.org/namespaces/inkscape"
   width="12in"
   height="24in"
   viewBox="0 0 1152 2304"
   version="1.1"
   id="svg2815"
   inkscape:version="0.92.3 (2405546, 2018-03-11)"
   sodipodi:docname="12x24 Sheet Calculator - Red (LEDs) -Single w Weed Areas.svg">
  <defs
     id="defs2809" />
  <sodipodi:namedview
     id="base"
     pagecolor="#1f1f1f"
     bordercolor="#666666"
     borderopacity="1.0"
     inkscape:pageopacity="0"
     inkscape:pageshadow="2"
     inkscape:zoom="1.754102"
     inkscape:cx="317.32175"
     inkscape:cy="2144.5475"
     inkscape:document-units="in"
     inkscape:current-layer="layer1"
     showgrid="true"
     inkscape:snap-global="true"
     showguides="true"
     units="in"
     gridtolerance="10"
     inkscape:window-width="1920"
     inkscape:window-height="1017"
     inkscape:window-x="-8"
     inkscape:window-y="-8"
     inkscape:window-maximized="1"
     inkscape:guide-bbox="true"
     inkscape:snap-smooth-nodes="true"
     inkscape:object-nodes="false"
     inkscape:snap-nodes="false"
     inkscape:snap-others="false"
     inkscape:snap-grids="false">
    <inkscape:grid
       type="xygrid"
       id="grid3368" />
    <sodipodi:guide
       position="-820.06909,1154.5923"
       orientation="0,1"
       id="guide9322"
       inkscape:locked="false" />
  </sodipodi:namedview>
  <metadata
     id="metadata2812">
    <rdf:RDF>
      <cc:Work
         rdf:about="">
        <dc:format>image/svg+xml</dc:format>
        <dc:type
           rdf:resource="http://purl.org/dc/dcmitype/StillImage" />
        <dc:title></dc:title>
      </cc:Work>
    </rdf:RDF>
  </metadata>
  <g
     inkscape:label="Layer 1"
     inkscape:groupmode="layer"
     id="layer1"
     transform="translate(0,1159.8)">
    <g
       id="g1782"
       transform="matrix(0.9983361,0,0,0.92000264,0.07552668,-63.677388)">
      <path
         id="path1475"
         style="fill:none;fill-rule:evenodd;stroke:#000000;stroke-width:1px;stroke-linecap:butt;stroke-linejoin:miter;stroke-opacity:1"
         d="m 64.190981,-1071.9804 5.039788,46.1539 m 385.837711,140.43508 -50.27123,-96.3386 m 53.42413,150.11305 5.25484,-46.06737 m -12.08612,-7.88225 h 3.50322 m -21.71997,0 h 3.1529 m -22.59578,-1.22612 4.37903,0.17516 m -60.08025,8.23257 29.60222,4.20387 v 0 l 12.78676,-8.23258 m -9.4587,23.99707 9.63386,8.93322 m 17.34094,4.90451 h -3.85354 m 22.42062,-1.40129 h -3.67838 m 25.74868,14.88869 -9.28354,-9.10838 m 0.70064,31.00352 8.40773,-8.93322 m -25.74867,13.66256 h 4.0287 m -23.12126,0.52549 h 4.20386 m -22.24545,-0.52549 h 3.50322 m -53.24897,-4.55418 35.20738,2.80257 m -52.72349,2.2771 h 3.85355 m 22.07029,-14.01289 -8.93321,9.10838 m 12.61159,-29.07674 v 4.72935 m 0.35033,-24.87288 0.35032,4.55419 m -0.52548,-25.04803 v 4.90451 m 0.35032,-24.52255 0.17516,3.85354 m -13.4874,-27.67545 8.93321,9.10838 M 328.0767,-926.9046 h 3.50322 m -22.07029,-0.17516 3.85354,0.17516 m -165.52722,-49.57059 31.17867,41.16286 m 97.2144,-14.71353 4.72935,15.23901 m 9.80902,6.48096 2.97774,0.17516 0.52548,0.52549 m -8.05741,8.05741 2.80258,5.78031 m -28.72642,-12.96192 15.58934,0.35032 m -33.80609,-0.35032 h 3.32806 m -21.71997,0.17516 h 3.32806 m -22.24546,0.35032 h 3.67838 m -22.24545,-1.57645 h 3.32806 m -10.68483,8.40774 -0.35032,4.55418 m 0.35032,16.11482 0.17516,4.20387 m -0.17516,15.93966 v 4.20386 m -0.17516,57.628 -0.17516,3.67838 m 0,-24.69771 0.35032,4.37903 m -0.35032,-24.34739 0.17516,3.67838 m 63.58347,-11.73579 h 43.08963 m -61.83186,0.8758 h 3.67838 m -22.42062,0 h 3.67838 m -22.77094,-0.52548 h 4.02871 m 102.64439,-32.93028 v 4.0287 m 0.17516,16.28998 0.17516,3.50322 m 0,16.28998 0.35033,4.20387 m 0.17516,16.81546 v 4.02871 m -3.67839,15.41417 -2.62741,5.60516 m 22.59578,8.05741 h 3.50322 m -22.24546,0.35032 h 3.67838 m -33.63092,-0.17516 14.88869,0.17516 m -33.45577,-0.35032 h 3.67839 m -22.24546,0.35032 h 3.50322 m -22.77094,0.52548 h 4.0287 m -22.42061,-0.70064 h 3.67838 m -33.80609,0 15.23901,0.17516 m -34.33157,-0.17516 h 4.20387 m -22.59578,0 h 4.20387 m -23.121267,0 h 4.729347 m -22.946099,0 h 3.503221 m -10.859987,-12.96192 v 3.85354 m -0.525483,-24.17223 v 4.02871 m 0,-24.17223 0.175161,4.0287 m 0,-24.69771 v 3.85355 m 0.700645,-24.17223 -0.175162,4.0287 m -0.875805,-24.52255 v 3.67838 m -7.882248,-54.47509 7.181604,34.68189 v 0 m 159.922063,-160.97299 122.78792,1.2261 m -227.00876,-0.8758 53.94961,-0.3503 m 49.39543,113.6795 42.21382,-7.88225 m 8.58289,31.52899 9.4587,-11.03514 m -17.51611,0 0.17516,4.0287 m -0.8758,-25.04803 0.17516,4.72935 m 19.44288,-4.02871 0.17516,4.20387 m 7.35676,8.75805 53.94962,-5.78031 m 50.09606,0.8758 53.94962,0.70065 m -54.4751,-113.67957 55.52606,-0.1751 m 49.57059,113.50434 54.82542,-1.05096 m -12.26128,-28.20098 0.17516,4.5542 m -0.52548,-24.6977 0.17516,4.379 m -1.22613,-24.8728 v 4.5542 m 0.70065,-24.3474 0.52548,3.5032 m 10.68483,-32.2296 -5.95548,13.8377 m 69.88927,55.3509 v 3.6784 m 0,-23.8219 0.52548,3.8535 m 0.35032,-24.3474 -0.35032,3.6784 m -13.83772,-27.15 9.80902,8.4078 m -26.27416,-12.962 h 3.67838 m -22.42062,-0.5254 h 3.85354 m -71.11539,0.8758 7.1816,12.7867 m 37.65963,95.46281 8.93322,8.40773 m 13.31224,5.42999 h 4.20386 m 33.45577,-2.45225 6.83128,-12.08612 m -25.74868,15.41418 h 3.85355 0.17516 l -0.52548,-0.35033 m -82.15055,-14.71353 -8.23257,9.98419 m 12.26127,-29.25187 0.17517,4.0287 m -117.00761,25.048 8.93322,-9.45869 m -26.97481,13.83772 h 3.67839 m -22.59578,-0.35032 h 4.0287 m -25.92384,-13.66256 8.40773,8.23257 m 137.32629,5.60515 h 3.67838 m -22.77094,0.35032 h 4.02871 m -26.27416,-14.18804 8.40773,10.15934 m -12.78676,-29.95259 0.17516,4.3791 m -0.17516,-24.6977 v 4.2038 m 1.05097,-24.5225 -0.17517,4.2038 m 0,-24.5225 -0.17516,4.2039 m 74.96894,36.6086 -0.17516,4.2039 m -0.17516,-24.5226 0.17516,4.0287 m 0,-24.3474 0.52549,4.2039 m -11.38547,-31.7042 52.198,-0.7006 m -111.92793,13.1371 9.10837,-8.4077 m 31.17868,-4.9045 h 4.20386 m -22.77094,-0.3504 4.37903,0.1752 h -0.17516 m -135.04919,89.6825 v 4.379 m 1.05096,-24.8729 -0.52548,4.2039 m -1.22613,-24.1722 -0.35032,4.0287 m 0.70064,-25.0481 v 4.3791 m 75.14411,56.577 -0.17516,4.5542 m 1.05096,-24.3474 0.17516,4.2038 m -0.70064,-24.3473 v 4.379 m 0.17516,-25.0481 0.35032,4.3791 m -13.13708,-28.0258 8.58289,8.4077 -0.17516,-0.3503 m -25.57351,-13.3122 h 3.50322 m -22.59578,1.2261 h 4.20386 m -25.74867,13.1371 8.75805,-8.5829 m -73.56765,97.91503 h 4.37902 m -53.94961,14.01289 8.58289,-7.88225 m -25.74867,14.01288 h 3.67838 v 0 0.52549 l 0.17516,-0.70065 m -22.9461,0.17516 h 4.20386 m -26.79964,-14.18804 9.10837,9.10837 m -12.96192,-28.55128 0.35033,3.6784 m 0.17516,-24.3474 v 4.379 m -0.35032,-24.5225 0.35032,4.379 -0.17516,-0.5255 m -0.35033,-24.3474 0.17517,4.0288 m 75.1441,56.9273 0.52548,4.5542 h -0.52548 m 0,-24.8729 -0.35032,3.8536 m 0.35032,-23.9971 v 4.0287 m 0.8758,-24.3474 v 3.5032 m -13.13708,-27.8506 8.5829,9.4587 m -26.44933,-14.3632 h 3.85355 m -22.42062,0.1752 h 3.85354 m -26.27416,13.6625 8.75805,-8.9332 m -35.20737,119.63504 35.03221,-5.78032 m -53.59929,5.25483 h 3.85355 m -22.24546,-0.17516 h 3.67838 m -22.420616,-0.17516 3.328061,-0.52548 m -21.895135,-0.17516 h 3.328061 m -11.910954,-12.26128 0.350322,4.02871 m 0,-24.52252 0.525484,4.0287 m 3.678382,-18.7423 9.108376,-8.4077 m 13.312242,-5.2548 h 3.853544 m 14.888693,-0.1752 3.50322,0.1752 m 23.47158,-12.7868 -9.28353,9.1084 m 12.43643,-29.0768 v 3.8536 m -12.61159,-27.8506 8.23257,9.4587 m -65.510246,0.1751 8.057409,-8.5829 m 31.704157,-5.6051 h 3.67838 m -22.595778,0.8758 4.554188,-0.1752 m 348.32426,286.89301 c -2.01278,0 -3.78855,0.84048 -5.32774,2.52125 -1.42078,1.55148 -2.13181,3.42655 -2.13181,5.62448 0,2.19793 0.71103,4.13705 2.13181,5.81783 1.53919,1.55148 3.31496,2.3279 5.32774,2.3279 2.01278,0 3.72989,-0.77642 5.15068,-2.3279 1.53918,-1.68078 2.30886,-3.6199 2.30886,-5.81783 0,-2.19793 -0.76968,-4.073 -2.30886,-5.62448 -1.42079,-1.68077 -3.1379,-2.52125 -5.15068,-2.52125 z m -18.64796,0 c -2.01278,0 -3.78854,0.84048 -5.32773,2.52125 -1.42078,1.55148 -2.13181,3.42655 -2.13181,5.62448 0,2.19793 0.71103,4.13705 2.13181,5.81783 1.53919,1.55148 3.31495,2.3279 5.32773,2.3279 2.01278,0 3.72989,-0.77642 5.15068,-2.3279 1.53918,-1.68078 2.30887,-3.6199 2.30887,-5.81783 0,-2.19793 -0.76969,-4.073 -2.30887,-5.62448 -1.42079,-1.68077 -3.1379,-2.52125 -5.15068,-2.52125 z m -18.82501,0 c -2.01278,0 -3.78855,0.84048 -5.32773,2.52125 -1.42079,1.55148 -2.13181,3.42655 -2.13181,5.62448 0,2.19793 0.71102,4.13705 2.13181,5.81783 1.53918,1.55148 3.31495,2.3279 5.32773,2.3279 2.01278,0 3.7299,-0.77642 5.15068,-2.3279 1.53919,-1.68078 2.30886,-3.6199 2.30886,-5.81783 0,-2.19793 -0.76967,-4.073 -2.30886,-5.62448 -1.42078,-1.68077 -3.1379,-2.52125 -5.15068,-2.52125 z m -18.64796,0 c -2.01278,0 -3.78854,0.84048 -5.32772,2.52125 -1.42079,1.55148 -2.13182,3.42655 -2.13182,5.62448 0,2.19793 0.71103,4.13705 2.13182,5.81783 1.53918,1.55148 3.31494,2.3279 5.32772,2.3279 2.01278,0 3.7299,-0.77642 5.15068,-2.3279 1.53919,-1.68078 2.30887,-3.6199 2.30887,-5.81783 0,-2.19793 -0.76968,-4.073 -2.30887,-5.62448 -1.42078,-1.68077 -3.1379,-2.52125 -5.15068,-2.52125 z m -48.63427,0 c -2.01278,0 -3.78855,0.84048 -5.32773,2.52125 -1.42079,1.55148 -2.13182,3.42655 -2.13182,5.62448 1e-5,2.19793 0.71103,4.13705 2.13182,5.81783 1.53918,1.55148 3.31495,2.3279 5.32773,2.3279 2.01278,0 3.7299,-0.77642 5.15068,-2.3279 1.53919,-1.68078 2.30886,-3.6199 2.30886,-5.81783 0,-2.19793 -0.76967,-4.073 -2.30886,-5.62448 -1.42078,-1.68077 -3.1379,-2.52125 -5.15068,-2.52125 z m -18.64796,0 c -2.13118,0 -3.90694,0.84048 -5.32772,2.52125 -1.42079,1.55148 -2.13182,3.42655 -2.13182,5.62448 0,2.19793 0.71103,4.13705 2.13182,5.81783 1.42078,1.55148 3.19654,2.3279 5.32772,2.3279 2.01278,0 3.7299,-0.77642 5.15068,-2.3279 1.53919,-1.68078 2.30887,-3.6199 2.30887,-5.81783 -10e-6,-2.19793 -0.76968,-4.073 -2.30887,-5.62448 -1.42078,-1.68077 -3.1379,-2.52125 -5.15068,-2.52125 z m -18.825,0 c -2.01278,0 -3.78855,0.84048 -5.32773,2.52125 -1.42079,1.55148 -2.13181,3.42655 -2.13181,5.62448 0,2.19793 0.71102,4.13705 2.13181,5.81783 1.53918,1.55148 3.31495,2.3279 5.32773,2.3279 2.13118,0 3.90694,-0.77642 5.32772,-2.3279 1.4208,-1.68078 2.13182,-3.6199 2.13182,-5.81783 0,-2.19793 -0.71102,-4.073 -2.13182,-5.62448 -1.42078,-1.68077 -3.19654,-2.52125 -5.32772,-2.52125 z m -18.64796,0 c -2.01278,0 -3.78854,0.84048 -5.32773,2.52125 -1.42078,1.55148 -2.13181,3.42655 -2.13181,5.62448 0,2.19793 0.71103,4.13705 2.13181,5.81783 1.53919,1.55148 3.31495,2.3279 5.32773,2.3279 2.01278,0 3.72989,-0.77642 5.15068,-2.3279 1.53918,-1.68078 2.30887,-3.6199 2.30887,-5.81783 0,-2.19793 -0.76969,-4.073 -2.30887,-5.62448 -1.42079,-1.68077 -3.1379,-2.52125 -5.15068,-2.52125 z m -29.98632,0 c -2.01278,0 -3.78854,0.84048 -5.32773,2.52125 -1.42078,1.55148 -2.13181,3.42655 -2.13181,5.62448 0,2.19793 0.71103,4.13705 2.13181,5.81783 1.53919,1.55148 3.31495,2.3279 5.32773,2.3279 2.01278,0 3.72989,-0.77642 5.15068,-2.3279 1.53918,-1.68078 2.30887,-3.6199 2.30887,-5.81783 0,-2.19793 -0.76969,-4.073 -2.30887,-5.62448 -1.42079,-1.68077 -3.1379,-2.52125 -5.15068,-2.52125 z m -18.64795,0 c -2.01278,0 -3.78855,0.84048 -5.32774,2.52125 -1.42078,1.55148 -2.13181,3.42655 -2.13181,5.62448 0,2.19793 0.71103,4.13705 2.13181,5.81783 1.53919,1.55148 3.31496,2.3279 5.32774,2.3279 2.01278,0 3.72989,-0.77642 5.15068,-2.3279 1.53918,-1.68078 2.30886,-3.6199 2.30886,-5.81783 0,-2.19793 -0.76968,-4.073 -2.30886,-5.62448 -1.42079,-1.68077 -3.1379,-2.52125 -5.15068,-2.52125 z m -18.64796,0 c -2.01278,0 -3.78854,0.84048 -5.32773,2.52125 -1.42078,1.55148 -2.13181,3.42655 -2.13181,5.62448 0,2.19793 0.71103,4.13705 2.13181,5.81783 1.53919,1.55148 3.31495,2.3279 5.32773,2.3279 2.01278,0 3.72989,-0.77642 5.15068,-2.3279 1.53918,-1.68078 2.30887,-3.6199 2.30887,-5.81783 0,-2.19793 -0.76969,-4.073 -2.30887,-5.62448 -1.42079,-1.68077 -3.1379,-2.52125 -5.15068,-2.52125 z m -18.82501,0 c -2.01277,0 -3.78854,0.84048 -5.32773,2.52125 -1.42078,1.55148 -2.13181,3.42655 -2.13181,5.62448 0,2.19793 0.71103,4.13705 2.13181,5.81783 1.53919,1.55148 3.31496,2.3279 5.32773,2.3279 2.01278,0 3.7299,-0.77642 5.15069,-2.3279 1.53918,-1.68078 2.30886,-3.6199 2.30886,-5.81783 0,-2.19793 -0.76968,-4.073 -2.30886,-5.62448 -1.42079,-1.68077 -3.13791,-2.52125 -5.15069,-2.52125 z m -18.64796,0 c -2.01277,0 -3.78854,0.84048 -5.32772,2.52125 -1.42079,1.55148 -2.13182,3.42655 -2.13182,5.62448 0,2.19793 0.71103,4.13705 2.13182,5.81783 1.53918,1.55148 3.31495,2.3279 5.32772,2.3279 2.01278,0 3.7299,-0.77642 5.15069,-2.3279 1.53918,-1.68078 2.30887,-3.6199 2.30887,-5.81783 0,-2.19793 -0.76969,-4.073 -2.30887,-5.62448 -1.42079,-1.68077 -3.13791,-2.52125 -5.15069,-2.52125 z m -29.98632,0 c -2.01278,0 -3.78854,0.84048 -5.32772,2.52125 -1.42079,1.55148 -2.13182,3.42655 -2.13182,5.62448 0,2.19793 0.71103,4.13705 2.13182,5.81783 1.53918,1.55148 3.31494,2.3279 5.32772,2.3279 2.01278,0 3.7299,-0.77642 5.15069,-2.3279 1.53918,-1.68078 2.30886,-3.6199 2.30886,-5.81783 0,-2.19793 -0.76968,-4.073 -2.30886,-5.62448 -1.42079,-1.68077 -3.13791,-2.52125 -5.15069,-2.52125 z m -18.64795,0 c -2.01278,0 -3.78855,0.84048 -5.32773,2.52125 -1.42079,1.55148 -2.13182,3.42655 -2.13182,5.62448 1e-5,2.19793 0.71103,4.13705 2.13182,5.81783 1.53918,1.55148 3.31495,2.3279 5.32773,2.3279 2.01278,0 3.7299,-0.77642 5.15068,-2.3279 1.53919,-1.68078 2.30886,-3.6199 2.30886,-5.81783 0,-2.19793 -0.76967,-4.073 -2.30886,-5.62448 -1.42078,-1.68077 -3.1379,-2.52125 -5.15068,-2.52125 z m -18.64796,0 c -2.01278,0 -3.78854,0.84048 -5.32772,2.52125 -1.42079,1.55148 -2.13182,3.42655 -2.13182,5.62448 0,2.19793 0.71103,4.13705 2.13182,5.81783 1.53918,1.55148 3.31494,2.3279 5.32772,2.3279 2.01278,0 3.7299,-0.77642 5.15068,-2.3279 1.53919,-1.68078 2.30886,-3.6199 2.30887,-5.81783 -1e-5,-2.19793 -0.76968,-4.073 -2.30887,-5.62448 -1.42078,-1.68077 -3.1379,-2.52125 -5.15068,-2.52125 z m -18.825,0 c -2.012779,0 -3.788549,0.84048 -5.327733,2.52125 -1.420786,1.55148 -2.131808,3.42655 -2.131808,5.62448 0,2.19793 0.711022,4.13705 2.131808,5.81783 1.539184,1.55148 3.314954,2.3279 5.327733,2.3279 2.01278,0 3.729896,-0.77642 5.150681,-2.3279 1.539185,-1.68078 2.30886,-3.6199 2.30886,-5.81783 0,-2.19793 -0.769675,-4.073 -2.30886,-5.62448 -1.420785,-1.68077 -3.137901,-2.52125 -5.150681,-2.52125 z m -18.64796,0 c -2.012779,0 -3.78854,0.84048 -5.327724,2.52125 -1.420786,1.55148 -2.131817,3.42655 -2.131817,5.62448 0,2.19793 0.711031,4.13705 2.131817,5.81783 1.539184,1.55148 3.314945,2.3279 5.327724,2.3279 2.01278,0 3.729896,-0.77642 5.150681,-2.3279 1.539185,-1.68078 2.30887,-3.6199 2.30887,-5.81783 0,-2.19793 -0.769685,-4.073 -2.30887,-5.62448 -1.420785,-1.68077 -3.137901,-2.52125 -5.150681,-2.52125 z m 389.03446,-20.36336 c -2.01278,0 -3.78854,0.84049 -5.32773,2.52126 -1.42078,1.55148 -2.13181,3.42654 -2.13181,5.62449 0,2.19792 0.71103,4.13704 2.13181,5.81781 1.53919,1.55148 3.31495,2.32792 5.32773,2.32792 2.01278,0 3.72989,-0.77644 5.15068,-2.32792 1.53918,-1.68077 2.30887,-3.61989 2.30887,-5.81781 0,-2.19795 -0.76969,-4.07301 -2.30887,-5.62449 -1.42079,-1.68077 -3.1379,-2.52126 -5.15068,-2.52126 z m -104.7552,0 c -2.01278,0 -3.78854,0.77644 -5.32772,2.32792 -1.42079,1.55148 -2.13182,3.49059 -2.13182,5.81783 0,2.19792 0.71103,4.13704 2.13182,5.81781 1.53918,1.55148 3.31494,2.32792 5.32772,2.32792 2.01278,0 3.7299,-0.77644 5.15068,-2.32792 1.53919,-1.68077 2.30887,-3.61989 2.30887,-5.81781 0,-2.32724 -0.76968,-4.26635 -2.30887,-5.81783 -1.42078,-1.55148 -3.1379,-2.32792 -5.15068,-2.32792 z m -65.35637,0 c -2.01278,0 -3.78854,0.77644 -5.32772,2.32792 -1.42079,1.55148 -2.13182,3.49059 -2.13182,5.81783 0,2.19792 0.71103,4.13704 2.13182,5.81781 1.53918,1.55148 3.31494,2.32792 5.32772,2.32792 2.01278,0 3.7299,-0.77644 5.15068,-2.32792 1.53919,-1.68077 2.30887,-3.61989 2.30887,-5.81781 0,-2.32724 -0.76968,-4.26635 -2.30887,-5.81783 -1.42078,-1.55148 -3.1379,-2.32792 -5.15068,-2.32792 z m -114.1677,0 c -2.01277,0 -3.78854,0.84049 -5.32772,2.52126 -1.42079,1.55148 -2.13182,3.42654 -2.13182,5.62449 0,2.19792 0.71103,4.13704 2.13182,5.81781 1.53918,1.55148 3.31495,2.32792 5.32772,2.32792 2.01278,0 3.7299,-0.77644 5.15069,-2.32792 1.53918,-1.68077 2.30887,-3.61989 2.30887,-5.81781 0,-2.19795 -0.76969,-4.07301 -2.30887,-5.62449 -1.42079,-1.68077 -3.13791,-2.52126 -5.15069,-2.52126 z m -104.75519,0 c -2.012779,0 -3.78854,0.84049 -5.327724,2.52126 -1.420786,1.55148 -2.131817,3.42654 -2.131817,5.62449 0,2.19792 0.711031,4.13704 2.131817,5.81781 1.539184,1.55148 3.314945,2.32792 5.327724,2.32792 2.01278,0 3.729896,-0.77644 5.150681,-2.32792 1.539185,-1.68077 2.30887,-3.61989 2.30887,-5.81781 0,-2.19795 -0.769685,-4.07301 -2.30887,-5.62449 -1.420785,-1.68077 -3.137901,-2.52126 -5.150681,-2.52126 z m 370.38651,-20.55668 c -2.01278,0 -3.78855,0.84047 -5.32774,2.52125 -1.42078,1.55148 -2.13181,3.42655 -2.13181,5.62448 0,2.19793 0.71103,4.13705 2.13181,5.81782 1.53919,1.55149 3.31496,2.32792 5.32774,2.32792 2.01278,0 3.72989,-0.77643 5.15068,-2.32792 1.53918,-1.68077 2.30886,-3.61989 2.30886,-5.81782 0,-2.19793 -0.76968,-4.073 -2.30886,-5.62448 -1.42079,-1.68078 -3.1379,-2.52125 -5.15068,-2.52125 z m -18.64796,0 c -2.01278,0 -3.78854,0.84047 -5.32773,2.52125 -1.42078,1.55148 -2.13181,3.42655 -2.13181,5.62448 0,2.19793 0.71103,4.13705 2.13181,5.81782 1.53919,1.55149 3.31495,2.32792 5.32773,2.32792 2.01278,0 3.72989,-0.77643 5.15068,-2.32792 1.53918,-1.68077 2.30887,-3.61989 2.30887,-5.81782 0,-2.19793 -0.76969,-4.073 -2.30887,-5.62448 -1.42079,-1.68078 -3.1379,-2.52125 -5.15068,-2.52125 z m -18.82501,0 c -2.01278,0 -3.78855,0.84047 -5.32773,2.52125 -1.42079,1.55148 -2.13181,3.42655 -2.13181,5.62448 0,2.19793 0.71102,4.13705 2.13181,5.81782 1.53918,1.55149 3.31495,2.32792 5.32773,2.32792 2.01278,0 3.7299,-0.77643 5.15068,-2.32792 1.53919,-1.68077 2.30886,-3.61989 2.30886,-5.81782 0,-2.19793 -0.76967,-4.073 -2.30886,-5.62448 -1.42078,-1.68078 -3.1379,-2.52125 -5.15068,-2.52125 z m -48.63428,0 c -2.01278,0 -3.78854,0.84047 -5.32772,2.52125 -1.42079,1.55148 -2.13182,3.42655 -2.13182,5.62448 0,2.32722 0.71103,4.26634 2.13182,5.81782 1.53918,1.55149 3.31494,2.32792 5.32772,2.32792 2.01278,0 3.7299,-0.77643 5.15068,-2.32792 1.53919,-1.55148 2.30887,-3.4906 2.30887,-5.81782 0,-2.19793 -0.76968,-4.073 -2.30887,-5.62448 -1.42078,-1.68078 -3.1379,-2.52125 -5.15068,-2.52125 z m -65.35637,0 c -2.01278,0 -3.78854,0.84047 -5.32772,2.52125 -1.42079,1.55148 -2.13182,3.42655 -2.13182,5.62448 0,2.32722 0.71103,4.26634 2.13182,5.81782 1.53918,1.55149 3.31494,2.32792 5.32772,2.32792 2.01278,0 3.7299,-0.77643 5.15068,-2.32792 1.53919,-1.55148 2.30887,-3.4906 2.30887,-5.81782 0,-2.19793 -0.76968,-4.073 -2.30887,-5.62448 -1.42078,-1.68078 -3.1379,-2.52125 -5.15068,-2.52125 z m -114.1677,0 c -2.01277,0 -3.78854,0.84047 -5.32772,2.52125 -1.42079,1.55148 -2.13182,3.42655 -2.13182,5.62448 0,2.19793 0.71103,4.13705 2.13182,5.81782 1.53918,1.55149 3.31495,2.32792 5.32772,2.32792 2.01278,0 3.7299,-0.77643 5.15069,-2.32792 1.53918,-1.68077 2.30887,-3.61989 2.30887,-5.81782 0,-2.19793 -0.76969,-4.073 -2.30887,-5.62448 -1.42079,-1.68078 -3.13791,-2.52125 -5.15069,-2.52125 z m -104.75519,0 c -2.012779,0 -3.78854,0.84047 -5.327724,2.52125 -1.420786,1.55148 -2.131817,3.42655 -2.131817,5.62448 0,2.19793 0.711031,4.13705 2.131817,5.81782 1.539184,1.55149 3.314945,2.32792 5.327724,2.32792 2.01278,0 3.729896,-0.77643 5.150681,-2.32792 1.539185,-1.68077 2.30887,-3.61989 2.30887,-5.81782 0,-2.19793 -0.769685,-4.073 -2.30887,-5.62448 -1.420785,-1.68078 -3.137901,-2.52125 -5.150681,-2.52125 z m 314.26558,-20.36336 c -2.01278,0 -3.78854,0.84049 -5.32772,2.52126 -1.42079,1.55148 -2.13182,3.42655 -2.13182,5.62448 0,2.19794 0.71103,4.13705 2.13182,5.81782 1.53918,1.55148 3.31494,2.32792 5.32772,2.32792 2.01278,0 3.7299,-0.77644 5.15068,-2.32792 1.53919,-1.68077 2.30887,-3.61988 2.30887,-5.81782 0,-2.19793 -0.76968,-4.073 -2.30887,-5.62448 -1.42078,-1.68077 -3.1379,-2.52126 -5.15068,-2.52126 z m -29.98632,0 c -2.01278,0 -3.78854,0.84049 -5.32772,2.52126 -1.42079,1.55148 -2.13182,3.42655 -2.13182,5.62448 0,2.19794 0.71103,4.13705 2.13182,5.81782 1.53918,1.55148 3.31494,2.32792 5.32772,2.32792 2.01278,0 3.7299,-0.77644 5.15068,-2.32792 1.53919,-1.68077 2.30887,-3.61988 2.30887,-5.81782 0,-2.19793 -0.76968,-4.073 -2.30887,-5.62448 -1.42078,-1.68077 -3.1379,-2.52126 -5.15068,-2.52126 z m -65.35637,0 c -2.01278,0 -3.78854,0.84049 -5.32772,2.52126 -1.42079,1.55148 -2.13182,3.42655 -2.13182,5.62448 0,2.19794 0.71103,4.13705 2.13182,5.81782 1.53918,1.55148 3.31494,2.32792 5.32772,2.32792 2.01278,0 3.7299,-0.77644 5.15068,-2.32792 1.53919,-1.68077 2.30887,-3.61988 2.30887,-5.81782 0,-2.19793 -0.76968,-4.073 -2.30887,-5.62448 -1.42078,-1.68077 -3.1379,-2.52126 -5.15068,-2.52126 z m -58.04677,0 c -2.01278,0 -3.78855,0.84049 -5.32774,2.52126 -1.42078,1.55148 -2.13181,3.42655 -2.13181,5.62448 1e-5,2.19794 0.71103,4.13705 2.13181,5.81782 1.53919,1.55148 3.31496,2.32792 5.32774,2.32792 2.01278,0 3.72989,-0.77644 5.15068,-2.32792 1.53918,-1.68077 2.30886,-3.61988 2.30886,-5.81782 0,-2.19793 -0.76968,-4.073 -2.30886,-5.62448 -1.42079,-1.68077 -3.1379,-2.52126 -5.15068,-2.52126 z m -18.64796,0 c -2.01278,0 -3.78854,0.84049 -5.32773,2.52126 -1.42078,1.55148 -2.13181,3.42655 -2.13181,5.62448 0,2.19794 0.71103,4.13705 2.13181,5.81782 1.53919,1.55148 3.31495,2.32792 5.32773,2.32792 2.01278,0 3.72989,-0.77644 5.15068,-2.32792 1.53918,-1.68077 2.30887,-3.61988 2.30887,-5.81782 0,-2.19793 -0.76969,-4.073 -2.30887,-5.62448 -1.42079,-1.68077 -3.1379,-2.52126 -5.15068,-2.52126 z m -18.82501,0 c -2.01277,0 -3.78854,0.84049 -5.32773,2.52126 -1.42078,1.55148 -2.13181,3.42655 -2.13181,5.62448 0,2.19794 0.71103,4.13705 2.13181,5.81782 1.53919,1.55148 3.31496,2.32792 5.32773,2.32792 2.01278,0 3.7299,-0.77644 5.15069,-2.32792 1.53918,-1.68077 2.30886,-3.61988 2.30886,-5.81782 0,-2.19793 -0.76968,-4.073 -2.30886,-5.62448 -1.42079,-1.68077 -3.13791,-2.52126 -5.15069,-2.52126 z m -18.64796,0 c -2.01277,0 -3.78854,0.84049 -5.32772,2.52126 -1.42079,1.55148 -2.13182,3.42655 -2.13182,5.62448 0,2.19794 0.71103,4.13705 2.13182,5.81782 1.53918,1.55148 3.31495,2.32792 5.32772,2.32792 2.01278,0 3.7299,-0.77644 5.15069,-2.32792 1.53918,-1.68077 2.30887,-3.61988 2.30887,-5.81782 0,-2.19793 -0.76969,-4.073 -2.30887,-5.62448 -1.42079,-1.68077 -3.13791,-2.52126 -5.15069,-2.52126 z m -104.75519,0 c -2.012779,0 -3.78854,0.84049 -5.327724,2.52126 -1.420786,1.55148 -2.131817,3.42655 -2.131817,5.62448 0,2.19794 0.711031,4.13705 2.131817,5.81782 1.539184,1.55148 3.314945,2.32792 5.327724,2.32792 2.01278,0 3.729896,-0.77644 5.150681,-2.32792 1.539185,-1.68077 2.30887,-3.61988 2.30887,-5.81782 0,-2.19793 -0.769685,-4.073 -2.30887,-5.62448 -1.420785,-1.68077 -3.137901,-2.52126 -5.150681,-2.52126 z m 389.03446,-20.36334 c -2.01278,0 -3.78854,0.84047 -5.32773,2.52124 -1.42078,1.55149 -2.13181,3.42656 -2.13181,5.62449 0,2.19793 0.71103,4.13705 2.13181,5.81782 1.53919,1.55148 3.31495,2.32791 5.32773,2.32791 2.01278,0 3.72989,-0.77643 5.15068,-2.32791 1.53918,-1.68077 2.30887,-3.61989 2.30887,-5.81782 0,-2.19793 -0.76969,-4.073 -2.30887,-5.62449 -1.42079,-1.68077 -3.1379,-2.52124 -5.15068,-2.52124 z m -18.64795,0 c -2.01278,0 -3.78855,0.84047 -5.32774,2.52124 -1.42078,1.55149 -2.13181,3.42656 -2.13181,5.62449 0,2.19793 0.71103,4.13705 2.13181,5.81782 1.53919,1.55148 3.31496,2.32791 5.32774,2.32791 2.01278,0 3.72989,-0.77643 5.15068,-2.32791 1.53918,-1.68077 2.30886,-3.61989 2.30886,-5.81782 0,-2.19793 -0.76968,-4.073 -2.30886,-5.62449 -1.42079,-1.68077 -3.1379,-2.52124 -5.15068,-2.52124 z m -18.64796,0 c -2.01278,0 -3.78854,0.84047 -5.32773,2.52124 -1.42078,1.55149 -2.13181,3.42656 -2.13181,5.62449 0,2.19793 0.71103,4.13705 2.13181,5.81782 1.53919,1.55148 3.31495,2.32791 5.32773,2.32791 2.01278,0 3.72989,-0.77643 5.15068,-2.32791 1.53918,-1.68077 2.30887,-3.61989 2.30887,-5.81782 0,-2.19793 -0.76969,-4.073 -2.30887,-5.62449 -1.42079,-1.68077 -3.1379,-2.52124 -5.15068,-2.52124 z m -18.82501,0 c -2.01278,0 -3.78855,0.84047 -5.32773,2.52124 -1.42079,1.55149 -2.13181,3.42656 -2.13181,5.62449 0,2.19793 0.71102,4.13705 2.13181,5.81782 1.53918,1.55148 3.31495,2.32791 5.32773,2.32791 2.01278,0 3.7299,-0.77643 5.15068,-2.32791 1.53919,-1.68077 2.30886,-3.61989 2.30886,-5.81782 0,-2.19793 -0.76967,-4.073 -2.30886,-5.62449 -1.42078,-1.68077 -3.1379,-2.52124 -5.15068,-2.52124 z m -48.63428,0 c -2.01278,0 -3.78854,0.84047 -5.32772,2.52124 -1.42079,1.55149 -2.13182,3.42656 -2.13182,5.62449 0,2.19793 0.71103,4.13705 2.13182,5.81782 1.53918,1.55148 3.31494,2.32791 5.32772,2.32791 2.01278,0 3.7299,-0.77643 5.15068,-2.32791 1.53919,-1.68077 2.30887,-3.61989 2.30887,-5.81782 0,-2.19793 -0.76968,-4.073 -2.30887,-5.62449 -1.42078,-1.68077 -3.1379,-2.52124 -5.15068,-2.52124 z m -65.35637,0 c -2.01278,0 -3.78854,0.84047 -5.32772,2.52124 -1.42079,1.55149 -2.13182,3.42656 -2.13182,5.62449 0,2.19793 0.71103,4.13705 2.13182,5.81782 1.53918,1.55148 3.31494,2.32791 5.32772,2.32791 2.01278,0 3.7299,-0.77643 5.15068,-2.32791 1.53919,-1.68077 2.30887,-3.61989 2.30887,-5.81782 0,-2.19793 -0.76968,-4.073 -2.30887,-5.62449 -1.42078,-1.68077 -3.1379,-2.52124 -5.15068,-2.52124 z m -114.1677,0 c -2.01277,0 -3.78854,0.84047 -5.32772,2.52124 -1.42079,1.55149 -2.13182,3.42656 -2.13182,5.62449 0,2.19793 0.71103,4.13705 2.13182,5.81782 1.53918,1.55148 3.31495,2.32791 5.32772,2.32791 2.01278,0 3.7299,-0.77643 5.15069,-2.32791 1.53918,-1.68077 2.30887,-3.61989 2.30887,-5.81782 0,-2.19793 -0.76969,-4.073 -2.30887,-5.62449 -1.42079,-1.68077 -3.13791,-2.52124 -5.15069,-2.52124 z m -104.75519,0 c -2.012779,0 -3.78854,0.84047 -5.327724,2.52124 -1.420786,1.55149 -2.131817,3.42656 -2.131817,5.62449 0,2.19793 0.711031,4.13705 2.131817,5.81782 1.539184,1.55148 3.314945,2.32791 5.327724,2.32791 2.01278,0 3.729896,-0.77643 5.150681,-2.32791 1.539185,-1.68077 2.30887,-3.61989 2.30887,-5.81782 0,-2.19793 -0.769685,-4.073 -2.30887,-5.62449 -1.420785,-1.68077 -3.137901,-2.52124 -5.150681,-2.52124 z m 284.27926,-20.5567 c -2.01278,0 -3.78854,0.84049 -5.32772,2.52126 -1.42079,1.55148 -2.13182,3.49059 -2.13182,5.81781 0,2.19793 0.71103,4.13705 2.13182,5.81782 1.53918,1.55149 3.31494,2.32792 5.32772,2.32792 2.01278,0 3.7299,-0.77643 5.15068,-2.32792 1.53919,-1.68077 2.30887,-3.61989 2.30887,-5.81782 0,-2.32722 -0.76968,-4.26633 -2.30887,-5.81781 -1.42078,-1.68077 -3.1379,-2.52126 -5.15068,-2.52126 z m -65.35637,0 c -2.01278,0 -3.78854,0.84049 -5.32772,2.52126 -1.42079,1.55148 -2.13182,3.49059 -2.13182,5.81781 0,2.19793 0.71103,4.13705 2.13182,5.81782 1.53918,1.55149 3.31494,2.32792 5.32772,2.32792 2.01278,0 3.7299,-0.77643 5.15068,-2.32792 1.53919,-1.68077 2.30887,-3.61989 2.30887,-5.81782 0,-2.32722 -0.76968,-4.26633 -2.30887,-5.81781 -1.42078,-1.68077 -3.1379,-2.52126 -5.15068,-2.52126 z m -114.1677,0 c -2.01277,0 -3.78854,0.84049 -5.32772,2.52126 -1.42079,1.68077 -2.13182,3.61988 -2.13182,5.81781 0,2.19793 0.71103,4.13705 2.13182,5.81782 1.53918,1.55149 3.31495,2.32792 5.32772,2.32792 2.01278,0 3.7299,-0.77643 5.15069,-2.32792 1.53918,-1.68077 2.30887,-3.61989 2.30887,-5.81782 0,-2.19793 -0.76969,-4.13704 -2.30887,-5.81781 -1.42079,-1.68077 -3.13791,-2.52126 -5.15069,-2.52126 z m -104.75519,0 c -2.012779,0 -3.78854,0.84049 -5.327724,2.52126 -1.420786,1.68077 -2.131817,3.61988 -2.131817,5.81781 0,2.19793 0.711031,4.13705 2.131817,5.81782 1.539184,1.55149 3.314945,2.32792 5.327724,2.32792 2.01278,0 3.729896,-0.77643 5.150681,-2.32792 1.539185,-1.68077 2.30887,-3.61989 2.30887,-5.81782 0,-2.19793 -0.769685,-4.13704 -2.30887,-5.81781 -1.420785,-1.68077 -3.137901,-2.52126 -5.150681,-2.52126 z m 265.63131,-20.36335 c -2.01278,0 -3.78855,0.84048 -5.32773,2.52125 -1.42079,1.55148 -2.13182,3.42655 -2.13182,5.62449 1e-5,2.19793 0.71103,4.13705 2.13182,5.81782 1.53918,1.55148 3.31495,2.32791 5.32773,2.32791 2.01278,0 3.7299,-0.77643 5.15068,-2.32791 1.53919,-1.68077 2.30886,-3.61989 2.30886,-5.81782 0,-2.19794 -0.76967,-4.07301 -2.30886,-5.62449 -1.42078,-1.68077 -3.1379,-2.52125 -5.15068,-2.52125 z m -18.64796,0 c -2.13118,0 -3.90694,0.84048 -5.32772,2.52125 -1.42079,1.55148 -2.13182,3.42655 -2.13182,5.62449 0,2.19793 0.71103,4.13705 2.13182,5.81782 1.42078,1.55148 3.19654,2.32791 5.32772,2.32791 2.01278,0 3.7299,-0.77643 5.15068,-2.32791 1.53919,-1.68077 2.30887,-3.61989 2.30887,-5.81782 -10e-6,-2.19794 -0.76968,-4.07301 -2.30887,-5.62449 -1.42078,-1.68077 -3.1379,-2.52125 -5.15068,-2.52125 z m -18.825,0 c -2.01278,0 -3.78855,0.84048 -5.32773,2.52125 -1.42079,1.55148 -2.13181,3.42655 -2.13181,5.62449 0,2.19793 0.71102,4.13705 2.13181,5.81782 1.53918,1.55148 3.31495,2.32791 5.32773,2.32791 2.13118,0 3.90694,-0.77643 5.32772,-2.32791 1.4208,-1.68077 2.13182,-3.61989 2.13182,-5.81782 0,-2.19794 -0.71102,-4.07301 -2.13182,-5.62449 -1.42078,-1.68077 -3.19654,-2.52125 -5.32772,-2.52125 z m -18.64796,0 c -2.01278,0 -3.78854,0.84048 -5.32773,2.52125 -1.42078,1.55148 -2.13181,3.42655 -2.13181,5.62449 0,2.19793 0.71103,4.13705 2.13181,5.81782 1.53919,1.55148 3.31495,2.32791 5.32773,2.32791 2.01278,0 3.72989,-0.77643 5.15068,-2.32791 1.53918,-1.68077 2.30887,-3.61989 2.30887,-5.81782 0,-2.19794 -0.76969,-4.07301 -2.30887,-5.62449 -1.42079,-1.68077 -3.1379,-2.52125 -5.15068,-2.52125 z m -29.98632,0 c -2.01278,0 -3.78854,0.84048 -5.32773,2.52125 -1.42078,1.55148 -2.13181,3.42655 -2.13181,5.62449 0,2.19793 0.71103,4.13705 2.13181,5.81782 1.53919,1.55148 3.31495,2.32791 5.32773,2.32791 2.01278,0 3.72989,-0.77643 5.15068,-2.32791 1.53918,-1.68077 2.30887,-3.61989 2.30887,-5.81782 0,-2.19794 -0.76969,-4.07301 -2.30887,-5.62449 -1.42079,-1.68077 -3.1379,-2.52125 -5.15068,-2.52125 z m -18.64795,0 c -2.01278,0 -3.78855,0.84048 -5.32774,2.52125 -1.42078,1.55148 -2.13181,3.42655 -2.13181,5.62449 1e-5,2.19793 0.71103,4.13705 2.13181,5.81782 1.53919,1.55148 3.31496,2.32791 5.32774,2.32791 2.01278,0 3.72989,-0.77643 5.15068,-2.32791 1.53918,-1.68077 2.30886,-3.61989 2.30886,-5.81782 0,-2.19794 -0.76968,-4.07301 -2.30886,-5.62449 -1.42079,-1.68077 -3.1379,-2.52125 -5.15068,-2.52125 z m -18.64796,0 c -2.01278,0 -3.78854,0.84048 -5.32773,2.52125 -1.42078,1.55148 -2.13181,3.42655 -2.13181,5.62449 0,2.19793 0.71103,4.13705 2.13181,5.81782 1.53919,1.55148 3.31495,2.32791 5.32773,2.32791 2.01278,0 3.72989,-0.77643 5.15068,-2.32791 1.53918,-1.68077 2.30887,-3.61989 2.30887,-5.81782 0,-2.19794 -0.76969,-4.07301 -2.30887,-5.62449 -1.42079,-1.68077 -3.1379,-2.52125 -5.15068,-2.52125 z m -18.82501,0 c -2.01277,0 -3.78854,0.84048 -5.32773,2.52125 -1.42078,1.55148 -2.13181,3.42655 -2.13181,5.62449 0,2.19793 0.71103,4.13705 2.13181,5.81782 1.53919,1.55148 3.31496,2.32791 5.32773,2.32791 2.01278,0 3.7299,-0.77643 5.15069,-2.32791 1.53918,-1.68077 2.30886,-3.61989 2.30886,-5.81782 0,-2.19794 -0.76968,-4.07301 -2.30886,-5.62449 -1.42079,-1.68077 -3.13791,-2.52125 -5.15069,-2.52125 z m -18.64796,0 c -2.01277,0 -3.78854,0.84048 -5.32772,2.52125 -1.42079,1.55148 -2.13182,3.42655 -2.13182,5.62449 0,2.19793 0.71103,4.13705 2.13182,5.81782 1.53918,1.55148 3.31495,2.32791 5.32772,2.32791 2.01278,0 3.7299,-0.77643 5.15069,-2.32791 1.53918,-1.68077 2.30887,-3.61989 2.30887,-5.81782 0,-2.19794 -0.76969,-4.07301 -2.30887,-5.62449 -1.42079,-1.68077 -3.13791,-2.52125 -5.15069,-2.52125 z m -104.75519,0 c -2.012779,0 -3.78854,0.84048 -5.327724,2.52125 -1.420786,1.55148 -2.131817,3.42655 -2.131817,5.62449 0,2.19793 0.711031,4.13705 2.131817,5.81782 1.539184,1.55148 3.314945,2.32791 5.327724,2.32791 2.01278,0 3.729896,-0.77643 5.150681,-2.32791 1.539185,-1.68077 2.30887,-3.61989 2.30887,-5.81782 0,-2.19794 -0.769685,-4.07301 -2.30887,-5.62449 -1.420785,-1.68077 -3.137901,-2.52125 -5.150681,-2.52125 z m 201.28665,-30.21162 c -2.13118,0 -3.96741,0.77643 -5.50659,2.32792 -1.42079,1.68077 -2.13,3.61988 -2.13,5.81781 0,2.19793 0.70921,4.073 2.13,5.62448 1.53918,1.68077 3.37541,2.52126 5.50659,2.52126 2.01278,0 3.72989,-0.84049 5.15068,-2.52126 1.53918,-1.55148 2.30886,-3.42655 2.30886,-5.62448 0,-2.19793 -0.76968,-4.13704 -2.30886,-5.81781 -1.42079,-1.55149 -3.1379,-2.32792 -5.15068,-2.32792 z m 332.74733,-20.36138 c -2.01278,0 -3.79035,0.84048 -5.32954,2.52125 -1.42078,1.55148 -2.13001,3.42458 -2.13001,5.62251 0,2.19793 0.70923,4.13704 2.13001,5.81782 1.53919,1.55148 3.31676,2.32791 5.32954,2.32791 2.01278,0 3.72808,-0.77643 5.14887,-2.32791 1.53918,-1.68078 2.30887,-3.61989 2.30887,-5.81782 0,-2.19793 -0.76969,-4.07103 -2.30887,-5.62251 -1.42079,-1.68077 -3.13609,-2.52125 -5.14887,-2.52125 z m -18.64796,0 c -2.01278,0 -3.78855,0.84048 -5.32773,2.52125 -1.42079,1.55148 -2.13181,3.42458 -2.13181,5.62251 0,2.19793 0.71102,4.13704 2.13181,5.81782 1.53918,1.55148 3.31495,2.32791 5.32773,2.32791 2.01278,0 3.7299,-0.77643 5.15068,-2.32791 1.53919,-1.68078 2.30706,-3.61989 2.30706,-5.81782 0,-2.19793 -0.76787,-4.07103 -2.30706,-5.62251 -1.42078,-1.68077 -3.1379,-2.52125 -5.15068,-2.52125 z m -18.82681,0 c -2.01279,0 -3.78855,0.84048 -5.32773,2.52125 -1.42079,1.55148 -2.13,3.42458 -2.13,5.62251 -10e-6,2.19793 0.70921,4.13704 2.13,5.81782 1.53918,1.55148 3.31494,2.32791 5.32773,2.32791 2.01278,0 3.72989,-0.77643 5.15068,-2.32791 1.53918,-1.68078 2.30886,-3.61989 2.30886,-5.81782 0,-2.19793 -0.76968,-4.07103 -2.30886,-5.62251 -1.42079,-1.68077 -3.1379,-2.52125 -5.15068,-2.52125 z m -67.28042,0 c -2.01278,0 -3.79036,0.84048 -5.32954,2.52125 -1.42079,1.55148 -2.13001,3.42458 -2.13001,5.62251 0,2.19793 0.70922,4.13704 2.13001,5.81782 1.53918,1.55148 3.31676,2.32791 5.32954,2.32791 2.01278,0 3.72808,-0.77643 5.14886,-2.32791 1.53919,-1.68078 2.30887,-3.61989 2.30887,-5.81782 0,-2.19793 -0.76968,-4.07103 -2.30887,-5.62251 -1.42078,-1.68077 -3.13608,-2.52125 -5.14886,-2.52125 z m -18.64796,0 c -2.01278,0 -3.78855,0.84048 -5.32774,2.52125 -1.42078,1.55148 -2.13181,3.42458 -2.13181,5.62251 0,2.19793 0.71103,4.13704 2.13181,5.81782 1.53919,1.55148 3.31496,2.32791 5.32774,2.32791 2.01278,0 3.72989,-0.77643 5.15068,-2.32791 1.53918,-1.68078 2.30705,-3.61989 2.30705,-5.81782 0,-2.19793 -0.76787,-4.07103 -2.30705,-5.62251 -1.42079,-1.68077 -3.1379,-2.52125 -5.15068,-2.52125 z m -18.82681,0 c -2.01279,0 -3.78855,0.84048 -5.32773,2.52125 -1.42079,1.55148 -2.13001,3.42458 -2.13001,5.62251 -1e-5,2.19793 0.70922,4.13704 2.13001,5.81782 1.53918,1.55148 3.31494,2.32791 5.32773,2.32791 2.01278,0 3.72989,-0.77643 5.15067,-2.32791 1.53919,-1.68078 2.30887,-3.61989 2.30887,-5.81782 0,-2.19793 -0.76968,-4.07103 -2.30887,-5.62251 -1.42078,-1.68077 -3.13789,-2.52125 -5.15067,-2.52125 z m -67.28043,0 c -2.01278,0 -3.79035,0.84048 -5.32954,2.52125 -1.42078,1.55148 -2.13001,3.42458 -2.13001,5.62251 0,2.19793 0.70923,4.13704 2.13001,5.81782 1.53919,1.55148 3.31676,2.32791 5.32954,2.32791 2.01278,0 3.72808,-0.77643 5.14887,-2.32791 1.53918,-1.68078 2.30887,-3.61989 2.30887,-5.81782 0,-2.19793 -0.76969,-4.07103 -2.30887,-5.62251 -1.42079,-1.68077 -3.13609,-2.52125 -5.14887,-2.52125 z m -18.64796,0 c -2.01278,0 -3.78855,0.84048 -5.32773,2.52125 -1.42078,1.55148 -2.13181,3.42458 -2.13181,5.62251 0,2.19793 0.71103,4.13704 2.13181,5.81782 1.53918,1.55148 3.31495,2.32791 5.32773,2.32791 2.01278,0 3.7299,-0.77643 5.15068,-2.32791 1.53919,-1.68078 2.30706,-3.61989 2.30706,-5.81782 0,-2.19793 -0.76787,-4.07103 -2.30706,-5.62251 -1.42078,-1.68077 -3.1379,-2.52125 -5.15068,-2.52125 z m -18.82681,0 c -2.01278,0 -3.78854,0.84048 -5.32773,2.52125 -1.42078,1.55148 -2.13001,3.42458 -2.13,5.62251 0,2.19793 0.70922,4.13704 2.13,5.81782 1.53919,1.55148 3.31495,2.32791 5.32773,2.32791 2.01277,0 3.72989,-0.77643 5.15068,-2.32791 1.53918,-1.68078 2.30887,-3.61989 2.30887,-5.81782 0,-2.19793 -0.76969,-4.07103 -2.30887,-5.62251 -1.42079,-1.68077 -3.13791,-2.52125 -5.15068,-2.52125 z m -67.29307,0 c -2.01278,0 -3.78855,0.84048 -5.32773,2.52125 -1.42079,1.55148 -2.13001,3.42458 -2.13,5.62251 0,2.19793 0.70921,4.13704 2.13,5.81782 1.53918,1.55148 3.31494,2.32791 5.32773,2.32791 2.13118,0 3.90874,-0.77643 5.32953,-2.32791 1.42079,-1.68078 2.13001,-3.61989 2.13001,-5.81782 0,-2.19793 -0.70922,-4.07103 -2.13001,-5.62251 -1.42079,-1.68077 -3.19836,-2.52125 -5.32953,-2.52125 z m -18.64615,0 c -2.01278,0 -3.79036,0.84048 -5.32954,2.52125 -1.42079,1.55148 -2.13,3.42458 -2.13,5.62251 0,2.19793 0.70921,4.13704 2.13,5.81782 1.53918,1.55148 3.31676,2.32791 5.32954,2.32791 2.01278,0 3.72809,-0.77643 5.14887,-2.32791 1.53919,-1.68078 2.30886,-3.61989 2.30886,-5.81782 0,-2.19793 -0.76967,-4.07103 -2.30886,-5.62251 -1.42078,-1.68077 -3.13609,-2.52125 -5.14887,-2.52125 z m -48.63427,0 c -2.01278,0 -3.79036,0.84048 -5.32954,2.52125 -1.42079,1.55148 -2.13002,3.42458 -2.13002,5.62251 0,2.19793 0.70923,4.13704 2.13002,5.81782 1.53918,1.55148 3.31676,2.32791 5.32954,2.32791 2.01277,0 3.72808,-0.77643 5.14886,-2.32791 1.53919,-1.68078 2.30887,-3.61989 2.30887,-5.81782 0,-2.19793 -0.76968,-4.07103 -2.30887,-5.62251 -1.42078,-1.68077 -3.13609,-2.52125 -5.14886,-2.52125 z m -18.64796,0 c -2.01278,0 -3.78855,0.84048 -5.32774,2.52125 -1.42077,1.55148 -2.13181,3.42458 -2.13181,5.62251 0,2.19793 0.71103,4.13704 2.13181,5.81782 1.53919,1.55148 3.31496,2.32791 5.32774,2.32791 2.01277,0 3.72989,-0.77643 5.15068,-2.32791 1.53918,-1.68078 2.30705,-3.61989 2.30705,-5.81782 0,-2.19793 -0.76787,-4.07103 -2.30705,-5.62251 -1.42079,-1.68077 -3.13791,-2.52125 -5.15068,-2.52125 z m -18.82681,0 c -2.01278,0 -3.78855,0.84048 -5.32774,2.52125 -1.42078,1.55148 -2.13,3.42458 -2.13,5.62251 -1e-5,2.19793 0.70922,4.13704 2.13,5.81782 1.53919,1.55148 3.31495,2.32791 5.32774,2.32791 2.01278,0 3.72988,-0.77643 5.15067,-2.32791 1.53918,-1.68078 2.30887,-3.61989 2.30887,-5.81782 0,-2.19793 -0.76969,-4.07103 -2.30887,-5.62251 -1.42079,-1.68077 -3.13789,-2.52125 -5.15067,-2.52125 z m -48.63248,0 c -2.01278,0 -3.79035,0.84048 -5.32954,2.52125 -1.42078,1.55148 -2.13,3.42458 -2.13,5.62251 0,2.19793 0.70922,4.13704 2.13,5.81782 1.53919,1.55148 3.31676,2.32791 5.32954,2.32791 2.01278,0 3.72809,-0.77643 5.14888,-2.32791 1.53918,-1.68078 2.30886,-3.61989 2.30886,-5.81782 0,-2.19793 -0.76968,-4.07103 -2.30886,-5.62251 -1.42079,-1.68077 -3.1361,-2.52125 -5.14888,-2.52125 z m -18.64795,0 c -2.01278,0 -3.79035,0.84048 -5.32954,2.52125 -1.42078,1.55148 -2.13001,3.42458 -2.13001,5.62251 0,2.19793 0.70923,4.13704 2.13001,5.81782 1.53919,1.55148 3.31676,2.32791 5.32954,2.32791 2.01278,0 3.72808,-0.77643 5.14887,-2.32791 1.53918,-1.68078 2.30887,-3.61989 2.30887,-5.81782 0,-2.19793 -0.76969,-4.07103 -2.30887,-5.62251 -1.42079,-1.68077 -3.13609,-2.52125 -5.14887,-2.52125 z m -18.64796,0 c -2.01278,0 -3.788539,0.84048 -5.327733,2.52125 -1.420786,1.55148 -2.131808,3.42458 -2.131808,5.62251 0,2.19793 0.711022,4.13704 2.131808,5.81782 1.539184,1.55148 3.314953,2.32791 5.327733,2.32791 2.01278,0 3.7299,-0.77643 5.15068,-2.32791 1.53919,-1.68078 2.30706,-3.61989 2.30706,-5.81782 0,-2.19793 -0.76787,-4.07103 -2.30706,-5.62251 -1.42078,-1.68077 -3.1379,-2.52125 -5.15068,-2.52125 z m -18.826807,0 c -2.012779,0 -3.788549,0.84048 -5.327733,2.52125 -1.420786,1.55148 -2.130004,3.42458 -2.130004,5.62251 0,2.19793 0.709218,4.13704 2.130004,5.81782 1.539184,1.55148 3.314945,2.32791 5.327733,2.32791 2.01278,0 3.729887,-0.77643 5.150672,-2.32791 1.539185,-1.68078 2.30887,-3.61989 2.30887,-5.81782 0,-2.19793 -0.769685,-4.07103 -2.30887,-5.62251 -1.420785,-1.68077 -3.137892,-2.52125 -5.150672,-2.52125 z m -18.646156,0 c -2.01278,0 -3.790353,0.84048 -5.329537,2.52125 -1.420786,1.55148 -2.130004,3.42458 -2.130004,5.62251 0,2.19793 0.709218,4.13704 2.130004,5.81782 1.539184,1.55148 3.316757,2.32791 5.329537,2.32791 2.01278,0 3.728092,-0.77643 5.148877,-2.32791 1.539185,-1.68078 2.30886,-3.61989 2.30886,-5.81782 0,-2.19793 -0.769675,-4.07103 -2.30886,-5.62251 -1.420785,-1.68077 -3.136097,-2.52125 -5.148877,-2.52125 z m 561.082723,-20.36332 c -2.01278,0 -3.79035,0.8405 -5.32954,2.5212 -1.42078,1.5515 -2.13,3.4246 -2.13,5.62253 0,2.19793 0.70922,4.13902 2.13,5.81979 1.53919,1.55148 3.31676,2.32595 5.32954,2.32595 2.01278,0 3.72809,-0.77447 5.14888,-2.32595 1.53918,-1.68077 2.30886,-3.62186 2.30886,-5.81979 0,-2.19793 -0.76968,-4.07103 -2.30886,-5.62253 -1.42079,-1.6807 -3.1361,-2.5212 -5.14888,-2.5212 z m -74.76887,0 c -2.01278,0 -3.79036,0.8405 -5.32954,2.5212 -1.42079,1.5515 -2.13,3.4246 -2.13,5.62253 0,2.19793 0.70921,4.13902 2.13,5.81979 1.53918,1.55148 3.31676,2.32595 5.32954,2.32595 2.01278,0 3.72809,-0.77447 5.14887,-2.32595 1.53919,-1.68077 2.30886,-3.62186 2.30886,-5.81979 0,-2.19793 -0.76967,-4.07103 -2.30886,-5.62253 -1.42078,-1.6807 -3.13609,-2.5212 -5.14887,-2.5212 z m -29.98632,0 c -2.01278,0 -3.79036,0.8405 -5.32954,2.5212 -1.42079,1.5515 -2.13,3.4246 -2.13,5.62253 0,2.19793 0.70921,4.13902 2.13,5.81979 1.53918,1.55148 3.31676,2.32595 5.32954,2.32595 2.01278,0 3.72809,-0.77447 5.14887,-2.32595 1.53919,-1.68077 2.30886,-3.62186 2.30886,-5.81979 0,-2.19793 -0.76967,-4.07103 -2.30886,-5.62253 -1.42078,-1.6807 -3.13609,-2.5212 -5.14887,-2.5212 z m -74.76888,0 c -2.01278,0 -3.79035,0.8405 -5.32953,2.5212 -1.42079,1.5515 -2.13001,3.4246 -2.13001,5.62253 0,2.19793 0.70922,4.13902 2.13001,5.81979 1.53918,1.55148 3.31675,2.32595 5.32953,2.32595 2.01278,0 3.72809,-0.77447 5.14888,-2.32595 1.53918,-1.68077 2.30886,-3.62186 2.30886,-5.81979 0,-2.19793 -0.76968,-4.07103 -2.30886,-5.62253 -1.42079,-1.6807 -3.1361,-2.5212 -5.14888,-2.5212 z m -29.98632,0 c -2.01278,0 -3.79035,0.8405 -5.32953,2.5212 -1.42079,1.5515 -2.13001,3.4246 -2.13001,5.62253 0,2.19793 0.70922,4.13902 2.13001,5.81979 1.53918,1.55148 3.31675,2.32595 5.32953,2.32595 2.01278,0 3.72809,-0.77447 5.14888,-2.32595 1.53918,-1.68077 2.30886,-3.62186 2.30886,-5.81979 0,-2.19793 -0.76968,-4.07103 -2.30886,-5.62253 -1.42079,-1.6807 -3.1361,-2.5212 -5.14888,-2.5212 z m -74.76887,0 c -2.01278,0 -3.79035,0.8405 -5.32954,2.5212 -1.42078,1.5515 -2.13,3.4246 -2.13,5.62253 0,2.19793 0.70922,4.13902 2.13,5.81979 1.53919,1.55148 3.31676,2.32595 5.32954,2.32595 2.01278,0 3.72809,-0.77447 5.14888,-2.32595 1.53918,-1.68077 2.30886,-3.62186 2.30886,-5.81979 0,-2.19793 -0.76968,-4.07103 -2.30886,-5.62253 -1.42079,-1.6807 -3.1361,-2.5212 -5.14888,-2.5212 z m -48.64692,0 c -2.01278,0 -3.78855,0.7744 -5.32773,2.3259 -1.42079,1.5515 -2.13001,3.4906 -2.13,5.81783 0,2.19793 0.70921,4.13902 2.13,5.81979 1.53918,1.55148 3.31494,2.32595 5.32773,2.32595 2.13118,0 3.90874,-0.77447 5.32953,-2.32595 1.42079,-1.68077 2.13001,-3.62186 2.13001,-5.81979 0,-2.32723 -0.70922,-4.26633 -2.13001,-5.81783 -1.42079,-1.5515 -3.19836,-2.3259 -5.32953,-2.3259 z m -18.64615,0 c -2.01278,0 -3.79036,0.7744 -5.32954,2.3259 -1.42079,1.5515 -2.13,3.4906 -2.13,5.81783 0,2.19793 0.70921,4.13902 2.13,5.81979 1.53918,1.55148 3.31676,2.32595 5.32954,2.32595 2.01278,0 3.72809,-0.77447 5.14887,-2.32595 1.53919,-1.68077 2.30886,-3.62186 2.30886,-5.81979 0,-2.32723 -0.76967,-4.26633 -2.30886,-5.81783 -1.42078,-1.5515 -3.13609,-2.3259 -5.14887,-2.3259 z m -29.98632,0 c -2.01278,0 -3.79036,0.8405 -5.32954,2.5212 -1.42079,1.5515 -2.13001,3.4246 -2.13001,5.62253 0,2.19793 0.70922,4.13902 2.13001,5.81979 1.53918,1.55148 3.31676,2.32595 5.32954,2.32595 2.01278,0 3.72809,-0.77447 5.14887,-2.32595 1.53919,-1.68077 2.30886,-3.62186 2.30886,-5.81979 0,-2.19793 -0.76967,-4.07103 -2.30886,-5.62253 -1.42078,-1.6807 -3.13609,-2.5212 -5.14887,-2.5212 z m -74.76888,0 c -2.01278,0 -3.79035,0.8405 -5.32954,2.5212 -1.42078,1.5515 -2.13,3.4246 -2.13,5.62253 0,2.19793 0.70922,4.13902 2.13,5.81979 1.53919,1.55148 3.31676,2.32595 5.32954,2.32595 2.01278,0 3.72809,-0.77447 5.14888,-2.32595 1.53918,-1.68077 2.30886,-3.62186 2.30886,-5.81979 0,-2.19793 -0.76968,-4.07103 -2.30886,-5.62253 -1.42079,-1.6807 -3.1361,-2.5212 -5.14888,-2.5212 z m -104.755193,0 c -2.01278,0 -3.790353,0.8405 -5.329537,2.5212 -1.420786,1.5515 -2.130004,3.4246 -2.130004,5.62253 0,2.19793 0.709218,4.13902 2.130004,5.81979 1.539184,1.55148 3.316757,2.32595 5.329537,2.32595 2.01278,0 3.728092,-0.77447 5.148877,-2.32595 1.539185,-1.68077 2.30886,-3.62186 2.30886,-5.81979 0,-2.19793 -0.769675,-4.07103 -2.30886,-5.62253 -1.420785,-1.6807 -3.136097,-2.5212 -5.148877,-2.5212 z m 561.082723,-20.5587 c -2.01278,0 -3.79035,0.8405 -5.32954,2.5213 -1.42078,1.5514 -2.13,3.4265 -2.13,5.6244 0,2.198 0.70922,4.1371 2.13,5.8179 1.53919,1.5514 3.31676,2.3279 5.32954,2.3279 2.01278,0 3.72809,-0.7765 5.14888,-2.3279 1.53918,-1.6808 2.30886,-3.6199 2.30886,-5.8179 0,-2.1979 -0.76968,-4.073 -2.30886,-5.6244 -1.42079,-1.6808 -3.1361,-2.5213 -5.14888,-2.5213 z m -74.76887,0 c -2.01278,0 -3.79036,0.8405 -5.32954,2.5213 -1.42079,1.5514 -2.13,3.4265 -2.13,5.6244 0,2.198 0.70921,4.1371 2.13,5.8179 1.53918,1.5514 3.31676,2.3279 5.32954,2.3279 2.01278,0 3.72809,-0.7765 5.14887,-2.3279 1.53919,-1.6808 2.30886,-3.6199 2.30886,-5.8179 0,-2.1979 -0.76967,-4.073 -2.30886,-5.6244 -1.42078,-1.6808 -3.13609,-2.5213 -5.14887,-2.5213 z m -29.98632,0 c -2.01278,0 -3.79036,0.8405 -5.32954,2.5213 -1.42079,1.5514 -2.13,3.4265 -2.13,5.6244 0,2.198 0.70921,4.1371 2.13,5.8179 1.53918,1.5514 3.31676,2.3279 5.32954,2.3279 2.01278,0 3.72809,-0.7765 5.14887,-2.3279 1.53919,-1.6808 2.30886,-3.6199 2.30886,-5.8179 0,-2.1979 -0.76967,-4.073 -2.30886,-5.6244 -1.42078,-1.6808 -3.13609,-2.5213 -5.14887,-2.5213 z m -74.76888,0 c -2.01278,0 -3.79035,0.8405 -5.32953,2.5213 -1.42079,1.5514 -2.13001,3.4265 -2.13001,5.6244 0,2.198 0.70922,4.1371 2.13001,5.8179 1.53918,1.5514 3.31675,2.3279 5.32953,2.3279 2.01278,0 3.72809,-0.7765 5.14888,-2.3279 1.53918,-1.6808 2.30886,-3.6199 2.30886,-5.8179 0,-2.1979 -0.76968,-4.073 -2.30886,-5.6244 -1.42079,-1.6808 -3.1361,-2.5213 -5.14888,-2.5213 z m -29.98632,0 c -2.01278,0 -3.79035,0.8405 -5.32953,2.5213 -1.42079,1.5514 -2.13001,3.4265 -2.13001,5.6244 0,2.198 0.70922,4.1371 2.13001,5.8179 1.53918,1.5514 3.31675,2.3279 5.32953,2.3279 2.01278,0 3.72809,-0.7765 5.14888,-2.3279 1.53918,-1.6808 2.30886,-3.6199 2.30886,-5.8179 0,-2.1979 -0.76968,-4.073 -2.30886,-5.6244 -1.42079,-1.6808 -3.1361,-2.5213 -5.14888,-2.5213 z m -74.76887,0 c -2.01278,0 -3.79035,0.8405 -5.32954,2.5213 -1.42078,1.5514 -2.13,3.4265 -2.13,5.6244 0,2.198 0.70922,4.1371 2.13,5.8179 1.53919,1.5514 3.31676,2.3279 5.32954,2.3279 2.01278,0 3.72809,-0.7765 5.14888,-2.3279 1.53918,-1.6808 2.30886,-3.6199 2.30886,-5.8179 0,-2.1979 -0.76968,-4.073 -2.30886,-5.6244 -1.42079,-1.6808 -3.1361,-2.5213 -5.14888,-2.5213 z m -97.27939,0 c -2.01278,0 -3.79036,0.8405 -5.32954,2.5213 -1.42079,1.5514 -2.13001,3.4265 -2.13001,5.6244 0,2.198 0.70922,4.1371 2.13001,5.8179 1.53918,1.5514 3.31676,2.3279 5.32954,2.3279 2.01278,0 3.72809,-0.7765 5.14887,-2.3279 1.53919,-1.6808 2.30886,-3.6199 2.30886,-5.8179 0,-2.1979 -0.76967,-4.073 -2.30886,-5.6244 -1.42078,-1.6808 -3.13609,-2.5213 -5.14887,-2.5213 z m -74.76888,0 c -2.01278,0 -3.79035,0.8405 -5.32954,2.5213 -1.42078,1.5514 -2.13,3.4265 -2.13,5.6244 0,2.198 0.70922,4.1371 2.13,5.8179 1.53919,1.5514 3.31676,2.3279 5.32954,2.3279 2.01278,0 3.72809,-0.7765 5.14888,-2.3279 1.53918,-1.6808 2.30886,-3.6199 2.30886,-5.8179 0,-2.1979 -0.76968,-4.073 -2.30886,-5.6244 -1.42079,-1.6808 -3.1361,-2.5213 -5.14888,-2.5213 z m -104.755193,0 c -2.01278,0 -3.790353,0.8405 -5.329537,2.5213 -1.420786,1.5514 -2.130004,3.4265 -2.130004,5.6244 0,2.198 0.709218,4.1371 2.130004,5.8179 1.539184,1.5514 3.316757,2.3279 5.329537,2.3279 2.01278,0 3.728092,-0.7765 5.148877,-2.3279 1.539185,-1.6808 2.30886,-3.6199 2.30886,-5.8179 0,-2.1979 -0.769675,-4.073 -2.30886,-5.6244 -1.420785,-1.6808 -3.136097,-2.5213 -5.148877,-2.5213 z m 561.082723,-20.3633 c -2.01278,0 -3.79035,0.8404 -5.32954,2.5212 -1.42078,1.5515 -2.13,3.4266 -2.13,5.6245 0,2.1979 0.70922,4.137 2.13,5.8178 1.53919,1.5515 3.31676,2.3279 5.32954,2.3279 2.01278,0 3.72809,-0.7764 5.14888,-2.3279 1.53918,-1.6808 2.30886,-3.6199 2.30886,-5.8178 0,-2.1979 -0.76968,-4.073 -2.30886,-5.6245 -1.42079,-1.6808 -3.1361,-2.5212 -5.14888,-2.5212 z m -74.76887,0 c -2.01278,0 -3.79036,0.8404 -5.32954,2.5212 -1.42079,1.5515 -2.13,3.4266 -2.13,5.6245 0,2.1979 0.70921,4.137 2.13,5.8178 1.53918,1.5515 3.31676,2.3279 5.32954,2.3279 2.01278,0 3.72809,-0.7764 5.14887,-2.3279 1.53919,-1.6808 2.30886,-3.6199 2.30886,-5.8178 0,-2.1979 -0.76967,-4.073 -2.30886,-5.6245 -1.42078,-1.6808 -3.13609,-2.5212 -5.14887,-2.5212 z m -29.98632,0 c -2.01278,0 -3.79036,0.8404 -5.32954,2.5212 -1.42079,1.5515 -2.13,3.4266 -2.13,5.6245 0,2.1979 0.70921,4.137 2.13,5.8178 1.53918,1.5515 3.31676,2.3279 5.32954,2.3279 2.01278,0 3.72809,-0.7764 5.14887,-2.3279 1.53919,-1.6808 2.30886,-3.6199 2.30886,-5.8178 0,-2.1979 -0.76967,-4.073 -2.30886,-5.6245 -1.42078,-1.6808 -3.13609,-2.5212 -5.14887,-2.5212 z m -74.76888,0 c -2.01278,0 -3.79035,0.8404 -5.32953,2.5212 -1.42079,1.5515 -2.13001,3.4266 -2.13001,5.6245 0,2.1979 0.70922,4.137 2.13001,5.8178 1.53918,1.5515 3.31675,2.3279 5.32953,2.3279 2.01278,0 3.72809,-0.7764 5.14888,-2.3279 1.53918,-1.6808 2.30886,-3.6199 2.30886,-5.8178 0,-2.1979 -0.76968,-4.073 -2.30886,-5.6245 -1.42079,-1.6808 -3.1361,-2.5212 -5.14888,-2.5212 z m -29.98632,0 c -2.01278,0 -3.79035,0.8404 -5.32953,2.5212 -1.42079,1.5515 -2.13001,3.4266 -2.13001,5.6245 0,2.1979 0.70922,4.137 2.13001,5.8178 1.53918,1.5515 3.31675,2.3279 5.32953,2.3279 2.01278,0 3.72809,-0.7764 5.14888,-2.3279 1.53918,-1.6808 2.30886,-3.6199 2.30886,-5.8178 0,-2.1979 -0.76968,-4.073 -2.30886,-5.6245 -1.42079,-1.6808 -3.1361,-2.5212 -5.14888,-2.5212 z m -74.76887,0 c -2.01278,0 -3.79035,0.8404 -5.32954,2.5212 -1.42078,1.5515 -2.13,3.4266 -2.13,5.6245 0,2.1979 0.70922,4.137 2.13,5.8178 1.53919,1.5515 3.31676,2.3279 5.32954,2.3279 2.01278,0 3.72809,-0.7764 5.14888,-2.3279 1.53918,-1.6808 2.30886,-3.6199 2.30886,-5.8178 0,-2.1979 -0.76968,-4.073 -2.30886,-5.6245 -1.42079,-1.6808 -3.1361,-2.5212 -5.14888,-2.5212 z m -97.27939,0 c -2.01278,0 -3.79036,0.8404 -5.32954,2.5212 -1.42079,1.5515 -2.13001,3.4266 -2.13001,5.6245 0,2.1979 0.70922,4.137 2.13001,5.8178 1.53918,1.5515 3.31676,2.3279 5.32954,2.3279 2.01278,0 3.72809,-0.7764 5.14887,-2.3279 1.53919,-1.6808 2.30886,-3.6199 2.30886,-5.8178 0,-2.1979 -0.76967,-4.073 -2.30886,-5.6245 -1.42078,-1.6808 -3.13609,-2.5212 -5.14887,-2.5212 z m -74.76888,0 c -2.01278,0 -3.79035,0.8404 -5.32954,2.5212 -1.42078,1.5515 -2.13,3.4266 -2.13,5.6245 0,2.1979 0.70922,4.137 2.13,5.8178 1.53919,1.5515 3.31676,2.3279 5.32954,2.3279 2.01278,0 3.72809,-0.7764 5.14888,-2.3279 1.53918,-1.6808 2.30886,-3.6199 2.30886,-5.8178 0,-2.1979 -0.76968,-4.073 -2.30886,-5.6245 -1.42079,-1.6808 -3.1361,-2.5212 -5.14888,-2.5212 z m -48.63427,0 c -2.01278,0 -3.79035,0.8404 -5.32954,2.5212 -1.42078,1.5515 -2.13001,3.4266 -2.13001,5.6245 0,2.1979 0.70923,4.137 2.13001,5.8178 1.53919,1.5515 3.31676,2.3279 5.32954,2.3279 2.01278,0 3.72808,-0.7764 5.14887,-2.3279 1.53918,-1.6808 2.30887,-3.6199 2.30887,-5.8178 0,-2.1979 -0.76969,-4.073 -2.30887,-5.6245 -1.42079,-1.6808 -3.13609,-2.5212 -5.14887,-2.5212 z m -18.64796,0 c -2.01278,0 -3.788539,0.8404 -5.327733,2.5212 -1.420786,1.5515 -2.131808,3.4266 -2.131808,5.6245 0,2.1979 0.711022,4.137 2.131808,5.8178 1.539184,1.5515 3.314953,2.3279 5.327733,2.3279 2.01278,0 3.7299,-0.7764 5.15068,-2.3279 1.53919,-1.6808 2.30706,-3.6199 2.30706,-5.8178 0,-2.1979 -0.76787,-4.073 -2.30706,-5.6245 -1.42078,-1.6808 -3.1379,-2.5212 -5.15068,-2.5212 z m -18.826807,0 c -2.012779,0 -3.788549,0.8404 -5.327733,2.5212 -1.420786,1.5515 -2.130004,3.4266 -2.130004,5.6245 0,2.1979 0.709218,4.137 2.130004,5.8178 1.539184,1.5515 3.314945,2.3279 5.327733,2.3279 2.01278,0 3.729887,-0.7764 5.150672,-2.3279 1.539185,-1.6808 2.30887,-3.6199 2.30887,-5.8178 0,-2.1979 -0.769685,-4.073 -2.30887,-5.6245 -1.420785,-1.6808 -3.137892,-2.5212 -5.150672,-2.5212 z m 542.436567,-20.3614 c -2.01278,0 -3.79035,0.8405 -5.32954,2.5212 -1.42078,1.5515 -2.13,3.4246 -2.13,5.6225 0,2.198 0.70922,4.1371 2.13,5.8179 1.53919,1.5514 3.31676,2.3279 5.32954,2.3279 2.01278,0 3.72809,-0.7765 5.14888,-2.3279 1.53918,-1.6808 2.30886,-3.6199 2.30886,-5.8179 0,-2.1979 -0.76968,-4.071 -2.30886,-5.6225 -1.42079,-1.6807 -3.1361,-2.5212 -5.14888,-2.5212 z m -74.76887,0 c -2.01278,0 -3.79036,0.8405 -5.32954,2.5212 -1.42079,1.5515 -2.13,3.4246 -2.13,5.6225 0,2.198 0.70921,4.1371 2.13,5.8179 1.53918,1.5514 3.31676,2.3279 5.32954,2.3279 2.01278,0 3.72809,-0.7765 5.14887,-2.3279 1.53919,-1.6808 2.30886,-3.6199 2.30886,-5.8179 0,-2.1979 -0.76967,-4.071 -2.30886,-5.6225 -1.42078,-1.6807 -3.13609,-2.5212 -5.14887,-2.5212 z m -29.98632,0 c -2.01278,0 -3.79036,0.8405 -5.32954,2.5212 -1.42079,1.5515 -2.13,3.4246 -2.13,5.6225 0,2.198 0.70921,4.1371 2.13,5.8179 1.53918,1.5514 3.31676,2.3279 5.32954,2.3279 2.01278,0 3.72809,-0.7765 5.14887,-2.3279 1.53919,-1.6808 2.30886,-3.6199 2.30886,-5.8179 0,-2.1979 -0.76967,-4.071 -2.30886,-5.6225 -1.42078,-1.6807 -3.13609,-2.5212 -5.14887,-2.5212 z m -74.76888,0 c -2.01278,0 -3.79035,0.8405 -5.32953,2.5212 -1.42079,1.5515 -2.13001,3.4246 -2.13001,5.6225 0,2.198 0.70922,4.1371 2.13001,5.8179 1.53918,1.5514 3.31675,2.3279 5.32953,2.3279 2.01278,0 3.72809,-0.7765 5.14888,-2.3279 1.53918,-1.6808 2.30886,-3.6199 2.30886,-5.8179 0,-2.1979 -0.76968,-4.071 -2.30886,-5.6225 -1.42079,-1.6807 -3.1361,-2.5212 -5.14888,-2.5212 z m -29.98632,0 c -2.01278,0 -3.79035,0.8405 -5.32953,2.5212 -1.42079,1.5515 -2.13001,3.4246 -2.13001,5.6225 0,2.198 0.70922,4.1371 2.13001,5.8179 1.53918,1.5514 3.31675,2.3279 5.32953,2.3279 2.01278,0 3.72809,-0.7765 5.14888,-2.3279 1.53918,-1.6808 2.30886,-3.6199 2.30886,-5.8179 0,-2.1979 -0.76968,-4.071 -2.30886,-5.6225 -1.42079,-1.6807 -3.1361,-2.5212 -5.14888,-2.5212 z m -74.76887,0 c -2.01278,0 -3.79035,0.8405 -5.32954,2.5212 -1.42078,1.5515 -2.13,3.4246 -2.13,5.6225 0,2.198 0.70922,4.1371 2.13,5.8179 1.53919,1.5514 3.31676,2.3279 5.32954,2.3279 2.01278,0 3.72809,-0.7765 5.14888,-2.3279 1.53918,-1.6808 2.30886,-3.6199 2.30886,-5.8179 0,-2.1979 -0.76968,-4.071 -2.30886,-5.6225 -1.42079,-1.6807 -3.1361,-2.5212 -5.14888,-2.5212 z m -97.27939,0 c -2.01278,0 -3.79036,0.8405 -5.32954,2.5212 -1.42079,1.5515 -2.13001,3.4246 -2.13001,5.6225 0,2.198 0.70922,4.1371 2.13001,5.8179 1.53918,1.5514 3.31676,2.3279 5.32954,2.3279 2.01278,0 3.72809,-0.7765 5.14887,-2.3279 1.53919,-1.6808 2.30886,-3.6199 2.30886,-5.8179 0,-2.1979 -0.76967,-4.071 -2.30886,-5.6225 -1.42078,-1.6807 -3.13609,-2.5212 -5.14887,-2.5212 z m -74.76888,0 c -2.01278,0 -3.79035,0.8405 -5.32954,2.5212 -1.42078,1.5515 -2.13,3.4246 -2.13,5.6225 0,2.198 0.70922,4.1371 2.13,5.8179 1.53919,1.5514 3.31676,2.3279 5.32954,2.3279 2.01278,0 3.72809,-0.7765 5.14888,-2.3279 1.53918,-1.6808 2.30886,-3.6199 2.30886,-5.8179 0,-2.1979 -0.76968,-4.071 -2.30886,-5.6225 -1.42079,-1.6807 -3.1361,-2.5212 -5.14888,-2.5212 z m -29.98632,0 c -2.01278,0 -3.79035,0.8405 -5.32954,2.5212 -1.42078,1.5515 -2.13,3.4246 -2.13,5.6225 0,2.198 0.70922,4.1371 2.13,5.8179 1.53919,1.5514 3.31676,2.3279 5.32954,2.3279 2.01278,0 3.72809,-0.7765 5.14888,-2.3279 1.53918,-1.6808 2.30886,-3.6199 2.30886,-5.8179 0,-2.1979 -0.76968,-4.071 -2.30886,-5.6225 -1.42079,-1.6807 -3.1361,-2.5212 -5.14888,-2.5212 z m 486.31385,-20.5587 c -2.01278,0 -3.79035,0.8405 -5.32954,2.5213 -1.42078,1.6807 -2.13,3.6199 -2.13,5.8178 0,2.1979 0.70922,4.139 2.13,5.8198 1.53919,1.5515 3.31676,2.3259 5.32954,2.3259 2.01278,0 3.72809,-0.7744 5.14888,-2.3259 1.53918,-1.6808 2.30886,-3.6219 2.30886,-5.8198 0,-2.1979 -0.76968,-4.1371 -2.30886,-5.8178 -1.42079,-1.6808 -3.1361,-2.5213 -5.14888,-2.5213 z m -74.76887,0 c -2.01278,0 -3.79036,0.8405 -5.32954,2.5213 -1.42079,1.6807 -2.13,3.6199 -2.13,5.8178 0,2.1979 0.70921,4.139 2.13,5.8198 1.53918,1.5515 3.31676,2.3259 5.32954,2.3259 2.01278,0 3.72809,-0.7744 5.14887,-2.3259 1.53919,-1.6808 2.30886,-3.6219 2.30886,-5.8198 0,-2.1979 -0.76967,-4.1371 -2.30886,-5.8178 -1.42078,-1.6808 -3.13609,-2.5213 -5.14887,-2.5213 z m -29.98632,0 c -2.01278,0 -3.79036,0.8405 -5.32954,2.5213 -1.42079,1.6807 -2.13,3.6199 -2.13,5.8178 0,2.1979 0.70921,4.139 2.13,5.8198 1.53918,1.5515 3.31676,2.3259 5.32954,2.3259 2.01278,0 3.72809,-0.7744 5.14887,-2.3259 1.53919,-1.6808 2.30886,-3.6219 2.30886,-5.8198 0,-2.1979 -0.76967,-4.1371 -2.30886,-5.8178 -1.42078,-1.6808 -3.13609,-2.5213 -5.14887,-2.5213 z m -74.76888,0 c -2.01278,0 -3.79035,0.8405 -5.32953,2.5213 -1.42079,1.6807 -2.13001,3.6199 -2.13001,5.8178 0,2.1979 0.70922,4.139 2.13001,5.8198 1.53918,1.5515 3.31675,2.3259 5.32953,2.3259 2.01278,0 3.72809,-0.7744 5.14888,-2.3259 1.53918,-1.6808 2.30886,-3.6219 2.30886,-5.8198 0,-2.1979 -0.76968,-4.1371 -2.30886,-5.8178 -1.42079,-1.6808 -3.1361,-2.5213 -5.14888,-2.5213 z m -29.98632,0 c -2.01278,0 -3.79035,0.8405 -5.32953,2.5213 -1.42079,1.6807 -2.13001,3.6199 -2.13001,5.8178 0,2.1979 0.70922,4.139 2.13001,5.8198 1.53918,1.5515 3.31675,2.3259 5.32953,2.3259 2.01278,0 3.72809,-0.7744 5.14888,-2.3259 1.53918,-1.6808 2.30886,-3.6219 2.30886,-5.8198 0,-2.1979 -0.76968,-4.1371 -2.30886,-5.8178 -1.42079,-1.6808 -3.1361,-2.5213 -5.14888,-2.5213 z m -74.76887,0 c -2.01278,0 -3.79035,0.8405 -5.32954,2.5213 -1.42078,1.6807 -2.13,3.6199 -2.13,5.8178 0,2.1979 0.70922,4.139 2.13,5.8198 1.53919,1.5515 3.31676,2.3259 5.32954,2.3259 2.01278,0 3.72809,-0.7744 5.14888,-2.3259 1.53918,-1.6808 2.30886,-3.6219 2.30886,-5.8198 0,-2.1979 -0.76968,-4.1371 -2.30886,-5.8178 -1.42079,-1.6808 -3.1361,-2.5213 -5.14888,-2.5213 z m -97.27939,0 c -2.01278,0 -3.79036,0.8405 -5.32954,2.5213 -1.42079,1.6807 -2.13001,3.6199 -2.13001,5.8178 0,2.1979 0.70922,4.139 2.13001,5.8198 1.53918,1.5515 3.31676,2.3259 5.32954,2.3259 2.01278,0 3.72809,-0.7744 5.14887,-2.3259 1.53919,-1.6808 2.30886,-3.6219 2.30886,-5.8198 0,-2.1979 -0.76967,-4.1371 -2.30886,-5.8178 -1.42078,-1.6808 -3.13609,-2.5213 -5.14887,-2.5213 z m -74.76888,0 c -2.01278,0 -3.79035,0.8405 -5.32954,2.5213 -1.42078,1.6807 -2.13,3.6199 -2.13,5.8178 0,2.1979 0.70922,4.139 2.13,5.8198 1.53919,1.5515 3.31676,2.3259 5.32954,2.3259 2.01278,0 3.72809,-0.7744 5.14888,-2.3259 1.53918,-1.6808 2.30886,-3.6219 2.30886,-5.8198 0,-2.1979 -0.76968,-4.1371 -2.30886,-5.8178 -1.42079,-1.6808 -3.1361,-2.5213 -5.14888,-2.5213 z m -29.98632,0 c -2.01278,0 -3.79035,0.8405 -5.32954,2.5213 -1.42078,1.6807 -2.13,3.6199 -2.13,5.8178 0,2.1979 0.70922,4.139 2.13,5.8198 1.53919,1.5515 3.31676,2.3259 5.32954,2.3259 2.01278,0 3.72809,-0.7744 5.14888,-2.3259 1.53918,-1.6808 2.30886,-3.6219 2.30886,-5.8198 0,-2.1979 -0.76968,-4.1371 -2.30886,-5.8178 -1.42079,-1.6808 -3.1361,-2.5213 -5.14888,-2.5213 z m -74.768873,0 c -2.01278,0 -3.790353,0.8405 -5.329537,2.5213 -1.420786,1.6807 -2.130004,3.6199 -2.130004,5.8178 0,2.1979 0.709218,4.139 2.130004,5.8198 1.539184,1.5515 3.316757,2.3259 5.329537,2.3259 2.01278,0 3.728092,-0.7744 5.148877,-2.3259 1.539185,-1.6808 2.30886,-3.6219 2.30886,-5.8198 0,-2.1979 -0.769675,-4.1371 -2.30886,-5.8178 -1.420785,-1.6808 -3.136097,-2.5213 -5.148877,-2.5213 z m 542.434773,-20.3633 c -2.01278,0 -3.79035,0.8404 -5.32954,2.5212 -1.42078,1.5515 -2.13001,3.4266 -2.13001,5.6245 0,2.1979 0.70923,4.137 2.13001,5.8178 1.53919,1.5515 3.31676,2.3279 5.32954,2.3279 2.01278,0 3.72808,-0.7764 5.14887,-2.3279 1.53918,-1.6808 2.30887,-3.6199 2.30887,-5.8178 0,-2.1979 -0.76969,-4.073 -2.30887,-5.6245 -1.42079,-1.6808 -3.13609,-2.5212 -5.14887,-2.5212 z m -18.64796,0 c -2.01278,0 -3.78855,0.8404 -5.32773,2.5212 -1.42078,1.5515 -2.13181,3.4266 -2.13181,5.6245 0,2.1979 0.71103,4.137 2.13181,5.8178 1.53919,1.5515 3.31495,2.3279 5.32773,2.3279 2.01278,0 3.7299,-0.7764 5.15068,-2.3279 1.53919,-1.6808 2.30706,-3.6199 2.30706,-5.8178 0,-2.1979 -0.76787,-4.073 -2.30706,-5.6245 -1.42078,-1.6808 -3.1379,-2.5212 -5.15068,-2.5212 z m -18.82681,0 c -2.01279,0 -3.78855,0.8404 -5.32773,2.5212 -1.42079,1.5515 -2.13,3.4266 -2.13,5.6245 -10e-6,2.1979 0.70921,4.137 2.13,5.8178 1.53918,1.5515 3.31494,2.3279 5.32773,2.3279 2.01277,0 3.72989,-0.7764 5.15068,-2.3279 1.53918,-1.6808 2.30886,-3.6199 2.30886,-5.8178 0,-2.1979 -0.76968,-4.073 -2.30886,-5.6245 -1.42079,-1.6808 -3.13791,-2.5212 -5.15068,-2.5212 z m -67.28042,0 c -2.01278,0 -3.79036,0.8404 -5.32954,2.5212 -1.42079,1.5515 -2.13001,3.4266 -2.13001,5.6245 0,2.1979 0.70922,4.137 2.13001,5.8178 1.53918,1.5515 3.31676,2.3279 5.32954,2.3279 2.01278,0 3.72808,-0.7764 5.14886,-2.3279 1.53919,-1.6808 2.30887,-3.6199 2.30887,-5.8178 0,-2.1979 -0.76968,-4.073 -2.30887,-5.6245 -1.42078,-1.6808 -3.13608,-2.5212 -5.14886,-2.5212 z m -18.64796,0 c -2.01278,0 -3.78855,0.8404 -5.32774,2.5212 -1.42077,1.5515 -2.13181,3.4266 -2.13181,5.6245 0,2.1979 0.71104,4.137 2.13181,5.8178 1.53919,1.5515 3.31496,2.3279 5.32774,2.3279 2.01278,0 3.72989,-0.7764 5.15068,-2.3279 1.53918,-1.6808 2.30705,-3.6199 2.30705,-5.8178 0,-2.1979 -0.76787,-4.073 -2.30705,-5.6245 -1.42079,-1.6808 -3.1379,-2.5212 -5.15068,-2.5212 z m -18.82681,0 c -2.01279,0 -3.78855,0.8404 -5.32773,2.5212 -1.42079,1.5515 -2.13001,3.4266 -2.13001,5.6245 -1e-5,2.1979 0.70922,4.137 2.13001,5.8178 1.53918,1.5515 3.31494,2.3279 5.32773,2.3279 2.01277,0 3.72989,-0.7764 5.15067,-2.3279 1.53919,-1.6808 2.30887,-3.6199 2.30887,-5.8178 0,-2.1979 -0.76968,-4.073 -2.30887,-5.6245 -1.42078,-1.6808 -3.1379,-2.5212 -5.15067,-2.5212 z m -67.28043,0 c -2.01278,0 -3.79035,0.8404 -5.32954,2.5212 -1.42078,1.5515 -2.13001,3.4266 -2.13001,5.6245 0,2.1979 0.70923,4.137 2.13001,5.8178 1.53919,1.5515 3.31676,2.3279 5.32954,2.3279 2.01278,0 3.72808,-0.7764 5.14887,-2.3279 1.53918,-1.6808 2.30887,-3.6199 2.30887,-5.8178 0,-2.1979 -0.76969,-4.073 -2.30887,-5.6245 -1.42079,-1.6808 -3.13609,-2.5212 -5.14887,-2.5212 z m -18.64796,0 c -2.01278,0 -3.78855,0.8404 -5.32773,2.5212 -1.42079,1.5515 -2.13181,3.4266 -2.13181,5.6245 0,2.1979 0.71102,4.137 2.13181,5.8178 1.53918,1.5515 3.31495,2.3279 5.32773,2.3279 2.01278,0 3.7299,-0.7764 5.15068,-2.3279 1.53919,-1.6808 2.30706,-3.6199 2.30706,-5.8178 0,-2.1979 -0.76787,-4.073 -2.30706,-5.6245 -1.42078,-1.6808 -3.1379,-2.5212 -5.15068,-2.5212 z m -18.82681,0 c -2.01278,0 -3.78854,0.8404 -5.32773,2.5212 -1.42078,1.5515 -2.13001,3.4266 -2.13,5.6245 0,2.1979 0.70922,4.137 2.13,5.8178 1.53919,1.5515 3.31495,2.3279 5.32773,2.3279 2.01277,0 3.72989,-0.7764 5.15068,-2.3279 1.53918,-1.6808 2.30887,-3.6199 2.30887,-5.8178 0,-2.1979 -0.76969,-4.073 -2.30887,-5.6245 -1.42079,-1.6808 -3.13791,-2.5212 -5.15068,-2.5212 z m -134.57349,0 c -2.01278,0 -3.79036,0.8404 -5.32954,2.5212 -1.42079,1.5515 -2.13002,3.4266 -2.13002,5.6245 0,2.1979 0.70923,4.137 2.13002,5.8178 1.53918,1.5515 3.31676,2.3279 5.32954,2.3279 2.01277,0 3.72808,-0.7764 5.14886,-2.3279 1.53919,-1.6808 2.30887,-3.6199 2.30887,-5.8178 0,-2.1979 -0.76968,-4.073 -2.30887,-5.6245 -1.42078,-1.6808 -3.13609,-2.5212 -5.14886,-2.5212 z m -18.64796,0 c -2.01278,0 -3.78855,0.8404 -5.32774,2.5212 -1.42077,1.5515 -2.13181,3.4266 -2.13181,5.6245 0,2.1979 0.71103,4.137 2.13181,5.8178 1.53919,1.5515 3.31496,2.3279 5.32774,2.3279 2.01277,0 3.72989,-0.7764 5.15068,-2.3279 1.53918,-1.6808 2.30705,-3.6199 2.30705,-5.8178 0,-2.1979 -0.76787,-4.073 -2.30705,-5.6245 -1.42079,-1.6808 -3.13791,-2.5212 -5.15068,-2.5212 z m -18.82681,0 c -2.01278,0 -3.78855,0.8404 -5.32774,2.5212 -1.42078,1.5515 -2.13,3.4266 -2.13,5.6245 0,2.1979 0.70922,4.137 2.13,5.8178 1.53919,1.5515 3.31496,2.3279 5.32774,2.3279 2.01278,0 3.72988,-0.7764 5.15067,-2.3279 1.53918,-1.6808 2.30887,-3.6199 2.30887,-5.8178 0,-2.1979 -0.76969,-4.073 -2.30887,-5.6245 -1.42079,-1.6808 -3.13789,-2.5212 -5.15067,-2.5212 z m -67.28043,0 c -2.01278,0 -3.79035,0.8404 -5.32954,2.5212 -1.42078,1.5515 -2.13001,3.4266 -2.13001,5.6245 0,2.1979 0.70923,4.137 2.13001,5.8178 1.53919,1.5515 3.31676,2.3279 5.32954,2.3279 2.01278,0 3.72808,-0.7764 5.14887,-2.3279 1.53918,-1.6808 2.30887,-3.6199 2.30887,-5.8178 0,-2.1979 -0.76969,-4.073 -2.30887,-5.6245 -1.42079,-1.6808 -3.13609,-2.5212 -5.14887,-2.5212 z m -18.64796,0 c -2.01278,0 -3.788539,0.8404 -5.327733,2.5212 -1.420786,1.5515 -2.131808,3.4266 -2.131808,5.6245 0,2.1979 0.711022,4.137 2.131808,5.8178 1.539184,1.5515 3.314953,2.3279 5.327733,2.3279 2.01278,0 3.7299,-0.7764 5.15068,-2.3279 1.53919,-1.6808 2.30706,-3.6199 2.30706,-5.8178 0,-2.1979 -0.76787,-4.073 -2.30706,-5.6245 -1.42078,-1.6808 -3.1379,-2.5212 -5.15068,-2.5212 z m -18.826807,0 c -2.012779,0 -3.788549,0.8404 -5.327733,2.5212 -1.420786,1.5515 -2.130004,3.4266 -2.130004,5.6245 0,2.1979 0.709218,4.137 2.130004,5.8178 1.539184,1.5515 3.314945,2.3279 5.327733,2.3279 2.01278,0 3.729887,-0.7764 5.150672,-2.3279 1.539185,-1.6808 2.30887,-3.6199 2.30887,-5.8178 0,-2.1979 -0.769685,-4.073 -2.30887,-5.6245 -1.420785,-1.6808 -3.137892,-2.5212 -5.150672,-2.5212 z"
         inkscape:connector-curvature="0" />
    </g>
  </g>
</svg>
