<?xml version="1.0" encoding="UTF-8" standalone="no"?>
<!-- Created with Inkscape (http://www.inkscape.org/) -->

<svg
   xmlns:dc="http://purl.org/dc/elements/1.1/"
   xmlns:cc="http://creativecommons.org/ns#"
   xmlns:rdf="http://www.w3.org/1999/02/22-rdf-syntax-ns#"
   xmlns:svg="http://www.w3.org/2000/svg"
   xmlns="http://www.w3.org/2000/svg"
   xmlns:sodipodi="http://sodipodi.sourceforge.net/DTD/sodipodi-0.dtd"
   xmlns:inkscape="http://www.inkscape.org/namespaces/inkscape"
   width="24in"
   height="12in"
   viewBox="0 0 1728 864"
   version="1.1"
   id="svg8"
   inkscape:version="0.92.3 (2405546, 2018-03-11)"
   sodipodi:docname="Placement stencil upper half Try #2.svg">
  <defs
     id="defs2" />
  <sodipodi:namedview
     id="base"
     pagecolor="#3f3f3f"
     bordercolor="#ff0000"
     borderopacity="1"
     inkscape:pageopacity="0"
     inkscape:pageshadow="2"
     inkscape:zoom="0.96"
     inkscape:cx="1218.0919"
     inkscape:cy="1351.7797"
     inkscape:document-units="in"
     inkscape:current-layer="layer1"
     showgrid="true"
     units="in"
     gridtolerance="10"
     inkscape:window-width="1920"
     inkscape:window-height="1017"
     inkscape:window-x="-8"
     inkscape:window-y="-8"
     inkscape:window-maximized="1"
     borderlayer="true"
     showborder="false"
     inkscape:snap-global="true"
     inkscape:snap-grids="false"
     inkscape:snap-to-guides="false"
     inkscape:snap-intersection-paths="true"
     inkscape:object-paths="true"
     inkscape:snap-smooth-nodes="false">
    <inkscape:grid
       type="xygrid"
       id="grid815"
       units="in"
       spacingx="18"
       spacingy="18"
       empspacing="4"
       empcolor="#007fff"
       empopacity="0.25098039"
       color="#0000ff"
       opacity="0.1254902"
       originy="-1692" />
  </sodipodi:namedview>
  <metadata
     id="metadata5">
    <rdf:RDF>
      <cc:Work
         rdf:about="">
        <dc:format>image/svg+xml</dc:format>
        <dc:type
           rdf:resource="http://purl.org/dc/dcmitype/StillImage" />
        <dc:title></dc:title>
        <dc:creator>
          <cc:Agent>
            <dc:title>Doctor Wizard</dc:title>
          </cc:Agent>
        </dc:creator>
        <dc:rights>
          <cc:Agent>
            <dc:title>© 2019 Doctor Wizard and Wizlights</dc:title>
          </cc:Agent>
        </dc:rights>
        <dc:publisher>
          <cc:Agent>
            <dc:title>Doctor Wizard</dc:title>
          </cc:Agent>
        </dc:publisher>
      </cc:Work>
    </rdf:RDF>
  </metadata>
  <g
     inkscape:label="Layer 1"
     inkscape:groupmode="layer"
     id="layer1"
     transform="translate(0,-528.09999)">
    <path
       id="path5514"
       style="fill:none;stroke:#000000;stroke-width:0.75px;stroke-linecap:butt;stroke-linejoin:miter;stroke-opacity:1"
       d="m 843.31658,1034.0494 21.25927,22.4366 m 147.36865,-617.10435 12.2088,2.15654 m 21.9639,34.56167 -11.0493,-2.5392 m 195.1986,-233.38605 -3.2127,16.20691 m -94.0139,-16.39113 3.7896,12.71229 m 79.5901,202.23777 0.2628,9.19801 m -75.4238,-10.09863 1.3474,10.29339 m 1.776,81.76677 v 12.15169 m 71.6292,-12.15169 v 10.46629 m -451.52705,859.16642 42.4539,0.5092 M 507.51115,368.64889 525.9393,357.31997 m -63.38875,-126.19096 -0.57256,15.68354 m 55.69586,12.61737 -2.81696,21.26312 M 522,306.3409 l 9.63882,23.75909 m 215.63194,132.66114 -22.48145,-24.66114 m -1.26655,144 24.69792,6.68393 m -50.34578,0.31664 14.56545,-7.00057 M 993.6168,1698.1 l 23.1148,-9.9415 m 84.1645,114.8499 20.6433,-23.0242 m 30.8284,-43.2775 1.5249,26.4257 m -22.6875,-89.7437 2.8023,30.2432 M 1087.0256,1595.0663 1116,1554.1 M 966.1305,1204.7619 954,1230.1 m -77.40075,-174.5017 46.0902,4.0295 M 852.71197,1140.1 846,1094.7749 m 130.36245,108.4504 1.42238,-18.8413 m 55.09537,-30.0808 4.433,29.7642 m -40.52997,112.0906 7.59937,29.4476 m 47.5467,111.4439 5.0156,45.0505 m -22.7284,-75.3362 23.6782,-21.3132 m 102.3651,-119.1445 0.5403,-17.995 M 1086.1515,1161.8272 1080,1140.1 m 0,30.3519 8.6813,-3.6588 m 70.5384,266.0565 4.1163,-17.3183 m 37.3635,12.5687 -6.6495,18 m 60.7965,-279.381 -9.379,-4.7535 m -22.2408,4.0958 -4.1575,2.5195 m 31.3428,-33.9093 5.9814,-4.6967 m -24.561,0.7442 -0.5798,2.9472 m 21.8537,-108.435 5.6074,12.4116 m 3.7717,-30.5332 -17.405,8.937 M 1080,1010.8652 v -14.76521 m -66.4348,4.63281 2.2164,-14.56549 m -0.9499,-31.03074 v -5.69952 m 57.9451,-25.33706 -0.3166,-10.44328 m 7.5398,-49.07922 21.5911,-24.06465 m -83.2764,74.09379 -0.3166,5.06624 m -1.8998,-62.3781 1.2665,4.7496 m 34.5138,-50.34578 -3.1664,11.39904 M 1098,791.43362 v 14.88208 m 149.2456,-44.21571 -4.5512,8.88428 z m -28.8735,0.73682 0.7119,6.95214 z m 25.7461,37.6377 -3.0528,8.6499 z m -26.7642,4.11767 -0.104,3.73535 z m 32.8711,22.19971 1.9322,10.95117 z m -32.5678,13.68164 -8.5489,7.76367 z m -15.9771,25.43115 7.2275,19.28173 z m 50.0698,2.52392 -9.0556,3.73975 z m -1.3213,22.73585 7.4268,16.22167 z m -33.0747,14.61181 2.8491,3.60352 z m -67.4492,54.80497 h -44.0581 a 53.891996,53.892002 0 0 0 44.0581,43.33597 z m 0,-62.896 a 53.891996,53.892002 0 0 0 -44.3291,45.1128 h 44.3291 z m 61.8413,62.896 h -44.0581 v 43.38427 a 53.891996,53.892002 0 0 0 44.0581,-43.38427 z m 0.2637,-17.7832 a 53.891996,53.892002 0 0 0 -44.3218,-45.0644 v 45.0644 z m -53.2494,13.3196 a 4.3919999,4.3919999 0 0 1 -4.392,-4.392 4.3919999,4.3919999 0 0 1 4.392,-4.392 4.3919999,4.3919999 0 0 1 4.392,4.392 4.3919999,4.3919999 0 0 1 -4.392,4.392 z m -440.25315,4.3814 h -44.0581 a 53.891996,53.892002 0 0 0 44.0581,43.33587 z m 0,-62.8961 a 53.891996,53.892002 0 0 0 -44.3291,45.1128 h 44.3291 z m 61.8413,62.8961 h -44.0581 v 43.38427 a 53.891996,53.892002 0 0 0 44.0581,-43.38427 z m 0.2637,-17.7833 a 53.891996,53.892002 0 0 0 -44.3218,-45.0644 v 45.0644 z m -53.2494,13.3197 a 4.3919999,4.3919999 0 0 1 -4.392,-4.392 4.3919999,4.3919999 0 0 1 4.392,-4.392 4.3919999,4.3919999 0 0 1 4.392,4.392 4.3919999,4.3919999 0 0 1 -4.392,4.392 z m -227.476,147.65807 c -0.01,-6.977 -1.2501,-14.0619 -3.7339,-21.2549 -5.6609,-16.3932 -14.7164,-30.1615 -27.1655,-41.3056 -7.3423,-6.5813 -15.1716,-11.5812 -23.4873,-15 v 29.9824 c 2.768,1.4441 5.4017,3.6235 7.9014,6.5361 3.8784,4.3941 6.7701,9.351 8.6763,14.8712 4.4478,12.8805 1.2132,27.1997 -9.7032,42.9595 l 43.818,3.8187 c 2.4714,-6.761 3.7034,-13.6303 3.6972,-20.6074 z m 243.6806,699.6293 -215.5212,-90.8199 -3.9857,-11.5423 113.4315,-42.9243 -150.516,-64.4684 -3.9858,-11.5423 164.3134,-57.4724 12.3038,35.6303 -98.9011,34.4562 130.4403,56.8779 8.4046,24.339 -97.6013,38.22 129.4004,53.8668 z m -185.7084,-665.6355 -43.7355,-126.3644 214.8852,8.4057 13.9388,40.2732 -176.7892,-6.9155 29.7967,86.0912 z m 20.0796,58.0158 -13.9388,-40.2732 214.8852,8.4057 13.9388,40.2732 z m 90.7103,216.2808 q -33.0932,-42.174 -46.0219,-79.5288 -16.4639,-47.5691 2.7831,-78.4833 19.2472,-30.9144 67.4624,-29.0283 48.2152,1.8861 91.4747,36.1091 42.3613,33.3242 58.82522,80.8933 11.00962,31.81 7.21887,75.9958 l -43.45329,-1.6998 q 9.2598,-41.9566 -2.6589,-76.3931 -10.4035,-30.059 -38.01,-51.2907 -27.6065,-21.2318 -58.2619,-22.4309 -32.4411,-1.269 -44.4133,19.2781 -11.9723,20.5472 -0.8616,52.649 4.8483,14.0081 18.4664,34.6926 l 31.2507,1.2225 -10.9087,-31.5181 38.096,1.4902 24.8474,71.7912 z m 55.2556,205.4568 -13.9388,-40.2732 88.3946,3.4577 -35.756,-103.3094 -88.3946,-3.4577 -13.9388,-40.2733 214.88521,8.4058 13.9388,40.2732 -88.39461,-3.4577 35.756,103.3094 88.39464,3.4577 13.93875,40.2732 z m 387.77725,-169.1983 c -5.1194,-4.1737 -8.3539,-8.2807 -9.7046,-12.3223 -1.2007,-3.5925 -0.4055,-8.2148 2.3848,-13.8677 -11.5005,-2.9786 -22.2568,-6.8727 -32.2676,-11.6806 -3.5323,4.2898 -4.2226,9.6545 -2.0713,16.0913 4.4275,13.2475 18.3132,20.5061 41.6587,21.7793 z m 66.3896,120.208 c 0,-0.2753 -0.056,-0.5998 -0.1816,-0.9742 -1.5259,-4.5654 -6.4717,-13.5059 -14.8374,-26.8212 l -92.6192,-20.814 c 2.6264,-2.4285 4.2924,-4.7249 5.001,-6.8906 0.7337,-2.0909 0.4512,-5.0816 -0.8496,-8.9737 -4.6777,-13.9959 -18.3445,-27.6004 -41.001,-40.8134 -17.9897,-10.4844 -35.71064,-17.1488 -53.16354,-20.0171 -11.2129,-6.7795 -18.73606,-11.7404 -22.52637,-14.8623 -3.6991,-3.0676 -6.03661,-6.0605 -7.01221,-8.9795 -0.5503,-1.6466 -0.0391,-2.9796 1.53077,-3.9961 1.6925,-0.9365 4.14351,-1.3177 7.35352,-1.1426 8.07359,0.4403 22.32224,3.4959 42.74413,9.1655 l 49.4194,13.7183 -0.4497,-1.3491 -17.2631,-28.9366 c -30.8448,-9.786 -55.93297,-16.1431 -75.30767,-19.0971 l 3.23291,0.1758 c -15.0913,-10.0081 -25.2972,-17.398 -30.6167,-22.1704 -5.3195,-4.7724 -8.65408,-9.1801 -10.00488,-13.2217 -1.3258,-3.9668 0.09,-7.0118 4.25098,-9.1363 4.1604,-2.1246 10.47177,-2.9575 18.93457,-2.496 3.79359,0.2069 10.84892,0.8871 21.16552,2.0375 26.111,16.1202 49.63257,28.2033 70.56297,36.252 20.9305,8.0487 41.3166,12.6156 61.1602,13.6978 7.0036,0.3819 12.3112,-0.027 15.9214,-1.2261 3.7325,-1.1192 5.2372,-2.7645 4.5117,-4.935 -0.1501,-0.4491 -0.5705,-1.133 -1.2598,-2.0523 l -23.2456,-29.2632 c -27.3756,-11.0454 -56.5005,-20.7536 -87.375,-29.124 -27.93009,-7.5722 -51.57066,-12.1664 -70.95116,-13.8003 -12.6365,-7.8516 -19.75774,-14.1525 -21.34424,-18.8995 -1.4008,-4.1913 -0.45284,-8.0717 2.84326,-11.6396 29.0097,9.0771 52.61029,14.112 70.80029,15.1041 3.69641,0.2016 6.64829,0.033 8.85498,-0.5084 2.2067,-0.5409 3.68377,-2.261 4.43407,-5.1592 0.8727,-2.8182 0.2453,-7.4076 -1.88084,-13.7695 -5.6283,-16.8402 -18.44412,-31.759 -38.44922,-44.7539 -18.6249,-12.1525 -38.24385,-19.1466 -58.85596,-20.9883 -11.5402,-6.8007 -19.79088,-12.3915 -24.66357,-16.7417 -5.05,-4.5373 -8.29911,-8.9758 -9.75,-13.3168 -1.801,-5.3889 -0.46851,-9.5426 4.00049,-12.4586 4.56619,-2.9107 11.61661,-4.1058 21.14941,-3.5859 7.8791,0.4297 21.81577,2.6951 41.80957,6.7983 9.0577,14.5289 19.71873,25.2881 31.98633,32.2764 4.4746,0.2441 7.20969,0.2819 8.20459,0.1157 1.0923,-0.1608 1.76894,-0.7112 2.02734,-1.6523 -10.4139,-8.8713 -17.84828,-17.3959 -22.30078,-25.5747 19.3491,5.3171 37.95398,11.5479 55.81344,18.6943 17.9817,7.2264 30.5515,12.6889 37.708,16.3857 7.2539,3.7024 11.6088,5.5938 13.0679,5.6734 0.5837,0.032 0.7264,-0.4011 0.4263,-1.2993 -0.025,-0.075 -3.0342,-4.6486 -9.0264,-13.7197 -5.9671,-8.9961 -10.5812,-14.9424 -13.8413,-17.8389 -3.2351,-2.8218 -10.9672,-7.1007 -23.1987,-12.8379 -12.1091,-5.6572 -23.98246,-10.7508 -35.61916,-15.2798 -11.6367,-4.5291 -25.56985,-8.9257 -41.79785,-13.1909 -3.4158,-6.5057 -6.80448,-14.0758 -10.16748,-22.7095 30.84109,4.8417 52.19777,9.0188 64.06786,12.5318 11.87013,3.5131 21.47333,7.6743 28.81053,12.4833 7.4595,4.8892 11.8701,7.3714 13.232,7.4458 0.9727,0.053 2.453,-2.6582 4.4428,-8.1342 -6.9731,-4.8628 -11.2589,-9.69 -12.8598,-14.48 -0.8005,-2.395 -1.0991,-6.8572 -0.8936,-13.3858 0.3028,-6.5233 0.066,-10.9438 -0.709,-13.2641 -3.577,-10.7027 -14.4252,-21.8769 -32.54587,-33.5201 -18.1207,-11.6428 -34.37997,-17.8564 -48.77637,-18.6415 -6.5173,-0.3554 -12.08621,0.5531 -16.708,2.726 -4.52451,2.178 -6.29875,4.7276 -5.32325,7.6465 0.8755,2.6196 3.95377,5.5426 9.23437,8.77 5.3778,3.2325 9.52566,4.9284 12.44385,5.0874 1.6537,0.09 3.01705,-0.9754 4.08984,-3.1948 3.4545,-4.8084 8.29414,-7.0412 14.51954,-6.7016 6.2255,0.3395 12.98014,2.6909 20.26465,7.0561 7.3817,4.3705 12.13551,9.7368 14.26172,16.0986 0.9756,2.919 1.14617,6.7123 0.50976,11.3804 -0.6113,4.7429 -0.3798,8.7245 0.6958,11.9429 1.6509,4.9398 5.77066,11.4092 12.36036,19.4106 -26.1222,-17.2964 -44.80611,-28.1991 -56.05371,-32.707 -11.2476,-4.5078 -25.18906,-8.5006 -41.82276,-11.9795 -8.802,-13.1923 -20.15767,-24.0264 -34.06787,-32.5005 -7.1454,0.051 -11.15354,0.3474 -12.02344,0.8877 12.679,9.3623 21.34714,18.5789 26.00245,27.6504 -26.68061,-4.3942 -46.41749,-9.4377 -59.20752,-15.1319 -12.7651,-5.6193 -20.4217,-12.2466 -22.9732,-19.8808 -3.477,-10.4035 4.8519,-15.0551 24.9873,-13.9571 8.17109,0.4458 11.76705,-0.7916 10.79156,-3.7104 -0.6754,-2.0209 -4.87904,-5.8877 -12.61376,-11.6001 -7.6124,-5.6323 -13.705,-8.5734 -18.2769,-8.8227 -6.2254,-0.3396 -11.4938,2.9002 -15.8042,9.7192 -4.2132,6.8244 -4.4682,15.7764 -0.7661,26.8535 5.0029,14.969 16.2895,28.736 33.8599,41.3042 17.69282,12.6484 43.3777,22.2055 77.05369,28.6714 1.04501,2.5551 4.02787,9.4781 8.94727,20.7686 -13.5598,-2.2826 -24.37698,-3.6422 -32.45068,-4.0826 -19.4546,-1.0608 -33.24028,1.1265 -41.35547,6.5625 -8.09021,5.5108 -10.65831,12.6811 -7.70651,21.5128 2.6265,7.8587 8.0457,15.6503 16.2612,23.373 8.1705,7.6461 19.75666,16.2594 34.71386,25.8282 -8.41549,0.6324 -14.9938,2.6882 -19.7168,6.1816 -6.66179,4.9274 -8.54134,11.732 -5.63964,20.414 4.6527,13.9212 19.38243,26.8491 44.18994,38.7832 -3.6712,5.0171 -4.60764,10.2205 -2.80665,15.6094 0.70041,2.0956 2.52692,4.9868 5.47852,8.6748 2.82,3.416 6.76919,6.9878 11.8169,10.7139 -8.7257,0.4394 -15.48432,2.2966 -20.26611,5.5781 -6.4227,4.4995 -8.29575,10.7534 -5.61915,18.7617 2.3263,6.9606 7.63372,14.415 15.92432,22.3623 8.1675,7.7931 19.73572,16.9244 34.64062,27.3707 -0.43359,-0.028 -0.88856,-0.068 -1.31396,-0.092 -9.63,-0.5251 -17.10453,0.684 -22.42383,3.627 -5.2221,2.9484 -7.03254,6.8188 -5.43164,11.6089 2.8608,8.5598 18.81361,22.0562 47.80371,40.4693 -8.3912,0.1504 -15.25097,2.1042 -20.56787,5.8755 -6.1559,4.4404 -8.17014,9.8424 -6.04395,16.204 1.95111,5.838 7.48192,12.5318 16.59522,20.0831 9.1382,7.6258 21.20193,14.8602 36.19043,21.7031 -12.9123,-0.6308 -22.21165,0.4042 -27.89795,3.1069 -5.6612,2.7774 -7.60461,6.8252 -5.82861,12.1392 1.45089,4.3409 5.54741,9.451 12.2871,15.3295 6.63851,5.7648 18.30876,14.1624 34.91459,25.147 -8.29214,0.3053 -15.01605,2.0704 -20.15336,5.3071 -6.42549,4.2055 -8.53664,9.6018 -6.33544,16.188 2.2513,6.736 7.73596,13.4279 16.45166,20.0757 8.74084,6.7226 21.31554,14.2042 37.72704,22.4473 -27.3643,-2.1537 -39.06889,2.6836 -35.11669,14.5093 1.5759,4.7151 5.46409,9.7762 11.66459,15.1846 5.9626,5.2007 17.8072,13.8484 35.4096,25.8676 -9.3963,-0.3367 -16.4413,0.9971 -21.1274,4.0093 -4.9275,3.2585 -6.4276,7.7706 -4.5015,13.5337 3.577,10.7028 17.9914,23.6852 43.2437,38.9502 l -33.6592,-8.5591 c -24.5939,-27.868 -46.47246,-42.3232 -65.63526,-43.3682 -0.31704,-0.017 -0.61017,-0.014 -0.91846,-0.024 l -13.49853,-39.0014 -38.09619,-1.4897 20.20166,58.3667 -176.78907,-6.9156 13.938,40.273 176.78905,6.9155 20.20167,58.3667 38.09623,1.4912 -24.82036,-71.7129 c 13.39433,7.974 32.29746,15.6081 56.71726,22.8985 19.5272,21.5661 36.862,37.4276 52.0034,47.5854 l 16.7798,0.9141 c -19.5075,-11.7921 -37.2334,-26.5358 -53.1753,-44.2325 l 123.857,35.4112 -17.6851,-31.0547 -50.0918,-15.2959 c -15.5526,-4.8161 -29.1934,-10.4843 -40.9219,-17.0024 -11.7034,-6.4433 -18.3314,-11.9843 -19.8823,-16.6245 -1.5259,-4.5656 2.0897,-6.6092 10.8443,-6.1319 10.6027,0.5784 27.4356,4.6544 50.5004,12.2315 l 48.0264,16.3975 -18.3603,-33.0748 -40.6641,-12.7998 c -11.8238,-3.7479 -22.8675,-6.455 -33.1392,-8.1328 -10.0688,-6.6053 -17.7147,-11.7619 -22.8647,-15.4234 -5.1639,-3.7353 -8.2339,-7.0624 -9.2095,-9.9813 -1.5259,-4.5657 1.8943,-6.6204 10.2598,-6.1641 7.9764,0.435 23.5639,3.7841 46.7622,10.0458 l 46.0532,12.2124 -2.1006,-6.2885 -24.1421,-23.8008 c 9.9357,-3.1323 13.3398,-9.3766 10.2129,-18.7324 -2.4764,-7.4096 -9.4148,-16.1655 -20.8125,-26.2662 -11.3977,-10.1005 -24.7479,-18.6175 -40.0532,-25.5512 -11.928,-5.354 -23.6468,-8.8507 -35.1548,-10.5103 -18.7884,-11.3646 -28.98663,-19.3861 -30.54343,-24.0439 -0.6503,-1.9461 -0.0578,-3.4567 1.77978,-4.5322 1.837,-1.0755 4.60497,-1.5127 8.30127,-1.3111 15.75818,0.8592 64.27038,10.853 145.53518,29.981 20.3161,4.782 31.0071,7.2015 32.0771,7.2598 1.1673,0.064 1.7562,-0.3164 1.7666,-1.1426 z M 1087.319,891.11024 c 0.016,-8.3232 -2.4565,-16.25685 -7.4165,-23.64405 -1.8601,-2.63895 -4.033,-4.67993 -6.5171,-6.126 -2.4842,-1.38315 -4.9703,-1.98225 -7.4575,-1.81643 -2.4354,0.16253 -4.4055,0.90196 -5.9107,2.21048 -1.5051,1.29765 -2.2557,2.8932 -2.2632,4.79445 -0.01,3.76372 3.2745,7.28895 9.8482,10.67872 2.4844,1.37153 4.1931,2.52541 5.124,3.45113 0.9308,0.9714 1.3916,2.07022 1.3916,3.29152 -0.01,2.03558 -1.2507,3.48211 -3.7398,4.33155 -2.4371,0.83768 -6.4018,1.1943 -11.8944,1.07813 -2.1764,-0.0457 -3.5748,-0.36495 -4.1954,-0.95362 -0.5688,-0.5856 -0.8527,-1.98833 -0.8452,-4.20998 -0.031,-9.99585 -3.3061,-17.34487 -9.8247,-21.90233 -4.1386,-2.82045 -8.9034,-3.99262 -14.2925,-3.57569 -3.3681,0.26062 -6.6077,1.04962 -9.7192,2.3496 -3.0597,1.27402 -5.5492,2.85982 -7.4707,4.75634 -2.9083,2.85143 -4.3679,6.41686 -4.3784,10.7373 -0.01,4.18868 1.8722,7.94588 5.6469,11.33941 1.2928,1.1403 1.9381,2.05305 1.9366,2.73045 0,0.6096 -0.677,1.24837 -2.0259,1.91017 -3.7358,1.8927 -5.6078,4.55108 -5.6162,8.01412 -0.01,2.70443 1.1274,5.38846 3.4013,8.08156 1.8088,2.21572 4.0586,4.11322 6.75,5.69385 2.6914,1.63897 5.2809,2.61187 7.7681,2.9004 1.9173,0.22245 3.0064,-0.21788 3.2681,-1.32278 0.2616,-1.10677 0.5481,-1.82145 0.8598,-2.14447 0.3117,-0.32393 1.0389,-0.62483 2.1797,-0.90383 2.3854,-0.55687 7.5938,-0.45555 15.6255,0.312 l 11.5811,1.22318 c 5.4926,0.5268 9.7941,0.41752 12.9052,-0.34133 3.1628,-0.7323 5.9648,-2.31645 8.4053,-4.76662 4.5697,-4.73438 6.8625,-10.8258 6.876,-18.17723 z m -20.7497,152.54156 c 0,0 -26.2716,-12.3817 -26.2716,-12.3817 -3.1091,-1.4653 -5.6493,-2.1377 -7.6207,-2.0273 -1.9714,0.1328 -2.959,1.0124 -2.9627,2.649 0,1.3875 0.9255,3.6864 2.7858,6.9174 0.4651,0.7761 0.6971,1.4346 0.6959,1.9744 0,0.8637 -0.755,1.266 -2.2593,1.2017 -1.5043,-0.071 -3.1374,-0.5711 -4.8992,-1.4943 -3.2127,-1.6836 -6.2931,-4.4697 -9.2413,-8.323 -6.2585,-7.9465 -9.3797,-15.173 -9.3636,-21.8352 0.013,-5.277 2.3549,-8.5392 7.0263,-9.8658 4.7231,-1.41136 10.9192,-0.66061 18.5882,2.3322 0,0 35.9096,14.0136 35.9096,14.0136 1.1919,0.4651 1.9175,0.6271 2.1771,0.4857 0.3113,-0.081 0.4679,-0.587 0.4697,-1.5173 0,0 0.012,-6.2493 0.012,-6.2493 0,-1.173 0.237,-1.8372 0.7039,-1.9932 0.5189,-0.1383 1.6851,0.1173 3.4987,0.7674 0,0 3.4199,1.2259 3.4199,1.2259 1.5545,0.5987 2.6936,1.4865 3.4173,2.6657 0,0 22.3302,38.5761 22.3302,38.5761 0.465,0.9611 0.6965,1.9975 0.6945,3.1081 0,0 -0.01,5.3972 -0.01,5.3972 0,1.1106 -0.3143,1.6978 -0.9367,1.7609 -0.5708,0.1304 -1.737,-0.22 -3.4988,-1.0503 0,0 -10.4931,-4.9453 -10.4931,-4.9453 -1.5545,-0.7327 -2.5653,-1.0182 -3.0324,-0.8572 -0.4671,0.2022 -0.702,0.9579 -0.7044,2.2676 0,0 -0.023,11.7243 -0.023,11.7243 0,1.5632 -0.3676,2.3887 -1.094,2.4753 -0.6745,0.1117 -2.1517,-0.4289 -4.4317,-1.6205 0,0 -4.5858,-2.3968 -4.5858,-2.3968 -2.4873,-1.3 -4.2226,-2.4914 -5.206,-3.5717 -0.9316,-1.0502 -1.3959,-2.3198 -1.393,-3.8109 0,0 0.022,-10.9425 0.022,-10.9425 0,-1.1286 -0.2553,-2.0172 -0.7727,-2.665 -0.5174,-0.6467 -1.5015,-1.3114 -2.9524,-1.9952 0,0 0,0 0,0 m -8.2246,-48.09146 c 0,0 -27.3614,-8.52675 -27.3614,-8.52675 -2.0728,-0.6369 -3.6019,-0.94755 -4.5873,-0.93285 -0.9854,0.0473 -2.8792,0.47535 -5.6815,1.26067 -0.8302,0.22253 -1.9967,0.0645 -3.4995,-0.47212 -3.4199,-1.22115 -5.8004,-3.393 -7.1413,-6.49695 -1.3409,-3.0792 -2.0033,-7.9635 -1.987,-14.6715 0.011,-4.56015 0.6406,-7.61618 1.8888,-9.18068 1.3002,-1.63454 3.4012,-2.09632 6.3029,-1.37197 1.0364,0.25868 1.7875,0.54885 2.2534,0.87105 0.5177,0.3357 1.7338,1.33102 3.6483,2.9967 2.1732,1.95818 9.426,4.5768 21.7586,7.84065 7.1508,1.89255 12.4375,2.6727 15.8601,2.3214 2.7484,-0.31252 4.1254,-1.85902 4.1309,-4.62705 0.01,-2.64937 -1.1049,-4.72365 -3.3312,-6.21307 -2.2261,-1.47645 -6.2669,-2.85938 -12.1222,-4.15838 0,0 -15.3899,-3.41437 -15.3899,-3.41437 -3.0572,-0.6783 -5.1561,-1.02015 -6.2966,-1.02698 -1.1407,0.0263 -3.3449,0.40373 -6.6128,1.1097 -0.9336,0.16155 -1.9963,0.10215 -3.1881,-0.1764 -3.0572,-0.7146 -5.308,-2.6133 -6.7524,-5.67517 -1.4443,-3.03413 -2.1595,-7.41495 -2.1456,-13.1631 0.022,-9.1839 3.0129,-13.39995 8.972,-12.64838 1.2436,0.1569 2.176,0.4119 2.7971,0.76583 0.673,0.39622 1.604,1.2252 2.7933,2.49262 0.9824,1.03853 2.0952,1.76895 3.3383,2.1885 1.2948,0.42878 4.4293,1.10333 9.4033,2.0271 5.9066,1.10145 12.0985,2.12198 18.5757,3.05438 3.5754,0.51465 5.9077,0.63547 6.9967,0.3603 1.1408,-0.2313 2.5164,-1.22235 4.1267,-2.98515 1.4026,-1.5288 3.1143,-2.17313 5.1351,-1.92248 2.0728,0.2571 3.7554,1.17833 5.0481,2.77155 1.3444,1.61085 3.0228,4.8039 5.0349,9.60953 1.7542,4.272 3.2236,8.38627 4.4082,12.33202 1.2365,3.98063 1.8534,6.67658 1.8508,8.06843 0,1.26532 -0.5744,2.19697 -1.716,2.79112 -1.1416,0.6306 -2.4898,0.77183 -4.0443,0.42773 -0.1555,-0.0345 -0.8032,-0.19845 -1.943,-0.492 -0.4145,-0.1329 -0.7772,-0.2337 -1.0881,-0.3024 -2.4872,-0.5496 -3.7325,-0.01 -3.7357,1.61872 0,0.97725 0.9806,2.24573 2.9475,3.81473 6.4185,5.11792 9.6212,11.18437 9.6081,18.10297 -0.01,5.31548 -1.7287,9.3453 -5.1559,12.03563 -2.4405,1.82707 -5.3199,2.6934 -8.6382,2.61112 -3.2665,-0.0841 -8.0868,-1.09147 -14.4608,-3.0147 0,0 0,0 0,0 m 23.624,-151.21305 c 0,0 -45.1591,4.79535 -45.1591,4.79535 -3.5754,0.37965 -6.1927,0.87135 -7.8518,1.47157 -1.6592,0.63083 -3.1899,1.68196 -4.592,3.14791 -1.1425,1.1865 -2.1287,1.98727 -2.9585,2.40682 -0.7782,0.44768 -1.7891,0.72428 -3.0327,0.83138 -6.6845,0.57555 -10.0136,-4.53953 -9.9874,-15.34508 0.014,-5.8158 0.7507,-10.5561 2.2098,-14.24685 0.521,-1.26705 1.4301,-2.3985 2.7273,-3.39623 1.2971,-0.97064 2.7747,-1.62885 4.4329,-1.96972 1.3991,-0.28762 2.4868,-0.32205 3.2632,-0.1017 0.7764,0.22238 2.0177,0.94358 3.7241,2.1756 1.1894,0.8565 3.1308,1.26368 5.8242,1.221 2.6935,-0.0345 6.7088,-0.53948 12.0461,-1.52107 1.71,-0.31455 4.8969,-0.99465 9.561,-2.04443 4.7157,-1.02608 7.4622,-1.65187 8.2397,-1.8744 2.125,-0.6309 3.7594,-2.0424 4.9034,-4.2423 1.4041,-2.74328 3.4793,-4.40602 6.2256,-4.97303 3.2645,-0.67394 5.6967,0.48608 7.2965,3.50288 2.2193,4.22003 4.101,8.88795 5.6453,13.99493 1.5442,5.15332 2.3136,9.22365 2.308,12.17602 -0.01,2.31975 -1.613,3.65018 -4.8256,3.99135 0,0 0,0 0,0 m 34.0679,-17.1525 c -0.01,3.96548 -0.8675,7.21545 -2.5816,9.7344 -1.6622,2.493 -3.9183,3.88568 -6.7683,4.1928 -3.9899,0.42998 -7.1477,-0.91042 -9.4734,-3.9897 -3.6693,-4.79542 -5.497,-10.8516 -5.4831,-18.2469 0.01,-3.1206 0.7359,-5.7363 2.1903,-7.85812 1.87,-2.86673 4.4632,-4.64633 7.7796,-5.31998 4.4563,-0.90525 7.949,1.14143 10.4783,6.19463 2.5808,5.20807 3.8669,10.32457 3.8582,15.29287 0,0 0,0 0,0 m 2.3222,-83.83897 c -0.011,6.0042 -0.979,11.97472 -2.9055,17.87265 -0.8851,2.63355 -1.3284,4.37715 -1.3299,5.23867 0,0.9069 0.591,2.63842 1.7776,5.20793 0.3611,0.85499 0.5407,1.78492 0.539,2.78842 -0.01,2.55458 -1.7188,5.44403 -5.1429,8.63783 -5.4992,5.04847 -11.5133,8.32425 -18.0423,9.906 -4.4563,1.07955 -8.0559,1.0284 -10.7987,-0.1323 -2.7429,-1.09125 -4.1115,-3.0885 -4.1058,-6.01238 0.01,-2.3886 1.0973,-5.0442 3.2782,-7.9881 0.675,-0.90307 3.1137,-3.35347 7.3162,-7.39747 7.0042,-6.8835 10.512,-13.51238 10.5234,-19.75208 0.011,-5.67255 -2.4426,-9.26407 -7.3591,-10.70857 -4.9166,-1.31385 -11.5462,-0.2784 -19.8888,3.0411 -12.3845,4.92772 -22.9342,11.42857 -31.6493,19.31692 -3.1646,2.86508 -5.7081,5.79368 -7.6304,8.78985 -1.8706,2.94953 -2.8084,5.53403 -2.8134,7.77435 0,1.8492 0.8733,3.07493 2.6325,3.68738 1.8109,0.64575 4.1154,0.53415 6.9135,-0.3456 2.4873,-0.78195 4.2502,-1.85625 5.2888,-3.22793 0.4154,-0.543 0.6494,-1.0101 0.7021,-1.40047 0.1043,-0.36998 0.1584,-1.4523 0.1623,-3.24698 0,-1.60777 0.7058,-3.19305 2.1072,-4.7631 1.4532,-1.55977 3.2679,-2.72445 5.4442,-3.48705 4.3009,-1.5069 7.3537,-0.4263 9.1586,3.27668 1.9593,4.1352 2.9327,9.35827 2.92,15.6276 -0.014,6.70575 -0.9316,12.56347 -2.7545,17.53665 -1.7705,4.67842 -4.9616,7.49377 -9.5734,8.47972 -1.8655,0.39878 -3.4967,0.27473 -4.8938,-0.36607 -1.3452,-0.64418 -2.1458,-1.683 -2.4017,-3.12075 -0.2563,-1.24838 -0.669,-2.00993 -1.2382,-2.28503 -0.5173,-0.24885 -1.8378,-0.32235 -3.9614,-0.21727 -8.2356,0.44655 -15.1206,-0.79905 -20.6551,-3.6777 -3.7758,-1.8957 -6.7211,-4.56135 -8.8358,-8.0085 -2.1149,-3.3537 -3.1669,-7.21785 -3.1562,-11.63738 0.017,-7.2228 2.6504,-14.89965 7.8986,-23.19772 5.3523,-8.7396 12.8255,-17.10945 22.4196,-25.09823 7.9865,-6.8328 16.6173,-12.56002 25.8927,-17.06722 9.379,-4.5576 18.2877,-6.84788 26.7261,-6.7263 9.0598,0.29205 16.0435,3.5721 20.9512,9.83602 4.3397,5.6103 6.5011,13.26705 6.4844,22.84643 0,0 0,0 0,0 m 72.713,777.76828 q -5.7396,-1.4185 -11.3224,-8.9263 -5.007,-6.5995 -6.7169,-13.2778 -0.9422,-3.6798 0.3662,-6.1651 1.1862,-2.5154 4.4834,-1.7005 l 80.7208,19.9508 8.7581,17.2292 -71.3176,-17.6267 q 0.6281,1.5596 0.9771,2.9225 2.4775,9.6765 -5.9487,7.5939 z m -18.5774,-42.1771 -8.9152,-17.3957 6.8037,1.5539 q -5.7222,-5.3719 -10.328,-11.7446 -5.3386,-7.4474 -6.8042,-13.1716 -2.7567,-10.767 6.2801,-8.5334 16.1197,3.9841 33.6011,38.3062 l 8.5484,2.1128 q 6.4723,1.5997 5.1114,-3.7157 -1.2562,-4.9064 -6.6296,-10.7027 -0.4187,0.1517 -1.9713,1.6831 -0.8722,1.061 -2.5819,0.6385 -3.0529,-0.7546 -7.2923,-5.2493 -4.2046,-4.3586 -5.1118,-7.9021 -1.7099,-6.6782 3.9076,-5.2898 8.182,2.0222 17.8123,15.5094 8.5486,11.9431 11.0611,21.756 3.5244,13.7654 -7.9548,10.9281 z m 16.5553,-11.7388 q -7.8859,-16.503 -17.0448,-18.7667 -6.8387,-1.6902 -5.4777,3.6252 2.6171,10.2216 19.1032,14.2963 z m -8.5059,-39.9233 q -10.4325,-4.1104 -19.3998,-14.1144 -8.8451,-9.9738 -11.7065,-21.1496 -2.3031,-8.9951 3.0351,-12.2717 4.5357,-2.8367 13.084,-0.7239 11.7235,2.8975 25.122,15.9118 14.1138,13.5738 17.3939,26.3851 3.1406,12.2662 -6.751,9.8213 -4.6406,-1.1469 -9.1417,-7.1106 -3.9952,-5.3281 -5.391,-10.7798 -0.7677,-2.9983 0.1918,-5.0593 1.0816,-2.0305 3.646,-1.3967 5.9839,1.4789 11.7586,10.1832 -1.989,-5.9813 -6.6296,-10.7028 -4.6058,-4.5854 -9.979,-5.9134 l -21.3709,-5.2821 q -9.4031,-2.324 -8.112,2.7188 1.9192,7.4959 9.1593,14.7751 6.3678,6.5527 13.9044,10.0752 0.663,0.8021 0.9421,1.8924 0.3838,1.4992 0.2443,2.7414 z m 21.3431,-43.0783 q -4.5183,-1.1168 -9.0195,-7.0806 -3.9951,-5.328 -5.356,-10.6434 -0.7678,-2.9984 0.1917,-5.0592 0.9943,-1.9246 3.5588,-1.2908 4.6406,1.1469 9.3161,6.8986 4.6755,5.7515 6.0365,11.0668 1.989,7.7686 -4.7276,6.1086 z m -61.775,-21.0132 -8.7581,-17.2292 43.2301,10.6847 8.7582,17.2293 z m 14.4033,-21.9313 q -10.258,-2.5354 -20.1326,-16.0829 -8.5486,-11.9431 -11.6543,-24.073 -1.2911,-5.0428 -0.3666,-8.1335 1.2385,-3.6516 5.5127,-2.5951 4.7626,1.1771 9.194,6.8683 3.9254,5.0555 5.3561,10.6434 0.8374,3.2709 -0.3139,5.029 -1.1164,1.8945 -4.0473,1.17 -4.3963,-1.0865 -8.3042,-5.6271 l 0.5758,2.6957 q 1.3434,5.6939 6.1237,11.8544 4.9024,6.1906 9.9093,7.4281 4.2741,1.0564 1.7966,-8.6202 -0.4886,-1.9081 -1.5005,-4.9668 -0.8549,-2.8922 -0.9945,-3.4375 -2.1286,-8.3137 -0.8203,-11.6926 1.7095,-4.0458 8.7924,-2.2952 10.0138,2.4749 19.2952,14.5992 8.2695,10.8528 11.2355,22.4375 2.8266,11.0394 -3.6458,9.4398 -4.6405,-1.147 -9.2986,-7.2771 -4.2743,-5.5248 -5.6353,-10.8402 -0.7676,-2.9983 0.1918,-5.0593 1.0815,-2.0306 3.646,-1.3968 2.9309,0.7245 5.4431,2.4943 -2.1808,-4.4966 -5.5828,-8.4014 -3.873,-4.4041 -7.4145,-5.2795 -4.6405,-1.147 -2.1281,8.6659 0.5235,2.0444 1.4831,5.3455 1.0817,3.3314 1.2911,4.1491 2.0239,7.9049 0.5237,10.9811 -1.6921,3.6671 -8.5308,1.9769 z m -23.5793,-55.0111 q -5.7396,-1.4186 -11.2874,-8.79 -5.0071,-6.5997 -6.717,-13.2779 -1.8843,-7.3596 3.1574,-7.7732 1.7794,-0.1985 10.6941,2.0048 -6.9085,-5.5375 -12.5611,-13.3178 -6.0364,-8.3859 -7.8858,-15.6093 -2.6172,-10.2218 9.1063,-7.3243 l 35.7809,8.8436 9.5781,17.3042 -39.3224,-9.7189 q -1.8318,-0.4527 -3.4367,0.4273 -1.605,0.88 -1.1164,2.788 0.1046,0.4089 0.5932,1.4233 4.3791,9.5083 14.9163,14.9213 5.6349,2.7971 17.1141,5.6343 5.3384,1.1917 10.7116,2.5197 l 9.5781,17.3043 -34.1933,-8.4512 q 0.82,1.8623 1.2387,3.4977 2.4776,9.6767 -5.9487,7.5941 z m -42.5139,-83.3929 q -7.0829,-1.7505 -14.1486,-11.0292 -6.2457,-8.3099 -8.3743,-16.6237 -1.1865,-4.6339 0.2265,-7.604 1.6747,-3.2884 5.7046,-2.2924 5.9838,1.479 12.4563,8.4407 5.6874,6.1293 9.2989,13.5329 l 68.9973,17.0532 -73.9001,-37.5425 -2.5298,-4.9659 51.0627,-6.5294 -54.1337,-13.5072 q -7.0829,-1.7506 -14.1486,-11.0293 -6.2457,-8.3098 -8.3743,-16.6236 -1.1865,-4.6339 0.2265,-7.6039 1.6747,-3.2885 5.7046,-2.2924 7.205,1.7808 14.7592,11.1802 7.1704,8.7937 9.2641,16.9711 0.8375,3.2711 0.6805,5.7856 l 58.1287,14.367 10.1539,19.9998 -37.1586,5.8805 54.3435,27.73 10.7993,21.1806 z m 79.0407,230.7626 16.6805,6.0417 m -38.4833,-139.0917 -8.5373,-2.8895 m 34.2613,41.713 -8.5373,-2.8895 M 1050.0248,486.75586 q -2.1559,0 -3.7729,-1.872 -1.6169,-1.872 -1.6169,-4.32001 0,-2.59199 1.4822,-4.46399 1.617,-1.728 3.9076,-1.728 h 5.5247 v -33.984 h -20.4816 v 39.88799 q 0,2.016 -0.2695,3.168 -0.1348,1.15201 -1.078,2.16 -0.9432,1.00801 -3.3687,1.00801 -0.9432,0 -1.3474,0 h -41.36751 q -1.88646,0 -2.56016,-0.144 -1.07795,-0.288 -2.02119,-1.15201 -0.94323,-0.71999 -1.21275,-2.15999 -0.26952,-1.44001 -0.13472,-2.88001 v -45.21599 q -0.1348,-1.152 0.13472,-2.73601 0.26952,-1.584 1.07796,-2.44799 1.617,-1.728 4.85094,-1.728 h 21.02051 q 2.156,0 3.7729,1.872 1.617,1.872 1.617,4.31999 0,2.59201 -1.4822,4.32001 -1.4822,1.72799 -3.9077,1.72799 h -14.82217 v 22.032 h 30.18337 v -27.936 q 0,-2.016 0.1348,-3.168 0.2695,-1.152 1.2127,-2.16 0.9432,-1.008 3.2339,-1.008 0.9433,0 1.4823,0 h 31.3962 q 1.7516,0 2.6948,0.144 1.0781,0.288 1.8865,1.008 0.9432,0.72 1.3475,2.16 0.4042,1.584 0.4042,3.024 v 45.36 q 0,1.584 -0.4042,2.88 -0.2695,1.44 -0.9433,2.16 -1.7516,1.872 -4.8508,1.872 z m -61.57951,-72.49952 q -1.88646,0 -2.96441,-0.43199 -1.07803,-0.288 -2.15598,-1.58402 -1.07796,-1.15198 -1.34748,-2.59199 -0.26945,-1.44 -0.26945,-4.03201 v -55.87199 q -0.26953,-1.43999 0.13472,-3.31199 0.40425,-1.87201 1.34748,-3.02401 1.07796,-1.15201 2.42543,-1.58399 1.48221,-0.288 3.63819,-0.288 h 92.43671 q 3.9076,0 6.0636,1.72799 0.9432,0.86399 1.3475,2.736 0.4042,1.872 0.4042,3.59999 v 56.59201 q 0,1.584 -0.2695,3.31201 -0.1347,1.728 -1.3475,2.87998 -1.0779,1.29602 -2.5601,1.584 -1.3475,0.288 -3.5035,0.288 z m 0.26952,-88.22925 q -3.09921,0 -5.25519,-2.16 -2.02118,-2.016 -1.75165,-5.04 v -55.58397 q -0.40426,-1.152 0,-3.168 0.40424,-1.872 1.4822,-3.168 1.07796,-1.152 2.42543,-1.584 1.48221,-0.288 3.63819,-0.288 h 92.43671 q 3.9076,0 6.0636,1.728 0.9432,0.864 1.3475,2.73592 0.4042,1.87208 0.4042,3.60008 v 55.72797 q 0,3.168 -2.156,5.184 -2.1559,2.016 -5.3898,2.016 -2.8298,0 -4.9857,-2.16 -2.0212,-2.016 -2.0212,-5.04 v -48.52798 h -26.4105 v 48.52797 q 0,3.168 -2.1559,5.184 -2.156,2.016 -5.3899,2.016 -2.8297,0 -4.9857,-2.16 -2.0212,-2.016 -2.0212,-5.04 v -33.84 h -37.99871 v 33.264 q 0,3.168 -2.02126,5.472 -2.02118,2.304 -5.25512,2.30401 z m 0,-77.95572 q -2.82968,0 -5.12039,-2.59208 -2.15598,-2.592 -1.88645,-5.328 v -58.032 q -0.1348,-1.152 0.13472,-3.168 0.40425,-1.872 1.34748,-3.168 1.07796,-1.152 2.42543,-1.584 1.48221,-0.288 3.63819,-0.288 h 93.51461 q 2.8297,0 4.7162,2.16 2.0212,2.304 2.0212,5.472 0,3.024 -2.0212,5.328 -1.8865,2.448 -4.7162,2.448 h -34.2258 v 6.624 q 0,2.16 -0.4042,3.744 -0.2695,1.728 -1.2127,2.736 -0.9433,1.008 -2.2907,1.152 -1.2128,0.288 -3.7729,0.288 h -44.8709 v 36.432 q 0,3.168 -2.02126,5.472 -2.02118,2.30408 -5.25513,2.30408 z m 238.33899,313.48468 q 2.5827,2.73157 4.252,6.63832 2.0472,4.66913 2.0472,9.36998 v 37.98802 q 0,4.542 -1.5433,8.57588 -1.6692,4.0338 -4.2519,7.01955 -5.6693,6.51127 -14.7087,6.51127 h -61.9212 q -5.2914,0 -9.6693,-1.17525 -4.378,-1.30222 -7.0866,-3.7797 -3.6221,-3.36682 -5.7008,-7.4007 -2.5827,-4.95495 -2.5827,-10.29105 v -36.1458 q 0,-5.71725 2.0787,-10.54515 1.9213,-4.8279 5.4173,-7.94062 6.2048,-5.46315 14.8347,-5.46315 h 65.0079 q 3.9999,0 8.4094,2.47747 3.2126,1.8105 5.4173,4.16093 z m 0,-91.22205 q 2.5827,2.73158 4.252,6.63837 2.0472,4.6691 2.0472,9.36995 v 37.988 q 0,4.54208 -1.5433,8.57588 -1.6692,4.03387 -4.2519,7.01955 -5.6693,6.51135 -14.7087,6.51135 h -61.9212 q -5.2914,0 -9.6693,-1.17525 -4.378,-1.30223 -7.0866,-3.77978 -3.6221,-3.36682 -5.7008,-7.40062 -2.5827,-4.95495 -2.5827,-10.29108 V 487.6446 q 0,-5.71725 2.0787,-10.54516 1.9213,-4.82791 5.4173,-7.94063 6.2048,-5.46316 14.8347,-5.46316 h 65.0079 q 3.9999,0 8.4094,2.47747 3.2126,1.81047 5.4173,4.16088 z m 0,-91.222 q 2.5827,2.73157 4.252,6.63837 2.0472,4.66909 2.0472,9.36995 v 37.988 q 0,4.54204 -1.5433,8.57589 -1.6692,4.03384 -4.2519,7.01952 -5.6693,6.51132 -14.7087,6.51132 h -61.9212 q -5.2914,0 -9.6693,-1.17522 -4.378,-1.30227 -7.0866,-3.77974 -3.6221,-3.36683 -5.7008,-7.40067 -2.5827,-4.95496 -2.5827,-10.29107 v -36.14577 q 0,-5.71725 2.0787,-10.54516 1.9213,-4.8279 5.4173,-7.94063 6.2048,-5.46316 14.8347,-5.46316 h 65.0079 q 3.9999,0 8.4094,2.47748 3.2126,1.81046 5.4173,4.16089 z m -104.3294,-29.03096 q 1.4414,0 2.1797,-0.66702 0.7031,-0.63525 0.9844,-1.81047 l 1.3008,-3.9068 0.5976,-1.81046 q 0.4219,-0.667 1.3008,-0.92111 0.7031,-0.2541 3.3047,-0.2541 h 15.1172 q 1.8633,0 2.8828,0.38115 0.9843,0.2541 1.8633,1.17521 0.7031,0.92112 1.0195,1.93751 0.2813,1.04816 0.2813,2.09633 V 358.911 q 0,1.17522 0,2.47749 -0.1407,1.17521 -1.3008,2.60453 -1.3008,1.42931 -4.7461,1.42931 h -19.8633 q -9.668,0 -16.418,-5.46316 -6.9258,-5.5902 -6.9258,-13.14969 0,-2.73158 1.0196,-4.03384 0.9844,-1.30226 2.7422,-1.30226 1.7226,0 3.4453,1.96927 1.582,1.81046 3.0234,3.6527 1.4414,1.68342 2.8828,2.31867 1.3008,0.66702 5.3086,0.66702 z m 104.3294,-93.69952 q 2.5827,2.73157 4.252,6.6384 2.0472,4.66905 2.0472,9.36997 v 37.98796 q 0,4.54205 -1.5433,8.57589 -1.6692,4.03385 -4.2519,7.01953 -5.6693,6.51132 -14.7087,6.51132 h -61.9212 q -5.2914,0 -9.6693,-1.17521 -4.378,-1.30227 -7.0866,-3.77975 -3.6221,-3.36683 -5.7008,-7.40067 -2.5827,-4.95496 -2.5827,-10.29106 v -36.14579 q 0,-5.71725 2.0787,-10.54515 1.9213,-4.82789 5.4173,-7.94062 6.2048,-5.46315 14.8347,-5.46315 h 65.0079 q 3.9999,0 8.4094,2.47748 3.2126,1.81042 5.4173,4.16085 z m 0.504,-81.93945 q 2.8346,0 4.6614,3.63457 1.6693,3.45727 1.6693,7.97835 v 44.50125 q 0,3.10267 -0.126,4.52107 -0.2835,1.28543 -1.1653,2.74808 -1.0395,1.4184 -2.3307,2.34922 -1.4174,0.70913 -4.252,0.70913 h -44.3779 q -1.9528,0 -3.3702,-0.53183 -1.4172,-0.5319 -2.5826,-2.17192 -1.2599,-1.81725 -1.7953,-4.3437 -0.6299,-2.74815 -0.6299,-6.38272 v -25.22033 q 0,-4.52108 -0.126,-5.09722 -0.2835,-1.06381 -1.2914,-2.70383 -1.8267,-2.74808 -4.6614,-2.74808 h -22.8346 q -2.1733,0 -2.5827,0.1773 -0.2519,0 -1.1654,1.28543 -0.8819,1.28535 -1.0078,2.92537 -0.2835,1.63995 -0.2835,5.05291 v 29.07659 q 0,3.9891 -1.7953,6.87023 -1.7952,2.92537 -4.7559,2.92537 -2.5826,0 -4.2834,-2.52652 -1.7953,-2.74808 -1.7953,-6.55995 l -0.126,-44.45693 q 0,-1.99462 0,-2.92537 0,-3.10268 0.378,-4.52108 0.2519,-1.46265 1.1653,-2.74807 0.9134,-1.2411 2.3307,-1.64002 1.2914,-0.53183 3.4646,-0.53183 h 43.4961 q 2.4567,0 3.874,0.53183 1.2913,0.39892 2.7087,1.99462 2.1731,3.10267 2.1731,9.0864 v 29.60842 q 0,1.64003 0,3.45728 0.252,1.81732 1.2914,3.05835 0.9134,1.10813 3.496,1.10813 h 24.63 q 2.4567,0 3.622,-1.10813 1.0394,-1.06373 1.2914,-2.52645 0.2519,-1.46273 0.2519,-3.27998 v -30.49492 q 0,-4.69838 1.7953,-7.80098 1.8267,-3.27997 5.0394,-3.28004 z m -12.3946,894.85913 7.8078,4.4043 -28.9862,-4.4274 5.8943,3.3691 -26.4009,-1.8811 46.5346,12.2389 -3.0466,-3.3373 27.8745,6.9228 -2.9135,-4.4563 28.6673,6.4854 -1.5727,-11.6784 z m 33.0564,200.6853 c 0,-1.6549 -1.5478,-5.0893 -4.642,-10.3023 -2.7719,-4.6337 -4.3506,-7.2818 -4.7374,-7.9438 l -0.9667,-1.1162 c -0.129,-0.331 -0.3545,-0.4966 -0.6768,-0.4966 -0.5157,0 -3.6744,3.1852 -9.4761,9.5566 -5.7372,6.4542 -9.0248,9.6812 -9.8628,9.6812 -0.3867,0 -0.6767,-0.1656 -0.8701,-0.4966 l 0.097,0.6211 c -1.5471,-1.5722 -2.6762,-2.3584 -3.3852,-2.3584 -0.1934,-0.9102 0.2898,-2.3588 1.4502,-4.3447 1.2247,-1.9859 2.2249,-3.1034 2.9985,-3.3516 0.3223,0.083 0.9022,7e-4 1.7402,-0.2475 0.9025,-0.1655 1.4824,-0.2476 1.7402,-0.2476 0.7736,0 1.4179,0.3297 1.9336,0.9917 l -0.9667,-5.461 -1.1602,-2.4814 c -0.5801,-1.2412 -1.2567,-1.8618 -2.0303,-1.8618 -0.7091,0 -1.9992,0.5371 -3.8686,1.6128 l -7.9277,8.3159 c -0.129,0.083 -0.1934,0.2483 -0.1934,0.4966 0,1.6549 1.5464,5.0893 4.6406,10.3022 2.7719,4.6337 4.352,7.2804 4.7388,7.9424 h 0.4833 l 0.097,0.7456 c 0.258,0.4137 0.6123,0.6197 1.0635,0.6197 1.1604,0 3.5459,-2.15 7.1558,-6.4527 5.1571,-6.1231 9.0245,-10.4676 11.603,-13.0327 0.3224,-0.331 0.709,-0.4966 1.1602,-0.4966 0.7735,0 1.579,0.4551 2.417,1.3652 0.838,0.9103 1.2569,1.8203 1.2569,2.7306 0,1.0755 -0.3545,2.2333 -1.0635,3.4746 -0.6447,1.3239 -1.3534,2.1101 -2.127,2.3583 -0.3868,-0.083 -1.0311,-0.041 -1.9336,0.1245 -0.9025,0.2483 -1.5146,0.3721 -1.8369,0.3721 -0.8381,0 -1.5161,-0.3312 -2.0318,-0.9931 h -0.3867 l 1.5469,8.937 c 0.5801,1.2412 1.2582,1.8618 2.0318,1.8618 0.709,0 1.9977,-0.5386 3.8671,-1.6143 l 7.9292,-8.3145 c 0.129,-0.083 0.1934,-0.2483 0.1934,-0.4965 z m 8.1738,-140.0117 -1.9336,-31.7739 -12.668,-5.5855 c 3.5455,3.3099 5.2222,6.9084 5.0289,10.7974 l 2.1269,12.5362 c -4.8992,-1.4066 -14.8585,-9.4736 -29.8784,-24.2022 l 0.3867,33.3868 12.3765,5.5854 c -3.2232,-3.4753 -5.0595,-7.2395 -5.5108,-11.294 l -1.5469,-13.4047 c 4.1257,5.1301 8.4119,9.3494 12.8599,12.6591 3.9967,2.9789 10.2496,6.7445 18.7588,11.2954 z m 0.7734,17.3453 c -3.352,-7.2816 -5.4476,-11.3367 -6.2856,-12.1641 -0.3868,-0.4137 -0.87,-0.6196 -1.4502,-0.6196 -1.5471,0 -2.9969,0.6609 -4.3506,1.9849 l -3.8686,3.7236 0.097,2.6074 3.1918,-1.1177 c 1.1604,0 2.4813,1.5307 3.9639,4.5923 0.9025,1.8204 1.4502,2.9378 1.6436,3.3515 l 0.7734,1.8619 H 1222.55 c -1.2893,-0.4965 -1.8692,-1.4065 -1.7403,-2.7305 2.5141,-2.3996 5.9305,-3.6006 10.2496,-3.6006 0.9025,0 1.806,0.084 2.7085,0.2491 1.3536,-0.083 3.2223,1.2823 5.6073,4.0956 l -2.9003,-8.1914 c -1.2893,-3.7235 -3.0304,-6.2896 -5.2222,-7.6963 -11.7323,3.1443 -17.3394,6.537 -16.8237,10.1778 l 3.8672,7.9438 h -3.4805 c -0.7736,-0.2482 -1.1616,0.041 -1.1616,0.8687 0,0.9102 0.5814,2.4006 1.7417,4.4692 l 7.831,8.9356 0.1934,-4.5923 22.0474,0.4965 c 1.676,0.4138 3.8682,-1.572 6.5757,-5.9574 1.8693,-3.0617 3.5769,-5.9575 5.124,-8.688 z m 6.0923,33.7968 c -3.3521,-5.3784 -6.1564,-10.1779 -8.4126,-14.3979 l 0.1934,6.4541 -32.2969,-0.2476 c -1.0314,0 -1.6758,-0.1656 -1.9336,-0.4966 -0.4512,-0.4137 -1.0311,-1.6967 -1.7402,-3.8481 0,0.7448 0.032,1.8621 0.097,3.3516 0.064,1.5721 0.097,2.7299 0.097,3.4746 0,1.1584 -0.032,2.8965 -0.097,5.2134 -0.064,2.3996 -0.097,4.178 -0.097,5.3364 0.4512,-2.3996 1.7076,-3.6812 3.7705,-3.8467 9.3471,-0.7447 18.8232,-0.9521 28.4282,-0.6211 0.7736,0.7447 1.1938,1.3654 1.2583,1.8618 0.1289,0.5792 -0.7102,1.4072 -2.5151,2.483 -1.4182,0.8274 -2.6102,1.4063 -3.5771,1.7373 -1.0959,-0.2483 -2.288,-1.242 -3.5772,-2.9796 h -0.3882 l 5.2221,11.42 c 0.1935,0.8275 0.6123,1.2407 1.2569,1.2407 0.5802,0 1.1601,-0.3312 1.7402,-0.9931 l 7.9292,-5.8331 c 0.1934,-0.1654 0.2901,-0.4549 0.2901,-0.8686 0,-1.3239 -1.4498,-4.1378 -4.3506,-8.4405 z m 0.1934,-188.9018 -0.2901,-11.79052 c -0.9025,5.13015 -2.5148,7.69477 -4.8354,7.69477 -1.3537,0 -3.3511,-0.082 -5.9941,-0.24757 -2.643,-0.16553 -4.6419,-0.249 -5.9957,-0.249 l -21.9492,0.37207 c -6.7042,0.0828 -10.2187,0.37365 -10.541,0.87015 l -13.9232,13.1557 c -0.3224,0.331 -0.4834,0.8278 -0.4834,1.4898 0,1.0757 1.6108,4.2609 4.8339,9.5566 0.5157,0.8275 1.9668,2.1105 4.352,3.8482 2.3852,1.7377 3.9638,3.2266 4.7373,4.4677 -0.3868,0 -0.2257,0.042 0.4834,0.1245 l -12.473,11.7906 c -0.3224,0.5791 -0.7089,1.7787 -1.1602,3.5991 0,0.2482 0.097,0.5794 0.29,0.9931 l 21.3691,20.48 31.1367,-0.372 c 1.8694,0 3.1259,0.537 3.7705,1.6128 0.2579,0.3309 0.9022,1.9855 1.9336,4.9643 0,-1.2412 -0.064,-3.0613 -0.1933,-5.4609 -0.065,-2.3169 -0.097,-4.0953 -0.097,-5.3365 0,-1.8203 0.032,-4.5102 0.097,-8.0683 0.1289,-3.558 0.1933,-6.2465 0.1933,-8.0669 -0.7091,3.8063 -2.6743,5.9158 -5.8975,6.3296 -5.286,0.6619 -10.6368,0.9096 -16.0517,0.7441 -8.767,-0.2482 -14.2145,-0.2885 -16.3418,-0.123 -6.5108,-6.2887 -9.8627,-10.0125 -10.0562,-11.1709 0.4513,-0.4965 1.7414,-1.1992 3.8687,-2.1094 0.2578,-0.083 0.7089,-0.6631 1.3535,-1.7387 0.7091,-1.0758 1.289,-1.6128 1.7402,-1.6128 10.443,-0.9102 21.0145,-1.3652 31.7154,-1.3652 0.3223,0 0.8378,-0.373 1.5468,-1.1178 0.7092,-0.7446 1.1602,-1.1162 1.3536,-1.1162 0.3867,0 0.7748,0.2894 1.1616,0.8687 h 0.5801 l -6.5757,-7.3228 c -0.3224,-1.1584 -0.9989,-1.779 -2.0303,-1.8618 l -23.3042,0.6196 c -3.8033,-3.4753 -7.0264,-6.1637 -9.6694,-8.0668 -0.064,-0.4965 -0.097,-0.9933 -0.097,-1.4898 0,-1.7376 0.7424,-3.061 2.2251,-3.9712 0.7091,-0.4137 5.6075,-0.7046 14.6967,-0.8701 l 14.8917,-0.1231 c 8.9603,-0.083 13.7943,-0.1662 14.5034,-0.249 2.1273,0.2482 3.514,1.9863 4.1587,5.2134 z m 4.2539,244.8505 c -0.838,1.9031 -2.2556,3.0624 -4.2539,3.476 -0.4009,0.073 -0.6966,0.1348 -0.9448,0.1919 -0.4151,-0.046 -1.2906,-0.067 -2.6338,-0.067 -1.5471,0 -3.4157,0.5371 -5.6075,1.6128 -2.1917,1.0757 -4.4161,1.4889 -6.6723,1.2408 v 6.2065 c 1.3537,0.083 3.2238,0.7854 5.6088,2.1094 2.1918,1.2412 4.5436,1.8215 7.0577,1.7387 0.7843,-0.042 1.3917,-0.064 1.8281,-0.063 0.1325,-0.02 0.2207,-0.041 0.397,-0.062 2.3851,-0.4137 4.1248,0.662 5.2207,3.227 z m 4.3525,-16.7 c -2.0629,2.1514 -3.804,3.0615 -5.2222,2.7305 l -19.8222,-0.2475 7.7358,-7.0752 -6.6724,-15.1421 -29.2983,2.4814 -5.8989,10.4268 3.8686,9.4321 h -4.2554 l 0.4835,13.0327 c 0.9024,-1.3239 2.0314,-2.1922 3.3852,-2.6059 l 50.9575,-1.1177 c 1.4827,0 3.0627,0.828 4.7388,2.4829 z m -30.5797,-80.2953 -4.5029,1.8293 m 5.7693,42.7767 -2.8143,-3.7992 m -7.0357,88.9306 -0.4221,-3.94 m -9.0056,-6.7542 1.6886,3.5178 m 25.0679,-435.84009 c 0,-1.32837 -0.068,-2.25771 -0.2037,-2.78906 l -8.956,-14.87842 c -5.2241,-1.23982 -10.2113,-1.86035 -14.9605,-1.86035 -3.3244,0 -6.2754,0.355 -8.8535,1.06348 l -8.9546,13.4165 0.1011,6.77491 9.2607,11.95458 5.6997,-5.84472 -4.0707,-0.53174 c -0.6785,-0.0886 -1.0514,-0.13183 -1.1192,-0.13183 -1.0855,-0.26568 -2.3746,-1.37252 -3.8672,-3.32081 l -3.1553,-4.11767 c 0.9498,-2.30252 2.0019,-3.80912 3.1553,-4.51758 l 20.149,-1.32861 11.6015,1.86034 c 0.4749,0.35424 0.7134,0.70779 0.7134,1.06202 -2.9852,4.2508 -5.0546,6.95226 -6.2081,8.10352 -1.8318,0.26567 -3.868,-0.44289 -6.1068,-2.1255 l 6.3105,12.2212 3.7647,-1.72705 5.3935,-10.75928 c 0.2035,-0.44279 0.3062,-1.2841 0.3062,-2.52393 z m 0.2037,-36.81071 c -1.764,-6.55331 -4.3422,-12.88556 -7.7344,-18.99609 -12.5513,-0.97415 -20.4216,-1.37243 -23.6103,-1.19531 -1.4926,0.53135 -4.8844,5.26898 -10.1763,14.21337 l -0.3062,2.39063 c 0.2715,2.83387 1.2888,6.46466 3.0528,10.89257 2.1032,5.3135 4.0035,7.74944 5.6997,7.30664 9.3625,-0.26567 15.2313,-0.48792 17.6059,-0.66504 4.6813,-0.35423 7.7335,-1.50434 9.1583,-3.45263 l 1.3227,-1.06348 z m 20.4551,-83.06836 c -1.0177,2.92243 -2.7143,4.56179 -5.0889,4.91602 l -59.9414,0.66357 c -2.9174,0 -4.9521,-2.43446 -6.1055,-7.30517 l -0.2036,30.1538 c 0,-0.0886 0.033,-0.22133 0.1011,-0.39844 l -0.1011,1.06202 0.5083,3.98583 c 2.5103,3.98513 5.0205,7.83671 7.5308,11.55616 4.5456,6.73044 8.1425,10.49399 10.7885,11.29101 4.6813,0.26568 8.209,0.39844 10.5836,0.39844 8.6841,0 17.9446,-0.35354 27.7821,-1.06201 6.0382,-10.36132 10.6512,-21.12093 13.8399,-32.27929 v -1.32862 c 0.1357,0.17711 0.2383,0.35463 0.3062,0.53174 z m -1.8327,153.67745 c -8.0057,-7.61606 -13.636,-15.23118 -16.8926,-22.8472 v 11.15771 l -43.0488,-0.66358 c -1.6961,0.26568 -3.1542,2.52411 -4.3755,6.77491 l -3.0527,10.89258 c 2.7816,-4.25077 4.7832,-6.3765 6.0044,-6.3765 0.2714,0 0.543,0.088 0.8145,0.2652 l 43.2509,1.19528 v 7.43992 l 4.3755,-1.19677 v -6.90675 z m -2.3408,62.20605 c -3.528,-5.75633 -6.479,-10.89368 -8.8535,-15.41018 l 0.2036,6.90818 -33.9903,-0.26513 c -1.0854,0 -1.7632,-0.17752 -2.0346,-0.53175 -0.4749,-0.4428 -1.0863,-1.81515 -1.8325,-4.11765 0,0.79703 0.035,1.99185 0.1025,3.5859 0.068,1.68263 0.1011,2.92223 0.1011,3.71925 0,1.23983 -0.033,3.09998 -0.1011,5.57963 -0.068,2.56815 -0.1025,4.47157 -0.1025,5.7114 0.4749,-2.56815 1.7972,-3.94058 3.9682,-4.11765 9.8375,-0.79703 19.812,-1.01783 29.9209,-0.6636 0.8141,0.79702 1.2549,1.46085 1.3228,1.99222 0.1357,0.61988 -0.7473,1.50593 -2.647,2.65718 -1.4926,0.8856 -2.7469,1.50465 -3.7646,1.85887 -1.1534,-0.26565 -2.4092,-1.32772 -3.7661,-3.1875 h -0.4058 l 5.4946,12.22125 c 0.2035,0.88553 0.6443,1.32863 1.3228,1.32863 0.6105,0 1.2219,-0.35505 1.8325,-1.0635 l 8.3452,-6.24315 c 0.2035,-0.17715 0.3047,-0.48743 0.3047,-0.93023 0,-1.4169 -1.5261,-4.42717 -4.5791,-9.03217 z m -16.2816,-31.63103 c -1.764,-6.55327 -4.3422,-12.8856 -7.7344,-18.99615 -12.5513,-0.9741 -20.4216,-1.37242 -23.6103,-1.19527 -1.4926,0.5313 -4.8844,5.26905 -10.1763,14.2134 l -0.3062,2.39205 c 0.2715,2.83387 1.2888,6.4647 3.0528,10.89255 2.1032,5.3136 4.0035,7.74795 5.6997,7.30522 9.3625,-0.26572 15.2313,-0.48652 17.6059,-0.6636 4.6813,-0.35422 7.7335,-1.50577 9.1583,-3.45412 l 1.3227,-1.062 z m -5.4968,35.34698 -1.5478,-3.3771 M 526.62085,427.07565 q 5.7155,-5.43394 13.3227,-7.43728 6.2564,-1.64763 17.0241,-0.88748 10.7843,0.82238 15.7389,0.583 4.9547,-0.23939 10.4291,-1.68106 4.408,-1.16084 7.3885,-2.54506 2.9805,-1.38424 3.4072,-1.4966 1.2797,-0.337 6.0095,5.20952 4.7462,5.60882 5.0086,6.60515 0.3115,1.18315 -3.6043,3.3464 -3.9158,2.16325 -9.1769,3.54875 -7.1806,1.89102 -15.165,1.59648 -7.9132,-0.31328 -18.7955,-3.24069 -10.866,-2.86514 -15.8916,-3.47274 -5.0258,-0.60757 -9.0071,0.44092 -0.2844,0.0749 -2.1384,0.8295 -1.854,0.7546 -2.2094,0.84821 -0.6399,0.1685 -2.3404,-2.24702 z m -10.6376,9.26061 q 0.098,0.37362 -0.6126,0.56086 -0.7109,0.18722 -6.6937,-0.3015 -5.9116,-0.50745 -8.7442,-2.02552 -2.7615,-1.5368 -3.7619,-5.33532 -0.9511,-3.61171 0.072,-7.80992 1.0942,-4.21693 1.8762,-4.42289 0.2134,-0.0562 1.6571,0.22952 5.8294,1.92747 14.3934,1.53664 1.7556,-0.26255 1.8703,0.17335 0.1968,0.74725 -0.8369,2.01833 -3.3803,5.35169 -2.1667,9.95972 0.5247,1.99267 1.6948,3.54903 1.1866,1.61862 1.2522,1.8677 z m -0.2513,-50.60842 q 5.7154,-5.43396 13.3226,-7.4373 6.2564,-1.64763 17.0242,-0.88747 10.7842,0.82238 15.7389,0.58299 4.9547,-0.23937 10.429,-1.68104 4.408,-1.16084 7.3885,-2.54507 2.9806,-1.38424 3.4073,-1.4966 1.2796,-0.337 6.0095,5.20953 4.7461,5.60881 5.0085,6.60514 0.3116,1.18315 -3.6042,3.34641 -3.9159,2.16324 -9.1769,3.54874 -7.1806,1.89102 -15.165,1.59648 -7.9132,-0.31328 -18.7956,-3.24069 -10.866,-2.86514 -15.8916,-3.47274 -5.0257,-0.60758 -9.0071,0.44092 -0.2844,0.0749 -2.1383,0.82949 -1.854,0.75461 -2.2095,0.84822 -0.6398,0.1685 -2.3403,-2.24701 z m -10.6377,9.2606 q 0.098,0.37363 -0.6126,0.56087 -0.7109,0.18721 -6.6936,-0.30151 -5.9117,-0.50744 -8.7443,-2.02553 -2.7615,-1.53679 -3.7618,-5.33531 -0.9512,-3.6117 0.072,-7.80991 1.0941,-4.21695 1.8762,-4.4229 0.2133,-0.0562 1.657,0.22952 5.8295,1.92747 14.3935,1.53665 1.7555,-0.26256 1.8703,0.17334 0.1968,0.74724 -0.837,2.01833 -3.3802,5.35168 -2.1667,9.95973 0.5248,1.99266 1.6949,3.54902 1.1865,1.61862 1.2521,1.8677 z m 5.9304,-161.37721 c -1.0059,-3.81927 -3.8844,-6.27949 -8.6347,-7.38132 -4.6921,-1.07277 -8.8628,-1.12878 -12.5124,-0.16767 -3.5548,0.93615 -5.7619,3.42701 -6.6228,7.47152 -5.0966,-1.45455 -9.9909,-3.29488 -14.6828,-5.52194 l -6.3985,1.68506 0.3771,1.43213 c 8.0604,4.04791 15.2883,6.67139 21.6866,7.87195 1.673,3.466 3.8161,6.49826 6.4262,9.09598 -12.8839,-3.31037 -22.668,-4.08556 -29.351,-2.32559 -3.6021,0.94862 -6.4057,2.61875 -8.4112,5.01139 -1.9581,2.38016 -2.6041,4.83678 -1.9372,7.36912 1.4869,5.64588 9.433,12.14427 23.8367,19.4937 -4.2414,1.83895 -7.5441,4.41381 -9.8999,7.73319 -3.2052,4.5731 -4.0648,9.68405 -2.578,15.32994 1.3338,5.06468 3.9521,9.32498 7.8528,12.78144 3.948,3.44397 9.5783,7.02086 16.8913,10.73288 l 0.01,-0.002 c -4.2447,1.83914 -7.5497,4.4153 -9.9067,7.73649 -3.2052,4.57309 -4.0652,9.68263 -2.5784,15.32851 1.3338,5.06469 3.9522,9.32497 7.8529,12.78143 3.9479,3.44399 9.5785,7.02229 16.8917,10.73429 l 8.1748,-2.15284 c -7.1052,-3.50039 -11.8379,-6.27209 -14.2001,-8.31357 -2.3149,-2.05395 -3.8332,-4.44949 -4.5548,-7.1894 -1.8476,-7.01584 1.631,-12.57168 10.4362,-16.66623 10.9245,16.65593 21.2915,23.69191 31.1027,21.10813 3.6969,-0.97358 6.3769,-2.92277 8.0397,-5.84668 1.6628,-2.92391 1.9858,-6.31626 0.9691,-10.17705 -1.957,-7.43098 -7.8141,-13.12332 -17.5735,-17.07896 -8.8233,-3.60505 -17.7865,-4.4711 -26.8874,-2.61687 -6.874,-3.40339 -11.4824,-6.10909 -13.7982,-8.11039 -2.3149,-2.05395 -3.8336,-4.4509 -4.5551,-7.19082 -1.8477,-7.01584 1.631,-12.57168 10.4361,-16.66623 10.9246,16.65594 21.2916,23.6919 31.1028,21.10813 3.6969,-0.97359 6.3773,-2.92135 8.0401,-5.84526 1.6628,-2.92391 1.9857,-6.31627 0.969,-10.17705 -1.957,-7.43099 -7.8144,-13.12474 -17.5738,-17.08037 -8.8196,-3.60353 -17.7789,-4.46958 -26.8757,-2.61845 -6.2673,-3.2636 -10.1931,-5.43069 -11.7047,-6.46527 -1.4983,-1.07039 -2.4452,-2.35378 -2.8388,-3.84828 -0.3608,-1.36996 -0.058,-2.6264 0.9085,-3.76872 0.9773,-1.10082 2.4618,-1.91314 4.4524,-2.43737 2.1329,-0.5617 4.6662,-0.85048 7.6012,-0.86871 2.9823,-0.0307 8.6295,0.14537 16.9419,0.53109 l 19.7251,0.99936 -1.7759,-5.59298 c -12.5413,-2.20199 -20.1471,-6.63554 -22.8151,-13.30216 6.0374,0.40773 10.5504,0.2178 13.5363,-0.56855 3.7918,-0.99857 5.261,-3.11704 4.4083,-6.35513 z m 38.1471,-26.6261 q -9.9915,1.0331 -15.1646,-1.00061 -5.1022,-2.05243 -7.4308,-10.89487 l -4.5477,-19.57829 q -2.263,-8.59338 -7.5125,-12.93762 -5.1621,-4.30068 -11.9872,-2.50329 -6.3986,1.68508 -8.237,9.42746 -0.6019,2.62233 -1.5972,2.88444 -1.9907,0.52425 -5.649,-1.24251 -3.5709,-1.72318 -5.8619,-4.64907 0.4167,-9.09932 10.1567,-11.66436 6.8252,-1.79741 18.3092,0.23908 11.5552,2.01773 20.1239,8.28462 8.6399,6.24814 11.1982,15.96238 0.2132,0.80953 1.5465,9.04842 1.421,8.28243 1.8637,9.96374 1.3284,5.04394 3.9533,5.48467 z m -28.8897,-7.50742 c -0.5649,-1.76016 -1.8537,-5.01614 -3.8657,-9.76905 -5.297,-2.60038 -10.416,-4.138 -15.356,-4.61279 -4.9291,-0.43324 -11.2905,0.0428 -19.0854,1.42969 -2.661,-3.56094 -6.1869,-6.65057 -10.5762,-9.26807 l -10.3022,-0.14941 c 4.4074,4.03331 7.5868,7.83419 9.5405,11.40381 -11.1147,1.57418 -19.5308,1.47877 -25.251,-0.28711 l -0.062,11.68799 c 1.0476,0.6146 2.1479,1.18812 3.3003,1.72119 9.2818,4.25899 20.2626,5.25196 32.9429,2.97802 2.9416,4.81884 5.1601,8.14075 6.6547,9.9668 1.542,1.81358 2.9221,2.91508 4.1397,3.30469 l 12.7368,-2.15479 c -3.9333,-4.15813 -7.6362,-8.68776 -11.1064,-13.58935 7.8642,-1.89347 13.3373,-2.9577 16.4179,-3.1919 3.0808,-0.2342 6.3717,-0.0574 9.8716,0.53028 z m -66.0395,-35.06104 c 9e-4,-0.22498 -0.033,-0.4671 -0.1011,-0.72656 -0.3608,-1.36996 -2.3928,-3.12084 -6.0967,-5.25293 -1.0014,-0.56687 -1.9228,-1.0415 -2.7641,-1.42529 l 0.091,11.5166 c 0.457,-0.15734 0.9279,-0.30247 1.4135,-0.43652 3.5549,-0.93615 5.7267,-1.64148 6.5142,-2.11524 0.6262,-0.36468 0.9405,-0.8851 0.9434,-1.56006 z m -8.7596,980.88973 72.2771,6.2992 11.9571,34.6267 -77.4623,-6.7512 30.6727,88.8249 77.4623,6.7511 11.9572,34.6267 -126.8647,-11.0568 m 2e-4,-33.5845 v 0 l -2e-4,-11.4057 m 6e-4,-108.3304 -0.3752,108.7929 m 0.3748,10.9432 -2e-4,33.5845 m -0.4228,155.454 c 8.1552,11.3139 17.9424,21.7576 29.3616,31.3311 24.9578,20.9955 51.6946,32.7355 80.2105,35.2207 28.5158,2.4853 48.582,-5.0959 60.1963,-22.7417 5.954,-8.9622 8.9724,-19.4621 9.0571,-31.5 v 0 c 0.075,-10.6217 -2.1351,-22.4401 -6.6299,-35.4565 -9.4733,-27.4337 -26.2828,-51.2082 -50.4301,-71.3218 -24.9,-20.8283 -51.5213,-32.4767 -79.8633,-34.9468 -16.9598,-1.4781 -30.9294,0.6568 -41.909,6.4048 m -0.003,0 0.01,123.0102 m 0.4812,-758.41297 c 0.1116,-0.0543 0.2126,-0.0844 0.2977,-0.0844 0.4945,0 1.7444,-1.48028 2.0443,-2.4213 0.2532,-0.7941 1.8772,-2.57153 2.3496,-2.57153 0.2793,0 8.6161,-9.12585 9.8826,-10.81777 0.5872,-0.78458 1.3272,-1.7475 1.6443,-2.13983 0.3171,-0.39225 0.6498,-0.9474 0.7393,-1.23352 0.187,-0.59805 1.6709,-1.9761 2.1278,-1.9761 0.3215,0 6.9014,-6.9561 10.3754,-10.96853 3.8449,-4.44075 6.6109,-7.70025 7.5762,-8.9277 0.5331,-0.67792 1.1508,-1.33417 1.3726,-1.4583 0.3759,-0.21037 2.8344,-2.4702 5.3164,-4.88692 0.5885,-0.57293 1.33,-1.38945 1.6478,-1.81433 0.318,-0.42495 0.9253,-0.91777 1.3498,-1.09515 0.4245,-0.1773 0.8344,-0.51937 0.9107,-0.76012 0.2139,-0.67373 1.361,-1.6656 2.315,-2.00168 0.8509,-0.29985 3.2531,-2.45512 4.5555,-4.08727 0.4166,-0.52208 1.0365,-0.95348 1.6222,-1.12898 0.5623,-0.16852 1.1586,-0.57322 1.4655,-0.99487 0.9759,-1.34025 3.1331,-3.2985 4.097,-3.71903 1.1471,-0.50047 2.9294,-1.95885 6.1996,-5.07285 1.3246,-1.26142 2.6212,-2.3751 2.8812,-2.47477 0.2601,-0.0996 1.4034,-1.0638 2.5407,-2.1426 1.6147,-1.53165 1.9552,-1.96148 1.5537,-1.96148 -0.7166,0 -3.0368,-0.68895 -4.0347,-1.19805 -1.037,-0.52897 -2.2678,-1.79782 -2.6007,-2.68087 -0.1389,-0.36818 -0.2524,-1.52708 -0.2524,-2.5755 0,-2.13338 0.5635,-3.72623 2.3701,-6.69998 0.6531,-1.07497 0.9585,-1.85235 0.9585,-2.4396 0,-0.73747 -0.06,-0.8334 -0.4161,-0.66442 -0.4222,0.20025 -6.974,0.46597 -17.2589,0.69982 -5.2862,0.12023 -5.7676,0.0959 -7.1407,-0.36097 -1.726,-0.57443 -3.1656,-1.67753 -3.6255,-2.77808 -0.4179,-1.00012 -0.421,-3.2049 -0.01,-4.19377 0.1878,-0.44745 1.8246,-2.14688 3.9426,-4.09358 1.9917,-1.83067 4.9334,-4.77847 6.537,-6.55065 l 2.9155,-3.22207 -2.0436,-0.85313 c -4.9083,-2.049 -6.1239,-2.66497 -7.123,-3.60945 -1.3194,-1.24732 -1.6971,-2.13997 -1.6944,-4.00462 0.01,-3.25313 2.2962,-8.06205 5.8734,-12.32505 l 1.9525,-2.32695 -1.7148,-0.71595 c -0.9431,-0.39383 -2.6785,-1.19588 -3.8564,-1.78238 -1.1779,-0.5865 -2.7292,-1.29352 -3.4475,-1.57102 -0.7182,-0.27758 -2.3222,-0.97283 -3.5644,-1.545 -3.3501,-1.54298 -13.3652,-5.12153 -14.3335,-5.12153 -0.259,0 -0.8578,0.10178 -1.3307,0.22613 -0.4729,0.12435 -1.7624,0.44985 -2.8658,0.7233 -2.1853,0.5418 -6.3663,2.21595 -10.14,4.0602 -1.3189,0.64462 -2.4937,1.17202 -2.6106,1.17202 -0.117,0 -0.7497,0.20588 -1.406,0.45758 -1.6211,0.6216 -4.7385,1.49025 -6.1862,1.72372 -0.4346,0.0701 -1.1237,0.18417 -1.7865,0.2955 m 0.0649,-37.28417 c 12.89158,-11.12096 36.43276,-3.03611 45.1005,-6.63522 21.3481,-7.00477 47.33507,4.45341 69.7958,8.4126 22.39178,9.07469 35.85425,-21.31627 57.6554,-11.19683 21.31342,2.65911 38.60595,-15.78561 50.53254,-24.55074 13.3373,-6.04492 27.37693,-31.96281 32.07636,-50.09923 10.33244,-15.54606 7.12204,-26.51312 4.386,-41.85942 21.44255,-12.82482 2.03552,-40.00888 8.85121,-61.26121 -4.44758,-18.18188 16.0351,-61.75602 30.42219,-29.66702 5.70598,20.4492 -2.42455,50.95095 21.139,61.86607 14.52401,1.68763 29.78856,31.55744 11.44198,35.86243 -7.86869,-8.35148 -29.13521,-19.24145 -20.21608,3.02185 7.54531,23.05717 -18.09755,16.99778 -25.44236,21.9476 -6.17999,25.38836 -25.3693,44.8688 -33.32614,69.17192 -7.22613,12.71508 0.90834,38.52423 13.44029,17.58481 -1.93093,-18.96659 39.34525,-22.61236 31.04495,-31.42099 -8.72487,-12.16902 2.34576,-33.21867 13.02406,-13.62484 16.4249,11.45494 26.90778,-18.76866 43.7944,-22.86608 8.20931,-5.11302 29.65901,-41.05208 32.73783,-21.67748 -11.49324,10.20136 -12.16431,13.85246 3.08498,14.36535 0.98874,9.85664 1.85552,13.97271 -3.64561,25.36493 8.7768,11.86153 34.21788,14.76243 47.26171,27.68423 19.30206,10.26899 33.80367,34.97004 21.66922,55.70655 -13.98246,14.97145 -40.35298,10.51243 -56.64795,24.29895 -10.04264,6.44977 -40.63612,-2.60739 -31.61759,17.10573 -2.62755,16.57232 27.00454,35.03935 15.59611,44.68279 -16.18104,-11.94147 -26.08198,-30.87883 -45.2001,-39.23872 -8.43097,-10.03126 -15.77002,-15.16857 -23.7254,-1.09283 -19.26613,0.0665 -13.97334,-13.6277 -2.5316,-21.25132 -21.17622,-11.45682 -30.93872,28.73639 -50.58437,5.21267 -10.11679,-14.53104 13.24782,-29.78911 14.50217,-27.40557 -10.54477,-20.04461 -27.27315,5.35453 -19.27578,20.10137 -3.59171,22.99666 -4.06405,47.45685 7.47554,68.51776 9.64262,14.98269 -3.03905,42.94452 21.19939,42.42385 6.19542,13.98003 -22.35976,26.20508 0.53505,39.40554 11.64724,19.69768 36.78149,19.99446 52.9905,26.49615 3.55459,29.99097 -38.25696,14.28123 -43.50171,17.91847 -0.55828,19.94931 -3.55439,47.04674 -25.43619,54.69883 -22.66021,2.56943 -33.74805,-24.41231 -35.51891,-43.1135 -4.32086,-21.55228 -0.73014,-44.93913 3.94011,-64.34325 -18.6643,-10.75695 -14.7355,-28.46639 5.69876,-33.58918 -8.37693,-21.72509 -2.71622,-45.46583 -11.33028,-66.7829 2.37849,-14.96863 -17.47119,-42.04768 -30.98038,-26.59602 -7.976,15.69106 -26.41879,9.21241 -35.06972,25.84393 -7.27345,19.65774 -18.82889,36.92812 -33.40138,51.7821 -9.3236,16.93796 -12.94159,-4.95184 -13.7899,-7.8459 -10.10212,10.05928 -46.1217,30.00795 -30.59345,-0.0696 -13.8391,8.97258 -34.32223,22.70841 -46.52176,37.6548 -6.18951,16.77281 -42.70958,26.97744 -29.54175,45.41474 6.94384,11.51156 -2.48758,19.38678 -11.79044,24.7432 m 0.2928,-241.10137 -0.065,37.28417 m 0.028,136.69338 -0.2558,67.12385" />
  </g>
</svg>
