<?xml version="1.0" encoding="UTF-8" standalone="no"?>
<svg
   xmlns:dc="http://purl.org/dc/elements/1.1/"
   xmlns:cc="http://creativecommons.org/ns#"
   xmlns:rdf="http://www.w3.org/1999/02/22-rdf-syntax-ns#"
   xmlns:svg="http://www.w3.org/2000/svg"
   xmlns="http://www.w3.org/2000/svg"
   xmlns:sodipodi="http://sodipodi.sourceforge.net/DTD/sodipodi-0.dtd"
   xmlns:inkscape="http://www.inkscape.org/namespaces/inkscape"
   width="12in"
   height="12in"
   viewBox="0 0 12 12"
   version="1.1"
   id="svg8"
   inkscape:version="1.0.1 (3bc2e813f5, 2020-09-07)"
   sodipodi:docname="Cash Arrows Double.svg">
  <defs
     id="defs2" />
  <sodipodi:namedview
     id="base"
     pagecolor="#ffffff"
     bordercolor="#666666"
     borderopacity="1.0"
     inkscape:pageopacity="0.0"
     inkscape:pageshadow="2"
     inkscape:zoom="1.6328077"
     inkscape:cx="317.01991"
     inkscape:cy="113.79103"
     inkscape:document-units="in"
     inkscape:current-layer="layer1"
     inkscape:document-rotation="0"
     showgrid="true"
     units="in"
     inkscape:snap-global="true"
     inkscape:window-width="1807"
     inkscape:window-height="1001"
     inkscape:window-x="25"
     inkscape:window-y="12"
     inkscape:window-maximized="0"
     inkscape:snap-nodes="false"
     inkscape:snap-others="false"
     inkscape:snap-smooth-nodes="false"
     inkscape:object-paths="false"
     inkscape:snap-intersection-paths="false"
     inkscape:snap-grids="false"
     inkscape:snap-to-guides="false"
     inkscape:snap-bbox="true"
     inkscape:bbox-nodes="true">
    <inkscape:grid
       type="xygrid"
       id="grid849"
       units="in"
       spacingx="0.25"
       spacingy="0.25"
       empspacing="4" />
  </sodipodi:namedview>
  <metadata
     id="metadata5">
    <rdf:RDF>
      <cc:Work
         rdf:about="">
        <dc:format>image/svg+xml</dc:format>
        <dc:type
           rdf:resource="http://purl.org/dc/dcmitype/StillImage" />
        <dc:title></dc:title>
        <dc:creator>
          <cc:Agent>
            <dc:title>Doctor Wizard</dc:title>
          </cc:Agent>
        </dc:creator>
        <dc:rights>
          <cc:Agent>
            <dc:title>Copyright 2021+ by Doctor Wizard</dc:title>
          </cc:Agent>
        </dc:rights>
        <dc:publisher>
          <cc:Agent>
            <dc:title>Doctor Wizard</dc:title>
          </cc:Agent>
        </dc:publisher>
        <dc:source>Doctor Wizard</dc:source>
        <dc:contributor>
          <cc:Agent>
            <dc:title>Doctor Wizard</dc:title>
          </cc:Agent>
        </dc:contributor>
      </cc:Work>
    </rdf:RDF>
  </metadata>
  <g
     inkscape:label="Layer 1"
     inkscape:groupmode="layer"
     id="layer1">
    <path
       id="polygon2230-4"
       style="fill:none;fill-opacity:1;stroke:#ff0000;stroke-width:0.377953;stroke-miterlimit:4;stroke-dasharray:none;stroke-opacity:1"
       d="M 325.04297 32.072266 L 292.04297 32.275391 L 226.54883 114.67969 L 293.05859 197.27344 L 326.05859 197.07031 L 259.54883 114.47656 L 325.04297 32.072266 z M 275.04297 32.380859 L 242.04492 32.583984 L 176.55078 114.98828 L 243.05859 197.58008 L 276.05859 197.37695 L 209.54883 114.78516 L 275.04297 32.380859 z M 225.04492 32.6875 L 192.04492 32.890625 L 126.55078 115.29492 L 193.06055 197.88867 L 226.06055 197.68555 L 159.55078 115.0918 L 225.04492 32.6875 z M 176.04492 32.990234 L 94.046875 33.494141 L 28.552734 115.89844 L 95.0625 198.49023 L 177.06055 197.98633 L 110.55078 115.39453 L 176.04492 32.990234 z "
       transform="scale(0.01041667)" />
    <path
       id="rect4745-43"
       style="opacity:0.928105;fill:none;fill-opacity:1;stroke:#ff0000;stroke-width:0.0019685;stroke-miterlimit:4;stroke-dasharray:none;stroke-opacity:1"
       d="M 8.676754,0.24875386 H 9.292716 V 1.0127836 H 8.676754 Z m -0.5172443,0 H 8.6747856 V 1.0127836 H 8.1595097 Z m -0.5142827,0 H 8.1575415 V 1.0127836 H 7.645227 Z m -0.6445828,0 H 7.6432584 V 1.0127836 H 7.0006442 Z m 0.3444305,0.0260265 c -0.084148,0 -0.158229,0.0311006 -0.222229,0.0933228 -0.064,0.0622223 -0.095988,0.1348105 -0.095988,0.21777351 0,0.0823704 0.031706,0.15378897 0.095113,0.21423346 0.064,0.0598519 0.1398355,0.0897827 0.2275392,0.0897827 0.026074,0 0.047413,-0.00238 0.064006,-0.007121 0.017185,-0.004148 0.033179,-0.00919 0.047994,-0.0151164 0.00177,-5.9274e-4 0.00385,-0.001177 0.00623,-0.00177 0.00237,-0.001185 0.00445,-0.002375 0.00623,-0.00356 0.010074,-0.004148 0.020441,-0.008001 0.031108,-0.011556 0.011259,-0.003556 0.024006,-0.006803 0.038228,-0.009766 0.016,-0.002963 0.029916,-0.0118576 0.041768,-0.0266724 0.011851,-0.0148148 0.020746,-0.0308088 0.026672,-0.047994 0.00237,-0.007111 0.00414,-0.0142308 0.00533,-0.021342 0.00119,-0.007111 0.00177,-0.0136256 0.00177,-0.0195516 0,-0.0136297 -0.00355,-0.0251865 -0.010661,-0.034668 -0.00711,-0.009481 -0.015703,-0.0142212 -0.025777,-0.0142212 -0.00474,0 -0.010953,0.003247 -0.018656,0.009766 -0.00711,0.005926 -0.016611,0.0124608 -0.028463,0.0195719 -0.011259,0.007111 -0.025478,0.0139281 -0.042664,0.0204468 -0.016593,0.005926 -0.037024,0.00887 -0.06132,0.00887 -0.058074,0 -0.1031116,-0.0222059 -0.1351116,-0.0666504 C 7.2647796,0.62411449 7.248483,0.5752248 7.2472964,0.52189144 v -0.002665 -0.002686 c 0,-0.0379259 0.00859,-0.0675542 0.025777,-0.0888876 0.017778,-0.0213333 0.042061,-0.0319824 0.072876,-0.0319824 0.03437,0 0.060751,0.007987 0.079122,0.0239868 0.01837,0.0154074 0.033477,0.0323091 0.045329,0.0506796 0.00296,0.004741 0.00562,0.009178 0.008,0.013326 0.00296,0.004148 0.00562,0.008303 0.008,0.0124512 0.00889,0.0136297 0.018086,0.0254688 0.027567,0.0355428 0.010074,0.009481 0.023103,0.0142212 0.039103,0.0142212 0.024297,0 0.04386,-0.007987 0.058675,-0.0239868 0.014815,-0.0165926 0.022217,-0.0382341 0.022217,-0.0649007 -1e-7,-0.0385186 -0.00829,-0.072584 -0.024882,-0.10221358 -0.016,-0.0302222 -0.034676,-0.0453288 -0.05601,-0.0453288 -0.00297,0 -0.00593,2.8225e-4 -0.00889,8.7484e-4 -0.00297,5.9274e-4 -0.00593,0.001198 -0.00889,0.00179 -0.00119,5.9274e-4 -0.00237,0.001177 -0.00356,0.00177 -5.933e-4,0 -0.00148,-3.0258e-4 -0.00267,-8.9518e-4 l 2.04e-5,8.9518e-4 c -0.00118,0 -0.00266,3.026e-4 -0.00444,8.9519e-4 -0.00118,0 -0.00268,2.8224e-4 -0.00446,8.7483e-4 h -0.00267 -0.00177 c -0.00593,0 -0.013933,-0.002057 -0.024007,-0.006205 -0.010075,-0.004148 -0.021934,-0.008888 -0.035563,-0.0142212 -0.014222,-0.005333 -0.030519,-0.0100732 -0.048889,-0.0142212 -0.01837,-0.004148 -0.039104,-0.006226 -0.062215,-0.006226 z m 1.570659,0.011556 c -0.00889,0 -0.023411,0.001473 -0.043559,0.004435 -0.019555,0.00237 -0.040592,0.00592 -0.06311,0.0106608 -0.028445,0.007111 -0.054806,0.0166109 -0.079102,0.0284627 -0.023704,0.0112593 -0.035563,0.0251758 -0.035563,0.0417684 0,0.006519 0.00208,0.0124482 0.00623,0.0177816 0.00415,0.005333 0.010965,0.0103757 0.020447,0.0151164 0.013633,0.006519 0.021922,0.0183576 0.024882,0.0355428 0.00296,0.0171852 0.00444,0.0589755 0.00444,0.1253459 v 0.00533 0.004435 c 0,0.008296 -2.823e-4,0.0180783 -8.749e-4,0.0293376 0,0.0106667 -3.025e-4,0.0287381 -8.951e-4,0.0542196 -5.934e-4,0.0438519 -0.00326,0.0767476 -0.008,0.0986735 -0.00415,0.0219258 -0.010663,0.0361449 -0.019552,0.0426636 -5.942e-4,5.9275e-4 -0.0012,0.001177 -0.00179,0.00177 -5.94e-4,0 -0.00118,3.0259e-4 -0.00177,8.9518e-4 h -8.952e-4 c -0.00593,0.004741 -0.011553,0.009783 -0.016886,0.0151164 -0.00474,0.004741 -0.00712,0.0112553 -0.00712,0.0195516 0,0.0165926 0.012162,0.0290369 0.036458,0.0373332 0.024889,0.008296 0.062222,0.0124512 0.1119996,0.0124512 0.042667,0 0.074655,-0.003852 0.095988,-0.011556 0.021926,-0.007704 0.032898,-0.0198657 0.032898,-0.0364583 0,-0.005333 -0.00148,-0.0100732 -0.00444,-0.0142212 -0.00297,-0.004741 -0.00593,-0.009178 -0.00889,-0.013326 H 8.955732 c -5.941e-4,-5.9275e-4 -0.0012,-0.001198 -0.00179,-0.00179 -5.94e-4,-0.001185 -0.00118,-0.002073 -0.00177,-0.002665 -0.00652,-0.007111 -0.010671,-0.015098 -0.012451,-0.0239868 -0.00178,-0.008889 -0.00267,-0.0180861 -0.00267,-0.0275675 v -0.00533 -0.004435 c 0,-0.003556 -3.026e-4,-0.006823 -8.953e-4,-0.009786 v -0.009766 h 2.05e-5 v -0.0826823 c 0,-0.0260741 0.00357,-0.0444481 0.010681,-0.0551148 0.0077,-0.0112593 0.019845,-0.0168864 0.036438,-0.0168864 0.022519,0 0.038513,0.009479 0.047994,0.0284424 0.010074,0.0183703 0.015116,0.0497938 0.015116,0.0942383 0,0.0337777 -0.00148,0.059836 -0.00444,0.0782064 -0.00296,0.0177778 -0.0077,0.0308273 -0.014221,0.0391236 -5.933e-4,0.001185 -0.00148,0.002375 -0.00267,0.00356 -5.941e-4,5.9267e-4 -0.0012,0.00148 -0.00179,0.002665 v 8.7483e-4 c -0.00355,0.004148 -0.00652,0.008303 -0.00889,0.0124512 -0.00237,0.004148 -0.00356,0.008888 -0.00356,0.0142212 0,0.0142222 0.010669,0.0248916 0.032003,0.0320028 0.021333,0.006519 0.053342,0.009786 0.096008,0.009786 0.046815,0 0.081767,-0.00357 0.1048788,-0.0106812 0.023111,-0.007704 0.034668,-0.0192606 0.034668,-0.034668 0,-0.006519 -0.00208,-0.0121457 -0.00623,-0.0168864 -0.00415,-0.005334 -0.00889,-0.009771 -0.014221,-0.013326 -5.934e-4,-5.9275e-4 -0.00148,-0.001198 -0.00267,-0.00179 -5.933e-4,-0.001185 -0.00148,-0.002073 -0.00267,-0.002665 -0.00474,-0.004148 -0.0086,-0.009775 -0.011556,-0.0168864 -0.00237,-0.007704 -0.00384,-0.0168805 -0.00444,-0.0275472 l -0.00356,-0.1564535 c -5.934e-4,-0.032 -0.00328,-0.0562834 -0.00802,-0.072876 -0.00474,-0.0165926 -0.013615,-0.0314169 -0.026652,-0.044454 -0.011852,-0.0130371 -0.027866,-0.0234039 -0.048014,-0.0311076 -0.019555,-0.007704 -0.040289,-0.011556 -0.062215,-0.011556 -0.021926,0 -0.0403,0.004155 -0.055115,0.0124512 -0.014222,0.007704 -0.026364,0.0162957 -0.036438,0.0257772 -0.00948,0.009482 -0.017487,0.0183558 -0.024007,0.026652 -0.00593,0.007704 -0.011251,0.011556 -0.015991,0.011556 -0.00652,0 -0.011563,-0.002662 -0.015116,-0.007996 -0.00355,-0.005926 -0.00533,-0.0145179 -0.00533,-0.0257772 l 0.00533,-0.18133551 c 0,-0.008297 -0.00178,-0.0139237 -0.00533,-0.0168864 -0.00356,-0.002963 -0.010373,-0.004435 -0.020447,-0.004435 z m -0.489787,0.0159912 -0.036458,8.9517e-4 c -0.011261,0 -0.018945,0.001775 -0.023092,0.00533 -0.00355,0.003556 -0.00533,0.0109575 -0.00533,0.0222168 v 0.0204468 l 2.03e-5,8.9518e-4 c 0,0.004741 -3.026e-4,0.007988 -8.952e-4,0.009766 0,0.001777 -2.822e-4,0.00327 -8.748e-4,0.004456 l -8.952e-4,8.9518e-4 c -0.00178,0.001778 -0.010975,0.005025 -0.027567,0.009766 -0.016593,0.004741 -0.034946,0.0130301 -0.055094,0.024882 -0.020741,0.0118519 -0.03972,0.0290562 -0.056905,0.0515747 -0.017185,0.0219259 -0.025777,0.0512516 -0.025777,0.0879924 0,0.0379259 0.013332,0.071709 0.039998,0.10133873 0.02726,0.029037 0.066388,0.0527356 0.1173502,0.071106 0.027852,0.009481 0.048586,0.017186 0.062215,0.023112 0.013629,0.005333 0.023109,0.0100732 0.028442,0.0142212 0.00415,0.003556 0.00651,0.007105 0.0071,0.0106608 0.00119,0.003556 0.00179,0.007711 0.00179,0.0124512 0,0.0106667 -0.00593,0.0198435 -0.017782,0.0275472 -0.011259,0.007111 -0.025478,0.0106812 -0.042664,0.0106812 -0.031407,0 -0.055993,-0.006232 -0.073771,-0.0186768 -0.017185,-0.0124445 -0.031425,-0.0260788 -0.042684,-0.0408936 -0.00474,-0.005333 -0.00888,-0.0106579 -0.012431,-0.0159912 -0.00356,-0.005926 -0.00741,-0.0112709 -0.011556,-0.0160116 -0.00592,-0.007704 -0.012157,-0.0139158 -0.018677,-0.0186564 -0.00593,-0.005333 -0.013328,-0.007996 -0.022217,-0.007996 -0.0083,0 -0.015114,0.003852 -0.020447,0.011556 -0.00533,0.007111 -0.008,0.0165905 -0.008,0.0284424 0,0.006518 3.026e-4,0.0136179 8.952e-4,0.0213216 0.00118,0.007704 0.00266,0.0154082 0.00444,0.023112 0.00355,0.0154074 0.00829,0.0302317 0.014221,0.0444539 0.00592,0.0142223 0.012136,0.0254765 0.018656,0.0337728 0.00118,0.001777 0.00268,0.003552 0.00446,0.00533 0.00237,0.001185 0.00504,0.002678 0.008,0.004456 0.011852,0.007111 0.028451,0.0136256 0.049784,0.0195516 0.021333,0.006519 0.044145,0.0112585 0.068441,0.0142212 0.00533,5.92e-4 0.00858,0.002065 0.00977,0.004435 0.00178,0.00237 0.00269,0.007413 0.00269,0.0151164 v 0.0204468 c 0,0.0118521 0.00178,0.0195566 0.00533,0.023112 0.00415,0.003555 0.011853,0.00533 0.023112,0.00533 h 0.036438 c 0.011854,-1e-8 0.019559,-0.001775 0.023112,-0.00533 0.00355,-0.003556 0.00533,-0.0112601 0.00533,-0.023112 v -0.0204468 c 0,-0.008296 8.852e-4,-0.0136205 0.00267,-0.0159912 0.00237,-0.001777 0.0077,-0.00327 0.015991,-0.004456 0.04563,-0.002963 0.087117,-0.021337 0.1244508,-0.0551148 0.037926,-0.0343704 0.056885,-0.0749504 0.056885,-0.12176518 0,-0.0402963 -0.012142,-0.0731921 -0.036438,-0.0986735 -0.024297,-0.0260741 -0.062819,-0.0471104 -0.11556,-0.0631104 -0.024889,-0.007111 -0.044433,-0.0130409 -0.058655,-0.0177816 -0.014222,-0.004741 -0.024891,-0.009481 -0.032003,-0.0142212 -0.00711,-0.004148 -0.011566,-0.008585 -0.013346,-0.013326 -0.00178,-0.004741 -0.00267,-0.0106704 -0.00267,-0.0177816 0,-0.0118517 0.00416,-0.0210285 0.012451,-0.0275472 0.0083,-0.007111 0.019551,-0.0106812 0.033773,-0.0106812 0.018371,0 0.034667,0.004457 0.048889,0.0133464 0.014222,0.008889 0.027251,0.0183683 0.039103,0.0284424 0.0077,0.006518 0.014822,0.0127304 0.021342,0.0186564 0.00652,0.005926 0.013336,0.0109684 0.020447,0.0151164 0.00415,0.002963 0.0083,0.005343 0.012451,0.007121 0.00474,0.001185 0.00948,0.00177 0.014221,0.00177 0.01363,0 0.024582,-0.004437 0.032878,-0.013326 0.0083,-0.009481 0.012451,-0.0225309 0.012451,-0.0391235 0,-0.006519 -0.00119,-0.0139205 -0.00356,-0.0222168 -0.00237,-0.008296 -0.00534,-0.0165857 -0.00889,-0.024882 -0.0077,-0.0171852 -0.01807,-0.032897 -0.031108,-0.0471192 -0.013037,-0.0142222 -0.026369,-0.021342 -0.039998,-0.021342 -0.00297,0 -0.00593,6.0503e-4 -0.00889,0.00179 -0.00297,5.9267e-4 -0.00593,0.00148 -0.00889,0.002665 -5.933e-4,5.9274e-4 -0.0015,0.001177 -0.00269,0.00177 h -0.00267 c -0.00177,0.001185 -0.00383,0.002073 -0.00621,0.002665 h -0.00533 c -0.00178,0 -0.00593,-5.8468e-4 -0.012451,-0.00177 -0.00592,-0.001185 -0.012157,-0.002375 -0.018677,-0.00356 -0.00177,-5.9259e-4 -0.00325,-8.7484e-4 -0.00444,-8.7484e-4 -0.00119,-5.926e-4 -0.00237,-8.9518e-4 -0.00356,-8.9518e-4 -0.00533,-0.001185 -0.010074,-0.002375 -0.014221,-0.00356 -0.00415,-0.001185 -0.00711,-0.002073 -0.00889,-0.002665 -0.00119,-0.001185 -0.00237,-0.002073 -0.00356,-0.002665 -5.934e-4,-0.001185 -0.00148,-0.002375 -0.00267,-0.00356 -0.00119,-0.001185 -0.00207,-0.002657 -0.00267,-0.004435 v -0.009786 -0.0195516 c 0,-0.0118521 -0.00178,-0.0195567 -0.00533,-0.023112 -0.00356,-0.003555 -0.01126,-0.005633 -0.023112,-0.006226 z M 7.9032618,0.44632989 c -0.011852,0 -0.026373,0.001473 -0.043559,0.004435 -0.016593,0.00237 -0.033474,0.006223 -0.050659,0.011556 -0.030815,0.009481 -0.059253,0.0231158 -0.085327,0.0408936 -0.025481,0.0171852 -0.038228,0.0391089 -0.038228,0.0657756 0,0.0118519 0.00474,0.0219365 0.014221,0.0302328 0.00948,0.008296 0.021341,0.0124308 0.035563,0.0124308 0.016593,0 0.030227,-0.00474 0.040893,-0.0142212 0.010667,-0.009481 0.020429,-0.0201509 0.029317,-0.0320028 0.00177,-0.001777 0.00355,-0.003835 0.00533,-0.006205 0.00177,-0.00237 0.00327,-0.004448 0.00446,-0.006226 0.00711,-0.008889 0.01421,-0.0165933 0.021322,-0.023112 0.0077,-0.006519 0.016598,-0.009786 0.026673,-0.009786 0.013628,0 0.023692,0.00712 0.030212,0.021342 0.00652,0.0136297 0.00979,0.0352508 0.00979,0.0648804 0,0.0130373 -0.00208,0.0210445 -0.00623,0.0240072 -0.00415,0.002963 -0.014817,0.004738 -0.032003,0.00533 -0.00948,0 -0.019243,5.8467e-4 -0.029317,0.00177 -0.00948,5.9266e-4 -0.018961,0.00148 -0.028442,0.002665 -0.037334,0.006519 -0.071419,0.0201528 -0.102234,0.0408936 -0.030815,0.0201481 -0.046224,0.0515513 -0.046224,0.094218 0,0.0337778 0.013332,0.061349 0.039998,0.0826823 0.026667,0.0213333 0.060753,0.0320028 0.1022339,0.0320028 0.016,0 0.030521,-0.002078 0.043559,-0.006226 0.013037,-0.004148 0.024594,-0.008888 0.034668,-0.0142212 0.010667,-0.005333 0.019541,-0.0100732 0.026652,-0.0142212 0.00711,-0.004741 0.012458,-0.007121 0.016012,-0.007121 0.00119,0 0.00207,3.0258e-4 0.00267,8.9517e-4 0.00119,0 0.00237,3.026e-4 0.00356,8.9519e-4 0.00356,0.001778 0.00711,0.00444 0.010661,0.007996 0.00356,0.003556 0.00801,0.007408 0.013346,0.011556 0.00593,0.005333 0.013631,0.0100732 0.023112,0.0142212 0.00948,0.004148 0.021623,0.006226 0.036438,0.006226 0.00592,-10e-9 0.012137,-6.0504e-4 0.018657,-0.00179 0.00711,-0.001185 0.014231,-0.00296 0.021342,-0.00533 0.021926,-0.005926 0.041772,-0.0171802 0.05955,-0.0337728 0.018371,-0.0165926 0.027567,-0.0361566 0.027567,-0.0586751 1e-7,-0.007703 -0.00238,-0.0127457 -0.00712,-0.0151164 -0.00415,-0.00237 -0.00947,-0.003843 -0.015991,-0.004435 -0.00948,-0.001778 -0.016602,-0.0103698 -0.021342,-0.0257772 -0.00415,-0.0154075 -0.00621,-0.0411834 -0.00621,-0.0773316 v -0.0142212 c 0,-0.005333 2.823e-4,-0.0103757 8.749e-4,-0.0151164 v -0.0142212 -0.0151164 c 0,-0.0337778 -0.00327,-0.0589486 -0.00979,-0.0755412 -0.00652,-0.0171852 -0.018963,-0.032897 -0.037333,-0.0471192 h -0.00177 c 0,-5.9275e-4 -3.026e-4,-0.001177 -8.952e-4,-0.00177 -0.017185,-0.013037 -0.037031,-0.0225164 -0.05955,-0.0284424 -0.021926,-0.006519 -0.047419,-0.009786 -0.076457,-0.009786 z m -0.021301,0.25067147 c 0.00948,0 0.015696,0.002965 0.018656,0.008891 0.00355,0.005926 0.00533,0.016575 0.00533,0.0319824 0,0.0201481 -0.00296,0.0352751 -0.00889,0.0453491 -0.00533,0.009481 -0.013925,0.0142212 -0.025777,0.0142212 -0.010667,0 -0.019561,-0.004457 -0.026672,-0.0133464 -0.00644,-0.008778 -0.00964,-0.0198836 -0.00972,-0.0332845 8.36e-5,-0.0146349 0.00448,-0.0272562 0.013285,-0.0378215 0.00948,-0.0106667 0.020756,-0.0159912 0.033793,-0.0159912 z" />
    <path
       id="rect4745-43-7"
       style="opacity:0.928105;fill:none;fill-opacity:1;stroke:#ff0000;stroke-width:0.0019685;stroke-miterlimit:4;stroke-dasharray:none;stroke-opacity:1"
       d="M 8.676754,1.0147521 H 9.2927159 V 1.7787819 H 8.676754 Z m -0.5172443,0 H 8.6747855 V 1.7787819 H 8.1595097 Z m -0.5142827,0 H 8.1575415 V 1.7787819 H 7.645227 Z m -0.6445828,0 H 7.6432584 V 1.7787819 H 7.0006442 Z m 0.3444305,0.026026 c -0.084148,0 -0.158229,0.031101 -0.222229,0.093323 -0.064,0.062222 -0.095988,0.1348105 -0.095988,0.2177735 0,0.08237 0.031706,0.153789 0.095113,0.2142335 0.064,0.059852 0.1398355,0.089783 0.2275392,0.089783 0.026074,0 0.047413,-0.00238 0.064006,-0.00712 0.017185,-0.00415 0.033179,-0.00919 0.047994,-0.015116 0.00177,-5.927e-4 0.00385,-0.00118 0.00623,-0.00177 0.00237,-0.00118 0.00445,-0.00238 0.00623,-0.00356 0.010074,-0.00415 0.020441,-0.008 0.031108,-0.011556 0.011259,-0.00356 0.024006,-0.0068 0.038228,-0.00977 0.016,-0.00296 0.029916,-0.011858 0.041768,-0.026672 0.011851,-0.014815 0.020746,-0.030809 0.026672,-0.047994 0.00237,-0.00711 0.00414,-0.014231 0.00533,-0.021342 0.00119,-0.00711 0.00177,-0.013626 0.00177,-0.019552 0,-0.01363 -0.00355,-0.025187 -0.010661,-0.034668 -0.00711,-0.00948 -0.015703,-0.014221 -0.025777,-0.014221 -0.00474,0 -0.010953,0.00325 -0.018656,0.00977 -0.00711,0.00593 -0.016611,0.012461 -0.028463,0.019572 -0.011259,0.00711 -0.025478,0.013928 -0.042664,0.020447 -0.016593,0.00593 -0.037024,0.00887 -0.06132,0.00887 -0.058074,0 -0.1031116,-0.022206 -0.1351116,-0.06665 -0.031414,-0.044444 -0.04771,-0.093334 -0.048897,-0.1466671 v -0.00267 -0.00269 c 0,-0.037926 0.00859,-0.067554 0.025777,-0.088888 0.017778,-0.021333 0.042061,-0.031982 0.072876,-0.031982 0.03437,0 0.060751,0.00799 0.079122,0.023987 0.01837,0.015407 0.033477,0.032309 0.045329,0.05068 0.00296,0.00474 0.00562,0.00918 0.008,0.013326 0.00296,0.00415 0.00562,0.0083 0.008,0.012451 0.00889,0.01363 0.018086,0.025469 0.027567,0.035543 0.010074,0.00948 0.023103,0.014221 0.039103,0.014221 0.024297,0 0.04386,-0.00799 0.058675,-0.023987 0.014815,-0.016593 0.022217,-0.038234 0.022217,-0.064901 -1e-7,-0.038519 -0.00829,-0.072584 -0.024882,-0.1022136 -0.016,-0.030222 -0.034676,-0.045329 -0.05601,-0.045329 -0.00297,0 -0.00593,2.823e-4 -0.00889,8.749e-4 -0.00297,5.927e-4 -0.00593,0.0012 -0.00889,0.00179 -0.00119,5.927e-4 -0.00237,0.00118 -0.00356,0.00177 -5.934e-4,0 -0.00148,-3.026e-4 -0.00267,-8.952e-4 l 2.08e-5,8.952e-4 c -0.00118,0 -0.00266,3.026e-4 -0.00444,8.952e-4 -0.00118,0 -0.00268,2.822e-4 -0.00446,8.748e-4 h -0.00267 -0.00177 c -0.00593,0 -0.013933,-0.00206 -0.024007,-0.00621 -0.010075,-0.00415 -0.021934,-0.00889 -0.035563,-0.014221 -0.014222,-0.00533 -0.030519,-0.010073 -0.048889,-0.014221 -0.01837,-0.00415 -0.039104,-0.00623 -0.062215,-0.00623 z m 1.5706589,0.011556 c -0.00889,0 -0.023411,0.00147 -0.043559,0.00443 -0.019555,0.00237 -0.040592,0.00592 -0.06311,0.010661 -0.028445,0.00711 -0.054806,0.016611 -0.079102,0.028463 -0.023704,0.011259 -0.035563,0.025176 -0.035563,0.041768 0,0.00652 0.00208,0.012448 0.00623,0.017782 0.00415,0.00533 0.010965,0.010376 0.020447,0.015116 0.013633,0.00652 0.021922,0.018358 0.024882,0.035543 0.00296,0.017185 0.00444,0.058976 0.00444,0.1253459 v 0.00533 0.00443 c 0,0.0083 -2.823e-4,0.018078 -8.75e-4,0.029338 0,0.010667 -3.021e-4,0.028738 -8.948e-4,0.05422 -5.938e-4,0.043852 -0.00326,0.076748 -0.008,0.098674 -0.00415,0.021926 -0.010663,0.036145 -0.019552,0.042664 -5.948e-4,5.927e-4 -0.0012,0.00118 -0.00179,0.00177 -5.938e-4,0 -0.00118,3.026e-4 -0.00177,8.952e-4 H 8.716622 c -0.00593,0.00474 -0.011553,0.00978 -0.016886,0.015116 -0.00474,0.00474 -0.00712,0.011255 -0.00712,0.019552 0,0.016593 0.012162,0.029037 0.036458,0.037333 0.024889,0.0083 0.062222,0.012451 0.1119995,0.012451 0.042667,0 0.074655,-0.00385 0.095988,-0.011556 0.021926,-0.0077 0.032898,-0.019866 0.032898,-0.036458 0,-0.00533 -0.00148,-0.010073 -0.00444,-0.014221 -0.00297,-0.00474 -0.00593,-0.00918 -0.00889,-0.013326 h -8.969e-4 c -5.937e-4,-5.927e-4 -0.0012,-0.0012 -0.00179,-0.00179 -5.937e-4,-0.00118 -0.00118,-0.00207 -0.00177,-0.00267 -0.00652,-0.00711 -0.010671,-0.015098 -0.012451,-0.023987 -0.00178,-0.00889 -0.00267,-0.018086 -0.00267,-0.027567 v -0.00533 -0.00443 c 0,-0.00356 -3.031e-4,-0.00682 -8.948e-4,-0.00979 v -0.00977 h 2.08e-5 v -0.082682 c 0,-0.026074 0.00357,-0.044448 0.010681,-0.055115 0.0077,-0.011259 0.019845,-0.016886 0.036438,-0.016886 0.022519,0 0.038513,0.00948 0.047994,0.028442 0.010074,0.01837 0.015116,0.049794 0.015116,0.094238 0,0.033778 -0.00148,0.059836 -0.00444,0.078206 -0.00296,0.017778 -0.0077,0.030827 -0.014221,0.039124 -5.937e-4,0.00118 -0.00148,0.00238 -0.00267,0.00356 -5.937e-4,5.927e-4 -0.0012,0.00148 -0.00179,0.00266 v 8.748e-4 c -0.00355,0.00415 -0.00652,0.0083 -0.00889,0.012451 -0.00237,0.00415 -0.00356,0.00889 -0.00356,0.014221 0,0.014222 0.010669,0.024892 0.032003,0.032003 0.021333,0.00652 0.053342,0.00979 0.096008,0.00979 0.046815,0 0.081767,-0.00357 0.1048788,-0.010681 0.023111,-0.0077 0.034668,-0.019261 0.034668,-0.034668 0,-0.00652 -0.00208,-0.012146 -0.00623,-0.016886 -0.00415,-0.00533 -0.00889,-0.00977 -0.014221,-0.013326 -5.937e-4,-5.927e-4 -0.00148,-0.0012 -0.00267,-0.00179 -5.937e-4,-0.00118 -0.00148,-0.00207 -0.00267,-0.00266 -0.00474,-0.00415 -0.0086,-0.00978 -0.011556,-0.016886 -0.00237,-0.0077 -0.00384,-0.016881 -0.00444,-0.027547 l -0.00356,-0.1564535 c -5.937e-4,-0.032 -0.00328,-0.056283 -0.00802,-0.072876 -0.00474,-0.016593 -0.013615,-0.031417 -0.026652,-0.044454 -0.011852,-0.013037 -0.027866,-0.023404 -0.048014,-0.031108 -0.019555,-0.0077 -0.040289,-0.011556 -0.062215,-0.011556 -0.021926,0 -0.0403,0.00415 -0.055115,0.012451 -0.014222,0.0077 -0.026364,0.016296 -0.036438,0.025777 -0.00948,0.00948 -0.017487,0.018356 -0.024007,0.026652 -0.00593,0.0077 -0.011251,0.011556 -0.015991,0.011556 -0.00652,0 -0.011563,-0.00266 -0.015116,-0.008 -0.00355,-0.00593 -0.00533,-0.014518 -0.00533,-0.025777 L 8.9414784,1.07364 c 0,-0.0083 -0.00178,-0.013924 -0.00533,-0.016886 -0.00356,-0.00296 -0.010373,-0.00443 -0.020447,-0.00443 z m -0.4897869,0.015991 -0.036458,8.952e-4 c -0.011261,0 -0.018945,0.00178 -0.023092,0.00533 -0.00355,0.00356 -0.00533,0.010957 -0.00533,0.022217 v 0.020447 l 2.08e-5,8.952e-4 c 0,0.00474 -3.031e-4,0.00799 -8.948e-4,0.00977 0,0.00178 -2.823e-4,0.00327 -8.75e-4,0.00446 l -8.948e-4,8.952e-4 c -0.00178,0.00178 -0.010975,0.00503 -0.027567,0.00977 -0.016593,0.00474 -0.034946,0.01303 -0.055094,0.024882 -0.020741,0.011852 -0.03972,0.029056 -0.056905,0.051575 -0.017185,0.021926 -0.025777,0.051252 -0.025777,0.087992 0,0.037926 0.013332,0.071709 0.039998,0.1013387 0.02726,0.029037 0.066388,0.052736 0.1173502,0.071106 0.027852,0.00948 0.048586,0.017186 0.062215,0.023112 0.013629,0.00533 0.023109,0.010073 0.028442,0.014221 0.00415,0.00356 0.00651,0.0071 0.0071,0.010661 0.00119,0.00356 0.00179,0.00771 0.00179,0.012451 0,0.010667 -0.00593,0.019843 -0.017782,0.027547 -0.011259,0.00711 -0.025478,0.010681 -0.042664,0.010681 -0.031407,0 -0.055993,-0.00623 -0.073771,-0.018677 -0.017185,-0.012444 -0.031425,-0.026079 -0.042684,-0.040894 -0.00474,-0.00533 -0.00888,-0.010658 -0.012431,-0.015991 -0.00356,-0.00593 -0.00741,-0.011271 -0.011556,-0.016012 -0.00592,-0.0077 -0.012157,-0.013916 -0.018677,-0.018656 -0.00593,-0.00533 -0.013328,-0.008 -0.022217,-0.008 -0.0083,0 -0.015114,0.00385 -0.020447,0.011556 -0.00533,0.00711 -0.008,0.01659 -0.008,0.028442 0,0.00652 3.021e-4,0.013618 8.948e-4,0.021322 0.00118,0.0077 0.00266,0.015408 0.00444,0.023112 0.00355,0.015407 0.00829,0.030232 0.014221,0.044454 0.00592,0.014222 0.012136,0.025476 0.018656,0.033773 0.00118,0.00178 0.00268,0.00355 0.00446,0.00533 0.00237,0.00118 0.00504,0.00268 0.008,0.00446 0.011852,0.00711 0.028451,0.013626 0.049784,0.019552 0.021333,0.00652 0.044145,0.011258 0.068441,0.014221 0.00533,5.92e-4 0.00858,0.00206 0.00977,0.00443 0.00178,0.00237 0.00269,0.00741 0.00269,0.015116 v 0.020447 c 0,0.011852 0.00178,0.019557 0.00533,0.023112 0.00415,0.00355 0.011853,0.00533 0.023112,0.00533 h 0.036438 c 0.011854,0 0.019559,-0.00178 0.023112,-0.00533 0.00355,-0.00356 0.00533,-0.01126 0.00533,-0.023112 v -0.020453 c 0,-0.0083 8.854e-4,-0.01362 0.00267,-0.015991 0.00237,-0.00178 0.0077,-0.00327 0.015991,-0.00446 0.04563,-0.00296 0.087117,-0.021337 0.1244509,-0.055115 0.037926,-0.03437 0.056885,-0.07495 0.056885,-0.1217652 0,-0.040296 -0.012142,-0.073192 -0.036438,-0.098674 -0.024297,-0.026074 -0.062819,-0.04711 -0.11556,-0.06311 -0.024889,-0.00711 -0.044433,-0.013041 -0.058655,-0.017782 -0.014222,-0.00474 -0.024891,-0.00948 -0.032003,-0.014221 -0.00711,-0.00415 -0.011566,-0.00859 -0.013346,-0.013326 -0.00178,-0.00474 -0.00267,-0.01067 -0.00267,-0.017782 0,-0.011852 0.00416,-0.021029 0.012451,-0.027547 0.0083,-0.00711 0.019551,-0.010681 0.033773,-0.010681 0.018371,0 0.034667,0.00446 0.048889,0.013346 0.014222,0.00889 0.027251,0.018368 0.039103,0.028442 0.0077,0.00652 0.014822,0.01273 0.021342,0.018656 0.00652,0.00593 0.013336,0.010968 0.020447,0.015116 0.00415,0.00296 0.0083,0.00534 0.012451,0.00712 0.00474,0.00118 0.00948,0.00177 0.014221,0.00177 0.01363,0 0.024582,-0.00444 0.032878,-0.013326 0.0083,-0.00948 0.012451,-0.022531 0.012451,-0.039124 0,-0.00652 -0.00119,-0.013921 -0.00356,-0.022217 -0.00237,-0.0083 -0.00534,-0.016586 -0.00889,-0.024882 -0.0077,-0.017185 -0.01807,-0.032897 -0.031108,-0.047119 -0.013037,-0.014222 -0.026369,-0.021342 -0.039998,-0.021342 -0.00297,0 -0.00593,6.05e-4 -0.00889,0.00179 -0.00297,5.927e-4 -0.00593,0.00148 -0.00889,0.00266 -5.938e-4,5.927e-4 -0.0015,0.00118 -0.00269,0.00177 h -0.00267 c -0.00177,0.00118 -0.00383,0.00207 -0.00621,0.00266 h -0.00533 c -0.00178,0 -0.00593,-5.847e-4 -0.012451,-0.00177 -0.00592,-0.00118 -0.012157,-0.00238 -0.018677,-0.00356 -0.00177,-5.926e-4 -0.00325,-8.748e-4 -0.00444,-8.748e-4 -0.00119,-5.926e-4 -0.00237,-8.952e-4 -0.00356,-8.952e-4 -0.00533,-0.00118 -0.010074,-0.00238 -0.014221,-0.00356 -0.00415,-0.00118 -0.00711,-0.00207 -0.00889,-0.00267 -0.00119,-0.00118 -0.00237,-0.00207 -0.00356,-0.00266 -5.937e-4,-0.00118 -0.00148,-0.00238 -0.00267,-0.00356 -0.00119,-0.00118 -0.00207,-0.00266 -0.00267,-0.00443 v -0.00979 -0.019552 c 0,-0.011852 -0.00178,-0.019557 -0.00533,-0.023112 -0.00356,-0.00355 -0.01126,-0.00563 -0.023112,-0.00623 z M 7.9032618,1.2123282 c -0.011852,0 -0.026373,0.00147 -0.043559,0.00443 -0.016593,0.00237 -0.033474,0.00622 -0.050659,0.011556 -0.030815,0.00948 -0.059253,0.023116 -0.085327,0.040894 -0.025481,0.017185 -0.038228,0.039109 -0.038228,0.065776 0,0.011852 0.00474,0.021937 0.014221,0.030233 0.00948,0.0083 0.021341,0.012431 0.035563,0.012431 0.016593,0 0.030227,-0.00474 0.040893,-0.014221 0.010667,-0.00948 0.020429,-0.020151 0.029317,-0.032003 0.00177,-0.00178 0.00355,-0.00384 0.00533,-0.00621 0.00177,-0.00237 0.00327,-0.00445 0.00446,-0.00623 0.00711,-0.00889 0.01421,-0.016593 0.021322,-0.023112 0.0077,-0.00652 0.016598,-0.00979 0.026673,-0.00979 0.013628,0 0.023692,0.00712 0.030212,0.021342 0.00652,0.01363 0.00979,0.035251 0.00979,0.06488 0,0.013037 -0.00208,0.021045 -0.00623,0.024007 -0.00415,0.00296 -0.014817,0.00474 -0.032003,0.00533 -0.00948,0 -0.019243,5.846e-4 -0.029317,0.00177 -0.00948,5.927e-4 -0.018961,0.00148 -0.028442,0.00266 -0.037334,0.00652 -0.071419,0.020153 -0.102234,0.040894 -0.030815,0.020148 -0.046224,0.051551 -0.046224,0.094218 0,0.033778 0.013332,0.061349 0.039998,0.082682 0.026667,0.021333 0.060753,0.032003 0.1022339,0.032003 0.016,0 0.030521,-0.00208 0.043559,-0.00623 0.013037,-0.00415 0.024594,-0.00889 0.034668,-0.014221 0.010667,-0.00533 0.019541,-0.010073 0.026652,-0.014221 0.00711,-0.00474 0.012458,-0.00712 0.016012,-0.00712 0.00119,0 0.00207,3.026e-4 0.00267,8.952e-4 0.00119,0 0.00237,3.026e-4 0.00356,8.952e-4 0.00356,0.00178 0.00711,0.00444 0.010661,0.008 0.00356,0.00356 0.00801,0.00741 0.013346,0.011556 0.00593,0.00533 0.013631,0.010073 0.023112,0.014221 0.00948,0.00415 0.021623,0.00623 0.036438,0.00623 0.00592,0 0.012137,-6.05e-4 0.018657,-0.00179 0.00711,-0.00118 0.014231,-0.00296 0.021342,-0.00533 0.021926,-0.00593 0.041772,-0.01718 0.05955,-0.033773 0.018371,-0.016593 0.027567,-0.036157 0.027567,-0.058675 1e-7,-0.0077 -0.00238,-0.012746 -0.00712,-0.015116 -0.00415,-0.00237 -0.00947,-0.00384 -0.015991,-0.00443 -0.00948,-0.00178 -0.016602,-0.01037 -0.021342,-0.025777 -0.00415,-0.015408 -0.00621,-0.041183 -0.00621,-0.077332 v -0.014221 c 0,-0.00533 2.823e-4,-0.010376 8.75e-4,-0.015116 v -0.014221 -0.015116 c 0,-0.033778 -0.00327,-0.058949 -0.00979,-0.075541 -0.00652,-0.017185 -0.018963,-0.032897 -0.037333,-0.047119 h -0.00177 c 0,-5.927e-4 -3.027e-4,-0.00118 -8.953e-4,-0.00177 -0.017185,-0.013037 -0.037031,-0.022516 -0.05955,-0.028442 -0.021926,-0.00652 -0.047419,-0.00979 -0.076458,-0.00979 z m -0.021301,0.2506714 c 0.00948,0 0.015696,0.00296 0.018656,0.00889 0.00355,0.00593 0.00533,0.016575 0.00533,0.031982 0,0.020148 -0.00296,0.035275 -0.00889,0.045349 -0.00533,0.00948 -0.013925,0.014221 -0.025777,0.014221 -0.010667,0 -0.019561,-0.00446 -0.026672,-0.013346 -0.00644,-0.00878 -0.00964,-0.019884 -0.00972,-0.033284 8.33e-5,-0.014635 0.00448,-0.027256 0.013285,-0.037822 0.00948,-0.010667 0.020756,-0.015991 0.033793,-0.015991 z" />
    <path
       id="polygon2230-4-7"
       style="fill:none;fill-opacity:1;stroke:#ff0000;stroke-width:0.00393701;stroke-miterlimit:4;stroke-dasharray:none;stroke-opacity:1"
       d="m 6.7949382,0.34537422 -0.34375,0.00212 -0.6822306,0.85837808 0.69281,0.8603516 0.34375,-0.00212 -0.69281,-0.8603515 z m -0.5208333,0.00321 -0.3437297,0.00212 -0.6822306,0.85837808 0.6927897,0.8603312 0.34375,-0.00212 -0.69281,-0.8603312 z m -0.520813,0.00319 -0.34375,0.00212 -0.6822307,0.85837798 0.6928102,0.8603516 0.34375,-0.00212 -0.6928101,-0.8603516 z m -0.5104167,0.00315 -0.8541463,0.00525 -0.6822306,0.85837808 0.69281,0.8603312 0.8541464,-0.00525 -0.6928101,-0.8603313 z" />
  </g>
</svg>
