<?xml version="1.0" encoding="UTF-8" standalone="no"?>
<svg
   xmlns:dc="http://purl.org/dc/elements/1.1/"
   xmlns:cc="http://creativecommons.org/ns#"
   xmlns:rdf="http://www.w3.org/1999/02/22-rdf-syntax-ns#"
   xmlns:svg="http://www.w3.org/2000/svg"
   xmlns="http://www.w3.org/2000/svg"
   xmlns:sodipodi="http://sodipodi.sourceforge.net/DTD/sodipodi-0.dtd"
   xmlns:inkscape="http://www.inkscape.org/namespaces/inkscape"
   width="12in"
   height="12in"
   viewBox="0 0 12 12"
   version="1.1"
   id="svg8"
   inkscape:version="1.0.1 (3bc2e813f5, 2020-09-07)"
   sodipodi:docname="Donate Double.svg">
  <defs
     id="defs2" />
  <sodipodi:namedview
     id="base"
     pagecolor="#ffffff"
     bordercolor="#666666"
     borderopacity="1.0"
     inkscape:pageopacity="0.0"
     inkscape:pageshadow="2"
     inkscape:zoom="1.1476306"
     inkscape:cx="480.01506"
     inkscape:cy="175.90378"
     inkscape:document-units="in"
     inkscape:current-layer="layer1"
     inkscape:document-rotation="0"
     showgrid="true"
     units="in"
     inkscape:snap-global="false"
     inkscape:window-width="1807"
     inkscape:window-height="1001"
     inkscape:window-x="25"
     inkscape:window-y="12"
     inkscape:window-maximized="0"
     inkscape:snap-nodes="false"
     inkscape:snap-others="false"
     inkscape:snap-smooth-nodes="false"
     inkscape:object-paths="false"
     inkscape:snap-intersection-paths="false"
     inkscape:snap-grids="false"
     inkscape:snap-to-guides="false"
     inkscape:snap-bbox="true"
     inkscape:bbox-nodes="true">
    <inkscape:grid
       type="xygrid"
       id="grid849"
       units="in"
       spacingx="0.25"
       spacingy="0.25"
       empspacing="4" />
  </sodipodi:namedview>
  <metadata
     id="metadata5">
    <rdf:RDF>
      <cc:Work
         rdf:about="">
        <dc:format>image/svg+xml</dc:format>
        <dc:type
           rdf:resource="http://purl.org/dc/dcmitype/StillImage" />
        <dc:title></dc:title>
        <dc:creator>
          <cc:Agent>
            <dc:title>Doctor Wizard</dc:title>
          </cc:Agent>
        </dc:creator>
        <dc:rights>
          <cc:Agent>
            <dc:title>Copyright 2021+ by Doctor Wizard</dc:title>
          </cc:Agent>
        </dc:rights>
        <dc:publisher>
          <cc:Agent>
            <dc:title>Doctor Wizard</dc:title>
          </cc:Agent>
        </dc:publisher>
        <dc:source>Doctor Wizard</dc:source>
        <dc:contributor>
          <cc:Agent>
            <dc:title>Doctor Wizard</dc:title>
          </cc:Agent>
        </dc:contributor>
      </cc:Work>
    </rdf:RDF>
  </metadata>
  <g
     inkscape:label="Layer 1"
     inkscape:groupmode="layer"
     id="layer1">
    <path
       id="rect4946-8-7"
       style="opacity:0.928105;fill:none;fill-opacity:1;stroke:#008000;stroke-width:0.0019685;stroke-miterlimit:4;stroke-dasharray:none;stroke-opacity:1"
       d="M 4.3810048,0.45066541 H 4.6851747 V 0.8807362 H 4.3810048 Z m -0.3857341,0 H 4.3790361 V 0.8807362 H 3.9952707 Z m -0.4150586,0 h 0.41309 V 0.8807362 h -0.41309 z m -0.3878281,0 h 0.38586 V 0.8807362 h -0.38586 z m -0.5281677,0 H 3.1904156 V 0.8807362 H 2.6642163 Z m -0.3710716,0 h 0.369103 V 0.8807362 h -0.369103 z m -0.5917113,0 H 2.2911763 V 0.8807362 H 1.7014334 Z m -0.3856592,0 H 1.699465 V 0.8807362 H 1.3157742 Z m -0.34736639,0 H 1.3138057 V 0.8807362 H 0.96840781 Z m -0.4604215,0 h 0.458453 V 0.8807362 h -0.458453 z M 4.6489357,0.73112224 h -0.131157 q -0.0046,5.727e-4 -0.0069,0.00229 -0.0017,0.00172 -0.0017,0.00573 0,0.017182 0.01375,0.029782 0.01375,0.0126 0.02978,0.017755 0.0046,0.00115 0.0092,0.00229 0.0052,5.727e-4 0.0092,5.727e-4 0.0052,0 0.01088,-5.727e-4 0.0063,-0.00115 0.0126,-0.00286 0.0092,-0.00229 0.01776,-0.00573 0.0092,-0.00401 0.01546,-0.00859 0.0046,-0.00286 0.0069,-0.00401 0.0023,-0.00172 0.0046,-0.00229 5.729e-4,-5.728e-4 0.0011,-5.728e-4 0.0011,0 0.0023,0 0.0069,0 0.01203,0.00573 0.0052,0.00573 0.008,0.0126 5.729e-4,0.00286 0.0011,0.00515 5.719e-4,0.00229 5.719e-4,0.00458 0,0.00974 -0.0063,0.019473 -0.0063,0.00916 -0.0189,0.0189 -0.02234,0.016609 -0.04868,0.024628 -0.02577,0.00802 -0.05613,0.00802 -0.06071,0 -0.103093,-0.039519 -0.04181,-0.040092 -0.04181,-0.097365 0,-0.062428 0.04353,-0.1053838 0.04353,-0.043528 0.1059569,-0.043528 0.02864,0 0.05155,0.00745 0.02348,0.00745 0.04238,0.022909 0.01317,0.010309 0.02291,0.024628 0.0097,0.013746 0.01489,0.028064 0.0023,0.00745 0.0034,0.014318 0.0017,0.00687 0.0017,0.013173 0,0.019473 -0.0074,0.0315 -0.0069,0.011455 -0.01947,0.011455 z m -0.1242841,-0.052119 h 0.02864 q 0.0092,5.728e-4 0.01317,-0.00344 0.0046,-0.00401 0.0046,-0.0126 0,-0.014891 -0.0086,-0.024628 -0.0086,-0.00974 -0.02234,-0.00974 -0.01317,0 -0.02348,0.010882 -0.0097,0.010309 -0.0097,0.024628 0,0.00859 0.004,0.012028 0.004,0.00344 0.01375,0.00344 z m -0.179267,0.00229 0.004,0.097938 q 0,0.00802 0.0023,0.014318 0.0023,0.0063 0.0063,0.010882 0.0011,0.00115 0.0017,0.00229 0.0011,5.727e-4 0.0023,0.00172 0,0 0,0 0,0 5.73e-4,5.727e-4 0.004,0.00401 0.0074,0.00916 0.004,0.00458 0.004,0.011455 0,0.0189 -0.02234,0.025773 -0.02176,0.00687 -0.08133,0.00687 -0.03551,0 -0.05212,-0.0063 -0.01604,-0.00687 -0.01604,-0.022337 0,-0.00515 0.0023,-0.00916 0.0023,-0.00401 0.0057,-0.00745 5.729e-4,-5.728e-4 0.0011,-0.00115 5.729e-4,-5.727e-4 0.0011,-0.00115 5.729e-4,-5.727e-4 0.0011,-0.00115 5.718e-4,-0.00115 0.0011,-0.00172 0.0052,-0.00515 0.008,-0.025773 0.0034,-0.020619 0.0034,-0.050974 0,-0.039519 -0.0086,-0.056128 -0.008,-0.017182 -0.02806,-0.017182 -0.01775,0 -0.0252,0.012027 -0.0069,0.012028 -0.0069,0.043528 v 0.054983 q 0,0.012028 0.0011,0.0189 0.0011,0.00687 0.0052,0.013173 0,5.728e-4 5.718e-4,0.00172 5.729e-4,5.728e-4 0.0011,0.00115 5.729e-4,0.00115 0.0011,0.00229 0.0011,0.00115 0.0017,0.00229 0.0034,0.00401 0.0057,0.00859 0.0023,0.00458 0.0023,0.00974 0,0.016609 -0.02291,0.024628 -0.02234,0.00745 -0.07102,0.00745 -0.03895,0 -0.05842,-0.00745 -0.01947,-0.00745 -0.01947,-0.022909 0,-0.00458 0,-0.00687 5.729e-4,-0.00286 0.0023,-0.00515 0.0017,-0.00172 0.004,-0.00401 0.0029,-0.00229 0.0074,-0.00515 0.0086,-0.0063 0.01145,-0.02921 0.0034,-0.023482 0.0034,-0.084193 0,-0.018328 -0.0052,-0.025773 -0.0046,-0.00802 -0.01088,-0.012028 -0.0011,-5.727e-4 -0.0029,-0.00115 -0.0011,-0.00115 -0.0023,-0.00172 -0.0046,-0.00286 -0.008,-0.0063 -0.0029,-0.00344 -0.0029,-0.010309 0,-0.013173 0.02176,-0.0252 0.02234,-0.012027 0.04868,-0.020046 0.02062,-0.00687 0.03895,-0.010309 0.0189,-0.00401 0.02692,-0.00401 0.008,0 0.01375,0.0063 0.0057,0.00573 0.0057,0.014318 0,5.728e-4 0,0.00229 0,0.00172 -5.729e-4,0.00458 0,0.00115 0,0.00286 0,0.00115 0,0.00229 5.729e-4,0.00458 0.0029,0.00859 0.0023,0.00401 0.008,0.00401 0.0046,0 0.01031,-0.00687 0.0057,-0.00745 0.01489,-0.016037 0.0092,-0.00859 0.02291,-0.015464 0.01432,-0.00745 0.03608,-0.00745 0.01718,0 0.03265,0.00515 0.01604,0.00458 0.02806,0.013746 5.719e-4,0 5.719e-4,5.727e-4 5.729e-4,0 5.729e-4,5.728e-4 0.01718,0.013173 0.02348,0.030355 0.0069,0.017182 0.0086,0.051546 z m -0.387743,-0.084191 v 0.1626576 q 0,0.018328 0.0029,0.026919 0.0034,0.00859 0.01145,0.015464 5.729e-4,5.727e-4 0.0011,0.00172 0.0011,5.727e-4 0.0023,0.00115 0.0046,0.00344 0.0074,0.0063 0.0029,0.00229 0.0046,0.00458 0.0017,0.00229 0.0023,0.00515 5.729e-4,0.00229 5.729e-4,0.00573 0,0.017755 -0.02291,0.026919 -0.02291,0.00859 -0.06758,0.00859 -0.05269,0 -0.07732,-0.00745 -0.02405,-0.00745 -0.02405,-0.024628 0,-0.00916 0.0052,-0.014318 0.0052,-0.00573 0.01146,-0.010309 5.719e-4,0 5.719e-4,0 0,-5.727e-4 0,-5.727e-4 5.729e-4,-5.729e-4 5.729e-4,-5.729e-4 5.729e-4,-5.727e-4 0.0011,-5.727e-4 0.0092,-0.0063 0.0126,-0.020619 0.0034,-0.014891 0.0034,-0.042955 0,-0.00458 0,-0.00916 0,-0.00458 -5.718e-4,-0.00974 0,-0.00458 -5.73e-4,-0.00916 0,-0.00458 0,-0.00916 0,-0.00229 0,-0.00401 0,-0.00172 0,-0.00344 -0.0011,-0.016609 -0.0023,-0.021764 -5.729e-4,-0.00573 -0.004,-0.00916 -5.729e-4,-5.728e-4 -0.0011,-5.728e-4 -5.718e-4,-5.727e-4 -0.0011,-0.00115 -0.0017,-0.00115 -0.004,-0.00229 -0.0017,-0.00172 -0.004,-0.00229 -5.718e-4,-5.727e-4 -0.0011,-5.727e-4 -5.729e-4,-5.727e-4 -5.729e-4,-5.727e-4 -0.0069,-0.00344 -0.01203,-0.00745 -0.0046,-0.00458 -0.0046,-0.013746 0,-0.00916 0.0063,-0.016037 0.0063,-0.00745 0.02291,-0.013746 0.0092,-0.00401 0.02177,-0.00745 0.01317,-0.00401 0.03036,-0.00802 0.0189,-0.00458 0.03436,-0.00687 0.01604,-0.00286 0.02864,-0.00344 0.008,0 0.01203,0.00458 0.004,0.00458 0.004,0.0126 z m -0.05727,-0.1225659 q 0.004,5.727e-4 0.0086,0.00115 0.0052,0 0.0097,0.00115 0.01375,0.00229 0.0252,0.00974 0.01146,0.00745 0.01146,0.02291 0,0.022337 -0.02978,0.037801 -0.02978,0.015464 -0.07388,0.015464 -0.02176,0 -0.03551,-0.00916 -0.01375,-0.00974 -0.01375,-0.025201 0,-0.021191 0.02806,-0.036655 0.02864,-0.015464 0.06987,-0.016609 z m -0.147197,0.1603666 v 0.089347 0.044674 q 0,0.021191 0.0029,0.028637 0.0034,0.00745 0.0126,0.012028 0.0023,0.00115 0.004,0.00229 0.0023,5.728e-4 0.004,0.00172 0.0057,0.00286 0.0074,0.0063 0.0017,0.00344 0.0017,0.00916 0,0.019473 -0.02062,0.026346 -0.02005,0.00687 -0.07331,0.00687 -0.05097,0 -0.07388,-0.00802 -0.02234,-0.00802 -0.02234,-0.026346 0,-0.00859 0.0057,-0.0126 0.0057,-0.00401 0.0126,-0.00687 0.01145,-0.00458 0.01489,-0.030355 0.0034,-0.026346 0.0034,-0.099656 0,-0.068156 -0.004,-0.087629 -0.004,-0.019473 -0.01947,-0.028637 -0.004,-0.00229 -0.0069,-0.00401 -0.0029,-0.00229 -0.0052,-0.00458 -0.0046,-0.00401 -0.0069,-0.00859 -0.0017,-0.00458 -0.0017,-0.010309 0,-0.0189 0.02463,-0.030928 0.02463,-0.0126 0.05384,-0.019473 0.02176,-0.00458 0.04124,-0.00687 0.01947,-0.00229 0.02978,-0.00229 0.01145,0 0.01661,0.00687 0.0057,0.0063 0.0057,0.020619 0,0.00344 -5.729e-4,0.013746 -5.718e-4,0.010309 -0.0023,0.027491 -0.0011,0.011455 -0.0023,0.02291 -5.718e-4,0.011455 -5.718e-4,0.022909 -5.73e-4,0.011455 -0.0011,0.022909 0,0.011455 0,0.022909 z m -0.20504,0.046392 0.004,0.097938 q 0,0.00802 0.0023,0.014318 0.0023,0.0063 0.0063,0.010882 0.0011,0.00115 0.0017,0.00229 0.0011,5.727e-4 0.0023,0.00172 0,0 0,0 0,0 5.719e-4,5.727e-4 0.004,0.00401 0.0074,0.00916 0.004,0.00458 0.004,0.011455 0,0.0189 -0.02234,0.025773 -0.02176,0.00687 -0.081328,0.00687 -0.03551,0 -0.052119,-0.0063 -0.016037,-0.00687 -0.016037,-0.022337 0,-0.00515 0.00229,-0.00916 0.00229,-0.00401 0.00573,-0.00745 5.729e-4,-5.728e-4 0.00115,-0.00115 5.729e-4,-5.727e-4 0.00115,-0.00115 5.729e-4,-5.727e-4 0.00115,-0.00115 5.729e-4,-0.00115 0.00115,-0.00172 0.00515,-0.00515 0.00802,-0.025773 0.00344,-0.020619 0.00344,-0.050974 0,-0.039519 -0.00859,-0.056128 -0.00802,-0.017182 -0.028064,-0.017182 -0.017755,0 -0.025201,0.012027 -0.00687,0.012028 -0.00687,0.043528 v 0.054983 q 0,0.012028 0.00115,0.0189 0.00115,0.00687 0.00515,0.013173 0,5.728e-4 5.729e-4,0.00172 5.729e-4,5.728e-4 0.00115,0.00115 5.729e-4,0.00115 0.00115,0.00229 0.00115,0.00115 0.00172,0.00229 0.00344,0.00401 0.00573,0.00859 0.00229,0.00458 0.00229,0.00974 0,0.016609 -0.02291,0.024628 -0.022337,0.00745 -0.07102,0.00745 -0.038946,0 -0.058419,-0.00745 -0.019473,-0.00745 -0.019473,-0.022909 0,-0.00458 0,-0.00687 5.729e-4,-0.00286 0.00229,-0.00515 0.00172,-0.00172 0.00401,-0.00401 0.00286,-0.00229 0.00745,-0.00515 0.00859,-0.0063 0.011455,-0.02921 0.00344,-0.023482 0.00344,-0.084193 0,-0.018328 -0.00515,-0.025773 -0.00458,-0.00802 -0.010882,-0.012028 -0.00115,-5.727e-4 -0.00286,-0.00115 -0.00115,-0.00115 -0.00229,-0.00172 -0.00458,-0.00286 -0.00802,-0.0063 -0.00286,-0.00344 -0.00286,-0.010309 0,-0.013173 0.021764,-0.0252 0.022337,-0.012027 0.048683,-0.020046 0.020618,-0.00687 0.038946,-0.010309 0.0189,-0.00401 0.026919,-0.00401 0.00802,0 0.013746,0.0063 0.00573,0.00573 0.00573,0.014318 0,5.728e-4 0,0.00229 0,0.00172 -5.729e-4,0.00458 0,0.00115 0,0.00286 0,0.00115 0,0.00229 5.729e-4,0.00458 0.00286,0.00859 0.00229,0.00401 0.00802,0.00401 0.00458,0 0.010309,-0.00687 0.00573,-0.00745 0.014891,-0.016037 0.00916,-0.00859 0.02291,-0.015464 0.014318,-0.00745 0.036082,-0.00745 0.017182,0 0.032646,0.00515 0.016037,0.00458 0.028064,0.013746 5.729e-4,0 5.729e-4,5.727e-4 5.729e-4,0 5.729e-4,5.728e-4 0.01718,0.013173 0.02348,0.030355 0.0069,0.017182 0.0086,0.051546 z M 2.9702423,0.46709004 q 0.042383,5.727e-4 0.074456,0.010309 0.032073,0.00974 0.058992,0.030928 0.034937,0.027491 0.056128,0.068729 0.021764,0.040664 0.024628,0.084765 5.729e-4,0.00286 5.729e-4,0.0063 0,0.00286 0,0.00573 0,0.080183 -0.063001,0.1351661 -0.063001,0.054983 -0.1546393,0.054983 -0.084765,0 -0.1431846,-0.057274 -0.058419,-0.057847 -0.058419,-0.1426118 0,-0.081901 0.059565,-0.1391753 0.059565,-0.057274 0.1449027,-0.057274 z m -0.020046,0.079611 q -0.019473,5.728e-4 -0.033219,0.017755 -0.013173,0.017182 -0.013173,0.043528 0,0.013173 0.00401,0.034937 0.00401,0.021764 0.011455,0.044674 0.011455,0.03551 0.030928,0.065292 0.019473,0.029782 0.045819,0.029782 0.021764,0 0.034364,-0.016037 0.013173,-0.016037 0.013173,-0.042383 0,-0.014318 -0.00344,-0.034937 -0.00286,-0.021191 -0.00916,-0.043528 -0.010309,-0.036655 -0.030355,-0.067583 -0.020046,-0.030928 -0.050401,-0.030928 z M 2.5590171,0.73112224 H 2.4278602 q -0.00458,5.727e-4 -0.00687,0.00229 -0.00172,0.00172 -0.00172,0.00573 0,0.017182 0.013746,0.029782 0.013746,0.0126 0.029782,0.017755 0.00458,0.00115 0.00916,0.00229 0.00515,5.727e-4 0.00916,5.727e-4 0.00515,0 0.010882,-5.727e-4 0.0063,-0.00115 0.0126,-0.00286 0.00916,-0.00229 0.017755,-0.00573 0.00916,-0.00401 0.015464,-0.00859 0.00458,-0.00286 0.00687,-0.00401 0.00229,-0.00172 0.00458,-0.00229 5.729e-4,-5.728e-4 0.00115,-5.728e-4 0.00115,0 0.00229,0 0.00687,0 0.012028,0.00573 0.00515,0.00573 0.00802,0.0126 5.73e-4,0.00286 0.00115,0.00515 5.73e-4,0.00229 5.73e-4,0.00458 0,0.00974 -0.0063,0.019473 -0.0063,0.00916 -0.0189,0.0189 -0.022337,0.016609 -0.048683,0.024628 -0.025773,0.00802 -0.056128,0.00802 -0.06071,0 -0.1030928,-0.039519 -0.04181,-0.040092 -0.04181,-0.097365 0,-0.062428 0.043528,-0.1053838 0.043528,-0.043528 0.1059566,-0.043528 0.028637,0 0.051546,0.00745 0.023482,0.00745 0.042383,0.022909 0.013173,0.010309 0.02291,0.024628 0.00974,0.013746 0.014891,0.028064 0.00229,0.00745 0.00344,0.014318 0.00172,0.00687 0.00172,0.013173 0,0.019473 -0.00745,0.0315 -0.00687,0.011455 -0.019473,0.011455 z m -0.124284,-0.052119 h 0.028637 q 0.00916,5.728e-4 0.013173,-0.00344 0.00458,-0.00401 0.00458,-0.0126 0,-0.014891 -0.00859,-0.024628 -0.00859,-0.00974 -0.022337,-0.00974 -0.013173,0 -0.023482,0.010882 -0.00974,0.010309 -0.00974,0.024628 0,0.00859 0.00401,0.012028 0.00401,0.00344 0.013746,0.00344 z M 2.2010564,0.65093894 v 0.094502 q 0,0.017182 0.00802,0.028064 0.00859,0.010882 0.021191,0.010882 0.010882,0 0.015464,-0.00172 0.00515,-0.00229 0.00802,-0.00458 5.729e-4,-5.728e-4 0.00115,-0.00115 5.729e-4,-5.727e-4 0.00115,-5.727e-4 0.00172,-0.00229 0.00401,-0.00344 0.00286,-0.00115 0.00745,-0.00115 0.0063,0 0.010309,0.00515 0.00458,0.00515 0.0063,0.011455 0.00115,0.00229 0.00115,0.00458 5.729e-4,0.00229 5.729e-4,0.00458 0,0.021764 -0.021191,0.036655 -0.020619,0.014318 -0.045819,0.021764 -0.013746,0.00401 -0.026919,0.00573 -0.013173,0.00229 -0.02291,0.00229 -0.043528,0 -0.070447,-0.0252 -0.026919,-0.025201 -0.026919,-0.066438 v -0.1294197 q 0,-0.00573 -0.00172,-0.00745 -0.00172,-0.00172 -0.00802,-0.00172 l -0.028637,-5.727e-4 q -0.00802,5.727e-4 -0.00974,-0.00229 -0.00229,-0.00286 -0.00229,-0.012028 l -5.729e-4,-0.013173 q 5.729e-4,0 5.729e-4,-5.729e-4 0,-5.727e-4 0,-0.00115 5.729e-4,-0.00286 0.00229,-0.00573 0.00115,-0.00286 0.00344,-0.00401 l 0.1282931,-0.081329 q 0.00229,-5.727e-4 0.00458,-0.00115 0.00286,-5.727e-4 0.00687,-5.727e-4 l 0.02291,-5.728e-4 q 0.00687,5.728e-4 0.00916,0.00401 0.00229,0.00286 0.00229,0.012027 v 0.037801 q 0,0.00859 0.00229,0.011455 0.00286,0.00229 0.012028,0.00229 l 0.051546,-5.727e-4 q 0.010309,5.727e-4 0.013173,0.00458 0.00344,0.00344 0.00344,0.016037 v 0.016037 q 0,0.013746 -0.00401,0.0189 -0.00401,0.00515 -0.014319,0.00515 l -0.050401,-5.727e-4 q -0.00745,5.727e-4 -0.010882,0.00344 -0.00286,0.00229 -0.00286,0.010309 z m -0.215922,0.0315 q 0,0.00515 0,0.010309 0,0.00458 0,0.00916 -5.729e-4,0.00458 -5.729e-4,0.00974 0,0.00458 0,0.00916 0,0.034937 0.00401,0.049828 0.00458,0.014891 0.013746,0.016609 0.0063,5.727e-4 0.010309,0.00286 0.00458,0.00229 0.00458,0.00974 0,0.021764 -0.017755,0.037801 -0.017182,0.016037 -0.038374,0.021764 -0.00687,0.00229 -0.013746,0.00344 -0.0063,0.00115 -0.012028,0.00115 -0.014318,0 -0.023482,-0.00401 -0.00916,-0.00401 -0.014891,-0.00916 -0.00515,-0.00401 -0.00859,-0.00745 -0.00344,-0.00344 -0.00687,-0.00515 -0.00115,-5.728e-4 -0.00229,-5.728e-4 -5.729e-4,-5.727e-4 -0.00172,-5.727e-4 -0.00344,0 -0.010309,0.00458 -0.00687,0.00401 -0.017182,0.00916 -0.00974,0.00515 -0.022337,0.00916 -0.0126,0.00401 -0.028064,0.00401 -0.040092,0 -0.065865,-0.020619 -0.025773,-0.020619 -0.025773,-0.053265 0,-0.041237 0.029782,-0.06071 0.029782,-0.020046 0.065865,-0.026346 0.00916,-0.00115 0.018328,-0.00172 0.00974,-0.00115 0.0189,-0.00115 0.016609,-5.728e-4 0.020618,-0.00344 0.00401,-0.00286 0.00401,-0.015464 0,-0.028637 -0.0063,-0.04181 -0.0063,-0.013746 -0.019473,-0.013746 -0.00974,0 -0.017182,0.0063 -0.00687,0.0063 -0.013746,0.014891 -0.00115,0.00172 -0.00286,0.00401 -0.00172,0.00229 -0.00344,0.00401 -0.00859,0.011455 -0.0189,0.020619 -0.010309,0.00916 -0.026346,0.00916 -0.013746,0 -0.02291,-0.00802 -0.00916,-0.00802 -0.00916,-0.019473 0,-0.025773 0.024628,-0.042383 0.025201,-0.017182 0.054983,-0.026346 0.016609,-0.00515 0.032646,-0.00745 0.016609,-0.00286 0.028064,-0.00286 0.028064,0 0.049256,0.0063 0.021764,0.00573 0.038373,0.018328 5.729e-4,5.727e-4 5.729e-4,0.00115 5.729e-4,0 0.00115,0 0.017755,0.013746 0.024055,0.030355 0.0063,0.016037 0.0063,0.048683 z m -0.1638029,0.091639 q 0,0.013173 0.0063,0.021764 0.00687,0.00859 0.017182,0.00859 0.011455,0 0.016609,-0.00916 0.00573,-0.00974 0.00573,-0.02921 0,-0.014891 -0.00344,-0.020619 -0.00286,-0.00573 -0.012028,-0.00573 -0.0126,0 -0.021764,0.010309 -0.00859,0.010309 -0.00859,0.024628 z m -0.1557846,-0.092783 0.00401,0.097938 q 0,0.00802 0.00229,0.014318 0.00229,0.0063 0.0063,0.010882 0.00115,0.00115 0.00172,0.00229 0.00115,5.727e-4 0.00229,0.00172 0,0 0,0 0,0 5.729e-4,5.727e-4 0.00401,0.00401 0.00745,0.00916 0.00401,0.00458 0.00401,0.011455 0,0.0189 -0.022337,0.025773 -0.021764,0.00687 -0.081329,0.00687 -0.03551,0 -0.052119,-0.0063 -0.016037,-0.00687 -0.016037,-0.022337 0,-0.00515 0.00229,-0.00916 0.00229,-0.00401 0.00573,-0.00745 5.727e-4,-5.728e-4 0.00115,-0.00115 5.728e-4,-5.727e-4 0.00115,-0.00115 5.727e-4,-5.727e-4 0.00115,-0.00115 5.727e-4,-0.00115 0.00115,-0.00172 0.00515,-0.00515 0.00802,-0.025773 0.00344,-0.020619 0.00344,-0.050974 0,-0.039519 -0.00859,-0.056128 -0.00802,-0.017182 -0.028064,-0.017182 -0.017755,0 -0.0252,0.012027 -0.00687,0.012028 -0.00687,0.043528 v 0.054983 q 0,0.012028 0.00115,0.0189 0.00115,0.00687 0.00515,0.013173 0,5.728e-4 5.727e-4,0.00172 5.728e-4,5.728e-4 0.00115,0.00115 5.727e-4,0.00115 0.00115,0.00229 0.00115,0.00115 0.00172,0.00229 0.00344,0.00401 0.00573,0.00859 0.00229,0.00458 0.00229,0.00974 0,0.016609 -0.022909,0.024628 -0.022337,0.00745 -0.071019,0.00745 -0.038946,0 -0.058419,-0.00745 -0.019473,-0.00745 -0.019473,-0.022909 0,-0.00458 0,-0.00687 5.728e-4,-0.00286 0.00229,-0.00515 0.00172,-0.00172 0.00401,-0.00401 0.00286,-0.00229 0.00745,-0.00515 0.00859,-0.0063 0.011455,-0.02921 0.00344,-0.023482 0.00344,-0.084193 0,-0.018328 -0.00515,-0.025773 -0.00458,-0.00802 -0.010882,-0.012028 -0.00115,-5.727e-4 -0.00286,-0.00115 -0.00115,-0.00115 -0.00229,-0.00172 -0.00458,-0.00286 -0.00802,-0.0063 -0.00286,-0.00344 -0.00286,-0.010309 0,-0.013173 0.021764,-0.0252 0.022337,-0.012027 0.048683,-0.020046 0.020619,-0.00687 0.038946,-0.010309 0.0189,-0.00401 0.026919,-0.00401 0.00802,0 0.013746,0.0063 0.00573,0.00573 0.00573,0.014318 0,5.728e-4 0,0.00229 0,0.00172 -5.727e-4,0.00458 0,0.00115 0,0.00286 0,0.00115 0,0.00229 5.727e-4,0.00458 0.00286,0.00859 0.00229,0.00401 0.00802,0.00401 0.00458,0 0.010309,-0.00687 0.00573,-0.00745 0.014891,-0.016037 0.00916,-0.00859 0.022909,-0.015464 0.014318,-0.00745 0.036083,-0.00745 0.017182,0 0.032646,0.00515 0.016037,0.00458 0.028064,0.013746 5.729e-4,0 5.729e-4,5.727e-4 5.73e-4,0 5.73e-4,5.728e-4 0.017182,0.013173 0.023482,0.030355 0.00687,0.017182 0.00859,0.051546 z M 1.148365,0.57762844 q 0.060138,5.727e-4 0.1088201,0.037801 0.048683,0.037228 0.048683,0.1019474 0,0.062428 -0.052119,0.104811 -0.052119,0.04181 -0.1282932,0.04181 -0.062428,0 -0.1042383,-0.036655 -0.041237,-0.037228 -0.041237,-0.092784 0,-0.067583 0.046392,-0.1105384 0.046964,-0.043528 0.1219932,-0.045819 z m -0.018328,0.064719 q -0.011455,0.00115 -0.018328,0.010309 -0.00687,0.00859 -0.00687,0.023482 0,0.00974 0.00229,0.024628 0.00229,0.014891 0.0063,0.030928 0.00229,0.010882 0.00573,0.021764 0.00344,0.010309 0.00687,0.019473 0.00458,0.011455 0.011455,0.017182 0.00687,0.00573 0.016609,0.00573 0.013173,0 0.0189,-0.00802 0.0063,-0.00859 0.0063,-0.026919 0,-0.011455 -0.00229,-0.025773 -0.00172,-0.014318 -0.00573,-0.02921 -0.00286,-0.011455 -0.0063,-0.022337 -0.00344,-0.011455 -0.00745,-0.021191 -0.00401,-0.00859 -0.010882,-0.013746 -0.00687,-0.00573 -0.016609,-0.00573 z m -0.40148791,0.2164953 q -0.013173,-5.727e-4 -0.026346,-0.00115 -0.0126,0 -0.025773,-5.728e-4 -0.013173,0 -0.026346,-5.727e-4 -0.0126,0 -0.025773,0 -0.00745,0 -0.015464,5.727e-4 -0.00745,5.728e-4 -0.014891,0.00115 -0.00802,0 -0.015464,5.727e-4 -0.00745,5.728e-4 -0.015464,5.728e-4 -0.020046,0 -0.032073,-0.00802 -0.012028,-0.00802 -0.012028,-0.022337 0,-0.013173 0.00458,-0.016609 0.00515,-0.00344 0.011455,-0.00458 0.00172,-5.728e-4 0.00286,-5.728e-4 0.00172,-5.727e-4 0.00344,-0.00115 0.00745,-0.00229 0.014318,-0.010882 0.00687,-0.00859 0.00745,-0.03551 0.00172,-0.024055 0.00229,-0.047537 0.00115,-0.024055 0.00172,-0.047537 5.727e-4,-0.023482 5.727e-4,-0.046965 5.728e-4,-0.024055 5.728e-4,-0.04811 0,-0.024055 -0.00344,-0.031501 -0.00344,-0.00802 -0.016037,-0.0126 -5.727e-4,0 -0.00115,0 0,-5.727e-4 0,-5.727e-4 -0.00916,-0.00344 -0.014318,-0.00974 -0.00515,-0.0063 -0.00515,-0.014891 0,-0.014318 0.013173,-0.021764 0.013173,-0.00745 0.037801,-0.00745 0.0063,0 0.0126,5.728e-4 0.0063,0 0.013173,0 0.0063,0 0.0126,5.727e-4 0.0063,0 0.0126,0 0.014318,0 0.028637,-5.727e-4 0.014318,-5.728e-4 0.028637,-0.00115 0.014318,-5.728e-4 0.028637,-0.00115 0.014318,-5.727e-4 0.028637,-5.727e-4 0.052119,0 0.084765,0.00859 0.033219,0.00859 0.059565,0.028637 0.033792,0.0252 0.050974,0.065865 0.017755,0.040092 0.017755,0.091065 0,0.088202 -0.053837,0.1426118 -0.053265,0.05441 -0.1386025,0.05441 -0.00458,0 -0.00916,0 -0.00458,0 -0.00916,-5.727e-4 -0.00458,0 -0.00916,-5.729e-4 -0.00458,0 -0.00916,0 z m -0.0297824,-0.3052693 v 0.216495 q 0,0.018328 0.00745,0.025773 0.00745,0.00745 0.026346,0.00745 0.038946,0 0.059565,-0.030928 0.021191,-0.030928 0.021191,-0.08992 0,-0.078465 -0.021764,-0.1151203 -0.021764,-0.036655 -0.068156,-0.036655 -0.013746,0 -0.019473,0.00515 -0.00515,0.00515 -0.00515,0.018328 z" />
    <path
       id="rect4946-8-3-1-52"
       style="opacity:0.928105;fill:none;fill-opacity:1;stroke:#008000;stroke-width:0.0019685;stroke-miterlimit:4;stroke-dasharray:none;stroke-opacity:1"
       d="m 9.4301169,0.44158874 h 0.369103 v 0.4300708 h -0.369103 z m -0.389029,0 h 0.38706 v 0.4300708 h -0.38706 z m -0.3396472,0 h 0.3376792 v 0.4300708 H 8.7014407 Z m -0.3935175,0 h 0.391549 v 0.4300708 h -0.391549 z m -0.4833011,0 h 0.4813328 v 0.4300708 H 7.8246221 Z m -3.0285588,0 h 0.4584531 v 0.4300708 H 4.7960633 Z m 2.6013728,0 H 7.822654 v 0.5220992 H 7.3974361 Z m -0.4451428,0 h 0.4431746 v 0.4300708 H 6.9522933 Z m -0.3710718,0 h 0.369103 v 0.4300708 h -0.369103 z m -0.5917101,0 h 0.5897429 v 0.4300708 H 5.9895114 Z m -0.3856602,0 H 5.987542 v 0.4300708 H 5.6038512 Z m -0.3473663,0 h 0.3453979 v 0.4300708 H 5.2564849 Z m 4.438177,0.2894296 h -0.131157 q -0.0046,5.727e-4 -0.0069,0.00229 -0.0017,0.00172 -0.0017,0.00573 0,0.017182 0.01375,0.029782 0.01375,0.0126 0.02978,0.017755 0.0046,0.00115 0.0092,0.00229 0.0052,5.727e-4 0.0092,5.727e-4 0.0052,0 0.01088,-5.727e-4 0.0063,-0.00115 0.0126,-0.00286 0.0092,-0.00229 0.01775,-0.00573 0.0092,-0.00401 0.01546,-0.00859 0.0046,-0.00286 0.0069,-0.00401 0.0023,-0.00172 0.0046,-0.00229 5.73e-4,-5.727e-4 0.0012,-5.727e-4 0.0011,0 0.0023,0 0.0069,0 0.01203,0.00573 0.0051,0.00573 0.008,0.0126 5.73e-4,0.00286 0.0012,0.00515 5.73e-4,0.00229 5.73e-4,0.00458 0,0.00974 -0.0063,0.019473 -0.0063,0.00916 -0.0189,0.0189 -0.02234,0.016609 -0.04868,0.024628 -0.02577,0.00802 -0.05613,0.00802 -0.06071,0 -0.103093,-0.039519 -0.04181,-0.040092 -0.04181,-0.097365 0,-0.062428 0.04353,-0.1053838 0.04353,-0.043528 0.105956,-0.043528 0.02864,0 0.05155,0.00745 0.02348,0.00745 0.04238,0.022909 0.01317,0.010309 0.02291,0.024628 0.0097,0.013746 0.01489,0.028064 0.0023,0.00745 0.0034,0.014318 0.0017,0.00687 0.0017,0.013173 0,0.019473 -0.0075,0.031501 -0.0069,0.011455 -0.01947,0.011455 z m -0.124285,-0.052119 h 0.02864 q 0.0092,5.727e-4 0.01317,-0.00344 0.0046,-0.00401 0.0046,-0.0126 0,-0.014891 -0.0086,-0.024628 -0.0086,-0.00974 -0.02234,-0.00974 -0.01317,0 -0.02348,0.010882 -0.0097,0.010309 -0.0097,0.024628 0,0.00859 0.004,0.012027 0.004,0.00344 0.01375,0.00344 z m -0.179266,0.00229 0.004,0.097938 q 0,0.00802 0.0023,0.014318 0.0023,0.0063 0.0063,0.010882 0.0011,0.00115 0.0017,0.00229 0.0011,5.727e-4 0.0023,0.00172 0,0 0,0 0,0 5.73e-4,5.727e-4 0.004,0.00401 0.0075,0.00916 0.004,0.00458 0.004,0.011455 0,0.0189 -0.02234,0.025773 -0.02176,0.00687 -0.08133,0.00687 -0.03551,0 -0.05212,-0.0063 -0.01604,-0.00687 -0.01604,-0.022337 0,-0.00515 0.0023,-0.00916 0.0023,-0.00401 0.0057,-0.00745 5.73e-4,-5.727e-4 0.0012,-0.00115 5.73e-4,-5.727e-4 0.0011,-0.00114 5.73e-4,-5.727e-4 0.0012,-0.00115 5.73e-4,-0.00114 0.0011,-0.00172 0.0052,-0.00516 0.008,-0.025773 0.0034,-0.020619 0.0034,-0.050974 0,-0.039519 -0.0086,-0.056128 -0.008,-0.017182 -0.02806,-0.017182 -0.01776,0 -0.0252,0.012027 -0.0069,0.012027 -0.0069,0.043528 v 0.054983 q 0,0.012027 0.0012,0.0189 0.0011,0.00687 0.0052,0.013173 0,5.728e-4 5.72e-4,0.00172 5.73e-4,5.728e-4 0.0011,0.00114 5.73e-4,0.00115 0.0012,0.00229 0.0011,0.00115 0.0017,0.00229 0.0034,0.00401 0.0057,0.00859 0.0023,0.00458 0.0023,0.00974 0,0.016609 -0.02291,0.024628 -0.02234,0.00745 -0.07102,0.00745 -0.03895,0 -0.05842,-0.00745 -0.01947,-0.00745 -0.01947,-0.022909 0,-0.00458 0,-0.00687 5.73e-4,-0.00286 0.0023,-0.00516 0.0017,-0.00172 0.004,-0.00401 0.0029,-0.00229 0.0074,-0.00515 0.0086,-0.0063 0.01145,-0.02921 0.0034,-0.023482 0.0034,-0.084192 0,-0.018328 -0.0052,-0.025773 -0.0046,-0.00802 -0.01088,-0.012027 -0.0011,-5.727e-4 -0.0029,-0.00115 -0.0011,-0.00115 -0.0023,-0.00172 -0.0046,-0.00286 -0.008,-0.0063 -0.0029,-0.00344 -0.0029,-0.010309 0,-0.013173 0.02176,-0.0252 0.02234,-0.012027 0.04868,-0.020046 0.02062,-0.00687 0.03895,-0.010309 0.0189,-0.00401 0.02692,-0.00401 0.008,0 0.01375,0.0063 0.0057,0.00573 0.0057,0.014318 0,5.728e-4 0,0.00229 0,0.00172 -5.72e-4,0.00458 0,0.00114 0,0.00286 0,0.00115 0,0.00229 5.72e-4,0.00458 0.0029,0.00859 0.0023,0.00401 0.008,0.00401 0.0046,0 0.01031,-0.00687 0.0057,-0.00745 0.01489,-0.016037 0.0092,-0.00859 0.02291,-0.015464 0.01432,-0.00745 0.03608,-0.00745 0.01718,0 0.03265,0.00515 0.01604,0.00458 0.02806,0.013746 5.73e-4,0 5.73e-4,5.728e-4 5.72e-4,0 5.72e-4,5.727e-4 0.01718,0.013173 0.02348,0.030355 0.0069,0.017182 0.0086,0.051546 z m -0.517182,-0.1036648 q 0.06014,5.727e-4 0.10882,0.037801 0.04868,0.037228 0.04868,0.1019474 0,0.062428 -0.05212,0.104811 -0.05212,0.04181 -0.128293,0.04181 -0.06243,0 -0.104239,-0.036655 -0.04124,-0.037228 -0.04124,-0.092784 0,-0.067583 0.04639,-0.1105384 0.04697,-0.043528 0.121994,-0.045819 z m -0.01833,0.064719 q -0.01146,0.00115 -0.01833,0.010309 -0.0069,0.00859 -0.0069,0.023482 0,0.00974 0.0023,0.024628 0.0023,0.014891 0.0063,0.030928 0.0023,0.010882 0.0057,0.021764 0.0034,0.010309 0.0069,0.019473 0.0046,0.011455 0.01145,0.017182 0.0069,0.00573 0.01661,0.00573 0.01317,0 0.0189,-0.00802 0.0063,-0.00859 0.0063,-0.026919 0,-0.011455 -0.0023,-0.025773 -0.0017,-0.014318 -0.0057,-0.02921 -0.0029,-0.011455 -0.0063,-0.022337 -0.0034,-0.011455 -0.0075,-0.021191 -0.004,-0.00859 -0.01088,-0.013746 -0.0069,-0.00573 -0.01661,-0.00573 z m -0.3854525,0.1162658 q 0,0.00344 0,0.0063 5.73e-4,0.00286 5.73e-4,0.0063 0,0.00114 0,0.00286 0,0.00172 0,0.00344 0,0.00916 0.0017,0.017755 0.0017,0.00859 0.008,0.015464 5.73e-4,5.727e-4 0.0012,0.00172 5.73e-4,5.727e-4 0.0011,0.00115 0,0 0,0 5.73e-4,0 5.73e-4,0 0.0029,0.00401 0.0057,0.00859 0.0029,0.00401 0.0029,0.00916 0,0.016037 -0.02119,0.023482 -0.02062,0.00745 -0.06186,0.00745 -0.04811,0 -0.07217,-0.00802 -0.02348,-0.00802 -0.02348,-0.024055 0,-0.00802 0.0046,-0.0126 0.0052,-0.00515 0.01088,-0.00974 0,0 0,0 5.73e-4,0 5.73e-4,0 5.73e-4,-5.727e-4 0.0012,-5.727e-4 5.73e-4,-5.727e-4 0.0011,-0.00114 0.0086,-0.0063 0.0126,-0.027491 0.0046,-0.021191 0.0052,-0.063574 5.73e-4,-0.024628 5.73e-4,-0.034937 5.73e-4,-0.010882 5.73e-4,-0.0189 0,-0.00114 0,-0.00286 0,-0.00172 0,-0.00344 0,-0.064147 -0.0029,-0.080756 -0.0029,-0.016609 -0.01604,-0.022909 -0.0092,-0.00458 -0.01317,-0.00974 -0.004,-0.00516 -0.004,-0.011455 0,-0.016037 0.02291,-0.026919 0.02348,-0.011455 0.05097,-0.018328 0.02176,-0.00458 0.04066,-0.00687 0.01947,-0.00286 0.02806,-0.00286 0.0097,0 0.01317,0.00286 0.0034,0.00286 0.0034,0.010882 l -0.0034,0.1168386 q 0,0.010882 0.0034,0.016609 0.0034,0.00516 0.0097,0.00516 0.0046,0 0.01031,-0.00745 0.0063,-0.00802 0.01546,-0.017182 0.0097,-0.00916 0.02348,-0.016609 0.01432,-0.00802 0.03551,-0.00802 0.02119,0 0.04009,0.00745 0.01947,0.00745 0.03093,0.020046 0.0126,0.0126 0.01718,0.028637 0.0046,0.016037 0.0052,0.046965 l 0.0023,0.1008019 q 5.72e-4,0.010309 0.0029,0.017755 0.0029,0.00687 0.0074,0.010882 0.0012,5.727e-4 0.0017,0.00172 0.0012,5.727e-4 0.0017,0.00115 0.0052,0.00344 0.0092,0.00859 0.004,0.00458 0.004,0.010882 0,0.014891 -0.02234,0.022337 -0.02234,0.00687 -0.06758,0.00687 -0.04124,0 -0.06186,-0.0063 -0.02062,-0.00687 -0.02062,-0.020619 0,-0.00515 0.0023,-0.00916 0.0023,-0.00401 0.0057,-0.00802 0,-5.727e-4 0,-5.727e-4 0,0 0,0 5.72e-4,-0.00115 0.0012,-0.00172 0.0011,-0.00115 0.0017,-0.00229 0.0063,-0.00802 0.0092,-0.0252 0.0029,-0.017755 0.0029,-0.050401 0,-0.042955 -0.0097,-0.06071 -0.0092,-0.018328 -0.03093,-0.018328 -0.01604,0 -0.02348,0.010882 -0.0069,0.010309 -0.0069,0.03551 v 0.05325 z m -0.496561,-0.0337911 v -0.1471937 q 0,-0.026346 -0.0034,-0.034364 -0.0034,-0.00859 -0.01833,-0.0126 -0.0012,-5.727e-4 -0.0023,-5.727e-4 -5.73e-4,-5.728e-4 -0.0011,-5.728e-4 -0.0126,-0.00344 -0.0189,-0.00974 -0.0063,-0.0063 -0.0063,-0.014891 0,-0.013173 0.01031,-0.020046 0.01088,-0.00687 0.0315,-0.00687 0.004,0 0.008,5.728e-4 0.0046,0 0.0086,0 0.004,0 0.008,5.727e-4 0.0046,0 0.0086,0 0.01947,0 0.03895,-0.00115 0.01947,-0.00114 0.03952,-0.00286 0.01947,-0.00115 0.03895,-0.00229 0.01947,-0.00115 0.03895,-0.00115 0.06472,0 0.104811,0.033219 0.04066,0.033219 0.04066,0.087056 0,0.055556 -0.04066,0.090493 -0.04009,0.034937 -0.103665,0.034937 -0.0063,0 -0.0126,-5.727e-4 -0.0057,-5.727e-4 -0.01203,-0.00115 -0.0063,0 -0.0126,-5.727e-4 -0.0057,-5.727e-4 -0.01203,-5.727e-4 -0.0046,0 -0.0069,0.00229 -0.0017,0.00172 -0.0017,0.00687 0,0.00573 0,0.012027 5.73e-4,0.00573 5.73e-4,0.011455 0,0.00229 0,0.00458 5.73e-4,0.00172 5.73e-4,0.00344 0,0.00401 0,0.00802 5.73e-4,0.00401 5.73e-4,0.00802 5.73e-4,0.010309 0.0029,0.016609 0.0029,0.00573 0.0092,0.010882 0.0023,0.00114 0.0046,0.00286 0.0029,0.00172 0.0063,0.00344 0.0034,0.00172 0.0057,0.00344 0.0029,0.00172 0.0046,0.00344 0.004,0.00286 0.0057,0.0063 0.0017,0.00344 0.0017,0.00745 0,0.018328 -0.02692,0.027491 -0.02635,0.00916 -0.07904,0.00916 -0.04868,0 -0.07446,-0.00859 -0.02577,-0.00916 -0.02577,-0.026346 0,-0.0063 0.004,-0.011455 0.004,-0.00515 0.01145,-0.00916 0.0034,-0.00172 0.0063,-0.00344 0.0029,-0.00172 0.0046,-0.00286 0.0097,-0.00687 0.01145,-0.014891 0.0017,-0.00802 0.0017,-0.021191 0,-0.00229 0,-0.00401 0,-0.00229 0,-0.00458 v -0.030927 z m 0.126003,-0.1827034 v 0.095074 q 0,0.010309 0.0051,0.014318 0.0052,0.00344 0.01947,0.00344 0.02348,0 0.03665,-0.016037 0.01375,-0.016037 0.01375,-0.044101 0,-0.02921 -0.01489,-0.045819 -0.01432,-0.017182 -0.03952,-0.017182 -0.0097,0 -0.01546,0.00286 -0.0051,0.00286 -0.0051,0.00802 z m -0.42039,0.1735396 -0.03723,0.1013746 q -0.0189,0.052692 -0.05155,0.095074 -0.03265,0.042383 -0.09622,0.042383 -0.03723,0 -0.06128,-0.018328 -0.02406,-0.018328 -0.02406,-0.046964 0,-0.021191 0.01375,-0.03551 0.01432,-0.014318 0.03436,-0.014318 0.01833,0 0.02692,0.00916 0.0086,0.00859 0.01375,0.019473 0.0012,0.00344 0.0023,0.00687 0.0017,0.00344 0.0029,0.00687 0.0029,0.0063 0.0057,0.010309 0.0029,0.00458 0.0075,0.00458 0.0092,0 0.01489,-0.00745 0.0063,-0.00745 0.0063,-0.0189 0,-5.727e-4 0,-0.00115 0,0 0,0 0,-0.00745 -0.0034,-0.016037 -0.0034,-0.00916 -0.01146,-0.026346 l -0.06701,-0.1437572 q -0.0074,-0.016037 -0.01375,-0.024055 -0.0063,-0.00859 -0.0126,-0.011455 -0.0017,-5.727e-4 -0.0034,-0.00115 -0.0011,-5.727e-4 -0.0023,-0.00172 -0.008,-0.00344 -0.01489,-0.00859 -0.0063,-0.00573 -0.0063,-0.015464 0,-0.014891 0.01546,-0.023482 0.01546,-0.00916 0.04868,-0.013173 0.0057,-5.727e-4 0.01145,-0.00115 0.0057,-5.727e-4 0.01145,-0.00114 0.0097,-5.727e-4 0.0189,-5.727e-4 0.0097,-5.727e-4 0.01776,-5.727e-4 0.03608,0 0.05326,0.00859 0.01718,0.00802 0.01718,0.026346 0,0.00401 -0.0017,0.00802 -0.0017,0.00344 -0.004,0.00687 0,0 -5.73e-4,5.727e-4 0,0 0,0 -0.0023,0.00344 -0.0046,0.00745 -0.0017,0.00401 -0.0017,0.00859 0,0.00401 0.0023,0.011455 0.0029,0.00745 0.0063,0.016037 0.0034,0.00687 0.0075,0.013746 0.004,0.0063 0.008,0.010882 0.0029,0.00229 0.0052,0.00401 0.0029,0.00172 0.0051,0.00172 0.0075,0 0.0126,-0.00802 0.0052,-0.00802 0.0086,-0.017755 0.0029,-0.00802 0.004,-0.014891 0.0017,-0.00745 0.0017,-0.00974 0,-0.00802 -0.0029,-0.013173 -0.0023,-0.00515 -0.0057,-0.00916 -5.73e-4,-5.727e-4 -0.0012,-0.00115 0,-5.727e-4 -5.73e-4,-0.00114 -0.0029,-0.00401 -0.0052,-0.00802 -0.0017,-0.00401 -0.0017,-0.00974 0,-0.014318 0.01833,-0.022909 0.0189,-0.00859 0.04983,-0.00859 0.03035,0 0.04525,0.00745 0.01546,0.00687 0.01546,0.021764 0,0.00859 -0.004,0.013746 -0.004,0.00516 -0.01375,0.00974 -0.0023,0.00114 -0.0052,0.00229 -0.0023,0.00115 -0.0052,0.00229 -0.0069,0.00229 -0.0126,0.00687 -0.0052,0.00401 -0.01031,0.012027 -0.0057,0.00859 -0.01203,0.02291 -0.0063,0.014318 -0.01432,0.036655 z m -0.4799536,-0.1151204 -5.729e-4,0.00573 q 0,0.00286 0.00115,0.00458 0.00115,0.00172 0.00286,0.00172 0.00115,0 0.00859,-0.00516 0.00745,-0.00573 0.0189,-0.012027 0.010882,-0.00573 0.023482,-0.010882 0.013173,-0.00515 0.026346,-0.0063 0.00115,0 0.00229,0 0.00172,0 0.00286,0 0.045819,0 0.076174,0.034937 0.03093,0.034364 0.03093,0.085911 0,0.072165 -0.046964,0.1185568 -0.046965,0.046392 -0.1197022,0.046392 -0.019473,0 -0.038373,-0.00515 -0.018328,-0.00516 -0.033219,-0.012027 -0.014891,-0.00687 -0.024628,-0.012028 -0.00916,-0.00573 -0.010309,-0.00573 -0.00401,0 -0.00802,0.00114 -0.00344,5.727e-4 -0.00687,0.00229 -5.729e-4,0 -0.00115,5.727e-4 -5.729e-4,0 -0.00115,0 -0.00458,0.00172 -0.00916,0.00286 -0.00401,0.00115 -0.00859,0.00115 -0.00859,0 -0.0126,-0.00286 -0.00401,-0.00286 -0.00401,-0.00859 0,-0.00516 0.00115,-0.010309 0.00115,-0.00573 0.00286,-0.011455 0.00115,-0.00515 0.00229,-0.010882 0.00172,-0.00573 0.00172,-0.011455 0.00115,-0.023482 0.00172,-0.046965 0.00115,-0.023482 0.00115,-0.046965 v -0.077892 q 0,-0.026346 -0.00229,-0.033791 -0.00172,-0.00802 -0.010309,-0.012027 -5.729e-4,-5.727e-4 -0.00115,-5.727e-4 -5.729e-4,-5.728e-4 -0.00115,-5.728e-4 -0.00286,-0.00114 -0.00515,-0.00229 -0.00229,-0.00115 -0.00401,-0.00229 -0.00916,-0.00458 -0.0126,-0.00974 -0.00344,-0.00515 -0.00344,-0.0126 0,-0.017755 0.024055,-0.029782 0.024628,-0.0126 0.053837,-0.020046 0.021764,-0.00573 0.04181,-0.00802 0.020046,-0.00286 0.029782,-0.00286 0.00802,0 0.010882,0.00401 0.00344,0.00344 0.00344,0.0126 l -0.00286,0.1088202 z m 0,0.1076748 0.00115,0.041237 q 0.00115,0.038946 0.0063,0.052119 0.00573,0.013173 0.021191,0.013173 0.020046,0 0.030928,-0.017182 0.010882,-0.017755 0.010882,-0.050401 0,-0.039519 -0.012028,-0.061856 -0.012028,-0.022909 -0.032073,-0.022909 -0.014891,0 -0.020046,0.010309 -0.00515,0.010309 -0.00573,0.022909 -5.73e-4,0.00344 -5.73e-4,0.00687 0,0.00286 0,0.0063 z m -0.3533787,0.02291 H 6.7147092 q -0.00458,5.727e-4 -0.00687,0.00229 -0.00172,0.00172 -0.00172,0.00573 0,0.017182 0.013746,0.029782 0.013746,0.0126 0.029782,0.017755 0.00458,0.00115 0.00916,0.00229 0.00515,5.727e-4 0.00916,5.727e-4 0.00515,0 0.010882,-5.727e-4 0.0063,-0.00115 0.0126,-0.00286 0.00916,-0.00229 0.017755,-0.00573 0.00916,-0.00401 0.015464,-0.00859 0.00458,-0.00286 0.00687,-0.00401 0.00229,-0.00172 0.00458,-0.00229 5.729e-4,-5.727e-4 0.00115,-5.727e-4 0.00115,0 0.00229,0 0.00687,0 0.012027,0.00573 0.00515,0.00573 0.00802,0.0126 5.729e-4,0.00286 0.00115,0.00515 5.729e-4,0.00229 5.729e-4,0.00458 0,0.00974 -0.0063,0.019473 -0.0063,0.00916 -0.0189,0.0189 -0.022337,0.016609 -0.048683,0.024628 -0.025773,0.00802 -0.056128,0.00802 -0.06071,0 -0.1030928,-0.039519 -0.04181,-0.040092 -0.04181,-0.097365 0,-0.062428 0.043528,-0.1053838 0.043528,-0.043528 0.1059566,-0.043528 0.028637,0 0.051546,0.00745 0.023482,0.00745 0.042383,0.022909 0.013173,0.010309 0.022909,0.024628 0.00974,0.013746 0.014891,0.028064 0.00229,0.00745 0.00344,0.014318 0.00172,0.00687 0.00172,0.013173 0,0.019473 -0.00745,0.031501 -0.00687,0.011455 -0.019473,0.011455 z M 6.7215819,0.67889914 h 0.028637 q 0.00916,5.727e-4 0.013173,-0.00344 0.00458,-0.00401 0.00458,-0.0126 0,-0.014891 -0.00859,-0.024628 -0.00859,-0.00974 -0.022337,-0.00974 -0.013173,0 -0.023482,0.010882 -0.00974,0.010309 -0.00974,0.024628 0,0.00859 0.00401,0.012027 0.00401,0.00344 0.013746,0.00344 z M 6.4879053,0.65083504 v 0.094502 q 0,0.017182 0.00802,0.028064 0.00859,0.010882 0.021191,0.010882 0.010882,0 0.015464,-0.00172 0.00515,-0.00229 0.00802,-0.00458 5.729e-4,-5.727e-4 0.00115,-0.00114 5.729e-4,-5.727e-4 0.00115,-5.727e-4 0.00172,-0.00229 0.00401,-0.00344 0.00286,-0.00115 0.00745,-0.00115 0.0063,0 0.010309,0.00516 0.00458,0.00515 0.0063,0.011455 0.00115,0.00229 0.00115,0.00458 5.729e-4,0.00229 5.729e-4,0.00458 0,0.021764 -0.021191,0.036655 -0.020619,0.014318 -0.045819,0.021764 -0.013746,0.00401 -0.026919,0.00573 -0.013173,0.00229 -0.022909,0.00229 -0.043528,0 -0.070447,-0.025201 -0.026919,-0.0252 -0.026919,-0.066438 v -0.1294387 q 0,-0.00573 -0.00172,-0.00745 -0.00172,-0.00172 -0.00802,-0.00172 l -0.028637,-5.727e-4 q -0.00802,5.727e-4 -0.00974,-0.00229 -0.00229,-0.00286 -0.00229,-0.012028 l -5.73e-4,-0.013173 q 5.73e-4,0 5.73e-4,-5.727e-4 0,-5.727e-4 0,-0.00115 5.729e-4,-0.00286 0.00229,-0.00573 0.00115,-0.00286 0.00344,-0.00401 l 0.128293,-0.081329 q 0.00229,-5.728e-4 0.00458,-0.00115 0.00286,-5.728e-4 0.00687,-5.728e-4 l 0.022909,-5.727e-4 q 0.00687,5.727e-4 0.00916,0.00401 0.00229,0.00286 0.00229,0.012027 v 0.037801 q 0,0.00859 0.00229,0.011455 0.00286,0.00229 0.012027,0.00229 l 0.051546,-5.727e-4 q 0.010309,5.727e-4 0.013173,0.00458 0.00344,0.00344 0.00344,0.016037 v 0.016037 q 0,0.013746 -0.00401,0.0189 -0.00401,0.00516 -0.014318,0.00516 l -0.050401,-5.727e-4 q -0.00745,5.727e-4 -0.010882,0.00344 -0.00286,0.00229 -0.00286,0.010309 z m -0.2159219,0.031501 q 0,0.00515 0,0.010309 0,0.00458 0,0.00916 -5.729e-4,0.00458 -5.729e-4,0.00974 0,0.00458 0,0.00916 0,0.034937 0.00401,0.049828 0.00458,0.014891 0.013746,0.016609 0.0063,5.727e-4 0.010309,0.00286 0.00458,0.00229 0.00458,0.00974 0,0.021764 -0.017755,0.037801 -0.017182,0.016037 -0.038373,0.021764 -0.00687,0.00229 -0.013746,0.00344 -0.0063,0.00115 -0.012027,0.00115 -0.014318,0 -0.023482,-0.00401 -0.00916,-0.00401 -0.014891,-0.00916 -0.00515,-0.00401 -0.00859,-0.00745 -0.00344,-0.00344 -0.00687,-0.00516 -0.00115,-5.727e-4 -0.00229,-5.727e-4 -5.73e-4,-5.727e-4 -0.00172,-5.727e-4 -0.00344,0 -0.010309,0.00458 -0.00687,0.00401 -0.017182,0.00916 -0.00974,0.00515 -0.022337,0.00916 -0.0126,0.00401 -0.028064,0.00401 -0.040092,0 -0.065865,-0.020619 -0.025773,-0.020619 -0.025773,-0.053265 0,-0.041237 0.029782,-0.06071 0.029782,-0.020046 0.065865,-0.026346 0.00916,-0.00114 0.018328,-0.00172 0.00974,-0.00115 0.0189,-0.00115 0.016609,-5.727e-4 0.020619,-0.00344 0.00401,-0.00286 0.00401,-0.015464 0,-0.028637 -0.0063,-0.04181 -0.0063,-0.013746 -0.019473,-0.013746 -0.00974,0 -0.017182,0.0063 -0.00687,0.0063 -0.013746,0.014891 -0.00115,0.00172 -0.00286,0.00401 -0.00172,0.00229 -0.00344,0.00401 -0.00859,0.011455 -0.0189,0.020619 -0.010309,0.00916 -0.026346,0.00916 -0.013746,0 -0.022909,-0.00802 -0.00916,-0.00802 -0.00916,-0.019473 0,-0.025773 0.024628,-0.042383 0.0252,-0.017182 0.054983,-0.026346 0.016609,-0.00516 0.032646,-0.00745 0.016609,-0.00286 0.028064,-0.00286 0.028064,0 0.049255,0.0063 0.021764,0.00573 0.038374,0.018328 5.729e-4,5.727e-4 5.729e-4,0.00114 5.729e-4,0 0.00115,0 0.017755,0.013746 0.024055,0.030355 0.0063,0.016037 0.0063,0.048683 z m -0.1638031,0.091638 q 0,0.013173 0.0063,0.021764 0.00687,0.00859 0.017182,0.00859 0.011455,0 0.016609,-0.00916 0.00573,-0.00974 0.00573,-0.02921 0,-0.014891 -0.00344,-0.020619 -0.00286,-0.00573 -0.012028,-0.00573 -0.0126,0 -0.021764,0.010309 -0.00859,0.010309 -0.00859,0.024628 z m -0.1557844,-0.092784 0.00401,0.097938 q 0,0.00802 0.00229,0.014318 0.00229,0.0063 0.0063,0.010882 0.00115,0.00115 0.00172,0.00229 0.00115,5.727e-4 0.00229,0.00172 0,0 0,0 0,0 5.73e-4,5.727e-4 0.00401,0.00401 0.00745,0.00916 0.00401,0.00458 0.00401,0.011455 0,0.0189 -0.022337,0.025773 -0.021764,0.00687 -0.081329,0.00687 -0.03551,0 -0.052119,-0.0063 -0.016037,-0.00687 -0.016037,-0.022337 0,-0.00515 0.00229,-0.00916 0.00229,-0.00401 0.00573,-0.00745 5.727e-4,-5.727e-4 0.00115,-0.00115 5.727e-4,-5.727e-4 0.00115,-0.00114 5.727e-4,-5.727e-4 0.00115,-0.00115 5.728e-4,-0.00114 0.00115,-0.00172 0.00515,-0.00516 0.00802,-0.025773 0.00344,-0.020619 0.00344,-0.050974 0,-0.039519 -0.00859,-0.056128 -0.00802,-0.017182 -0.028064,-0.017182 -0.017755,0 -0.0252,0.012027 -0.00687,0.012027 -0.00687,0.043528 v 0.054983 q 0,0.012027 0.00115,0.0189 0.00115,0.00687 0.00515,0.013173 0,5.727e-4 5.728e-4,0.00172 5.727e-4,5.727e-4 0.00115,0.00114 5.728e-4,0.00115 0.00115,0.00229 0.00115,0.00115 0.00172,0.00229 0.00344,0.00401 0.00573,0.00859 0.00229,0.00458 0.00229,0.00974 0,0.016609 -0.02291,0.024628 -0.022337,0.00745 -0.07102,0.00745 -0.038946,0 -0.058419,-0.00745 -0.019473,-0.00745 -0.019473,-0.022909 0,-0.00458 0,-0.00687 5.727e-4,-0.00286 0.00229,-0.00516 0.00172,-0.00172 0.00401,-0.00401 0.00286,-0.00229 0.00745,-0.00515 0.00859,-0.0063 0.011455,-0.02921 0.00344,-0.023482 0.00344,-0.084192 0,-0.018328 -0.00515,-0.025773 -0.00458,-0.00802 -0.010882,-0.012027 -0.00115,-5.727e-4 -0.00286,-0.00115 -0.00115,-0.00115 -0.00229,-0.00172 -0.00458,-0.00286 -0.00802,-0.0063 -0.00286,-0.00344 -0.00286,-0.010309 0,-0.013173 0.021764,-0.0252 0.022337,-0.012027 0.048683,-0.020046 0.020619,-0.00687 0.038946,-0.010309 0.0189,-0.00401 0.026919,-0.00401 0.00802,0 0.013746,0.0063 0.00573,0.00573 0.00573,0.014318 0,5.727e-4 0,0.00229 0,0.00172 -5.728e-4,0.00458 0,0.00114 0,0.00286 0,0.00115 0,0.00229 5.728e-4,0.00458 0.00286,0.00859 0.00229,0.00401 0.00802,0.00401 0.00458,0 0.010309,-0.00687 0.00573,-0.00745 0.014891,-0.016037 0.00916,-0.00859 0.02291,-0.015464 0.014318,-0.00745 0.036082,-0.00745 0.017182,0 0.032646,0.00515 0.016037,0.00458 0.028064,0.013746 5.729e-4,0 5.729e-4,5.727e-4 5.729e-4,0 5.729e-4,5.727e-4 0.017182,0.013173 0.023482,0.030355 0.00687,0.017182 0.00859,0.051546 z M 5.4352138,0.57752454 q 0.060137,5.727e-4 0.1088203,0.037801 0.048683,0.037228 0.048683,0.1019474 0,0.062428 -0.052119,0.104811 -0.052119,0.04181 -0.1282933,0.04181 -0.062428,0 -0.1042383,-0.036655 -0.041237,-0.037228 -0.041237,-0.092784 0,-0.067583 0.046392,-0.1105384 0.046965,-0.043528 0.1219931,-0.045819 z m -0.018328,0.064719 q -0.011455,0.00115 -0.018328,0.010309 -0.00687,0.00859 -0.00687,0.023482 0,0.00974 0.00229,0.024628 0.00229,0.014891 0.0063,0.030928 0.00229,0.010882 0.00573,0.021764 0.00344,0.010309 0.00687,0.019473 0.00458,0.011455 0.011455,0.017182 0.00687,0.00573 0.016609,0.00573 0.013173,0 0.0189,-0.00802 0.0063,-0.00859 0.0063,-0.026919 0,-0.011455 -0.00229,-0.025773 -0.00172,-0.014318 -0.00573,-0.02921 -0.00286,-0.011455 -0.0063,-0.022337 -0.00344,-0.011455 -0.00745,-0.021191 -0.00401,-0.00859 -0.010882,-0.013746 -0.00687,-0.00573 -0.016609,-0.00573 z m -0.4014878,0.216495 q -0.013173,-5.727e-4 -0.026346,-0.00115 -0.0126,0 -0.025773,-5.727e-4 -0.013173,0 -0.026346,-5.727e-4 -0.0126,0 -0.025773,0 -0.00745,0 -0.015464,5.727e-4 -0.00745,5.727e-4 -0.014891,0.00114 -0.00802,0 -0.015464,5.727e-4 -0.00745,5.727e-4 -0.015464,5.727e-4 -0.020046,0 -0.032073,-0.00802 -0.012028,-0.00802 -0.012028,-0.022337 0,-0.013173 0.00458,-0.016609 0.00515,-0.00344 0.011455,-0.00458 0.00172,-5.727e-4 0.00286,-5.727e-4 0.00172,-5.727e-4 0.00344,-0.00114 0.00745,-0.00229 0.014318,-0.010882 0.00687,-0.00859 0.00745,-0.03551 0.00172,-0.024055 0.00229,-0.047537 0.00115,-0.024055 0.00172,-0.047537 5.727e-4,-0.023482 5.727e-4,-0.046964 5.727e-4,-0.024055 5.727e-4,-0.04811 0,-0.024055 -0.00344,-0.031501 -0.00344,-0.00802 -0.016037,-0.0126 -5.727e-4,0 -0.00115,0 0,-5.728e-4 0,-5.728e-4 -0.00916,-0.00344 -0.014318,-0.00974 -0.00515,-0.0063 -0.00515,-0.014891 0,-0.014318 0.013173,-0.021764 0.013173,-0.00745 0.037801,-0.00745 0.0063,0 0.0126,5.728e-4 0.0063,0 0.013173,0 0.0063,0 0.0126,5.727e-4 0.0063,0 0.0126,0 0.014318,0 0.028637,-5.727e-4 0.014319,-5.728e-4 0.028637,-0.00114 0.014319,-5.728e-4 0.028637,-0.00115 0.014318,-5.728e-4 0.028637,-5.728e-4 0.052119,0 0.084765,0.00859 0.033219,0.00859 0.059565,0.028637 0.033792,0.0252 0.050974,0.065865 0.017755,0.040092 0.017755,0.091065 0,0.088202 -0.053837,0.1426118 -0.053265,0.05441 -0.1386026,0.05441 -0.00458,0 -0.00916,0 -0.00458,0 -0.00916,-5.727e-4 -0.00458,0 -0.00916,-5.727e-4 -0.00458,0 -0.00916,0 z m -0.029782,-0.305269 v 0.216495 q 0,0.018328 0.00745,0.025773 0.00745,0.00745 0.026346,0.00745 0.038946,0 0.059565,-0.030928 0.021191,-0.030928 0.021191,-0.08992 0,-0.078465 -0.021764,-0.1151204 -0.021764,-0.036655 -0.068156,-0.036655 -0.013746,0 -0.019473,0.00515 -0.00515,0.00516 -0.00515,0.018328 z" />
    <path
       id="rect4946-8-7-4"
       style="opacity:0.928105;fill:none;fill-opacity:1;stroke:#008000;stroke-width:0.0019685;stroke-miterlimit:4;stroke-dasharray:none;stroke-opacity:1"
       d="M 4.3647982,1.0369145 H 4.6689681 V 1.4669853 H 4.3647982 Z m -0.3857341,0 H 4.3628296 V 1.4669853 H 3.9790641 Z m -0.4150586,0 h 0.41309 v 0.4300708 h -0.41309 z m -0.387828,0 h 0.38586 v 0.4300708 h -0.38586 z m -0.5281677,0 H 3.174209 V 1.4669853 H 2.6480098 Z m -0.3710717,0 h 0.369103 v 0.4300708 h -0.369103 z m -0.5917112,0 H 2.2749698 V 1.4669853 H 1.6852269 Z m -0.3856593,0 H 1.6832584 V 1.4669853 H 1.2995676 Z m -0.34736638,0 H 1.2975991 V 1.4669853 H 0.95220122 Z m -0.4604215,0 h 0.458453 v 0.4300708 h -0.458453 z M 4.6327291,1.3173714 H 4.5015722 q -0.0046,5.727e-4 -0.0069,0.00229 -0.0017,0.00172 -0.0017,0.00573 0,0.017182 0.01375,0.029782 0.01375,0.0126 0.02978,0.017755 0.0046,0.00115 0.0092,0.00229 0.0052,5.727e-4 0.0092,5.727e-4 0.0052,0 0.01088,-5.727e-4 0.0063,-0.00115 0.0126,-0.00286 0.0092,-0.00229 0.01776,-0.00573 0.0092,-0.00401 0.01546,-0.00859 0.0046,-0.00286 0.0069,-0.00401 0.0023,-0.00172 0.0046,-0.00229 5.729e-4,-5.728e-4 0.0011,-5.728e-4 0.0011,0 0.0023,0 0.0069,0 0.01203,0.00573 0.0052,0.00573 0.008,0.0126 5.729e-4,0.00286 0.0011,0.00515 5.718e-4,0.00229 5.718e-4,0.00458 0,0.00974 -0.0063,0.019473 -0.0063,0.00916 -0.0189,0.0189 -0.02234,0.016609 -0.04868,0.024628 -0.02577,0.00802 -0.05613,0.00802 -0.06071,0 -0.103093,-0.039519 -0.04181,-0.040092 -0.04181,-0.097365 0,-0.062428 0.04353,-0.1053838 0.04353,-0.043528 0.1059569,-0.043528 0.02864,0 0.05155,0.00745 0.02348,0.00745 0.04238,0.022909 0.01317,0.010309 0.02291,0.024628 0.0097,0.013746 0.01489,0.028064 0.0023,0.00745 0.0034,0.014318 0.0017,0.00687 0.0017,0.013173 0,0.019473 -0.0074,0.0315 -0.0069,0.011455 -0.01947,0.011455 z m -0.124284,-0.052119 h 0.02864 q 0.0092,5.728e-4 0.01317,-0.00344 0.0046,-0.00401 0.0046,-0.0126 0,-0.014891 -0.0086,-0.024628 -0.0086,-0.00974 -0.02234,-0.00974 -0.01317,0 -0.02348,0.010882 -0.0097,0.010309 -0.0097,0.024628 0,0.00859 0.004,0.012028 0.004,0.00344 0.01375,0.00344 z m -0.1792671,0.00229 0.004,0.097938 q 0,0.00802 0.0023,0.014318 0.0023,0.0063 0.0063,0.010882 0.0011,0.00115 0.0017,0.00229 0.0011,5.727e-4 0.0023,0.00172 0,0 0,0 0,0 5.729e-4,5.727e-4 0.004,0.00401 0.0074,0.00916 0.004,0.00458 0.004,0.011455 0,0.0189 -0.02234,0.025773 -0.02176,0.00687 -0.08133,0.00687 -0.03551,0 -0.05212,-0.0063 -0.01604,-0.00687 -0.01604,-0.022337 0,-0.00515 0.0023,-0.00916 0.0023,-0.00401 0.0057,-0.00745 5.729e-4,-5.728e-4 0.0011,-0.00115 5.729e-4,-5.727e-4 0.0011,-0.00115 5.729e-4,-5.727e-4 0.0011,-0.00115 5.719e-4,-0.00115 0.0011,-0.00172 0.0052,-0.00515 0.008,-0.025773 0.0034,-0.020619 0.0034,-0.050974 0,-0.039519 -0.0086,-0.056128 -0.008,-0.017182 -0.02806,-0.017182 -0.01775,0 -0.0252,0.012027 -0.0069,0.012028 -0.0069,0.043528 v 0.054983 q 0,0.012028 0.0011,0.0189 0.0011,0.00687 0.0052,0.013173 0,5.728e-4 5.719e-4,0.00172 5.729e-4,5.728e-4 0.0011,0.00115 5.729e-4,0.00115 0.0011,0.00229 0.0011,0.00115 0.0017,0.00229 0.0034,0.00401 0.0057,0.00859 0.0023,0.00458 0.0023,0.00974 0,0.016609 -0.02291,0.024628 -0.02234,0.00745 -0.07102,0.00745 -0.03895,0 -0.05842,-0.00745 -0.01947,-0.00745 -0.01947,-0.022909 0,-0.00458 0,-0.00687 5.729e-4,-0.00286 0.0023,-0.00515 0.0017,-0.00172 0.004,-0.00401 0.0029,-0.00229 0.0074,-0.00515 0.0086,-0.0063 0.01145,-0.02921 0.0034,-0.023482 0.0034,-0.084193 0,-0.018328 -0.0052,-0.025773 -0.0046,-0.00802 -0.01088,-0.012028 -0.0011,-5.727e-4 -0.0029,-0.00115 -0.0011,-0.00115 -0.0023,-0.00172 -0.0046,-0.00286 -0.008,-0.0063 -0.0029,-0.00344 -0.0029,-0.010309 0,-0.013173 0.02176,-0.0252 0.02234,-0.012027 0.04868,-0.020046 0.02062,-0.00687 0.03895,-0.010309 0.0189,-0.00401 0.02692,-0.00401 0.008,0 0.01375,0.0063 0.0057,0.00573 0.0057,0.014318 0,5.728e-4 0,0.00229 0,0.00172 -5.729e-4,0.00458 0,0.00115 0,0.00286 0,0.00115 0,0.00229 5.729e-4,0.00458 0.0029,0.00859 0.0023,0.00401 0.008,0.00401 0.0046,0 0.01031,-0.00687 0.0057,-0.00745 0.01489,-0.016037 0.0092,-0.00859 0.02291,-0.015464 0.01432,-0.00745 0.03608,-0.00745 0.01718,0 0.03265,0.00515 0.01604,0.00458 0.02806,0.013746 5.718e-4,0 5.718e-4,5.727e-4 5.73e-4,0 5.73e-4,5.728e-4 0.01718,0.013173 0.02348,0.030355 0.0069,0.017182 0.0086,0.051546 z M 3.9414351,1.1833514 V 1.346009 q 0,0.018328 0.0029,0.026919 0.0034,0.00859 0.01145,0.015464 5.729e-4,5.727e-4 0.0011,0.00172 0.0011,5.727e-4 0.0023,0.00115 0.0046,0.00344 0.0074,0.0063 0.0029,0.00229 0.0046,0.00458 0.0017,0.00229 0.0023,0.00515 5.729e-4,0.00229 5.729e-4,0.00573 0,0.017755 -0.02291,0.026919 -0.02291,0.00859 -0.06758,0.00859 -0.05269,0 -0.07732,-0.00745 -0.02405,-0.00745 -0.02405,-0.024628 0,-0.00916 0.0052,-0.014318 0.0052,-0.00573 0.01146,-0.010309 5.719e-4,0 5.719e-4,0 0,-5.727e-4 0,-5.727e-4 5.729e-4,-5.73e-4 5.729e-4,-5.73e-4 5.729e-4,-5.727e-4 0.0011,-5.727e-4 0.0092,-0.0063 0.0126,-0.020619 0.0034,-0.014891 0.0034,-0.042955 0,-0.00458 0,-0.00916 0,-0.00458 -5.719e-4,-0.00974 0,-0.00458 -5.729e-4,-0.00916 0,-0.00458 0,-0.00916 0,-0.00229 0,-0.00401 0,-0.00172 0,-0.00344 -0.0011,-0.016609 -0.0023,-0.021764 -5.729e-4,-0.00573 -0.004,-0.00916 -5.729e-4,-5.728e-4 -0.0011,-5.728e-4 -5.719e-4,-5.727e-4 -0.0011,-0.00115 -0.0017,-0.00115 -0.004,-0.00229 -0.0017,-0.00172 -0.004,-0.00229 -5.719e-4,-5.727e-4 -0.0011,-5.727e-4 -5.729e-4,-5.727e-4 -5.729e-4,-5.727e-4 -0.0069,-0.00344 -0.01203,-0.00745 -0.0046,-0.00458 -0.0046,-0.013746 0,-0.00916 0.0063,-0.016037 0.0063,-0.00745 0.02291,-0.013746 0.0092,-0.00401 0.02177,-0.00745 0.01317,-0.00401 0.03036,-0.00802 0.0189,-0.00458 0.03436,-0.00687 0.01604,-0.00286 0.02864,-0.00344 0.008,0 0.01203,0.00458 0.004,0.00458 0.004,0.0126 z m -0.05727,-0.1225659 q 0.004,5.727e-4 0.0086,0.00115 0.0052,0 0.0097,0.00115 0.01375,0.00229 0.0252,0.00974 0.01146,0.00745 0.01146,0.02291 0,0.022337 -0.02978,0.037801 -0.02978,0.015464 -0.07388,0.015464 -0.02176,0 -0.03551,-0.00916 -0.01375,-0.00974 -0.01375,-0.025201 0,-0.021191 0.02806,-0.036655 0.02864,-0.015464 0.06987,-0.016609 z M 3.736968,1.2211521 v 0.089347 0.044674 q 0,0.021191 0.0029,0.028637 0.0034,0.00745 0.0126,0.012028 0.0023,0.00115 0.004,0.00229 0.0023,5.728e-4 0.004,0.00172 0.0057,0.00286 0.0074,0.0063 0.0017,0.00344 0.0017,0.00916 0,0.019473 -0.02062,0.026346 -0.02005,0.00687 -0.07331,0.00687 -0.05097,0 -0.07388,-0.00802 -0.02234,-0.00802 -0.02234,-0.026346 0,-0.00859 0.0057,-0.0126 0.0057,-0.00401 0.0126,-0.00687 0.01145,-0.00458 0.01489,-0.030355 0.0034,-0.026346 0.0034,-0.099656 0,-0.068156 -0.004,-0.087629 -0.004,-0.019473 -0.01947,-0.028637 -0.004,-0.00229 -0.0069,-0.00401 -0.0029,-0.00229 -0.0052,-0.00458 -0.0046,-0.00401 -0.0069,-0.00859 -0.0017,-0.00458 -0.0017,-0.010309 0,-0.0189 0.02463,-0.030928 0.02463,-0.0126 0.05384,-0.019473 0.02176,-0.00458 0.04124,-0.00687 0.01947,-0.00229 0.02978,-0.00229 0.01145,0 0.01661,0.00687 0.0057,0.0063 0.0057,0.020619 0,0.00344 -5.729e-4,0.013746 -5.719e-4,0.010309 -0.0023,0.027491 -0.0011,0.011455 -0.0023,0.02291 -5.719e-4,0.011455 -5.719e-4,0.022909 -5.729e-4,0.011455 -0.0011,0.022909 0,0.011455 0,0.022909 z m -0.20504,0.046392 0.004,0.097938 q 0,0.00802 0.0023,0.014318 0.0023,0.0063 0.0063,0.010882 0.0011,0.00115 0.0017,0.00229 0.0011,5.727e-4 0.0023,0.00172 0,0 0,0 0,0 5.719e-4,5.727e-4 0.004,0.00401 0.0074,0.00916 0.004,0.00458 0.004,0.011455 0,0.0189 -0.02234,0.025773 -0.02176,0.00687 -0.081328,0.00687 -0.03551,0 -0.052119,-0.0063 -0.016037,-0.00687 -0.016037,-0.022337 0,-0.00515 0.00229,-0.00916 0.00229,-0.00401 0.00573,-0.00745 5.729e-4,-5.728e-4 0.00115,-0.00115 5.729e-4,-5.727e-4 0.00115,-0.00115 5.729e-4,-5.727e-4 0.00115,-0.00115 5.729e-4,-0.00115 0.00115,-0.00172 0.00515,-0.00515 0.00802,-0.025773 0.00344,-0.020619 0.00344,-0.050974 0,-0.039519 -0.00859,-0.056128 -0.00802,-0.017182 -0.028064,-0.017182 -0.017755,0 -0.025201,0.012027 -0.00687,0.012028 -0.00687,0.043528 v 0.054983 q 0,0.012028 0.00115,0.0189 0.00115,0.00687 0.00515,0.013173 0,5.728e-4 5.729e-4,0.00172 5.729e-4,5.728e-4 0.00115,0.00115 5.729e-4,0.00115 0.00115,0.00229 0.00115,0.00115 0.00172,0.00229 0.00344,0.00401 0.00573,0.00859 0.00229,0.00458 0.00229,0.00974 0,0.016609 -0.02291,0.024628 -0.022337,0.00745 -0.07102,0.00745 -0.038946,0 -0.058419,-0.00745 -0.019473,-0.00745 -0.019473,-0.022909 0,-0.00458 0,-0.00687 5.729e-4,-0.00286 0.00229,-0.00515 0.00172,-0.00172 0.00401,-0.00401 0.00286,-0.00229 0.00745,-0.00515 0.00859,-0.0063 0.011455,-0.02921 0.00344,-0.023482 0.00344,-0.084193 0,-0.018328 -0.00515,-0.025773 -0.00458,-0.00802 -0.010882,-0.012028 -0.00115,-5.727e-4 -0.00286,-0.00115 -0.00115,-0.00115 -0.00229,-0.00172 -0.00458,-0.00286 -0.00802,-0.0063 -0.00286,-0.00344 -0.00286,-0.010309 0,-0.013173 0.021764,-0.0252 0.022337,-0.012027 0.048683,-0.020046 0.020618,-0.00687 0.038946,-0.010309 0.0189,-0.00401 0.026919,-0.00401 0.00802,0 0.013746,0.0063 0.00573,0.00573 0.00573,0.014318 0,5.728e-4 0,0.00229 0,0.00172 -5.729e-4,0.00458 0,0.00115 0,0.00286 0,0.00115 0,0.00229 5.729e-4,0.00458 0.00286,0.00859 0.00229,0.00401 0.00802,0.00401 0.00458,0 0.010309,-0.00687 0.00573,-0.00745 0.014891,-0.016037 0.00916,-0.00859 0.02291,-0.015464 0.014318,-0.00745 0.036082,-0.00745 0.017182,0 0.032646,0.00515 0.016037,0.00458 0.028064,0.013746 5.729e-4,0 5.729e-4,5.727e-4 5.729e-4,0 5.729e-4,5.728e-4 0.01718,0.013173 0.02348,0.030355 0.0069,0.017182 0.0086,0.051546 z M 2.9540357,1.0533392 q 0.042383,5.727e-4 0.074456,0.010309 0.032073,0.00974 0.058992,0.030928 0.034937,0.027491 0.056128,0.068729 0.021764,0.040664 0.024628,0.084765 5.729e-4,0.00286 5.729e-4,0.0063 0,0.00286 0,0.00573 0,0.080183 -0.063001,0.1351661 -0.063001,0.054983 -0.1546392,0.054983 -0.084765,0 -0.1431846,-0.057274 -0.058419,-0.057847 -0.058419,-0.1426118 0,-0.081901 0.059565,-0.1391753 0.059565,-0.057274 0.1449027,-0.057274 z m -0.020046,0.079611 q -0.019473,5.728e-4 -0.033219,0.017755 -0.013173,0.017182 -0.013173,0.043528 0,0.013173 0.00401,0.034937 0.00401,0.021764 0.011455,0.044674 0.011455,0.03551 0.030928,0.065292 0.019473,0.029782 0.045819,0.029782 0.021764,0 0.034364,-0.016037 0.013173,-0.016037 0.013173,-0.042383 0,-0.014318 -0.00344,-0.034937 -0.00286,-0.021191 -0.00916,-0.043528 -0.010309,-0.036655 -0.030355,-0.067583 -0.020046,-0.030928 -0.050401,-0.030928 z M 2.5428105,1.3173714 H 2.4116536 q -0.00458,5.727e-4 -0.00687,0.00229 -0.00172,0.00172 -0.00172,0.00573 0,0.017182 0.013746,0.029782 0.013746,0.0126 0.029782,0.017755 0.00458,0.00115 0.00916,0.00229 0.00515,5.727e-4 0.00916,5.727e-4 0.00515,0 0.010882,-5.727e-4 0.0063,-0.00115 0.0126,-0.00286 0.00916,-0.00229 0.017755,-0.00573 0.00916,-0.00401 0.015464,-0.00859 0.00458,-0.00286 0.00687,-0.00401 0.00229,-0.00172 0.00458,-0.00229 5.729e-4,-5.728e-4 0.00115,-5.728e-4 0.00115,0 0.00229,0 0.00687,0 0.012028,0.00573 0.00515,0.00573 0.00802,0.0126 5.729e-4,0.00286 0.00115,0.00515 5.729e-4,0.00229 5.729e-4,0.00458 0,0.00974 -0.0063,0.019473 -0.0063,0.00916 -0.0189,0.0189 -0.022337,0.016609 -0.048683,0.024628 -0.025773,0.00802 -0.056128,0.00802 -0.06071,0 -0.1030928,-0.039519 -0.04181,-0.040092 -0.04181,-0.097365 0,-0.062428 0.043528,-0.1053838 0.043528,-0.043528 0.1059567,-0.043528 0.028637,0 0.051546,0.00745 0.023482,0.00745 0.042383,0.022909 0.013173,0.010309 0.02291,0.024628 0.00974,0.013746 0.014891,0.028064 0.00229,0.00745 0.00344,0.014318 0.00172,0.00687 0.00172,0.013173 0,0.019473 -0.00745,0.0315 -0.00687,0.011455 -0.019473,0.011455 z m -0.124284,-0.052119 h 0.028637 q 0.00916,5.728e-4 0.013173,-0.00344 0.00458,-0.00401 0.00458,-0.0126 0,-0.014891 -0.00859,-0.024628 -0.00859,-0.00974 -0.022337,-0.00974 -0.013173,0 -0.023482,0.010882 -0.00974,0.010309 -0.00974,0.024628 0,0.00859 0.00401,0.012028 0.00401,0.00344 0.013746,0.00344 z M 2.1848499,1.2371881 v 0.094502 q 0,0.017182 0.00802,0.028064 0.00859,0.010882 0.021191,0.010882 0.010882,0 0.015464,-0.00172 0.00515,-0.00229 0.00802,-0.00458 5.729e-4,-5.728e-4 0.00115,-0.00115 5.729e-4,-5.727e-4 0.00115,-5.727e-4 0.00172,-0.00229 0.00401,-0.00344 0.00286,-0.00115 0.00745,-0.00115 0.0063,0 0.010309,0.00515 0.00458,0.00515 0.0063,0.011455 0.00115,0.00229 0.00115,0.00458 5.73e-4,0.00229 5.73e-4,0.00458 0,0.021764 -0.021191,0.036655 -0.020619,0.014318 -0.045819,0.021764 -0.013746,0.00401 -0.026919,0.00573 -0.013173,0.00229 -0.02291,0.00229 -0.043528,0 -0.070447,-0.0252 -0.026919,-0.025201 -0.026919,-0.066438 V 1.2291697 q 0,-0.00573 -0.00172,-0.00745 -0.00172,-0.00172 -0.00802,-0.00172 L 2.0170549,1.219427 q -0.00802,5.727e-4 -0.00974,-0.00229 -0.00229,-0.00286 -0.00229,-0.012028 L 2.004452,1.191936 q 5.729e-4,0 5.729e-4,-5.73e-4 0,-5.727e-4 0,-0.00115 5.729e-4,-0.00286 0.00229,-0.00573 0.00115,-0.00286 0.00344,-0.00401 l 0.128293,-0.081329 q 0.00229,-5.727e-4 0.00458,-0.00115 0.00286,-5.727e-4 0.00687,-5.727e-4 l 0.02291,-5.728e-4 q 0.00687,5.728e-4 0.00916,0.00401 0.00229,0.00286 0.00229,0.012027 v 0.037801 q 0,0.00859 0.00229,0.011455 0.00286,0.00229 0.012028,0.00229 l 0.051546,-5.727e-4 q 0.010309,5.727e-4 0.013173,0.00458 0.00344,0.00344 0.00344,0.016037 v 0.016037 q 0,0.013746 -0.00401,0.0189 -0.00401,0.00515 -0.014319,0.00515 l -0.050401,-5.727e-4 q -0.00745,5.727e-4 -0.010882,0.00344 -0.00286,0.00229 -0.00286,0.010309 z m -0.2159221,0.0315 q 0,0.00515 0,0.010309 0,0.00458 0,0.00916 -5.729e-4,0.00458 -5.729e-4,0.00974 0,0.00458 0,0.00916 0,0.034937 0.00401,0.049828 0.00458,0.014891 0.013746,0.016609 0.0063,5.727e-4 0.010309,0.00286 0.00458,0.00229 0.00458,0.00974 0,0.021764 -0.017755,0.037801 -0.017182,0.016037 -0.038374,0.021764 -0.00687,0.00229 -0.013746,0.00344 -0.0063,0.00115 -0.012028,0.00115 -0.014318,0 -0.023482,-0.00401 -0.00916,-0.00401 -0.014891,-0.00916 -0.00515,-0.00401 -0.00859,-0.00745 -0.00344,-0.00344 -0.00687,-0.00515 -0.00115,-5.728e-4 -0.00229,-5.728e-4 -5.729e-4,-5.727e-4 -0.00172,-5.727e-4 -0.00344,0 -0.010309,0.00458 -0.00687,0.00401 -0.017182,0.00916 -0.00974,0.00515 -0.022337,0.00916 -0.0126,0.00401 -0.028064,0.00401 -0.040092,0 -0.065865,-0.020619 -0.025773,-0.020619 -0.025773,-0.053265 0,-0.041237 0.029782,-0.06071 0.029782,-0.020046 0.065865,-0.026346 0.00916,-0.00115 0.018328,-0.00172 0.00974,-0.00115 0.0189,-0.00115 0.016609,-5.729e-4 0.020618,-0.00344 0.00401,-0.00286 0.00401,-0.015464 0,-0.028637 -0.0063,-0.04181 -0.0063,-0.013746 -0.019473,-0.013746 -0.00974,0 -0.017182,0.0063 -0.00687,0.0063 -0.013746,0.014891 -0.00115,0.00172 -0.00286,0.00401 -0.00172,0.00229 -0.00344,0.00401 -0.00859,0.011455 -0.0189,0.020619 -0.010309,0.00916 -0.026346,0.00916 -0.013746,0 -0.02291,-0.00802 -0.00916,-0.00802 -0.00916,-0.019473 0,-0.025773 0.024628,-0.042383 0.025201,-0.017182 0.054983,-0.026346 0.016609,-0.00515 0.032646,-0.00745 0.016609,-0.00286 0.028064,-0.00286 0.028064,0 0.049256,0.0063 0.021764,0.00573 0.038373,0.018328 5.729e-4,5.727e-4 5.729e-4,0.00115 5.729e-4,0 0.00115,0 0.017755,0.013746 0.024055,0.030355 0.0063,0.016037 0.0063,0.048683 z M 1.805125,1.3603271 q 0,0.013173 0.0063,0.021764 0.00687,0.00859 0.017182,0.00859 0.011455,0 0.016609,-0.00916 0.00573,-0.00974 0.00573,-0.02921 0,-0.014891 -0.00344,-0.020619 -0.00286,-0.00573 -0.012028,-0.00573 -0.0126,0 -0.021764,0.010309 -0.00859,0.010309 -0.00859,0.024628 z m -0.1557847,-0.092783 0.00401,0.097938 q 0,0.00802 0.00229,0.014318 0.00229,0.0063 0.0063,0.010882 0.00115,0.00115 0.00172,0.00229 0.00115,5.727e-4 0.00229,0.00172 0,0 0,0 0,0 5.729e-4,5.727e-4 0.00401,0.00401 0.00745,0.00916 0.00401,0.00458 0.00401,0.011455 0,0.0189 -0.022337,0.025773 -0.021764,0.00687 -0.081329,0.00687 -0.03551,0 -0.052119,-0.0063 -0.016037,-0.00687 -0.016037,-0.022337 0,-0.00515 0.00229,-0.00916 0.00229,-0.00401 0.00573,-0.00745 5.727e-4,-5.728e-4 0.00115,-0.00115 5.729e-4,-5.727e-4 0.00115,-0.00115 5.727e-4,-5.727e-4 0.00115,-0.00115 5.727e-4,-0.00115 0.00115,-0.00172 0.00515,-0.00515 0.00802,-0.025773 0.00344,-0.020619 0.00344,-0.050974 0,-0.039519 -0.00859,-0.056128 -0.00802,-0.017182 -0.028064,-0.017182 -0.017755,0 -0.0252,0.012027 -0.00687,0.012028 -0.00687,0.043528 v 0.054983 q 0,0.012028 0.00115,0.0189 0.00115,0.00687 0.00515,0.013173 0,5.728e-4 5.727e-4,0.00172 5.728e-4,5.728e-4 0.00115,0.00115 5.727e-4,0.00115 0.00115,0.00229 0.00115,0.00115 0.00172,0.00229 0.00344,0.00401 0.00573,0.00859 0.00229,0.00458 0.00229,0.00974 0,0.016609 -0.022909,0.024628 -0.022337,0.00745 -0.071019,0.00745 -0.038946,0 -0.058419,-0.00745 -0.019473,-0.00745 -0.019473,-0.022909 0,-0.00458 0,-0.00687 5.728e-4,-0.00286 0.00229,-0.00515 0.00172,-0.00172 0.00401,-0.00401 0.00286,-0.00229 0.00745,-0.00515 0.00859,-0.0063 0.011455,-0.02921 0.00344,-0.023482 0.00344,-0.084193 0,-0.018328 -0.00515,-0.025773 -0.00458,-0.00802 -0.010882,-0.012028 -0.00115,-5.727e-4 -0.00286,-0.00115 -0.00115,-0.00115 -0.00229,-0.00172 -0.00458,-0.00286 -0.00802,-0.0063 -0.00286,-0.00344 -0.00286,-0.010309 0,-0.013173 0.021764,-0.0252 0.022337,-0.012027 0.048683,-0.020046 0.020619,-0.00687 0.038946,-0.010309 0.0189,-0.00401 0.026919,-0.00401 0.00802,0 0.013746,0.0063 0.00573,0.00573 0.00573,0.014318 0,5.728e-4 0,0.00229 0,0.00172 -5.727e-4,0.00458 0,0.00115 0,0.00286 0,0.00115 0,0.00229 5.727e-4,0.00458 0.00286,0.00859 0.00229,0.00401 0.00802,0.00401 0.00458,0 0.010309,-0.00687 0.00573,-0.00745 0.014891,-0.016037 0.00916,-0.00859 0.022909,-0.015464 0.014318,-0.00745 0.036083,-0.00745 0.017182,0 0.032646,0.00515 0.016037,0.00458 0.028064,0.013746 5.729e-4,0 5.729e-4,5.727e-4 5.729e-4,0 5.729e-4,5.728e-4 0.017182,0.013173 0.023482,0.030355 0.00687,0.017182 0.00859,0.051546 z M 1.1321584,1.1638776 q 0.060138,5.727e-4 0.1088201,0.037801 0.048683,0.037228 0.048683,0.1019474 0,0.062428 -0.052119,0.104811 -0.052119,0.04181 -0.1282932,0.04181 -0.062428,0 -0.1042383,-0.036655 -0.041237,-0.037228 -0.041237,-0.092784 0,-0.067583 0.046392,-0.1105384 0.046964,-0.043528 0.1219932,-0.045819 z m -0.018328,0.064719 q -0.011455,0.00115 -0.018328,0.010309 -0.00687,0.00859 -0.00687,0.023482 0,0.00974 0.00229,0.024628 0.00229,0.014891 0.0063,0.030928 0.00229,0.010882 0.00573,0.021764 0.00344,0.010309 0.00687,0.019473 0.00458,0.011455 0.011455,0.017182 0.00687,0.00573 0.016609,0.00573 0.013173,0 0.0189,-0.00802 0.0063,-0.00859 0.0063,-0.026919 0,-0.011455 -0.00229,-0.025773 -0.00172,-0.014318 -0.00573,-0.02921 -0.00286,-0.011455 -0.0063,-0.022337 -0.00344,-0.011455 -0.00745,-0.021191 -0.00401,-0.00859 -0.010882,-0.013746 -0.00687,-0.00573 -0.016609,-0.00573 z M 0.71234252,1.4450919 q -0.013173,-5.727e-4 -0.026346,-0.00115 -0.0126,0 -0.025773,-5.728e-4 -0.013173,0 -0.026346,-5.727e-4 -0.0126,0 -0.025773,0 -0.00745,0 -0.015464,5.727e-4 -0.00745,5.728e-4 -0.014891,0.00115 -0.00802,0 -0.015464,5.727e-4 -0.00745,5.728e-4 -0.015464,5.728e-4 -0.020046,0 -0.032073,-0.00802 -0.012028,-0.00802 -0.012028,-0.022337 0,-0.013173 0.00458,-0.016609 0.00515,-0.00344 0.011455,-0.00458 0.00172,-5.728e-4 0.00286,-5.728e-4 0.00172,-5.727e-4 0.00344,-0.00115 0.00745,-0.00229 0.014318,-0.010882 0.00687,-0.00859 0.00745,-0.03551 0.00172,-0.024055 0.00229,-0.047537 0.00115,-0.024055 0.00172,-0.047537 5.727e-4,-0.023482 5.727e-4,-0.046965 5.728e-4,-0.024055 5.728e-4,-0.04811 0,-0.024055 -0.00344,-0.031501 -0.00344,-0.00802 -0.016037,-0.0126 -5.727e-4,0 -0.00115,0 0,-5.727e-4 0,-5.727e-4 -0.00916,-0.00344 -0.014318,-0.00974 -0.00515,-0.0063 -0.00515,-0.014891 0,-0.014318 0.013173,-0.021764 0.013173,-0.00745 0.037801,-0.00745 0.0063,0 0.0126,5.728e-4 0.0063,0 0.013173,0 0.0063,0 0.0126,5.727e-4 0.0063,0 0.0126,0 0.014318,0 0.028637,-5.727e-4 0.014318,-5.728e-4 0.028637,-0.00115 0.014318,-5.728e-4 0.028637,-0.00115 0.014318,-5.727e-4 0.028637,-5.727e-4 0.052119,0 0.084765,0.00859 0.033219,0.00859 0.059565,0.028637 0.033792,0.0252 0.050974,0.065865 0.017755,0.040092 0.017755,0.091065 0,0.088202 -0.053837,0.1426118 -0.053265,0.05441 -0.1386025,0.05441 -0.00458,0 -0.00916,0 -0.00458,0 -0.00916,-5.727e-4 -0.00458,0 -0.00916,-5.729e-4 -0.00458,0 -0.00916,0 z M 0.68256012,1.1398226 v 0.216495 q 0,0.018328 0.00745,0.025773 0.00745,0.00745 0.026346,0.00745 0.038946,0 0.059565,-0.030928 0.021191,-0.030928 0.021191,-0.08992 0,-0.078465 -0.021764,-0.1151203 -0.021764,-0.036655 -0.068156,-0.036655 -0.013746,0 -0.019473,0.00515 -0.00515,0.00515 -0.00515,0.018328 z" />
    <path
       id="rect4946-8-3-1-52-1"
       style="opacity:0.928105;fill:none;fill-opacity:1;stroke:#008000;stroke-width:0.0019685;stroke-miterlimit:4;stroke-dasharray:none;stroke-opacity:1"
       d="m 9.4411401,1.0550678 h 0.369103 v 0.4300708 h -0.369103 z m -0.389029,0 h 0.38706 v 0.4300708 h -0.38706 z m -0.339647,0 h 0.337679 v 0.4300708 h -0.337679 z m -0.3935175,0 H 8.7104951 V 1.4851386 H 8.3189466 Z m -0.4833011,0 H 8.3169783 V 1.4851386 H 7.8356455 Z m -3.0285588,0 H 5.2655399 V 1.4851386 H 4.8070867 Z m 2.6013729,0 H 7.8336775 V 1.577167 H 7.4084596 Z m -0.4451429,0 H 7.4064913 V 1.4851386 H 6.9633167 Z m -0.3710717,0 H 6.9613479 V 1.4851386 H 6.592245 Z m -0.5917101,0 H 6.5902778 V 1.4851386 H 6.0005349 Z m -0.3856602,0 H 5.9985654 V 1.4851386 H 5.6148747 Z m -0.3473664,0 H 5.6129062 V 1.4851386 H 5.2675083 Z m 4.4381768,0.2894296 h -0.131157 q -0.0046,5.728e-4 -0.0069,0.00229 -0.0017,0.00172 -0.0017,0.00573 0,0.017182 0.01375,0.029782 0.01375,0.0126 0.02978,0.017755 0.0046,0.00115 0.0092,0.00229 0.0052,5.728e-4 0.0092,5.728e-4 0.0052,0 0.01088,-5.728e-4 0.0063,-0.00115 0.0126,-0.00286 0.0092,-0.00229 0.01775,-0.00573 0.0092,-0.00401 0.01546,-0.00859 0.0046,-0.00286 0.0069,-0.00401 0.0023,-0.00172 0.0046,-0.00229 5.73e-4,-5.727e-4 0.0012,-5.727e-4 0.0011,0 0.0023,0 0.0069,0 0.01203,0.00573 0.0051,0.00573 0.008,0.0126 5.73e-4,0.00286 0.0012,0.00515 5.73e-4,0.00229 5.73e-4,0.00458 0,0.00974 -0.0063,0.019473 -0.0063,0.00916 -0.0189,0.0189 -0.02234,0.016609 -0.04868,0.024628 -0.02577,0.00802 -0.05613,0.00802 -0.06071,0 -0.103093,-0.039519 -0.04181,-0.040092 -0.04181,-0.097365 0,-0.062428 0.04353,-0.1053838 0.04353,-0.043528 0.105956,-0.043528 0.02864,0 0.05155,0.00745 0.02348,0.00745 0.04238,0.022909 0.01317,0.010309 0.02291,0.024628 0.0097,0.013746 0.01489,0.028064 0.0023,0.00745 0.0034,0.014318 0.0017,0.00687 0.0017,0.013173 0,0.019473 -0.0075,0.031501 -0.0069,0.011455 -0.01947,0.011455 z m -0.124285,-0.052119 h 0.02864 q 0.0092,5.728e-4 0.01317,-0.00344 0.0046,-0.00401 0.0046,-0.0126 0,-0.014891 -0.0086,-0.024628 -0.0086,-0.00974 -0.02234,-0.00974 -0.01317,0 -0.02348,0.010882 -0.0097,0.010309 -0.0097,0.024628 0,0.00859 0.004,0.012027 0.004,0.00344 0.01375,0.00344 z m -0.179266,0.00229 0.004,0.097938 q 0,0.00802 0.0023,0.014318 0.0023,0.0063 0.0063,0.010882 0.0011,0.00115 0.0017,0.00229 0.0011,5.728e-4 0.0023,0.00172 0,0 0,0 0,0 5.73e-4,5.728e-4 0.004,0.00401 0.0075,0.00916 0.004,0.00458 0.004,0.011455 0,0.0189 -0.02234,0.025773 -0.02176,0.00687 -0.08133,0.00687 -0.03551,0 -0.05212,-0.0063 -0.01604,-0.00687 -0.01604,-0.022337 0,-0.00515 0.0023,-0.00916 0.0023,-0.00401 0.0057,-0.00745 5.73e-4,-5.728e-4 0.0012,-0.00115 5.73e-4,-5.728e-4 0.0011,-0.00114 5.73e-4,-5.728e-4 0.0012,-0.00115 5.73e-4,-0.00114 0.0011,-0.00172 0.0052,-0.00516 0.008,-0.025773 0.0034,-0.020619 0.0034,-0.050974 0,-0.039519 -0.0086,-0.056128 -0.008,-0.017182 -0.02806,-0.017182 -0.01776,0 -0.0252,0.012027 -0.0069,0.012027 -0.0069,0.043528 v 0.054983 q 0,0.012027 0.0012,0.0189 0.0011,0.00687 0.0052,0.013173 0,5.728e-4 5.72e-4,0.00172 5.73e-4,5.728e-4 0.0011,0.00114 5.73e-4,0.00115 0.0012,0.00229 0.0011,0.00115 0.0017,0.00229 0.0034,0.00401 0.0057,0.00859 0.0023,0.00458 0.0023,0.00974 0,0.016609 -0.02291,0.024628 -0.02234,0.00745 -0.07102,0.00745 -0.03895,0 -0.05842,-0.00745 -0.01947,-0.00745 -0.01947,-0.022909 0,-0.00458 0,-0.00687 5.73e-4,-0.00286 0.0023,-0.00516 0.0017,-0.00172 0.004,-0.00401 0.0029,-0.00229 0.0074,-0.00515 0.0086,-0.0063 0.01145,-0.02921 0.0034,-0.023482 0.0034,-0.084192 0,-0.018328 -0.0052,-0.025773 -0.0046,-0.00802 -0.01088,-0.012027 -0.0011,-5.728e-4 -0.0029,-0.00115 -0.0011,-0.00115 -0.0023,-0.00172 -0.0046,-0.00286 -0.008,-0.0063 -0.0029,-0.00344 -0.0029,-0.010309 0,-0.013173 0.02176,-0.0252 0.02234,-0.012027 0.04868,-0.020046 0.02062,-0.00687 0.03895,-0.010309 0.0189,-0.00401 0.02692,-0.00401 0.008,0 0.01375,0.0063 0.0057,0.00573 0.0057,0.014318 0,5.728e-4 0,0.00229 0,0.00172 -5.72e-4,0.00458 0,0.00114 0,0.00286 0,0.00115 0,0.00229 5.72e-4,0.00458 0.0029,0.00859 0.0023,0.00401 0.008,0.00401 0.0046,0 0.01031,-0.00687 0.0057,-0.00745 0.01489,-0.016037 0.0092,-0.00859 0.02291,-0.015464 0.01432,-0.00745 0.03608,-0.00745 0.01718,0 0.03265,0.00515 0.01604,0.00458 0.02806,0.013746 5.73e-4,0 5.73e-4,5.728e-4 5.72e-4,0 5.72e-4,5.727e-4 0.01718,0.013173 0.02348,0.030355 0.0069,0.017182 0.0086,0.051546 z M 8.8849521,1.1910036 q 0.06014,5.728e-4 0.10882,0.037801 0.04868,0.037228 0.04868,0.1019474 0,0.062428 -0.05212,0.104811 -0.05212,0.04181 -0.128293,0.04181 -0.06243,0 -0.104239,-0.036655 -0.04124,-0.037228 -0.04124,-0.092784 0,-0.067583 0.04639,-0.1105384 0.04697,-0.043528 0.121994,-0.045819 z m -0.01833,0.064719 q -0.01146,0.00115 -0.01833,0.010309 -0.0069,0.00859 -0.0069,0.023482 0,0.00974 0.0023,0.024628 0.0023,0.014891 0.0063,0.030928 0.0023,0.010882 0.0057,0.021764 0.0034,0.010309 0.0069,0.019473 0.0046,0.011455 0.01145,0.017182 0.0069,0.00573 0.01661,0.00573 0.01317,0 0.0189,-0.00802 0.0063,-0.00859 0.0063,-0.026919 0,-0.011455 -0.0023,-0.025773 -0.0017,-0.014318 -0.0057,-0.02921 -0.0029,-0.011455 -0.0063,-0.022337 -0.0034,-0.011455 -0.0075,-0.021191 -0.004,-0.00859 -0.01088,-0.013746 -0.0069,-0.00573 -0.01661,-0.00573 z M 8.4811699,1.3719884 q 0,0.00344 0,0.0063 5.729e-4,0.00286 5.729e-4,0.0063 0,0.00114 0,0.00286 0,0.00172 0,0.00344 0,0.00916 0.0017,0.017755 0.0017,0.00859 0.008,0.015464 5.729e-4,5.728e-4 0.0012,0.00172 5.729e-4,5.728e-4 0.0011,0.00115 0,0 0,0 5.729e-4,0 5.729e-4,0 0.0029,0.00401 0.0057,0.00859 0.0029,0.00401 0.0029,0.00916 0,0.016037 -0.02119,0.023482 -0.02062,0.00745 -0.06186,0.00745 -0.04811,0 -0.07217,-0.00802 -0.02348,-0.00802 -0.02348,-0.024055 0,-0.00802 0.0046,-0.0126 0.0052,-0.00515 0.01088,-0.00974 0,0 0,0 5.729e-4,0 5.729e-4,0 5.729e-4,-5.727e-4 0.0012,-5.727e-4 5.729e-4,-5.727e-4 0.0011,-0.00114 0.0086,-0.0063 0.0126,-0.027491 0.0046,-0.021191 0.0052,-0.063574 5.729e-4,-0.024628 5.729e-4,-0.034937 5.73e-4,-0.010882 5.73e-4,-0.0189 0,-0.00114 0,-0.00286 0,-0.00172 0,-0.00344 0,-0.064147 -0.0029,-0.080756 -0.0029,-0.016609 -0.01604,-0.022909 -0.0092,-0.00458 -0.01317,-0.00974 -0.004,-0.00516 -0.004,-0.011455 0,-0.016037 0.02291,-0.026919 0.02348,-0.011455 0.05097,-0.018328 0.02176,-0.00458 0.04066,-0.00687 0.01947,-0.00286 0.02806,-0.00286 0.0097,0 0.01317,0.00286 0.0034,0.00286 0.0034,0.010882 l -0.0034,0.1168386 q 0,0.010882 0.0034,0.016609 0.0034,0.00516 0.0097,0.00516 0.0046,0 0.01031,-0.00745 0.0063,-0.00802 0.01546,-0.017182 0.0097,-0.00916 0.02348,-0.016609 0.01432,-0.00802 0.03551,-0.00802 0.02119,0 0.04009,0.00745 0.01947,0.00745 0.03093,0.020046 0.0126,0.0126 0.01718,0.028637 0.0046,0.016037 0.0052,0.046965 l 0.0023,0.1008019 q 5.72e-4,0.010309 0.0029,0.017755 0.0029,0.00687 0.0074,0.010882 0.0012,5.727e-4 0.0017,0.00172 0.0012,5.727e-4 0.0017,0.00115 0.0052,0.00344 0.0092,0.00859 0.004,0.00458 0.004,0.010882 0,0.014891 -0.02234,0.022337 -0.02234,0.00687 -0.06758,0.00687 -0.04124,0 -0.06186,-0.0063 -0.02062,-0.00687 -0.02062,-0.020619 0,-0.00515 0.0023,-0.00916 0.0023,-0.00401 0.0057,-0.00802 0,-5.727e-4 0,-5.727e-4 0,0 0,0 5.718e-4,-0.00115 0.0012,-0.00172 0.0011,-0.00115 0.0017,-0.00229 0.0063,-0.00802 0.0092,-0.0252 0.0029,-0.017755 0.0029,-0.050401 0,-0.042955 -0.0097,-0.06071 -0.0092,-0.018328 -0.03093,-0.018328 -0.01604,0 -0.02348,0.010882 -0.0069,0.010309 -0.0069,0.03551 v 0.05325 z M 7.9846088,1.3381973 V 1.1910036 q 0,-0.026346 -0.0034,-0.034364 -0.0034,-0.00859 -0.01833,-0.0126 -0.0012,-5.727e-4 -0.0023,-5.727e-4 -5.729e-4,-5.728e-4 -0.0011,-5.728e-4 -0.0126,-0.00344 -0.0189,-0.00974 -0.0063,-0.0063 -0.0063,-0.014891 0,-0.013173 0.01031,-0.020046 0.01088,-0.00687 0.0315,-0.00687 0.004,0 0.008,5.728e-4 0.0046,0 0.0086,0 0.004,0 0.008,5.727e-4 0.0046,0 0.0086,0 0.01947,0 0.03895,-0.00115 0.01947,-0.00114 0.03952,-0.00286 0.01947,-0.00115 0.03895,-0.00229 0.01947,-0.00115 0.03895,-0.00115 0.06472,0 0.1048111,0.033219 0.04066,0.033219 0.04066,0.087056 0,0.055556 -0.04066,0.090493 -0.04009,0.034937 -0.103665,0.034937 -0.0063,0 -0.0126,-5.727e-4 -0.0057,-5.727e-4 -0.01203,-0.00115 -0.0063,0 -0.0126,-5.727e-4 -0.0057,-5.727e-4 -0.01203,-5.727e-4 -0.0046,0 -0.0069,0.00229 -0.0017,0.00172 -0.0017,0.00687 0,0.00573 0,0.012027 5.729e-4,0.00573 5.729e-4,0.011455 0,0.00229 0,0.00458 5.729e-4,0.00172 5.729e-4,0.00344 0,0.00401 0,0.00802 5.729e-4,0.00401 5.729e-4,0.00802 5.729e-4,0.010309 0.0029,0.016609 0.0029,0.00573 0.0092,0.010882 0.0023,0.00114 0.0046,0.00286 0.0029,0.00172 0.0063,0.00344 0.0034,0.00172 0.0057,0.00344 0.0029,0.00172 0.0046,0.00344 0.004,0.00286 0.0057,0.0063 0.0017,0.00344 0.0017,0.00745 0,0.018328 -0.02692,0.027491 -0.02635,0.00916 -0.07904,0.00916 -0.04868,0 -0.07446,-0.00859 -0.02577,-0.00916 -0.02577,-0.026346 0,-0.0063 0.004,-0.011455 0.004,-0.00515 0.01145,-0.00916 0.0034,-0.00172 0.0063,-0.00344 0.0029,-0.00172 0.0046,-0.00286 0.0097,-0.00687 0.01145,-0.014891 0.0017,-0.00802 0.0017,-0.021191 0,-0.00229 0,-0.00401 0,-0.00229 0,-0.00458 v -0.030927 z m 0.126003,-0.1827034 v 0.095074 q 0,0.010309 0.0051,0.014318 0.0052,0.00344 0.01947,0.00344 0.02348,0 0.03665,-0.016037 0.01375,-0.016037 0.01375,-0.044101 0,-0.02921 -0.01489,-0.045819 -0.01432,-0.017182 -0.03952,-0.017182 -0.0097,0 -0.01546,0.00286 -0.0051,0.00286 -0.0051,0.00802 z m -0.42039,0.1735396 -0.03723,0.1013746 q -0.0189,0.052692 -0.05155,0.095074 -0.03265,0.042383 -0.09622,0.042383 -0.03723,0 -0.06128,-0.018328 -0.02406,-0.018328 -0.02406,-0.046964 0,-0.021191 0.01375,-0.03551 0.01432,-0.014318 0.03436,-0.014318 0.01833,0 0.02692,0.00916 0.0086,0.00859 0.01375,0.019473 0.0012,0.00344 0.0023,0.00687 0.0017,0.00344 0.0029,0.00687 0.0029,0.0063 0.0057,0.010309 0.0029,0.00458 0.0075,0.00458 0.0092,0 0.01489,-0.00745 0.0063,-0.00745 0.0063,-0.0189 0,-5.727e-4 0,-0.00115 0,0 0,0 0,-0.00745 -0.0034,-0.016037 -0.0034,-0.00916 -0.01146,-0.026346 l -0.06701,-0.1437572 q -0.0074,-0.016037 -0.01375,-0.024055 -0.0063,-0.00859 -0.0126,-0.011455 -0.0017,-5.727e-4 -0.0034,-0.00115 -0.0011,-5.727e-4 -0.0023,-0.00172 -0.008,-0.00344 -0.01489,-0.00859 -0.0063,-0.00573 -0.0063,-0.015464 0,-0.014891 0.01546,-0.023482 0.01546,-0.00916 0.04868,-0.013173 0.0057,-5.727e-4 0.01145,-0.00115 0.0057,-5.727e-4 0.01145,-0.00114 0.0097,-5.727e-4 0.0189,-5.727e-4 0.0097,-5.727e-4 0.01776,-5.727e-4 0.03608,0 0.05326,0.00859 0.01718,0.00802 0.01718,0.026346 0,0.00401 -0.0017,0.00802 -0.0017,0.00344 -0.004,0.00687 0,0 -5.73e-4,5.727e-4 0,0 0,0 -0.0023,0.00344 -0.0046,0.00745 -0.0017,0.00401 -0.0017,0.00859 0,0.00401 0.0023,0.011455 0.0029,0.00745 0.0063,0.016037 0.0034,0.00687 0.0075,0.013746 0.004,0.0063 0.008,0.010882 0.0029,0.00229 0.0052,0.00401 0.0029,0.00172 0.0051,0.00172 0.0075,0 0.0126,-0.00802 0.0052,-0.00802 0.0086,-0.017755 0.0029,-0.00802 0.004,-0.014891 0.0017,-0.00745 0.0017,-0.00974 0,-0.00802 -0.0029,-0.013173 -0.0023,-0.00515 -0.0057,-0.00916 -5.729e-4,-5.727e-4 -0.0012,-0.00115 0,-5.727e-4 -5.729e-4,-0.00114 -0.0029,-0.00401 -0.0052,-0.00802 -0.0017,-0.00401 -0.0017,-0.00974 0,-0.014318 0.01833,-0.022909 0.0189,-0.00859 0.04983,-0.00859 0.03035,0 0.04525,0.00745 0.01546,0.00687 0.01546,0.021764 0,0.00859 -0.004,0.013746 -0.004,0.00516 -0.01375,0.00974 -0.0023,0.00114 -0.0052,0.00229 -0.0023,0.00115 -0.0052,0.00229 -0.0069,0.00229 -0.0126,0.00687 -0.0052,0.00401 -0.01031,0.012027 -0.0057,0.00859 -0.01203,0.02291 -0.0063,0.014318 -0.01432,0.036655 z m -0.4799536,-0.1151204 -5.729e-4,0.00573 q 0,0.00286 0.00115,0.00458 0.00115,0.00172 0.00286,0.00172 0.00115,0 0.00859,-0.00516 0.00745,-0.00573 0.0189,-0.012027 0.010882,-0.00573 0.023482,-0.010882 0.013173,-0.00515 0.026346,-0.0063 0.00115,0 0.00229,0 0.00172,0 0.00286,0 0.045819,0 0.076174,0.034937 0.03093,0.034364 0.03093,0.085911 0,0.072165 -0.046964,0.1185568 -0.046965,0.046392 -0.1197022,0.046392 -0.019473,0 -0.038373,-0.00515 -0.018328,-0.00516 -0.033219,-0.012027 -0.014891,-0.00687 -0.024628,-0.012028 -0.00916,-0.00573 -0.010309,-0.00573 -0.00401,0 -0.00802,0.00114 -0.00344,5.728e-4 -0.00687,0.00229 -5.73e-4,0 -0.00115,5.728e-4 -5.73e-4,0 -0.00115,0 -0.00458,0.00172 -0.00916,0.00286 -0.00401,0.00115 -0.00859,0.00115 -0.00859,0 -0.0126,-0.00286 -0.00401,-0.00286 -0.00401,-0.00859 0,-0.00516 0.00115,-0.010309 0.00115,-0.00573 0.00286,-0.011455 0.00115,-0.00515 0.00229,-0.010882 0.00172,-0.00573 0.00172,-0.011455 0.00115,-0.023482 0.00172,-0.046965 0.00115,-0.023482 0.00115,-0.046965 v -0.077892 q 0,-0.026346 -0.00229,-0.033791 -0.00172,-0.00802 -0.010309,-0.012027 -5.729e-4,-5.728e-4 -0.00115,-5.728e-4 -5.729e-4,-5.728e-4 -0.00115,-5.728e-4 -0.00286,-0.00114 -0.00515,-0.00229 -0.00229,-0.00115 -0.00401,-0.00229 -0.00916,-0.00458 -0.0126,-0.00974 -0.00344,-0.00515 -0.00344,-0.0126 0,-0.017755 0.024055,-0.029782 0.024628,-0.0126 0.053837,-0.020046 0.021764,-0.00573 0.04181,-0.00802 0.020046,-0.00286 0.029782,-0.00286 0.00802,0 0.010882,0.00401 0.00344,0.00344 0.00344,0.0126 l -0.00286,0.1088202 z m 0,0.1076748 0.00115,0.041237 q 0.00115,0.038946 0.0063,0.052119 0.00573,0.013173 0.021191,0.013173 0.020046,0 0.030928,-0.017182 0.010882,-0.017755 0.010882,-0.050401 0,-0.039519 -0.012028,-0.061856 -0.012028,-0.022909 -0.032073,-0.022909 -0.014891,0 -0.020046,0.010309 -0.00515,0.010309 -0.00573,0.022909 -5.729e-4,0.00344 -5.729e-4,0.00687 0,0.00286 0,0.0063 z m -0.3533786,0.02291 H 6.7257327 q -0.00458,5.728e-4 -0.00687,0.00229 -0.00172,0.00172 -0.00172,0.00573 0,0.017182 0.013746,0.029782 0.013746,0.0126 0.029782,0.017755 0.00458,0.00115 0.00916,0.00229 0.00515,5.728e-4 0.00916,5.728e-4 0.00515,0 0.010882,-5.728e-4 0.0063,-0.00115 0.0126,-0.00286 0.00916,-0.00229 0.017755,-0.00573 0.00916,-0.00401 0.015464,-0.00859 0.00458,-0.00286 0.00687,-0.00401 0.00229,-0.00172 0.00458,-0.00229 5.73e-4,-5.727e-4 0.00115,-5.727e-4 0.00115,0 0.00229,0 0.00687,0 0.012027,0.00573 0.00515,0.00573 0.00802,0.0126 5.729e-4,0.00286 0.00115,0.00515 5.729e-4,0.00229 5.729e-4,0.00458 0,0.00974 -0.0063,0.019473 -0.0063,0.00916 -0.0189,0.0189 -0.022337,0.016609 -0.048683,0.024628 -0.025773,0.00802 -0.056128,0.00802 -0.06071,0 -0.1030927,-0.039519 -0.04181,-0.040092 -0.04181,-0.097365 0,-0.062428 0.043528,-0.1053838 0.043528,-0.043528 0.1059567,-0.043528 0.028637,0 0.051546,0.00745 0.023482,0.00745 0.042383,0.022909 0.013173,0.010309 0.022909,0.024628 0.00974,0.013746 0.014891,0.028064 0.00229,0.00745 0.00344,0.014318 0.00172,0.00687 0.00172,0.013173 0,0.019473 -0.00745,0.031501 -0.00687,0.011455 -0.019473,0.011455 z m -0.1242842,-0.05212 h 0.028637 q 0.00916,5.727e-4 0.013173,-0.00344 0.00458,-0.00401 0.00458,-0.0126 0,-0.014891 -0.00859,-0.024628 -0.00859,-0.00974 -0.022337,-0.00974 -0.013173,0 -0.023482,0.010882 -0.00974,0.010309 -0.00974,0.024628 0,0.00859 0.00401,0.012027 0.00401,0.00344 0.013746,0.00344 z M 6.4989287,1.2643141 v 0.094502 q 0,0.017182 0.00802,0.028064 0.00859,0.010882 0.021191,0.010882 0.010882,0 0.015464,-0.00172 0.00515,-0.00229 0.00802,-0.00458 5.729e-4,-5.727e-4 0.00115,-0.00114 5.729e-4,-5.727e-4 0.00115,-5.727e-4 0.00172,-0.00229 0.00401,-0.00344 0.00286,-0.00115 0.00745,-0.00115 0.0063,0 0.010309,0.00516 0.00458,0.00515 0.0063,0.011455 0.00115,0.00229 0.00115,0.00458 5.729e-4,0.00229 5.729e-4,0.00458 0,0.021764 -0.021191,0.036655 -0.020619,0.014318 -0.045819,0.021764 -0.013746,0.00401 -0.026919,0.00573 -0.013173,0.00229 -0.022909,0.00229 -0.043528,0 -0.070447,-0.025201 -0.026919,-0.0252 -0.026919,-0.066438 V 1.2562957 q 0,-0.00573 -0.00172,-0.00745 -0.00172,-0.00172 -0.00802,-0.00172 L 6.3311346,1.246553 q -0.00802,5.727e-4 -0.00974,-0.00229 -0.00229,-0.00286 -0.00229,-0.012028 L 6.3185317,1.219062 q 5.729e-4,0 5.729e-4,-5.727e-4 0,-5.727e-4 0,-0.00115 5.729e-4,-0.00286 0.00229,-0.00573 0.00115,-0.00286 0.00344,-0.00401 l 0.128293,-0.081329 q 0.00229,-5.728e-4 0.00458,-0.00115 0.00286,-5.728e-4 0.00687,-5.728e-4 l 0.022909,-5.727e-4 q 0.00687,5.727e-4 0.00916,0.00401 0.00229,0.00286 0.00229,0.012027 v 0.037801 q 0,0.00859 0.00229,0.011455 0.00286,0.00229 0.012027,0.00229 l 0.051546,-5.727e-4 q 0.010309,5.727e-4 0.013173,0.00458 0.00344,0.00344 0.00344,0.016037 v 0.016037 q 0,0.013746 -0.00401,0.0189 -0.00401,0.00516 -0.014318,0.00516 l -0.050401,-5.727e-4 q -0.00745,5.727e-4 -0.010882,0.00344 -0.00286,0.00229 -0.00286,0.010309 z m -0.2159219,0.031501 q 0,0.00515 0,0.010309 0,0.00458 0,0.00916 -5.729e-4,0.00458 -5.729e-4,0.00974 0,0.00458 0,0.00916 0,0.034937 0.00401,0.049828 0.00458,0.014891 0.013746,0.016609 0.0063,5.728e-4 0.010309,0.00286 0.00458,0.00229 0.00458,0.00974 0,0.021764 -0.017755,0.037801 -0.017182,0.016037 -0.038373,0.021764 -0.00687,0.00229 -0.013746,0.00344 -0.0063,0.00115 -0.012027,0.00115 -0.014318,0 -0.023482,-0.00401 -0.00916,-0.00401 -0.014891,-0.00916 -0.00515,-0.00401 -0.00859,-0.00745 -0.00344,-0.00344 -0.00687,-0.00516 -0.00115,-5.727e-4 -0.00229,-5.727e-4 -5.729e-4,-5.727e-4 -0.00172,-5.727e-4 -0.00344,0 -0.010309,0.00458 -0.00687,0.00401 -0.017182,0.00916 -0.00974,0.00515 -0.022337,0.00916 -0.0126,0.00401 -0.028064,0.00401 -0.040092,0 -0.065865,-0.020619 -0.025773,-0.020619 -0.025773,-0.053265 0,-0.041237 0.029782,-0.06071 0.029782,-0.020046 0.065865,-0.026346 0.00916,-0.00114 0.018328,-0.00172 0.00974,-0.00115 0.0189,-0.00115 0.016609,-5.727e-4 0.020619,-0.00344 0.00401,-0.00286 0.00401,-0.015464 0,-0.028637 -0.0063,-0.04181 -0.0063,-0.013746 -0.019473,-0.013746 -0.00974,0 -0.017182,0.0063 -0.00687,0.0063 -0.013746,0.014891 -0.00115,0.00172 -0.00286,0.00401 -0.00172,0.00229 -0.00344,0.00401 -0.00859,0.011455 -0.0189,0.020619 -0.010309,0.00916 -0.026346,0.00916 -0.013746,0 -0.022909,-0.00802 -0.00916,-0.00802 -0.00916,-0.019473 0,-0.025773 0.024628,-0.042383 0.0252,-0.017182 0.054983,-0.026346 0.016609,-0.00516 0.032646,-0.00745 0.016609,-0.00286 0.028064,-0.00286 0.028064,0 0.049255,0.0063 0.021764,0.00573 0.038374,0.018328 5.729e-4,5.727e-4 5.729e-4,0.00114 5.729e-4,0 0.00115,0 0.017755,0.013746 0.024055,0.030355 0.0063,0.016037 0.0063,0.048683 z m -0.1638031,0.091638 q 0,0.013173 0.0063,0.021764 0.00687,0.00859 0.017182,0.00859 0.011455,0 0.016609,-0.00916 0.00573,-0.00974 0.00573,-0.02921 0,-0.014891 -0.00344,-0.020619 -0.00286,-0.00573 -0.012028,-0.00573 -0.0126,0 -0.021764,0.010309 -0.00859,0.010309 -0.00859,0.024628 z m -0.1557844,-0.092784 0.00401,0.097938 q 0,0.00802 0.00229,0.014318 0.00229,0.0063 0.0063,0.010882 0.00115,0.00115 0.00172,0.00229 0.00115,5.728e-4 0.00229,0.00172 0,0 0,0 0,0 5.73e-4,5.728e-4 0.00401,0.00401 0.00745,0.00916 0.00401,0.00458 0.00401,0.011455 0,0.0189 -0.022337,0.025773 -0.021764,0.00687 -0.081329,0.00687 -0.03551,0 -0.052119,-0.0063 -0.016037,-0.00687 -0.016037,-0.022337 0,-0.00515 0.00229,-0.00916 0.00229,-0.00401 0.00573,-0.00745 5.729e-4,-5.728e-4 0.00115,-0.00115 5.729e-4,-5.728e-4 0.00115,-0.00114 5.729e-4,-5.728e-4 0.00115,-0.00115 5.729e-4,-0.00114 0.00115,-0.00172 0.00515,-0.00516 0.00802,-0.025773 0.00344,-0.020619 0.00344,-0.050974 0,-0.039519 -0.00859,-0.056128 -0.00802,-0.017182 -0.028064,-0.017182 -0.017755,0 -0.0252,0.012027 -0.00687,0.012027 -0.00687,0.043528 v 0.054983 q 0,0.012027 0.00115,0.0189 0.00115,0.00687 0.00515,0.013173 0,5.727e-4 5.729e-4,0.00172 5.73e-4,5.727e-4 0.00115,0.00114 5.73e-4,0.00115 0.00115,0.00229 0.00115,0.00115 0.00172,0.00229 0.00344,0.00401 0.00573,0.00859 0.00229,0.00458 0.00229,0.00974 0,0.016609 -0.02291,0.024628 -0.022337,0.00745 -0.07102,0.00745 -0.038946,0 -0.058419,-0.00745 -0.019473,-0.00745 -0.019473,-0.022909 0,-0.00458 0,-0.00687 5.729e-4,-0.00286 0.00229,-0.00516 0.00172,-0.00172 0.00401,-0.00401 0.00286,-0.00229 0.00745,-0.00515 0.00859,-0.0063 0.011455,-0.02921 0.00344,-0.023482 0.00344,-0.084192 0,-0.018328 -0.00515,-0.025773 -0.00458,-0.00802 -0.010882,-0.012027 -0.00115,-5.728e-4 -0.00286,-0.00115 -0.00115,-0.00115 -0.00229,-0.00172 -0.00458,-0.00286 -0.00802,-0.0063 -0.00286,-0.00344 -0.00286,-0.010309 0,-0.013173 0.021764,-0.0252 0.022337,-0.012027 0.048683,-0.020046 0.020619,-0.00687 0.038946,-0.010309 0.0189,-0.00401 0.026919,-0.00401 0.00802,0 0.013746,0.0063 0.00573,0.00573 0.00573,0.014318 0,5.727e-4 0,0.00229 0,0.00172 -5.729e-4,0.00458 0,0.00114 0,0.00286 0,0.00115 0,0.00229 5.729e-4,0.00458 0.00286,0.00859 0.00229,0.00401 0.00802,0.00401 0.00458,0 0.010309,-0.00687 0.00573,-0.00745 0.014891,-0.016037 0.00916,-0.00859 0.02291,-0.015464 0.014318,-0.00745 0.036082,-0.00745 0.017182,0 0.032646,0.00515 0.016037,0.00458 0.028064,0.013746 5.729e-4,0 5.729e-4,5.727e-4 5.729e-4,0 5.729e-4,5.727e-4 0.017182,0.013173 0.023482,0.030355 0.00687,0.017182 0.00859,0.051546 z M 5.4462373,1.1910036 q 0.060137,5.728e-4 0.1088203,0.037801 0.048683,0.037228 0.048683,0.1019474 0,0.062428 -0.052119,0.104811 -0.052119,0.04181 -0.1282933,0.04181 -0.062428,0 -0.1042382,-0.036655 -0.041237,-0.037228 -0.041237,-0.092784 0,-0.067583 0.046392,-0.1105384 0.046965,-0.043528 0.121993,-0.045819 z m -0.018328,0.064719 q -0.011455,0.00115 -0.018328,0.010309 -0.00687,0.00859 -0.00687,0.023482 0,0.00974 0.00229,0.024628 0.00229,0.014891 0.0063,0.030928 0.00229,0.010882 0.00573,0.021764 0.00344,0.010309 0.00687,0.019473 0.00458,0.011455 0.011455,0.017182 0.00687,0.00573 0.016609,0.00573 0.013173,0 0.0189,-0.00802 0.0063,-0.00859 0.0063,-0.026919 0,-0.011455 -0.00229,-0.025773 -0.00172,-0.014318 -0.00573,-0.02921 -0.00286,-0.011455 -0.0063,-0.022337 -0.00344,-0.011455 -0.00745,-0.021191 -0.00401,-0.00859 -0.010882,-0.013746 -0.00687,-0.00573 -0.016609,-0.00573 z m -0.4014878,0.216495 q -0.013173,-5.727e-4 -0.026346,-0.00115 -0.0126,0 -0.025773,-5.727e-4 -0.013173,0 -0.026346,-5.727e-4 -0.0126,0 -0.025773,0 -0.00745,0 -0.015464,5.727e-4 -0.00745,5.727e-4 -0.014891,0.00114 -0.00802,0 -0.015464,5.727e-4 -0.00745,5.728e-4 -0.015464,5.728e-4 -0.020046,0 -0.032073,-0.00802 -0.012028,-0.00802 -0.012028,-0.022337 0,-0.013173 0.00458,-0.016609 0.00515,-0.00344 0.011455,-0.00458 0.00172,-5.728e-4 0.00286,-5.728e-4 0.00172,-5.727e-4 0.00344,-0.00114 0.00745,-0.00229 0.014318,-0.010882 0.00687,-0.00859 0.00745,-0.03551 0.00172,-0.024055 0.00229,-0.047537 0.00115,-0.024055 0.00172,-0.047537 5.729e-4,-0.023482 5.729e-4,-0.046964 5.729e-4,-0.024055 5.729e-4,-0.04811 0,-0.024055 -0.00344,-0.031501 -0.00344,-0.00802 -0.016037,-0.0126 -5.729e-4,0 -0.00115,0 0,-5.728e-4 0,-5.728e-4 -0.00916,-0.00344 -0.014318,-0.00974 -0.00515,-0.0063 -0.00515,-0.014891 0,-0.014318 0.013173,-0.021764 0.013173,-0.00745 0.037801,-0.00745 0.0063,0 0.0126,5.728e-4 0.0063,0 0.013173,0 0.0063,0 0.0126,5.727e-4 0.0063,0 0.0126,0 0.014318,0 0.028637,-5.727e-4 0.014319,-5.728e-4 0.028637,-0.00114 0.014319,-5.728e-4 0.028637,-0.00115 0.014318,-5.728e-4 0.028637,-5.728e-4 0.052119,0 0.084765,0.00859 0.033219,0.00859 0.059565,0.028637 0.033792,0.0252 0.050974,0.065865 0.017755,0.040092 0.017755,0.091065 0,0.088202 -0.053837,0.1426118 -0.053265,0.05441 -0.1386026,0.05441 -0.00458,0 -0.00916,0 -0.00458,0 -0.00916,-5.727e-4 -0.00458,0 -0.00916,-5.727e-4 -0.00458,0 -0.00916,0 z m -0.029782,-0.305269 v 0.216495 q 0,0.018328 0.00745,0.025773 0.00745,0.00745 0.026346,0.00745 0.038946,0 0.059565,-0.030928 0.021191,-0.030928 0.021191,-0.08992 0,-0.078465 -0.021764,-0.1151204 -0.021764,-0.036655 -0.068156,-0.036655 -0.013746,0 -0.019473,0.00515 -0.00515,0.00516 -0.00515,0.018328 z" />
  </g>
</svg>
