<?xml version="1.0" encoding="UTF-8" standalone="no"?>
<!-- Created with Inkscape (http://www.inkscape.org/) -->

<svg
   xmlns:dc="http://purl.org/dc/elements/1.1/"
   xmlns:cc="http://creativecommons.org/ns#"
   xmlns:rdf="http://www.w3.org/1999/02/22-rdf-syntax-ns#"
   xmlns:svg="http://www.w3.org/2000/svg"
   xmlns="http://www.w3.org/2000/svg"
   xmlns:sodipodi="http://sodipodi.sourceforge.net/DTD/sodipodi-0.dtd"
   xmlns:inkscape="http://www.inkscape.org/namespaces/inkscape"
   width="24in"
   height="18in"
   viewBox="0 0 609.60001 457.20001"
   version="1.1"
   id="svg4596"
   inkscape:version="0.92.4 (5da689c313, 2019-01-14)"
   sodipodi:docname="Donate Online w QR Code for Facebook-SAFE fundraiser page.svg">
  <defs
     id="defs4590" />
  <sodipodi:namedview
     id="base"
     pagecolor="#ffffff"
     bordercolor="#666666"
     borderopacity="1.0"
     inkscape:pageopacity="0.0"
     inkscape:pageshadow="2"
     inkscape:zoom="0.31723122"
     inkscape:cx="420.40864"
     inkscape:cy="560"
     inkscape:document-units="in"
     inkscape:current-layer="layer1"
     showgrid="false"
     inkscape:window-width="1920"
     inkscape:window-height="1017"
     inkscape:window-x="-8"
     inkscape:window-y="-8"
     inkscape:window-maximized="1"
     units="in" />
  <metadata
     id="metadata4593">
    <rdf:RDF>
      <cc:Work
         rdf:about="">
        <dc:format>image/svg+xml</dc:format>
        <dc:type
           rdf:resource="http://purl.org/dc/dcmitype/StillImage" />
        <dc:title></dc:title>
      </cc:Work>
    </rdf:RDF>
  </metadata>
  <g
     inkscape:label="Layer 1"
     inkscape:groupmode="layer"
     id="layer1"
     transform="translate(0,160.20002)">
    <path
       style="fill:#000000;stroke-width:4.89171982"
       d="M 1243.8457 498.2793 L 1243.8457 591.22266 L 1243.8457 684.16602 L 1336.7891 684.16602 L 1429.7305 684.16602 L 1429.7305 591.22266 L 1429.7305 498.2793 L 1336.7891 498.2793 L 1243.8457 498.2793 z M 1454.1895 498.2793 L 1454.1895 512.95508 L 1454.1895 527.63086 L 1468.8652 527.63086 L 1483.541 527.63086 L 1483.541 512.95508 L 1483.541 498.2793 L 1468.8652 498.2793 L 1454.1895 498.2793 z M 1483.541 527.63086 L 1483.541 539.85938 L 1483.541 552.08984 L 1468.8652 552.08984 L 1454.1895 552.08984 L 1454.1895 591.22266 L 1454.1895 630.35742 L 1468.8652 630.35742 L 1483.541 630.35742 L 1483.541 618.12695 L 1483.541 605.89844 L 1510.4453 605.89844 L 1537.3496 605.89844 L 1537.3496 578.99414 L 1537.3496 552.08984 L 1561.8086 552.08984 L 1586.2656 552.08984 L 1586.2656 525.18359 L 1586.2656 498.2793 L 1574.0371 498.2793 L 1561.8086 498.2793 L 1561.8086 512.95508 L 1561.8086 527.63086 L 1549.5781 527.63086 L 1537.3496 527.63086 L 1537.3496 512.95508 L 1537.3496 498.2793 L 1522.6738 498.2793 L 1507.998 498.2793 L 1507.998 512.95508 L 1507.998 527.63086 L 1495.7695 527.63086 L 1483.541 527.63086 z M 1586.2656 552.08984 L 1586.2656 564.31836 L 1586.2656 576.54688 L 1574.0371 576.54688 L 1561.8086 576.54688 L 1561.8086 591.22266 L 1561.8086 605.89844 L 1549.5781 605.89844 L 1537.3496 605.89844 L 1537.3496 618.12695 L 1537.3496 630.35742 L 1522.6738 630.35742 L 1507.998 630.35742 L 1507.998 696.39453 L 1507.998 762.43359 L 1495.7695 762.43359 L 1483.541 762.43359 L 1483.541 789.33789 L 1483.541 816.24219 L 1468.8652 816.24219 L 1454.1895 816.24219 L 1454.1895 843.14648 L 1454.1895 870.05078 L 1468.8652 870.05078 L 1483.541 870.05078 L 1483.541 882.2793 L 1483.541 894.50977 L 1495.7695 894.50977 L 1507.998 894.50977 L 1507.998 867.60547 L 1507.998 840.70117 L 1561.8086 840.70117 L 1615.6172 840.70117 L 1615.6172 816.24219 L 1615.6172 791.7832 L 1600.9414 791.7832 L 1586.2656 791.7832 L 1586.2656 764.87891 L 1586.2656 737.97461 L 1574.0371 737.97461 L 1561.8086 737.97461 L 1561.8086 750.20312 L 1561.8086 762.43359 L 1549.5781 762.43359 L 1537.3496 762.43359 L 1537.3496 750.20312 L 1537.3496 737.97461 L 1549.5781 737.97461 L 1561.8086 737.97461 L 1561.8086 723.29883 L 1561.8086 708.62305 L 1549.5781 708.62305 L 1537.3496 708.62305 L 1537.3496 684.16602 L 1537.3496 659.70703 L 1549.5781 659.70703 L 1561.8086 659.70703 L 1561.8086 645.03125 L 1561.8086 630.35742 L 1574.0371 630.35742 L 1586.2656 630.35742 L 1586.2656 618.12695 L 1586.2656 605.89844 L 1600.9414 605.89844 L 1615.6172 605.89844 L 1615.6172 591.22266 L 1615.6172 576.54688 L 1627.8457 576.54688 L 1640.0762 576.54688 L 1640.0762 564.31836 L 1640.0762 552.08984 L 1613.1699 552.08984 L 1586.2656 552.08984 z M 1586.2656 630.35742 L 1586.2656 645.03125 L 1586.2656 659.70703 L 1600.9414 659.70703 L 1615.6172 659.70703 L 1615.6172 684.16602 L 1615.6172 708.62305 L 1642.5215 708.62305 L 1669.4258 708.62305 L 1669.4258 696.39453 L 1669.4258 684.16602 L 1654.75 684.16602 L 1640.0762 684.16602 L 1640.0762 657.26172 L 1640.0762 630.35742 L 1613.1699 630.35742 L 1586.2656 630.35742 z M 1640.0762 630.35742 L 1654.75 630.35742 L 1669.4258 630.35742 L 1669.4258 618.12695 L 1669.4258 605.89844 L 1654.75 605.89844 L 1640.0762 605.89844 L 1640.0762 618.12695 L 1640.0762 630.35742 z M 1669.4258 605.89844 L 1693.8848 605.89844 L 1718.3418 605.89844 L 1718.3418 591.22266 L 1718.3418 576.54688 L 1706.1133 576.54688 L 1693.8848 576.54688 L 1693.8848 552.08984 L 1693.8848 527.63086 L 1681.6543 527.63086 L 1669.4258 527.63086 L 1669.4258 566.76367 L 1669.4258 605.89844 z M 1693.8848 527.63086 L 1706.1133 527.63086 L 1718.3418 527.63086 L 1718.3418 552.08984 L 1718.3418 576.54688 L 1733.0176 576.54688 L 1747.6934 576.54688 L 1747.6934 552.08984 L 1747.6934 527.63086 L 1774.5977 527.63086 L 1801.502 527.63086 L 1801.502 512.95508 L 1801.502 498.2793 L 1747.6934 498.2793 L 1693.8848 498.2793 L 1693.8848 512.95508 L 1693.8848 527.63086 z M 1669.4258 630.35742 L 1669.4258 657.26172 L 1669.4258 684.16602 L 1681.6543 684.16602 L 1693.8848 684.16602 L 1693.8848 657.26172 L 1693.8848 630.35742 L 1681.6543 630.35742 L 1669.4258 630.35742 z M 1693.8848 684.16602 L 1693.8848 723.29883 L 1693.8848 762.43359 L 1706.1133 762.43359 L 1718.3418 762.43359 L 1718.3418 789.33789 L 1718.3418 816.24219 L 1733.0176 816.24219 L 1747.6934 816.24219 L 1747.6934 789.33789 L 1747.6934 762.43359 L 1759.9219 762.43359 L 1772.1523 762.43359 L 1772.1523 750.20312 L 1772.1523 737.97461 L 1745.248 737.97461 L 1718.3418 737.97461 L 1718.3418 723.29883 L 1718.3418 708.62305 L 1745.248 708.62305 L 1772.1523 708.62305 L 1772.1523 696.39453 L 1772.1523 684.16602 L 1759.9219 684.16602 L 1747.6934 684.16602 L 1747.6934 671.93555 L 1747.6934 659.70703 L 1759.9219 659.70703 L 1772.1523 659.70703 L 1772.1523 632.80273 L 1772.1523 605.89844 L 1759.9219 605.89844 L 1747.6934 605.89844 L 1747.6934 618.12695 L 1747.6934 630.35742 L 1733.0176 630.35742 L 1718.3418 630.35742 L 1718.3418 657.26172 L 1718.3418 684.16602 L 1706.1133 684.16602 L 1693.8848 684.16602 z M 1772.1523 659.70703 L 1772.1523 671.93555 L 1772.1523 684.16602 L 1786.8262 684.16602 L 1801.502 684.16602 L 1801.502 671.93555 L 1801.502 659.70703 L 1786.8262 659.70703 L 1772.1523 659.70703 z M 1747.6934 816.24219 L 1747.6934 843.14648 L 1747.6934 870.05078 L 1733.0176 870.05078 L 1718.3418 870.05078 L 1718.3418 909.18359 L 1718.3418 948.31836 L 1745.248 948.31836 L 1772.1523 948.31836 L 1772.1523 975.22266 L 1772.1523 1002.127 L 1786.8262 1002.127 L 1801.502 1002.127 L 1801.502 1014.3574 L 1801.502 1026.5859 L 1786.8262 1026.5859 L 1772.1523 1026.5859 L 1772.1523 1053.4902 L 1772.1523 1080.3945 L 1759.9219 1080.3945 L 1747.6934 1080.3945 L 1747.6934 1053.4902 L 1747.6934 1026.5859 L 1759.9219 1026.5859 L 1772.1523 1026.5859 L 1772.1523 1014.3574 L 1772.1523 1002.127 L 1745.248 1002.127 L 1718.3418 1002.127 L 1718.3418 975.22266 L 1718.3418 948.31836 L 1706.1133 948.31836 L 1693.8848 948.31836 L 1693.8848 936.08984 L 1693.8848 923.85938 L 1681.6543 923.85938 L 1669.4258 923.85938 L 1669.4258 909.18359 L 1669.4258 894.50977 L 1642.5215 894.50977 L 1615.6172 894.50977 L 1615.6172 909.18359 L 1615.6172 923.85938 L 1600.9414 923.85938 L 1586.2656 923.85938 L 1586.2656 909.18359 L 1586.2656 894.50977 L 1574.0371 894.50977 L 1561.8086 894.50977 L 1561.8086 909.18359 L 1561.8086 923.85938 L 1549.5781 923.85938 L 1537.3496 923.85938 L 1537.3496 909.18359 L 1537.3496 894.50977 L 1522.6738 894.50977 L 1507.998 894.50977 L 1507.998 909.18359 L 1507.998 923.85938 L 1495.7695 923.85938 L 1483.541 923.85938 L 1483.541 909.18359 L 1483.541 894.50977 L 1456.6367 894.50977 L 1429.7305 894.50977 L 1429.7305 909.18359 L 1429.7305 923.85938 L 1417.502 923.85938 L 1405.2734 923.85938 L 1405.2734 936.08984 L 1405.2734 948.31836 L 1471.3105 948.31836 L 1537.3496 948.31836 L 1537.3496 960.54688 L 1537.3496 972.77734 L 1549.5781 972.77734 L 1561.8086 972.77734 L 1561.8086 960.54688 L 1561.8086 948.31836 L 1574.0371 948.31836 L 1586.2656 948.31836 L 1586.2656 960.54688 L 1586.2656 972.77734 L 1600.9414 972.77734 L 1615.6172 972.77734 L 1615.6172 999.68164 L 1615.6172 1026.5859 L 1627.8457 1026.5859 L 1640.0762 1026.5859 L 1640.0762 1041.2617 L 1640.0762 1055.9355 L 1666.9805 1055.9355 L 1693.8848 1055.9355 L 1693.8848 1068.166 L 1693.8848 1080.3945 L 1706.1133 1080.3945 L 1718.3418 1080.3945 L 1718.3418 1092.623 L 1718.3418 1104.8535 L 1745.248 1104.8535 L 1772.1523 1104.8535 L 1772.1523 1131.7578 L 1772.1523 1158.6621 L 1786.8262 1158.6621 L 1801.502 1158.6621 L 1801.502 1173.3379 L 1801.502 1188.0117 L 1813.7305 1188.0117 L 1825.9609 1188.0117 L 1825.9609 1173.3379 L 1825.9609 1158.6621 L 1852.8652 1158.6621 L 1879.7695 1158.6621 L 1879.7695 1173.3379 L 1879.7695 1188.0117 L 1906.6738 1188.0117 L 1933.5781 1188.0117 L 1933.5781 1173.3379 L 1933.5781 1158.6621 L 1918.9023 1158.6621 L 1904.2285 1158.6621 L 1904.2285 1146.4336 L 1904.2285 1134.2031 L 1918.9023 1134.2031 L 1933.5781 1134.2031 L 1933.5781 1107.2988 L 1933.5781 1080.3945 L 1945.8086 1080.3945 L 1958.0371 1080.3945 L 1958.0371 1092.623 L 1958.0371 1104.8535 L 1970.2656 1104.8535 L 1982.4961 1104.8535 L 1982.4961 1092.623 L 1982.4961 1080.3945 L 1997.1699 1080.3945 L 2011.8457 1080.3945 L 2011.8457 1068.166 L 2011.8457 1055.9355 L 1984.9414 1055.9355 L 1958.0371 1055.9355 L 1958.0371 1014.3574 L 1958.0371 972.77734 L 1970.2656 972.77734 L 1982.4961 972.77734 L 1982.4961 933.64258 L 1982.4961 894.50977 L 1997.1699 894.50977 L 2011.8457 894.50977 L 2011.8457 867.60547 L 2011.8457 840.70117 L 1984.9414 840.70117 L 1958.0371 840.70117 L 1958.0371 828.4707 L 1958.0371 816.24219 L 1931.1328 816.24219 L 1904.2285 816.24219 L 1904.2285 828.4707 L 1904.2285 840.70117 L 1918.9023 840.70117 L 1933.5781 840.70117 L 1933.5781 867.60547 L 1933.5781 894.50977 L 1945.8086 894.50977 L 1958.0371 894.50977 L 1958.0371 921.41406 L 1958.0371 948.31836 L 1945.8086 948.31836 L 1933.5781 948.31836 L 1933.5781 936.08984 L 1933.5781 923.85938 L 1918.9023 923.85938 L 1904.2285 923.85938 L 1904.2285 896.95508 L 1904.2285 870.05078 L 1891.998 870.05078 L 1879.7695 870.05078 L 1879.7695 855.375 L 1879.7695 840.70117 L 1852.8652 840.70117 L 1825.9609 840.70117 L 1825.9609 867.60547 L 1825.9609 894.50977 L 1838.1895 894.50977 L 1850.4199 894.50977 L 1850.4199 909.18359 L 1850.4199 923.85938 L 1865.0938 923.85938 L 1879.7695 923.85938 L 1879.7695 936.08984 L 1879.7695 948.31836 L 1891.998 948.31836 L 1904.2285 948.31836 L 1904.2285 960.54688 L 1904.2285 972.77734 L 1918.9023 972.77734 L 1933.5781 972.77734 L 1933.5781 999.68164 L 1933.5781 1026.5859 L 1891.998 1026.5859 L 1850.4199 1026.5859 L 1850.4199 1014.3574 L 1850.4199 1002.127 L 1838.1895 1002.127 L 1825.9609 1002.127 L 1825.9609 987.45117 L 1825.9609 972.77734 L 1813.7305 972.77734 L 1801.502 972.77734 L 1801.502 960.54688 L 1801.502 948.31836 L 1813.7305 948.31836 L 1825.9609 948.31836 L 1825.9609 936.08984 L 1825.9609 923.85938 L 1813.7305 923.85938 L 1801.502 923.85938 L 1801.502 896.95508 L 1801.502 870.05078 L 1786.8262 870.05078 L 1772.1523 870.05078 L 1772.1523 843.14648 L 1772.1523 816.24219 L 1759.9219 816.24219 L 1747.6934 816.24219 z M 1850.4199 1002.127 L 1865.0938 1002.127 L 1879.7695 1002.127 L 1879.7695 975.22266 L 1879.7695 948.31836 L 1865.0938 948.31836 L 1850.4199 948.31836 L 1850.4199 975.22266 L 1850.4199 1002.127 z M 1904.2285 816.24219 L 1904.2285 777.10742 L 1904.2285 737.97461 L 1931.1328 737.97461 L 1958.0371 737.97461 L 1958.0371 723.29883 L 1958.0371 708.62305 L 1918.9023 708.62305 L 1879.7695 708.62305 L 1879.7695 723.29883 L 1879.7695 737.97461 L 1852.8652 737.97461 L 1825.9609 737.97461 L 1825.9609 723.29883 L 1825.9609 708.62305 L 1813.7305 708.62305 L 1801.502 708.62305 L 1801.502 750.20312 L 1801.502 791.7832 L 1813.7305 791.7832 L 1825.9609 791.7832 L 1825.9609 777.10742 L 1825.9609 762.43359 L 1838.1895 762.43359 L 1850.4199 762.43359 L 1850.4199 789.33789 L 1850.4199 816.24219 L 1877.3242 816.24219 L 1904.2285 816.24219 z M 1982.4961 1104.8535 L 1982.4961 1119.5293 L 1982.4961 1134.2031 L 1997.1699 1134.2031 L 2011.8457 1134.2031 L 2011.8457 1119.5293 L 2011.8457 1104.8535 L 1997.1699 1104.8535 L 1982.4961 1104.8535 z M 1982.4961 1134.2031 L 1958.0371 1134.2031 L 1933.5781 1134.2031 L 1933.5781 1146.4336 L 1933.5781 1158.6621 L 1945.8086 1158.6621 L 1958.0371 1158.6621 L 1958.0371 1173.3379 L 1958.0371 1188.0117 L 1970.2656 1188.0117 L 1982.4961 1188.0117 L 1982.4961 1200.2422 L 1982.4961 1212.4707 L 1997.1699 1212.4707 L 2011.8457 1212.4707 L 2011.8457 1185.5664 L 2011.8457 1158.6621 L 1997.1699 1158.6621 L 1982.4961 1158.6621 L 1982.4961 1146.4336 L 1982.4961 1134.2031 z M 1982.4961 1212.4707 L 1970.2656 1212.4707 L 1958.0371 1212.4707 L 1958.0371 1239.375 L 1958.0371 1266.2793 L 1970.2656 1266.2793 L 1982.4961 1266.2793 L 1982.4961 1239.375 L 1982.4961 1212.4707 z M 1958.0371 1212.4707 L 1958.0371 1200.2422 L 1958.0371 1188.0117 L 1945.8086 1188.0117 L 1933.5781 1188.0117 L 1933.5781 1200.2422 L 1933.5781 1212.4707 L 1945.8086 1212.4707 L 1958.0371 1212.4707 z M 1933.5781 1212.4707 L 1918.9023 1212.4707 L 1904.2285 1212.4707 L 1904.2285 1239.375 L 1904.2285 1266.2793 L 1918.9023 1266.2793 L 1933.5781 1266.2793 L 1933.5781 1239.375 L 1933.5781 1212.4707 z M 1879.7695 1188.0117 L 1865.0938 1188.0117 L 1850.4199 1188.0117 L 1850.4199 1212.4707 L 1850.4199 1236.9297 L 1865.0938 1236.9297 L 1879.7695 1236.9297 L 1879.7695 1212.4707 L 1879.7695 1188.0117 z M 1693.8848 1080.3945 L 1681.6543 1080.3945 L 1669.4258 1080.3945 L 1669.4258 1092.623 L 1669.4258 1104.8535 L 1681.6543 1104.8535 L 1693.8848 1104.8535 L 1693.8848 1092.623 L 1693.8848 1080.3945 z M 1640.0762 1055.9355 L 1627.8457 1055.9355 L 1615.6172 1055.9355 L 1615.6172 1080.3945 L 1615.6172 1104.8535 L 1627.8457 1104.8535 L 1640.0762 1104.8535 L 1640.0762 1080.3945 L 1640.0762 1055.9355 z M 1615.6172 1104.8535 L 1588.7129 1104.8535 L 1561.8086 1104.8535 L 1561.8086 1092.623 L 1561.8086 1080.3945 L 1574.0371 1080.3945 L 1586.2656 1080.3945 L 1586.2656 1053.4902 L 1586.2656 1026.5859 L 1574.0371 1026.5859 L 1561.8086 1026.5859 L 1561.8086 1014.3574 L 1561.8086 1002.127 L 1534.9023 1002.127 L 1507.998 1002.127 L 1507.998 987.45117 L 1507.998 972.77734 L 1495.7695 972.77734 L 1483.541 972.77734 L 1483.541 999.68164 L 1483.541 1026.5859 L 1510.4453 1026.5859 L 1537.3496 1026.5859 L 1537.3496 1041.2617 L 1537.3496 1055.9355 L 1510.4453 1055.9355 L 1483.541 1055.9355 L 1483.541 1041.2617 L 1483.541 1026.5859 L 1468.8652 1026.5859 L 1454.1895 1026.5859 L 1454.1895 1014.3574 L 1454.1895 1002.127 L 1441.9609 1002.127 L 1429.7305 1002.127 L 1429.7305 1014.3574 L 1429.7305 1026.5859 L 1417.502 1026.5859 L 1405.2734 1026.5859 L 1405.2734 1041.2617 L 1405.2734 1055.9355 L 1429.7305 1055.9355 L 1454.1895 1055.9355 L 1454.1895 1068.166 L 1454.1895 1080.3945 L 1495.7695 1080.3945 L 1537.3496 1080.3945 L 1537.3496 1092.623 L 1537.3496 1104.8535 L 1522.6738 1104.8535 L 1507.998 1104.8535 L 1507.998 1119.5293 L 1507.998 1134.2031 L 1547.1328 1134.2031 L 1586.2656 1134.2031 L 1586.2656 1146.4336 L 1586.2656 1158.6621 L 1600.9414 1158.6621 L 1615.6172 1158.6621 L 1615.6172 1131.7578 L 1615.6172 1104.8535 z M 1507.998 1134.2031 L 1495.7695 1134.2031 L 1483.541 1134.2031 L 1483.541 1146.4336 L 1483.541 1158.6621 L 1495.7695 1158.6621 L 1507.998 1158.6621 L 1507.998 1146.4336 L 1507.998 1134.2031 z M 1483.541 1158.6621 L 1468.8652 1158.6621 L 1454.1895 1158.6621 L 1454.1895 1212.4707 L 1454.1895 1266.2793 L 1468.8652 1266.2793 L 1483.541 1266.2793 L 1483.541 1239.375 L 1483.541 1212.4707 L 1510.4453 1212.4707 L 1537.3496 1212.4707 L 1537.3496 1200.2422 L 1537.3496 1188.0117 L 1510.4453 1188.0117 L 1483.541 1188.0117 L 1483.541 1173.3379 L 1483.541 1158.6621 z M 1405.2734 1026.5859 L 1405.2734 1014.3574 L 1405.2734 1002.127 L 1390.5977 1002.127 L 1375.9219 1002.127 L 1375.9219 1014.3574 L 1375.9219 1026.5859 L 1390.5977 1026.5859 L 1405.2734 1026.5859 z M 1375.9219 1026.5859 L 1363.6934 1026.5859 L 1351.4629 1026.5859 L 1351.4629 1041.2617 L 1351.4629 1055.9355 L 1363.6934 1055.9355 L 1375.9219 1055.9355 L 1375.9219 1041.2617 L 1375.9219 1026.5859 z M 1375.9219 1002.127 L 1375.9219 948.31836 L 1375.9219 894.50977 L 1363.6934 894.50977 L 1351.4629 894.50977 L 1351.4629 909.18359 L 1351.4629 923.85938 L 1336.7891 923.85938 L 1322.1133 923.85938 L 1322.1133 936.08984 L 1322.1133 948.31836 L 1309.8848 948.31836 L 1297.6543 948.31836 L 1297.6543 936.08984 L 1297.6543 923.85938 L 1309.8848 923.85938 L 1322.1133 923.85938 L 1322.1133 909.18359 L 1322.1133 894.50977 L 1282.9805 894.50977 L 1243.8457 894.50977 L 1243.8457 909.18359 L 1243.8457 923.85938 L 1258.5215 923.85938 L 1273.1953 923.85938 L 1273.1953 936.08984 L 1273.1953 948.31836 L 1258.5215 948.31836 L 1243.8457 948.31836 L 1243.8457 960.54688 L 1243.8457 972.77734 L 1258.5215 972.77734 L 1273.1953 972.77734 L 1273.1953 987.45117 L 1273.1953 1002.127 L 1258.5215 1002.127 L 1243.8457 1002.127 L 1243.8457 1029.0312 L 1243.8457 1055.9355 L 1258.5215 1055.9355 L 1273.1953 1055.9355 L 1273.1953 1041.2617 L 1273.1953 1026.5859 L 1285.4258 1026.5859 L 1297.6543 1026.5859 L 1297.6543 1014.3574 L 1297.6543 1002.127 L 1336.7891 1002.127 L 1375.9219 1002.127 z M 1322.1133 894.50977 L 1336.7891 894.50977 L 1351.4629 894.50977 L 1351.4629 882.2793 L 1351.4629 870.05078 L 1336.7891 870.05078 L 1322.1133 870.05078 L 1322.1133 882.2793 L 1322.1133 894.50977 z M 1322.1133 870.05078 L 1322.1133 855.375 L 1322.1133 840.70117 L 1297.6543 840.70117 L 1273.1953 840.70117 L 1273.1953 855.375 L 1273.1953 870.05078 L 1297.6543 870.05078 L 1322.1133 870.05078 z M 1322.1133 840.70117 L 1336.7891 840.70117 L 1351.4629 840.70117 L 1351.4629 828.4707 L 1351.4629 816.24219 L 1363.6934 816.24219 L 1375.9219 816.24219 L 1375.9219 828.4707 L 1375.9219 840.70117 L 1363.6934 840.70117 L 1351.4629 840.70117 L 1351.4629 855.375 L 1351.4629 870.05078 L 1378.3691 870.05078 L 1405.2734 870.05078 L 1405.2734 855.375 L 1405.2734 840.70117 L 1417.502 840.70117 L 1429.7305 840.70117 L 1429.7305 828.4707 L 1429.7305 816.24219 L 1417.502 816.24219 L 1405.2734 816.24219 L 1405.2734 804.01172 L 1405.2734 791.7832 L 1378.3691 791.7832 L 1351.4629 791.7832 L 1351.4629 777.10742 L 1351.4629 762.43359 L 1363.6934 762.43359 L 1375.9219 762.43359 L 1375.9219 750.20312 L 1375.9219 737.97461 L 1363.6934 737.97461 L 1351.4629 737.97461 L 1351.4629 723.29883 L 1351.4629 708.62305 L 1297.6543 708.62305 L 1243.8457 708.62305 L 1243.8457 723.29883 L 1243.8457 737.97461 L 1258.5215 737.97461 L 1273.1953 737.97461 L 1273.1953 750.20312 L 1273.1953 762.43359 L 1258.5215 762.43359 L 1243.8457 762.43359 L 1243.8457 777.10742 L 1243.8457 791.7832 L 1258.5215 791.7832 L 1273.1953 791.7832 L 1273.1953 804.01172 L 1273.1953 816.24219 L 1297.6543 816.24219 L 1322.1133 816.24219 L 1322.1133 828.4707 L 1322.1133 840.70117 z M 1405.2734 791.7832 L 1417.502 791.7832 L 1429.7305 791.7832 L 1429.7305 804.01172 L 1429.7305 816.24219 L 1441.9609 816.24219 L 1454.1895 816.24219 L 1454.1895 789.33789 L 1454.1895 762.43359 L 1468.8652 762.43359 L 1483.541 762.43359 L 1483.541 735.5293 L 1483.541 708.62305 L 1468.8652 708.62305 L 1454.1895 708.62305 L 1454.1895 723.29883 L 1454.1895 737.97461 L 1441.9609 737.97461 L 1429.7305 737.97461 L 1429.7305 750.20312 L 1429.7305 762.43359 L 1417.502 762.43359 L 1405.2734 762.43359 L 1405.2734 777.10742 L 1405.2734 791.7832 z M 1429.7305 737.97461 L 1429.7305 723.29883 L 1429.7305 708.62305 L 1417.502 708.62305 L 1405.2734 708.62305 L 1405.2734 723.29883 L 1405.2734 737.97461 L 1417.502 737.97461 L 1429.7305 737.97461 z M 1405.2734 870.05078 L 1405.2734 882.2793 L 1405.2734 894.50977 L 1417.502 894.50977 L 1429.7305 894.50977 L 1429.7305 882.2793 L 1429.7305 870.05078 L 1417.502 870.05078 L 1405.2734 870.05078 z M 1405.2734 1002.127 L 1417.502 1002.127 L 1429.7305 1002.127 L 1429.7305 987.45117 L 1429.7305 972.77734 L 1417.502 972.77734 L 1405.2734 972.77734 L 1405.2734 987.45117 L 1405.2734 1002.127 z M 1718.3418 870.05078 L 1718.3418 843.14648 L 1718.3418 816.24219 L 1693.8848 816.24219 L 1669.4258 816.24219 L 1669.4258 804.01172 L 1669.4258 791.7832 L 1654.75 791.7832 L 1640.0762 791.7832 L 1640.0762 830.91602 L 1640.0762 870.05078 L 1654.75 870.05078 L 1669.4258 870.05078 L 1669.4258 855.375 L 1669.4258 840.70117 L 1681.6543 840.70117 L 1693.8848 840.70117 L 1693.8848 855.375 L 1693.8848 870.05078 L 1706.1133 870.05078 L 1718.3418 870.05078 z M 1640.0762 791.7832 L 1640.0762 764.87891 L 1640.0762 737.97461 L 1627.8457 737.97461 L 1615.6172 737.97461 L 1615.6172 764.87891 L 1615.6172 791.7832 L 1627.8457 791.7832 L 1640.0762 791.7832 z M 1586.2656 659.70703 L 1574.0371 659.70703 L 1561.8086 659.70703 L 1561.8086 684.16602 L 1561.8086 708.62305 L 1574.0371 708.62305 L 1586.2656 708.62305 L 1586.2656 684.16602 L 1586.2656 659.70703 z M 1615.6172 498.2793 L 1615.6172 512.95508 L 1615.6172 527.63086 L 1627.8457 527.63086 L 1640.0762 527.63086 L 1640.0762 512.95508 L 1640.0762 498.2793 L 1627.8457 498.2793 L 1615.6172 498.2793 z M 1825.9609 498.2793 L 1825.9609 591.22266 L 1825.9609 684.16602 L 1918.9023 684.16602 L 2011.8457 684.16602 L 2011.8457 591.22266 L 2011.8457 498.2793 L 1918.9023 498.2793 L 1825.9609 498.2793 z M 1273.1953 527.63086 L 1339.2344 527.63086 L 1405.2734 527.63086 L 1405.2734 593.66797 L 1405.2734 659.70703 L 1339.2344 659.70703 L 1273.1953 659.70703 L 1273.1953 593.66797 L 1273.1953 527.63086 z M 1850.4199 527.63086 L 1916.457 527.63086 L 1982.4961 527.63086 L 1982.4961 593.66797 L 1982.4961 659.70703 L 1916.457 659.70703 L 1850.4199 659.70703 L 1850.4199 593.66797 L 1850.4199 527.63086 z M 1297.6543 552.08984 L 1297.6543 591.22266 L 1297.6543 630.35742 L 1336.7891 630.35742 L 1375.9219 630.35742 L 1375.9219 591.22266 L 1375.9219 552.08984 L 1336.7891 552.08984 L 1297.6543 552.08984 z M 1879.7695 552.08984 L 1879.7695 591.22266 L 1879.7695 630.35742 L 1918.9023 630.35742 L 1958.0371 630.35742 L 1958.0371 591.22266 L 1958.0371 552.08984 L 1918.9023 552.08984 L 1879.7695 552.08984 z M 1454.1895 659.70703 L 1454.1895 671.93555 L 1454.1895 684.16602 L 1468.8652 684.16602 L 1483.541 684.16602 L 1483.541 671.93555 L 1483.541 659.70703 L 1468.8652 659.70703 L 1454.1895 659.70703 z M 1982.4961 708.62305 L 1982.4961 735.5293 L 1982.4961 762.43359 L 1997.1699 762.43359 L 2011.8457 762.43359 L 2011.8457 735.5293 L 2011.8457 708.62305 L 1997.1699 708.62305 L 1982.4961 708.62305 z M 1982.4961 762.43359 L 1958.0371 762.43359 L 1933.5781 762.43359 L 1933.5781 777.10742 L 1933.5781 791.7832 L 1958.0371 791.7832 L 1982.4961 791.7832 L 1982.4961 777.10742 L 1982.4961 762.43359 z M 1982.4961 791.7832 L 1982.4961 804.01172 L 1982.4961 816.24219 L 1997.1699 816.24219 L 2011.8457 816.24219 L 2011.8457 804.01172 L 2011.8457 791.7832 L 1997.1699 791.7832 L 1982.4961 791.7832 z M 1801.502 1055.9355 L 1840.6348 1055.9355 L 1879.7695 1055.9355 L 1879.7695 1095.0703 L 1879.7695 1134.2031 L 1840.6348 1134.2031 L 1801.502 1134.2031 L 1801.502 1095.0703 L 1801.502 1055.9355 z M 1243.8457 1080.3945 L 1243.8457 1173.3379 L 1243.8457 1266.2793 L 1336.7891 1266.2793 L 1429.7305 1266.2793 L 1429.7305 1173.3379 L 1429.7305 1080.3945 L 1336.7891 1080.3945 L 1243.8457 1080.3945 z M 1825.9609 1080.3945 L 1825.9609 1092.623 L 1825.9609 1104.8535 L 1838.1895 1104.8535 L 1850.4199 1104.8535 L 1850.4199 1092.623 L 1850.4199 1080.3945 L 1838.1895 1080.3945 L 1825.9609 1080.3945 z M 1273.1953 1104.8535 L 1339.2344 1104.8535 L 1405.2734 1104.8535 L 1405.2734 1170.8926 L 1405.2734 1236.9297 L 1339.2344 1236.9297 L 1273.1953 1236.9297 L 1273.1953 1170.8926 L 1273.1953 1104.8535 z M 1297.6543 1134.2031 L 1297.6543 1173.3379 L 1297.6543 1212.4707 L 1336.7891 1212.4707 L 1375.9219 1212.4707 L 1375.9219 1173.3379 L 1375.9219 1134.2031 L 1336.7891 1134.2031 L 1297.6543 1134.2031 z M 1640.0762 1134.2031 L 1640.0762 1161.1074 L 1640.0762 1188.0117 L 1654.75 1188.0117 L 1669.4258 1188.0117 L 1669.4258 1200.2422 L 1669.4258 1212.4707 L 1654.75 1212.4707 L 1640.0762 1212.4707 L 1640.0762 1224.7012 L 1640.0762 1236.9297 L 1654.75 1236.9297 L 1669.4258 1236.9297 L 1669.4258 1251.6055 L 1669.4258 1266.2793 L 1681.6543 1266.2793 L 1693.8848 1266.2793 L 1693.8848 1227.1465 L 1693.8848 1188.0117 L 1706.1133 1188.0117 L 1718.3418 1188.0117 L 1718.3418 1161.1074 L 1718.3418 1134.2031 L 1706.1133 1134.2031 L 1693.8848 1134.2031 L 1693.8848 1146.4336 L 1693.8848 1158.6621 L 1681.6543 1158.6621 L 1669.4258 1158.6621 L 1669.4258 1146.4336 L 1669.4258 1134.2031 L 1654.75 1134.2031 L 1640.0762 1134.2031 z M 1640.0762 1236.9297 L 1574.0371 1236.9297 L 1507.998 1236.9297 L 1507.998 1251.6055 L 1507.998 1266.2793 L 1574.0371 1266.2793 L 1640.0762 1266.2793 L 1640.0762 1251.6055 L 1640.0762 1236.9297 z M 1640.0762 1212.4707 L 1640.0762 1200.2422 L 1640.0762 1188.0117 L 1627.8457 1188.0117 L 1615.6172 1188.0117 L 1615.6172 1200.2422 L 1615.6172 1212.4707 L 1627.8457 1212.4707 L 1640.0762 1212.4707 z M 1561.8086 1188.0117 L 1561.8086 1200.2422 L 1561.8086 1212.4707 L 1574.0371 1212.4707 L 1586.2656 1212.4707 L 1586.2656 1200.2422 L 1586.2656 1188.0117 L 1574.0371 1188.0117 L 1561.8086 1188.0117 z M 1747.6934 1188.0117 L 1747.6934 1200.2422 L 1747.6934 1212.4707 L 1759.9219 1212.4707 L 1772.1523 1212.4707 L 1772.1523 1200.2422 L 1772.1523 1188.0117 L 1759.9219 1188.0117 L 1747.6934 1188.0117 z M 1772.1523 1212.4707 L 1772.1523 1224.7012 L 1772.1523 1236.9297 L 1745.248 1236.9297 L 1718.3418 1236.9297 L 1718.3418 1251.6055 L 1718.3418 1266.2793 L 1772.1523 1266.2793 L 1825.9609 1266.2793 L 1825.9609 1251.6055 L 1825.9609 1236.9297 L 1813.7305 1236.9297 L 1801.502 1236.9297 L 1801.502 1224.7012 L 1801.502 1212.4707 L 1786.8262 1212.4707 L 1772.1523 1212.4707 z "
       transform="matrix(0.26458334,0,0,0.26458334,0,-160.20002)"
       id="path5156" />
    <path
       style="font-style:italic;font-variant:normal;font-weight:normal;font-stretch:normal;font-size:88.33657837px;line-height:1.25;font-family:'Brush Script MT';-inkscape-font-specification:'Brush Script MT, Italic';font-variant-ligatures:normal;font-variant-caps:normal;font-variant-numeric:normal;font-feature-settings:normal;text-align:start;letter-spacing:0px;word-spacing:0px;writing-mode:lr-tb;text-anchor:start;fill:#ff0000;fill-opacity:1;stroke:none;stroke-width:3.47781754"
       d="M 1370.541 117.42383 C 1358.1513 117.42383 1345.5966 118.78295 1332.8809 121.5 C 1320.1651 124.21705 1308.4828 127.47741 1297.832 131.28125 C 1287.2899 134.97644 1277.7799 138.94305 1269.3027 143.18164 C 1260.9342 147.31156 1254.8488 150.89831 1251.0449 153.94141 C 1241.6983 161.44044 1237.0254 174.4284 1237.0254 192.9043 C 1237.0254 200.07731 1239.7951 203.66406 1245.3379 203.66406 C 1247.0768 203.66406 1249.1422 203.28225 1251.5332 202.52148 C 1253.9242 201.65202 1257.8374 200.02186 1263.2715 197.63086 C 1268.8142 195.13118 1274.14 192.90352 1279.248 190.94727 C 1284.4648 188.88231 1290.659 186.8723 1297.832 184.91602 C 1291.4198 185.02471 1284.2463 185.73099 1276.3125 187.03516 C 1268.4874 188.33935 1264.0856 188.99023 1263.1074 188.99023 C 1261.6946 188.99023 1260.9883 188.61038 1260.9883 187.84961 C 1260.9883 186.65409 1263.8688 184.6975 1269.6289 181.98047 C 1275.389 179.26342 1282.4538 176.43831 1290.8223 173.50391 C 1299.1908 170.56948 1308.0479 167.90663 1317.3945 165.51562 C 1326.7412 163.01595 1335.3273 161.33233 1343.1523 160.46289 C 1304.3529 213.06489 1277.1287 256.69964 1261.4785 291.36914 C 1259.1962 296.47719 1257.566 300.98785 1256.5879 304.90039 C 1255.6097 308.81293 1255.1191 313.86568 1255.1191 320.06055 C 1255.1191 325.05991 1255.6097 328.81087 1256.5879 331.31055 C 1257.566 333.91891 1259.1962 335.65789 1261.4785 336.52734 C 1263.8695 337.3968 1267.0745 337.83008 1271.0957 337.83008 C 1292.6147 337.83008 1314.4598 333.97227 1336.6309 326.25586 C 1358.8019 318.53945 1378.6904 308.10558 1396.2969 294.95508 C 1414.012 281.6959 1428.1415 266.42689 1438.6836 249.14648 C 1449.3344 231.86607 1454.6602 214.043 1454.6602 195.67578 C 1454.6602 183.61208 1452.7036 172.74298 1448.791 163.07031 C 1444.9871 153.39762 1439.4992 145.24678 1432.3262 138.61719 C 1425.1532 131.87892 1416.2407 126.66197 1405.5898 122.9668 C 1394.939 119.2716 1383.2568 117.42383 1370.541 117.42383 z M 1372.6602 158.50586 C 1393.6358 158.50586 1409.611 162.58129 1420.5879 170.73242 C 1431.5647 178.77488 1437.0527 190.29487 1437.0527 205.29297 C 1437.0527 218.44346 1432.7062 231.05154 1424.0117 243.11523 C 1415.3172 255.17892 1403.6884 265.99264 1389.125 275.55664 C 1374.6703 285.12064 1359.1837 292.61864 1342.6641 298.05273 C 1326.1444 303.37814 1310.4936 306.04102 1295.7129 306.04102 C 1289.9528 306.04102 1285.4975 305.49893 1282.3457 304.41211 C 1279.3026 303.21661 1277.7793 301.20463 1277.7793 298.37891 C 1277.7793 297.07472 1278.2145 295.17351 1279.084 292.67383 C 1279.9534 290.17415 1281.3126 287.18485 1283.1602 283.70703 C 1285.1164 280.22921 1286.529 277.73053 1287.3984 276.20898 C 1288.2679 274.68744 1289.8446 271.75157 1292.127 267.4043 C 1299.4086 253.71039 1305.7117 242.51681 1311.0371 233.82227 C 1316.3625 225.12771 1322.7744 215.02025 1330.2734 203.5 C 1337.7725 191.97972 1342.7718 183.99112 1345.2715 179.53516 C 1347.8799 174.97052 1349.1836 171.43913 1349.1836 168.93945 C 1349.1836 167.30922 1348.966 165.40801 1348.5312 163.23438 C 1348.0965 160.95215 1347.8809 159.70182 1347.8809 159.48438 C 1355.5973 158.83228 1363.8569 158.50586 1372.6602 158.50586 z M 1919.9258 166.82031 C 1913.9483 166.82031 1908.6245 168.99453 1903.9512 173.3418 C 1899.2779 177.58039 1894.0609 184.86076 1888.3008 195.18555 L 1881.291 195.18555 C 1872.9225 195.18555 1866.3999 195.72959 1861.7266 196.81641 C 1857.1619 197.79455 1853.2507 199.75115 1849.9902 202.68555 C 1846.8385 205.61995 1843.4693 210.1306 1839.8828 216.2168 C 1835.4269 223.38979 1833.1992 228.76897 1833.1992 232.35547 C 1833.1992 233.00756 1833.4168 233.33398 1833.8516 233.33398 C 1834.2863 233.33398 1835.046 233.16979 1836.1328 232.84375 C 1837.3283 232.40902 1838.5786 232.02917 1839.8828 231.70312 C 1843.0346 230.83367 1847.8163 230.39844 1854.2285 230.39844 C 1856.1848 230.39844 1857.8684 230.45383 1859.2812 230.5625 C 1860.6941 230.5625 1862.2174 230.61594 1863.8477 230.72461 C 1847.6541 254.74329 1833.851 271.53561 1822.4395 281.09961 L 1822.4395 282.66211 C 1807.7351 295.20465 1796.8124 301.47656 1789.6719 301.47656 C 1782.2815 301.47656 1778.5859 297.45652 1778.5859 289.41406 C 1778.5859 284.52338 1779.6186 280.39257 1781.6836 277.02344 C 1783.8572 273.6543 1787.5528 268.43736 1792.7695 261.37305 C 1798.0949 254.20005 1800.7578 249.30953 1800.7578 246.70117 C 1800.7578 245.39699 1800.4314 243.92905 1799.7793 242.29883 C 1799.1272 240.55992 1798.2033 238.33228 1797.0078 235.61523 C 1795.8123 232.89819 1794.833 230.67055 1794.0723 228.93164 C 1797.8761 227.62745 1800.539 226.54132 1802.0605 225.67188 C 1803.5821 224.69373 1804.3438 223.22581 1804.3438 221.26953 C 1804.3438 220.07404 1803.7463 218.22624 1802.5508 215.72656 C 1801.464 213.22688 1799.9426 211.05269 1797.9863 209.20508 C 1796.03 207.24882 1793.9093 206.27148 1791.627 206.27148 C 1783.1498 206.27148 1771.1411 209.91167 1755.5996 217.19336 C 1740.0581 224.47503 1724.0274 235.61519 1707.5078 250.61328 C 1701.3129 256.4821 1696.8023 261.21038 1693.9766 264.79688 C 1691.1508 268.38337 1689.2496 271.91476 1688.2715 275.39258 C 1687.8009 277.01341 1687.4473 278.84195 1687.2031 280.86523 C 1677.6154 288.37467 1670.3452 293.78977 1665.6113 296.91211 C 1660.6119 300.17256 1656.5365 301.80273 1653.3848 301.80273 C 1649.5809 301.80273 1647.6777 299.46629 1647.6777 294.79297 C 1647.6777 286.42447 1657.2431 271.58875 1676.3711 250.28711 C 1681.0444 245.39643 1683.3809 241.75623 1683.3809 239.36523 C 1683.3809 234.47455 1682.5104 229.63747 1680.7715 224.85547 C 1679.1412 220.07348 1677.4577 217.68359 1675.7188 217.68359 C 1671.9149 217.68359 1667.1332 219.69363 1661.373 223.71484 C 1651.0483 230.5618 1641.8093 237.67995 1633.6582 245.07031 C 1625.6157 252.46068 1618.6064 259.58078 1612.6289 266.42773 C 1606.7601 273.16601 1601.923 278.65399 1598.1191 282.89258 C 1594.4239 287.02249 1591.9253 289.08789 1590.6211 289.08789 C 1588.5561 289.08789 1587.5234 287.51115 1587.5234 284.35938 C 1587.5234 278.70792 1596.1095 266.37283 1613.2812 247.35352 C 1615.8896 244.52779 1617.5732 242.62462 1618.334 241.64648 C 1619.2034 240.66835 1619.9651 239.58222 1620.6172 238.38672 C 1621.2693 237.19122 1621.5957 236.04971 1621.5957 234.96289 C 1621.5957 232.46321 1620.5076 230.61542 1618.334 229.41992 C 1616.269 228.22442 1613.4974 227.62695 1610.0195 227.62695 C 1605.0202 227.62695 1599.8052 230.34521 1594.3711 235.7793 C 1588.937 241.1047 1582.4697 249.5266 1574.9707 261.04688 C 1570.9495 267.24174 1568.2332 272.02344 1566.8203 275.39258 C 1566.248 276.87095 1565.8075 278.61705 1565.4863 280.59766 C 1561.9294 283.26901 1558.8748 285.56669 1557.6895 286.47852 C 1556.2766 287.45665 1554.6464 288.43593 1552.7988 289.41406 C 1551.0599 290.28352 1549.2675 290.7168 1547.4199 290.7168 L 1544.9746 290.7168 L 1542.0391 287.7832 C 1546.2777 280.82757 1549.5934 273.38299 1551.9844 265.44922 C 1554.4841 257.51545 1555.7344 250.93938 1555.7344 245.72266 C 1555.7344 240.39725 1554.9727 236.75705 1553.4512 234.80078 C 1551.9296 232.73583 1549.1045 231.26789 1544.9746 230.39844 C 1547.4743 227.57272 1548.7246 225.07405 1548.7246 222.90039 C 1548.7246 220.07466 1547.2567 217.90044 1544.3223 216.37891 C 1541.3879 214.74867 1537.3659 213.93359 1532.2578 213.93359 C 1525.0848 213.93359 1517.3158 216.21661 1508.9473 220.78125 C 1500.5788 225.23721 1492.699 231.16042 1485.3086 238.55078 C 1478.0269 245.83246 1472.0483 253.71032 1467.375 262.1875 C 1462.8104 270.66468 1460.5293 278.38225 1460.5293 285.33789 C 1460.5293 293.92375 1461.9953 301.69475 1464.9297 308.65039 C 1467.9728 315.60603 1471.9948 321.09401 1476.9941 325.11523 C 1481.9935 329.13646 1487.5369 331.14648 1493.623 331.14648 C 1504.3826 331.14648 1516.8264 322.77801 1530.9551 306.04102 C 1539.1062 306.47574 1545.3539 305.60723 1549.7012 303.43359 C 1553.6207 301.47386 1558.7015 297.72984 1564.918 292.23633 C 1565.1793 300.74033 1566.6212 308.28157 1569.2656 314.84375 C 1572.2 322.12543 1575.405 325.76758 1578.8828 325.76758 C 1581.1651 325.76758 1583.3928 324.6795 1585.5664 322.50586 C 1587.8487 320.22354 1591.3821 315.87707 1596.1641 309.46484 C 1601.0547 302.94393 1605.6188 297.0761 1609.8574 291.85938 C 1614.096 286.53397 1619.2576 280.93522 1625.3438 275.06641 C 1634.6904 265.71977 1642.4614 259.47209 1648.6562 256.32031 C 1643.5482 264.90617 1639.0375 272.6218 1635.125 279.46875 C 1631.2125 286.20702 1628.2785 291.42396 1626.3223 295.11914 C 1624.4747 298.70564 1623.0087 302.1836 1621.9219 305.55273 C 1620.8351 308.92187 1620.291 312.34445 1620.291 315.82227 C 1620.291 327.5599 1624.7463 333.42969 1633.6582 333.42969 C 1638.8749 333.42969 1645.6132 330.06054 1653.873 323.32227 C 1661.6921 316.94356 1672.7667 306.71751 1687.0137 292.74219 C 1687.4802 298.17648 1688.7601 303.48046 1690.8789 308.65039 C 1693.7046 315.1713 1696.9116 320.49704 1700.498 324.62695 C 1704.0846 328.75686 1707.0739 330.82031 1709.4648 330.82031 C 1714.4642 330.82031 1720.8207 327.12474 1728.5371 319.73438 C 1736.2535 312.23533 1748.0465 299.68262 1763.9141 282.07617 C 1757.7192 298.37844 1754.6211 310.82429 1754.6211 319.41016 C 1754.6211 324.84425 1755.4916 328.91967 1757.2305 331.63672 C 1759.0781 334.46244 1762.1208 335.875 1766.3594 335.875 C 1778.2057 335.875 1797.8766 320.60404 1825.373 290.06445 L 1825.373 289.75977 C 1825.6991 289.48127 1826.0255 289.19553 1826.3516 288.92383 C 1827.6558 287.72833 1828.8507 286.6422 1829.9375 285.66406 C 1831.133 284.57724 1832.3833 283.43573 1833.6875 282.24023 C 1835.1004 280.93605 1836.5683 279.63231 1838.0898 278.32812 C 1833.7426 289.52235 1830.6979 297.89082 1828.959 303.43359 C 1827.3287 308.97637 1826.5137 313.75807 1826.5137 317.7793 C 1826.5137 323.7568 1827.9816 328.64731 1830.916 332.45117 C 1833.9591 336.25503 1837.9257 338.15625 1842.8164 338.15625 C 1856.5756 338.15625 1877.7333 322.78164 1906.252 292.11133 C 1906.2432 292.5695 1906.2324 293.02656 1906.2324 293.48828 C 1906.2324 306.5301 1909.0575 316.80174 1914.709 324.30078 C 1920.3604 331.79983 1928.0226 335.54883 1937.6953 335.54883 C 1948.7808 335.54883 1959.7034 331.63564 1970.4629 323.81055 C 1981.2224 315.87677 1992.7443 304.51901 2005.0254 289.73828 L 2005.0254 279.79492 C 1996.8743 286.75056 1989.9718 292.29392 1984.3203 296.42383 C 1978.6689 300.55374 1972.9633 303.86751 1967.2031 306.36719 C 1961.5517 308.86687 1956.0637 310.11719 1950.7383 310.11719 C 1945.6302 310.11719 1941.4994 308.32283 1938.3477 304.73633 C 1935.1959 301.14983 1933.6211 296.15051 1933.6211 289.73828 L 1933.6211 285.66406 C 1948.9452 279.4692 1961.8244 273.05732 1972.2578 266.42773 C 1982.7999 259.68946 1990.6244 252.95116 1995.7324 246.21289 C 2000.8405 239.36594 2003.3945 232.51882 2003.3945 225.67188 C 2003.3945 220.99854 2001.8732 217.52059 1998.8301 215.23828 C 1995.8957 212.84728 1991.8737 211.65039 1986.7656 211.65039 C 1980.3534 211.65039 1973.0711 213.44476 1964.9199 217.03125 C 1956.7688 220.61777 1948.5645 225.94351 1940.3047 233.00781 C 1928.241 243.33258 1919.5461 253.16704 1914.2207 262.51367 C 1911.1412 267.8556 1908.9589 273.56406 1907.6602 279.63281 C 1896.5656 288.67423 1887.6601 295.41817 1880.9648 299.8457 C 1874.3353 304.19298 1868.9541 306.36719 1864.8242 306.36719 C 1858.8467 306.36719 1855.8594 302.61819 1855.8594 295.11914 C 1855.8594 289.57637 1856.8921 283.70658 1858.957 277.51172 C 1861.1307 271.31686 1864.1734 264.52513 1868.0859 257.13477 C 1872.1072 249.63572 1877.0511 241.15844 1882.9199 231.70312 C 1885.963 231.92048 1888.5171 232.1381 1890.582 232.35547 C 1892.7557 232.46414 1894.8745 232.62638 1896.9395 232.84375 C 1899.0044 232.95242 1901.5585 233.11661 1904.6016 233.33398 C 1913.9482 221.27031 1921.7192 209.47731 1927.9141 197.95703 C 1926.2838 197.73966 1924.0028 197.4686 1921.0684 197.14258 C 1918.2426 196.81653 1914.9823 196.4367 1911.2871 196.00195 C 1913.6781 192.08941 1917.2095 187.25231 1921.8828 181.49219 C 1926.5561 175.73204 1928.8926 172.20065 1928.8926 170.89648 C 1928.8926 168.17943 1925.9033 166.82031 1919.9258 166.82031 z M 1977.3105 229.58398 C 1979.5929 229.58398 1980.7344 230.8343 1980.7344 233.33398 C 1980.7344 235.72498 1979.0488 239.52741 1975.6797 244.74414 C 1972.4192 249.85218 1967.3111 255.23331 1960.3555 260.88477 C 1953.3998 266.53622 1945.0314 271.26254 1935.25 275.06641 C 1936.3368 268.65418 1938.6733 262.73097 1942.2598 257.29688 C 1945.8463 251.86279 1949.8683 247.13646 1954.3242 243.11523 C 1958.8889 239.09401 1963.3441 235.83367 1967.6914 233.33398 C 1972.1473 230.8343 1975.3543 229.58398 1977.3105 229.58398 z M 1785.5957 232.68164 C 1772.3365 251.26623 1760.9788 265.99315 1751.5234 276.86133 C 1742.0681 287.62083 1731.6362 296.36915 1720.2246 303.10742 C 1717.1815 304.62897 1715.0607 305.38867 1713.8652 305.38867 C 1711.8003 305.38867 1710.1701 304.30254 1708.9746 302.12891 C 1707.7791 299.84659 1707.1816 296.9661 1707.1816 293.48828 C 1707.1816 283.92428 1713.1602 274.63192 1725.1152 265.61133 C 1737.1789 256.59074 1757.3384 245.61478 1785.5957 232.68164 z M 1533.4004 236.59375 C 1527.8576 245.8317 1523.6734 254.03794 1520.8477 261.21094 C 1518.0219 268.27525 1516.6094 275.22922 1516.6094 282.07617 C 1516.6094 286.74949 1517.5313 291.64196 1519.3789 296.75 C 1508.402 304.79245 1500.5776 308.8125 1495.9043 308.8125 C 1485.9056 308.8125 1480.9062 305.22573 1480.9062 298.05273 C 1480.9063 297.0746 1482.2654 290.50049 1484.9824 278.32812 C 1486.504 273.76349 1489.4933 269.25283 1493.9492 264.79688 C 1498.4052 260.23224 1503.8378 255.77696 1510.25 251.42969 C 1516.6622 246.97373 1524.3798 242.02784 1533.4004 236.59375 z "
       transform="matrix(0.26458334,0,0,0.26458334,0,-160.20002)"
       id="path5736" />
    <path
       style="font-style:normal;font-variant:normal;font-weight:normal;font-stretch:normal;font-size:73.25533295px;line-height:1.25;font-family:Micr;-inkscape-font-specification:'Micr, weight=101';font-variant-ligatures:normal;font-variant-caps:normal;font-variant-numeric:normal;font-feature-settings:normal;text-align:start;letter-spacing:0px;word-spacing:0px;writing-mode:lr-tb;text-anchor:start;fill:#ff0000;fill-opacity:1;stroke:none;stroke-width:2.88406825"
       d="M 1257.8359 1392.9102 C 1255.621 1392.9102 1253.3136 1393.1865 1250.9141 1393.7402 C 1248.5145 1394.294 1246.7618 1395.2157 1245.6543 1396.5078 C 1243.4393 1399.4611 1242.332 1403.6159 1242.332 1408.9688 L 1242.332 1598.9004 C 1242.332 1601.8537 1242.5156 1604.3466 1242.8848 1606.377 C 1243.4385 1608.2227 1244.453 1609.8847 1245.9297 1611.3613 C 1247.4063 1612.6534 1249.4374 1613.5752 1252.0215 1614.1289 C 1254.6056 1614.498 1256.6366 1614.5909 1258.1133 1614.4062 L 1363.877 1614.4062 C 1367.1994 1614.4063 1369.7831 1614.1279 1371.6289 1613.5742 C 1373.6593 1612.8359 1375.2285 1612.0069 1376.3359 1611.084 C 1379.1046 1608.4999 1380.4902 1604.9924 1380.4902 1600.5625 L 1380.4902 1408.6914 C 1380.4902 1403.3386 1379.0119 1399.1857 1376.0586 1396.2324 C 1374.3974 1394.5713 1372.461 1393.6476 1370.2461 1393.4629 C 1368.0311 1393.0937 1365.9073 1392.9102 1363.877 1392.9102 L 1257.8359 1392.9102 z M 1271.125 1424.4727 L 1324.8379 1424.4727 L 1324.8379 1434.7168 C 1324.8379 1435.2705 1324.9305 1437.4851 1325.1152 1441.3613 C 1325.2998 1445.2375 1325.9453 1447.7304 1327.0527 1448.8379 C 1328.1602 1449.9452 1328.8984 1450.5907 1329.2676 1450.7754 C 1329.8213 1450.9601 1331.6688 1451.0527 1334.8066 1451.0527 L 1340.6211 1451.0527 L 1350.8652 1451.0527 L 1350.8652 1585.0566 L 1271.125 1585.0566 L 1271.125 1424.4727 z M 1421.3457 1437.209 C 1419.4999 1437.209 1417.5616 1437.4853 1415.5312 1438.0391 C 1413.6854 1438.5928 1412.3926 1439.331 1411.6543 1440.2539 C 1410.3622 1441.9151 1409.5313 1443.6698 1409.1621 1445.5156 L 1409.1621 1451.0527 L 1409.1621 1602.2227 C 1409.1621 1604.253 1409.3476 1606.1913 1409.7168 1608.0371 C 1410.086 1609.6983 1410.8241 1611.1747 1411.9316 1612.4668 C 1413.2237 1613.5744 1414.7001 1614.2218 1416.3613 1614.4062 L 1421.6211 1614.4062 L 1442.3867 1614.4062 C 1447.3704 1614.4062 1450.8778 1613.3897 1452.9082 1611.3594 C 1453.8311 1610.4365 1454.4765 1609.3292 1454.8457 1608.0371 C 1455.2148 1606.5605 1455.3075 1604.6222 1455.123 1602.2227 L 1455.123 1517.2246 L 1455.123 1514.4551 C 1455.123 1511.1326 1454.4776 1508.8252 1453.1855 1507.5332 C 1451.8935 1506.2412 1450.5098 1505.5031 1449.0332 1505.3184 C 1447.5566 1504.9492 1445.5255 1504.7656 1442.9414 1504.7656 L 1432.6973 1504.7656 L 1432.6973 1462.6816 L 1497.7617 1462.6816 L 1497.7617 1603.3301 C 1497.7617 1606.4679 1498.9618 1609.1444 1501.3613 1611.3594 C 1503.9454 1613.3897 1506.8982 1614.4062 1510.2207 1614.4062 C 1513.174 1614.4063 1515.7577 1613.2989 1517.9727 1611.084 C 1520.1876 1608.869 1521.2949 1606.2834 1521.2949 1603.3301 L 1521.2949 1449.9453 C 1521.2949 1449.207 1521.2023 1447.7306 1521.0176 1445.5156 C 1520.833 1443.1161 1520.0948 1441.3614 1518.8027 1440.2539 C 1517.6952 1438.9618 1516.2188 1438.1309 1514.373 1437.7617 C 1512.7118 1437.3926 1510.8663 1437.209 1508.8359 1437.209 L 1421.3457 1437.209 z M 1558.3711 1437.209 C 1555.2332 1437.209 1552.464 1438.3163 1550.0645 1440.5312 C 1547.8495 1442.5616 1546.7422 1445.1453 1546.7422 1448.2832 L 1546.7422 1602.2227 C 1546.7422 1604.253 1546.9258 1606.1913 1547.2949 1608.0371 C 1547.6641 1609.6983 1548.4023 1611.1747 1549.5098 1612.4668 C 1550.8018 1613.5744 1552.2782 1614.2218 1553.9395 1614.4062 L 1559.2012 1614.4062 L 1649.7383 1614.4062 C 1653.0607 1614.4063 1655.7372 1613.2989 1657.7676 1611.084 C 1659.798 1608.869 1660.8125 1606.1926 1660.8125 1603.0547 C 1660.8125 1599.5476 1659.6124 1596.6857 1657.2129 1594.4707 C 1654.8133 1592.2557 1651.9533 1591.1484 1648.6309 1591.1484 L 1592.7012 1591.1484 L 1592.7012 1517.2246 L 1592.7012 1514.4551 C 1592.7012 1511.1326 1592.0557 1508.8252 1590.7637 1507.5332 C 1589.4716 1506.2412 1588.088 1505.5031 1586.6113 1505.3184 C 1585.1347 1504.9492 1583.1037 1504.7656 1580.5195 1504.7656 L 1570.2754 1504.7656 L 1570.2754 1448.2832 C 1570.2754 1445.1453 1569.0753 1442.5616 1566.6758 1440.5312 C 1564.4608 1438.3163 1561.6936 1437.209 1558.3711 1437.209 z M 1695.1016 1437.209 C 1691.9637 1437.209 1689.1945 1438.3163 1686.7949 1440.5312 C 1684.58 1442.5616 1683.4727 1445.1453 1683.4727 1448.2832 L 1683.4727 1602.2227 C 1683.4727 1604.253 1683.6562 1606.1913 1684.0254 1608.0371 C 1684.3945 1609.6983 1685.1328 1611.1747 1686.2402 1612.4668 C 1687.5323 1613.5744 1689.0106 1614.2218 1690.6719 1614.4062 L 1695.9316 1614.4062 L 1716.6973 1614.4062 C 1717.6202 1614.4062 1719.1893 1614.3133 1721.4043 1614.1289 C 1723.6193 1613.9443 1725.2792 1613.2989 1726.3867 1612.1914 C 1727.4942 1611.0839 1728.2324 1609.6983 1728.6016 1608.0371 C 1729.1553 1606.1913 1729.4336 1604.253 1729.4336 1602.2227 L 1729.4336 1517.2246 L 1729.4336 1514.4551 C 1729.4336 1511.1326 1728.7862 1508.8252 1727.4941 1507.5332 C 1726.2021 1506.2412 1724.8184 1505.5031 1723.3418 1505.3184 C 1721.8651 1504.9492 1719.8341 1504.7656 1717.25 1504.7656 L 1707.0059 1504.7656 L 1707.0059 1448.2832 C 1707.0059 1445.1453 1705.8058 1442.5616 1703.4062 1440.5312 C 1701.1913 1438.3163 1698.424 1437.209 1695.1016 1437.209 z M 1774.4629 1437.209 C 1772.6171 1437.209 1770.6788 1437.4853 1768.6484 1438.0391 C 1766.8026 1438.5928 1765.5118 1439.331 1764.7734 1440.2539 C 1763.4814 1441.9151 1762.6504 1443.6698 1762.2812 1445.5156 L 1762.2812 1451.0527 L 1762.2812 1602.2227 C 1762.2812 1604.253 1762.4648 1606.1913 1762.834 1608.0371 C 1763.2031 1609.6983 1763.9433 1611.1747 1765.0508 1612.4668 C 1766.3429 1613.5744 1767.8192 1614.2218 1769.4805 1614.4062 L 1774.7402 1614.4062 L 1795.5059 1614.4062 C 1800.4895 1614.4062 1803.997 1613.3897 1806.0273 1611.3594 C 1806.9503 1610.4365 1807.5957 1609.3292 1807.9648 1608.0371 C 1808.334 1606.5605 1808.4269 1604.6222 1808.2422 1602.2227 L 1808.2422 1517.2246 L 1808.2422 1514.4551 C 1808.2422 1511.1326 1807.5948 1508.8252 1806.3027 1507.5332 C 1805.0107 1506.2412 1803.627 1505.5031 1802.1504 1505.3184 C 1800.6737 1504.9492 1798.6427 1504.7656 1796.0586 1504.7656 L 1785.8145 1504.7656 L 1785.8145 1462.6816 L 1850.8789 1462.6816 L 1850.8789 1603.3301 C 1850.8789 1606.4679 1852.079 1609.1444 1854.4785 1611.3594 C 1857.0627 1613.3897 1860.0154 1614.4062 1863.3379 1614.4062 C 1866.2912 1614.4063 1868.8768 1613.2989 1871.0918 1611.084 C 1873.3068 1608.869 1874.4141 1606.2834 1874.4141 1603.3301 L 1874.4141 1449.9453 C 1874.4141 1449.207 1874.3214 1447.7306 1874.1367 1445.5156 C 1873.9522 1443.1161 1873.2139 1441.3614 1871.9219 1440.2539 C 1870.8144 1438.9618 1869.338 1438.1309 1867.4922 1437.7617 C 1865.831 1437.3926 1863.9855 1437.209 1861.9551 1437.209 L 1774.4629 1437.209 z M 1913.4258 1437.209 C 1911.58 1437.209 1909.6417 1437.4853 1907.6113 1438.0391 C 1905.7655 1438.5928 1904.3819 1439.5165 1903.459 1440.8086 C 1902.5361 1441.9161 1901.8906 1443.2069 1901.5215 1444.6836 C 1901.337 1445.9756 1901.2441 1447.8212 1901.2441 1450.2207 L 1901.2441 1602.2227 C 1901.2441 1604.253 1901.4277 1606.1913 1901.7969 1608.0371 C 1902.166 1609.6983 1902.9062 1611.1747 1904.0137 1612.4668 C 1905.3057 1613.5744 1906.7822 1614.2218 1908.4434 1614.4062 L 1913.7031 1614.4062 L 1999.2559 1614.4062 C 2002.5783 1614.4063 2005.2548 1613.2989 2007.2852 1611.084 C 2009.3155 1608.869 2010.3301 1606.1926 2010.3301 1603.0547 C 2010.3301 1599.5476 2009.132 1596.6857 2006.7324 1594.4707 C 2004.3329 1592.2557 2001.5636 1591.1484 1998.4258 1591.1484 L 1947.2051 1591.1484 L 1947.2051 1528.5762 L 1999.2559 1528.5762 C 2002.5783 1528.5762 2005.2548 1527.4689 2007.2852 1525.2539 C 2009.3155 1523.0389 2010.3301 1520.2697 2010.3301 1516.9473 C 2010.3301 1513.6248 2009.2228 1510.7648 2007.0078 1508.3652 C 2004.7929 1505.9657 2002.2092 1504.7656 1999.2559 1504.7656 L 1924.5 1504.7656 L 1924.5 1461.2969 L 1999.2559 1461.2969 C 2002.5783 1461.2969 2005.2548 1460.1896 2007.2852 1457.9746 C 2009.3155 1455.7597 2010.3301 1452.9904 2010.3301 1449.668 C 2010.3301 1446.1609 2009.3155 1443.2081 2007.2852 1440.8086 C 2005.2548 1438.409 2002.5783 1437.209 1999.2559 1437.209 L 1913.4258 1437.209 z "
       transform="matrix(0.26458334,0,0,0.26458334,0,-160.20002)"
       id="path5756" />
    <path
       style="fill:#00006e;fill-opacity:1;stroke:#000000;stroke-width:0.06651004;stroke-miterlimit:4;stroke-dasharray:none;stroke-opacity:1"
       d="m 62.222948,114.68746 0.266393,-65.807226 2.007721,-8.525105 c 8.185718,-34.7578976 25.168807,-57.261636 55.707268,-73.815871 25.8712,-14.024228 60.1699,-14.329952 85.33239,-0.760638 33.30019,17.95771 51.82799,43.6745339 58.01958,80.531909 1.439,8.566085 1.53362,12.987224 1.53362,71.656751 v 62.52741 H 163.52325 61.956562 Z M 256.36092,112.18052 C 256.08712,56.089868 255.99037,52.671061 254.474,45.502603 249.59639,22.444389 239.98666,4.0510094 226.52023,-8.0018511 218.30022,-15.359013 206.7382,-23.334279 199.23876,-26.82011 172.18384,-39.395565 140.92109,-36.854263 115.87535,-20.043644 92.085336,-4.0758675 79.776167,13.943994 73.075376,42.612874 l -2.050816,8.774298 -0.273717,59.957698 -0.27371,59.9577 h 93.086197 93.08621 z M 85.270828,151.24704 c 0,-5.49175 0.876112,-6.33623 2.677395,-2.58073 1.527678,3.18504 4.817156,5.92332 7.115654,5.92332 1.808245,0 4.933513,-2.60901 4.933513,-4.11855 0,-1.62011 -2.572791,-3.43318 -6.713266,-4.7309 -5.379862,-1.68618 -7.238214,-3.6143 -7.238214,-7.50996 0,-5.98962 6.677865,-9.89395 11.833907,-6.9189 1.242407,0.71687 1.729706,0.71687 1.951346,0 0.162471,-0.5255 0.789527,-0.95547 1.393437,-0.95547 0.81423,0 1.09804,1.18794 1.09804,4.59606 0,3.52828 -0.27011,4.59606 -1.16263,4.59606 -0.63944,0 -1.173715,-0.65807 -1.187271,-1.46239 -0.08716,-5.17082 -7.905023,-7.87546 -10.082834,-3.48821 -1.201125,2.4197 0.07494,3.76707 5.042129,5.3239 6.152366,1.92831 7.778136,3.68396 7.778136,8.39952 0,3.24427 -0.3687,4.24852 -2.17469,5.92336 -2.545591,2.36073 -7.745946,2.75163 -10.358619,0.77866 -1.448326,-1.09372 -1.75069,-1.09372 -2.592608,0 -1.73119,2.24894 -2.313425,1.29867 -2.313425,-3.77577 z m 19.375312,3.64896 c 10e-4,-0.5209 0.69931,-1.14377 1.5519,-1.38416 1.43765,-0.40532 1.55017,-1.13983 1.55017,-10.11814 0,-8.77609 -0.14491,-9.77867 -1.55017,-10.72484 -2.64328,-1.77976 -1.74983,-2.31301 3.87542,-2.31301 5.18157,0 7.17359,0.98353 3.87541,1.91342 -1.31916,0.37193 -1.55016,1.13983 -1.55016,5.15304 v 4.716 l 4.40688,-0.25061 4.40689,-0.25061 -0.0734,-2.71585 c -0.0403,-1.49372 -0.10518,-3.50315 -0.14394,-4.46539 -0.0405,-1.00636 -0.72893,-1.93518 -1.62062,-2.18658 -3.29817,-0.92989 -1.30615,-1.91342 3.87541,-1.91342 5.09382,0 7.09295,1.03393 4.26297,2.20475 -0.94691,0.39176 -1.16262,2.40257 -1.16262,10.83719 0,8.64839 0.19172,10.35619 1.16262,10.35619 0.63944,0 1.16262,0.48617 1.16262,1.08039 0,0.79255 -1.36112,1.03191 -5.10899,0.89843 -5.37302,-0.19138 -7.198,-0.88918 -4.39343,-1.6799 1.92479,-0.54268 2.24379,-1.68809 1.86732,-6.70473 l -0.27182,-3.62197 h -4.1849 -4.18491 v 4.6743 c 0,3.97151 0.23307,4.74001 1.55016,5.11134 3.12062,0.87983 1.41525,1.78319 -3.87716,2.05377 -3.67934,0.18812 -5.42676,-0.0276 -5.42557,-0.66961 z m 27.1295,-0.0974 c 7e-5,-0.57451 0.6977,-1.04456 1.55029,-1.04456 1.46704,0 1.55016,-0.55711 1.55016,-10.38928 0,-9.65538 -0.1095,-10.42676 -1.55016,-10.91973 -3.8979,-1.33382 -0.81542,-2.08912 8.52591,-2.08912 h 10.07605 v 4.59607 c 0,4.71081 -1.1491,6.19197 -1.99264,2.56844 -0.88886,-3.81825 -5.04215,-6.06307 -8.55413,-4.62348 -1.57387,0.64515 -1.85453,1.32496 -1.85453,4.49197 0,2.05248 0.31731,3.94321 0.70514,4.20164 1.25549,0.83656 3.17163,-0.50397 3.64852,-2.55251 0.25569,-1.09832 0.95025,-1.99695 1.54348,-1.99695 0.81869,0 1.0786,1.40958 1.0786,5.84953 0,6.40592 -1.27107,7.88987 -2.86308,3.34259 -0.598,-1.7081 -1.40542,-2.50695 -2.53385,-2.50695 -1.52645,0 -1.63797,0.37639 -1.42373,4.80498 l 0.23246,4.80498 2.9658,0.26316 c 3.73215,0.33116 6.42606,-1.50065 7.1045,-4.83092 0.86531,-4.24754 2.03708,-2.86049 1.78838,2.11694 l -0.23245,4.6522 -9.88243,0.15277 c -7.46483,0.11541 -9.88239,-0.10275 -9.88229,-0.89177 z m 23.2518,0 c 5.4e-4,-0.57451 0.69836,-1.04456 1.55096,-1.04456 1.46705,0 1.55017,-0.55711 1.55017,-10.38928 0,-9.65538 -0.1095,-10.42676 -1.55017,-10.91973 -3.27997,-1.12237 -1.30726,-2.08912 4.26295,-2.08912 5.58585,0 7.54135,0.96728 4.23956,2.09712 -1.48417,0.50786 -1.56118,1.11612 -1.35638,10.71081 l 0.21715,10.17238 2.48319,0.25897 c 3.36764,0.35121 5.56961,-1.08757 6.89381,-4.50448 0.60908,-1.57162 1.45152,-2.8575 1.87208,-2.8575 0.82858,0 0.87929,4.16016 0.0917,7.52083 l -0.48962,2.08911 h -9.88308 c -7.39018,0 -9.88291,-0.26348 -9.8823,-1.04455 z m 23.25287,0.0974 c 2.2e-4,-0.5209 0.69796,-1.14377 1.55054,-1.38416 1.44237,-0.40665 1.55017,-1.13983 1.55017,-10.54304 0,-9.42414 -0.10083,-10.10601 -1.4948,-10.10601 -2.01,0 -3.90908,2.1811 -4.45325,5.11462 -0.76675,4.13325 -1.80277,2.63465 -1.80277,-2.60767 v -5.01389 h 9.97622 9.97621 l 0.51746,4.2056 c 0.7135,5.79898 -0.20499,6.80723 -2.17338,2.38569 -1.27091,-2.85485 -2.10946,-3.72563 -3.788,-3.93347 l -2.15576,-0.26694 0.21806,10.2947 c 0.21259,10.03626 0.26297,10.30158 2.00665,10.56807 0.98373,0.15033 1.67,0.65696 1.52505,1.12582 -0.37603,1.21622 -11.45288,1.37163 -11.4524,0.16068 z m 18.60329,-0.0394 c -5.5e-4,-0.54255 0.78384,-1.10661 1.74301,-1.25347 1.69787,-0.25999 1.74393,-0.53185 1.74393,-10.29481 0,-9.59766 -0.0748,-10.06315 -1.74393,-10.85266 -3.44159,-1.62788 -1.58912,-2.09985 8.24174,-2.09985 9.70031,0 9.99903,0.0538 10.45302,1.8802 1.33556,5.37302 -0.40136,9.60339 -1.96166,4.77777 -1.07654,-3.32951 -5.00799,-5.38299 -7.97636,-4.16624 -1.75469,0.71927 -1.97477,1.27744 -1.97477,5.00841 0,4.975 1.60179,5.70627 3.71769,1.69726 0.72618,-1.37591 1.58194,-2.50403 1.90165,-2.50695 0.31973,-0.003 0.58132,2.62702 0.58132,5.84426 0,3.21724 -0.26159,5.84715 -0.58132,5.84425 -0.31971,-0.003 -1.17547,-1.13104 -1.90165,-2.50694 -0.72619,-1.37592 -1.87716,-2.50167 -2.55771,-2.50167 -1.01657,0 -1.19587,0.85735 -1.00488,4.80498 l 0.23244,4.80496 2.98258,0.26426 c 3.37202,0.29873 5.25207,-1.07605 6.72916,-4.92072 1.29379,-3.36755 2.30412,-3.06457 2.29145,0.68715 -0.0227,6.69129 0.3386,6.47626 -10.87877,6.47626 -7.19621,0 -10.03629,-0.27912 -10.03694,-0.98644 z m 23.5745,0.63824 c -0.78637,-0.84779 -0.18716,-1.64548 1.42098,-1.89171 1.68101,-0.2574 1.75182,-0.62152 1.96235,-10.0917 0.21786,-9.79966 0.21342,-9.82712 -1.74394,-10.78865 -3.90421,-1.91787 -1.97561,-2.54783 6.8731,-2.24497 10.11618,0.34622 12.09178,1.36168 12.09178,6.21516 0,2.93029 -1.35014,4.91559 -3.94737,5.80433 -1.58711,0.54309 -1.58879,0.57017 -0.10541,1.69036 0.82914,0.62613 1.95115,2.84666 2.49336,4.93451 1.09752,4.22626 1.34353,4.43386 2.76701,2.33503 0.545,-0.80359 1.25767,-1.17347 1.5837,-0.82197 0.91964,0.99151 -2.35241,5.17479 -4.28936,5.48387 -2.57469,0.41083 -4.45846,-1.9584 -4.8977,-6.15985 -0.46386,-4.43687 -1.66344,-6.23309 -4.16275,-6.23309 -1.72072,0 -1.8428,0.30968 -1.8428,4.67429 0,3.97152 0.23306,4.74001 1.55017,5.11135 0.85259,0.24039 1.55016,0.86325 1.55016,1.38415 0,0.8934 -10.51346,1.45046 -11.30328,0.59891 z m 14.4036,-15.11127 c 3.13031,-3.37489 1.40618,-7.52082 -3.12759,-7.52082 h -3.07306 v 4.59605 c 0,4.54964 0.0235,4.59607 2.32525,4.59607 1.29181,0 3.01421,-0.7428 3.8754,-1.6713 z m -123.05797,-56.191454 0.28191,-31.133689 2.04679,-6.054408 c 1.12573,-3.329923 3.2017,-8.401602 4.61325,-11.270384 3.09242,-6.284902 12.4639,-16.602294 18.7064,-20.594533 16.57016,-10.5970507 37.96322,-10.5970507 54.5279,0 2.42625,1.552171 7.24125,5.83046 10.70001,9.507312 5.01238,5.328453 6.94155,8.126692 9.50589,13.788185 5.19426,11.467827 5.69978,15.96275 5.45086,48.467549 l -0.21438,27.994182 -52.95026,0.21472 -52.95026,0.21473 z m 56.10103,25.118434 c -0.2715,-1.46357 -1.06672,-3.34377 -1.76718,-4.17825 -1.21026,-1.44182 -1.11948,-1.51722 1.82679,-1.51722 1.97926,0 3.53384,-0.52878 4.29921,-1.46237 1.26296,-1.54058 5.24204,-11.751457 5.24204,-13.451844 0,-0.681529 0.67138,-0.79577 2.13147,-0.362665 4.11402,1.220321 21.99068,-0.556445 25.51444,-2.535875 3.62979,-2.038966 6.91371,-9.917902 6.54351,-15.699514 -0.0923,-1.441654 -12.76748,-8.184741 -21.98188,-11.694206 -3.26011,-1.241657 -5.2318,-2.45729 -5.2318,-3.225611 0,-0.678165 -0.54493,-2.771385 -1.21095,-4.651621 -1.08536,-3.063999 -2.00776,-3.890349 -8.89284,-7.966578 -6.18632,-3.662574 -7.68587,-4.916007 -7.70248,-6.438287 -0.021,-1.925659 -4.42174,-20.814583 -5.14217,-22.07135 -0.95174,-1.660269 -1.64883,-0.323716 -2.53473,4.859875 -0.52167,3.052418 -1.73422,7.141193 -2.69458,9.086167 l -1.74608,3.536331 -2.50484,-5.952487 c -2.75721,-6.552251 -6.62162,-12.179575 -7.6222,-11.099376 -0.35253,0.380575 -0.65322,6.394834 -0.66819,13.36502 -0.0216,10.073615 -0.28568,13.187272 -1.2872,15.179996 -1.62704,3.237325 -4.76324,6.325871 -9.22908,9.088834 -1.96227,1.214023 -4.13464,2.882651 -4.82746,3.708036 -0.69282,0.825385 -2.65602,6.18061 -4.36267,11.900512 -3.00793,10.081185 -3.83005,11.956529 -7.64078,17.429381 -1.62973,2.340556 -1.66574,2.580087 -0.38754,2.577255 2.3164,-0.0051 6.25824,-3.063116 8.55524,-6.636929 1.1852,-1.844027 3.89886,-6.615706 6.03033,-10.603729 5.13723,-9.611829 9.10048,-13.882167 16.06519,-17.309929 3.10042,-1.525911 6.11581,-3.400547 6.70087,-4.165873 1.64945,-2.157628 2.36336,-1.677573 2.90156,1.951098 0.56444,3.80567 0.39358,3.734512 5.21249,2.170903 l 3.61105,-1.171689 v 3.206408 c 0,1.763524 -0.37056,4.257178 -0.82343,5.541456 -0.61083,1.732125 -0.58609,2.420352 0.0958,2.665411 2.86936,1.031188 5.22326,5.058047 6.91013,11.821291 0.97438,3.906648 2.43213,8.362509 3.23946,9.90192 1.46115,2.786166 1.45943,2.818478 -0.37957,7.102993 -1.01605,2.367257 -2.23802,5.338197 -2.71547,6.602122 -0.79792,2.112234 -1.21038,2.298024 -5.10192,2.298024 -4.05268,0 -6.02747,0.95492 -4.32322,2.09052 0.44136,0.29408 1.67367,2.38829 2.73849,4.65379 2.22797,4.74027 3.91331,5.51786 3.16021,1.45809 z m -77.101979,-2.64861 c -1.79007,-2.05433 -1.79571,-2.1168 -0.380385,-4.2111 1.778968,-2.632392 1.927271,-2.639418 4.059478,-0.19244 l 1.730447,1.98591 -1.79626,2.25144 -1.796253,2.25146 z m 144.908759,-0.0362 c -1.75754,-2.01701 -1.76298,-2.08214 -0.34877,-4.1748 1.78947,-2.64791 1.91809,-2.649961 4.16932,-0.0665 l 1.84027,2.11194 -1.93772,2.08911 -1.93771,2.08911 -1.78539,-2.04895 z m -10.9259,-22.230469 c 0,-10.690417 0.43553,-12.699225 1.94768,-8.983199 0.73229,1.799559 1.16404,1.880206 10.06609,1.880206 9.05537,0 9.30754,-0.04965 9.54868,-1.880206 0.13622,-1.034111 0.5722,-1.880206 0.96884,-1.880206 0.39665,0 0.72118,2.820304 0.72118,6.267351 0,5.937982 -0.89012,8.243159 -1.77474,4.596054 -0.37693,-1.554007 -1.05722,-1.671295 -9.69491,-1.671295 -9.19169,0 -9.29451,0.02134 -9.76237,2.031129 -0.77395,3.324661 0.77628,6.260529 4.17102,7.899154 3.85907,1.862768 3.2731,2.604438 -2.0577,2.604438 h -4.13377 z M 96.121976,89.388478 c 0,-0.470977 0.784775,-1.178859 1.743935,-1.573056 5.377399,-2.210026 7.768119,-8.822624 4.121159,-11.398925 -2.883978,-2.037315 -4.636234,-0.500746 -6.176016,5.415798 -0.799333,3.071415 -1.965126,5.52332 -2.996427,6.302114 -2.01075,1.518434 -6.661248,1.631341 -8.386046,0.203618 -2.857101,-2.365022 -3.873568,-7.373502 -2.186278,-10.772583 0.612459,-1.23381 0.612459,-1.958812 0,-2.619128 -1.610204,-1.736032 -0.82974,-2.250103 3.416062,-2.250103 4.197188,0 5.664027,1.079235 2.799206,2.059544 -2.297259,0.786107 -5.511988,4.381359 -5.511988,6.164454 0,0.890245 0.632026,2.460132 1.404506,3.488652 2.330132,3.102456 4.549045,1.612847 6.013157,-4.036789 1.497975,-5.780278 4.000646,-8.511503 7.799283,-8.511503 5.569851,0 8.778821,6.448883 6.468691,12.99978 -0.53475,1.516382 -0.53692,2.576178 -0.007,3.264959 0.43176,0.560887 0.55552,1.26723 0.27502,1.569651 -0.83728,0.902729 -8.777518,0.625481 -8.777518,-0.306483 z M 224.25909,64.966447 c -0.65307,-5.153259 0.0129,-7.257958 1.43179,-4.524548 0.56461,1.087719 1.04276,1.159595 2.6059,0.391736 1.56014,-0.766392 1.91444,-1.544386 1.91444,-4.203827 0,-1.794861 -0.36107,-3.990751 -0.80236,-4.879745 -1.06012,-2.135646 -3.87584,-2.100472 -4.39864,0.05488 -0.54157,2.232818 -1.66115,2.121254 -2.09647,-0.208911 -1.47705,-7.906549 -1.31268,-8.473612 1.60081,-5.522654 1.09503,1.109116 5.6808,2.965709 12.06372,4.884125 6.4883,1.950083 10.37634,3.530556 10.51113,4.272709 0.13936,0.767387 -3.43944,3.140871 -10.26985,6.811004 -6.50186,3.493637 -10.48376,6.110775 -10.48376,6.890605 0,0.691572 -0.31834,1.257403 -0.70742,1.257403 -0.38906,0 -1.00525,-2.35025 -1.36929,-5.222787 z M 239.51221,54.24463 c 0,-0.473829 -5.89748,-2.439636 -7.31897,-2.439636 -0.58449,0 -0.55239,5.441042 0.0358,6.075232 0.54114,0.583392 7.28316,-2.782094 7.28316,-3.635596 z M 102.56997,67.776073 c -0.2325,-0.958511 -4.309846,-3.975139 -10.391059,-7.687832 -5.504627,-3.360676 -10.00841,-6.546332 -10.00841,-7.079246 0,-0.822534 10.529268,-3.933021 20.024979,-5.915662 1.4221,-0.296922 2.76737,-1.050451 2.98949,-1.674516 0.22211,-0.624055 0.71532,-1.134648 1.09601,-1.134648 0.78173,0 0.77434,4.991227 -0.013,8.774299 -0.51982,2.497562 -0.52539,2.499881 -1.48948,0.619213 -0.77217,-1.506309 -1.39213,-1.778049 -3.06817,-1.34483 -1.15526,0.298594 -2.148232,0.584018 -2.2066,0.634271 -0.05838,0.05026 -0.348879,2.035653 -0.645563,4.41202 -0.491528,3.936928 -0.383457,4.410675 1.216813,5.334043 1.52236,0.878407 1.9464,0.760196 3.18396,-0.887558 1.91058,-2.543825 2.2148,-1.955498 1.64956,3.190006 -0.4783,4.354012 -1.62398,5.706402 -2.33853,2.76044 z M 97.089804,57.027801 c 0.199287,-1.723528 0.278907,-3.245675 0.176934,-3.382535 -0.101972,-0.13687 -2.050526,0.26061 -4.33012,0.88329 l -4.144715,1.132135 3.471262,2.242481 c 1.909202,1.233369 3.6947,2.246051 3.967785,2.250391 0.273082,0.0041 0.659563,-1.402254 0.858854,-3.125762 z M 218.29678,37.177145 c -3.58829,-5.826654 -3.75911,-7.436988 -0.56045,-5.283298 1.23882,0.834114 2.46625,0.274171 8.24314,-3.760412 3.73317,-2.607239 6.29971,-4.736905 5.70343,-4.732566 -0.59628,0.0041 -5.00799,1.268871 -9.80382,2.810087 -5.33986,1.71605 -8.71427,2.441781 -8.70572,1.872328 0.008,-0.511434 2.76493,-4.314262 6.12725,-8.450716 3.36231,-4.136453 5.99981,-7.647457 5.8611,-7.802237 -0.13871,-0.15477 -3.07036,1.667633 -6.51479,4.049795 -4.91053,3.396106 -6.26259,4.75421 -6.26259,6.290533 0,3.239357 -1.24152,3.060881 -3.42227,-0.491944 -1.96192,-3.196345 -2.11538,-6.261627 -0.21066,-4.208074 1.46409,1.578493 2.9914,1.022294 9.40112,-3.423586 8.28715,-5.7481207 8.67257,-6.1423182 7.49775,-7.6685067 -0.5931,-0.770485 -0.65782,-1.4089823 -0.17539,-1.7304315 0.72149,-0.480753 5.5154,6.1463492 5.50793,7.6141912 -0.001,0.3768 -1.92024,3.001621 -4.26295,5.832942 -2.3427,2.831321 -4.25947,5.325827 -4.25947,5.543333 0,0.217517 2.85958,-0.500848 6.35463,-1.596352 3.49503,-1.095514 6.60097,-1.991831 6.90208,-1.991831 1.00205,0 4.657,7.52899 4.11443,8.475478 -0.35973,0.627543 -0.7642,0.487462 -1.24017,-0.429515 -0.38848,-0.748431 -1.0123,-1.360791 -1.38623,-1.360791 -0.37394,0 -4.04567,2.334391 -8.15943,5.18753 -6.45004,4.473526 -7.4323,5.453937 -7.13637,7.122955 0.61819,3.486467 -0.75057,2.77836 -3.61255,-1.868912 z m -110.54857,0.976257 c 0,-1.665182 -1.16916,-2.527444 -7.944592,-5.859203 -4.369523,-2.148673 -8.254931,-3.902329 -8.634227,-3.897005 -0.379304,0.0051 -1.110832,0.630702 -1.625625,1.389739 -0.514796,0.759037 -1.141209,1.022068 -1.392031,0.584511 -0.250821,-0.437558 0.91669,-3.911356 2.594479,-7.71957 1.677785,-3.808214 3.050516,-7.183927 3.050516,-7.501581 0,-0.317654 0.535571,-1.401936 1.19015,-2.409509 l 1.19015,-1.831954 3.460347,1.812535 c 1.903183,0.996896 3.460343,2.113644 3.460343,2.481663 0,0.36802 -1.30795,0.674893 -2.90656,0.68193 -3.308264,0.01457 -4.025198,0.419267 -5.858045,3.306811 -1.995128,3.14322 -1.62614,4.115179 2.240665,5.902214 4.31417,1.99377 3.93055,2.001689 4.43831,-0.09171 0.26466,-1.091165 -0.1565,-2.355318 -1.136816,-3.412232 -2.484427,-2.678561 -1.091682,-2.764368 4.355616,-0.268323 5.60077,2.566351 6.41548,3.746307 2.47648,3.586655 -5.64445,-0.22878 -5.86644,2.464594 -0.42941,5.210149 3.85623,1.947303 3.98226,1.957642 5.03003,0.412764 2.13877,-3.153498 2.0915,-0.319305 -0.0762,4.570493 -2.34193,5.282764 -3.48357,6.282839 -3.48357,3.051628 z m 9.11792,-14.40069 c -0.27542,-0.296954 -0.0883,-1.251987 0.41582,-2.122301 0.80843,-1.395658 0.12942,-2.431071 -5.75389,-8.774104 -5.94495,-6.4095032 -6.84537,-7.0908067 -8.27845,-6.263914 -3.71924,2.1460169 -1.95593,-0.9243625 4.52523,-7.8795812 l 6.92308,-7.4294788 2.7258,2.84839 c 3.13427,3.275228 3.48681,4.641056 0.98187,3.8040183 -4.71045,-1.5740411 -5.31949,-1.5055805 -7.60461,0.8547735 -1.25273,1.29397203 -2.27769,2.7859609 -2.27769,3.3155309 0,0.5295699 1.17981,2.1203518 2.62179,3.535058 1.9315,1.8949775 2.84981,2.3263493 3.48787,1.6384295 1.07579,-1.1598511 1.12816,-3.66882 0.091,-4.3599095 -1.10393,-0.7355776 -0.95951,-2.08911678 0.2229,-2.08911678 1.37453,0 8.61823,8.04778878 7.759,8.62030818 -0.38094,0.2538399 -1.19917,0.1160672 -1.81826,-0.3061752 -1.54417,-1.0531904 -4.41036,-0.9880738 -5.04242,0.114549 -0.67802,1.1827981 4.20801,6.6129671 5.95031,6.6129671 1.71043,0 4.55617,-3.859718 4.54993,-6.1711323 -0.002,-0.9721331 -0.50206,-2.7952647 -1.10985,-4.0513957 -1.71361,-3.5415308 -0.2244,-3.4231248 3.0991,0.246403 l 3.01147,3.3250193 -6.98961,7.5357907 c -3.84428,4.14468 -7.21497,7.292824 -7.49039,6.995871 z m 83.39177,-11.07565 c -4.77716,-3.6801449 -5.26643,-4.6731732 -2.32224,-4.7133325 1.90689,-0.025952 2.90487,-1.1007867 7.1619,-7.71300453 4.61668,-7.17083827 5.57725,-10.28363397 3.1734,-10.28363397 -0.59491,0 -0.60337,-0.262846 -0.0284,-0.882756 0.57498,-0.619901 2.11174,0.06442 5.16109,2.2980372 4.49852,3.2951794 5.24671,5.0151585 2.01338,4.6283568 -1.56969,-0.1877795 -2.64821,0.9955825 -6.71435,7.3669677 -4.81818,7.5497923 -5.54922,9.4191563 -4.06918,10.4053423 0.90238,0.601282 1.04731,2.11788 0.19377,2.027703 -0.31972,-0.03375 -2.37594,-1.443941 -4.56937,-3.13368 z m -9.2663,-5.8034613 c -0.46917,-0.3362614 -2.17291,-4.9358653 -3.78609,-10.2213377 -4.16876,-13.65864 -4.30918,-13.877275 -5.6356,-8.774289 -2.84881,10.9598498 -2.86824,11.14558808 -1.35555,12.94771175 2.01445,2.39987735 1.22416,2.68824495 -3.35202,1.22308025 -3.68423,-1.17959738 -5.43869,-2.88955458 -2.96473,-2.88955458 1.93022,0 3.60054,-3.02121372 5.54744,-10.03396842 2.3013,-8.289402 2.34597,-9.096272 0.58079,-10.487857 -2.1561,-1.699792 -0.70887,-2.182422 3.18088,-1.060781 3.10383,0.895015 3.70062,1.43079 4.45122,3.996178 2.712,9.269064 4.87579,15.0844653 5.39374,14.4961181 0.56752,-0.6446524 3.0559,-9.0904751 3.0559,-10.3720351 0,-0.34335 -0.56469,-1.233113 -1.25489,-1.977236 -1.87215,-2.01845 -0.76141,-2.466932 3.17038,-1.280083 3.50102,1.056822 4.8864,3.3493 2.02404,3.3493 -1.63246,0 -2.49962,2.052302 -6.0842,14.399572 -1.38492,4.7704583 -2.41359,7.0849082 -2.97131,6.6851817 z m -45.26435,-5.006439 c 0,-0.3490427 0.65676,-1.07683464 1.45945,-1.61729838 1.38104,-0.92987091 1.9977,-2.74522712 6.2606,-18.43033932 0.93119,-3.426233 2.07608,-6.05844 2.63515,-6.05844 0.54372,0 3.31292,5.076552 6.15377,11.281238 3.24402,7.0852466 5.60284,11.2812365 6.34187,11.2812365 0.64719,0 1.17671,0.3274705 1.17671,0.72770993 0,0.86576983 -9.24401,2.11921327 -9.95732,1.35017461 -0.27136,-0.29256313 0.11409,-0.89846148 0.85655,-1.3464305 1.23476,-0.74499434 1.24977,-1.02330934 0.17589,-3.26223134 -1.11428,-2.3231591 -1.36086,-2.4208442 -4.84426,-1.9191037 -2.01862,0.2907577 -3.92647,0.9408775 -4.23966,1.4447106 -1.07839,1.7347914 -0.58991,3.99820897 0.95698,4.43434048 2.27746,0.64210843 1.89016,1.63119772 -0.87196,2.22678692 -3.28953,0.7093177 -6.10377,0.6575157 -6.10377,-0.1123538 z m 12.96033,-10.594148 c 0.38622,-0.323552 -3.09249,-7.1554617 -3.64345,-7.1554617 -0.32848,0 -0.8068,1.034121 -1.06298,2.298038 -0.25618,1.263916 -0.69569,3.17069 -0.97669,4.2372772 -0.48833,1.8535359 -0.3778,1.9132774 2.50036,1.3515287 1.6562,-0.3232545 3.08845,-0.6523663 3.18276,-0.7313822 z"
       id="path828"
       inkscape:connector-curvature="0" />
  </g>
</svg>
