<?xml version="1.0" encoding="UTF-8" standalone="no"?>
<!-- Created with Inkscape (http://www.inkscape.org/) -->

<svg
   xmlns:dc="http://purl.org/dc/elements/1.1/"
   xmlns:cc="http://creativecommons.org/ns#"
   xmlns:rdf="http://www.w3.org/1999/02/22-rdf-syntax-ns#"
   xmlns:svg="http://www.w3.org/2000/svg"
   xmlns="http://www.w3.org/2000/svg"
   xmlns:xlink="http://www.w3.org/1999/xlink"
   xmlns:sodipodi="http://sodipodi.sourceforge.net/DTD/sodipodi-0.dtd"
   xmlns:inkscape="http://www.inkscape.org/namespaces/inkscape"
   width="11.3in"
   height="11.3in"
   viewBox="0 0 287.02 287.02001"
   version="1.1"
   id="svg2074"
   inkscape:version="0.92.4 (5da689c313, 2019-01-14)"
   sodipodi:docname="Donations - Side of Podium.svg">
  <defs
     id="defs2068">
    <path
       sodipodi:nodetypes="cc"
       inkscape:connector-curvature="0"
       id="path7406"
       d="m 376.48671,1207.3178 c 6.20181,-20.0133 40.57418,-21.6178 46.71846,-0.4008"
       style="fill:none;stroke:none;stroke-width:0.36000001;stroke-linecap:butt;stroke-linejoin:miter;stroke-miterlimit:4;stroke-dasharray:none;stroke-opacity:1" />
  </defs>
  <sodipodi:namedview
     id="base"
     pagecolor="#ffffff"
     bordercolor="#666666"
     borderopacity="1.0"
     inkscape:pageopacity="0.0"
     inkscape:pageshadow="2"
     inkscape:zoom="0.66449955"
     inkscape:cx="714.31402"
     inkscape:cy="511.32078"
     inkscape:document-units="in"
     inkscape:current-layer="layer1"
     showgrid="false"
     units="in"
     showguides="true"
     inkscape:guide-bbox="true"
     inkscape:window-width="1920"
     inkscape:window-height="1017"
     inkscape:window-x="-8"
     inkscape:window-y="-8"
     inkscape:window-maximized="1" />
  <metadata
     id="metadata2071">
    <rdf:RDF>
      <cc:Work
         rdf:about="">
        <dc:format>image/svg+xml</dc:format>
        <dc:type
           rdf:resource="http://purl.org/dc/dcmitype/StillImage" />
        <dc:title></dc:title>
      </cc:Work>
    </rdf:RDF>
  </metadata>
  <g
     inkscape:label="Layer 1"
     inkscape:groupmode="layer"
     id="layer1"
     transform="translate(0,-9.979985)">
    <text
       xml:space="preserve"
       style="font-style:normal;font-variant:normal;font-weight:normal;font-stretch:normal;font-size:16.93333435px;line-height:1.25;font-family:'Segoe UI';-inkscape-font-specification:'Segoe UI';letter-spacing:0px;word-spacing:0px;fill:#000000;fill-opacity:1;stroke:none;stroke-width:0.26458335"
       x="-451.30359"
       y="111.03573"
       id="text2637"><tspan
         sodipodi:role="line"
         id="tspan2635"
         x="-451.30359"
         y="111.03573"
         style="stroke-width:0.26458335">L</tspan></text>
    <path
       style="fill:#00006e;fill-opacity:1;stroke:#000000;stroke-width:0.06483842;stroke-miterlimit:4;stroke-dasharray:none;stroke-opacity:1"
       d="m 49.762965,230.48135 0.259697,-64.15326 1.95726,-8.31084 c 7.979981,-33.8843 24.536225,-55.82244 54.307138,-71.960615 25.22097,-13.67174 58.65763,-13.96978 83.1877,-0.74151 32.46323,17.506355 50.52536,42.576835 56.56133,78.507845 1.40284,8.35079 1.49508,12.66081 1.49508,69.85577 v 60.95588 H 148.51723 49.503274 Z m 189.258595,-2.44393 c -0.26692,-54.6809 -0.36124,-58.01378 -1.8395,-65.00207 -4.75501,-22.47868 -14.12322,-40.40976 -27.25118,-52.15969 -8.01341,-7.17226 -19.28483,-14.947075 -26.59579,-18.345295 -26.37495,-12.25938 -56.85194,-9.78195 -81.2682,6.60616 C 78.874805,114.70297 66.875009,132.26993 60.342632,160.21825 l -1.999272,8.55377 -0.266836,58.45075 -0.266832,58.45076 H 148.5563 239.30293 Z M 72.23157,266.12206 c 0,-5.35372 0.854092,-6.17698 2.610102,-2.51587 1.489283,3.10499 4.696083,5.77445 6.936813,5.77445 1.762797,0 4.809516,-2.54344 4.809516,-4.01504 0,-1.57939 -2.508128,-3.34689 -6.544537,-4.61199 -5.244648,-1.6438 -7.056293,-3.52346 -7.056293,-7.32121 0,-5.83908 6.510026,-9.64528 11.53648,-6.745 1.21118,0.69885 1.686232,0.69885 1.902301,0 0.158387,-0.5123 0.769681,-0.93146 1.358416,-0.93146 0.793763,0 1.070438,1.15808 1.070438,4.48055 0,3.4396 -0.263316,4.48054 -1.133406,4.48054 -0.623369,0 -1.144215,-0.64153 -1.157431,-1.42563 -0.08497,-5.04086 -7.706341,-7.67753 -9.829416,-3.40054 -1.170936,2.35888 0.07306,3.67239 4.915403,5.19009 5.997733,1.87984 7.582646,3.59137 7.582646,8.18841 0,3.16273 -0.359429,4.14174 -2.120035,5.77448 -2.481612,2.3014 -7.551264,2.68248 -10.09827,0.75909 -1.411925,-1.06623 -1.706689,-1.06623 -2.527447,0 -1.687679,2.19242 -2.25528,1.26603 -2.25528,-3.68087 z m 18.888339,3.55725 c 0.0013,-0.50781 0.681741,-1.11502 1.512903,-1.34937 1.401503,-0.39513 1.511202,-1.11118 1.511202,-9.86384 0,-8.55551 -0.141269,-9.53289 -1.511202,-10.45528 -2.576856,-1.73503 -1.705853,-2.25488 3.778007,-2.25488 5.051331,0 6.993301,0.95881 3.778011,1.86533 -1.286004,0.36258 -1.511202,1.11118 -1.511202,5.02353 v 4.59747 l 4.296122,-0.24432 4.29613,-0.24431 -0.0716,-2.64759 c -0.0393,-1.45618 -0.10254,-3.4151 -0.14032,-4.35316 -0.0395,-0.98106 -0.71062,-1.88654 -1.57989,-2.13162 -3.21528,-0.90652 -1.27332,-1.86533 3.77801,-1.86533 4.96579,0 6.91467,1.00794 4.15582,2.14934 -0.92311,0.38191 -1.1334,2.34218 -1.1334,10.56481 0,8.43103 0.18689,10.0959 1.1334,10.0959 0.62337,0 1.1334,0.47395 1.1334,1.05324 0,0.77263 -1.32691,1.00597 -4.98058,0.87585 -5.23798,-0.18657 -7.0171,-0.86683 -4.28302,-1.63768 1.87642,-0.52904 2.18741,-1.64566 1.8204,-6.53622 l -0.26499,-3.53093 h -4.07972 -4.079728 v 4.55682 c 0,3.87169 0.227206,4.62087 1.511198,4.98287 3.04219,0.85772 1.37968,1.73837 -3.779709,2.00215 -3.586869,0.18339 -5.290367,-0.0269 -5.289209,-0.65278 z m 26.447641,-0.095 c 7e-5,-0.56007 0.68017,-1.01831 1.51132,-1.01831 1.43018,0 1.51121,-0.5431 1.51121,-10.12816 0,-9.4127 -0.10675,-10.1647 -1.51121,-10.64528 -3.79992,-1.30029 -0.79492,-2.03661 8.31163,-2.03661 h 9.82281 v 4.48055 c 0,4.59242 -1.12022,6.03635 -1.94256,2.50389 -0.86652,-3.72228 -4.91542,-5.91068 -8.33915,-4.50727 -1.5343,0.62893 -1.80791,1.29165 -1.80791,4.37907 0,2.00089 0.30934,3.8441 0.68742,4.09603 1.22393,0.81554 3.09192,-0.4913 3.55682,-2.48835 0.24926,-1.07072 0.92636,-1.94676 1.50469,-1.94676 0.7981,0 1.05148,1.37415 1.05148,5.70251 0,6.24492 -1.23911,7.69157 -2.79111,3.25858 -0.58298,-1.66517 -1.3701,-2.44394 -2.47017,-2.44394 -1.48808,0 -1.5968,0.36693 -1.38794,4.68421 l 0.22661,4.68421 2.89126,0.25655 c 3.63835,0.32284 6.26455,-1.46293 6.92594,-4.7095 0.84356,-4.14079 1.98588,-2.7886 1.74343,2.06373 l -0.2266,4.53528 -9.63405,0.14893 c -7.27722,0.11251 -9.63401,-0.10017 -9.63392,-0.86936 z m 22.6674,0 c 5.3e-4,-0.56007 0.68081,-1.01831 1.51198,-1.01831 1.43018,0 1.5112,-0.5431 1.5112,-10.12816 0,-9.4127 -0.10674,-10.1647 -1.5112,-10.64528 -3.19753,-1.09416 -1.2744,-2.03661 4.1558,-2.03661 5.44547,0 7.35181,0.94297 4.13302,2.04441 -1.44688,0.4951 -1.52196,1.08807 -1.3223,10.44161 l 0.21169,9.91671 2.42079,0.25247 c 3.283,0.34238 5.42962,-1.06024 6.72054,-4.39127 0.59377,-1.53212 1.41503,-2.78568 1.82503,-2.78568 0.80775,0 0.85718,4.0556 0.0894,7.3318 l -0.47731,2.03661 h -9.63469 c -7.20444,0 -9.63451,-0.25686 -9.63392,-1.0183 z m 22.66845,0.095 c 2e-4,-0.50781 0.68041,-1.11502 1.51157,-1.34937 1.40613,-0.39643 1.51122,-1.11118 1.51122,-10.27806 0,-9.18728 -0.0983,-9.85201 -1.45724,-9.85201 -1.9595,0 -3.81084,2.12628 -4.34134,4.98607 -0.74747,4.02937 -1.75745,2.56844 -1.75745,-2.54213 v -4.88787 h 9.72549 9.72547 l 0.50445,4.0999 c 0.69558,5.65323 -0.19984,6.63614 -2.11874,2.32573 -1.23897,-2.7831 -2.05646,-3.63199 -3.69281,-3.83461 l -2.10158,-0.26023 0.21258,10.03596 c 0.20725,9.78401 0.25636,10.04266 1.95623,10.30245 0.959,0.14656 1.62802,0.64045 1.48671,1.09753 -0.36658,1.18565 -11.16503,1.33716 -11.16456,0.15664 z m 18.13572,-0.0384 c -5.3e-4,-0.52891 0.76415,-1.0788 1.6992,-1.22197 1.65521,-0.25345 1.70011,-0.51848 1.70011,-10.03606 0,-9.35644 -0.0729,-9.81023 -1.70011,-10.5799 -3.35508,-1.58696 -1.54918,-2.04707 8.0346,-2.04707 9.45651,0 9.74772,0.0524 10.1903,1.83295 1.30199,5.23797 -0.39127,9.36202 -1.91236,4.65768 -1.04948,-3.24582 -4.88212,-5.24769 -7.77588,-4.06152 -1.71059,0.70119 -1.92514,1.24533 -1.92514,4.88253 0,4.84996 1.56153,5.56285 3.62425,1.6546 0.70794,-1.34133 1.54218,-2.4411 1.85386,-2.44394 0.31169,-0.003 0.56671,2.56099 0.56671,5.69737 0,3.13638 -0.25502,5.70019 -0.56671,5.69736 -0.31168,-0.003 -1.14592,-1.10261 -1.85386,-2.44393 -0.70794,-1.34134 -1.82997,-2.43879 -2.49341,-2.43879 -0.99103,0 -1.16582,0.8358 -0.97964,4.68421 l 0.2266,4.6842 2.90762,0.25761 c 3.28728,0.29123 5.12006,-1.049 6.56003,-4.79704 1.26127,-3.28291 2.24621,-2.98755 2.23386,0.66988 -0.0221,6.52311 0.33009,6.31349 -10.60534,6.31349 -7.01535,0 -9.78405,-0.27211 -9.78469,-0.96165 z m 22.98199,0.6222 c -0.76659,-0.82648 -0.18245,-1.60412 1.38527,-1.84417 1.63876,-0.25093 1.70779,-0.60589 1.91303,-9.83806 0.21238,-9.55336 0.20805,-9.58013 -1.70011,-10.51749 -3.80608,-1.86967 -1.92596,-2.48379 6.70035,-2.18855 9.86192,0.33752 11.78787,1.32746 11.78787,6.05896 0,2.85664 -1.31621,4.79204 -3.84815,5.65844 -1.54722,0.52944 -1.54886,0.55584 -0.10276,1.64788 0.8083,0.61039 1.9021,2.77511 2.43068,4.81049 1.06993,4.12004 1.30976,4.32242 2.69746,2.27634 0.53131,-0.78339 1.22606,-1.14398 1.5439,-0.80131 0.89653,0.96659 -2.29329,5.04473 -4.18155,5.34604 -2.50997,0.4005 -4.3464,-1.90918 -4.7746,-6.00503 -0.4522,-4.32536 -1.62163,-6.07643 -4.05812,-6.07643 -1.67747,0 -1.79649,0.30189 -1.79649,4.55681 0,3.8717 0.22721,4.62087 1.51121,4.98288 0.83116,0.23435 1.5112,0.84155 1.5112,1.34936 0,0.87095 -10.24922,1.41401 -11.01919,0.58386 z m 14.04159,-14.73147 c 3.05162,-3.29007 1.37084,-7.3318 -3.04898,-7.3318 h -2.99583 v 4.48054 c 0,4.43529 0.0229,4.48055 2.26681,4.48055 1.25934,0 2.93845,-0.72413 3.778,-1.62929 z m -119.965091,-54.77917 0.27482,-30.35119 1.995341,-5.90224 c 1.09745,-3.24623 3.12123,-8.19044 4.49731,-10.98712 3.0147,-6.12694 12.15064,-16.18502 18.23624,-20.07691 16.1537,-10.33072 37.00908,-10.33072 53.15743,0 2.36527,1.51316 7.05926,5.68391 10.43108,9.26835 4.8864,5.19453 6.76709,7.92244 9.26697,13.44164 5.06371,11.1796 5.55653,15.56155 5.31386,47.24939 l -0.20899,27.29059 -51.61943,0.20933 -51.619443,0.20933 z m 54.691011,24.48712 c -0.26467,-1.42678 -1.03991,-3.25973 -1.72276,-4.07323 -1.17984,-1.40559 -1.09136,-1.47909 1.78087,-1.47909 1.92952,0 3.44502,-0.51549 4.19115,-1.42562 1.23122,-1.50186 5.11029,-11.4561 5.11029,-13.11375 0,-0.6644 0.6545,-0.77577 2.0779,-0.35355 4.01063,1.18965 21.43798,-0.54246 24.87318,-2.47214 3.53857,-1.98772 6.73994,-9.66863 6.37905,-15.30493 -0.09,-1.40542 -12.44658,-7.97903 -21.4294,-11.40029 -3.17817,-1.21045 -5.1003,-2.39553 -5.1003,-3.14454 0,-0.66112 -0.53124,-2.70173 -1.18052,-4.53471 -1.05807,-2.98699 -1.9573,-3.79257 -8.66933,-7.76635 -6.03085,-3.57052 -7.49271,-4.79245 -7.50889,-6.27647 -0.0205,-1.87726 -4.31061,-20.29144 -5.01294,-21.51661 -0.92781,-1.61855 -1.60739,-0.31558 -2.47102,4.73772 -0.50856,2.9757 -1.69064,6.96171 -2.62685,8.8578 l -1.70221,3.44745 -2.44187,-5.80288 c -2.68791,-6.38757 -6.45521,-11.87345 -7.43063,-10.8204 -0.34367,0.371 -0.6368,6.2341 -0.65139,13.0291 -0.0211,9.82043 -0.27851,12.85583 -1.25485,14.79847 -1.58615,3.15596 -4.64352,6.16688 -8.99712,8.8604 -1.91295,1.18351 -4.03072,2.8102 -4.70613,3.61484 -0.67541,0.80464 -2.58927,6.02527 -4.25303,11.60141 -2.93232,9.82781 -3.73378,11.65602 -7.44873,16.99132 -1.58877,2.28173 -1.62388,2.51524 -0.37781,2.51248 2.25819,-0.005 6.10096,-2.98613 8.34022,-6.47012 1.15542,-1.79768 3.80087,-6.44943 5.87877,-10.33722 5.0081,-9.37025 8.87175,-13.53326 15.66142,-16.87487 3.02249,-1.48756 5.96209,-3.31508 6.53245,-4.06117 1.60799,-2.1034 2.30396,-1.63541 2.82863,1.90206 0.55026,3.71002 0.38368,3.64065 5.08148,2.11634 l 3.52029,-1.14224 v 3.12582 c 0,1.7192 -0.36124,4.15018 -0.80274,5.40218 -0.59547,1.68859 -0.57136,2.35952 0.0934,2.59842 2.79725,1.00527 5.09199,4.93092 6.73645,11.52418 0.9499,3.80846 2.37101,8.15233 3.15804,9.65305 1.42443,2.71614 1.42275,2.74764 -0.37002,6.92447 -0.99052,2.30776 -2.18178,5.20403 -2.64723,6.43619 -0.77786,2.05915 -1.17995,2.24027 -4.97369,2.24027 -3.95082,0 -5.87598,0.93092 -4.21456,2.03797 0.43026,0.28669 1.6316,2.32827 2.66966,4.53683 2.17198,4.62113 3.81496,5.37918 3.08078,1.42144 z m -75.164136,-2.58204 c -1.745078,-2.0027 -1.750576,-2.0636 -0.370824,-4.10526 1.734257,-2.56623 1.878833,-2.57308 3.95745,-0.1876 l 1.686954,1.93599 -1.751113,2.19486 -1.751108,2.19487 z m 141.266696,-0.0353 c -1.71337,-1.96631 -1.71867,-2.02981 -0.34,-4.06987 1.74449,-2.58136 1.86988,-2.58336 4.06452,-0.0648 l 1.79401,2.05886 -1.88901,2.0366 -1.889,2.03661 -1.74052,-1.99746 z m -10.65129,-21.67174 c 0,-10.42173 0.42458,-12.38005 1.89872,-8.75742 0.71389,1.75433 1.13479,1.83295 9.8131,1.83295 8.82777,0 9.0736,-0.0484 9.30868,-1.83295 0.13279,-1.00812 0.55782,-1.83295 0.94449,-1.83295 0.38668,0 0.70305,2.74942 0.70305,6.10983 0,5.78874 -0.86775,8.03598 -1.73013,4.48054 -0.36746,-1.51495 -1.03065,-1.62929 -9.45124,-1.62929 -8.96067,0 -9.0609,0.0208 -9.517,1.98008 -0.7545,3.2411 0.75676,6.10318 4.06618,7.70062 3.76208,1.81595 3.19084,2.53898 -2.00598,2.53898 h -4.02987 z m -125.429901,4.86771 c 0,-0.45914 0.765051,-1.14923 1.700104,-1.53352 5.242245,-2.15448 7.572873,-8.60088 4.017579,-11.11243 -2.811491,-1.98611 -4.519707,-0.48816 -6.020789,5.27968 -0.779243,2.99422 -1.915737,5.3845 -2.921116,6.14372 -1.960214,1.48027 -6.493828,1.59034 -8.175276,0.1985 -2.785292,-2.30558 -3.776211,-7.18818 -2.131329,-10.50183 0.597066,-1.2028 0.597066,-1.90958 0,-2.5533 -1.569734,-1.6924 -0.808886,-2.19355 3.330205,-2.19355 4.091698,0 5.52167,1.05211 2.728852,2.00778 -2.239521,0.76635 -5.373453,4.27124 -5.373453,6.00952 0,0.86787 0.616141,2.3983 1.369206,3.40097 2.271568,3.02448 4.434712,1.57231 5.862025,-3.93533 1.460325,-5.635 3.900096,-8.29758 7.60326,-8.29758 5.429866,0 8.558177,6.2868 6.30611,12.67305 -0.521308,1.47827 -0.52343,2.51143 -0.0066,3.1829 0.420913,0.54679 0.54156,1.23538 0.268113,1.5302 -0.816245,0.88004 -8.556913,0.60976 -8.556913,-0.29878 z M 207.72657,182.01 c -0.63666,-5.02374 0.0126,-7.07554 1.3958,-4.41083 0.55042,1.06038 1.01656,1.13045 2.54041,0.38189 1.52093,-0.74713 1.86632,-1.50557 1.86632,-4.09817 0,-1.74975 -0.35199,-3.89045 -0.78219,-4.7571 -1.03348,-2.08197 -3.77843,-2.04768 -4.28809,0.0535 -0.52796,2.1767 -1.6194,2.06794 -2.04377,-0.20366 -1.43993,-7.70783 -1.27969,-8.26064 1.56057,-5.38385 1.06751,1.08124 5.53802,2.89117 11.76052,4.76137 6.32521,1.90107 10.11553,3.44182 10.24693,4.16532 0.13586,0.7481 -3.35299,3.06193 -10.01172,6.63982 -6.33844,3.40583 -10.22026,5.95719 -10.22026,6.71742 0,0.67419 -0.31034,1.2258 -0.68964,1.2258 -0.37929,0 -0.97999,-2.29118 -1.33488,-5.09152 z m 14.86975,-10.45234 c 0,-0.46192 -5.74925,-2.37832 -7.13501,-2.37832 -0.5698,0 -0.53851,5.30429 0.0349,5.92254 0.52754,0.56873 7.1001,-2.71217 7.1001,-3.54422 z M 89.095918,184.74901 c -0.226653,-0.93442 -4.20152,-3.87523 -10.12989,-7.49461 -5.366276,-3.27621 -9.756863,-6.3818 -9.756863,-6.90132 0,-0.80186 10.26463,-3.83417 19.521681,-5.76698 1.386356,-0.28946 2.69781,-1.02405 2.914351,-1.63243 0.216532,-0.60837 0.697338,-1.10613 1.068459,-1.10613 0.762092,0 0.75488,4.86578 -0.01267,8.55377 -0.506746,2.43479 -0.512178,2.43705 -1.452033,0.60365 -0.752777,-1.46845 -1.357141,-1.73336 -2.991067,-1.31103 -1.12622,0.29109 -2.094235,0.56934 -2.151137,0.61833 -0.05691,0.049 -0.340111,1.98449 -0.629338,4.30113 -0.479173,3.83798 -0.373819,4.29982 1.186233,5.19998 1.484093,0.85633 1.897478,0.74109 3.103938,-0.86525 1.862553,-2.47989 2.159127,-1.90635 1.608098,3.10983 -0.466278,4.24458 -1.583166,5.56298 -2.279758,2.69106 z m -5.342424,-10.47813 c 0.194278,-1.68021 0.271896,-3.1641 0.172487,-3.29752 -0.09941,-0.13343 -1.998991,0.25406 -4.22129,0.86109 l -4.040543,1.10368 3.384017,2.18612 c 1.861217,1.20237 3.601839,2.1896 3.86806,2.19383 0.266218,0.004 0.642985,-1.36701 0.837269,-3.0472 z M 201.91411,154.91914 c -3.4981,-5.68021 -3.66463,-7.25007 -0.54636,-5.15051 1.20768,0.81315 2.40426,0.26728 8.03596,-3.6659 3.63934,-2.54171 6.14138,-4.61785 5.56008,-4.61362 -0.58129,0.004 -4.88212,1.23698 -9.55741,2.73946 -5.20565,1.67292 -8.49525,2.38041 -8.48692,1.82527 0.008,-0.49858 2.69544,-4.20583 5.97325,-8.23832 3.27781,-4.03248 5.84902,-7.45524 5.71379,-7.60613 -0.13522,-0.15089 -2.99319,1.62572 -6.35105,3.94801 -4.78711,3.31074 -6.10519,4.63471 -6.10519,6.13242 0,3.15794 -1.21031,2.98395 -3.33625,-0.47958 -1.91261,-3.11601 -2.06221,-6.10425 -0.20536,-4.1023 1.42729,1.53881 2.91621,0.99659 9.16483,-3.33755 8.07886,-5.60364 8.4546,-5.98793 7.30931,-7.47576 -0.5782,-0.75112 -0.64129,-1.37357 -0.17099,-1.68694 0.70336,-0.46867 5.37678,5.99187 5.3695,7.42281 -10e-4,0.36734 -1.87198,2.92619 -4.15581,5.68634 -2.28382,2.76016 -4.15241,5.19197 -4.15241,5.40401 0,0.21205 2.78771,-0.48826 6.19491,-1.55623 3.40719,-1.06798 6.43507,-1.94177 6.72861,-1.94177 0.97687,0 4.53994,7.33976 4.01101,8.26246 -0.35069,0.61177 -0.74499,0.47521 -1.209,-0.41872 -0.37872,-0.72962 -0.98685,-1.32659 -1.35138,-1.32659 -0.36454,0 -3.94399,2.27572 -7.95435,5.05715 -6.28793,4.36109 -7.2455,5.31686 -6.95701,6.94393 0.60265,3.39884 -0.73171,2.70853 -3.52176,-1.82194 z m -107.770096,0.95172 c 0,-1.62333 -1.139772,-2.46392 -7.744915,-5.71194 -4.259701,-2.09467 -8.047455,-3.80425 -8.417218,-3.79906 -0.369771,0.005 -1.082913,0.61485 -1.584767,1.35481 -0.501858,0.73996 -1.112527,0.99638 -1.357045,0.56982 -0.244517,-0.42656 0.893651,-3.81305 2.529271,-7.52555 1.635617,-3.7125 2.973845,-7.00336 2.973845,-7.31304 0,-0.30966 0.52211,-1.3667 1.160238,-2.34895 l 1.160237,-1.7859 3.373377,1.76698 c 1.855351,0.97183 3.373371,2.06052 3.373371,2.41929 0,0.35877 -1.27508,0.65792 -2.833505,0.66478 -3.225117,0.0142 -3.924032,0.40874 -5.710814,3.2237 -1.944984,3.06422 -1.585269,4.01175 2.18435,5.75387 4.205734,1.94366 3.831759,1.95138 4.326763,-0.0894 0.258011,-1.06374 -0.152567,-2.29612 -1.108247,-3.32647 -2.421986,-2.61124 -1.064244,-2.69489 4.246144,-0.26158 5.459997,2.50185 6.254242,3.65215 2.414236,3.49651 -5.502588,-0.22303 -5.718993,2.40265 -0.418614,5.0792 3.759311,1.89836 3.882168,1.90844 4.903603,0.40239 2.085017,-3.07424 2.038934,-0.31128 -0.0743,4.45562 -2.283065,5.14999 -3.396003,6.12493 -3.396003,2.97493 z m 8.888756,-14.03875 c -0.2685,-0.28949 -0.0861,-1.22052 0.40537,-2.06896 0.78811,-1.36058 0.12617,-2.36997 -5.609271,-8.55358 -5.795537,-6.2484 -6.673326,-6.91258 -8.070395,-6.10648 -3.625754,2.09209 -1.906762,-0.90112 4.411504,-7.68153 l 6.749082,-7.24275 2.65729,2.7768 c 3.05548,3.19291 3.39917,4.5244 0.95719,3.70841 -4.592058,-1.53448 -5.185796,-1.46775 -7.413479,0.83329 -1.22124,1.26145 -2.220444,2.71594 -2.220444,3.2322 0,0.51626 1.150149,2.06706 2.555888,3.44621 1.882968,1.84735 2.778195,2.26788 3.400205,1.59725 1.04876,-1.13071 1.09981,-3.57661 0.0887,-4.25033 -1.076169,-0.71709 -0.93538,-2.03662 0.21731,-2.03662 1.33998,0 8.40161,7.84552 7.56399,8.40366 -0.37137,0.24746 -1.16903,0.11314 -1.77256,-0.29848 -1.50536,-1.02672 -4.29951,-0.96325 -4.91569,0.11167 -0.66099,1.15307 4.10224,6.44675 5.80075,6.44675 1.66745,0 4.44167,-3.7627 4.43558,-6.01603 -0.002,-0.9477 -0.48945,-2.725 -1.08195,-3.94957 -1.67054,-3.45251 -0.21876,-3.33708 3.02121,0.24021 l 2.93578,3.24145 -6.81394,7.3464 c -3.74767,4.0405 -7.03363,7.10952 -7.30214,6.82003 z m 81.29584,-10.79727 c -4.65709,-3.58765 -5.13405,-4.55572 -2.26386,-4.59487 1.85895,-0.0253 2.83185,-1.07313 6.98189,-7.51915 4.50064,-6.99061 5.43707,-10.02517 3.09364,-10.02517 -0.57996,0 -0.58821,-0.25624 -0.0277,-0.86057 0.56052,-0.60432 2.05867,0.0628 5.03138,2.24028 4.38544,3.21235 5.11483,4.88911 1.96276,4.51202 -1.53024,-0.18306 -2.58165,0.97057 -6.54559,7.18181 -4.69708,7.36005 -5.40975,9.18242 -3.96691,10.14383 0.8797,0.58617 1.02099,2.06464 0.1889,1.97673 -0.31168,-0.0329 -2.31622,-1.40764 -4.45453,-3.05491 z m -9.0334,-5.65761 c -0.45738,-0.3278 -2.1183,-4.81181 -3.69093,-9.96443 -4.06398,-13.31536 -4.20088,-13.52849 -5.49396,-8.55376 -2.77721,10.68439 -2.79616,10.86546 -1.32149,12.62229 1.96384,2.33956 1.1934,2.62068 -3.26777,1.19234 -3.59164,-1.14996 -5.30199,-2.81693 -2.89021,-2.81693 1.88171,0 3.51005,-2.94528 5.408,-9.78178 2.24348,-8.081055 2.28703,-8.867645 0.56621,-10.224265 -2.10192,-1.65706 -0.69106,-2.12757 3.10094,-1.03411 3.02582,0.87252 3.6076,1.39483 4.33934,3.895735 2.64383,9.0361 4.75324,14.70534 5.25818,14.13178 0.55325,-0.62845 2.9791,-8.862 2.9791,-10.11136 0,-0.33471 -0.55051,-1.20211 -1.22336,-1.92753 -1.8251,-1.96772 -0.74227,-2.40493 3.09069,-1.24791 3.41303,1.03026 4.76359,3.26511 1.97317,3.26511 -1.59143,0 -2.43679,2.00073 -5.93127,14.03767 -1.35011,4.65056 -2.35294,6.90684 -2.89664,6.51715 z m -44.12671,-4.88061 c 0,-0.34027 0.64025,-1.04976 1.42278,-1.57664 1.34633,-0.9065 1.94748,-2.67623 6.10325,-17.96712 0.90778,-3.340115 2.0239,-5.906175 2.56892,-5.906175 0.53005,0 3.22965,4.94897 5.99909,10.997695 3.16249,6.90717 5.46203,10.9977 6.18249,10.9977 0.63092,0 1.14713,0.31925 1.14713,0.70943 0,0.84401 -9.01167,2.06595 -9.70706,1.31624 -0.26454,-0.28522 0.11123,-0.87588 0.83502,-1.31259 1.20372,-0.72628 1.21836,-0.9976 0.17148,-3.18024 -1.08629,-2.26477 -1.32666,-2.36 -4.72252,-1.87087 -1.96788,0.28345 -3.82777,0.91723 -4.13309,1.4084 -1.05129,1.69119 -0.5751,3.89772 0.93293,4.32289 2.22022,0.62597 1.84264,1.5902 -0.85005,2.17082 -3.20686,0.69149 -5.95037,0.64098 -5.95037,-0.10954 z m 12.63459,-10.32787 c 0.37651,-0.31542 -3.01476,-6.97562 -3.55188,-6.97562 -0.32021,0 -0.78652,1.00813 -1.03626,2.24028 -0.24973,1.23215 -0.67819,3.091 -0.95213,4.13077 -0.47606,1.80696 -0.36831,1.8652 2.43752,1.31757 1.61457,-0.31513 3.01081,-0.63597 3.10275,-0.713 z"
       id="path828"
       inkscape:connector-curvature="0" />
    <g
       id="g8762"
       transform="matrix(3.8398757,0,0,3.8398757,-1388.2395,-4516.7741)">
      <path
         sodipodi:nodetypes="cc"
         inkscape:connector-curvature="0"
         id="path4733"
         d="m 376.48671,1207.3178 c 6.20181,-20.0133 40.57418,-21.6178 46.71846,-0.4008"
         style="fill:none;stroke:none;stroke-width:0.36000001;stroke-linecap:butt;stroke-linejoin:miter;stroke-miterlimit:4;stroke-dasharray:none;stroke-opacity:1" />
      <text
         y="52.913555"
         x="21.282576"
         id="text7410"
         style="font-style:normal;font-variant:normal;font-weight:normal;font-stretch:normal;font-size:19.17971611px;line-height:1.25;font-family:'Brush Script MT';-inkscape-font-specification:'Brush Script MT';letter-spacing:0px;word-spacing:0px;fill:#ff9f00;fill-opacity:1;stroke:none;stroke-width:0.16840424;stroke-miterlimit:4;stroke-dasharray:none;stroke-opacity:1"
         xml:space="preserve"><textPath
           id="textPath7445"
           xlink:href="#path7406"><tspan
   id="tspan7408"
   style="fill:#ff9f00;fill-opacity:1;stroke:none;stroke-width:0.16840424;stroke-miterlimit:4;stroke-dasharray:none;stroke-opacity:1">Donations</tspan></textPath></text>
    </g>
  </g>
</svg>
