<?xml version="1.0" encoding="UTF-8" standalone="no"?>
<svg
   xmlns:dc="http://purl.org/dc/elements/1.1/"
   xmlns:cc="http://creativecommons.org/ns#"
   xmlns:rdf="http://www.w3.org/1999/02/22-rdf-syntax-ns#"
   xmlns:svg="http://www.w3.org/2000/svg"
   xmlns="http://www.w3.org/2000/svg"
   xmlns:sodipodi="http://sodipodi.sourceforge.net/DTD/sodipodi-0.dtd"
   xmlns:inkscape="http://www.inkscape.org/namespaces/inkscape"
   width="12in"
   height="12in"
   viewBox="0 0 12 12"
   version="1.1"
   id="svg8"
   inkscape:version="1.0.1 (3bc2e813f5, 2020-09-07)"
   sodipodi:docname="Donate Double 2.svg">
  <defs
     id="defs2" />
  <sodipodi:namedview
     id="base"
     pagecolor="#ffffff"
     bordercolor="#666666"
     borderopacity="1.0"
     inkscape:pageopacity="0.0"
     inkscape:pageshadow="2"
     inkscape:zoom="1.0729879"
     inkscape:cx="493.85146"
     inkscape:cy="349.44878"
     inkscape:document-units="in"
     inkscape:current-layer="layer1"
     inkscape:document-rotation="0"
     showgrid="true"
     units="in"
     inkscape:snap-global="false"
     inkscape:window-width="1807"
     inkscape:window-height="1001"
     inkscape:window-x="25"
     inkscape:window-y="12"
     inkscape:window-maximized="0"
     inkscape:snap-nodes="false"
     inkscape:snap-others="false"
     inkscape:snap-smooth-nodes="false"
     inkscape:object-paths="false"
     inkscape:snap-intersection-paths="false"
     inkscape:snap-grids="false"
     inkscape:snap-to-guides="false"
     inkscape:snap-bbox="true"
     inkscape:bbox-nodes="true">
    <inkscape:grid
       type="xygrid"
       id="grid849"
       units="in"
       spacingx="0.25"
       spacingy="0.25"
       empspacing="4" />
  </sodipodi:namedview>
  <metadata
     id="metadata5">
    <rdf:RDF>
      <cc:Work
         rdf:about="">
        <dc:format>image/svg+xml</dc:format>
        <dc:type
           rdf:resource="http://purl.org/dc/dcmitype/StillImage" />
        <dc:title></dc:title>
        <dc:creator>
          <cc:Agent>
            <dc:title>Doctor Wizard</dc:title>
          </cc:Agent>
        </dc:creator>
        <dc:rights>
          <cc:Agent>
            <dc:title>Copyright 2021+ by Doctor Wizard</dc:title>
          </cc:Agent>
        </dc:rights>
        <dc:publisher>
          <cc:Agent>
            <dc:title>Doctor Wizard</dc:title>
          </cc:Agent>
        </dc:publisher>
        <dc:source>Doctor Wizard</dc:source>
        <dc:contributor>
          <cc:Agent>
            <dc:title>Doctor Wizard</dc:title>
          </cc:Agent>
        </dc:contributor>
      </cc:Work>
    </rdf:RDF>
  </metadata>
  <g
     inkscape:label="Layer 1"
     inkscape:groupmode="layer"
     id="layer1">
    <path
       id="path2659"
       style="font-style:normal;font-variant:normal;font-weight:normal;font-stretch:normal;font-size:19.1797px;line-height:1.25;font-family:'Brush Script MT';-inkscape-font-specification:'Brush Script MT';letter-spacing:0px;word-spacing:0px;fill:none;fill-opacity:1;stroke:#c08000;stroke-width:0.00393701;stroke-miterlimit:4;stroke-dasharray:none;stroke-opacity:1"
       d="m 7.1507273,2.5636271 0.026463,-0.01008 q 0.4085286,0.169973 0.5695511,0.231033 0.1448834,-0.02752 0.1802478,0.06509 0.00883,0.02315 0.00571,0.05467 l -0.018424,0.01462 q -0.014915,0.0013 -0.039173,0.01 -0.02095,0.0079 -0.072391,0.04532 -0.049919,0.03801 -0.085143,0.06156 -0.035223,0.02355 -0.083739,0.04208 -0.072773,0.02779 -0.1526618,0.02039 -0.078787,-0.0078 -0.1645311,-0.0471 -0.084641,-0.03969 -0.1864825,-0.114508 0.00854,0.04222 0.017382,0.06537 0.017261,0.04522 0.059101,0.08861 0.043362,0.04408 0.1014796,0.08381 0.059642,0.04039 0.1480719,0.09001 l -0.073876,0.0282 Q 7.1905973,3.2041921 7.0764065,3.120196 6.9633185,3.035776 6.9325855,2.9552901 6.8930125,2.8516321 6.9475425,2.729751 q 0.033139,-0.07204 0.076602,-0.1037829 0.043884,-0.03066 0.1265805,-0.06223 z M 7.4764598,2.910492 7.6298639,2.829182 Q 7.5265783,2.790292 7.2216957,2.6502359 q 0.010927,0.07163 -0.00407,0.105145 -0.014995,0.03352 -0.06762,0.104148 0.059501,0.06319 0.1275824,0.08267 0.069605,0.02018 0.1622248,-0.01519 0.011027,-0.0042 0.019426,-0.0087 0.00882,-0.0034 0.017222,-0.0078 z M 7.2424852,2.232642 q -0.3106685,-0.0121 -0.3806124,0.04586 -0.03906,0.0324 -0.012685,0.0642 0.021854,0.02634 0.08377,0.04552 0.063577,0.01933 0.2090338,0.05047 l -0.062677,0.052 Q 6.8451358,2.467212 6.7315449,2.444892 6.6179541,2.422582 6.581783,2.378982 6.519989,2.304502 6.618091,2.223111 q 0.029067,-0.02412 0.064763,-0.0384 0.035695,-0.01427 0.078481,-0.02369 0.044449,-0.0093 0.1278962,-0.0233 0.084356,-0.01477 0.1915349,-0.03161 -0.069297,-0.02992 -0.2122236,-0.04324 -0.091253,-0.01021 -0.1651523,-0.0087 -0.072991,0.0013 -0.1614031,0.005 -0.086751,0.0045 -0.1216516,0.0013 -0.03324,-0.003 -0.049065,-0.02217 -0.024114,-0.02908 0.016399,-0.1040859 0.040514,-0.07501 0.121358,-0.1420831 0.04996,-0.04145 0.087162,-0.0539 0.037956,-0.01159 0.1176149,-0.02091 0.1482836,-0.0172 0.2304724,-0.0087 0.083096,0.0077 0.117761,0.04953 0.024115,0.02906 0.028442,0.05461 0.00508,0.02647 -0.015813,0.0438 -0.00909,0.0076 -0.023597,0.01033 -0.014513,0.0029 -0.028718,0.0024 -0.01345,0 -0.055153,-0.0018 -0.2780287,-0.01159 -0.3252637,0.02755 -0.026342,0.02185 -0.012023,0.03911 0.00905,0.01084 0.069183,0.01316 0.061801,0.0024 0.1588132,0.0047 0.098673,0.0025 0.2162073,0.01846 0.1182866,0.01689 0.2471041,0.0557 0.07355,0.02025 0.099925,0.05205 0.012061,0.01453 -0.016607,0.06131 -0.02791,0.0477 -0.068787,0.0816 -0.019984,0.01659 -0.093264,0.01147 z m -0.7675035,-0.5528189 -0.042072,0.06695 q -0.1036322,0.01853 -0.1561654,0.0134 -0.052533,-0.0052 -0.1249724,-0.05622 -0.2266171,0.07226 -0.3255535,0.01008 -0.055964,-0.03516 -0.0787,-0.101023 -0.022738,-0.06586 -0.010536,-0.147402 0.013205,-0.08091 0.062812,-0.159865 0.040188,-0.06396 0.131139,-0.1155301 0.091951,-0.05095 0.2009794,-0.07583 0.1106544,-0.02526 0.2133502,-0.01788 0.1033235,0.0064 0.1692811,0.04783 0.046969,0.0295 0.064534,0.06145 0.018191,0.03094 0.00187,0.05693 -0.012552,0.01999 -0.05187,0.03153 0.032952,0.03186 0.035012,0.05964 0.00268,0.02678 -0.02808,0.07574 -0.030141,0.04797 -0.098964,0.10648 -0.067825,0.05914 -0.1469868,0.0986 l 0.00668,0.0293 0.014991,0.0095 q 0.016989,0.01071 0.038002,0.01273 0.022641,0.0016 0.041283,0.0013 0.019271,-0.0018 0.083964,-0.0072 z m -0.040721,-0.392184 q -0.1143432,-0.0021 -0.1990499,0.0018 -0.084079,0.0029 -0.1514255,0.01916 -0.066719,0.01524 -0.1070828,0.04841 -0.095312,0.09623 -0.1009642,0.105232 -0.041443,0.06595 0.050498,0.1237211 0.042972,0.02701 0.190373,0.01647 0.012527,-0.05765 0.039526,-0.10062 0.039559,-0.06295 0.1063582,-0.111585 0.067426,-0.04963 0.1717675,-0.102548 z M 5.859766,0.72892296 q -0.027832,-0.0098 -0.045987,-0.03996 -0.017043,-0.02978 -0.00567,-0.06207 0.017249,-0.04899 0.085174,-0.09263 0.067926,-0.04366 0.1180232,-0.02601 0.033397,0.01172 0.048213,0.04076 0.015209,0.02788 0.00149,0.06685 -0.016857,0.04786 -0.082886,0.08968 -0.066028,0.04182 -0.1183509,0.02339 z M 5.760228,1.2531961 5.73161,1.3344761 q -0.1569883,0.1011241 -0.2755913,0.1394491 -0.1182098,0.0372 -0.1838914,0.01407 -0.091287,-0.03214 -0.1021022,-0.1435581 -0.010813,-0.111421 0.029173,-0.224971 0.015288,-0.04342 0.037915,-0.07925 0.02302,-0.03694 0.044282,-0.05824 0.021262,-0.02129 0.07387,-0.06409 0.2447197,-0.190351 0.3760817,-0.144099 0.067909,0.02392 0.049483,0.07625 -0.01254,0.03561 -0.083732,0.09564 -0.070075,0.0604 -0.1159552,0.08054 -0.1297828,0.0594 -0.172777,0.08555 -0.041881,0.02655 -0.058347,0.07331 -0.014113,0.04008 0.00654,0.07738 0.02065,0.0373 0.068518,0.05415 0.052323,0.01842 0.1279932,0.0025 0.077177,-0.01662 0.2071623,-0.06595 z m -0.6808807,-0.84328612 0.050054,0.0083 q 0.080208,-0.100267 0.1378612,-0.137281 0.05785,-0.03819 0.1218733,-0.02746 0.064023,0.01071 0.059151,0.03981 -0.00234,0.01398 -0.062721,0.06729 -0.060382,0.05332 -0.093007,0.09094 0.038799,0.01134 0.068479,0.01984 0.030845,0.0088 0.047916,0.014 -0.087007,0.11228998 -0.2087465,0.22473098 -0.032204,-0.0078 -0.054126,-0.01264 -0.021727,-0.0061 -0.044814,-0.01109 -0.021727,-0.006 -0.053931,-0.01381 -0.079813,0.09075 -0.1363287,0.163861 -0.055157,0.07214 -0.089546,0.134597 -0.033225,0.06265 -0.043163,0.12202004 -0.013446,0.08032 0.050577,0.09103 0.044234,0.0074 0.1230367,-0.02726 0.080161,-0.03565 0.2164278,-0.113362 l -0.013056,0.078 q -0.3713922,0.288451 -0.5215549,0.2633091 -0.052383,-0.0088 -0.078156,-0.05496 -0.024609,-0.04601 -0.013892,-0.1100351 0.00721,-0.04306 0.03461,-0.09951 0.028563,-0.05625 0.095197,-0.16834704 -0.018636,0.01122 -0.036107,0.02267 -0.016111,0.01046 -0.030865,0.01996 -0.013394,0.0086 -0.029507,0.01899 -0.015917,0.0093 -0.03203,0.01977 l 0.013446,-0.08033 q 0.1393748,-0.08197 0.3558858,-0.310191 -0.017266,-0.004 -0.032399,-0.0067 -0.014938,-0.0036 -0.03589,-0.0072 -0.06868,-0.01147 -0.1039964,-0.0078 -0.014554,0.0013 -0.028137,0.0037 -0.012225,0.0015 -0.016883,0.0013 -0.00465,-0.0013 -0.00349,-0.0078 0.00643,-0.03841 0.067018,-0.107262 0.049327,-0.05875 0.088346,-0.08453 0.040183,-0.02558 0.090828,-0.02788 0.052003,-0.0033 0.1416357,0.01172 z M 3.6358641,0.74875996 q 0.1710857,-0.171587 0.3357265,-0.25894898 0.1646394,-0.08736 0.2565851,-0.09194 0.024756,-0.0013 0.04703,0.01893 0.022215,0.01899 0.035351,0.04552 0.014315,0.02647 0.014961,0.03943 0.00101,0.02121 -0.01492,0.03264 -0.016034,0.01021 -0.056589,0.02645 0.00919,0.01845 0.023623,0.04727 0.014433,0.02882 0.022444,0.04734 0.00795,0.01733 0.00866,0.03148 0.00141,0.02828 -0.052484,0.108963 -0.052771,0.07944 -0.07453,0.117142 -0.02058,0.03766 -0.017941,0.0907 0.00434,0.08724 0.084498,0.08325 0.082515,-0.0042 0.2504753,-0.16726402 l 0.00358,0.0719 Q 4.2205736,1.3377051 4.0920851,1.3440951 q -0.045973,0.0023 -0.067538,-0.02736 -0.020326,-0.02853 -0.023258,-0.08747 -0.00463,-0.09312 0.053766,-0.27329002 -0.1626067,0.19952602 -0.2422558,0.28502302 -0.079707,0.08432 -0.133933,0.08702 -0.025933,0.0013 -0.067062,-0.04156 -0.041128,-0.04286 -0.075295,-0.1120631 -0.033047,-0.07045 -0.036858,-0.147074 -0.00276,-0.0554 0.00604,-0.09247 0.00873,-0.03825 0.037447,-0.07868 0.028714,-0.04042 0.09274,-0.107426 z m 0.5581948,-0.157749 q -0.29951,0.155518 -0.4254907,0.259868 -0.1248009,0.104288 -0.1196415,0.20803304 0.00188,0.03772 0.016074,0.06183 0.01414,0.02292 0.036537,0.02182 0.012967,-0.0013 0.045153,-0.01879 0.120138,-0.07925 0.2168891,-0.20103804 0.096693,-0.12299 0.2304799,-0.331717 z m -0.9288006,0.214536 Q 3.1353595,1.088012 3.1622739,1.174819 q 0.01503,0.04847 0.054487,0.03623 0.032691,-0.01008 0.074062,-0.06003 0.042147,-0.05138 0.1264873,-0.17391804 l 0.024118,0.07778 q -0.1111434,0.2074661 -0.1751476,0.303915 -0.064004,0.09646 -0.1181153,0.113235 -0.09244,0.02867 -0.1301886,-0.09308 -0.011191,-0.03607 -0.01075,-0.07452 3.782e-4,-0.03844 0.00807,-0.08158 0.00841,-0.04463 0.027319,-0.127098 0.018563,-0.08361 0.043933,-0.18909104 -0.05412,0.05262 -0.1210088,0.17962604 -0.044255,0.08044 -0.071092,0.149317 -0.027188,0.06774 -0.056945,0.151107 -0.028979,0.08189 -0.045312,0.1129069 -0.015556,0.02954 -0.039229,0.03688 -0.036074,0.01122 -0.08993,-0.05491 -0.053857,-0.06609 -0.084965,-0.1664189 -0.019224,-0.062 -0.016532,-0.101137 0.00382,-0.0395 0.025606,-0.116688 0.040733,-0.14360804 0.079972,-0.21632604 0.03889,-0.07384 0.090745,-0.08992 0.036074,-0.01122 0.061339,-0.0054 0.026391,0.0054 0.034431,0.03133 0.00349,0.01134 6.302e-4,0.02577 -0.00292,0.01449 -0.0088,0.02744 -0.00475,0.0126 -0.022713,0.0503 Q 2.7057982,1.173047 2.7239741,1.231662 q 0.010133,0.03269 0.031556,0.02605 0.013528,-0.0042 0.038573,-0.05892 0.025824,-0.0562 0.065029,-0.144969 0.039981,-0.09023 0.099633,-0.19275804 0.06078,-0.102876 0.1458538,-0.207101 0.046814,-0.06024 0.086271,-0.07247 0.018037,-0.0055 0.050327,0.03877 0.033416,0.04401 0.049145,0.09474 0.00769,0.0248 -0.025055,0.09056 z m -0.7820822,0.47475714 0.040959,0.06764 q -0.029954,0.100935 -0.058111,0.1455741 -0.028158,0.04464 -0.1063229,0.08645 -0.037105,0.234952 -0.1370546,0.2954709 -0.056538,0.03423 -0.1255988,0.025 -0.06906,-0.0092 -0.1364534,-0.05674 -0.066384,-0.04811 -0.1146785,-0.1278669 -0.039124,-0.06461 -0.044405,-0.1690411 -0.00427,-0.1050309 0.022414,-0.2136279 0.027083,-0.1102241 0.079759,-0.1986951 0.052063,-0.08947 0.1186963,-0.12982 0.047452,-0.02873 0.08388,-0.0301 0.035818,-0.0024 0.051713,0.02388 0.012225,0.02019 0.0049,0.06051 0.043255,-0.01516 0.069005,-0.0045 0.025137,0.0096 0.055093,0.05908 0.029343,0.04847 0.050749,0.1362221 0.022415,0.08715 0.022166,0.1756069 l 0.029177,0.0072 0.015145,-0.0092 q 0.017162,-0.01046 0.028425,-0.02825 0.011658,-0.01948 0.019285,-0.03651 0.00701,-0.01805 0.03126,-0.07826 z M 2.1144217,1.140717 q -0.053231,0.101212 -0.087733,0.1786811 -0.035114,0.07645 -0.050832,0.14391 -0.016329,0.06647 -0.00479,0.11742 0.043229,0.1283589 0.048731,0.137445 0.040346,0.06664 0.1332297,0.01033 0.043413,-0.02629 0.1001451,-0.1627391 -0.045895,-0.03707 -0.072182,-0.08047 -0.038514,-0.06361 -0.052,-0.145133 -0.014097,-0.08252 -0.01457,-0.199514 z M 0.51393614,2.360072 q 0.00678,0.0047 0.015542,-0.0079 0.00606,-0.0087 0.04295,-0.08657 0.03756,-0.07883 0.076345,-0.136677 -0.027029,0.07608 -0.04096,0.1354039 -0.014226,0.05767 -0.026302,0.122587 -0.012376,0.06328 -0.019443,0.08998 -0.00804,0.02604 -0.018821,0.04154 -0.034364,0.04941 -0.09832,0.0049 Q 0.28019436,2.40879 0.2712792,2.2789559 0.2677252,2.2261759 0.2827855,2.1259589 0.2975509,2.0240919 0.3299625,1.9071889 0.3620795,1.788647 0.4166885,1.658423 0.4712985,1.5282 0.5481109,1.417737 0.6269459,1.304363 0.7259253,1.2323129 q 0.098979,-0.07206 0.20352892,-0.09424 0.10358048,-0.02285 0.21340698,0.0031 0.1104994,0.02508 0.2180599,0.09988 0.1637648,0.113878 0.2518062,0.3159751 0.088716,0.201127 0.097106,0.441285 0.00809,0.2385059 -0.06056,0.48402 Q 1.5806183,2.7278589 1.447205,2.919723 1.422274,2.955573 1.399699,2.971513 1.377797,2.986473 1.348477,2.979113 1.320126,2.972313 1.27555,2.941333 1.220316,2.902933 1.191496,2.869953 1.162675,2.836983 1.131281,2.784963 0.91919102,2.4304859 0.6907326,1.75842 q -0.040761,0.07516 -0.07642,0.1739939 -0.036629,0.09816 -0.062348,0.1909691 -0.025718,0.09281 -0.037204,0.161012 -0.011481,0.06819 -8.8218e-4,0.07562 z M 0.70446283,1.726344 q 0.00194,0.0014 0.024982,0.01159 0.022075,0.0096 0.036611,0.0197 0.022287,0.0155 0.046815,0.06706 0.024231,0.04991 0.080456,0.188197 0.056223,0.13829 0.1007285,0.239678 0.044505,0.101377 0.12145747,0.2511981 0.024611,0.04731 0.032786,0.06449 0.00818,0.01719 0.027057,0.0562 0.019553,0.03804 0.036451,0.06129 0.016896,0.02324 0.028525,0.03133 0.025194,0.01752 0.05472,-0.0021 0.029231,-0.02136 0.064942,-0.07272 0.091637,-0.131787 0.1465734,-0.312094 0.053966,-0.180975 0.058308,-0.3691591 0.00502,-0.189142 -0.04864,-0.3414459 -0.053657,-0.152316 -0.1709093,-0.233843 -0.1337238,-0.093 -0.2734855,-0.04498 -0.14072947,0.04734 -0.27077325,0.23436 -0.054579,0.07849 -0.096604,0.1513339 z" />
    <path
       id="path2659-4"
       style="font-style:normal;font-variant:normal;font-weight:normal;font-stretch:normal;font-size:19.1797px;line-height:1.25;font-family:'Brush Script MT';-inkscape-font-specification:'Brush Script MT';letter-spacing:0px;word-spacing:0px;fill:none;fill-opacity:1;stroke:#c08000;stroke-width:0.00393701;stroke-miterlimit:4;stroke-dasharray:none;stroke-opacity:1"
       d="m 3.7178727,2.1012072 -0.026463,0.01008 q -0.4085286,-0.169973 -0.5695511,-0.231033 -0.1448834,0.02752 -0.1802478,-0.06509 -0.00883,-0.02315 -0.00571,-0.05467 l 0.018424,-0.01462 q 0.014915,-0.0013 0.039173,-0.01 0.02095,-0.0079 0.072391,-0.04532 0.049919,-0.03801 0.085143,-0.06156 0.035223,-0.02355 0.083739,-0.04208 0.072773,-0.02779 0.1526618,-0.02039 0.078787,0.0078 0.1645311,0.0471 0.084641,0.03969 0.1864825,0.114508 -0.00854,-0.04222 -0.017382,-0.06537 -0.017261,-0.04522 -0.059101,-0.08861 -0.043362,-0.04408 -0.1014796,-0.08381 -0.059642,-0.04039 -0.1480719,-0.09001 l 0.073876,-0.0282 q 0.191715,0.08851 0.3059058,0.1725061 0.113088,0.08442 0.143821,0.1649059 0.039573,0.103658 -0.014957,0.2255391 -0.033139,0.07204 -0.076602,0.1037829 -0.043884,0.03066 -0.1265805,0.06223 z M 3.3921402,1.7543423 3.2387361,1.8356523 q 0.1032856,0.03889 0.4081682,0.1789461 -0.010927,-0.07163 0.00407,-0.105145 0.014995,-0.03352 0.06762,-0.104148 -0.059501,-0.06319 -0.1275824,-0.08267 -0.069605,-0.02018 -0.1622248,0.01519 -0.011027,0.0042 -0.019426,0.0087 -0.00882,0.0034 -0.017222,0.0078 z m 0.2339746,0.67785 q 0.3106685,0.0121 0.3806124,-0.04586 0.03906,-0.0324 0.012685,-0.0642 -0.021854,-0.02634 -0.08377,-0.04552 -0.063577,-0.01933 -0.2090338,-0.05047 l 0.062677,-0.052 q 0.2341788,0.02348 0.3477697,0.0458 0.1135908,0.02231 0.1497619,0.06591 0.061794,0.07448 -0.036308,0.155871 -0.029067,0.02412 -0.064763,0.0384 -0.035695,0.01427 -0.078481,0.02369 -0.044449,0.0093 -0.1278962,0.0233 -0.084356,0.01477 -0.1915349,0.03161 0.069297,0.02992 0.2122236,0.04324 0.091253,0.01021 0.1651523,0.0087 0.072991,-0.0013 0.1614031,-0.005 0.086751,-0.0045 0.1216516,-0.0013 0.03324,0.003 0.049065,0.02217 0.024114,0.02908 -0.016399,0.1040859 -0.040514,0.07501 -0.121358,0.1420831 -0.04996,0.04145 -0.087162,0.0539 -0.037956,0.01159 -0.1176149,0.02091 -0.1482836,0.0172 -0.2304724,0.0087 -0.083096,-0.0077 -0.117761,-0.04953 -0.024115,-0.02906 -0.028442,-0.05461 -0.00508,-0.02647 0.015813,-0.0438 0.00909,-0.0076 0.023597,-0.01033 0.014513,-0.0029 0.028718,-0.0024 0.01345,0 0.055153,0.0018 0.2780287,0.01159 0.3252637,-0.02755 0.026342,-0.02185 0.012023,-0.03911 -0.00905,-0.01084 -0.069183,-0.01316 -0.061801,-0.0024 -0.1588132,-0.0047 -0.098673,-0.0025 -0.2162073,-0.01846 -0.1182866,-0.01689 -0.2471041,-0.0557 -0.07355,-0.02025 -0.099925,-0.05205 -0.012061,-0.01453 0.016607,-0.06131 0.02791,-0.0477 0.068787,-0.0816 0.019984,-0.01659 0.093264,-0.01147 z m 0.7675035,0.5528189 0.042072,-0.06695 q 0.1036322,-0.01853 0.1561654,-0.0134 0.052533,0.0052 0.1249724,0.05622 0.2266171,-0.07226 0.3255535,-0.01008 0.055964,0.03516 0.0787,0.101023 0.022738,0.06586 0.010536,0.147402 -0.013205,0.08091 -0.062812,0.159865 -0.040188,0.06396 -0.131139,0.11553 -0.091951,0.05095 -0.2009794,0.07583 -0.1106544,0.02526 -0.2133502,0.01788 -0.1033235,-0.0064 -0.1692811,-0.04783 -0.046969,-0.0295 -0.064534,-0.06145 -0.018191,-0.03094 -0.00187,-0.05693 0.012552,-0.01999 0.05187,-0.03153 -0.032952,-0.03186 -0.035012,-0.05964 -0.00268,-0.02678 0.02808,-0.07574 0.030141,-0.04797 0.098964,-0.10648 0.067825,-0.05914 0.1469868,-0.0986 l -0.00668,-0.0293 -0.014991,-0.0095 q -0.016989,-0.01071 -0.038002,-0.01273 -0.022641,-0.0016 -0.041283,-0.0013 -0.019271,0.0018 -0.083964,0.0072 z m 0.040721,0.392184 q 0.1143432,0.0021 0.1990499,-0.0018 0.084079,-0.0029 0.1514255,-0.01916 0.066719,-0.01524 0.1070828,-0.04841 0.095312,-0.09623 0.1009642,-0.105232 0.041443,-0.06595 -0.050498,-0.1237211 -0.042972,-0.02701 -0.190373,-0.01647 -0.012527,0.05765 -0.039526,0.10062 -0.039559,0.06295 -0.1063582,0.111585 -0.067426,0.04963 -0.1717675,0.102548 z m 0.5744947,0.558716 q 0.027832,0.0098 0.045987,0.03996 0.017043,0.02978 0.00567,0.06207 -0.017249,0.04899 -0.085174,0.09263 -0.067926,0.04366 -0.1180232,0.02601 -0.033397,-0.01172 -0.048213,-0.04076 -0.015209,-0.02788 -0.00149,-0.06685 0.016857,-0.04786 0.082886,-0.08968 0.066028,-0.04182 0.1183509,-0.02339 z m 0.099538,-0.524273 0.028618,-0.08128 q 0.1569883,-0.1011241 0.2755913,-0.1394491 0.1182098,-0.0372 0.1838914,-0.01407 0.091287,0.03214 0.1021022,0.1435581 0.010813,0.1114209 -0.029173,0.2249709 -0.015288,0.04342 -0.037915,0.07925 -0.02302,0.03694 -0.044282,0.05824 -0.021262,0.02129 -0.07387,0.06409 -0.2447197,0.190351 -0.3760817,0.144099 -0.067909,-0.02392 -0.049483,-0.07625 0.01254,-0.03561 0.083732,-0.09564 0.070075,-0.0604 0.1159552,-0.08054 0.1297828,-0.0594 0.172777,-0.08555 0.041881,-0.02655 0.058347,-0.07331 0.014113,-0.04008 -0.00654,-0.07738 -0.02065,-0.0373 -0.068518,-0.05415 -0.052323,-0.01842 -0.1279932,-0.0025 -0.077177,0.01662 -0.2071623,0.06595 z m 0.6808807,0.843286 -0.050054,-0.0083 q -0.080208,0.100267 -0.1378612,0.137281 -0.05785,0.03819 -0.1218733,0.02746 -0.064023,-0.01071 -0.059151,-0.03981 0.00234,-0.01398 0.062721,-0.06729 0.060382,-0.05332 0.093007,-0.09094 -0.038799,-0.01134 -0.068479,-0.01984 -0.030845,-0.0088 -0.047916,-0.014 0.087007,-0.11229 0.2087465,-0.224731 0.032204,0.0078 0.054126,0.01264 0.021727,0.0061 0.044814,0.01109 0.021727,0.006 0.053931,0.01381 0.079813,-0.09075 0.1363287,-0.163861 0.055157,-0.07214 0.089546,-0.134597 0.033225,-0.06265 0.043163,-0.12202 0.013446,-0.08032 -0.050577,-0.09103 -0.044234,-0.0074 -0.1230367,0.02726 -0.080161,0.03565 -0.2164278,0.113362 l 0.013056,-0.078 q 0.3713922,-0.2884509 0.5215549,-0.263309 0.052383,0.0088 0.078156,0.05496 0.024609,0.04601 0.013892,0.110035 -0.00721,0.04306 -0.03461,0.09951 -0.028563,0.05625 -0.095197,0.168347 0.018636,-0.01122 0.036107,-0.02267 0.016111,-0.01046 0.030865,-0.01996 0.013394,-0.0086 0.029507,-0.01899 0.015917,-0.0093 0.03203,-0.01977 l -0.013446,0.08033 Q 6.1728,3.7938612 5.956289,4.0220822 q 0.017266,0.004 0.032399,0.0067 0.014938,0.0036 0.03589,0.0072 0.06868,0.01147 0.1039964,0.0078 0.014554,-0.0013 0.028137,-0.0037 0.012225,-0.0015 0.016883,-0.0013 0.00465,0.0013 0.00349,0.0078 -0.00643,0.03841 -0.067018,0.107262 -0.049327,0.05875 -0.088346,0.08453 -0.040183,0.02558 -0.090828,0.02788 -0.052003,0.0033 -0.1416357,-0.01172 z m 1.4434832,-0.33885 q -0.1710857,0.171587 -0.3357265,0.258949 -0.1646394,0.08736 -0.2565851,0.09194 -0.024756,0.0013 -0.04703,-0.01893 -0.022215,-0.01899 -0.035351,-0.04552 -0.014315,-0.02647 -0.014961,-0.03943 -0.00101,-0.02121 0.01492,-0.03264 0.016034,-0.01021 0.056589,-0.02645 -0.00919,-0.01845 -0.023623,-0.04727 -0.014433,-0.02882 -0.022444,-0.04734 -0.00795,-0.01733 -0.00866,-0.03148 -0.00141,-0.02828 0.052484,-0.108963 0.052771,-0.07944 0.07453,-0.117142 0.02058,-0.03766 0.017941,-0.0907 -0.00434,-0.08724 -0.084498,-0.08325 -0.082515,0.0042 -0.2504753,0.167264 l -0.00358,-0.0719 q 0.2817604,-0.346083 0.4102489,-0.352473 0.045973,-0.0023 0.067538,0.02736 0.020326,0.02853 0.023258,0.08747 0.00463,0.09312 -0.053766,0.27329 0.1626067,-0.199526 0.2422558,-0.285023 0.079707,-0.08432 0.133933,-0.08702 0.025933,-0.0013 0.067062,0.04156 0.041128,0.04286 0.075295,0.112063 0.033047,0.07045 0.036858,0.147074 0.00276,0.0554 -0.00604,0.09247 -0.00873,0.03825 -0.037447,0.07868 -0.028714,0.04042 -0.09274,0.107426 z m -0.5581948,0.157749 q 0.29951,-0.155518 0.4254907,-0.259868 0.1248009,-0.104288 0.1196415,-0.208033 -0.00188,-0.03772 -0.016074,-0.06183 -0.01414,-0.02292 -0.036537,-0.02182 -0.012967,0.0013 -0.045153,0.01879 -0.120138,0.07925 -0.2168891,0.201038 -0.096693,0.12299 -0.2304799,0.331717 z m 0.9288006,-0.214536 q 0.1298988,-0.282465 0.1029844,-0.369272 -0.01503,-0.04847 -0.054487,-0.03623 -0.032691,0.01008 -0.074062,0.06003 -0.042147,0.05138 -0.1264873,0.173918 l -0.024118,-0.07778 q 0.1111434,-0.207466 0.1751476,-0.3039149 0.064004,-0.09646 0.1181153,-0.113235 0.09244,-0.02867 0.1301886,0.09308 0.011191,0.03607 0.01075,0.07452 -3.782e-4,0.03844 -0.00807,0.08158 -0.00841,0.04463 -0.027319,0.127098 -0.018563,0.08361 -0.043933,0.189091 0.05412,-0.05262 0.1210088,-0.179626 0.044255,-0.08044 0.071092,-0.149317 0.027188,-0.06774 0.056945,-0.151107 0.028979,-0.08189 0.045312,-0.1129069 0.015556,-0.02954 0.039229,-0.03688 0.036074,-0.01122 0.08993,0.05491 0.053857,0.06609 0.084965,0.1664189 0.019224,0.062 0.016532,0.101137 -0.00382,0.0395 -0.025606,0.116688 -0.040733,0.143608 -0.079972,0.216326 -0.03889,0.07384 -0.090745,0.08992 -0.036074,0.01122 -0.061339,0.0054 -0.026391,-0.0054 -0.034431,-0.03133 -0.00349,-0.01134 -6.302e-4,-0.02577 0.00292,-0.01449 0.0088,-0.02744 0.00475,-0.0126 0.022713,-0.0503 0.1169469,-0.252508 0.098771,-0.311123 -0.010133,-0.03269 -0.031556,-0.02605 -0.013528,0.0042 -0.038573,0.05892 -0.025824,0.0562 -0.065029,0.144969 -0.039981,0.09023 -0.099633,0.192758 -0.06078,0.102876 -0.1458538,0.207101 -0.046814,0.06024 -0.086271,0.07247 -0.018037,0.0055 -0.050327,-0.03877 -0.033416,-0.04401 -0.049145,-0.09474 -0.00769,-0.0248 0.025055,-0.09056 z m 0.7820822,-0.474757 -0.040959,-0.06764 q 0.029954,-0.100935 0.058111,-0.1455741 0.028158,-0.04464 0.1063229,-0.08645 0.037105,-0.234952 0.1370546,-0.2954709 0.056538,-0.03423 0.1255988,-0.025 0.06906,0.0092 0.1364534,0.05674 0.066384,0.04811 0.1146785,0.1278669 0.039124,0.06461 0.044405,0.1690411 0.00427,0.1050309 -0.022414,0.2136279 -0.027083,0.110224 -0.079759,0.198695 -0.052063,0.08947 -0.1186963,0.12982 -0.047452,0.02873 -0.08388,0.0301 -0.035818,0.0024 -0.051713,-0.02388 -0.012225,-0.02019 -0.0049,-0.06051 -0.043255,0.01516 -0.069005,0.0045 -0.025137,-0.0096 -0.055093,-0.05908 -0.029343,-0.04847 -0.050749,-0.136222 -0.022415,-0.08715 -0.022166,-0.1756069 l -0.029177,-0.0072 -0.015145,0.0092 q -0.017162,0.01046 -0.028425,0.02825 -0.011658,0.01948 -0.019285,0.03651 -0.00701,0.01805 -0.03126,0.07826 z m 0.3687544,0.139587 q 0.053231,-0.101212 0.087733,-0.178681 0.035114,-0.07645 0.050832,-0.14391 0.016329,-0.06647 0.00479,-0.11742 -0.043229,-0.1283589 -0.048731,-0.137445 -0.040346,-0.06664 -0.1332297,-0.01033 -0.043413,0.02629 -0.1001451,0.1627391 0.045895,0.03707 0.072182,0.08047 0.038514,0.06361 0.052,0.145133 0.014097,0.08252 0.01457,0.1995139 z M 10.354664,2.3047623 q -0.0068,-0.0047 -0.01554,0.0079 -0.0061,0.0087 -0.04295,0.08657 -0.03756,0.07883 -0.07634,0.136677 0.02703,-0.07608 0.04096,-0.1354039 0.01423,-0.05767 0.0263,-0.122587 0.01238,-0.06328 0.01944,-0.08998 0.008,-0.02604 0.01882,-0.04154 0.03436,-0.04941 0.09832,-0.0049 0.164733,0.1145459 0.173648,0.24438 0.0035,0.05278 -0.01151,0.152997 -0.01477,0.101867 -0.04718,0.21877 -0.03212,0.1185419 -0.08673,0.2487659 -0.05461,0.130223 -0.131423,0.240686 -0.07883,0.113374 -0.177814,0.185424 -0.09898,0.07206 -0.2035289,0.09424 -0.1035805,0.02285 -0.213407,-0.0031 Q 9.6152397,3.4985813 9.5076792,3.4237813 9.3439144,3.3099034 9.255873,3.1078063 9.167157,2.9066793 9.158767,2.6665213 q -0.00809,-0.2385059 0.06056,-0.48402 0.068655,-0.2455259 0.2020683,-0.43739 0.024931,-0.03585 0.047506,-0.05179 0.021902,-0.01496 0.051222,-0.0076 0.028351,0.0068 0.072927,0.03778 0.055234,0.0384 0.084054,0.07138 0.028821,0.03297 0.060215,0.08499 0.21209,0.3544771 0.4405487,1.026543 0.04076,-0.07516 0.07642,-0.1739939 0.03663,-0.09816 0.06235,-0.1909691 0.02572,-0.09281 0.0372,-0.161012 0.01148,-0.06819 8.82e-4,-0.07562 z m -0.190527,0.633728 q -0.0019,-0.0014 -0.02498,-0.01159 -0.02208,-0.0096 -0.03661,-0.0197 -0.02229,-0.0155 -0.04682,-0.06706 -0.02423,-0.04991 -0.080456,-0.188197 -0.056223,-0.13829 -0.1007285,-0.239678 -0.044505,-0.101377 -0.1214574,-0.2511981 -0.024611,-0.04731 -0.032786,-0.06449 -0.00818,-0.01719 -0.027057,-0.0562 -0.019553,-0.03804 -0.036451,-0.06129 -0.016896,-0.02324 -0.028525,-0.03133 -0.025194,-0.01752 -0.05472,0.0021 -0.029231,0.02136 -0.064942,0.07272 -0.091637,0.131787 -0.1465734,0.312094 -0.053966,0.180975 -0.058308,0.3691591 -0.00502,0.189142 0.04864,0.3414459 0.053657,0.152316 0.1709093,0.233843 0.1337238,0.093 0.2734854,0.04498 0.1407295,-0.04734 0.2707735,-0.23436 0.05458,-0.07849 0.0966,-0.1513339 z" />
  </g>
</svg>
