<?xml version="1.0" encoding="UTF-8" standalone="no"?>
<!-- Created with Inkscape (http://www.inkscape.org/) -->

<svg
   xmlns:dc="http://purl.org/dc/elements/1.1/"
   xmlns:cc="http://creativecommons.org/ns#"
   xmlns:rdf="http://www.w3.org/1999/02/22-rdf-syntax-ns#"
   xmlns:svg="http://www.w3.org/2000/svg"
   xmlns="http://www.w3.org/2000/svg"
   xmlns:sodipodi="http://sodipodi.sourceforge.net/DTD/sodipodi-0.dtd"
   xmlns:inkscape="http://www.inkscape.org/namespaces/inkscape"
   width="11.3in"
   height="11.3in"
   viewBox="0 0 287.02 287.02001"
   version="1.1"
   id="svg2074"
   inkscape:version="0.92.4 (5da689c313, 2019-01-14)"
   sodipodi:docname="Donation Box 2 CUT.svg">
  <defs
     id="defs2068" />
  <sodipodi:namedview
     id="base"
     pagecolor="#ffffff"
     bordercolor="#666666"
     borderopacity="1.0"
     inkscape:pageopacity="0.0"
     inkscape:pageshadow="2"
     inkscape:zoom="0.66449955"
     inkscape:cx="452.91227"
     inkscape:cy="742.78497"
     inkscape:document-units="in"
     inkscape:current-layer="layer1"
     showgrid="false"
     units="in"
     showguides="true"
     inkscape:guide-bbox="true"
     inkscape:window-width="1920"
     inkscape:window-height="1017"
     inkscape:window-x="-8"
     inkscape:window-y="-8"
     inkscape:window-maximized="1" />
  <metadata
     id="metadata2071">
    <rdf:RDF>
      <cc:Work
         rdf:about="">
        <dc:format>image/svg+xml</dc:format>
        <dc:type
           rdf:resource="http://purl.org/dc/dcmitype/StillImage" />
        <dc:title></dc:title>
      </cc:Work>
    </rdf:RDF>
  </metadata>
  <g
     inkscape:label="Layer 1"
     inkscape:groupmode="layer"
     id="layer1"
     transform="translate(0,-9.979985)">
    <text
       xml:space="preserve"
       style="font-style:normal;font-variant:normal;font-weight:normal;font-stretch:normal;font-size:16.93333435px;line-height:1.25;font-family:'Segoe UI';-inkscape-font-specification:'Segoe UI';letter-spacing:0px;word-spacing:0px;fill:#000000;fill-opacity:1;stroke:none;stroke-width:0.26458335"
       x="-451.30359"
       y="111.03573"
       id="text2637"><tspan
         sodipodi:role="line"
         id="tspan2635"
         x="-451.30359"
         y="111.03573"
         style="stroke-width:0.26458335">L</tspan></text>
    <path
       id="path4575"
       style="font-style:normal;font-variant:normal;font-weight:normal;font-stretch:normal;font-size:21.73034286px;line-height:1.25;font-family:'Showcard Gothic';-inkscape-font-specification:'Showcard Gothic, Normal';font-variant-ligatures:normal;font-variant-caps:normal;font-variant-numeric:normal;font-feature-settings:normal;text-align:start;letter-spacing:0px;word-spacing:0px;writing-mode:lr-tb;text-anchor:start;fill:#000000;fill-opacity:1;stroke:none;stroke-width:0.90546381"
       d="m 222.14084,14.425994 q -0.42442,0.806399 -2.15394,3.89406 -0.98678,1.708294 -2.94972,4.880839 l 3.86223,7.522858 h -4.9339 l -2.01599,-3.321092 q -1.31571,2.015998 -2.09028,3.321092 h -4.3397 q 0.56236,-0.848841 2.47225,-4.000166 0.74274,-1.273262 1.67646,-2.907282 -0.70029,-1.145936 -2.26004,-3.851618 -1.69768,-3.045219 -3.00277,-5.538691 h 7.30003 q 0.13794,0.445642 0.59419,1.740125 0.27588,0.742736 0.68969,1.602188 0.26526,-0.456252 0.84884,-1.559746 0.33953,-0.689684 0.78518,-1.782567 z m -16.20226,7.798731 q 0,3.745514 -1.93112,6.33448 -2.02661,2.705683 -5.18854,2.705683 -3.25743,0 -5.27343,-2.726904 -1.89928,-2.567745 -1.89928,-6.313259 0,-4.000165 2.06905,-6.281427 1.95234,-2.143325 5.10366,-2.143325 3.09827,0 5.05061,2.153936 2.06905,2.291872 2.06905,6.270816 z m -5.10366,1.867452 q 0,-2.949725 -1.99478,-2.949725 -1.94172,0 -1.94172,2.970946 0,1.188378 0.5093,2.217598 0.57297,1.156547 1.4112,1.156547 0.81701,0 1.44303,-1.177768 0.57297,-1.071662 0.57297,-2.217598 z m -9.84656,-4.29726 q 0,1.909893 -0.91251,3.299871 -0.77456,1.167157 -1.93111,1.655241 0.74273,0.318315 1.2096,1.050441 0.46686,0.732126 0.46686,1.559747 0,2.05844 -2.19638,3.013387 -1.69768,0.742736 -4.45641,0.742736 -2.37676,0 -5.10366,-0.392589 -0.0743,-2.472251 -0.30771,-8.063994 -0.15916,-3.002777 -0.47747,-8.233763 2.016,-0.392589 5.10366,-0.392589 8.60513,0 8.60513,5.761512 z m -4.31848,1.994777 q 0,-0.81701 -0.65786,-1.252041 -0.59418,-0.392589 -1.55974,-0.371368 l -0.15916,3.193766 q 2.37676,0.08488 2.37676,-1.570357 z m -0.35015,5.039997 q 0,-1.230821 -1.76135,-1.230821 -0.18038,0 -0.37137,0.02122 l -0.0637,2.599578 q 2.19638,0.09549 2.19638,-1.389978 z M 163.28429,14.425994 q -0.14855,2.143325 -0.41381,7.480416 -0.15916,3.925892 -0.26526,9.029551 -1.38998,-1.092883 -4.2336,-3.257429 -1.23082,-0.859452 -3.67124,-2.578356 l -0.10611,5.623575 h -3.41658 q -0.0849,-2.153935 -0.39259,-8.127657 -0.26527,-4.838397 -0.54114,-8.1701 h 5.32648 l 3.94711,3.734903 q 0,-1.283873 -0.0424,-2.015999 -0.0318,-0.647242 -0.12732,-1.718904 z m -13.83611,7.798731 q 0,3.745514 -1.93112,6.33448 -2.02661,2.705683 -5.18854,2.705683 -3.25743,0 -5.27343,-2.726904 -1.89928,-2.567745 -1.89928,-6.313259 0,-4.000165 2.06905,-6.281427 1.95233,-2.143325 5.10366,-2.143325 3.09827,0 5.05061,2.153936 2.06905,2.291872 2.06905,6.270816 z m -5.10366,1.867452 q 0,-2.949725 -1.99478,-2.949725 -1.94173,0 -1.94173,2.970946 0,1.188378 0.50931,2.217598 0.57297,1.156547 1.4112,1.156547 0.81701,0 1.44303,-1.177768 0.57297,-1.071662 0.57297,-2.217598 z m -9.99511,-9.666183 -0.41381,8.668794 q -0.11672,2.801177 -0.27588,7.628963 h -5.9525 l -0.72151,-16.297757 z m -7.98973,0 -0.3077,6.674016 q -0.41381,-0.06366 -1.32632,-0.159157 -0.56235,-0.03183 -1.82501,-0.06366 -0.0637,0.626021 -0.22282,3.023998 -0.11671,2.323704 -0.38198,6.822564 h -5.13549 q -0.0849,-2.143325 -0.31831,-6.737679 -0.10611,-1.591578 -0.22282,-3.108883 l -1.67647,0.06366 -1.5173,0.159157 -0.26526,-6.674016 z m -13.34803,16.297757 h -5.80395 l -0.39259,-1.411199 q -0.24404,0.09549 -1.22021,0.647242 -0.62602,0.403199 -1.38998,1.071662 l -0.6048,-1.283873 q -0.18038,-0.381978 -0.51991,-1.071662 l -0.57297,2.04783 h -3.077052 q 0.679072,-2.620798 2.100882,-8.647573 0.87006,-4.031997 1.45364,-7.650184 h 6.37692 q 0.2971,1.665851 1.62341,7.756289 0.73213,3.183156 2.02661,8.541468 z m -6.69523,-3.48025 q -0.18038,-0.562358 -0.63664,-1.825009 -0.27587,-0.700295 -0.83823,-1.931115 -0.24404,0.61541 -0.76395,2.015999 -0.28649,0.806399 -0.67908,2.196377 0.31832,0 1.44303,-0.127326 0.67908,-0.09549 1.47487,-0.328926 z M 99.154314,14.425994 q -0.148547,2.143325 -0.41381,7.480416 -0.159158,3.925892 -0.265263,9.029551 -1.389978,-1.092883 -4.233597,-3.257429 -1.23082,-0.859452 -3.67124,-2.578356 l -0.106105,5.623575 h -3.416587 q -0.08488,-2.153935 -0.392589,-8.127657 -0.265263,-4.838397 -0.541137,-8.1701 h 5.326481 l 3.947113,3.734903 q 0,-1.283873 -0.04244,-2.015999 -0.03183,-0.647242 -0.127326,-1.718904 z m -13.836117,7.798731 q 0,3.745514 -1.931114,6.33448 -2.026609,2.705683 -5.188544,2.705683 -3.257429,0 -5.273428,-2.726904 -1.899283,-2.567745 -1.899283,-6.313259 0,-4.000165 2.069051,-6.281427 1.952336,-2.143325 5.10366,-2.143325 3.098271,0 5.050607,2.153936 2.069051,2.291872 2.069051,6.270816 z m -5.103659,1.867452 q 0,-2.949725 -1.994778,-2.949725 -1.941725,0 -1.941725,2.970946 0,1.188378 0.509305,2.217598 0.572968,1.156547 1.411199,1.156547 0.81701,0 1.443031,-1.177768 0.572968,-1.071662 0.572968,-2.217598 z m -9.952667,-1.389978 q 0,3.830397 -2.376757,6.026775 -2.451029,2.281261 -6.907447,2.281261 -2.864841,0 -4.424587,-0.286484 l -0.286484,-7.883616 q -0.137937,-3.034608 -0.498694,-8.371699 2.302482,-0.328926 4.806565,-0.328926 4.467028,0 6.992332,2.079662 2.695072,2.228209 2.695072,6.483027 z m -4.350313,1.305094 q 0,-1.559747 -1.007999,-2.302483 -0.838231,-0.61541 -2.143325,-0.562358 l -0.148547,6.652796 q 1.358146,-0.08488 2.217598,-0.880673 1.082273,-0.986779 1.082273,-2.907282 z" />
    <path
       style="fill:#000000;stroke-width:0.04794307"
       d="m 2.8807518,20.680151 1.51941,-9.26671 2.39667,3.33668 c 1.58596,2.208 2.41592,3.33535 2.45356,3.33273 0.0313,-0.002 0.34178,-0.17083 0.69,-0.3748 4.2736402,-2.50327 8.6359902,-4.27487 13.1389202,-5.33584 1.20137,-0.28307 3.73269,-0.71026 4.91227,-0.82901 6.27945,-0.63217 11.99264,0.41165 16.39421,2.99527 3.58848,2.10636 6.25238,5.19361 7.74996,8.98161 0.0996,0.25184 0.18254,0.4797 0.18439,0.50636 0.002,0.0267 -0.28089,-0.15435 -0.62831,-0.40224 -4.41179,-3.14793 -10.43221,-4.55125 -17.12764,-3.99235 -2.90825,0.24276 -5.67056,0.7916 -8.70417,1.72941 -2.67765,0.82777 -5.69201,2.09838 -8.26915,3.4856 -0.85016,0.45762 -1.92331,1.06865 -2.28328,1.30005 l -0.20191,0.1298 2.42225,3.39328 2.42225,3.39329 -9.26637,-1.51916 c -5.0965102,-0.83554 -9.2789902,-1.53674 -9.2944202,-1.55821 -0.0154,-0.0215 0.65569,-4.20907 1.49136,-9.30576 z"
       id="path4553"
       inkscape:connector-curvature="0" />
  </g>
</svg>
