<?xml version="1.0" encoding="UTF-8" standalone="no"?>
<svg
   xmlns:dc="http://purl.org/dc/elements/1.1/"
   xmlns:cc="http://creativecommons.org/ns#"
   xmlns:rdf="http://www.w3.org/1999/02/22-rdf-syntax-ns#"
   xmlns:svg="http://www.w3.org/2000/svg"
   xmlns="http://www.w3.org/2000/svg"
   xmlns:sodipodi="http://sodipodi.sourceforge.net/DTD/sodipodi-0.dtd"
   xmlns:inkscape="http://www.inkscape.org/namespaces/inkscape"
   width="12in"
   height="12in"
   viewBox="0 0 12 12"
   version="1.1"
   id="svg8"
   inkscape:version="1.0.1 (3bc2e813f5, 2020-09-07)"
   sodipodi:docname="FB Wiz Double.svg">
  <defs
     id="defs2" />
  <sodipodi:namedview
     id="base"
     pagecolor="#ffffff"
     bordercolor="#666666"
     borderopacity="1.0"
     inkscape:pageopacity="0.0"
     inkscape:pageshadow="2"
     inkscape:zoom="1.2316035"
     inkscape:cx="430.82419"
     inkscape:cy="49.160808"
     inkscape:document-units="in"
     inkscape:current-layer="layer1"
     inkscape:document-rotation="0"
     showgrid="true"
     units="in"
     inkscape:snap-global="false"
     inkscape:window-width="1807"
     inkscape:window-height="1001"
     inkscape:window-x="25"
     inkscape:window-y="12"
     inkscape:window-maximized="0"
     inkscape:snap-nodes="false"
     inkscape:snap-others="false"
     inkscape:snap-smooth-nodes="false"
     inkscape:object-paths="false"
     inkscape:snap-intersection-paths="false"
     inkscape:snap-grids="false"
     inkscape:snap-to-guides="false"
     inkscape:snap-bbox="true"
     inkscape:bbox-nodes="true">
    <inkscape:grid
       type="xygrid"
       id="grid849"
       units="in"
       spacingx="0.25"
       spacingy="0.25"
       empspacing="4" />
  </sodipodi:namedview>
  <metadata
     id="metadata5">
    <rdf:RDF>
      <cc:Work
         rdf:about="">
        <dc:format>image/svg+xml</dc:format>
        <dc:type
           rdf:resource="http://purl.org/dc/dcmitype/StillImage" />
        <dc:title></dc:title>
        <dc:creator>
          <cc:Agent>
            <dc:title>Doctor Wizard</dc:title>
          </cc:Agent>
        </dc:creator>
        <dc:rights>
          <cc:Agent>
            <dc:title>Copyright 2021+ by Doctor Wizard</dc:title>
          </cc:Agent>
        </dc:rights>
        <dc:publisher>
          <cc:Agent>
            <dc:title>Doctor Wizard</dc:title>
          </cc:Agent>
        </dc:publisher>
        <dc:source>Doctor Wizard</dc:source>
        <dc:contributor>
          <cc:Agent>
            <dc:title>Doctor Wizard</dc:title>
          </cc:Agent>
        </dc:contributor>
      </cc:Work>
    </rdf:RDF>
  </metadata>
  <g
     inkscape:label="Layer 1"
     inkscape:groupmode="layer"
     id="layer1">
    <path
       id="rect5197-3-63-6"
       style="opacity:0.928105;fill:none;fill-opacity:1;stroke:#c00080;stroke-width:0.0019685;stroke-miterlimit:4;stroke-dasharray:none;stroke-opacity:1"
       d="M 7.2397362,0.2510225 H 7.50285 V 0.79097229 H 7.2397362 Z m -0.6636243,0 h 0.661656 v 0.53994987 h -0.661656 z m -0.3332349,0 H 6.574143 V 0.79097237 H 6.242877 Z m -0.204338,0 H 6.2409085 V 0.79097234 H 6.038539 Z m -0.2087827,0 H 6.0365705 V 0.79097232 H 5.8297563 Z m -0.2976769,0 H 5.8277878 V 0.79097226 H 5.5320794 Z m -0.8132629,0 H 5.5301109 V 0.79097227 H 4.7188165 Z m 2.626973,0.41619652 q -0.0023,0 -0.00518,-5.754e-4 -0.0023,-5.754e-4 -0.0046,-5.754e-4 -0.00518,-0.00115 -0.010357,-0.00173 -0.00518,-5.754e-4 -0.010357,-5.754e-4 -5.75e-4,0 -0.00173,0 -5.75e-4,0 -0.00115,0 -0.00115,0 -0.00288,0 -0.00115,5.754e-4 -0.00288,5.754e-4 -0.00345,0.00115 -0.00518,0.00115 -0.00173,0 -0.00173,0 -0.00115,5.754e-4 -0.00288,5.754e-4 -0.00115,0 -0.0023,0 -0.0069,0 -0.011508,-0.00115 -0.00403,-0.00115 -0.00806,-0.00403 -0.00173,-0.00115 -0.00345,-0.00288 -0.00115,-0.00173 -0.00288,-0.00403 -0.00575,-0.0069 -0.010932,-0.015535 -0.0046,-0.00921 -0.00806,-0.017837 -0.00345,-0.00863 -0.00518,-0.016686 -0.00173,-0.00863 -0.00173,-0.015535 0,-0.012083 0.00518,-0.018987 0.00575,-0.0069 0.01496,-0.0069 0.010357,0 0.017837,0.0069 0.00806,0.0069 0.015535,0.01611 0.00115,0.00115 0.00173,0.0023 0.00115,0.00115 0.0023,0.00173 0.00806,0.010357 0.017261,0.018987 0.00978,0.00863 0.023015,0.00863 0.00978,0 0.01496,-0.0046 0.00575,-0.00518 0.00575,-0.014384 0,-0.00288 -0.00173,-0.00575 -0.00173,-0.00288 -0.00518,-0.00575 -0.00748,-0.00633 -0.020138,-0.013234 -0.012658,-0.0069 -0.026467,-0.015535 -0.020138,-0.012658 -0.036824,-0.031646 -0.016686,-0.019563 -0.016686,-0.049482 0,-0.040852 0.027618,-0.066743 0.028193,-0.026467 0.071346,-0.026467 0.00748,0 0.014384,0.00115 0.00748,0.00115 0.014384,0.0023 0.0069,0.00173 0.013809,0.00288 0.00748,0.00115 0.01496,0.00115 0.00403,0 0.00748,-0.00115 0.00345,-0.00115 0.00748,-0.00288 0.00345,-0.00115 0.0069,-0.0023 0.00345,-0.00115 0.00748,-0.00115 5.75e-4,0 0.00115,0 0.00115,0 0.00173,0 0.011508,0.0023 0.021864,0.01496 0.010932,0.012083 0.017837,0.026467 0.00403,0.00863 0.00575,0.016686 0.0023,0.00748 0.0023,0.013234 0,0.012083 -0.00806,0.020138 -0.00748,0.00748 -0.019563,0.00748 -0.011508,0 -0.020713,-0.0069 -0.00863,-0.0069 -0.016686,-0.01496 -0.00115,-0.00115 -0.0023,-0.0023 -0.00115,-0.00115 -0.00288,-0.0023 -0.00633,-0.0069 -0.013809,-0.012083 -0.0069,-0.00518 -0.015535,-0.00518 -0.00748,0 -0.013809,0.00575 -0.00575,0.00575 -0.00575,0.013234 0,0.00633 0.0046,0.011507 0.00518,0.00518 0.013234,0.00978 0.00863,0.00575 0.019563,0.011507 0.010932,0.00518 0.023015,0.011508 0.02244,0.012658 0.040852,0.031646 0.018987,0.018987 0.018987,0.050633 0,0.036824 -0.03107,0.061565 -0.030495,0.024741 -0.075949,0.024741 -0.00518,0 -0.010357,-5.754e-4 -0.0046,0 -0.00921,-5.754e-4 -0.0046,-5.754e-4 -0.00978,-0.00115 -0.0046,-5.755e-4 -0.00978,-0.00115 z M 7.1421073,0.45663212 v 0.094937 q 0,0.017261 0.00806,0.028193 0.00863,0.010932 0.021289,0.010932 0.010932,0 0.015535,-0.00173 0.00518,-0.0023 0.00806,-0.0046 5.75e-4,-5.754e-4 0.00115,-0.00115 5.75e-4,-5.753e-4 0.00115,-5.753e-4 0.00173,-0.0023 0.00403,-0.00345 0.00288,-0.00115 0.00748,-0.00115 0.00633,0 0.010357,0.00518 0.0046,0.00518 0.00633,0.011508 0.00115,0.0023 0.00115,0.0046 5.75e-4,0.0023 5.75e-4,0.0046 0,0.021864 -0.021289,0.036824 -0.020713,0.014384 -0.04603,0.021864 -0.013809,0.00403 -0.027043,0.00575 -0.013234,0.0023 -0.023015,0.0023 -0.043729,0 -0.070771,-0.025316 -0.027043,-0.025316 -0.027043,-0.066743 v -0.130029 q 0,-0.00575 -0.00173,-0.00748 -0.00173,-0.00173 -0.00806,-0.00173 l -0.028769,-5.753e-4 q -0.00806,5.753e-4 -0.00978,-0.0023 -0.0023,-0.00288 -0.0023,-0.012083 l -5.75e-4,-0.013234 q 5.75e-4,0 5.75e-4,-5.754e-4 0,-5.753e-4 0,-0.00115 5.75e-4,-0.00288 0.0023,-0.00575 0.00115,-0.00288 0.00345,-0.00403 l 0.1288838,-0.081703 q 0.0023,-5.753e-4 0.0046,-0.00115 0.00288,-5.754e-4 0.0069,-5.754e-4 l 0.023015,-5.754e-4 q 0.0069,5.754e-4 0.00921,0.00403 0.0023,0.00288 0.0023,0.012083 v 0.037975 q 0,0.00863 0.0023,0.011508 0.00288,0.0023 0.012083,0.0023 l 0.051784,-5.754e-4 q 0.010357,5.754e-4 0.013234,0.0046 0.00345,0.00345 0.00345,0.01611 v 0.01611 q 0,0.013809 -0.00403,0.018987 -0.00403,0.00518 -0.014384,0.00518 l -0.050633,-5.753e-4 q -0.00748,5.753e-4 -0.010932,0.00345 -0.00288,0.0023 -0.00288,0.010357 z m -0.404487,0.1081703 q 0,0.00345 0,0.00633 5.75e-4,0.00288 5.75e-4,0.00633 0,0.00115 0,0.00288 0,0.00173 0,0.00345 0,0.00921 0.00173,0.017837 0.00173,0.00863 0.00806,0.015535 5.75e-4,5.754e-4 0.00115,0.00173 5.75e-4,5.754e-4 0.00115,0.00115 0,0 0,0 5.75e-4,0 5.75e-4,0 0.00288,0.00403 0.00575,0.00863 0.00288,0.00403 0.00288,0.00921 0,0.01611 -0.021289,0.02359 -0.020714,0.00748 -0.06214,0.00748 -0.048331,0 -0.072497,-0.00806 -0.02359,-0.00806 -0.02359,-0.024166 0,-0.00806 0.0046,-0.012658 0.00518,-0.00518 0.010932,-0.00978 0,0 0,0 5.75e-4,0 5.75e-4,0 5.75e-4,-5.753e-4 0.00115,-5.753e-4 5.75e-4,-5.754e-4 0.00115,-0.00115 0.00863,-0.00633 0.012658,-0.027618 0.0046,-0.021289 0.00518,-0.063866 5.75e-4,-0.024741 5.75e-4,-0.035098 5.75e-4,-0.010932 5.75e-4,-0.018987 0,-0.00115 0,-0.00288 0,-0.00173 0,-0.00345 0,-0.064442 -0.00288,-0.081128 -0.00288,-0.016686 -0.01611,-0.023015 -0.00921,-0.0046 -0.013234,-0.00978 -0.00403,-0.00518 -0.00403,-0.011507 0,-0.01611 0.023015,-0.027043 0.02359,-0.011507 0.051208,-0.018412 0.021864,-0.0046 0.040852,-0.0069 0.019563,-0.00288 0.028193,-0.00288 0.00978,0 0.013234,0.00288 0.00345,0.00288 0.00345,0.010932 l -0.00345,0.1173763 q 0,0.010932 0.00345,0.016686 0.00345,0.00518 0.00978,0.00518 0.0046,0 0.010357,-0.00748 0.00633,-0.00806 0.015535,-0.017261 0.00978,-0.00921 0.02359,-0.016686 0.014384,-0.00806 0.035673,-0.00806 0.021289,0 0.040276,0.00748 0.019563,0.00748 0.03107,0.020138 0.012658,0.012658 0.017261,0.028769 0.0046,0.01611 0.00518,0.047181 l 0.0023,0.1012658 q 5.75e-4,0.010357 0.00288,0.017837 0.00288,0.0069 0.00748,0.010932 0.00115,5.754e-4 0.00173,0.00173 0.00115,5.754e-4 0.00173,0.00115 0.00518,0.00345 0.00921,0.00863 0.00403,0.0046 0.00403,0.010932 0,0.01496 -0.02244,0.02244 -0.02244,0.0069 -0.067894,0.0069 -0.041427,0 -0.06214,-0.00633 -0.020714,-0.0069 -0.020714,-0.020713 0,-0.00518 0.0023,-0.00921 0.0023,-0.00403 0.00575,-0.00806 0,-5.754e-4 0,-5.754e-4 0,0 0,0 5.75e-4,-0.00115 0.00115,-0.00173 0.00115,-0.00115 0.00173,-0.0023 0.00633,-0.00806 0.00921,-0.025316 0.00288,-0.017837 0.00288,-0.050633 0,-0.043153 -0.00978,-0.06099 -0.00921,-0.018412 -0.03107,-0.018412 -0.01611,0 -0.02359,0.010932 -0.0069,0.010357 -0.0069,0.035673 v 0.05351 z M 6.5500488,0.36802452 q 0.00806,5.753e-4 0.013234,0.00863 0.00518,0.00748 0.00518,0.018987 0,0.012083 -0.00518,0.021864 -0.0046,0.00921 -0.00978,0.01611 -0.00575,0.00748 -0.010932,0.012658 -0.0046,0.0046 -0.0046,0.00806 0,0.00173 0,0.00345 5.75e-4,0.00173 5.75e-4,0.00345 0,0.00173 0,0.00345 5.75e-4,0.00173 5.75e-4,0.00345 0,0.04603 -0.039701,0.074223 -0.039701,0.027618 -0.1047179,0.027618 -0.00345,0 -0.00748,0 -0.00345,-5.753e-4 -0.0069,-0.00115 -0.00403,0 -0.00806,0 -0.00345,-5.754e-4 -0.0069,-5.754e-4 -0.0069,0 -0.011507,0.00403 -0.00403,0.00403 -0.00403,0.010932 0,0.00921 0.00978,0.01496 0.00978,0.00518 0.026467,0.00518 0.012658,0 0.025316,-0.00115 0.012658,-0.00173 0.025316,-0.00345 0.012658,-0.00173 0.025316,-0.00288 0.012658,-0.00173 0.025316,-0.00173 0.039125,0 0.06099,0.017837 0.021864,0.017837 0.021864,0.050633 0,0.048331 -0.051208,0.079977 -0.051208,0.031646 -0.1306099,0.031646 -0.062716,0 -0.101266,-0.020138 -0.037975,-0.019563 -0.037975,-0.052934 0,-0.010357 0.0046,-0.017261 0.0046,-0.0069 0.010357,-0.011508 0.00575,-0.00403 0.010357,-0.0069 0.0046,-0.0023 0.0046,-0.0046 0,-0.00288 -0.0046,-0.0069 -0.0046,-0.0046 -0.00978,-0.010932 -0.00575,-0.00575 -0.010357,-0.013234 -0.0046,-0.00748 -0.0046,-0.015535 0,-0.013234 0.0069,-0.023015 0.0069,-0.00978 0.015535,-0.017261 0.00806,-0.00748 0.01496,-0.011508 0.0069,-0.0046 0.0069,-0.00633 0,-0.0023 -0.00575,-0.00806 -0.00575,-0.00633 -0.012658,-0.015535 -0.00748,-0.00921 -0.013234,-0.021289 -0.00575,-0.012083 -0.00575,-0.027043 0,-0.039701 0.040276,-0.067894 0.040852,-0.028769 0.097814,-0.028769 0.011507,0 0.021864,0.00173 0.010932,0.00173 0.021289,0.00345 0.010932,0.00173 0.020713,0.00345 0.010357,0.00173 0.020714,0.00173 0.016686,0 0.031645,-0.00575 0.015535,-0.00633 0.029344,-0.018412 0.00345,-0.00288 0.00575,-0.00403 0.0023,-0.00115 0.00403,-0.00115 z m -0.2128884,0.3141542 q -0.00345,0 -0.00518,0.0023 -0.00173,0.0023 -0.00173,0.00633 0,0.016686 0.018412,0.026467 0.018412,0.00978 0.048331,0.00978 0.025316,0 0.040852,-0.00748 0.015535,-0.0069 0.015535,-0.018987 0,-0.00748 -0.00575,-0.012658 -0.00518,-0.00518 -0.013234,-0.00518 -0.00575,0 -0.012083,5.753e-4 -0.00633,5.754e-4 -0.012083,0.00115 -0.00633,5.753e-4 -0.012658,0.00115 -0.00575,5.754e-4 -0.012083,5.754e-4 -0.00518,0 -0.00921,0 -0.00403,0 -0.00806,-5.754e-4 -0.00518,0 -0.011508,-0.00115 -0.00633,-5.754e-4 -0.015535,-0.00173 -0.0023,-5.754e-4 -0.00345,-5.754e-4 -5.75e-4,0 -5.75e-4,0 z m 0.060414,-0.2554661 q -0.012658,5.754e-4 -0.021864,0.010932 -0.00863,0.010357 -0.00863,0.027043 0,0.032221 0.00921,0.050057 0.00921,0.017837 0.025892,0.017837 0.014384,0 0.02244,-0.011507 0.00863,-0.011508 0.00863,-0.030495 0,-0.029919 -0.00978,-0.046605 -0.00921,-0.016686 -0.025892,-0.016686 z M 6.2036743,0.40254692 v 0.1634062 q 0,0.018412 0.00288,0.027043 0.00345,0.00863 0.011507,0.015535 5.75e-4,5.754e-4 0.00115,0.00173 0.00115,5.754e-4 0.0023,0.00115 0.0046,0.00345 0.00748,0.00633 0.00288,0.0023 0.0046,0.0046 0.00173,0.0023 0.0023,0.00518 5.75e-4,0.0023 5.75e-4,0.00575 0,0.017837 -0.023015,0.027043 -0.023015,0.00863 -0.067894,0.00863 -0.052934,0 -0.077675,-0.00748 -0.024166,-0.00748 -0.024166,-0.024741 0,-0.00921 0.00518,-0.014384 0.00518,-0.00575 0.011508,-0.010357 5.75e-4,0 5.75e-4,0 0,-5.753e-4 0,-5.753e-4 5.75e-4,-5.754e-4 5.75e-4,-5.754e-4 5.75e-4,-5.754e-4 0.00115,-5.754e-4 0.00921,-0.00633 0.012658,-0.020713 0.00345,-0.01496 0.00345,-0.043153 0,-0.0046 0,-0.00921 0,-0.0046 -5.75e-4,-0.00978 0,-0.0046 -5.75e-4,-0.00921 0,-0.0046 0,-0.00921 0,-0.0023 0,-0.00403 0,-0.00173 0,-0.00345 -0.00115,-0.016686 -0.0023,-0.021864 -5.75e-4,-0.00575 -0.00403,-0.00921 -5.75e-4,-5.753e-4 -0.00115,-5.753e-4 -5.75e-4,-5.755e-4 -0.00115,-0.00115 -0.00173,-0.00115 -0.00403,-0.0023 -0.00173,-0.00173 -0.00403,-0.0023 -5.75e-4,-5.754e-4 -0.00115,-5.754e-4 -5.75e-4,-5.754e-4 -5.75e-4,-5.754e-4 -0.0069,-0.00345 -0.012083,-0.00748 -0.0046,-0.0046 -0.0046,-0.013809 0,-0.00921 0.00633,-0.01611 0.00633,-0.00748 0.023015,-0.013809 0.00921,-0.00403 0.021864,-0.00748 0.013234,-0.00403 0.030495,-0.00806 0.018987,-0.0046 0.034522,-0.0069 0.01611,-0.00288 0.028769,-0.00345 0.00806,0 0.012083,0.0046 0.00403,0.0046 0.00403,0.012658 z m -0.057537,-0.12313 q 0.00403,5.753e-4 0.00863,0.00115 0.00518,0 0.00978,0.00115 0.013809,0.0023 0.025316,0.00978 0.011507,0.00748 0.011507,0.023015 0,0.02244 -0.029919,0.037975 -0.02992,0.015535 -0.074223,0.015535 -0.021864,0 -0.035673,-0.00921 -0.013809,-0.00978 -0.013809,-0.025316 0,-0.021289 0.028193,-0.036824 0.028769,-0.015535 0.070196,-0.016686 z m -0.1478716,0.1611047 v 0.089758 0.044879 q 0,0.021289 0.00288,0.028769 0.00345,0.00748 0.012658,0.012083 0.0023,0.00115 0.00403,0.0023 0.0023,5.753e-4 0.00403,0.00173 0.00575,0.00288 0.00748,0.00633 0.00173,0.00345 0.00173,0.00921 0,0.019563 -0.020713,0.026467 -0.020138,0.0069 -0.073648,0.0069 -0.051208,0 -0.074223,-0.00806 -0.022439,-0.00806 -0.022439,-0.026467 0,-0.00863 0.00575,-0.012658 0.00575,-0.00403 0.012658,-0.0069 0.011507,-0.0046 0.01496,-0.030495 0.00345,-0.026467 0.00345,-0.1001151 0,-0.068469 -0.00403,-0.088032 -0.00403,-0.019563 -0.019563,-0.028769 -0.00403,-0.0023 -0.0069,-0.00403 -0.00288,-0.0023 -0.00518,-0.0046 -0.0046,-0.00403 -0.0069,-0.00863 -0.00173,-0.0046 -0.00173,-0.010357 0,-0.018987 0.024741,-0.03107 0.024741,-0.012658 0.054085,-0.019563 0.021864,-0.0046 0.041427,-0.0069 0.019563,-0.0023 0.029919,-0.0023 0.011508,0 0.016686,0.0069 0.00575,0.00633 0.00575,0.020714 0,0.00345 -5.75e-4,0.013809 -5.75e-4,0.010357 -0.0023,0.027618 -0.00115,0.011507 -0.0023,0.023015 -5.75e-4,0.011507 -5.75e-4,0.023015 -5.75e-4,0.011508 -0.00115,0.023015 0,0.011508 0,0.023015 z M 5.6846872,0.39046412 h 0.074799 q 0.032221,5.753e-4 0.040276,0.00345 0.00806,0.00288 0.00806,0.015535 0,0.0046 -0.0023,0.011508 -0.0023,0.0069 -0.0069,0.01496 l -0.074223,0.1317606 q -0.00575,0.00978 -0.00748,0.01496 -0.00173,0.0046 -0.00173,0.00863 0,0.00633 0.00518,0.00978 0.00518,0.00345 0.014384,0.00345 0.015535,0 0.024166,-0.00748 0.00863,-0.00748 0.013809,-0.01611 0.0023,-0.00288 0.00403,-0.00575 0.00173,-0.00345 0.00345,-0.00633 0.00345,-0.0046 0.0069,-0.00806 0.00345,-0.00345 0.00806,-0.00345 0.012083,0 0.019563,0.00978 0.00806,0.00978 0.00806,0.025892 0,0.00633 -0.0023,0.015535 -0.0023,0.00863 -0.00633,0.018412 -0.00748,0.016686 -0.019563,0.03107 -0.012083,0.013809 -0.026467,0.013809 -0.00403,0 -0.00863,-0.00173 -0.0046,-0.00115 -0.00978,-0.0023 -0.00575,-0.00173 -0.012083,-0.00345 -0.00575,-0.00115 -0.012658,-0.00115 H 5.5776676 q -0.017837,0 -0.027618,-0.00518 -0.00978,-0.00575 -0.00978,-0.01496 0,-0.00345 5.75e-4,-0.00633 0.00115,-0.00345 0.0023,-0.00575 0,-0.00173 0.0023,-0.00633 0.00288,-0.00518 0.0069,-0.010357 0,-5.753e-4 0,-5.753e-4 5.75e-4,-5.754e-4 0.00115,-0.00115 0.00288,-0.0046 0.00518,-0.00863 0.00288,-0.00403 0.00403,-0.00575 l 0.064442,-0.1035673 q 0.00978,-0.015535 0.013809,-0.02359 0.00403,-0.00806 0.00403,-0.012083 0,-0.00633 -0.00575,-0.00863 -0.00575,-0.00288 -0.017837,-0.00288 -0.013809,0 -0.021289,0.00748 -0.00748,0.0069 -0.013234,0.01496 -5.75e-4,0.00115 -0.00115,0.0023 -5.75e-4,0.00115 -0.00115,0.00173 -0.0046,0.00748 -0.010357,0.013234 -0.00518,0.00575 -0.01496,0.00575 -0.010357,0 -0.017837,-0.00806 -0.0069,-0.00863 -0.0069,-0.020714 0,-0.0069 0.00173,-0.01496 0.00173,-0.00863 0.0046,-0.016686 0.00518,-0.01496 0.013234,-0.028193 0.00863,-0.013234 0.017261,-0.019563 0.00288,-0.00173 0.00518,-0.00288 0.00288,-0.00115 0.00575,-0.00115 0.00173,0 0.00403,5.754e-4 0.00288,0 0.00575,0.00115 0.0046,0.00173 0.00921,0.00288 0.0046,0.00115 0.00921,0.0023 0.0069,0.00115 0.013234,0.00173 0.0069,5.754e-4 0.014384,5.754e-4 l 0.046605,5.755e-4 z m -0.1915991,0.012083 v 0.1634062 q 0,0.018412 0.00288,0.027043 0.00345,0.00863 0.011508,0.015535 5.75e-4,5.754e-4 0.00115,0.00173 0.00115,5.754e-4 0.0023,0.00115 0.0046,0.00345 0.00748,0.00633 0.00288,0.0023 0.0046,0.0046 0.00173,0.0023 0.0023,0.00518 5.75e-4,0.0023 5.75e-4,0.00575 0,0.017837 -0.023015,0.027043 -0.023015,0.00863 -0.067894,0.00863 -0.052934,0 -0.077675,-0.00748 -0.024166,-0.00748 -0.024166,-0.024741 0,-0.00921 0.00518,-0.014384 0.00518,-0.00575 0.011507,-0.010357 5.75e-4,0 5.75e-4,0 0,-5.753e-4 0,-5.753e-4 5.75e-4,-5.754e-4 5.75e-4,-5.754e-4 5.75e-4,-5.754e-4 0.00115,-5.754e-4 0.00921,-0.00633 0.012658,-0.020713 0.00345,-0.01496 0.00345,-0.043153 0,-0.0046 0,-0.00921 0,-0.0046 -5.75e-4,-0.00978 0,-0.0046 -5.75e-4,-0.00921 0,-0.0046 0,-0.00921 0,-0.0023 0,-0.00403 0,-0.00173 0,-0.00345 -0.00115,-0.016686 -0.0023,-0.021864 -5.75e-4,-0.00575 -0.00403,-0.00921 -5.75e-4,-5.753e-4 -0.00115,-5.753e-4 -5.75e-4,-5.755e-4 -0.00115,-0.00115 -0.00173,-0.00115 -0.00403,-0.0023 -0.00173,-0.00173 -0.00403,-0.0023 -5.75e-4,-5.754e-4 -0.00115,-5.754e-4 -5.75e-4,-5.754e-4 -5.75e-4,-5.754e-4 -0.0069,-0.00345 -0.012083,-0.00748 -0.0046,-0.0046 -0.0046,-0.013809 0,-0.00921 0.00633,-0.01611 0.00633,-0.00748 0.023015,-0.013809 0.00921,-0.00403 0.021864,-0.00748 0.013234,-0.00403 0.030495,-0.00806 0.018987,-0.0046 0.034522,-0.0069 0.01611,-0.00288 0.028769,-0.00345 0.00806,0 0.012083,0.0046 0.00403,0.0046 0.00403,0.012658 z m -0.057537,-0.12313 q 0.00403,5.753e-4 0.00863,0.00115 0.00518,0 0.00978,0.00115 0.013809,0.0023 0.025316,0.00978 0.011508,0.00748 0.011508,0.023015 0,0.02244 -0.029919,0.037975 -0.02992,0.015535 -0.074223,0.015535 -0.021864,0 -0.035673,-0.00921 -0.013809,-0.00978 -0.013809,-0.025316 0,-0.021289 0.028193,-0.036824 0.028769,-0.015535 0.070196,-0.016686 z m -0.198504,0.2318757 -0.035098,0.088032 q -0.00863,0.02244 -0.015535,0.036249 -0.0069,0.013234 -0.012658,0.021289 -0.00633,0.0069 -0.013809,0.00978 -0.0069,0.00288 -0.01611,0.00288 -0.017261,0 -0.027618,-0.0069 -0.010357,-0.0069 -0.017261,-0.024166 l -0.055812,-0.1323426 q -0.0023,-0.00518 -0.00403,-0.00863 -0.00173,-0.00345 -0.00288,-0.00518 -0.00173,-0.00115 -0.00288,-0.00173 -0.00115,-5.753e-4 -0.00345,-5.753e-4 -0.00173,0 -0.00288,5.753e-4 -0.00115,0 -0.0023,5.754e-4 -0.00345,0.00288 -0.00806,0.011507 -0.00403,0.00863 -0.012658,0.030495 l -0.03855,0.094361 q -0.0023,0.00575 -0.0046,0.010357 -0.00173,0.0046 -0.00345,0.00863 -0.00806,0.014384 -0.017261,0.018987 -0.00863,0.0046 -0.024166,0.0046 -0.017837,0 -0.028193,-0.00806 -0.00978,-0.00863 -0.018412,-0.02992 L 4.7658157,0.36744912 q -0.00288,-0.00748 -0.00518,-0.012083 -0.00173,-0.0046 -0.00345,-0.0069 -0.00115,-0.00173 -0.0023,-0.0023 -0.00115,-0.00115 -0.00288,-0.00173 -0.00978,-0.00518 -0.017261,-0.011507 -0.0069,-0.0069 -0.0069,-0.019563 0,-0.018412 0.024741,-0.028193 0.024741,-0.010357 0.070771,-0.010357 0.055236,0 0.075949,0.00748 0.021289,0.00748 0.021289,0.027618 0,0.00518 -0.0023,0.00978 -0.00173,0.00403 -0.00403,0.00806 0,0 -5.75e-4,5.754e-4 0,0 0,0 -0.0023,0.00403 -0.00403,0.00806 -0.00173,0.00403 -0.00173,0.00863 0,0.00288 0.0046,0.019563 0.00518,0.01611 0.012083,0.035098 0.0023,0.0069 0.0046,0.013809 0.00288,0.00633 0.00575,0.012658 0.00518,0.012083 0.010357,0.020138 0.00518,0.00806 0.00921,0.00806 0.00575,0 0.011507,-0.00748 0.00575,-0.00806 0.011507,-0.02359 l 0.011508,-0.032221 q 5.75e-4,-0.00115 5.75e-4,-0.00288 5.75e-4,-0.00173 5.75e-4,-0.00288 0,-0.00115 -5.75e-4,-0.0023 0,-0.00115 -0.00115,-0.00288 l -0.00806,-0.020138 q -0.00288,-0.00748 -0.00748,-0.012658 -0.0046,-0.00518 -0.00978,-0.00863 -0.00173,-0.00115 -0.00345,-0.0023 -0.00173,-0.00115 -0.00345,-0.0023 -0.00575,-0.00403 -0.010357,-0.00863 -0.00403,-0.00518 -0.00403,-0.015535 0,-0.017261 0.027043,-0.025892 0.027618,-0.00921 0.079977,-0.00921 0.054085,0 0.078826,0.00806 0.024741,0.00748 0.024741,0.024741 0,0.0069 -0.00403,0.011508 -0.00345,0.00403 -0.00806,0.00806 0,5.754e-4 -5.75e-4,5.754e-4 0,0 0,0 -0.0046,0.00403 -0.00806,0.00806 -0.00345,0.00403 -0.00345,0.010357 0,0.0069 0.0023,0.01496 0.0023,0.00748 0.00575,0.01496 0.00173,0.00403 0.00345,0.00806 0.0023,0.00345 0.00403,0.0069 0.00288,0.00575 0.00575,0.011507 0.00288,0.00518 0.00518,0.00978 0.00806,0.016686 0.012083,0.024741 0.0046,0.00748 0.00806,0.00978 0.00173,0.00115 0.00288,0.00173 0.00173,0 0.00345,0 0.0023,0 0.00403,-0.00115 0.0023,-0.00115 0.0046,-0.00345 0.00288,-0.00345 0.00575,-0.010932 0.00345,-0.00806 0.00806,-0.020713 l 0.013809,-0.039701 q 0.00288,-0.00863 0.00403,-0.014384 0.00173,-0.00633 0.00173,-0.010357 0,-0.00633 -0.0023,-0.00921 -0.0023,-0.00345 -0.00921,-0.00575 -0.010932,-0.00345 -0.017837,-0.010357 -0.00633,-0.00748 -0.00633,-0.016686 0,-0.016686 0.018412,-0.024166 0.018412,-0.00748 0.059839,-0.00748 0.032221,0 0.047756,0.00863 0.01611,0.00863 0.01611,0.025316 0,0.00288 -5.75e-4,0.00575 -5.75e-4,0.0023 -0.00173,0.0046 -0.00173,0.00403 -0.00575,0.00863 -0.00403,0.00403 -0.010932,0.010357 -0.00173,0.00115 -0.00288,0.0023 -0.00115,0.00115 -0.0023,0.0023 -0.00173,0.00173 -0.00345,0.00345 -0.00115,0.00173 -0.0023,0.00403 -0.00288,0.00403 -0.00575,0.011507 -0.00288,0.0069 -0.00806,0.020138 l -0.048907,0.1300345 z M 4.5897524,0.39679322 q 0.0023,-0.0046 0.00403,-0.00978 0.0023,-0.00575 0.00403,-0.010932 0.0046,-0.010932 0.00863,-0.021289 0.0046,-0.010932 0.00921,-0.021289 0,-5.753e-4 0,-5.753e-4 5.75e-4,-5.754e-4 5.75e-4,-0.00115 0.0023,-0.00575 0.00403,-0.011508 0.0023,-0.00575 0.00403,-0.010932 0.00518,-0.01496 0.012083,-0.024741 0.0069,-0.010357 0.02359,-0.010357 0.021289,0 0.033372,0.00633 0.012083,0.00575 0.012083,0.01611 0,0.0046 -0.00173,0.010357 -0.00173,0.00575 -0.00518,0.012083 -0.013234,0.024741 -0.025317,0.050057 -0.012083,0.025316 -0.02359,0.050633 L 4.548325,0.64938242 q -0.00978,0.023015 -0.017261,0.039701 -0.0069,0.016686 -0.010357,0.026467 -0.00748,0.019563 -0.012658,0.03107 -0.0046,0.011507 -0.00863,0.017261 -0.0046,0.00575 -0.00978,0.0069 -0.0046,0.00173 -0.012658,0.00173 -0.018412,0 -0.03107,-0.00748 -0.012658,-0.0069 -0.012658,-0.016686 0,-0.00575 0.00345,-0.014384 0.00345,-0.00863 0.00806,-0.017837 0.00115,-0.0023 0.0023,-0.0046 0.00115,-0.0023 0.0023,-0.0046 0.00403,-0.00748 0.0069,-0.013809 0.00345,-0.00575 0.00575,-0.010357 l 0.026473,-0.054665 z m -0.3446484,0.1421173 5.75e-4,0.028193 q 5.75e-4,0.020138 0.0023,0.030495 0.0023,0.010357 0.00806,0.018412 5.75e-4,5.753e-4 0.00115,0.00173 5.75e-4,5.754e-4 0.00115,0.00173 5.75e-4,5.754e-4 5.75e-4,0.00115 5.75e-4,0 5.75e-4,5.753e-4 0.0023,0.00345 0.00403,0.0069 0.00173,0.00288 0.00173,0.00748 0,0.017261 -0.021864,0.025316 -0.021864,0.00806 -0.066743,0.00806 -0.047181,0 -0.065593,-0.00633 -0.018412,-0.00633 -0.018412,-0.023015 0,-0.0069 0.00173,-0.010357 0.0023,-0.00345 0.00575,-0.00575 0.00115,-0.00115 0.0023,-0.0023 0.00173,-0.00115 0.00288,-0.00288 0.0046,-0.00403 0.00806,-0.013234 0.00403,-0.00978 0.0046,-0.030495 0,-0.00403 0,-0.00806 5.75e-4,-0.0046 5.75e-4,-0.00863 5.75e-4,-0.00806 5.75e-4,-0.016686 5.75e-4,-0.00863 5.75e-4,-0.016686 0,-0.028769 -0.0069,-0.042002 -0.0069,-0.013234 -0.021864,-0.013234 -0.016686,0 -0.022439,0.017837 -0.00575,0.017261 -0.00575,0.071922 l 5.75e-4,0.02359 q 5.75e-4,0.011507 0.0023,0.018987 0.0023,0.00748 0.00518,0.012658 0.00173,0.00403 0.00288,0.0069 0.00173,0.00288 0.00288,0.00575 5.75e-4,0.0023 0.00115,0.00518 5.75e-4,0.0023 5.75e-4,0.0046 0,0.01611 -0.023015,0.024166 -0.02244,0.00806 -0.065017,0.00806 -0.042002,0 -0.062716,-0.00633 -0.020138,-0.0069 -0.020138,-0.021289 0,-0.00288 0,-0.0046 5.75e-4,-0.00173 0.00115,-0.00345 0.00115,-0.00288 0.00403,-0.00575 0.00345,-0.00345 0.00978,-0.00863 0.010357,-0.00978 0.013809,-0.03107 0.00403,-0.021289 0.00403,-0.073073 0,-0.027042 -0.0046,-0.037975 -0.00403,-0.011507 -0.00863,-0.01611 -0.00173,-0.00173 -0.00345,-0.00288 -0.00173,-0.00115 -0.00288,-0.0023 -0.00345,-0.0023 -0.00575,-0.00518 -0.00173,-0.00288 -0.00173,-0.00921 0,-0.00748 0.00403,-0.013234 0.00403,-0.00575 0.01496,-0.011507 0.00921,-0.0046 0.024741,-0.00978 0.015535,-0.00518 0.03855,-0.011508 0.013234,-0.00345 0.027043,-0.00633 0.013809,-0.00288 0.027618,-0.00288 0.00806,0 0.011507,0.00575 0.00345,0.00518 0.00345,0.016686 0,0.00115 0,0.00288 0,0.00115 0,0.0023 -5.75e-4,0.00173 -5.75e-4,0.00345 0,0.00115 0,0.0023 0,0.00748 0.0023,0.012083 0.0023,0.0046 0.00633,0.0046 0.00288,0 0.010357,-0.00748 0.00748,-0.00806 0.019563,-0.017837 0.012658,-0.00921 0.029919,-0.016686 0.017261,-0.00806 0.039701,-0.00806 0.02359,0 0.040276,0.00863 0.017261,0.00863 0.025892,0.025316 0.00288,0.00518 0.0046,0.00806 0.0023,0.00288 0.00403,0.00403 5.75e-4,0 0.00115,5.754e-4 0.00115,0 0.0023,0 0.00173,0 0.00978,-0.0069 0.00806,-0.00748 0.020713,-0.016686 0.012658,-0.00863 0.029344,-0.015535 0.016686,-0.00748 0.035673,-0.00748 0.040276,0 0.062716,0.021289 0.02244,0.021289 0.02244,0.060414 0,0.00921 -5.75e-4,0.018412 0,0.00921 0,0.018412 0,0.00921 -5.75e-4,0.018412 0,0.00921 0,0.018412 0,0.012083 0,0.020714 0,0.00863 -5.75e-4,0.013809 0,0.010932 0.00173,0.020713 0.00173,0.00978 0.00921,0.018987 5.75e-4,5.755e-4 0.00115,0.00115 5.75e-4,5.755e-4 0.00115,0.00173 0.00288,0.00288 0.00518,0.0069 0.00288,0.00345 0.00288,0.00806 0,0.017837 -0.021864,0.027043 -0.021864,0.00863 -0.063291,0.00863 -0.036824,0 -0.059839,-0.00863 -0.023015,-0.00863 -0.023015,-0.023015 0,-0.00575 0.00288,-0.010357 0.00288,-0.00518 0.00575,-0.00978 0.00115,-0.00115 0.00173,-0.0023 0.00115,-0.00115 0.00173,-0.0023 0.0046,-0.00633 0.00633,-0.02359 0.0023,-0.017261 0.0023,-0.051208 0,-0.040852 -0.00633,-0.056387 -0.00575,-0.01611 -0.02244,-0.01611 -0.015535,0 -0.02244,0.010932 -0.0069,0.010357 -0.0069,0.035098 l -5.75e-4,0.027618 z M 3.733597,0.38298422 q 0.060414,5.754e-4 0.109321,0.037975 0.048907,0.037399 0.048907,0.1024166 0,0.062716 -0.052359,0.1052934 -0.052359,0.042002 -0.1288837,0.042002 -0.062716,0 -0.104718,-0.036824 -0.041427,-0.037399 -0.041427,-0.093211 0,-0.067894 0.046605,-0.1110472 0.047181,-0.043728 0.1225547,-0.04603 z m -0.018412,0.065017 q -0.011508,0.00115 -0.018412,0.010357 -0.0069,0.00863 -0.0069,0.02359 0,0.00978 0.0023,0.024741 0.0023,0.01496 0.00633,0.03107 0.0023,0.010932 0.00575,0.021864 0.00345,0.010357 0.0069,0.019563 0.0046,0.011507 0.011508,0.017261 0.0069,0.00575 0.016686,0.00575 0.013234,0 0.018987,-0.00806 0.00633,-0.00863 0.00633,-0.027043 0,-0.011508 -0.0023,-0.025892 -0.00173,-0.014384 -0.00575,-0.029344 -0.00288,-0.011507 -0.00633,-0.02244 -0.00345,-0.011508 -0.00748,-0.021289 -0.00403,-0.00863 -0.010932,-0.013809 -0.0069,-0.00575 -0.016686,-0.00575 z m -0.2226693,0.1265825 q 5.75e-4,0 0.00115,0 5.75e-4,-5.753e-4 0.00115,-5.753e-4 0.00403,-0.0023 0.00806,-0.00403 0.0046,-0.0023 0.00978,-0.0023 0.00978,0 0.017261,0.00921 0.00748,0.00863 0.00748,0.021289 0,0.028769 -0.03855,0.050633 -0.037975,0.021864 -0.087457,0.021864 -0.062716,0 -0.1058689,-0.040276 -0.043153,-0.040851 -0.043153,-0.1001151 0,-0.063291 0.045455,-0.104718 0.045454,-0.042002 0.1144995,-0.042002 0.052934,0 0.089183,0.024741 0.036249,0.024166 0.036249,0.059264 0,0.023015 -0.015535,0.03855 -0.01496,0.015535 -0.037975,0.015535 -0.021864,0 -0.030495,-0.010357 -0.00806,-0.010932 -0.012658,-0.02359 -5.75e-4,-0.00115 -0.00115,-0.0023 -5.75e-4,-0.00173 -0.00115,-0.00288 -0.00403,-0.010932 -0.00978,-0.019563 -0.00575,-0.00863 -0.019563,-0.00863 -0.01611,0 -0.027042,0.013234 -0.010357,0.013234 -0.010357,0.033372 0,0.032796 0.021289,0.056962 0.021864,0.024166 0.051784,0.024166 0.00288,0 0.00633,0 0.00345,-5.754e-4 0.0069,-0.00115 0.0069,-5.754e-4 0.013234,-0.0023 0.0069,-0.00173 0.010932,-0.00345 z m -0.2600684,0.02992 q 0,0.027618 -0.019563,0.047181 -0.019563,0.018987 -0.046605,0.018987 -0.027043,0 -0.046605,-0.018987 -0.019563,-0.019563 -0.019563,-0.046605 0,-0.027618 0.019563,-0.047181 0.019563,-0.019563 0.046605,-0.019563 0.027043,0 0.046605,0.019563 0.019563,0.019563 0.019563,0.047181 z m -0.3647869,-0.01381 q -0.00173,-0.00115 -0.00518,-0.00575 -0.00288,-0.0046 -0.0069,-0.00978 -5.75e-4,-5.754e-4 -0.00115,-0.00115 -5.75e-4,-0.00115 -0.00115,-0.00173 -0.0046,-0.00575 -0.00863,-0.00978 -0.00403,-0.00403 -0.00575,-0.00403 -0.00288,0 -0.0046,0.00288 -0.00115,0.0023 -0.00115,0.00806 l -5.75e-4,0.010932 q 0,0.013234 0.00345,0.020713 0.00403,0.0069 0.00806,0.011508 0.00115,0.00115 0.0023,0.0023 0.00115,0.00115 0.0023,0.0023 0.00288,0.00345 0.0046,0.00748 0.0023,0.00345 0.0023,0.00863 0,0.019563 -0.021289,0.027618 -0.021289,0.00806 -0.069045,0.00806 -0.00518,0 -0.010357,0 -0.0046,0 -0.00921,0 -0.0046,-5.754e-4 -0.00978,-5.754e-4 -0.0046,0 -0.00978,0 -0.028193,-5.754e-4 -0.042002,-0.00863 -0.013809,-0.00806 -0.013809,-0.024166 0,-0.00748 0.00345,-0.011508 0.00345,-0.00403 0.00806,-0.0069 5.75e-4,-5.754e-4 0.00173,-0.00115 0.00115,-0.00115 0.00173,-0.00173 0.00518,-0.00345 0.00921,-0.00863 0.0046,-0.00575 0.00575,-0.01611 0.00288,-0.025892 0.00403,-0.05351 0.00115,-0.027618 0.00115,-0.061565 v -0.061565 q 0,-0.031645 -0.00345,-0.039701 -0.00288,-0.00863 -0.015535,-0.010357 -0.010932,-0.00173 -0.017261,-0.00633 -0.00575,-0.0046 -0.00575,-0.011508 0,-0.00863 0.00518,-0.015535 0.00518,-0.0069 0.016686,-0.013234 0.0046,-0.0023 0.00978,-0.0046 0.00518,-0.0023 0.011508,-0.0046 0.037399,-0.013234 0.063867,-0.020138 0.027043,-0.0069 0.044879,-0.0069 0.00806,0 0.012083,0.00345 0.00403,0.00345 0.00403,0.010357 l -0.00288,0.087457 q 0,0.0046 0,0.00921 0,0.00403 0,0.00921 -5.75e-4,0.0046 -5.75e-4,0.010357 0,0.00518 0,0.010357 0,0.03107 0.00173,0.037975 0.0023,0.0069 0.011507,0.0069 0.00403,0 0.00921,-0.0023 0.00575,-0.00288 0.020138,-0.010932 0.00748,-0.00403 0.010357,-0.00748 0.00345,-0.00345 0.00345,-0.00633 0,-0.00173 -0.00173,-0.00345 -0.00173,-0.0023 -0.00345,-0.00518 -0.0023,-0.00288 -0.00403,-0.00633 -0.00173,-0.00345 -0.00173,-0.00806 0,-0.013809 0.019563,-0.021289 0.020138,-0.00806 0.055236,-0.00806 0.042002,0 0.06214,0.00863 0.020138,0.00863 0.020138,0.027043 0,0.0069 -0.00518,0.012083 -0.0046,0.0046 -0.012658,0.00633 -0.012658,0.0023 -0.024166,0.00806 -0.011507,0.00575 -0.023015,0.012083 -0.00806,0.00518 -0.011508,0.00806 -0.00345,0.00288 -0.00345,0.00575 0,0.00575 0.019563,0.034522 0.020138,0.028193 0.048331,0.06214 0.00575,0.00748 0.010357,0.012658 0.0046,0.0046 0.00863,0.00863 0.00288,0.00288 0.00575,0.00518 0.00288,0.00173 0.00633,0.00403 0.00173,0.00115 0.00403,0.00288 0.00288,0.00115 0.00575,0.00288 0.00288,0.00173 0.00518,0.00345 0.0023,0.00115 0.0046,0.0023 0.00575,0.0046 0.00806,0.00921 0.00288,0.0046 0.00288,0.010357 0,0.014384 -0.013234,0.023015 -0.012658,0.00806 -0.034522,0.00806 h -0.091484 q -0.00806,0 -0.013809,-0.00173 -0.00518,-0.0023 -0.010357,-0.00748 -5.75e-4,-0.00115 -0.00115,-0.00173 -5.75e-4,-5.753e-4 -0.00115,-0.00115 l -0.046605,-0.060414 z m -0.3780202,-0.20771 q 0.060414,5.754e-4 0.1093209,0.037975 0.048907,0.037399 0.048907,0.1024166 0,0.062716 -0.052359,0.1052934 -0.052359,0.042002 -0.1288838,0.042002 -0.062716,0 -0.1047179,-0.036824 -0.041427,-0.037399 -0.041427,-0.093211 0,-0.067894 0.046605,-0.1110472 0.047181,-0.043728 0.1225548,-0.04603 z m -0.018412,0.065017 q -0.011508,0.00115 -0.018412,0.010357 -0.0069,0.00863 -0.0069,0.02359 0,0.00978 0.0023,0.024741 0.0023,0.01496 0.00633,0.03107 0.0023,0.010932 0.00575,0.021864 0.00345,0.010357 0.0069,0.019563 0.0046,0.011507 0.011508,0.017261 0.0069,0.00575 0.016686,0.00575 0.013234,0 0.018987,-0.00806 0.00633,-0.00863 0.00633,-0.027043 0,-0.011508 -0.0023,-0.025892 -0.00173,-0.014384 -0.00575,-0.029344 -0.00288,-0.011507 -0.00633,-0.02244 -0.00345,-0.011508 -0.00748,-0.021289 -0.00403,-0.00863 -0.010932,-0.013809 -0.0069,-0.00575 -0.016686,-0.00575 z M 2.1432655,0.38298422 q 0.060414,5.754e-4 0.109321,0.037975 0.048907,0.037399 0.048907,0.1024166 0,0.062716 -0.052359,0.1052934 -0.052359,0.042002 -0.1288839,0.042002 -0.062716,0 -0.104718,-0.036824 -0.041427,-0.037399 -0.041427,-0.093211 0,-0.067894 0.046605,-0.1110472 0.047181,-0.043728 0.1225547,-0.04603 z m -0.018412,0.065017 q -0.011508,0.00115 -0.018412,0.010357 -0.0069,0.00863 -0.0069,0.02359 0,0.00978 0.0023,0.024741 0.0023,0.01496 0.00633,0.03107 0.0023,0.010932 0.00575,0.021864 0.00345,0.010357 0.0069,0.019563 0.0046,0.011507 0.011507,0.017261 0.0069,0.00575 0.016686,0.00575 0.013234,0 0.018987,-0.00806 0.00633,-0.00863 0.00633,-0.027043 0,-0.011508 -0.0023,-0.025892 -0.00173,-0.014384 -0.00575,-0.029344 -0.00288,-0.011507 -0.00633,-0.02244 -0.00345,-0.011508 -0.00748,-0.021289 -0.00403,-0.00863 -0.010932,-0.013809 -0.0069,-0.00575 -0.016686,-0.00575 z m -0.363636,-0.042002 -5.75e-4,0.00575 q 0,0.00288 0.00115,0.0046 0.00115,0.00173 0.00288,0.00173 0.00115,0 0.00863,-0.00518 0.00748,-0.00575 0.018987,-0.012083 0.010932,-0.00575 0.02359,-0.010932 0.013234,-0.00518 0.026467,-0.00633 0.00115,0 0.0023,0 0.00173,0 0.00288,0 0.04603,0 0.076525,0.035098 0.03107,0.034522 0.03107,0.086306 0,0.072497 -0.047181,0.1191024 -0.047181,0.046605 -0.1202532,0.046605 -0.019563,0 -0.03855,-0.00518 -0.018412,-0.00518 -0.033372,-0.012083 -0.01496,-0.0069 -0.024741,-0.012083 -0.00921,-0.00575 -0.010357,-0.00575 -0.00403,0 -0.00806,0.00115 -0.00345,5.754e-4 -0.0069,0.0023 -5.75e-4,0 -0.00115,5.754e-4 -5.75e-4,0 -0.00115,0 -0.0046,0.00173 -0.00921,0.00288 -0.00403,0.00115 -0.00863,0.00115 -0.00863,0 -0.012658,-0.00288 -0.00403,-0.00288 -0.00403,-0.00863 0,-0.00518 0.00115,-0.010357 0.00115,-0.00575 0.00288,-0.011507 0.00115,-0.00518 0.0023,-0.010932 0.00173,-0.00575 0.00173,-0.011507 0.00115,-0.02359 0.00173,-0.047181 0.00115,-0.02359 0.00115,-0.047181 v -0.078251 q 0,-0.026467 -0.0023,-0.033947 -0.00173,-0.00806 -0.010357,-0.012083 -5.75e-4,-5.754e-4 -0.00115,-5.754e-4 -5.75e-4,-5.753e-4 -0.00115,-5.753e-4 -0.00288,-0.00115 -0.00518,-0.0023 -0.0023,-0.00115 -0.00403,-0.0023 -0.00921,-0.0046 -0.012658,-0.00978 -0.00345,-0.00518 -0.00345,-0.012658 0,-0.017837 0.024166,-0.02992 0.024741,-0.012658 0.054085,-0.020138 0.021864,-0.00575 0.042002,-0.00806 0.020138,-0.00288 0.029919,-0.00288 0.00806,0 0.010932,0.00403 0.00345,0.00345 0.00345,0.012658 l -0.00288,0.1093211 z m 0,0.1081703 0.00115,0.041427 q 0.00115,0.039125 0.00633,0.052359 0.00575,0.013234 0.021289,0.013234 0.020138,0 0.03107,-0.017261 0.010932,-0.017837 0.010932,-0.050633 0,-0.039701 -0.012083,-0.06214 -0.012083,-0.023015 -0.032221,-0.023015 -0.01496,0 -0.020138,0.010357 -0.00518,0.010357 -0.00575,0.023015 -5.75e-4,0.00345 -5.75e-4,0.0069 0,0.00288 0,0.00633 z m -0.1950511,0.023015 H 1.4344057 q -0.0046,5.754e-4 -0.0069,0.0023 -0.00173,0.00173 -0.00173,0.00575 0,0.017261 0.013809,0.029919 0.013809,0.012658 0.029919,0.017837 0.0046,0.00115 0.00921,0.0023 0.00518,5.754e-4 0.00921,5.754e-4 0.00518,0 0.010932,-5.754e-4 0.00633,-0.00115 0.012658,-0.00288 0.00921,-0.0023 0.017837,-0.00575 0.00921,-0.00403 0.015535,-0.00863 0.0046,-0.00288 0.0069,-0.00403 0.0023,-0.00173 0.0046,-0.0023 5.75e-4,-5.754e-4 0.00115,-5.754e-4 0.00115,0 0.0023,0 0.0069,0 0.012083,0.00575 0.00518,0.00575 0.00806,0.012658 5.75e-4,0.00288 0.00115,0.00518 5.75e-4,0.0023 5.75e-4,0.0046 0,0.00978 -0.00633,0.019563 -0.00633,0.00921 -0.018987,0.018987 -0.02244,0.016686 -0.048907,0.024741 -0.025892,0.00806 -0.056387,0.00806 -0.06099,0 -0.1035674,-0.039701 -0.042002,-0.040276 -0.042002,-0.097814 0,-0.062716 0.043728,-0.1058688 0.043728,-0.043728 0.1064442,-0.043728 0.028769,0 0.051784,0.00748 0.02359,0.00748 0.042578,0.023015 0.013234,0.010357 0.023015,0.024741 0.00978,0.013809 0.01496,0.028193 0.0023,0.00748 0.00345,0.014384 0.00173,0.0069 0.00173,0.013234 0,0.019563 -0.00748,0.031646 -0.0069,0.011507 -0.019563,0.011507 z M 1.4413103,0.48482542 h 0.028769 q 0.00921,5.754e-4 0.013234,-0.00345 0.0046,-0.00403 0.0046,-0.012658 0,-0.01496 -0.00863,-0.024741 -0.00863,-0.00978 -0.02244,-0.00978 -0.013234,0 -0.02359,0.010932 -0.00978,0.010357 -0.00978,0.024741 0,0.00863 0.00403,0.012083 0.00403,0.00345 0.013809,0.00345 z m -0.2082849,0.089758 q 5.754e-4,0 0.00115,0 5.753e-4,-5.753e-4 0.00115,-5.753e-4 0.00403,-0.0023 0.00806,-0.00403 0.0046,-0.0023 0.00978,-0.0023 0.00978,0 0.017261,0.00921 0.00748,0.00863 0.00748,0.021289 0,0.028769 -0.03855,0.050633 -0.037975,0.021864 -0.087457,0.021864 -0.062716,0 -0.1058688,-0.040276 -0.043153,-0.040851 -0.043153,-0.1001151 0,-0.063291 0.045455,-0.104718 0.045454,-0.042002 0.1144994,-0.042002 0.052934,0 0.089183,0.024741 0.036249,0.024166 0.036249,0.059264 0,0.023015 -0.015535,0.03855 -0.01496,0.015535 -0.037975,0.015535 -0.021864,0 -0.030495,-0.010357 -0.00806,-0.010932 -0.012658,-0.02359 -5.754e-4,-0.00115 -0.00115,-0.0023 -5.753e-4,-0.00173 -0.00115,-0.00288 -0.00403,-0.010932 -0.00978,-0.019563 -0.00575,-0.00863 -0.019563,-0.00863 -0.01611,0 -0.027043,0.013234 -0.010357,0.013234 -0.010357,0.033372 0,0.032796 0.021289,0.056962 0.021864,0.024166 0.051784,0.024166 0.00288,0 0.00633,0 0.00345,-5.754e-4 0.0069,-0.00115 0.0069,-5.754e-4 0.013234,-0.0023 0.0069,-0.00173 0.010932,-0.00345 z M 0.95339394,0.48827762 q 0,0.00518 0,0.010357 0,0.0046 0,0.00921 -5.754e-4,0.0046 -5.754e-4,0.00978 0,0.0046 0,0.00921 0,0.035098 0.00403,0.050058 0.0046,0.01496 0.013809,0.016686 0.00633,5.754e-4 0.010357,0.00288 0.0046,0.0023 0.0046,0.00978 0,0.021864 -0.017837,0.037975 -0.017261,0.01611 -0.03855,0.021864 -0.0069,0.0023 -0.013809,0.00345 -0.00633,0.00115 -0.012083,0.00115 -0.014384,0 -0.02359,-0.00403 -0.00921,-0.00403 -0.01496,-0.00921 -0.00518,-0.00403 -0.00863,-0.00748 -0.00345,-0.00345 -0.0069,-0.00518 -0.00115,-5.754e-4 -0.0023,-5.754e-4 -5.754e-4,-5.754e-4 -0.00173,-5.754e-4 -0.00345,0 -0.010357,0.0046 -0.0069,0.00403 -0.017261,0.00921 -0.00978,0.00518 -0.02244,0.00921 -0.012658,0.00403 -0.028193,0.00403 -0.040276,0 -0.066168,-0.020714 -0.025892,-0.020713 -0.025892,-0.05351 0,-0.041427 0.029919,-0.06099 0.02992,-0.020138 0.066168,-0.026467 0.00921,-0.00115 0.018412,-0.00173 0.00978,-0.00115 0.018987,-0.00115 0.016686,-5.753e-4 0.020714,-0.00345 0.00403,-0.00288 0.00403,-0.015535 0,-0.028769 -0.00633,-0.042002 -0.00633,-0.013809 -0.019563,-0.013809 -0.00978,0 -0.017261,0.00633 -0.0069,0.00633 -0.013809,0.01496 -0.00115,0.00173 -0.00288,0.00403 -0.00173,0.0023 -0.00345,0.00403 -0.00863,0.011508 -0.018987,0.020713 -0.010357,0.00921 -0.026467,0.00921 -0.013809,0 -0.023015,-0.00806 -0.00921,-0.00806 -0.00921,-0.019563 0,-0.025892 0.024741,-0.042578 0.025316,-0.017261 0.055236,-0.026467 0.016686,-0.00518 0.032796,-0.00748 0.016686,-0.00288 0.028193,-0.00288 0.028193,0 0.049482,0.00633 0.021864,0.00575 0.03855,0.018412 5.754e-4,5.754e-4 5.754e-4,0.00115 5.755e-4,0 0.00115,0 0.017837,0.013809 0.024166,0.030495 0.00633,0.01611 0.00633,0.048907 z m -0.164557,0.09206 q 0,0.013234 0.00633,0.021864 0.0069,0.00863 0.017261,0.00863 0.011507,0 0.016686,-0.00921 0.00575,-0.00978 0.00575,-0.029344 0,-0.01496 -0.00345,-0.020713 -0.00288,-0.00575 -0.012083,-0.00575 -0.012658,0 -0.021864,0.010357 -0.00863,0.010357 -0.00863,0.024741 z m -0.1697349,-0.196778 q -0.0046,-0.00518 -0.00921,-0.00978 -0.00403,-0.00518 -0.00863,-0.00921 -0.011508,-0.011508 -0.024741,-0.017837 -0.013234,-0.00633 -0.035098,-0.00748 -0.00921,-5.754e-4 -0.018987,-5.754e-4 -0.00921,-5.754e-4 -0.018987,-5.754e-4 -0.019563,0 -0.026467,0.01611 -0.00633,0.01611 -0.00633,0.06099 0,0.010357 0.00633,0.014384 0.0069,0.00403 0.024166,0.00403 0.016686,0 0.021864,-0.00748 0.00575,-0.00806 0.00863,-0.017837 0,-5.753e-4 0,-0.00115 0,-5.754e-4 5.754e-4,-0.00115 0.0023,-0.00863 0.00633,-0.015535 0.00403,-0.0069 0.01611,-0.0069 0.017837,0 0.026467,0.021289 0.00863,0.020714 0.00863,0.063291 0,0.042002 -0.010932,0.065593 -0.010357,0.023015 -0.029344,0.023015 -0.010357,0 -0.013809,-0.0069 -0.00288,-0.00748 -0.00518,-0.017261 0,-0.00173 -5.755e-4,-0.00345 0,-0.00173 -5.753e-4,-0.00345 -0.0023,-0.011507 -0.00921,-0.021289 -0.00633,-0.00978 -0.026467,-0.00978 -0.013809,0 -0.018412,0.00403 -0.00403,0.00345 -0.00403,0.01611 v 0.021864 q 0,0.039125 0.0046,0.054661 0.00518,0.015535 0.017837,0.017261 5.753e-4,0 5.753e-4,0 5.755e-4,0 0.00115,5.754e-4 0.010932,0.00173 0.019563,0.00633 0.00921,0.00403 0.00921,0.017837 0,0.010932 -0.00633,0.017837 -0.00633,0.00633 -0.019563,0.00978 -0.016686,0.00345 -0.044304,0.00575 -0.027043,0.0023 -0.058113,0.0023 -0.058113,0 -0.079977,-0.0069 -0.021864,-0.00748 -0.021864,-0.027043 0,-0.013234 0.0069,-0.018412 0.00748,-0.00575 0.017837,-0.00978 0.012658,-0.00518 0.017261,-0.021864 0.0046,-0.017261 0.00518,-0.06214 l 0.00115,-0.089758 v -0.014384 q 0,-0.051784 -0.00403,-0.067319 -0.00345,-0.01611 -0.017261,-0.021864 -0.00518,-0.0023 -0.00921,-0.00403 -0.00345,-0.00173 -0.00575,-0.00345 -0.0046,-0.00345 -0.00633,-0.0069 -0.00173,-0.00403 -0.00173,-0.00921 0,-0.012658 0.012083,-0.020714 0.012083,-0.00863 0.029919,-0.00863 0.00575,0 0.013809,5.754e-4 0.00806,0 0.018987,0.00115 0.01496,0.00115 0.029344,0.00173 0.01496,5.754e-4 0.029919,0.00115 0.01496,5.754e-4 0.029919,5.754e-4 0.01496,0 0.029344,0 0.00575,0 0.011508,0 0.00633,0 0.012658,0 0.00978,0 0.019563,0 0.010357,-5.754e-4 0.020713,-5.754e-4 0.015535,-5.754e-4 0.031645,-0.00173 0.016111,-0.00115 0.032221,-0.00345 0.00115,0 0.0023,0 0.00115,0 0.0023,-5.753e-4 5.753e-4,0 0.00115,0 0.00115,0 0.00173,0 0.012083,0 0.021864,0.014384 0.00978,0.014384 0.01496,0.031646 0.00345,0.00978 0.00518,0.018987 0.00173,0.00921 0.00173,0.01611 0,0.017261 -0.00863,0.027618 -0.00806,0.010357 -0.021289,0.010357 -0.00575,0 -0.011508,-0.0023 -0.00575,-0.00288 -0.010357,-0.00806 z M 3.9025904,0.2510225 H 4.716848 V 0.7909723 H 3.9025904 Z m -0.3459317,0 H 3.9006219 V 0.7909723 H 3.5566587 Z m -0.4645195,0 H 3.5546901 V 0.7909723 H 3.0921392 Z m -0.4343541,0 H 3.0901708 V 0.7909723 H 2.6577851 Z m -0.6906734,0 H 2.6558166 V 0.7909723 H 1.9671117 Z m -0.6686612,0 H 1.9651433 V 0.7909723 H 1.2984505 Z m -0.30410433,0 H 1.296482 V 0.7909723 H 0.99434617 Z m -0.71403128,0 H 0.99237766 V 0.7909723 H 0.28031489 Z" />
    <path
       id="rect5197-3-63-6-8"
       style="opacity:0.928105;fill:none;fill-opacity:1;stroke:#c00080;stroke-width:0.0019685;stroke-miterlimit:4;stroke-dasharray:none;stroke-opacity:1"
       d="M 7.2387455,0.8972026 H 7.5018594 V 1.4371524 H 7.2387455 Z m -0.6636243,0 H 7.2367773 V 1.4371525 H 6.5751212 Z m -0.3332348,0 h 0.331266 v 0.5399499 h -0.331266 z m -0.2043381,0 H 6.2399178 V 1.4371524 H 6.0375483 Z m -0.2087827,0 H 6.0355799 V 1.4371524 H 5.8287656 Z m -0.2976769,0 H 5.8267972 V 1.4371524 H 5.5310887 Z m -0.8132629,0 H 5.5291202 V 1.4371524 H 4.7178258 Z m 2.6269731,0.4161965 q -0.0023,0 -0.00518,-5.754e-4 -0.0023,-5.754e-4 -0.0046,-5.754e-4 -0.00518,-0.00115 -0.010357,-0.00173 -0.00518,-5.754e-4 -0.010357,-5.754e-4 -5.75e-4,0 -0.00173,0 -5.75e-4,0 -0.00115,0 -0.00115,0 -0.00288,0 -0.00115,5.754e-4 -0.00288,5.754e-4 -0.00345,0.00115 -0.00518,0.00115 -0.00173,0 -0.00173,0 -0.00115,5.754e-4 -0.00288,5.754e-4 -0.00115,0 -0.0023,0 -0.0069,0 -0.011508,-0.00115 -0.00403,-0.00115 -0.00806,-0.00403 -0.00173,-0.00115 -0.00345,-0.00288 -0.00115,-0.00173 -0.00288,-0.00403 -0.00575,-0.0069 -0.010932,-0.015535 -0.0046,-0.00921 -0.00806,-0.017837 -0.00345,-0.00863 -0.00518,-0.016686 -0.00173,-0.00863 -0.00173,-0.015535 0,-0.012083 0.00518,-0.018987 0.00575,-0.0069 0.01496,-0.0069 0.010357,0 0.017837,0.0069 0.00806,0.0069 0.015535,0.01611 0.00115,0.00115 0.00173,0.0023 0.00115,0.00115 0.0023,0.00173 0.00806,0.010357 0.017261,0.018987 0.00978,0.00863 0.023015,0.00863 0.00978,0 0.01496,-0.0046 0.00575,-0.00518 0.00575,-0.014384 0,-0.00288 -0.00173,-0.00575 -0.00173,-0.00288 -0.00518,-0.00575 -0.00748,-0.00633 -0.020138,-0.013234 -0.012658,-0.0069 -0.026467,-0.015535 -0.020138,-0.012658 -0.036824,-0.031646 -0.016686,-0.019563 -0.016686,-0.049482 0,-0.040852 0.027618,-0.066743 0.028193,-0.026467 0.071346,-0.026467 0.00748,0 0.014384,0.00115 0.00748,0.00115 0.014384,0.0023 0.0069,0.00173 0.013809,0.00288 0.00748,0.00115 0.01496,0.00115 0.00403,0 0.00748,-0.00115 0.00345,-0.00115 0.00748,-0.00288 0.00345,-0.00115 0.0069,-0.0023 0.00345,-0.00115 0.00748,-0.00115 5.75e-4,0 0.00115,0 0.00115,0 0.00173,0 0.011508,0.0023 0.021864,0.01496 0.010932,0.012083 0.017837,0.026467 0.00403,0.00863 0.00575,0.016686 0.0023,0.00748 0.0023,0.013234 0,0.012083 -0.00806,0.020138 -0.00748,0.00748 -0.019563,0.00748 -0.011508,0 -0.020713,-0.0069 -0.00863,-0.0069 -0.016686,-0.01496 -0.00115,-0.00115 -0.0023,-0.0023 -0.00115,-0.00115 -0.00288,-0.0023 -0.00633,-0.0069 -0.013809,-0.012083 -0.0069,-0.00518 -0.015535,-0.00518 -0.00748,0 -0.013809,0.00575 -0.00575,0.00575 -0.00575,0.013234 0,0.00633 0.0046,0.011507 0.00518,0.00518 0.013234,0.00978 0.00863,0.00575 0.019563,0.011507 0.010932,0.00518 0.023015,0.011508 0.02244,0.012658 0.040852,0.031646 0.018987,0.018987 0.018987,0.050633 0,0.036824 -0.03107,0.061565 -0.030495,0.024741 -0.075949,0.024741 -0.00518,0 -0.010357,-5.754e-4 -0.0046,0 -0.00921,-5.754e-4 -0.0046,-5.754e-4 -0.00978,-0.00115 -0.0046,-5.755e-4 -0.00978,-0.00115 z M 7.1411167,1.1028122 v 0.094937 q 0,0.017261 0.00806,0.028193 0.00863,0.010932 0.021289,0.010932 0.010932,0 0.015535,-0.00173 0.00518,-0.0023 0.00806,-0.0046 5.75e-4,-5.754e-4 0.00115,-0.00115 5.75e-4,-5.753e-4 0.00115,-5.753e-4 0.00173,-0.0023 0.00403,-0.00345 0.00288,-0.00115 0.00748,-0.00115 0.00633,0 0.010357,0.00518 0.0046,0.00518 0.00633,0.011508 0.00115,0.0023 0.00115,0.0046 5.75e-4,0.0023 5.75e-4,0.0046 0,0.021864 -0.021289,0.036824 -0.020713,0.014384 -0.04603,0.021864 -0.013809,0.00403 -0.027043,0.00575 -0.013234,0.0023 -0.023015,0.0023 -0.043729,0 -0.070771,-0.025316 -0.027043,-0.025316 -0.027043,-0.066743 v -0.130029 q 0,-0.00575 -0.00173,-0.00748 -0.00173,-0.00173 -0.00806,-0.00173 l -0.028769,-5.753e-4 q -0.00806,5.753e-4 -0.00978,-0.0023 -0.0023,-0.00288 -0.0023,-0.012083 l -5.75e-4,-0.013234 q 5.75e-4,0 5.75e-4,-5.754e-4 0,-5.753e-4 0,-0.00115 5.75e-4,-0.00288 0.0023,-0.00575 0.00115,-0.00288 0.00345,-0.00403 l 0.1288838,-0.081703 q 0.0023,-5.753e-4 0.0046,-0.00115 0.00288,-5.754e-4 0.0069,-5.754e-4 l 0.023015,-5.754e-4 q 0.0069,5.754e-4 0.00921,0.00403 0.0023,0.00288 0.0023,0.012083 v 0.037975 q 0,0.00863 0.0023,0.011508 0.00288,0.0023 0.012083,0.0023 l 0.051784,-5.754e-4 q 0.010357,5.754e-4 0.013234,0.0046 0.00345,0.00345 0.00345,0.01611 v 0.01611 q 0,0.013809 -0.00403,0.018987 -0.00403,0.00518 -0.014384,0.00518 l -0.050633,-5.753e-4 q -0.00748,5.753e-4 -0.010932,0.00345 -0.00288,0.0023 -0.00288,0.010357 z m -0.404487,0.1081703 q 0,0.00345 0,0.00633 5.75e-4,0.00288 5.75e-4,0.00633 0,0.00115 0,0.00288 0,0.00173 0,0.00345 0,0.00921 0.00173,0.017837 0.00173,0.00863 0.00806,0.015535 5.75e-4,5.754e-4 0.00115,0.00173 5.75e-4,5.754e-4 0.00115,0.00115 0,0 0,0 5.75e-4,0 5.75e-4,0 0.00288,0.00403 0.00575,0.00863 0.00288,0.00403 0.00288,0.00921 0,0.01611 -0.021289,0.02359 -0.020714,0.00748 -0.06214,0.00748 -0.048331,0 -0.072497,-0.00806 -0.02359,-0.00806 -0.02359,-0.024166 0,-0.00806 0.0046,-0.012658 0.00518,-0.00518 0.010932,-0.00978 0,0 0,0 5.75e-4,0 5.75e-4,0 5.75e-4,-5.753e-4 0.00115,-5.753e-4 5.75e-4,-5.754e-4 0.00115,-0.00115 0.00863,-0.00633 0.012658,-0.027618 0.0046,-0.021289 0.00518,-0.063866 5.75e-4,-0.024741 5.75e-4,-0.035098 5.75e-4,-0.010932 5.75e-4,-0.018987 0,-0.00115 0,-0.00288 0,-0.00173 0,-0.00345 0,-0.064442 -0.00288,-0.081128 -0.00288,-0.016686 -0.01611,-0.023015 -0.00921,-0.0046 -0.013234,-0.00978 -0.00403,-0.00518 -0.00403,-0.011507 0,-0.01611 0.023015,-0.027043 0.02359,-0.011507 0.051208,-0.018412 0.021864,-0.0046 0.040852,-0.0069 0.019563,-0.00288 0.028193,-0.00288 0.00978,0 0.013234,0.00288 0.00345,0.00288 0.00345,0.010932 l -0.00345,0.1173763 q 0,0.010932 0.00345,0.016686 0.00345,0.00518 0.00978,0.00518 0.0046,0 0.010357,-0.00748 0.00633,-0.00806 0.015535,-0.017261 0.00978,-0.00921 0.02359,-0.016686 0.014384,-0.00806 0.035673,-0.00806 0.021289,0 0.040276,0.00748 0.019563,0.00748 0.03107,0.020138 0.012658,0.012658 0.017261,0.028769 0.0046,0.01611 0.00518,0.047181 l 0.0023,0.1012658 q 5.75e-4,0.010357 0.00288,0.017837 0.00288,0.0069 0.00748,0.010932 0.00115,5.754e-4 0.00173,0.00173 0.00115,5.754e-4 0.00173,0.00115 0.00518,0.00345 0.00921,0.00863 0.00403,0.0046 0.00403,0.010932 0,0.01496 -0.02244,0.02244 -0.02244,0.0069 -0.067894,0.0069 -0.041427,0 -0.06214,-0.00633 -0.020714,-0.0069 -0.020714,-0.020713 0,-0.00518 0.0023,-0.00921 0.0023,-0.00403 0.00575,-0.00806 0,-5.754e-4 0,-5.754e-4 0,0 0,0 5.75e-4,-0.00115 0.00115,-0.00173 0.00115,-0.00115 0.00173,-0.0023 0.00633,-0.00806 0.00921,-0.025316 0.00288,-0.017837 0.00288,-0.050633 0,-0.043153 -0.00978,-0.06099 -0.00921,-0.018412 -0.03107,-0.018412 -0.01611,0 -0.02359,0.010932 -0.0069,0.010357 -0.0069,0.035673 v 0.05351 z M 6.5490581,1.0142046 q 0.00806,5.753e-4 0.013234,0.00863 0.00518,0.00748 0.00518,0.018987 0,0.012083 -0.00518,0.021864 -0.0046,0.00921 -0.00978,0.01611 -0.00575,0.00748 -0.010932,0.012658 -0.0046,0.0046 -0.0046,0.00806 0,0.00173 0,0.00345 5.75e-4,0.00173 5.75e-4,0.00345 0,0.00173 0,0.00345 5.75e-4,0.00173 5.75e-4,0.00345 0,0.04603 -0.039701,0.074223 -0.039701,0.027618 -0.104718,0.027618 -0.00345,0 -0.00748,0 -0.00345,-5.753e-4 -0.0069,-0.00115 -0.00403,0 -0.00806,0 -0.00345,-5.754e-4 -0.0069,-5.754e-4 -0.0069,0 -0.011507,0.00403 -0.00403,0.00403 -0.00403,0.010932 0,0.00921 0.00978,0.01496 0.00978,0.00518 0.026467,0.00518 0.012658,0 0.025316,-0.00115 0.012658,-0.00173 0.025316,-0.00345 0.012658,-0.00173 0.025316,-0.00288 0.012658,-0.00173 0.025316,-0.00173 0.039125,0 0.06099,0.017837 0.021864,0.017837 0.021864,0.050633 0,0.048331 -0.051208,0.079977 -0.051208,0.031646 -0.1306098,0.031646 -0.062716,0 -0.1012661,-0.020138 -0.037975,-0.019563 -0.037975,-0.052934 0,-0.010357 0.0046,-0.017261 0.0046,-0.0069 0.010357,-0.011508 0.00575,-0.00403 0.010357,-0.0069 0.0046,-0.0023 0.0046,-0.0046 0,-0.00288 -0.0046,-0.0069 -0.0046,-0.0046 -0.00978,-0.010932 -0.00575,-0.00575 -0.010357,-0.013234 -0.0046,-0.00748 -0.0046,-0.015535 0,-0.013234 0.0069,-0.023015 0.0069,-0.00978 0.015535,-0.017261 0.00806,-0.00748 0.01496,-0.011508 0.0069,-0.0046 0.0069,-0.00633 0,-0.0023 -0.00575,-0.00806 -0.00575,-0.00633 -0.012658,-0.015535 -0.00748,-0.00921 -0.013234,-0.021289 -0.00575,-0.012083 -0.00575,-0.027043 0,-0.039701 0.040276,-0.067894 0.040852,-0.028769 0.097814,-0.028769 0.011507,0 0.021864,0.00173 0.010932,0.00173 0.021289,0.00345 0.010932,0.00173 0.020713,0.00345 0.010357,0.00173 0.020714,0.00173 0.016686,0 0.031645,-0.00575 0.015535,-0.00633 0.029344,-0.018412 0.00345,-0.00288 0.00575,-0.00403 0.0023,-0.00115 0.00403,-0.00115 z M 6.3361698,1.3283588 q -0.00345,0 -0.00518,0.0023 -0.00173,0.0023 -0.00173,0.00633 0,0.016686 0.018412,0.026467 0.018412,0.00978 0.048331,0.00978 0.025316,0 0.040852,-0.00748 0.015535,-0.0069 0.015535,-0.018987 0,-0.00748 -0.00575,-0.012658 -0.00518,-0.00518 -0.013234,-0.00518 -0.00575,0 -0.012083,5.753e-4 -0.00633,5.755e-4 -0.012083,0.00115 -0.00633,5.753e-4 -0.012658,0.00115 -0.00575,5.755e-4 -0.012083,5.755e-4 -0.00518,0 -0.00921,0 -0.00403,0 -0.00806,-5.755e-4 -0.00518,0 -0.011508,-0.00115 -0.00633,-5.754e-4 -0.015535,-0.00173 -0.0023,-5.754e-4 -0.00345,-5.754e-4 -5.75e-4,0 -5.75e-4,0 z m 0.060414,-0.2554661 q -0.012658,5.754e-4 -0.021864,0.010932 -0.00863,0.010357 -0.00863,0.027043 0,0.032221 0.00921,0.050057 0.00921,0.017837 0.025892,0.017837 0.014384,0 0.02244,-0.011507 0.00863,-0.011508 0.00863,-0.030495 0,-0.029919 -0.00978,-0.046605 -0.00921,-0.016686 -0.025892,-0.016686 z M 6.2026836,1.048727 v 0.1634062 q 0,0.018412 0.00288,0.027043 0.00345,0.00863 0.011507,0.015535 5.75e-4,5.754e-4 0.00115,0.00173 0.00115,5.754e-4 0.0023,0.00115 0.0046,0.00345 0.00748,0.00633 0.00288,0.0023 0.0046,0.0046 0.00173,0.0023 0.0023,0.00518 5.75e-4,0.0023 5.75e-4,0.00575 0,0.017837 -0.023015,0.027043 -0.023015,0.00863 -0.067894,0.00863 -0.052934,0 -0.077675,-0.00748 -0.024166,-0.00748 -0.024166,-0.024741 0,-0.00921 0.00518,-0.014384 0.00518,-0.00575 0.011508,-0.010357 5.75e-4,0 5.75e-4,0 0,-5.753e-4 0,-5.753e-4 5.75e-4,-5.754e-4 5.75e-4,-5.754e-4 5.75e-4,-5.754e-4 0.00115,-5.754e-4 0.00921,-0.00633 0.012658,-0.020713 0.00345,-0.01496 0.00345,-0.043153 0,-0.0046 0,-0.00921 0,-0.0046 -5.75e-4,-0.00978 0,-0.0046 -5.75e-4,-0.00921 0,-0.0046 0,-0.00921 0,-0.0023 0,-0.00403 0,-0.00173 0,-0.00345 -0.00115,-0.016686 -0.0023,-0.021864 -5.75e-4,-0.00575 -0.00403,-0.00921 -5.75e-4,-5.753e-4 -0.00115,-5.753e-4 -5.75e-4,-5.755e-4 -0.00115,-0.00115 -0.00173,-0.00115 -0.00403,-0.0023 -0.00173,-0.00173 -0.00403,-0.0023 -5.75e-4,-5.754e-4 -0.00115,-5.754e-4 -5.75e-4,-5.755e-4 -5.75e-4,-5.755e-4 -0.0069,-0.00345 -0.012083,-0.00748 -0.0046,-0.0046 -0.0046,-0.013809 0,-0.00921 0.00633,-0.01611 0.00633,-0.00748 0.023015,-0.013809 0.00921,-0.00403 0.021864,-0.00748 0.013234,-0.00403 0.030495,-0.00806 0.018987,-0.0046 0.034522,-0.0069 0.01611,-0.00288 0.028769,-0.00345 0.00806,0 0.012083,0.0046 0.00403,0.0046 0.00403,0.012658 z m -0.057537,-0.12313 q 0.00403,5.753e-4 0.00863,0.00115 0.00518,0 0.00978,0.00115 0.013809,0.0023 0.025316,0.00978 0.011507,0.00748 0.011507,0.023015 0,0.02244 -0.029919,0.037975 -0.02992,0.015535 -0.074223,0.015535 -0.021864,0 -0.035673,-0.00921 -0.013809,-0.00978 -0.013809,-0.025316 0,-0.021289 0.028193,-0.036824 0.028769,-0.015535 0.070196,-0.016686 z M 5.9972751,1.0867017 v 0.089758 0.044879 q 0,0.021289 0.00288,0.028769 0.00345,0.00748 0.012658,0.012083 0.0023,0.00115 0.00403,0.0023 0.0023,5.754e-4 0.00403,0.00173 0.00575,0.00288 0.00748,0.00633 0.00173,0.00345 0.00173,0.00921 0,0.019563 -0.020713,0.026467 -0.020138,0.0069 -0.073648,0.0069 -0.051208,0 -0.074223,-0.00806 -0.022439,-0.00806 -0.022439,-0.026467 0,-0.00863 0.00575,-0.012658 0.00575,-0.00403 0.012658,-0.0069 0.011507,-0.0046 0.01496,-0.030495 0.00345,-0.026467 0.00345,-0.1001151 0,-0.068469 -0.00403,-0.088032 -0.00403,-0.019563 -0.019563,-0.028769 -0.00403,-0.0023 -0.0069,-0.00403 -0.00288,-0.0023 -0.00518,-0.0046 -0.0046,-0.00403 -0.0069,-0.00863 -0.00173,-0.0046 -0.00173,-0.010357 0,-0.018987 0.024741,-0.03107 0.024741,-0.012658 0.054085,-0.019563 0.021864,-0.0046 0.041427,-0.0069 0.019563,-0.0023 0.029919,-0.0023 0.011508,0 0.016686,0.0069 0.00575,0.00633 0.00575,0.020714 0,0.00345 -5.75e-4,0.013809 -5.75e-4,0.010357 -0.0023,0.027618 -0.00115,0.011507 -0.0023,0.023015 -5.75e-4,0.011507 -5.75e-4,0.023015 -5.75e-4,0.011508 -0.00115,0.023015 0,0.011508 0,0.023015 z M 5.6836966,1.0366442 h 0.074799 q 0.032221,5.753e-4 0.040276,0.00345 0.00806,0.00288 0.00806,0.015535 0,0.0046 -0.0023,0.011508 -0.0023,0.0069 -0.0069,0.01496 l -0.074223,0.1317606 q -0.00575,0.00978 -0.00748,0.01496 -0.00173,0.0046 -0.00173,0.00863 0,0.00633 0.00518,0.00978 0.00518,0.00345 0.014384,0.00345 0.015535,0 0.024166,-0.00748 0.00863,-0.00748 0.013809,-0.01611 0.0023,-0.00288 0.00403,-0.00575 0.00173,-0.00345 0.00345,-0.00633 0.00345,-0.0046 0.0069,-0.00806 0.00345,-0.00345 0.00806,-0.00345 0.012083,0 0.019563,0.00978 0.00806,0.00978 0.00806,0.025892 0,0.00633 -0.0023,0.015535 -0.0023,0.00863 -0.00633,0.018412 -0.00748,0.016686 -0.019563,0.03107 -0.012083,0.013809 -0.026467,0.013809 -0.00403,0 -0.00863,-0.00173 -0.0046,-0.00115 -0.00978,-0.0023 -0.00575,-0.00173 -0.012083,-0.00345 -0.00575,-0.00115 -0.012658,-0.00115 H 5.576677 q -0.017837,0 -0.027618,-0.00518 -0.00978,-0.00575 -0.00978,-0.01496 0,-0.00345 5.75e-4,-0.00633 0.00115,-0.00345 0.0023,-0.00575 0,-0.00173 0.0023,-0.00633 0.00288,-0.00518 0.0069,-0.010357 0,-5.753e-4 0,-5.753e-4 5.75e-4,-5.754e-4 0.00115,-0.00115 0.00288,-0.0046 0.00518,-0.00863 0.00288,-0.00403 0.00403,-0.00575 L 5.626156,1.1407862 q 0.00978,-0.015535 0.013809,-0.02359 0.00403,-0.00806 0.00403,-0.012083 0,-0.00633 -0.00575,-0.00863 -0.00575,-0.00288 -0.017837,-0.00288 -0.013809,0 -0.021289,0.00748 -0.00748,0.0069 -0.013234,0.01496 -5.75e-4,0.00115 -0.00115,0.0023 -5.75e-4,0.00115 -0.00115,0.00173 -0.0046,0.00748 -0.010357,0.013234 -0.00518,0.00575 -0.01496,0.00575 -0.010357,0 -0.017837,-0.00806 -0.0069,-0.00863 -0.0069,-0.020714 0,-0.0069 0.00173,-0.01496 0.00173,-0.00863 0.0046,-0.016686 0.00518,-0.01496 0.013234,-0.028193 0.00863,-0.013234 0.017261,-0.019563 0.00288,-0.00173 0.00518,-0.00288 0.00288,-0.00115 0.00575,-0.00115 0.00173,0 0.00403,5.754e-4 0.00288,0 0.00575,0.00115 0.0046,0.00173 0.00921,0.00288 0.0046,0.00115 0.00921,0.0023 0.0069,0.00115 0.013234,0.00173 0.0069,5.755e-4 0.014384,5.755e-4 l 0.046605,5.755e-4 z m -0.1915991,0.012083 v 0.1634062 q 0,0.018412 0.00288,0.027043 0.00345,0.00863 0.011508,0.015535 5.75e-4,5.754e-4 0.00115,0.00173 0.00115,5.754e-4 0.0023,0.00115 0.0046,0.00345 0.00748,0.00633 0.00288,0.0023 0.0046,0.0046 0.00173,0.0023 0.0023,0.00518 5.75e-4,0.0023 5.75e-4,0.00575 0,0.017837 -0.023015,0.027043 -0.023015,0.00863 -0.067894,0.00863 -0.052934,0 -0.077675,-0.00748 -0.024166,-0.00748 -0.024166,-0.024741 0,-0.00921 0.00518,-0.014384 0.00518,-0.00575 0.011507,-0.010357 5.75e-4,0 5.75e-4,0 0,-5.753e-4 0,-5.753e-4 5.75e-4,-5.754e-4 5.75e-4,-5.754e-4 5.75e-4,-5.754e-4 0.00115,-5.754e-4 0.00921,-0.00633 0.012658,-0.020713 0.00345,-0.01496 0.00345,-0.043153 0,-0.0046 0,-0.00921 0,-0.0046 -5.75e-4,-0.00978 0,-0.0046 -5.75e-4,-0.00921 0,-0.0046 0,-0.00921 0,-0.0023 0,-0.00403 0,-0.00173 0,-0.00345 -0.00115,-0.016686 -0.0023,-0.021864 -5.75e-4,-0.00575 -0.00403,-0.00921 -5.75e-4,-5.753e-4 -0.00115,-5.753e-4 -5.75e-4,-5.756e-4 -0.00115,-0.00115 -0.00173,-0.00115 -0.00403,-0.0023 -0.00173,-0.00173 -0.00403,-0.0023 -5.75e-4,-5.754e-4 -0.00115,-5.754e-4 -5.75e-4,-5.755e-4 -5.75e-4,-5.755e-4 -0.0069,-0.00345 -0.012083,-0.00748 -0.0046,-0.0046 -0.0046,-0.013809 0,-0.00921 0.00633,-0.01611 0.00633,-0.00748 0.023015,-0.013809 0.00921,-0.00403 0.021864,-0.00748 0.013234,-0.00403 0.030495,-0.00806 0.018987,-0.0046 0.034522,-0.0069 0.01611,-0.00288 0.028769,-0.00345 0.00806,0 0.012083,0.0046 0.00403,0.0046 0.00403,0.012658 z m -0.057537,-0.12313 q 0.00403,5.753e-4 0.00863,0.00115 0.00518,0 0.00978,0.00115 0.013809,0.0023 0.025316,0.00978 0.011508,0.00748 0.011508,0.023015 0,0.02244 -0.029919,0.037975 -0.02992,0.015535 -0.074223,0.015535 -0.021864,0 -0.035673,-0.00921 -0.013809,-0.00978 -0.013809,-0.025316 0,-0.021289 0.028193,-0.036824 0.028769,-0.015535 0.070196,-0.016686 z m -0.1985039,0.2318757 -0.035098,0.088032 q -0.00863,0.02244 -0.015535,0.036249 -0.0069,0.013234 -0.012658,0.021289 -0.00633,0.0069 -0.013809,0.00978 -0.0069,0.00288 -0.01611,0.00288 -0.017261,0 -0.027618,-0.0069 -0.010357,-0.0069 -0.017261,-0.024166 L 5.0421555,1.1522943 q -0.0023,-0.00518 -0.00403,-0.00863 -0.00173,-0.00345 -0.00288,-0.00518 -0.00173,-0.00115 -0.00288,-0.00173 -0.00115,-5.753e-4 -0.00345,-5.753e-4 -0.00173,0 -0.00288,5.753e-4 -0.00115,0 -0.0023,5.754e-4 -0.00345,0.00288 -0.00806,0.011507 -0.00403,0.00863 -0.012658,0.030495 l -0.03855,0.094361 q -0.0023,0.00575 -0.0046,0.010357 -0.00173,0.0046 -0.00345,0.00863 -0.00806,0.014384 -0.017261,0.018987 -0.00863,0.0046 -0.024166,0.0046 -0.017837,0 -0.028193,-0.00806 -0.00978,-0.00863 -0.018412,-0.02992 L 4.7648251,1.0136292 q -0.00288,-0.00748 -0.00518,-0.012083 -0.00173,-0.0046 -0.00345,-0.0069 -0.00115,-0.00173 -0.0023,-0.0023 -0.00115,-0.00115 -0.00288,-0.00173 -0.00978,-0.00518 -0.017261,-0.011507 -0.0069,-0.0069 -0.0069,-0.019563 0,-0.018412 0.024741,-0.028193 0.024741,-0.010357 0.070771,-0.010357 0.055236,0 0.075949,0.00748 0.021289,0.00748 0.021289,0.027618 0,0.00518 -0.0023,0.00978 -0.00173,0.00403 -0.00403,0.00806 0,0 -5.75e-4,5.754e-4 0,0 0,0 -0.0023,0.00403 -0.00403,0.00806 -0.00173,0.00403 -0.00173,0.00863 0,0.00288 0.0046,0.019563 0.00518,0.01611 0.012083,0.035098 0.0023,0.0069 0.0046,0.013809 0.00288,0.00633 0.00575,0.012658 0.00518,0.012083 0.010357,0.020138 0.00518,0.00806 0.00921,0.00806 0.00575,0 0.011507,-0.00748 0.00575,-0.00806 0.011507,-0.02359 l 0.011508,-0.032221 q 5.75e-4,-0.00115 5.75e-4,-0.00288 5.75e-4,-0.00173 5.75e-4,-0.00288 0,-0.00115 -5.75e-4,-0.0023 0,-0.00115 -0.00115,-0.00288 l -0.00806,-0.020138 q -0.00288,-0.00748 -0.00748,-0.012658 -0.0046,-0.00518 -0.00978,-0.00863 -0.00173,-0.00115 -0.00345,-0.0023 -0.00173,-0.00115 -0.00345,-0.0023 -0.00575,-0.00403 -0.010357,-0.00863 -0.00403,-0.00518 -0.00403,-0.015535 0,-0.017261 0.027043,-0.025892 0.027618,-0.00921 0.079977,-0.00921 0.054085,0 0.078826,0.00806 0.024741,0.00748 0.024741,0.024741 0,0.0069 -0.00403,0.011508 -0.00345,0.00403 -0.00806,0.00806 0,5.754e-4 -5.75e-4,5.754e-4 0,0 0,0 -0.0046,0.00403 -0.00806,0.00806 -0.00345,0.00403 -0.00345,0.010357 0,0.0069 0.0023,0.01496 0.0023,0.00748 0.00575,0.01496 0.00173,0.00403 0.00345,0.00806 0.0023,0.00345 0.00403,0.0069 0.00288,0.00575 0.00575,0.011507 0.00288,0.00518 0.00518,0.00978 0.00806,0.016686 0.012083,0.024741 0.0046,0.00748 0.00806,0.00978 0.00173,0.00115 0.00288,0.00173 0.00173,0 0.00345,0 0.0023,0 0.00403,-0.00115 0.0023,-0.00115 0.0046,-0.00345 0.00288,-0.00345 0.00575,-0.010932 0.00345,-0.00806 0.00806,-0.020713 l 0.013809,-0.039701 q 0.00288,-0.00863 0.00403,-0.014384 0.00173,-0.00633 0.00173,-0.010357 0,-0.00633 -0.0023,-0.00921 -0.0023,-0.00345 -0.00921,-0.00575 -0.010932,-0.00345 -0.017837,-0.010357 -0.00633,-0.00748 -0.00633,-0.016686 0,-0.016686 0.018412,-0.024166 0.018412,-0.00748 0.059839,-0.00748 0.032221,0 0.047756,0.00863 0.01611,0.00863 0.01611,0.025316 0,0.00288 -5.75e-4,0.00575 -5.75e-4,0.0023 -0.00173,0.0046 -0.00173,0.00403 -0.00575,0.00863 -0.00403,0.00403 -0.010932,0.010357 -0.00173,0.00115 -0.00288,0.0023 -0.00115,0.00115 -0.0023,0.0023 -0.00173,0.00173 -0.00345,0.00345 -0.00115,0.00173 -0.0023,0.00403 -0.00288,0.00403 -0.00575,0.011507 -0.00288,0.0069 -0.00806,0.020138 L 5.2360391,1.1574875 Z M 4.5887618,1.0429733 q 0.0023,-0.0046 0.00403,-0.00978 0.0023,-0.00575 0.00403,-0.010932 0.0046,-0.010932 0.00863,-0.021289 0.0046,-0.010932 0.00921,-0.021289 0,-5.753e-4 0,-5.753e-4 5.75e-4,-5.754e-4 5.75e-4,-0.00115 0.0023,-0.00575 0.00403,-0.011508 0.0023,-0.00575 0.00403,-0.010932 0.00518,-0.01496 0.012083,-0.024741 0.0069,-0.010357 0.02359,-0.010357 0.021289,0 0.033372,0.00633 0.012083,0.00575 0.012083,0.01611 0,0.0046 -0.00173,0.010357 -0.00173,0.00575 -0.00518,0.012083 -0.013234,0.024741 -0.025317,0.050057 -0.012083,0.025316 -0.02359,0.050633 L 4.5473345,1.2955625 q -0.00978,0.023015 -0.017261,0.039701 -0.0069,0.016686 -0.010357,0.026467 -0.00748,0.019563 -0.012658,0.03107 -0.0046,0.011507 -0.00863,0.017261 -0.0046,0.00575 -0.00978,0.0069 -0.0046,0.00173 -0.012658,0.00173 -0.018412,0 -0.03107,-0.00748 -0.012658,-0.0069 -0.012658,-0.016686 0,-0.00575 0.00345,-0.014384 0.00345,-0.00863 0.00806,-0.017837 0.00115,-0.0023 0.0023,-0.0046 0.00115,-0.0023 0.0023,-0.0046 0.00403,-0.00748 0.0069,-0.013809 0.00345,-0.00575 0.00575,-0.010357 l 0.026473,-0.054665 z m -0.3446485,0.1421173 5.75e-4,0.028193 q 5.75e-4,0.020138 0.0023,0.030495 0.0023,0.010357 0.00806,0.018412 5.75e-4,5.753e-4 0.00115,0.00173 5.75e-4,5.754e-4 0.00115,0.00173 5.75e-4,5.754e-4 5.75e-4,0.00115 5.75e-4,0 5.75e-4,5.753e-4 0.0023,0.00345 0.00403,0.0069 0.00173,0.00288 0.00173,0.00748 0,0.017261 -0.021864,0.025316 -0.021864,0.00806 -0.066743,0.00806 -0.047181,0 -0.065593,-0.00633 -0.018412,-0.00633 -0.018412,-0.023015 0,-0.0069 0.00173,-0.010357 0.0023,-0.00345 0.00575,-0.00575 0.00115,-0.00115 0.0023,-0.0023 0.00173,-0.00115 0.00288,-0.00288 0.0046,-0.00403 0.00806,-0.013234 0.00403,-0.00978 0.0046,-0.030495 0,-0.00403 0,-0.00806 5.75e-4,-0.0046 5.75e-4,-0.00863 5.75e-4,-0.00806 5.75e-4,-0.016686 5.75e-4,-0.00863 5.75e-4,-0.016686 0,-0.028769 -0.0069,-0.042002 -0.0069,-0.013234 -0.021864,-0.013234 -0.016686,0 -0.022439,0.017837 -0.00575,0.017261 -0.00575,0.071922 l 5.75e-4,0.02359 q 5.75e-4,0.011507 0.0023,0.018987 0.0023,0.00748 0.00518,0.012658 0.00173,0.00403 0.00288,0.0069 0.00173,0.00288 0.00288,0.00575 5.75e-4,0.0023 0.00115,0.00518 5.75e-4,0.0023 5.75e-4,0.0046 0,0.01611 -0.023015,0.024166 -0.02244,0.00806 -0.065017,0.00806 -0.042002,0 -0.062716,-0.00633 -0.020138,-0.0069 -0.020138,-0.021289 0,-0.00288 0,-0.0046 5.75e-4,-0.00173 0.00115,-0.00345 0.00115,-0.00288 0.00403,-0.00575 0.00345,-0.00345 0.00978,-0.00863 0.010357,-0.00978 0.013809,-0.03107 0.00403,-0.021289 0.00403,-0.073073 0,-0.027042 -0.0046,-0.037975 -0.00403,-0.011507 -0.00863,-0.01611 -0.00173,-0.00173 -0.00345,-0.00288 -0.00173,-0.00115 -0.00288,-0.0023 -0.00345,-0.0023 -0.00575,-0.00518 -0.00173,-0.00288 -0.00173,-0.00921 0,-0.00748 0.00403,-0.013234 0.00403,-0.00575 0.01496,-0.011507 0.00921,-0.0046 0.024741,-0.00978 0.015535,-0.00518 0.03855,-0.011508 0.013234,-0.00345 0.027043,-0.00633 0.013809,-0.00288 0.027618,-0.00288 0.00806,0 0.011507,0.00575 0.00345,0.00518 0.00345,0.016686 0,0.00115 0,0.00288 0,0.00115 0,0.0023 -5.75e-4,0.00173 -5.75e-4,0.00345 0,0.00115 0,0.0023 0,0.00748 0.0023,0.012083 0.0023,0.0046 0.00633,0.0046 0.00288,0 0.010357,-0.00748 0.00748,-0.00806 0.019563,-0.017837 0.012658,-0.00921 0.029919,-0.016686 0.017261,-0.00806 0.039701,-0.00806 0.02359,0 0.040276,0.00863 0.017261,0.00863 0.025892,0.025316 0.00288,0.00518 0.0046,0.00806 0.0023,0.00288 0.00403,0.00403 5.75e-4,0 0.00115,5.755e-4 0.00115,0 0.0023,0 0.00173,0 0.00978,-0.0069 0.00806,-0.00748 0.020713,-0.016686 0.012658,-0.00863 0.029344,-0.015535 0.016686,-0.00748 0.035673,-0.00748 0.040276,0 0.062716,0.021289 0.02244,0.021289 0.02244,0.060414 0,0.00921 -5.75e-4,0.018412 0,0.00921 0,0.018412 0,0.00921 -5.75e-4,0.018412 0,0.00921 0,0.018412 0,0.012083 0,0.020714 0,0.00863 -5.75e-4,0.013809 0,0.010932 0.00173,0.020713 0.00173,0.00978 0.00921,0.018987 5.75e-4,5.755e-4 0.00115,0.00115 5.75e-4,5.755e-4 0.00115,0.00173 0.00288,0.00288 0.00518,0.0069 0.00288,0.00345 0.00288,0.00806 0,0.017837 -0.021864,0.027043 -0.021864,0.00863 -0.063291,0.00863 -0.036824,0 -0.059839,-0.00863 -0.023015,-0.00863 -0.023015,-0.023015 0,-0.00575 0.00288,-0.010357 0.00288,-0.00518 0.00575,-0.00978 0.00115,-0.00115 0.00173,-0.0023 0.00115,-0.00115 0.00173,-0.0023 0.0046,-0.00633 0.00633,-0.02359 0.0023,-0.017261 0.0023,-0.051208 0,-0.040852 -0.00633,-0.056387 -0.00575,-0.01611 -0.02244,-0.01611 -0.015535,0 -0.02244,0.010932 -0.0069,0.010357 -0.0069,0.035098 l -5.75e-4,0.027618 z M 3.7326064,1.0291643 q 0.060414,5.754e-4 0.109321,0.037975 0.048907,0.037399 0.048907,0.1024166 0,0.062716 -0.052359,0.1052934 -0.052359,0.042002 -0.1288836,0.042002 -0.062716,0 -0.1047181,-0.036824 -0.041427,-0.037399 -0.041427,-0.093211 0,-0.067894 0.046605,-0.1110472 0.047181,-0.043728 0.1225547,-0.04603 z m -0.018412,0.065017 q -0.011508,0.00115 -0.018412,0.010357 -0.0069,0.00863 -0.0069,0.02359 0,0.00978 0.0023,0.024741 0.0023,0.01496 0.00633,0.03107 0.0023,0.010932 0.00575,0.021864 0.00345,0.010357 0.0069,0.019563 0.0046,0.011507 0.011508,0.017261 0.0069,0.00575 0.016686,0.00575 0.013234,0 0.018987,-0.00806 0.00633,-0.00863 0.00633,-0.027043 0,-0.011508 -0.0023,-0.025892 -0.00173,-0.014384 -0.00575,-0.029344 -0.00288,-0.011507 -0.00633,-0.02244 -0.00345,-0.011508 -0.00748,-0.021289 -0.00403,-0.00863 -0.010932,-0.013809 -0.0069,-0.00575 -0.016686,-0.00575 z M 3.4915251,1.2207638 q 5.75e-4,0 0.00115,0 5.75e-4,-5.753e-4 0.00115,-5.753e-4 0.00403,-0.0023 0.00806,-0.00403 0.0046,-0.0023 0.00978,-0.0023 0.00978,0 0.017261,0.00921 0.00748,0.00863 0.00748,0.021289 0,0.028769 -0.03855,0.050633 -0.037975,0.021864 -0.087457,0.021864 -0.062716,0 -0.1058689,-0.040276 -0.043153,-0.040851 -0.043153,-0.1001151 0,-0.063291 0.045455,-0.104718 0.045454,-0.042002 0.1144995,-0.042002 0.052934,0 0.089183,0.024741 0.036249,0.024166 0.036249,0.059264 0,0.023015 -0.015535,0.03855 -0.01496,0.015535 -0.037975,0.015535 -0.021864,0 -0.030495,-0.010357 -0.00806,-0.010932 -0.012658,-0.02359 -5.75e-4,-0.00115 -0.00115,-0.0023 -5.75e-4,-0.00173 -0.00115,-0.00288 -0.00403,-0.010932 -0.00978,-0.019563 -0.00575,-0.00863 -0.019563,-0.00863 -0.01611,0 -0.027042,0.013234 -0.010357,0.013234 -0.010357,0.033372 0,0.032796 0.021289,0.056962 0.021864,0.024166 0.051784,0.024166 0.00288,0 0.00633,0 0.00345,-5.754e-4 0.0069,-0.00115 0.0069,-5.754e-4 0.013234,-0.0023 0.0069,-0.00173 0.010932,-0.00345 z m -0.2600684,0.02992 q 0,0.027618 -0.019563,0.047181 -0.019563,0.018987 -0.046605,0.018987 -0.027043,0 -0.046605,-0.018987 -0.019563,-0.019563 -0.019563,-0.046605 0,-0.027618 0.019563,-0.047181 0.019563,-0.019563 0.046605,-0.019563 0.027043,0 0.046605,0.019563 0.019563,0.019563 0.019563,0.047181 z m -0.3647869,-0.01381 q -0.00173,-0.00115 -0.00518,-0.00575 -0.00288,-0.0046 -0.0069,-0.00978 -5.75e-4,-5.754e-4 -0.00115,-0.00115 -5.75e-4,-0.00115 -0.00115,-0.00173 -0.0046,-0.00575 -0.00863,-0.00978 -0.00403,-0.00403 -0.00575,-0.00403 -0.00288,0 -0.0046,0.00288 -0.00115,0.0023 -0.00115,0.00806 l -5.75e-4,0.010932 q 0,0.013234 0.00345,0.020713 0.00403,0.0069 0.00806,0.011508 0.00115,0.00115 0.0023,0.0023 0.00115,0.00115 0.0023,0.0023 0.00288,0.00345 0.0046,0.00748 0.0023,0.00345 0.0023,0.00863 0,0.019563 -0.021289,0.027618 -0.021289,0.00806 -0.069045,0.00806 -0.00518,0 -0.010357,0 -0.0046,0 -0.00921,0 -0.0046,-5.754e-4 -0.00978,-5.754e-4 -0.0046,0 -0.00978,0 -0.028193,-5.754e-4 -0.042002,-0.00863 -0.013809,-0.00806 -0.013809,-0.024166 0,-0.00748 0.00345,-0.011508 0.00345,-0.00403 0.00806,-0.0069 5.75e-4,-5.754e-4 0.00173,-0.00115 0.00115,-0.00115 0.00173,-0.00173 0.00518,-0.00345 0.00921,-0.00863 0.0046,-0.00575 0.00575,-0.01611 0.00288,-0.025892 0.00403,-0.05351 0.00115,-0.027618 0.00115,-0.061565 v -0.061565 q 0,-0.031645 -0.00345,-0.039701 -0.00288,-0.00863 -0.015535,-0.010357 -0.010932,-0.00173 -0.017261,-0.00633 -0.00575,-0.0046 -0.00575,-0.011508 0,-0.00863 0.00518,-0.015535 0.00518,-0.0069 0.016686,-0.013234 0.0046,-0.0023 0.00978,-0.0046 0.00518,-0.0023 0.011508,-0.0046 0.037399,-0.013234 0.063867,-0.020138 0.027043,-0.0069 0.044879,-0.0069 0.00806,0 0.012083,0.00345 0.00403,0.00345 0.00403,0.010357 l -0.00288,0.087457 q 0,0.0046 0,0.00921 0,0.00403 0,0.00921 -5.75e-4,0.0046 -5.75e-4,0.010357 0,0.00518 0,0.010357 0,0.03107 0.00173,0.037975 0.0023,0.0069 0.011507,0.0069 0.00403,0 0.00921,-0.0023 0.00575,-0.00288 0.020138,-0.010932 0.00748,-0.00403 0.010357,-0.00748 0.00345,-0.00345 0.00345,-0.00633 0,-0.00173 -0.00173,-0.00345 -0.00173,-0.0023 -0.00345,-0.00518 -0.0023,-0.00288 -0.00403,-0.00633 -0.00173,-0.00345 -0.00173,-0.00806 0,-0.013809 0.019563,-0.021289 0.020138,-0.00806 0.055236,-0.00806 0.042002,0 0.06214,0.00863 0.020138,0.00863 0.020138,0.027043 0,0.0069 -0.00518,0.012083 -0.0046,0.0046 -0.012658,0.00633 -0.012658,0.0023 -0.024166,0.00806 -0.011507,0.00575 -0.023015,0.012083 -0.00806,0.00518 -0.011508,0.00806 -0.00345,0.00288 -0.00345,0.00575 0,0.00575 0.019563,0.034522 0.020138,0.028193 0.048331,0.06214 0.00575,0.00748 0.010357,0.012658 0.0046,0.0046 0.00863,0.00863 0.00288,0.00288 0.00575,0.00518 0.00288,0.00173 0.00633,0.00403 0.00173,0.00115 0.00403,0.00288 0.00288,0.00115 0.00575,0.00288 0.00288,0.00173 0.00518,0.00345 0.0023,0.00115 0.0046,0.0023 0.00575,0.0046 0.00806,0.00921 0.00288,0.0046 0.00288,0.010357 0,0.014384 -0.013234,0.023015 -0.012658,0.00806 -0.034522,0.00806 h -0.091484 q -0.00806,0 -0.013809,-0.00173 -0.00518,-0.0023 -0.010357,-0.00748 -5.75e-4,-0.00115 -0.00115,-0.00173 -5.75e-4,-5.753e-4 -0.00115,-0.00115 l -0.046605,-0.060414 z m -0.3780202,-0.20771 q 0.060414,5.754e-4 0.1093208,0.037975 0.048907,0.037399 0.048907,0.1024166 0,0.062716 -0.052359,0.1052934 -0.052359,0.042002 -0.1288837,0.042002 -0.062716,0 -0.1047179,-0.036824 -0.041427,-0.037399 -0.041427,-0.093211 0,-0.067894 0.046605,-0.1110472 0.047181,-0.043728 0.1225548,-0.04603 z m -0.018412,0.065017 q -0.011508,0.00115 -0.018412,0.010357 -0.0069,0.00863 -0.0069,0.02359 0,0.00978 0.0023,0.024741 0.0023,0.01496 0.00633,0.03107 0.0023,0.010932 0.00575,0.021864 0.00345,0.010357 0.0069,0.019563 0.0046,0.011507 0.011508,0.017261 0.0069,0.00575 0.016686,0.00575 0.013234,0 0.018987,-0.00806 0.00633,-0.00863 0.00633,-0.027043 0,-0.011508 -0.0023,-0.025892 -0.00173,-0.014384 -0.00575,-0.029344 -0.00288,-0.011507 -0.00633,-0.02244 -0.00345,-0.011508 -0.00748,-0.021289 -0.00403,-0.00863 -0.010932,-0.013809 -0.0069,-0.00575 -0.016686,-0.00575 z M 2.1422749,1.0291643 q 0.060414,5.754e-4 0.1093209,0.037975 0.048907,0.037399 0.048907,0.1024166 0,0.062716 -0.052359,0.1052934 -0.052359,0.042002 -0.1288839,0.042002 -0.062716,0 -0.104718,-0.036824 -0.041427,-0.037399 -0.041427,-0.093211 0,-0.067894 0.046605,-0.1110472 0.047181,-0.043728 0.1225547,-0.04603 z m -0.018412,0.065017 q -0.011508,0.00115 -0.018412,0.010357 -0.0069,0.00863 -0.0069,0.02359 0,0.00978 0.0023,0.024741 0.0023,0.01496 0.00633,0.03107 0.0023,0.010932 0.00575,0.021864 0.00345,0.010357 0.0069,0.019563 0.0046,0.011507 0.011507,0.017261 0.0069,0.00575 0.016686,0.00575 0.013234,0 0.018987,-0.00806 0.00633,-0.00863 0.00633,-0.027043 0,-0.011508 -0.0023,-0.025892 -0.00173,-0.014384 -0.00575,-0.029344 -0.00288,-0.011507 -0.00633,-0.02244 -0.00345,-0.011508 -0.00748,-0.021289 -0.00403,-0.00863 -0.010932,-0.013809 -0.0069,-0.00575 -0.016686,-0.00575 z m -0.3636359,-0.042002 -5.75e-4,0.00575 q 0,0.00288 0.00115,0.0046 0.00115,0.00173 0.00288,0.00173 0.00115,0 0.00863,-0.00518 0.00748,-0.00575 0.018987,-0.012083 0.010932,-0.00575 0.02359,-0.010932 0.013234,-0.00518 0.026467,-0.00633 0.00115,0 0.0023,0 0.00173,0 0.00288,0 0.04603,0 0.076525,0.035098 0.03107,0.034522 0.03107,0.086306 0,0.072497 -0.047181,0.1191024 -0.047181,0.046605 -0.1202532,0.046605 -0.019563,0 -0.03855,-0.00518 -0.018412,-0.00518 -0.033372,-0.012083 -0.01496,-0.0069 -0.024741,-0.012083 -0.00921,-0.00575 -0.010357,-0.00575 -0.00403,0 -0.00806,0.00115 -0.00345,5.754e-4 -0.0069,0.0023 -5.75e-4,0 -0.00115,5.755e-4 -5.75e-4,0 -0.00115,0 -0.0046,0.00173 -0.00921,0.00288 -0.00403,0.00115 -0.00863,0.00115 -0.00863,0 -0.012658,-0.00288 -0.00403,-0.00288 -0.00403,-0.00863 0,-0.00518 0.00115,-0.010357 0.00115,-0.00575 0.00288,-0.011507 0.00115,-0.00518 0.0023,-0.010932 0.00173,-0.00575 0.00173,-0.011507 0.00115,-0.02359 0.00173,-0.047181 0.00115,-0.02359 0.00115,-0.047181 v -0.078251 q 0,-0.026467 -0.0023,-0.033947 -0.00173,-0.00806 -0.010357,-0.012083 -5.75e-4,-5.755e-4 -0.00115,-5.755e-4 -5.75e-4,-5.753e-4 -0.00115,-5.753e-4 -0.00288,-0.00115 -0.00518,-0.0023 -0.0023,-0.00115 -0.00403,-0.0023 -0.00921,-0.0046 -0.012658,-0.00978 -0.00345,-0.00518 -0.00345,-0.012658 0,-0.017837 0.024166,-0.02992 0.024741,-0.012658 0.054085,-0.020138 0.021864,-0.00575 0.042002,-0.00806 0.020138,-0.00288 0.029919,-0.00288 0.00806,0 0.010932,0.00403 0.00345,0.00345 0.00345,0.012658 l -0.00288,0.1093211 z m 0,0.1081703 0.00115,0.041427 q 0.00115,0.039125 0.00633,0.052359 0.00575,0.013234 0.021289,0.013234 0.020138,0 0.03107,-0.017261 0.010932,-0.017837 0.010932,-0.050633 0,-0.039701 -0.012083,-0.06214 -0.012083,-0.023015 -0.032221,-0.023015 -0.01496,0 -0.020138,0.010357 -0.00518,0.010357 -0.00575,0.023015 -5.75e-4,0.00345 -5.75e-4,0.0069 0,0.00288 0,0.00633 z M 1.5651758,1.1833646 H 1.4334151 q -0.0046,5.754e-4 -0.0069,0.0023 -0.00173,0.00173 -0.00173,0.00575 0,0.017261 0.013809,0.029919 0.013809,0.012658 0.029919,0.017837 0.0046,0.00115 0.00921,0.0023 0.00518,5.754e-4 0.00921,5.754e-4 0.00518,0 0.010932,-5.754e-4 0.00633,-0.00115 0.012658,-0.00288 0.00921,-0.0023 0.017837,-0.00575 0.00921,-0.00403 0.015535,-0.00863 0.0046,-0.00288 0.0069,-0.00403 0.0023,-0.00173 0.0046,-0.0023 5.75e-4,-5.754e-4 0.00115,-5.754e-4 0.00115,0 0.0023,0 0.0069,0 0.012083,0.00575 0.00518,0.00575 0.00806,0.012658 5.75e-4,0.00288 0.00115,0.00518 5.75e-4,0.0023 5.75e-4,0.0046 0,0.00978 -0.00633,0.019563 -0.00633,0.00921 -0.018987,0.018987 -0.02244,0.016686 -0.048907,0.024741 -0.025892,0.00806 -0.056387,0.00806 -0.06099,0 -0.1035674,-0.039701 -0.042002,-0.040276 -0.042002,-0.097814 0,-0.062716 0.043728,-0.1058688 0.043728,-0.043728 0.1064443,-0.043728 0.028769,0 0.051784,0.00748 0.02359,0.00748 0.042578,0.023015 0.013234,0.010357 0.023015,0.024741 0.00978,0.013809 0.01496,0.028193 0.0023,0.00748 0.00345,0.014384 0.00173,0.0069 0.00173,0.013234 0,0.019563 -0.00748,0.031646 -0.0069,0.011507 -0.019563,0.011507 z m -0.124856,-0.052359 h 0.028769 q 0.00921,5.754e-4 0.013234,-0.00345 0.0046,-0.00403 0.0046,-0.012658 0,-0.01496 -0.00863,-0.024741 -0.00863,-0.00978 -0.02244,-0.00978 -0.013234,0 -0.02359,0.010932 -0.00978,0.010357 -0.00978,0.024741 0,0.00863 0.00403,0.012083 0.00403,0.00345 0.013809,0.00345 z m -0.208285,0.089758 q 5.754e-4,0 0.00115,0 5.753e-4,-5.753e-4 0.00115,-5.753e-4 0.00403,-0.0023 0.00806,-0.00403 0.0046,-0.0023 0.00978,-0.0023 0.00978,0 0.017261,0.00921 0.00748,0.00863 0.00748,0.021289 0,0.028769 -0.03855,0.050633 -0.037975,0.021864 -0.087457,0.021864 -0.062716,0 -0.1058688,-0.040276 -0.043153,-0.040851 -0.043153,-0.1001151 0,-0.063291 0.045455,-0.104718 0.045454,-0.042002 0.1144994,-0.042002 0.052934,0 0.089183,0.024741 0.036249,0.024166 0.036249,0.059264 0,0.023015 -0.015535,0.03855 -0.01496,0.015535 -0.037975,0.015535 -0.021864,0 -0.030495,-0.010357 -0.00806,-0.010932 -0.012658,-0.02359 -5.754e-4,-0.00115 -0.00115,-0.0023 -5.753e-4,-0.00173 -0.00115,-0.00288 -0.00403,-0.010932 -0.00978,-0.019563 -0.00575,-0.00863 -0.019563,-0.00863 -0.01611,0 -0.027043,0.013234 -0.010357,0.013234 -0.010357,0.033372 0,0.032796 0.021289,0.056962 0.021864,0.024166 0.051784,0.024166 0.00288,0 0.00633,0 0.00345,-5.754e-4 0.0069,-0.00115 0.0069,-5.754e-4 0.013234,-0.0023 0.0069,-0.00173 0.010932,-0.00345 z M 0.95240332,1.1344577 q 0,0.00518 0,0.010357 0,0.0046 0,0.00921 -5.755e-4,0.0046 -5.755e-4,0.00978 0,0.0046 0,0.00921 0,0.035098 0.00403,0.050058 0.0046,0.01496 0.013809,0.016686 0.00633,5.754e-4 0.010357,0.00288 0.0046,0.0023 0.0046,0.00978 0,0.021864 -0.017837,0.037975 -0.017261,0.01611 -0.03855,0.021864 -0.0069,0.0023 -0.013809,0.00345 -0.00633,0.00115 -0.012083,0.00115 -0.014384,0 -0.02359,-0.00403 -0.00921,-0.00403 -0.01496,-0.00921 -0.00518,-0.00403 -0.00863,-0.00748 -0.00345,-0.00345 -0.0069,-0.00518 -0.00115,-5.754e-4 -0.0023,-5.754e-4 -5.754e-4,-5.754e-4 -0.00173,-5.754e-4 -0.00345,0 -0.010357,0.0046 -0.0069,0.00403 -0.017261,0.00921 -0.00978,0.00518 -0.02244,0.00921 -0.012658,0.00403 -0.028193,0.00403 -0.040276,0 -0.066168,-0.020714 -0.025892,-0.020713 -0.025892,-0.05351 0,-0.041427 0.029919,-0.06099 0.02992,-0.020138 0.066168,-0.026467 0.00921,-0.00115 0.018412,-0.00173 0.00978,-0.00115 0.018987,-0.00115 0.016686,-5.753e-4 0.020714,-0.00345 0.00403,-0.00288 0.00403,-0.015535 0,-0.028769 -0.00633,-0.042002 -0.00633,-0.013809 -0.019563,-0.013809 -0.00978,0 -0.017261,0.00633 -0.0069,0.00633 -0.013809,0.01496 -0.00115,0.00173 -0.00288,0.00403 -0.00173,0.0023 -0.00345,0.00403 -0.00863,0.011508 -0.018987,0.020713 -0.010357,0.00921 -0.026467,0.00921 -0.013809,0 -0.023015,-0.00806 -0.00921,-0.00806 -0.00921,-0.019563 0,-0.025892 0.024741,-0.042578 0.025316,-0.017261 0.055236,-0.026467 0.016686,-0.00518 0.032796,-0.00748 0.016686,-0.00288 0.028193,-0.00288 0.028193,0 0.049482,0.00633 0.021864,0.00575 0.03855,0.018412 5.755e-4,5.754e-4 5.755e-4,0.00115 5.755e-4,0 0.00115,0 0.017837,0.013809 0.024166,0.030495 0.00633,0.01611 0.00633,0.048907 z m -0.164557,0.09206 q 0,0.013234 0.00633,0.021864 0.0069,0.00863 0.017261,0.00863 0.011507,0 0.016686,-0.00921 0.00575,-0.00978 0.00575,-0.029344 0,-0.01496 -0.00345,-0.020713 -0.00288,-0.00575 -0.012083,-0.00575 -0.012658,0 -0.021864,0.010357 -0.00863,0.010357 -0.00863,0.024741 z m -0.1697349,-0.196778 q -0.0046,-0.00518 -0.00921,-0.00978 -0.00403,-0.00518 -0.00863,-0.00921 -0.011508,-0.011508 -0.024741,-0.017837 -0.013234,-0.00633 -0.035098,-0.00748 -0.00921,-5.754e-4 -0.018987,-5.754e-4 -0.00921,-5.754e-4 -0.018987,-5.754e-4 -0.019563,0 -0.026467,0.01611 -0.00633,0.01611 -0.00633,0.06099 0,0.010357 0.00633,0.014384 0.0069,0.00403 0.024166,0.00403 0.016686,0 0.021864,-0.00748 0.00575,-0.00806 0.00863,-0.017837 0,-5.753e-4 0,-0.00115 0,-5.754e-4 5.754e-4,-0.00115 0.0023,-0.00863 0.00633,-0.015535 0.00403,-0.0069 0.01611,-0.0069 0.017837,0 0.026467,0.021289 0.00863,0.020714 0.00863,0.063291 0,0.042002 -0.010932,0.065593 -0.010357,0.023015 -0.029344,0.023015 -0.010357,0 -0.013809,-0.0069 -0.00288,-0.00748 -0.00518,-0.017261 0,-0.00173 -5.756e-4,-0.00345 0,-0.00173 -5.753e-4,-0.00345 -0.0023,-0.011507 -0.00921,-0.021289 -0.00633,-0.00978 -0.026467,-0.00978 -0.013809,0 -0.018412,0.00403 -0.00403,0.00345 -0.00403,0.01611 v 0.021864 q 0,0.039125 0.0046,0.054661 0.00518,0.015535 0.017837,0.017261 5.753e-4,0 5.753e-4,0 5.756e-4,0 0.00115,5.755e-4 0.010932,0.00173 0.019563,0.00633 0.00921,0.00403 0.00921,0.017837 0,0.010932 -0.00633,0.017837 -0.00633,0.00633 -0.019563,0.00978 -0.016686,0.00345 -0.044304,0.00575 -0.027043,0.0023 -0.058113,0.0023 -0.058113,0 -0.079977,-0.0069 -0.021864,-0.00748 -0.021864,-0.027043 0,-0.013234 0.0069,-0.018412 0.00748,-0.00575 0.017837,-0.00978 0.012658,-0.00518 0.017261,-0.021864 0.0046,-0.017261 0.00518,-0.06214 l 0.00115,-0.089758 v -0.014384 q 0,-0.051784 -0.00403,-0.067319 -0.00345,-0.01611 -0.017261,-0.021864 -0.00518,-0.0023 -0.00921,-0.00403 -0.00345,-0.00173 -0.00575,-0.00345 -0.0046,-0.00345 -0.00633,-0.0069 -0.00173,-0.00403 -0.00173,-0.00921 0,-0.012658 0.012083,-0.020714 0.012083,-0.00863 0.029919,-0.00863 0.00575,0 0.013809,5.753e-4 0.00806,0 0.018987,0.00115 0.01496,0.00115 0.029344,0.00173 0.01496,5.754e-4 0.029919,0.00115 0.01496,5.754e-4 0.029919,5.754e-4 0.01496,0 0.029344,0 0.00575,0 0.011508,0 0.00633,0 0.012658,0 0.00978,0 0.019563,0 0.010357,-5.754e-4 0.020713,-5.754e-4 0.015535,-5.753e-4 0.031645,-0.00173 0.016111,-0.00115 0.032221,-0.00345 0.00115,0 0.0023,0 0.00115,0 0.0023,-5.753e-4 5.754e-4,0 0.00115,0 0.00115,0 0.00173,0 0.012083,0 0.021864,0.014384 0.00978,0.014384 0.01496,0.031646 0.00345,0.00978 0.00518,0.018987 0.00173,0.00921 0.00173,0.01611 0,0.017261 -0.00863,0.027618 -0.00806,0.010357 -0.021289,0.010357 -0.00575,0 -0.011508,-0.0023 -0.00575,-0.00288 -0.010357,-0.00806 z M 3.9015998,0.8972026 H 4.7158574 V 1.4371524 H 3.9015998 Z m -0.3459318,0 H 3.8996312 V 1.4371524 H 3.555668 Z m -0.4645195,0 h 0.462551 v 0.5399498 h -0.462551 z m -0.434354,0 H 3.0891802 V 1.4371524 H 2.6567945 Z m -0.6906735,0 H 2.6548259 V 1.4371524 H 1.966121 Z m -0.6686611,0 H 1.9641527 V 1.4371524 H 1.2974599 Z m -0.30410438,0 H 1.2954914 V 1.4371524 H 0.99335552 Z m -0.7140313,0 h 0.7120628 v 0.5399498 h -0.7120628 z" />
  </g>
</svg>
