<?xml version="1.0" encoding="UTF-8" standalone="no"?>
<svg
   xmlns:dc="http://purl.org/dc/elements/1.1/"
   xmlns:cc="http://creativecommons.org/ns#"
   xmlns:rdf="http://www.w3.org/1999/02/22-rdf-syntax-ns#"
   xmlns:svg="http://www.w3.org/2000/svg"
   xmlns="http://www.w3.org/2000/svg"
   xmlns:sodipodi="http://sodipodi.sourceforge.net/DTD/sodipodi-0.dtd"
   xmlns:inkscape="http://www.inkscape.org/namespaces/inkscape"
   width="12in"
   height="12in"
   viewBox="0 0 12 12"
   version="1.1"
   id="svg8"
   inkscape:version="1.0.1 (3bc2e813f5, 2020-09-07)"
   sodipodi:docname="QR Code direct to SAFE's donation page.svg">
  <defs
     id="defs2" />
  <sodipodi:namedview
     id="base"
     pagecolor="#ffffff"
     bordercolor="#666666"
     borderopacity="1.0"
     inkscape:pageopacity="0.0"
     inkscape:pageshadow="2"
     inkscape:zoom="0.66583926"
     inkscape:cx="589.43093"
     inkscape:cy="566.36904"
     inkscape:document-units="in"
     inkscape:current-layer="layer1"
     inkscape:document-rotation="0"
     showgrid="true"
     units="in"
     inkscape:snap-global="true"
     inkscape:window-width="1904"
     inkscape:window-height="1001"
     inkscape:window-x="12"
     inkscape:window-y="8"
     inkscape:window-maximized="0"
     inkscape:snap-nodes="true"
     inkscape:snap-others="false"
     inkscape:snap-smooth-nodes="true"
     inkscape:object-paths="true"
     inkscape:snap-intersection-paths="true"
     inkscape:snap-grids="false"
     inkscape:snap-to-guides="false">
    <inkscape:grid
       type="xygrid"
       id="grid849"
       units="in"
       spacingx="0.25"
       spacingy="0.25"
       empspacing="4" />
  </sodipodi:namedview>
  <metadata
     id="metadata5">
    <rdf:RDF>
      <cc:Work
         rdf:about="">
        <dc:format>image/svg+xml</dc:format>
        <dc:type
           rdf:resource="http://purl.org/dc/dcmitype/StillImage" />
        <dc:title></dc:title>
        <dc:creator>
          <cc:Agent>
            <dc:title>Doctor Wizard</dc:title>
          </cc:Agent>
        </dc:creator>
        <dc:rights>
          <cc:Agent>
            <dc:title>Copyright 2021+ by Doctor Wizard</dc:title>
          </cc:Agent>
        </dc:rights>
        <dc:publisher>
          <cc:Agent>
            <dc:title>Doctor Wizard</dc:title>
          </cc:Agent>
        </dc:publisher>
        <dc:source>Doctor Wizard</dc:source>
        <dc:contributor>
          <cc:Agent>
            <dc:title>Doctor Wizard</dc:title>
          </cc:Agent>
        </dc:contributor>
      </cc:Work>
    </rdf:RDF>
  </metadata>
  <g
     inkscape:label="Layer 1"
     inkscape:groupmode="layer"
     id="layer1">
    <path
       style="fill:none;stroke:#000000;stroke-width:0.00393701;stroke-miterlimit:4;stroke-dasharray:none;stroke-opacity:1"
       d="m 0.23299525,5.9069678 -0.00761,-0.00337 -0.0068,-0.00726 -0.0068,-0.00726 -0.00268,-0.00713 -0.00268,-0.00713 4.2e-6,-0.7563565 4e-6,-0.7563572 0.00447,-0.00868 0.00447,-0.00868 0.00973,-0.00779 0.00973,-0.00779 0.75952942,-6.864e-4 0.75952843,-6.865e-4 0.00941,0.0048 0.00942,0.00481 0.00413,0.00467 0.00413,0.00467 0.00413,0.0081 0.00413,0.0081 v 0.7558492 0.7558484 l -0.00268,0.00713 -0.00268,0.00713 -0.0068,0.00726 -0.0068,0.00726 -0.00816,0.00349 -0.00816,0.00349 -0.75660293,-9.37e-5 -0.75660312,-1.042e-4 -0.00761,-0.00337 z m 1.31409265,-0.2242527 0.00651,-0.00247 0.00508,-0.00828 0.00508,-0.00828 7.7e-6,-0.5439341 6.8e-6,-0.5439352 -0.00384,-0.00743 -0.00384,-0.00743 -0.00747,-0.00384 -0.00747,-0.00384 -0.54700973,6.865e-4 -0.54700902,6.864e-4 -0.00702,0.00704 -0.00704,0.00702 v 0.5504501 0.5504494 l 0.00508,0.00564 0.00508,0.00564 0.00508,0.00206 0.00508,0.00206 0.54364432,1.979e-4 0.54364403,1.969e-4 0.00651,-0.00247 z m -0.85689485,-0.2261884 -0.00875,-0.00281 -0.00916,-0.00916 -0.00916,-0.00916 -0.00309,-0.011216 -0.00309,-0.011216 6.866e-4,-0.29881 6.865e-4,-0.2988108 0.00632,-0.011011 0.00632,-0.01101 0.011421,-0.00673 0.011421,-0.00673 H 0.99514087 1.2964836 l 0.00692,0.00191 0.00692,0.00191 0.00903,0.00794 0.00903,0.00793 0.00432,0.00784 0.00432,0.00784 7.552e-4,0.2899477 8.239e-4,0.2899472 -0.00157,0.015591 -0.00157,0.015592 -0.00658,0.010135 -0.00658,0.010135 -0.010345,0.0059 -0.010344,0.0059 -0.3013428,3.948e-4 -0.30134125,3.948e-4 z M 2.0169933,5.3445907 V 4.7786242 H 2.2436341 2.4702728 V 4.6659378 4.5532513 H 2.5829593 2.6956458 V 4.4405634 4.3278769 H 2.9222867 3.1489254 V 4.4405634 4.5532513 H 3.0349739 2.9210213 V 4.665912 4.7785729 l 0.1133189,6.864e-4 0.113319,6.865e-4 6.865e-4,0.2260064 6.864e-4,0.226007 H 3.2617046 3.3743784 V 5.1192715 5.006585 H 3.60102 3.8276601 V 4.5532789 4.0999733 L 3.7143399,4.1006598 3.6010211,4.1013462 3.6003346,4.3273525 3.5996482,4.5533597 H 3.486974 3.3743007 V 4.3267367 4.1000966 H 3.1476619 2.9210218 V 3.8747224 3.6493491 H 3.0349745 3.1489272 V 3.7620356 3.8747222 H 3.6009408 4.0529541 V 3.6480824 3.421443 H 3.9402676 3.8275825 V 3.3087552 3.1960687 H 3.7148944 3.602208 V 3.0821164 2.9681626 H 3.7148944 3.8275823 V 2.855476 2.7427907 H 3.3743004 2.9210216 V 2.9694295 3.1960702 H 3.0349743 3.1489258 V 3.3087566 3.4214445 H 3.2616122 3.3742989 V 3.3087566 3.1960702 H 3.4869865 3.599673 V 3.4214434 3.6468168 H 3.3743004 3.1489264 V 3.5341303 3.4214438 H 3.0349749 2.9210222 V 3.308756 3.1960696 H 2.8083358 2.695648 V 3.308756 3.4214438 H 2.5829615 2.470275 V 3.308756 3.1960696 H 2.5829615 2.695648 V 3.0820901 2.9681104 L 2.582329,2.9687968 2.4690088,2.9694833 2.4683223,3.0828035 2.4676359,3.1961238 H 2.0156464 1.5636583 V 3.0821711 2.9682175 H 1.4509712 1.3382847 V 2.8555387 2.742853 H 1.2243235 1.1103705 V 2.6289 2.5149468 H 0.99768337 0.88499637 V 2.4022592 2.2895722 H 0.54566985 0.20634285 V 2.1768844 2.0641991 H 0.77230935 1.3382766 V 2.4035249 2.7428528 H 1.450963 1.5636495 V 2.630179 2.5175054 L 1.7896568,2.5168189 2.0156639,2.5161325 2.0163503,2.4028123 2.0170368,2.2894921 H 1.7903801 1.5637132 V 2.1768055 2.0641203 h 0.5659672 0.5659665 v 0.1126596 0.1126595 l -0.1133191,6.865e-4 -0.1133202,6.865e-4 v 0.2253739 0.2253741 l 0.1133202,6.864e-4 0.1133191,6.865e-4 V 2.63022 2.5175079 H 3.0349747 3.3743004 V 2.403555 2.2896013 H 3.1476603 2.9210216 V 1.9502756 1.6109476 H 3.0349743 3.1489258 V 1.4982748 1.3856023 L 3.3749342,1.3849158 3.6009413,1.3842293 3.6016277,1.1582229 3.6023142,0.93221572 H 3.8276744 4.0530336 V 1.1588566 1.3854955 H 3.9403458 3.8276605 V 1.4981819 1.6108695 H 3.9403458 4.0530336 V 1.8375104 2.0641506 H 4.1669875 4.2809403 V 2.2907898 2.5174299 H 4.3936267 4.5063133 V 2.6301178 2.7428041 H 4.3936267 4.2809403 v 0.1126865 0.1126866 h 0.452013 0.4520143 V 3.0821299 3.1960827 H 5.0722879 4.959595 V 3.4214575 3.6468308 H 4.8456474 4.7316998 V 3.5341442 3.4214578 H 4.6190069 4.5063204 V 3.5341442 3.6468308 H 4.3936339 4.2809474 V 3.7607834 3.8747362 H 4.7329636 5.184977 V 3.9874239 4.1001106 H 5.0722964 4.9596036 V 4.3267502 4.5533897 H 5.0722964 5.184977 V 4.4407031 4.3280166 H 5.4116165 5.6382569 V 4.101377 3.8747368 H 5.5256018 5.4129476 L 5.4122612,3.7614166 5.4115737,3.6480963 5.2982532,3.6474099 5.1849334,3.6467234 V 3.5340639 3.4214041 H 5.5242525 5.8635792 V 3.98737 4.5533364 H 5.5242468 5.184922 V 4.7799765 5.0066166 H 5.0722291 4.9595362 V 5.233256 5.4598961 H 5.0722291 5.184922 V 5.3459434 5.2319907 H 5.2988695 5.412817 V 5.1193041 5.0066178 h 0.2253736 0.2253735 v 0.2266394 0.22664 H 5.7508712 5.6381784 V 5.5725836 5.6852702 H 5.7508712 5.8635641 V 5.7979566 5.9106431 H 5.5242393 5.1849126 V 5.7979573 5.6852704 H 4.5062591 3.8276056 V 5.7979567 5.9106433 H 3.3743251 2.9210464 V 5.4586208 5.0066075 H 2.5817187 2.2423914 v 0.1126863 0.1126866 h 0.22664 0.2266402 V 5.4586211 5.6852612 H 2.5829845 2.4702975 V 5.5725737 5.4598868 H 2.3563448 2.2423922 V 5.5725732 5.6852598 H 2.3550787 2.4677651 V 5.7979462 5.9106328 H 2.2423922 2.0170186 Z m 1.3573071,0.227906 V 5.4598103 H 3.2616139 3.1489274 v 0.1126864 0.112688 h 0.1126865 0.1126865 z m 0.453281,0 V 5.4598103 h 0.4520134 0.452013 V 5.2331698 5.0065303 H 4.6189149 4.5062286 V 5.1192168 5.2319034 H 4.3935479 4.2808609 V 5.1192175 5.0065303 H 4.1669078 4.0529548 V 5.119204 5.2318778 l -0.2260072,6.854e-4 -0.2260063,6.865e-4 -6.865e-4,0.2260069 -6.864e-4,0.2260065 h 0.1139681 0.1139654 z m 1.5852125,0 V 5.4598103 H 5.5254868 5.6381797 V 5.3458577 5.231905 H 5.5255255 5.4128583 L 5.4121718,5.3452252 5.4114853,5.4585441 5.2981657,5.4592306 5.1848449,5.459917 V 5.5725766 5.6852387 H 5.2987924 5.4127399 Z M 4.7316078,4.4392972 V 4.0999705 H 4.3922819 4.0529548 v 0.3393267 0.339327 h 0.3393271 0.3393259 z m -0.4507469,0.00123 V 4.3278478 H 4.3935487 4.5062351 V 4.4405329 4.5532194 H 4.3935487 4.2808609 Z m 0,-1.3585732 V 2.9680094 H 4.0542208 3.8275814 V 3.0819635 3.1959162 H 4.0542208 4.2808609 Z M 1.7890872,2.8553197 V 2.7426332 H 1.6764008 1.5637129 v 0.1126865 0.1126864 h 0.1126879 0.1126864 z m 0.4532794,0 V 2.7426332 H 2.1296801 2.0169923 V 2.8553197 2.9680061 H 2.1296801 2.2423666 Z M 4.0529548,2.6286802 V 2.5147276 H 3.9402669 3.8275817 V 2.6286802 2.7426329 H 3.9402669 4.0529548 Z M 3.6022072,2.176666 V 2.0639797 H 3.7148938 3.8275815 V 2.176666 2.2893526 H 3.9402667 4.0529544 V 2.176666 2.0639798 H 3.9402669 3.8275814 V 1.8373397 1.6106997 H 3.7136287 3.599676 V 1.723386 1.8360726 H 3.4869894 3.3743017 V 1.723386 1.6106997 H 3.2616152 3.1489288 v 0.22664 0.2266401 h 0.1126864 0.1126865 v 0.1126864 0.1126866 h 0.113954 0.1139528 z M 2.0169933,4.2138941 V 3.8745664 H 1.9030405 1.7890879 V 3.9872542 4.0999406 H 1.4497601 1.1104337 V 3.9872542 3.8745664 H 0.99774717 0.88505937 V 3.9872542 4.0999406 H 0.77110645 0.65715335 V 3.9872542 3.8745664 h 0.1139528 0.11395272 V 3.6479263 3.4212876 h 0.1126622 0.11265963 l 6.866e-4,0.1133188 6.865e-4,0.1133189 0.1133202,6.864e-4 0.1133202,6.865e-4 v 0.112661 0.1126609 H 1.5637675 1.7891417 V 3.7619592 3.6492982 L 1.9024619,3.6486117 2.0157821,3.6479253 2.0164686,3.5346064 2.017155,3.4212876 h 0.112634 0.1126352 l 6.865e-4,0.1133188 6.864e-4,0.1133189 0.2260063,6.864e-4 0.2260066,6.865e-4 V 3.7619719 3.8746456 H 2.4691964 2.2425575 V 4.2139735 4.5532992 H 2.1298699 2.0171827 Z M 0.20640585,3.5339747 V 2.9680094 h 0.1126878 0.1126865 V 2.8553491 2.7426635 H 0.31909225 0.20640465 V 2.629977 2.5172893 h 0.225374 0.2253735 v 0.4520135 0.4520141 h -0.1126865 -0.1126865 v 0.3393265 0.339327 h -0.1126865 -0.1126878 z m 1.35730735,0 V 3.4212868 H 1.6764009 1.7890873 V 3.5339747 3.6466599 H 1.6764002 1.5637132 Z M 5.4127939,3.0819598 V 2.9680096 H 5.6381685 5.8635429 V 3.0819635 3.1959163 H 5.6381685 5.4127939 Z M 4.7332965,2.7409452 4.731635,2.7392269 V 2.6269641 2.5146989 H 4.618952 4.5062642 V 2.289325 2.0639515 H 4.6189508 4.7316437 V 2.1766368 2.2893245 H 4.8455913 4.9595386 V 2.1766368 2.0639515 H 5.0722192 5.1849121 V 2.1766368 2.2893245 H 5.0722314 4.9595386 V 2.5159647 2.7426048 H 4.8472685 4.734998 Z M 5.1848886,2.629946 V 2.5172582 H 5.2988361 5.4127837 V 2.629946 2.7426326 H 5.2988361 5.1848886 Z M 5.6381685,2.4020401 V 2.2893535 H 5.5254755 5.4127959 V 2.176667 2.0639806 h 0.1126796 0.112693 V 2.176667 2.2893535 H 5.7508614 5.8635542 V 2.4020401 2.5147279 H 5.7508614 5.6381685 Z m -5.40517325,-0.5699494 -0.00761,-0.00392 -0.00604,-0.00549 -0.00604,-0.00549 -0.00349,-0.00816 -0.00349,-0.00816 V 1.0448421 0.28879111 l 0.00349,-0.008159 0.00349,-0.008159 0.00726,-0.006801 0.00726,-0.006797 0.00713,-0.002672 0.00713,-0.002672 0.75635672,3.49e-6 0.75635723,4.07e-6 0.00868,0.004465 0.00868,0.004465 0.00779,0.00973 0.00779,0.009733 6.865e-4,0.75955373 6.864e-4,0.7595547 -0.00413,0.00813 -0.00413,0.00813 -0.00413,0.00467 -0.00413,0.00467 -0.00939,0.0048 -0.00939,0.0048 -0.75662213,-1.04e-5 -0.75662242,-1.05e-5 -0.00761,-0.00392 z m 1.31560725,-0.2252325 0.00743,-0.00384 0.00384,-0.00743 0.00384,-0.00743 -6.7e-6,-0.5439341 -8.4e-6,-0.54393582 -0.00508,-0.00828 -0.00508,-0.00828 -0.00651,-0.00247 -0.00651,-0.00247 -0.54670683,6.8646e-4 -0.54670772,6.8646e-4 -0.00704,0.00702 -0.00702,0.00702 -6.866e-4,0.5467077 -6.865e-4,0.5467069 0.00247,0.00651 0.00247,0.00651 0.00828,0.00508 0.00828,0.00508 0.54393532,7.6e-6 0.54393523,6.9e-6 0.00743,-0.00384 z m -0.85255775,-0.2239227 -0.00795,-0.00191 -0.0086,-0.00529 -0.0086,-0.00529 -0.00625,-0.010883 -0.00625,-0.010895 -6.866e-4,-0.2988108 -6.865e-4,-0.29880998 0.00309,-0.011215 0.00309,-0.011215 0.00921,-0.00921 0.00921,-0.00921 0.011216,-0.00309 0.011216,-0.00309 0.29881005,6.8646e-4 0.2988108,6.8667e-4 0.011421,0.00673 0.011421,0.00673 0.00632,0.01101 0.00632,0.011011 V 1.0422068 1.3435489 l -0.00191,0.00692 -0.00191,0.00691 -0.00794,0.00903 -0.00794,0.00903 -0.00784,0.00432 -0.00784,0.00432 -0.2988105,3.938e-4 -0.29881095,3.948e-4 z M 2.0169933,1.6106997 V 1.3853524 H 2.1296811 2.2423675 V 1.6107262 1.8361004 H 2.1296804 2.0169933 Z M 2.4702728,1.4967465 V 1.1574199 H 2.5829593 2.6956458 V 1.0447591 0.93207262 H 2.5816932 2.4677404 V 1.0447591 1.1574468 H 2.2423666 2.0169933 V 1.0447591 0.93207262 H 2.1296811 2.2423675 V 0.81811991 0.70416711 H 2.1296811 2.0169933 V 0.59147941 0.47879287 H 2.1296811 2.2423675 V 0.36610501 0.25341858 h 0.1126878 0.1126865 v 0.2253742 0.22537333 H 2.5816945 2.6956472 V 0.59147841 0.47879178 H 3.034975 3.3743008 V 0.36610408 0.25341764 H 3.4869887 3.5996751 V 0.47879328 0.70416661 H 3.2603474 2.9210216 V 0.93080672 1.1574468 H 3.0349743 3.1489258 V 1.0447591 0.93207262 H 3.2616122 3.3742989 V 1.0447591 1.1574468 H 3.2616379 3.148977 L 3.1482906,1.2707671 3.1476041,1.384086 H 3.0349176 2.9222323 L 2.9215459,1.2707671 2.9208594,1.1574468 H 2.8081996 2.6955387 V 1.4967731 1.8361004 H 2.5828522 2.4701658 Z m 1.8371767,0.3351177 -0.00761,-0.00405 -0.00467,-0.00413 -0.00467,-0.00413 -0.00481,-0.00942 -0.0048,-0.00942 6.865e-4,-0.7595278 6.864e-4,-0.75952838 0.00779,-0.009733 0.00779,-0.00973 0.00868,-0.004465 0.00868,-0.004465 0.7566035,-4.15e-6 0.7566024,-4.07e-6 0.00821,0.003493 0.00821,0.003493 0.0068,0.007269 0.0068,0.007264 0.00264,0.00713 0.00264,0.00713 v 0.75637 0.7563567 l -0.00443,0.00868 -0.00443,0.00868 -0.00973,0.00779 -0.00973,0.00779 -0.7600842,4.937e-4 -0.7600853,4.927e-4 -0.00761,-0.00405 z m 1.3224314,-0.2294514 0.00708,-0.00704 V 1.0447315 0.49407358 l -0.00708,-0.00702 -0.00708,-0.00702 H 5.0721975 4.5215391 l -0.00704,0.00702 -0.00702,0.00702 -6.865e-4,0.54628392 -6.864e-4,0.5462839 0.00303,0.00726 0.00302,0.00726 0.0078,0.00474 0.0078,0.00474 0.5475503,-5.927e-4 0.54755,-5.917e-4 z m -0.8593812,-0.2194773 -0.00794,-0.00191 -0.00858,-0.00529 -0.00858,-0.00529 -0.00628,-0.010883 -0.00628,-0.010895 V 1.0447872 0.74091241 l 0.00628,-0.011011 0.00628,-0.01101 0.011394,-0.00673 0.011394,-0.00673 h 0.3039001 0.3038748 l 0.011394,0.00673 0.011394,0.00673 0.00624,0.01101 0.00624,0.011011 7.562e-4,0.29501129 7.552e-4,0.2950126 -0.00151,0.010409 -0.00151,0.010408 -0.0067,0.010248 -0.0067,0.010238 -0.010365,0.0059 -0.010374,0.0059 -0.2988103,3.948e-4 -0.2988088,3.948e-4 z M 3.8275814,0.36607938 V 0.2533929 H 3.9402666 4.0529543 V 0.36607938 0.47876587 H 3.9402666 3.8275814 Z"
       id="path2220" />
    <path
       style="fill:none;stroke:#000000;stroke-width:0.00393701;stroke-miterlimit:4;stroke-dasharray:none;stroke-opacity:1"
       d="m 6.0152852,5.8733464 -0.00761,-0.00337 -0.0068,-0.00726 -0.0068,-0.00726 -0.00268,-0.00713 -0.00268,-0.00713 4.2e-6,-0.7563565 4e-6,-0.7563572 0.00447,-0.00868 0.00447,-0.00868 0.00973,-0.00779 0.00973,-0.00779 0.7595293,-6.864e-4 0.7595285,-6.865e-4 0.00941,0.0048 0.00942,0.00481 0.00413,0.00467 0.00413,0.00467 0.00413,0.0081 0.00413,0.0081 V 5.085169 5.8410174 l -0.00268,0.00713 -0.00268,0.00713 -0.0068,0.00726 -0.0068,0.00726 -0.00816,0.00349 -0.00816,0.00349 -0.756603,-9.37e-5 -0.756603,-1.042e-4 -0.00761,-0.00337 z m 1.3140926,-0.2242527 0.00651,-0.00247 0.00508,-0.00828 0.00508,-0.00828 7.7e-6,-0.5439341 6.8e-6,-0.5439352 -0.00384,-0.00743 -0.00384,-0.00743 -0.00747,-0.00384 -0.00747,-0.00384 -0.5470098,6.865e-4 -0.5470089,6.864e-4 -0.00702,0.00704 -0.00704,0.00702 v 0.5504501 0.5504494 l 0.00508,0.00564 0.00508,0.00564 0.00508,0.00206 0.00508,0.00206 0.5436442,1.979e-4 0.5436441,1.969e-4 0.00651,-0.00247 z M 6.472483,5.4229053 l -0.00875,-0.00281 -0.00916,-0.00916 -0.00916,-0.00916 -0.00309,-0.011216 -0.00309,-0.011216 6.865e-4,-0.29881 6.865e-4,-0.2988108 0.00632,-0.011011 0.00632,-0.01101 0.011421,-0.00673 0.011421,-0.00673 h 0.3013427 0.3013428 l 0.00692,0.00191 0.00692,0.00191 0.00903,0.00794 0.00903,0.00793 0.00432,0.00784 0.00432,0.00784 7.552e-4,0.2899477 8.239e-4,0.2899472 -0.00157,0.015591 -0.00157,0.015592 -0.00658,0.010135 -0.00658,0.010135 -0.010345,0.0059 -0.010344,0.0059 -0.3013429,3.948e-4 -0.3013412,3.948e-4 z M 7.7992832,5.3109693 V 4.7450028 H 8.025924 8.2525627 V 4.6323164 4.5196299 H 8.3652492 8.4779357 V 4.406942 4.2942555 H 8.7045766 8.9312153 V 4.406942 4.5196299 H 8.8172638 8.7033112 v 0.1126607 0.1126609 l 0.1133189,6.864e-4 0.113319,6.865e-4 6.865e-4,0.2260064 6.864e-4,0.226007 H 9.0439945 9.1566683 V 5.0856501 4.9729636 H 9.3833099 9.60995 V 4.5196575 4.0663519 L 9.4966298,4.0670384 9.383311,4.0677248 9.3826245,4.2937311 9.3819381,4.5197383 H 9.2692639 9.1565906 V 4.2931153 4.0664752 H 8.9299518 8.7033117 V 3.841101 3.6157277 H 8.8172644 8.9312171 V 3.7284142 3.8411008 H 9.3832307 9.835244 V 3.614461 3.3878216 H 9.7225575 9.6098724 V 3.2751338 3.1624473 H 9.4971843 9.3844979 V 3.048495 2.9345412 H 9.4971843 9.6098722 V 2.8218546 2.7091693 H 9.1565903 8.7033115 V 2.9358081 3.1624488 H 8.8172642 8.9312157 V 3.2751352 3.3878231 H 9.0439021 9.1565888 V 3.2751352 3.1624488 H 9.2692764 9.3819629 V 3.387822 3.6131954 H 9.1565903 8.9312163 V 3.5005089 3.3878224 H 8.8172648 8.7033121 V 3.2751346 3.1624482 H 8.5906257 8.4779379 V 3.2751346 3.3878224 H 8.3652514 8.2525649 V 3.2751346 3.1624482 H 8.3652514 8.4779379 V 3.0484687 2.934489 l -0.113319,6.864e-4 -0.1133202,6.865e-4 -6.865e-4,0.1133202 -6.864e-4,0.1133203 H 7.7979363 7.3459482 V 3.0485497 2.9345961 H 7.2332611 7.1205746 V 2.8219173 2.7092316 H 7.0066134 6.8926603 V 2.5952786 2.4813254 H 6.7799732 6.6672863 V 2.3686378 2.2559508 H 6.3279598 5.9886328 V 2.143263 2.0305777 H 6.5545993 7.1205665 V 2.3699035 2.7092314 H 7.2332529 7.3459394 V 2.5965576 2.483884 L 7.5719467,2.4831975 7.7979538,2.4825111 7.7986402,2.3691909 7.7993267,2.2558707 H 7.57267 7.3460031 V 2.1431841 2.0304989 H 7.9119703 8.4779368 V 2.1431585 2.255818 L 8.3646177,2.2565045 8.2512975,2.257191 V 2.4825649 2.707939 l 0.1133202,6.864e-4 0.1133191,6.865e-4 V 2.5965986 2.4838865 H 8.8172646 9.1565903 V 2.3699336 2.2559799 H 8.9299502 8.7033115 V 1.9166542 1.5773262 H 8.8172642 8.9312157 V 1.4646534 1.3519809 L 9.1572241,1.3512944 9.3832312,1.3506079 9.3839176,1.1246015 9.3846041,0.89859433 H 9.6099643 9.8353235 V 1.1252352 1.3518741 H 9.7226357 9.6099504 V 1.4645605 1.5772481 H 9.7226357 9.8353235 V 1.803889 2.0305292 H 9.9492774 10.06323 v 0.2266392 0.2266401 h 0.112687 0.112686 V 2.5964964 2.7091827 H 10.175917 10.06323 v 0.1126865 0.1126866 h 0.452013 0.452015 v 0.1139527 0.1139528 h -0.11268 -0.112693 V 3.3878361 3.6132094 H 10.627937 10.51399 V 3.5005228 3.3878364 H 10.401297 10.28861 V 3.5005228 3.6132094 H 10.175924 10.063237 V 3.727162 3.8411148 h 0.452016 0.452014 v 0.1126877 0.1126867 h -0.11268 -0.112694 v 0.2266396 0.2266395 h 0.112694 0.11268 V 4.4070817 4.2943952 h 0.22664 0.22664 V 4.0677556 3.8411154 H 11.307892 11.195238 L 11.194551,3.7277952 11.193864,3.6144749 11.080543,3.6137885 10.967224,3.613102 V 3.5004425 3.3877827 h 0.339319 0.339326 V 3.9537486 4.519715 h -0.339332 -0.339325 v 0.2266401 0.2266401 h -0.112693 -0.112693 v 0.2266394 0.2266401 h 0.112693 0.112693 V 5.312322 5.1983693 h 0.113948 0.113947 V 5.0856827 4.9729964 h 0.225374 0.225373 v 0.2266394 0.22664 h -0.112693 -0.112692 v 0.1126864 0.1126866 h 0.112692 0.112693 V 5.7643352 5.8770217 H 11.306529 10.967203 V 5.7643359 5.651649 H 10.288549 9.6098955 V 5.7643353 5.8770219 H 9.156615 8.7033363 V 5.4249994 4.9729861 H 8.3640086 8.0246813 V 5.0856724 5.198359 h 0.22664 0.2266402 V 5.4249997 5.6516398 H 8.3652744 8.2525874 V 5.5389523 5.4262654 H 8.1386347 8.0246821 V 5.5389518 5.6516384 H 8.1373686 8.250055 V 5.7643248 5.8770114 H 8.0246821 7.7993085 Z m 1.3573071,0.227906 V 5.4261889 H 9.0439038 8.9312173 v 0.1126864 0.112688 h 0.1126865 0.1126865 z m 0.453281,0 V 5.4261889 h 0.4520137 0.452013 V 5.1995484 4.9729089 H 10.401205 10.288518 V 5.0855954 5.198282 h -0.11268 -0.112687 V 5.0855961 4.9729089 H 9.9491977 9.8352447 v 0.1126737 0.1126738 l -0.2260072,6.854e-4 -0.2260063,6.865e-4 -6.865e-4,0.2260069 -6.864e-4,0.2260065 h 0.1139681 0.1139654 z m 1.5852127,0 V 5.4261889 h 0.112693 0.112693 V 5.3122363 5.1982836 h -0.112654 -0.112668 l -6.86e-4,0.1133202 -6.87e-4,0.1133189 -0.113319,6.865e-4 -0.113321,6.864e-4 v 0.1126596 0.1126621 h 0.113948 0.113947 z M 10.513898,4.4056758 V 4.0663491 H 10.174572 9.8352447 v 0.3393267 0.339327 h 0.3393273 0.339326 z m -0.450747,0.00123 V 4.2942264 h 0.112688 0.112686 V 4.4069115 4.519598 h -0.112686 -0.112688 z m 0,-1.3585732 V 2.934388 H 9.8365107 9.6098713 V 3.0483421 3.1622948 H 9.8365107 10.063151 Z M 7.5713771,2.8216983 V 2.7090118 H 7.4586907 7.3460028 v 0.1126865 0.1126864 h 0.1126879 0.1126864 z m 0.4532794,0 V 2.7090118 H 7.91197 7.7992822 V 2.8216983 2.9343847 H 7.91197 8.0246565 Z M 9.8352447,2.5950588 V 2.4811062 H 9.7225568 9.6098716 V 2.5950588 2.7090115 H 9.7225568 9.8352447 Z M 9.3844971,2.1430446 V 2.0303583 H 9.4971837 9.6098714 V 2.1430446 2.2557312 H 9.7225566 9.8352443 V 2.1430446 2.0303584 H 9.7225568 9.6098713 V 1.8037183 1.5770783 H 9.4959186 9.3819659 V 1.6897646 1.8024512 H 9.2692793 9.1565916 V 1.6897646 1.5770783 H 9.0439051 8.9312187 v 0.22664 0.2266401 h 0.1126864 0.1126865 v 0.1126864 0.1126866 h 0.113954 0.1139528 z M 7.7992832,4.1802727 V 3.840945 H 7.6853304 7.5713778 V 3.9536328 4.0663192 H 7.23205 6.8927235 V 3.9536328 3.840945 H 6.780037 6.6673493 V 3.9536328 4.0663192 H 6.5533964 6.4394433 V 3.9536328 3.840945 H 6.5533961 6.6673488 V 3.6143049 3.3876662 h 0.1126621 0.1126596 l 6.867e-4,0.1133188 6.864e-4,0.1133189 0.1133203,6.864e-4 0.1133202,6.865e-4 v 0.112661 0.1126609 H 7.3460574 7.5714316 V 3.7283378 3.6156768 L 7.6847518,3.6149903 7.798072,3.6143039 7.7987585,3.500985 7.7994449,3.3876662 h 0.112634 0.1126352 l 6.865e-4,0.1133188 6.864e-4,0.1133189 0.2260063,6.864e-4 0.2260066,6.865e-4 V 3.7283505 3.8410242 H 8.2514863 8.0248474 V 4.1803521 4.5196778 H 7.9121598 7.7994726 Z M 5.9886958,3.5003533 V 2.934388 H 6.1013836 6.2140701 V 2.8217277 2.7090421 H 6.1013822 5.9886946 V 2.5963556 2.4836679 h 0.225374 0.2253735 V 2.9356814 3.3876955 H 6.3267556 6.2140691 V 3.727022 4.066349 H 6.1013826 5.9886948 Z m 1.3573073,0 V 3.3876654 H 7.4586908 7.5713772 V 3.5003533 3.6130385 H 7.4586901 7.3460031 Z M 11.195084,3.0483384 V 2.9343882 h 0.225375 0.225374 v 0.1139539 0.1139528 h -0.225374 -0.225375 z m -0.679498,-0.3410146 -0.0017,-0.00172 V 2.5933427 2.4810775 H 10.401242 10.288554 V 2.2557036 2.0303301 h 0.112687 0.112693 v 0.1126853 0.1126877 h 0.113947 0.113947 V 2.1430154 2.0303301 h 0.112681 0.112693 v 0.1126853 0.1126877 h -0.11268 -0.112694 v 0.2266402 0.2266401 h -0.11227 -0.11227 z M 10.967179,2.5963246 V 2.4836368 h 0.113947 0.113948 v 0.1126878 0.1126866 h -0.113948 -0.113947 z m 0.45328,-0.2279059 V 2.2557321 h -0.112693 -0.11268 V 2.1430456 2.0303592 h 0.11268 0.112693 v 0.1126864 0.1126865 h 0.112693 0.112692 v 0.1126866 0.1126878 h -0.112692 -0.112693 z m -5.4051738,-0.5699494 -0.00761,-0.00392 -0.00604,-0.00549 -0.00604,-0.00549 -0.00349,-0.00816 -0.00349,-0.00816 V 1.0112207 0.25516971 l 0.00349,-0.008159 0.00349,-0.008159 0.00726,-0.006801 0.00726,-0.006797 0.00713,-0.002672 0.00713,-0.002672 0.7563566,3.49e-6 0.7563573,4.07e-6 0.00868,0.004465 0.00868,0.004465 0.00779,0.00973 0.00779,0.009733 6.865e-4,0.75955373 6.864e-4,0.7595547 -0.00413,0.00813 -0.00413,0.00813 -0.00413,0.00467 -0.00413,0.00467 -0.00939,0.0048 -0.00939,0.0048 -0.7566222,-1.04e-5 -0.7566223,-1.05e-5 -0.00761,-0.00392 z m 1.3156072,-0.2252325 0.00743,-0.00384 0.00384,-0.00743 0.00384,-0.00743 -6.7e-6,-0.5439341 -8.4e-6,-0.54393582 -0.00508,-0.00828 -0.00508,-0.00828 -0.00651,-0.00247 -0.00651,-0.00247 -0.5467069,6.8646e-4 -0.5467076,6.8646e-4 -0.00704,0.00702 -0.00702,0.00702 -6.867e-4,0.5467077 -6.865e-4,0.5467069 0.00247,0.00651 0.00247,0.00651 0.00828,0.00508 0.00828,0.00508 0.5439354,7.6e-6 0.5439352,6.9e-6 0.00743,-0.00384 z m -0.8525577,-0.2239227 -0.00795,-0.00191 -0.0086,-0.00529 -0.0086,-0.00529 -0.00625,-0.010883 -0.00625,-0.010895 -6.867e-4,-0.2988108 -6.865e-4,-0.29880998 0.00309,-0.011215 0.00309,-0.011215 0.00921,-0.00921 0.00921,-0.00921 0.011216,-0.00309 0.011216,-0.00309 0.2988101,6.8646e-4 0.2988108,6.8667e-4 0.011421,0.00673 0.011421,0.00673 0.00632,0.01101 0.00632,0.011011 V 1.0085854 1.3099275 l -0.00191,0.00692 -0.00191,0.00691 -0.00794,0.00903 -0.00794,0.00903 -0.00784,0.00432 -0.00784,0.00432 -0.2988105,3.938e-4 -0.298811,3.948e-4 z M 7.7992832,1.5770783 V 1.351731 H 7.911971 8.0246574 V 1.5771048 1.802479 H 7.9119703 7.7992832 Z M 8.2525627,1.4631251 V 1.1237985 H 8.3652492 8.4779357 V 1.0111377 0.89845121 H 8.3639831 8.2500303 V 1.0111377 1.1238254 H 8.0246565 7.7992832 V 1.0111377 0.89845121 H 7.911971 8.0246574 V 0.78449851 0.67054571 H 7.911971 7.7992832 V 0.55785801 0.44517147 H 7.911971 8.0246574 V 0.33248361 0.21979718 h 0.1126878 0.1126865 v 0.2253742 0.22537333 H 8.3639844 8.4779371 V 0.55785701 0.44517038 H 8.8172649 9.1565907 V 0.33248268 0.21979624 H 9.2692786 9.381965 V 0.44517188 0.67054521 H 9.0426373 8.7033115 V 0.89718532 1.1238254 H 8.8172642 8.9312157 V 1.0111377 0.89845121 H 9.0439021 9.1565888 V 1.0111377 1.1238254 H 9.0439278 8.9312669 L 8.9305805,1.2371457 8.929894,1.3504646 H 8.8172075 8.7045222 L 8.7038358,1.2371457 8.7031493,1.1238254 H 8.5904895 8.4778286 V 1.4631517 1.802479 H 8.3651421 8.2524557 Z m 1.8371763,0.3351177 -0.0076,-0.00405 -0.0047,-0.00413 -0.0047,-0.00413 -0.0048,-0.00942 -0.0048,-0.00942 6.87e-4,-0.7595278 6.86e-4,-0.75952838 0.0078,-0.009733 0.0078,-0.00973 0.0087,-0.004465 0.0087,-0.004465 0.756604,-4.15e-6 0.756602,-4.07e-6 0.0082,0.003493 0.0082,0.003493 0.0068,0.007269 0.0068,0.007264 0.0026,0.00713 0.0026,0.00713 v 0.75637 0.7563567 l -0.0044,0.00868 -0.0044,0.00868 -0.0097,0.00779 -0.0097,0.00779 -0.760084,4.937e-4 -0.760085,4.927e-4 -0.0076,-0.00405 z m 1.322432,-0.2294514 0.0071,-0.00704 V 1.0111101 0.46045218 l -0.0071,-0.00702 -0.0071,-0.00702 h -0.550583 -0.550659 l -0.007,0.00702 -0.007,0.00702 -6.87e-4,0.54628392 -6.86e-4,0.5462839 0.003,0.00726 0.003,0.00726 0.0078,0.00474 0.0078,0.00474 0.547551,-5.927e-4 0.54755,-5.917e-4 z m -0.859381,-0.2194773 -0.0079,-0.00191 -0.0086,-0.00529 -0.0086,-0.00529 -0.0063,-0.010883 -0.0063,-0.010895 V 1.0111658 0.70729101 l 0.0063,-0.011011 0.0063,-0.01101 0.01139,-0.00673 0.01139,-0.00673 h 0.3039 0.303875 l 0.01139,0.00673 0.01139,0.00673 0.0062,0.01101 0.0062,0.011011 7.56e-4,0.29501129 7.55e-4,0.2950126 -0.0015,0.010409 -0.0015,0.010408 -0.0067,0.010248 -0.0067,0.010238 -0.01037,0.0059 -0.01037,0.0059 -0.29881,3.948e-4 -0.298809,3.948e-4 z M 9.6098713,0.33245798 V 0.2197715 H 9.7225565 9.8352442 V 0.33245798 0.44514447 H 9.7225565 9.6098713 Z"
       id="path2220-9" />
  </g>
</svg>
