<?xml version="1.0" encoding="UTF-8" standalone="no"?>
<!-- Created with Inkscape (http://www.inkscape.org/) -->

<svg
   xmlns:dc="http://purl.org/dc/elements/1.1/"
   xmlns:cc="http://creativecommons.org/ns#"
   xmlns:rdf="http://www.w3.org/1999/02/22-rdf-syntax-ns#"
   xmlns:svg="http://www.w3.org/2000/svg"
   xmlns="http://www.w3.org/2000/svg"
   xmlns:sodipodi="http://sodipodi.sourceforge.net/DTD/sodipodi-0.dtd"
   xmlns:inkscape="http://www.inkscape.org/namespaces/inkscape"
   width="210mm"
   height="297mm"
   viewBox="0 0 210 297"
   version="1.1"
   id="svg4596"
   inkscape:version="0.92.4 (5da689c313, 2019-01-14)"
   sodipodi:docname="QR Code for Facebook-SAFE fundraiser page.svg">
  <defs
     id="defs4590" />
  <sodipodi:namedview
     id="base"
     pagecolor="#ffffff"
     bordercolor="#666666"
     borderopacity="1.0"
     inkscape:pageopacity="0.0"
     inkscape:pageshadow="2"
     inkscape:zoom="0.65933671"
     inkscape:cx="-75.714286"
     inkscape:cy="560"
     inkscape:document-units="mm"
     inkscape:current-layer="layer1"
     showgrid="false"
     inkscape:window-width="1920"
     inkscape:window-height="1017"
     inkscape:window-x="-8"
     inkscape:window-y="-8"
     inkscape:window-maximized="1" />
  <metadata
     id="metadata4593">
    <rdf:RDF>
      <cc:Work
         rdf:about="">
        <dc:format>image/svg+xml</dc:format>
        <dc:type
           rdf:resource="http://purl.org/dc/dcmitype/StillImage" />
        <dc:title></dc:title>
      </cc:Work>
    </rdf:RDF>
  </metadata>
  <g
     inkscape:label="Layer 1"
     inkscape:groupmode="layer"
     id="layer1">
    <path
       style="fill:#000000;stroke-width:0.699256"
       d="m 49.697706,124.01895 v -13.28586 h 13.28586 13.28586 v 13.28586 13.28587 h -13.28586 -13.28586 z m 23.07544,-0.34962 v -9.43996 h -9.43995 -9.43996 v 9.43996 9.43995 h 9.43996 9.43995 z m -15.38363,0.34962 v -5.59404 h 5.59405 5.59405 v 5.59404 5.59405 h -5.59405 -5.59405 z m 22.37619,5.59405 v -7.69181 h 2.09777 2.09777 v -1.74814 -1.74814 h 1.74814 1.74814 v -2.09777 -2.09777 h 2.09777 2.09777 v -1.74814 -1.74814 h -5.94368 -5.94368 v -1.74814 -1.74814 h -3.49628 -3.49628 v -2.09777 -2.09777 h -2.09776 -2.09777 v 2.09777 2.09777 h -1.74814 -1.74814 v -2.09777 -2.09777 h 1.74814 1.74814 v -1.74814 -1.748145 h -5.59405 -5.59405 v 1.748145 1.74814 h -1.74814 -1.74814 v 2.09777 2.09777 h -2.09777 -2.09776 v -3.84591 -3.845915 h 2.09776 2.09777 v -2.09776 -2.09777 h -2.09777 -2.09776 v -1.74814 -1.74814 h 2.09776 2.09777 v -1.74814 -1.74814 h -2.09777 -2.09776 v -2.09777 -2.09777 h 5.59404 5.59405 v -1.74814 -1.74814 h -3.49628 -3.49628 v -2.09777 -2.09776 h 3.49628 3.49628 v -1.74814 -1.74814 h -3.49628 -3.49628 v -1.74814 -1.74814 h -2.09777 -2.09776 v -2.09777 -2.09777 h 2.09776 2.09777 v -1.74814 -1.74814 h -2.09777 -2.09776 v -2.09777 -2.09777 h 7.69181 7.69182 v 2.09777 2.09777 h 1.74814 1.74814 v 1.74814 1.74814 h -1.74814 -1.74814 v 2.09777 2.09777 h 3.84591 3.8459 v -2.09777 -2.09777 h 1.74814 1.74814 v -1.74814 -1.74814 h -1.74814 -1.74814 v -2.09777 -2.09777 h 1.74814 1.74814 v 2.09777 2.09777 h 1.74814 1.74814 v -2.09777 -2.09777 h 2.09777 2.09777 v 3.84591 3.84591 h 1.74814 1.74814 v -9.43996 -9.43995 h 2.09777 2.09777 v -1.74814 -1.74814 h -3.84591 -3.84591 v 1.74814 1.74814 h -2.09777 -2.09777 v -5.59405 -5.59405 h 2.09777 2.09777 v -1.74814 -1.74814 h -2.09777 -2.09777 v -2.09777 -2.097767 h 2.09777 2.09777 v 2.097767 2.09777 h 1.74814 1.74814 v -2.09777 -2.097767 h 2.09777 2.09777 v 2.097767 2.09777 h 1.74814 1.748136 v -2.09777 -2.097767 h 1.74814 1.74814 v 3.845907 3.84591 h 3.845908 3.84591 v 1.74814 1.74814 h -1.74814 -1.74814 v 2.09777 2.09777 h -2.09777 -2.097768 v 1.74814 1.74814 h 3.845908 3.84591 v -1.74814 -1.74814 h 2.09777 2.09776 v -5.59405 -5.59405 h 1.74814 1.74814 v -2.09777 -2.097767 h 7.69182 7.69182 v 2.097767 2.09777 h -3.84591 -3.84591 v 3.49628 3.49628 h -2.09777 -2.09777 v 2.09777 2.09777 h -3.49628 -3.49628 v 1.74814 1.74814 h 1.74814 1.74814 v 3.84591 3.8459 h 1.74814 1.74814 v -3.8459 -3.84591 h 2.09777 2.09777 v -1.74814 -1.74814 h 1.74814 1.74814 v 3.84591 3.8459 h 2.09777 2.09777 v 1.74814 1.74814 h -2.09777 -2.09777 v 1.74814 1.74814 h -3.84591 -3.84591 v 2.09777 2.09777 h 3.84591 3.84591 v 1.74814 1.74814 h -1.74814 -1.74814 v 3.84591 3.84591 h 1.74814 1.74814 v 3.8459 3.84591 h 2.09777 2.09777 v 3.84591 3.84591 h 1.74814 1.74814 v 1.74814 1.74814 h -1.74814 -1.74814 v 1.74814 1.74814 h 1.74814 1.74814 v 2.09777 2.09776 h 1.74814 1.74814 v -3.8459 -3.84591 h 2.09776 2.09777 v -1.74814 -1.74814 h -2.09777 -2.09776 v -2.09777 -2.09777 h -1.74814 -1.74814 v -3.84591 -3.8459 h 3.8459 3.84591 v 2.09776 2.09777 h 1.74814 1.74814 v 3.84591 3.84591 h 2.09777 2.09777 v 1.74814 1.74814 h 1.74814 1.74814 v -3.84591 -3.84591 h -1.74814 -1.74814 v -3.84591 -3.8459 h -2.09777 -2.09777 v -1.74814 -1.74814 h -3.84591 -3.8459 v -3.84591 -3.84591 h -1.74814 -1.74814 v 2.09777 2.09777 h -1.74814 -1.74814 v -5.94368 -5.94368 h 1.74814 1.74814 v 2.09777 2.09777 h 3.8459 3.84591 v -2.09777 -2.09777 h 5.59405 5.59405 v 2.09777 2.09777 h -3.84591 -3.84591 v 5.59405 5.59405 h 3.84591 3.84591 v 1.74814 1.74814 h 3.84591 3.8459 v 3.8459 3.84591 h -2.09776 -2.09777 v 5.59405 5.59405 h -1.74814 -1.74814 v 5.943675 5.94368 h 3.84591 3.8459 v 1.74814 1.74814 h -2.09776 -2.09777 v 1.74814 1.74814 h 2.09777 2.09776 v 2.09777 2.09777 h -2.09776 -2.09777 v 1.74814 1.74814 h 2.09777 2.09776 v 3.8459 3.84591 h -2.09776 -2.09777 v 3.84591 3.84591 h -1.74814 -1.74814 v -3.84591 -3.84591 h -1.74814 -1.74814 v 3.84591 3.84591 h -2.09777 -2.09777 v -3.84591 -3.84591 h 2.09777 2.09777 v -1.74814 -1.74814 h -3.84591 -3.84591 v 3.49628 3.49628 h -2.09777 -2.09776 v -3.49628 -3.49628 h 2.09776 2.09777 v -2.09777 -2.09776 h -3.84591 -3.8459 v 2.09776 2.09777 h -1.74814 -1.74814 v -2.09777 -2.09776 h -2.09777 -2.09777 v -3.84591 -3.84591 h -3.84591 -3.84591 v -1.74814 -1.74814 h -1.74814 -1.74814 v 1.74814 1.74814 h -1.74814 -1.74814 v -1.74814 -1.74814 h 1.74814 1.74814 v -1.74814 -1.74814 h -3.8459 -3.84591 v 3.49628 3.49628 h -1.74814 -1.74814 v 3.84591 3.84591 h -2.09777 -2.097768 v -1.74814 -1.74814 h -5.594046 -5.59405 v 1.74814 1.74814 h -1.74814 -1.74814 v 2.09776 2.09777 h 3.84591 3.84591 v 1.74814 1.74814 h -3.84591 -3.84591 v 3.84591 3.84591 h -2.09777 -2.09777 z m 75.519654,-1.74814 v -1.74814 h -1.74814 -1.74814 v -2.09777 -2.09776 h -1.74814 -1.74814 v -1.74814 -1.74814 h 3.49628 3.49628 v -2.09777 -2.09777 h -1.74814 -1.74814 v -1.74814 -1.74814 h -1.74814 -1.74814 v 3.84591 3.84591 h -2.09777 -2.09777 v 1.74814 1.74814 h 2.09777 2.09777 v 2.09776 2.09777 h 1.74814 1.74814 v 1.74814 1.74814 h 1.74814 1.74814 z m -14.68438,-15.034 v -5.59405 h -5.59405 -5.59404 v 5.59405 5.59405 h 5.59404 5.59405 z m -7.69181,-0.34963 v -1.74814 h 1.74814 1.74814 v 1.74814 1.74814 h -1.74814 -1.74814 z m -30.06801,-1.74814 v -3.49628 h 1.74814 1.74814 v -2.09777 -2.09777 h -1.74814 -1.74814 v -3.845905 -3.84591 h -2.09777 -2.097768 v -1.74814 -1.74814 h -1.74814 -1.74814 v 1.74814 1.74814 h -1.748136 -1.74814 v -1.74814 -1.74814 h -9.43996 -9.43996 v -1.74814 -1.74814 h 1.74814 1.74814 v -2.09777 -2.09777 h 3.84591 3.84591 v 2.09777 2.09777 h 1.74814 1.74814 v -2.09777 -2.09777 h 2.09777 2.09777 v 2.09777 2.09777 h 1.74814 1.748136 v -2.09777 -2.09777 h 1.74814 1.74814 v 2.09777 2.09777 h 2.097768 2.09777 v -2.09777 -2.09777 h 3.84591 3.8459 v 2.09777 2.09777 h 1.74814 1.74814 v 1.74814 1.74814 h 1.74814 1.74814 v 3.84591 3.8459 h 3.84591 3.84591 v 1.748145 1.74814 h -1.74814 -1.74814 v 3.84591 3.84591 h 1.74814 1.74814 v -3.84591 -3.84591 h 2.09777 2.09777 v -1.74814 -1.748145 h -2.09777 -2.09777 v -3.8459 -3.84591 h -3.84591 -3.84591 v -5.59405 -5.59405 h 2.09777 2.09777 v -3.84591 -3.8459 h -2.09777 -2.09777 v -3.84591 -3.84591 h -1.74814 -1.74814 v -5.59405 -5.59405 h -1.74814 -1.74814 v -3.8459 -3.84591 h -2.09776 -2.09777 v 3.84591 3.8459 h 2.09777 2.09776 v 1.74814 1.74814 h -3.8459 -3.84591 v -3.49628 -3.49628 h -2.09777 -2.097768 v -2.09776 -2.09777 h -1.74814 -1.74814 v 2.09777 2.09776 h -1.748136 -1.74814 v 3.49628 3.49628 h 1.74814 1.748136 v 2.09777 2.09777 h -1.748136 -1.74814 v 1.74814 1.74814 h 1.74814 1.748136 v -1.74814 -1.74814 h 1.74814 1.74814 v 3.84591 3.84591 h 2.097768 2.09777 v 3.49628 3.49628 h -7.691818 -7.691816 v 3.8459 3.84591 h -1.74814 -1.74814 v -1.74814 -1.74814 h -2.09777 -2.09777 v -3.84591 -3.8459 h 2.09777 2.09777 v -3.84591 -3.84591 h -2.09777 -2.09777 v 3.84591 3.84591 h -1.74814 -1.74814 v -1.74814 -1.74814 h -1.74814 -1.74814 v 1.74814 1.74814 h 1.74814 1.74814 v 1.74814 1.74814 h -1.74814 -1.74814 v 2.09776 2.09777 h -3.8459 -3.84591 v -2.09777 -2.09776 h 1.74814 1.74814 v -1.74814 -1.74814 h -1.74814 -1.74814 v 1.74814 1.74814 h -2.09777 -2.09777 v 2.09776 2.09777 h 2.09777 2.09777 v 1.74814 1.74814 h -2.09777 -2.09777 v 2.09777 2.09777 h -1.74814 -1.74814 v 1.74814 1.74814 h 1.74814 1.74814 v -1.74814 -1.74814 h 2.09777 2.09777 v -2.09777 -2.09777 h 1.74814 1.74814 v 7.69182 7.69181 h 2.09777 2.09776 v 1.748145 1.74814 h 1.74814 1.74814 v -1.74814 -1.748145 h 1.74814 1.74814 v 1.748145 1.74814 h 2.09777 2.09777 v 2.09777 2.09777 h 3.84591 3.84591 v -2.09777 -2.09777 h -3.84591 -3.84591 v -3.845905 -3.84591 h 1.74814 1.74814 v 2.09777 2.09776 h 3.84591 3.845906 v 1.748145 1.74814 h 1.74814 1.74814 v 3.84591 3.84591 h -1.74814 -1.74814 v 1.74814 1.74814 h 3.845908 3.84591 z M 72.773146,97.447225 v -2.09777 h 1.74814 1.74814 v 2.09777 2.09776 h -1.74814 -1.74814 z m 0,-15.03401 v -1.74814 h 1.74814 1.74814 v 1.74814 1.74814 h -1.74814 -1.74814 z m 33.564294,-7.34219 v -5.59404 h -1.74814 -1.74814 v -3.84591 -3.84591 h 1.74814 1.74814 v 3.84591 3.84591 h 2.09777 2.09776 v 1.74814 1.74814 h 3.49628 3.49628 v 3.8459 3.84591 h -1.74814 -1.74814 v -2.09777 -2.09776 h -1.74814 -1.74814 v 2.09776 2.09777 h -2.09776 -2.09777 z M 95.149342,54.093345 v -3.49628 h 1.74814 1.74814 v 3.49628 3.49628 h -1.74814 -1.74814 z m 53.143458,45.10202 v -3.84591 h -2.09777 -2.09777 v -1.74814 -1.74814 h -1.74814 -1.74814 v 3.84591 3.8459 h -2.09777 -2.09776 v 1.748145 1.74814 h 5.94367 5.94368 z m -23.07545,-46.85016 v -1.74814 h -1.74814 -1.74814 v 1.74814 1.74814 h 1.74814 1.74814 z M 95.149342,40.807485 v -2.09777 h 1.74814 1.74814 v -1.74814 -1.74814 h -3.49628 -3.496276 v 3.84591 3.84591 h 1.74814 1.748136 z m 22.376188,-5.59405 v -3.49628 h -1.74814 -1.74814 v 3.49628 3.49628 h 1.74814 1.74814 z M 87.457526,135.20705 v -2.09777 h 9.439956 9.439958 v -1.74814 -1.74814 h -1.74814 -1.74814 v -1.74814 -1.74814 h 1.74814 1.74814 v -3.84591 -3.8459 h 2.09777 2.09776 v 1.74814 1.74814 h 1.74814 1.74814 v -1.74814 -1.74814 h 1.74814 1.74814 v 3.8459 3.84591 h -1.74814 -1.74814 v 5.59405 5.59405 h -1.74814 -1.74814 v -2.09777 -2.09777 h -2.09776 -2.09777 v 2.09777 2.09777 h -9.439958 -9.439956 z m 23.075444,-7.34219 v -1.74814 h -2.09776 -2.09777 v 1.74814 1.74814 h 2.09777 2.09776 z m 6.99256,7.34219 v -2.09777 h 3.84591 3.84591 v -1.74814 -1.74814 h -1.74814 -1.74814 v -1.74814 -1.74814 h 1.74814 1.74814 v 1.74814 1.74814 h 2.09777 2.09777 v 1.74814 1.74814 h 1.74814 1.74814 v 2.09777 2.09777 h -7.69182 -7.69182 z m -22.376188,-7.34219 v -1.74814 h 1.74814 1.74814 v 1.74814 1.74814 h -1.74814 -1.74814 z M 155.28536,71.225125 v -1.74814 h -3.49628 -3.49628 v -2.09777 -2.09777 h 3.49628 3.49628 v -3.84591 -3.84591 h 2.09777 2.09776 v 3.84591 3.84591 h -2.09776 -2.09777 v 2.09777 2.09777 h 2.09777 2.09776 v 1.74814 1.74814 h -2.09776 -2.09777 z M 49.697706,40.807485 V 27.521618 h 13.28586 13.28586 v 13.285867 13.28586 h -13.28586 -13.28586 z m 23.07544,0.34963 v -9.43996 h -9.43995 -9.43996 v 9.43996 9.43995 h 9.43996 9.43995 z m -15.38363,-0.34963 v -5.59405 h 5.59405 5.59405 v 5.59405 5.59405 h -5.59405 -5.59405 z m 22.37619,11.53772 v -1.74814 h 2.09777 2.09777 v 1.74814 1.74814 h -2.09777 -2.09777 z M 132.90917,40.807485 V 27.521618 h 13.28586 13.28586 v 13.285867 13.28586 h -13.28586 -13.28586 z m 22.37619,0.34963 v -9.43996 h -9.43996 -9.43995 v 9.43996 9.43995 h 9.43995 9.43996 z m -14.68438,-0.34963 v -5.59405 h 5.59405 5.59405 v 5.59405 5.59405 h -5.59405 -5.59405 z m -37.75982,-11.1881 v -2.097767 h 1.74814 1.74814 v 2.097767 2.09777 h -1.74814 -1.74814 z"
       id="path5156"
       inkscape:connector-curvature="0" />
  </g>
</svg>
