<?xml version="1.0" encoding="UTF-8" standalone="no"?>
<svg
   xmlns:dc="http://purl.org/dc/elements/1.1/"
   xmlns:cc="http://creativecommons.org/ns#"
   xmlns:rdf="http://www.w3.org/1999/02/22-rdf-syntax-ns#"
   xmlns:svg="http://www.w3.org/2000/svg"
   xmlns="http://www.w3.org/2000/svg"
   xmlns:sodipodi="http://sodipodi.sourceforge.net/DTD/sodipodi-0.dtd"
   xmlns:inkscape="http://www.inkscape.org/namespaces/inkscape"
   width="12in"
   height="12in"
   viewBox="0 0 12 12"
   version="1.1"
   id="svg8"
   inkscape:version="1.0.1 (3bc2e813f5, 2020-09-07)"
   sodipodi:docname="Safe Com Double.svg">
  <defs
     id="defs2" />
  <sodipodi:namedview
     id="base"
     pagecolor="#ffffff"
     bordercolor="#666666"
     borderopacity="1.0"
     inkscape:pageopacity="0.0"
     inkscape:pageshadow="2"
     inkscape:zoom="1.5208438"
     inkscape:cx="357.93051"
     inkscape:cy="49.160808"
     inkscape:document-units="in"
     inkscape:current-layer="layer1"
     inkscape:document-rotation="0"
     showgrid="true"
     units="in"
     inkscape:snap-global="false"
     inkscape:window-width="1807"
     inkscape:window-height="1001"
     inkscape:window-x="25"
     inkscape:window-y="12"
     inkscape:window-maximized="0"
     inkscape:snap-nodes="false"
     inkscape:snap-others="false"
     inkscape:snap-smooth-nodes="false"
     inkscape:object-paths="false"
     inkscape:snap-intersection-paths="false"
     inkscape:snap-grids="false"
     inkscape:snap-to-guides="false"
     inkscape:snap-bbox="true"
     inkscape:bbox-nodes="true">
    <inkscape:grid
       type="xygrid"
       id="grid849"
       units="in"
       spacingx="0.25"
       spacingy="0.25"
       empspacing="4" />
  </sodipodi:namedview>
  <metadata
     id="metadata5">
    <rdf:RDF>
      <cc:Work
         rdf:about="">
        <dc:format>image/svg+xml</dc:format>
        <dc:type
           rdf:resource="http://purl.org/dc/dcmitype/StillImage" />
        <dc:title></dc:title>
        <dc:creator>
          <cc:Agent>
            <dc:title>Doctor Wizard</dc:title>
          </cc:Agent>
        </dc:creator>
        <dc:rights>
          <cc:Agent>
            <dc:title>Copyright 2021+ by Doctor Wizard</dc:title>
          </cc:Agent>
        </dc:rights>
        <dc:publisher>
          <cc:Agent>
            <dc:title>Doctor Wizard</dc:title>
          </cc:Agent>
        </dc:publisher>
        <dc:source>Doctor Wizard</dc:source>
        <dc:contributor>
          <cc:Agent>
            <dc:title>Doctor Wizard</dc:title>
          </cc:Agent>
        </dc:contributor>
      </cc:Work>
    </rdf:RDF>
  </metadata>
  <g
     inkscape:label="Layer 1"
     inkscape:groupmode="layer"
     id="layer1">
    <path
       id="rect5625-15"
       style="opacity:0.928105;fill:none;fill-opacity:1;stroke:#000060;stroke-width:0.00196849;stroke-miterlimit:4;stroke-dasharray:none;stroke-opacity:1"
       d="M 6.6301932,0.28506356 H 7.1882209 V 0.72500435 H 6.6301932 Z m -0.3424282,0 H 6.6282247 V 0.72500435 H 6.287765 Z m -0.4631228,0 H 6.2857964 V 0.72500435 H 5.8246422 Z m -0.3154302,0 H 5.8226742 V 0.72500435 H 5.509212 Z m -0.2995496,0 H 5.5072437 V 0.72500435 H 5.2096624 Z m -0.4774155,0 h 0.475447 v 0.43994079 h -0.475447 z m -0.2979617,0 H 4.7302784 V 0.72500435 H 4.4342852 Z m -0.3932472,0 H 4.4323165 V 0.72500435 H 4.041038 Z m -0.3630731,0 H 4.0390697 V 0.72500435 H 3.6779649 Z m -0.213793,0 H 3.6759965 V 0.72500435 H 3.4641719 Z m -0.320195,0 H 3.4622034 V 0.72500435 H 3.1439769 Z m -0.5552318,0 H 3.1420084 V 0.72500435 H 2.5887451 Z m -0.1995003,0 H 2.5867766 V 0.72500435 H 2.3892448 Z m -0.3821304,0 H 2.3872762 V 0.72500435 H 2.0071144 Z m -0.4805918,0 H 2.0051458 V 0.72500435 H 1.5265226 Z m -0.2916094,0 H 1.5245541 V 0.72500435 H 1.2349132 Z m -0.2519072,0 H 1.2329447 V 0.72500435 H 0.983006 Z m -0.32337111,0 H 0.9810375 V 0.72500435 H 0.65963489 Z m -0.36783755,0 H 0.65766639 V 0.72500432 H 0.29179734 Z M 6.9702021,0.575167 l 5.708e-4,0.028 q 5.719e-4,0.02 0.0023,0.030286 0.0023,0.010286 0.008,0.018286 5.719e-4,5.714e-4 0.0011,0.00171 5.719e-4,5.713e-4 0.0011,0.00171 5.719e-4,5.713e-4 5.719e-4,0.00114 5.708e-4,0 5.708e-4,5.713e-4 0.0023,0.00343 0.004,0.00686 0.0017,0.00286 0.0017,0.00743 0,0.017143 -0.02171,0.025143 -0.02171,0.008 -0.06629,0.008 -0.04686,0 -0.06514,-0.00629 -0.01829,-0.00629 -0.01829,-0.022857 0,-0.00686 0.0017,-0.010286 0.0023,-0.00343 0.0057,-0.00571 0.0011,-0.00114 0.0023,-0.00229 0.0017,-0.00114 0.0029,-0.00286 0.0046,-0.004 0.008,-0.013143 0.004,-0.00971 0.0046,-0.030286 0,-0.004 0,-0.008 5.709e-4,-0.00457 5.709e-4,-0.00857 5.718e-4,-0.008 5.718e-4,-0.016571 5.709e-4,-0.00857 5.709e-4,-0.016571 0,-0.028571 -0.0069,-0.041714 -0.0069,-0.013143 -0.02171,-0.013143 -0.01657,0 -0.02229,0.017714 -0.0057,0.017143 -0.0057,0.071429 l 5.718e-4,0.023428 q 5.709e-4,0.011429 0.0023,0.018857 0.0023,0.00743 0.0051,0.012571 0.0017,0.004 0.0029,0.00686 0.0017,0.00286 0.0029,0.00571 5.709e-4,0.00229 0.0011,0.00514 5.709e-4,0.00229 5.709e-4,0.00457 0,0.016 -0.02286,0.024 -0.02229,0.008 -0.06457,0.008 -0.04171,0 -0.06229,-0.00629 -0.02,-0.00686 -0.02,-0.021143 0,-0.00286 0,-0.00457 5.708e-4,-0.00171 0.0011,-0.00343 0.0011,-0.00286 0.004,-0.00571 0.0034,-0.00343 0.0097,-0.00857 0.01029,-0.00971 0.01371,-0.030857 0.004,-0.021143 0.004,-0.072572 0,-0.026857 -0.0046,-0.037714 -0.004,-0.011429 -0.0086,-0.016 -0.0017,-0.00171 -0.0034,-0.00286 -0.0017,-0.00114 -0.0029,-0.00229 -0.0034,-0.00229 -0.0057,-0.00514 -0.0017,-0.00286 -0.0017,-0.00914 0,-0.00743 0.004,-0.013143 0.004,-0.00571 0.01486,-0.011428 0.0091,-0.00457 0.02457,-0.00971 0.01543,-0.00514 0.03829,-0.011429 0.01314,-0.00343 0.02686,-0.00629 0.01371,-0.00286 0.02743,-0.00286 0.008,0 0.01143,0.00571 0.0034,0.00514 0.0034,0.016571 0,0.00114 0,0.00286 0,0.00114 0,0.00229 -5.709e-4,0.00171 -5.709e-4,0.00343 0,0.00114 0,0.00229 0,0.00743 0.0023,0.012 0.0023,0.00457 0.0063,0.00457 0.0029,0 0.01029,-0.00743 0.0074,-0.008 0.01943,-0.017714 0.01257,-0.00914 0.02971,-0.016571 0.01714,-0.008 0.03943,-0.008 0.02343,0 0.04,0.00857 0.01714,0.00857 0.02571,0.025143 0.0029,0.00514 0.0046,0.008 0.0023,0.00286 0.004,0.004 5.709e-4,0 0.0011,5.715e-4 0.0011,0 0.0023,0 0.0017,0 0.0097,-0.00686 0.008,-0.00743 0.02057,-0.016571 0.01257,-0.00857 0.02914,-0.015429 0.01657,-0.00743 0.03543,-0.00743 0.04,0 0.06229,0.021143 0.02229,0.021143 0.02229,0.06 0,0.00914 -5.718e-4,0.018286 0,0.00914 0,0.018286 0,0.00914 -5.709e-4,0.018286 0,0.00914 0,0.018286 0,0.012 0,0.020571 0,0.00857 -5.718e-4,0.013714 0,0.010857 0.0017,0.020571 0.0017,0.00971 0.0091,0.018857 5.718e-4,5.713e-4 0.0011,0.00114 5.718e-4,5.713e-4 0.0011,0.00171 0.0029,0.00286 0.0051,0.00686 0.0029,0.00343 0.0029,0.008 0,0.017714 -0.02171,0.026857 -0.02171,0.00857 -0.06286,0.00857 -0.03657,0 -0.05943,-0.00857 -0.02286,-0.00857 -0.02286,-0.022857 0,-0.00571 0.0029,-0.010286 0.0029,-0.00514 0.0057,-0.00971 0.0011,-0.00114 0.0017,-0.00229 0.0011,-0.00114 0.0017,-0.00229 0.0046,-0.00629 0.0063,-0.023429 0.0023,-0.017143 0.0023,-0.050857 0,-0.040572 -0.0063,-0.056 -0.0057,-0.016 -0.02229,-0.016 -0.01543,0 -0.02229,0.010857 -0.0069,0.010286 -0.0069,0.034857 l -5.709e-4,0.027429 z m -0.508,-0.1548572 q 0.06,5.713e-4 0.108571,0.037714 0.04857,0.037143 0.04857,0.1017144 0,0.062286 -0.052,0.1045715 -0.052,0.041714 -0.128,0.041714 -0.06229,0 -0.104,-0.036571 -0.04114,-0.037143 -0.04114,-0.092572 0,-0.067429 0.04629,-0.1102858 0.04686,-0.043429 0.121714,-0.045714 z m -0.01829,0.064571 q -0.01143,0.00114 -0.01829,0.010286 -0.0069,0.00857 -0.0069,0.023429 0,0.00971 0.0023,0.024571 0.0023,0.014857 0.0063,0.030857 0.0023,0.010857 0.0057,0.021714 0.0034,0.010286 0.0069,0.019429 0.0046,0.011429 0.01143,0.017143 0.0069,0.00571 0.01657,0.00571 0.01314,0 0.01886,-0.008 0.0063,-0.00857 0.0063,-0.026857 0,-0.011429 -0.0023,-0.025714 -0.0017,-0.014286 -0.0057,-0.029143 -0.0029,-0.011429 -0.0063,-0.022286 -0.0034,-0.011428 -0.0074,-0.021143 -0.004,-0.00857 -0.01086,-0.013714 -0.0069,-0.00571 -0.01657,-0.00571 z M 6.2227692,0.6105956 q 5.718e-4,0 0.0011,0 5.718e-4,-5.714e-4 0.0011,-5.714e-4 0.004,-0.00229 0.008,-0.004 0.0046,-0.00229 0.0097,-0.00229 0.0097,0 0.01714,0.00914 0.0074,0.00857 0.0074,0.021143 0,0.028571 -0.03829,0.050286 -0.03771,0.021714 -0.08686,0.021714 -0.06229,0 -0.1051431,-0.04 -0.04286,-0.040572 -0.04286,-0.099429 0,-0.062857 0.04514,-0.1040001 0.04514,-0.041714 0.113715,-0.041714 0.05257,0 0.08857,0.024571 0.036,0.024 0.036,0.058857 0,0.022857 -0.01543,0.038286 -0.01486,0.015429 -0.03771,0.015429 -0.02171,0 -0.03029,-0.010286 -0.008,-0.010857 -0.01257,-0.023429 -5.718e-4,-0.00114 -0.0011,-0.00229 -5.718e-4,-0.00171 -0.0011,-0.00286 -0.004,-0.010857 -0.0097,-0.019429 -0.0057,-0.00857 -0.01943,-0.00857 -0.016,0 -0.02686,0.013143 -0.01029,0.013143 -0.01029,0.033143 0,0.032571 0.02114,0.056572 0.02171,0.024 0.05143,0.024 0.0029,0 0.0063,0 0.0034,-5.714e-4 0.0069,-0.00114 0.0069,-5.715e-4 0.01314,-0.00229 0.0069,-0.00171 0.01086,-0.00343 z m -0.258285,0.029714 q 0,0.027429 -0.01943,0.046857 -0.01943,0.018857 -0.04629,0.018857 -0.02686,0 -0.04629,-0.018857 -0.01943,-0.019429 -0.01943,-0.046286 0,-0.027429 0.01943,-0.046857 0.01943,-0.019429 0.04629,-0.019429 0.02686,0 0.04629,0.019429 0.01943,0.019429 0.01943,0.046857 z m -0.29371,-0.1982855 q 0,0.00114 0,0.00171 0,5.713e-4 5.708e-4,0.00171 0,5.713e-4 0,0.00114 0,5.713e-4 0,0.00171 0,0.00114 0,0.00229 0,5.713e-4 5.719e-4,0.00114 5.708e-4,0.00571 0.0023,0.010286 0.0017,0.004 0.0069,0.004 0.0034,0 0.0086,-0.00629 0.0051,-0.00686 0.01314,-0.015429 0.008,-0.008 0.01886,-0.014286 0.01143,-0.00686 0.02743,-0.00686 0.02629,0 0.04286,0.017714 0.01714,0.017714 0.01714,0.045143 0,0.026857 -0.01943,0.046286 -0.01943,0.019429 -0.04743,0.019429 -0.0057,0 -0.01029,-5.714e-4 -0.0046,-0.00114 -0.0091,-0.00343 -0.0063,-0.00229 -0.01314,-0.00743 -0.0063,-0.00571 -0.01543,-0.014286 -0.0017,-0.00171 -0.0034,-0.00286 -0.0017,-0.00171 -0.0029,-0.00229 -0.0011,0 -0.0023,0 -0.0011,-5.714e-4 -0.0023,-5.714e-4 -0.0074,0 -0.01029,0.00914 -0.0023,0.00857 -0.0023,0.037143 0,0.046286 0.0029,0.058286 0.0034,0.011428 0.01829,0.016571 5.708e-4,0 0.0011,5.715e-4 5.708e-4,0 0.0011,0 0.012,0.00343 0.01829,0.010286 0.0069,0.00686 0.0069,0.016 0,0.021143 -0.02343,0.028571 -0.02343,0.00743 -0.08743,0.00743 -0.04857,0 -0.072,-0.00857 -0.02343,-0.00857 -0.02343,-0.026857 0,-0.00514 0.0017,-0.00914 0.0017,-0.00457 0.0051,-0.00857 0.0023,-0.00171 0.0046,-0.00343 0.0029,-0.00229 0.0057,-0.00457 5.708e-4,-5.715e-4 0.0011,-5.715e-4 5.708e-4,-5.714e-4 0.0011,-0.00114 0.01029,-0.00743 0.01314,-0.019429 0.0029,-0.012571 0.0034,-0.048 5.708e-4,-0.020572 5.708e-4,-0.032 0,-0.012 0,-0.014286 0,-0.014857 -0.0051,-0.02 -0.0051,-0.00571 -0.01143,-0.00857 -0.0011,-5.714e-4 -0.0017,-5.714e-4 -5.719e-4,-5.714e-4 -0.0011,-5.714e-4 -0.0057,-0.00286 -0.01029,-0.00629 -0.004,-0.004 -0.004,-0.013714 0,-0.016571 0.02171,-0.028 0.02229,-0.011429 0.04857,-0.017714 0.01886,-0.00514 0.036,-0.00743 0.01771,-0.00229 0.02686,-0.00229 0.01257,0 0.01657,0.004 0.004,0.00343 0.0051,0.016 z M 5.4730601,0.5734527 H 5.3422025 q -0.0046,5.714e-4 -0.0069,0.00229 -0.0017,0.00171 -0.0017,0.00571 0,0.017143 0.01371,0.029714 0.01371,0.012571 0.02971,0.017714 0.0046,0.00114 0.0091,0.00229 0.0051,5.713e-4 0.0091,5.713e-4 0.0051,0 0.01086,-5.713e-4 0.0063,-0.00114 0.01257,-0.00286 0.0091,-0.00229 0.01771,-0.00571 0.0091,-0.004 0.01543,-0.00857 0.0046,-0.00286 0.0069,-0.004 0.0023,-0.00171 0.0046,-0.00229 5.719e-4,-5.714e-4 0.0011,-5.714e-4 0.0011,0 0.0023,0 0.0069,0 0.012,0.00571 0.0051,0.00571 0.008,0.012571 5.719e-4,0.00286 0.0011,0.00514 5.719e-4,0.00229 5.719e-4,0.00457 0,0.00971 -0.0063,0.019429 -0.0063,0.00914 -0.01886,0.018857 -0.02229,0.016571 -0.04857,0.024572 -0.02571,0.008 -0.056,0.008 -0.06057,0 -0.102857,-0.039429 -0.04171,-0.04 -0.04171,-0.097143 0,-0.062286 0.04343,-0.1051429 0.04343,-0.043429 0.1057141,-0.043429 0.02857,0 0.05143,0.00743 0.02343,0.00743 0.04229,0.022857 0.01314,0.010286 0.02286,0.024572 0.0097,0.013714 0.01486,0.028 0.0023,0.00743 0.0034,0.014286 0.0017,0.00686 0.0017,0.013143 0,0.019429 -0.0074,0.031429 -0.0069,0.011429 -0.01943,0.011429 z m -0.1239996,-0.052 h 0.02857 q 0.0091,5.713e-4 0.01314,-0.00343 0.0046,-0.004 0.0046,-0.012571 0,-0.014857 -0.0086,-0.024572 -0.0086,-0.00971 -0.02229,-0.00971 -0.01314,0 -0.02343,0.010857 -0.0097,0.010286 -0.0097,0.024571 0,0.00857 0.004,0.012 0.004,0.00343 0.01371,0.00343 z m -0.233143,-0.028 v 0.094286 q 0,0.017143 0.008,0.028 0.0086,0.010857 0.02114,0.010857 0.01086,0 0.01543,-0.00171 0.0051,-0.00229 0.008,-0.00457 5.719e-4,-5.714e-4 0.0011,-0.00114 5.708e-4,-5.715e-4 0.0011,-5.715e-4 0.0017,-0.00229 0.004,-0.00343 0.0029,-0.00114 0.0074,-0.00114 0.0063,0 0.01029,0.00514 0.0046,0.00514 0.0063,0.011429 0.0011,0.00229 0.0011,0.00457 5.719e-4,0.00229 5.719e-4,0.00457 0,0.021714 -0.02114,0.036571 -0.02057,0.014286 -0.04571,0.021714 -0.01371,0.004 -0.02686,0.00571 -0.01314,0.00229 -0.02286,0.00229 -0.04343,0 -0.07029,-0.025143 -0.02686,-0.025143 -0.02686,-0.066286 V 0.4854527 q 0,-0.00571 -0.0017,-0.00743 -0.0017,-0.00171 -0.008,-0.00171 l -0.02857,-5.714e-4 q -0.008,5.714e-4 -0.0097,-0.00229 -0.0023,-0.00286 -0.0023,-0.012 l -5.719e-4,-0.013143 q 5.719e-4,0 5.719e-4,-5.713e-4 0,-5.715e-4 0,-0.00114 5.708e-4,-0.00286 0.0023,-0.00571 0.0011,-0.00286 0.0034,-0.004 l 0.127991,-0.081149 q 0.0023,-5.714e-4 0.0046,-0.00114 0.0029,-5.714e-4 0.0069,-5.714e-4 l 0.02286,-5.714e-4 q 0.0069,5.714e-4 0.0091,0.004 0.0023,0.00286 0.0023,0.012 v 0.037714 q 0,0.00857 0.0023,0.011429 0.0029,0.00229 0.012,0.00229 l 0.05143,-5.714e-4 q 0.01029,5.714e-4 0.01314,0.00457 0.0034,0.00343 0.0034,0.016 v 0.016 q 0,0.013714 -0.004,0.018857 -0.004,0.00514 -0.01429,0.00514 l -0.05029,-5.713e-4 q -0.0074,5.713e-4 -0.01086,0.00343 -0.0029,0.00229 -0.0029,0.010286 z m -0.2142859,-0.016 v 0.089143 0.044571 q 0,0.021143 0.0029,0.028571 0.0034,0.00743 0.01257,0.012 0.0023,0.00114 0.004,0.00229 0.0023,5.714e-4 0.004,0.00171 0.0057,0.00286 0.0074,0.00629 0.0017,0.00343 0.0017,0.00914 0,0.019429 -0.02057,0.026286 -0.02,0.00686 -0.07314,0.00686 -0.05086,0 -0.07371,-0.008 -0.02229,-0.008 -0.02229,-0.026286 0,-0.00857 0.0057,-0.012571 0.0057,-0.004 0.01257,-0.00686 0.01143,-0.00457 0.01486,-0.030286 0.0034,-0.026286 0.0034,-0.099429 0,-0.068 -0.004,-0.087429 -0.004,-0.019429 -0.01943,-0.028571 -0.004,-0.00229 -0.0069,-0.004 -0.0029,-0.00229 -0.0051,-0.00457 -0.0046,-0.004 -0.0069,-0.00857 -0.0017,-0.00457 -0.0017,-0.010286 0,-0.018857 0.02457,-0.030857 0.02457,-0.012571 0.05371,-0.019429 0.02171,-0.00457 0.04114,-0.00686 0.01943,-0.00229 0.02971,-0.00229 0.01143,0 0.01657,0.00686 0.0057,0.00629 0.0057,0.020572 0,0.00343 -5.709e-4,0.013714 -5.719e-4,0.010286 -0.0023,0.027429 -0.0011,0.011428 -0.0023,0.022857 -5.719e-4,0.011429 -5.719e-4,0.022857 -5.708e-4,0.011429 -0.0011,0.022857 0,0.011429 0,0.022857 z m -0.2045711,0.096 h -0.130857 q -0.0046,5.714e-4 -0.0069,0.00229 -0.0017,0.00171 -0.0017,0.00571 0,0.017143 0.01371,0.029714 0.01371,0.012571 0.02971,0.017714 0.0046,0.00114 0.0091,0.00229 0.0051,5.713e-4 0.0091,5.713e-4 0.0051,0 0.01086,-5.713e-4 0.0063,-0.00114 0.01257,-0.00286 0.0091,-0.00229 0.01771,-0.00571 0.0091,-0.004 0.01543,-0.00857 0.0046,-0.00286 0.0069,-0.004 0.0023,-0.00171 0.0046,-0.00229 5.709e-4,-5.714e-4 0.0011,-5.714e-4 0.0011,0 0.0023,0 0.0069,0 0.012,0.00571 0.0051,0.00571 0.008,0.012571 5.709e-4,0.00286 0.0011,0.00514 5.709e-4,0.00229 5.709e-4,0.00457 0,0.00971 -0.0063,0.019429 -0.0063,0.00914 -0.01886,0.018857 -0.02229,0.016571 -0.04857,0.024572 -0.02571,0.008 -0.056,0.008 -0.06057,0 -0.102857,-0.039429 -0.04171,-0.04 -0.04171,-0.097143 0,-0.062286 0.04343,-0.1051429 0.04343,-0.043429 0.1057141,-0.043429 0.02857,0 0.05143,0.00743 0.02343,0.00743 0.04229,0.022857 0.01314,0.010286 0.02286,0.024572 0.0097,0.013714 0.01486,0.028 0.0023,0.00743 0.0034,0.014286 0.0017,0.00686 0.0017,0.013143 0,0.019429 -0.0074,0.031429 -0.0069,0.011429 -0.01943,0.011429 z m -0.124,-0.052 h 0.02857 q 0.0091,5.713e-4 0.01314,-0.00343 0.0046,-0.004 0.0046,-0.012571 0,-0.014857 -0.0086,-0.024572 -0.0086,-0.00971 -0.02229,-0.00971 -0.01314,0 -0.02343,0.010857 -0.0097,0.010286 -0.0097,0.024571 0,0.00857 0.004,0.012 0.004,0.00343 0.01371,0.00343 z m -0.370285,0.079429 q 0,0.00343 0,0.00629 5.708e-4,0.00286 5.708e-4,0.00629 0,0.00114 0,0.00286 0,0.00171 0,0.00343 0,0.00914 0.0017,0.017714 0.0017,0.00857 0.008,0.015429 5.719e-4,5.713e-4 0.0011,0.00171 5.719e-4,5.713e-4 0.0011,0.00114 0,0 0,0 5.719e-4,0 5.719e-4,0 0.0029,0.004 0.0057,0.00857 0.0029,0.004 0.0029,0.00914 0,0.016 -0.02114,0.023429 -0.02057,0.00743 -0.06171,0.00743 -0.048,0 -0.072,-0.008 -0.023429,-0.008 -0.023429,-0.024 0,-0.008 0.00457,-0.012571 0.00514,-0.00514 0.010857,-0.00971 0,0 0,0 5.709e-4,0 5.709e-4,0 5.719e-4,-5.714e-4 0.00114,-5.714e-4 5.719e-4,-5.713e-4 0.00114,-0.00114 0.00857,-0.00629 0.012571,-0.027429 0.00457,-0.021143 0.00514,-0.063429 5.719e-4,-0.024571 5.719e-4,-0.034857 5.719e-4,-0.010857 5.719e-4,-0.018857 0,-0.00114 0,-0.00286 0,-0.00171 0,-0.00343 0,-0.064 -0.00286,-0.080572 -0.00286,-0.016571 -0.016,-0.022857 -0.00914,-0.00457 -0.013143,-0.00971 -0.004,-0.00514 -0.004,-0.011428 0,-0.016 0.022857,-0.026857 0.023429,-0.011429 0.050857,-0.018286 0.02171,-0.00457 0.04057,-0.00686 0.01943,-0.00286 0.028,-0.00286 0.0097,0 0.01314,0.00286 0.0034,0.00286 0.0034,0.010857 l -0.0034,0.1165715 q 0,0.010857 0.0034,0.016571 0.0034,0.00514 0.0097,0.00514 0.0046,0 0.01029,-0.00743 0.0063,-0.008 0.01543,-0.017143 0.0097,-0.00914 0.02343,-0.016571 0.01429,-0.008 0.03543,-0.008 0.02114,0 0.04,0.00743 0.01943,0.00743 0.03086,0.02 0.01257,0.012571 0.01714,0.028571 0.0046,0.016 0.0051,0.046857 l 0.0023,0.1005715 q 5.708e-4,0.010286 0.0029,0.017714 0.0029,0.00686 0.0074,0.010857 0.0011,5.714e-4 0.0017,0.00171 0.0011,5.715e-4 0.0017,0.00114 0.0051,0.00343 0.0091,0.00857 0.004,0.00457 0.004,0.010857 0,0.014857 -0.02229,0.022286 -0.02229,0.00686 -0.06743,0.00686 -0.04114,0 -0.06171,-0.00629 -0.02057,-0.00686 -0.02057,-0.020572 0,-0.00514 0.0023,-0.00914 0.0023,-0.004 0.0057,-0.008 0,-5.715e-4 0,-5.715e-4 0,0 0,0 5.708e-4,-0.00114 0.0011,-0.00171 0.0011,-0.00114 0.0017,-0.00229 0.0063,-0.008 0.0091,-0.025143 0.0029,-0.017714 0.0029,-0.050286 0,-0.042857 -0.0097,-0.060571 -0.0091,-0.018286 -0.03086,-0.018286 -0.016,0 -0.02343,0.010857 -0.0069,0.010286 -0.0069,0.035429 v 0.053143 z M 3.9416332,0.3243097 q 0.00114,0 0.00229,0 0.00171,-5.714e-4 0.00286,-0.00114 5.709e-4,-5.714e-4 5.709e-4,-5.714e-4 5.718e-4,0 0.00114,0 0.00343,-0.00171 0.00686,-0.00229 0.00343,-0.00114 0.00686,-0.00114 0.015429,0 0.029143,0.016 0.013714,0.015429 0.021714,0.034286 0.00457,0.010286 0.00686,0.019429 0.00229,0.00914 0.00229,0.016571 0,0.015429 -0.00914,0.026286 -0.00914,0.010857 -0.022857,0.010857 -0.00686,0 -0.013714,-0.00286 -0.00629,-0.00286 -0.012571,-0.00743 -0.00629,-0.00457 -0.012,-0.00971 -0.00571,-0.00571 -0.012,-0.011429 -0.013143,-0.011429 -0.028571,-0.021143 -0.015429,-0.00971 -0.035429,-0.00971 -0.016,0 -0.025714,0.00743 -0.00914,0.00686 -0.00914,0.02 0,0.014857 0.014857,0.023429 0.014857,0.00857 0.036571,0.015429 0.00971,0.00343 0.020571,0.00686 0.010857,0.00343 0.022286,0.00743 0.034857,0.013143 0.064,0.037143 0.029714,0.023429 0.029714,0.073143 0,0.059429 -0.049143,0.097143 -0.049143,0.037714 -0.1262858,0.037714 -0.00743,0 -0.015429,-5.714e-4 -0.00743,0 -0.014857,-5.714e-4 -0.036571,-0.00343 -0.068572,-0.012 -0.031429,-0.00857 -0.041714,-0.019429 -0.008,-0.00743 -0.015429,-0.024 -0.00686,-0.017143 -0.010286,-0.035429 -0.00229,-0.00857 -0.00343,-0.016571 -5.718e-4,-0.008 -5.718e-4,-0.015429 0,-0.014857 0.00571,-0.022857 0.00629,-0.008 0.017143,-0.008 0.011429,0 0.02,0.00914 0.00914,0.00914 0.016,0.020571 0.00343,0.00571 0.00629,0.011429 0.00286,0.00514 0.00571,0.00914 0.010286,0.015429 0.031429,0.025714 0.021714,0.00971 0.045714,0.010286 5.719e-4,0 0.00114,0 0.00114,0 0.00171,0 0.02,0 0.032571,-0.00743 0.013143,-0.00743 0.013143,-0.018857 0,-0.013143 -0.012,-0.020572 -0.012,-0.008 -0.030857,-0.014857 -0.010286,-0.004 -0.022286,-0.008 -0.012,-0.00457 -0.024571,-0.00971 -0.013714,-0.00571 -0.027429,-0.013143 -0.013714,-0.008 -0.025143,-0.018286 -0.014286,-0.013143 -0.024571,-0.028 -0.010286,-0.015428 -0.014857,-0.031428 -0.00229,-0.00686 -0.00343,-0.013714 -0.00114,-0.00686 -0.00114,-0.013143 0,-0.054857 0.045143,-0.092572 0.045714,-0.037714 0.1120001,-0.037714 0.014286,0 0.026857,0.00286 0.013143,0.00229 0.024,0.00514 0.010857,0.00286 0.019429,0.00571 0.00914,0.00229 0.014857,0.00229 5.719e-4,0 0.00114,0 0.00114,0 0.00171,-5.714e-4 5.719e-4,0 0.00114,0 0.00114,-5.715e-4 0.00171,-5.715e-4 z m -0.3080003,0.153143 v 0.089143 0.044571 q 0,0.021143 0.00286,0.028571 0.00343,0.00743 0.012571,0.012 0.00229,0.00114 0.004,0.00229 0.00229,5.714e-4 0.004,0.00171 0.00571,0.00286 0.00743,0.00629 0.00171,0.00343 0.00171,0.00914 0,0.019429 -0.020571,0.026286 -0.02,0.00686 -0.073143,0.00686 -0.050857,0 -0.073714,-0.008 -0.022286,-0.008 -0.022286,-0.026286 0,-0.00857 0.00571,-0.012571 0.00571,-0.004 0.012571,-0.00686 0.011429,-0.00457 0.014857,-0.030286 0.00343,-0.026286 0.00343,-0.099429 0,-0.068 -0.004,-0.087429 -0.004,-0.019429 -0.019429,-0.028571 -0.004,-0.00229 -0.00686,-0.004 -0.00286,-0.00229 -0.00514,-0.00457 -0.00457,-0.004 -0.00686,-0.00857 -0.00171,-0.00457 -0.00171,-0.010286 0,-0.018857 0.024571,-0.030857 0.024571,-0.012571 0.053714,-0.019429 0.021714,-0.00457 0.041143,-0.00686 0.019429,-0.00229 0.029714,-0.00229 0.011429,0 0.016572,0.00686 0.00571,0.00629 0.00571,0.020572 0,0.00343 -5.719e-4,0.013714 -5.718e-4,0.010286 -0.00229,0.027429 -0.00114,0.011428 -0.00229,0.022857 -5.718e-4,0.011429 -5.718e-4,0.022857 -5.719e-4,0.011429 -0.00114,0.022857 0,0.011429 0,0.022857 z m -0.209714,0.047429 q 0,0.00514 0,0.010286 0,0.00457 0,0.00914 -5.719e-4,0.00457 -5.719e-4,0.00971 0,0.00457 0,0.00914 0,0.034857 0.004,0.049714 0.00457,0.014857 0.013714,0.016571 0.00629,5.713e-4 0.010286,0.00286 0.00457,0.00229 0.00457,0.00971 0,0.021714 -0.017714,0.037714 -0.017143,0.016 -0.038286,0.021714 -0.00686,0.00229 -0.013714,0.00343 -0.00629,0.00114 -0.012,0.00114 -0.014286,0 -0.023429,-0.004 -0.00914,-0.004 -0.014857,-0.00914 -0.00514,-0.004 -0.00857,-0.00743 -0.00343,-0.00343 -0.00686,-0.00514 -0.00114,-5.715e-4 -0.00229,-5.715e-4 -5.719e-4,-5.714e-4 -0.00171,-5.714e-4 -0.00343,0 -0.010286,0.00457 -0.00686,0.004 -0.017143,0.00914 -0.00971,0.00514 -0.022286,0.00914 -0.012571,0.004 -0.028,0.004 -0.04,0 -0.065714,-0.020571 -0.025714,-0.020571 -0.025714,-0.053143 0,-0.041143 0.029714,-0.060571 0.029714,-0.02 0.065714,-0.026286 0.00914,-0.00114 0.018286,-0.00171 0.00971,-0.00114 0.018857,-0.00114 0.016571,-5.713e-4 0.020571,-0.00343 0.004,-0.00286 0.004,-0.015429 0,-0.028571 -0.00629,-0.041714 -0.00629,-0.013714 -0.019429,-0.013714 -0.00971,0 -0.017143,0.00629 -0.00686,0.00629 -0.013714,0.014857 -0.00114,0.00171 -0.00286,0.004 -0.00171,0.00229 -0.00343,0.004 -0.00857,0.011429 -0.018857,0.020571 -0.010286,0.00914 -0.026286,0.00914 -0.013714,0 -0.022857,-0.008 -0.00914,-0.008 -0.00914,-0.019429 0,-0.025714 0.024571,-0.042286 0.025143,-0.017143 0.054857,-0.026286 0.016571,-0.00514 0.032571,-0.00743 0.016572,-0.00286 0.028,-0.00286 0.028,0 0.049143,0.00629 0.021714,0.00571 0.038286,0.018286 5.719e-4,5.714e-4 5.719e-4,0.00114 5.719e-4,0 0.00114,0 0.017714,0.013714 0.024,0.030286 0.00629,0.016 0.00629,0.048571 z m -0.1634288,0.091429 q 0,0.013143 0.00629,0.021714 0.00686,0.00857 0.017143,0.00857 0.011429,0 0.016572,-0.00914 0.00571,-0.00971 0.00571,-0.029143 0,-0.014857 -0.00343,-0.020571 -0.00286,-0.00571 -0.012,-0.00571 -0.012571,0 -0.021714,0.010286 -0.00857,0.010286 -0.00857,0.024571 z m -0.3308566,-0.041143 5.719e-4,0.028 q 5.719e-4,0.02 0.00229,0.030286 0.00229,0.010286 0.008,0.018286 5.719e-4,5.714e-4 0.00114,0.00171 5.719e-4,5.713e-4 0.00114,0.00171 5.719e-4,5.713e-4 5.719e-4,0.00114 5.719e-4,0 5.719e-4,5.713e-4 0.00229,0.00343 0.004,0.00686 0.00171,0.00286 0.00171,0.00743 0,0.017143 -0.021714,0.025143 -0.021714,0.008 -0.066286,0.008 -0.046857,0 -0.065143,-0.00629 -0.018286,-0.00629 -0.018286,-0.022857 0,-0.00686 0.00171,-0.010286 0.00229,-0.00343 0.00571,-0.00571 0.00114,-0.00114 0.00229,-0.00229 0.00171,-0.00114 0.00286,-0.00286 0.00457,-0.004 0.008,-0.013143 0.004,-0.00971 0.00457,-0.030286 0,-0.004 0,-0.008 5.708e-4,-0.00457 5.708e-4,-0.00857 5.719e-4,-0.008 5.719e-4,-0.016571 5.719e-4,-0.00857 5.719e-4,-0.016571 0,-0.028571 -0.00686,-0.041714 -0.00686,-0.013143 -0.021714,-0.013143 -0.016571,0 -0.022286,0.017714 -0.00571,0.017143 -0.00571,0.071429 l 5.719e-4,0.023428 q 5.718e-4,0.011429 0.00229,0.018857 0.00229,0.00743 0.00514,0.012571 0.00171,0.004 0.00286,0.00686 0.00171,0.00286 0.00286,0.00571 5.708e-4,0.00229 0.00114,0.00514 5.718e-4,0.00229 5.718e-4,0.00457 0,0.016 -0.022857,0.024 -0.022286,0.008 -0.064572,0.008 -0.041714,0 -0.062286,-0.00629 -0.02,-0.00686 -0.02,-0.021143 0,-0.00286 0,-0.00457 5.719e-4,-0.00171 0.00114,-0.00343 0.00114,-0.00286 0.004,-0.00571 0.00343,-0.00343 0.00971,-0.00857 0.010286,-0.00971 0.013714,-0.030857 0.004,-0.021143 0.004,-0.072572 0,-0.026857 -0.00457,-0.037714 -0.004,-0.011429 -0.00857,-0.016 -0.00171,-0.00171 -0.00343,-0.00286 -0.00171,-0.00114 -0.00286,-0.00229 -0.00343,-0.00229 -0.00571,-0.00514 -0.00171,-0.00286 -0.00171,-0.00914 0,-0.00743 0.004,-0.013143 0.004,-0.00571 0.014857,-0.011428 0.00914,-0.00457 0.024571,-0.00971 0.015429,-0.00514 0.038286,-0.011429 0.013143,-0.00343 0.026857,-0.00629 0.013714,-0.00286 0.027429,-0.00286 0.008,0 0.011429,0.00571 0.00343,0.00514 0.00343,0.016571 0,0.00114 0,0.00286 0,0.00114 0,0.00229 -5.719e-4,0.00171 -5.719e-4,0.00343 0,0.00114 0,0.00229 0,0.00743 0.00229,0.012 0.00229,0.00457 0.00629,0.00457 0.00286,0 0.010286,-0.00743 0.00743,-0.008 0.019429,-0.017714 0.012571,-0.00914 0.029714,-0.016571 0.017143,-0.008 0.039429,-0.008 0.023429,0 0.04,0.00857 0.017143,0.00857 0.025714,0.025143 0.00286,0.00514 0.00457,0.008 0.00229,0.00286 0.004,0.004 5.718e-4,0 0.00114,5.715e-4 0.00114,0 0.00229,0 0.00171,0 0.00971,-0.00686 0.008,-0.00743 0.020571,-0.016571 0.012571,-0.00857 0.029143,-0.015429 0.016571,-0.00743 0.035429,-0.00743 0.04,0 0.062286,0.021143 0.022286,0.021143 0.022286,0.06 0,0.00914 -5.719e-4,0.018286 0,0.00914 0,0.018286 0,0.00914 -5.708e-4,0.018286 0,0.00914 0,0.018286 0,0.012 0,0.020571 0,0.00857 -5.719e-4,0.013714 0,0.010857 0.00171,0.020571 0.00171,0.00971 0.00914,0.018857 5.719e-4,5.714e-4 0.00114,0.00114 5.719e-4,5.714e-4 0.00114,0.00171 0.00286,0.00286 0.00514,0.00686 0.00286,0.00343 0.00286,0.008 0,0.017714 -0.021714,0.026857 -0.021714,0.00857 -0.062857,0.00857 -0.036571,0 -0.059429,-0.00857 -0.022857,-0.00857 -0.022857,-0.022857 0,-0.00571 0.00286,-0.010286 0.00286,-0.00514 0.00571,-0.00971 0.00114,-0.00114 0.00171,-0.00229 0.00114,-0.00114 0.00171,-0.00229 0.00457,-0.00629 0.00629,-0.023429 0.00229,-0.017143 0.00229,-0.050857 0,-0.040572 -0.00629,-0.056 -0.00571,-0.016 -0.022286,-0.016 -0.015429,0 -0.022286,0.010857 -0.00686,0.010286 -0.00686,0.034857 l -5.719e-4,0.027429 z M 2.5507766,0.4397384 v 0.1622858 q 0,0.018286 0.00286,0.026857 0.00343,0.00857 0.011429,0.015429 5.719e-4,5.714e-4 0.00114,0.00171 0.00114,5.714e-4 0.00229,0.00114 0.00457,0.00343 0.00743,0.00629 0.00286,0.00229 0.00457,0.00457 0.00171,0.00229 0.00229,0.00514 5.719e-4,0.00229 5.719e-4,0.00571 0,0.017714 -0.022857,0.026857 -0.022857,0.00857 -0.067429,0.00857 -0.052571,0 -0.077143,-0.00743 -0.024,-0.00743 -0.024,-0.024571 0,-0.00914 0.00514,-0.014286 0.00514,-0.00571 0.011429,-0.010286 5.719e-4,0 5.719e-4,0 0,-5.714e-4 0,-5.714e-4 5.708e-4,-5.713e-4 5.708e-4,-5.713e-4 5.719e-4,-5.715e-4 0.00114,-5.715e-4 0.00914,-0.00629 0.012571,-0.020571 0.00343,-0.014857 0.00343,-0.042857 0,-0.00457 0,-0.00914 0,-0.00457 -5.718e-4,-0.00971 0,-0.00457 -5.719e-4,-0.00914 0,-0.00457 0,-0.00914 0,-0.00229 0,-0.004 0,-0.00171 0,-0.00343 -0.00114,-0.016571 -0.00229,-0.021714 -5.708e-4,-0.00571 -0.004,-0.00914 -5.708e-4,-5.714e-4 -0.00114,-5.714e-4 -5.719e-4,-5.714e-4 -0.00114,-0.00114 -0.00171,-0.00114 -0.004,-0.00229 -0.00171,-0.00171 -0.004,-0.00229 -5.708e-4,-5.714e-4 -0.00114,-5.714e-4 -5.719e-4,-5.714e-4 -5.719e-4,-5.714e-4 -0.00686,-0.00343 -0.012,-0.00743 -0.00457,-0.00457 -0.00457,-0.013714 0,-0.00914 0.00629,-0.016 0.00629,-0.00743 0.022857,-0.013714 0.00914,-0.004 0.021714,-0.00743 0.013143,-0.004 0.030286,-0.008 0.018857,-0.00457 0.034286,-0.00686 0.016,-0.00286 0.028571,-0.00343 0.008,0 0.012,0.00457 0.004,0.00457 0.004,0.012571 z M 2.4936336,0.3174526 q 0.004,5.714e-4 0.00857,0.00114 0.00514,0 0.00971,0.00114 0.013714,0.00229 0.025143,0.00971 0.011429,0.00743 0.011429,0.022857 0,0.022286 -0.029714,0.037714 -0.029714,0.015429 -0.073714,0.015429 -0.021714,0 -0.035429,-0.00914 -0.013714,-0.00971 -0.013714,-0.025143 0,-0.021143 0.028,-0.036571 0.028571,-0.015429 0.069714,-0.016571 z m -0.1428569,0.2062858 0.004,0.097714 q 0,0.008 0.00229,0.014286 0.00229,0.00629 0.00629,0.010857 0.00114,0.00114 0.00171,0.00229 0.00114,5.713e-4 0.00229,0.00171 0,0 0,0 0,0 5.718e-4,5.713e-4 0.004,0.004 0.00743,0.00914 0.004,0.00457 0.004,0.011429 0,0.018857 -0.022286,0.025714 -0.021714,0.00686 -0.081143,0.00686 -0.035429,0 -0.052,-0.00629 -0.016,-0.00686 -0.016,-0.022286 0,-0.00514 0.00229,-0.00914 0.00229,-0.004 0.00571,-0.00743 5.708e-4,-5.713e-4 0.00114,-0.00114 5.719e-4,-5.713e-4 0.00114,-0.00114 5.708e-4,-5.713e-4 0.00114,-0.00114 5.719e-4,-0.00114 0.00114,-0.00171 0.00514,-0.00514 0.008,-0.025714 0.00343,-0.020571 0.00343,-0.050857 0,-0.039429 -0.00857,-0.056 -0.008,-0.017143 -0.028,-0.017143 -0.017714,0 -0.025143,0.012 -0.00686,0.012 -0.00686,0.043429 v 0.054857 q 0,0.012 0.00114,0.018857 0.00114,0.00686 0.00514,0.013143 0,5.714e-4 5.718e-4,0.00171 5.719e-4,5.715e-4 0.00114,0.00114 5.719e-4,0.00114 0.00114,0.00229 0.00114,0.00114 0.00171,0.00229 0.00343,0.004 0.00571,0.00857 0.00229,0.00457 0.00229,0.00971 0,0.016571 -0.022857,0.024571 -0.022286,0.00743 -0.070857,0.00743 -0.038857,0 -0.058286,-0.00743 -0.019429,-0.00743 -0.019429,-0.022857 0,-0.00457 0,-0.00686 5.708e-4,-0.00286 0.00229,-0.00514 0.00171,-0.00171 0.004,-0.004 0.00286,-0.00229 0.00743,-0.00514 0.00857,-0.00629 0.011429,-0.029143 0.00343,-0.023429 0.00343,-0.084 0,-0.018286 -0.00514,-0.025714 -0.00457,-0.008 -0.010857,-0.012 -0.00114,-5.713e-4 -0.00286,-0.00114 -0.00114,-0.00114 -0.00229,-0.00171 -0.00457,-0.00286 -0.008,-0.00629 -0.00286,-0.00343 -0.00286,-0.010286 0,-0.013143 0.021714,-0.025143 0.022286,-0.012 0.048571,-0.02 0.020571,-0.00686 0.038857,-0.010286 0.018857,-0.004 0.026857,-0.004 0.008,0 0.013714,0.00629 0.00571,0.00571 0.00571,0.014286 0,5.714e-4 0,0.00229 0,0.00171 -5.719e-4,0.00457 0,0.00114 0,0.00286 0,0.00114 0,0.00229 5.719e-4,0.00457 0.00286,0.00857 0.00229,0.004 0.008,0.004 0.00457,0 0.010286,-0.00686 0.00571,-0.00743 0.014857,-0.016 0.00914,-0.00857 0.022857,-0.015429 0.014286,-0.00743 0.036,-0.00743 0.017143,0 0.032571,0.00514 0.016,0.00457 0.028,0.013714 5.709e-4,0 5.709e-4,5.715e-4 5.719e-4,0 5.719e-4,5.713e-4 0.017143,0.013143 0.023429,0.030286 0.00686,0.017143 0.00857,0.051429 z m -0.4502859,-0.018286 0.053143,0.1131429 q 0.00286,0.00629 0.00457,0.010857 0.00229,0.004 0.00457,0.00686 0.00343,0.00514 0.00743,0.00743 0.00457,0.00171 0.010857,0.00286 0.00971,0.00114 0.014857,0.00629 0.00571,0.00514 0.00571,0.013143 0,0.021143 -0.024571,0.029714 -0.024,0.00857 -0.08,0.00857 -0.00229,0 -0.00457,0 -0.00171,0 -0.004,0 -0.025714,0 -0.049714,-0.00171 -0.023429,-0.00171 -0.036,-0.00343 -0.013143,-0.00229 -0.021714,-0.00971 -0.00857,-0.00743 -0.00857,-0.017143 0,-0.00857 0.00286,-0.012571 0.00286,-0.004 0.010857,-0.00743 0.00171,-0.00114 0.00343,-0.00171 0.00171,-5.715e-4 0.00343,-0.00114 0.00629,-0.00229 0.00971,-0.00571 0.00343,-0.004 0.00343,-0.00857 0,-0.011429 -0.00743,-0.017143 -0.00686,-0.00571 -0.022857,-0.00629 -0.014286,-0.00114 -0.028571,-0.00171 -0.013714,-0.00114 -0.028,-0.00114 -0.038857,0 -0.049143,0.00514 -0.010286,0.00514 -0.010286,0.024572 0,0.00514 0.004,0.008 0.004,0.00229 0.00971,0.004 5.718e-4,5.713e-4 0.00171,0.00114 0.00114,0 0.00229,5.714e-4 0.00629,0.00229 0.011429,0.00629 0.00571,0.004 0.00571,0.013143 0,0.016571 -0.02,0.024571 -0.02,0.008 -0.060571,0.008 -0.046857,0 -0.066286,-0.00686 -0.018857,-0.00686 -0.018857,-0.024 0,-0.00857 0.00343,-0.013143 0.00343,-0.00457 0.013143,-0.00857 5.718e-4,0 0.00114,0 0.00114,-5.713e-4 0.00229,-0.00114 0.00914,-0.00286 0.015429,-0.00686 0.00686,-0.004 0.012571,-0.012 0.00571,-0.00686 0.011429,-0.018286 0.00629,-0.012 0.014286,-0.030286 l 0.039429,-0.086857 q 0.018857,-0.04 0.026857,-0.062286 0.008,-0.022857 0.00971,-0.041714 0,-0.00343 0,-0.00629 5.719e-4,-0.00286 5.719e-4,-0.00629 5.719e-4,-0.036 0.015429,-0.053143 0.015429,-0.017714 0.046286,-0.017714 0.022286,0 0.041714,0.011429 0.019429,0.011429 0.034857,0.033143 0.016571,0.022857 0.037143,0.061143 0.021143,0.038286 0.045714,0.091429 z m -0.1942859,0.035429 h 0.054857 q 0.008,5.713e-4 0.011429,-5.714e-4 0.00343,-0.00171 0.00343,-0.00514 0,-0.00514 -0.004,-0.014286 -0.004,-0.00971 -0.00971,-0.020571 -0.00229,-0.00457 -0.00514,-0.00914 -0.00286,-0.00457 -0.00571,-0.00857 -0.00629,-0.00914 -0.012,-0.014857 -0.00514,-0.00571 -0.00857,-0.00571 -0.00457,0 -0.008,0.00286 -0.00343,0.00286 -0.00686,0.00971 -5.718e-4,0.00171 -0.00114,0.00343 -5.718e-4,0.00114 -0.00114,0.00286 -0.00171,0.00286 -0.004,0.008 -0.00229,0.00457 -0.00457,0.010286 -0.00114,0.00229 -0.00229,0.00457 -0.00114,0.00229 -0.00171,0.00457 -0.00343,0.00743 -0.00571,0.014286 -0.00171,0.00686 -0.00171,0.011429 0,0.004 0.00229,0.00571 0.00286,0.00171 0.010286,0.00171 z M 1.494777,0.5734524 H 1.3639197 q -0.00457,5.714e-4 -0.00686,0.00229 -0.00171,0.00171 -0.00171,0.00571 0,0.017143 0.013714,0.029714 0.013714,0.012571 0.029714,0.017714 0.00457,0.00114 0.00914,0.00229 0.00514,5.713e-4 0.00914,5.713e-4 0.00514,0 0.010857,-5.713e-4 0.00629,-0.00114 0.012571,-0.00286 0.00914,-0.00229 0.017714,-0.00571 0.00914,-0.004 0.015429,-0.00857 0.00457,-0.00286 0.00686,-0.004 0.00229,-0.00171 0.00457,-0.00229 5.719e-4,-5.714e-4 0.00114,-5.714e-4 0.00114,0 0.00229,0 0.00686,0 0.012,0.00571 0.00514,0.00571 0.008,0.012571 5.719e-4,0.00286 0.00114,0.00514 5.719e-4,0.00229 5.719e-4,0.00457 0,0.00971 -0.00629,0.019429 -0.00629,0.00914 -0.018857,0.018857 -0.022286,0.016571 -0.048571,0.024572 -0.025714,0.008 -0.056,0.008 -0.060571,0 -0.1028572,-0.039429 -0.041714,-0.04 -0.041714,-0.097143 0,-0.062286 0.043429,-0.1051429 0.043429,-0.043429 0.1057144,-0.043429 0.028571,0 0.051429,0.00743 0.023429,0.00743 0.042286,0.022857 0.013143,0.010286 0.022857,0.024572 0.00971,0.013714 0.014857,0.028 0.00229,0.00743 0.00343,0.014286 0.00171,0.00686 0.00171,0.013143 0,0.019429 -0.00743,0.031429 -0.00686,0.011429 -0.019429,0.011429 z m -0.1240001,-0.052 h 0.028572 q 0.00914,5.713e-4 0.013143,-0.00343 0.00457,-0.004 0.00457,-0.012571 0,-0.014857 -0.00857,-0.024572 -0.00857,-0.00971 -0.022286,-0.00971 -0.013143,0 -0.023429,0.010857 -0.00971,0.010286 -0.00971,0.024571 0,0.00857 0.004,0.012 0.004,0.00343 0.013714,0.00343 z M 1.1582056,0.4728812 h 0.034286 q 0.00914,5.714e-4 0.012571,0.00343 0.00343,0.00229 0.00343,0.00857 l -0.00229,0.032571 q -5.715e-4,0.010286 -0.00343,0.013143 -0.00229,0.00286 -0.010857,0.00286 -0.00229,0 -0.00457,0 -0.00171,-5.714e-4 -0.00343,-5.714e-4 -0.00229,0 -0.00457,0 -0.00171,-5.713e-4 -0.004,-5.713e-4 -0.012571,0 -0.017143,0.00743 -0.004,0.00743 -0.004,0.028571 0,0.035429 0.00629,0.050286 0.00629,0.014857 0.022857,0.02 0.013143,0.004 0.018857,0.010857 0.00571,0.00629 0.00571,0.017714 0,0.019429 -0.028571,0.028572 -0.028571,0.00857 -0.090857,0.00857 -0.052,0 -0.076,-0.00914 -0.024,-0.00914 -0.024,-0.028571 0,-0.010857 0.00343,-0.014286 0.004,-0.00343 0.00914,-0.00571 0.00229,-5.715e-4 0.00457,-0.00171 0.00286,-0.00114 0.00514,-0.00229 0.00857,-0.00514 0.015429,-0.021714 0.00686,-0.016572 0.00686,-0.060571 0,-0.013143 -0.00514,-0.019429 -0.00514,-0.00686 -0.018286,-0.00686 -0.014286,0 -0.018286,-0.00114 -0.004,-0.00171 -0.004,-0.00686 v -0.00114 l 0.00229,-0.035429 q 5.714e-4,-0.00743 0.00457,-0.00971 0.004,-0.00286 0.00857,-0.00343 5.714e-4,0 0.00114,0 5.714e-4,0 0.00114,0 0.00457,-5.714e-4 0.008,-0.00171 0.00343,-0.00171 0.00343,-0.008 0,-0.00343 -0.00343,-0.00971 -0.00286,-0.00629 -0.00686,-0.014857 -0.004,-0.00857 -0.00743,-0.018857 -0.00286,-0.010286 -0.00286,-0.021143 0,-0.039429 0.032571,-0.062857 0.033143,-0.024 0.088,-0.024 0.048,0 0.078857,0.02 0.030857,0.019429 0.030857,0.050286 0,0.017143 -0.012571,0.029714 -0.012,0.012 -0.029143,0.012 -0.012572,0 -0.025143,-0.00571 -0.012,-0.00571 -0.021714,-0.016 -0.00171,-0.00229 -0.004,-0.00457 -0.00171,-0.00229 -0.004,-0.00457 -0.00571,-0.00686 -0.013143,-0.012571 -0.00686,-0.00571 -0.016,-0.00571 -0.00743,0 -0.013143,0.00629 -0.00571,0.00571 -0.00571,0.013714 0,0.015429 0.010286,0.024572 0.010857,0.00914 0.024,0.016571 5.714e-4,5.714e-4 0.00114,0.00114 0.00114,0 0.00171,5.713e-4 0.010286,0.00629 0.018857,0.013143 0.00857,0.00629 0.011429,0.016 0,0 0,5.714e-4 5.714e-4,0 5.714e-4,0 0.00114,0.00171 0.00286,0.00229 0.00171,5.714e-4 0.00571,5.714e-4 z m -0.21428549,0.052 q 0,0.00514 0,0.010286 0,0.00457 0,0.00914 -5.715e-4,0.00457 -5.715e-4,0.00971 0,0.00457 0,0.00914 0,0.034857 0.004,0.049714 0.00457,0.014857 0.013714,0.016571 0.00629,5.713e-4 0.010286,0.00286 0.00457,0.00229 0.00457,0.00971 0,0.021714 -0.017714,0.037714 -0.017143,0.016 -0.038286,0.021714 -0.00686,0.00229 -0.013714,0.00343 -0.00629,0.00114 -0.012,0.00114 -0.014286,0 -0.023429,-0.004 -0.00914,-0.004 -0.014857,-0.00914 -0.00514,-0.004 -0.00857,-0.00743 -0.00343,-0.00343 -0.00686,-0.00514 -0.00114,-5.715e-4 -0.00229,-5.715e-4 -5.714e-4,-5.714e-4 -0.00171,-5.714e-4 -0.00343,0 -0.010286,0.00457 -0.00686,0.004 -0.017143,0.00914 -0.00971,0.00514 -0.022286,0.00914 -0.012571,0.004 -0.028,0.004 -0.04,0 -0.065714,-0.020571 -0.025714,-0.020571 -0.025714,-0.053143 0,-0.041143 0.029714,-0.060571 0.029714,-0.02 0.065714,-0.026286 0.00914,-0.00114 0.018286,-0.00171 0.00971,-0.00114 0.018857,-0.00114 0.016571,-5.713e-4 0.020571,-0.00343 0.004,-0.00286 0.004,-0.015429 0,-0.028571 -0.00629,-0.041714 -0.00629,-0.013714 -0.019429,-0.013714 -0.00971,0 -0.017143,0.00629 -0.00686,0.00629 -0.013714,0.014857 -0.00114,0.00171 -0.00286,0.004 -0.00171,0.00229 -0.00343,0.004 -0.00857,0.011429 -0.018857,0.020571 -0.010286,0.00914 -0.026286,0.00914 -0.013714,0 -0.022857,-0.008 -0.00914,-0.008 -0.00914,-0.019429 0,-0.025714 0.024572,-0.042286 0.025143,-0.017143 0.054857,-0.026286 0.016571,-0.00514 0.032571,-0.00743 0.016571,-0.00286 0.028,-0.00286 0.028,0 0.049143,0.00629 0.021714,0.00571 0.038286,0.018286 5.715e-4,5.714e-4 5.715e-4,0.00114 5.713e-4,0 0.00114,0 0.017714,0.013714 0.024,0.030286 0.00629,0.016 0.00629,0.048571 z m -0.1634287,0.091429 q 0,0.013143 0.00629,0.021714 0.00686,0.00857 0.017143,0.00857 0.011429,0 0.016571,-0.00914 0.00571,-0.00971 0.00571,-0.029143 0,-0.014857 -0.00343,-0.020571 -0.00286,-0.00571 -0.012,-0.00571 -0.012571,0 -0.021714,0.010286 -0.00857,0.010286 -0.00857,0.024571 z M 0.56049201,0.3243097 q 0.00114,0 0.00229,0 0.00171,-5.714e-4 0.00286,-0.00114 5.713e-4,-5.714e-4 5.713e-4,-5.714e-4 5.715e-4,0 0.00114,0 0.00343,-0.00171 0.00686,-0.00229 0.00343,-0.00114 0.00686,-0.00114 0.015429,0 0.029143,0.016 0.013714,0.015429 0.021714,0.034286 0.00457,0.010286 0.00686,0.019429 0.00229,0.00914 0.00229,0.016571 0,0.015429 -0.00914,0.026286 -0.00914,0.010857 -0.022857,0.010857 -0.00686,0 -0.013714,-0.00286 -0.00629,-0.00286 -0.012571,-0.00743 -0.00629,-0.00457 -0.012,-0.00971 -0.00571,-0.00571 -0.012,-0.011429 -0.013143,-0.011429 -0.028572,-0.021143 -0.015429,-0.00971 -0.035429,-0.00971 -0.016,0 -0.025714,0.00743 -0.00914,0.00686 -0.00914,0.02 0,0.014857 0.014857,0.023429 0.014857,0.00857 0.036571,0.015429 0.00971,0.00343 0.020571,0.00686 0.010857,0.00343 0.022286,0.00743 0.034857,0.013143 0.064,0.037143 0.029714,0.023429 0.029714,0.073143 0,0.059429 -0.049143,0.097143 -0.049143,0.037714 -0.1262858,0.037714 -0.00743,0 -0.015429,-5.714e-4 -0.00743,0 -0.014857,-5.714e-4 -0.036571,-0.00343 -0.068571,-0.012 -0.031429,-0.00857 -0.041714,-0.019429 -0.008,-0.00743 -0.015429,-0.024 -0.00686,-0.017143 -0.010286,-0.035429 -0.00229,-0.00857 -0.00343,-0.016571 -5.715e-4,-0.008 -5.715e-4,-0.015429 0,-0.014857 0.00571,-0.022857 0.00629,-0.008 0.017143,-0.008 0.011429,0 0.02,0.00914 0.00914,0.00914 0.016,0.020571 0.00343,0.00571 0.00629,0.011429 0.00286,0.00514 0.00571,0.00914 0.010286,0.015429 0.031429,0.025714 0.021714,0.00971 0.045714,0.010286 5.715e-4,0 0.00114,0 0.00114,0 0.00171,0 0.02,0 0.032571,-0.00743 0.013143,-0.00743 0.013143,-0.018857 0,-0.013143 -0.012,-0.020572 -0.012,-0.008 -0.030857,-0.014857 -0.010286,-0.004 -0.022286,-0.008 -0.012,-0.00457 -0.024571,-0.00971 -0.013714,-0.00571 -0.027429,-0.013143 -0.013714,-0.008 -0.025143,-0.018286 -0.014286,-0.013143 -0.024571,-0.028 -0.010286,-0.015428 -0.014857,-0.031428 -0.00229,-0.00686 -0.00343,-0.013714 -0.00114,-0.00686 -0.00114,-0.013143 0,-0.054857 0.045143,-0.092572 0.045714,-0.037714 0.1120001,-0.037714 0.014286,0 0.026857,0.00286 0.013143,0.00229 0.024,0.00514 0.010857,0.00286 0.019429,0.00571 0.00914,0.00229 0.014857,0.00229 5.714e-4,0 0.00114,0 0.00114,0 0.00171,-5.714e-4 5.714e-4,0 0.00114,0 0.00114,-5.715e-4 0.00171,-5.715e-4 z" />
    <path
       id="rect5625-15-6"
       style="opacity:0.928105;fill:none;fill-opacity:1;stroke:#000060;stroke-width:0.00196849;stroke-miterlimit:4;stroke-dasharray:none;stroke-opacity:1"
       d="M 6.6093366,0.82796765 H 7.1673643 V 1.2679085 H 6.6093366 Z m -0.3424282,0 H 6.6073681 V 1.2679085 H 6.2669084 Z m -0.4631228,0 H 6.2649398 V 1.2679085 H 5.8037856 Z m -0.3154302,0 H 5.8018176 V 1.2679085 H 5.4883554 Z m -0.2995496,0 H 5.4863871 V 1.2679085 H 5.1888058 Z m -0.4774154,0 H 5.1868373 V 1.2679085 H 4.7113904 Z m -0.2979618,0 H 4.7094218 V 1.2679085 H 4.4134286 Z m -0.3932472,0 H 4.4114599 V 1.2679085 H 4.0201814 Z m -0.3630731,0 H 4.0182131 V 1.2679085 H 3.6571083 Z m -0.2137929,0 H 3.6551399 V 1.2679085 H 3.4433154 Z m -0.320195,0 H 3.4413468 V 1.2679085 H 3.1231204 Z m -0.5552319,0 H 3.1211518 V 1.2679085 H 2.5678885 Z m -0.1995003,0 H 2.56592 V 1.2679085 H 2.3683882 Z m -0.3821303,0 H 2.3664196 V 1.2679085 H 1.9862579 Z m -0.4805919,0 H 1.9842892 V 1.2679085 H 1.505666 Z m -0.2916094,0 H 1.5036975 V 1.2679085 H 1.2140566 Z m -0.25190716,0 H 1.2120881 V 1.2679085 H 0.96214944 Z m -0.32337112,0 H 0.96018094 V 1.2679085 H 0.63877832 Z m -0.36783755,0 H 0.63680982 V 1.2679084 H 0.27094077 Z m 6.67840473,0.29010345 5.708e-4,0.028 q 5.719e-4,0.02 0.0023,0.030286 0.0023,0.010286 0.008,0.018286 5.719e-4,5.714e-4 0.0011,0.00171 5.719e-4,5.714e-4 0.0011,0.00171 5.719e-4,5.714e-4 5.719e-4,0.00114 5.708e-4,0 5.708e-4,5.714e-4 0.0023,0.00343 0.004,0.00686 0.0017,0.00286 0.0017,0.00743 0,0.017143 -0.02171,0.025143 -0.02171,0.008 -0.06629,0.008 -0.04686,0 -0.06514,-0.00629 -0.01829,-0.00629 -0.01829,-0.022857 0,-0.00686 0.0017,-0.010286 0.0023,-0.00343 0.0057,-0.00571 0.0011,-0.00114 0.0023,-0.00229 0.0017,-0.00114 0.0029,-0.00286 0.0046,-0.004 0.008,-0.013143 0.004,-0.00971 0.0046,-0.030286 0,-0.004 0,-0.008 5.708e-4,-0.00457 5.708e-4,-0.00857 5.719e-4,-0.008 5.719e-4,-0.016571 5.708e-4,-0.00857 5.708e-4,-0.016571 0,-0.028571 -0.0069,-0.041714 -0.0069,-0.013143 -0.02171,-0.013143 -0.01657,0 -0.02229,0.017714 -0.0057,0.017143 -0.0057,0.071429 l 5.719e-4,0.023428 q 5.708e-4,0.011429 0.0023,0.018857 0.0023,0.00743 0.0051,0.012571 0.0017,0.004 0.0029,0.00686 0.0017,0.00286 0.0029,0.00571 5.709e-4,0.00229 0.0011,0.00514 5.709e-4,0.00229 5.709e-4,0.00457 0,0.016 -0.02286,0.024 -0.02229,0.008 -0.06457,0.008 -0.04171,0 -0.06229,-0.00629 -0.02,-0.00686 -0.02,-0.021143 0,-0.00286 0,-0.00457 5.708e-4,-0.00171 0.0011,-0.00343 0.0011,-0.00286 0.004,-0.00571 0.0034,-0.00343 0.0097,-0.00857 0.01029,-0.00971 0.01371,-0.030857 0.004,-0.021143 0.004,-0.072572 0,-0.026857 -0.0046,-0.037714 -0.004,-0.011429 -0.0086,-0.016 -0.0017,-0.00171 -0.0034,-0.00286 -0.0017,-0.00114 -0.0029,-0.00229 -0.0034,-0.00229 -0.0057,-0.00514 -0.0017,-0.00286 -0.0017,-0.00914 0,-0.00743 0.004,-0.013143 0.004,-0.00571 0.01486,-0.011428 0.0091,-0.00457 0.02457,-0.00971 0.01543,-0.00514 0.03829,-0.011429 0.01314,-0.00343 0.02686,-0.00629 0.01371,-0.00286 0.02743,-0.00286 0.008,0 0.01143,0.00571 0.0034,0.00514 0.0034,0.016571 0,0.00114 0,0.00286 0,0.00114 0,0.00229 -5.709e-4,0.00171 -5.709e-4,0.00343 0,0.00114 0,0.00229 0,0.00743 0.0023,0.012 0.0023,0.00457 0.0063,0.00457 0.0029,0 0.01029,-0.00743 0.0074,-0.008 0.01943,-0.017714 0.01257,-0.00914 0.02971,-0.016571 0.01714,-0.008 0.03943,-0.008 0.02343,0 0.04,0.00857 0.01714,0.00857 0.02571,0.025143 0.0029,0.00514 0.0046,0.008 0.0023,0.00286 0.004,0.004 5.709e-4,0 0.0011,5.714e-4 0.0011,0 0.0023,0 0.0017,0 0.0097,-0.00686 0.008,-0.00743 0.02057,-0.016571 0.01257,-0.00857 0.02914,-0.015429 0.01657,-0.00743 0.03543,-0.00743 0.04,0 0.06229,0.021143 0.02229,0.021143 0.02229,0.06 0,0.00914 -5.719e-4,0.018286 0,0.00914 0,0.018286 0,0.00914 -5.708e-4,0.018286 0,0.00914 0,0.018286 0,0.012 0,0.020571 0,0.00857 -5.719e-4,0.013714 0,0.010857 0.0017,0.020571 0.0017,0.00971 0.0091,0.018857 5.719e-4,5.713e-4 0.0011,0.00114 5.719e-4,5.713e-4 0.0011,0.00171 0.0029,0.00286 0.0051,0.00686 0.0029,0.00343 0.0029,0.008 0,0.017714 -0.02171,0.026857 -0.02171,0.00857 -0.06286,0.00857 -0.03657,0 -0.05943,-0.00857 -0.02286,-0.00857 -0.02286,-0.022857 0,-0.00571 0.0029,-0.010286 0.0029,-0.00514 0.0057,-0.00971 0.0011,-0.00114 0.0017,-0.00229 0.0011,-0.00114 0.0017,-0.00229 0.0046,-0.00629 0.0063,-0.023429 0.0023,-0.017143 0.0023,-0.050857 0,-0.040572 -0.0063,-0.056 -0.0057,-0.016 -0.02229,-0.016 -0.01543,0 -0.02229,0.010857 -0.0069,0.010286 -0.0069,0.034857 l -5.708e-4,0.027429 z m -0.508,-0.15485721 q 0.06,5.713e-4 0.108571,0.037714 0.04857,0.037143 0.04857,0.1017144 0,0.062286 -0.052,0.1045715 -0.052,0.041714 -0.128,0.041714 -0.06229,0 -0.104,-0.036571 -0.04114,-0.037143 -0.04114,-0.092572 0,-0.067429 0.04629,-0.1102858 0.04686,-0.043429 0.121714,-0.045714 z m -0.01829,0.064571 q -0.01143,0.00114 -0.01829,0.010286 -0.0069,0.00857 -0.0069,0.023429 0,0.00971 0.0023,0.024571 0.0023,0.014857 0.0063,0.030857 0.0023,0.010857 0.0057,0.021714 0.0034,0.010286 0.0069,0.019429 0.0046,0.011429 0.01143,0.017143 0.0069,0.00571 0.01657,0.00571 0.01314,0 0.01886,-0.008 0.0063,-0.00857 0.0063,-0.026857 0,-0.011429 -0.0023,-0.025714 -0.0017,-0.014286 -0.0057,-0.029143 -0.0029,-0.011429 -0.0063,-0.022286 -0.0034,-0.011428 -0.0074,-0.021143 -0.004,-0.00857 -0.01086,-0.013714 -0.0069,-0.00571 -0.01657,-0.00571 z M 6.2019126,1.1534997 q 5.719e-4,0 0.0011,0 5.719e-4,-5.713e-4 0.0011,-5.713e-4 0.004,-0.00229 0.008,-0.004 0.0046,-0.00229 0.0097,-0.00229 0.0097,0 0.01714,0.00914 0.0074,0.00857 0.0074,0.021143 0,0.028571 -0.03829,0.050286 -0.03771,0.021714 -0.08686,0.021714 -0.06229,0 -0.1051431,-0.04 -0.04286,-0.040572 -0.04286,-0.099429 0,-0.062857 0.04514,-0.1040002 0.04514,-0.041714 0.113715,-0.041714 0.05257,0 0.08857,0.024571 0.036,0.024 0.036,0.058857 0,0.022857 -0.01543,0.038286 -0.01486,0.015429 -0.03771,0.015429 -0.02171,0 -0.03029,-0.010286 -0.008,-0.010857 -0.01257,-0.023429 -5.719e-4,-0.00114 -0.0011,-0.00229 -5.719e-4,-0.00171 -0.0011,-0.00286 -0.004,-0.010857 -0.0097,-0.019429 -0.0057,-0.00857 -0.01943,-0.00857 -0.016,0 -0.02686,0.013143 -0.01029,0.013143 -0.01029,0.033143 0,0.032571 0.02114,0.056572 0.02171,0.024 0.05143,0.024 0.0029,0 0.0063,0 0.0034,-5.713e-4 0.0069,-0.00114 0.0069,-5.714e-4 0.01314,-0.00229 0.0069,-0.00171 0.01086,-0.00343 z m -0.258285,0.029714 q 0,0.027429 -0.01943,0.046857 -0.01943,0.018857 -0.04629,0.018857 -0.02686,0 -0.04629,-0.018857 -0.01943,-0.019429 -0.01943,-0.046286 0,-0.027429 0.01943,-0.046857 0.01943,-0.019429 0.04629,-0.019429 0.02686,0 0.04629,0.019429 0.01943,0.019429 0.01943,0.046857 z m -0.29371,-0.19828551 q 0,0.00114 0,0.00171 0,5.713e-4 5.709e-4,0.00171 0,5.714e-4 0,0.00114 0,5.713e-4 0,0.00171 0,0.00114 0,0.00229 0,5.714e-4 5.719e-4,0.00114 5.708e-4,0.00571 0.0023,0.010286 0.0017,0.004 0.0069,0.004 0.0034,0 0.0086,-0.00629 0.0051,-0.00686 0.01314,-0.015429 0.008,-0.008 0.01886,-0.014286 0.01143,-0.00686 0.02743,-0.00686 0.02629,0 0.04286,0.017714 0.01714,0.017714 0.01714,0.045143 0,0.026857 -0.01943,0.046286 -0.01943,0.019429 -0.04743,0.019429 -0.0057,0 -0.01029,-5.713e-4 -0.0046,-0.00114 -0.0091,-0.00343 -0.0063,-0.00229 -0.01314,-0.00743 -0.0063,-0.00571 -0.01543,-0.014286 -0.0017,-0.00171 -0.0034,-0.00286 -0.0017,-0.00171 -0.0029,-0.00229 -0.0011,0 -0.0023,0 -0.0011,-5.714e-4 -0.0023,-5.714e-4 -0.0074,0 -0.01029,0.00914 -0.0023,0.00857 -0.0023,0.037143 0,0.046286 0.0029,0.058286 0.0034,0.011428 0.01829,0.016571 5.708e-4,0 0.0011,5.715e-4 5.708e-4,0 0.0011,0 0.012,0.00343 0.01829,0.010286 0.0069,0.00686 0.0069,0.016 0,0.021143 -0.02343,0.028571 -0.02343,0.00743 -0.08743,0.00743 -0.04857,0 -0.072,-0.00857 -0.02343,-0.00857 -0.02343,-0.026857 0,-0.00514 0.0017,-0.00914 0.0017,-0.00457 0.0051,-0.00857 0.0023,-0.00171 0.0046,-0.00343 0.0029,-0.00229 0.0057,-0.00457 5.708e-4,-5.715e-4 0.0011,-5.715e-4 5.708e-4,-5.715e-4 0.0011,-0.00114 0.01029,-0.00743 0.01314,-0.019429 0.0029,-0.012571 0.0034,-0.048 5.708e-4,-0.020572 5.708e-4,-0.032 0,-0.012 0,-0.014286 0,-0.014857 -0.0051,-0.02 -0.0051,-0.00571 -0.01143,-0.00857 -0.0011,-5.714e-4 -0.0017,-5.714e-4 -5.719e-4,-5.713e-4 -0.0011,-5.713e-4 -0.0057,-0.00286 -0.01029,-0.00629 -0.004,-0.004 -0.004,-0.013714 0,-0.016571 0.02171,-0.028 0.02229,-0.011429 0.04857,-0.017714 0.01886,-0.00514 0.036,-0.00743 0.01771,-0.00229 0.02686,-0.00229 0.01257,0 0.01657,0.004 0.004,0.00343 0.0051,0.016 z M 5.4522035,1.1163568 H 5.3213459 q -0.0046,5.714e-4 -0.0069,0.00229 -0.0017,0.00171 -0.0017,0.00571 0,0.017143 0.01371,0.029714 0.01371,0.012571 0.02971,0.017714 0.0046,0.00114 0.0091,0.00229 0.0051,5.714e-4 0.0091,5.714e-4 0.0051,0 0.01086,-5.714e-4 0.0063,-0.00114 0.01257,-0.00286 0.0091,-0.00229 0.01771,-0.00571 0.0091,-0.004 0.01543,-0.00857 0.0046,-0.00286 0.0069,-0.004 0.0023,-0.00171 0.0046,-0.00229 5.719e-4,-5.713e-4 0.0011,-5.713e-4 0.0011,0 0.0023,0 0.0069,0 0.012,0.00571 0.0051,0.00571 0.008,0.012571 5.718e-4,0.00286 0.0011,0.00514 5.718e-4,0.00229 5.718e-4,0.00457 0,0.00971 -0.0063,0.019429 -0.0063,0.00914 -0.01886,0.018857 -0.02229,0.016571 -0.04857,0.024572 -0.02571,0.008 -0.056,0.008 -0.06057,0 -0.102857,-0.039429 -0.04171,-0.04 -0.04171,-0.097143 0,-0.062286 0.04343,-0.1051429 0.04343,-0.043429 0.1057141,-0.043429 0.02857,0 0.05143,0.00743 0.02343,0.00743 0.04229,0.022857 0.01314,0.010286 0.02286,0.024572 0.0097,0.013714 0.01486,0.028 0.0023,0.00743 0.0034,0.014286 0.0017,0.00686 0.0017,0.013143 0,0.019429 -0.0074,0.031429 -0.0069,0.011429 -0.01943,0.011429 z m -0.1239996,-0.052 h 0.02857 q 0.0091,5.714e-4 0.01314,-0.00343 0.0046,-0.004 0.0046,-0.012571 0,-0.014857 -0.0086,-0.024572 -0.0086,-0.00971 -0.02229,-0.00971 -0.01314,0 -0.02343,0.010857 -0.0097,0.010286 -0.0097,0.024571 0,0.00857 0.004,0.012 0.004,0.00343 0.01371,0.00343 z m -0.233143,-0.028 v 0.094286 q 0,0.017143 0.008,0.028 0.0086,0.010857 0.02114,0.010857 0.01086,0 0.01543,-0.00171 0.0051,-0.00229 0.008,-0.00457 5.718e-4,-5.713e-4 0.0011,-0.00114 5.708e-4,-5.714e-4 0.0011,-5.714e-4 0.0017,-0.00229 0.004,-0.00343 0.0029,-0.00114 0.0074,-0.00114 0.0063,0 0.01029,0.00514 0.0046,0.00514 0.0063,0.011429 0.0011,0.00229 0.0011,0.00457 5.718e-4,0.00229 5.718e-4,0.00457 0,0.021714 -0.02114,0.036571 -0.02057,0.014286 -0.04571,0.021714 -0.01371,0.004 -0.02686,0.00571 -0.01314,0.00229 -0.02286,0.00229 -0.04343,0 -0.07029,-0.025143 -0.02686,-0.025143 -0.02686,-0.066286 V 1.0283568 q 0,-0.00571 -0.0017,-0.00743 -0.0017,-0.00171 -0.008,-0.00171 l -0.02857,-5.713e-4 q -0.008,5.713e-4 -0.0097,-0.00229 -0.0023,-0.00286 -0.0023,-0.012 l -5.718e-4,-0.013143 q 5.718e-4,0 5.718e-4,-5.714e-4 0,-5.715e-4 0,-0.00114 5.709e-4,-0.00286 0.0023,-0.00571 0.0011,-0.00286 0.0034,-0.004 l 0.127991,-0.081149 q 0.0023,-5.714e-4 0.0046,-0.00114 0.0029,-5.714e-4 0.0069,-5.714e-4 l 0.02286,-5.714e-4 q 0.0069,5.714e-4 0.0091,0.004 0.0023,0.00286 0.0023,0.012 v 0.037714 q 0,0.00857 0.0023,0.011429 0.0029,0.00229 0.012,0.00229 l 0.05143,-5.713e-4 q 0.01029,5.713e-4 0.01314,0.00457 0.0034,0.00343 0.0034,0.016 v 0.016 q 0,0.013714 -0.004,0.018857 -0.004,0.00514 -0.01429,0.00514 l -0.05029,-5.714e-4 q -0.0074,5.714e-4 -0.01086,0.00343 -0.0029,0.00229 -0.0029,0.010286 z m -0.2142859,-0.016 v 0.089143 0.044571 q 0,0.021143 0.0029,0.028571 0.0034,0.00743 0.01257,0.012 0.0023,0.00114 0.004,0.00229 0.0023,5.714e-4 0.004,0.00171 0.0057,0.00286 0.0074,0.00629 0.0017,0.00343 0.0017,0.00914 0,0.019429 -0.02057,0.026286 -0.02,0.00686 -0.07314,0.00686 -0.05086,0 -0.07371,-0.008 -0.02229,-0.008 -0.02229,-0.026286 0,-0.00857 0.0057,-0.012571 0.0057,-0.004 0.01257,-0.00686 0.01143,-0.00457 0.01486,-0.030286 0.0034,-0.026286 0.0034,-0.099429 0,-0.068 -0.004,-0.087429 -0.004,-0.019429 -0.01943,-0.028571 -0.004,-0.00229 -0.0069,-0.004 -0.0029,-0.00229 -0.0051,-0.00457 -0.0046,-0.004 -0.0069,-0.00857 -0.0017,-0.00457 -0.0017,-0.010286 0,-0.018857 0.02457,-0.030857 0.02457,-0.012571 0.05371,-0.019429 0.02171,-0.00457 0.04114,-0.00686 0.01943,-0.00229 0.02971,-0.00229 0.01143,0 0.01657,0.00686 0.0057,0.00629 0.0057,0.020572 0,0.00343 -5.708e-4,0.013714 -5.719e-4,0.010286 -0.0023,0.027429 -0.0011,0.011428 -0.0023,0.022857 -5.719e-4,0.011429 -5.719e-4,0.022857 -5.708e-4,0.011429 -0.0011,0.022857 0,0.011429 0,0.022857 z m -0.2045711,0.096 h -0.130857 q -0.0046,5.714e-4 -0.0069,0.00229 -0.0017,0.00171 -0.0017,0.00571 0,0.017143 0.01371,0.029714 0.01371,0.012571 0.02971,0.017714 0.0046,0.00114 0.0091,0.00229 0.0051,5.714e-4 0.0091,5.714e-4 0.0051,0 0.01086,-5.714e-4 0.0063,-0.00114 0.01257,-0.00286 0.0091,-0.00229 0.01771,-0.00571 0.0091,-0.004 0.01543,-0.00857 0.0046,-0.00286 0.0069,-0.004 0.0023,-0.00171 0.0046,-0.00229 5.709e-4,-5.713e-4 0.0011,-5.713e-4 0.0011,0 0.0023,0 0.0069,0 0.012,0.00571 0.0051,0.00571 0.008,0.012571 5.708e-4,0.00286 0.0011,0.00514 5.708e-4,0.00229 5.708e-4,0.00457 0,0.00971 -0.0063,0.019429 -0.0063,0.00914 -0.01886,0.018857 -0.02229,0.016571 -0.04857,0.024572 -0.02571,0.008 -0.056,0.008 -0.06057,0 -0.102857,-0.039429 -0.04171,-0.04 -0.04171,-0.097143 0,-0.062286 0.04343,-0.1051429 0.04343,-0.043429 0.1057141,-0.043429 0.02857,0 0.05143,0.00743 0.02343,0.00743 0.04229,0.022857 0.01314,0.010286 0.02286,0.024572 0.0097,0.013714 0.01486,0.028 0.0023,0.00743 0.0034,0.014286 0.0017,0.00686 0.0017,0.013143 0,0.019429 -0.0074,0.031429 -0.0069,0.011429 -0.01943,0.011429 z m -0.124,-0.052 h 0.02857 q 0.0091,5.714e-4 0.01314,-0.00343 0.0046,-0.004 0.0046,-0.012571 0,-0.014857 -0.0086,-0.024572 -0.0086,-0.00971 -0.02229,-0.00971 -0.01314,0 -0.02343,0.010857 -0.0097,0.010286 -0.0097,0.024571 0,0.00857 0.004,0.012 0.004,0.00343 0.01371,0.00343 z m -0.370285,0.079429 q 0,0.00343 0,0.00629 5.708e-4,0.00286 5.708e-4,0.00629 0,0.00114 0,0.00286 0,0.00171 0,0.00343 0,0.00914 0.0017,0.017714 0.0017,0.00857 0.008,0.015429 5.719e-4,5.714e-4 0.0011,0.00171 5.719e-4,5.714e-4 0.0011,0.00114 0,0 0,0 5.719e-4,0 5.719e-4,0 0.0029,0.004 0.0057,0.00857 0.0029,0.004 0.0029,0.00914 0,0.016 -0.02114,0.023429 -0.02057,0.00743 -0.06171,0.00743 -0.048,0 -0.072,-0.008 -0.023429,-0.008 -0.023429,-0.024 0,-0.008 0.00457,-0.012571 0.00514,-0.00514 0.010857,-0.00971 0,0 0,0 5.709e-4,0 5.709e-4,0 5.718e-4,-5.713e-4 0.00114,-5.713e-4 5.718e-4,-5.714e-4 0.00114,-0.00114 0.00857,-0.00629 0.012571,-0.027429 0.00457,-0.021143 0.00514,-0.063429 5.719e-4,-0.024571 5.719e-4,-0.034857 5.718e-4,-0.010857 5.718e-4,-0.018857 0,-0.00114 0,-0.00286 0,-0.00171 0,-0.00343 0,-0.064 -0.00286,-0.080572 -0.00286,-0.016571 -0.016,-0.022857 -0.00914,-0.00457 -0.013143,-0.00971 -0.004,-0.00514 -0.004,-0.011428 0,-0.016 0.022857,-0.026857 0.023429,-0.011429 0.050857,-0.018286 0.02171,-0.00457 0.04057,-0.00686 0.01943,-0.00286 0.028,-0.00286 0.0097,0 0.01314,0.00286 0.0034,0.00286 0.0034,0.010857 l -0.0034,0.11657154 q 0,0.010857 0.0034,0.016571 0.0034,0.00514 0.0097,0.00514 0.0046,0 0.01029,-0.00743 0.0063,-0.008 0.01543,-0.017143 0.0097,-0.00914 0.02343,-0.016571 0.01429,-0.008 0.03543,-0.008 0.02114,0 0.04,0.00743 0.01943,0.00743 0.03086,0.02 0.01257,0.012571 0.01714,0.028571 0.0046,0.016 0.0051,0.046857 l 0.0023,0.1005715 q 5.708e-4,0.010286 0.0029,0.017714 0.0029,0.00686 0.0074,0.010857 0.0011,5.713e-4 0.0017,0.00171 0.0011,5.714e-4 0.0017,0.00114 0.0051,0.00343 0.0091,0.00857 0.004,0.00457 0.004,0.010857 0,0.014857 -0.02229,0.022286 -0.02229,0.00686 -0.06743,0.00686 -0.04114,0 -0.06171,-0.00629 -0.02057,-0.00686 -0.02057,-0.020572 0,-0.00514 0.0023,-0.00914 0.0023,-0.004 0.0057,-0.008 0,-5.715e-4 0,-5.715e-4 0,0 0,0 5.708e-4,-0.00114 0.0011,-0.00171 0.0011,-0.00114 0.0017,-0.00229 0.0063,-0.008 0.0091,-0.025143 0.0029,-0.017714 0.0029,-0.050286 0,-0.042857 -0.0097,-0.060571 -0.0091,-0.018286 -0.03086,-0.018286 -0.016,0 -0.02343,0.010857 -0.0069,0.010286 -0.0069,0.035429 V 1.143782 Z M 3.9207766,0.86721375 q 0.00114,0 0.00229,0 0.00171,-5.714e-4 0.00286,-0.00114 5.708e-4,-5.714e-4 5.708e-4,-5.714e-4 5.719e-4,0 0.00114,0 0.00343,-0.00171 0.00686,-0.00229 0.00343,-0.00114 0.00686,-0.00114 0.015429,0 0.029143,0.016 0.013714,0.015429 0.021714,0.034286 0.00457,0.010286 0.00686,0.019429 0.00229,0.00914 0.00229,0.016571 0,0.015429 -0.00914,0.026286 -0.00914,0.010857 -0.022857,0.010857 -0.00686,0 -0.013714,-0.00286 -0.00629,-0.00286 -0.012571,-0.00743 -0.00629,-0.00457 -0.012,-0.00971 -0.00571,-0.00571 -0.012,-0.011429 -0.013143,-0.011429 -0.028571,-0.021143 -0.015429,-0.00971 -0.035429,-0.00971 -0.016,0 -0.025714,0.00743 -0.00914,0.00686 -0.00914,0.02 0,0.014857 0.014857,0.023429 0.014857,0.00857 0.036571,0.015429 0.00971,0.00343 0.020571,0.00686 0.010857,0.00343 0.022286,0.00743 0.034857,0.013143 0.064,0.037143 0.029714,0.023429 0.029714,0.073143 0,0.059429 -0.049143,0.097143 -0.049143,0.037714 -0.1262858,0.037714 -0.00743,0 -0.015429,-5.714e-4 -0.00743,0 -0.014857,-5.714e-4 -0.036571,-0.00343 -0.068572,-0.012 -0.031429,-0.00857 -0.041714,-0.019429 -0.008,-0.00743 -0.015429,-0.024 -0.00686,-0.017143 -0.010286,-0.035429 -0.00229,-0.00857 -0.00343,-0.016571 -5.719e-4,-0.008 -5.719e-4,-0.015429 0,-0.014857 0.00571,-0.022857 0.00629,-0.008 0.017143,-0.008 0.011429,0 0.02,0.00914 0.00914,0.00914 0.016,0.020571 0.00343,0.00571 0.00629,0.011429 0.00286,0.00514 0.00571,0.00914 0.010286,0.015429 0.031429,0.025714 0.021714,0.00971 0.045714,0.010286 5.718e-4,0 0.00114,0 0.00114,0 0.00171,0 0.02,0 0.032571,-0.00743 0.013143,-0.00743 0.013143,-0.018857 0,-0.013143 -0.012,-0.020572 -0.012,-0.008 -0.030857,-0.014857 -0.010286,-0.004 -0.022286,-0.008 -0.012,-0.00457 -0.024571,-0.00971 -0.013714,-0.00571 -0.027429,-0.013143 -0.013714,-0.008 -0.025143,-0.018286 -0.014286,-0.013143 -0.024571,-0.028 -0.010286,-0.015428 -0.014857,-0.031428 -0.00229,-0.00686 -0.00343,-0.0137141 -0.00114,-0.00686 -0.00114,-0.013143 0,-0.054857 0.045143,-0.092572 0.045714,-0.037714 0.1120001,-0.037714 0.014286,0 0.026857,0.00286 0.013143,0.00229 0.024,0.00514 0.010857,0.00286 0.019429,0.00571 0.00914,0.00229 0.014857,0.00229 5.719e-4,0 0.00114,0 0.00114,0 0.00171,-5.714e-4 5.719e-4,0 0.00114,0 0.00114,-5.715e-4 0.00171,-5.715e-4 z M 3.6127763,1.0203568 v 0.089143 0.044571 q 0,0.021143 0.00286,0.028571 0.00343,0.00743 0.012571,0.012 0.00229,0.00114 0.004,0.00229 0.00229,5.714e-4 0.004,0.00171 0.00571,0.00286 0.00743,0.00629 0.00171,0.00343 0.00171,0.00914 0,0.019429 -0.020571,0.026286 -0.02,0.00686 -0.073143,0.00686 -0.050857,0 -0.073714,-0.008 -0.022286,-0.008 -0.022286,-0.026286 0,-0.00857 0.00571,-0.012571 0.00571,-0.004 0.012571,-0.00686 0.011429,-0.00457 0.014857,-0.030286 0.00343,-0.026286 0.00343,-0.099429 0,-0.068 -0.004,-0.087429 -0.004,-0.019429 -0.019429,-0.028571 -0.004,-0.00229 -0.00686,-0.004 -0.00286,-0.00229 -0.00514,-0.00457 -0.00457,-0.004 -0.00686,-0.00857 -0.00171,-0.00457 -0.00171,-0.010286 0,-0.018857 0.024571,-0.030857 0.024571,-0.012571 0.053714,-0.019429 0.021714,-0.00457 0.041143,-0.00686 0.019429,-0.00229 0.029714,-0.00229 0.011429,0 0.016572,0.00686 0.00571,0.00629 0.00571,0.020572 0,0.00343 -5.719e-4,0.013714 -5.719e-4,0.010286 -0.00229,0.027429 -0.00114,0.011428 -0.00229,0.022857 -5.719e-4,0.011429 -5.719e-4,0.022857 -5.718e-4,0.011429 -0.00114,0.022857 0,0.011429 0,0.022857 z m -0.209714,0.047429 q 0,0.00514 0,0.010286 0,0.00457 0,0.00914 -5.718e-4,0.00457 -5.718e-4,0.00971 0,0.00457 0,0.00914 0,0.034857 0.004,0.049714 0.00457,0.014857 0.013714,0.016571 0.00629,5.714e-4 0.010286,0.00286 0.00457,0.00229 0.00457,0.00971 0,0.021714 -0.017714,0.037714 -0.017143,0.016 -0.038286,0.021714 -0.00686,0.00229 -0.013714,0.00343 -0.00629,0.00114 -0.012,0.00114 -0.014286,0 -0.023429,-0.004 -0.00914,-0.004 -0.014857,-0.00914 -0.00514,-0.004 -0.00857,-0.00743 -0.00343,-0.00343 -0.00686,-0.00514 -0.00114,-5.714e-4 -0.00229,-5.714e-4 -5.719e-4,-5.714e-4 -0.00171,-5.714e-4 -0.00343,0 -0.010286,0.00457 -0.00686,0.004 -0.017143,0.00914 -0.00971,0.00514 -0.022286,0.00914 -0.012571,0.004 -0.028,0.004 -0.04,0 -0.065714,-0.020571 -0.025714,-0.020571 -0.025714,-0.053143 0,-0.041143 0.029714,-0.060571 0.029714,-0.02 0.065714,-0.026286 0.00914,-0.00114 0.018286,-0.00171 0.00971,-0.00114 0.018857,-0.00114 0.016571,-5.714e-4 0.020571,-0.00343 0.004,-0.00286 0.004,-0.015429 0,-0.028571 -0.00629,-0.041714 -0.00629,-0.013714 -0.019429,-0.013714 -0.00971,0 -0.017143,0.00629 -0.00686,0.00629 -0.013714,0.014857 -0.00114,0.00171 -0.00286,0.004 -0.00171,0.00229 -0.00343,0.004 -0.00857,0.011429 -0.018857,0.020571 -0.010286,0.00914 -0.026286,0.00914 -0.013714,0 -0.022857,-0.008 -0.00914,-0.008 -0.00914,-0.019429 0,-0.025714 0.024571,-0.042286 0.025143,-0.017143 0.054857,-0.026286 0.016571,-0.00514 0.032571,-0.00743 0.016572,-0.00286 0.028,-0.00286 0.028,0 0.049143,0.00629 0.021714,0.00571 0.038286,0.018286 5.719e-4,5.714e-4 5.719e-4,0.00114 5.719e-4,0 0.00114,0 0.017714,0.013714 0.024,0.030286 0.00629,0.016 0.00629,0.048571 z m -0.1634288,0.091429 q 0,0.013143 0.00629,0.021714 0.00686,0.00857 0.017143,0.00857 0.011429,0 0.016572,-0.00914 0.00571,-0.00971 0.00571,-0.029143 0,-0.014857 -0.00343,-0.020571 -0.00286,-0.00571 -0.012,-0.00571 -0.012571,0 -0.021714,0.010286 -0.00857,0.010286 -0.00857,0.024571 z m -0.3308566,-0.041143 5.719e-4,0.028 q 5.719e-4,0.02 0.00229,0.030286 0.00229,0.010286 0.008,0.018286 5.719e-4,5.714e-4 0.00114,0.00171 5.719e-4,5.714e-4 0.00114,0.00171 5.719e-4,5.714e-4 5.719e-4,0.00114 5.718e-4,0 5.718e-4,5.714e-4 0.00229,0.00343 0.004,0.00686 0.00171,0.00286 0.00171,0.00743 0,0.017143 -0.021714,0.025143 -0.021714,0.008 -0.066286,0.008 -0.046857,0 -0.065143,-0.00629 -0.018286,-0.00629 -0.018286,-0.022857 0,-0.00686 0.00171,-0.010286 0.00229,-0.00343 0.00571,-0.00571 0.00114,-0.00114 0.00229,-0.00229 0.00171,-0.00114 0.00286,-0.00286 0.00457,-0.004 0.008,-0.013143 0.004,-0.00971 0.00457,-0.030286 0,-0.004 0,-0.008 5.708e-4,-0.00457 5.708e-4,-0.00857 5.719e-4,-0.008 5.719e-4,-0.016571 5.719e-4,-0.00857 5.719e-4,-0.016571 0,-0.028571 -0.00686,-0.041714 -0.00686,-0.013143 -0.021714,-0.013143 -0.016571,0 -0.022286,0.017714 -0.00571,0.017143 -0.00571,0.071429 l 5.718e-4,0.023428 q 5.719e-4,0.011429 0.00229,0.018857 0.00229,0.00743 0.00514,0.012571 0.00171,0.004 0.00286,0.00686 0.00171,0.00286 0.00286,0.00571 5.709e-4,0.00229 0.00114,0.00514 5.719e-4,0.00229 5.719e-4,0.00457 0,0.016 -0.022857,0.024 -0.022286,0.008 -0.064572,0.008 -0.041714,0 -0.062286,-0.00629 -0.02,-0.00686 -0.02,-0.021143 0,-0.00286 0,-0.00457 5.719e-4,-0.00171 0.00114,-0.00343 0.00114,-0.00286 0.004,-0.00571 0.00343,-0.00343 0.00971,-0.00857 0.010286,-0.00971 0.013714,-0.030857 0.004,-0.021143 0.004,-0.072572 0,-0.026857 -0.00457,-0.037714 -0.004,-0.011429 -0.00857,-0.016 -0.00171,-0.00171 -0.00343,-0.00286 -0.00171,-0.00114 -0.00286,-0.00229 -0.00343,-0.00229 -0.00571,-0.00514 -0.00171,-0.00286 -0.00171,-0.00914 0,-0.00743 0.004,-0.013143 0.004,-0.00571 0.014857,-0.011428 0.00914,-0.00457 0.024571,-0.00971 0.015429,-0.00514 0.038286,-0.011429 0.013143,-0.00343 0.026857,-0.00629 0.013714,-0.00286 0.027429,-0.00286 0.008,0 0.011429,0.00571 0.00343,0.00514 0.00343,0.016571 0,0.00114 0,0.00286 0,0.00114 0,0.00229 -5.718e-4,0.00171 -5.718e-4,0.00343 0,0.00114 0,0.00229 0,0.00743 0.00229,0.012 0.00229,0.00457 0.00629,0.00457 0.00286,0 0.010286,-0.00743 0.00743,-0.008 0.019429,-0.017714 0.012571,-0.00914 0.029714,-0.016571 0.017143,-0.008 0.039429,-0.008 0.023429,0 0.04,0.00857 0.017143,0.00857 0.025714,0.025143 0.00286,0.00514 0.00457,0.008 0.00229,0.00286 0.004,0.004 5.719e-4,0 0.00114,5.714e-4 0.00114,0 0.00229,0 0.00171,0 0.00971,-0.00686 0.008,-0.00743 0.020571,-0.016571 0.012571,-0.00857 0.029143,-0.015429 0.016571,-0.00743 0.035429,-0.00743 0.04,0 0.062286,0.021143 0.022286,0.021143 0.022286,0.06 0,0.00914 -5.718e-4,0.018286 0,0.00914 0,0.018286 0,0.00914 -5.709e-4,0.018286 0,0.00914 0,0.018286 0,0.012 0,0.020571 0,0.00857 -5.718e-4,0.013714 0,0.010857 0.00171,0.020571 0.00171,0.00971 0.00914,0.018857 5.718e-4,5.714e-4 0.00114,0.00114 5.718e-4,5.714e-4 0.00114,0.00171 0.00286,0.00286 0.00514,0.00686 0.00286,0.00343 0.00286,0.008 0,0.017714 -0.021714,0.026857 -0.021714,0.00857 -0.062857,0.00857 -0.036571,0 -0.059429,-0.00857 -0.022857,-0.00857 -0.022857,-0.022857 0,-0.00571 0.00286,-0.010286 0.00286,-0.00514 0.00571,-0.00971 0.00114,-0.00114 0.00171,-0.00229 0.00114,-0.00114 0.00171,-0.00229 0.00457,-0.00629 0.00629,-0.023429 0.00229,-0.017143 0.00229,-0.050857 0,-0.040572 -0.00629,-0.056 -0.00571,-0.016 -0.022286,-0.016 -0.015429,0 -0.022286,0.010857 -0.00686,0.010286 -0.00686,0.034857 l -5.719e-4,0.027429 z M 2.52992,0.98264249 V 1.1449283 q 0,0.018286 0.00286,0.026857 0.00343,0.00857 0.011429,0.015429 5.719e-4,5.714e-4 0.00114,0.00171 0.00114,5.714e-4 0.00229,0.00114 0.00457,0.00343 0.00743,0.00629 0.00286,0.00229 0.00457,0.00457 0.00171,0.00229 0.00229,0.00514 5.719e-4,0.00229 5.719e-4,0.00571 0,0.017714 -0.022857,0.026857 -0.022857,0.00857 -0.067429,0.00857 -0.052571,0 -0.077143,-0.00743 -0.024,-0.00743 -0.024,-0.024571 0,-0.00914 0.00514,-0.014286 0.00514,-0.00571 0.011429,-0.010286 5.719e-4,0 5.719e-4,0 0,-5.713e-4 0,-5.713e-4 5.708e-4,-5.714e-4 5.708e-4,-5.714e-4 5.719e-4,-5.715e-4 0.00114,-5.715e-4 0.00914,-0.00629 0.012571,-0.020571 0.00343,-0.014857 0.00343,-0.042857 0,-0.00457 0,-0.00914 0,-0.00457 -5.718e-4,-0.00971 0,-0.00457 -5.719e-4,-0.00914 0,-0.00457 0,-0.00914 0,-0.00229 0,-0.004 0,-0.00171 0,-0.00343 -0.00114,-0.016571 -0.00229,-0.021714 -5.709e-4,-0.00571 -0.004,-0.00914 -5.709e-4,-5.713e-4 -0.00114,-5.713e-4 -5.719e-4,-5.714e-4 -0.00114,-0.00114 -0.00171,-0.00114 -0.004,-0.00229 -0.00171,-0.00171 -0.004,-0.00229 -5.709e-4,-5.714e-4 -0.00114,-5.714e-4 -5.719e-4,-5.713e-4 -5.719e-4,-5.713e-4 -0.00686,-0.00343 -0.012,-0.00743 -0.00457,-0.00457 -0.00457,-0.013714 0,-0.00914 0.00629,-0.016 0.00629,-0.00743 0.022857,-0.013714 0.00914,-0.004 0.021714,-0.00743 0.013143,-0.004 0.030286,-0.008 0.018857,-0.00457 0.034286,-0.00686 0.016,-0.00286 0.028571,-0.00343 0.008,0 0.012,0.00457 0.004,0.00457 0.004,0.012571 z M 2.472777,0.86035665 q 0.004,5.714e-4 0.00857,0.00114 0.00514,0 0.00971,0.00114 0.013714,0.00229 0.025143,0.00971 0.011429,0.00743 0.011429,0.022857 0,0.022286 -0.029714,0.037714 -0.029714,0.015429 -0.073714,0.015429 -0.021714,0 -0.035429,-0.00914 -0.013714,-0.00971 -0.013714,-0.025143 0,-0.021143 0.028,-0.036571 0.028571,-0.015429 0.069714,-0.016571 z m -0.1428569,0.20628585 0.004,0.097714 q 0,0.008 0.00229,0.014286 0.00229,0.00629 0.00629,0.010857 0.00114,0.00114 0.00171,0.00229 0.00114,5.714e-4 0.00229,0.00171 0,0 0,0 0,0 5.719e-4,5.714e-4 0.004,0.004 0.00743,0.00914 0.004,0.00457 0.004,0.011429 0,0.018857 -0.022286,0.025714 -0.021714,0.00686 -0.081143,0.00686 -0.035429,0 -0.052,-0.00629 -0.016,-0.00686 -0.016,-0.022286 0,-0.00514 0.00229,-0.00914 0.00229,-0.004 0.00571,-0.00743 5.708e-4,-5.714e-4 0.00114,-0.00114 5.718e-4,-5.714e-4 0.00114,-0.00114 5.708e-4,-5.714e-4 0.00114,-0.00114 5.718e-4,-0.00114 0.00114,-0.00171 0.00514,-0.00514 0.008,-0.025714 0.00343,-0.020571 0.00343,-0.050857 0,-0.039429 -0.00857,-0.056 -0.008,-0.017143 -0.028,-0.017143 -0.017714,0 -0.025143,0.012 -0.00686,0.012 -0.00686,0.043429 v 0.054857 q 0,0.012 0.00114,0.018857 0.00114,0.00686 0.00514,0.013143 0,5.713e-4 5.719e-4,0.00171 5.719e-4,5.714e-4 0.00114,0.00114 5.719e-4,0.00114 0.00114,0.00229 0.00114,0.00114 0.00171,0.00229 0.00343,0.004 0.00571,0.00857 0.00229,0.00457 0.00229,0.00971 0,0.016571 -0.022857,0.024571 -0.022286,0.00743 -0.070857,0.00743 -0.038857,0 -0.058286,-0.00743 -0.019429,-0.00743 -0.019429,-0.022857 0,-0.00457 0,-0.00686 5.708e-4,-0.00286 0.00229,-0.00514 0.00171,-0.00171 0.004,-0.004 0.00286,-0.00229 0.00743,-0.00514 0.00857,-0.00629 0.011429,-0.029143 0.00343,-0.023429 0.00343,-0.084 0,-0.018286 -0.00514,-0.025714 -0.00457,-0.008 -0.010857,-0.012 -0.00114,-5.714e-4 -0.00286,-0.00114 -0.00114,-0.00114 -0.00229,-0.00171 -0.00457,-0.00286 -0.008,-0.00629 -0.00286,-0.00343 -0.00286,-0.010286 0,-0.013143 0.021714,-0.025143 0.022286,-0.012 0.048571,-0.02 0.020571,-0.00686 0.038857,-0.010286 0.018857,-0.004 0.026857,-0.004 0.008,0 0.013714,0.00629 0.00571,0.00571 0.00571,0.014286 0,5.713e-4 0,0.00229 0,0.00171 -5.719e-4,0.00457 0,0.00114 0,0.00286 0,0.00114 0,0.00229 5.719e-4,0.00457 0.00286,0.00857 0.00229,0.004 0.008,0.004 0.00457,0 0.010286,-0.00686 0.00571,-0.00743 0.014857,-0.016 0.00914,-0.00857 0.022857,-0.015429 0.014286,-0.00743 0.036,-0.00743 0.017143,0 0.032571,0.00514 0.016,0.00457 0.028,0.013714 5.709e-4,0 5.709e-4,5.714e-4 5.718e-4,0 5.718e-4,5.714e-4 0.017143,0.013143 0.023429,0.030286 0.00686,0.017143 0.00857,0.051429 z m -0.4502859,-0.018286 0.053143,0.1131429 q 0.00286,0.00629 0.00457,0.010857 0.00229,0.004 0.00457,0.00686 0.00343,0.00514 0.00743,0.00743 0.00457,0.00171 0.010857,0.00286 0.00971,0.00114 0.014857,0.00629 0.00571,0.00514 0.00571,0.013143 0,0.021143 -0.024571,0.029714 -0.024,0.00857 -0.08,0.00857 -0.00229,0 -0.00457,0 -0.00171,0 -0.004,0 -0.025714,0 -0.049714,-0.00171 -0.023429,-0.00171 -0.036,-0.00343 -0.013143,-0.00229 -0.021714,-0.00971 -0.00857,-0.00743 -0.00857,-0.017143 0,-0.00857 0.00286,-0.012571 0.00286,-0.004 0.010857,-0.00743 0.00171,-0.00114 0.00343,-0.00171 0.00171,-5.714e-4 0.00343,-0.00114 0.00629,-0.00229 0.00971,-0.00571 0.00343,-0.004 0.00343,-0.00857 0,-0.011429 -0.00743,-0.017143 -0.00686,-0.00571 -0.022857,-0.00629 -0.014286,-0.00114 -0.028571,-0.00171 -0.013714,-0.00114 -0.028,-0.00114 -0.038857,0 -0.049143,0.00514 -0.010286,0.00514 -0.010286,0.024572 0,0.00514 0.004,0.008 0.004,0.00229 0.00971,0.004 5.719e-4,5.713e-4 0.00171,0.00114 0.00114,0 0.00229,5.714e-4 0.00629,0.00229 0.011429,0.00629 0.00571,0.004 0.00571,0.013143 0,0.016571 -0.02,0.024571 -0.02,0.008 -0.060571,0.008 -0.046857,0 -0.066286,-0.00686 -0.018857,-0.00686 -0.018857,-0.024 0,-0.00857 0.00343,-0.013143 0.00343,-0.00457 0.013143,-0.00857 5.718e-4,0 0.00114,0 0.00114,-5.714e-4 0.00229,-0.00114 0.00914,-0.00286 0.015429,-0.00686 0.00686,-0.004 0.012571,-0.012 0.00571,-0.00686 0.011429,-0.018286 0.00629,-0.012 0.014286,-0.030286 l 0.039429,-0.086857 q 0.018857,-0.04 0.026857,-0.062286 0.008,-0.022857 0.00971,-0.041714 0,-0.00343 0,-0.00629 5.719e-4,-0.00286 5.719e-4,-0.00629 5.718e-4,-0.036 0.015429,-0.053143 0.015429,-0.017714 0.046286,-0.017714 0.022286,0 0.041714,0.011429 0.019429,0.011429 0.034857,0.033143 0.016571,0.022857 0.037143,0.061143 0.021143,0.038286 0.045714,0.091429 z m -0.1942859,0.035429 h 0.054857 q 0.008,5.714e-4 0.011429,-5.713e-4 0.00343,-0.00171 0.00343,-0.00514 0,-0.00514 -0.004,-0.014286 -0.004,-0.00971 -0.00971,-0.020571 -0.00229,-0.00457 -0.00514,-0.00914 -0.00286,-0.00457 -0.00571,-0.00857 -0.00629,-0.00914 -0.012,-0.014857 -0.00514,-0.00571 -0.00857,-0.00571 -0.00457,0 -0.008,0.00286 -0.00343,0.00286 -0.00686,0.00971 -5.719e-4,0.00171 -0.00114,0.00343 -5.719e-4,0.00114 -0.00114,0.00286 -0.00171,0.00286 -0.004,0.008 -0.00229,0.00457 -0.00457,0.010286 -0.00114,0.00229 -0.00229,0.00457 -0.00114,0.00229 -0.00171,0.00457 -0.00343,0.00743 -0.00571,0.014286 -0.00171,0.00686 -0.00171,0.011429 0,0.004 0.00229,0.00571 0.00286,0.00171 0.010286,0.00171 z M 1.4739204,1.1163565 H 1.3430631 q -0.00457,5.714e-4 -0.00686,0.00229 -0.00171,0.00171 -0.00171,0.00571 0,0.017143 0.013714,0.029714 0.013714,0.012571 0.029714,0.017714 0.00457,0.00114 0.00914,0.00229 0.00514,5.714e-4 0.00914,5.714e-4 0.00514,0 0.010857,-5.714e-4 0.00629,-0.00114 0.012571,-0.00286 0.00914,-0.00229 0.017714,-0.00571 0.00914,-0.004 0.015429,-0.00857 0.00457,-0.00286 0.00686,-0.004 0.00229,-0.00171 0.00457,-0.00229 5.719e-4,-5.713e-4 0.00114,-5.713e-4 0.00114,0 0.00229,0 0.00686,0 0.012,0.00571 0.00514,0.00571 0.008,0.012571 5.719e-4,0.00286 0.00114,0.00514 5.719e-4,0.00229 5.719e-4,0.00457 0,0.00971 -0.00629,0.019429 -0.00629,0.00914 -0.018857,0.018857 -0.022286,0.016571 -0.048571,0.024572 -0.025714,0.008 -0.056,0.008 -0.060571,0 -0.1028572,-0.039429 -0.041714,-0.04 -0.041714,-0.097143 0,-0.062286 0.043429,-0.105143 0.043429,-0.043429 0.1057144,-0.043429 0.028571,0 0.051429,0.00743 0.023429,0.00743 0.042286,0.022857 0.013143,0.010286 0.022857,0.024572 0.00971,0.013714 0.014857,0.028 0.00229,0.00743 0.00343,0.014286 0.00171,0.00686 0.00171,0.013143 0,0.019429 -0.00743,0.031429 -0.00686,0.011429 -0.019429,0.011429 z m -0.124,-0.052 h 0.028572 q 0.00914,5.714e-4 0.013143,-0.00343 0.00457,-0.004 0.00457,-0.012571 0,-0.014857 -0.00857,-0.024572 -0.00857,-0.00971 -0.022286,-0.00971 -0.013143,0 -0.023429,0.010857 -0.00971,0.010286 -0.00971,0.024571 0,0.00857 0.004,0.012 0.004,0.00343 0.013714,0.00343 z M 1.137349,1.0157855 h 0.034286 q 0.00914,5.714e-4 0.012571,0.00343 0.00343,0.00229 0.00343,0.00857 l -0.00229,0.032571 q -5.714e-4,0.010286 -0.00343,0.013143 -0.00229,0.00286 -0.010857,0.00286 -0.00229,0 -0.00457,0 -0.00171,-5.713e-4 -0.00343,-5.713e-4 -0.00229,0 -0.00457,0 -0.00171,-5.714e-4 -0.004,-5.714e-4 -0.012571,0 -0.017143,0.00743 -0.004,0.00743 -0.004,0.028571 0,0.035429 0.00629,0.050286 0.00629,0.014857 0.022857,0.02 0.013143,0.004 0.018857,0.010857 0.00571,0.00629 0.00571,0.017714 0,0.019429 -0.028571,0.028572 -0.028571,0.00857 -0.090857,0.00857 -0.052,0 -0.076,-0.00914 -0.024,-0.00914 -0.024,-0.028571 0,-0.010857 0.00343,-0.014286 0.004,-0.00343 0.00914,-0.00571 0.00229,-5.715e-4 0.00457,-0.00171 0.00286,-0.00114 0.00514,-0.00229 0.00857,-0.00514 0.015429,-0.021714 0.00686,-0.016572 0.00686,-0.060571 0,-0.013143 -0.00514,-0.019429 -0.00514,-0.00686 -0.018286,-0.00686 -0.014286,0 -0.018286,-0.00114 -0.004,-0.00171 -0.004,-0.00686 v -0.00114 l 0.00229,-0.035429 q 5.7135e-4,-0.00743 0.00457,-0.00971 0.004,-0.00286 0.00857,-0.00343 5.7146e-4,0 0.00114,0 5.7135e-4,0 0.00114,0 0.00457,-5.714e-4 0.008,-0.00171 0.00343,-0.00171 0.00343,-0.008 0,-0.00343 -0.00343,-0.00971 -0.00286,-0.00629 -0.00686,-0.014857 -0.004,-0.00857 -0.00743,-0.018857 -0.00286,-0.010286 -0.00286,-0.021143 0,-0.039429 0.032571,-0.062857 0.033143,-0.024 0.088,-0.024 0.048,0 0.078857,0.02 0.030857,0.019429 0.030857,0.050286 0,0.017143 -0.012571,0.029714 -0.012,0.012 -0.029143,0.012 -0.012572,0 -0.025143,-0.00571 -0.012,-0.00571 -0.021714,-0.016 -0.00171,-0.00229 -0.004,-0.00457 -0.00171,-0.00229 -0.004,-0.00457 -0.00571,-0.00686 -0.013143,-0.012571 -0.00686,-0.00571 -0.016,-0.00571 -0.00743,0 -0.013143,0.00629 -0.00571,0.00571 -0.00571,0.013714 0,0.015429 0.010286,0.024572 0.010857,0.00914 0.024,0.016571 5.714e-4,5.713e-4 0.00114,0.00114 0.00114,0 0.00171,5.713e-4 0.010286,0.00629 0.018857,0.013143 0.00857,0.00629 0.011429,0.016 0,0 0,5.714e-4 5.715e-4,0 5.715e-4,0 0.00114,0.00171 0.00286,0.00229 0.00171,5.713e-4 0.00571,5.713e-4 z m -0.21428546,0.052 q 0,0.00514 0,0.010286 0,0.00457 0,0.00914 -5.7146e-4,0.00457 -5.7146e-4,0.00971 0,0.00457 0,0.00914 0,0.034857 0.004,0.049714 0.00457,0.014857 0.013714,0.016571 0.00629,5.714e-4 0.010286,0.00286 0.00457,0.00229 0.00457,0.00971 0,0.021714 -0.017714,0.037714 -0.017143,0.016 -0.038286,0.021714 -0.00686,0.00229 -0.013714,0.00343 -0.00629,0.00114 -0.012,0.00114 -0.014286,0 -0.023429,-0.004 -0.00914,-0.004 -0.014857,-0.00914 -0.00514,-0.004 -0.00857,-0.00743 -0.00343,-0.00343 -0.00686,-0.00514 -0.00114,-5.714e-4 -0.00229,-5.714e-4 -5.7135e-4,-5.714e-4 -0.00171,-5.714e-4 -0.00343,0 -0.010286,0.00457 -0.00686,0.004 -0.017143,0.00914 -0.00971,0.00514 -0.022286,0.00914 -0.012571,0.004 -0.028,0.004 -0.04,0 -0.065714,-0.020571 -0.025714,-0.020571 -0.025714,-0.053143 0,-0.041143 0.029714,-0.060571 0.029714,-0.02 0.065714,-0.026286 0.00914,-0.00114 0.018286,-0.00171 0.00971,-0.00114 0.018857,-0.00114 0.016571,-5.714e-4 0.020571,-0.00343 0.004,-0.00286 0.004,-0.015429 0,-0.028571 -0.00629,-0.041714 -0.00629,-0.013714 -0.019429,-0.013714 -0.00971,0 -0.017143,0.00629 -0.00686,0.00629 -0.013714,0.014857 -0.00114,0.00171 -0.00286,0.004 -0.00171,0.00229 -0.00343,0.004 -0.00857,0.011429 -0.018857,0.020571 -0.010286,0.00914 -0.026286,0.00914 -0.013714,0 -0.022857,-0.008 -0.00914,-0.008 -0.00914,-0.019429 0,-0.025714 0.024572,-0.042286 0.025143,-0.017143 0.054857,-0.026286 0.016571,-0.00514 0.032571,-0.00743 0.016571,-0.00286 0.028,-0.00286 0.028,0 0.049143,0.00629 0.021714,0.00571 0.038286,0.018286 5.7146e-4,5.714e-4 5.7146e-4,0.00114 5.7135e-4,0 0.00114,0 0.017714,0.013714 0.024,0.030286 0.00629,0.016 0.00629,0.048571 z m -0.1634287,0.091429 q 0,0.013143 0.00629,0.021714 0.00686,0.00857 0.017143,0.00857 0.011429,0 0.016571,-0.00914 0.00571,-0.00971 0.00571,-0.029143 0,-0.014857 -0.00343,-0.020571 -0.00286,-0.00571 -0.012,-0.00571 -0.012571,0 -0.021714,0.010286 -0.00857,0.010286 -0.00857,0.024571 z M 0.53963545,0.86721375 q 0.00114,0 0.00229,0 0.00171,-5.714e-4 0.00286,-0.00114 5.7135e-4,-5.714e-4 5.7135e-4,-5.714e-4 5.7146e-4,0 0.00114,0 0.00343,-0.00171 0.00686,-0.00229 0.00343,-0.00114 0.00686,-0.00114 0.015429,0 0.029143,0.016 0.013714,0.015429 0.021714,0.034286 0.00457,0.010286 0.00686,0.019429 0.00229,0.00914 0.00229,0.016571 0,0.015429 -0.00914,0.026286 -0.00914,0.010857 -0.022857,0.010857 -0.00686,0 -0.013714,-0.00286 -0.00629,-0.00286 -0.012571,-0.00743 -0.00629,-0.00457 -0.012,-0.00971 -0.00571,-0.00571 -0.012,-0.011429 -0.013143,-0.011429 -0.028572,-0.021143 -0.015429,-0.00971 -0.035429,-0.00971 -0.016,0 -0.025714,0.00743 -0.00914,0.00686 -0.00914,0.02 0,0.014857 0.014857,0.023429 0.014857,0.00857 0.036571,0.015429 0.00971,0.00343 0.020571,0.00686 0.010857,0.00343 0.022286,0.00743 0.034857,0.013143 0.064,0.037143 0.029714,0.023429 0.029714,0.073143 0,0.059429 -0.049143,0.097143 -0.049143,0.037714 -0.1262858,0.037714 -0.00743,0 -0.015429,-5.714e-4 -0.00743,0 -0.014857,-5.714e-4 -0.036571,-0.00343 -0.068571,-0.012 -0.031429,-0.00857 -0.041714,-0.019429 -0.008,-0.00743 -0.015429,-0.024 -0.00686,-0.017143 -0.010286,-0.035429 -0.00229,-0.00857 -0.00343,-0.016571 -5.715e-4,-0.008 -5.715e-4,-0.015429 0,-0.014857 0.00571,-0.022857 0.00629,-0.008 0.017143,-0.008 0.011429,0 0.02,0.00914 0.00914,0.00914 0.016,0.020571 0.00343,0.00571 0.00629,0.011429 0.00286,0.00514 0.00571,0.00914 0.010286,0.015429 0.031429,0.025714 0.021714,0.00971 0.045714,0.010286 5.7146e-4,0 0.00114,0 0.00114,0 0.00171,0 0.02,0 0.032571,-0.00743 0.013143,-0.00743 0.013143,-0.018857 0,-0.013143 -0.012,-0.020572 -0.012,-0.008 -0.030857,-0.014857 -0.010286,-0.004 -0.022286,-0.008 -0.012,-0.00457 -0.024571,-0.00971 -0.013714,-0.00571 -0.027429,-0.013143 -0.013714,-0.008 -0.025143,-0.018286 -0.014286,-0.013143 -0.024571,-0.028 -0.010286,-0.015428 -0.014857,-0.031428 -0.00229,-0.00686 -0.00343,-0.0137141 -0.00114,-0.00686 -0.00114,-0.013143 0,-0.054857 0.045143,-0.092572 0.045714,-0.037714 0.11200009,-0.037714 0.014286,0 0.026857,0.00286 0.013143,0.00229 0.024,0.00514 0.010857,0.00286 0.019429,0.00571 0.00914,0.00229 0.014857,0.00229 5.7136e-4,0 0.00114,0 0.00114,0 0.00171,-5.714e-4 5.7136e-4,0 0.00114,0 0.00114,-5.715e-4 0.00171,-5.715e-4 z" />
  </g>
</svg>
