<?xml version="1.0" encoding="UTF-8" standalone="no"?>
<svg
   xmlns:dc="http://purl.org/dc/elements/1.1/"
   xmlns:cc="http://creativecommons.org/ns#"
   xmlns:rdf="http://www.w3.org/1999/02/22-rdf-syntax-ns#"
   xmlns:svg="http://www.w3.org/2000/svg"
   xmlns="http://www.w3.org/2000/svg"
   xmlns:sodipodi="http://sodipodi.sourceforge.net/DTD/sodipodi-0.dtd"
   xmlns:inkscape="http://www.inkscape.org/namespaces/inkscape"
   width="12in"
   height="12in"
   viewBox="0 0 12 12"
   version="1.1"
   id="svg8"
   inkscape:version="1.0.1 (3bc2e813f5, 2020-09-07)"
   sodipodi:docname="SAFE Animal Shelter Logo with weed lines.svg">
  <defs
     id="defs2" />
  <sodipodi:namedview
     id="base"
     pagecolor="#ffffff"
     bordercolor="#666666"
     borderopacity="1.0"
     inkscape:pageopacity="0.0"
     inkscape:pageshadow="2"
     inkscape:zoom="1.0729879"
     inkscape:cx="521.75096"
     inkscape:cy="287.92017"
     inkscape:document-units="in"
     inkscape:current-layer="layer1"
     inkscape:document-rotation="0"
     showgrid="true"
     units="in"
     inkscape:snap-global="true"
     inkscape:window-width="1807"
     inkscape:window-height="1001"
     inkscape:window-x="25"
     inkscape:window-y="12"
     inkscape:window-maximized="0"
     inkscape:snap-nodes="true"
     inkscape:snap-others="false"
     inkscape:snap-smooth-nodes="false"
     inkscape:object-paths="false"
     inkscape:snap-intersection-paths="false"
     inkscape:snap-grids="false"
     inkscape:snap-to-guides="false"
     inkscape:snap-bbox="false"
     inkscape:bbox-nodes="true">
    <inkscape:grid
       type="xygrid"
       id="grid849"
       units="in"
       spacingx="0.25"
       spacingy="0.25"
       empspacing="4" />
  </sodipodi:namedview>
  <metadata
     id="metadata5">
    <rdf:RDF>
      <cc:Work
         rdf:about="">
        <dc:format>image/svg+xml</dc:format>
        <dc:type
           rdf:resource="http://purl.org/dc/dcmitype/StillImage" />
        <dc:title></dc:title>
        <dc:creator>
          <cc:Agent>
            <dc:title>Doctor Wizard</dc:title>
          </cc:Agent>
        </dc:creator>
        <dc:rights>
          <cc:Agent>
            <dc:title>Copyright 2021+ by Doctor Wizard</dc:title>
          </cc:Agent>
        </dc:rights>
        <dc:publisher>
          <cc:Agent>
            <dc:title>Doctor Wizard</dc:title>
          </cc:Agent>
        </dc:publisher>
        <dc:source>Doctor Wizard</dc:source>
        <dc:contributor>
          <cc:Agent>
            <dc:title>Doctor Wizard</dc:title>
          </cc:Agent>
        </dc:contributor>
      </cc:Work>
    </rdf:RDF>
  </metadata>
  <g
     inkscape:label="Layer 1"
     inkscape:groupmode="layer"
     id="layer1">
    <path
       id="path3806"
       style="fill:none;stroke:#000080;stroke-width:0.00393701;stroke-linecap:butt;stroke-linejoin:miter;stroke-miterlimit:4;stroke-dasharray:none;stroke-opacity:1"
       d="M 2.0827808,5.1042412 1.8714436,5.3765238 m 3.1701355,-0.2844826 0.050847,0.2844826 m 0.7328708,0.9460615 0.3122415,0.3453734 m -5.2015533,0 0.2582234,-0.3453734 v 0 M 5.0559982,4.6837774 6.1209631,4.616571 v 0 m -4.0323913,0 H 0.94606101 v 0 M 2.0937416,3.8669598 0.93572155,3.7945835 v 0 M 2.1867967,3.1018394 1.0546254,2.8950501 v 0 M 1.5147315,1.9386496 2.3625676,2.7554673 v 0 M 2.9312382,2.2333244 2.3315493,1.2407357 v 0 M 3.7311956,2.0955041 3.804923,0.92538209 v 0 M 4.3012173,2.279852 4.7871722,1.2717542 v 0 m 0.268826,2.6107148 1.0597951,-0.00517 v 0 M 4.5545342,2.5124899 5.3610124,1.7163512 5.350673,1.7215209 M 4.9732825,3.1535367 5.98655,2.7968252 v 0 M 5.0963626,5.3765221 H 5.8252949 V 6.322583 H 5.0963626 Z m -0.6501541,0 H 5.092425 V 6.322583 H 4.4462085 Z m -1.1878054,0 H 4.4422716 V 6.322583 H 3.2584031 Z m -0.6501534,0 H 3.2544662 V 6.322583 H 2.6082497 Z m -0.7328694,0 H 2.6043125 V 6.322583 H 1.8753803 Z m -0.6811722,0 h 0.677235 v 0.946061 H 1.1942081 Z M 0.70537192,5.0861646 0.71281192,3.24755 0.76890892,3.009364 C 0.99761162,2.038249 1.4721094,1.409509 2.3253353,0.94699298 3.0481621,0.55516298 4.0064475,0.54662098 4.709472,0.92573298 5.6398602,1.427461 6.157515,2.145974 6.3305039,3.1757479 6.3707109,3.415081 6.3733549,3.538604 6.3733549,5.1777946 v 1.746977 H 3.5356421 0.69792932 Z M 6.1294705,5.0161146 C 6.1217931,3.448982 6.1191203,3.35346 6.0767523,3.153179 5.9404748,2.508946 5.6719851,1.9950479 5.2957413,1.658297 5.0660785,1.452741 4.7430433,1.229919 4.5335132,1.132525 3.7776142,0.78117498 2.9041524,0.85217698 2.2043884,1.321857 1.5397098,1.767987 1.1957987,2.271451 1.0085828,3.0724429 l -0.057298,0.2451481 -0.00765,1.6751826 -0.00765,1.675183 h 2.6007776 2.6007741 z m -4.7801543,1.091492 c 0,-0.153436 0.024481,-0.17703 0.074804,-0.07211 0.04268,0.08899 0.1345892,0.165495 0.1988072,0.165495 0.050521,0 0.1378396,-0.07289 0.1378396,-0.115071 0,-0.04525 -0.071879,-0.09592 -0.1875648,-0.13218 -0.15031,-0.04712 -0.2022308,-0.100986 -0.2022308,-0.209821 0,-0.167348 0.1865754,-0.276433 0.3306322,-0.193311 0.03471,0.02002 0.04833,0.02002 0.054517,0 0.00452,-0.01468 0.022057,-0.02668 0.03893,-0.02668 0.022749,0 0.030676,0.03318 0.030676,0.128411 0,0.09858 -0.00755,0.128413 -0.032481,0.128413 -0.017863,0 -0.032794,-0.0184 -0.033174,-0.04086 -0.00247,-0.144468 -0.2208623,-0.220035 -0.2817085,-0.09746 -0.033559,0.06761 0.00212,0.105251 0.1408743,0.148748 0.1718933,0.05387 0.2173164,0.102925 0.2173164,0.234676 0,0.09064 -0.010301,0.118703 -0.060763,0.165498 -0.071122,0.06596 -0.2164172,0.07688 -0.2894139,0.02176 -0.040466,-0.03056 -0.048912,-0.03056 -0.07244,0 -0.048366,0.06283 -0.064635,0.03628 -0.064635,-0.105492 z m 0.5413344,0.101955 c 4.17e-5,-0.01456 0.019537,-0.03196 0.043356,-0.03867 0.04017,-0.01131 0.043314,-0.03185 0.043314,-0.282695 0,-0.245199 -0.00408,-0.27321 -0.043314,-0.299645 -0.073852,-0.04974 -0.048889,-0.06462 0.1082761,-0.06462 0.1447705,0 0.2004265,0.02748 0.1082771,0.05345 -0.036856,0.01039 -0.043314,0.03185 -0.043314,0.143974 v 0.131761 l 0.1231261,-0.007 0.1231257,-0.007 -0.00204,-0.07588 c -0.00109,-0.04173 -0.00292,-0.09788 -0.004,-0.12476 -0.00116,-0.02811 -0.020368,-0.05406 -0.045278,-0.06109 -0.092149,-0.02598 -0.036492,-0.05345 0.1082762,-0.05345 0.1423179,0 0.1981725,0.02889 0.1191048,0.0616 -0.026454,0.01096 -0.032481,0.06712 -0.032481,0.302784 0,0.241632 0.00539,0.289347 0.032481,0.289347 0.017864,0 0.032481,0.01359 0.032481,0.0302 0,0.02215 -0.038028,0.02885 -0.1427421,0.02509 -0.1501194,-0.0054 -0.2011084,-0.02484 -0.1227504,-0.04694 0.053781,-0.01516 0.062692,-0.04717 0.052174,-0.187326 l -0.00762,-0.101178 H 2.2241793 2.1072555 v 0.130596 c 0,0.110962 0.00649,0.132433 0.043314,0.142808 0.087189,0.02459 0.039542,0.04983 -0.1083252,0.05738 -0.102799,0.0053 -0.1516211,-8.01e-4 -0.1515875,-0.01871 z m 0.7579823,-0.0027 c 1.4e-6,-0.01606 0.019495,-0.02918 0.043314,-0.02918 0.040991,0 0.043314,-0.01556 0.043314,-0.290272 0,-0.269764 -0.00305,-0.291316 -0.043314,-0.305091 -0.1089053,-0.03726 -0.022785,-0.05837 0.2382086,-0.05837 h 0.2815187 v 0.128412 c 0,0.131617 -0.032103,0.173001 -0.055673,0.07176 -0.024832,-0.106678 -0.140875,-0.169397 -0.2389977,-0.129176 -0.043977,0.01803 -0.051817,0.03701 -0.051817,0.125503 0,0.05735 0.00886,0.110172 0.019699,0.117391 0.03508,0.02337 0.088614,-0.01408 0.1019383,-0.07131 0.00713,-0.03068 0.026548,-0.05579 0.043124,-0.05579 0.022872,0 0.030137,0.03939 0.030137,0.163431 0,0.178978 -0.03551,0.22044 -0.079992,0.09339 -0.016707,-0.04772 -0.039268,-0.07005 -0.070795,-0.07005 -0.042652,0 -0.045767,0.01052 -0.039775,0.134248 l 0.00649,0.134248 0.082863,0.0073 c 0.104274,0.0093 0.1795404,-0.04194 0.1984956,-0.134974 0.024176,-0.118674 0.056912,-0.07991 0.049968,0.05915 l -0.00648,0.12998 -0.2761091,0.0043 c -0.2085633,0.0032 -0.2761082,-0.0029 -0.2761054,-0.02491 z m 0.6496413,0 c 1.04e-5,-0.01606 0.01951,-0.02918 0.043335,-0.02918 0.040991,0 0.043314,-0.01556 0.043314,-0.290272 0,-0.269764 -0.00305,-0.291316 -0.043314,-0.305091 -0.091641,-0.03136 -0.036522,-0.05837 0.1191039,-0.05837 0.1560659,0 0.2107005,0.02702 0.1184508,0.05859 -0.041465,0.01419 -0.043617,0.03118 -0.037897,0.299252 l 0.00604,0.284211 0.069381,0.0072 c 0.094089,0.0098 0.1556118,-0.03038 0.1926096,-0.125851 0.01702,-0.04391 0.040554,-0.07984 0.052303,-0.07984 0.023149,0 0.024568,0.116231 0.00254,0.210126 l -0.013678,0.05837 H 3.5743422 c -0.2064771,0 -0.2761222,-0.0073 -0.2761052,-0.02918 z m 0.6496718,0.0027 c 6e-6,-0.01456 0.019502,-0.03196 0.043321,-0.03867 0.040298,-0.01136 0.043314,-0.03185 0.043314,-0.294566 0,-0.263306 -0.00284,-0.282357 -0.041762,-0.282357 -0.056162,0 -0.1092175,0.06095 -0.1244218,0.1429 -0.021424,0.115481 -0.050367,0.07361 -0.050367,-0.07286 v -0.140085 h 0.2787296 0.278729 l 0.014457,0.117502 c 0.019931,0.162018 -0.00574,0.19019 -0.060719,0.06665 -0.03551,-0.07977 -0.058935,-0.10409 -0.1058348,-0.109897 l -0.06023,-0.0074 0.00613,0.287629 c 0.00596,0.280406 0.00734,0.287819 0.056067,0.295264 0.027488,0.0043 0.046654,0.01835 0.042608,0.03145 -0.010504,0.03398 -0.319986,0.03832 -0.3199728,0.0045 z m 0.5197642,-10e-4 c -1.04e-5,-0.01515 0.021904,-0.03092 0.048701,-0.03503 0.047441,-0.0073 0.048722,-0.01486 0.048722,-0.287632 0,-0.268152 -0.00212,-0.281156 -0.048722,-0.303216 -0.096155,-0.04548 -0.044398,-0.05867 0.2302696,-0.05867 0.2710207,0 0.2793666,0.0014 0.2920515,0.05252 0.037315,0.150118 -0.011211,0.268312 -0.054808,0.133486 -0.030078,-0.09303 -0.1399208,-0.150399 -0.2228545,-0.116403 -0.049029,0.02011 -0.055172,0.03568 -0.055172,0.139933 0,0.138998 0.044755,0.159429 0.10387,0.04742 0.020288,-0.03845 0.044201,-0.06996 0.053133,-0.07005 0.00893,-8.3e-5 0.016242,0.0734 0.016242,0.163285 0,0.08989 -0.0073,0.163367 -0.016242,0.163286 -0.00893,-8.3e-5 -0.032838,-0.0316 -0.053133,-0.07004 -0.020288,-0.03845 -0.052449,-0.0699 -0.071464,-0.0699 -0.028404,0 -0.033414,0.02396 -0.028077,0.134248 l 0.00648,0.134249 0.083331,0.0073 c 0.094213,0.0084 0.1467396,-0.03006 0.1880087,-0.137483 0.03615,-0.09409 0.064374,-0.08562 0.064024,0.0192 -6.333e-4,0.18695 0.00947,0.180944 -0.3039461,0.180944 -0.2010581,0 -0.2804084,-0.0078 -0.2804265,-0.02756 z m 0.6586576,0.01783 c -0.021969,-0.0237 -0.00524,-0.04596 0.039704,-0.05284 0.046966,-0.0072 0.048948,-0.01737 0.054831,-0.281955 0.00613,-0.273798 0.00596,-0.274566 -0.048722,-0.301431 -0.1090815,-0.0536 -0.055193,-0.07118 0.1920302,-0.06271 0.2826399,0.0097 0.337837,0.03804 0.337837,0.173648 0,0.08187 -0.037723,0.137338 -0.1102859,0.162168 -0.04434,0.01518 -0.044397,0.01593 -0.00294,0.04723 0.023165,0.01749 0.054519,0.07954 0.069666,0.137867 0.030652,0.118079 0.037544,0.12388 0.077305,0.06523 0.015232,-0.02244 0.035136,-0.03279 0.044245,-0.02297 0.025706,0.0277 -0.065733,0.144579 -0.119842,0.153215 -0.071932,0.01148 -0.1245634,-0.05473 -0.1368358,-0.172104 -0.012957,-0.123964 -0.046473,-0.174148 -0.116304,-0.174148 -0.048074,0 -0.051487,0.0086 -0.051487,0.130597 0,0.110961 0.00648,0.132432 0.043315,0.142807 0.023819,0.0067 0.043314,0.02411 0.043314,0.03867 0,0.02496 -0.2937409,0.04052 -0.3158083,0.01673 z m 0.4024284,-0.422253 c 0.087456,-0.09429 0.039288,-0.210128 -0.087381,-0.210128 h -0.085859 v 0.128411 c 0,0.127115 6.552e-4,0.128413 0.064963,0.128413 0.036093,0 0.084215,-0.02076 0.1082757,-0.04669 z M 2.0906298,4.234184 2.0984998,3.364326 2.1556888,3.195169 c 0.031454,-0.09304 0.089454,-0.234735 0.1288913,-0.314887 0.086401,-0.175596 0.3482344,-0.46386 0.5226462,-0.5753991 0.4629605,-0.296075 1.0606699,-0.296075 1.5234773,0 0.067787,0.04336 0.2023161,0.1628991 0.2989515,0.2656281 0.1400429,0.148873 0.1939431,0.227055 0.2655886,0.385234 0.1451248,0.320405 0.1592486,0.445989 0.1522938,1.354154 l -0.00596,0.7821406 -1.4793986,0.0061 -1.4793988,0.0061 z m 1.5674291,0.7017936 c -0.00758,-0.0409 -0.029803,-0.09343 -0.04937,-0.116738 -0.033814,-0.04029 -0.031281,-0.04241 0.051038,-0.04241 0.055302,0 0.098733,-0.01477 0.1201172,-0.04086 0.035286,-0.04305 0.1464591,-0.3283276 0.1464591,-0.3758356 0,-0.01905 0.018759,-0.02224 0.059554,-0.01013 0.1149436,0.0341 0.6144066,-0.01555 0.7128586,-0.07085 C 4.8001294,4.222194 4.8918802,4.0020579 4.8815373,3.840522 4.8789973,3.800252 4.5248215,3.611846 4.2673768,3.513794 4.1762908,3.479104 4.1212027,3.445144 4.1212027,3.423674 c 0,-0.01895 -0.015229,-0.07742 -0.033836,-0.129964 C 4.0570407,3.20811 4.0312697,3.185017 3.8389063,3.07113 3.6660639,2.9688029 3.6241678,2.933779 3.6237043,2.891247 3.6231168,2.837447 3.5001625,2.309701 3.4800345,2.274587 c -0.026592,-0.04639 -0.046066,-0.009 -0.070816,0.1357809 -0.014574,0.08529 -0.048454,0.1995211 -0.075286,0.2538631 l -0.048788,0.0988 -0.069986,-0.166309 C 3.1381234,2.4136329 3.0301552,2.256409 3.0021995,2.28659 2.9923595,2.29722 2.9839505,2.465257 2.9835285,2.659999 2.9829233,2.94145 2.9755485,3.028444 2.9475675,3.08412 2.9021055,3.17458 2.8144853,3.26086 2.6897127,3.338056 2.6348897,3.371966 2.5741933,3.418596 2.5548361,3.441657 2.5354791,3.464717 2.4806291,3.6143379 2.4329455,3.774149 2.3489065,4.055812 2.3259366,4.108209 2.2194671,4.261117 2.1739341,4.326497 2.1729281,4.333217 2.2086421,4.333127 2.2733641,4.3329832 2.3834937,4.247547 2.4476705,4.147694 2.4807855,4.096174 2.556602,3.962857 2.616154,3.851432 2.7596852,3.582884 2.8704162,3.4635729 3.0650064,3.3678029 c 0.086623,-0.04263 0.1708712,-0.09501 0.1872182,-0.1163909 0.046086,-0.06029 0.066033,-0.04686 0.081066,0.0545 0.015768,0.106329 0.010998,0.1043409 0.1456343,0.06065 l 0.1008909,-0.03274 v 0.08958 c 0,0.04927 -0.010352,0.118943 -0.023003,0.1548259 -0.017063,0.04839 -0.016372,0.06762 0.00269,0.07447 0.080169,0.02882 0.1459351,0.1413181 0.1930646,0.3302781 0.027227,0.109151 0.067955,0.233644 0.090508,0.276655 0.040825,0.07785 0.040773,0.07875 -0.010607,0.198454 -0.02839,0.06613 -0.062533,0.1491446 -0.075868,0.1844586 -0.02229,0.05901 -0.033814,0.0642 -0.1425449,0.0642 -0.1132294,0 -0.1684041,0.02666 -0.1207878,0.05841 0.012331,0.0082 0.046764,0.06671 0.076511,0.130025 0.062247,0.132439 0.1093363,0.154166 0.088294,0.04074 z m -2.1541836,-0.074 c -0.050011,-0.0574 -0.05017,-0.05914 -0.010629,-0.117656 0.049704,-0.07356 0.053848,-0.07374 0.1134192,-0.0055 l 0.048352,0.05548 -0.050185,0.0629 -0.050186,0.0629 z m 4.048665,-9.48e-4 c -0.049107,-0.05636 -0.04926,-0.05816 -0.00974,-0.11664 0.049989,-0.07398 0.053591,-0.07404 0.1164877,-0.0019 l 0.051411,0.059 -0.05414,0.05837 -0.054139,0.05837 -0.049885,-0.05724 z M 5.2472777,4.23982 c 0,-0.298684 0.012171,-0.35481 0.054415,-0.250986 0.020463,0.05028 0.032523,0.05252 0.2812408,0.05252 0.2530012,0 0.2600464,-0.0014 0.2667826,-0.05252 0.00379,-0.0289 0.01599,-0.05252 0.027071,-0.05252 0.01108,0 0.020152,0.07879 0.020152,0.175105 0,0.165903 -0.02487,0.230308 -0.049582,0.12841 -0.01053,-0.04342 -0.029543,-0.04669 -0.2708697,-0.04669 -0.2568101,0 -0.2596827,5.969e-4 -0.2727546,0.05676 -0.02162,0.09289 0.021687,0.174915 0.1165356,0.2206976 0.1078209,0.05204 0.091446,0.07277 -0.057494,0.07277 h -0.115494 z m -3.594787,0.139507 c 0,-0.01316 0.021926,-0.03294 0.048722,-0.04395 C 1.8514543,4.273617 1.9182494,4.0888779 1.8163551,4.016897 1.7357791,3.959977 1.6868217,4.002907 1.643801,4.16821 1.621467,4.25403 1.588898,4.322529 1.560083,4.3442879 c -0.056178,0.04242 -0.1861117,0.04559 -0.2343009,0.0057 -0.079827,-0.06607 -0.1082255,-0.2060119 -0.061083,-0.30098 0.017115,-0.03448 0.017115,-0.05473 0,-0.07317 -0.044989,-0.0485 -0.023185,-0.06287 0.095442,-0.06287 0.1172674,0 0.15825,0.03013 0.078208,0.05755 -0.064184,0.02196 -0.1540024,0.1224111 -0.1540024,0.17223 0,0.02487 0.017661,0.06874 0.039244,0.09747 0.065101,0.08669 0.1270977,0.04506 0.1680044,-0.1127859 0.041851,-0.161497 0.1117759,-0.237807 0.2179076,-0.237807 0.1556181,0 0.2452749,0.180179 0.1807311,0.363206 -0.014938,0.04237 -0.015002,0.07198 -1.895e-4,0.09122 0.012062,0.01567 0.015519,0.03541 0.00769,0.04386 -0.023397,0.02522 -0.2452392,0.01748 -0.2452385,-0.0086 z M 5.2325656,3.69699 c -0.018244,-0.143979 3.615e-4,-0.202784 0.040002,-0.126413 0.015775,0.03039 0.029132,0.03241 0.072807,0.01095 0.043591,-0.02141 0.053491,-0.04316 0.053491,-0.117452 0,-0.05015 -0.010085,-0.111499 -0.022421,-0.136338 -0.02962,-0.05967 -0.1082886,-0.05868 -0.122895,0.0014 -0.015135,0.06239 -0.046416,0.05927 -0.058573,-0.0059 -0.041267,-0.2209041 -0.036674,-0.236747 0.044725,-0.1542991 0.030596,0.031 0.1587179,0.08286 0.3370529,0.13646 0.1812785,0.05448 0.2899086,0.09864 0.2936743,0.1193771 0.00389,0.02144 -0.096095,0.08775 -0.2869324,0.190295 -0.1816585,0.0976 -0.2929107,0.170732 -0.2929107,0.192519 0,0.01932 -0.0089,0.03514 -0.019764,0.03514 -0.010869,0 -0.028084,-0.06567 -0.038255,-0.14592 z M 5.6587278,3.3974279 c 0,-0.01325 -0.164771,-0.06817 -0.2044871,-0.06817 -0.016331,0 -0.015431,0.15202 0.00104,0.16974 0.015118,0.0163 0.2034874,-0.07774 0.2034874,-0.1015729 z M 1.8326432,3.775489 C 1.8261632,3.748709 1.712229,3.664426 1.5423238,3.560695 1.3885276,3.466795 1.2626945,3.377795 1.2626945,3.362906 c 0,-0.02299 0.2941818,-0.109886 0.5594859,-0.165279 0.039732,-0.0083 0.077319,-0.02934 0.083525,-0.04678 0.00619,-0.01743 0.019983,-0.0317 0.030626,-0.0317 0.02184,0 0.021635,0.13945 -3.645e-4,0.245149 -0.014523,0.06978 -0.014676,0.06984 -0.041617,0.01731 -0.021577,-0.04208 -0.038896,-0.04968 -0.085722,-0.03757 -0.032277,0.0084 -0.060021,0.01632 -0.06165,0.01772 -0.0016,0.0014 -0.00974,0.05688 -0.018038,0.123269 -0.013737,0.109995 -0.010715,0.123232 0.033996,0.149031 0.042535,0.02454 0.054379,0.02124 0.088959,-0.0248 0.053381,-0.07107 0.061877,-0.05464 0.046087,0.08912 -0.013365,0.1216469 -0.045373,0.159433 -0.065334,0.07713 z M 1.6795313,3.475187 c 0.00554,-0.04816 0.00778,-0.09068 0.00495,-0.0945 -0.00284,-0.0038 -0.05729,0.0073 -0.1209813,0.02469 l -0.1158005,0.03163 0.096985,0.06265 c 0.053345,0.03447 0.1032277,0.06276 0.1108568,0.06288 0.00762,1.135e-4 0.018425,-0.03918 0.023993,-0.08734 z M 5.0659819,2.920572 C 4.9657277,2.75778 4.9609543,2.712789 5.0503239,2.77296 c 0.034614,0.0233 0.068908,0.0077 0.2303085,-0.105064 0.1043025,-0.07285 0.1760104,-0.132345 0.1593503,-0.1322231 -0.016663,1.146e-4 -0.1399196,0.03545 -0.2739128,0.07852 -0.1491927,0.04794 -0.2434719,0.06822 -0.243233,0.05231 2.291e-4,-0.01429 0.077251,-0.1205369 0.1711922,-0.2361059 0.093941,-0.115571 0.1676314,-0.213666 0.1637558,-0.217991 -0.00386,-0.0043 -0.085784,0.04659 -0.1820195,0.113149 -0.1371975,0.09489 -0.1749732,0.1328279 -0.1749732,0.1757529 0,0.09051 -0.034687,0.08552 -0.095616,-0.01374 -0.054814,-0.08931 -0.059103,-0.174945 -0.00591,-0.1175709 0.040904,0.04411 0.083578,0.02857 0.2626622,-0.09565 0.231538,-0.160598 0.2423066,-0.171613 0.2094831,-0.214252 -0.016568,-0.02153 -0.018381,-0.03938 -0.00488,-0.04834 0.020158,-0.01343 0.1540971,0.171726 0.1538877,0.2127379 -3.12e-5,0.01052 -0.05365,0.08386 -0.1191037,0.1629681 -0.06545,0.07911 -0.1190076,0.1488 -0.1190076,0.154878 0,0.0061 0.079894,-0.01399 0.1775449,-0.0446 0.097649,-0.0306 0.1844273,-0.05566 0.1928403,-0.05566 0.027999,0 0.1301127,0.210356 0.1149541,0.236802 -0.010055,0.01753 -0.021355,0.01362 -0.034653,-0.01201 -0.010853,-0.0209 -0.028284,-0.03802 -0.038729,-0.03802 -0.010446,0 -0.1130338,0.06522 -0.2279698,0.1449369 C 5.1860848,2.898777 5.1586416,2.9261679 5.1669089,2.9728 5.1841829,3.07021 5.1459369,3.05044 5.0659754,2.92057 Z m -3.0886616,0.02728 c 0,-0.04653 -0.032663,-0.07062 -0.2219671,-0.163703 C 1.6332711,2.724119 1.5247152,2.67512 1.5141183,2.6752679 c -0.0106,1.427e-4 -0.031033,0.01763 -0.045417,0.03882 -0.014384,0.0212 -0.031886,0.02855 -0.038895,0.01633 -0.00699,-0.01222 0.02561,-0.1092809 0.072491,-0.2156809 0.046874,-0.106398 0.085228,-0.200715 0.085228,-0.2095891 0,-0.0089 0.014967,-0.03917 0.033253,-0.06733 l 0.033253,-0.0512 0.096681,0.05065 c 0.053177,0.02786 0.09668,0.05904 0.09668,0.06933 0,0.01033 -0.036544,0.01886 -0.081206,0.01906 -0.092431,4.084e-4 -0.1124618,0.01172 -0.1636701,0.0924 -0.055739,0.08782 -0.045431,0.1149761 0.062604,0.1649041 0.120535,0.0557 0.1098167,0.05593 0.1240036,-0.0027 0.0074,-0.03048 -0.00437,-0.06581 -0.031761,-0.09534 -0.06941,-0.07484 -0.0305,-0.07724 0.1216934,-0.0074 0.1564816,0.07171 0.1792447,0.104669 0.069193,0.100207 -0.1577032,-0.0064 -0.1639046,0.06887 -0.011996,0.1455689 0.1077407,0.05441 0.1112618,0.0547 0.1405358,0.01153 0.059757,-0.0881 0.058433,-0.0089 -0.00212,0.1276981 C 2.009233,3.010122 1.97734,3.038065 1.97734,2.947786 Z m 0.2547494,-0.40235 c -0.0077,-0.0083 -0.00247,-0.03497 0.011619,-0.0593 0.022589,-0.03899 0.00362,-0.06794 -0.1607599,-0.2451441 C 1.9168297,2.0619829 1.8916729,2.0429479 1.851633,2.066052 1.7477201,2.126022 1.796985,2.040222 1.9780653,1.845901 l 0.193427,-0.207576 0.076157,0.07958 c 0.087569,0.0915 0.09742,0.129669 0.027429,0.1062829 -0.1316073,-0.04399 -0.1486232,-0.04206 -0.2124681,0.02388 -0.035,0.03615 -0.063637,0.07784 -0.063637,0.09263 0,0.01479 0.032962,0.05925 0.073251,0.09876 0.053964,0.05295 0.079621,0.065 0.097448,0.04577 0.030058,-0.03241 0.031521,-0.1025029 0.00254,-0.1218139 -0.030844,-0.02055 -0.02681,-0.05837 0.00625,-0.05837 0.038401,0 0.2407877,0.224851 0.216782,0.240847 -0.010641,0.0071 -0.033508,0.0032 -0.050805,-0.0086 -0.043145,-0.02943 -0.123223,-0.02759 -0.1408823,0.0032 -0.018942,0.03305 0.1175685,0.184763 0.1662479,0.184763 0.04779,0 0.1272972,-0.107839 0.1271225,-0.172417 -5.21e-5,-0.02717 -0.014028,-0.0781 -0.031011,-0.1131941 -0.047878,-0.09895 -0.00625,-0.09564 0.086587,0.0069 l 0.084139,0.0929 -0.1952854,0.210545 C 2.3339642,2.465915 2.2397898,2.5538729 2.2320938,2.545576 Z M 4.5619863,2.236057 C 4.4285156,2.133234 4.4148459,2.105489 4.4971043,2.104367 c 0.05328,-7.25e-4 0.081159,-0.03076 0.2000992,-0.215495 0.1289867,-0.2003491 0.1558251,-0.28732 0.088663,-0.28732 -0.016619,0 -0.01686,-0.0073 -8.011e-4,-0.02468 0.016066,-0.01732 0.059001,0.0018 0.1441981,0.0642 0.1256853,0.09207 0.1465895,0.1401209 0.056249,0.129314 -0.043859,-0.0053 -0.07399,0.02782 -0.1875952,0.205828 -0.1346176,0.210938 -0.1550426,0.263167 -0.113691,0.29072 0.02521,0.0168 0.029263,0.05918 0.00539,0.05664 -0.00893,-8.969e-4 -0.066382,-0.04034 -0.1276677,-0.08755 z M 4.3030914,2.073912 C 4.2899814,2.064512 4.2423794,1.936006 4.1973104,1.788332 4.0808373,1.406719 4.0769147,1.400609 4.0398548,1.543184 c -0.079594,0.306212 -0.080136,0.3114 -0.037875,0.361752 0.056286,0.06705 0.034198,0.0751 -0.093653,0.03416 -0.1029355,-0.03296 -0.1519539,-0.08072 -0.082831,-0.08072 0.053927,0 0.1005974,-0.08441 0.1549923,-0.280343 0.0643,-0.2316 0.065544,-0.254143 0.016226,-0.293024 -0.060239,-0.04748 -0.019807,-0.06098 0.088871,-0.02964 0.08672,0.02501 0.103393,0.03998 0.1243649,0.11165 0.07577,0.258972 0.1362261,0.421452 0.1506978,0.4050139 0.015854,-0.018 0.085379,-0.2539839 0.085379,-0.2897889 0,-0.0096 -0.015775,-0.03446 -0.035058,-0.05526 -0.052303,-0.05639 -0.021272,-0.06893 0.088579,-0.03577 0.097816,0.02953 0.1365233,0.09357 0.056547,0.09357 -0.045607,0 -0.06984,0.05734 -0.1699888,0.402315 C 4.347415,2.020384 4.318668,2.085047 4.303089,2.07388 Z M 3.0384321,1.934034 c 0,-0.0097 0.018351,-0.03008 0.04078,-0.04519 0.038582,-0.02598 0.055812,-0.0767 0.1749179,-0.514932 0.026018,-0.09572 0.058005,-0.169271 0.073625,-0.169271 0.015193,0 0.092561,0.141839 0.1719325,0.315194 0.090636,0.197957 0.1565404,0.31519 0.1771883,0.31519 0.018083,0 0.032874,0.0092 0.032874,0.02033 0,0.02419 -0.2582719,0.05923 -0.2782012,0.03772 -0.00758,-0.0082 0.0032,-0.02509 0.023936,-0.03762 0.034498,-0.02082 0.034919,-0.02858 0.00495,-0.09114 -0.031134,-0.06491 -0.038021,-0.06763 -0.1353462,-0.05364 -0.056402,0.0081 -0.1097031,0.02629 -0.1184532,0.04036 -0.03013,0.04846 -0.01648,0.111707 0.026738,0.123892 0.063631,0.01793 0.052812,0.04559 -0.024363,0.0622 -0.091908,0.01982 -0.170536,0.01838 -0.170536,-0.0032 z M 3.400536,1.638039 c 0.010788,-0.009 -0.086402,-0.199918 -0.1017956,-0.199918 -0.00918,0 -0.022544,0.02889 -0.029701,0.0642 -0.00713,0.03531 -0.019436,0.08858 -0.02729,0.118387 -0.013641,0.05178 -0.010555,0.05346 0.069855,0.03776 0.046277,-0.009 0.086288,-0.01823 0.088924,-0.02043 z" />
  </g>
</svg>
