<?xml version="1.0" encoding="UTF-8" standalone="no"?>
<svg
   xmlns:dc="http://purl.org/dc/elements/1.1/"
   xmlns:cc="http://creativecommons.org/ns#"
   xmlns:rdf="http://www.w3.org/1999/02/22-rdf-syntax-ns#"
   xmlns:svg="http://www.w3.org/2000/svg"
   xmlns="http://www.w3.org/2000/svg"
   xmlns:sodipodi="http://sodipodi.sourceforge.net/DTD/sodipodi-0.dtd"
   xmlns:inkscape="http://www.inkscape.org/namespaces/inkscape"
   width="12in"
   height="12in"
   viewBox="0 0 12 12"
   version="1.1"
   id="svg8"
   inkscape:version="1.0.1 (3bc2e813f5, 2020-09-07)"
   sodipodi:docname="SAFE Animal Shelter Logo Double.svg">
  <defs
     id="defs2" />
  <sodipodi:namedview
     id="base"
     pagecolor="#ffffff"
     bordercolor="#666666"
     borderopacity="1.0"
     inkscape:pageopacity="0.0"
     inkscape:pageshadow="2"
     inkscape:zoom="0.86772068"
     inkscape:cx="521.75096"
     inkscape:cy="287.92017"
     inkscape:document-units="in"
     inkscape:current-layer="layer1"
     inkscape:document-rotation="0"
     showgrid="true"
     units="in"
     inkscape:snap-global="false"
     inkscape:window-width="1807"
     inkscape:window-height="1001"
     inkscape:window-x="25"
     inkscape:window-y="12"
     inkscape:window-maximized="0"
     inkscape:snap-nodes="true"
     inkscape:snap-others="false"
     inkscape:snap-smooth-nodes="false"
     inkscape:object-paths="false"
     inkscape:snap-intersection-paths="false"
     inkscape:snap-grids="false"
     inkscape:snap-to-guides="false"
     inkscape:snap-bbox="false"
     inkscape:bbox-nodes="true">
    <inkscape:grid
       type="xygrid"
       id="grid849"
       units="in"
       spacingx="0.25"
       spacingy="0.25"
       empspacing="4" />
  </sodipodi:namedview>
  <metadata
     id="metadata5">
    <rdf:RDF>
      <cc:Work
         rdf:about="">
        <dc:format>image/svg+xml</dc:format>
        <dc:type
           rdf:resource="http://purl.org/dc/dcmitype/StillImage" />
        <dc:title></dc:title>
        <dc:creator>
          <cc:Agent>
            <dc:title>Doctor Wizard</dc:title>
          </cc:Agent>
        </dc:creator>
        <dc:rights>
          <cc:Agent>
            <dc:title>Copyright 2021+ by Doctor Wizard</dc:title>
          </cc:Agent>
        </dc:rights>
        <dc:publisher>
          <cc:Agent>
            <dc:title>Doctor Wizard</dc:title>
          </cc:Agent>
        </dc:publisher>
        <dc:source>Doctor Wizard</dc:source>
        <dc:contributor>
          <cc:Agent>
            <dc:title>Doctor Wizard</dc:title>
          </cc:Agent>
        </dc:contributor>
      </cc:Work>
    </rdf:RDF>
  </metadata>
  <g
     inkscape:label="Layer 1"
     inkscape:groupmode="layer"
     id="layer1">
    <path
       id="path3806"
       style="fill:none;stroke:#000080;stroke-width:0.00393701;stroke-linecap:butt;stroke-linejoin:miter;stroke-miterlimit:4;stroke-dasharray:none;stroke-opacity:1"
       d="M 1.5425724,4.6000467 1.3312352,4.8723293 M 4.5013707,4.5878467 4.5522177,4.8723293 M 5.2850885,5.8183908 5.59733,6.1637642 m -5.2015533,0 0.2582234,-0.3453734 v 0 M 4.5157898,4.1795829 5.5807547,4.1123765 v 0 m -4.0323913,0 H 0.40585261 v 0 M 1.5535332,3.3627653 0.39551315,3.290389 v 0 M 1.6465883,2.5976449 0.514417,2.3908556 v 0 M 0.9745231,1.4344551 1.8223592,2.2512728 v 0 M 2.3910298,1.7291299 1.7913409,0.73654119 v 0 M 3.1909872,1.5913096 3.2647146,0.42118758 v 0 M 3.7610089,1.7756575 4.2469638,0.76755969 v 0 m 0.268826,2.61071481 1.0597951,-0.00517 v 0 M 4.0143258,2.0082954 4.820804,1.2121567 4.8104646,1.2173264 M 4.4330741,2.6493422 5.4463416,2.2926307 v 0 M 4.5561542,4.8723276 H 5.2850865 V 5.8183885 H 4.5561542 Z m -0.6501541,0 H 4.5522166 V 5.8183885 H 3.9060001 Z m -1.1878054,0 H 3.9020632 V 5.8183885 H 2.7181947 Z m -0.6501534,0 H 2.7142578 V 5.8183885 H 2.0680413 Z m -0.7328694,0 H 2.0641041 V 5.8183885 H 1.3351719 Z m -0.6811722,0 h 0.677235 v 0.946061 h -0.677235 z m -0.48883618,-0.2903575 0.00744,-1.8386146 0.056097,-0.238186 C 0.45740322,1.5340545 0.931901,0.90531449 1.7851269,0.44279847 c 0.7228268,-0.39183 1.6811122,-0.400372 2.3841367,-0.02126 0.9303882,0.50172802 1.448043,1.22024103 1.6210319,2.25001493 0.040207,0.2393331 0.042851,0.3628561 0.042851,2.0020467 v 1.746977 H 2.9954337 0.15772092 Z M 5.5892621,4.5119201 C 5.5815847,2.9447875 5.5789119,2.8492655 5.5365439,2.6489845 5.4002664,2.0047515 5.1317767,1.4908534 4.7555329,1.1541025 4.5258701,0.94854649 4.2028349,0.72572449 3.9933048,0.62833049 3.2374058,0.27698047 2.363944,0.34798247 1.66418,0.81766249 0.9995014,1.2637925 0.6555903,1.7672565 0.4683744,2.5682484 l -0.057298,0.2451481 -0.00765,1.6751826 -0.00765,1.675183 H 2.996554 5.5973281 Z m -4.7801543,1.091492 c 0,-0.153436 0.024481,-0.17703 0.074804,-0.07211 0.04268,0.08899 0.1345892,0.165495 0.1988072,0.165495 0.050521,0 0.1378396,-0.07289 0.1378396,-0.115071 0,-0.04525 -0.071879,-0.09592 -0.1875648,-0.13218 -0.15031,-0.04712 -0.2022308,-0.100986 -0.2022308,-0.209821 0,-0.167348 0.1865754,-0.276433 0.3306322,-0.193311 0.03471,0.02002 0.04833,0.02002 0.054517,0 0.00452,-0.01468 0.022057,-0.02668 0.03893,-0.02668 0.022749,0 0.030676,0.03318 0.030676,0.128411 0,0.09858 -0.00755,0.128413 -0.032481,0.128413 -0.017863,0 -0.032794,-0.0184 -0.033174,-0.04086 -0.00247,-0.144468 -0.2208623,-0.220035 -0.2817085,-0.09746 -0.033559,0.06761 0.00212,0.105251 0.1408743,0.148748 0.1718933,0.05387 0.2173164,0.102925 0.2173164,0.234676 0,0.09064 -0.010301,0.118703 -0.060763,0.165498 -0.071122,0.06596 -0.2164172,0.07688 -0.2894139,0.02176 -0.040466,-0.03056 -0.048912,-0.03056 -0.07244,0 -0.048366,0.06283 -0.064635,0.03628 -0.064635,-0.105492 z m 0.5413344,0.101955 c 4.17e-5,-0.01456 0.019537,-0.03196 0.043356,-0.03867 0.04017,-0.01131 0.043314,-0.03185 0.043314,-0.282695 0,-0.245199 -0.00408,-0.27321 -0.043314,-0.299645 -0.073852,-0.04974 -0.048889,-0.06462 0.1082761,-0.06462 0.1447705,0 0.2004265,0.02748 0.1082771,0.05345 -0.036856,0.01039 -0.043314,0.03185 -0.043314,0.143974 v 0.131761 l 0.1231261,-0.007 0.1231257,-0.007 -0.00204,-0.07588 c -0.00109,-0.04173 -0.00292,-0.09788 -0.004,-0.12476 -0.00116,-0.02811 -0.020368,-0.05406 -0.045278,-0.06109 -0.092149,-0.02598 -0.036492,-0.05345 0.1082762,-0.05345 0.1423179,0 0.1981725,0.02889 0.1191048,0.0616 -0.026454,0.01096 -0.032481,0.06712 -0.032481,0.302784 0,0.241632 0.00539,0.289347 0.032481,0.289347 0.017864,0 0.032481,0.01359 0.032481,0.0302 0,0.02215 -0.038028,0.02885 -0.1427421,0.02509 -0.1501194,-0.0054 -0.2011084,-0.02484 -0.1227504,-0.04694 0.053781,-0.01516 0.062692,-0.04717 0.052174,-0.187326 l -0.00762,-0.101178 H 1.6839709 1.5670471 v 0.130596 c 0,0.110962 0.00649,0.132433 0.043314,0.142808 0.087189,0.02459 0.039542,0.04983 -0.1083252,0.05738 -0.102799,0.0053 -0.1516211,-8.01e-4 -0.1515875,-0.01871 z m 0.7579823,-0.0027 c 1.4e-6,-0.01606 0.019495,-0.02918 0.043314,-0.02918 0.040991,0 0.043314,-0.01556 0.043314,-0.290272 0,-0.269764 -0.00305,-0.291316 -0.043314,-0.305091 -0.1089053,-0.03726 -0.022785,-0.05837 0.2382086,-0.05837 h 0.2815187 v 0.128412 c 0,0.131617 -0.032103,0.173001 -0.055673,0.07176 -0.024832,-0.106678 -0.140875,-0.169397 -0.2389977,-0.129176 -0.043977,0.01803 -0.051817,0.03701 -0.051817,0.125503 0,0.05735 0.00886,0.110172 0.019699,0.117391 0.03508,0.02337 0.088614,-0.01408 0.1019383,-0.07131 0.00713,-0.03068 0.026548,-0.05579 0.043124,-0.05579 0.022872,0 0.030137,0.03939 0.030137,0.163431 0,0.178978 -0.03551,0.22044 -0.079992,0.09339 -0.016707,-0.04772 -0.039268,-0.07005 -0.070795,-0.07005 -0.042652,0 -0.045767,0.01052 -0.039775,0.134248 l 0.00649,0.134248 0.082863,0.0073 c 0.104274,0.0093 0.1795404,-0.04194 0.1984956,-0.134974 0.024176,-0.118674 0.056912,-0.07991 0.049968,0.05915 l -0.00648,0.12998 -0.2761091,0.0043 c -0.2085633,0.0032 -0.2761082,-0.0029 -0.2761054,-0.02491 z m 0.6496413,0 c 1.04e-5,-0.01606 0.01951,-0.02918 0.043335,-0.02918 0.040991,0 0.043314,-0.01556 0.043314,-0.290272 0,-0.269764 -0.00305,-0.291316 -0.043314,-0.305091 -0.091641,-0.03136 -0.036522,-0.05837 0.1191039,-0.05837 0.1560659,0 0.2107005,0.02702 0.1184508,0.05859 -0.041465,0.01419 -0.043617,0.03118 -0.037897,0.299252 l 0.00604,0.284211 0.069381,0.0072 c 0.094089,0.0098 0.1556118,-0.03038 0.1926096,-0.125851 0.01702,-0.04391 0.040554,-0.07984 0.052303,-0.07984 0.023149,0 0.024568,0.116231 0.00254,0.210126 l -0.013678,0.05837 H 3.0341338 c -0.2064771,0 -0.2761222,-0.0073 -0.2761052,-0.02918 z m 0.6496718,0.0027 c 6e-6,-0.01456 0.019502,-0.03196 0.043321,-0.03867 0.040298,-0.01136 0.043314,-0.03185 0.043314,-0.294566 0,-0.263306 -0.00284,-0.282357 -0.041762,-0.282357 -0.056162,0 -0.1092175,0.06095 -0.1244218,0.1429 -0.021424,0.115481 -0.050367,0.07361 -0.050367,-0.07286 v -0.140085 h 0.2787296 0.278729 l 0.014457,0.117502 c 0.019931,0.162018 -0.00574,0.19019 -0.060719,0.06665 -0.03551,-0.07977 -0.058935,-0.10409 -0.1058348,-0.109897 l -0.06023,-0.0074 0.00613,0.287629 c 0.00596,0.280406 0.00734,0.287819 0.056067,0.295264 0.027488,0.0043 0.046654,0.01835 0.042608,0.03145 -0.010504,0.03398 -0.319986,0.03832 -0.3199728,0.0045 z m 0.5197642,-0.001 c -1.04e-5,-0.01515 0.021904,-0.03092 0.048701,-0.03503 0.047441,-0.0073 0.048722,-0.01486 0.048722,-0.287632 0,-0.268152 -0.00212,-0.281156 -0.048722,-0.303216 -0.096155,-0.04548 -0.044398,-0.05867 0.2302696,-0.05867 0.2710207,0 0.2793666,0.0014 0.2920515,0.05252 0.037315,0.150118 -0.011211,0.268312 -0.054808,0.133486 -0.030078,-0.09303 -0.1399208,-0.150399 -0.2228545,-0.116403 -0.049029,0.02011 -0.055172,0.03568 -0.055172,0.139933 0,0.138998 0.044755,0.159429 0.10387,0.04742 0.020288,-0.03845 0.044201,-0.06996 0.053133,-0.07005 0.00893,-8.3e-5 0.016242,0.0734 0.016242,0.163285 0,0.08989 -0.0073,0.163367 -0.016242,0.163286 -0.00893,-8.3e-5 -0.032838,-0.0316 -0.053133,-0.07004 -0.020288,-0.03845 -0.052449,-0.0699 -0.071464,-0.0699 -0.028404,0 -0.033414,0.02396 -0.028077,0.134248 l 0.00648,0.134249 0.083331,0.0073 c 0.094213,0.0084 0.1467396,-0.03006 0.1880087,-0.137483 0.03615,-0.09409 0.064374,-0.08562 0.064024,0.0192 -6.333e-4,0.18695 0.00947,0.180944 -0.3039461,0.180944 -0.2010581,0 -0.2804084,-0.0078 -0.2804265,-0.02756 z m 0.6586576,0.01783 c -0.021969,-0.0237 -0.00524,-0.04596 0.039704,-0.05284 0.046966,-0.0072 0.048948,-0.01737 0.054831,-0.281955 0.00613,-0.273798 0.00596,-0.274566 -0.048722,-0.301431 -0.1090815,-0.0536 -0.055193,-0.07118 0.1920302,-0.06271 0.2826399,0.0097 0.337837,0.03804 0.337837,0.173648 0,0.08187 -0.037723,0.137338 -0.1102859,0.162168 -0.04434,0.01518 -0.044397,0.01593 -0.00294,0.04723 0.023165,0.01749 0.054519,0.07954 0.069666,0.137867 0.030652,0.118079 0.037544,0.12388 0.077305,0.06523 0.015232,-0.02244 0.035136,-0.03279 0.044245,-0.02297 0.025706,0.0277 -0.065733,0.144579 -0.119842,0.153215 -0.071932,0.01148 -0.1245634,-0.05473 -0.1368358,-0.172104 -0.012957,-0.123964 -0.046473,-0.174148 -0.116304,-0.174148 -0.048074,0 -0.051487,0.0086 -0.051487,0.130597 0,0.110961 0.00648,0.132432 0.043315,0.142807 0.023819,0.0067 0.043314,0.02411 0.043314,0.03867 0,0.02496 -0.2937409,0.04052 -0.3158083,0.01673 z m 0.4024284,-0.422253 c 0.087456,-0.09429 0.039288,-0.210128 -0.087381,-0.210128 h -0.085859 v 0.128411 c 0,0.127115 6.552e-4,0.128413 0.064963,0.128413 0.036093,0 0.084215,-0.02076 0.1082757,-0.04669 z m -3.4381664,-1.5699546 0.00787,-0.869858 0.057189,-0.169157 c 0.031454,-0.09304 0.089454,-0.234735 0.1288913,-0.314887 0.086401,-0.175596 0.3482344,-0.46386 0.5226462,-0.5753991 0.4629605,-0.296075 1.0606699,-0.296075 1.5234773,0 0.067787,0.04336 0.2023161,0.1628991 0.2989515,0.2656281 0.1400429,0.148873 0.1939431,0.227055 0.2655886,0.385234 0.1451248,0.320405 0.1592486,0.445989 0.1522938,1.354154 l -0.00596,0.7821406 -1.4793986,0.0061 -1.4793988,0.0061 z m 1.5674291,0.7017936 c -0.00758,-0.0409 -0.029803,-0.09343 -0.04937,-0.116738 -0.033814,-0.04029 -0.031281,-0.04241 0.051038,-0.04241 0.055302,0 0.098733,-0.01477 0.1201172,-0.04086 0.035286,-0.04305 0.1464591,-0.3283276 0.1464591,-0.3758356 0,-0.01905 0.018759,-0.02224 0.059554,-0.01013 0.1149436,0.0341 0.6144066,-0.01555 0.7128586,-0.07085 0.1014136,-0.05696 0.1931644,-0.2770961 0.1828215,-0.438632 -0.00254,-0.04027 -0.3567158,-0.228676 -0.6141605,-0.326728 -0.091086,-0.03469 -0.1461741,-0.06865 -0.1461741,-0.09012 0,-0.01895 -0.015229,-0.07742 -0.033836,-0.129964 -0.030326,-0.0856 -0.056097,-0.108693 -0.2484604,-0.22258 -0.1728424,-0.1023271 -0.2147385,-0.137351 -0.215202,-0.179883 -5.875e-4,-0.0538 -0.1235418,-0.581546 -0.1436698,-0.61666 -0.026592,-0.04639 -0.046066,-0.009 -0.070816,0.1357809 -0.014574,0.08529 -0.048454,0.1995211 -0.075286,0.2538631 l -0.048788,0.0988 -0.069986,-0.166309 C 2.597915,1.9094384 2.4899468,1.7522145 2.4619911,1.7823955 c -0.00984,0.01063 -0.018249,0.178667 -0.018671,0.373409 -6.052e-4,0.281451 -0.00798,0.368445 -0.035961,0.424121 -0.045462,0.09046 -0.1330822,0.17674 -0.2578548,0.253936 -0.054823,0.03391 -0.1155194,0.08054 -0.1348766,0.103601 -0.019357,0.02306 -0.074207,0.1726809 -0.1218906,0.332492 -0.084039,0.281663 -0.1070089,0.33406 -0.2134784,0.486968 -0.045533,0.06538 -0.046539,0.0721 -0.010825,0.07201 0.064722,-1.438e-4 0.1748516,-0.08558 0.2390284,-0.185433 0.033115,-0.05152 0.1089315,-0.184837 0.1684835,-0.296262 0.1435312,-0.268548 0.2542622,-0.3878591 0.4488524,-0.4836291 0.086623,-0.04263 0.1708712,-0.09501 0.1872182,-0.1163909 0.046086,-0.06029 0.066033,-0.04686 0.081066,0.0545 0.015768,0.106329 0.010998,0.1043409 0.1456343,0.06065 l 0.1008909,-0.03274 v 0.08958 c 0,0.04927 -0.010352,0.118943 -0.023003,0.1548259 -0.017063,0.04839 -0.016372,0.06762 0.00269,0.07447 0.080169,0.02882 0.1459351,0.1413181 0.1930646,0.3302781 0.027227,0.109151 0.067955,0.233644 0.090508,0.276655 0.040825,0.07785 0.040773,0.07875 -0.010607,0.198454 -0.02839,0.06613 -0.062533,0.1491446 -0.075868,0.1844586 -0.02229,0.05901 -0.033814,0.0642 -0.1425449,0.0642 -0.1132294,0 -0.1684041,0.02666 -0.1207878,0.05841 0.012331,0.0082 0.046764,0.06671 0.076511,0.130025 0.062247,0.132439 0.1093363,0.154166 0.088294,0.04074 z m -2.1541836,-0.074 c -0.050011,-0.0574 -0.05017,-0.05914 -0.010629,-0.117656 0.049704,-0.07356 0.053848,-0.07374 0.1134192,-0.0055 l 0.048352,0.05548 -0.050185,0.0629 -0.050186,0.0629 z m 4.048665,-9.48e-4 c -0.049107,-0.05636 -0.04926,-0.05816 -0.00974,-0.11664 0.049989,-0.07398 0.053591,-0.07404 0.1164877,-0.0019 l 0.051411,0.059 -0.05414,0.05837 -0.054139,0.05837 -0.049885,-0.05724 z M 4.7070693,3.7356255 c 0,-0.298684 0.012171,-0.35481 0.054415,-0.250986 0.020463,0.05028 0.032523,0.05252 0.2812408,0.05252 0.2530012,0 0.2600464,-0.0014 0.2667826,-0.05252 0.00379,-0.0289 0.01599,-0.05252 0.027071,-0.05252 0.01108,0 0.020152,0.07879 0.020152,0.175105 0,0.165903 -0.02487,0.230308 -0.049582,0.12841 -0.01053,-0.04342 -0.029543,-0.04669 -0.2708697,-0.04669 -0.2568101,0 -0.2596827,5.969e-4 -0.2727546,0.05676 -0.02162,0.09289 0.021687,0.174915 0.1165356,0.2206976 0.1078209,0.05204 0.091446,0.07277 -0.057494,0.07277 H 4.707072 Z m -3.594787,0.139507 c 0,-0.01316 0.021926,-0.03294 0.048722,-0.04395 0.1502416,-0.06176 0.2170367,-0.2464991 0.1151424,-0.31848 -0.080576,-0.05692 -0.1295334,-0.01399 -0.1725541,0.151313 -0.022334,0.08582 -0.054903,0.154319 -0.083718,0.1760779 -0.056178,0.04242 -0.1861117,0.04559 -0.2343009,0.0057 -0.079827,-0.06607 -0.1082255,-0.2060119 -0.061083,-0.30098 0.017115,-0.03448 0.017115,-0.05473 0,-0.07317 -0.044989,-0.0485 -0.023185,-0.06287 0.095442,-0.06287 0.1172674,0 0.15825,0.03013 0.078208,0.05755 -0.064184,0.02196 -0.1540024,0.1224111 -0.1540024,0.17223 0,0.02487 0.017661,0.06874 0.039244,0.09747 0.065101,0.08669 0.1270977,0.04506 0.1680044,-0.1127859 0.041851,-0.161497 0.1117759,-0.237807 0.2179076,-0.237807 0.1556181,0 0.2452749,0.180179 0.1807311,0.363206 -0.014938,0.04237 -0.015002,0.07198 -1.895e-4,0.09122 0.012062,0.01567 0.015519,0.03541 0.00769,0.04386 -0.023397,0.02522 -0.2452392,0.01748 -0.2452385,-0.0086 z m 3.5800749,-0.682337 c -0.018244,-0.143979 3.615e-4,-0.202784 0.040002,-0.126413 0.015775,0.03039 0.029132,0.03241 0.072807,0.01095 0.043591,-0.02141 0.053491,-0.04316 0.053491,-0.117452 0,-0.05015 -0.010085,-0.111499 -0.022421,-0.136338 -0.02962,-0.05967 -0.1082886,-0.05868 -0.122895,0.0014 -0.015135,0.06239 -0.046416,0.05927 -0.058573,-0.0059 -0.041267,-0.2209041 -0.036674,-0.236747 0.044725,-0.1542991 0.030596,0.031 0.1587179,0.08286 0.3370529,0.13646 0.1812785,0.05448 0.2899086,0.09864 0.2936743,0.1193771 0.00389,0.02144 -0.096095,0.08775 -0.2869324,0.190295 -0.1816585,0.0976 -0.2929107,0.170732 -0.2929107,0.192519 0,0.01932 -0.0089,0.03514 -0.019764,0.03514 -0.010869,0 -0.028084,-0.06567 -0.038255,-0.14592 z M 5.1185194,2.8932334 c 0,-0.01325 -0.164771,-0.06817 -0.2044871,-0.06817 -0.016331,0 -0.015431,0.15202 0.00104,0.16974 0.015118,0.0163 0.2034874,-0.07774 0.2034874,-0.1015729 z M 1.2924348,3.2712945 c -0.00648,-0.02678 -0.1204142,-0.111063 -0.2903194,-0.214794 -0.1537962,-0.0939 -0.2796293,-0.1829 -0.2796293,-0.197789 0,-0.02299 0.2941818,-0.109886 0.5594859,-0.165279 0.039732,-0.0083 0.077319,-0.02934 0.083525,-0.04678 0.00619,-0.01743 0.019983,-0.0317 0.030626,-0.0317 0.02184,0 0.021635,0.13945 -3.645e-4,0.245149 -0.014523,0.06978 -0.014676,0.06984 -0.041617,0.01731 -0.021577,-0.04208 -0.038896,-0.04968 -0.085722,-0.03757 -0.032277,0.0084 -0.060021,0.01632 -0.06165,0.01772 -0.0016,0.0014 -0.00974,0.05688 -0.018038,0.123269 -0.013737,0.109995 -0.010715,0.123232 0.033996,0.149031 0.042535,0.02454 0.054379,0.02124 0.088959,-0.0248 0.053381,-0.07107 0.061877,-0.05464 0.046087,0.08912 -0.013365,0.1216469 -0.045373,0.159433 -0.065334,0.07713 z M 1.1393229,2.9709925 c 0.00554,-0.04816 0.00778,-0.09068 0.00495,-0.0945 -0.00284,-0.0038 -0.05729,0.0073 -0.1209813,0.02469 l -0.1158005,0.03163 0.096985,0.06265 c 0.053345,0.03447 0.1032277,0.06276 0.1108568,0.06288 0.00762,1.135e-4 0.018425,-0.03918 0.023993,-0.08734 z m 3.3864506,-0.554615 c -0.1002542,-0.162792 -0.1050276,-0.207783 -0.015658,-0.147612 0.034614,0.0233 0.068908,0.0077 0.2303085,-0.105064 0.1043025,-0.07285 0.1760104,-0.132345 0.1593503,-0.1322231 -0.016663,1.146e-4 -0.1399196,0.03545 -0.2739128,0.07852 -0.1491927,0.04794 -0.2434719,0.06822 -0.243233,0.05231 2.291e-4,-0.01429 0.077251,-0.1205369 0.1711922,-0.2361059 0.093941,-0.115571 0.1676314,-0.213666 0.1637558,-0.217991 -0.00386,-0.0043 -0.085784,0.04659 -0.1820195,0.113149 -0.1371975,0.09489 -0.1749732,0.1328279 -0.1749732,0.1757529 0,0.09051 -0.034687,0.08552 -0.095616,-0.01374 -0.054814,-0.08931 -0.059103,-0.174945 -0.00591,-0.1175709 0.040904,0.04411 0.083578,0.02857 0.2626622,-0.09565 0.231538,-0.160598 0.2423066,-0.171613 0.2094831,-0.214252 -0.016568,-0.02153 -0.018381,-0.03938 -0.00488,-0.04834 0.020158,-0.01343 0.1540971,0.171726 0.1538877,0.2127379 -3.12e-5,0.01052 -0.05365,0.08386 -0.1191037,0.1629681 -0.06545,0.07911 -0.1190076,0.1488 -0.1190076,0.154878 0,0.0061 0.079894,-0.01399 0.1775449,-0.0446 0.097649,-0.0306 0.1844273,-0.05566 0.1928403,-0.05566 0.027999,0 0.1301127,0.210356 0.1149541,0.236802 -0.010055,0.01753 -0.021355,0.01362 -0.034653,-0.01201 -0.010853,-0.0209 -0.028284,-0.03802 -0.038729,-0.03802 -0.010446,0 -0.1130338,0.06522 -0.2279698,0.1449369 -0.1802106,0.1249891 -0.2076538,0.15238 -0.1993865,0.1990121 0.017274,0.09741 -0.020972,0.07764 -0.1009335,-0.05223 z m -3.0886616,0.02728 c 0,-0.04653 -0.032663,-0.07062 -0.2219671,-0.163703 -0.1220821,-0.06003 -0.230638,-0.109029 -0.2412349,-0.1088811 -0.0106,1.427e-4 -0.031033,0.01763 -0.045417,0.03882 -0.014384,0.0212 -0.031886,0.02855 -0.038895,0.01633 -0.00699,-0.01222 0.02561,-0.1092809 0.072491,-0.2156809 0.046874,-0.106398 0.085228,-0.200715 0.085228,-0.2095891 0,-0.0089 0.014967,-0.03917 0.033253,-0.06733 l 0.033253,-0.0512 0.096681,0.05065 c 0.053177,0.02786 0.09668,0.05904 0.09668,0.06933 0,0.01033 -0.036544,0.01886 -0.081206,0.01906 -0.092431,4.084e-4 -0.1124618,0.01172 -0.1636701,0.0924 -0.055739,0.08782 -0.045431,0.1149761 0.062604,0.1649041 0.120535,0.0557 0.1098167,0.05593 0.1240036,-0.0027 0.0074,-0.03048 -0.00437,-0.06581 -0.031761,-0.09534 -0.06941,-0.07484 -0.0305,-0.07724 0.1216934,-0.0074 0.1564816,0.07171 0.1792447,0.104669 0.069193,0.100207 -0.1577032,-0.0064 -0.1639046,0.06887 -0.011996,0.1455689 0.1077407,0.05441 0.1112618,0.0547 0.1405358,0.01153 0.059757,-0.0881 0.058433,-0.0089 -0.00212,0.1276981 -0.065436,0.147596 -0.097329,0.175539 -0.097329,0.08526 z m 0.2547494,-0.40235 c -0.0077,-0.0083 -0.00247,-0.03497 0.011619,-0.0593 0.022589,-0.03899 0.00362,-0.06794 -0.1607599,-0.2451441 -0.1660991,-0.179075 -0.1912559,-0.19811 -0.2312958,-0.1750059 -0.1039129,0.05997 -0.054648,-0.02583 0.1264323,-0.220151 l 0.193427,-0.207576 0.076157,0.07958 c 0.087569,0.0915 0.09742,0.129669 0.027429,0.1062829 -0.1316073,-0.04399 -0.1486232,-0.04206 -0.2124681,0.02388 -0.035,0.03615 -0.063637,0.07784 -0.063637,0.09263 0,0.01479 0.032962,0.05925 0.073251,0.09876 0.053964,0.05295 0.079621,0.065 0.097448,0.04577 0.030058,-0.03241 0.031521,-0.1025029 0.00254,-0.1218139 -0.030844,-0.02055 -0.02681,-0.05837 0.00625,-0.05837 0.038401,0 0.2407877,0.224851 0.216782,0.240847 -0.010641,0.0071 -0.033508,0.0032 -0.050805,-0.0086 -0.043145,-0.02943 -0.123223,-0.02759 -0.1408823,0.0032 -0.018942,0.03305 0.1175685,0.184763 0.1662479,0.184763 0.04779,0 0.1272972,-0.107839 0.1271225,-0.172417 -5.21e-5,-0.02717 -0.014028,-0.0781 -0.031011,-0.1131941 -0.047878,-0.09895 -0.00625,-0.09564 0.086587,0.0069 l 0.084139,0.0929 -0.1952854,0.210545 C 1.7937558,1.9617205 1.6995814,2.0496784 1.6918854,2.0413815 Z m 2.3299166,-0.309445 c -0.1334707,-0.102823 -0.1471404,-0.130568 -0.064882,-0.13169 0.05328,-7.25e-4 0.081159,-0.03076 0.2000992,-0.215495 0.1289867,-0.2003491 0.1558251,-0.28732 0.088663,-0.28732 -0.016619,0 -0.01686,-0.0073 -8.011e-4,-0.02468 0.016066,-0.01732 0.059001,0.0018 0.1441981,0.0642 0.1256853,0.09207 0.1465895,0.1401209 0.056249,0.129314 -0.043859,-0.0053 -0.07399,0.02782 -0.1875952,0.205828 -0.1346176,0.210938 -0.1550426,0.263167 -0.113691,0.29072 0.02521,0.0168 0.029263,0.05918 0.00539,0.05664 -0.00893,-8.969e-4 -0.066382,-0.04034 -0.1276677,-0.08755 z M 3.762883,1.5697175 C 3.749773,1.5603175 3.702171,1.4318115 3.657102,1.2841375 3.5406289,0.90252449 3.5367063,0.89641449 3.4996464,1.0389895 c -0.079594,0.306212 -0.080136,0.3114 -0.037875,0.361752 0.056286,0.06705 0.034198,0.0751 -0.093653,0.03416 -0.1029355,-0.03296 -0.1519539,-0.08072 -0.082831,-0.08072 0.053927,0 0.1005974,-0.08441 0.1549923,-0.280343 0.0643,-0.23160001 0.065544,-0.25414301 0.016226,-0.29302401 -0.060239,-0.04748 -0.019807,-0.06098 0.088871,-0.02964 0.08672,0.02501 0.103393,0.03998 0.1243649,0.11165 0.07577,0.25897201 0.1362261,0.42145201 0.1506978,0.40501391 0.015854,-0.018 0.085379,-0.2539839 0.085379,-0.28978891 0,-0.0096 -0.015775,-0.03446 -0.035058,-0.05526 -0.052303,-0.05639 -0.021272,-0.06893 0.088579,-0.03577 0.097816,0.02953 0.1365233,0.09357 0.056547,0.09357 -0.045607,0 -0.06984,0.05734 -0.1699888,0.40231501 -0.038691,0.133285 -0.067438,0.197948 -0.083017,0.186781 z M 2.4982237,1.4298395 c 0,-0.0097 0.018351,-0.03008 0.04078,-0.04519 0.038582,-0.02598 0.055812,-0.0767 0.1749179,-0.51493201 0.026018,-0.09572 0.058005,-0.169271 0.073625,-0.169271 0.015193,0 0.092561,0.141839 0.1719325,0.31519401 0.090636,0.197957 0.1565404,0.31519 0.1771883,0.31519 0.018083,0 0.032874,0.0092 0.032874,0.02033 0,0.02419 -0.2582719,0.05923 -0.2782012,0.03772 -0.00758,-0.0082 0.0032,-0.02509 0.023936,-0.03762 0.034498,-0.02082 0.034919,-0.02858 0.00495,-0.09114 -0.031134,-0.06491 -0.038021,-0.06763 -0.1353462,-0.05364 -0.056402,0.0081 -0.1097031,0.02629 -0.1184532,0.04036 -0.03013,0.04846 -0.01648,0.111707 0.026738,0.123892 0.063631,0.01793 0.052812,0.04559 -0.024363,0.0622 -0.091908,0.01982 -0.170536,0.01838 -0.170536,-0.0032 z m 0.3621039,-0.295995 c 0.010788,-0.009 -0.086402,-0.19991801 -0.1017956,-0.19991801 -0.00918,0 -0.022544,0.02889 -0.029701,0.0642 -0.00713,0.03531 -0.019436,0.08858 -0.02729,0.11838701 -0.013641,0.05178 -0.010555,0.05346 0.069855,0.03776 0.046277,-0.009 0.086288,-0.01823 0.088924,-0.02043 z" />
    <path
       id="path3806-2"
       style="fill:none;stroke:#000080;stroke-width:0.00393701;stroke-linecap:butt;stroke-linejoin:miter;stroke-miterlimit:4;stroke-dasharray:none;stroke-opacity:1"
       d="M 7.314035,4.5880421 7.1026977,4.8603247 m 3.1701353,-0.2844826 0.05085,0.2844826 m 0.732872,0.9460615 0.312241,0.3453734 m -5.2015538,0 0.2582234,-0.3453734 v 0 m 3.8617894,-1.6388079 1.064966,-0.067206 v 0 m -4.032392,0 H 6.1773151 v 0 M 7.3249958,3.3507607 6.1669757,3.2783845 v 0 M 7.4180509,2.5856403 6.2858795,2.378851 v 0 M 6.7459856,1.4224505 7.5938218,2.2392682 v 0 M 8.1624924,1.7171253 7.5628035,0.72453658 v 0 M 8.9624498,1.579305 9.0361768,0.40918296 v 0 M 9.5324715,1.7636529 10.018426,0.75555508 v 0 m 0.268826,2.61071482 1.059796,-0.00517 v 0 M 9.7857884,1.9962908 10.592267,1.2001521 l -0.01034,0.00517 m -0.37739,1.4320157 1.013268,-0.3567115 v 0 M 10.327617,4.860323 h 0.728933 v 0.9460609 h -0.728933 z m -0.6501544,0 H 10.323679 V 5.8063839 H 9.6774626 Z m -1.1878053,0 H 9.6735257 V 5.8063839 H 8.4896573 Z m -0.6501534,0 H 8.4857203 V 5.8063839 H 7.8395039 Z m -0.7328694,0 H 7.8355667 V 5.8063839 H 7.1066345 Z m -0.6811723,0 H 7.1026973 V 5.806384 H 6.4254622 Z m -0.4888361,-0.2903575 0.00744,-1.8386146 0.056097,-0.238186 c 0.2287027,-0.971115 0.7032004,-1.59985503 1.5564264,-2.06237105 0.7228268,-0.39183 1.6811122,-0.400372 2.3841367,-0.02126 0.9303888,0.50172802 1.4480438,1.22024105 1.6210318,2.25001495 0.04021,0.2393332 0.04285,0.3628561 0.04285,2.0020467 v 1.746977 H 8.7668963 5.9291835 Z m 5.4240989,-0.07005 C 11.353048,2.9327829 11.350375,2.8372609 11.308007,2.6369799 11.171729,1.992747 10.90324,1.4788488 10.526995,1.1420979 10.297333,0.93654187 9.9742975,0.71371987 9.7647674,0.61632587 9.0088684,0.26497585 8.1354066,0.33597785 7.4356425,0.80565787 6.7709639,1.2517879 6.4270528,1.755252 6.2398369,2.5562438 l -0.057298,0.2451482 -0.00765,1.6751825 -0.00765,1.675183 h 2.6007777 2.6007744 z m -4.7801547,1.091492 c 0,-0.153436 0.024481,-0.17703 0.074804,-0.07211 0.04268,0.08899 0.1345892,0.165495 0.1988072,0.165495 0.050521,0 0.1378397,-0.07289 0.1378397,-0.115071 0,-0.04525 -0.071879,-0.09592 -0.1875649,-0.13218 -0.15031,-0.04712 -0.2022308,-0.100986 -0.2022308,-0.209821 0,-0.167348 0.1865754,-0.276433 0.3306323,-0.193311 0.03471,0.02002 0.04833,0.02002 0.054517,0 0.00452,-0.01468 0.022057,-0.02668 0.03893,-0.02668 0.022749,0 0.030676,0.03318 0.030676,0.128411 0,0.09858 -0.00755,0.128413 -0.032481,0.128413 -0.017863,0 -0.032794,-0.0184 -0.033174,-0.04086 -0.00247,-0.144468 -0.2208623,-0.220035 -0.2817085,-0.09746 -0.033559,0.06761 0.00212,0.105251 0.1408743,0.148748 0.1718934,0.05387 0.2173164,0.102925 0.2173164,0.234676 0,0.09064 -0.010301,0.118703 -0.060763,0.165498 -0.071122,0.06596 -0.2164173,0.07688 -0.289414,0.02176 -0.040466,-0.03056 -0.048912,-0.03056 -0.07244,0 -0.048366,0.06283 -0.064635,0.03628 -0.064635,-0.105492 z m 0.5413345,0.101955 c 4.17e-5,-0.01456 0.019537,-0.03196 0.043356,-0.03867 0.04017,-0.01131 0.043314,-0.03185 0.043314,-0.282695 0,-0.245199 -0.00408,-0.27321 -0.043314,-0.299645 -0.073852,-0.04974 -0.048889,-0.06462 0.1082762,-0.06462 0.1447705,0 0.2004265,0.02748 0.1082771,0.05345 -0.036856,0.01039 -0.043314,0.03185 -0.043314,0.143974 v 0.131761 l 0.1231261,-0.007 0.1231257,-0.007 -0.00204,-0.07588 c -0.00109,-0.04173 -0.00292,-0.09788 -0.004,-0.12476 -0.00116,-0.02811 -0.020368,-0.05406 -0.045278,-0.06109 -0.092149,-0.02598 -0.036492,-0.05345 0.1082762,-0.05345 0.1423178,0 0.1981725,0.02889 0.1191048,0.0616 -0.026454,0.01096 -0.032481,0.06712 -0.032481,0.302784 0,0.241632 0.00539,0.289347 0.032481,0.289347 0.017864,0 0.032481,0.01359 0.032481,0.0302 0,0.02215 -0.038028,0.02885 -0.142742,0.02509 -0.1501194,-0.0054 -0.2011085,-0.02484 -0.1227505,-0.04694 0.053781,-0.01516 0.062692,-0.04717 0.052174,-0.187326 l -0.00762,-0.101178 H 7.4554335 7.3385097 v 0.130596 c 0,0.110962 0.00649,0.132433 0.043314,0.142808 0.087189,0.02459 0.039542,0.04983 -0.1083252,0.05738 -0.102799,0.0053 -0.1516211,-8.01e-4 -0.1515875,-0.01871 z m 0.7579823,-0.0027 c 1.4e-6,-0.01606 0.019495,-0.02918 0.043314,-0.02918 0.040991,0 0.043314,-0.01556 0.043314,-0.290272 0,-0.269764 -0.00305,-0.291316 -0.043314,-0.305091 -0.1089054,-0.03726 -0.022785,-0.05837 0.2382086,-0.05837 h 0.2815187 v 0.128412 c 0,0.131617 -0.032103,0.173001 -0.055673,0.07176 -0.024832,-0.106678 -0.140875,-0.169397 -0.2389977,-0.129176 -0.043977,0.01803 -0.051817,0.03701 -0.051817,0.125503 0,0.05735 0.00886,0.110172 0.019699,0.117391 0.03508,0.02337 0.088614,-0.01408 0.1019382,-0.07131 0.00713,-0.03068 0.026548,-0.05579 0.043124,-0.05579 0.022872,0 0.030137,0.03939 0.030137,0.163431 0,0.178978 -0.03551,0.22044 -0.079992,0.09339 -0.016707,-0.04772 -0.039268,-0.07005 -0.070795,-0.07005 -0.042652,0 -0.045767,0.01052 -0.039775,0.134248 l 0.00649,0.134248 0.082863,0.0073 c 0.104274,0.0093 0.1795403,-0.04194 0.1984955,-0.134974 0.024176,-0.118674 0.056912,-0.07991 0.049968,0.05915 l -0.00648,0.12998 -0.2761091,0.0043 c -0.2085633,0.0032 -0.2761082,-0.0029 -0.2761054,-0.02491 z m 0.6496413,0 c 1.04e-5,-0.01606 0.01951,-0.02918 0.043335,-0.02918 0.040991,0 0.043314,-0.01556 0.043314,-0.290272 0,-0.269764 -0.00305,-0.291316 -0.043314,-0.305091 -0.091641,-0.03136 -0.036522,-0.05837 0.1191039,-0.05837 0.1560658,0 0.2107004,0.02702 0.1184507,0.05859 -0.041465,0.01419 -0.043617,0.03118 -0.037897,0.299252 l 0.00604,0.284211 0.069381,0.0072 c 0.094089,0.0098 0.1556118,-0.03038 0.1926096,-0.125851 0.01702,-0.04391 0.040554,-0.07984 0.052303,-0.07984 0.023149,0 0.024568,0.116231 0.00254,0.210126 l -0.013678,0.05837 H 8.8055964 c -0.2064771,0 -0.2761222,-0.0073 -0.2761052,-0.02918 z m 0.6496717,0.0027 c 6.1e-6,-0.01456 0.019502,-0.03196 0.043321,-0.03867 0.040298,-0.01136 0.043314,-0.03185 0.043314,-0.294566 0,-0.263306 -0.00284,-0.282357 -0.041762,-0.282357 -0.056162,0 -0.1092175,0.06095 -0.1244217,0.1429 -0.021424,0.115481 -0.050367,0.07361 -0.050367,-0.07286 V 5.0077245 H 9.328014 9.6067429 l 0.014457,0.117502 c 0.019931,0.162018 -0.00574,0.19019 -0.060719,0.06665 -0.03551,-0.07977 -0.058935,-0.10409 -0.1058348,-0.109897 l -0.06023,-0.0074 0.00613,0.287629 c 0.00596,0.280406 0.00734,0.287819 0.056067,0.295264 0.027488,0.0043 0.046654,0.01835 0.042608,0.03145 -0.010504,0.03398 -0.3199861,0.03832 -0.3199728,0.0045 z m 0.5197643,-0.001 c -1.04e-5,-0.01515 0.021904,-0.03092 0.048701,-0.03503 0.047441,-0.0073 0.048722,-0.01486 0.048722,-0.287632 0,-0.268152 -0.00212,-0.281156 -0.048722,-0.303216 -0.096155,-0.04548 -0.044398,-0.05867 0.2302697,-0.05867 0.2710209,0 0.2793669,0.0014 0.2920519,0.05252 0.03731,0.150118 -0.01121,0.268312 -0.05481,0.133486 -0.03008,-0.09303 -0.139921,-0.150399 -0.2228549,-0.116403 -0.049029,0.02011 -0.055172,0.03568 -0.055172,0.139933 0,0.138998 0.044755,0.159429 0.1038699,0.04742 0.02029,-0.03845 0.0442,-0.06996 0.05313,-0.07005 0.0089,-8.33e-5 0.01624,0.0734 0.01624,0.163285 0,0.08989 -0.0073,0.163367 -0.01624,0.163286 -0.0089,-8.33e-5 -0.03284,-0.0316 -0.05313,-0.07004 -0.02029,-0.03845 -0.052449,-0.0699 -0.071464,-0.0699 -0.028404,0 -0.033414,0.02396 -0.028077,0.134248 l 0.00648,0.134249 0.083331,0.0073 c 0.09421,0.0084 0.14674,-0.03006 0.188009,-0.137483 0.03615,-0.09409 0.06437,-0.08562 0.06402,0.0192 -6.34e-4,0.18695 0.0095,0.180944 -0.3039464,0.180944 -0.2010582,0 -0.2804085,-0.0078 -0.2804265,-0.02756 z m 0.6586576,0.01783 c -0.02197,-0.0237 -0.0052,-0.04596 0.0397,-0.05284 0.04697,-0.0072 0.04895,-0.01737 0.05483,-0.281955 0.0061,-0.273798 0.006,-0.274566 -0.04872,-0.301431 -0.109081,-0.0536 -0.05519,-0.07118 0.192031,-0.06271 0.282639,0.0097 0.337837,0.03804 0.337837,0.173648 0,0.08187 -0.03772,0.137338 -0.110286,0.162168 -0.04434,0.01518 -0.0444,0.01593 -0.0029,0.04723 0.02316,0.01749 0.05452,0.07954 0.06967,0.137867 0.03065,0.118079 0.03754,0.12388 0.0773,0.06523 0.01523,-0.02244 0.03514,-0.03279 0.04425,-0.02297 0.02571,0.0277 -0.06573,0.144579 -0.119842,0.153215 -0.07193,0.01148 -0.124564,-0.05473 -0.136836,-0.172104 -0.01296,-0.123964 -0.04647,-0.174148 -0.116304,-0.174148 -0.04807,0 -0.05149,0.0086 -0.05149,0.130597 0,0.110961 0.0065,0.132432 0.04331,0.142807 0.02382,0.0067 0.04331,0.02411 0.04331,0.03867 0,0.02496 -0.293741,0.04052 -0.315809,0.01673 z m 0.402429,-0.422253 c 0.08746,-0.09429 0.03929,-0.210128 -0.08738,-0.210128 h -0.08586 v 0.128411 c 0,0.127115 6.56e-4,0.128413 0.06496,0.128413 0.03609,0 0.08422,-0.02076 0.108275,-0.04669 z M 7.321884,3.7179849 7.329754,2.848127 7.3869429,2.6789699 c 0.031454,-0.09304 0.089454,-0.234735 0.1288914,-0.314887 0.086401,-0.1755959 0.3482344,-0.46386 0.5226461,-0.5753991 0.4629606,-0.296075 1.0606699,-0.296075 1.5234773,0 0.067787,0.04336 0.2023162,0.1628991 0.2989516,0.2656282 0.1400427,0.1488729 0.1939427,0.227055 0.2655887,0.3852339 0.145125,0.320405 0.159249,0.445989 0.152294,1.354154 l -0.006,0.7821406 -1.479399,0.0061 -1.4793987,0.0061 z m 1.567429,0.7017936 c -0.00758,-0.0409 -0.029803,-0.09343 -0.04937,-0.116738 -0.033814,-0.04029 -0.031281,-0.04241 0.051038,-0.04241 0.055302,0 0.098733,-0.01477 0.1201172,-0.04086 0.035286,-0.04305 0.1464591,-0.3283276 0.1464591,-0.3758356 0,-0.01905 0.018759,-0.02224 0.059554,-0.01013 0.1149437,0.0341 0.6144066,-0.01555 0.7128587,-0.07085 0.101414,-0.05696 0.193164,-0.2770961 0.182821,-0.438632 -0.0025,-0.04027 -0.3567154,-0.2286759 -0.61416,-0.326728 -0.091086,-0.03469 -0.1461741,-0.06865 -0.1461741,-0.09012 0,-0.01895 -0.015229,-0.07742 -0.033836,-0.129964 -0.030326,-0.0856 -0.056097,-0.108693 -0.2484605,-0.22258 C 8.897318,2.4526038 8.855422,2.4175799 8.8549585,2.3750479 8.854371,2.3212479 8.7314167,1.793502 8.7112887,1.7583879 c -0.026592,-0.04639 -0.046066,-0.009 -0.070816,0.1357809 -0.014574,0.08529 -0.048454,0.1995211 -0.075286,0.2538632 l -0.048788,0.0988 -0.069986,-0.1663091 c -0.077035,-0.1830891 -0.1850033,-0.340313 -0.212959,-0.310132 -0.00984,0.01063 -0.018249,0.178667 -0.018671,0.373409 -6.052e-4,0.281451 -0.00798,0.368445 -0.035961,0.424121 -0.045462,0.09046 -0.1330822,0.17674 -0.2578548,0.2539361 -0.054823,0.03391 -0.1155194,0.08054 -0.1348767,0.1036009 -0.019357,0.02306 -0.074207,0.1726809 -0.1218905,0.332492 -0.084039,0.281663 -0.1070089,0.33406 -0.2134784,0.486968 -0.045533,0.06538 -0.046539,0.0721 -0.010825,0.07201 0.064722,-1.438e-4 0.1748515,-0.08558 0.2390284,-0.185433 0.033115,-0.05152 0.1089315,-0.184837 0.1684834,-0.296262 0.1435313,-0.268548 0.2542622,-0.3878591 0.4488524,-0.4836291 0.086623,-0.04263 0.1708713,-0.09501 0.1872183,-0.1163909 0.046086,-0.06029 0.066033,-0.04686 0.081066,0.0545 0.015768,0.1063291 0.010998,0.1043409 0.1456343,0.06065 L 8.81107,2.8176229 v 0.08958 c 0,0.04927 -0.010352,0.118943 -0.023003,0.1548259 -0.017063,0.04839 -0.016372,0.06762 0.00269,0.07447 0.080169,0.02882 0.1459351,0.1413182 0.1930646,0.3302782 0.027227,0.1091509 0.067955,0.2336439 0.090508,0.276655 0.040825,0.07785 0.040773,0.07875 -0.010607,0.1984539 -0.02839,0.06613 -0.062533,0.1491446 -0.075868,0.1844586 -0.02229,0.05901 -0.033814,0.0642 -0.1425449,0.0642 -0.1132295,0 -0.1684042,0.02666 -0.1207878,0.05841 0.012331,0.0082 0.046764,0.06671 0.076511,0.130025 0.062247,0.132439 0.1093364,0.154166 0.088294,0.04074 z m -2.1541836,-0.074 c -0.050011,-0.0574 -0.05017,-0.05914 -0.010629,-0.117656 0.049704,-0.07356 0.053848,-0.07374 0.1134192,-0.0055 l 0.048352,0.05548 -0.050185,0.0629 -0.050186,0.0629 z m 4.0486656,-9.479e-4 c -0.04911,-0.05636 -0.04926,-0.05816 -0.0097,-0.11664 0.04999,-0.07398 0.05359,-0.07404 0.116488,-0.0019 l 0.05141,0.059 -0.05414,0.05837 -0.05414,0.05837 -0.04989,-0.05724 z M 10.478532,3.723621 c 0,-0.2986839 0.01217,-0.35481 0.05441,-0.250986 0.02046,0.05028 0.03252,0.05252 0.281241,0.05252 0.253001,0 0.260047,-0.0014 0.266783,-0.05252 0.0038,-0.0289 0.01599,-0.05252 0.02707,-0.05252 0.01108,0 0.02015,0.07879 0.02015,0.175105 0,0.165903 -0.02487,0.230308 -0.04958,0.12841 -0.01053,-0.04342 -0.02954,-0.04669 -0.27087,-0.04669 -0.256811,0 -0.259683,5.969e-4 -0.272755,0.05676 -0.02162,0.09289 0.02169,0.174915 0.116536,0.2206976 0.107821,0.05204 0.09145,0.07277 -0.05749,0.07277 H 10.478535 Z M 6.8837448,3.8631279 c 0,-0.01316 0.021926,-0.03294 0.048722,-0.04395 0.1502417,-0.06176 0.2170368,-0.2464991 0.1151425,-0.31848 -0.080576,-0.05692 -0.1295335,-0.01399 -0.1725542,0.151313 -0.022334,0.08582 -0.054903,0.154319 -0.083718,0.1760779 -0.056178,0.04242 -0.1861117,0.04559 -0.2343009,0.0057 -0.079827,-0.06607 -0.1082255,-0.2060118 -0.061083,-0.30098 0.017115,-0.03448 0.017115,-0.05473 0,-0.07317 -0.044989,-0.0485 -0.023185,-0.06287 0.095442,-0.06287 0.1172674,0 0.15825,0.03013 0.078208,0.05755 -0.064184,0.02196 -0.1540024,0.1224111 -0.1540024,0.17223 0,0.02487 0.017661,0.06874 0.039244,0.09747 0.065101,0.08669 0.1270977,0.04506 0.1680044,-0.1127859 0.041851,-0.161497 0.1117759,-0.237807 0.2179077,-0.237807 0.1556181,0 0.2452749,0.180179 0.180731,0.3632061 -0.014938,0.04237 -0.015002,0.07198 -1.895e-4,0.09122 0.012062,0.01567 0.015519,0.03541 0.00769,0.04386 -0.023397,0.02522 -0.2452393,0.01748 -0.2452386,-0.0086 z M 10.46382,3.1807909 c -0.01824,-0.1439789 3.61e-4,-0.2027839 0.04,-0.126413 0.01577,0.03039 0.02913,0.03241 0.07281,0.01095 0.04359,-0.02141 0.05349,-0.04316 0.05349,-0.117452 0,-0.05015 -0.01009,-0.1114989 -0.02242,-0.136338 -0.02962,-0.05967 -0.108289,-0.05868 -0.122895,0.0014 -0.01514,0.06239 -0.04642,0.05927 -0.05857,-0.0059 -0.04127,-0.2209041 -0.03667,-0.236747 0.04472,-0.1542991 0.0306,0.031 0.158718,0.08286 0.337053,0.13646 0.181279,0.05448 0.289909,0.09864 0.293674,0.1193771 0.0039,0.02144 -0.0961,0.08775 -0.286932,0.190295 -0.181658,0.0976 -0.292911,0.170732 -0.292911,0.192519 0,0.01932 -0.0089,0.03514 -0.01976,0.03514 -0.01087,0 -0.02808,-0.06567 -0.03826,-0.14592 z m 0.426162,-0.2995621 c 0,-0.01325 -0.164771,-0.06817 -0.204487,-0.06817 -0.01633,0 -0.01543,0.15202 9.99e-4,0.16974 0.01512,0.0163 0.203489,-0.07774 0.203489,-0.1015729 z M 7.0638974,3.2592899 C 7.0574174,3.2325099 6.9434832,3.148227 6.7735779,3.0444959 6.6197817,2.9505959 6.4939486,2.8615959 6.4939486,2.846707 c 0,-0.02299 0.2941818,-0.1098861 0.559486,-0.1652791 0.039732,-0.0083 0.077319,-0.02934 0.083525,-0.04678 0.00619,-0.01743 0.019983,-0.0317 0.030626,-0.0317 0.02184,0 0.021635,0.13945 -3.645e-4,0.2451491 -0.014523,0.06978 -0.014676,0.06984 -0.041617,0.01731 -0.021577,-0.04208 -0.038896,-0.04968 -0.085722,-0.03757 -0.032277,0.0084 -0.060021,0.01632 -0.06165,0.01772 -0.0016,0.0014 -0.00974,0.05688 -0.018038,0.1232689 -0.013737,0.109995 -0.010715,0.123232 0.033996,0.1490311 0.042535,0.02454 0.054379,0.02124 0.088959,-0.0248 0.053381,-0.07107 0.061877,-0.05464 0.046087,0.08912 -0.013365,0.1216468 -0.045373,0.1594329 -0.065334,0.07713 z m -0.153112,-0.300302 c 0.00554,-0.04816 0.00778,-0.09068 0.00495,-0.0945 -0.00284,-0.0038 -0.05729,0.0073 -0.1209813,0.02469 l -0.1158005,0.03163 0.096985,0.06265 c 0.053345,0.03447 0.1032277,0.06276 0.1108568,0.06288 0.00762,1.135e-4 0.018425,-0.03918 0.023993,-0.08734 z m 3.3864506,-0.554615 c -0.100254,-0.162792 -0.105027,-0.207783 -0.01566,-0.147612 0.03461,0.0233 0.06891,0.0077 0.230309,-0.1050639 0.104303,-0.07285 0.17601,-0.132345 0.15935,-0.1322232 -0.01666,1.146e-4 -0.13992,0.03545 -0.273913,0.07852 -0.149193,0.04794 -0.243472,0.06822 -0.243233,0.05231 2.29e-4,-0.01429 0.07725,-0.1205368 0.171192,-0.2361059 0.09394,-0.1155709 0.167632,-0.2136659 0.163756,-0.2179909 -0.0039,-0.0043 -0.08578,0.04659 -0.182019,0.1131489 -0.137198,0.09489 -0.174974,0.1328279 -0.174974,0.1757529 0,0.09051 -0.03469,0.08552 -0.09562,-0.01374 -0.054814,-0.08931 -0.059103,-0.174945 -0.0059,-0.1175709 0.0409,0.04411 0.08358,0.02857 0.262663,-0.09565 0.231538,-0.160598 0.242306,-0.171613 0.209483,-0.214252 -0.01657,-0.02153 -0.01838,-0.03938 -0.0049,-0.04834 0.02016,-0.01343 0.154097,0.1717261 0.153888,0.2127379 -3.1e-5,0.01052 -0.05365,0.08386 -0.119104,0.1629682 -0.06545,0.07911 -0.119008,0.1488 -0.119008,0.1548779 0,0.0061 0.07989,-0.01399 0.177545,-0.0446 0.09765,-0.0306 0.184428,-0.05566 0.192841,-0.05566 0.028,0 0.130113,0.210356 0.114954,0.2368021 -0.01005,0.01753 -0.02135,0.01362 -0.03465,-0.01201 -0.01085,-0.0209 -0.02828,-0.03802 -0.03873,-0.03802 -0.01045,0 -0.113034,0.06522 -0.22797,0.1449368 -0.180211,0.1249891 -0.207654,0.15238 -0.199387,0.1990121 0.01727,0.09741 -0.02097,0.07764 -0.100933,-0.05223 z m -3.0886615,0.02728 c 0,-0.04653 -0.032663,-0.07062 -0.2219671,-0.163703 -0.1220822,-0.06003 -0.2306381,-0.109029 -0.241235,-0.1088811 -0.0106,1.427e-4 -0.031033,0.01763 -0.045417,0.03882 -0.014384,0.0212 -0.031886,0.02855 -0.038895,0.01633 -0.00699,-0.01222 0.02561,-0.1092809 0.072491,-0.2156809 0.046874,-0.106398 0.085228,-0.200715 0.085228,-0.2095891 0,-0.0089 0.014967,-0.03917 0.033253,-0.06733 l 0.033253,-0.0512 0.096681,0.05065 c 0.053177,0.02786 0.09668,0.05904 0.09668,0.06933 0,0.01033 -0.036544,0.01886 -0.081206,0.01906 -0.092431,4.084e-4 -0.1124617,0.01172 -0.16367,0.0924 -0.055739,0.08782 -0.045431,0.1149761 0.062604,0.1649041 0.120535,0.0557 0.1098167,0.05593 0.1240035,-0.0027 0.0074,-0.03048 -0.00437,-0.06581 -0.031761,-0.09534 -0.06941,-0.07484 -0.0305,-0.07724 0.1216933,-0.0074 0.1564817,0.07171 0.1792447,0.1046691 0.069193,0.100207 -0.1577033,-0.0064 -0.1639046,0.06887 -0.011996,0.1455689 0.1077406,0.05441 0.1112618,0.0547 0.1405357,0.01153 0.059757,-0.0881 0.058433,-0.0089 -0.00212,0.1276982 -0.065436,0.1475959 -0.097329,0.1755389 -0.097329,0.08526 z m 0.2547494,-0.40235 c -0.0077,-0.0083 -0.00247,-0.03497 0.011619,-0.0593 0.022589,-0.03899 0.00362,-0.06794 -0.1607599,-0.2451441 C 7.1480839,1.5457838 7.1229271,1.5267488 7.0828872,1.5498529 6.9789743,1.6098229 7.0282392,1.5240229 7.2093195,1.329702 l 0.193427,-0.2075761 0.076157,0.07958 c 0.087569,0.0915 0.09742,0.129669 0.027429,0.1062829 -0.1316074,-0.04399 -0.1486232,-0.04206 -0.2124681,0.02388 -0.035,0.03615 -0.063637,0.07784 -0.063637,0.09263 0,0.01479 0.032962,0.05925 0.073251,0.09876 0.053964,0.05295 0.079621,0.065 0.097448,0.04577 0.030058,-0.03241 0.031521,-0.1025029 0.00254,-0.1218139 -0.030844,-0.02055 -0.02681,-0.05837 0.00625,-0.05837 0.038401,0 0.2407877,0.224851 0.216782,0.2408471 -0.010641,0.0071 -0.033508,0.0032 -0.050805,-0.0086 -0.043145,-0.02943 -0.1232231,-0.02759 -0.1408823,0.0032 -0.018942,0.03305 0.1175685,0.1847629 0.1662479,0.1847629 0.04779,0 0.1272972,-0.107839 0.1271225,-0.172417 -5.21e-5,-0.02717 -0.014028,-0.0781 -0.031011,-0.1131941 -0.047878,-0.09895 -0.00625,-0.09564 0.086587,0.0069 l 0.084139,0.0929 -0.1952854,0.210545 C 7.5652184,1.9497159 7.471044,2.0376738 7.4633479,2.029377 Z M 9.7932404,1.7198579 C 9.6597698,1.6170349 9.6461,1.5892899 9.7283584,1.5881679 c 0.05328,-7.25e-4 0.081159,-0.03076 0.2000991,-0.215495 0.1289865,-0.2003491 0.1558255,-0.28732 0.088663,-0.28732 -0.01662,0 -0.01686,-0.0073 -8.01e-4,-0.02468 0.01607,-0.01732 0.059,0.0018 0.144198,0.0642 0.125685,0.09207 0.146589,0.1401209 0.05625,0.1293141 -0.04386,-0.0053 -0.07399,0.02782 -0.187596,0.2058279 -0.1346173,0.210938 -0.1550423,0.2631671 -0.1136908,0.29072 0.02521,0.0168 0.029263,0.05918 0.00539,0.05664 -0.00893,-8.969e-4 -0.066382,-0.04034 -0.1276677,-0.08755 z M 9.5343455,1.5577129 C 9.5212355,1.5483129 9.4736335,1.419807 9.4285646,1.2721329 9.3120915,0.89051987 9.3081689,0.88440987 9.271109,1.0269849 9.191515,1.333197 9.190973,1.3383849 9.233234,1.388737 9.28952,1.455787 9.267432,1.463837 9.139581,1.422897 9.0366454,1.389937 8.9876271,1.342177 9.05675,1.342177 c 0.053927,0 0.1005974,-0.08441 0.1549923,-0.2803431 0.0643,-0.23160003 0.065544,-0.25414303 0.016226,-0.29302403 -0.060239,-0.04748 -0.019807,-0.06098 0.088871,-0.02964 0.08672,0.02501 0.103393,0.03998 0.1243649,0.11165 0.07577,0.25897203 0.136226,0.42145213 0.1506978,0.40501393 0.015854,-0.018 0.085379,-0.2539839 0.085379,-0.28978893 0,-0.0096 -0.015775,-0.03446 -0.035058,-0.05526 -0.052303,-0.05639 -0.021272,-0.06893 0.088579,-0.03577 0.097816,0.02953 0.1365232,0.09357 0.056547,0.09357 -0.045607,0 -0.06984,0.05734 -0.1699889,0.40231503 -0.038691,0.133285 -0.067438,0.197948 -0.083017,0.186781 z M 8.2696863,1.4178349 c 0,-0.0097 0.018351,-0.03008 0.04078,-0.04519 0.038582,-0.02598 0.055812,-0.0767 0.1749179,-0.51493203 0.026018,-0.09572 0.058005,-0.169271 0.073625,-0.169271 0.015193,0 0.092561,0.141839 0.1719325,0.31519403 0.090636,0.197957 0.1565404,0.31519 0.1771883,0.31519 0.018083,0 0.032874,0.0092 0.032874,0.02033 0,0.02419 -0.2582719,0.05923 -0.2782013,0.03772 -0.00758,-0.0082 0.0032,-0.02509 0.023936,-0.03762 0.034498,-0.02082 0.034919,-0.02858 0.00495,-0.09114 -0.031134,-0.06491 -0.038021,-0.06763 -0.1353463,-0.05364 -0.056402,0.0081 -0.109703,0.02629 -0.1184531,0.04036 -0.03013,0.04846 -0.01648,0.111707 0.026738,0.123892 0.063631,0.01793 0.052812,0.04559 -0.024363,0.0622 -0.091908,0.01982 -0.170536,0.01838 -0.170536,-0.0032 z m 0.3621038,-0.295995 c 0.010788,-0.009 -0.086402,-0.19991803 -0.1017955,-0.19991803 -0.00918,0 -0.022544,0.02889 -0.029701,0.0642 -0.00713,0.03531 -0.019436,0.08858 -0.02729,0.11838703 -0.013641,0.05178 -0.010555,0.05346 0.069855,0.03776 0.046277,-0.009 0.086288,-0.01823 0.088924,-0.02043 z" />
  </g>
</svg>
