<?xml version="1.0" encoding="UTF-8" standalone="no"?>
<svg
   xmlns:dc="http://purl.org/dc/elements/1.1/"
   xmlns:cc="http://creativecommons.org/ns#"
   xmlns:rdf="http://www.w3.org/1999/02/22-rdf-syntax-ns#"
   xmlns:svg="http://www.w3.org/2000/svg"
   xmlns="http://www.w3.org/2000/svg"
   xmlns:sodipodi="http://sodipodi.sourceforge.net/DTD/sodipodi-0.dtd"
   xmlns:inkscape="http://www.inkscape.org/namespaces/inkscape"
   version="1.1"
   width="11.5in"
   height="4in"
   id="svg5276"
   inkscape:version="1.0.1 (3bc2e813f5, 2020-09-07)"
   sodipodi:docname="Ankh-Morpork Bloody Direction Sign for Lamp Post.svg"
   inkscape:export-filename="C:\Users\Klemen\Downloads\The Chronicles of Narnia logo.png"
   inkscape:export-xdpi="1500.2426"
   inkscape:export-ydpi="1500.2426"
   viewBox="0 0 1104 384">
  <sodipodi:namedview
     pagecolor="#ffffff"
     bordercolor="#666666"
     borderopacity="1"
     objecttolerance="10"
     gridtolerance="10"
     guidetolerance="10"
     inkscape:pageopacity="0"
     inkscape:pageshadow="2"
     inkscape:window-width="1904"
     inkscape:window-height="996"
     id="namedview67"
     showgrid="true"
     inkscape:zoom="0.97035431"
     inkscape:cx="503.91752"
     inkscape:cy="255.60133"
     inkscape:window-x="0"
     inkscape:window-y="5"
     inkscape:window-maximized="0"
     inkscape:current-layer="svg5276"
     fit-margin-top="0"
     fit-margin-left="0"
     fit-margin-right="0"
     fit-margin-bottom="0"
     inkscape:document-rotation="0"
     showguides="false"
     inkscape:snap-nodes="false"
     units="in"
     inkscape:document-units="in">
    <inkscape:grid
       type="xygrid"
       id="grid986"
       units="in"
       spacingx="24"
       spacingy="24"
       empspacing="4" />
  </sodipodi:namedview>
  <defs
     id="defs5278">
    <clipPath
       id="clipPath3717">
      <path
         d="m 427.26,426.42 h 71.64 v 24 h -71.64 z"
         id="path3719"
         inkscape:connector-curvature="0" />
    </clipPath>
    <clipPath
       id="clipPath3733">
      <path
         d="m 427.264,426.42 h 71.589 v 23.968 h -71.589 z"
         id="path3735"
         inkscape:connector-curvature="0" />
    </clipPath>
    <clipPath
       id="clipPath3745">
      <path
         d="m 427.26,426.42 h 71.64 v 24 h -71.64 z"
         id="path3747"
         inkscape:connector-curvature="0" />
    </clipPath>
    <clipPath
       id="clipPath3773">
      <path
         d="m 427.264,426.42 h 71.589 v 23.968 h -71.589 z"
         id="path3775"
         inkscape:connector-curvature="0" />
    </clipPath>
    <clipPath
       id="clipPath3789">
      <path
         d="m 427.26,426.42 h 71.64 v 24 h -71.64 z"
         id="path3791"
         inkscape:connector-curvature="0" />
    </clipPath>
  </defs>
  <metadata
     id="metadata5281">
    <rdf:RDF>
      <cc:Work
         rdf:about="">
        <dc:format>image/svg+xml</dc:format>
        <dc:type
           rdf:resource="http://purl.org/dc/dcmitype/StillImage" />
        <dc:title></dc:title>
      </cc:Work>
    </rdf:RDF>
  </metadata>
  <path
     id="path857"
     style="font-size:2.15411px;line-height:1.25;font-family:Creepsville;-inkscape-font-specification:Creepsville;fill:#810000;fill-opacity:1;stroke-width:1"
     d="m 1051.9836,75.124275 v 0.504864 l 0.5088,-0.504864 h 1.0099 v 0.504864 l -4.6444,25.849321 1.0099,3.73603 -1.0099,11.51103 v 0.90873 l -0.5088,1.9185 1.0099,3.63506 h -0.5088 l 0.5088,0.50487 -1.0099,7.87596 q 0.3072,2.82727 2.5238,5.55357 l -1.0099,3.63506 0.5088,0.50486 q -1.0099,3.83701 -1.0099,10.09739 v 2.82727 l 1.0099,0.90912 q 3.1305,-6.5633 4.7462,-12.52076 7.3709,-10.80421 8.3808,-17.56946 l -1.1107,-0.90874 v -0.40387 q 3.1306,-1.31267 3.1306,-6.46233 v -0.50486 l 2.6256,-0.90874 h 0.5088 l 6.8659,3.23117 0.5088,-0.50486 h 0.5088 l 21.9113,2.82726 h 0.5088 l 1.6157,0.90874 h 1.0099 l 4.1395,-0.90874 h 0.6048 l 1.0099,0.90874 q -17.7906,14.23696 -25.0608,25.84896 -3.1305,6.46232 -11.0061,13.02563 l -4.6445,8.2799 v 0.50496 q 7.4727,11.10713 17.1656,21.20452 1.6157,4.64477 15.651,13.9344 l 0.6048,2.22144 v 1.4136 l -0.6048,0.50496 0.6048,0.40416 -0.6048,2.32243 1.1107,1.4136 v 4.64477 l -0.5088,6.46233 0.5088,0.40416 v 0.50496 l -0.5088,1.4136 q 3.7363,16.96362 6.2602,19.38699 l -0.6048,1.81757 0.6048,1.4136 q -1.9181,0 -4.2413,23.12302 h -0.5088 q -1.2115,0 -3.1306,-8.78477 h 0.5088 l -1.0099,-2.7263 h 0.5088 q 0,-3.13018 -4.1395,-16.66069 l -4.7462,-10.70324 v -0.40416 q -1.5149,0 -5.2503,9.18864 l -3.6355,6.05847 h -1.5149 v -0.90912 l 0.5088,-0.50496 -0.5088,-0.40416 v -3.73582 l -0.5088,-2.32244 2.0199,-0.90912 v -0.50496 h -0.5088 l -1.5149,0.50496 v -0.50496 l 0.5088,-0.40416 v -0.50496 q -3.3322,0 -6.8659,-13.42952 0,-10.70324 -8.785,-18.88213 -6.0586,-18.47822 -8.8858,-23.12302 h -0.5088 q -1.1107,1.00973 -1.1107,3.23117 h -0.5088 l 0.5088,0.40416 v 0.50496 l -0.5088,0.50496 0.5088,0.40416 v 6.05846 l 0.5088,2.32244 h -0.5088 l 0.5088,0.40416 v 5.04864 l 0.6048,6.05846 q -0.4032,3.73603 -1.1107,3.73603 l 1.1107,3.63504 -0.6048,0.50496 2.6256,20.80063 -3.6355,5.04874 1.0099,0.90912 -1.0099,1.00972 0.5088,0.40416 v 0.50496 q -1.6157,12.41979 -3.6355,12.41979 l -0.5088,-0.40416 v -0.90912 l 0.5088,-0.50496 q -0.5032,-5.04897 -1.6139,-5.04897 h -1.0099 l -2.1206,-5.5536 q -1.2116,-5.75549 -2.5248,-6.46234 -4.1396,0 -6.2602,6.86621 l -0.6048,0.50496 h -0.5088 l -2.1206,-5.04874 0.6048,-1.4136 -0.6048,-1.4136 h 0.6048 q -2.8272,-8.2799 -3.7364,-8.2799 h -0.5088 l -2.0198,19.79088 q -1.6157,0 -3.7363,15.34804 l -0.5088,0.40416 q 0,1.3126 -1.0099,1.3126 -3.6356,-4.84675 -3.6356,-15.65094 -0.912,0 -1.1107,-2.32243 v -0.40416 l 0.6048,-0.50496 -0.6048,-0.40416 0.6048,-3.23117 v -7.47165 l 1.0099,-1.31261 -0.5088,-0.50496 h -0.5088 l 1.5149,-16.15582 q -2.6027,-18.98306 -6.2378,-23.62786 2.928,-4.44288 5.7552,-17.97336 l 0.5088,-3.73603 -1.0099,-7.87594 0.5088,-2.32243 -0.5088,-1.3127 0.5088,-3.73603 -0.5088,-2.8273 1.0099,-4.13993 -0.5088,-0.40387 V 149.542 l 0.5088,-0.40387 -0.5088,-0.50486 q 1.0099,-4.44286 1.0099,-12.52077 v -0.90873 l 0.5088,-0.40388 -1.0099,-3.23117 1.0099,-2.82727 -0.5088,-10.19836 -0.5088,-1.81753 h 0.5088 l -0.5088,-0.50486 v -5.95747 l 1.6157,-21.30549 -0.6048,-1.312666 h 0.6048 l -1.1107,-6.058435 0.5088,-0.403872 v -0.504864 l -0.5088,-4.139933 0.5088,-0.504864 v -0.403872 l 15.1461,4.139933 q 2.5239,-1.615584 8.3808,-3.231168 4.7463,-1.413639 8.3808,-1.413639 z m -5.7552,3.231168 2.6256,0.504864 0.5088,-0.504864 v -0.908736 h -2.1206 z m -10.4003,7.875965 q 0.5088,3.231168 1.5148,3.231168 l 1.6157,-0.504864 0.5088,0.504864 v -1.81753 l -1.1107,-2.322403 h -1.5149 z m -7.8759,3.736032 v 1.817529 h 0.5088 v -1.81753 z m 0,2.22143 v 1.009738 h 0.5088 V 92.18887 Z m -0.5088,3.231168 v 3.332141 h 0.5088 l 0.5088,-2.322403 v -1.918503 z m -0.5088,4.240906 v 1.312656 h 0.5088 l 0.5088,-1.312656 z m 42.8129,20.800626 v 0.40387 h 1.01 v -0.40387 z m -38.673,3.63506 v 0.50486 h 1.0099 v -0.50486 z m -0.5088,5.55356 v 0.90874 h 0.5088 v -0.90874 z m -0.5088,2.3224 v 0.90874 h -0.6048 l 0.6048,0.50487 -1.1107,6.46232 v 6.46233 h 0.5088 l 0.6048,-2.3224 v -3.23117 l 0.5088,-0.40387 -0.5088,-0.50487 1.0099,-3.73603 -0.5088,-1.31266 0.5088,-2.82727 z m 54.8288,5.55357 v 0.50486 h 1.0099 v -0.50486 z m -55.9395,9.69349 v 1.91851 h 0.5088 v -1.91851 z m 0,2.32241 v 0.90873 h 0.5088 v -0.90873 z M 981.90783,132.6794 h 0.5088 v 0.60586 l -2.0199,4.54383 0.5088,3.33214 -1.0099,8.48181 h 1.0099 q 7.0685,-11.30908 10.4004,-11.30908 1.9181,0 5.6544,-2.82727 h 0.5088 q 1.2115,1.71656 3.63547,1.71656 10.5013,6.56331 11.511,8.48181 v 0.60586 q -2.1206,2.72629 -2.1206,4.54382 l 0.5088,3.33214 h -0.5088 l 0.5088,0.60576 -0.5088,8.48179 v 3.93802 l -0.5088,0.60576 0.5088,0.50496 q -1.5149,8.07792 -1.5149,15.8529 l -2.6255,2.32243 q 0,-7.47206 -3.1306,-9.08764 l -4.13947,-5.04874 -2.6256,1.11072 v -0.60576 q -13.8334,6.46234 -15.55,11.30908 v 0.60576 l 1.5149,14.74219 -0.5088,1.61558 2.1206,16.45874 -0.5088,2.22144 0.5088,0.60576 q -1.6157,22.11329 -4.1395,22.11329 0,3.93801 -1.1107,3.93801 l 0.5088,0.50496 v 0.60576 l -0.5088,0.60576 v 0.50496 l 0.5088,0.60576 q -1.2115,8.4818 -3.0288,8.4818 h -0.6048 q -1.1107,-0.70656 -3.6355,-13.63148 l -0.5088,-0.50496 v -0.60576 q -1.5149,0.60576 -1.5149,3.43316 v 0.50496 l 0.5088,5.14963 -2.1207,5.04864 v 8.98665 l -0.5088,6.86621 h 1.1108 v 0.50496 l -1.1108,1.11072 h -0.5088 q -7.775,-14.94414 -7.775,-21.40646 l 1.5149,-2.22144 -0.5088,-0.60576 v -1.11072 l 0.5088,-0.60576 -1.0099,-5.04874 q -5.5536,2.12045 -7.7751,6.76522 l -0.5049,-0.60576 v -0.50496 l 1.0097,-2.8273 h -0.5088 l -0.505,0.50496 h -0.5049 l -1.1107,-1.61558 1.1107,-10.80421 -1.6156,-7.87593 h 0.5049 l -0.5049,-0.60576 v -0.60576 q 0.5049,-9.79447 1.6156,-12.41979 l -1.1107,-17.56946 0.6057,-0.50496 q -0.9091,-0.70656 -7.2701,-26.05127 -4.6447,-16.45875 -8.8856,-20.39673 l 0.5049,-0.50487 v -0.60585 l -1.0097,-1.11071 q 0,-1.00974 2.6253,-1.71656 l 0.505,0.60586 h 0.5049 l 11.4096,-1.71675 h 6.7654 q 1.8172,0 10.9051,-4.54382 l 11.9149,-5.65454 z m -17.6704,126.82323 v 1.61558 h 0.5088 v -1.61558 z m -72.4993,-115.51415 h 4.4429 l 0.505,0.60586 0.5049,-0.60586 h 3.938 q 13.6315,3.73603 20.8007,8.38083 2.1204,0 5.9574,20.0938 0,6.56333 1.9185,15.1461 l -0.5049,0.50496 v 0.60576 q 1.0097,7.87593 2.5243,11.71297 l -1.0098,8.3808 0.505,0.60576 v 0.50496 q -1.2119,10.70326 -6.4625,20.09383 l -5.8565,11.81395 q -4.039,11.81394 -4.039,15.04511 h -1.4136 l -1.0097,-1.11072 v -2.8273 q 0,-8.88566 -3.0292,-8.88566 -0.9091,0 -2.4234,5.04864 -1.5146,0 -1.5146,2.22144 -1.1107,0 -1.9186,4.94774 h -0.5049 l 0.5049,0.60576 v 0.60576 q -4.0389,15.04511 -5.4526,15.04511 -1.1107,0 -2.0194,-6.76522 h 0.5049 q 0,-4.54377 -3.938,-8.88566 h -0.5049 q -1.5146,6.66432 -2.5244,6.66432 -1.4136,0 -2.9282,-11.10713 h -1.0098 l -4.9477,19.48796 h -1.4136 l -1.0097,-1.11072 0.5049,-0.60576 q -1.7166,-1.51461 -4.9478,-17.26654 l -2.0194,-5.04874 0.5049,-1.61558 h -0.5049 l -2.0195,-0.60576 -0.4041,0.60576 v 3.33216 q -1.3127,13.9344 -4.039,13.9344 h -0.9091 q -0.8073,0 -3.534,-11.10713 -4.7458,-6.46234 -8.3808,-22.41621 -3.1302,0 -5.4526,-25.1425 1.8175,-7.06819 2.9283,-17.26654 l -0.4042,-0.60576 v -0.50496 q 6.8662,-15.75193 6.8662,-26.25322 h 0.505 l -0.505,-0.60576 v -1.11072 q 0,-1.4136 11.4101,-3.33216 7.7749,-5.95745 23.7288,-11.2081 z m -24.3347,67.14765 v 0.60576 l 1.2117,5.85648 h -0.6057 q 0,6.86621 14.0353,8.78477 0,0.80736 10.5013,2.32243 12.9247,-3.43315 17.4685,-9.89544 l 2.9283,-11.71298 -0.6058,-0.60576 v -0.60576 l 0.6058,-3.53405 v -1.11072 q -2.0196,-12.92483 -5.2508,-12.92483 -1.5146,0 -4.1399,-8.17892 h -1.1107 q -4.6448,7.97693 -4.6448,12.31882 h -1.2117 q -1.0097,0 -5.2506,-15.24707 -1.5146,-2.92819 -4.0389,-2.92819 h -2.4234 q -9.0876,0 -13.9344,21.10355 -2.0194,0 -3.534,15.75193 z m 20.1948,-13.83343 v 0.90912 h 0.4042 v -0.90912 z m -14.9441,66.54181 v 1.81756 h 0.8073 v -0.50496 l -0.4041,-1.3127 z m -80.17336,-131.9729 0.60577,0.60586 v 0.60586 l -0.60577,0.60585 h -0.50496 l -0.60575,-0.60585 v -0.60586 l 0.60575,-0.60586 z m -0.50496,1.81753 v 0.50487 q 0,4.03896 -2.82728,8.27985 l -1.61559,8.88571 v 4.13993 l 1.11072,1.11072 h 0.50496 q 6.26035,-6.46233 8.88567,-6.46233 h 0.50496 q 0,1.00974 4.94778,2.92824 l 0.6057,-0.50486 2.7263,0.50486 h 1.1107 l 5.4526,-0.50486 v 0.50486 l 8.7848,-1.71655 q 7.775,2.01947 7.775,9.99641 9.2896,19.58895 9.2896,22.41621 l -0.505,0.60576 q 3.3322,0 3.3322,13.02563 l 0.505,0.60576 -1.1108,2.92829 0.6058,0.60576 v 1.11072 l -3.938,10.60226 1.1107,10.70324 q -1.6156,7.06819 -3.837,11.20809 l 0.6057,3.53405 -2.8273,11.20811 q -0.9091,0 -1.6155,6.46233 h -0.505 l 0.505,0.60576 v 0.60576 l -1.6156,1.71658 -1.7166,-4.13991 h 0.6058 q 0,-1.91846 -3.8371,-8.17891 0,-10.09739 -2.2214,-10.09739 h -0.6058 l -7.674,8.88566 v 1.21171 h 1.1107 v 1.11072 q -1.1107,0 -1.1107,1.81757 l -0.505,0.60576 h -1.7166 q -0.5049,-6.05846 -8.1789,-13.02563 l -9.39049,-2.92829 -0.60577,3.53405 0.60577,0.60576 v 0.60576 l -1.11073,2.32243 q 2.7263,4.24089 2.7263,10.60226 v 10.09738 l -0.50496,2.8273 0.50496,3.53405 v 4.74576 q 0,7.06819 -1.11071,7.06819 l 0.60575,0.60576 v 1.21171 q 0,3.02918 -1.71657,3.53405 l -2.72631,-0.60576 -2.7263,5.35161 q -0.70655,11.2081 -2.22144,11.2081 -1.61559,0 -5.45261,-16.55972 h -0.60576 l -1.61558,2.32243 0.50496,1.81757 q -1.61559,0.30336 -1.61559,4.74576 v 9.39053 l -3.33216,9.99642 0.60576,0.60576 v 0.60576 l -3.33216,2.42342 -2.22144,-10.70323 h 0.60576 q -1.71597,-3.02842 -1.71597,-7.06737 l 1.71658,-6.46234 -0.60576,-0.60576 v -0.60576 l 0.60576,-5.25062 q 0,-4.2409 -5.5536,-23.02205 l -1.11072,-8.78477 h 0.60576 l -0.60576,-0.60576 0.60576,-5.95747 -2.22144,-23.6279 h 0.50496 Q 755.6253,180.44006 752.899,172.5641 l 0.50496,-0.60576 -1.11072,-7.67405 0.60576,-1.71658 -0.60576,-3.53405 v -3.53404 l -1.61558,-4.13994 h 0.50496 l -1.61559,-3.53408 0.50496,-0.60586 -0.50496,-0.60586 v -1.71655 l 0.50496,-3.02921 8.27991,1.81752 1.11072,-1.21168 h 1.61558 l 0.60576,0.60586 h 0.50496 l 1.11072,-1.71656 2.72631,0.50486 h 0.60576 q 2.32243,-1.71655 5.4526,-1.71655 6.05847,-1.9185 6.05847,-2.92824 l 0.60576,0.50486 h 0.50496 q 2.92829,0 12.72272,-4.03896 z m -5.55359,5.25065 v 1.21168 l 1.61559,-0.60586 v -0.60585 z m 1.61571,58.46388 v 1.71658 l 1.71658,9.49152 h 1.61558 q 7.27008,2.92829 9.89544,2.92829 13.4295,0 17.6704,-12.41979 l 1.6156,-8.78477 q -5.9575,-6.56333 -8.2798,-6.56333 l -1.6156,0.60576 v -0.60576 q -20.90157,4.74576 -20.90157,11.81395 z m 35.2399,-5.35161 v 1.21171 h 1.1107 v -1.21171 z M 718.66885,132.6794 h 0.50496 v 0.60586 l -2.01946,4.54383 0.50496,3.33214 -1.00972,8.48181 h 1.00972 q 7.06821,-11.30908 10.40032,-11.30908 1.91846,0 5.65449,-2.82727 h 0.50496 q 1.21171,1.71656 3.63504,1.71656 10.50129,6.56331 11.51103,8.48181 v 0.60586 q -2.12045,2.72629 -2.12045,4.54382 l 0.50496,3.33214 h -0.50496 l 0.50496,0.60576 -0.50496,8.48179 v 3.93802 l -0.50496,0.60576 0.50496,0.50496 q -1.51488,8.07792 -1.51488,15.85292 l -2.62531,2.32243 q 0,-7.47206 -3.13018,-9.08764 l -4.1399,-5.04874 -2.62532,1.11072 v -0.60576 q -13.83348,6.46224 -15.55003,11.30899 v 0.60576 l 1.51459,14.7422 -0.50496,1.61558 2.12044,16.45874 -0.50496,2.22144 0.50496,0.60576 q -1.61558,22.11328 -4.13989,22.11328 0,3.93802 -1.11073,3.93802 l 0.50496,0.50496 v 0.60576 l -0.50496,0.60576 v 0.50496 l 0.50496,0.60576 q -1.21171,8.48179 -3.02918,8.48179 h -0.60576 q -1.11072,-0.70656 -3.63504,-13.63147 l -0.50496,-0.50496 v -0.60576 q -1.5146,0.60576 -1.5146,3.43315 v 0.50496 l 0.50496,5.14963 -2.12044,5.04864 v 8.98666 l -0.50496,6.86621 h 1.11072 v 0.50496 l -1.11072,1.11072 h -0.50496 q -7.77504,-14.94414 -7.77504,-21.40647 l 1.51459,-2.22144 -0.50495,-0.60576 v -1.11072 l 0.50495,-0.60576 -1.00973,-5.04873 q -5.55359,2.12044 -7.77503,6.76521 l -0.50496,-0.60576 v -0.50496 l 1.00973,-2.82729 h -0.50496 l -0.50496,0.50496 h -0.50496 l -1.11073,-1.61559 1.11073,-10.8042 -1.6156,-7.87594 h 0.50496 l -0.50496,-0.60576 v -0.60576 q 0.50496,-9.79447 1.6156,-12.41979 l -1.11073,-17.56946 0.60577,-0.50496 q -0.90912,-0.70656 -7.27008,-26.05127 -4.64478,-16.45875 -8.88568,-20.39673 l 0.50496,-0.50486 v -0.60586 l -1.00972,-1.11071 q 0,-1.00974 2.62532,-1.71656 l 0.50496,0.60586 h 0.50496 l 11.41032,-1.71668 h 6.76521 q 1.81758,0 10.90519,-4.54382 l 11.91495,-5.65455 z m -17.67043,126.82323 v 1.61558 h 0.50496 v -1.61558 z M 628.49914,143.98848 h 4.44289 l 0.50496,0.60586 0.50495,-0.60586 h 3.93803 q 13.63147,3.73603 20.80062,8.38083 2.12044,0 5.95748,20.0938 0,6.56333 1.91855,15.1461 l -0.50496,0.50496 v 0.60576 q 1.00972,7.87593 2.52432,11.71297 l -1.00973,8.3808 0.50496,0.60576 v 0.50496 q -1.21171,10.70323 -6.46234,20.0938 l -5.85677,11.81398 q -4.03896,11.81394 -4.03896,15.04511 h -1.41363 l -1.00973,-1.11072 v -2.8273 q 0,-8.88566 -3.02919,-8.88566 -0.90912,0 -2.42331,5.04864 -1.5146,0 -1.5146,2.22144 -1.11073,0 -1.91847,4.94774 h -0.50495 l 0.50495,0.60576 v 0.60576 q -4.03891,15.04511 -5.45261,15.04511 -1.11071,0 -2.01945,-6.76522 h 0.50496 q 0,-4.54377 -3.93802,-8.88566 h -0.50496 q -1.51459,6.66432 -2.52432,6.66432 -1.41359,0 -2.92828,-11.10713 h -1.00973 l -4.94775,19.48796 h -1.41359 l -1.00973,-1.11072 0.50496,-0.60576 q -1.71678,-1.51461 -4.94794,-17.26654 l -2.01946,-5.04874 0.50496,-1.61558 h -0.50496 l -2.01946,-0.60576 -0.40416,0.60576 v 3.33216 q -1.3127,13.9344 -4.03891,13.9344 h -0.90912 q -0.80736,0 -3.53405,-11.10713 -4.74576,-6.46234 -8.38081,-22.41621 -3.13016,0 -5.45259,-25.1425 1.81756,-7.06819 2.92827,-17.26654 l -0.40416,-0.60576 v -0.50496 q 6.86622,-15.75193 6.86622,-26.25322 h 0.50496 l -0.50496,-0.60576 v -1.11072 q 0,-1.4136 11.41005,-3.33216 7.77504,-5.95745 23.72886,-11.2081 z m -24.3347,67.14765 v 0.60576 l 1.21171,5.85648 h -0.60576 q 0,6.86621 14.03537,8.78477 0,0.80736 10.50128,2.32243 12.92467,-3.43315 17.46848,-9.89544 l 2.92821,-11.71298 -0.60577,-0.60576 v -0.60576 l 0.60577,-3.53405 v -1.11072 q -2.01954,-12.92483 -5.25071,-12.92483 -1.51459,0 -4.13991,-8.17892 h -1.11072 q -4.64477,7.97693 -4.64477,12.31882 h -1.21171 q -1.00973,0 -5.25062,-15.24707 -1.51459,-2.92819 -4.03891,-2.92819 h -2.42343 q -9.08765,0 -13.93439,21.10355 -2.01945,0 -3.53412,15.75191 z m 20.19478,-13.83343 v 0.90912 h 0.40416 v -0.90912 z m -14.94414,66.54181 v 1.81756 h 0.80736 v -0.50496 l -0.40416,-1.3127 z M 565.49147,75.225249 q 0.70655,1.615584 2.82729,1.615584 l 2.01945,-0.403872 v 0.403872 l 0.40417,-0.403872 h 0.40416 q 2.8273,0 2.8273,0.807744 l 4.84675,-0.807744 0.40416,0.403872 v 0.807744 q -2.7263,5.553561 -4.84675,16.155824 l 0.40416,0.403872 v 1.615584 q -2.01946,2.120448 -2.01946,3.63506 v 8.077913 l 0.40416,2.42337 -0.40416,0.40388 0.40416,1.61558 -0.40416,10.09739 h -0.40416 l 0.80736,4.03896 -0.80736,4.84675 0.80736,8.88571 h -0.40416 l 3.23117,14.13634 q 1.21171,0.40416 1.21171,2.42333 -1.61558,2.32243 -3.23117,12.11687 l 0.40416,0.40416 q -2.01945,7.27008 -2.01945,10.50129 l 1.21171,22.61816 -0.40416,1.61558 0.40416,1.61558 v 1.61559 l -0.40416,1.21171 0.40416,2.01946 v 3.63504 l -0.80736,0.80736 h -0.40416 q -2.01946,-1.91847 -2.01946,-5.25063 l 0.40416,-0.40416 q -2.42342,-1.4136 -2.42342,-3.63504 v -1.21171 h -0.80736 l -0.40416,2.42333 0.40416,0.40416 v 0.40416 l -0.40416,2.42333 0.40416,1.61558 -0.40416,2.8273 0.40416,1.21171 h -0.40416 l 0.40416,0.40416 v 6.46233 l -0.40416,0.40416 0.40416,1.21172 -0.40416,2.42332 v 0.80736 h 0.40416 l -0.40416,4.03901 v 10.09739 q 0,8.78476 0.80736,12.92466 h -0.40416 l 0.80736,4.84675 -0.40416,0.40416 h -0.80736 q -0.90912,0 -1.61558,-3.63504 l 0.40416,-0.40416 q -0.50496,-2.42333 -1.21172,-2.42333 h -0.40416 l -0.40416,7.27008 0.40416,2.01946 -0.40416,0.40416 h -0.80736 q -4.84698,-9.49189 -4.84698,-12.52111 l 0.40416,-1.21171 q -2.01945,-2.32243 -2.01945,-7.67405 l 0.40416,-0.40416 v -0.40416 l -4.44288,-20.19478 0.40416,-0.40416 v -0.40416 q -0.50496,-2.42333 -1.21172,-2.42333 -0.70656,1.21172 -1.61558,12.11687 -2.7263,0 -3.23117,14.13635 l -0.40416,0.40416 h -0.40416 l -3.63504,-11.71297 0.40416,-0.40416 v -0.40416 q -1.51459,-6.46234 -2.01945,-6.46234 l 0.40416,-2.82729 v -2.01946 l -0.80736,-1.21171 1.21171,-10.50129 -0.40416,-0.40416 v -0.40416 l 0.40416,-0.40416 v -0.40416 l -0.40416,-0.40416 1.61558,-18.57919 -0.80736,-5.25063 h 0.40416 l -0.40416,-0.40416 v -0.40416 l -0.40532,-18.97989 q -2.01947,-4.64481 -2.01947,-7.27013 H 539.238 l -4.03892,13.73246 v 0.40416 l 0.40416,0.40416 -0.80736,12.11687 h -0.40416 l 0.40416,0.40416 v 1.21171 l -0.40416,0.40416 0.40416,0.40416 v 3.23117 q -5.65449,4.94774 -5.65449,15.75193 l 0.40416,0.40416 -0.40416,2.01945 v 6.46234 l -0.40416,0.40416 0.40416,0.40416 -0.80736,5.25062 0.80736,3.63504 h -0.40416 l 0.40416,0.40416 v 0.40416 q -1.21171,3.83703 -2.01946,12.52077 -0.80736,0 -0.80736,5.25062 l -0.40416,0.40416 h -1.21239 l -6.05845,-20.60154 h -0.40416 l -2.82729,20.59868 0.40416,0.40416 v 0.40416 l -0.40416,1.21171 0.40416,2.01946 -0.40416,0.40416 h -0.80736 q -0.80736,0 -1.21172,-3.63504 h 0.40416 q -0.80736,-1.11072 -1.21171,-5.6545 l 0.40416,-0.40416 q -0.60575,0 -1.61558,-3.23117 h -0.40416 q -0.80736,3.63504 -1.61559,3.63504 -2.22144,0 -3.23116,-11.71297 l 0.40416,-0.40416 q -0.80736,0 -1.21172,-3.23117 h 0.40416 l -5.65536,-17.77171 q 0,-2.42333 -2.82729,-6.05846 l -0.40416,-2.42333 h 0.40416 l -0.40416,-0.40416 v -1.21171 l 0.40416,-0.40416 -0.40416,-0.40416 v -2.42333 l 0.40416,-0.40416 -0.40416,-0.40416 v -0.40416 l 0.40416,-4.84675 -0.40416,-2.8273 h 0.40416 l -5.65455,-23.82826 h -0.40416 v 2.42332 l 0.80736,2.42333 -0.40416,0.40416 v 0.40416 l 0.40416,1.21171 q -1.61558,0 -4.44288,15.75193 v 2.01946 q 0.1008,2.62531 2.8273,8.07792 v 0.80736 q 0,2.8273 -0.80736,2.8273 l 0.40416,0.40416 v 0.40416 q -0.80736,1.3127 -1.21171,6.46233 l 0.80736,5.25063 h -0.40415 l 0.40415,0.40416 v 0.40416 l -0.40415,0.40416 0.40415,0.40416 v 4.44288 l 0.40416,1.61558 -0.80736,1.61558 0.40416,1.61559 -0.80736,10.50129 v 5.25062 l -0.80736,0.80736 q -1.21306,-2.3236 -2.82863,-11.31028 l -1.21171,0.80736 0.40416,0.40416 v 0.40416 l -0.80736,4.03891 0.80736,3.63504 -1.21172,11.30908 0.40416,1.61559 -0.80736,3.23116 0.40416,4.03901 -1.21171,8.48179 0.40416,0.40416 v 1.21172 l -0.40416,0.40416 0.40416,0.40416 v 4.03891 l 0.40416,1.61558 -0.40416,0.40416 v 0.40416 l 0.40416,1.21171 -0.40416,0.40416 h -0.40416 q -0.60576,-1.71657 -3.23117,-3.63504 0,-2.32243 -2.82729,-8.88566 l 0.40416,-0.40416 q -0.50496,-2.12045 -1.61559,-2.8273 l 0.40416,-1.21171 q -0.90912,-15.34803 -2.42342,-19.79088 h 0.40416 q -0.80736,-6.76521 -3.63504,-13.73245 h -0.40416 l -1.61558,9.69349 0.40416,0.40416 v 0.40416 l -0.80736,2.8273 0.40416,3.23117 -0.40416,0.40416 h -0.80736 l -0.80736,-0.80736 0.40416,-1.21172 -0.40416,-0.40416 0.40416,-0.40416 q -1.21172,0 -1.21172,-3.23116 h -0.80736 l -1.21553,10.09528 0.40416,3.63504 -0.40416,0.40416 h -1.21171 l -0.40416,-2.01946 h 0.40416 l -2.01946,-9.28986 h 0.40416 l -0.40416,-0.40416 v -0.40416 l 0.40416,-0.40416 -0.40416,-0.40416 v -0.40416 l -0.80736,-10.09739 0.80736,-3.23116 -0.80736,-5.25063 0.40416,-0.40416 -0.80736,-12.11687 0.40416,-1.61558 -0.40416,-1.21171 h 0.40416 l -0.40416,-0.40416 v -3.63504 l 0.40416,-0.40416 -0.40416,-0.40416 v -6.46234 l 0.40416,-1.61558 -0.40416,-0.40416 v -0.40416 q 0.60576,-13.73246 1.21172,-13.73246 l -0.40416,-0.40416 0.40416,-2.01946 v -2.42022 q 0,-2.12045 -2.8273,-4.03891 h 0.40416 l -0.80736,-3.23117 0.40416,-0.40416 v -0.40416 l -0.40416,-0.40416 0.40416,-2.01946 v -2.82727 l 0.40416,-0.40387 -0.40416,-0.40387 v -0.40387 l 0.40416,-0.40387 -0.40416,-0.40388 v -1.61558 l 0.40416,-0.40387 -0.40416,-0.40387 v -0.40388 l 0.80736,-6.05843 -0.40416,-0.40387 v -0.40387 q 0.80736,-2.12045 0.80736,-8.48182 v -13.73196 l -1.61654,-24.637629 q -1.71656,-4.644799 -3.23116,-6.058434 v -2.019475 h 1.21171 q 3.02918,0 3.23117,-1.211683 v -0.807744 q -1.21172,-1.514662 -1.21172,-2.827323 v -3.231168 q 10.19836,3.937987 18.9831,8.885702 l 6.46233,0.403872 9.69349,-1.211683 0.40416,0.403872 h 0.40416 l 6.05847,-1.211683 0.80737,1.211683 v 4.442851 l 0.40415,2.423376 -0.40415,1.615584 q 3.938,28.676592 5.65458,28.676592 0,2.62532 3.63504,8.48181 l 0.80737,2.82727 -0.80737,5.65453 q 0.60576,18.17531 2.42333,18.17531 h 0.40416 q 2.12046,-14.13635 3.23117,-14.13635 l -0.40416,-0.40387 v -0.40387 l 3.23116,-12.11688 h 0.40416 l -0.40416,-0.40387 v -0.40387 l 0.80736,-4.84674 -0.40416,-1.61559 h 0.40416 l -0.80736,-2.01947 q 0.70656,-2.52435 5.25063,-10.09739 l 2.01945,-4.84674 -0.40416,-0.40388 v -1.21168 q 0,-2.52435 1.61559,-8.077911 v -0.807744 l -0.40416,-2.423376 0.40416,-0.403872 v -0.403872 l -0.40416,-2.423376 h 0.40416 l -2.0193,-10.097567 V 80.07202 l 0.80736,-0.807744 h 1.21172 l 2.42331,0.403872 1.21172,-0.403872 q 11.41005,1.312666 11.71298,2.019475 h 0.40416 l 6.8662,-1.211683 v 0.403872 l 0.40416,-0.403872 h 6.05847 l 0.40416,0.403872 q 1.51459,-0.403872 4.03901,-2.827267 z m 10.09739,4.03896 v 0.807744 h 1.21171 v -0.807744 z m -9.69349,10.905177 v 1.211684 h 0.40416 v -1.211684 z m 5.25063,8.481812 v 0.807744 h 0.40416 v -0.807744 z m 3.23116,56.141492 v 1.21171 h 0.40416 v -1.21171 z m -44.42851,34.73502 v 1.61558 l 1.21171,-1.61558 z m -8.07792,35.54282 v 1.21171 h 0.40416 v -1.21171 z m 40.38956,32.71554 v 0.80736 l 1.21171,-0.40416 v -0.40416 z M 451.28995,159.94236 v 0.40416 l -0.80736,2.42333 0.80736,0.40416 v 0.40416 l -1.61558,1.61558 0.80736,1.61559 -0.80736,1.21171 0.80736,1.61558 h -0.80736 l 0.80736,0.40416 -0.80736,2.8273 v 2.8273 l -0.80736,0.40416 0.80736,0.40416 v 1.21171 q 0,4.44288 -21.70939,5.25062 l -30.49413,6.46234 q -9.5925,0 -9.5925,-7.67405 l -2.42344,-9.28963 h 0.80737 l -0.80737,-0.40416 v -1.21171 l 1.61559,-0.80736 h 0.80737 l 1.61558,0.80736 q 32.00873,-3.73604 44.93338,-7.67405 l 3.23116,-0.80736 5.5536,0.40416 q 0,-1.61559 2.42334,-1.61559 z m -4.03892,2.42333 v 0.80736 h 0.80736 v -0.80736 z m -0.80736,8.88576 v 0.80736 h 0.80736 v -0.80736 z m -112.7883,-85.524915 0.40415,0.504864 v 1.413639 q -3.33216,4.03896 -3.33216,9.491548 l 1.00973,3.332144 q -5.75549,8.07791 -7.67405,21.40647 l 3.33217,25.24348 -0.90913,4.2409 0.50496,0.50486 v 0.50487 l -0.50496,0.40387 1.4136,7.67401 q 2.92829,-1.71658 5.75549,-7.67401 h 0.40416 l 2.92828,0.50486 q 1.11072,-0.90873 7.0682,-1.41362 0,-3.33214 3.83702,-3.33214 1.71658,-2.82727 3.83702,-2.82727 h 0.40416 q 3.83703,4.2409 7.16919,10.40031 11.81395,5.85648 13.83343,11.41005 5.04873,8.07792 8.98665,12.41979 v 1.4136 l -5.25062,22.31524 0.50496,0.50496 v 0.50496 q -5.6545,19.48796 -5.6545,26.15223 l 0.40416,0.50496 v 0.40416 l -0.40416,0.50496 0.40416,4.74576 v 1.4136 l -1.4136,7.16919 0.50496,0.50496 v 0.40416 l -3.83702,16.2568 h -0.50496 q -2.32243,-1.31271 -2.32243,-6.66432 v -2.92911 l 0.50496,-0.40416 q -2.92829,-5.85648 -2.92829,-9.59251 h -0.40416 q -1.61559,3.73603 -2.42333,3.83703 l 0.50496,0.50496 v 0.90912 l -2.92829,4.74576 q -0.60576,0 -2.82729,-6.66432 l 1.4136,-0.90912 h 0.50496 l -0.50496,0.50496 q 0.70656,2.82729 1.4136,2.82729 l 1.00972,-2.82729 q -1.91846,-0.30336 -1.91846,-1.4136 l -1.4136,0.90912 -6.15936,-26.65711 q 1.4136,-6.05846 1.4136,-10.90519 v -0.50496 l 0.40416,-0.50496 -0.40416,-0.40416 v -4.3417 l 0.40416,-0.40416 v -0.50496 l -0.90912,-1.00973 v -0.90912 q 0,-13.32856 -5.25062,-15.65096 -3.93802,-2.92829 -9.49152,-2.92829 h -1.4136 q -1.4136,0 -3.83703,11.00615 v 1.4136 l 1.00973,3.73604 -0.50496,0.50496 q 0.90912,1.71657 2.32243,19.48796 l -0.40416,5.25062 0.40416,1.4136 h -0.40416 l 0.40416,0.50496 -0.40416,5.75549 v 0.90912 l 0.40416,2.8273 q -1.91846,11.61199 -3.73603,12.41978 -1.00973,0 -1.4136,-3.83702 h 0.40416 q -1.11072,-4.2409 -1.81757,-4.2409 0,1.4136 -1.00973,1.4136 l 0.50496,0.40416 v 0.50496 q -1.00972,1.91847 -2.42342,13.83343 l 0.50496,0.50496 v 0.40416 l -3.33216,15.24706 h -0.90912 q -0.70656,0 -3.33216,-13.83342 h 0.40416 l -1.91846,-9.99642 0.50496,-0.40416 -0.50496,-2.42333 v -4.2409 q 0,-1.00972 -1.4136,-1.00972 -0.40416,-3.73604 -1.4136,-3.73604 h -0.50496 q -1.81757,8.17892 -3.73604,10.90518 l -2.42332,12.82369 0.50496,0.50496 v 0.50496 q -0.60576,2.32243 -1.4136,2.32243 h -0.50496 l -0.90911,-14.23733 -1.4136,-1.4136 v -1.00972 l 0.40416,-1.91856 -0.40416,-1.4136 h 0.40416 l -0.40416,-0.40416 v -1.5146 l 0.40416,-0.40416 -0.40416,-0.50496 q 1.4136,-4.84675 1.4136,-13.32856 v -1.91829 q 0,-4.54387 -3.33216,-7.57306 0,1.91847 -1.4136,1.91847 l -0.50496,-0.50496 h -0.50496 q 1.61558,-7.47207 2.82729,-8.07792 l -0.40416,-0.50496 2.32243,-18.9831 -0.40416,-0.50496 v -0.50496 l 0.90912,-1.81757 -0.50496,-1.51459 h 0.50496 l -0.50496,-0.40416 v -0.50496 l 0.50496,-12.82369 h 0.50496 l -0.50496,-0.50496 v -4.24089 l 0.50496,-0.50497 -0.50496,-0.50496 v -1.41359 l 0.50496,-2.8273 -0.50496,-1.4136 h 0.50496 l -0.50496,-0.50496 v -0.50496 l 0.50496,-0.40416 -0.50496,-0.50496 0.50496,-3.33216 v -3.83701 l 0.40416,-0.50486 -3.33216,-20.9016 h 0.50496 l -0.90912,-7.16915 0.40416,-0.40387 q 0,-8.17888 -5.65449,-17.16556 l -1.91847,-7.169149 0.50496,-0.403872 v -0.504864 l -0.50496,-1.413639 q 2.32244,-2.423376 9.99643,-2.423376 l 0.50495,0.504864 v 0.504864 l 0.40416,-0.504864 h 1.00973 l 0.40415,0.504864 2.9282,-1.009737 v -0.403872 h 1.91857 q 8.68376,0 16.15582,-4.745779 2.32242,-1.514612 8.58277,-2.423376 z m -5.25063,4.74577 v 0.504864 h 0.90911 v -0.504864 z m 11.41005,83.707375 0.90913,1.00973 h 0.50495 l -0.90912,-1.00973 z m -12.82371,64.72428 v 0.50496 h 1.4136 v -0.50496 z m -8.58279,22.8201 v 0.50496 h 0.90912 v -0.50496 z M 238.63893,75.124275 v 0.504864 l 0.50497,-0.504864 h 1.00971 v 0.504864 l -4.64475,25.849321 1.00971,3.73603 -1.00971,11.51103 v 0.90873 l -0.50497,1.9185 1.00972,3.63506 h -0.50496 l 0.50496,0.50487 -1.00972,7.87596 q 0.30336,2.82727 2.52432,5.55357 l -1.00973,3.63506 0.50497,0.50486 q -1.00973,3.83701 -1.00973,10.09739 v 2.82727 l 1.00973,0.90912 q 3.13016,-6.5633 4.74575,-12.52076 7.37107,-10.80421 8.3808,-17.56946 l -1.11072,-0.90874 v -0.40387 q 3.13017,-1.31267 3.13017,-6.46233 v -0.50486 l 2.62532,-0.90874 h 0.50496 l 6.8662,3.23117 0.50496,-0.50486 h 0.50496 l 21.91134,2.82726 h 0.50496 l 1.61559,0.90874 h 1.00972 l 4.13991,-0.90874 h 0.60576 l 1.00973,0.90874 q -17.77165,14.23695 -25.04177,25.84895 -3.13018,6.46234 -11.00615,13.02564 l -4.64477,8.2799 v 0.50496 q 7.47207,11.10713 17.16557,21.20452 1.61559,4.64477 15.65096,13.9344 l 0.60576,2.22144 v 1.4136 l -0.60576,0.50496 0.60576,0.40416 -0.60576,2.32243 1.11072,1.4136 v 4.64477 l -0.50496,6.46233 0.50496,0.40416 v 0.50496 l -0.50496,1.4136 q 3.73604,16.96362 6.26036,19.38699 l -0.60576,1.81757 0.60576,1.4136 q -1.91857,0 -4.24091,23.12302 h -0.50495 q -1.21171,0 -3.13018,-8.78477 h 0.50496 l -1.00969,-2.72701 h 0.50496 q 0,-3.13018 -4.1399,-16.6607 l -4.74576,-10.70323 v -0.40416 q -1.5146,0 -5.25063,9.18864 l -3.63504,6.05847 h -1.51459 v -0.90912 l 0.50496,-0.50496 -0.50496,-0.40416 v -3.73511 l -0.50496,-2.32244 2.01946,-0.90912 v -0.50496 h -0.50496 l -1.5146,0.50496 v -0.50496 l 0.50496,-0.40416 v -0.50496 q -3.33216,0 -6.8662,-13.42952 0,-10.70324 -8.78477,-18.88213 -6.05847,-18.47822 -8.88567,-23.12302 h -0.50496 q -1.11072,1.00973 -1.11072,3.23117 h -0.50496 l 0.50496,0.40416 v 0.50496 l -0.50496,0.50496 0.50496,0.40416 v 6.05846 l 0.50496,2.32244 h -0.50496 l 0.50496,0.40416 v 5.04864 l 0.60577,6.05846 q -0.40417,3.73603 -1.11073,3.73603 l 1.11073,3.63504 -0.60577,0.50496 2.62532,20.80063 -3.63504,5.04874 1.00972,0.90912 -1.00972,1.00972 0.50496,0.40416 v 0.50496 q -1.61559,12.41979 -3.63504,12.41979 l -0.50496,-0.40416 v -0.90912 l 0.50496,-0.50496 q -0.5051,-5.04897 -1.61581,-5.04897 h -1.00973 l -2.12045,-5.5536 q -1.21171,-5.75549 -2.52432,-6.46234 -4.1399,0 -6.26035,6.86621 l -0.60575,0.50496 h -0.50497 l -2.12045,-5.04874 0.60576,-1.4136 -0.60576,-1.4136 h 0.60576 q -2.82729,-8.2799 -3.73603,-8.2799 h -0.50496 l -2.01945,19.79088 q -1.61559,0 -3.73604,15.34804 l -0.50496,0.40416 q 0,1.3126 -1.00972,1.3126 -3.63504,-4.84675 -3.63504,-15.65094 -0.90912,0 -1.11072,-2.32243 v -0.40416 l 0.60576,-0.50496 -0.60576,-0.40416 0.60576,-3.23117 v -7.47165 l 1.00972,-1.31261 -0.50496,-0.50496 h -0.50454 l 1.51461,-16.15578 q -2.62532,-18.9831 -6.26038,-23.6279 2.92824,-4.44285 5.75551,-17.97336 l 0.50496,-3.73603 -1.00972,-7.87594 0.50496,-2.32243 -0.50496,-1.3127 0.50496,-3.73603 -0.50496,-2.8273 1.00972,-4.13993 -0.50496,-0.40387 V 149.542 l 0.50496,-0.40387 -0.50496,-0.50486 q 1.00973,-4.44286 1.00973,-12.52077 v -0.90873 l 0.50496,-0.40388 -1.00973,-3.23117 1.00973,-2.82727 -0.50496,-10.19836 -0.50496,-1.81753 h 0.50496 l -0.50496,-0.50486 v -5.95747 l 1.61559,-21.30549 -0.60576,-1.312666 h 0.60576 l -1.11072,-6.058435 0.50496,-0.403872 v -0.504864 l -0.50496,-4.139933 0.50496,-0.504864 v -0.403872 l 15.14609,4.139933 q 2.52432,-1.615584 8.3808,-3.231168 4.74576,-1.413639 8.3808,-1.413639 z m -5.75549,3.231168 2.62531,0.504864 0.50497,-0.504864 v -0.908736 h -2.12045 z m -10.40032,7.875965 q 0.50496,3.231168 1.5146,3.231168 l 1.61558,-0.504864 0.50496,0.504864 v -1.81753 l -1.11071,-2.322403 h -1.51472 z m -7.87593,3.736032 v 1.817529 h 0.50497 v -1.81753 z m 0,2.22143 v 1.009738 h 0.50497 V 92.18887 Z m -0.50496,3.231168 v 3.332141 h 0.50496 l 0.50497,-2.322403 v -1.918503 z m -0.50496,4.240906 v 1.312656 h 0.50496 l 0.50496,-1.312656 z m 42.81294,20.800626 v 0.40387 h 1.00972 v -0.40387 z m -38.67301,3.63506 v 0.50486 h 1.00973 v -0.50486 z m -0.50496,5.55356 v 0.90874 h 0.50496 v -0.90874 z m -0.50496,2.3224 v 0.90874 h -0.60576 l 0.60576,0.50487 -1.11072,6.46232 v 6.46233 h 0.50496 l 0.60576,-2.3224 v -3.23117 l 0.50496,-0.40387 -0.50496,-0.50487 1.00973,-3.73603 -0.50496,-1.31266 0.50496,-2.82727 z m 54.82883,5.55357 v 0.50486 h 1.00972 v -0.50486 z m -55.93955,9.69349 v 1.91851 h 0.50496 v -1.91851 z m 0,2.32241 v 0.90873 h 0.50496 v -0.90873 z m -70.98435,-14.64123 1.11072,4.44285 -0.60576,7.06817 v 1.11072 l -1.11072,2.22142 0.60576,2.22142 -0.60576,1.61557 0.60576,0.60576 h 0.50496 q 5.4525,-9.89534 15.85281,-9.89534 l 8.2799,-0.60585 q 13.83343,0 27.26296,6.05843 v 0.60586 q -0.2016,2.12045 -1.61559,2.12045 l 0.60576,0.60585 -1.71657,9.28964 v 6.05846 l 0.60576,1.71658 -0.60576,2.7263 v 9.28963 q 0,4.44288 3.33216,20.39673 l -0.60576,2.7263 v 12.11687 l -0.50496,0.50496 0.50496,0.60576 v 0.50496 l -1.00973,1.71658 v 6.05846 l -1.11072,1.61559 0.50496,2.22144 -0.50496,0.50496 0.50496,2.7263 v 1.11072 l -0.50496,0.60576 1.11072,6.05846 q -0.80736,10.40032 -1.71658,10.40032 l 0.60576,1.71657 -0.60576,0.50496 v 0.50441 l 0.60576,2.22144 -0.60576,1.71657 0.60576,1.61559 -1.11072,1.11072 1.61559,9.79447 -0.50496,6.05846 q -2.22144,0 -7.16919,-21.40646 l -0.50496,-0.50496 h -0.50496 q -1.11072,1.11072 -1.11072,6.05846 l -0.60576,0.50496 h -1.11072 q -0.90912,0 -6.56333,-14.23732 l -2.12044,0.50496 -1.61559,-0.50496 v 0.50496 l 0.50496,1.61559 h -0.50496 l -2.22144,2.22144 -2.22144,-2.72631 v -1.61558 l 0.60576,-0.60576 -0.60576,-0.50496 v -3.83703 l 1.11072,-7.77494 -0.50496,-1.61558 h 0.50496 l -0.50496,-0.50496 v -0.60576 l 0.50496,-3.33216 q -1.91816,-25.24368 -3.83667,-25.24368 l 1.11072,-9.89544 q 0,-7.97693 -7.67404,-12.62174 v -1.11072 l -4.94775,-2.22144 q -6.56333,0 -9.28963,6.05846 l 0.60576,0.50496 q -0.90912,0 -1.71658,3.83703 0.60576,8.78477 3.33216,17.06458 l -0.50496,2.22144 h 0.50496 l 1.61559,-0.50496 0.60576,0.50496 v 1.61559 q -3.83703,2.42333 -3.83703,18.17529 l 0.50496,2.72631 q -0.40416,7.77494 -1.11072,7.77494 l 0.60576,0.50496 v 9.39063 l 0.50496,2.7263 h -0.50496 l -3.83702,-2.7263 q 0,-3.63504 -3.83702,-4.44288 v 0.50496 l 0.50496,2.82729 -1.11072,1.11072 1.71657,2.12045 v 1.71658 q -2.92819,12.92466 -3.83702,27.4649 l -1.61559,1.11072 q -2.82729,-5.5536 -5.5536,-16.45875 l 0.60576,-0.60576 h 0.50496 l 0.60576,0.60576 v -1.11072 q -2.7263,0 -2.7263,-1.71658 v -0.50496 l 0.50496,-0.60576 -4.94774,-20.90159 q -1.11072,0 -1.11072,4.94774 h -0.50496 l 0.50496,0.60576 v 1.11072 q 0,2.01946 -3.23117,5.45261 v 0.60576 l 1.11072,3.83703 h -0.60576 l 0.60576,0.50496 v 0.60576 l -1.11072,2.7263 0.50496,1.61558 -0.50496,0.60576 h -0.60576 l -6.56333,-16.55972 1.11072,-3.83702 -1.61558,-13.73246 h 0.50496 l -3.23105,-10.40042 h 0.50495 l -0.50495,-0.60576 0.50495,-8.27991 v -1.00973 l 0.60576,-0.60576 -0.60576,-0.50496 q 3.33216,-18.57919 3.33216,-26.45516 h 0.50496 l -0.50496,-0.50496 V 167.9193 q 0,-9.28963 -7.67404,-23.6279 l 0.50496,-0.60585 v -0.50487 l -0.50496,-1.71655 q 26.85905,-2.7263 40.49045,-6.5633 z m -2.7263,2.7263 -0.60576,1.71655 h 1.11072 v -1.71655 z m -7.16919,13.22758 v 0.50486 h 1.11072 v -0.50486 z m 56.34345,2.22143 v 1.11072 h 0.60576 v -1.11072 z m -32.21068,2.22144 v 0.50496 l 2.72631,0.50496 h 1.11072 l 2.7263,-0.50496 v -1.61559 l -3.83702,-0.60576 q -2.72631,0.70656 -2.72631,1.71658 z m -14.84311,87.94825 v 1.11072 h 0.60575 v -1.11072 z m 26.85905,2.72631 v 0.60576 h 1.61558 v -0.60576 z m -42.71197,12.72271 2.22144,2.12044 0.50496,-0.50496 -0.50496,-1.61558 z m 6.05847,1.00972 v 2.22144 h 0.50496 v -2.22144 z m -4.94775,4.94775 v 0.50496 h 1.11072 v -0.50496 z M 12.962247,79.163231 l 7.16914,1.918503 0.30288,-0.403872 0.80775,0.706848 0.30288,-0.30288 h 0.40387 q 3.837,0.30288 10.50129,5.14967 l 5.25064,1.918502 q 5.14967,0.30288 8.17888,3.029223 l 1.11071,-0.403872 1.51461,0.403872 1.91851,-0.807744 q 3.33214,0.30288 3.33214,1.11071 l 0.40387,-0.30288 1.81753,0.30288 q 3.02921,0 13.83342,-3.332141 1.51461,0.504864 1.51461,1.110711 -0.40387,2.22143 -1.11071,2.22143 l 0.40388,0.403872 v 0.403872 l -0.80775,7.068173 v 1.918502 q 0,9.39058 6.36136,17.56946 l 7.47206,15.24706 -0.40387,1.51462 1.51461,4.84675 -0.70685,0.80774 1.81753,11.612 -0.30288,1.41363 q 0,3.83702 7.77499,20.59868 0.80736,0 3.02919,8.58279 l 1.51459,6.05846 -0.40416,0.30336 v 0.40416 q 1.00973,1.61558 1.51459,6.76522 l -0.40416,2.22144 v 5.5536 l 0.40416,1.51459 -0.40416,1.51459 0.40416,0.40416 v 0.30336 q -1.4136,6.9672 -2.22144,16.86264 l -1.11072,-1.11072 v -5.25062 l -0.40416,-1.5146 0.40416,-0.30336 -1.51459,-7.87593 h -0.80736 l 1.21171,6.76521 h -1.51459 l -0.40416,-1.91846 h -0.70656 l 0.30336,0.40416 v 0.70656 l -0.30336,0.40416 0.30336,0.40416 q -0.70656,3.73603 -0.70656,11.91491 v 1.91847 l -0.40416,0.30336 0.40416,0.40416 -0.40416,3.73603 v 0.70656 l 0.40416,1.91846 h -0.40416 l 0.40416,0.40416 q -0.30336,3.73604 -1.11072,3.73604 -1.91847,-4.74576 -1.91847,-7.47207 h -0.70684 q -1.51461,3.93802 -2.62532,11.2081 h -0.40461 q -1.51461,0 -2.22142,-8.58279 h 0.40387 l -1.11071,-3.73603 0.30288,-0.40416 v -0.40416 l -1.11065,-4.84846 0.4039,-1.9185 -1.11072,-2.52435 h -0.80774 q -0.90874,4.03891 -1.81753,4.03891 l 0.40387,0.40416 v 0.40416 l -1.51461,4.84675 h -0.40387 l -1.11071,-1.11072 0.40387,-0.40416 -0.80774,-4.1399 h 0.40387 l -0.70685,-2.92829 v -3.02918 l 0.30288,-0.40416 -1.11071,-3.33216 h 0.40387 q -3.02917,-8.27981 -3.02917,-24.33466 h -0.30288 l -2.62532,3.02918 h -0.40388 l -1.9185,-1.51459 -0.30288,0.40416 h -0.80774 q -0.70685,0 -1.11071,-2.22144 l -4.13994,-1.21171 q -5.95746,0.60576 -5.95746,2.62531 l 0.40387,0.40416 v 0.40416 l -1.11071,4.44288 0.30288,2.22144 q 0,7.67405 -1.81753,11.30907 l 0.40388,0.30336 -0.40388,11.20811 v 1.11072 l 0.40388,2.32243 -1.11071,12.31881 -0.40388,0.40416 h -0.80774 q -1.7167,-9.79597 -3.33228,-9.79597 l -1.81753,-0.30336 h -0.80774 l 1.9185,17.56946 h -0.40387 l 0.40387,1.11072 -0.40387,0.30336 0.40387,1.91846 v 0.70656 l -0.40387,1.91847 h -1.11071 q -0.80775,0 -1.11071,-3.73604 h -0.40387 l -0.40388,0.40416 v 0.30336 l 0.40388,0.40416 -0.40388,1.91847 0.40388,1.81757 -0.40388,0.40416 h -0.30288 l 0.70685,7.06819 -0.40387,0.40416 h -0.30288 q -2.62532,-5.35162 -4.13993,-12.72271 -0.60586,0 -4.84675,-7.47206 -3.43312,-5.04864 -3.43312,-7.47207 -3.23117,5.25063 -3.73603,12.72271 v 3.73603 h -0.70685 q -0.80774,0 -2.22143,-7.47206 v -1.11072 l -1.9185,0.30336 h -1.11071 v 2.22144 l -0.70685,0.80736 q -0.90874,0 -1.9185,-7.16919 l -0.40387,-0.30336 0.40387,-4.1399 v -0.70656 q 0,-1.3127 -1.51461,-2.62531 v -0.40416 q 0.70684,-13.12661 1.51461,-13.12661 l -0.40387,-0.30336 0.40387,-2.62531 v -2.62531 l 0.40387,-7.16919 -2.22143,-8.58278 q -1.9185,0 -1.9185,-1.11072 l 5.25047,-15.34834 -1.51461,-8.17888 0.4039,-0.4039 q -1.00974,0 -1.51461,-13.1266 l -4.44285,-5.14967 q 2.92824,-15.04512 2.92824,-24.33472 h 0.40387 l -0.40387,-0.40387 v -2.22145 l 0.4039,-5.25064 -2.62532,-6.36136 v -2.62532 l 0.40387,-0.30288 v -0.40387 q -1.00974,0 -3.0292198,-8.27986 -1.11072,0 -1.11072,-0.70685 v -0.70685 q 0,-0.80774 2.2214398,-1.21168 l 0.40387,0.40387 q 3.33214,-3.02922 3.33214,-7.875962 v -0.30288 l -2.62532,-6.058435 0.40387,-0.30288 q 0,-1.918503 -1.81753,-4.846752 l 0.30288,-1.211683 h 1.9185 z m 12.82368,3.029213 0.40388,0.30288 h 0.40387 v -1.11071 z m 0.80775,18.276276 v 0.40387 h 0.70685 v -0.40386 z m 20.29575,10.09739 -0.30288,3.73603 v 0.40388 q 0,3.23116 2.22142,12.72271 -0.80774,0 -3.02921,7.47207 l 0.40387,0.40387 v 0.30288 q -2.22143,5.85649 -2.22143,26.55613 l 0.30288,1.91846 -0.30288,3.73603 q 0,4.13991 4.13994,4.13991 l 11.51102,-2.62532 0.40387,0.30336 h 0.40387 l 1.51462,-0.70656 1.41363,0.40416 -0.30288,-1.21171 0.30288,-1.81757 -0.30288,-3.33215 h 0.30288 l -0.30288,-0.40417 0.30288,-2.62531 v -3.73603 l -0.30288,-2.62531 h 0.30288 q -0.70675,-1.01021 -1.41356,-10.50175 l 0.30288,-1.81753 q -0.70685,0 -1.51461,-3.02921 -1.61558,0.10099 -3.33214,1.51461 h -0.40387 q -1.31267,0 -4.44285,-16.86265 -3.53409,-11.41005 -5.25065,-12.31882 z m 26.05127,19.48796 v 0.70685 h 0.70685 v -0.70685 z m -44.52949,7.47207 v 0.30288 h 0.80774 v -0.30288 z m 66.64278,0.70685 v 0.80775 h 0.30336 v -0.80777 z m -63.20962,26.55611 v 3.73604 l 0.30288,-0.40416 h 0.40387 l -0.40387,-3.33216 z m 0,4.84676 v 0.40416 h 0.70685 v -1.11072 z m 0,1.11072 v 0.80736 h 0.70685 v -0.80736 z m 43.01488,0.80736 v 0.40416 l 1.81753,0.30336 -0.70685,-0.70656 z m -8.68376,20.19478 v 1.11072 h 0.40388 v -1.11072 z m -35.13891,28.37366 0.40387,0.40416 h 0.40387 v -1.11072 z m 0.40387,7.87594 v 1.51459 l 0.70685,-0.80736 v -0.70656 z m 6.76525,15.34804 v 1.11072 l 0.70685,-0.70656 -0.40387,-0.40416 z m 14.54024,7.06819 v 0.40416 h 0.70685 v -0.40416 z" />
</svg>
