<?xml version="1.0" encoding="UTF-8" standalone="no"?>
<svg
   xmlns:dc="http://purl.org/dc/elements/1.1/"
   xmlns:cc="http://creativecommons.org/ns#"
   xmlns:rdf="http://www.w3.org/1999/02/22-rdf-syntax-ns#"
   xmlns:svg="http://www.w3.org/2000/svg"
   xmlns="http://www.w3.org/2000/svg"
   xmlns:sodipodi="http://sodipodi.sourceforge.net/DTD/sodipodi-0.dtd"
   xmlns:inkscape="http://www.inkscape.org/namespaces/inkscape"
   version="1.1"
   width="11.5in"
   height="4in"
   id="svg5276"
   inkscape:version="1.0.1 (3bc2e813f5, 2020-09-07)"
   sodipodi:docname="Apothecary 2 Direction Sign for Lamp Post.svg"
   inkscape:export-filename="C:\Users\Klemen\Downloads\The Chronicles of Narnia logo.png"
   inkscape:export-xdpi="1500.2426"
   inkscape:export-ydpi="1500.2426"
   viewBox="0 0 1104 384">
  <sodipodi:namedview
     pagecolor="#ffffff"
     bordercolor="#666666"
     borderopacity="1"
     objecttolerance="10"
     gridtolerance="10"
     guidetolerance="10"
     inkscape:pageopacity="0"
     inkscape:pageshadow="2"
     inkscape:window-width="1904"
     inkscape:window-height="1001"
     id="namedview67"
     showgrid="true"
     inkscape:zoom="0.93"
     inkscape:cx="621.88466"
     inkscape:cy="286.95295"
     inkscape:window-x="-5"
     inkscape:window-y="18"
     inkscape:window-maximized="0"
     inkscape:current-layer="svg5276"
     fit-margin-top="0"
     fit-margin-left="0"
     fit-margin-right="0"
     fit-margin-bottom="0"
     inkscape:document-rotation="0"
     showguides="false"
     inkscape:snap-nodes="false"
     units="in"
     inkscape:document-units="in"
     inkscape:snap-bbox="true"
     inkscape:bbox-nodes="true"
     inkscape:snap-global="false">
    <inkscape:grid
       type="xygrid"
       id="grid986"
       units="in"
       spacingx="24"
       spacingy="24"
       empspacing="4" />
  </sodipodi:namedview>
  <defs
     id="defs5278">
    <inkscape:path-effect
       effect="perspective-envelope"
       up_left_point="104.39,36.803497"
       up_right_point="970.61,36.803497"
       down_left_point="24.394341,357.89577"
       down_right_point="1030.6059,357.89577"
       id="path-effect967"
       is_visible="true"
       lpeversion="1"
       deform_type="perspective"
       horizontal_mirror="false"
       vertical_mirror="false"
       overflow_perspective="false" />
    <inkscape:path-effect
       effect="perspective-envelope"
       up_left_point="53.102544,52.114112"
       up_right_point="998.73,52.114112"
       down_left_point="53.102544,382.77622"
       down_right_point="999.02854,382.77622"
       id="path-effect906"
       is_visible="true"
       lpeversion="1"
       deform_type="perspective"
       horizontal_mirror="false"
       vertical_mirror="false"
       overflow_perspective="false" />
    <clipPath
       id="clipPath3717">
      <path
         d="m 427.26,426.42 h 71.64 v 24 h -71.64 z"
         id="path3719"
         inkscape:connector-curvature="0" />
    </clipPath>
    <clipPath
       id="clipPath3733">
      <path
         d="m 427.264,426.42 h 71.589 v 23.968 h -71.589 z"
         id="path3735"
         inkscape:connector-curvature="0" />
    </clipPath>
    <clipPath
       id="clipPath3745">
      <path
         d="m 427.26,426.42 h 71.64 v 24 h -71.64 z"
         id="path3747"
         inkscape:connector-curvature="0" />
    </clipPath>
    <clipPath
       id="clipPath3773">
      <path
         d="m 427.264,426.42 h 71.589 v 23.968 h -71.589 z"
         id="path3775"
         inkscape:connector-curvature="0" />
    </clipPath>
    <clipPath
       id="clipPath3789">
      <path
         d="m 427.26,426.42 h 71.64 v 24 h -71.64 z"
         id="path3791"
         inkscape:connector-curvature="0" />
    </clipPath>
  </defs>
  <metadata
     id="metadata5281">
    <rdf:RDF>
      <cc:Work
         rdf:about="">
        <dc:format>image/svg+xml</dc:format>
        <dc:type
           rdf:resource="http://purl.org/dc/dcmitype/StillImage" />
        <dc:title></dc:title>
      </cc:Work>
    </rdf:RDF>
  </metadata>
  <g
     id="text1040"
     style="font-size:192px;line-height:1.25;font-family:CountdownD;-inkscape-font-specification:CountdownD;fill:#8c00b4;fill-opacity:1" />
  <g
     id="text1044"
     style="font-size:192px;line-height:1.25;font-family:CountdownD;-inkscape-font-specification:CountdownD;fill:#8c00b4;fill-opacity:1" />
  <g
     id="g888"
     transform="translate(-110,-24.000002)"
     style="fill:#8c00b4;fill-opacity:1" />
  <path
     id="rect997-6-7"
     style="opacity:0.928105;fill:#000000;fill-opacity:1;stroke:#000000;stroke-width:0.96;stroke-miterlimit:4;stroke-dasharray:none;stroke-opacity:1"
     d="m 666.8493,228.30241 h 52.06912 v 20.5487 H 666.8493 Z M 279.39618,227.9279 h 47.2002 v 21.29777 h -47.2002 z m 690.26215,0.74907 h 47.20017 v 19.79964 h -47.20017 z m -201.49811,-0.37453 h 47.2002 v 20.92324 h -47.2002 z m -201.68537,0.18726 h 52.06912 v 20.5487 H 566.47485 Z M 441.3812,228.11517 h 42.33128 v 20.5487 H 441.3812 Z m 660.8271,-0.50391 q -4.8533,21.84466 -18.1796,21.84466 h -20.0717 q -7.1567,32.22089 -15.0538,47.78521 -11.023,21.5716 -27.3929,21.5716 -10.2827,0 -15.8764,-9.96661 -4.8534,-8.73787 -4.8534,-22.52733 0,-10.92232 2.7968,-21.16201 2.8792,-10.23969 7.4858,-15.70086 h -6.2518 q -5.42926,0 -9.04877,-5.46116 -3.53716,-5.5977 -3.53716,-13.92597 0,-3.82282 0.82256,-7.78216 l 14.31337,-65.67053 h 29.8608 l -15.3828,70.99516 h 16.699 l 15.136,-70.99516 h 29.6963 l -15.1361,70.99516 z m -68.8525,25.53095 q -5.4292,0 -10.1181,10.10316 -4.6066,10.23969 -4.6066,20.34284 0,9.01092 4.7712,14.4721 z m -40.63683,-25.53095 q 0,9.55704 -6.3341,16.11045 -5.59375,5.73421 -11.68109,5.73421 h -31.50596 q -12.50373,0 -12.50373,-17.20266 0,-4.36893 1.06939,-9.42052 l 9.29554,-44.37198 h -17.5216 l -9.13097,39.18387 q -2.30336,9.96663 -9.95362,9.96663 h -8.71966 l 10.77618,-49.1505 q -5.10015,-1.9114 -8.30834,-8.46481 -3.12592,-6.68993 -3.12592,-15.29126 0,-15.70085 8.80194,-24.30219 7.32122,-7.09951 17.43932,-7.09951 h 13.32629 l -6.90991,33.31311 h 45.49033 l -14.97148,70.99516 z m -96.16324,0 q -3.94855,21.84466 -20.15399,21.84466 h -31.17692 q -13.32629,0 -13.32629,-14.19903 -8.96642,16.92962 -22.04594,16.92962 -9.62458,0 -15.62964,-9.8301 -6.00499,-9.8301 -6.00499,-25.66748 0,-28.53459 13.16173,-45.05463 11.92785,-15.0182 29.53172,-15.0182 h 46.97105 l -15.46508,70.99516 z m -53.05839,-49.1505 h -18.17967 l -5.75831,31.8113 q -0.49352,3.00363 -0.49352,5.46116 0,11.87804 13.98437,11.87804 z m -52.07119,49.1505 q -1.80975,10.64927 -7.56806,16.52003 -5.26471,5.32463 -12.25687,5.32463 h -49.52114 q -14.1489,0 -23.77344,-7.91869 -12.17464,-9.96663 -12.17464,-30.03641 0,-2.18447 0.16452,-4.50546 1.64522,-24.43872 15.30056,-38.22816 12.01011,-12.1511 28.38006,-12.1511 h 20.72978 q 6.99219,0 11.92785,7.37258 4.93566,7.37257 4.93566,18.02184 0,10.78581 -5.01792,18.29491 -4.93566,7.5091 -11.84559,7.5091 -6.99219,0 -11.92785,-7.5091 -4.8534,-7.64564 -4.77114,-18.56796 0,0 0,-3.27671 h -9.95359 l -6.41636,30.17295 q -0.8226,3.82281 -0.8226,6.96299 0,12.01456 11.43428,12.01456 z m -102.41505,0 q -1.72747,10.51275 -7.89706,16.52003 -5.51149,5.32463 -12.58594,5.32463 h -45.81939 q -39.97887,0 -39.97887,-40.00304 0,-25.66747 13.65533,-40.27609 11.76333,-12.56069 27.96876,-12.56069 h 11.92785 q 10.44715,0 18.34421,5.32464 10.52941,7.09951 11.02298,21.5716 0.4113,14.60863 -8.47289,24.30219 h -27.22841 l 8.8842,-29.35377 h -17.35708 l -6.74541,32.90353 q -0.57583,2.86711 -0.57583,5.18811 0,11.05886 10.69394,11.05886 z m -103.4021,0 q -2.13878,12.01457 -9.13097,17.7488 -5.01793,4.09586 -10.7762,4.09586 h -35.0432 q -9.2955,0 -9.2955,-11.19539 0,-4.36893 1.23392,-10.64927 l 5.92279,-29.0807 -31.17694,42.59709 q -5.75827,8.32827 -12.17463,8.32827 H 468.22249 L 503.43022,84.528706 h 29.61398 l -24.76058,116.049774 25.08962,-34.13229 q 9.7068,-13.24332 22.04596,-13.24332 8.22611,0 8.22611,13.92598 0,5.05157 -1.4807,11.60497 l -10.44715,48.87744 z m -112.53313,0 q -3.86627,21.84466 -20.56526,21.84466 h -41.95313 q -12.17464,0 -12.17464,-14.19903 0,-3.54975 0.90487,-7.64563 l 10.44715,-49.1505 h -13.4908 l 5.18244,-21.84466 q 14.39568,-6.14381 21.38787,-15.70085 7.89706,-10.78581 16.86351,-39.04734 h 16.04091 l -11.59881,54.74819 h 21.22335 q -5.10018,21.84466 -20.72979,21.84466 h -5.42922 l -10.28263,49.1505 z M 442.06346,156.6161 q -3.29044,21.84466 -19.74264,21.84466 H 370.8254 q 2.71462,3.00365 4.4421,11.05886 1.72748,7.91869 1.39844,13.78946 -1.15166,22.80036 -12.09237,35.77063 -10.44716,12.42415 -27.14615,12.56069 -19.41361,0.27305 -29.86076,-12.69721 -9.2955,-11.46845 -9.2955,-30.17295 0,-3.68629 0.4113,-7.37258 2.13879,-20.6159 12.33917,-32.35741 10.85845,-12.42415 28.95588,-12.42415 z m -89.66454,21.84466 h -18.83777 l -7.4035,34.95147 q -0.57582,2.73058 -0.57582,5.18811 0,11.7415 13.16177,11.7415 1.56295,0 2.71461,-0.13652 z m -50.50828,49.1505 q -0.74034,10.51275 -6.66314,16.52003 -5.26471,5.32463 -12.42142,5.32463 h -44.83227 q -10.11811,0 -10.36489,-17.3392 3.78401,-2.59406 7.65028,-5.05157 5.42922,-4.09588 8.22611,-9.96663 3.784,-7.78217 3.784,-19.93326 0,-7.5091 -4.19532,-13.24333 -4.19531,-5.73422 -9.29549,-5.46117 l -25.74771,123.55889 h -29.86076 l 37.09974,-178.44361 h 29.77849 l -6.82766,33.04006 q 18.50873,0 24.51379,2.86711 14.64246,6.68993 14.06663,31.26518 -0.32904,10.92234 -5.84053,21.9812 -5.67601,11.46844 -13.0795,14.88167 z m -65.233,-70.99516 q -4.19531,21.84466 -20.07169,21.84466 h -48.86307 l -15.46507,70.99516 h -29.44946 l 15.46509,-70.99516 h -25.25415 q -41.459564,83.00973 -81.027126,83.00973 -11.516546,0 -19.413607,-7.09951 -9.9535859,-9.01092 -9.9535859,-26.48665 0,-14.88169 7.4034939,-29.08072 11.927852,-22.80037 36.112598,-33.7227 18.920041,-8.46481 41.78861,-8.46481 h 15.958637 l 49.8502,-99.256697 h 39.64982 L 172.16498,156.6161 Z M 159.99035,80.023243 123.96001,156.6161 h 18.34422 z M 92.783077,178.46076 q -30.847893,0 -43.269311,14.74515 -10.28263,12.28763 -10.28263,26.07707 0,11.74151 7.403494,11.74151 10.200369,0 25.500924,-19.11408 13.408549,-16.52004 20.647523,-33.44965 z" />
</svg>
