<?xml version="1.0" encoding="UTF-8" standalone="no"?>
<svg
   xmlns:dc="http://purl.org/dc/elements/1.1/"
   xmlns:cc="http://creativecommons.org/ns#"
   xmlns:rdf="http://www.w3.org/1999/02/22-rdf-syntax-ns#"
   xmlns:svg="http://www.w3.org/2000/svg"
   xmlns="http://www.w3.org/2000/svg"
   xmlns:sodipodi="http://sodipodi.sourceforge.net/DTD/sodipodi-0.dtd"
   xmlns:inkscape="http://www.inkscape.org/namespaces/inkscape"
   version="1.1"
   width="11.5in"
   height="5in"
   id="svg5276"
   inkscape:version="1.0.1 (3bc2e813f5, 2020-09-07)"
   sodipodi:docname="Camelot Direction Sign for Lamp Post.svg"
   inkscape:export-filename="C:\Users\Klemen\Downloads\The Chronicles of Narnia logo.png"
   inkscape:export-xdpi="1500.2426"
   inkscape:export-ydpi="1500.2426"
   viewBox="0 0 1104 480">
  <sodipodi:namedview
     pagecolor="#ffffff"
     bordercolor="#666666"
     borderopacity="1"
     objecttolerance="10"
     gridtolerance="10"
     guidetolerance="10"
     inkscape:pageopacity="0"
     inkscape:pageshadow="2"
     inkscape:window-width="1878"
     inkscape:window-height="986"
     id="namedview67"
     showgrid="true"
     inkscape:zoom="0.93303299"
     inkscape:cx="632.29595"
     inkscape:cy="398.49052"
     inkscape:window-x="10"
     inkscape:window-y="11"
     inkscape:window-maximized="0"
     inkscape:current-layer="svg5276"
     fit-margin-top="0"
     fit-margin-left="0"
     fit-margin-right="0"
     fit-margin-bottom="0"
     inkscape:document-rotation="0"
     units="in"
     inkscape:document-units="in"
     inkscape:snap-bbox="true"
     inkscape:snap-global="true">
    <inkscape:grid
       type="xygrid"
       id="grid840"
       units="in"
       spacingx="22.5"
       spacingy="22.5"
       empspacing="4" />
  </sodipodi:namedview>
  <defs
     id="defs5278">
    <clipPath
       id="clipPath3717">
      <path
         d="m 427.26,426.42 h 71.64 v 24 h -71.64 z"
         id="path3719"
         inkscape:connector-curvature="0" />
    </clipPath>
    <clipPath
       id="clipPath3733">
      <path
         d="m 427.264,426.42 h 71.589 v 23.968 h -71.589 z"
         id="path3735"
         inkscape:connector-curvature="0" />
    </clipPath>
    <clipPath
       id="clipPath3745">
      <path
         d="m 427.26,426.42 h 71.64 v 24 h -71.64 z"
         id="path3747"
         inkscape:connector-curvature="0" />
    </clipPath>
    <clipPath
       id="clipPath3773">
      <path
         d="m 427.264,426.42 h 71.589 v 23.968 h -71.589 z"
         id="path3775"
         inkscape:connector-curvature="0" />
    </clipPath>
    <clipPath
       id="clipPath3789">
      <path
         d="m 427.26,426.42 h 71.64 v 24 h -71.64 z"
         id="path3791"
         inkscape:connector-curvature="0" />
    </clipPath>
  </defs>
  <metadata
     id="metadata5281">
    <rdf:RDF>
      <cc:Work
         rdf:about="">
        <dc:format>image/svg+xml</dc:format>
        <dc:type
           rdf:resource="http://purl.org/dc/dcmitype/StillImage" />
        <dc:title></dc:title>
      </cc:Work>
    </rdf:RDF>
  </metadata>
  <path
     id="path864"
     style="color:#000000;font-style:normal;font-variant:normal;font-weight:normal;font-stretch:normal;font-size:medium;line-height:1.25;font-family:'Old English';-inkscape-font-specification:'Old English';font-variant-ligatures:normal;font-variant-position:normal;font-variant-caps:normal;font-variant-numeric:normal;font-variant-alternates:normal;font-variant-east-asian:normal;font-feature-settings:normal;font-variation-settings:normal;text-indent:0;text-align:start;text-decoration:none;text-decoration-line:none;text-decoration-style:solid;text-decoration-color:#000000;letter-spacing:normal;word-spacing:normal;text-transform:none;writing-mode:lr-tb;direction:ltr;text-orientation:mixed;dominant-baseline:auto;baseline-shift:baseline;text-anchor:start;white-space:normal;shape-padding:0;shape-margin:0;inline-size:0;clip-rule:nonzero;display:inline;overflow:visible;visibility:visible;isolation:auto;mix-blend-mode:normal;color-interpolation:sRGB;color-interpolation-filters:linearRGB;solid-color:#000000;solid-opacity:1;vector-effect:none;fill:#0000b9;fill-opacity:1;fill-rule:nonzero;stroke:#bf8f7a;stroke-width:0.149886;stroke-linecap:butt;stroke-linejoin:miter;stroke-miterlimit:4;stroke-dasharray:none;stroke-dashoffset:0;stroke-opacity:1;color-rendering:auto;image-rendering:auto;shape-rendering:auto;text-rendering:auto;enable-background:accumulate;stop-color:#000000"
     d="M 143.45987,6.181065 63.086844,77.933511 V 179.69213 c 0,6.73838 -0.345486,12.35611 -1.013272,16.82051 l -0.0081,0.0502 -0.0081,0.0669 c -0.293929,2.94754 -1.434176,5.62422 -2.422352,8.35593 -13.782688,-20.95444 -20.859147,-42.69458 -20.859147,-65.45212 0,-18.88417 4.18476,-37.15186 12.578821,-54.881802 8.63389,-17.747376 20.433747,-32.953031 35.440763,-45.673566 l 1.52781,-1.29517 -3.09522,-4.353443 -1.38534,0.484643 C 56.856329,43.22678 36.318949,62.062111 22.5081,89.9828 v 0.0086 L 22.5,90 C 8.974676,117.81479 2.218728,148.59559 2.218728,182.24112 v 0.13369 l 0.01581,0.12536 c 3.743792,32.35511 17.283181,59.22099 40.459624,80.22536 l 0.0081,0.009 h 0.01581 c 23.378534,20.72889 49.959785,31.17602 79.462668,31.17602 24.80426,0 47.05006,-7.07719 66.5197,-21.19067 19.42087,-14.07813 34.43014,-32.64739 44.94811,-55.59206 l 1.00535,-2.18926 -2.18486,-0.76875 -4.11642,-1.44557 -0.83911,0.65176 c -6.91113,5.34971 -16.24628,12.77053 -27.95205,22.21844 -15.39556,10.75006 -31.22203,16.06848 -47.63169,16.06848 -3.86197,-0.24027 -7.40171,-0.48705 -10.58394,-0.72697 -2.24809,-0.35933 -4.16792,-0.4516 -6.0717,-0.54313 V 56.391902 c 9.95483,3.224848 20.05791,6.910655 30.41397,11.372432 v 0.0085 h 0.0159 c 11.53311,4.869507 18.53095,7.781339 21.15996,8.790449 l 1.2666,0.47629 40.01631,-45.882463 h -4.62305 c -28.69332,0 -54.90505,-8.025552 -78.80562,-24.123595 z m 694.33652,6.576123 -1.29823,0.158762 c -7.84386,1.003588 -15.03525,3.403223 -21.50038,7.194465 -6.17062,3.618578 -12.28276,8.749964 -18.36555,15.0574 H 794.7561 C 786.65021,28.479697 777.84986,23.91647 768.34773,21.714755 l -0.91037,-0.208906 -3.90268,3.083341 1.48826,1.74639 c 4.30632,5.024049 7.55703,9.650568 9.76064,13.837435 l 0.008,0.02524 0.0243,0.02524 c 2.12966,3.821547 3.17438,7.905762 3.17438,12.416926 V 223.87032 c 0,6.87186 -0.78423,12.71399 -2.30357,17.53912 -8.9e-4,0.003 -0.0163,0.005 -0.0163,0.009 -1.49494,4.50232 -4.16001,8.71738 -8.11407,12.65924 l -2.39862,2.38145 3.10312,1.17818 c 11.428,4.34261 21.57244,9.27969 30.43775,14.79838 l 0.0324,0.0167 0.0243,0.0167 c 9.08216,5.27268 17.24131,11.49971 24.49268,18.67552 l 1.33786,1.32024 1.3853,-1.27845 c 1.93011,-1.78265 6.85575,-6.61227 14.92995,-14.64797 8.07374,-8.03527 15.10322,-15.10795 21.10454,-21.19901 l 1.45656,-1.47064 -1.3853,-1.5375 -7.59955,-8.47293 -9.26195,9.03277 -24.42933,-18.0906 V 55.197003 c 0,-7.476341 1.52785,-14.157431 4.59138,-20.162883 l 0.008,-0.0085 0.008,-0.01669 c 3.0771,-6.264114 7.57448,-11.728879 13.58416,-16.427777 l 1.4803,-1.144762 z m 224.74041,13.336081 -55.9278,79.506751 v 10.87944 h 12.7925 v 107.39052 c 0,7.13516 -0.8019,12.9862 -2.3116,17.53911 l -0.016,0.0502 -0.01,0.0502 c -1.2776,4.49488 -3.7261,8.67919 -7.449,12.60911 l -2.2325,2.34802 2.9607,1.16148 c 9.7874,3.84419 18.0506,8.27043 24.7934,13.25252 l 0.016,0.0167 0.016,0.0167 c 6.7963,4.78251 14.8116,11.53908 23.9861,20.2548 l 1.3932,1.32024 38.3619,-38.52088 -8.0665,-10.11905 -11.2727,10.03549 -17.0356,-16.01833 v -121.3868 h 38.7338 v -2.13912 -25.143025 h -38.7339 z M 121.19164,51.14437 v 196.8325 C 110.83633,245.11803 101.1907,241.1747 92.408397,235.87746 83.500057,230.50421 75.801852,223.88197 69.095229,216.21595 82.967977,203.66001 93.210537,192.23217 99.342967,181.92317 105.8281,171.02126 108.9928,156.97369 108.9928,139.90116 V 62.383112 Z m 584.73697,29.680293 -1.46451,1.119697 c -18.37798,14.064173 -35.8202,25.56528 -52.31015,34.51003 l -1.09242,0.60162 v 117.40095 c 0,6.3601 -0.89432,11.92759 -2.63609,16.75366 l -0.0163,0.042 -0.0243,0.0502 c -1.5011,4.75351 -4.17123,9.0628 -8.11407,12.99348 l -2.7865,2.78253 3.75226,0.86066 c 10.50517,2.41061 19.71876,5.4228 27.64331,9.0077 7.95241,3.59749 16.51999,8.40952 25.67222,14.44741 l 1.18743,0.78547 1.11618,-0.90244 c 5.99537,-4.86802 14.18183,-11.56044 24.54809,-20.07098 l 0.0163,-0.0167 c 10.58135,-8.49791 20.93784,-16.50753 31.0552,-24.03168 l 1.86033,-1.39544 -8.58906,-10.11904 -25.74347,18.61703 -27.88077,-14.21346 v -40.76035 c 9.47632,-9.02746 19.56221,-18.1581 30.36649,-27.4242 l 0.0163,-0.009 0.0163,-0.0167 c 11.03997,-9.71105 22.53545,-19.29857 34.49875,-28.7695 l 1.78903,-1.41215 -1.51196,-1.74639 z m -202.88392,0.02524 -52.67432,45.681927 c -0.38909,-10.20053 -1.86519,-18.75999 -5.10591,-24.91742 -3.7104,-7.049637 -10.45458,-13.567703 -20.09128,-19.770144 l -1.36159,-0.869017 -34.57,36.490381 7.67869,10.25274 5.85007,-5.81574 c 4.21611,4.83767 6.53086,9.9738 6.53086,15.80109 v 109.46279 l -11.85844,14.46413 32.93133,32.3542 31.7439,-32.31242 -11.40721,-15.54204 v -102.6696 l 26.61419,-23.0206 c 3.17061,2.34825 6.00266,4.89898 8.11411,7.93813 l 0.0406,0.0752 0.0555,0.0502 c 2.5342,3.12076 3.66521,6.11955 3.66521,9.19988 v 109.40432 l -12.98252,14.48084 34.09502,32.39597 30.60396,-32.30406 -10.66311,-15.51697 v -104.1652 l 23.43981,-20.38848 13.67128,14.4307 v 101.33247 c 0,13.56764 1.60895,24.5308 4.99509,32.95582 l 0.008,0.0167 v 0.009 c 3.44245,8.30555 10.2265,15.75669 20.13087,22.47748 l 1.29824,0.88573 38.45682,-36.6408 -1.67821,-1.58762 -7.88452,-7.44515 -6.66542,5.93272 c -1.55995,-0.99777 -3.04099,-2.08465 -4.21144,-3.66826 -1.45875,-2.2061 -2.6872,-4.39924 -3.74432,-6.58448 V 132.08 c 1.10073,-2.27984 2.78763,-5.32464 5.19301,-9.25003 l 0.0163,-0.0252 c 2.77511,-4.39424 6.46694,-10.3512 11.07474,-17.89007 l 0.8312,-1.36202 -7.94786,-9.450557 -15.61861,15.750947 -25.23679,-28.109382 -1.48035,1.479002 c -9.43859,9.476945 -17.94647,17.73275 -25.52971,24.767 -6.66878,6.15923 -13.83375,12.45496 -21.26285,18.81757 -3.85822,-17.83119 -11.54648,-32.996757 -23.76439,-44.720977 z m 434.78064,0.05847 -1.18744,1.253393 c -7.96776,8.410411 -16.37256,15.476417 -25.22093,21.224084 -8.59259,5.48753 -18.09818,9.79569 -28.53787,12.90992 l -1.48031,0.44287 v 105.30154 c 0,7.90204 -0.69166,14.17649 -1.98699,18.73402 -1.24721,4.38835 -4.11226,8.81909 -8.76321,13.26087 l -2.92897,2.79925 3.87098,0.88572 c 26.45713,6.01871 49.52986,17.65777 69.33791,34.96125 l 1.40114,1.21996 1.29825,-1.32023 c 7.71153,-7.90046 16.09538,-14.47815 25.14973,-19.73673 l 0.0163,-0.009 c 9.32749,-5.28158 19.69982,-9.85511 31.11862,-13.7121 l 1.40906,-0.47628 v -1.56253 -144.5828 l -1.72566,-0.27574 c -10.3939,-1.66952 -19.96289,-4.87784 -28.74382,-9.62604 l -0.0163,-0.0167 c -0.004,-0.003 -0.0122,-0.005 -0.0163,-0.009 -8.89856,-5.059497 -19.43277,-11.939588 -31.6014,-20.664198 z m -634.59308,0.300802 -0.90246,0.95258 c -10.2638,10.833978 -22.55388,16.168738 -37.30105,16.168738 l -8.80281,-0.55984 18.93553,56.970787 c -11.39885,11.72521 -20.51456,23.81111 -27.12086,36.31492 v 0.009 l -0.008,0.009 c -6.61746,12.7228 -9.93481,26.61826 -9.93481,41.55408 0,11.52119 2.51274,21.90452 7.54412,31.00889 4.95379,8.96395 11.86051,18.10113 20.71665,27.44926 l 0.59373,0.62669 h 4.72596 l 47.79021,-45.21453 c 1.0921,19.94238 9.10364,35.31899 24.41353,44.92152 l 1.29823,0.81053 36.96068,-35.47932 -1.59116,-1.58763 -7.06916,-7.01899 -6.76043,4.88823 c -1.58415,-0.82632 -3.05238,-1.8279 -4.25099,-3.44265 -1.20482,-1.92631 -2.22507,-4.20831 -3.07147,-6.8268 V 131.06057 c 1.12205,-5.63857 2.67029,-10.91917 4.66263,-15.8345 l 0.008,-0.0167 c 0.003,-0.009 0.004,-0.0163 0.008,-0.0252 2.26471,-5.25434 5.10041,-10.89198 8.51781,-16.904057 l 0.75204,-1.32023 -4.26684,-5.255896 -12.06425,9.642753 z m -31.71224,29.889195 47.50501,19.66988 v 41.29506 L 285.3575,152.65246 Z m 419.21742,8.84895 29.66986,35.07822 -29.66986,26.93956 z m 231.38219,1.67954 37.79187,17.48062 v 112.61299 c -6.05309,-2.56121 -12.20214,-5.16835 -18.60302,-7.91307 -6.94395,-3.20674 -13.27706,-6.28873 -19.18885,-9.27509 z m -637.75956,43.92701 34.66496,20.14617 v 43.42582 l -25.72758,24.47454 c -12.62111,-15.29766 -18.98302,-32.02791 -18.98302,-50.54507 0,-6.08117 0.99961,-12.56732 3.02398,-19.45263 1.83257,-6.23298 4.27437,-12.20204 7.02166,-18.04883 z" />
</svg>
