<?xml version="1.0" encoding="UTF-8" standalone="no"?>
<svg
   xmlns:dc="http://purl.org/dc/elements/1.1/"
   xmlns:cc="http://creativecommons.org/ns#"
   xmlns:rdf="http://www.w3.org/1999/02/22-rdf-syntax-ns#"
   xmlns:svg="http://www.w3.org/2000/svg"
   xmlns="http://www.w3.org/2000/svg"
   xmlns:sodipodi="http://sodipodi.sourceforge.net/DTD/sodipodi-0.dtd"
   xmlns:inkscape="http://www.inkscape.org/namespaces/inkscape"
   version="1.1"
   width="11.5in"
   height="4in"
   id="svg5276"
   inkscape:version="1.0.1 (3bc2e813f5, 2020-09-07)"
   sodipodi:docname="D'Hara Direction Sign for Lamp Post.svg"
   inkscape:export-filename="C:\Users\Klemen\Downloads\The Chronicles of Narnia logo.png"
   inkscape:export-xdpi="1500.2426"
   inkscape:export-ydpi="1500.2426"
   viewBox="0 0 1104 384">
  <g
     id="g870"
     style="font-size:296.674px;line-height:1.25;font-family:'Harry Potter';-inkscape-font-specification:'Harry Potter';fill:none;fill-opacity:1;stroke-width:0.0377953;stroke-miterlimit:4;stroke-dasharray:none;stroke:#090b09;stroke-opacity:1" />
  <g
     id="g876"
     style="font-size:296.674px;line-height:1.25;font-family:'Harry Potter';-inkscape-font-specification:'Harry Potter';fill:none;fill-opacity:1;stroke-width:0.0377953;stroke-miterlimit:4;stroke-dasharray:none;stroke:#090b09;stroke-opacity:1" />
  <g
     id="g882"
     style="font-size:296.674px;line-height:1.25;font-family:'Harry Potter';-inkscape-font-specification:'Harry Potter';fill:none;fill-opacity:1;stroke-width:0.0377953;stroke-miterlimit:4;stroke-dasharray:none;stroke:#090b09;stroke-opacity:1" />
  <g
     id="g888"
     style="font-size:296.674px;line-height:1.25;font-family:'Harry Potter';-inkscape-font-specification:'Harry Potter';fill:none;fill-opacity:1;stroke-width:0.0377953;stroke-miterlimit:4;stroke-dasharray:none;stroke:#090b09;stroke-opacity:1" />
  <g
     id="g894"
     style="font-size:296.674px;line-height:1.25;font-family:'Harry Potter';-inkscape-font-specification:'Harry Potter';fill:none;fill-opacity:1;stroke-width:0.0377953;stroke-miterlimit:4;stroke-dasharray:none;stroke:#090b09;stroke-opacity:1" />
  <g
     id="g900"
     style="font-size:296.674px;line-height:1.25;font-family:'Harry Potter';-inkscape-font-specification:'Harry Potter';fill:none;fill-opacity:1;stroke-width:0.0377953;stroke-miterlimit:4;stroke-dasharray:none;stroke:#090b09;stroke-opacity:1" />
  <g
     id="g906"
     style="font-size:296.674px;line-height:1.25;font-family:'Harry Potter';-inkscape-font-specification:'Harry Potter';fill:none;fill-opacity:1;stroke-width:0.0377953;stroke-miterlimit:4;stroke-dasharray:none;stroke:#090b09;stroke-opacity:1" />
  <g
     id="g912"
     style="font-size:296.674px;line-height:1.25;font-family:'Harry Potter';-inkscape-font-specification:'Harry Potter';fill:none;fill-opacity:1;stroke-width:0.0377953;stroke-miterlimit:4;stroke-dasharray:none;stroke:#090b09;stroke-opacity:1" />
  <g
     id="g918"
     style="font-size:296.674px;line-height:1.25;font-family:'Harry Potter';-inkscape-font-specification:'Harry Potter';fill:none;fill-opacity:1;stroke-width:0.0377953;stroke-miterlimit:4;stroke-dasharray:none;stroke:#090b09;stroke-opacity:1" />
  <g
     id="g924"
     style="font-size:296.674px;line-height:1.25;font-family:'Harry Potter';-inkscape-font-specification:'Harry Potter';fill:none;fill-opacity:1;stroke-width:0.0377953;stroke-miterlimit:4;stroke-dasharray:none;stroke:#090b09;stroke-opacity:1" />
  <g
     id="g930"
     style="font-size:296.674px;line-height:1.25;font-family:'Harry Potter';-inkscape-font-specification:'Harry Potter';fill:none;fill-opacity:1;stroke-width:0.0377953;stroke-miterlimit:4;stroke-dasharray:none;stroke:#090b09;stroke-opacity:1">
    <path
       id="path1068"
       style="font-size:236.792px;line-height:1.25;font-family:'Cinzel Decorative';-inkscape-font-specification:'Cinzel Decorative';fill:#deb001;fill-opacity:1;stroke-width:0.0377953"
       d="m 914.0424,33.277751 c -11.64976,0 -23.85942,3.62659 -36.62627,10.879614 l 0.47875,2.315792 c 3.83005,-1.388877 7.26295,-2.083375 10.29508,-2.083375 3.03213,0 5.66516,0.384204 7.89936,1.155802 5.74508,2.006155 10.53241,5.170446 14.36246,9.491396 2.07462,2.314796 4.62786,5.70919 7.65999,10.184459 3.1917,4.320952 7.18115,12.887127 11.96872,25.695657 L 881.24613,194.61893 c -2.39378,4.16663 -5.42577,7.33093 -9.09623,9.4914 -0.31122,0.17783 -0.62326,0.33836 -0.93574,0.50043 -5.43282,-5.94034 -10.86639,-12.64619 -16.29922,-20.17629 -1.91502,-2.62343 -5.26615,-7.40682 -10.05373,-14.3512 -4.78756,-7.09871 -9.09616,-12.8869 -12.92622,-17.36217 -8.29845,-10.03078 -17.47416,-16.04905 -27.52805,-18.05521 1.75544,0.15432 3.59057,0.23241 5.50561,0.23241 6.543,0 13.16548,-1.389 19.86808,-4.16675 6.7026,-2.93208 12.36759,-7.87165 16.99557,-14.81604 4.78757,-7.0987 7.18124,-14.81419 7.18124,-23.147455 0,-14.969006 -5.50543,-26.078884 -16.51683,-33.331908 -12.2881,-8.024622 -30.32036,-12.037511 -54.09862,-12.037511 h -93.358 v 2.313699 h 2.87249 c 2.71295,0 5.26619,0.618494 7.65998,1.853051 4.94715,2.777755 7.50039,7.020747 7.65999,12.730574 v 128.47201 c -0.1596,4.01231 -1.75537,7.40671 -4.7875,10.18446 -2.87253,2.77775 -6.38324,4.16675 -10.53247,4.16675 h -3.11187 v 2.3137 h 85.9374 v -2.3137 h -2.8725 c -4.14922,0 -7.73973,-1.389 -10.77184,-4.16675 -3.03214,-2.93207 -4.54812,-6.40456 -4.54812,-10.41687 V 59.436147 h 10.53247 c 8.93679,0 16.91567,2.699895 23.93744,8.101084 7.02178,5.246868 10.53248,13.65685 10.53248,25.230824 0,1.388879 -0.31914,4.553167 -0.95749,9.491395 -0.63835,4.78391 -2.87243,9.4132 -6.70249,13.88848 -6.70259,7.8703 -15.24,11.80509 -25.61306,11.80509 h -3.82999 v 2.31579 c 3.67047,1.08024 7.81948,6.24992 12.44746,15.50911 0.79794,1.69751 2.95223,6.32681 6.46311,13.88847 3.67047,7.56166 7.50034,15.27714 11.48997,23.14745 3.98965,7.71598 8.69719,15.89376 14.1231,24.53566 5.42592,8.48758 12.36755,16.82155 20.82557,25.00051 8.61763,8.17893 17.07524,14.42943 25.37369,18.75037 8.29846,4.32096 16.75804,7.56125 25.37567,9.72172 8.61763,2.16048 16.75608,3.24127 24.41618,3.24127 7.81971,0 15.639,-0.77259 23.4587,-2.31579 13.24562,-2.62343 24.25646,-6.94452 33.03367,-12.963 v -2.31369 c -32.07672,-1.85183 -58.32723,-11.72892 -78.75418,-29.62999 -2.61853,-2.27892 -5.2373,-4.75979 -7.85583,-7.40802 h 36.82013 v -2.3137 h -2.15437 c -2.07461,0 -4.06933,-0.5404 -5.98435,-1.62064 -1.75545,-1.23456 -2.95228,-2.54546 -3.59063,-3.93433 -0.47875,-1.5432 -0.71812,-2.9322 -0.71812,-4.16675 0,-1.23456 0.39895,-2.85574 1.19687,-4.8619 l 9.57499,-21.52681 h 51.22611 l 6.46311,15.27668 c 7.02177,16.51221 15.95812,30.47818 26.80994,41.89783 11.0114,11.57397 22.1838,19.67575 33.5144,24.30534 11.4902,4.62959 23.6181,6.94528 36.3849,6.94528 12.767,0 25.2937,-3.47248 37.5818,-10.41688 l -0.4787,-2.31578 c -4.4685,1.23455 -8.777,1.85305 -12.9263,1.85305 -3.9896,0 -7.6599,-0.5404 -11.0111,-1.62064 -7.9794,-2.31479 -14.6018,-5.78728 -19.8682,-10.41687 -3.0321,-2.62344 -5.8248,-5.32334 -8.3781,-8.10109 -2.5533,-2.77776 -5.1863,-6.09614 -7.8993,-9.95413 -2.5533,-3.70368 -5.5056,-8.17887 -8.8568,-13.42574 -3.3513,-5.40119 -8.5376,-15.89467 -15.5595,-31.48094 L 979.63099,88.601305 C 974.04549,76.564372 967.74217,66.303094 960.72042,57.815511 946.83646,41.457628 931.27765,33.277751 914.0424,33.277751 Z m 23.69807,78.471009 c 1.75544,5.09255 3.27143,9.02943 4.54811,11.80718 l 15.08059,35.87803 H 916.19676 Z M 511.72999,8.9003131 c -15.16064,0 -28.24599,4.7052929 -39.25741,14.1187919 -7.02175,5.864147 -12.44739,12.887226 -16.27745,21.066168 -3.83007,8.178942 -5.74499,16.66702 -5.74499,25.463241 V 123.9445 H 386.29581 V 65.149348 c 0.15959,-2.623434 0.95748,-5.015129 2.39375,-7.175605 2.87254,-4.62959 7.18113,-6.945281 12.92622,-6.945281 h 3.11187 v -2.313699 h -85.93542 v 2.313699 h 3.11187 c 4.14921,0 7.65993,1.388996 10.53247,4.166749 3.03213,2.777754 4.6279,6.174242 4.78749,10.186554 V 194.54683 c 0,7.71598 -0.31916,14.58287 -0.9575,20.60134 -0.47875,4.62959 -2.15432,9.79928 -5.02686,15.50911 -4.14923,8.48757 -12.60684,15.12227 -25.37369,19.90618 v 2.31578 c 9.25596,2.93207 17.63379,4.39707 25.13431,4.39707 2.07461,0 3.98954,-0.15409 5.74499,-0.46274 17.39484,-1.85182 30.08125,-9.02691 38.06053,-21.5268 7.6601,-11.88262 11.48997,-25.46229 11.48997,-40.73994 v -59.02756 h 64.15433 v 58.33241 c -0.15959,4.01231 -1.75536,7.4848 -4.78749,10.41687 -2.87255,2.77775 -6.46305,4.16675 -10.77185,4.16675 h -2.87249 v 2.3137 h 72.35042 13.34562 37.44924 v -2.3137 h -2.0515 c -1.97403,0 -3.87135,-0.5404 -5.69355,-1.62063 -1.67035,-1.23456 -2.80913,-2.54547 -3.41653,-3.93434 -0.45555,-1.5432 -0.68251,-2.9322 -0.68251,-4.16675 0,-1.23456 0.37827,-2.85574 1.13752,-4.8619 l 9.11205,-21.52681 h 48.74336 l 6.15055,15.27669 c 6.68136,16.5122 15.18441,30.47817 25.51018,41.89782 10.47761,11.57397 21.10692,19.67575 31.88823,24.30534 10.93316,4.6296 22.4743,6.94529 34.62226,6.94529 12.14794,0 24.06735,-3.47249 35.75976,-10.41688 l -0.45501,-2.31579 c -4.25177,1.23455 -8.35297,1.85305 -12.30108,1.85305 -3.79623,0 -7.28824,-0.5404 -10.47708,-1.62064 -7.59247,-2.31479 -13.89362,-5.78728 -18.90464,-10.41687 -2.88514,-2.62344 -5.54295,-5.32334 -7.97255,-8.10109 -2.42959,-2.77775 -4.93412,-6.09614 -7.51557,-9.95413 -2.42958,-3.70368 -5.2407,-8.17887 -8.42954,-13.42573 -3.18884,-5.4012 -8.12224,-15.89467 -14.80363,-31.48095 L 618.94006,89.917432 c -5.31474,-12.036933 -11.31325,-22.298211 -17.99463,-30.785794 -13.2109,-16.357883 -28.01707,-24.53776 -44.41681,-24.53776 -11.08501,0 -22.69982,3.62659 -34.84778,10.879614 l 0.45501,2.315792 c 3.64439,-1.388877 6.90943,-2.083375 9.79457,-2.083375 2.88513,0 5.38967,0.384204 7.51556,1.155802 5.46659,2.006155 10.02174,5.170446 13.66611,9.491396 1.97405,2.314795 4.4049,5.70919 7.29004,10.184459 3.03699,4.320951 6.8336,12.887127 11.38908,25.695657 L 525.32488,195.93505 c -2.27774,4.16663 -5.16253,7.33093 -8.65507,9.4914 -1.9607,1.17744 -3.94959,1.999 -5.9626,2.48539 -1.31437,-0.34721 -2.56966,-0.86654 -3.76471,-1.55991 -4.94716,-2.93208 -7.4206,-7.09906 -7.4206,-12.50025 V 69.548514 c 0,-4.320951 0.0798,-9.028337 0.23937,-14.120886 0.15959,-5.246868 0.87768,-9.876158 2.15437,-13.888469 2.55336,-8.024623 5.50555,-13.580609 8.85685,-16.667001 5.4259,-5.24687 11.97057,-9.027559 19.63068,-11.342355 V 11.214011 C 523.86016,9.6708145 517.63466,8.9003131 511.72999,8.9003131 Z M 579.07927,113.06488 c 1.67034,5.09255 3.11372,9.02943 4.32852,11.80718 l 14.34861,35.87803 H 558.58011 Z M 265.88928,93.852829 q 8.13887,-19.675756 8.13887,-31.94417 0,-6.018466 -1.19689,-13.194331 l 31.59795,-3.240711 q 0,0.925917 0,3.70367 0,2.546276 -1.43627,8.796221 -1.43626,6.018467 -5.02695,13.657291 -3.3513,7.407344 -10.77202,14.120248 -7.42074,6.481426 -17.23525,9.25918 z M 124.58796,9.4561889 q 57.80015,0 90.08216,32.7492981 32.58943,32.397154 32.58943,90.500743 0,58.10359 -32.58943,90.85289 -32.28201,32.39715 -90.08216,32.39715 H 8.0653282 v -3.52144 h 3.9968188 q 7.993637,0 13.527694,-6.33857 5.841503,-6.69072 6.148951,-15.84644 V 33.049768 q 0,-8.451431 -6.148951,-14.085719 -5.841504,-5.98643 -13.527694,-5.98643 H 8.3727756 L 8.0653282,9.4561889 Z M 94.765549,27.063337 V 238.34912 h 23.673461 q 28.59262,0 44.88736,-27.8193 16.29472,-28.17143 16.29472,-77.82359 0,-49.652163 -16.29472,-77.471455 -16.29474,-28.171438 -44.88736,-28.171438 z" />
  </g>
  <sodipodi:namedview
     pagecolor="#ffffff"
     bordercolor="#666666"
     borderopacity="1"
     objecttolerance="10"
     gridtolerance="10"
     guidetolerance="10"
     inkscape:pageopacity="0"
     inkscape:pageshadow="2"
     inkscape:window-width="1869"
     inkscape:window-height="965"
     id="namedview67"
     showgrid="true"
     inkscape:zoom="0.93303299"
     inkscape:cx="601.65779"
     inkscape:cy="146.13698"
     inkscape:window-x="9"
     inkscape:window-y="13"
     inkscape:window-maximized="0"
     inkscape:current-layer="g930"
     fit-margin-top="0"
     fit-margin-left="0"
     fit-margin-right="0"
     fit-margin-bottom="0"
     inkscape:document-rotation="0"
     units="in"
     showguides="false"
     inkscape:document-units="in"
     inkscape:snap-global="false">
    <inkscape:grid
       type="xygrid"
       id="grid842"
       units="in"
       spacingx="24"
       spacingy="24"
       empspacing="4" />
    <sodipodi:guide
       position="1315.066,306.83231"
       orientation="1,0"
       id="guide844" />
  </sodipodi:namedview>
  <defs
     id="defs5278">
    <clipPath
       id="clipPath3717">
      <path
         d="m 427.26,426.42 h 71.64 v 24 h -71.64 z"
         id="path3719"
         inkscape:connector-curvature="0" />
    </clipPath>
    <clipPath
       id="clipPath3733">
      <path
         d="m 427.264,426.42 h 71.589 v 23.968 h -71.589 z"
         id="path3735"
         inkscape:connector-curvature="0" />
    </clipPath>
    <clipPath
       id="clipPath3745">
      <path
         d="m 427.26,426.42 h 71.64 v 24 h -71.64 z"
         id="path3747"
         inkscape:connector-curvature="0" />
    </clipPath>
    <clipPath
       id="clipPath3773">
      <path
         d="m 427.264,426.42 h 71.589 v 23.968 h -71.589 z"
         id="path3775"
         inkscape:connector-curvature="0" />
    </clipPath>
    <clipPath
       id="clipPath3789">
      <path
         d="m 427.26,426.42 h 71.64 v 24 h -71.64 z"
         id="path3791"
         inkscape:connector-curvature="0" />
    </clipPath>
  </defs>
  <metadata
     id="metadata5281">
    <rdf:RDF>
      <cc:Work
         rdf:about="">
        <dc:format>image/svg+xml</dc:format>
        <dc:type
           rdf:resource="http://purl.org/dc/dcmitype/StillImage" />
        <dc:title></dc:title>
      </cc:Work>
    </rdf:RDF>
  </metadata>
  <g
     id="text1606"
     style="font-style:normal;font-variant:normal;font-weight:normal;font-stretch:normal;font-size:60px;line-height:1.25;font-family:'Harry Potter';-inkscape-font-specification:'Harry Potter';letter-spacing:0px;word-spacing:0px;fill:none;fill-opacity:1;stroke:#090b09;stroke-width:0.9375;stroke-opacity:1" />
</svg>
