<?xml version="1.0" encoding="UTF-8" standalone="no"?>
<svg
   xmlns:dc="http://purl.org/dc/elements/1.1/"
   xmlns:cc="http://creativecommons.org/ns#"
   xmlns:rdf="http://www.w3.org/1999/02/22-rdf-syntax-ns#"
   xmlns:svg="http://www.w3.org/2000/svg"
   xmlns="http://www.w3.org/2000/svg"
   xmlns:sodipodi="http://sodipodi.sourceforge.net/DTD/sodipodi-0.dtd"
   xmlns:inkscape="http://www.inkscape.org/namespaces/inkscape"
   version="1.1"
   width="11.5in"
   height="4in"
   id="svg5276"
   inkscape:version="1.0.1 (3bc2e813f5, 2020-09-07)"
   sodipodi:docname="Diagon Alley Direction Sign for Lamp Post.svg"
   inkscape:export-filename="C:\Users\Klemen\Downloads\The Chronicles of Narnia logo.png"
   inkscape:export-xdpi="1500.2426"
   inkscape:export-ydpi="1500.2426"
   viewBox="0 0 1104 384">
  <g
     id="g870"
     style="font-size:296.674px;line-height:1.25;font-family:'Harry Potter';-inkscape-font-specification:'Harry Potter';fill:none;fill-opacity:1;stroke-width:0.0377953;stroke-miterlimit:4;stroke-dasharray:none;stroke:#090b09;stroke-opacity:1" />
  <g
     id="g876"
     style="font-size:296.674px;line-height:1.25;font-family:'Harry Potter';-inkscape-font-specification:'Harry Potter';fill:none;fill-opacity:1;stroke-width:0.0377953;stroke-miterlimit:4;stroke-dasharray:none;stroke:#090b09;stroke-opacity:1" />
  <g
     id="g882"
     style="font-size:296.674px;line-height:1.25;font-family:'Harry Potter';-inkscape-font-specification:'Harry Potter';fill:none;fill-opacity:1;stroke-width:0.0377953;stroke-miterlimit:4;stroke-dasharray:none;stroke:#090b09;stroke-opacity:1" />
  <g
     id="g888"
     style="font-size:296.674px;line-height:1.25;font-family:'Harry Potter';-inkscape-font-specification:'Harry Potter';fill:none;fill-opacity:1;stroke-width:0.0377953;stroke-miterlimit:4;stroke-dasharray:none;stroke:#090b09;stroke-opacity:1" />
  <g
     id="g894"
     style="font-size:296.674px;line-height:1.25;font-family:'Harry Potter';-inkscape-font-specification:'Harry Potter';fill:none;fill-opacity:1;stroke-width:0.0377953;stroke-miterlimit:4;stroke-dasharray:none;stroke:#090b09;stroke-opacity:1" />
  <g
     id="g900"
     style="font-size:296.674px;line-height:1.25;font-family:'Harry Potter';-inkscape-font-specification:'Harry Potter';fill:none;fill-opacity:1;stroke-width:0.0377953;stroke-miterlimit:4;stroke-dasharray:none;stroke:#090b09;stroke-opacity:1" />
  <g
     id="g906"
     style="font-size:296.674px;line-height:1.25;font-family:'Harry Potter';-inkscape-font-specification:'Harry Potter';fill:none;fill-opacity:1;stroke-width:0.0377953;stroke-miterlimit:4;stroke-dasharray:none;stroke:#090b09;stroke-opacity:1" />
  <g
     id="g912"
     style="font-size:296.674px;line-height:1.25;font-family:'Harry Potter';-inkscape-font-specification:'Harry Potter';fill:none;fill-opacity:1;stroke-width:0.0377953;stroke-miterlimit:4;stroke-dasharray:none;stroke:#090b09;stroke-opacity:1" />
  <g
     id="g918"
     style="font-size:296.674px;line-height:1.25;font-family:'Harry Potter';-inkscape-font-specification:'Harry Potter';fill:none;fill-opacity:1;stroke-width:0.0377953;stroke-miterlimit:4;stroke-dasharray:none;stroke:#090b09;stroke-opacity:1" />
  <g
     id="g924"
     style="font-size:296.674px;line-height:1.25;font-family:'Harry Potter';-inkscape-font-specification:'Harry Potter';fill:none;fill-opacity:1;stroke-width:0.0377953;stroke-miterlimit:4;stroke-dasharray:none;stroke:#090b09;stroke-opacity:1" />
  <g
     id="g930"
     style="font-size:296.674px;line-height:1.25;font-family:'Harry Potter';-inkscape-font-specification:'Harry Potter';fill:none;fill-opacity:1;stroke-width:0.0377953;stroke-miterlimit:4;stroke-dasharray:none;stroke:#090b09;stroke-opacity:1">
    <path
       id="path985"
       style="color:#000000;font-style:normal;font-variant:normal;font-weight:normal;font-stretch:normal;font-size:medium;line-height:1.25;font-family:'Harry Potter';-inkscape-font-specification:'Harry Potter';font-variant-ligatures:normal;font-variant-position:normal;font-variant-caps:normal;font-variant-numeric:normal;font-variant-alternates:normal;font-variant-east-asian:normal;font-feature-settings:normal;font-variation-settings:normal;text-indent:0;text-align:start;text-decoration:none;text-decoration-line:none;text-decoration-style:solid;text-decoration-color:#000000;letter-spacing:normal;word-spacing:normal;text-transform:none;writing-mode:lr-tb;direction:ltr;text-orientation:mixed;dominant-baseline:auto;baseline-shift:baseline;text-anchor:start;white-space:normal;shape-padding:0;shape-margin:0;inline-size:0;clip-rule:nonzero;display:inline;overflow:visible;visibility:visible;isolation:auto;mix-blend-mode:normal;color-interpolation:sRGB;color-interpolation-filters:linearRGB;solid-color:#000000;solid-opacity:1;vector-effect:none;fill:#9400cb;fill-opacity:1;fill-rule:nonzero;stroke:#000000;stroke-width:0.113386;stroke-linecap:butt;stroke-linejoin:miter;stroke-miterlimit:4;stroke-dasharray:none;stroke-dashoffset:0;stroke-opacity:1;color-rendering:auto;image-rendering:auto;shape-rendering:auto;text-rendering:auto;enable-background:accumulate;stop-color:#000000;stop-opacity:1"
       d="m 963.28167,69.10817 c -1.0095,-0.0495 -2.12021,0.12201 -3.33161,0.51758 l -33.92021,26.10742 c -2.82659,15.22927 -4.23878,29.76654 -4.23878,43.61133 0,9.69135 0.80725,18.2948 2.42244,25.81054 l 21.41522,18.27735 c -2.13542,2.52004 -3.24588,4.45413 -3.24588,5.7539 0,1.1867 1.00955,2.37386 3.02855,3.56055 12.31588,6.92239 23.01839,10.97736 32.10388,12.16406 3.6342,1.38448 18.0695,3.16424 43.30692,5.33985 0.2019,0.19777 0.4043,0.29687 0.6062,0.29687 3.836,0 17.3629,-20.4711 40.5814,-61.41211 15.1425,-26.70066 27.761,-49.24879 37.856,-67.64258 l -35.7366,-0.59179 7.5723,3.55859 c 0.8076,0.39557 1.3115,1.68181 1.5134,3.85742 -14.5368,30.06297 -22.411,45.19285 -23.6224,45.39063 -1.8172,-0.19778 -3.5326,-4.94445 -5.1479,-14.24024 l -3.6347,-20.76758 c 0.2019,-3.95565 3.1294,-6.5262 8.7826,-7.71289 h -44.5191 c 3.6342,1.78004 6.2582,3.5598 7.8734,5.33985 11.7102,30.45853 17.5672,50.43416 17.5672,59.92773 0,3.75787 -0.7081,7.41843 -2.1214,10.97852 l -15.1427,26.10742 c -20.43092,0.13803 -35.43539,-0.64372 -45.04957,-2.33594 l 2.04562,-0.0391 9.73365,-13.59766 c 1.43597,-0.46293 2.56274,-0.88024 3.28974,-1.23632 1.21139,-0.39557 1.91748,-1.28545 2.11938,-2.66993 -0.63231,-0.12388 -1.46715,-0.2196 -2.39652,-0.30468 l 5.72818,-8.00196 -13.32449,-16.61328 c -0.8076,9.29579 -1.31337,14.33973 -1.51527,15.13086 -0.60818,3.31932 -1.47378,6.38533 -2.56799,9.22852 -4.40799,0.0605 -9.71822,0.22936 -15.92234,0.50976 l -2.10345,-48.30664 c 1.4133,-1.58226 5.14806,-2.37304 11.20506,-2.37304 10.09498,-10e-6 19.07984,2.27521 26.95398,6.82421 l 7.5703,-15.42773 -8.4795,-28.48047 -24.5295,-15.72461 c -0.8076,-0.49445 -1.71601,-0.76501 -2.72551,-0.81445 z m -4.24077,10.01172 c 0.40381,0 1.3122,0.88988 2.7255,2.66992 l 15.44583,34.11719 c -4.8456,-1.18669 -12.92206,-1.48203 -24.22845,-0.88868 l 3.63467,-33.82226 c 0.8076,-1.38447 1.61485,-2.07617 2.42245,-2.07617 z m 8.26621,101.60742 c -0.51135,0.76586 -1.04075,1.5125 -1.60299,2.22851 -0.64997,-0.34284 -1.27193,-0.69102 -1.86618,-1.04296 l 0.35091,-0.43946 c 1.14937,-0.26492 2.06701,-0.49595 3.11826,-0.74609 z m -60.96189,18.84251 c -0.40381,0.79113 -0.60571,1.58227 -0.60571,2.3734 0,3.56009 4.8456,9.39467 14.5368,17.50376 l -24.83368,-8.90022 c -9.69119,-3.56009 -14.83964,-7.81241 -15.44534,-12.75698 l 1.2114,-165.840771 c 10.09499,-5.340133 15.64724,-8.702438 16.65674,-10.086917 L 908.16231,8.215088 907.55662,45.89269 Z m -48.45591,0 c -0.40381,0.79113 -0.6057,1.58227 -0.6057,2.3734 0,3.56009 4.84559,9.39467 14.53678,17.50376 l -24.83368,-8.90022 c -9.69119,-3.56009 -14.83963,-7.81241 -15.44533,-12.75698 l 1.21139,-165.840771 c 10.09499,-5.340133 15.64724,-8.702438 16.65674,-10.086917 L 859.7064,8.215088 859.1007,45.89269 Z m -89.64325,-41.53436 -3.02851,-10.08691 -20.89662,-68.23503 -16.05103,53.10465 c 16.15198,14.63592 29.47737,23.04168 39.97616,25.21729 z m -82.98082,0.29668 -13.62823,-14.53703 c 9.28738,-12.46031 20.18997,-19.58048 32.70776,-21.36053 l 21.50232,-66.1583 c 1.61521,-4.94457 2.42281,-8.70244 2.42281,-11.27361 0,-7.51574 -1.71615,-12.163639 -5.14845,-13.943684 h 45.12461 c -3.8361,1.780045 -5.75415,6.131264 -5.75415,13.053654 0,2.37339 0.6057,5.43903 1.8171,9.1969 l 33.31346,101.16584 c 3.4323,-1.58227 8.98454,-4.45012 16.65673,-8.60355 -4.44178,8.10909 -8.88358,14.43813 -13.32538,18.98714 l 12.11399,36.4909 c 2.019,6.13126 3.12945,9.29578 3.33134,9.49357 1.21141,2.96674 3.12946,5.63681 5.75415,8.0102 l 8.78265,5.04345 h -60.8728 l 7.57125,-5.04345 c 4.23988,-0.98891 6.35983,-3.95565 6.35983,-8.90022 0,-1.1867 -0.70665,-4.05455 -2.11994,-8.60355 l -7.87409,-25.21729 c -12.51779,-2.57117 -28.97262,-13.35033 -49.3645,-32.33747 l -1.2114,4.15344 -23.31943,70.90509 c -1.21139,3.75787 -1.81709,6.72461 -1.81709,8.90022 0,3.3623 2.92754,6.23015 8.78263,8.60354 l -12.41683,0.59335 H 674.6655 l -15.14249,-0.59335 c 4.8456,-1.58226 7.8741,-3.3623 9.0855,-5.34013 0.6057,-0.98891 1.81709,-4.25233 3.63419,-9.79024 l 28.46787,-86.92549 c -8.68168,0.59335 -16.25293,4.25233 -22.71373,10.97694 z M 475.69402,97.21729 c 10.2969,-6.92239 22.00709,-15.52594 35.13057,-25.81064 v 26.70066 c 3.8361,-4.549 8.68169,-9.79024 14.53679,-15.72372 8.47978,-6.32905 13.52728,-9.49357 15.14248,-9.49357 1.0095,0 1.71615,0.29667 2.11995,0.89002 l 17.26243,24.32727 c 0.2019,0.19779 0.30285,32.53525 0.30285,97.0124 0,1.97783 -1.0095,3.26342 -3.0285,3.85677 l -27.86217,16.02039 v -1.18669 c 4.2399,-3.95565 6.66269,-7.61463 7.2684,-10.97694 -0.20191,-33.22749 -1.11046,-67.83945 -2.72566,-103.8359 -2.019,-3.95566 -5.85509,-5.14236 -11.50828,-3.56009 -0.6057,0.19778 -4.13894,4.45011 -10.59974,12.75698 -0.6057,22.54723 -0.10096,46.67671 1.51425,72.38846 0.4038,6.32905 3.53325,10.18581 9.38833,11.57028 -2.82659,0 -7.16743,-0.0989 -13.02253,-0.29667 -5.65319,-0.19778 -9.89309,-0.29667 -12.71969,-0.29667 -1.81709,0 -4.64369,0.0989 -8.47979,0.29667 -3.6342,0.19778 -6.35984,0.29667 -8.17694,0.29667 5.24939,-2.17561 8.37885,-3.95565 9.38834,-5.34013 0.8076,-0.79113 1.2114,-2.76895 1.2114,-5.93348 l 0.6057,-84.25542 z m -3.9365,76.5419 c 1.0095,4.94457 -4.54274,10.48248 -16.65673,16.61374 -10.095,5.14235 -18.37289,8.10909 -24.83368,8.90022 l -5.4513,-0.89002 c -20.39188,-15.42705 -31.19352,-25.31618 -32.40492,-29.6674 -0.40379,-9.29579 0.50475,-32.23858 2.72565,-68.82837 13.93109,-9.88913 28.36693,-17.40488 43.3075,-22.54723 l 21.50234,14.53703 2.42279,3.85676 c 4.4418,4.15344 7.0665,13.05366 7.8741,26.70066 0.4038,6.92239 0.90855,24.0306 1.51425,51.32461 z m -29.07358,7.12017 c 0,-51.62127 -1.91805,-82.1787 -5.75414,-91.67227 l -9.69119,5.63681 c -3.4323,2.57117 -5.65319,5.24124 -6.66269,8.0102 l 1.51425,78.02526 c 1.4133,3.95565 4.13895,6.8235 8.17694,8.60355 6.057,-1.78005 10.19594,-4.6479 12.41683,-8.60355 z m -96.30607,-38.27095 c -0.4038,-20.56939 -1.11045,-41.43546 -2.11995,-62.59821 l -23.92513,-13.05366 -3.63419,86.92549 9.08549,7.71352 z m 26.04507,-74.46517 -0.30285,78.02526 -1.81709,70.90509 c -18.57479,16.0204 -35.43342,29.86519 -50.5759,41.53436 -5.6532,4.35122 -9.69119,6.52683 -12.11399,6.52683 -0.8076,0 -1.51425,-0.29667 -2.11995,-0.89002 l -14.23394,-24.32727 c -2.62469,-5.7357 -3.93704,-9.69135 -3.93704,-11.86696 0,-2.37339 1.51425,-4.45011 4.54275,-6.23015 l 27.86217,-16.0204 v 1.1867 c -4.2399,3.95565 -6.6627,7.61463 -7.2684,10.97693 1.2114,4.94457 2.92755,12.06474 5.14845,21.36053 1.00949,4.549 1.91804,6.72461 2.72564,6.52683 1.4133,-0.19778 7.47029,-4.84567 18.17098,-13.94368 4.8456,-4.15343 7.6722,-8.40576 8.4798,-12.75698 v -8.60355 c 0,0.59335 -0.2019,-18.59156 -0.6057,-57.55475 l -23.01658,26.99733 -29.67927,-17.20709 -6.66269,-67.04833 30.89066,-44.20443 25.74223,13.35033 c -0.2019,-5.73569 -0.4038,-10.38358 -0.60569,-13.94367 3.6342,2.76895 9.89309,6.13126 18.77667,10.08691 7.06649,3.16453 10.59974,5.53792 10.59974,7.12018 z M 218.5755,97.51396 209.49,85.647 c -3.23039,-4.15343 -4.84559,-8.60354 -4.84559,-13.35033 0,-1.78004 0.50476,-3.26341 1.51425,-4.45011 2.019,-2.57117 11.91209,-8.99911 29.67927,-19.28381 6.66269,4.74679 13.72919,9.98803 21.19948,15.72373 10.70069,8.30687 15.54628,15.03148 14.53679,20.17383 l -1.2114,67.64167 11.20544,0.59335 -21.80518,24.0306 c -5.0475,3.56009 -8.68169,5.34013 -10.90259,5.34013 -2.019,0 -2.72565,-1.1867 -2.11995,-3.56009 v -10.68026 l -19.38238,11.86696 c -8.88359,1.58226 -17.16149,-15.62483 -24.83368,-51.62128 3.4323,-6.72461 9.6912,-12.06475 18.77669,-16.0204 l 19.98808,-8.90022 c -6.86459,7.31796 -10.19594,13.05366 -9.99405,17.20709 -0.40379,2.76896 -0.60569,5.53792 -0.60569,8.30688 0,13.25143 2.92755,23.73391 8.78264,31.44744 3.2304,0.39557 5.4513,-1.38448 6.66269,-5.34013 V 67.84656 l -4.54274,2.3734 c -1.0095,0.59335 -3.73515,2.2745 -8.17695,5.04345 -7.47029,4.54901 -11.20544,8.60355 -11.20544,12.16364 l 2.72565,9.79024 z m -70.26073,106.50598 h 41.79326 c -6.25889,-3.36231 -8.88359,-8.70244 -7.87409,-16.0204 1.6152,-11.86696 2.72564,-27.98625 3.33134,-48.35787 0.6057,-20.76718 0.50476,-38.66651 -0.30284,-53.69799 h -27.25647 c 1.41329,19.18492 2.11994,36.68869 2.11994,52.5113 0,20.96496 -1.11045,38.46873 -3.33135,52.5113 -1.00949,6.13126 -3.83609,10.48248 -8.47979,13.05366 z M 168,34.025727 c 2.6247,1.780043 5.75414,2.670063 9.38834,2.670063 0.8076,0 2.11995,-0.19778 3.93704,-0.59335 1.81711,-0.39556 3.12946,-0.59334 3.93706,-0.59334 2.2209,0 3.33134,8.99911 3.33134,26.99733 C 182.73868,68.04434 175.87409,71.20887 168,72 c -4.8456,-5.14235 -8.78264,-12.26252 -11.81114,-21.36053 0.40381,-3.16452 0.70665,-6.23015 0.90855,-9.19689 1.4133,-4.54901 5.0475,-7.021291 10.90259,-7.416853 z M 5.67215,17.707778 c 6.662694,2.966739 10.397456,7.91159 11.205055,14.833984 L 18.39248,207.28395 c 0,8.50465 -5.551566,14.43847 -16.656055,17.80078 l 68.745604,0.5918 c -0.2019,0 -0.503372,-0.0991 -0.907171,-0.29688 l 2.422446,0.29688 9.085664,-1.48242 c 9.085492,-7.31796 17.868042,-14.63712 26.347832,-21.95508 15.34438,-13.25144 23.92461,-23.73375 25.74171,-31.44727 0.60571,-13.64701 0.90917,-23.93112 0.90917,-30.85351 0,-25.31618 -0.80924,-52.3137 -2.42444,-80.99219 C 108.03497,41.3434 83.50413,27.894189 58.064754,18.598402 h -3.02656 c 0.403799,-0.395565 0.806425,-0.692841 1.210225,-0.890624 z M 50.797312,197.19643 c 0.2019,0.59335 0.403799,1.28559 0.6057,2.07672 4.643695,3.16453 11.508289,6.13127 20.593779,8.90022 4.037996,-2.17561 8.378842,-5.24124 13.022538,-9.19689 5.451291,-4.74679 8.782641,-8.80133 9.994041,-12.16364 L 94.40766,64.28648 C 92.38866,57.56187 86.83642,51.72728 77.750935,46.78271 72.70344,44.40932 65.132198,40.75034 55.037208,35.80577 c -1.211399,3.16452 -2.119948,8.10909 -2.725647,14.8337 -0.6057,6.72461 -1.514249,11.66918 -2.725648,14.8337 z" />
  </g>
  <sodipodi:namedview
     pagecolor="#ffffff"
     bordercolor="#666666"
     borderopacity="1"
     objecttolerance="10"
     gridtolerance="10"
     guidetolerance="10"
     inkscape:pageopacity="0"
     inkscape:pageshadow="2"
     inkscape:window-width="1869"
     inkscape:window-height="965"
     id="namedview67"
     showgrid="true"
     inkscape:zoom="0.9983453"
     inkscape:cx="568.95238"
     inkscape:cy="263.54819"
     inkscape:window-x="9"
     inkscape:window-y="13"
     inkscape:window-maximized="0"
     inkscape:current-layer="g930"
     fit-margin-top="0"
     fit-margin-left="0"
     fit-margin-right="0"
     fit-margin-bottom="0"
     inkscape:document-rotation="0"
     units="in"
     showguides="false"
     inkscape:document-units="in">
    <inkscape:grid
       type="xygrid"
       id="grid842"
       units="in"
       spacingx="24"
       spacingy="24"
       empspacing="4" />
    <sodipodi:guide
       position="1315.066,306.83231"
       orientation="1,0"
       id="guide844" />
  </sodipodi:namedview>
  <defs
     id="defs5278">
    <clipPath
       id="clipPath3717">
      <path
         d="m 427.26,426.42 h 71.64 v 24 h -71.64 z"
         id="path3719"
         inkscape:connector-curvature="0" />
    </clipPath>
    <clipPath
       id="clipPath3733">
      <path
         d="m 427.264,426.42 h 71.589 v 23.968 h -71.589 z"
         id="path3735"
         inkscape:connector-curvature="0" />
    </clipPath>
    <clipPath
       id="clipPath3745">
      <path
         d="m 427.26,426.42 h 71.64 v 24 h -71.64 z"
         id="path3747"
         inkscape:connector-curvature="0" />
    </clipPath>
    <clipPath
       id="clipPath3773">
      <path
         d="m 427.264,426.42 h 71.589 v 23.968 h -71.589 z"
         id="path3775"
         inkscape:connector-curvature="0" />
    </clipPath>
    <clipPath
       id="clipPath3789">
      <path
         d="m 427.26,426.42 h 71.64 v 24 h -71.64 z"
         id="path3791"
         inkscape:connector-curvature="0" />
    </clipPath>
  </defs>
  <metadata
     id="metadata5281">
    <rdf:RDF>
      <cc:Work
         rdf:about="">
        <dc:format>image/svg+xml</dc:format>
        <dc:type
           rdf:resource="http://purl.org/dc/dcmitype/StillImage" />
        <dc:title></dc:title>
      </cc:Work>
    </rdf:RDF>
  </metadata>
  <g
     id="text1606"
     style="font-style:normal;font-variant:normal;font-weight:normal;font-stretch:normal;font-size:60px;line-height:1.25;font-family:'Harry Potter';-inkscape-font-specification:'Harry Potter';letter-spacing:0px;word-spacing:0px;fill:none;fill-opacity:1;stroke:#090b09;stroke-width:0.9375;stroke-opacity:1" />
</svg>
