<?xml version="1.0" encoding="UTF-8" standalone="no"?>
<svg
   xmlns:dc="http://purl.org/dc/elements/1.1/"
   xmlns:cc="http://creativecommons.org/ns#"
   xmlns:rdf="http://www.w3.org/1999/02/22-rdf-syntax-ns#"
   xmlns:svg="http://www.w3.org/2000/svg"
   xmlns="http://www.w3.org/2000/svg"
   xmlns:sodipodi="http://sodipodi.sourceforge.net/DTD/sodipodi-0.dtd"
   xmlns:inkscape="http://www.inkscape.org/namespaces/inkscape"
   version="1.1"
   width="11.5in"
   height="4in"
   id="svg5276"
   inkscape:version="1.0.1 (3bc2e813f5, 2020-09-07)"
   sodipodi:docname="DragonLance Direction Sign for Lamp Post.svg"
   inkscape:export-filename="C:\Users\Klemen\Downloads\The Chronicles of Narnia logo.png"
   inkscape:export-xdpi="1500.2426"
   inkscape:export-ydpi="1500.2426"
   viewBox="0 0 1104 384">
  <sodipodi:namedview
     pagecolor="#ffffff"
     bordercolor="#666666"
     borderopacity="1"
     objecttolerance="10"
     gridtolerance="10"
     guidetolerance="10"
     inkscape:pageopacity="0"
     inkscape:pageshadow="2"
     inkscape:window-width="1904"
     inkscape:window-height="1001"
     id="namedview67"
     showgrid="true"
     inkscape:zoom="1"
     inkscape:cx="603.65625"
     inkscape:cy="124.25645"
     inkscape:window-x="18"
     inkscape:window-y="12"
     inkscape:window-maximized="0"
     inkscape:current-layer="svg5276"
     fit-margin-top="0"
     fit-margin-left="0"
     fit-margin-right="0"
     fit-margin-bottom="0"
     inkscape:document-rotation="0"
     showguides="false"
     inkscape:snap-nodes="false"
     units="in"
     inkscape:document-units="in"
     inkscape:snap-bbox="true"
     inkscape:bbox-nodes="true"
     inkscape:snap-global="false">
    <inkscape:grid
       type="xygrid"
       id="grid986"
       units="in"
       spacingx="24"
       spacingy="24"
       empspacing="4" />
  </sodipodi:namedview>
  <defs
     id="defs5278">
    <inkscape:path-effect
       effect="perspective-envelope"
       up_left_point="104.39,36.803497"
       up_right_point="970.61,36.803497"
       down_left_point="24.394341,357.89577"
       down_right_point="1030.6059,357.89577"
       id="path-effect967"
       is_visible="true"
       lpeversion="1"
       deform_type="perspective"
       horizontal_mirror="false"
       vertical_mirror="false"
       overflow_perspective="false" />
    <inkscape:path-effect
       effect="perspective-envelope"
       up_left_point="53.102544,52.114112"
       up_right_point="998.73,52.114112"
       down_left_point="53.102544,382.77622"
       down_right_point="999.02854,382.77622"
       id="path-effect906"
       is_visible="true"
       lpeversion="1"
       deform_type="perspective"
       horizontal_mirror="false"
       vertical_mirror="false"
       overflow_perspective="false" />
    <clipPath
       id="clipPath3717">
      <path
         d="m 427.26,426.42 h 71.64 v 24 h -71.64 z"
         id="path3719"
         inkscape:connector-curvature="0" />
    </clipPath>
    <clipPath
       id="clipPath3733">
      <path
         d="m 427.264,426.42 h 71.589 v 23.968 h -71.589 z"
         id="path3735"
         inkscape:connector-curvature="0" />
    </clipPath>
    <clipPath
       id="clipPath3745">
      <path
         d="m 427.26,426.42 h 71.64 v 24 h -71.64 z"
         id="path3747"
         inkscape:connector-curvature="0" />
    </clipPath>
    <clipPath
       id="clipPath3773">
      <path
         d="m 427.264,426.42 h 71.589 v 23.968 h -71.589 z"
         id="path3775"
         inkscape:connector-curvature="0" />
    </clipPath>
    <clipPath
       id="clipPath3789">
      <path
         d="m 427.26,426.42 h 71.64 v 24 h -71.64 z"
         id="path3791"
         inkscape:connector-curvature="0" />
    </clipPath>
  </defs>
  <metadata
     id="metadata5281">
    <rdf:RDF>
      <cc:Work
         rdf:about="">
        <dc:format>image/svg+xml</dc:format>
        <dc:type
           rdf:resource="http://purl.org/dc/dcmitype/StillImage" />
        <dc:title />
      </cc:Work>
    </rdf:RDF>
  </metadata>
  <g
     id="text1040"
     style="font-size:192px;line-height:1.25;font-family:CountdownD;-inkscape-font-specification:CountdownD" />
  <g
     id="text1044"
     style="font-size:192px;line-height:1.25;font-family:CountdownD;-inkscape-font-specification:CountdownD" />
  <g
     id="g1076"
     transform="matrix(1.0046511,0,0,0.66242038,805.10699,-269.96178)"
     style="stroke-width:1.22582" />
  <text
     xml:space="preserve"
     style="font-size:192px;line-height:1.25;font-family:'Disco Duck';-inkscape-font-specification:'Disco Duck'"
     x="62"
     y="235"
     id="text1089"><tspan
       sodipodi:role="line"
       id="tspan1087"
       x="62"
       y="235" /></text>
  <path
     style="fill:#a90008;stroke-width:1;fill-opacity:1"
     d="m 707.14424,295.5245 c -0.32618,-0.34191 -3.22147,-0.54802 -6.43399,-0.45804 -4.18818,0.11732 -7.7753,-0.39241 -12.67706,-1.8014 -3.75986,-1.08076 -8.10281,-2.21535 -9.65099,-2.52131 -6.62902,-1.31006 -18.71491,-5.77447 -35.03577,-12.94186 -1.35501,-0.59507 -4.06935,-1.32739 -6.03187,-1.62737 -1.9625,-0.29998 -4.02058,-0.90226 -4.5735,-1.33836 -1.46945,-1.15901 -1.22742,-3.78469 0.40212,-4.36258 0.77409,-0.27453 2.0273,-1.03089 2.78491,-1.68081 0.75762,-0.64992 1.93595,-0.96736 2.61853,-0.70543 0.84075,0.32263 1.85272,-0.49276 3.13756,-2.52808 1.04309,-1.65237 2.45893,-3.47105 3.14631,-4.04152 2.63022,-2.1829 7.81625,-11.23727 9.43135,-16.46636 1.64678,-5.33166 1.68559,-6.8012 1.65116,-62.52961 l -0.0352,-57.06963 -3.30148,-6.88465 c -2.53152,-5.279 -4.63146,-8.2146 -9.00403,-12.58719 -5.37076,-5.37076 -5.69153,-5.89428 -5.51333,-8.998299 0.26663,-4.644234 1.64923,-5.822395 5.50672,-4.692473 9.76194,2.85942 22.37653,4.202741 34.27994,3.650447 8.24015,-0.382324 9.38334,0.181994 9.38334,4.631935 0,2.41378 -0.67186,3.84588 -3.14465,6.70296 -5.23926,6.0535 -5.54979,8.74829 -6.06635,52.64427 -0.2465,20.9463 -0.63319,38.38356 -0.85932,38.74946 -0.22614,0.36589 -0.0576,0.88375 0.37447,1.1508 0.48995,0.3028 0.69803,8.87452 0.5529,22.77561 -0.22482,21.53281 -0.17031,22.45824 1.60457,27.24022 1.15286,3.1061 3.27369,6.52844 5.69315,9.18692 4.43262,4.87053 7.54306,7.7552 7.74047,7.17867 0.0751,-0.21945 1.27824,0.4139 2.67353,1.40743 1.39529,0.99354 2.94616,1.80643 3.44635,1.80643 0.50021,0 1.78379,0.57289 2.85241,1.27307 1.10133,0.72162 2.63295,1.05408 3.53587,0.7675 0.8761,-0.27807 4.78438,0.0527 8.68506,0.73499 3.90067,0.6823 8.6089,1.24171 10.46273,1.24313 1.85382,0.002 3.59427,0.36447 3.86765,0.80681 0.61543,0.9958 7.84071,1.06835 8.88695,0.0892 0.42022,-0.39325 2.75455,-0.92471 5.18741,-1.181 8.59425,-0.90536 11.24767,-1.40355 15.77897,-2.96254 2.51849,-0.86649 5.40584,-1.57543 6.41632,-1.57543 1.01049,0 2.03155,-0.31438 2.26902,-0.69862 0.35706,-0.57772 3.11275,-1.30424 8.10778,-2.13755 1.39822,-0.23326 3.97669,-1.39535 5.22762,-2.35604 0.66351,-0.50955 3.73976,-1.77655 6.83612,-2.81556 3.09636,-1.039 5.99166,-2.14061 6.43399,-2.44802 0.44234,-0.30741 4.06146,-1.55509 8.0425,-2.77262 3.98103,-1.21754 7.60015,-2.49142 8.04249,-2.83084 0.94395,-0.72436 9.1041,-3.48148 10.85736,-3.66846 0.66351,-0.0708 3.92072,-0.73146 7.23825,-1.46823 3.31752,-0.73676 11.6415,-1.68339 18.49773,-2.10362 10.5766,-0.64824 12.64432,-0.58604 13.64352,0.4104 1.98224,1.97679 -0.54359,3.49474 -7.23583,4.34851 -8.66892,1.10594 -10.60491,1.83883 -30.93729,11.71159 -6.63506,3.22177 -14.05426,6.67224 -16.48711,7.66773 -4.12926,1.68962 -8.55561,3.83396 -20.54178,9.95152 -13.19513,6.73459 -27.57899,11.57142 -43.15373,14.5112 -7.52832,1.42099 -33.63626,2.63737 -34.61383,1.61267 z M 105.75675,270.80374 99.724879,267.76943 87.66114,267.46254 c -7.262491,-0.18475 -15.584653,0.12832 -20.91048,0.78663 -7.763868,0.95969 -10.467038,1.49124 -16.688171,3.28161 -1.79847,0.51758 -1.868553,-2.11503 -0.22515,-8.45714 0.839661,-3.24036 1.291222,-10.84886 1.558185,-26.2542 0.206732,-11.93037 0.420244,-21.87253 0.474459,-22.0937 0.05421,-0.22117 0.167332,-18.16657 0.251376,-39.87867 l 0.152815,-39.47654 3.091156,-4.65702 c 1.700143,-2.56137 6.405001,-7.89559 10.45524,-11.85383 l 7.364084,-7.19679 -13.358974,0.41295 c -8.964314,0.2771 -13.642672,0.12925 -14.221362,-0.44944 -0.474314,-0.47432 -1.520063,-0.59624 -2.323886,-0.27095 -2.058122,0.83289 -39.911972,0.49171 -40.775432,-0.36751 -1.56681,-1.5591 0.66359,-3.39669 9.72358,-8.01113 5.21626,-2.65676 11.29368,-5.904186 13.50537,-7.216504 4.86845,-2.888726 12.605585,-7.005509 23.172752,-12.329776 7.587263,-3.822854 7.952175,-3.921953 9.449929,-2.566512 1.972751,1.785321 1.961829,3.714859 -0.05099,9.010656 -1.707011,4.491185 -2.113912,9.435878 -0.84122,10.222446 0.421788,0.26068 17.581041,0.48661 38.131692,0.50208 41.756627,0.0315 42.553527,0.12048 51.232927,5.72498 9.01335,5.82015 10.89258,8.53688 17.12688,24.75964 1.80468,4.6961 3.95277,16.83677 4.90928,27.7466 0.40671,4.63886 0.37679,31.23897 -0.0498,44.2337 -0.15971,4.86571 -0.39393,13.73256 -0.52049,19.70411 -0.22114,10.43414 -0.33234,11.06114 -2.85274,16.08498 -5.66947,11.30075 -12.735,21.10746 -16.65432,23.11561 -1.3291,0.68099 -3.46574,2.11405 -4.74808,3.18457 -3.11403,2.59963 -10.49097,6.20715 -14.95983,7.31575 -1.99051,0.4938 -6.69537,1.00381 -10.45524,1.13336 -6.52395,0.2248 -7.11155,0.097 -12.86799,-2.79876 z m 7.90911,-34.24203 c 1.1792,-0.82522 2.60893,-1.33671 3.17718,-1.13663 1.59932,0.56308 10.80363,-5.85083 12.94379,-9.01972 1.05228,-1.55808 2.35216,-2.83288 2.88863,-2.83288 1.74817,0 5.20432,-14.59244 3.85064,-16.25805 -0.55007,-0.67683 -0.86644,-12.3658 -0.91705,-33.88224 -0.072,-30.59958 -0.18892,-33.21045 -1.70789,-38.12831 -2.04524,-6.6217 -3.92899,-9.68872 -7.80216,-12.70305 -6.38636,-4.97023 -14.47501,-7.15023 -23.58503,-6.3565 -13.13435,1.14436 -26.630859,13.46992 -29.68822,27.11249 -0.878345,3.91933 -1.421607,84.7351 -0.575304,85.5814 0.288694,0.28869 1.759995,0.47846 3.269563,0.42172 1.631347,-0.0614 3.549578,0.52996 4.72901,1.4577 1.09139,0.85848 4.374223,2.66705 7.295192,4.01903 4.209271,1.94828 6.658588,2.51827 11.808485,2.74798 3.573694,0.1594 6.745504,0.53769 7.048444,0.84063 0.84451,0.8445 4.87093,-0.18837 7.26472,-1.86357 z m 284.83761,7.3722 c -1.10584,-0.18151 -3.09636,-0.73157 -4.42337,-1.22237 -10.99259,-4.06563 -16.86658,-8.87777 -20.22422,-16.56828 -1.10011,-2.51978 -2.46279,-5.48618 -3.02816,-6.59203 -0.56751,-1.11001 -0.79571,-2.91123 -0.50946,-4.02124 l 0.51851,-2.01063 9.61104,0.20051 9.61104,0.20052 0.0721,3.82073 c 0.11727,6.2108 1.18293,9.09741 4.57317,12.38752 2.88954,2.8042 3.59151,3.09483 7.47509,3.09483 4.66947,0 8.84568,-2.21512 13.61558,-7.22191 l 2.41274,-2.53257 0.2055,-13.21837 c 0.22958,-14.76724 0.24578,-14.73212 -4.9732,-10.78324 -1.73756,1.3147 -3.46938,2.39037 -3.84848,2.39037 -0.3791,0 -1.60821,0.60211 -2.73136,1.33802 -4.21345,2.76076 -12.52008,4.96144 -17.18808,4.55364 -11.58935,-1.01246 -22.51593,-4.69322 -27.38438,-9.22481 -4.85475,-4.51883 -8.76526,-11.92777 -10.55096,-19.99008 -0.857,-3.86931 -0.36722,-14.74376 0.92345,-20.50301 0.74596,-3.3286 5.29241,-11.98235 7.47872,-14.23506 0.56102,-0.57806 1.83164,-2.20557 2.82361,-3.61668 2.36235,-3.36055 11.76381,-9.56373 18.8898,-12.46367 10.93994,-4.45204 21.16371,-3.90274 32.17543,1.7287 6.55735,3.35347 6.89795,3.3096 8.57617,-1.10445 0.82918,-2.1809 1.0301,-2.25839 4.26883,-1.64629 1.86928,0.35329 7.72376,0.70804 13.00995,0.78834 5.76464,0.0876 9.72203,0.47835 9.88805,0.97642 0.30834,0.92498 -2.66078,6.54847 -6.70306,12.69558 -1.4607,2.2213 -3.73409,6.38329 -5.05199,9.24887 l -2.39617,5.21015 -0.40767,31.36572 c -0.4413,33.95251 -0.35394,33.24885 -5.34245,43.02715 -1.71306,3.35788 -7.33505,7.74449 -13.3398,10.40849 -3.50911,1.55682 -14.01705,4.24663 -15.46478,3.95866 -0.30284,-0.0602 -1.45539,-0.25803 -2.56123,-0.43953 z m 1.54262,-47.79785 c 6.3458,-1.07435 13.97776,-4.90489 16.58621,-8.32475 1.87937,-2.46397 1.89476,-2.65844 2.02602,-25.58707 0.14991,-26.18969 0.31019,-25.44433 -6.17027,-28.69494 -8.49946,-4.26336 -17.47367,-1.55601 -26.11997,7.87989 -8.9591,9.77729 -14.14514,23.38834 -13.3793,35.11471 0.70375,10.77561 3.78741,15.57512 12.21867,19.01753 3.95442,1.61455 7.88418,1.77202 14.83864,0.59463 z m -154.7521,13.7887 c -8.41796,-2.14454 -16.53589,-7.08741 -27.90978,-16.99382 -8.1991,-7.14123 -13.04679,-10.69073 -15.51968,-11.36355 -0.88467,-0.24069 -2.24184,-0.69837 -3.01593,-1.01705 -1.29252,-0.5321 -1.40744,0.17741 -1.40744,8.68972 0,5.09802 -0.20639,9.80699 -0.45866,10.46437 -0.25226,0.65738 -2.69516,2.01262 -5.42868,3.01165 -2.73351,0.99902 -5.4544,2.19023 -6.04641,2.64713 -0.59201,0.45689 -2.92744,1.48258 -5.18984,2.27931 -5.39316,1.89928 -6.15212,1.1326 -4.33752,-4.38159 3.19955,-9.72273 4.77247,-37.67598 2.8716,-51.03285 -1.94386,-13.65899 -2.38706,-15.27676 -4.88513,-17.83186 -1.34871,-1.37948 -2.73542,-2.50815 -3.08157,-2.50815 -0.84759,0 -4.00526,-5.4257 -4.00526,-6.88209 0,-1.41418 -0.40776,-1.41574 8.52198,0.0326 4.02358,0.65259 10.53799,1.10352 14.47648,1.00208 l 7.16089,-0.18443 0.24961,3.01593 c 0.28703,3.4681 1.22823,3.7382 5.1331,1.47303 1.46288,-0.8486 5.55507,-2.5539 9.09377,-3.78957 5.7517,-2.00841 7.54273,-2.24858 16.88924,-2.26472 9.70259,-0.0167 10.82243,0.14324 15.55602,2.22251 10.84552,4.764 13.87867,12.4707 8.95292,22.74774 -3.02305,6.30726 -15.52632,17.81131 -25.04701,23.04534 -2.57925,1.41795 -4.68955,2.86543 -4.68955,3.21661 0,0.35118 0.93216,0.99292 2.07147,1.42609 3.60135,1.36923 9.36386,5.72903 16.51697,12.49642 11.36712,10.75415 16.29091,13.3852 22.02614,11.76973 2.38685,-0.67232 3.70273,-3.11911 2.1978,-4.08668 -1.10209,-0.70857 -4.14505,-6.8986 -5.90274,-12.00744 -2.20793,-6.41744 -2.21213,-17.59848 -0.009,-24.05955 3.83567,-11.24899 9.36538,-20.75322 13.33732,-22.92359 1.02905,-0.5623 4.17531,-2.36273 6.99171,-4.00095 8.53458,-4.96436 22.16368,-6.67167 33.24841,-4.16502 8.82458,1.99556 8.85235,1.99096 8.57443,-1.42085 -0.13152,-1.61453 0.18133,-3.19453 0.69545,-3.51227 0.51398,-0.31766 2.80051,0.3345 5.08118,1.44924 2.28067,1.11474 5.77527,2.64193 7.76579,3.39377 1.99052,0.75183 4.24755,1.69173 5.01564,2.08866 0.76809,0.39693 1.85383,0.72303 2.41275,0.72469 0.55892,0.002 2.2042,0.72731 3.65616,1.61256 2.26129,1.3787 2.51678,1.83968 1.78127,3.21399 -0.5415,1.01172 -1.68371,1.60444 -3.09192,1.60444 -1.51543,0 -2.74313,0.71085 -3.81976,2.21168 -1.49036,2.07757 -1.60094,3.82827 -1.82347,28.86898 l -0.23689,26.65728 2.39047,2.6754 c 2.11575,2.36793 2.81629,2.65687 6.09559,2.51415 3.96621,-0.17261 4.54122,0.42811 2.29768,2.40047 -2.9008,2.55018 -8.24329,4.64172 -11.85647,4.64172 -6.08522,0 -9.0614,-1.66095 -14.35431,-8.01084 -1.936,-2.32263 -2.5097,-2.59981 -3.76208,-1.81769 -2.64332,1.65077 -15.98608,6.61076 -17.86266,6.64018 -1.00478,0.0158 -3.99835,0.54902 -6.65237,1.18504 -4.2546,1.01957 -5.72941,1.0071 -12.46586,-0.10541 -5.03108,-0.83087 -8.66446,-1.92223 -10.63906,-3.19566 -3.20846,-2.06914 -4.64168,-2.41949 -4.64168,-1.13465 0,1.29775 -6.44215,5.57954 -9.57388,6.36329 -4.61829,1.15578 -10.73405,1.57023 -13.34722,0.90451 z m 64.64106,-12.97826 c 1.93497,-0.43562 5.42387,-2.13267 7.75312,-3.77121 5.2374,-3.68431 5.10519,-2.88901 5.20213,-31.29133 l 0.0719,-21.07394 -1.84263,-1.20734 c -3.48063,-2.28059 -11.03825,-3.50947 -17.0948,-2.77962 -4.52883,0.54575 -6.45109,1.25582 -9.98092,3.68691 -4.58248,3.15607 -10.03797,9.39835 -11.79404,13.49495 -3.03971,7.09113 -3.51497,23.0606 -0.83771,28.14872 0.69824,1.32701 1.27176,2.72771 1.27448,3.11266 0.0166,2.35532 4.81994,7.88208 8.44958,9.7223 6.87996,3.48813 10.38181,3.85285 18.79885,1.9579 z M 207.06581,169.56904 c 8.99558,-3.26909 19.2144,-12.56007 23.69768,-21.546 4.50656,-9.03258 3.09222,-13.07767 -5.4702,-15.645 -6.30025,-1.88905 -16.45647,0.34819 -24.37713,5.36987 l -3.36113,2.13094 -0.0251,16.16775 -0.0251,16.16775 2.58197,-0.52369 c 1.42007,-0.28803 4.56062,-1.24275 6.97899,-2.12162 z m 565.78181,39.56075 c -2.61713,-0.70359 -7.26241,-4.66232 -9.57954,-8.16374 -2.06222,-3.11624 -2.22504,-3.19867 -4.0089,-2.02984 -2.52473,1.65426 -10.84625,5.07446 -18.05631,7.42127 -15.49788,5.0444 -34.62018,-0.60129 -40.39823,-11.92722 -2.51908,-4.93779 -4.04389,-16.04812 -3.0646,-22.32973 1.54672,-9.92133 6.83519,-21.66186 12.84679,-28.52017 5.01652,-5.72307 6.34928,-6.81519 12.30641,-10.08451 12.75495,-7.00001 24.16681,-7.51228 33.99819,-1.52615 1.37922,0.83977 2.73639,1.52686 3.01593,1.52686 0.27955,0 0.50826,-1.47143 0.50826,-3.26986 0,-3.76388 1.15466,-6.38113 2.81519,-6.38113 0.63255,0 2.44476,1.13675 4.02714,2.52609 2.94249,2.58354 8.10498,5.63703 15.30671,9.05354 4.62949,2.19624 6.25075,3.81408 5.85926,5.84692 -0.22377,1.16199 -0.97139,1.3759 -4.12998,1.18167 -6.43174,-0.39553 -6.18484,-1.42403 -6.18484,25.7639 0,20.18244 0.20161,24.45879 1.24849,26.48325 1.55891,3.0146 3.63741,3.84005 8.97684,3.56508 3.65735,-0.18835 4.10134,-0.0497 3.4729,1.08469 -3.43506,6.20044 -13.31534,11.29651 -18.95971,9.77908 z m -25.06219,-10.95278 c 5.31965,-1.37846 10.22606,-3.62574 11.58938,-5.30828 0.54843,-0.67684 1.00984,-9.74681 1.26786,-24.92222 l 0.40565,-23.85812 -2.1373,-2.04767 c -5.60253,-5.36756 -16.54816,-5.80596 -22.95014,-0.91922 -1.92087,1.46623 -4.28565,3.09037 -5.25508,3.60919 -2.53373,1.356 -9.28772,12.06367 -10.95719,17.37133 -0.78233,2.48725 -1.88326,4.69911 -2.44651,4.91525 -0.69807,0.26787 -0.81064,0.94753 -0.35361,2.13493 0.36877,0.95808 1.10875,4.63107 1.64439,8.1622 1.27306,8.3925 3.3129,12.53558 8.34597,16.95134 6.09312,5.3458 11.43949,6.34889 20.84658,3.91127 z m 186.22152,10.63483 c -2.50242,-0.55199 -5.03581,-1.38778 -5.62975,-1.85733 -0.59394,-0.46954 -2.04721,-1.08447 -3.22954,-1.36651 -1.18233,-0.28203 -3.22512,-1.41767 -4.53951,-2.52364 -1.31438,-1.10598 -2.78889,-2.01086 -3.27667,-2.01086 -1.65699,0 -7.05889,-5.56819 -9.92677,-10.23227 -6.14591,-9.99527 -8.08399,-23.93439 -4.60175,-33.0965 2.88886,-7.60063 4.62275,-10.28367 10.66813,-16.50822 4.69006,-4.82901 7.23599,-6.70849 12.28402,-9.06837 5.67374,-2.65243 7.22939,-3.01459 14.27397,-3.3231 7.3695,-0.32275 16.63518,0.81495 18.63398,2.288 0.44233,0.32599 3.62748,1.76091 7.07811,3.18871 6.4496,2.66872 14.23449,9.00641 14.23449,11.58836 0,1.20021 -4.26196,3.51694 -10.5536,5.73676 -3.38315,1.19364 -3.21603,1.30771 -6.53082,-4.45807 -3.28279,-5.71008 -6.81899,-8.60314 -12.23859,-10.01276 -6.00983,-1.56311 -6.60505,-1.55579 -12.14239,0.1493 -5.90576,1.81856 -11.02972,6.74159 -14.12752,13.57362 -2.18708,4.82357 -2.31351,5.70421 -2.32115,16.17735 -0.008,9.18075 0.28712,11.97064 1.71732,16.30371 2.42336,7.34213 3.85452,10.02269 7.53967,14.12203 2.68628,2.98816 4.05752,3.78757 8.31152,4.8453 3.94958,0.98204 5.93777,1.0825 8.84674,0.44703 2.0637,-0.45083 5.15845,-1.04806 6.87721,-1.32719 5.38566,-0.87463 16.8791,-8.21809 25.37809,-16.21462 l 5.27539,-4.96357 0.52461,-10.71929 c 0.69704,-14.24432 3.31986,-20.8083 11.71035,-29.30691 6.51831,-6.60228 13.03261,-9.74359 22.66491,-10.92929 10.2213,-1.25819 16.7261,-0.1255 25.3093,4.40705 8.2634,4.36376 14.6267,10.26403 19.8485,18.4043 l 4.1638,6.49103 3.7315,-0.4452 c 3.6812,-0.4392 11.7853,-2.31356 21.654,-5.00828 2.78,-0.7591 5.2897,-1.14504 5.5771,-0.85764 0.6234,0.6234 -4.5029,11.47588 -6.0126,12.72884 -0.7196,0.59718 -14.8163,0.96297 -44.5328,1.15561 -23.9141,0.15501 -43.8524,0.51197 -44.3076,0.79324 -1.2542,0.77515 -0.2915,10.33015 1.6906,16.77968 2.1853,7.11031 5.1267,11.36427 10.1308,14.65095 9.0696,5.957 24.5637,4.25697 37.8172,-4.14937 2.2117,-1.4028 4.4486,-2.80731 4.971,-3.12113 0.5224,-0.31381 1.158,-0.23368 1.4124,0.17806 1.3446,2.17561 -12.4527,12.59968 -21.081,15.927 -7.7507,2.98892 -18.9675,2.99682 -27.4034,0.0193 -3.2504,-1.14724 -6.5076,-2.61052 -7.2382,-3.25172 -0.7307,-0.64121 -2.8233,-1.91707 -4.6503,-2.83527 -1.827,-0.9182 -5.02975,-3.37736 -7.11718,-5.46482 -3.50154,-3.50152 -3.92932,-3.71034 -5.52495,-2.69718 -4.24282,2.69405 -18.96187,10.7177 -22.30497,12.15894 -9.49955,4.09531 -23.80843,5.66982 -33.03365,3.63494 z m 117.10135,-49.66905 c 0.5384,-0.53931 -2.9121,-7.86985 -5.342,-11.34927 -0.8412,-1.20458 -3.0698,-3.45231 -4.9524,-4.99493 -2.7677,-2.26793 -4.5368,-2.97761 -9.2427,-3.70775 -6.8722,-1.06626 -8.6987,-0.59152 -14.5848,3.79083 -4.2823,3.18832 -8.263,9.0876 -9.2301,13.67871 -0.4934,2.3421 -0.3494,2.58639 1.7244,2.92588 3.3267,0.54458 41.0519,0.23331 41.6276,-0.34347 z m -253.49615,49.36356 c -1.75825,-0.60978 -1.08397,-2.62811 1.20637,-3.61069 1.21643,-0.52188 3.19094,-1.61313 4.38791,-2.425 l 2.17613,-1.47614 0.0233,-31.70669 0.0233,-31.7067 -2.67759,-2.04229 c -1.47266,-1.12325 -3.00532,-2.04429 -3.40591,-2.04676 -0.4006,-0.002 -2.1073,-0.38742 -3.79275,-0.85543 -2.68491,-0.74558 -3.03351,-1.11852 -2.81487,-3.01146 l 0.24963,-2.16049 h 15.25499 15.25492 l 0.88202,2.81487 c 0.48505,1.54818 2.21571,5.63974 3.84592,9.09236 1.63022,3.45262 2.96398,6.4601 2.96398,6.6833 0,0.2232 1.17622,1.98202 2.61381,3.90849 1.4376,1.92647 4.06146,5.57184 5.83081,8.10082 6.27371,8.96726 12.70111,16.16384 22.77143,25.49654 5.60827,5.19746 10.46956,9.44993 10.803,9.44993 0.33336,0 0.60616,-11.47126 0.60616,-25.49169 v -25.49168 l -2.04657,-2.95325 c -1.85685,-2.67933 -3.60875,-3.7438 -10.62035,-6.45272 -1.87583,-0.72473 -2.4717,-3.44643 -0.95923,-4.38121 1.3809,-0.85346 31.38526,-0.62974 32.25546,0.24051 1.2071,1.20706 1.33747,77.05118 0.13455,78.25622 -3.04706,3.05242 -30.54458,-9.36759 -46.10833,-20.82609 -13.87346,-10.21403 -19.37501,-14.53638 -21.04423,-16.53354 -1.36795,-1.63667 -1.42464,-1.05226 -1.51327,15.59096 -0.0507,9.51024 -0.15305,18.739 -0.22777,20.50835 l -0.13583,3.217 -12.46587,0.0806 c -6.85622,0.0443 -12.91825,-0.0763 -13.47117,-0.26808 z M 487.3328,207.53414 c -0.42022,-0.41669 -3.06218,-1.12623 -5.87102,-1.57676 -2.80883,-0.45053 -5.52317,-1.14469 -6.03187,-1.54256 -0.50868,-0.39788 -3.15613,-1.46379 -5.88321,-2.36871 -10.68624,-3.54597 -19.75184,-13.29032 -23.21547,-24.95362 -2.03433,-6.85033 -0.35421,-17.21742 4.17976,-25.79095 4.37998,-8.28233 10.35292,-14.97697 18.36424,-20.58319 5.63971,-3.9466 10.47986,-5.53681 14.68613,-4.82509 30.07967,5.08962 37.37911,7.51826 43.12086,14.34702 4.17067,4.96025 8.54362,11.33578 8.54362,12.45614 0,0.44794 0.75643,2.09649 1.68096,3.66345 2.39028,4.05122 2.57284,15.17859 0.35063,21.3704 -3.59052,10.00434 -9.55256,16.65154 -20.74735,23.13164 -4.52463,2.61908 -9.77205,5.36223 -11.66093,6.0959 -3.77728,1.46714 -16.20559,1.87606 -17.51635,0.57633 z m 17.76996,-9.74132 c 9.56215,-4.51173 13.84833,-13.15361 14.61957,-29.47622 0.62984,-13.33005 -1.35974,-20.31838 -7.67644,-26.96318 -5.09915,-5.36402 -16.3699,-7.44776 -27.24736,-5.03749 -5.78671,1.28224 -6.57395,1.70941 -10.16936,5.51817 -5.70532,6.04386 -7.49811,10.53733 -8.06464,20.21331 -0.65689,11.21905 0.73467,16.89959 6.3045,25.73598 7.70672,12.22649 19.6649,15.93982 32.23373,10.00943 z m -18.80083,-21.80521 c -6.30826,-4.0388 -5.41609,-14.04466 1.57008,-17.60874 5.81584,-2.96702 12.42722,-0.19583 14.8847,6.23898 1.26176,3.30385 1.25293,3.67159 -0.16344,6.81253 -0.82345,1.8261 -2.59436,3.98925 -3.93535,4.80702 -3.34345,2.03893 -8.95851,1.92541 -12.35599,-0.24979 z m 140.25354,31.06508 c -0.85863,-0.64553 -2.29139,-1.17369 -3.18391,-1.17369 -3.82186,0 -23.88409,-10.0469 -31.67042,-15.86014 -5.41885,-4.04568 -19.00947,-15.17897 -22.69684,-18.593 l -3.61912,-3.35084 -0.43884,19.10305 c -0.24137,10.50668 -0.51281,19.19353 -0.60319,19.30411 -0.48914,0.59844 -28.29054,0.0839 -28.67034,-0.53061 -0.90724,-1.46796 0.53226,-3.14339 3.11744,-3.62837 5.5413,-1.03956 5.37808,0.035 5.39713,-35.53012 0.0162,-30.11965 -0.0701,-32.07904 -1.45627,-33.09293 -0.81036,-0.59273 -2.37818,-1.26449 -3.48403,-1.49279 -3.29918,-0.68112 -4.40974,-1.57442 -4.67202,-3.75803 -0.24745,-2.06017 -0.21651,-2.07138 6.434,-2.33163 3.67545,-0.14382 9.92309,-0.0806 13.88363,0.14062 l 7.201,0.40213 1.73016,4.82549 c 2.56279,7.14769 7.66908,16.91678 13.7358,26.2786 7.64416,11.79602 31.34459,35.24647 35.62221,35.24647 0.58919,0 0.90684,-7.79546 1.00773,-24.73067 0.081,-13.60186 0.10146,-25.55892 0.0454,-26.57122 -0.10955,-1.97851 -3.59532,-6.61585 -5.72686,-7.61881 -3.77024,-1.77402 -6.15347,-3.70558 -6.36917,-5.1621 -0.20942,-1.41408 0.32744,-1.70032 4.02125,-2.14393 2.34461,-0.28159 9.01955,-0.51512 14.83319,-0.51897 9.31774,-0.006 10.63774,0.15978 11.13974,1.40045 0.31322,0.77409 0.53085,16.7887 0.48362,35.58803 -0.0472,18.79932 -0.0894,35.99015 -0.0936,38.20183 -0.004,2.21169 -0.27366,4.42486 -0.59864,4.91817 -1.02381,1.55408 -3.74692,1.89842 -5.36902,0.6789 z"
     id="path862" />
</svg>
