<?xml version="1.0" encoding="UTF-8" standalone="no"?>
<svg
   xmlns:dc="http://purl.org/dc/elements/1.1/"
   xmlns:cc="http://creativecommons.org/ns#"
   xmlns:rdf="http://www.w3.org/1999/02/22-rdf-syntax-ns#"
   xmlns:svg="http://www.w3.org/2000/svg"
   xmlns="http://www.w3.org/2000/svg"
   xmlns:sodipodi="http://sodipodi.sourceforge.net/DTD/sodipodi-0.dtd"
   xmlns:inkscape="http://www.inkscape.org/namespaces/inkscape"
   version="1.1"
   width="11.5in"
   height="4in"
   id="svg5276"
   inkscape:version="1.0.1 (3bc2e813f5, 2020-09-07)"
   sodipodi:docname="Emerald City Direction Sign for Lamp Post.svg"
   inkscape:export-filename="C:\Users\Klemen\Downloads\The Chronicles of Narnia logo.png"
   inkscape:export-xdpi="1500.2426"
   inkscape:export-ydpi="1500.2426"
   viewBox="0 0 1104 384">
  <sodipodi:namedview
     pagecolor="#ffffff"
     bordercolor="#666666"
     borderopacity="1"
     objecttolerance="10"
     gridtolerance="10"
     guidetolerance="10"
     inkscape:pageopacity="0"
     inkscape:pageshadow="2"
     inkscape:window-width="1904"
     inkscape:window-height="1001"
     id="namedview67"
     showgrid="true"
     inkscape:zoom="1.044997"
     inkscape:cx="572.02"
     inkscape:cy="168.69086"
     inkscape:window-x="95"
     inkscape:window-y="-2"
     inkscape:window-maximized="0"
     inkscape:current-layer="svg5276"
     fit-margin-top="0"
     fit-margin-left="0"
     fit-margin-right="0"
     fit-margin-bottom="0"
     inkscape:document-rotation="0"
     showguides="false"
     inkscape:snap-nodes="false"
     units="in"
     inkscape:document-units="in">
    <inkscape:grid
       type="xygrid"
       id="grid986"
       units="in"
       spacingx="24"
       spacingy="24"
       empspacing="4" />
  </sodipodi:namedview>
  <defs
     id="defs5278">
    <clipPath
       id="clipPath3717">
      <path
         d="m 427.26,426.42 h 71.64 v 24 h -71.64 z"
         id="path3719"
         inkscape:connector-curvature="0" />
    </clipPath>
    <clipPath
       id="clipPath3733">
      <path
         d="m 427.264,426.42 h 71.589 v 23.968 h -71.589 z"
         id="path3735"
         inkscape:connector-curvature="0" />
    </clipPath>
    <clipPath
       id="clipPath3745">
      <path
         d="m 427.26,426.42 h 71.64 v 24 h -71.64 z"
         id="path3747"
         inkscape:connector-curvature="0" />
    </clipPath>
    <clipPath
       id="clipPath3773">
      <path
         d="m 427.264,426.42 h 71.589 v 23.968 h -71.589 z"
         id="path3775"
         inkscape:connector-curvature="0" />
    </clipPath>
    <clipPath
       id="clipPath3789">
      <path
         d="m 427.26,426.42 h 71.64 v 24 h -71.64 z"
         id="path3791"
         inkscape:connector-curvature="0" />
    </clipPath>
  </defs>
  <metadata
     id="metadata5281">
    <rdf:RDF>
      <cc:Work
         rdf:about="">
        <dc:format>image/svg+xml</dc:format>
        <dc:type
           rdf:resource="http://purl.org/dc/dcmitype/StillImage" />
        <dc:title></dc:title>
      </cc:Work>
    </rdf:RDF>
  </metadata>
  <g
     id="g1004"
     transform="matrix(4.0420769,0,0,3.9098067,-66.297927,-4.0998773)"
     style="stroke-width:0.983248">
    <path
       style="fill:#00c000;fill-opacity:1;stroke:#000000;stroke-width:0.121938;stroke-miterlimit:4;stroke-dasharray:none;stroke-opacity:1"
       d="m 19.111024,51.335285 c -0.954216,-0.251328 -1.758029,-1.899373 -1.323776,-2.714127 0.07155,-0.134232 0.345412,-0.373836 0.608589,-0.532456 0.847764,-0.510947 1.143831,-1.396389 1.334611,-3.991417 l 0.10608,-1.442913 0.02897,-13.27222 0.02897,-13.27222 -0.251352,-0.889736 -0.251343,-0.88974 -0.867321,-1.197627 -0.867332,-1.197626 v -0.265132 c 0,-0.448769 0.45013,-1.435057 0.758727,-1.662469 l 0.29268,-0.2156818 0.567241,0.3024388 0.567242,0.302438 1.378542,0.149862 1.378543,0.149861 5.151092,-0.01143 c 2.833104,-0.0063 6.368631,-0.06435 7.856729,-0.129016 l 2.705626,-0.117591 1.037555,-0.4682467 1.037547,-0.4682468 0.28711,0.1694698 0.2871,0.1694683 0.856799,1.4932734 c 1.680297,2.928496 2.272462,4.039093 2.336155,4.381409 l 0.06461,0.347151 -0.19729,0.281148 -0.197289,0.281147 -0.481024,0.09395 -0.481022,0.09397 -1.136059,-0.743061 c -1.56634,-1.02451 -2.895617,-1.602951 -4.525982,-1.969525 l -1.385689,-0.31156 -4.50088,0.01519 -4.500883,0.01519 -0.390057,0.181456 -0.390058,0.181459 -0.175147,0.519024 -0.175149,0.519025 -0.07321,2.552441 -0.07323,2.552441 0.134575,0.462966 0.134565,0.462966 0.250686,0.135827 0.250677,0.135826 h 4.264956 4.264966 l 0.294314,-0.216885 c 0.161865,-0.119276 0.466429,-0.586408 0.676796,-1.038051 l 0.382491,-0.821165 0.228574,0.0014 c 0.866373,0.0052 5.275613,5.597149 5.275613,6.69062 0,0.149005 -0.121751,0.384609 -0.270577,0.523561 l -0.270567,0.252634 -0.482413,-0.183864 C 40.406774,26.62976 39.650504,26.223665 38.991504,25.828448 37.717935,25.064665 36.779637,24.659107 35.347852,24.253572 l -0.88454,-0.250531 -3.277968,-0.09094 c -3.430592,-0.09517 -4.343303,-0.04346 -4.885897,0.276827 l -0.327048,0.193046 -0.160103,0.441206 -0.160103,0.441202 -0.09993,4.097918 c -0.05491,2.253853 -0.08604,6.900652 -0.06911,10.326219 l 0.03083,6.228304 0.251186,0.624875 0.251176,0.624874 0.373192,0.264883 0.373192,0.264885 4.57876,0.04785 4.578749,0.04785 0.832504,-0.171845 c 1.859703,-0.383877 3.39647,-1.395537 5.220943,-3.436978 0.496382,-0.555409 0.976416,-1.009467 1.066726,-1.009011 0.388198,0.0019 0.976504,0.344642 1.311736,0.764088 l 0.361376,0.452151 v 0.295099 c 0,0.289171 -2.428677,5.356751 -2.882115,6.013702 l -0.230298,0.333658 -0.499024,-4.74e-4 c -0.274473,-3.16e-4 -0.967313,-0.141981 -1.539654,-0.314859 l -1.040629,-0.314317 -4.786876,-0.06918 -4.786886,-0.06918 -2.571973,0.157941 -2.571974,0.157936 -1.642561,0.360241 c -2.035379,0.446398 -2.583484,0.517237 -3.050421,0.394253 z m 60.307287,-0.518762 c -1.39356,-0.362792 -2.68166,-1.451823 -3.66532,-3.098883 -1.12004,-1.875425 -1.65271,-3.690523 -2.24807,-7.660454 -0.78418,-5.229 -2.07261,-9.537006 -3.90228,-13.047721 -1.46145,-2.804175 -3.00341,-4.448789 -4.171093,-4.448789 h -0.402381 l -0.498225,0.481951 c -0.274024,0.265075 -0.542941,0.586539 -0.597595,0.714369 l -0.09937,0.232413 0.390701,0.774971 c 0.48662,0.965234 1.232552,3.293317 3.849103,12.013212 1.13487,3.782024 2.20828,7.184429 2.38537,7.560896 l 0.32197,0.684481 0.75412,0.817658 0.75412,0.817655 -0.002,0.519025 c -0.004,1.079193 -0.5431,2.15766 -1.40069,2.802382 l -0.41471,0.311771 h -0.81063 -0.81062 l -0.57323,-0.287104 C 66.034171,48.880771 63.519095,44.080674 61.512605,37.093387 61.24326,36.155433 60.557714,33.42361 59.98917,31.022672 58.220991,23.555743 57.744959,22.302458 56.269617,21.229885 55.56604,20.718387 53.808247,20.223018 53.028024,20.316368 l -0.166446,0.01992 -0.05659,13.086853 -0.05657,13.086854 0.09211,1.399543 0.09211,1.399544 -0.154984,0.337075 -0.154982,0.337078 -0.425356,0.163218 -0.425356,0.16322 -3.018148,-0.04617 -3.018138,-0.04617 -0.251001,-0.416075 c -0.500375,-0.829432 -0.353545,-1.348426 0.706896,-2.498783 0.455094,-0.493685 0.917264,-1.107514 1.027044,-1.364062 l 0.199589,-0.466454 4.5e-4,-12.251244 4.42e-4,-12.251245 -0.209497,-0.379534 c -0.115223,-0.208746 -0.443024,-0.529933 -0.72844,-0.713752 -0.285418,-0.183819 -0.524486,-0.405735 -0.531269,-0.493147 -0.0278,-0.358194 0.0417,-0.621184 0.247614,-0.937472 0.119479,-0.18351 0.173963,-0.336022 0.121055,-0.338912 -0.05295,-0.0029 0.02085,-0.100634 0.16393,-0.217185 l 0.260152,-0.211931 4.229523,-0.0052 4.229529,-0.0052 1.075419,0.157265 c 0.591478,0.0865 1.099842,0.203773 1.129697,0.260616 0.02985,0.05684 0.474191,0.295219 0.987408,0.529729 1.709037,0.780924 2.912637,1.811624 4.241267,3.632022 0.327594,0.448857 0.612681,0.786552 0.63352,0.750435 0.02084,-0.03612 0.181023,-0.367754 0.355964,-0.736974 0.931995,-1.966987 2.310325,-3.255264 3.809695,-3.56079 l 0.60794,-0.123881 0.79691,0.204734 c 2.23913,0.575264 3.88102,2.173582 5.59472,5.446216 1.43591,2.742138 2.01342,4.411613 4.11759,11.903102 1.47836,5.26343 2.10024,7.318448 2.81043,9.287231 l 0.62201,1.724289 0.61616,0.989144 c 0.33888,0.544032 0.61615,1.114301 0.61615,1.267268 0,0.396629 -0.50289,1.19539 -0.90235,1.433233 l -0.33972,0.202277 -0.91389,-0.01345 c -0.50264,-0.0074 -1.24168,-0.09872 -1.64232,-0.20301 z m 13.47611,-0.01213 c -0.60097,-0.120519 -1.60778,-0.422548 -2.23735,-0.671183 l -1.1447,-0.452059 -1.14468,-0.790574 c -2.81135,-1.94164 -4.31898,-4.938724 -5.15111,-10.240127 l -0.20949,-1.334638 -0.0666,-1.938894 -0.0666,-1.93889 0.12801,-1.026967 c 0.92163,-7.394015 5.11089,-11.942881 11.79813,-12.810896 l 1.22928,-0.159564 1.36749,0.1574 c 0.75213,0.08657 1.58039,0.221964 1.84057,0.300878 2.663429,0.807788 4.368299,2.048459 5.841959,4.251295 l 0.77194,1.153909 0.39258,1.067638 c 0.46661,1.268991 0.803,3.02862 0.803,4.200483 v 0.846057 l -0.20512,0.371608 -0.20512,0.371606 -0.44113,0.159559 -0.44112,0.15956 -4.37478,-0.144219 c -2.406119,-0.07933 -6.199299,-0.239577 -8.429269,-0.356125 -2.22998,-0.116541 -4.07719,-0.179584 -4.1049,-0.140081 -0.0277,0.03949 -0.0701,0.858566 -0.0942,1.820147 l -0.0438,1.748329 0.22089,1.250184 c 0.83059,4.700777 3.7531,9.185456 6.67155,10.237685 l 0.57234,0.206355 1.24876,-0.0073 1.24876,-0.0073 0.6764,-0.252277 c 2.168149,-0.808642 3.955309,-2.840494 5.230469,-5.9466 l 0.2875,-0.700308 0.46783,-0.294904 0.46784,-0.294903 0.28528,0.194599 0.2853,0.194598 0.12825,0.517285 0.12825,0.517286 -0.0586,0.667319 c -0.0323,0.367024 -0.20621,1.09722 -0.38652,1.622654 l -0.32784,0.955335 -0.87555,1.311103 -0.87555,1.311104 -0.94109,0.897045 c -1.61031,1.534925 -3.02722,2.40766 -4.692139,2.890084 l -0.73632,0.213352 -1.87313,0.06619 -1.87313,0.06619 -1.09265,-0.219121 z m 8.380469,-22.126645 c -0.31117,-1.783518 -1.07841,-3.683571 -1.997669,-4.947177 -1.15075,-1.581812 -2.21674,-2.203092 -3.78539,-2.206197 l -0.88869,-0.0017 -0.62022,0.225095 c -0.34112,0.123793 -0.92377,0.440779 -1.29477,0.704393 l -0.67454,0.479294 -0.6331,0.889759 c -0.34821,0.489366 -0.78853,1.215171 -0.9785,1.612897 -0.33395,0.699197 -1.03994,2.94192 -1.04382,3.315945 l -0.002,0.183469 3.6682,0.04092 c 2.01751,0.02252 4.71521,0.05673 5.99488,0.07604 l 2.326669,0.0351 z m 39.32933,21.841461 c -3.31537,-1.086148 -5.80796,-4.133836 -6.55366,-8.013144 l -0.17101,-0.889757 -0.0582,-1.89205 -0.0581,-1.892052 0.18201,-1.073808 c 0.37574,-2.21696 1.08122,-3.92137 2.03897,-4.926104 l 0.61152,-0.641499 0.80891,-0.397542 0.80894,-0.397543 1.14468,-0.0794 1.14468,-0.0794 0.93658,0.250254 c 0.51511,0.13764 1.28214,0.41489 1.70454,0.616109 0.42239,0.20122 0.79062,0.333615 0.81827,0.294209 0.0854,-0.121629 -2.04732,-5.881601 -2.5981,-7.017051 l -0.52,-1.071975 -0.47466,-0.448027 -0.47465,-0.448027 h -0.44246 -0.44245 l -0.3225,0.386727 c -0.45439,0.544852 -0.52654,0.796321 -0.68122,2.374405 l -0.13695,1.397254 -0.24414,0.701087 -0.24412,0.701084 -0.3325,0.313622 c -1.28316,1.21027 -3.21026,-0.07652 -3.56999,-2.383786 l -0.11474,-0.735954 0.0701,-0.598682 c 0.11415,-0.974584 0.44077,-1.788898 1.04301,-2.600562 l 0.56631,-0.763232 0.80466,-0.530336 0.80467,-0.530336 0.93656,-0.0698 0.93656,-0.06979 0.88453,0.250425 0.88454,0.250422 1.04061,0.724272 c 1.34725,0.937684 2.20992,1.872615 3.7536,4.068011 l 1.25607,1.786395 2.956,5.264402 c 5.62071,10.009953 7.88616,13.409205 9.93713,14.910322 0.44057,0.322462 0.91563,0.737283 1.05567,0.92183 l 0.25466,0.33554 -0.0328,0.401133 -0.0328,0.401139 -0.35502,0.339821 c -0.19527,0.186901 -0.5901,0.439301 -0.87741,0.560887 l -0.52238,0.221067 -0.78758,-0.0032 c -2.43709,-0.0099 -6.15032,-2.306636 -8.34615,-5.162242 l -0.55833,-0.726108 -0.4683,1.196625 -0.46828,1.196627 -0.68573,0.978788 -0.68572,0.978789 -0.84789,0.628598 c -0.46632,0.345729 -1.07089,0.731626 -1.34349,0.857546 l -0.4956,0.228952 -1.40485,0.0553 -1.40485,0.05531 -0.62725,-0.205498 z m 5.77054,-4.391526 0.44449,-0.355983 0.24618,-0.598636 0.24619,-0.598633 0.098,-1.256622 c 0.12618,-1.618835 0.0652,-2.027436 -0.53343,-3.572168 -0.27227,-0.702619 -0.77226,-2.109562 -1.11109,-3.126536 l -0.61604,-1.849045 -0.71,-0.452275 c -2.02578,-1.290413 -4.30129,-1.578227 -5.58966,-0.706993 l -0.38262,0.25873 -0.28262,0.685096 -0.28262,0.685092 0.004,1.334637 0.004,1.334638 0.19103,0.815612 c 0.10508,0.448586 0.33126,1.196442 0.50263,1.661906 l 0.31157,0.846296 0.80485,1.129336 c 1.40399,1.970071 2.61715,3.129387 4.06188,3.88161 l 0.6764,0.352181 0.73645,-0.05613 0.73642,-0.05613 0.44449,-0.355984 z m -37.40267,4.215279 c -0.3596,-0.144146 -0.46829,-0.366481 -0.46829,-0.957862 v -0.573445 l 0.52547,-0.826874 c 0.28901,-0.454778 0.56998,-0.993682 0.62438,-1.197566 l 0.0989,-0.370694 V 34.200754 21.98499 l -0.13008,-0.117975 c -0.0716,-0.06487 -0.34081,-0.218958 -0.59836,-0.342403 l -0.46827,-0.22445 -0.0319,-0.546399 -0.0319,-0.5464 0.24002,-0.195064 0.24002,-0.195066 2.39344,0.0032 2.39343,0.0032 0.38171,0.189697 c 0.20994,0.104348 0.45354,0.345906 0.54131,0.536823 l 0.15962,0.347121 0.0309,0.963245 0.031,0.963244 0.78047,-0.666413 c 1.82259,-1.556244 5.76555,-3.897113 6.56429,-3.897113 0.10988,0 0.19977,-0.06071 0.19977,-0.13489 0,-0.609552 5.00883,-0.636292 5.30674,-0.02834 0.0289,0.0589 0.42711,0.292538 0.88499,0.519188 1.08695,0.538042 1.59098,0.964561 2.29127,1.938848 l 0.57504,0.800048 0.33588,1.010622 0.33589,1.010625 -0.0112,1.334637 -0.0112,1.334637 -0.17068,0.550577 c -0.54163,1.747036 -1.80671,2.655217 -3.03285,2.177207 l -0.41626,-0.162274 -0.47026,-0.690604 -0.47023,-0.690607 -0.12812,-0.609356 c -0.0705,-0.335143 -0.12812,-0.919313 -0.12812,-1.298156 v -0.688873 l 0.22035,-0.668003 c 0.20691,-0.627306 0.66299,-1.256572 0.91074,-1.256572 0.0607,0 0.15579,-0.121016 0.21133,-0.268906 l 0.10096,-0.268902 -0.12619,-0.360684 c -0.16005,-0.457508 -0.78592,-0.951756 -1.57699,-1.245388 l -0.61644,-0.228808 -1.09683,0.0014 -1.0968,0.0014 -1.09265,0.356334 c -2.22647,0.726089 -4.67726,2.219808 -7.23525,4.409779 l -1.09656,0.938802 0.0295,10.095721 0.0294,10.095722 0.28779,0.582211 c 0.1583,0.320216 0.45097,0.871008 0.6504,1.223983 l 0.36264,0.641773 v 0.558658 0.558662 l -0.19826,0.255675 -0.19824,0.255678 -1.80496,-0.02544 c -0.99273,-0.01403 -2.48397,0.0117 -3.31387,0.05723 -0.82989,0.04545 -1.60255,0.04512 -1.71702,-7.91e-4 z m 58.79537,-0.06363 c -0.45789,-0.06362 -1.95639,-0.112506 -3.33002,-0.108632 l -2.4975,0.007 -0.11509,-0.317975 c -0.0633,-0.174886 -0.093,-0.483117 -0.0659,-0.684958 l 0.0492,-0.366989 0.60566,-0.747696 0.60565,-0.747695 0.11247,-0.48571 0.1125,-0.485709 0.0907,-17.117485 0.0906,-17.117482 -0.11857,-0.516964 -0.11861,-0.51703 -0.2881,-0.196769 c -0.54542,-0.372659 -0.82338,-1.6114503 -0.48994,-2.1839963 l 0.12721,-0.2184256 h 0.87939 c 0.48367,0 1.68376,0.1060966 2.66687,0.2357576 l 1.78748,0.2357588 0.30516,0.248659 0.30517,0.2486604 0.0851,0.4424129 0.0851,0.4424132 -0.15473,8.600992 c -0.0851,4.730545 -0.20501,11.303632 -0.26647,14.606857 -0.0615,3.303224 -0.11775,7.642598 -0.12508,9.643051 l -0.0133,3.637184 0.20177,0.580372 0.20177,0.580371 0.3615,0.169012 0.3615,0.169015 0.0704,0.358802 c 0.0388,0.197342 0.0751,0.570918 0.0807,0.830165 l 0.0105,0.471361 -0.16353,0.233031 c -0.17455,0.248759 -0.17968,0.249016 -1.44944,0.07262 z m 21.22521,-0.347834 c -0.0839,-0.286145 -0.15256,-0.863203 -0.15256,-1.282353 v -0.762094 l -0.13007,0.08145 c -2.47489,1.549558 -4.30676,2.166113 -6.45257,2.171743 -5.83105,0.01531 -10.39712,-4.774257 -11.43867,-11.998582 l -0.2046,-1.418991 0.0466,-2.372688 0.0466,-2.372687 0.21624,-1.115338 c 1.2187,-6.286133 5.48954,-10.813426 10.84022,-11.491159 l 0.78048,-0.09885 1.30077,0.238706 c 1.60628,0.294765 2.57204,0.641075 3.88085,1.391639 l 1.01295,0.580887 -0.0274,-4.757085 -0.0274,-4.757083 -0.26017,-0.181385 c -0.14308,-0.09976 -0.41078,-0.25962 -0.5949,-0.355238 -0.56342,-0.292617 -0.52907,-1.227101 0.0601,-1.6332854 l 0.27468,-0.1894003 1.35282,-0.06185 c 0.74405,-0.034022 1.88321,0.00474 2.53144,0.08615 l 1.17865,0.1479921 0.21456,0.2722656 c 0.118,0.149745 0.27834,0.486998 0.35628,0.749453 l 0.14172,0.477189 v 18.13763 18.137654 l 0.162,0.329582 0.16201,0.329583 h 0.62104 0.62105 l 0.0955,0.35811 0.0955,0.358114 -0.0985,0.494571 c -0.0541,0.272015 -0.13653,0.578731 -0.18302,0.68159 l -0.0846,0.187016 -3.09256,0.0785 -3.09256,0.0785 z m -4.24401,-3.132341 c 1.22679,-0.259586 2.50441,-0.755495 3.38904,-1.315447 l 0.59835,-0.378755 V 35.54664 25.988327 l -0.57853,-0.890494 c -0.68201,-1.04975 -1.60357,-1.912933 -2.54335,-2.382227 l -0.6764,-0.337776 -1.19672,-0.07028 -1.19671,-0.07028 -0.78048,0.233034 -0.78047,0.233034 -0.84378,0.592758 -0.84377,0.592759 -0.67457,1.019021 c -1.33753,2.02048 -1.94549,4.220494 -2.16589,7.837476 l -0.10849,1.780589 0.10564,1.320795 c 0.1472,1.840325 0.44843,3.294903 1.04551,5.048572 l 0.51188,1.503388 0.61391,1.100926 c 1.66252,2.981328 3.34503,3.887713 6.12483,3.299517 z"
       id="path968" />
    <path
       style="fill:#00c000;fill-opacity:1;stroke:#000000;stroke-width:0.0889829;stroke-opacity:1"
       d="m 250.56191,75.108275 c -1.49045,-0.393267 -2.23558,-0.960578 -3.16911,-2.412863 l -0.50004,-0.777908 -0.20208,-0.699988 c -0.49584,-1.717583 -0.53282,-3.714913 -0.10048,-5.429672 l 0.1509,-0.598557 0.25271,-0.387997 c 0.32635,-0.501045 0.64548,-0.7811 1.26508,-1.110189 l 0.50123,-0.266215 0.52585,0.05324 0.52588,0.05324 0.38704,0.309843 c 0.21286,0.170413 0.52762,0.53643 0.69944,0.813372 l 0.31239,0.503533 0.23519,0.822071 c 0.12936,0.45214 0.27174,1.129952 0.31643,1.506247 l 0.0812,0.684174 -0.0848,0.663636 c -0.0466,0.365 -0.20413,1.115447 -0.34995,1.667662 -0.14583,0.552213 -0.26514,1.097652 -0.26514,1.212085 v 0.208058 l 0.42773,0.186266 c 0.23526,0.10245 0.61297,0.222215 0.83935,0.266157 l 0.41161,0.0799 0.64918,-0.135014 c 2.4727,-0.514245 5.25253,-2.853419 8.62677,-7.259278 3.30837,-4.319845 4.76071,-6.711867 7.26353,-11.963163 1.36769,-2.869622 3.13439,-6.855594 3.13439,-7.071737 0,-0.06325 -0.32821,-1.027696 -0.72939,-2.143214 -0.66557,-1.850741 -3.76929,-10.786843 -6.57019,-18.916583 l -1.11826,-3.245811 -0.3024,-0.487417 -0.30241,-0.487418 -0.6965,-0.378383 -0.6965,-0.378382 -0.096,-0.402147 c -0.18321,-0.766671 -0.0494,-1.626718 0.28803,-1.851034 0.28586,-0.190046 0.874,-0.129637 1.37093,0.1408 0.58779,0.319896 1.41465,0.428472 2.46244,0.323349 l 0.81266,-0.08153 0.9327,-0.368246 c 0.51297,-0.202537 1.05472,-0.368248 1.20384,-0.368248 h 0.27113 l 0.41507,0.362677 0.41506,0.362674 0.11849,0.316213 0.11849,0.316213 v 0.474289 0.474289 l -0.42897,0.694105 -0.42894,0.694105 0.046,0.209874 c 0.11822,0.538715 5.92969,17.397097 5.99717,17.397097 0.0236,0 0.68495,-1.655955 1.46949,-3.6799 2.14263,-5.527516 3.80976,-9.814131 4.13878,-10.641883 l 0.29377,-0.739065 0.0329,-0.599401 0.033,-0.599396 -0.14576,-0.5265 c -0.18082,-0.653132 -0.34105,-0.9185 -0.86315,-1.429495 l -0.41062,-0.401892 -0.0204,-0.301418 -0.0204,-0.301417 0.14177,-0.315156 c 0.0779,-0.173335 0.30272,-0.450686 0.49943,-0.616334 l 0.35766,-0.30118 0.41648,-0.07847 0.4165,-0.07847 0.71273,0.185287 c 0.392,0.10191 1.32273,0.252361 2.06827,0.334341 l 1.35551,0.149055 0.62917,-0.171341 c 0.34604,-0.09424 0.79359,-0.171419 0.99453,-0.171516 l 0.36536,-1.22e-4 0.13081,0.282518 0.13081,0.28252 v 0.375675 c -8.1e-4,1.19349 -0.58293,1.706398 -2.53194,2.230912 -0.50815,0.136752 -1.05459,0.331573 -1.21431,0.432934 l -0.29043,0.184295 -0.42817,1.001588 c -0.2355,0.550875 -0.84894,2.148658 -1.3632,3.55063 -0.51451,1.401912 -1.52745,4.164548 -2.25123,6.139128 -5.09121,13.889729 -7.83884,20.053584 -12.31515,27.626848 -4.96301,8.396726 -8.98706,12.566325 -13.77303,14.271215 l -0.83842,0.298668 -1.26609,0.04368 c -0.69636,0.02402 -1.3585,0.01929 -1.47142,-0.01052 z m 6.59925,-25.299517 c -0.89206,-0.240061 -1.80122,-1.08587 -2.4945,-2.320662 l -0.41213,-0.734055 -0.28966,-0.973584 c -0.39886,-1.340611 -0.74927,-2.969464 -0.96022,-4.463564 l -0.17766,-1.258234 -0.0376,-10.590932 -0.0376,-10.590933 -1.03677,-0.05984 -1.03677,-0.05984 -0.14943,-0.236914 c -0.29986,-0.475413 -0.45376,-1.667925 -0.25289,-1.959441 l 0.0905,-0.131405 1.18516,-0.03284 1.18516,-0.03285 0.0864,-0.512395 c 0.10915,-0.646905 0.15057,-0.731092 0.81687,-1.660656 0.85144,-1.187836 1.47564,-2.562675 2.35686,-5.1911772 0.24757,-0.7384553 0.57041,-1.1922899 0.84818,-1.1922899 h 0.18396 l 0.14288,0.2498381 c 0.0786,0.1374677 0.19406,0.4470558 0.25664,0.6881145 l 0.11378,0.4382758 v 3.5901427 3.590147 l 1.03346,0.05984 1.03347,0.05984 0.11237,0.163529 c 0.0618,0.08995 0.14277,0.3609 0.17991,0.602133 l 0.0675,0.438601 -0.0673,0.415076 c -0.0369,0.228294 -0.0916,0.480969 -0.12129,0.561503 l -0.0539,0.146425 -1.09208,0.03308 -1.09208,0.03309 V 31.08328 43.289778 l 0.0892,0.825156 c 0.0491,0.453838 0.15277,1.16327 0.23035,1.576519 l 0.14106,0.751361 0.19961,0.334402 0.1996,0.334403 0.46597,0.0075 0.46597,0.0074 0.18198,0.208501 0.18197,0.208499 v 0.411927 0.411928 l -0.20347,0.405225 -0.20346,0.405227 -0.39537,0.30567 -0.39535,0.30567 -0.47908,0.06105 c -0.26347,0.03359 -0.65068,0.01488 -0.86044,-0.04159 z m -27.54119,-0.0683 c -5.78441,-1.014714 -10.41908,-8.140989 -11.51134,-17.699799 l -0.12307,-1.077043 0.005,-2.931953 0.005,-2.931954 0.14493,-1.13688 c 0.96673,-7.582885 4.36471,-13.199135 9.06278,-14.9792206 l 0.70643,-0.2676463 1.40298,0.00147 1.40297,0.00147 0.85652,0.2564997 c 0.47108,0.14112 1.24101,0.4539504 1.71095,0.6952726 1.94984,1.0012496 2.03102,0.9798936 3.02068,-0.7947722 0.67546,-1.2112381 0.86371,-1.4290978 1.23488,-1.4290978 h 0.20989 l 0.23335,0.4326517 c 0.32449,0.6016161 0.51544,1.3101243 0.93989,3.4873529 0.5182,2.658124 0.54111,2.748922 1.22376,4.851924 l 0.61378,1.890812 0.0325,0.504027 0.0325,0.504028 -0.13473,0.29095 -0.13474,0.290951 -0.33821,-0.0089 -0.33824,-0.0089 -0.30402,-0.269136 -0.30403,-0.269122 -0.99235,-1.700128 c -0.54579,-0.935073 -1.18059,-1.921274 -1.41063,-2.191557 -0.95521,-1.122216 -2.42736,-2.18034 -3.69065,-2.652694 l -0.6817,-0.254897 -0.98576,-0.08586 c -1.83301,-0.159654 -2.72295,0.07236 -3.80489,0.991947 l -0.61593,0.523518 -0.55884,0.778024 c -1.64555,2.290959 -2.61517,5.552449 -3.11475,10.477067 l -0.15274,1.505611 -0.004,2.572938 -0.004,2.572938 0.0893,0.897537 c 0.63188,6.350376 2.22326,10.777697 4.63646,12.898998 0.8251,0.725287 1.59743,0.995831 2.83951,0.994684 3.21693,-0.0029 5.67738,-1.851892 7.34131,-5.516674 0.22412,-0.493644 0.48808,-0.991422 0.58657,-1.106173 l 0.17908,-0.208636 0.31899,-8.66e-4 0.31899,-8.67e-4 0.17446,0.362537 c 0.0959,0.199396 0.19475,0.551759 0.21957,0.783028 l 0.0451,0.42049 -0.12033,0.563278 c -0.67365,3.15339 -2.94041,6.049692 -5.69221,7.273109 -1.21066,0.538245 -3.49523,0.887123 -4.57211,0.698214 z m 17.58849,-0.786876 c -0.74764,-0.148078 -2.8873,-0.180331 -3.96939,-0.05984 l -0.88968,0.09908 -0.21871,-0.242956 -0.21872,-0.242954 -0.0454,-0.423772 c -0.0665,-0.620393 0.002,-0.934165 0.36957,-1.707895 0.1817,-0.381776 0.3636,-0.802719 0.40421,-0.935431 l 0.0739,-0.241292 0.0571,-11.784644 c 0.0314,-6.481556 0.0571,-12.365519 0.0571,-13.075476 v -1.29083 l -0.29556,-0.477128 -0.29557,-0.477128 0.0226,-0.206622 0.0227,-0.206623 1.53902,-0.110807 c 2.52451,-0.18175 2.98888,-0.127855 3.2274,0.374614 l 0.0911,0.191734 0.0343,13.081584 0.0342,13.081584 0.37641,0.672256 0.3764,0.672258 0.46018,0.408832 0.46018,0.408831 0.10443,0.35313 c 0.0575,0.194224 0.10443,0.596042 0.10443,0.892934 v 0.539804 l -0.1361,0.221724 c -0.15839,0.258026 -0.79343,0.632517 -1.03335,0.609381 -0.0909,-0.0088 -0.41146,-0.06472 -0.71258,-0.124349 z m -2.64118,-36.466096 c -0.90595,-0.619796 -1.66713,-2.223323 -1.8131,-3.819557 l -0.0462,-0.5053012 0.11449,-0.5242187 0.1145,-0.5242191 0.35636,-0.5885559 c 0.44129,-0.7287996 0.98166,-1.1855118 1.60165,-1.3537166 l 0.47476,-0.1288488 0.46601,0.1301636 c 0.91842,0.2565582 1.47502,1.1244036 1.67892,2.6178671 l 0.0876,0.6421549 -0.0354,0.7703908 -0.0354,0.7704051 -0.21799,0.7742758 -0.21798,0.774286 -0.35421,0.45951 c -0.46153,0.598749 -0.70877,0.732714 -1.33967,0.725925 l -0.52017,-0.0055 z"
       id="path984" />
  </g>
</svg>
