<?xml version="1.0" encoding="UTF-8" standalone="no"?>
<svg
   xmlns:dc="http://purl.org/dc/elements/1.1/"
   xmlns:cc="http://creativecommons.org/ns#"
   xmlns:rdf="http://www.w3.org/1999/02/22-rdf-syntax-ns#"
   xmlns:svg="http://www.w3.org/2000/svg"
   xmlns="http://www.w3.org/2000/svg"
   xmlns:sodipodi="http://sodipodi.sourceforge.net/DTD/sodipodi-0.dtd"
   xmlns:inkscape="http://www.inkscape.org/namespaces/inkscape"
   version="1.1"
   width="11.5in"
   height="4in"
   id="svg5276"
   inkscape:version="1.0.1 (3bc2e813f5, 2020-09-07)"
   sodipodi:docname="Hogwarts Direction Sign for Lamp Post.svg"
   inkscape:export-filename="C:\Users\Klemen\Downloads\The Chronicles of Narnia logo.png"
   inkscape:export-xdpi="1500.2426"
   inkscape:export-ydpi="1500.2426"
   viewBox="0 0 1104 384">
  <sodipodi:namedview
     pagecolor="#ffffff"
     bordercolor="#666666"
     borderopacity="1"
     objecttolerance="10"
     gridtolerance="10"
     guidetolerance="10"
     inkscape:pageopacity="0"
     inkscape:pageshadow="2"
     inkscape:window-width="1869"
     inkscape:window-height="965"
     id="namedview67"
     showgrid="true"
     inkscape:zoom="0.93303299"
     inkscape:cx="553.41879"
     inkscape:cy="304.81362"
     inkscape:window-x="9"
     inkscape:window-y="13"
     inkscape:window-maximized="0"
     inkscape:current-layer="svg5276"
     fit-margin-top="0"
     fit-margin-left="0"
     fit-margin-right="0"
     fit-margin-bottom="0"
     inkscape:document-rotation="0"
     units="in"
     showguides="false"
     inkscape:document-units="in">
    <inkscape:grid
       type="xygrid"
       id="grid842"
       units="in"
       spacingx="24"
       spacingy="24"
       empspacing="4" />
    <sodipodi:guide
       position="1315.066,306.83231"
       orientation="1,0"
       id="guide844" />
  </sodipodi:namedview>
  <defs
     id="defs5278">
    <clipPath
       id="clipPath3717">
      <path
         d="m 427.26,426.42 h 71.64 v 24 h -71.64 z"
         id="path3719"
         inkscape:connector-curvature="0" />
    </clipPath>
    <clipPath
       id="clipPath3733">
      <path
         d="m 427.264,426.42 h 71.589 v 23.968 h -71.589 z"
         id="path3735"
         inkscape:connector-curvature="0" />
    </clipPath>
    <clipPath
       id="clipPath3745">
      <path
         d="m 427.26,426.42 h 71.64 v 24 h -71.64 z"
         id="path3747"
         inkscape:connector-curvature="0" />
    </clipPath>
    <clipPath
       id="clipPath3773">
      <path
         d="m 427.264,426.42 h 71.589 v 23.968 h -71.589 z"
         id="path3775"
         inkscape:connector-curvature="0" />
    </clipPath>
    <clipPath
       id="clipPath3789">
      <path
         d="m 427.26,426.42 h 71.64 v 24 h -71.64 z"
         id="path3791"
         inkscape:connector-curvature="0" />
    </clipPath>
  </defs>
  <metadata
     id="metadata5281">
    <rdf:RDF>
      <cc:Work
         rdf:about="">
        <dc:format>image/svg+xml</dc:format>
        <dc:type
           rdf:resource="http://purl.org/dc/dcmitype/StillImage" />
        <dc:title></dc:title>
      </cc:Work>
    </rdf:RDF>
  </metadata>
  <text
     xml:space="preserve"
     style="font-style:normal;font-variant:normal;font-weight:normal;font-stretch:normal;font-size:60px;line-height:1.25;font-family:'Harry Potter';-inkscape-font-specification:'Harry Potter';letter-spacing:0px;word-spacing:0px;fill:#000000;fill-opacity:1;stroke:none;stroke-width:0.9375"
     x="8.2359858"
     y="144.25116"
     id="text1606" />
  <path
     id="path1471"
     style="font-style:normal;font-variant:normal;font-weight:normal;font-stretch:normal;font-size:81.1439px;line-height:1.25;font-family:'Harry Potter';-inkscape-font-specification:'Harry Potter';letter-spacing:0px;word-spacing:0px;fill:#8e13e4;fill-opacity:1;stroke:none;stroke-width:6.49197"
     d="m 1094.6302,197.64723 q -3.4335,2.11766 -27.4682,17.29421 -27.0389,16.94128 -35.6228,16.94128 -1.2876,0 -1.7168,-0.70589 l -28.7558,-28.94134 q -5.57936,-10.23535 -5.57936,-14.11773 0,-4.23532 6.43776,-7.41181 l 8.5838,-4.23532 18.8845,-3.52943 q -3.4336,2.82356 -3.4336,7.05887 0,1.41177 0.8583,6.35298 1.2877,4.58826 0.8584,6.35298 1.2876,4.23531 11.5883,10.94124 10.3005,6.35298 15.0216,5.29415 0,-3.88238 8.1547,-12.35301 l -2.146,0.35293 q 1.7167,-1.05882 1.7167,-3.17649 0,-4.58826 -33.4768,-36.0002 -33.04766,-31.76489 -33.04766,-34.58843 0,-1.76472 1.7167,-2.47061 l 3.86266,-3.52943 q 3.4336,-2.11766 27.4683,-17.29422 27.039,-16.94128 35.6228,-16.94128 1.2876,0 1.7167,0.70589 l 28.7558,28.94134 q 5.5795,10.23536 5.5795,14.11773 0,4.23532 -6.4378,7.41182 l -30.9018,5.64708 v -1.41176 q 3.4335,-2.82356 3.4335,-7.41182 0,-1.76471 -1.2876,-6.70592 -0.8583,-4.9412 -0.4289,-7.05886 -1.2876,-4.23532 -8.1547,-7.76475 -6.4378,-3.88238 -12.0173,-3.88238 -4.7211,0 -9.4422,4.58826 -4.7211,4.58826 -4.7211,8.82359 0,2.4706 1.7167,4.23532 13.305,14.11772 45.0651,42.35319 22.3179,19.76481 22.3179,26.11779 0,2.4706 -2.1459,3.88237 l -2.5752,0.35295 z M 959.78869,13.41253 C 940.29056,35.41293 920.79617,52.15172 901.2981,63.81066 L 883.64183,38.46932 c -0.57218,-0.70588 -1.57692,-1.05691 -3.00757,-1.05691 -4.57802,0 -14.30497,5.28968 -29.18361,15.87797 V 21.52631 C 832.85234,33.76167 816.2621,43.99813 801.66956,52.23348 l 22.31467,-0.70732 -0.85386,117.88562 c 0,3.76472 -0.5727,6.11569 -1.71723,7.05687 -1.43061,1.64707 -5.87168,3.76944 -13.31101,6.35769 2.57519,0 6.4435,-0.12241 11.59377,-0.35773 5.43633,-0.23528 9.43605,-0.34962 12.01118,-0.34962 4.00578,0 10.01477,0.11429 18.02633,0.34962 8.29763,0.23527 14.45693,0.35773 18.46271,0.35773 -8.29768,-1.64706 -12.73876,-6.23471 -13.311,-13.76415 -2.57512,-34.11786 -3.28867,-68.71283 -2.14418,-103.77186 2.57522,-2.82355 4.72527,-4.35005 6.44199,-4.58535 2.00289,-0.47059 4.8571,2.59054 8.57675,9.17881 2.86131,5.17651 4.87063,9.52743 6.0151,13.05686 -0.85841,4.00003 -4.2948,8.35094 -10.30342,13.05685 v 1.41463 l 39.48703,-19.05682 c 2.8613,-0.70589 4.28844,-2.24052 4.28844,-4.59348 0,-0.58942 -0.10726,-1.1748 -0.28447,-1.76422 h 15.05669 l -2.14414,149.30009 c 0.85841,5.88238 8.15359,10.93534 21.88766,15.17065 l 35.19875,10.59345 c -13.73412,-9.64712 -20.6069,-16.59385 -20.6069,-20.82917 0,-0.94118 0.29119,-1.87994 0.86339,-2.82112 l 3.86142,-149.99927 h 24.03185 L 981.2497,58.23345 h -22.31486 z m -249.6664,88.58708 -12.87565,-14.11772 q -6.8671,-7.41181 -6.8671,-15.88245 0,-3.17649 2.14596,-5.29415 4.29191,-4.58826 42.06071,-22.94131 14.1633,8.47064 30.04332,18.70599 22.7471,14.82361 20.60114,24.00014 l -1.71671,80.47105 15.88002,0.7059 -30.90173,28.5884 q -10.72975,6.35297 -15.45084,6.35297 -4.2919,0 -3.00436,-4.23532 v -12.70596 l -27.46818,14.11774 q -18.88438,2.82354 -35.19363,-61.41211 7.29621,-12.00008 26.60982,-19.05895 l 28.32659,-10.58829 q -14.59247,13.05889 -14.16329,20.47071 -0.85841,4.9412 -0.85841,9.8824 0,23.6472 12.44658,37.41198 6.86703,0.70589 9.44216,-6.35297 V 66.70529 l -6.43791,2.82355 q -2.14595,1.05883 -11.58811,6.00003 -15.88007,8.1177 -15.88007,14.47068 l 3.86272,11.64712 z m -92.4302,107.64769 q -1.28754,0.70588 -2.1459,0.70588 -0.42954,0 -0.85842,-0.35294 0,-0.35294 -0.42953,-0.35294 -0.85831,0 -1.71673,0.70587 l -3.43348,2.11767 q 2.14594,-2.82354 2.14594,-3.17649 -1.28764,-0.35295 -3.43359,-1.76472 l -24.46382,-28.94134 q -0.42902,2.4706 -0.42902,1.05883 -4.29191,2.82355 -10.30063,11.29419 -6.00862,8.11769 -9.01299,9.88241 -18.02597,11.29417 -21.45956,11.29417 -2.1459,0 -3.00426,-1.05882 l -33.04767,-32.47078 q -1.28765,-1.05883 -0.85841,-24.70603 0.42902,-11.29417 1.28754,-44.47084 0,-4.23532 0.85841,-13.41184 1.28758,-9.52947 1.28758,-14.47068 0,-8.11769 -16.30925,-11.29418 l 25.75147,-0.70589 38.19789,2.11767 q -10.72971,2.47059 -12.01735,9.8824 0.85841,3.17649 -0.42903,38.82375 l -1.71681,44.82379 q 0,10.94125 0.8584,12.35302 3.86273,6.70592 11.58817,4.94121 6.86703,-9.17653 18.88438,-22.58837 v -29.64723 q 0,-10.58829 0.42903,-17.64717 l 0.42954,-7.05886 q 0.42903,-3.52943 4.29191,-4.58825 l 22.31786,-15.52952 v 1.41178 q -2.14595,1.41178 -2.14595,2.82355 0,1.05883 2.14595,3.52943 2.57519,2.11765 2.57519,3.1765 -1.71678,34.23548 -0.42903,74.11807 0,4.9412 6.00872,16.23539 3.86268,-0.70589 25.32224,-23.6472 0,-6.35298 2.14595,-38.11788 1.28759,-19.41187 0,-37.41198 -0.85841,-11.29417 -13.30488,-13.76478 6.86703,0 20.17191,0.35294 13.73412,0.35295 20.60115,0.35295 3.86272,0 11.58812,-0.35295 8.15468,-0.35294 12.01734,-0.35294 -9.87134,3.52943 -11.15893,4.58826 -3.86267,2.4706 -3.86267,8.82359 l -2.14595,68.11804 z M 432.00005,155.64699 q -0.85838,-36.70609 -3.00432,-74.47103 l -33.90607,-15.5295 -5.15029,103.41237 12.87572,9.17652 z m 36.91041,-88.58875 -0.42902,92.82407 -2.57518,84.35343 q -39.48552,28.58839 -71.67482,49.41204 -12.01735,7.76475 -17.16763,7.76475 -1.71677,0 -3.00434,-1.05883 L 353.8873,271.41236 q -5.57948,-10.23535 -5.57948,-14.11774 0,-4.2353 6.43786,-7.4118 l 39.48555,-19.05893 v 1.41178 q -9.013,7.05886 -10.30058,13.05889 2.57514,8.82358 7.29624,25.41192 2.14595,8.11769 3.86272,7.76475 3.00433,-0.35295 25.75144,-16.58833 10.30057,-7.41181 12.01733,-15.17657 V 236.47099 Q 432.85838,237.52981 432,168 l -32.61849,32.11783 -42.06068,-20.47071 -9.4422,-79.76517 43.77745,-52.58854 36.48121,15.88245 q -0.42918,-10.23536 -0.85838,-16.58833 7.72542,4.9412 26.6098,12.00006 15.0217,5.6471 15.0217,8.47065 z m -261.35924,-51.88149 -82.83558,1.0569 c 9.4422,3.52944 15.30085,7.05588 17.58987,10.58532 1.14451,1.88236 1.71724,5.76796 1.71724,11.65035 l -0.42695,99.17838 c -16.88149,8.23534 -31.33116,13.99847 -43.34851,17.2926 L 98.957,41.29045 c 0,-5.6471 3.29559,-10.58576 9.87652,-14.82107 H 28.578539 c 9.4422,3.52943 14.728128,9.41498 15.872628,17.65032 l 1.290307,110.11328 c -18.02602,-4.4706 -27.180266,-11.40921 -27.466392,-20.82103 -0.57225,-2.82354 1.145952,-5.06022 5.151729,-6.70728 l 15.445692,-4.94307 c -2.575142,-0.23528 -5.006891,-0.34961 -7.295907,-0.34961 -7.153179,0 -15.734698,2.23667 -25.749149,6.70728 -0.572251,20.00012 12.731953,32.70184 39.914027,38.11363 l 0.863365,68.12162 c 0,10.11771 -7.877459,17.17874 -23.614457,21.17876 l 98.290768,1.05691 c -12.01733,-4 -18.73984,-9.53454 -20.17048,-16.59339 l -0.86336,-70.23543 c 12.58959,-2.58826 27.03927,-7.52691 43.3485,-14.82107 l -0.42695,99.52796 c -2.28902,7.52946 -8.7299,13.17828 -19.3166,16.94301 l 90.55845,1.05691 c -12.87572,-4.23532 -19.30711,-9.4107 -19.30711,-15.52838 l -2.58062,-127.41402 c 6.86706,-3.29413 12.59439,-4.93493 17.17242,-4.93493 5.99733,0 11.63183,2.76417 16.91627,8.23574 -1.73151,27.37321 -2.39136,45.43405 -1.95443,53.87779 1.71677,5.17649 17.02079,16.93946 45.91962,35.29251 l 7.72285,1.06503 c 9.15607,-0.94119 20.89236,-4.47577 35.19872,-10.59344 17.16763,-7.29417 25.0356,-13.88175 23.60497,-19.76414 -0.85838,-32.47077 -1.57193,-52.82127 -2.14418,-61.05662 -1.14451,-16.23537 -4.87202,-26.82286 -11.16682,-31.76406 l -3.42501,-4.59348 -30.47393,-17.29259 c -21.1734,6.11768 -41.63202,15.06436 -61.3748,26.82913 -0.0492,0.67844 -0.0752,1.17497 -0.12332,1.84552 -3.05105,-0.49047 -5.90163,-0.78861 -8.40595,-0.78861 -6.00867,0 -15.30374,2.70197 -27.89333,8.11378 l -1.71723,-79.40612 c 0.85837,-5.4118 6.5857,-11.88508 17.17241,-19.41454 z m 80.19807,76.94272 c 5.43641,11.29419 8.14978,47.64426 8.14978,109.05637 -3.1474,4.70592 -9.01555,8.11807 -17.59936,10.23572 -5.72254,-2.11765 -9.58138,-5.5298 -11.58427,-10.23572 l -2.14418,-92.82067 c 1.43064,-3.29415 4.57593,-6.46959 9.44009,-9.52842 z" />
</svg>
