<?xml version="1.0" encoding="UTF-8" standalone="no"?>
<svg
   xmlns:dc="http://purl.org/dc/elements/1.1/"
   xmlns:cc="http://creativecommons.org/ns#"
   xmlns:rdf="http://www.w3.org/1999/02/22-rdf-syntax-ns#"
   xmlns:svg="http://www.w3.org/2000/svg"
   xmlns="http://www.w3.org/2000/svg"
   xmlns:sodipodi="http://sodipodi.sourceforge.net/DTD/sodipodi-0.dtd"
   xmlns:inkscape="http://www.inkscape.org/namespaces/inkscape"
   version="1.1"
   width="11.5in"
   height="4in"
   id="svg5276"
   inkscape:version="1.0.1 (3bc2e813f5, 2020-09-07)"
   sodipodi:docname="King's Landing Direction Sign for Lamp Post.svg"
   inkscape:export-filename="C:\Users\Klemen\Downloads\The Chronicles of Narnia logo.png"
   inkscape:export-xdpi="1500.2426"
   inkscape:export-ydpi="1500.2426"
   viewBox="0 0 1104 384">
  <g
     id="g870"
     style="font-size:296.674px;line-height:1.25;font-family:'Harry Potter';-inkscape-font-specification:'Harry Potter';fill:none;fill-opacity:1;stroke-width:0.0377953;stroke-miterlimit:4;stroke-dasharray:none;stroke:#090b09;stroke-opacity:1" />
  <g
     id="g876"
     style="font-size:296.674px;line-height:1.25;font-family:'Harry Potter';-inkscape-font-specification:'Harry Potter';fill:none;fill-opacity:1;stroke-width:0.0377953;stroke-miterlimit:4;stroke-dasharray:none;stroke:#090b09;stroke-opacity:1" />
  <g
     id="g882"
     style="font-size:296.674px;line-height:1.25;font-family:'Harry Potter';-inkscape-font-specification:'Harry Potter';fill:none;fill-opacity:1;stroke-width:0.0377953;stroke-miterlimit:4;stroke-dasharray:none;stroke:#090b09;stroke-opacity:1" />
  <g
     id="g888"
     style="font-size:296.674px;line-height:1.25;font-family:'Harry Potter';-inkscape-font-specification:'Harry Potter';fill:none;fill-opacity:1;stroke-width:0.0377953;stroke-miterlimit:4;stroke-dasharray:none;stroke:#090b09;stroke-opacity:1" />
  <g
     id="g894"
     style="font-size:296.674px;line-height:1.25;font-family:'Harry Potter';-inkscape-font-specification:'Harry Potter';fill:none;fill-opacity:1;stroke-width:0.0377953;stroke-miterlimit:4;stroke-dasharray:none;stroke:#090b09;stroke-opacity:1" />
  <g
     id="g900"
     style="font-size:296.674px;line-height:1.25;font-family:'Harry Potter';-inkscape-font-specification:'Harry Potter';fill:none;fill-opacity:1;stroke-width:0.0377953;stroke-miterlimit:4;stroke-dasharray:none;stroke:#090b09;stroke-opacity:1" />
  <g
     id="g906"
     style="font-size:296.674px;line-height:1.25;font-family:'Harry Potter';-inkscape-font-specification:'Harry Potter';fill:none;fill-opacity:1;stroke-width:0.0377953;stroke-miterlimit:4;stroke-dasharray:none;stroke:#090b09;stroke-opacity:1" />
  <g
     id="g912"
     style="font-size:296.674px;line-height:1.25;font-family:'Harry Potter';-inkscape-font-specification:'Harry Potter';fill:none;fill-opacity:1;stroke-width:0.0377953;stroke-miterlimit:4;stroke-dasharray:none;stroke:#090b09;stroke-opacity:1" />
  <g
     id="g918"
     style="font-size:296.674px;line-height:1.25;font-family:'Harry Potter';-inkscape-font-specification:'Harry Potter';fill:none;fill-opacity:1;stroke-width:0.0377953;stroke-miterlimit:4;stroke-dasharray:none;stroke:#090b09;stroke-opacity:1" />
  <g
     id="g924"
     style="font-size:296.674px;line-height:1.25;font-family:'Harry Potter';-inkscape-font-specification:'Harry Potter';fill:none;fill-opacity:1;stroke-width:0.0377953;stroke-miterlimit:4;stroke-dasharray:none;stroke:#090b09;stroke-opacity:1" />
  <g
     id="g930"
     style="font-size:296.674px;line-height:1.25;font-family:'Harry Potter';-inkscape-font-specification:'Harry Potter';fill:none;fill-opacity:1;stroke-width:0.0377953;stroke-miterlimit:4;stroke-dasharray:none;stroke:#090b09;stroke-opacity:1">
    <path
       id="path1027"
       style="font-size:207.821px;line-height:1.25;font-family:'Gentium Book Basic';-inkscape-font-specification:'Gentium Book Basic';fill:#02a09a;fill-opacity:1;stroke-width:0.0377954"
       d="m 1056.9924,106.25484 c -4.5099,0 -8.8748,1.14797 -13.0956,3.44336 -4.1631,2.21624 -7.8637,5.26417 -11.1016,9.14258 -3.2379,3.79927 -5.8407,8.31118 -7.8066,13.53516 -1.9659,5.14484 -2.9492,10.60671 -2.9492,16.38476 0,4.35332 0.4917,8.38927 1.4746,12.10938 0.9829,3.72011 2.3415,7.08403 4.0761,10.09179 1.7924,2.9286 3.9318,5.46253 6.418,7.59961 2.4863,2.05794 5.2336,3.67992 8.2402,4.86719 -2.7175,2.61199 -4.9732,4.98596 -6.7656,7.12305 -1.7346,2.05793 -3.1213,3.9179 -4.1621,5.58008 -0.983,1.66218 -1.6773,3.08812 -2.082,4.27539 -0.347,1.18727 -0.5196,2.1353 -0.5196,2.84765 0,2.2954 0.7506,4.55133 2.2539,6.76758 1.5612,2.13708 4.1339,4.11702 7.7188,5.9375 -4.7991,3.56181 -8.6722,6.80578 -11.6211,9.73438 -2.9488,2.9286 -5.2627,5.62053 -6.9395,8.07422 -1.6189,2.53284 -2.7167,4.86877 -3.2949,7.00585 -0.5782,2.21624 -0.8672,4.35223 -0.8672,6.41016 0,3.87842 0.578,7.32233 1.7344,10.33008 1.1564,3.0869 2.7177,5.81686 4.6836,8.19141 2.0237,2.45368 4.3375,4.51164 6.9395,6.17382 2.6596,1.74133 5.4332,3.16532 8.3242,4.27344 2.9488,1.10813 5.9269,1.90009 8.9336,2.375 3.0644,0.55405 6.0144,0.83203 8.8476,0.83203 3.4692,0 6.9953,-0.55399 10.5801,-1.66211 3.5848,-1.10811 7.0245,-2.65207 10.3203,-4.63086 3.2958,-1.97878 6.3602,-4.35276 9.1933,-7.12304 2.891,-2.7703 5.4076,-5.85822 7.5469,-9.26172 2.1393,-3.32437 3.8151,-6.92628 5.0293,-10.80469 1.2143,-3.87841 1.8223,-7.87437 1.8223,-11.99023 0,-3.16606 -0.4916,-6.21398 -1.4746,-9.14258 -0.9829,-2.9286 -2.7168,-5.58054 -5.2032,-7.95508 -2.4862,-2.45369 -5.8416,-4.58968 -10.0625,-6.41016 -4.2208,-1.89963 -9.569,-3.36361 -16.0449,-4.39258 -4.5099,-0.79151 -8.1805,-1.54349 -11.0137,-2.25585 -2.7752,-0.79152 -4.9446,-1.58349 -6.5058,-2.375 -1.5033,-0.79151 -2.5147,-1.58349 -3.0351,-2.375 -0.5204,-0.87066 -0.7793,-1.74066 -0.7793,-2.61133 0,-0.47491 0.4334,-1.70286 1.3008,-3.68164 0.9251,-1.97878 2.659,-4.47077 5.2031,-7.47852 h 0.5195 c 4.3943,0 8.7029,-0.98997 12.9238,-2.96875 4.2209,-2.05793 7.9496,-4.86787 11.1875,-8.42969 3.2379,-3.64096 5.8407,-7.95486 7.8066,-12.9414 2.0237,-5.06568 3.0352,-10.64558 3.0352,-16.74024 0,-3.5618 -0.4053,-7.00572 -1.2149,-10.33008 -0.7515,-3.32435 -1.8493,-6.41031 -3.2949,-9.25976 2.602,-0.15831 4.9439,-0.39628 7.0254,-0.71289 2.1393,-0.39575 4.2485,-0.83173 6.3301,-1.30664 1.2141,-1.97878 2.1694,-4.03674 2.8633,-6.17383 0.7516,-2.13708 1.4441,-4.23308 2.0801,-6.29102 l -1.9942,-3.80078 c -2.4285,1.18728 -5.5792,2.57323 -9.4531,4.15625 -3.8161,1.58303 -8.5864,2.81098 -14.3106,3.68164 -2.6019,-2.45369 -5.4937,-4.35364 -8.6738,-5.69921 -3.1223,-1.42473 -6.5038,-2.13868 -10.1465,-2.13868 z m -5.4687,12.47657 c 1.9149,0.0275 3.7017,0.28715 5.3652,0.77343 v 52.57618 c -1.93,-0.13494 -3.7174,-0.49847 -5.3652,-1.0879 z m -4.6093,1.30859 v 48.46094 c -1.8753,-1.39844 -3.4897,-3.10945 -4.8399,-5.13672 -1.7924,-2.7703 -3.121,-5.97624 -3.9883,-9.61719 -0.8673,-3.72011 -1.3027,-7.63803 -1.3027,-11.75391 0,-3.87842 0.4635,-7.24235 1.3887,-10.09179 0.9829,-2.92861 2.197,-5.34256 3.6425,-7.24219 1.4456,-1.97879 3.0069,-3.44276 4.6836,-4.39258 0.141,-0.0865 0.2767,-0.14734 0.4161,-0.22656 z m 14.5858,1.5957 c 2.3392,1.52618 4.3367,3.52024 5.9864,5.99024 1.8502,2.77029 3.2389,6.01621 4.164,9.73632 0.9252,3.64097 1.3868,7.5189 1.3868,11.63477 0,3.87841 -0.4335,7.28234 -1.3008,10.21094 -0.8673,2.84945 -1.9952,5.26341 -3.3828,7.24219 -1.3877,1.89964 -2.949,3.32557 -4.6836,4.27539 -0.7232,0.4096 -1.4469,0.71235 -2.17,0.94531 z m -14.2226,97.76758 c 1.8503,0.55405 3.7888,1.06806 5.8125,1.54297 2.0815,0.47491 4.3353,0.91088 6.7637,1.30664 5.0303,0.79151 9.1362,1.74149 12.3164,2.84961 3.18,1.18727 5.6666,2.49325 7.459,3.91797 1.8502,1.50388 3.1226,3.12586 3.8164,4.86719 0.6938,1.74132 1.041,3.60129 1.041,5.58007 0,3.64096 -0.5499,7.04489 -1.6485,10.21094 -1.0986,3.16605 -2.6599,5.89601 -4.6836,8.19141 -2.0237,2.29538 -4.5382,4.11537 -7.5449,5.46094 -2.9488,1.34558 -6.2741,2.01953 -9.9746,2.01953 -3.9317,0 -7.6604,-0.63397 -11.1874,-1.90039 -3.5271,-1.18728 -6.6216,-2.80926 -9.2813,-4.86719 -2.6597,-2.05794 -4.7689,-4.47189 -6.3301,-7.24219 -1.5033,-2.7703 -2.2558,-5.70021 -2.2558,-8.78711 0,-1.26642 0.1444,-2.65042 0.4336,-4.1543 0.2891,-1.42472 0.9534,-3.08669 1.9941,-4.98632 1.0986,-1.82048 2.69,-3.91843 4.7715,-6.29297 2.0815,-2.2954 4.9132,-4.86736 8.498,-7.7168 z m -75.28059,0.83045 v -6.29253 q 6.24455,-2.25581 9.01991,-3.91798 2.86211,-1.66219 2.86211,-3.32437 v -59.83841 q 0,-7.0049 -0.52042,-11.51652 -0.52034,-4.51162 -1.82127,-7.00489 -1.21426,-2.61199 -3.20903,-3.56181 -1.99476,-1.06855 -4.85687,-1.06855 -2.51519,0 -5.55072,1.42473 -2.94886,1.42472 -6.41806,4.74907 -3.38244,3.20563 -7.28531,8.54835 -3.90287,5.224 -8.06591,13.05997 v 55.20806 q 0,1.78091 3.12228,3.68054 3.20903,1.89963 8.8465,3.56181 v 6.29253 h -39.46219 v -6.29253 q 5.72422,-2.01835 8.75975,-3.56181 3.12228,-1.66218 3.12228,-3.68054 v -70.04893 q 0,-4.63035 -0.26017,-7.36108 -0.17351,-2.73072 -1.30093,-4.27416 -1.12751,-1.54346 -3.55595,-2.25582 -2.34169,-0.71236 -6.76498,-1.42472 v -5.93636 q 6.67823,-1.30599 12.14219,-3.56181 5.46405,-2.25581 10.84127,-5.58017 l 3.20903,4.3929 0.954,25.40758 q 4.24979,-7.24234 8.8465,-12.82251 4.68337,-5.58017 9.19333,-9.26071 4.59671,-3.79926 8.8465,-5.69889 4.24978,-2.01837 7.63223,-2.01837 3.72937,0 7.19865,1.66218 3.4692,1.54345 6.07105,4.86781 2.68861,3.32435 4.24979,8.54835 1.64785,5.10526 1.64785,12.3476 v 73.01711 q 0,0.83109 0.60708,1.66218 0.6072,0.71236 1.9949,1.54345 1.3876,0.8311 3.6426,1.89963 2.3417,0.94982 5.7242,2.13709 v 6.29253 z m -101.90784,0 v -6.29253 q 5.89764,-1.66218 8.84646,-3.56181 3.03555,-2.01836 3.03555,-3.68054 v -65.18113 q 0,-6.05508 -0.17346,-9.73561 -0.0867,-3.79927 -1.21422,-5.81762 -1.04076,-2.1371 -3.4692,-3.08691 -2.42844,-0.94982 -7.02513,-1.54344 v -5.93636 q 6.15784,-1.42472 12.40239,-3.79926 6.33129,-2.37454 11.2749,-5.34272 h 3.81613 v 100.44305 q 0,1.42472 2.77535,3.56182 2.8621,2.01835 9.19343,3.68053 v 6.29253 z M 900.44468,70.518979 q 0,3.5618 -0.95404,6.6487 -0.86729,3.0869 -2.42843,5.34272 -1.56114,2.25582 -3.72939,3.56181 -2.08152,1.306 -4.50997,1.306 -4.16304,0 -6.50475,-2.96818 -2.25498,-3.0869 -2.25498,-9.02326 0,-3.5618 0.8673,-6.6487 0.95404,-3.0869 2.51517,-5.34272 1.56114,-2.25582 3.64266,-3.44308 2.08152,-1.30599 4.42323,-1.30599 4.07631,0 6.50475,2.96816 2.42845,2.84946 2.42845,8.90454 z m -53.68657,-34.31296 c -3.00664,1.34558 -6.61898,2.77151 -10.83985,4.27539 -4.22086,1.42472 -8.96299,2.57269 -14.22461,3.44335 v 5.81641 c 3.06446,0.31661 5.40643,0.75258 7.02539,1.30664 1.67679,0.47491 2.89092,1.42488 3.64258,2.84961 0.80948,1.34557 1.27303,3.32355 1.38867,5.93555 0.17346,2.53284 0.25977,5.97676 0.25977,10.33008 v 43.335931 c -3.12227,-3.00774 -6.04223,-4.94768 -8.75977,-5.81836 -2.65972,-0.94981 -5.34886,-1.42578 -8.0664,-1.42578 -4.0474,0 -7.8925,0.87196 -11.53516,2.61328 -3.58484,1.66218 -6.91015,3.95812 -9.97461,6.88672 -3.06446,2.9286 -5.83991,6.37057 -8.32617,10.32813 -2.42844,3.95757 -4.50953,8.23149 -6.24414,12.82226 -1.67677,4.51163 -2.97722,9.22152 -3.90234,14.12891 -0.8673,4.82823 -1.30079,9.65614 -1.30079,14.48438 0,8.78579 0.92516,16.66163 2.77539,23.62695 1.85024,6.96532 4.22033,12.86318 7.11133,17.6914 2.891,4.82824 6.09994,8.54817 9.62696,11.16016 3.58484,2.53285 7.08276,3.79883 10.49414,3.79883 2.891,0 5.55203,-0.514 7.98047,-1.54297 2.42844,-0.94981 4.76845,-2.37576 7.02343,-4.27539 2.25498,-1.97879 4.45246,-4.35275 6.5918,-7.12305 2.13935,-2.84944 4.395,-6.09536 6.76563,-9.73633 0.46255,7.99429 1.3014,13.77218 2.51562,17.33399 1.27204,3.56181 2.91966,5.34375 4.94336,5.34375 1.61896,0 4.24992,-1.22795 7.89258,-3.68164 3.64266,-2.4537 8.15203,-6.13363 13.52929,-11.04102 l -1.56054,-6.29297 c -1.67678,0.94982 -3.0936,1.66377 -4.25,2.13868 -1.09858,0.4749 -2.0538,0.8309 -2.86328,1.06835 -0.75166,0.15831 -1.35776,0.19634 -1.82032,0.11719 -0.40474,-0.1583 -0.75191,-0.43432 -1.04101,-0.83008 -0.34692,-0.4749 -0.63591,-1.10887 -0.86719,-1.90039 -0.23128,-0.79151 -0.43396,-1.81951 -0.60742,-3.08593 -0.17346,-1.34558 -0.31796,-2.96952 -0.43359,-4.86914 -0.0578,-1.97879 -0.0859,-4.35275 -0.0859,-7.12305 V 40.006799 Z m -31.83008,83.941401 c 0.28655,0 0.567,0.0209 0.84961,0.0332 v 85.44532 c -0.93227,0.23617 -1.88011,0.36132 -2.84375,0.36132 -0.82909,0 -1.66923,-0.12905 -2.51953,-0.37109 v -84.91406 c 1.45121,-0.36416 2.95362,-0.55469 4.51367,-0.55469 z m 5.46094,0.83203 c 1.99525,0.6301 3.87713,1.61153 5.64062,2.9668 3.35357,2.45369 6.0146,5.97563 7.98047,10.56641 v 54.49609 c -1.7346,2.29539 -3.47049,4.47136 -5.20508,6.5293 -1.73461,2.05794 -3.46852,3.87791 -5.20312,5.46093 -1.06,0.919 -2.1313,1.72345 -3.21289,2.43555 z m -14.58594,1.59571 v 80.61914 c -0.0803,-0.0606 -0.15978,-0.11321 -0.24024,-0.17578 -2.54408,-2.05794 -4.85793,-4.94786 -6.93945,-8.66797 -2.08152,-3.72012 -3.78733,-8.23202 -5.11719,-13.53516 -1.32986,-5.38229 -1.99414,-11.35817 -1.99414,-17.92773 0,-7.20277 0.57798,-13.45468 1.73438,-18.75782 1.1564,-5.38229 2.7759,-9.85421 4.85742,-13.41601 2.08152,-3.56182 4.53791,-6.21375 7.37109,-7.95508 0.10815,-0.0651 0.21925,-0.12089 0.32813,-0.18359 z m -78.21128,97.65857 v -6.29253 q 6.24457,-2.25581 9.01992,-3.91798 2.8621,-1.66219 2.8621,-3.32437 v -59.83841 q 0,-7.0049 -0.52038,-11.51652 -0.52038,-4.51162 -1.82134,-7.00489 -1.21422,-2.61199 -3.20901,-3.56181 -1.99479,-1.06855 -4.85687,-1.06855 -2.51518,0 -5.55073,1.42473 -2.94882,1.42472 -6.41802,4.74907 -3.38247,3.20563 -7.28533,8.54835 -3.90285,5.224 -8.06588,13.05997 v 55.20806 q 0,1.78091 3.12227,3.68054 3.20902,1.89963 8.84647,3.56181 v 6.29253 h -39.46216 v -6.29253 q 5.72418,-2.01835 8.75973,-3.56181 3.12228,-1.66218 3.12228,-3.68054 v -70.04893 q 0,-4.63035 -0.26018,-7.36108 -0.17346,-2.73072 -1.30096,-4.27416 -1.12749,-1.54346 -3.55593,-2.25582 -2.34171,-0.71236 -6.76494,-1.42472 v -5.93636 q 6.67821,-1.30599 12.1422,-3.56181 5.46399,-2.25581 10.84126,-5.58017 l 3.209,4.3929 0.95404,25.40758 q 4.24977,-7.24234 8.84646,-12.82251 4.68341,-5.58017 9.19338,-9.26071 4.59669,-3.79926 8.84646,-5.69889 4.24977,-2.01837 7.63224,-2.01837 3.7294,0 7.19859,1.66218 3.46921,1.54345 6.07111,4.86781 2.68863,3.32435 4.24977,8.54835 1.64786,5.10526 1.64786,12.3476 v 73.01711 q 0,0.83109 0.60712,1.66218 0.60711,0.71236 1.99479,1.54345 1.38768,0.8311 3.64266,1.89963 2.34171,0.94982 5.72418,2.13709 v 6.29253 z m -93.1481,-113.97889 c -4.0474,0 -8.15336,0.87196 -12.3164,2.61328 -4.16304,1.66218 -8.06437,3.91814 -11.70703,6.76758 -3.64266,2.84946 -6.88167,6.1734 -9.71485,9.97266 -2.83318,3.79927 -4.91428,7.79717 -6.24414,11.99219 l 1.38672,5.22265 c 0.46256,0.15831 1.2151,0.15831 2.25586,0 1.09857,-0.23746 2.28459,-0.55347 3.55664,-0.94922 1.32985,-0.39576 2.65841,-0.86976 3.98828,-1.42382 1.38767,-0.55406 2.63188,-1.14804 3.73047,-1.78125 1.1564,-0.63321 2.08155,-1.26718 2.77539,-1.90039 0.75163,-0.63321 1.09882,-1.18721 1.04102,-1.66211 -0.17346,-2.37454 0.0855,-4.51247 0.77929,-6.41211 0.69384,-1.97878 1.67718,-3.64075 2.94922,-4.98633 1.27204,-1.34558 2.71698,-2.41357 4.33594,-3.20508 1.61896,-0.79151 3.29665,-1.1875 5.03125,-1.1875 2.6019,-0.0792 4.7693,0.35683 6.50391,1.30664 1.73459,0.87066 3.1233,2.13665 4.16406,3.79883 1.04076,1.58303 1.76323,3.52296 2.16797,5.81836 0.40474,2.21623 0.60742,4.63019 0.60742,7.24219 v 15.79101 c -6.76494,1.42472 -12.40215,2.8887 -16.91211,4.39258 -4.45214,1.42473 -8.15274,2.9287 -11.10156,4.51172 -2.89101,1.58302 -5.23298,3.24499 -7.02539,4.98633 -1.79242,1.74133 -3.38185,3.56131 -4.76954,5.46093 -2.13933,2.9286 -3.96151,6.37252 -5.46484,10.33008 -1.50332,3.95757 -2.25586,8.82547 -2.25586,14.60352 0,4.59078 0.57993,8.54674 1.73633,11.87109 1.15641,3.32435 2.62946,6.05627 4.42187,8.19336 1.85025,2.13709 3.87511,3.68105 6.07227,4.63086 2.25498,1.02897 4.48058,1.54297 6.67773,1.54297 1.85024,0 3.90323,-0.35599 6.15821,-1.06836 2.25498,-0.71237 4.59695,-1.86033 7.02539,-3.44336 2.48626,-1.66217 5.02895,-3.76012 7.63086,-6.29297 2.6019,-2.53284 5.20475,-5.6188 7.80664,-9.25976 0.23128,6.25295 0.98186,11.15889 2.2539,14.7207 1.32986,3.56181 3.00756,5.34375 5.03126,5.34375 1.79242,0 4.59598,-1.22795 8.4121,-3.68164 3.87394,-2.53284 8.2689,-6.1328 13.1836,-10.80274 l -1.47461,-6.53125 c -2.3128,1.34558 -4.07679,2.21753 -5.29102,2.61329 -1.21421,0.39575 -2.22567,0.59374 -3.03515,0.59374 -1.04077,1e-5 -1.87961,-0.71394 -2.51563,-2.13867 -0.63602,-1.42472 -0.95312,-3.79868 -0.95312,-7.12304 v -63.75586 c 0,-8.15259 -1.764,-14.64247 -5.29102,-19.47071 -3.52703,-4.82823 -8.73075,-7.24414 -15.61133,-7.24414 z m 5.29102,56.8711 v 29.20703 c -2.41503,2.8275 -4.70446,5.19572 -6.875,7.13867 v -34.6875 c 2.04765,-0.55256 4.31856,-1.10564 6.875,-1.6582 z m -11.48633,3.04297 v 36.88671 c -0.16022,0.10381 -0.32379,0.22029 -0.48242,0.31836 -1.68754,1.02252 -3.3144,1.7929 -4.88281,2.32618 v -37.39649 c 1.52923,-0.73244 3.32152,-1.44375 5.36523,-2.13476 z m -9.97656,4.81054 v 35.58789 c -0.1018,0.002 -0.20543,0.0137 -0.30664,0.0137 -0.75166,0 -1.6487,-0.198 -2.68946,-0.59376 -1.04076,-0.39575 -2.02214,-1.14773 -2.94726,-2.25585 -0.92512,-1.10812 -1.70578,-2.61209 -2.3418,-4.51172 -0.63602,-1.89964 -0.95508,-4.35358 -0.95508,-7.36133 0,-3.56181 0.46356,-6.64972 1.38868,-9.26172 0.92512,-2.61199 2.13925,-4.98596 3.64257,-7.12305 0.8673,-1.26642 1.84869,-2.41438 2.94727,-3.44336 0.37547,-0.3598 0.807,-0.70767 1.26172,-1.05078 z M 583.1863,188.8898 q -0.34692,5.10527 -0.8673,9.97308 -0.43364,4.8678 -0.95402,9.14197 -0.43365,4.15545 -0.95403,7.36107 -0.43366,3.08691 -0.78058,4.86781 h -76.32241 v -6.29253 q 5.89765,-1.66218 9.10665,-3.56181 3.20901,-2.01836 3.20901,-3.68054 V 84.291309 q 0,-1.42472 -3.03555,-3.56182 -3.03554,-2.13708 -9.28011,-3.79926 v -6.29253 h 41.19676 v 6.29253 q -5.89764,1.66218 -9.19338,3.68054 -3.20901,2.01836 -3.20901,3.68054 V 199.57524 q 0,2.13708 0.69384,3.79926 0.78057,1.54345 2.60189,2.73072 1.82134,1.06854 4.94362,1.66218 3.12228,0.59363 7.89243,0.59363 h 11.53509 q 3.98958,0 6.67821,-0.83109 2.77536,-0.83109 4.85689,-3.20563 2.08152,-2.37454 3.72938,-6.6487 1.73461,-4.27418 3.55593,-11.27908 z m -132.35001,-2.25581 q 0,8.42961 -1.82133,14.48469 -1.7346,5.93636 -4.59669,10.0918 -2.77536,4.15544 -6.3313,6.64871 -3.46919,2.49327 -7.02513,3.79926 -3.46919,1.306 -6.59148,1.66219 -3.03555,0.47491 -4.94361,0.47491 -2.3417,0 -5.11707,-0.59364 -2.77536,-0.47491 -5.81091,-1.54346 -2.94882,-1.06854 -6.0711,-2.73071 -3.12228,-1.66218 -5.98437,-3.79927 -0.60711,-0.35618 -0.8673,-3.91799 -0.17346,-3.68054 -0.17346,-8.42962 0.0867,-4.8678 0.52038,-9.97306 0.43365,-5.10526 1.12749,-8.3109 l 4.77015,1.306 q 0.43365,5.46144 2.25498,10.0918 1.82133,4.51162 4.68342,7.9547 2.86209,3.32436 6.59148,5.22399 3.72939,1.89964 7.97916,1.89964 6.24457,0 9.88722,-4.3929 3.64267,-4.51163 3.64267,-12.46634 0,-4.74908 -1.82133,-8.42962 -1.82134,-3.68054 -4.85689,-6.76744 -2.94882,-3.0869 -6.76493,-5.81762 -3.81613,-2.73073 -7.80571,-5.58017 -3.64266,-2.49327 -7.11186,-5.34272 -3.4692,-2.96818 -6.24456,-6.52998 -2.68863,-3.68054 -4.3365,-8.07344 -1.64787,-4.51162 -1.64787,-10.21052 0,-7.36108 2.34171,-13.1787 2.34171,-5.81762 6.15783,-9.73562 3.81612,-4.03671 8.75974,-6.05507 5.03033,-2.13709 10.23414,-2.13709 3.03555,0 6.41801,0.71236 3.46921,0.59364 6.67822,1.78091 3.29574,1.18727 6.07109,2.84945 2.8621,1.66217 4.68343,3.79926 0.52038,0.59364 0.17346,3.44308 -0.34692,2.73073 -1.21422,6.17382 -0.78057,3.32435 -1.82133,6.52998 -0.95403,3.0869 -1.64788,4.27417 l -4.24977,-0.94982 q -3.46919,-9.14197 -7.89243,-13.1787 -4.33649,-4.15545 -9.01992,-4.15545 -2.77535,0 -5.03033,1.18728 -2.16826,1.18727 -3.72939,3.0869 -1.47442,1.7809 -2.25499,4.15545 -0.78057,2.37454 -0.78057,4.86781 0,3.79926 1.56114,6.88616 1.56114,2.96818 4.16304,5.6989 2.68863,2.61199 6.15784,5.10525 3.55592,2.49327 7.45877,5.34272 3.72939,2.612 7.54552,5.58017 3.81612,2.96818 6.85167,6.88617 3.03555,3.79926 4.94361,8.7858 1.90806,4.86781 1.90806,11.51652 z M 370.0039,121.2154 q -0.69384,0.47491 -1.82132,0.94982 -1.1275,0.47491 -2.42845,0.83109 -1.30094,0.35618 -2.6019,0.59363 -1.30095,0.11873 -2.34171,0.11873 l -5.46399,-71.592381 q 0.95403,-0.71236 3.12228,-1.89964 2.16825,-1.18727 4.50996,-2.37454 2.42844,-1.18727 4.50996,-2.13708 2.16825,-0.94982 3.12229,-1.18727 l 3.98957,2.73072 z m -73.11298,-14.96056 c -4.50997,0 -8.87484,1.14797 -13.0957,3.44336 -4.16304,2.21624 -7.86364,5.26417 -11.10157,9.14258 -3.23792,3.79927 -5.84076,8.31118 -7.80664,13.53516 -1.96588,5.14484 -2.94922,10.60671 -2.94922,16.38476 0,4.35332 0.49167,8.38927 1.47461,12.10938 0.98294,3.72011 2.34157,7.08403 4.07617,10.09179 1.79243,2.9286 3.93171,5.46253 6.41797,7.59961 2.48626,2.05794 5.23359,3.67992 8.24024,4.86719 -2.71754,2.61199 -4.97321,4.98596 -6.76563,7.12305 -1.7346,2.05793 -3.12135,3.9179 -4.16211,5.58008 -0.98293,1.66218 -1.67728,3.08812 -2.08203,4.27539 -0.34692,1.18727 -0.52148,2.1353 -0.52148,2.84765 0,2.2954 0.75254,4.55133 2.25586,6.76758 1.56114,2.13708 4.1339,4.11702 7.71875,5.9375 -4.79907,3.56181 -8.67228,6.80578 -11.6211,9.73438 -2.94882,2.9286 -5.26267,5.62053 -6.93945,8.07422 -1.61896,2.53284 -2.71672,4.86877 -3.29492,7.00585 -0.5782,2.21624 -0.86719,4.35223 -0.86719,6.41016 0,3.87842 0.57798,7.32233 1.73438,10.33008 1.1564,3.0869 2.71771,5.81686 4.68359,8.19141 2.0237,2.45368 4.33559,4.51164 6.9375,6.17382 2.65971,1.74133 5.43517,3.16532 8.32617,4.27344 2.94882,1.10813 5.92696,1.90009 8.9336,2.375 3.06446,0.55405 6.01252,0.83203 8.8457,0.83203 3.4692,0 6.99719,-0.55399 10.58203,-1.66211 3.58484,-1.10811 7.02457,-2.65207 10.32031,-4.63086 3.29574,-1.97878 6.36018,-4.35276 9.19336,-7.12304 2.891,-2.7703 5.40754,-5.85822 7.54688,-9.26172 2.13934,-3.32437 3.81507,-6.92628 5.02929,-10.80469 1.21422,-3.87841 1.82227,-7.87437 1.82227,-11.99023 0,-3.16606 -0.49167,-6.21398 -1.47461,-9.14258 -0.98295,-2.9286 -2.71882,-5.58054 -5.20508,-7.95508 -2.48626,-2.45369 -5.83968,-4.58968 -10.06054,-6.41016 -4.22087,-1.89963 -9.56909,-3.36361 -16.04493,-4.39258 -4.50996,-0.79151 -8.18049,-1.54349 -11.01367,-2.25585 -2.77536,-0.79152 -4.94472,-1.58349 -6.50586,-2.375 -1.50332,-0.79151 -2.51477,-1.58349 -3.03515,-2.375 -0.52039,-0.87066 -0.78125,-1.74066 -0.78125,-2.61133 0,-0.47491 0.43542,-1.70286 1.30273,-3.68164 0.92511,-1.97878 2.65904,-4.47077 5.20313,-7.47852 h 0.51953 c 4.39431,0 8.70296,-0.98997 12.92382,-2.96875 4.22086,-2.05793 7.94958,-4.86787 11.1875,-8.42969 3.23792,-3.64096 5.84076,-7.95486 7.80665,-12.9414 2.02369,-5.06568 3.03515,-10.64558 3.03515,-16.74024 0,-3.5618 -0.40536,-7.00572 -1.21484,-10.33008 -0.75166,-3.32435 -1.84943,-6.41031 -3.29492,-9.25976 2.6019,-0.15831 4.94387,-0.39628 7.02539,-0.71289 2.13934,-0.39575 4.24855,-0.83173 6.33007,-1.30664 1.21422,-1.97878 2.16945,-4.03674 2.86329,-6.17383 0.75166,-2.13708 1.44405,-4.23308 2.08007,-6.29102 l -1.99414,-3.80078 c -2.42843,1.18728 -5.57918,2.57323 -9.45312,4.15625 -3.81613,1.58303 -8.58637,2.81098 -14.31055,3.68164 -2.6019,-2.45369 -5.49373,-4.35364 -8.67383,-5.69921 -3.12228,-1.42473 -6.50382,-2.13868 -10.14648,-2.13868 z m -5.25977,12.48242 c 1.9149,0.0446 3.70416,0.3183 5.36524,0.82618 v 52.53515 c -1.92866,-0.11767 -3.71541,-0.46451 -5.36524,-1.03125 z m -4.60937,1.1875 v 48.72461 c -1.96348,-1.42567 -3.64934,-3.18393 -5.04883,-5.28515 -1.79242,-2.7703 -3.12293,-5.97624 -3.99023,-9.61719 -0.8673,-3.72011 -1.30079,-7.63803 -1.30079,-11.75391 0,-3.87842 0.46355,-7.24235 1.38868,-10.09179 0.98293,-2.92861 2.19707,-5.34256 3.64257,-7.24219 1.4455,-1.97879 3.00682,-3.44276 4.6836,-4.39258 0.21219,-0.13021 0.41651,-0.22806 0.625,-0.3418 z m 14.58594,1.84766 c 2.24945,1.50798 4.17685,3.45716 5.77734,5.85352 1.85024,2.77029 3.23699,6.01621 4.16211,9.73632 0.92512,3.64097 1.38867,7.5189 1.38867,11.63477 0,3.87841 -0.43348,7.28234 -1.30078,10.21094 -0.8673,2.84945 -1.99513,5.26341 -3.38281,7.24219 -1.38768,1.89964 -2.949,3.32557 -4.6836,4.27539 -0.65343,0.37013 -1.3075,0.64519 -1.96093,0.87109 z m -14.43165,97.63086 c 1.85024,0.55405 3.7888,1.06806 5.8125,1.54297 2.08152,0.47491 4.33524,0.91088 6.76368,1.30664 5.03034,0.79151 9.1363,1.74149 12.3164,2.84961 3.1801,1.18727 5.66657,2.49325 7.45899,3.91797 1.85024,1.50388 3.12256,3.12586 3.8164,4.86719 0.69384,1.74132 1.03907,3.60129 1.03907,5.58007 0,3.64096 -0.5479,7.04489 -1.64649,10.21094 -1.09858,3.16605 -2.6599,5.89601 -4.68359,8.19141 -2.02371,2.29538 -4.54024,4.11537 -7.54688,5.46094 -2.94882,1.34558 -6.27217,2.01953 -9.97265,2.01953 -3.93176,0 -7.66244,-0.63397 -11.18946,-1.90039 -3.52702,-1.18728 -6.61957,-2.80926 -9.27929,-4.86719 -2.65972,-2.05794 -4.77089,-4.47189 -6.33203,-7.24219 -1.50332,-2.7703 -2.25391,-5.70021 -2.25391,-8.78711 0,-1.26642 0.14449,-2.65042 0.43359,-4.1543 0.2891,-1.42472 0.95338,-3.08669 1.99414,-4.98632 1.09859,-1.82048 2.68997,-3.91843 4.77149,-6.29297 2.08152,-2.2954 4.91321,-4.86736 8.49804,-7.7168 z m -75.28099,0.83045 v -6.29253 q 6.24457,-2.25581 9.01992,-3.91798 2.8621,-1.66219 2.8621,-3.32437 v -59.83841 q 0,-7.0049 -0.52038,-11.51652 -0.52038,-4.51162 -1.82134,-7.00489 -1.21422,-2.61199 -3.20901,-3.56181 -1.99479,-1.06855 -4.85687,-1.06855 -2.51518,0 -5.55073,1.42473 -2.94882,1.42472 -6.41802,4.74907 -3.38247,3.20563 -7.28533,8.54835 -3.90285,5.224 -8.06588,13.05997 v 55.20806 q 0,1.78091 3.12227,3.68054 3.20902,1.89963 8.84647,3.56181 v 6.29253 h -39.46216 v -6.29253 q 5.72418,-2.01835 8.75973,-3.56181 3.12228,-1.66218 3.12228,-3.68054 v -70.04893 q 0,-4.63035 -0.26018,-7.36108 -0.17346,-2.73072 -1.30096,-4.27416 -1.12749,-1.54346 -3.55593,-2.25582 -2.34171,-0.71236 -6.76494,-1.42472 v -5.93636 q 6.67821,-1.30599 12.1422,-3.56181 5.46399,-2.25581 10.84125,-5.58017 l 3.20901,4.3929 0.95404,25.40758 q 4.24977,-7.24234 8.84646,-12.82251 4.68341,-5.58017 9.19338,-9.26071 4.59669,-3.79926 8.84646,-5.69889 4.24977,-2.01837 7.63224,-2.01837 3.7294,0 7.19859,1.66218 3.4692,1.54345 6.07111,4.86781 2.68863,3.32435 4.24977,8.54835 1.64786,5.10526 1.64786,12.3476 v 73.01711 q 0,0.83109 0.60712,1.66218 0.60711,0.71236 1.99479,1.54345 1.38768,0.8311 3.64266,1.89963 2.34171,0.94982 5.72418,2.13709 v 6.29253 z m -101.90778,0 v -6.29253 q 5.89765,-1.66218 8.84647,-3.56181 3.03555,-2.01836 3.03555,-3.68054 v -65.18113 q 0,-6.05508 -0.17346,-9.73561 -0.0867,-3.79927 -1.21422,-5.81762 -1.04076,-2.1371 -3.4692,-3.08691 -2.42844,-0.94982 -7.02514,-1.54344 v -5.93636 q 6.15784,-1.42472 12.4024,-3.79926 6.33129,-2.37454 11.2749,-5.34272 h 3.81612 v 100.44305 q 0,1.42472 2.77536,3.56182 2.86209,2.01835 9.19339,3.68053 v 6.29253 z M 140.34281,70.518979 q 0,3.5618 -0.95403,6.6487 -0.8673,3.0869 -2.42844,5.34272 -1.56114,2.25582 -3.72939,3.56181 -2.08152,1.306 -4.50996,1.306 -4.16304,0 -6.50475,-2.96818 -2.25498,-3.0869 -2.25498,-9.02326 0,-3.5618 0.8673,-6.6487 0.95403,-3.0869 2.51517,-5.34272 1.56114,-2.25582 3.64266,-3.44308 2.08152,-1.30599 4.42323,-1.30599 4.07631,0 6.50475,2.96816 2.42844,2.84946 2.42844,8.90454 z M 3.1359256,220.23373 v -6.29253 q 5.89764,-1.66218 9.1066514,-3.56181 3.209011,-2.01836 3.209011,-3.68054 V 84.291309 q 0,-1.42472 -3.035551,-3.56182 -3.0355504,-2.13708 -9.2801114,-3.79926 v -6.29253 H 44.332684 v 6.29253 q -5.897642,1.66218 -9.193382,3.68054 -3.209011,2.01836 -3.209011,3.68054 V 142.94245 L 66.362108,87.496929 q 1.994791,-3.20562 2.601901,-5.10525 0.60711,-1.89964 -0.17346,-2.96818 -0.693841,-1.06855 -2.775361,-1.54346 -2.08152,-0.59362 -5.463991,-0.94981 v -6.29253 h 37.293908 v 6.29253 q -2.775361,0.47491 -4.856882,0.94981 -2.08152,0.47491 -3.72939,1.30601 -1.647871,0.71236 -3.03555,1.89963 -1.387681,1.18727 -2.688631,3.20563 l -37.727559,56.039141 41.890599,63.2815 q 2.948822,4.51162 6.764942,5.34272 3.816121,0.71236 8.326076,0 l 0.60712,6.29253 q -2.51518,1.06855 -5.290535,2.25582 -2.775361,1.18726 -5.550721,2.2558 -2.688631,0.94982 -5.203801,1.54346 -2.515171,0.59362 -4.596691,0.59362 -2.515171,0 -4.509961,-1.06853 -1.90806,-1.06855 -3.642661,-4.03672 L 31.930291,144.96081 v 61.73804 q 0,1.42472 3.035551,3.56182 3.035551,2.01835 9.366842,3.68053 v 6.29253 z" />
  </g>
  <sodipodi:namedview
     pagecolor="#ffffff"
     bordercolor="#666666"
     borderopacity="1"
     objecttolerance="10"
     gridtolerance="10"
     guidetolerance="10"
     inkscape:pageopacity="0"
     inkscape:pageshadow="2"
     inkscape:window-width="1869"
     inkscape:window-height="965"
     id="namedview67"
     showgrid="true"
     inkscape:zoom="0.61580177"
     inkscape:cx="601.65779"
     inkscape:cy="273.37655"
     inkscape:window-x="9"
     inkscape:window-y="13"
     inkscape:window-maximized="0"
     inkscape:current-layer="g930"
     fit-margin-top="0"
     fit-margin-left="0"
     fit-margin-right="0"
     fit-margin-bottom="0"
     inkscape:document-rotation="0"
     units="in"
     showguides="false"
     inkscape:document-units="in"
     inkscape:snap-global="false">
    <inkscape:grid
       type="xygrid"
       id="grid842"
       units="in"
       spacingx="24"
       spacingy="24"
       empspacing="4" />
    <sodipodi:guide
       position="1315.066,306.83231"
       orientation="1,0"
       id="guide844" />
  </sodipodi:namedview>
  <defs
     id="defs5278">
    <clipPath
       id="clipPath3717">
      <path
         d="m 427.26,426.42 h 71.64 v 24 h -71.64 z"
         id="path3719"
         inkscape:connector-curvature="0" />
    </clipPath>
    <clipPath
       id="clipPath3733">
      <path
         d="m 427.264,426.42 h 71.589 v 23.968 h -71.589 z"
         id="path3735"
         inkscape:connector-curvature="0" />
    </clipPath>
    <clipPath
       id="clipPath3745">
      <path
         d="m 427.26,426.42 h 71.64 v 24 h -71.64 z"
         id="path3747"
         inkscape:connector-curvature="0" />
    </clipPath>
    <clipPath
       id="clipPath3773">
      <path
         d="m 427.264,426.42 h 71.589 v 23.968 h -71.589 z"
         id="path3775"
         inkscape:connector-curvature="0" />
    </clipPath>
    <clipPath
       id="clipPath3789">
      <path
         d="m 427.26,426.42 h 71.64 v 24 h -71.64 z"
         id="path3791"
         inkscape:connector-curvature="0" />
    </clipPath>
  </defs>
  <metadata
     id="metadata5281">
    <rdf:RDF>
      <cc:Work
         rdf:about="">
        <dc:format>image/svg+xml</dc:format>
        <dc:type
           rdf:resource="http://purl.org/dc/dcmitype/StillImage" />
        <dc:title></dc:title>
      </cc:Work>
    </rdf:RDF>
  </metadata>
  <g
     id="text1606"
     style="font-style:normal;font-variant:normal;font-weight:normal;font-stretch:normal;font-size:60px;line-height:1.25;font-family:'Harry Potter';-inkscape-font-specification:'Harry Potter';letter-spacing:0px;word-spacing:0px;fill:none;fill-opacity:1;stroke:#090b09;stroke-width:0.9375;stroke-opacity:1" />
</svg>
