<?xml version="1.0" encoding="UTF-8" standalone="no"?>
<svg
   xmlns:dc="http://purl.org/dc/elements/1.1/"
   xmlns:cc="http://creativecommons.org/ns#"
   xmlns:rdf="http://www.w3.org/1999/02/22-rdf-syntax-ns#"
   xmlns:svg="http://www.w3.org/2000/svg"
   xmlns="http://www.w3.org/2000/svg"
   xmlns:sodipodi="http://sodipodi.sourceforge.net/DTD/sodipodi-0.dtd"
   xmlns:inkscape="http://www.inkscape.org/namespaces/inkscape"
   version="1.1"
   width="11.5in"
   height="4in"
   id="svg5276"
   inkscape:version="1.0.1 (3bc2e813f5, 2020-09-07)"
   sodipodi:docname="Middle Earth Direction Sign for Lamp Post.svg"
   inkscape:export-filename="C:\Users\Klemen\Downloads\The Chronicles of Narnia logo.png"
   inkscape:export-xdpi="1500.2426"
   inkscape:export-ydpi="1500.2426"
   viewBox="0 0 1104 384">
  <sodipodi:namedview
     pagecolor="#ffffff"
     bordercolor="#666666"
     borderopacity="1"
     objecttolerance="10"
     gridtolerance="10"
     guidetolerance="10"
     inkscape:pageopacity="0"
     inkscape:pageshadow="2"
     inkscape:window-width="1904"
     inkscape:window-height="996"
     id="namedview67"
     showgrid="true"
     inkscape:zoom="1.044997"
     inkscape:cx="572.02"
     inkscape:cy="168.69086"
     inkscape:window-x="11"
     inkscape:window-y="10"
     inkscape:window-maximized="0"
     inkscape:current-layer="svg5276"
     fit-margin-top="0"
     fit-margin-left="0"
     fit-margin-right="0"
     fit-margin-bottom="0"
     inkscape:document-rotation="0"
     showguides="false"
     inkscape:snap-nodes="false"
     units="in"
     inkscape:document-units="in">
    <inkscape:grid
       type="xygrid"
       id="grid986"
       units="in"
       spacingx="24"
       spacingy="24"
       empspacing="4" />
  </sodipodi:namedview>
  <defs
     id="defs5278">
    <clipPath
       id="clipPath3717">
      <path
         d="m 427.26,426.42 h 71.64 v 24 h -71.64 z"
         id="path3719"
         inkscape:connector-curvature="0" />
    </clipPath>
    <clipPath
       id="clipPath3733">
      <path
         d="m 427.264,426.42 h 71.589 v 23.968 h -71.589 z"
         id="path3735"
         inkscape:connector-curvature="0" />
    </clipPath>
    <clipPath
       id="clipPath3745">
      <path
         d="m 427.26,426.42 h 71.64 v 24 h -71.64 z"
         id="path3747"
         inkscape:connector-curvature="0" />
    </clipPath>
    <clipPath
       id="clipPath3773">
      <path
         d="m 427.264,426.42 h 71.589 v 23.968 h -71.589 z"
         id="path3775"
         inkscape:connector-curvature="0" />
    </clipPath>
    <clipPath
       id="clipPath3789">
      <path
         d="m 427.26,426.42 h 71.64 v 24 h -71.64 z"
         id="path3791"
         inkscape:connector-curvature="0" />
    </clipPath>
  </defs>
  <metadata
     id="metadata5281">
    <rdf:RDF>
      <cc:Work
         rdf:about="">
        <dc:format>image/svg+xml</dc:format>
        <dc:type
           rdf:resource="http://purl.org/dc/dcmitype/StillImage" />
        <dc:title></dc:title>
      </cc:Work>
    </rdf:RDF>
  </metadata>
  <path
     id="path867"
     style="font-size:354.517px;line-height:1.25;font-family:'Agra Axera';-inkscape-font-specification:'Agra Axera';stroke-width:1;fill:#e87600;fill-opacity:1"
     d="M 1008.0907,329.09116 V 107.09117 l 30.6842,-18 v 71.99999 h 30.6841 V 71.091172 l 30.6842,-17.999999 V 305.09116 h -30.6842 v -108 h -30.6841 v 114 z m -40.91215,0 -30.6841,-18 V 131.09117 l -30.68419,18 v -42 L 997.86273,53.091173 V 95.091171 L 967.17855,113.09117 Z M 701.25,53.091797 V 305.0918 h 35.79688 l 15.34179,-36 h -20.45508 v -60 l 43.46875,102 2.55664,3 46.02735,27 -15.3418,-36 h 25.57031 v -120 l 53.69727,126 2.55664,3 46.02539,27 -61.36719,-144 h 20.45508 V 53.091797 L 803.5293,107.0918 V 293.08984 Z M 864.89844,113.0918 v 48 h -30.6836 v -30 z M 598.96869,305.09116 V 107.09117 l 92.05248,-53.999997 v 41.999998 l -61.36832,35.999999 v 29.99999 h 51.14026 l -15.34207,36 h -35.79819 v 72 h 61.36832 v 36 z m -143.19274,0 V 53.091173 l 92.05247,53.999997 v 42 l -61.36832,-36 v 47.99999 h 51.14027 l -15.34208,36 H 486.4601 v 72 h 61.36832 v 36 z m -102.28052,0 V 53.091173 l 30.68415,17.999999 V 269.09116 h 61.36832 v 36 z m -40.91221,-36 V 113.09117 l -30.68416,18 v 137.99999 z m -61.36831,36 V 107.09117 L 343.26738,53.091173 V 305.09116 Z m -40.91222,-36 V 113.09117 l -30.68416,18 v 137.99999 z m -61.36832,36 V 107.09117 L 240.98685,53.091173 V 305.09116 Z m -40.91221,0 V 65.091172 l 30.68416,17.999999 V 305.09116 Z m -10.228042,24 -30.684161,-18 v -90 l -15.342079,36 -15.342078,-36 v 84 H 5.7416427 V 65.091172 L 51.767878,173.09117 97.794118,65.091172 Z" />
</svg>
