<?xml version="1.0" encoding="UTF-8" standalone="no"?>
<svg
   xmlns:dc="http://purl.org/dc/elements/1.1/"
   xmlns:cc="http://creativecommons.org/ns#"
   xmlns:rdf="http://www.w3.org/1999/02/22-rdf-syntax-ns#"
   xmlns:svg="http://www.w3.org/2000/svg"
   xmlns="http://www.w3.org/2000/svg"
   xmlns:sodipodi="http://sodipodi.sourceforge.net/DTD/sodipodi-0.dtd"
   xmlns:inkscape="http://www.inkscape.org/namespaces/inkscape"
   version="1.1"
   width="11.5in"
   height="4in"
   id="svg5276"
   inkscape:version="1.0.1 (3bc2e813f5, 2020-09-07)"
   sodipodi:docname="Orange Park 2 Direction Sign for Lamp Post.svg"
   inkscape:export-filename="C:\Users\Klemen\Downloads\The Chronicles of Narnia logo.png"
   inkscape:export-xdpi="1500.2426"
   inkscape:export-ydpi="1500.2426"
   viewBox="0 0 1104 384">
  <sodipodi:namedview
     pagecolor="#ffffff"
     bordercolor="#666666"
     borderopacity="1"
     objecttolerance="10"
     gridtolerance="10"
     guidetolerance="10"
     inkscape:pageopacity="0"
     inkscape:pageshadow="2"
     inkscape:window-width="1904"
     inkscape:window-height="996"
     id="namedview67"
     showgrid="true"
     inkscape:zoom="0.97035431"
     inkscape:cx="503.91752"
     inkscape:cy="255.60133"
     inkscape:window-x="0"
     inkscape:window-y="5"
     inkscape:window-maximized="0"
     inkscape:current-layer="svg5276"
     fit-margin-top="0"
     fit-margin-left="0"
     fit-margin-right="0"
     fit-margin-bottom="0"
     inkscape:document-rotation="0"
     showguides="false"
     inkscape:snap-nodes="false"
     units="in"
     inkscape:document-units="in">
    <inkscape:grid
       type="xygrid"
       id="grid986"
       units="in"
       spacingx="24"
       spacingy="24"
       empspacing="4" />
  </sodipodi:namedview>
  <defs
     id="defs5278">
    <clipPath
       id="clipPath3717">
      <path
         d="m 427.26,426.42 h 71.64 v 24 h -71.64 z"
         id="path3719"
         inkscape:connector-curvature="0" />
    </clipPath>
    <clipPath
       id="clipPath3733">
      <path
         d="m 427.264,426.42 h 71.589 v 23.968 h -71.589 z"
         id="path3735"
         inkscape:connector-curvature="0" />
    </clipPath>
    <clipPath
       id="clipPath3745">
      <path
         d="m 427.26,426.42 h 71.64 v 24 h -71.64 z"
         id="path3747"
         inkscape:connector-curvature="0" />
    </clipPath>
    <clipPath
       id="clipPath3773">
      <path
         d="m 427.264,426.42 h 71.589 v 23.968 h -71.589 z"
         id="path3775"
         inkscape:connector-curvature="0" />
    </clipPath>
    <clipPath
       id="clipPath3789">
      <path
         d="m 427.26,426.42 h 71.64 v 24 h -71.64 z"
         id="path3791"
         inkscape:connector-curvature="0" />
    </clipPath>
  </defs>
  <metadata
     id="metadata5281">
    <rdf:RDF>
      <cc:Work
         rdf:about="">
        <dc:format>image/svg+xml</dc:format>
        <dc:type
           rdf:resource="http://purl.org/dc/dcmitype/StillImage" />
        <dc:title></dc:title>
      </cc:Work>
    </rdf:RDF>
  </metadata>
  <path
     id="path1660"
     style="fill:#e06800;fill-opacity:1;stroke-width:1"
     d="M 85.089697,251.97158 C 59.634654,250.04331 36.980022,237.75138 21.942568,217.70926 7.8929948,198.9838 2.1851013,175.79473 5.8853146,152.47449 11.433904,117.50505 38.648826,89.1855 73.516267,82.098485 c 6.283156,-1.277091 9.472495,-1.565782 17.280932,-1.564272 9.071871,0.002 13.123951,0.483653 21.369941,2.541422 20.63683,5.149886 39.24925,18.536985 50.87273,36.590545 3.01967,4.69014 4.78101,8.02541 6.95481,13.16963 15.94973,37.74459 3.02508,81.43679 -30.88284,104.40039 -11.49998,7.78818 -23.91437,12.46741 -37.79282,14.24487 -3.064189,0.39244 -13.400098,0.70483 -16.229323,0.49051 z m 15.492293,-8.1997 c 9.20335,-1.168 17.36589,-3.70673 25.91798,-8.06105 14.57952,-7.4232 26.85502,-19.75014 34.12202,-34.26499 7.10977,-14.20082 9.73513,-29.31188 7.79752,-44.88102 C 165.61689,134.045 153.1495,113.88713 134.20074,101.23829 117.70133,90.224465 97.677741,85.923182 77.956904,89.156508 49.405273,93.837687 25.581127,114.19621 16.469932,141.69918 c -5.809377,17.53611 -5.184987,36.78753 1.746744,53.85725 2.574211,6.33911 5.839896,12.09377 9.959873,17.55089 13.525565,17.91534 33.336124,28.90307 55.984021,31.05095 3.467419,0.32885 12.451341,0.11746 16.42142,-0.38639 z m -2.778496,-4.49301 c -1.740943,-0.42255 -3.076178,-1.20504 -3.46102,-2.02828 -0.214215,-0.45824 -0.406649,-8.44964 -0.651719,-27.0633 -0.419102,-31.8344 -0.41926,-31.79801 0.136078,-32.87188 1.066204,-2.06176 3.132628,-1.82619 6.257167,0.71331 0.65457,0.532 3.70078,3.11807 6.76936,5.74681 6.13861,5.25874 10.22929,8.56722 15.26872,12.34913 1.82507,1.36964 4.60373,3.54453 6.17479,4.83309 1.57107,1.28856 5.42711,4.25352 8.56895,6.5888 5.85171,4.34947 6.75613,5.26118 6.75793,6.81242 0.002,2.03193 -1.69216,5.34952 -3.90285,7.64119 -1.48543,1.53982 -8.38131,6.94121 -11.09493,8.69041 -2.35735,1.51954 -6.25164,3.47404 -9.15789,4.59626 -2.35432,0.90909 -10.65215,3.38456 -13.40665,3.99958 -1.96503,0.43874 -6.435994,0.43466 -8.257936,-0.007 z m 10.939526,-35.21014 c 0.61802,-0.29918 1.33268,-0.86291 1.58811,-1.25275 1.11913,-1.70795 0.13057,-4.70273 -2.4848,-7.52757 -1.467,-1.58447 -4.49983,-3.94862 -5.06549,-3.94862 -0.50034,0 -0.64577,1.26812 -0.4979,4.34163 0.2227,4.62877 1.46125,7.6709 3.48095,8.54991 1.142,0.49701 1.67679,0.46782 2.97913,-0.1626 z m -34.271919,34.69769 c -1.314053,-0.34173 -3.762969,-0.95283 -5.442033,-1.35801 -5.450409,-1.31521 -10.990231,-3.68187 -15.547862,-6.64219 -4.408504,-2.86345 -9.585207,-6.61344 -10.950794,-7.93269 -1.775119,-1.71488 -3.835947,-4.75817 -4.426907,-6.53732 -0.889523,-2.67805 -0.438204,-3.29957 5.839112,-8.04122 2.044076,-1.54402 4.851372,-3.77475 6.23843,-4.95718 1.387059,-1.18243 6.045968,-4.98229 10.353138,-8.44412 4.30717,-3.46183 10.578778,-8.62781 13.936916,-11.47995 7.510192,-6.37859 8.023259,-6.77954 9.525334,-7.44396 1.093094,-0.48352 1.289913,-0.49789 2.112549,-0.15417 0.698934,0.29202 1.015257,0.6621 1.378188,1.61237 0.426694,1.11728 0.453809,1.90064 0.288041,8.32259 -0.100643,3.89908 -0.248614,7.98516 -0.328821,9.08017 -0.08022,1.095 -0.01418,10.82934 0.146917,21.63186 0.282856,18.97785 0.276074,19.66343 -0.200717,20.30752 -1.337978,1.80742 -3.125857,2.4304 -7.346728,2.55991 -2.693809,0.0826 -3.554407,0.002 -5.574763,-0.52361 z m 1.781097,-34.72495 c 0.711182,-0.36408 1.793447,-1.92482 2.349541,-3.38831 1.037979,-2.73165 1.269113,-9.31337 0.327068,-9.31337 -1.230656,0 -6.190002,4.64139 -7.22841,6.76499 -0.355833,0.72772 -0.697741,1.93526 -0.759796,2.68345 -0.09996,1.20549 -0.0263,1.4565 0.64698,2.20531 1.249451,1.38956 3.15923,1.81858 4.664617,1.04793 z m 70.943732,3.62359 c -0.7231,-0.36612 -3.04689,-2.11675 -5.16397,-3.89032 -2.11709,-1.77356 -5.93979,-4.79459 -8.49489,-6.71339 -2.5551,-1.9188 -7.15428,-5.50247 -10.22039,-7.96371 -3.06613,-2.46125 -8.68072,-6.80259 -12.47686,-9.64743 -9.92933,-7.44106 -10.22041,-7.71277 -10.22041,-9.54026 0,-2.24393 1.17523,-2.63457 16.59156,-5.51484 4.46166,-0.83359 7.37118,-1.48801 16.45883,-3.70202 3.79615,-0.92486 7.85777,-1.88388 9.02582,-2.13117 1.16805,-0.24729 5.05305,-1.21589 8.63334,-2.15246 3.58029,-0.93657 7.03671,-1.70285 7.68092,-1.70285 1.0538,0 1.29628,0.12966 2.4171,1.29245 1.62947,1.6905 2.85715,4.77324 3.11791,7.82919 0.10138,1.18818 0.10811,4.84808 0.015,8.13312 -0.24368,8.59363 -1.22821,13.2828 -4.34123,20.67666 -0.81489,1.93547 -1.78128,4.31511 -2.14751,5.28811 -1.76172,4.68033 -5.81108,9.27962 -9.01692,10.24151 -0.33059,0.0992 -1.05858,-0.0977 -1.85826,-0.50259 z m -17.44725,-29.23483 c 1.41663,-0.88177 1.96083,-3.73183 0.96675,-5.06325 -1.17714,-1.57663 -4.22738,-2.30153 -7.89062,-1.87523 -2.36051,0.27471 -5.28009,1.06116 -5.41236,1.45795 -0.0522,0.1568 0.4552,0.80079 1.12771,1.4311 4.11606,3.85778 8.79856,5.54948 11.20852,4.04943 z M 31.395446,207.1159 c -1.627502,-0.81099 -3.810883,-2.89099 -5.145223,-4.90161 -1.414435,-2.13132 -5.62002,-11.3886 -6.568343,-14.45818 -1.610918,-5.21429 -2.011019,-7.87847 -2.67547,-17.81544 -0.311099,-4.65253 -0.07434,-7.24941 0.94573,-10.3743 1.21465,-3.72087 2.261172,-4.86132 4.457239,-4.85724 0.746841,9.4e-4 3.747084,0.60292 6.667195,1.33672 2.920121,0.73381 6.86227,1.62237 8.760343,1.97456 4.317262,0.80109 9.857728,1.98232 14.786218,3.15245 4.164535,0.98874 10.09861,2.22269 18.648283,3.87779 6.464919,1.25151 8.180865,1.74403 9.028143,2.59129 1.480352,1.48032 0.824184,3.26065 -2.03833,5.53036 -1.093458,0.867 -3.767334,2.88306 -5.941957,4.4801 -5.93595,4.35938 -10.347821,7.80025 -15.501598,12.08987 -2.555109,2.12668 -6.258344,5.13265 -8.229414,6.67995 -1.971088,1.54729 -5.375677,4.35941 -7.565756,6.24917 -6.564014,5.66387 -6.883806,5.8115 -9.62706,4.44451 z m 26.657307,-29.29444 c 2.815579,-1.31753 6.736051,-4.40783 6.361255,-5.01424 -0.386129,-0.62476 -4.561073,-1.45251 -7.469329,-1.48092 -2.631575,-0.0257 -3.055602,0.0382 -4.216125,0.63507 -2.192009,1.12744 -2.772233,3.07791 -1.593606,5.35706 0.910762,1.76118 3.782818,1.97002 6.917805,0.50303 z m 41.2597,-16.63473 c -0.65323,-0.54963 -0.816768,-0.89316 -0.816768,-1.71565 0,-1.49151 0.6929,-3.05614 4.635895,-10.4682 4.54416,-8.54216 5.63967,-10.74803 8.73047,-17.57933 1.40103,-3.09656 3.42774,-7.39698 4.50377,-9.55648 1.07606,-2.1595 3.0112,-6.34926 4.30032,-9.31059 1.36867,-3.14408 2.69483,-5.79023 3.18742,-6.36006 0.79971,-0.92511 0.94163,-0.98137 2.73024,-1.08243 2.22874,-0.12593 4.64976,0.52203 6.99911,1.87322 2.37848,1.36797 10.8817,8.47838 12.96119,10.83819 3.80369,4.31643 5.3155,6.58428 9.50865,14.26375 3.09475,5.66782 3.83165,7.87558 3.87213,11.60096 0.032,2.94046 -0.34061,3.95225 -1.71314,4.65244 -0.54969,0.28042 -3.36975,0.99485 -6.26679,1.5876 -2.89704,0.59276 -7.776,1.72505 -10.84213,2.51623 -3.06611,0.79117 -8.56124,2.10554 -12.21138,2.92081 -3.65015,0.81527 -9.20501,2.14363 -12.34413,2.95193 -3.13912,0.80828 -7.53255,1.93879 -9.76318,2.51223 -4.89105,1.25738 -6.31897,1.3253 -7.471677,0.35538 z M 117.62522,149.1408 c 5.96668,-1.99898 8.12177,-5.36871 5.26225,-8.22815 -0.93744,-0.93742 -2.24179,-1.23887 -3.52629,-0.81496 -1.12017,0.36969 -3.33906,2.306 -4.38428,3.82595 -0.97519,1.41811 -2.58575,4.59483 -2.83006,5.5821 l -0.19103,0.77194 1.65397,-0.17287 c 0.90969,-0.0951 2.71664,-0.52889 4.01544,-0.96401 z m -42.357731,11.1183 c -10.31524,-2.73906 -17.701965,-4.54504 -22.564529,-5.51676 -2.920111,-0.58355 -7.9374,-1.66051 -11.149535,-2.39324 -3.212126,-0.73273 -7.871034,-1.70111 -10.353137,-2.15198 -7.679514,-1.39496 -8.283887,-1.71441 -8.905161,-4.70701 -0.690316,-3.32518 0.107042,-6.40906 3.363539,-13.00886 4.573553,-9.26903 7.292172,-12.79322 15.721977,-20.38062 4.297516,-3.86806 5.400918,-4.67755 8.136746,-5.96938 4.046132,-1.91055 6.834399,-2.09118 8.140011,-0.52731 0.392294,0.46992 1.583728,2.78091 2.647609,5.13555 1.063881,2.35466 2.929812,6.19248 4.146514,8.52851 1.216702,2.33603 2.939298,5.74052 3.827981,7.56554 4.662331,9.57466 9.280946,18.81417 12.008976,24.02393 3.169751,6.05331 3.747223,7.61397 3.296091,8.90802 -0.659609,1.89211 -2.613675,2.00808 -8.317082,0.49361 z m -5.561994,-10.79529 c -0.332747,-1.36835 -2.238935,-4.97375 -3.403441,-6.43735 -1.564327,-1.96608 -3.066879,-2.97123 -4.644451,-3.10696 -2.175621,-0.18719 -3.85047,1.41722 -3.85047,3.68855 0,2.48999 3.618347,4.98667 8.965482,6.18624 0.876026,0.19654 1.934245,0.36683 2.351593,0.37844 0.696836,0.0194 0.744313,-0.0385 0.581287,-0.70892 z m 19.936871,6.81939 c -0.92534,-0.72785 -2.15275,-2.99511 -4.230666,-7.81485 -3.979001,-9.22928 -9.832972,-21.40727 -16.587388,-34.50667 -5.650633,-10.95872 -5.498045,-10.60703 -5.132007,-11.82874 0.181372,-0.60535 0.829183,-1.64526 1.439572,-2.310922 2.221345,-2.42249 5.338433,-3.902731 10.438577,-4.957049 1.731448,-0.357931 4.342671,-0.92062 5.802735,-1.250422 2.333983,-0.527202 3.408208,-0.601272 8.893082,-0.613246 6.047832,-0.01316 6.420903,0.01742 12.211389,1.003556 3.28513,0.559457 6.68972,1.256656 7.56576,1.549336 2.56326,0.856385 5.1637,2.355077 6.71603,3.870589 l 1.44499,1.410728 -0.12145,1.46455 c -0.0988,1.1917 -0.57629,2.35323 -2.56269,6.23435 -1.34268,2.62338 -3.31739,6.76865 -4.38826,9.21171 -1.07084,2.44305 -3.44271,7.54777 -5.27079,11.34382 -3.67517,7.63159 -4.9577,10.42447 -8.472166,18.44932 -2.689005,6.13997 -3.66517,7.97665 -4.652081,8.75293 -0.878544,0.69104 -2.209582,0.68718 -3.094637,-0.008 z m 1.899109,-17.17223 c 1.697476,-2.40635 2.972242,-6.20957 2.972242,-8.86762 0,-3.01045 -1.143696,-4.47164 -3.500037,-4.47164 -2.280322,0 -3.331135,0.97736 -3.780635,3.51638 -0.354051,1.99989 0.766298,5.94925 2.586776,9.11868 0.453091,0.78882 0.909941,1.4342 1.015238,1.4342 0.105298,0 0.423187,-0.3285 0.706416,-0.73 z M 1075.4399,81.177991 q 3.4249,2.505268 4.852,6.054396 1.4271,3.549129 2.2833,9.603526 0.428,-5.845624 1.8551,-9.185981 1.5698,-3.549129 5.2802,-6.471941 h 10.703 v 31.315839 h -1.9979 q -0.5708,0 -1.5698,0 -0.8562,0 -1.9978,-0.20877 -2.5688,0 -5.4229,0.62632 -2.426,0.41754 -3.425,1.46141 l -3.5676,3.96667 -38.9589,46.76499 39.2443,46.34744 q 2.8541,4.17544 7.4207,4.38422 4.5667,0.20878 10.2749,1.04386 v 31.31585 h -10.703 q -3.4249,-2.71404 -4.852,-6.26317 -1.4271,-3.54913 -2.2833,-8.9772 -0.4281,5.21929 -1.998,8.76843 -1.427,3.54912 -5.1373,6.47194 h -10.703 v -31.31585 q 1.8551,0 3.5676,0 1.8552,0 3.7104,-0.20876 1.8552,0 2.9968,-1.04388 1.2844,-1.04385 -0.1427,-3.13157 l -7.4206,-9.39476 -19.4081,-22.54741 -4.9949,-5.42808 q -0.2853,-0.41754 -1.427,0.41755 -0.999,0.62632 -2.2833,1.67018 -1.1417,0.83508 -2.1406,1.87895 -0.8562,0.83509 -0.9989,1.25264 v 26.09653 q 0,1.46141 1.2843,3.13159 1.4271,1.4614 3.1395,3.13157 2.7115,2.08773 4.7094,2.92281 1.9979,0.8351 5.1374,1.25264 v 31.31585 h -10.7029 q -3.5677,-2.71404 -4.9948,-6.05439 -1.2843,-3.54913 -2.1407,-9.60353 -0.428,5.63684 -1.8551,9.18598 -1.427,3.54912 -5.2801,6.47194 h -10.703 v -31.31585 q 3.1396,0 5.2801,-1.04386 2.2834,-1.04386 4.7094,-3.54913 1.4271,-1.67017 2.2832,-2.71403 0.999,-1.25263 1.998,-3.13159 v -26.09653 q 0,-0.62632 -0.7136,-1.87896 -0.7135,-1.25263 -1.7125,-2.50527 -0.8562,-1.4614 -1.8551,-2.71404 -0.999,-1.25262 -1.5699,-1.87893 -1.7125,-1.87896 -4.1385,-3.34036 -2.2832,-1.67018 -4.2811,-3.34036 3.5676,-2.08772 5.9937,-4.38422 2.5688,-2.29649 5.2801,-6.26317 l 2.9969,-5.01054 v -26.09652 q 0,-1.87896 -1.5698,-3.54915 -1.5699,-1.87894 -3.8531,-3.13158 -2.1407,-1.4614 -4.5667,-2.50527 -2.4259,-1.04385 -4.2811,-1.25263 V 81.177991 h 10.703 q 3.425,2.505268 4.8521,6.054396 1.427,3.549129 2.2831,9.603526 0.4283,-5.845624 1.8553,-9.185981 1.5698,-3.549129 5.2802,-6.471941 h 10.7029 v 31.315839 q -3.853,0 -8.1343,2.50527 -4.2812,2.50527 -6.1363,7.93336 v 26.09652 q 0,0.62633 0.8562,1.67018 0.8562,0.83509 1.9979,1.67018 1.1416,0.62632 2.2833,1.25263 1.1417,0.62633 1.7124,0.62633 l 4.9949,-5.42808 26.8287,-31.10708 q 0.8563,-1.04386 0.8563,-1.67018 0,-1.04386 -1.2844,-1.67017 -1.1417,-0.62633 -2.9968,-1.04387 -1.7126,-0.41754 -3.5677,-0.41754 -1.8552,-0.20877 -3.1395,-0.41755 V 81.177991 Z m -408.28244,0 v 41.754469 h -7.13533 q -0.99894,-1.67019 -3.42495,-4.80177 -2.28331,-3.13159 -4.99473,-4.593 -0.99895,-0.41754 -2.42602,-0.62631 -1.42706,-0.20877 -3.42495,-0.41755 h -14.27064 q -4.42391,0 -8.41969,2.2965 -3.85308,2.2965 -5.85096,8.14213 v 26.09652 q 0,0.62633 0.71352,1.87895 0.71354,1.25264 1.71249,2.71404 0.99894,1.46142 1.85518,2.71404 0.99894,1.25264 1.42707,1.67019 h 19.26537 q 1.99789,0 2.56872,-3.7579 0.71352,-3.75791 0.99894,-5.21932 h 7.13533 v 31.31585 h -7.13533 q 0,-1.67018 -0.99894,-4.80177 -0.85624,-3.13158 -2.56872,-4.17543 h -19.26537 q -1.14166,0.83508 -3.28225,4.17543 -2.1406,3.34035 -2.42601,4.80177 v 26.09653 q 0,0.83508 1.71247,2.92281 1.71248,2.08772 2.42601,3.13159 1.99789,1.87894 4.4239,2.92281 2.42601,1.04386 5.70827,1.4614 h 14.27064 q 9.56134,0 14.27065,-10.43861 h 7.13533 v 41.75446 h -46.37962 q -3.56765,-2.71404 -4.99472,-6.05439 -1.28436,-3.54913 -2.1406,-9.60353 -0.42811,5.63684 -1.85519,9.18598 -1.42706,3.54912 -5.28013,6.47194 h -10.70299 v -31.31585 q 3.13954,0 5.28013,-1.04386 2.28331,-1.04386 4.70932,-3.54913 1.42707,-1.67017 2.28331,-2.71403 0.99894,-1.25263 1.99789,-3.13159 v -26.09653 q 0,-1.25264 -1.14166,-3.13159 -0.99894,-1.87895 -2.56871,-3.54912 -1.56978,-1.87895 -3.28225,-3.34037 -1.71248,-1.67017 -2.99683,-2.50526 -3.71037,-2.50526 -3.56767,-2.71404 0.14271,-0.41754 3.71037,-3.34035 3.28225,-2.08772 5.42284,-5.42809 2.1406,-3.54913 4.42391,-7.30703 v -26.09652 q 0,-1.87896 -1.56978,-3.54915 -1.56976,-1.87894 -3.85307,-3.13158 -2.1406,-1.4614 -4.5666,-2.50527 -2.42602,-1.04385 -4.2812,-1.25263 V 81.177991 h 10.8457 q 3.99578,2.922812 5.13742,6.889485 1.28437,3.966674 1.85519,9.185982 0.42812,-6.054397 1.85518,-9.394753 1.42707,-3.54913 5.28014,-6.680714 z M 582.24755,201.22205 V 175.12551 H 560.84158 V 154.2483 h 28.5413 v 52.19306 q 0,16.28424 -7.13533,29.22812 -7.13532,12.52634 -18.55184,12.52634 H 543.7168 q -12.13005,0 -18.83726,-11.69125 -6.84992,-11.69125 -6.84992,-35.28252 v -20.87722 q 0,-0.62632 -0.71352,-1.87896 -0.71354,-1.25263 -1.71249,-2.50527 -0.85623,-1.4614 -1.85518,-2.71404 -0.99895,-1.25262 -1.56977,-1.87893 -1.71248,-1.87896 -4.13849,-3.34036 -2.28331,-1.67018 -4.2812,-3.34036 3.56767,-2.08772 5.99367,-4.38422 2.56872,-2.29649 5.28015,-6.26317 l 2.99683,-5.01054 v -26.09652 q 0,-24.00882 8.70511,-32.986033 8.70509,-8.768436 16.98207,-8.768436 h 19.97891 q 8.7051,0 17.12478,8.559664 8.13427,8.350892 8.41968,29.436895 l 0.14271,3.75791 h -8.27697 q -1.14166,-3.1316 -3.42496,-6.68073 -2.1406,-3.7579 -6.84991,-3.7579 h -34.24957 q -4.99472,0 -8.27698,6.26318 -3.13954,6.26316 -3.13954,14.61405 v 15.65792 q 0,2.08773 1.56978,4.38422 1.71247,2.29649 3.99578,4.38422 2.2833,2.08773 4.70931,3.96668 2.42601,1.87894 3.99578,2.92281 -1.99789,1.25264 -4.2812,2.92281 -2.2833,1.4614 -4.13848,3.54913 -0.99894,1.04386 -3.28225,4.38421 -2.1406,3.13159 -2.56872,4.80177 v 15.0316 q 0,7.93335 2.85413,14.82283 2.85413,6.68071 8.56239,6.68071 h 34.24957 q 3.99578,0 7.70615,-4.59299 3.71036,-4.59298 3.71036,-11.06493 z m -84.90994,-88.72822 q -3.85307,0 -8.13427,2.50527 -4.2812,2.50527 -6.13639,7.93336 v 26.09652 q 0,2.08773 1.56978,4.38422 1.71247,2.29649 3.99578,4.38422 2.28331,2.08773 4.70932,3.96668 2.42601,1.87894 3.99578,2.92281 -1.9979,1.25264 -4.2812,2.92281 -2.2833,1.4614 -4.13849,3.54913 -0.99894,1.04386 -3.28225,4.38421 -2.14059,3.13159 -2.56872,4.80177 v 26.09653 q 0,1.46141 1.28437,3.13159 1.42706,1.4614 3.13954,3.13157 2.71142,2.08773 4.70931,2.92281 1.9979,0.8351 5.13744,1.25264 v 31.31585 h -10.70299 q -3.56767,-2.71404 -4.99473,-6.05439 -1.28435,-3.54913 -2.1406,-9.60353 -0.42812,5.63684 -1.85518,9.18598 -1.42707,3.54912 -5.28014,6.47194 h -10.70299 v -31.31585 h 5.70826 l -33.53603,-72.02644 -6.42179,-14.40528 q -2.42601,-5.01054 -4.13849,-6.26316 -1.71248,-1.25263 -4.4239,-1.25263 v 26.09652 q 0,2.08773 1.56977,4.38422 1.71247,2.29649 3.99578,4.38422 2.28331,2.08773 4.70932,3.96668 2.42601,1.87894 3.99578,2.92281 -1.9979,1.25264 -4.2812,2.92281 -2.28329,1.4614 -4.13849,3.54913 -0.99894,1.04386 -3.28224,4.38421 -2.14061,3.13159 -2.56872,4.80177 v 26.09653 q 0,1.46141 1.28436,3.13159 1.42706,1.4614 3.13954,3.13157 2.71142,2.08773 4.70932,2.92281 1.99789,0.8351 5.13743,1.25264 v 31.31585 h -10.70299 q -3.56766,-2.71404 -4.99472,-6.05439 -1.28437,-3.54913 -2.14061,-9.60353 -0.42811,5.63684 -1.85517,9.18598 -1.42707,3.54912 -5.28015,6.47194 h -10.70299 v -31.31585 q 3.13955,0 5.28014,-1.04386 2.2833,-1.04386 4.70932,-3.54913 1.42706,-1.67017 2.28331,-2.71403 0.99894,-1.25263 1.99788,-3.13159 v -26.09653 q 0,-0.62632 -0.71353,-1.87896 -0.71353,-1.25263 -1.71248,-2.50527 -0.85624,-1.4614 -1.85518,-2.71404 -0.99895,-1.25262 -1.56978,-1.87893 -1.71247,-1.87896 -4.13848,-3.34036 -2.28331,-1.67018 -4.2812,-3.34036 3.56766,-2.08772 5.99368,-4.38422 2.56871,-2.29649 5.28013,-6.26317 l 2.99684,-5.01054 v -26.09652 q 0,-1.87896 -1.56977,-3.54915 -1.56977,-1.87894 -3.85307,-3.13158 -2.1406,-1.4614 -4.56661,-2.50527 -2.42602,-1.04385 -4.2812,-1.25263 V 81.177991 h 10.70299 q 3.42495,2.505268 4.85202,6.054396 1.42706,3.549129 2.2833,9.603526 0.42812,-5.845624 1.85519,-9.185981 1.56977,-3.549129 5.28014,-6.471941 h 10.70299 v 31.315839 h -5.70826 l 33.53603,72.02644 6.27909,13.98774 q 1.85517,4.17545 3.71037,6.0544 1.99788,1.87895 4.99472,1.87895 v -26.09653 q 0,-0.62632 -0.71353,-1.87896 -0.71354,-1.25263 -1.71247,-2.50527 -0.85625,-1.4614 -1.8552,-2.71404 -0.99894,-1.25262 -1.56976,-1.87893 -1.71248,-1.87896 -4.1385,-3.34036 -2.2833,-1.67018 -4.28119,-3.34036 3.56766,-2.08772 5.99367,-4.38422 2.56872,-2.29649 5.28014,-6.26317 l 2.99684,-5.01054 v -26.09652 q 0,-1.87896 -1.56977,-3.54915 -1.56978,-1.87894 -3.85308,-3.13158 -2.14059,-1.4614 -4.56661,-2.50527 -2.426,-1.04385 -4.28119,-1.25263 V 81.177991 h 10.70299 q 3.42495,2.505268 4.85202,6.054396 1.42707,3.549129 2.2833,9.603526 0.42812,-5.845624 1.85519,-9.185981 1.56977,-3.549129 5.28014,-6.471941 h 10.70299 z M 221.34285,80.968543 c -1.61734,0.139182 -3.13829,0.209497 -4.56535,0.209497 h -3.56886 c -3.90064,0 -6.99132,0.973498 -9.27463,2.92204 -2.2833,1.948541 -3.66338,6.19411 -4.13906,12.735643 -0.57082,-4.036265 -1.3313,-7.238021 -2.28267,-9.604107 -0.95138,-2.366086 -2.5699,-4.383397 -4.8532,-6.053576 h -10.7029 v 31.31537 c 1.2368,0.13918 2.66383,0.55743 4.28116,1.25333 1.61735,0.69592 3.14011,1.53061 4.56718,2.50487 1.5222,0.83509 2.80653,1.87891 3.85304,3.13154 1.04651,1.11346 1.57037,2.29607 1.57037,3.54871 v 26.09796 c -1.5222,2.50527 -2.99802,4.94082 -4.42508,7.30691 -1.42707,2.22691 -3.23342,4.03509 -5.42158,5.42691 -2.37845,1.94854 -3.61582,3.06267 -3.71095,3.34103 -0.0951,0.13919 1.09345,1.04419 3.56702,2.71437 0.85625,0.55673 1.85516,1.39141 2.99681,2.50486 1.14166,0.97428 2.23632,2.0884 3.28283,3.34104 1.04652,1.11345 1.90274,2.29607 2.5687,3.54871 0.7611,1.25263 1.14225,2.29644 1.14225,3.13153 v 26.09613 c -0.66596,1.25265 -1.33252,2.29646 -1.99848,3.13155 -0.57083,0.6959 -1.3313,1.60091 -2.28268,2.71436 -1.61734,1.67018 -3.18708,2.8528 -4.70928,3.54871 -1.42706,0.6959 -3.18828,1.04384 -5.28131,1.04384 v 31.31537 h 10.7029 c 2.56871,-1.94855 4.32994,-4.10467 5.28131,-6.47075 0.95138,-2.36609 1.56914,-5.42904 1.85456,-9.18693 0.57082,4.03626 1.28434,7.23801 2.14059,9.60411 0.95138,2.2269 2.61684,4.24421 4.99529,6.05357 h 10.70289 v -31.31537 c -2.18816,-0.27836 -4.09208,-0.76512 -5.70942,-1.46102 -1.61734,-0.69591 -3.09134,-1.67123 -4.42326,-2.92385 -0.47569,-0.69592 -1.28494,-1.73973 -2.4266,-3.13154 -1.14165,-1.39182 -1.71246,-2.36532 -1.71246,-2.92205 v -26.09613 c 0.19028,-0.97427 0.99954,-2.57515 2.4266,-4.80205 1.42706,-2.2269 2.52173,-3.61866 3.28283,-4.17538 h 23.54637 c 4.09092,1.11345 7.32613,3.96728 9.70457,8.56026 2.47358,4.45381 3.70912,9.81168 3.70912,16.07486 0,6.26316 -1.14162,11.55254 -3.42493,15.86718 -2.18816,4.31462 -5.75573,5.984 -10.7029,5.00972 v 31.31537 h 10.7029 c 2.56872,-1.94855 4.32993,-4.10467 5.28131,-6.47075 0.95139,-2.36609 1.56915,-5.42904 1.85456,-9.18693 0.57084,4.03626 1.28435,7.23802 2.14059,9.60411 0.95137,2.2269 2.61685,4.24421 4.99529,6.05357 h 10.7029 v -31.31537 c -0.95138,0.55673 -2.18874,0.62704 -3.71094,0.2095 -1.42708,-0.55673 -2.42599,-1.04529 -2.99682,-1.46284 -2.18816,-1.94854 -3.99634,-3.89554 -5.42341,-5.84407 -1.42706,-2.08773 -2.14058,-4.94155 -2.14058,-8.56027 -0.0951,-17.67605 -1.99723,-27.97538 -5.7076,-30.89819 -3.8055,-3.34035 -6.65957,-5.21886 -8.56232,-5.6364 3.23469,-1.25263 6.4211,-4.17677 9.56064,-8.76976 3.13955,-4.87135 4.70928,-15.86656 4.70928,-32.98588 0,-13.77898 -2.51987,-24.146794 -7.56216,-31.105867 -5.13744,-7.098258 -10.9413,-10.647953 -17.41066,-10.647953 -0.0951,-0.139181 -0.7129,-0.209497 -1.85456,-0.209497 z m -3.70913,31.524867 h 17.83877 c 4.18606,1.94854 6.99134,4.3841 8.41841,7.30691 1.52219,2.78363 2.28449,7.30682 2.28449,13.57 -0.19027,9.04679 -1.99845,15.37999 -5.42341,18.99871 -3.61523,3.75791 -6.32659,5.6364 -8.1342,5.6364 h -23.54637 c -0.28542,-0.27837 -0.76231,-0.83361 -1.42827,-1.6687 -0.57083,-0.83508 -1.1886,-1.74008 -1.85456,-2.71435 -0.66596,-0.97428 -1.23677,-1.87928 -1.71247,-2.71437 -0.47569,-0.83508 -0.71413,-1.46064 -0.71413,-1.87819 v -26.09796 c 1.23679,-3.61872 3.23463,-6.26341 5.99362,-7.93359 2.85414,-1.67018 5.61427,-2.50487 8.27812,-2.50486 z m 89.47623,-31.31537 v 31.31537 c 0.95137,0.27836 2.18875,0.41717 3.71095,0.41717 1.52219,0 2.18693,0.55707 1.99665,1.67052 l -8.2763,34.8659 c -0.47568,1.25263 -1.28494,2.57406 -2.42659,3.96588 -1.14166,1.25263 -2.3772,2.50556 -3.70912,3.75821 -1.2368,1.11344 -2.47416,2.15726 -3.71095,3.13153 -1.14165,0.83509 -1.99787,1.39215 -2.56869,1.67051 -0.95139,0.55674 -1.85456,1.04348 -2.7108,1.46103 -0.85624,0.41754 -1.71246,0.83579 -2.5687,1.25334 1.23679,0.83509 2.52111,1.73827 3.85305,2.71254 1.42706,0.97428 2.66261,2.01991 3.70912,3.13336 1.14165,0.97427 1.99787,2.08657 2.5687,3.33922 0.57082,1.25262 0.71352,2.57588 0.42811,3.9677 l -6.56384,28.18383 c -0.7611,3.34036 -1.94968,5.98504 -3.56702,7.93359 -1.52221,1.94853 -3.52005,2.92203 -5.99363,2.92203 h -7.27978 v 31.31537 h 10.70472 c 2.56871,-1.94855 4.32811,-4.10467 5.27948,-6.47075 0.95138,-2.36609 1.56915,-5.42904 1.85457,-9.18693 0.57082,4.03626 1.28433,7.23802 2.14058,9.60411 0.95137,2.2269 2.61684,4.24421 4.99529,6.05357 h 10.7029 v -31.31537 h -7.13587 c -1.71249,0 -3.13951,-0.90501 -4.28117,-2.71436 -1.14165,-1.94854 -1.33132,-4.24529 -0.57021,-6.88974 l 5.99362,-25.88664 c 0.28541,-1.11346 0.80927,-2.22758 1.57037,-3.34103 0.85624,-1.25263 1.75941,-2.36495 2.71079,-3.33922 1.04651,-0.97427 2.0924,-1.74046 3.13891,-2.29719 1.14165,-0.6959 2.09361,-1.04384 2.85472,-1.04384 h 22.26203 c 0.7611,0 1.66427,0.34794 2.71079,1.04384 1.14164,0.69591 2.23631,1.60092 3.28283,2.71437 1.04651,0.97427 1.94969,2.08658 2.71079,3.3392 0.85623,1.11346 1.38008,2.15727 1.57036,3.13155 l 5.99362,25.88845 c 0.38056,2.08773 -5.8e-4,4.17535 -1.14225,6.26308 -1.0465,2.08772 -2.28204,3.13153 -3.70912,3.13153 h -7.13587 v 31.31537 h 10.41688 c 2.56872,-1.94855 4.32994,-4.10467 5.28131,-6.47075 0.95138,-2.36609 1.56915,-5.42904 1.85456,-9.18693 0.57084,4.03626 1.28435,7.23801 2.14058,9.60411 0.95138,2.2269 2.61685,4.24421 4.9953,6.05357 h 10.98891 v -31.31537 h -7.13587 c -4.85202,0 -8.08723,-3.61819 -9.70457,-10.85562 l -6.56384,-28.18383 c 0.19028,-2.64444 0.80805,-4.73207 1.85456,-6.26307 1.04651,-1.531 2.42659,-2.85426 4.13906,-3.96771 0.85625,-0.55673 1.61672,-1.04347 2.28268,-1.46102 0.76111,-0.55672 1.52341,-1.04348 2.28451,-1.46102 l -9.84667,-6.26307 c -0.0951,-0.13919 -0.57203,-0.62776 -1.42827,-1.46284 -0.85624,-0.97426 -1.75942,-1.94776 -2.71079,-2.92205 -0.85623,-1.11344 -1.71246,-2.08694 -2.5687,-2.92203 -0.7611,-0.97427 -1.14225,-1.53133 -1.14225,-1.67051 l -8.56231,-34.8659 c 0,-0.97427 0.38115,-1.53134 1.14225,-1.67052 0.57082,-0.27837 1.23555,-0.41718 1.99665,-0.41717 h 2.5687 V 81.17804 h -10.7029 c -2.56871,2.087724 -4.32812,4.314161 -5.27949,6.680248 -0.95138,2.226904 -1.56915,5.358344 -1.85456,9.394608 -0.57083,-3.757901 -1.33313,-6.957836 -2.2845,-9.602285 -0.85624,-2.644448 -2.47293,-4.802392 -4.85137,-6.472571 z m 12.98557,31.31537 h 9.70457 l 9.27645,38.6241 c 0.19028,1.53099 0.0945,3.06156 -0.28602,4.59256 -0.38055,1.531 -1.23676,2.29536 -2.56868,2.29536 h -22.26203 c -1.14166,0 -1.99788,-0.76436 -2.5687,-2.29536 -0.47569,-1.67018 -0.57143,-3.20075 -0.28602,-4.59256 z M 777.89718,80.968543 c -1.61734,0.139182 -3.14011,0.209497 -4.56718,0.209497 h -3.56702 c -3.90065,0 -6.99315,0.973498 -9.27645,2.92204 -2.28331,1.948541 -3.66155,6.19411 -4.13724,12.735643 -0.57083,-4.036265 -1.33313,-7.238021 -2.2845,-9.604107 -0.95138,-2.366086 -2.56807,-4.383397 -4.85138,-6.053576 h -10.70289 v 31.31537 c 1.23679,0.13918 2.66382,0.55743 4.28115,1.25333 1.61735,0.69592 3.14012,1.53061 4.56718,2.50487 1.5222,0.83509 2.80652,1.87891 3.85305,3.13154 1.04651,1.11346 1.56854,2.29607 1.56854,3.54871 v 26.09796 c -1.5222,2.50527 -2.99619,4.94082 -4.42326,7.30691 -1.42706,2.22691 -3.23524,4.03509 -5.4234,5.42691 -2.37845,1.94854 -3.614,3.06267 -3.70914,3.34103 -0.0951,0.13919 1.09345,1.04419 3.56703,2.71437 0.85624,0.55673 1.85517,1.39141 2.99681,2.50486 1.14166,0.97428 2.23633,2.0884 3.28283,3.34104 1.04652,1.11345 1.90274,2.29607 2.5687,3.54871 0.7611,1.25263 1.14043,2.29644 1.14043,3.13153 v 26.09613 c -0.66596,1.25265 -1.33069,2.29646 -1.99666,3.13155 -0.57083,0.6959 -1.33312,1.60091 -2.2845,2.71436 -1.61733,1.67018 -3.18707,2.8528 -4.70927,3.54871 -1.42708,0.6959 -3.18647,1.04384 -5.27949,1.04384 v 31.31537 h 10.70289 c 2.56871,-1.94855 4.32811,-4.10467 5.27949,-6.47075 0.95138,-2.36609 1.57097,-5.42904 1.85639,-9.18693 0.57083,4.03626 1.28434,7.23801 2.14057,9.60411 0.95138,2.2269 2.61503,4.24421 4.99348,6.05357 h 10.7029 v -31.31537 c -2.18817,-0.27836 -4.09026,-0.76512 -5.70762,-1.46102 -1.61733,-0.69591 -3.09132,-1.67123 -4.42325,-2.92385 -0.47569,-0.69592 -1.28495,-1.73973 -2.42659,-3.13154 -1.14166,-1.39182 -1.71247,-2.36532 -1.71247,-2.92205 v -26.09613 c 0.19027,-0.97427 0.99952,-2.57515 2.4266,-4.80205 1.42706,-2.2269 2.5199,-3.61866 3.28101,-4.17538 h 23.54819 c 6.18396,-2.50527 11.12977,-7.72433 14.84014,-15.65768 3.90063,-7.93334 5.85153,-18.86006 5.85153,-32.77821 -0.0951,-13.91816 -2.61684,-24.285971 -7.564,-31.105867 -5.13743,-7.098258 -10.93947,-10.647953 -17.40883,-10.647953 -0.0951,-0.139181 -0.71473,-0.209497 -1.85638,-0.209497 z m -3.71094,31.524867 h 17.83877 c 4.18605,1.94854 6.99315,4.3841 8.42021,7.30691 1.52221,2.78363 2.28268,7.30682 2.28269,13.57 -0.19028,9.04679 -1.99664,15.37999 -5.42159,18.99871 -3.61524,3.75791 -6.32659,5.6364 -8.13421,5.6364 h -23.54819 c -0.28542,-0.27837 -0.76048,-0.83361 -1.42645,-1.6687 -0.57082,-0.83508 -1.1886,-1.74008 -1.85456,-2.71435 -0.66597,-0.97428 -1.23679,-1.87928 -1.71247,-2.71437 -0.47569,-0.83508 -0.71413,-1.46064 -0.71413,-1.87819 v -26.09796 c 1.2368,-3.61872 3.23464,-6.26341 5.99362,-7.93359 2.85413,-1.67018 5.61245,-2.50487 8.27631,-2.50486 z m 58.22558,-31.31537 v 31.31537 c 0.95138,0.27836 2.18692,0.41717 3.70913,0.41717 1.52219,0 2.18875,0.55707 1.99847,1.67052 l -8.27629,34.8659 c -0.4757,1.25263 -1.28496,2.57406 -2.42661,3.96588 -1.14164,1.25263 -2.379,2.50556 -3.71094,3.75821 -1.23679,1.11344 -2.47234,2.15726 -3.70912,3.13153 -1.14165,0.83509 -1.99787,1.39215 -2.5687,1.67051 -0.95137,0.55674 -1.85637,1.04348 -2.71261,1.46103 -0.85624,0.41754 -1.71246,0.83579 -2.5687,1.25334 1.23679,0.83509 2.52112,1.73827 3.85304,2.71254 1.42707,0.97428 2.66443,2.01991 3.71095,3.13336 1.14165,0.97427 1.99787,2.08657 2.56869,3.33922 0.57083,1.25262 0.71354,2.57588 0.42812,3.9677 l -6.56383,28.18383 c -0.76111,3.34036 -1.95152,5.98504 -3.56885,7.93359 -1.5222,1.94853 -3.52004,2.92203 -5.99363,2.92203 h -7.27797 v 31.31537 h 10.7029 c 2.56872,-1.94855 4.32994,-4.10467 5.28131,-6.47075 0.95138,-2.36609 1.56915,-5.42904 1.85456,-9.18693 0.57084,4.03626 1.28435,7.23802 2.14058,9.60411 0.95138,2.2269 2.61686,4.24421 4.9953,6.05357 h 10.70289 v -31.31537 h -7.13587 c -1.71247,0 -3.13951,-0.90501 -4.28115,-2.71436 -1.14166,-1.94854 -1.33132,-4.24529 -0.57022,-6.88974 l 5.99362,-25.88664 c 0.28541,-1.11346 0.80744,-2.22758 1.56855,-3.34103 0.85623,-1.25263 1.76124,-2.36495 2.71261,-3.33922 1.04652,-0.97427 2.0924,-1.74046 3.13891,-2.29719 1.14165,-0.6959 2.09361,-1.04384 2.85471,-1.04384 h 22.26203 c 0.76108,0 1.66428,0.34794 2.71079,1.04384 1.14168,0.69591 2.23632,1.60092 3.28283,2.71437 1.04651,0.97427 1.94967,2.08658 2.7108,3.3392 0.85624,1.11346 1.3801,2.15727 1.57037,3.13155 l 5.99362,25.88845 c 0.38054,2.08773 -5.8e-4,4.17535 -1.14225,6.26308 -1.04652,2.08772 -2.2839,3.13153 -3.71095,3.13153 h -7.13404 v 31.31537 h 10.41687 c 2.56872,-1.94855 4.32996,-4.10467 5.28131,-6.47075 0.9514,-2.36609 1.56918,-5.42904 1.85456,-9.18693 0.57081,4.03626 1.28434,7.23801 2.14059,9.60411 0.9514,2.2269 2.61682,4.24421 4.99528,6.05357 h 10.9871 v -31.31537 h -7.13406 c -4.85201,0 -8.08724,-3.61819 -9.70456,-10.85562 l -6.56383,-28.18383 c 0.19027,-2.64444 0.80804,-4.73207 1.85456,-6.26307 1.04651,-1.531 2.42657,-2.85426 4.13906,-3.96771 0.85624,-0.55673 1.61671,-1.04347 2.28267,-1.46102 0.76109,-0.55672 1.52155,-1.04348 2.28268,-1.46102 l -9.84666,-6.26307 c -0.0952,-0.13919 -0.57021,-0.62776 -1.42645,-1.46284 -0.85625,-0.97426 -1.75944,-1.94776 -2.7108,-2.92205 -0.85624,-1.11344 -1.71427,-2.08694 -2.57051,-2.92203 -0.76113,-0.97427 -1.14043,-1.53133 -1.14043,-1.67051 l -8.56232,-34.8659 c 0,-0.97427 0.3793,-1.53134 1.14043,-1.67052 0.57081,-0.27837 1.23739,-0.41718 1.99848,-0.41717 h 2.5687 V 81.17804 h -10.7029 c -2.56873,2.087724 -4.32814,4.314161 -5.27948,6.680248 -0.95141,2.226904 -1.57102,5.358344 -1.85639,9.394608 -0.57087,-3.757901 -1.33133,-6.957836 -2.28268,-9.602285 -0.85624,-2.644448 -2.47293,-4.802392 -4.85138,-6.472571 z m 12.98558,31.31537 h 9.70457 l 9.27462,38.6241 c 0.19028,1.53099 0.0964,3.06156 -0.28419,4.59256 -0.38054,1.531 -1.23676,2.29536 -2.5687,2.29536 h -22.26203 c -1.14164,0 -1.99787,-0.76436 -2.56869,-2.29536 -0.47569,-1.67018 -0.57144,-3.20075 -0.28602,-4.59256 z M 962.13094,80.968543 c -1.61737,0.139182 -3.13831,0.209497 -4.56535,0.209497 h -3.56885 c -3.90061,0 -6.99316,0.973498 -9.27646,2.92204 -2.28334,1.948541 -3.66159,6.19411 -4.13723,12.735643 -0.57087,-4.036265 -1.33316,-7.238021 -2.2845,-9.604107 -0.9514,-2.366086 -2.56808,-4.383397 -4.85137,-6.053576 h -10.7029 v 31.31537 c 1.23677,0.13918 2.66383,0.55743 4.28116,1.25333 1.61737,0.69592 3.14012,1.53061 4.56717,2.50487 1.52221,0.83509 2.80654,1.87891 3.85304,3.13154 1.04652,1.11346 1.56855,2.29607 1.56855,3.54871 v 26.09796 c -1.52222,2.50527 -2.99621,4.94082 -4.42325,7.30691 -1.42706,2.22691 -3.23523,4.03509 -5.42342,5.42691 -2.37845,1.94854 -3.61401,3.06267 -3.70912,3.34103 -0.0952,0.13919 1.09346,1.04419 3.56703,2.71437 0.85624,0.55673 1.85513,1.39141 2.99681,2.50486 1.14167,0.97428 2.23632,2.0884 3.28282,3.34104 1.04653,1.11345 1.90273,2.29607 2.5687,3.54871 0.76109,1.25263 1.14043,2.29644 1.14043,3.13153 v 26.09613 c -0.66598,1.25265 -1.33069,2.29646 -1.99666,3.13155 -0.57081,0.6959 -1.3331,1.60091 -2.2845,2.71436 -1.61732,1.67018 -3.18705,2.8528 -4.70928,3.54871 -1.42704,0.6959 -3.18646,1.04384 -5.27948,1.04384 v 31.31537 h 10.7029 c 2.56873,-1.94855 4.32808,-4.10467 5.27948,-6.47075 0.95136,-2.36609 1.57095,-5.42904 1.85639,-9.18693 0.5708,4.03626 1.28434,7.23801 2.14058,9.60411 0.95135,2.2269 2.61502,4.24421 4.99346,6.05357 h 10.70473 v -31.31537 c -2.18814,-0.27836 -4.09205,-0.76512 -5.70943,-1.46102 -1.61732,-0.69591 -3.09131,-1.67123 -4.42325,-2.92385 -0.47566,-0.69592 -1.28493,-1.73973 -2.42661,-3.13154 -1.14167,-1.39182 -1.71245,-2.36532 -1.71245,-2.92205 v -26.09613 c 0.19031,-0.97427 0.99954,-2.57515 2.42659,-4.80205 1.42705,-2.2269 2.51993,-3.61866 3.28101,-4.17538 h 23.54819 c 4.09095,1.11345 7.3243,3.96728 9.70275,8.56026 2.47357,4.45381 3.71095,9.81168 3.71095,16.07486 0,6.26316 -1.14164,11.55254 -3.42494,15.86718 -2.18818,4.31462 -5.75571,5.984 -10.70289,5.00972 v 31.31537 h 10.70289 c 2.56873,-1.94855 4.32814,-4.10467 5.2795,-6.47075 0.9514,-2.36609 1.571,-5.42904 1.85638,-9.18693 0.57081,4.03626 1.28434,7.23802 2.14058,9.60411 0.9514,2.2269 2.61501,4.24421 4.99347,6.05357 h 10.70294 v -31.31537 c -0.9514,0.55673 -2.187,0.62704 -3.7092,0.2095 -1.4271,-0.55673 -2.426,-1.04529 -2.9968,-1.46284 -2.18816,-1.94854 -3.99633,-3.89554 -5.42338,-5.84407 -1.42705,-2.08773 -2.14059,-4.94155 -2.14059,-8.56027 -0.0952,-17.67605 -1.99725,-27.97538 -5.7076,-30.89819 -3.80551,-3.34035 -6.65957,-5.21886 -8.56231,-5.6364 3.23469,-1.25263 6.42111,-4.17677 9.56065,-8.76976 3.13953,-4.87135 4.70926,-15.86656 4.70926,-32.98588 0,-13.77898 -2.5217,-24.146794 -7.56398,-31.105867 -5.13745,-7.098258 -10.93949,-10.647953 -17.40883,-10.647953 -0.0952,-0.139181 -0.71476,-0.209497 -1.85639,-0.209497 z m -3.70912,31.524867 h 17.83694 c 4.18606,1.94854 6.99313,4.3841 8.42023,7.30691 1.52217,2.78363 2.28267,7.30682 2.28267,13.57 -0.19027,9.04679 -1.99667,15.37999 -5.42159,18.99871 -3.61523,3.75791 -6.32655,5.6364 -8.1342,5.6364 h -23.54819 c -0.28538,-0.27837 -0.76048,-0.83361 -1.42645,-1.6687 -0.57081,-0.83508 -1.1886,-1.74008 -1.85456,-2.71435 -0.66598,-0.97428 -1.23676,-1.87928 -1.71246,-2.71437 -0.4757,-0.83508 -0.71413,-1.46064 -0.71413,-1.87819 v -26.09796 c 1.23683,-3.61872 3.23462,-6.26341 5.99362,-7.93359 2.8541,-1.67018 5.61428,-2.50487 8.27812,-2.50486 z" />
</svg>
