<?xml version="1.0" encoding="UTF-8" standalone="no"?>
<svg
   xmlns:dc="http://purl.org/dc/elements/1.1/"
   xmlns:cc="http://creativecommons.org/ns#"
   xmlns:rdf="http://www.w3.org/1999/02/22-rdf-syntax-ns#"
   xmlns:svg="http://www.w3.org/2000/svg"
   xmlns="http://www.w3.org/2000/svg"
   xmlns:sodipodi="http://sodipodi.sourceforge.net/DTD/sodipodi-0.dtd"
   xmlns:inkscape="http://www.inkscape.org/namespaces/inkscape"
   version="1.1"
   width="11.5in"
   height="4in"
   id="svg5276"
   inkscape:version="1.0.1 (3bc2e813f5, 2020-09-07)"
   sodipodi:docname="Rivendell Direction Sign for Lamp Post.svg"
   inkscape:export-filename="C:\Users\Klemen\Downloads\The Chronicles of Narnia logo.png"
   inkscape:export-xdpi="1500.2426"
   inkscape:export-ydpi="1500.2426"
   viewBox="0 0 1104 384">
  <sodipodi:namedview
     pagecolor="#ffffff"
     bordercolor="#666666"
     borderopacity="1"
     objecttolerance="10"
     gridtolerance="10"
     guidetolerance="10"
     inkscape:pageopacity="0"
     inkscape:pageshadow="2"
     inkscape:window-width="1904"
     inkscape:window-height="996"
     id="namedview67"
     showgrid="true"
     inkscape:zoom="1.044997"
     inkscape:cx="572.02"
     inkscape:cy="168.69086"
     inkscape:window-x="11"
     inkscape:window-y="10"
     inkscape:window-maximized="0"
     inkscape:current-layer="svg5276"
     fit-margin-top="0"
     fit-margin-left="0"
     fit-margin-right="0"
     fit-margin-bottom="0"
     inkscape:document-rotation="0"
     showguides="false"
     inkscape:snap-nodes="false"
     units="in"
     inkscape:document-units="in">
    <inkscape:grid
       type="xygrid"
       id="grid986"
       units="in"
       spacingx="24"
       spacingy="24"
       empspacing="4" />
  </sodipodi:namedview>
  <defs
     id="defs5278">
    <clipPath
       id="clipPath3717">
      <path
         d="m 427.26,426.42 h 71.64 v 24 h -71.64 z"
         id="path3719"
         inkscape:connector-curvature="0" />
    </clipPath>
    <clipPath
       id="clipPath3733">
      <path
         d="m 427.264,426.42 h 71.589 v 23.968 h -71.589 z"
         id="path3735"
         inkscape:connector-curvature="0" />
    </clipPath>
    <clipPath
       id="clipPath3745">
      <path
         d="m 427.26,426.42 h 71.64 v 24 h -71.64 z"
         id="path3747"
         inkscape:connector-curvature="0" />
    </clipPath>
    <clipPath
       id="clipPath3773">
      <path
         d="m 427.264,426.42 h 71.589 v 23.968 h -71.589 z"
         id="path3775"
         inkscape:connector-curvature="0" />
    </clipPath>
    <clipPath
       id="clipPath3789">
      <path
         d="m 427.26,426.42 h 71.64 v 24 h -71.64 z"
         id="path3791"
         inkscape:connector-curvature="0" />
    </clipPath>
  </defs>
  <metadata
     id="metadata5281">
    <rdf:RDF>
      <cc:Work
         rdf:about="">
        <dc:format>image/svg+xml</dc:format>
        <dc:type
           rdf:resource="http://purl.org/dc/dcmitype/StillImage" />
        <dc:title></dc:title>
      </cc:Work>
    </rdf:RDF>
  </metadata>
  <path
     id="path903"
     style="font-size:266.44px;line-height:1.25;font-family:'Dark Crystal Script';-inkscape-font-specification:'Dark Crystal Script';fill:#6daffd;fill-opacity:1;stroke-width:1"
     d="m 1033.2636,39.375726 2.7519,-4.024343 q 6.3505,1.676809 12.9126,7.713324 l 3.387,1.676809 1.0584,1.006086 -5.0804,142.528818 q 26.0369,9.05477 40.2197,-27.83504 l 6.9855,-3.35362 h 5.9271 v 4.02434 l -0.2117,67.40775 q -5.5037,0 -10.3724,-5.36579 h -3.5986 l -1.6934,-0.67072 -30.2707,0.67072 q -1.2701,0.33536 -2.7519,0.67072 -1.27,0.33537 -2.9635,0.33537 h -2.5402 l -6.5622,1.67681 h -4.4453 l -2.5402,1.00608 h -4.4453 l -2.1168,0.67073 h -16.9346 q 0.8466,-5.70116 4.0219,-12.74376 l 5.9272,-19.11563 0.4233,-3.01826 5.292,-86.85873 q 0,-9.054775 -2.5401,-20.121719 -4.4454,-11.402305 -13.3361,-17.43882 l -0.635,-3.018257 11.2192,-12.073029 2.3285,-2.682896 z m -102.45419,0 2.75185,-4.024343 q 6.35048,1.676809 12.91261,7.713324 l 3.38697,1.676809 1.05841,1.006086 -5.08041,142.528818 q 26.03694,9.05477 40.21969,-27.83504 l 6.9855,-3.35362 h 5.92718 v 4.02434 l -0.21173,67.40775 q -5.50372,0 -10.3724,-5.36579 h -3.59862 l -1.69344,-0.67072 -30.27067,0.67072 q -1.27007,0.33536 -2.75186,0.67072 -1.27006,0.33537 -2.96351,0.33537 h -2.54021 l -6.5622,1.67681 h -4.44531 l -2.5402,1.00608 h -4.4453 l -2.11683,0.67073 h -16.9346 q 0.84668,-5.70116 4.02192,-12.74376 l 5.92717,-19.11563 0.4233,-3.01826 5.29207,-86.85873 q 0,-9.054775 -2.54013,-20.121719 -4.44538,-11.402305 -13.33606,-17.43882 l -0.63504,-3.018257 11.21916,-12.073029 2.32856,-2.682896 z M 849.735,58.491355 q -2.96359,-29.847212 -26.67205,-42.926327 47.2052,0 55.88423,81.828311 h -6.56221 q -25.19018,-6.036515 -41.06637,3.688981 -15.24116,8.71941 -16.51122,17.77418 20.32149,15.09129 44.02996,3.35362 v 44.9385 q -17.99302,-19.45099 -40.00804,-7.71333 l -2.75186,2.34754 q 5.29207,23.47533 23.07343,37.56053 12.48923,7.0426 27.09536,4.02435 28.57714,-11.73767 50.59208,-53.32255 -12.06584,55.33472 -50.59208,74.78571 -38.52625,20.12172 -61.59968,-7.37796 -23.49674,-27.49968 -20.53318,-90.88308 2.96355,-63.383408 65.62163,-68.078475 z m -169.55756,-12.743753 2.54019,-2.682895 q 6.35048,0.335362 14.39442,7.377962 l 11.64254,-9.725496 17.35797,16.097373 2.96355,4.024343 23.0734,29.176488 14.81778,25.487503 q 1.90515,3.68898 3.59861,8.04869 1.69346,4.02434 3.38692,9.05477 l 1.90514,4.3597 q 5.29206,28.50577 -7.62057,54.664 -6.1388,17.43882 -18.83975,29.84721 -9.31403,3.01826 -22.43835,2.6829 h -43.60661 q -5.29206,-7.37797 -10.37245,-20.45708 l -0.42336,-1.67681 q -1.05841,-7.0426 -1.48178,-16.09737 -0.21168,-9.05478 0,-19.78636 V 101.08232 Q 666.20639,81.96669 653.9288,72.241194 Z m 43.39493,66.401658 -22.01499,-25.152141 v 93.230611 l 1.05841,5.36579 2.32851,3.68899 q 26.03696,12.74375 36.83277,-19.11563 6.98552,-26.82896 -18.2047,-58.01762 z m -164.47735,-69.419915 1.69346,-2.682896 q 4.8687,1.006086 9.31404,3.688982 4.65701,2.682895 8.89066,7.713324 v 19.11563 l 0.84673,7.0426 q 15.8762,-24.146058 41.2781,-29.847211 46.1468,5.701153 20.7449,129.785066 l -9.7374,33.20083 q 0,-6.37188 0.63504,-73.44426 -0.42336,-3.01826 -1.05841,-6.37188 -0.42336,-3.68898 -1.27009,-8.04868 -4.02197,-12.07303 -8.46731,-15.76202 -21.37993,-8.719405 -38.52622,13.07912 -8.46731,27.16431 -3.59861,85.18193 2.96356,9.05477 9.52572,14.75592 l -27.9421,6.03652 q -3.5986,-4.69507 -10.16076,-22.46925 l -1.05842,-103.62684 -0.63504,-5.365787 Q 545.33566,78.613071 534.32816,72.241194 Z m -80.22767,15.76201 q -2.96356,-29.847212 -26.67201,-42.926327 47.20521,0 55.8842,81.828311 h -6.56216 q -25.19022,-6.036515 -41.06642,3.688981 -15.24114,8.71941 -16.51124,17.77418 20.32153,15.09129 44.02998,3.35362 v 44.9385 q -17.99302,-19.45099 -40.00801,-7.71333 l -2.75187,2.34754 q 5.29206,23.47533 23.0734,37.56053 12.48927,7.0426 27.09537,4.02435 28.57714,-11.73767 50.59213,-53.32255 -12.06591,55.33472 -50.59213,74.78571 -38.52623,20.12172 -61.59963,-7.37796 -23.49676,-27.49968 -20.53321,-90.88308 2.96356,-63.383408 65.6216,-68.078475 z M 366.8874,38.034278 l 5.08038,-1.67681 h 33.65753 l 13.75936,-0.335362 Q 404.77858,152.72806 378.52994,204.03843 l 18.2047,18.44491 1.05841,1.67681 h -94.41042 l 24.97854,-27.49968 Q 320.95228,125.22838 301.2658,84.984948 L 285.17793,58.491355 h 41.91314 q 1.69346,0 3.17524,0.335362 1.69346,0.335362 3.81029,1.341448 -2.32851,4.695067 -4.02197,12.408391 l 25.61359,92.559894 q 23.0734,-37.8959 29.42388,-116.705952 l -11.85423,-8.048687 q -2.54019,-1.341447 -6.35047,-2.347533 z m -109.01638,8.384048 3.17524,-3.688981 q 4.44533,1.006086 8.89066,3.688981 4.44534,2.682895 9.31404,7.377962 V 198.33728 l 0.42336,6.70724 q 2.32851,9.39013 10.16077,15.42664 l -1.05842,1.34145 -15.66451,5.03043 -4.44533,0.67073 -2.54019,1.00608 h -4.44534 q -9.52571,-4.3597 -11.21917,-26.15823 v -91.5538 q 0,-7.37797 -2.54019,-18.109548 -4.65702,-11.737667 -14.18273,-17.774182 z m -98.22035,-27.164317 2.96356,0.670724 1.90514,1.006085 q 1.2701,0.335362 2.32851,0.670724 1.05841,0 1.90514,0 2.32852,0.670724 5.08039,2.347534 2.96356,1.676809 6.56216,4.359705 l 2.11683,0.670724 10.16076,10.060859 3.59861,5.701152 q 10.16076,27.83504 4.02196,61.706594 -5.08038,8.71941 -38.73791,42.2556 l -1.05842,1.67681 q 8.25562,7.37796 20.32154,5.70115 l 1.05841,0.67073 q -15.8762,66.73702 99.49081,143.19954 -107.53475,13.07912 -158.12689,-140.51665 -2.54019,-10.06085 -2.54019,-22.46925 4.65702,-0.33536 11.64254,-4.69506 l 15.8762,-10.06086 q 0.84673,-0.33536 1.69346,-1.00608 1.05841,-1.00609 2.54019,-2.34754 l 1.27009,-0.67072 6.35048,-6.03652 q 6.98552,-6.37187 10.16076,-21.127798 -2.54019,-10.060857 -9.10235,-17.43882 Q 113.50388,32.668486 10.626151,80.289881 H 7.0275474 Q 49.787426,-7.5749451 159.65067,19.254009 Z m -54.6141,45.944585 1.90515,-0.670724 h 16.29955 q 2.32851,0.335362 4.23365,0.670724 1.90515,0.335362 3.59861,1.006086 l 0.84673,1.676809 Q 110.11695,149.7098 126.83988,248.64157 l 5.50374,14.42056 1.05842,3.35362 H 73.284191 q 6.985521,-6.37188 11.85422,-20.12172 0.211683,-3.01825 0.211683,-6.37187 0.211682,-3.68898 0.211682,-7.37797 V 90.015377 L 82.598221,75.594814 81.539808,69.558299 v -2.347533 z" />
</svg>
