<?xml version="1.0" encoding="UTF-8" standalone="no"?>
<svg
   xmlns:dc="http://purl.org/dc/elements/1.1/"
   xmlns:cc="http://creativecommons.org/ns#"
   xmlns:rdf="http://www.w3.org/1999/02/22-rdf-syntax-ns#"
   xmlns:svg="http://www.w3.org/2000/svg"
   xmlns="http://www.w3.org/2000/svg"
   xmlns:sodipodi="http://sodipodi.sourceforge.net/DTD/sodipodi-0.dtd"
   xmlns:inkscape="http://www.inkscape.org/namespaces/inkscape"
   version="1.1"
   width="11.5in"
   height="4in"
   id="svg5276"
   inkscape:version="1.0.1 (3bc2e813f5, 2020-09-07)"
   sodipodi:docname="Sherwood Forest Direction Sign for Lamp Post.svg"
   inkscape:export-filename="C:\Users\Klemen\Downloads\The Chronicles of Narnia logo.png"
   inkscape:export-xdpi="1500.2426"
   inkscape:export-ydpi="1500.2426"
   viewBox="0 0 1104 384">
  <sodipodi:namedview
     pagecolor="#ffffff"
     bordercolor="#666666"
     borderopacity="1"
     objecttolerance="10"
     gridtolerance="10"
     guidetolerance="10"
     inkscape:pageopacity="0"
     inkscape:pageshadow="2"
     inkscape:window-width="1904"
     inkscape:window-height="996"
     id="namedview67"
     showgrid="true"
     inkscape:zoom="1.044997"
     inkscape:cx="545.13107"
     inkscape:cy="168.69086"
     inkscape:window-x="11"
     inkscape:window-y="10"
     inkscape:window-maximized="0"
     inkscape:current-layer="svg5276"
     fit-margin-top="0"
     fit-margin-left="0"
     fit-margin-right="0"
     fit-margin-bottom="0"
     inkscape:document-rotation="0"
     showguides="false"
     inkscape:snap-nodes="false"
     units="in"
     inkscape:document-units="in">
    <inkscape:grid
       type="xygrid"
       id="grid986"
       units="in"
       spacingx="24"
       spacingy="24"
       empspacing="4" />
  </sodipodi:namedview>
  <defs
     id="defs5278">
    <clipPath
       id="clipPath3717">
      <path
         d="m 427.26,426.42 h 71.64 v 24 h -71.64 z"
         id="path3719"
         inkscape:connector-curvature="0" />
    </clipPath>
    <clipPath
       id="clipPath3733">
      <path
         d="m 427.264,426.42 h 71.589 v 23.968 h -71.589 z"
         id="path3735"
         inkscape:connector-curvature="0" />
    </clipPath>
    <clipPath
       id="clipPath3745">
      <path
         d="m 427.26,426.42 h 71.64 v 24 h -71.64 z"
         id="path3747"
         inkscape:connector-curvature="0" />
    </clipPath>
    <clipPath
       id="clipPath3773">
      <path
         d="m 427.264,426.42 h 71.589 v 23.968 h -71.589 z"
         id="path3775"
         inkscape:connector-curvature="0" />
    </clipPath>
    <clipPath
       id="clipPath3789">
      <path
         d="m 427.26,426.42 h 71.64 v 24 h -71.64 z"
         id="path3791"
         inkscape:connector-curvature="0" />
    </clipPath>
  </defs>
  <metadata
     id="metadata5281">
    <rdf:RDF>
      <cc:Work
         rdf:about="">
        <dc:format>image/svg+xml</dc:format>
        <dc:type
           rdf:resource="http://purl.org/dc/dcmitype/StillImage" />
        <dc:title></dc:title>
      </cc:Work>
    </rdf:RDF>
  </metadata>
  <path
     id="path946"
     style="font-size:198.102px;line-height:1.25;font-family:'Deutsch Gothic';-inkscape-font-specification:'Deutsch Gothic';fill:#005600;fill-opacity:1;stroke-width:0.999996"
     d="m 1097.0563,219.51686 q 0,1.89864 -8.4214,8.7812 -8.2343,6.64523 -10.2928,6.64523 -3.1814,0 -6.9242,-6.40791 -3.5557,-6.64523 -3.5557,-11.39181 V 115.80384 h -10.8542 v -10.91716 q 11.7899,0 22.0827,-11.86648 8.4213,-9.967842 10.2928,-19.461026 h 2.6199 v 24.919605 q 0,4.034601 4.4915,6.407901 v 10.67983 h -3.93 v 90.18524 q 0,3.55994 2.2456,8.54386 2.2458,4.98393 2.2458,5.22125 z m -43.7911,-26.34358 q 0,6.4079 -2.8071,14.00244 -2.8071,7.35722 -7.6729,11.86648 -12.5384,12.10381 -15.3456,14.23978 -2.62,2.13596 -4.8656,2.13596 -2.2458,-3.32261 -8.4214,-8.30653 -6.1757,-4.98392 -17.77849,-9.49318 1.31006,-5.22126 6.54999,-10.91716 5.9886,-6.64523 11.6028,-6.64523 5.8013,0 14.0356,7.83187 5.0528,4.7466 6.7371,5.69591 l 0.5614,-2.61062 q 0,-2.3733 -1.4972,-5.69591 -1.497,-3.32262 -6.5499,-9.73051 -17.9656,-22.78365 -19.0884,-24.44496 -10.66704,-15.66375 -10.66704,-26.81824 0,-12.34113 12.53844,-26.58091 11.4156,-13.05312 17.7784,-13.05312 5.4271,5.69591 8.0471,8.54386 8.2342,9.01853 8.2342,9.96785 0,2.61062 -4.6785,9.01852 -4.4914,6.17056 -6.9242,6.17056 -4.8657,0 -10.4799,-5.6959 -8.0471,-8.06921 -8.2343,-8.30654 l -1.31,1.42398 q 5.4272,11.15449 18.527,28.00489 21.7085,28.00489 21.7085,39.39671 z m -63.44092,-51.02586 q 0,7.35721 -14.97137,23.49563 -14.97128,16.13841 -14.97128,18.51171 0,6.64522 24.32841,30.14085 -0.93577,2.13597 -9.16994,11.15449 -8.23426,9.01852 -9.54423,9.01852 -1.30996,0 -5.80143,-4.0346 -4.30419,-4.0346 -9.35704,-10.4425 -8.42136,-10.67983 -12.72564,-25.39426 -3.5557,-12.10381 -3.5557,-22.30898 0,-6.88256 2.62002,-16.37574 2.61994,-9.49318 7.2985,-18.74904 2.43283,-4.7466 11.97706,-17.56238 10.6671,-14.23978 13.47422,-14.23978 0.56139,0 4.49137,6.64523 3.18141,5.6959 6.54992,11.39181 0.74858,0.94932 4.67857,8.30654 4.67856,8.7812 4.67856,10.4425 z m -20.58561,13.52779 q 0,-1.42398 -3.5557,-8.54386 -4.86566,-9.73052 -8.42136,-15.66376 h -1.87136 q -1.87144,6.17056 -3.18141,12.1038 -1.31005,5.69592 -1.31005,8.54387 0,7.59455 1.31005,13.76511 1.49707,5.93324 3.9299,5.93324 2.24573,0 7.67288,-7.11988 5.42705,-7.11988 5.42705,-9.01852 z m -33.68492,-30.61552 q 0,2.13596 -3.55561,7.35721 -7.11139,10.20518 -8.79565,10.20518 -1.12287,0 -3.3686,-3.32262 -2.99422,-4.50926 -5.98853,-6.88256 V 235.65528 H 888.01989 V 132.4169 q 0,-2.13596 -2.0586,-5.93323 -1.87142,-3.79728 -3.74283,-5.45858 0.93571,-2.61063 7.67278,-9.25585 6.9243,-6.64523 9.73142,-6.64523 2.24564,0 5.61424,4.50926 3.36851,4.50926 6.92421,9.01852 1.49715,0 6.73711,-6.64522 5.42705,-6.88256 5.80134,-6.88256 3.74288,3.32261 5.42714,5.45858 5.42705,7.11988 5.42705,14.4771 z m -58.57519,44.38064 q 0,11.62914 -3.36854,22.07164 -2.2457,6.88256 -5.42711,12.10381 -5.98852,10.4425 -9.35707,15.66376 -10.10564,15.66375 -13.28705,15.66375 -2.61998,0 -6.36281,-3.79728 -3.74283,-4.0346 -7.11138,-7.83188 -9.35707,-9.49318 -14.4099,-21.35966 -5.05282,-12.10381 -5.05282,-26.81824 0,-10.4425 2.61999,-19.69836 2.61998,-9.49318 6.92423,-16.61306 20.77271,-34.65012 23.76697,-34.65012 1.49714,0 10.10565,11.39182 9.54422,12.34113 13.47419,20.885 3.1814,6.88256 5.23996,15.90109 2.24569,8.78119 2.24569,17.08773 z m -17.21701,28.47954 q 0,-19.46102 -7.6728,-37.02341 -11.41564,-25.86892 -19.27558,-25.86892 -2.2457,0 -3.18141,4.50926 -0.74857,4.27193 -0.74857,9.01852 0,21.12233 6.54996,33.70079 4.86568,9.4932 21.52127,26.10626 1.68428,-2.13597 2.24571,-4.27193 0.56142,-2.13597 0.56142,-6.17057 z M 819.52669,69.524571 q -7.67281,12.578468 -19.27558,18.037048 -8.79565,4.271933 -18.90129,4.271933 -4.67854,0 -7.67281,-0.47466 -2.80712,-0.474659 -4.49139,-0.949318 -2.99427,1.186648 -3.92998,4.746591 -0.74856,3.322614 -0.74856,9.018525 0,8.54387 4.30425,17.56239 4.30426,9.01853 8.04709,9.01853 h 33.68547 q -4.86568,16.61306 -15.53274,17.08772 -10.66707,0.23733 -10.66707,3.32261 1.87142,4.98393 3.55569,12.8158 1.68427,7.59455 1.68427,16.61308 0,23.97028 -14.59703,39.63403 -13.84848,14.71444 -33.3112,14.71444 -10.85421,0 -19.08843,-7.1199 -8.23423,-7.11988 -10.66707,-16.37574 9.16993,-4.74658 18.33987,-9.49318 h 2.05855 q 0,1.66131 -0.37428,4.98392 -0.37428,3.32262 -0.37428,4.03461 0,6.64523 3.36855,11.62914 3.55569,4.7466 9.73135,4.7466 6.92425,0 11.78992,-6.64523 5.05283,-6.88256 5.05283,-15.42642 0,-5.69591 -6.54996,-23.49563 -7.6728,-20.885 -16.28132,-33.93813 h -26.76123 v -2.37329 q 7.29852,-9.96785 12.91276,-13.76512 3.92997,-2.61062 7.85995,-2.61062 2.05855,0.23733 2.80712,0.23733 1.49713,0 2.05855,-1.18666 0.74857,-1.42397 1.12285,-6.17057 1.49714,-17.32505 22.26985,-32.276815 -1.49713,-3.559943 -10.29279,-7.594546 -10.10564,-4.746592 -17.96558,-4.746592 -4.67854,0 -9.16994,1.423978 -4.49139,1.186648 -7.11138,3.559943 h -2.61997 q 4.30425,-8.781194 14.40989,-14.477104 10.10564,-5.695909 24.3284,-5.695909 13.66133,0 22.45699,2.847955 20.39842,6.645228 24.70268,6.645228 6.92423,0 11.04135,-0.474659 5.80138,-1.186648 8.79565,-1.661308 z M 613.29706,219.99152 q -1.68427,3.08529 -10.29278,10.20517 -5.23997,4.27193 -7.11137,4.27193 -3.55569,0 -6.7371,-7.59454 -3.18141,-7.83188 -5.05282,-7.83188 -1.12285,0 -8.04709,7.59455 -6.73709,7.35722 -8.42136,7.35722 -3.36856,0 -9.54422,-8.54387 -14.78419,-20.41034 -14.78419,-49.83921 0,-5.93324 2.80712,-17.08773 2.80713,-11.15449 6.36282,-18.98636 1.49713,-3.55994 11.60278,-18.27439 10.8542,-16.1384 12.72562,-16.1384 1.49713,0 2.99426,1.6613 1.68427,1.66131 2.43284,2.3733 0.37428,-0.47466 1.12285,-1.42398 0.93571,-1.18665 0.93571,-2.61062 V 80.441732 q 3.18141,-4.034603 9.73136,-5.69591 6.54995,-1.661307 10.29278,-3.559943 h 3.74283 V 208.36237 q 0,2.84796 1.31,5.69591 1.49712,2.84796 3.92996,5.93324 z M 583.54157,147.606 q 0,-2.13596 -4.11712,-8.30654 -4.11711,-6.17057 -10.10564,-13.7651 -3.36855,4.74658 -5.42711,17.08772 -0.56142,4.0346 -1.30999,11.62915 0,12.57846 3.92998,25.15693 5.42709,17.5624 16.46845,27.29291 0,-15.90109 0.18714,-36.0741 0.37429,-20.41035 0.37429,-23.02097 z m -45.66247,21.83433 q 0,11.62914 -3.36855,22.07164 -2.24569,6.88256 -5.4271,12.10381 -5.98853,10.4425 -9.35708,15.66376 -10.10564,15.66375 -13.28704,15.66375 -2.61999,0 -6.36281,-3.79728 -3.74284,-4.0346 -7.11138,-7.83188 -9.35708,-9.49318 -14.4099,-21.35966 -5.05282,-12.10381 -5.05282,-26.81824 0,-10.4425 2.61998,-19.69836 2.61998,-9.49318 6.92424,-16.61306 20.7727,-34.65012 23.76697,-34.65012 1.49713,0 10.10564,11.39182 9.54422,12.34113 13.47419,20.885 3.18141,6.88256 5.23996,15.90109 2.2457,8.78119 2.2457,17.08773 z m -17.21702,28.47954 q 0,-19.46102 -7.6728,-37.02341 -11.41563,-25.86892 -19.27558,-25.86892 -2.2457,0 -3.1814,4.50926 -0.74857,4.27193 -0.74857,9.01852 0,21.12233 6.54995,33.70079 4.86569,9.4932 21.52128,26.10626 1.68427,-2.13597 2.2457,-4.27193 0.56142,-2.13597 0.56142,-6.17057 z m -53.14815,-28.47954 q 0,11.62914 -3.36854,22.07164 -2.2457,6.88256 -5.42711,12.10381 -5.98853,10.4425 -9.35707,15.66376 -10.10565,15.66375 -13.28706,15.66375 -2.61997,0 -6.36281,-3.79728 -3.74282,-4.0346 -7.11138,-7.83188 -9.35707,-9.49318 -14.40989,-21.35966 -5.05282,-12.10381 -5.05282,-26.81824 0,-10.4425 2.61998,-19.69836 2.61998,-9.49318 6.92423,-16.61306 20.77272,-34.65012 23.76698,-34.65012 1.49713,0 10.10564,11.39182 9.54422,12.34113 13.47419,20.885 3.1814,6.88256 5.23997,15.90109 2.24569,8.78119 2.24569,17.08773 z m -17.21702,28.47954 q 0,-19.46102 -7.6728,-37.02341 -11.41563,-25.86892 -19.27558,-25.86892 -2.2457,0 -3.1814,4.50926 -0.74857,4.27193 -0.74857,9.01852 0,21.12233 6.54996,33.70079 4.86567,9.4932 21.52127,26.10626 1.68427,-2.13597 2.2457,-4.27193 0.56142,-2.13597 0.56142,-6.17057 z m -52.96087,-46.51659 q 0,8.54385 -2.61997,21.35965 -2.43284,12.8158 -5.61425,20.17302 -3.74283,9.01852 -4.4914,10.67983 -0.56142,1.66131 -4.30425,9.25585 -1.87142,4.7466 -4.11712,9.49319 -4.11711,8.78119 -5.80138,8.78119 -2.2457,0 -16.46846,-25.39426 -3.55569,3.08528 -12.72562,21.59699 -3.92998,7.83187 -5.61425,7.83187 -0.9357,0 -5.23996,-6.40789 -10.29278,-15.42642 -15.53274,-34.17546 -2.2457,-8.06921 -3.74284,-18.74904 -1.30999,-10.91716 -1.30999,-21.59699 0,-30.61552 5.98853,-38.21007 1.87142,-2.13596 23.57983,-12.34113 h 2.05856 v 3.08528 q -2.61998,4.50927 -4.4914,13.29046 -2.61997,11.86648 -2.61997,25.39427 0,15.90108 3.36854,30.37818 3.55569,14.47711 8.60851,22.78363 3.18141,-2.61062 3.18141,-5.6959 -2.99427,-10.20517 -5.42711,-23.49562 -2.2457,-13.52779 -2.2457,-25.39427 0,-23.97029 4.86569,-28.47955 9.35707,-3.55994 18.33986,-9.49318 1.30999,1.6613 1.30999,6.40789 0,2.84796 -0.37428,9.49318 -0.18714,6.64523 -0.18714,8.30654 0,20.41035 4.67854,39.63404 3.74283,15.42642 9.35707,25.39427 2.05856,-1.66131 2.61999,-5.45859 0.74856,-4.03459 0.74856,-11.62914 0,-22.30898 -3.92997,-34.88745 -4.4914,-11.15449 -8.9828,-22.30898 0,-2.13596 5.98853,-9.49318 5.98853,-7.35722 7.48566,-7.35722 2.05856,0 7.29852,14.71444 6.36281,17.56238 6.36281,32.51415 z m -93.57041,-26.34359 q 0,2.13596 -3.55569,7.35721 -7.11138,10.20518 -8.79565,10.20518 -1.12285,0 -3.36856,-3.32262 -2.99426,-4.50926 -5.98852,-6.88256 V 235.65528 H 256.23168 V 132.4169 q 0,-2.13596 -2.05856,-5.93323 -1.87142,-3.79728 -3.74284,-5.45858 0.93572,-2.61063 7.67281,-9.25585 6.92424,-6.64523 9.73136,-6.64523 2.2457,0 5.61424,4.50926 3.36855,4.50926 6.92424,9.01852 1.49714,0 6.7371,-6.64522 5.4271,-6.88256 5.80138,-6.88256 3.74284,3.32261 5.42711,5.45858 5.42711,7.11988 5.42711,14.4771 z m -58.76243,17.08773 q 0,7.35721 -14.97132,23.49563 -14.97133,16.13841 -14.97133,18.51171 0,6.64522 24.3284,30.14085 -0.93571,2.13597 -9.16994,11.15449 -8.23422,9.01852 -9.54421,9.01852 -1.30999,0 -5.80138,-4.0346 -4.30426,-4.0346 -9.35709,-10.4425 -8.42136,-10.67983 -12.72562,-25.39426 -3.55569,-12.10381 -3.55569,-22.30898 0,-6.88256 2.61999,-16.37574 2.61997,-9.49318 7.29851,-18.74904 2.43284,-4.7466 11.97706,-17.56238 10.66707,-14.23978 13.47419,-14.23978 0.56143,0 4.4914,6.64523 3.18141,5.6959 6.54995,11.39181 0.74857,0.94932 4.67854,8.30654 4.67854,8.7812 4.67854,10.4425 z m -20.58557,13.52779 q 0,-1.42398 -3.55569,-8.54386 -4.86567,-9.73052 -8.42136,-15.66376 h -1.87142 q -1.87142,6.17056 -3.18141,12.1038 -1.30998,5.69592 -1.30998,8.54387 0,7.59455 1.30998,13.76511 1.49714,5.93324 3.92998,5.93324 2.24569,0 7.6728,-7.11988 5.4271,-7.11988 5.4271,-9.01852 z m -40.9839,14.95176 q 0,20.41035 -7.29853,42.48199 -8.79565,27.05558 -24.51553,39.63404 l -0.74857,-1.66131 q 4.30425,-8.0692 7.48566,-22.78363 3.36855,-14.71444 3.36855,-35.36211 0,-15.18909 -2.99427,-31.56483 -4.11711,-22.78364 -12.35134,-30.85285 h -2.43284 V 234.70595 H 117.55991 V 74.271162 l 21.70841,-10.67983 h 4.4914 v 57.196428 h 3.18141 q 5.42709,-4.7466 8.23422,-7.11988 8.60851,-7.1199 9.9185,-7.1199 1.68428,2.61063 2.80713,4.50927 7.11137,12.34113 11.22849,27.76756 2.43284,9.25585 2.80712,11.39181 1.49714,8.30654 1.49714,20.41035 z m -72.42347,1.42398 q 0,13.52778 -5.23996,23.2583 -5.05282,9.73051 -15.345603,17.08772 -4.117114,3.08529 -19.462719,12.57847 -17.21702,10.67984 -18.714152,10.67984 -0.187142,0 -11.789917,-11.86648 -6.549952,-6.64523 -12.351339,-9.49319 -5.614247,-2.84796 -12.538483,-4.98392 -6.7370946,-2.3733 -12.9127649,-2.3733 v -3.55994 q 7.8599439,-7.35722 14.2227559,-14.95176 7.48566,-9.01853 10.105642,-9.01853 8.234227,0 21.334134,7.35722 9.544217,5.22125 13.848473,9.25585 4.304254,4.03461 8.047085,9.96785 2.432839,3.79728 4.304254,3.79728 2.619982,0 4.491397,-4.03461 1.871415,-4.27193 1.871415,-9.73052 0,-13.76512 -17.591302,-26.10625 -16.468455,-10.91716 -32.936909,-21.83432 -17.965586,-14.71443 -17.965586,-33.70079 0,-9.49319 4.304255,-17.562397 5.988529,-11.39182 19.837001,-18.749037 32.188342,-17.325059 35.182607,-17.325059 0.561425,0 8.982793,11.866479 4.491397,6.407899 8.982791,10.442502 2.432841,2.373295 6.36281,4.509261 11.041362,6.170569 11.415642,6.407899 -1.68428,2.135965 -11.602777,8.543862 -3.368554,2.13597 -9.918503,6.17057 -2.43284,-0.71199 -4.117114,-1.18665 -9.731359,-3.32261 -16.281313,-7.594543 -8.047085,-5.69591 -12.538481,-16.375741 -1.684274,-3.797273 -3.74283,-3.797273 -2.619982,0 -5.427105,4.034603 -3.368548,4.983921 -3.368548,11.629149 0,5.221255 21.521276,18.511705 12.538481,7.83188 19.837001,13.29045 16.281314,12.34115 21.146994,18.74904 8.04708,10.4425 8.04708,26.10626 z" />
</svg>
