<?xml version="1.0" encoding="UTF-8" standalone="no"?>
<svg
   xmlns:dc="http://purl.org/dc/elements/1.1/"
   xmlns:cc="http://creativecommons.org/ns#"
   xmlns:rdf="http://www.w3.org/1999/02/22-rdf-syntax-ns#"
   xmlns:svg="http://www.w3.org/2000/svg"
   xmlns="http://www.w3.org/2000/svg"
   xmlns:sodipodi="http://sodipodi.sourceforge.net/DTD/sodipodi-0.dtd"
   xmlns:inkscape="http://www.inkscape.org/namespaces/inkscape"
   version="1.1"
   width="11.5in"
   height="4in"
   id="svg5276"
   inkscape:version="1.0.1 (3bc2e813f5, 2020-09-07)"
   sodipodi:docname="The Kastle Seven 2 Direction Sign for Lamp Post.svg"
   inkscape:export-filename="C:\Users\Klemen\Downloads\The Chronicles of Narnia logo.png"
   inkscape:export-xdpi="1500.2426"
   inkscape:export-ydpi="1500.2426"
   viewBox="0 0 1104 384">
  <sodipodi:namedview
     pagecolor="#ffffff"
     bordercolor="#666666"
     borderopacity="1"
     objecttolerance="10"
     gridtolerance="10"
     guidetolerance="10"
     inkscape:pageopacity="0"
     inkscape:pageshadow="2"
     inkscape:window-width="1904"
     inkscape:window-height="1001"
     id="namedview67"
     showgrid="true"
     inkscape:zoom="1"
     inkscape:cx="642.83291"
     inkscape:cy="124.25645"
     inkscape:window-x="-5"
     inkscape:window-y="18"
     inkscape:window-maximized="0"
     inkscape:current-layer="svg5276"
     fit-margin-top="0"
     fit-margin-left="0"
     fit-margin-right="0"
     fit-margin-bottom="0"
     inkscape:document-rotation="0"
     showguides="false"
     inkscape:snap-nodes="false"
     units="in"
     inkscape:document-units="in"
     inkscape:snap-bbox="true"
     inkscape:bbox-nodes="true"
     inkscape:snap-global="false">
    <inkscape:grid
       type="xygrid"
       id="grid986"
       units="in"
       spacingx="24"
       spacingy="24"
       empspacing="4" />
  </sodipodi:namedview>
  <defs
     id="defs5278">
    <inkscape:path-effect
       effect="perspective-envelope"
       up_left_point="104.39,36.803497"
       up_right_point="970.61,36.803497"
       down_left_point="24.394341,357.89577"
       down_right_point="1030.6059,357.89577"
       id="path-effect967"
       is_visible="true"
       lpeversion="1"
       deform_type="perspective"
       horizontal_mirror="false"
       vertical_mirror="false"
       overflow_perspective="false" />
    <inkscape:path-effect
       effect="perspective-envelope"
       up_left_point="53.102544,52.114112"
       up_right_point="998.73,52.114112"
       down_left_point="53.102544,382.77622"
       down_right_point="999.02854,382.77622"
       id="path-effect906"
       is_visible="true"
       lpeversion="1"
       deform_type="perspective"
       horizontal_mirror="false"
       vertical_mirror="false"
       overflow_perspective="false" />
    <clipPath
       id="clipPath3717">
      <path
         d="m 427.26,426.42 h 71.64 v 24 h -71.64 z"
         id="path3719"
         inkscape:connector-curvature="0" />
    </clipPath>
    <clipPath
       id="clipPath3733">
      <path
         d="m 427.264,426.42 h 71.589 v 23.968 h -71.589 z"
         id="path3735"
         inkscape:connector-curvature="0" />
    </clipPath>
    <clipPath
       id="clipPath3745">
      <path
         d="m 427.26,426.42 h 71.64 v 24 h -71.64 z"
         id="path3747"
         inkscape:connector-curvature="0" />
    </clipPath>
    <clipPath
       id="clipPath3773">
      <path
         d="m 427.264,426.42 h 71.589 v 23.968 h -71.589 z"
         id="path3775"
         inkscape:connector-curvature="0" />
    </clipPath>
    <clipPath
       id="clipPath3789">
      <path
         d="m 427.26,426.42 h 71.64 v 24 h -71.64 z"
         id="path3791"
         inkscape:connector-curvature="0" />
    </clipPath>
  </defs>
  <metadata
     id="metadata5281">
    <rdf:RDF>
      <cc:Work
         rdf:about="">
        <dc:format>image/svg+xml</dc:format>
        <dc:type
           rdf:resource="http://purl.org/dc/dcmitype/StillImage" />
        <dc:title></dc:title>
      </cc:Work>
    </rdf:RDF>
  </metadata>
  <path
     id="path871"
     style="font-style:normal;font-variant:normal;font-weight:normal;font-stretch:normal;font-size:174.68px;line-height:1.25;font-family:Computerfont;-inkscape-font-specification:'Computerfont, Normal';font-variant-ligatures:normal;font-variant-caps:normal;font-variant-numeric:normal;font-variant-east-asian:normal;fill:#8c00b4;fill-opacity:1;stroke-width:0.999995"
     d="m 305.24834,71.941248 c -2.20321,0 -4.25858,0.344538 -6.16406,1.033203 -1.90548,0.602578 -3.57285,1.850316 -5.00196,3.744141 -1.4291,2.152071 -2.29211,4.30496 -2.58984,6.457031 -0.47637,2.065987 -0.71484,4.906003 -0.71484,8.521485 v 99.296872 c 0,7.83354 -2.76884,13.34228 -8.30664,16.52735 -7.50282,4.39022 -11.4015,6.80005 -11.69922,7.23046 -0.95275,1.72166 -1.57923,3.31394 -1.87696,4.77735 -0.47637,1.54951 -0.71484,3.78804 -0.71484,6.71484 v 92.71094 c 0,6.97272 1.19237,11.70868 3.57422,14.20508 1.72684,1.89382 4.58462,2.83984 8.57422,2.83984 1.07183,-0.17216 2.26225,-0.25781 3.57226,-0.25781 h 3.57227 4.73437 c 5.5378,0 9.58795,-0.86037 12.14844,-2.58203 3.45367,-2.32424 5.17969,-6.9726 5.17969,-13.94531 v -88.19336 c 0,-2.58248 0.65482,-5.25121 1.96484,-8.00586 1.07183,-2.66857 2.47238,-4.77668 4.19922,-6.32618 1.60775,-1.46341 3.30346,-2.28096 5.08985,-2.45312 1.84592,-0.25824 3.48299,-0.38867 4.9121,-0.38867 h 38.49805 c 5.06142,0 8.7822,1.59423 11.16406,4.77929 1.78639,2.32425 2.97681,4.7769 3.57227,7.35938 0.47637,2.66857 0.71484,5.93878 0.71484,9.8125 v 85.35156 c 0,3.18506 0.80437,6.3268 2.41211,9.42578 1.42912,3.27114 3.95949,4.90821 7.5918,4.90821 3.63233,0 6.25359,-1.93683 7.86133,-5.81055 0.95274,-2.32425 1.42773,-5.03578 1.42773,-8.13477 V 87.824061 c 0,-4.820641 -1.10147,-8.739054 -3.30469,-11.751953 -2.26274,-2.324239 -4.496,-3.700446 -6.69921,-4.13086 h -7.14454 z m 13.04102,22.208984 h 5.5371 43.23047 3.12696 c 3.45368,0 5.89511,1.076445 7.32421,3.228516 1.42911,2.152071 2.29212,4.174532 2.58985,6.068362 0.17864,2.15206 0.26758,5.07968 0.26758,8.78125 V 164.91 c 0,3.87372 -0.0889,6.97263 -0.26758,9.29687 -0.29773,2.32424 -0.89392,4.64843 -1.78711,6.97266 -1.13138,2.32424 -2.88769,3.91652 -5.26953,4.77734 -2.5605,1.033 -5.50721,1.55078 -8.8418,1.55078 h -39.92578 c -3.33458,0 -5.95585,-0.30171 -7.86133,-0.90429 -2.08411,-0.43042 -3.89906,-1.72098 -5.44726,-3.87305 -1.78639,-1.89383 -2.67969,-4.218 -2.67969,-6.97266 -0.1191,-2.75465 -0.17969,-5.59662 -0.17969,-8.52343 v -55.91016 c 0,-6.54229 1.66736,-11.2763 5.00195,-14.203124 1.72684,-1.721657 3.4548,-2.712456 5.18165,-2.970704 z" />
  <g
     id="text1040"
     style="font-size:192px;line-height:1.25;font-family:CountdownD;-inkscape-font-specification:CountdownD;fill:#8c00b4;fill-opacity:1" />
  <g
     id="text1044"
     style="font-size:192px;line-height:1.25;font-family:CountdownD;-inkscape-font-specification:CountdownD;fill:#8c00b4;fill-opacity:1" />
  <path
     style="font-style:normal;font-variant:normal;font-weight:normal;font-stretch:normal;font-size:174.68px;line-height:1.25;font-family:Computerfont;-inkscape-font-specification:'Computerfont, Normal';font-variant-ligatures:normal;font-variant-caps:normal;font-variant-numeric:normal;font-variant-east-asian:normal;fill:#8c00b4;fill-opacity:1;stroke-width:0.999995"
     d="M 120,314.79315 V 42.765773 q 0,-7.4758 3.03685,-13.120783 Q 126.16302,24 130.98627,24 q 4.46597,0 7.77078,5.64499 3.12617,5.95012 3.12617,13.883619 v 95.659651 q 0,4.11933 0,5.95013 0,4.11931 0.53593,6.10269 0.62522,3.05135 2.59025,3.35647 0.17863,0 0.71455,0 1.16116,0 2.32231,-0.76283 1.51842,-1.22055 2.85821,-3.05134 L 225.12881,39.104153 q 3.57277,-5.339853 6.16302,-8.238629 3.75142,-4.577016 6.8776,-5.339853 2.85822,-0.305129 5.18051,-0.305129 7.41351,0 9.55717,2.593638 1.87571,2.593646 1.87571,5.644991 0,2.135939 -0.17865,3.356474 -0.44659,1.83081 -2.41162,4.882154 L 181.89827,147.8846 q -1.96502,2.59364 -3.39413,5.49243 -0.98252,2.7462 -1.16115,4.11931 0,0.91541 0.17863,1.22053 0.71455,3.35648 4.55528,3.35648 1.87572,0 2.85823,0 h 53.77021 q 4.01937,0 7.59214,1.22054 3.57276,1.06798 5.18052,3.35649 1.69707,2.44106 2.41161,6.56038 0.71456,4.57701 0.71456,10.22201 v 135.02202 q 0,7.01806 -2.59026,12.05279 -2.85821,5.1873 -8.66397,5.1873 L 225.30745,336 q -4.28733,0 -6.60964,-0.4577 -2.32229,-0.61026 -4.01936,-3.50903 -1.69707,-3.05136 -1.96503,-6.56042 -0.44659,-2.89876 -0.44659,-9.61173 V 213.79365 q 0,-7.17067 -0.4466,-10.52714 -0.80388,-3.35649 -2.94753,-5.95012 -2.05435,-2.59364 -4.19801,-3.35649 -2.41162,-0.76282 -5.00188,-0.76282 h -19.73956 q -5.44849,0 -8.48535,0.61026 -2.94754,0.4577 -5.35915,3.50905 -4.198,5.64499 -4.198,17.54523 v 100.23667 q 0,7.9335 -1.87571,13.42593 -3.39414,7.17066 -9.82512,7.17066 h -19.91821 q -7.41349,0 -9.11055,-7.17066 -0.62525,-2.13595 -0.89321,-5.95013 Q 120,319.21761 120,314.79315 Z"
     id="path875" />
  <path
     style="font-style:normal;font-variant:normal;font-weight:normal;font-stretch:normal;font-size:174.68px;line-height:1.25;font-family:Computerfont;-inkscape-font-specification:'Computerfont, Normal';font-variant-ligatures:normal;font-variant-caps:normal;font-variant-numeric:normal;font-variant-east-asian:normal;fill:#8c00b4;fill-opacity:1;stroke-width:0.999995"
     d="m 414.66433,76.718438 q 1.60774,-2.45336 4.73392,-3.744603 3.03686,-1.032998 6.87759,-1.032998 h 82.53103 q 4.28732,0 6.16304,0.38737 1.96502,0.645628 4.01935,2.840737 4.10871,4.131979 4.10871,11.75031 v 50.487596 q 0,6.32709 -2.41163,10.84644 -2.41161,4.39023 -6.69895,4.39023 -4.64461,0 -7.32419,-4.51935 -2.85822,-4.13198 -2.85822,-10.71732 V 114.8101 q 0,-5.03585 -0.26794,-7.61833 -0.44661,-2.19512 -2.14367,-5.42322 -1.60775,-2.84074 -4.01936,-3.744606 -2.32232,-0.903873 -5.98441,-0.903873 h -44.21305 q -2.59026,0 -4.6446,0 -2.41163,0.258251 -5.00188,2.582486 -6.43099,5.939713 -6.43099,15.753163 v 51.39147 q 0,8.26395 3.30482,14.59105 2.59026,4.51934 4.46596,6.32709 1.96502,1.93686 5.26984,1.93686 h 62.5235 q 5.98439,0 8.7533,0.38736 2.67958,0.64564 5.26984,3.74461 2.41163,3.48635 2.41163,9.29696 v 113.88761 q 0,2.5825 0,3.74461 0,3.61548 -0.26797,5.81058 -0.26797,2.19511 -1.96504,5.03586 -1.60773,2.84074 -4.198,3.48636 Q 513.80874,336 508.9855,336 h -85.29991 q -2.59028,0 -4.73393,-0.5165 -2.41162,-0.64561 -4.5553,-3.87372 -0.89318,-1.5495 -1.16115,-4.77759 -0.26795,-2.84075 -0.26795,-6.97271 v -52.94097 q 0,-6.71446 2.85822,-10.84644 2.59026,-3.74461 9.73581,-3.74461 h 16.43474 q 4.28733,0 7.59215,4.00285 3.39413,4.13198 3.39413,12.13769 v 22.85501 q 0,8.5222 2.59026,13.94541 3.48346,7.3601 10.89695,7.3601 l 22.77642,-0.38738 q 6.96692,0 11.25422,-4.77761 4.28734,-4.39023 4.28734,-12.2668 v -59.39718 q 0,-6.32709 -0.4466,-10.20082 -0.80386,-3.48634 -2.94753,-6.32708 -2.14367,-2.84073 -5.18051,-3.74461 -3.12619,-1.033 -6.96692,-1.033 H 428.4195 q -5.98439,0 -8.30669,-0.6456 -2.3223,-0.25827 -4.73392,-2.84075 -2.41163,-2.19511 -2.85822,-6.32709 -0.71456,-3.87373 -0.71456,-9.94257 V 89.50174 q 0,-2.84073 0.44659,-6.068844 0.26797,-3.228107 2.41163,-6.714458 z"
     id="path869" />
  <path
     style="font-style:normal;font-variant:normal;font-weight:normal;font-stretch:normal;font-size:174.68px;line-height:1.25;font-family:Computerfont;-inkscape-font-specification:'Computerfont, Normal';font-variant-ligatures:normal;font-variant-caps:normal;font-variant-numeric:normal;font-variant-east-asian:normal;fill:#8c00b4;fill-opacity:1;stroke-width:0.999996"
     d="m 504,39.928999 q 0,-7.198682 3.84072,-11.793583 Q 511.4135,24 516.41538,24 h 108.4336 q 4.28738,0 7.59218,4.135416 3.39411,4.135406 3.39411,10.568272 0,6.432865 -3.21549,11.334088 -3.03685,4.901232 -7.05616,4.901232 h -21.61535 q -3.66206,0 -4.55522,0.459487 -1.69711,0.61266 -4.01945,3.675922 -3.57275,4.901231 -3.57275,14.703684 V 318.83954 q 0,6.27968 -0.98247,10.41512 -1.16122,4.5949 -3.57274,6.43285 -2.59029,1.99113 -7.14561,1.99113 h -17.77454 q -4.10868,0 -5.71642,-0.76582 -1.87571,-0.45949 -3.57277,-3.8291 -1.96503,-3.36958 -2.14368,-7.04551 -0.44659,-3.82907 -0.44659,-7.50502 V 76.688203 q 0,-10.874595 -3.30481,-16.541643 -1.96502,-2.910102 -4.82324,-4.441735 -2.85822,-1.225312 -6.69894,-1.225312 h -19.65025 q -4.82323,0 -8.30669,-4.135407 Q 504,46.515021 504,39.928999 Z"
     id="path867" />
  <path
     style="font-style:normal;font-variant:normal;font-weight:normal;font-stretch:normal;font-size:174.68px;line-height:1.25;font-family:Computerfont;-inkscape-font-specification:'Computerfont, Normal';font-variant-ligatures:normal;font-variant-caps:normal;font-variant-numeric:normal;font-variant-east-asian:normal;fill:#8c00b4;fill-opacity:1;stroke-width:0.999995"
     d="M 649.58961,190.14871 V 86.720173 q 0,-6.068844 2.67958,-10.588194 Q 654.59152,72 658.70017,72 q 4.01933,0 6.60959,4.519349 2.59027,4.390225 2.59027,10.200824 V 289.18705 q 0,3.09898 0,4.39022 0,6.3271 0.26796,8.0057 0.26795,1.54949 1.42916,3.74461 2.1436,3.87373 5.00181,5.03584 2.59026,1.29126 6.87766,1.29126 h 34.74522 q 6.16302,0 10.18235,2.58248 3.8407,2.45336 3.8407,9.42607 0,6.97272 -3.8407,9.5552 -4.01933,2.58249 -10.18235,2.58249 h -74.93895 q -4.73386,0 -8.30672,-1.5495 -3.75138,-1.29124 -5.00181,-4.51934 -1.16121,-2.84073 -1.42915,-5.68148 -0.17863,-2.84072 -0.17863,-6.97271 v -86.38414 q 0,-6.58534 0.44657,-9.16782 0.26795,-2.19512 1.60781,-4.77761 1.42905,-2.58249 8.12807,-4.64847 6.43097,-2.32424 8.7532,-5.81059 4.28738,-6.58535 4.28738,-16.14055 z"
     id="path865" />
  <path
     style="font-style:normal;font-variant:normal;font-weight:normal;font-stretch:normal;font-size:174.68px;line-height:1.25;font-family:Computerfont;-inkscape-font-specification:'Computerfont, Normal';font-variant-ligatures:normal;font-variant-caps:normal;font-variant-numeric:normal;font-variant-east-asian:normal;fill:#8c00b4;fill-opacity:1;stroke-width:0.999995"
     d="m 723.30479,28.131979 q 2.1437,-2.45336 4.73397,-3.486358 Q 730.4504,24 734.73767,24 h 77.43985 q 5.00192,0 8.66395,3.228107 3.3048,3.486358 3.3048,9.555195 0,6.58534 -3.3048,9.426076 -3.30479,3.228107 -8.66395,3.228107 h -54.84197 q -5.00194,0 -8.57475,1.936865 -1.42911,0.64562 -3.84072,2.84073 -2.59018,2.58249 -3.75138,6.32709 -1.42911,3.7446 -1.42911,7.61833 v 50.48759 q 0,5.03585 0.44659,8.90959 0.53593,4.13197 2.50096,7.61832 2.05425,3.48636 6.07366,4.64849 4.01941,1.6786 9.73582,1.6786 h 52.07323 q 5.71642,0 9.7357,2.84074 4.0194,2.84074 4.0194,10.20082 0,7.23096 -4.466,10.45907 -3.1261,2.19512 -9.46779,2.19512 h -34.2986 q -3.03688,0 -5.62719,0.90386 -2.94755,1.03299 -5.00192,3.87373 -4.10862,5.42323 -4.10862,14.59104 v 57.20206 q 0,8.13484 2.8582,13.29981 2.14372,3.48635 5.44851,4.64848 3.03689,1.67862 7.59211,1.67862 h 34.92387 q 5.00192,0 8.66395,2.84072 3.48348,2.84073 3.48348,9.81344 0,6.58535 -3.48348,9.16783 -3.66203,2.58249 -8.66395,2.58249 h -71.45541 q -7.68155,0 -10.98634,-0.64562 -3.3048,-0.25825 -5.89506,-3.48636 -2.67961,-2.84075 -3.12618,-6.3271 Q 720,274.11374 720,268.69052 V 42.464776 q 0,-5.423223 0.71453,-8.65133 0.44657,-3.098981 2.59026,-5.681467 z"
     id="path863" />
  <path
     style="font-style:normal;font-variant:normal;font-weight:normal;font-stretch:normal;font-size:174.68px;line-height:1.25;font-family:Computerfont;-inkscape-font-specification:'Computerfont, Normal';font-variant-ligatures:normal;font-variant-caps:normal;font-variant-numeric:normal;font-variant-east-asian:normal;fill:#8c00b4;fill-opacity:1;stroke-width:0.999995"
     d="M 0,28.253607 Q 0,26.324632 1.554517,25.112867 2.991269,24 5.016856,24 h 43.99758 q 1.742949,0 3.085494,1.112867 1.366075,1.112859 1.366075,2.819234 0,1.73113 -1.271868,3.041815 -1.24832,1.310704 -2.897073,1.310704 h -8.761823 q -1.460311,0 -1.837165,0.123694 -0.683033,0.197845 -1.648723,1.013947 -1.436742,1.310692 -1.436742,3.932101 v 65.955428 q 0,1.70638 -0.400413,2.81924 -0.471061,1.23651 -1.436742,1.73112 -1.059917,0.51933 -2.897062,0.51933 h -7.230866 q -1.648733,0 -2.308226,-0.22257 -0.777258,-0.0989 -1.460311,-1.01394 -0.777268,-0.89029 -0.871464,-1.90423 -0.188443,-1.01393 -0.188443,-2.02787 V 38.170444 q 0,-2.942882 -1.342525,-4.451419 -0.777268,-0.816101 -1.931371,-1.211778 -1.154123,-0.321506 -2.70864,-0.321506 H 4.828434 q -1.931372,0 -3.368133,-1.11286 Q 0,30.058948 0,28.253653 Z"
     id="path861" />
  <path
     style="font-style:normal;font-variant:normal;font-weight:normal;font-stretch:normal;font-size:174.68px;line-height:1.25;font-family:Computerfont;-inkscape-font-specification:'Computerfont, Normal';font-variant-ligatures:normal;font-variant-caps:normal;font-variant-numeric:normal;font-variant-east-asian:normal;fill:#8c00b4;fill-opacity:1;stroke-width:0.999995"
     d="m 8.3235139,137.8184 q 1.8015741,0 3.0626871,1.11286 1.158163,1.21177 1.158163,2.81924 v 28.98379 q 0,1.70639 1.055191,2.94289 1.775831,1.80531 4.426728,1.80531 H 37.74065 q 1.878781,0 3.036944,-0.29676 1.055191,-0.19784 2.213342,-1.11287 1.595674,-1.21177 1.595674,-3.5364 V 142.5666 q 0,-1.83003 1.261113,-3.14074 1.261102,-1.31069 3.165626,-1.31069 1.904503,0 3.165604,1.43433 1.261102,1.40964 1.261102,3.31386 v 26.23873 q 0,1.83005 0.411791,3.14074 0.334594,1.31071 1.261102,2.1268 0.952273,0.8161 3.397248,1.43435 2.316314,0.59353 3.371538,1.90423 1.055191,1.43435 1.055191,3.66007 v 35.56202 q 0,1.70638 -0.102867,2.52248 -0.231645,0.81609 -1.286845,1.50854 -0.514741,0.42041 -1.569943,0.51933 -1.055223,0.0989 -2.110424,0.0989 h -8.441652 q -0.823558,0 -1.981721,-0.0989 -1.183905,0 -1.904524,-0.91502 -0.849301,-0.81608 -0.849301,-2.84396 0,-0.69245 0,-1.11286 v -26.93119 q 0,-1.43435 -0.102867,-2.32464 -0.20589,-0.81609 -0.849301,-1.73111 Q 42.373428,183.594 39.619603,183.594 H 28.887375 q -1.389784,0 -2.650886,0 -1.364052,0.0989 -2.419254,0.91502 -2.316315,1.60745 -2.316315,4.25359 v 26.73333 q 0,1.01395 0,1.43436 0,1.50854 -0.102867,2.32464 -0.205901,0.8161 -0.849313,1.43435 -0.643422,0.59352 -1.364052,0.69244 -0.849311,0.19785 -2.547925,0.19785 H 7.1656275 q -2.0074646,0 -2.650898,-0.71718 -0.5147294,-0.91502 -0.5147294,-2.72033 0,-1.43435 0,-2.12679 V 141.7505 q 0,-1.70637 1.261091,-2.81924 1.2611347,-1.11286 3.0626861,-1.11286 z"
     id="path859" />
  <path
     style="font-style:normal;font-variant:normal;font-weight:normal;font-stretch:normal;font-size:174.68px;line-height:1.25;font-family:Computerfont;-inkscape-font-specification:'Computerfont, Normal';font-variant-ligatures:normal;font-variant-caps:normal;font-variant-numeric:normal;font-variant-east-asian:normal;fill:#8c00b4;fill-opacity:1;stroke-width:0.999995"
     d="m 9.366081,253.12911 q 0.847936,-0.79137 1.907833,-1.11286 0.96568,-0.19785 2.708629,-0.19785 h 31.443661 q 2.025608,0 3.485898,1.01395 1.342536,1.11286 1.342536,3.04181 0,2.12679 -1.342536,3.04182 -1.342535,1.01393 -3.485898,1.01393 H 23.144791 q -2.025588,0 -3.46235,0.59353 -0.588836,0.22257 -1.554526,0.91502 -1.059897,0.81609 -1.530958,2.02787 -0.588826,1.21178 -0.588826,2.44829 v 16.09936 q 0,1.60746 0.188422,2.84397 0.211972,1.31069 1.059897,2.42355 0.777259,1.11287 2.425991,1.50855 1.625174,0.51933 3.956959,0.51933 h 21.127311 q 2.308236,0 3.956969,0.91502 1.625174,0.89029 1.625174,3.23965 0,2.32465 -1.837156,3.33859 -1.248329,0.71717 -3.839193,0.71717 H 30.77606 q -1.248319,0 -2.308236,0.29676 -1.177652,0.29677 -2.025578,1.21178 -1.648732,1.73112 -1.648732,4.64928 v 18.25088 q 0,2.6214 1.154123,4.2536 0.871464,1.11285 2.213999,1.50854 1.24833,0.51934 3.085475,0.51934 h 14.179093 q 2.025608,0 3.462349,0.91501 1.460301,0.89029 1.460301,3.116 0,2.1268 -1.460301,2.9429 Q 47.451812,336 45.426204,336 H 16.408525 q -3.109034,0 -4.451579,-0.19785 -1.342526,-0.0989 -2.402432,-1.11286 -1.059907,-0.91502 -1.271869,-2.02787 -0.282648,-1.01394 -0.282648,-2.74506 v -72.21217 q 0,-1.7311 0.282648,-2.74505 0.211962,-1.01393 1.083436,-1.83003 z"
     id="path857" />
  <g
     id="g888"
     transform="translate(-110,-24.000002)"
     style="fill:#8c00b4;fill-opacity:1">
    <path
       style="font-style:normal;font-variant:normal;font-weight:normal;font-stretch:normal;font-size:174.68px;line-height:1.25;font-family:Computerfont;-inkscape-font-specification:'Computerfont, Normal';font-variant-ligatures:normal;font-variant-caps:normal;font-variant-numeric:normal;font-variant-east-asian:normal;fill:#8c00b4;fill-opacity:1;stroke-width:0.999995"
       d="m 1004.7837,99.195161 h 20.6596 V 73.549563 h -23.9487 L 998,70.283831 V 51.265735 l 3.4946,-3.265733 h 40.908 l 3.4946,3.265733 v 9.509044 h -6.6809 v -6.435414 h -27.4433 v 12.870828 h 30.6296 l 3.4946,3.26574 v 31.888907 l -3.4946,3.26574 h -40.908 L 998,102.36484 v -9.605093 h 6.7837 z"
       id="path855" />
    <path
       style="font-style:normal;font-variant:normal;font-weight:normal;font-stretch:normal;font-size:174.68px;line-height:1.25;font-family:Computerfont;-inkscape-font-specification:'Computerfont, Normal';font-variant-ligatures:normal;font-variant-caps:normal;font-variant-numeric:normal;font-variant-east-asian:normal;fill:#8c00b4;fill-opacity:1;stroke-width:0.999995"
       d="m 1011.6702,117.93172 v 12.87083 h 27.3405 v 6.33937 h -20.454 v 25.6456 h 20.454 v 6.43541 h -37.5161 L 998,165.9572 v -51.09911 l 3.4946,-3.26573 h 37.5161 v 6.33936 z"
       id="path853" />
    <path
       style="font-style:normal;font-variant:normal;font-weight:normal;font-stretch:normal;font-size:174.68px;line-height:1.25;font-family:Computerfont;-inkscape-font-specification:'Computerfont, Normal';font-variant-ligatures:normal;font-variant-caps:normal;font-variant-numeric:normal;font-variant-east-asian:normal;fill:#8c00b4;fill-opacity:1;stroke-width:0.999995"
       d="m 1032.3298,210.33937 6.8865,-6.43541 v -28.71924 h 6.6809 v 35.15465 l -6.7837,6.33936 v 12.87083 l -3.4947,3.26573 h -27.2376 l -3.4947,-3.26573 V 216.77479 L 998,210.33937 v -31.88892 l 3.4946,-3.26573 h 13.4647 l 3.4947,3.26573 v 47.92942 h 13.8758 z"
       id="path851" />
    <path
       style="font-style:normal;font-variant:normal;font-weight:normal;font-stretch:normal;font-size:174.68px;line-height:1.25;font-family:Computerfont;-inkscape-font-specification:'Computerfont, Normal';font-variant-ligatures:normal;font-variant-caps:normal;font-variant-numeric:normal;font-variant-east-asian:normal;fill:#8c00b4;fill-opacity:1;stroke-width:0.999995"
       d="m 1011.6702,245.11643 v 12.87083 h 27.3405 v 6.33937 h -20.454 v 25.6456 h 20.454 v 6.43541 h -37.5161 L 998,293.14191 V 242.0428 l 3.4946,-3.26573 h 37.5161 v 6.33936 z"
       id="path849" />
    <path
       style="font-style:normal;font-variant:normal;font-weight:normal;font-stretch:normal;font-size:174.68px;line-height:1.25;font-family:Computerfont;-inkscape-font-specification:'Computerfont, Normal';font-variant-ligatures:normal;font-variant-caps:normal;font-variant-numeric:normal;font-variant-east-asian:normal;fill:#8c00b4;fill-opacity:1;stroke-width:0.999995"
       d="M 1046,305.63516 V 360 h -6.8865 v -51.29121 h -27.3405 v 9.7972 l 6.681,6.24332 v 32.08101 L 1015.0621,360 h -13.6702 L 998,356.83032 v -51.19516 l 3.4946,-3.26573 h 41.0108 z"
       id="path1058" />
  </g>
  <text
     xml:space="preserve"
     style="font-size:211.056px;line-height:1.25;font-family:'Times New Roman';-inkscape-font-specification:'Times New Roman, ';fill:#8c00b4;fill-opacity:1;stroke-width:1"
     x="300.05707"
     y="47.114468"
     id="text895"><tspan
       sodipodi:role="line"
       id="tspan893"
       x="300.05707"
       y="47.114468"
       style="stroke-width:1">...</tspan></text>
  <text
     xml:space="preserve"
     style="font-size:159.34px;line-height:1.25;font-family:'Times New Roman';-inkscape-font-specification:'Times New Roman, ';fill:#8c00b4;fill-opacity:1;stroke-width:0.999999"
     x="751.58453"
     y="365.40302"
     id="text899"><tspan
       sodipodi:role="line"
       id="tspan897"
       x="751.58453"
       y="365.40302"
       style="stroke-width:0.999999">~</tspan></text>
</svg>
