999
dxfrw 0.6.3
  0
SECTION
  2
HEADER
  9
$ACADVER
  1
AC1021
  9
$DWGCODEPAGE
  3
ANSI_1252
  9
$INSBASE
 10
0
 20
0
 30
0
  9
$EXTMIN
 10
0
 20
-4
 30
0
  9
$EXTMAX
 10
132
 20
48
 30
0
  9
$LIMMIN
 10
0
 20
0
  9
$LIMMAX
 10
420
 20
297
  9
$ORTHOMODE
 70
    0
  9
$REGENMODE
 70
    1
  9
$FILLMODE
 70
    1
  9
$QTEXTMODE
 70
    0
  9
$MIRRTEXT
 70
    0
  9
$LTSCALE
 40
1
  9
$ATTMODE
 70
    0
  9
$TEXTSIZE
 40
2.5
  9
$TRACEWID
 40
15.68
  9
$TEXTSTYLE
  7
STANDARD
  9
$CLAYER
  8
Faces
  9
$CELTYPE
  6
BYLAYER
  9
$CECOLOR
 62
  256
  9
$CELTSCALE
 40
1
  9
$DISPSILH
 70
    0
  9
$DIMSCALE
 40
1
  9
$DIMASZ
 40
0.5
  9
$DIMEXO
 40
0.025
  9
$DIMDLI
 40
3.75
  9
$DIMRND
 40
0
  9
$DIMDLE
 40
0
  9
$DIMEXE
 40
0.05
  9
$DIMTP
 40
0
  9
$DIMTM
 40
0
  9
$DIMTXT
 40
0.75
  9
$DIMCEN
 40
2.5
  9
$DIMTSZ
 40
0
  9
$DIMTOL
 70
    0
  9
$DIMLIM
 70
    0
  9
$DIMTIH
 70
    0
  9
$DIMTOH
 70
    0
  9
$DIMSE1
 70
    0
  9
$DIMSE2
 70
    0
  9
$DIMTAD
 70
    1
  9
$DIMZIN
 70
    8
  9
$DIMBLK
  1

  9
$DIMASO
 70
    1
  9
$DIMSHO
 70
    1
  9
$DIMPOST
  1

  9
$DIMAPOST
  1

  9
$DIMALT
 70
    0
  9
$DIMALTD
 70
    3
  9
$DIMALTF
 40
0.03937
  9
$DIMLFAC
 40
1
  9
$DIMTOFL
 70
    1
  9
$DIMTVP
 40
0
  9
$DIMTIX
 70
    0
  9
$DIMSOXD
 70
    0
  9
$DIMSAH
 70
    0
  9
$DIMBLK1
  1

  9
$DIMBLK2
  1

  9
$DIMSTYLE
  2
STANDARD
  9
$DIMCLRD
 70
    0
  9
$DIMCLRE
 70
    0
  9
$DIMCLRT
 70
    0
  9
$DIMTFAC
 40
1
  9
$DIMGAP
 40
0.25
  9
$DIMJUST
 70
    0
  9
$DIMSD1
 70
    0
  9
$DIMSD2
 70
    0
  9
$DIMTOLJ
 70
    0
  9
$DIMTZIN
 70
    8
  9
$DIMALTZ
 70
    0
  9
$DIMALTTZ
 70
    0
  9
$DIMUPT
 70
    0
  9
$DIMDEC
 70
    3
  9
$DIMTDEC
 70
    2
  9
$DIMALTU
 70
    2
  9
$DIMALTTD
 70
    3
  9
$DIMTXSTY
  7
standard
  9
$DIMAUNIT
 70
    0
  9
$DIMADEC
 70
    2
  9
$DIMALTRND
 40
0
  9
$DIMAZIN
 70
    0
  9
$DIMDSEP
 70
    0
  9
$DIMATFIT
 70
    3
  9
$DIMFRAC
 70
    0
  9
$DIMLDRBLK
  1
STANDARD
  9
$DIMLUNIT
 70
    5
  9
$DIMLWD
 70
   -2
  9
$DIMLWE
 70
   -2
  9
$DIMTMOVE
 70
    0
  9
$DIMFXL
 40
0.04
  9
$DIMFXLON
 70
    0
  9
$DIMJOGANG
 40
0.7854
  9
$DIMTFILL
 70
    0
  9
$DIMTFILLCLR
 70
    0
  9
$DIMARCSYM
 70
    0
  9
$DIMLTYPE
  6

  9
$DIMLTEX1
  6

  9
$DIMLTEX2
  6

  9
$LUNITS
 70
    4
  9
$LUPREC
 70
    2
  9
$SKETCHINC
 40
1
  9
$FILLETRAD
 40
0
  9
$AUNITS
 70
    0
  9
$AUPREC
 70
    0
  9
$MENU
  1
.
  9
$ELEVATION
 40
0
  9
$PELEVATION
 40
0
  9
$THICKNESS
 40
0
  9
$LIMCHECK
 70
    0
  9
$CHAMFERA
 40
0
  9
$CHAMFERB
 40
0
  9
$CHAMFERC
 40
0
  9
$CHAMFERD
 40
0
  9
$SKPOLY
 70
    0
  9
$USRTIMER
 70
    1
  9
$ANGBASE
 50
0
  9
$ANGDIR
 70
    0
  9
$PDMODE
 70
   34
  9
$PDSIZE
 40
0
  9
$PLINEWID
 40
0
  9
$SPLFRAME
 70
    0
  9
$SPLINETYPE
 70
    2
  9
$SPLINESEGS
 70
    8
  9
$HANDSEED
  5
20000
  9
$SURFTAB1
 70
    6
  9
$SURFTAB2
 70
    6
  9
$SURFTYPE
 70
    6
  9
$SURFU
 70
    6
  9
$SURFV
 70
    6
  9
$UCSBASE
  2

  9
$UCSNAME
  2

  9
$UCSORG
 10
0
 20
0
 30
0
  9
$UCSXDIR
 10
1
 20
0
 30
0
  9
$UCSYDIR
 10
0
 20
1
 30
0
  9
$UCSORTHOREF
  2

  9
$UCSORTHOVIEW
 70
    0
  9
$UCSORGTOP
 10
0
 20
0
 30
0
  9
$UCSORGBOTTOM
 10
0
 20
0
 30
0
  9
$UCSORGLEFT
 10
0
 20
0
 30
0
  9
$UCSORGRIGHT
 10
0
 20
0
 30
0
  9
$UCSORGFRONT
 10
0
 20
0
 30
0
  9
$UCSORGBACK
 10
0
 20
0
 30
0
  9
$PUCSBASE
  2

  9
$PUCSNAME
  2

  9
$PUCSORG
 10
0
 20
0
 30
0
  9
$PUCSXDIR
 10
1
 20
0
 30
0
  9
$PUCSYDIR
 10
0
 20
1
 30
0
  9
$PUCSORTHOREF
  2

  9
$PUCSORTHOVIEW
 70
    0
  9
$PUCSORGTOP
 10
0
 20
0
 30
0
  9
$PUCSORGBOTTOM
 10
0
 20
0
 30
0
  9
$PUCSORGLEFT
 10
0
 20
0
 30
0
  9
$PUCSORGRIGHT
 10
0
 20
0
 30
0
  9
$PUCSORGFRONT
 10
0
 20
0
 30
0
  9
$PUCSORGBACK
 10
0
 20
0
 30
0
  9
$USERI1
 70
    0
  9
$USERI2
 70
    0
  9
$USERI3
 70
    0
  9
$USERI4
 70
    0
  9
$USERI5
 70
    0
  9
$USERR1
 40
0
  9
$USERR2
 40
0
  9
$USERR3
 40
0
  9
$USERR4
 40
0
  9
$USERR5
 40
0
  9
$WORLDVIEW
 70
    1
  9
$SHADEDGE
 70
    3
  9
$SHADEDIF
 70
   70
  9
$TILEMODE
 70
    1
  9
$MAXACTVP
 70
   64
  9
$PINSBASE
 10
0
 20
3.668166666666667
 30
0
  9
$PLIMCHECK
 70
    0
  9
$PEXTMIN
 10
0
 20
0
 30
0
  9
$PEXTMAX
 10
0
 20
0
 30
0
  9
$GRIDMODE
 70
    1
  9
$SNAPSTYLE
 70
    0
  9
$GRIDUNIT
 10
1
 20
1
  9
$PLIMMIN
 10
0
 20
0
  9
$PLIMMAX
 10
19.685
 20
13.898
  9
$UNITMODE
 70
    0
  9
$VISRETAIN
 70
    1
  9
$PLINEGEN
 70
    0
  9
$PSLTSCALE
 70
    1
  9
$TREEDEPTH
 70
 3020
  9
$CMLSTYLE
  2
Standard
  9
$CMLJUST
 70
    0
  9
$CMLSCALE
 40
20
  9
$PROXYGRAPHICS
 70
    1
  9
$MEASUREMENT
 70
    1
  9
$CELWEIGHT
370
   -1
  9
$ENDCAPS
280
    0
  9
$JOINSTYLE
280
    0
  9
$LWDISPLAY
290
    0
  9
$INSUNITS
 70
    1
  9
$HYPERLINKBASE
  1

  9
$STYLESHEET
  1

  9
$XEDIT
290
    1
  9
$CEPSNTYPE
380
    0
  9
$PSTYLEMODE
290
    1
  9
$EXTNAMES
290
    1
  9
$PSVPSCALE
 40
0.1491288637424485
  9
$OLESTARTUP
290
    0
  9
$SORTENTS
280
  127
  9
$INDEXCTL
280
    0
  9
$HIDETEXT
280
    1
  9
$XCLIPFRAME
290
    0
  9
$HALOGAP
280
    0
  9
$OBSCOLOR
 70
  257
  9
$OBSLTYPE
280
    0
  9
$INTERSECTIONDISPLAY
280
    0
  9
$INTERSECTIONCOLOR
 70
  257
  9
$DIMASSOC
280
    1
  9
$PROJECTNAME
  1

  9
$CAMERADISPLAY
290
    0
  9
$LENSLENGTH
 40
50
  9
$CAMERAHEIGHT
 40
0
  9
$STEPSPERSEC
 40
2
  9
$STEPSIZE
 40
50
  9
$3DDWFPREC
 40
2
  9
$PSOLWIDTH
 40
5
  9
$PSOLHEIGHT
 40
80
  9
$LOFTANG1
 40
1.570796326794897
  9
$LOFTANG2
 40
1.570796326794897
  9
$LOFTMAG1
 40
0
  9
$LOFTMAG2
 40
0
  9
$LOFTPARAM
 70
    7
  9
$LOFTNORMALS
280
    1
  9
$LATITUDE
 40
1
  9
$LONGITUDE
 40
1
  9
$NORTHDIRECTION
 40
0
  9
$TIMEZONE
 70
-8000
  9
$LIGHTGLYPHDISPLAY
280
    1
  9
$TILEMODELIGHTSYNCH
280
    1
  9
$SOLIDHIST
280
    1
  9
$SHOWHIST
280
    1
  9
$DWFFRAME
280
    2
  9
$DGNFRAME
280
    0
  9
$REALWORLDSCALE
290
    1
  9
$INTERFERECOLOR
 62
    1
  9
$CSHADOW
280
    0
  9
$SHADOWPLANELOCATION
 40
0
  0
ENDSEC
  0
SECTION
  2
CLASSES
  0
ENDSEC
  0
SECTION
  2
TABLES
  0
TABLE
  2
VPORT
  5
8
330
0
100
AcDbSymbolTable
 70
    1
  0
VPORT
  5
31
330
2
100
AcDbSymbolTableRecord
100
AcDbViewportTableRecord
  2
*ACTIVE
 70
    0
 10
0
 20
0
 11
1
 21
1
 12
75.99623911735409
 22
32.08588060295354
 13
0
 23
0
 14
10
 24
10
 15
1
 25
1
 16
0
 26
0
 36
1
 17
0
 27
0
 37
0
 40
86.54239509242846
 41
2.296898079763663
 42
50
 43
0
 44
0
 50
0
 51
0
 71
    0
 72
  100
 73
    1
 74
    3
 75
    0
 76
    1
 77
    0
 78
    0
281
    0
 65
    1
110
0
120
0
130
0
111
1
121
0
131
0
112
0
122
1
132
0
 79
    0
146
0
348
10020
 60
    3
 61
    5
292
1
282
    1
141
0
142
0
 63
  250
421
3358443
  0
ENDTAB
  0
TABLE
  2
LTYPE
  5
5
330
0
100
AcDbSymbolTable
 70
    4
  0
LTYPE
  5
14
330
5
100
AcDbSymbolTableRecord
100
AcDbLinetypeTableRecord
  2
ByBlock
 70
    0
  3

 72
   65
 73
    0
 40
0
  0
LTYPE
  5
15
330
5
100
AcDbSymbolTableRecord
100
AcDbLinetypeTableRecord
  2
ByLayer
 70
    0
  3

 72
   65
 73
    0
 40
0
  0
LTYPE
  5
16
330
5
100
AcDbSymbolTableRecord
100
AcDbLinetypeTableRecord
  2
Continuous
 70
    0
  3
Solid line
 72
   65
 73
    0
 40
0
  0
LTYPE
  5
32
330
5
100
AcDbSymbolTableRecord
100
AcDbLinetypeTableRecord
  2
DOT
 70
    0
  3
Dot . . . . . . . . . . . . . . . . . . . . . .
 72
   65
 73
    2
 40
6.35
 49
0
 74
    0
 49
-6.35
 74
    0
  0
LTYPE
  5
33
330
5
100
AcDbSymbolTableRecord
100
AcDbLinetypeTableRecord
  2
DOTTINY
 70
    0
  3
Dot (.15x) .....................................
 72
   65
 73
    2
 40
0.9525
 49
0
 74
    0
 49
-0.9525
 74
    0
  0
LTYPE
  5
34
330
5
100
AcDbSymbolTableRecord
100
AcDbLinetypeTableRecord
  2
DOT2
 70
    0
  3
Dot (.5x) .....................................
 72
   65
 73
    2
 40
3.175
 49
0
 74
    0
 49
-3.175
 74
    0
  0
LTYPE
  5
35
330
5
100
AcDbSymbolTableRecord
100
AcDbLinetypeTableRecord
  2
DOTX2
 70
    0
  3
Dot (2x) .  .  .  .  .  .  .  .  .  .  .  .  .
 72
   65
 73
    2
 40
12.7
 49
0
 74
    0
 49
-12.7
 74
    0
  0
LTYPE
  5
36
330
5
100
AcDbSymbolTableRecord
100
AcDbLinetypeTableRecord
  2
DASHED
 70
    0
  3
Dashed _ _ _ _ _ _ _ _ _ _ _ _ _ _ _ _ _
 72
   65
 73
    2
 40
19.05
 49
12.7
 74
    0
 49
-6.35
 74
    0
  0
LTYPE
  5
37
330
5
100
AcDbSymbolTableRecord
100
AcDbLinetypeTableRecord
  2
DASHEDTINY
 70
    0
  3
Dashed (.15x) _ _ _ _ _ _ _ _ _ _ _ _ _ _ _ _ _
 72
   65
 73
    2
 40
2.8575
 49
1.905
 74
    0
 49
-0.9525
 74
    0
  0
LTYPE
  5
38
330
5
100
AcDbSymbolTableRecord
100
AcDbLinetypeTableRecord
  2
DASHED2
 70
    0
  3
Dashed (.5x) _ _ _ _ _ _ _ _ _ _ _ _ _ _ _ _ _
 72
   65
 73
    2
 40
9.524999999999999
 49
6.35
 74
    0
 49
-3.175
 74
    0
  0
LTYPE
  5
39
330
5
100
AcDbSymbolTableRecord
100
AcDbLinetypeTableRecord
  2
DASHEDX2
 70
    0
  3
Dashed (2x) ____  ____  ____  ____  ____  ___
 72
   65
 73
    2
 40
38.09999999999999
 49
25.4
 74
    0
 49
-12.7
 74
    0
  0
LTYPE
  5
3A
330
5
100
AcDbSymbolTableRecord
100
AcDbLinetypeTableRecord
  2
DASHDOT
 70
    0
  3
Dash dot __ . __ . __ . __ . __ . __ . __ . __
 72
   65
 73
    4
 40
25.4
 49
12.7
 74
    0
 49
-6.35
 74
    0
 49
0
 74
    0
 49
-6.35
 74
    0
  0
LTYPE
  5
3B
330
5
100
AcDbSymbolTableRecord
100
AcDbLinetypeTableRecord
  2
DASHDOTTINY
 70
    0
  3
Dash dot (.15x) _._._._._._._._._._._._._._._.
 72
   65
 73
    4
 40
3.81
 49
1.905
 74
    0
 49
-0.9525
 74
    0
 49
0
 74
    0
 49
-0.9525
 74
    0
  0
LTYPE
  5
3C
330
5
100
AcDbSymbolTableRecord
100
AcDbLinetypeTableRecord
  2
DASHDOT2
 70
    0
  3
Dash dot (.5x) _._._._._._._._._._._._._._._.
 72
   65
 73
    4
 40
12.7
 49
6.35
 74
    0
 49
-3.175
 74
    0
 49
0
 74
    0
 49
-3.175
 74
    0
  0
LTYPE
  5
3D
330
5
100
AcDbSymbolTableRecord
100
AcDbLinetypeTableRecord
  2
DASHDOTX2
 70
    0
  3
Dash dot (2x) ____  .  ____  .  ____  .  ___
 72
   65
 73
    4
 40
50.8
 49
25.4
 74
    0
 49
-12.7
 74
    0
 49
0
 74
    0
 49
-12.7
 74
    0
  0
LTYPE
  5
3E
330
5
100
AcDbSymbolTableRecord
100
AcDbLinetypeTableRecord
  2
DIVIDE
 70
    0
  3
Divide ____ . . ____ . . ____ . . ____ . . ____
 72
   65
 73
    6
 40
31.75
 49
12.7
 74
    0
 49
-6.35
 74
    0
 49
0
 74
    0
 49
-6.35
 74
    0
 49
0
 74
    0
 49
-6.35
 74
    0
  0
LTYPE
  5
3F
330
5
100
AcDbSymbolTableRecord
100
AcDbLinetypeTableRecord
  2
DIVIDETINY
 70
    0
  3
Divide (.15x) __..__..__..__..__..__..__..__.._
 72
   65
 73
    6
 40
4.7625
 49
1.905
 74
    0
 49
-0.9525
 74
    0
 49
0
 74
    0
 49
-0.9525
 74
    0
 49
0
 74
    0
 49
-0.9525
 74
    0
  0
LTYPE
  5
40
330
5
100
AcDbSymbolTableRecord
100
AcDbLinetypeTableRecord
  2
DIVIDE2
 70
    0
  3
Divide (.5x) __..__..__..__..__..__..__..__.._
 72
   65
 73
    6
 40
15.875
 49
6.35
 74
    0
 49
-3.175
 74
    0
 49
0
 74
    0
 49
-3.175
 74
    0
 49
0
 74
    0
 49
-3.175
 74
    0
  0
LTYPE
  5
41
330
5
100
AcDbSymbolTableRecord
100
AcDbLinetypeTableRecord
  2
DIVIDEX2
 70
    0
  3
Divide (2x) ________  .  .  ________  .  .  _
 72
   65
 73
    6
 40
63.5
 49
25.4
 74
    0
 49
-12.7
 74
    0
 49
0
 74
    0
 49
-12.7
 74
    0
 49
0
 74
    0
 49
-12.7
 74
    0
  0
LTYPE
  5
42
330
5
100
AcDbSymbolTableRecord
100
AcDbLinetypeTableRecord
  2
BORDER
 70
    0
  3
Border __ __ . __ __ . __ __ . __ __ . __ __ .
 72
   65
 73
    6
 40
44.45
 49
12.7
 74
    0
 49
-6.35
 74
    0
 49
12.7
 74
    0
 49
-6.35
 74
    0
 49
0
 74
    0
 49
-6.35
 74
    0
  0
LTYPE
  5
43
330
5
100
AcDbSymbolTableRecord
100
AcDbLinetypeTableRecord
  2
BORDERTINY
 70
    0
  3
Border (.15x) __.__.__.__.__.__.__.__.__.__.__.
 72
   65
 73
    6
 40
6.6675
 49
1.905
 74
    0
 49
-0.9525
 74
    0
 49
1.905
 74
    0
 49
-0.9525
 74
    0
 49
0
 74
    0
 49
-0.9525
 74
    0
  0
LTYPE
  5
44
330
5
100
AcDbSymbolTableRecord
100
AcDbLinetypeTableRecord
  2
BORDER2
 70
    0
  3
Border (.5x) __.__.__.__.__.__.__.__.__.__.__.
 72
   65
 73
    6
 40
22.225
 49
6.35
 74
    0
 49
-3.175
 74
    0
 49
6.35
 74
    0
 49
-3.175
 74
    0
 49
0
 74
    0
 49
-3.175
 74
    0
  0
LTYPE
  5
45
330
5
100
AcDbSymbolTableRecord
100
AcDbLinetypeTableRecord
  2
BORDERX2
 70
    0
  3
Border (2x) ____  ____  .  ____  ____  .  ___
 72
   65
 73
    6
 40
88.89999999999999
 49
25.4
 74
    0
 49
-12.7
 74
    0
 49
25.4
 74
    0
 49
-12.7
 74
    0
 49
0
 74
    0
 49
-12.7
 74
    0
  0
LTYPE
  5
46
330
5
100
AcDbSymbolTableRecord
100
AcDbLinetypeTableRecord
  2
CENTER
 70
    0
  3
Center ____ _ ____ _ ____ _ ____ _ ____ _ ____
 72
   65
 73
    4
 40
50.8
 49
31.75
 74
    0
 49
-6.35
 74
    0
 49
6.35
 74
    0
 49
-6.35
 74
    0
  0
LTYPE
  5
47
330
5
100
AcDbSymbolTableRecord
100
AcDbLinetypeTableRecord
  2
CENTERTINY
 70
    0
  3
Center (.15x) ___ _ ___ _ ___ _ ___ _ ___ _ ___
 72
   65
 73
    4
 40
7.62
 49
4.7625
 74
    0
 49
-0.9525
 74
    0
 49
0.9525
 74
    0
 49
-0.9525
 74
    0
  0
LTYPE
  5
48
330
5
100
AcDbSymbolTableRecord
100
AcDbLinetypeTableRecord
  2
CENTER2
 70
    0
  3
Center (.5x) ___ _ ___ _ ___ _ ___ _ ___ _ ___
 72
   65
 73
    4
 40
28.575
 49
19.05
 74
    0
 49
-3.175
 74
    0
 49
3.175
 74
    0
 49
-3.175
 74
    0
  0
LTYPE
  5
49
330
5
100
AcDbSymbolTableRecord
100
AcDbLinetypeTableRecord
  2
CENTERX2
 70
    0
  3
Center (2x) ________  __  ________  __  _____
 72
   65
 73
    4
 40
101.6
 49
63.5
 74
    0
 49
-12.7
 74
    0
 49
12.7
 74
    0
 49
-12.7
 74
    0
  0
ENDTAB
  0
TABLE
  2
LAYER
  5
2
330
0
100
AcDbSymbolTable
 70
    1
  0
LAYER
  5
10
330
2
100
AcDbSymbolTableRecord
100
AcDbLayerTableRecord
  2
0
 70
    0
 62
    6
  6
CONTINUOUS
370
    0
390
F
  0
LAYER
  5
4A
330
2
100
AcDbSymbolTableRecord
100
AcDbLayerTableRecord
  2
1st Main Layer
 70
    0
 62
    7
  6
CONTINUOUS
370
   13
390
F
  0
LAYER
  5
4B
330
2
100
AcDbSymbolTableRecord
100
AcDbLayerTableRecord
  2
Center Lines
 70
    0
 62
    1
  6
CENTERTINY
370
    0
390
F
1001
LibreCad
1070
    1
  0
LAYER
  5
4C
330
2
100
AcDbSymbolTableRecord
100
AcDbLayerTableRecord
  2
Dimensions
 70
    0
 62
    2
  6
CONTINUOUS
370
    0
390
F
1001
LibreCad
1070
    1
  0
LAYER
  5
4D
330
2
100
AcDbSymbolTableRecord
100
AcDbLayerTableRecord
  2
Faces
 70
    0
 62
   16
420
8388608
  6
CONTINUOUS
370
   13
390
F
  0
LAYER
  5
4E
330
2
100
AcDbSymbolTableRecord
100
AcDbLayerTableRecord
  2
Guides
 70
    0
 62
  136
420
32896
  6
CONTINUOUS
370
    0
390
F
  0
LAYER
  5
4F
330
2
100
AcDbSymbolTableRecord
100
AcDbLayerTableRecord
  2
Info
 70
    0
 62
    5
  6
CONTINUOUS
370
   13
390
F
  0
ENDTAB
  0
TABLE
  2
STYLE
  5
3
330
0
100
AcDbSymbolTable
 70
    3
  0
STYLE
  5
50
330
2
100
AcDbSymbolTableRecord
100
AcDbTextStyleTableRecord
  2
iso
 70
    0
 40
0
 41
1
 50
0
 71
    0
 42
1
  3
iso
  4

  0
STYLE
  5
51
330
2
100
AcDbSymbolTableRecord
100
AcDbTextStyleTableRecord
  2
Standard
 70
    0
 40
0
 41
1
 50
0
 71
    0
 42
1
  3
txt
  4

  0
ENDTAB
  0
TABLE
  2
VIEW
  5
6
330
0
100
AcDbSymbolTable
 70
    0
  0
ENDTAB
  0
TABLE
  2
UCS
  5
7
330
0
100
AcDbSymbolTable
 70
    0
  0
ENDTAB
  0
TABLE
  2
APPID
  5
9
330
0
100
AcDbSymbolTable
 70
    1
  0
APPID
  5
12
330
9
100
AcDbSymbolTableRecord
100
AcDbRegAppTableRecord
  2
ACAD
 70
    0
  0
APPID
  5
52
330
9
100
AcDbSymbolTableRecord
100
AcDbRegAppTableRecord
  2
LibreCad
 70
    0
  0
ENDTAB
  0
TABLE
  2
DIMSTYLE
  5
A
330
0
100
AcDbSymbolTable
 70
    1
100
AcDbDimStyleTable
 71
    1
  0
DIMSTYLE
105
53
330
A
100
AcDbSymbolTableRecord
100
AcDbDimStyleTableRecord
  2
Standard
 70
    0
 40
1
 41
0.5
 42
0.025
 43
0.38
 44
0.05
 45
0
 46
0
 47
0
 48
0
 49
0.04
140
0.75
141
0.09
142
0
143
25.4
144
1
145
0
146
1
147
0.25
148
0
 71
    0
 72
    0
 73
    0
 74
    1
 75
    0
 76
    0
 77
    0
 78
    8
 79
    0
170
    0
171
    2
172
    0
173
    0
174
    0
175
    0
176
    0
177
    0
178
    0
179
    2
271
    3
272
    4
273
    2
274
    2
275
    0
276
    0
277
    5
278
    0
279
    0
280
    0
281
    0
282
    0
283
    1
284
    0
285
    0
286
    0
288
    0
289
    3
340
standard
341

371
   -2
372
   -2
  0
ENDTAB
  0
TABLE
  2
BLOCK_RECORD
  5
1
330
0
100
AcDbSymbolTable
 70
    2
  0
BLOCK_RECORD
  5
1F
330
1
100
AcDbSymbolTableRecord
100
AcDbBlockTableRecord
  2
*Model_Space
 70
    0
280
    1
281
    0
  0
BLOCK_RECORD
  5
1E
330
1
100
AcDbSymbolTableRecord
100
AcDbBlockTableRecord
  2
*Paper_Space
 70
    0
280
    1
281
    0
  0
BLOCK_RECORD
  5
54
330
1
100
AcDbSymbolTableRecord
100
AcDbBlockTableRecord
  2
*D15
 70
    0
280
    1
281
    0
  0
BLOCK_RECORD
  5
57
330
1
100
AcDbSymbolTableRecord
100
AcDbBlockTableRecord
  2
*D8
 70
    0
280
    1
281
    0
  0
BLOCK_RECORD
  5
5A
330
1
100
AcDbSymbolTableRecord
100
AcDbBlockTableRecord
  2
*D9
 70
    0
280
    1
281
    0
  0
BLOCK_RECORD
  5
5D
330
1
100
AcDbSymbolTableRecord
100
AcDbBlockTableRecord
  2
*D17
 70
    0
280
    1
281
    0
  0
BLOCK_RECORD
  5
60
330
1
100
AcDbSymbolTableRecord
100
AcDbBlockTableRecord
  2
*D12
 70
    0
280
    1
281
    0
  0
BLOCK_RECORD
  5
63
330
1
100
AcDbSymbolTableRecord
100
AcDbBlockTableRecord
  2
*D1
 70
    0
280
    1
281
    0
  0
BLOCK_RECORD
  5
66
330
1
100
AcDbSymbolTableRecord
100
AcDbBlockTableRecord
  2
*D2
 70
    0
280
    1
281
    0
  0
BLOCK_RECORD
  5
69
330
1
100
AcDbSymbolTableRecord
100
AcDbBlockTableRecord
  2
*D14
 70
    0
280
    1
281
    0
  0
BLOCK_RECORD
  5
6C
330
1
100
AcDbSymbolTableRecord
100
AcDbBlockTableRecord
  2
*D13
 70
    0
280
    1
281
    0
  0
BLOCK_RECORD
  5
6F
330
1
100
AcDbSymbolTableRecord
100
AcDbBlockTableRecord
  2
*D19
 70
    0
280
    1
281
    0
  0
BLOCK_RECORD
  5
72
330
1
100
AcDbSymbolTableRecord
100
AcDbBlockTableRecord
  2
*D10
 70
    0
280
    1
281
    0
  0
BLOCK_RECORD
  5
75
330
1
100
AcDbSymbolTableRecord
100
AcDbBlockTableRecord
  2
*D18
 70
    0
280
    1
281
    0
  0
BLOCK_RECORD
  5
78
330
1
100
AcDbSymbolTableRecord
100
AcDbBlockTableRecord
  2
*D5
 70
    0
280
    1
281
    0
  0
BLOCK_RECORD
  5
7B
330
1
100
AcDbSymbolTableRecord
100
AcDbBlockTableRecord
  2
*D3
 70
    0
280
    1
281
    0
  0
BLOCK_RECORD
  5
7E
330
1
100
AcDbSymbolTableRecord
100
AcDbBlockTableRecord
  2
*D16
 70
    0
280
    1
281
    0
  0
BLOCK_RECORD
  5
81
330
1
100
AcDbSymbolTableRecord
100
AcDbBlockTableRecord
  2
*D11
 70
    0
280
    1
281
    0
  0
BLOCK_RECORD
  5
84
330
1
100
AcDbSymbolTableRecord
100
AcDbBlockTableRecord
  2
*D6
 70
    0
280
    1
281
    0
  0
BLOCK_RECORD
  5
87
330
1
100
AcDbSymbolTableRecord
100
AcDbBlockTableRecord
  2
*D4
 70
    0
280
    1
281
    0
  0
BLOCK_RECORD
  5
8A
330
1
100
AcDbSymbolTableRecord
100
AcDbBlockTableRecord
  2
*D7
 70
    0
280
    1
281
    0
  0
ENDTAB
  0
ENDSEC
  0
SECTION
  2
BLOCKS
  0
BLOCK
  5
20
330
1F
100
AcDbEntity
  8
0
100
AcDbBlockBegin
  2
*Model_Space
 70
    0
 10
0
 20
0
 30
0
  3
*Model_Space
  1

  0
ENDBLK
  5
21
330
1F
100
AcDbEntity
  8
0
100
AcDbBlockEnd
  0
BLOCK
  5
1C
330
1B
100
AcDbEntity
  8
0
100
AcDbBlockBegin
  2
*Paper_Space
 70
    0
 10
0
 20
0
 30
0
  3
*Paper_Space
  1

  0
ENDBLK
  5
1D
330
1F
100
AcDbEntity
  8
0
100
AcDbBlockEnd
  0
BLOCK
  5
55
330
54
100
AcDbEntity
  8
0
100
AcDbBlockBegin
  2
*D15
 70
    1
 10
0
 20
0
  3
*D15
  1

  0
LINE
  5
8D
100
AcDbEntity
  8
Dimensions
  6
CONTINUOUS
 62
    7
370
    0
100
AcDbLine
 10
102
 20
1
 11
103
 21
1
  0
SOLID
  5
8E
100
AcDbEntity
  8
Dimensions
  6
CONTINUOUS
 62
    7
370
    0
100
AcDbTrace
 10
102
 20
1
 30
0
 11
102.5
 21
1.083256931554568
 31
0
 12
102.5
 22
0.9167430684454319
 32
0
 13
102.5
 23
0.9167430684454319
 33
0
  0
ENDBLK
  5
56
330
54
100
AcDbEntity
  8
0
100
AcDbBlockEnd
  0
BLOCK
  5
58
330
57
100
AcDbEntity
  8
0
100
AcDbBlockBegin
  2
*D8
 70
    1
 10
0
 20
0
  3
*D8
  1

  0
LINE
  5
8F
100
AcDbEntity
  8
Dimensions
  6
CONTINUOUS
 62
    7
370
    0
100
AcDbLine
 10
73.49999999999997
 20
0.9999999999999378
 11
74.49999999999997
 21
0.9999999999999378
  0
SOLID
  5
90
100
AcDbEntity
  8
Dimensions
  6
CONTINUOUS
 62
    7
370
    0
100
AcDbTrace
 10
73.49999999999997
 20
0.9999999999999378
 30
0
 11
73.99999999999997
 21
1.083256931554506
 31
0
 12
73.99999999999997
 22
0.9167430684453697
 32
0
 13
73.99999999999997
 23
0.9167430684453697
 33
0
  0
ENDBLK
  5
59
330
57
100
AcDbEntity
  8
0
100
AcDbBlockEnd
  0
BLOCK
  5
5B
330
5A
100
AcDbEntity
  8
0
100
AcDbBlockBegin
  2
*D9
 70
    1
 10
0
 20
0
  3
*D9
  1

  0
LINE
  5
91
100
AcDbEntity
  8
Dimensions
  6
ByBlock
 62
    0
370
   -2
100
AcDbLine
 10
74.875
 20
-2
 11
88.75
 21
-2
  0
MTEXT
  5
92
100
AcDbEntity
  8
Dimensions
  6
CONTINUOUS
 62
    0
370
   -2
100
AcDbMText
 10
81.8125
 20
-1.375
 30
0
 40
0.75
 41
3.062500000000046
 71
    5
 72
    1
  1
13 7/8
  7
standard
210
0
220
0
230
1
 50
0
 73
    2
 44
1
  0
SOLID
  5
93
100
AcDbEntity
  8
Dimensions
  6
ByBlock
 62
    0
370
   -2
100
AcDbTrace
 10
74.875
 20
-2
 30
0
 11
75.375
 21
-1.916743068445432
 31
0
 12
75.375
 22
-2.083256931554568
 32
0
 13
75.375
 23
-2.083256931554568
 33
0
  0
SOLID
  5
94
100
AcDbEntity
  8
Dimensions
  6
ByBlock
 62
    0
370
   -2
100
AcDbTrace
 10
88.75
 20
-2
 30
0
 11
88.25
 21
-2.083256931554568
 31
0
 12
88.25
 22
-1.916743068445432
 32
0
 13
88.25
 23
-1.916743068445432
 33
0
  0
LINE
  5
95
100
AcDbEntity
  8
Dimensions
  6
ByBlock
 62
    0
370
   -2
100
AcDbLine
 10
74.875
 20
-0.025
 11
74.875
 21
-2.05
  0
LINE
  5
96
100
AcDbEntity
  8
Dimensions
  6
ByBlock
 62
    0
370
   -2
100
AcDbLine
 10
88.75
 20
-0.025
 11
88.75
 21
-2.05
  0
ENDBLK
  5
5C
330
5A
100
AcDbEntity
  8
0
100
AcDbBlockEnd
  0
BLOCK
  5
5E
330
5D
100
AcDbEntity
  8
0
100
AcDbBlockBegin
  2
*D17
 70
    1
 10
0
 20
0
  3
*D17
  1

  0
LINE
  5
97
100
AcDbEntity
  8
Dimensions
  6
ByBlock
 62
    0
370
   -2
100
AcDbLine
 10
111.875
 20
-2
 11
121.75
 21
-2
  0
MTEXT
  5
98
100
AcDbEntity
  8
Dimensions
  6
CONTINUOUS
 62
    0
370
   -2
100
AcDbMText
 10
116.8125
 20
-1.375
 30
0
 40
0.75
 41
2.64583333333338
 71
    5
 72
    1
  1
9 7/8
  7
standard
210
0
220
0
230
1
 50
0
 73
    2
 44
1
  0
SOLID
  5
99
100
AcDbEntity
  8
Dimensions
  6
ByBlock
 62
    0
370
   -2
100
AcDbTrace
 10
111.875
 20
-2
 30
0
 11
112.375
 21
-1.916743068445432
 31
0
 12
112.375
 22
-2.083256931554568
 32
0
 13
112.375
 23
-2.083256931554568
 33
0
  0
SOLID
  5
9A
100
AcDbEntity
  8
Dimensions
  6
ByBlock
 62
    0
370
   -2
100
AcDbTrace
 10
121.75
 20
-2
 30
0
 11
121.25
 21
-2.083256931554568
 31
0
 12
121.25
 22
-1.916743068445432
 32
0
 13
121.25
 23
-1.916743068445432
 33
0
  0
LINE
  5
9B
100
AcDbEntity
  8
Dimensions
  6
ByBlock
 62
    0
370
   -2
100
AcDbLine
 10
111.875
 20
-0.025
 11
111.875
 21
-2.05
  0
LINE
  5
9C
100
AcDbEntity
  8
Dimensions
  6
ByBlock
 62
    0
370
   -2
100
AcDbLine
 10
121.75
 20
-0.025
 11
121.75
 21
-2.05
  0
ENDBLK
  5
5F
330
5D
100
AcDbEntity
  8
0
100
AcDbBlockEnd
  0
BLOCK
  5
61
330
60
100
AcDbEntity
  8
0
100
AcDbBlockBegin
  2
*D12
 70
    1
 10
0
 20
0
  3
*D12
  1

  0
LINE
  5
9D
100
AcDbEntity
  8
Dimensions
  6
CONTINUOUS
 62
    7
370
    0
100
AcDbLine
 10
91
 20
1
 11
90
 21
1
  0
SOLID
  5
9E
100
AcDbEntity
  8
Dimensions
  6
CONTINUOUS
 62
    7
370
    0
100
AcDbTrace
 10
91
 20
1
 30
0
 11
90.5
 21
0.916743068445432
 31
0
 12
90.5
 22
1.083256931554568
 32
0
 13
90.5
 23
1.083256931554568
 33
0
  0
ENDBLK
  5
62
330
60
100
AcDbEntity
  8
0
100
AcDbBlockEnd
  0
BLOCK
  5
64
330
63
100
AcDbEntity
  8
0
100
AcDbBlockBegin
  2
*D1
 70
    1
 10
0
 20
0
  3
*D1
  1

  0
LINE
  5
9F
100
AcDbEntity
  8
Dimensions
  6
ByBlock
 62
    0
370
   -2
100
AcDbLine
 10
7.101020514433653
 20
17
 11
16.89897948556634
 21
17
  0
MTEXT
  5
A0
100
AcDbEntity
  8
Dimensions
  6
CONTINUOUS
 62
    0
370
   -2
100
AcDbMText
 10
12
 20
17.625
 30
0
 40
0.75
 41
3.479166666666806
 71
    5
 72
    1
  1
9 13/16
  7
standard
210
0
220
0
230
1
 50
0
 73
    2
 44
1
  0
SOLID
  5
A1
100
AcDbEntity
  8
Dimensions
  6
ByBlock
 62
    0
370
   -2
100
AcDbTrace
 10
7.101020514433653
 20
17
 30
0
 11
7.601020514433653
 21
17.08325693155457
 31
0
 12
7.601020514433653
 22
16.91674306844543
 32
0
 13
7.601020514433653
 23
16.91674306844543
 33
0
  0
SOLID
  5
A2
100
AcDbEntity
  8
Dimensions
  6
ByBlock
 62
    0
370
   -2
100
AcDbTrace
 10
16.89897948556634
 20
17
 30
0
 11
16.39897948556634
 21
16.91674306844543
 31
0
 12
16.39897948556634
 22
17.08325693155457
 32
0
 13
16.39897948556634
 23
17.08325693155457
 33
0
  0
LINE
  5
A3
100
AcDbEntity
  8
Dimensions
  6
ByBlock
 62
    0
370
   -2
100
AcDbLine
 10
7.101020514433653
 20
12.025
 11
7.101020514433653
 21
17.05
  0
LINE
  5
A4
100
AcDbEntity
  8
Dimensions
  6
ByBlock
 62
    0
370
   -2
100
AcDbLine
 10
16.89897948556634
 20
12.025
 11
16.89897948556634
 21
17.05
  0
ENDBLK
  5
65
330
63
100
AcDbEntity
  8
0
100
AcDbBlockEnd
  0
BLOCK
  5
67
330
66
100
AcDbEntity
  8
0
100
AcDbBlockBegin
  2
*D2
 70
    1
 10
0
 20
0
  3
*D2
  1

  0
LINE
  5
A5
100
AcDbEntity
  8
Dimensions
  6
ByBlock
 62
    0
370
   -2
100
AcDbLine
 10
5.675444679663244
 20
19
 11
18.32455532033675
 21
19
  0
MTEXT
  5
A6
100
AcDbEntity
  8
Dimensions
  6
CONTINUOUS
 62
    0
370
   -2
100
AcDbMText
 10
12
 20
19.625
 30
0
 40
0.75
 41
3.062500000000046
 71
    5
 72
    1
  1
12 5/8
  7
standard
210
0
220
0
230
1
 50
0
 73
    2
 44
1
  0
SOLID
  5
A7
100
AcDbEntity
  8
Dimensions
  6
ByBlock
 62
    0
370
   -2
100
AcDbTrace
 10
5.675444679663244
 20
19
 30
0
 11
6.175444679663244
 21
19.08325693155457
 31
0
 12
6.175444679663244
 22
18.91674306844543
 32
0
 13
6.175444679663244
 23
18.91674306844543
 33
0
  0
SOLID
  5
A8
100
AcDbEntity
  8
Dimensions
  6
ByBlock
 62
    0
370
   -2
100
AcDbTrace
 10
18.32455532033675
 20
19
 30
0
 11
17.82455532033675
 21
18.91674306844543
 31
0
 12
17.82455532033675
 22
19.08325693155457
 32
0
 13
17.82455532033675
 23
19.08325693155457
 33
0
  0
LINE
  5
A9
100
AcDbEntity
  8
Dimensions
  6
ByBlock
 62
    0
370
   -2
100
AcDbLine
 10
5.675444679663244
 20
10.025
 11
5.675444679663244
 21
19.05
  0
LINE
  5
AA
100
AcDbEntity
  8
Dimensions
  6
ByBlock
 62
    0
370
   -2
100
AcDbLine
 10
18.32455532033675
 20
10.025
 11
18.32455532033675
 21
19.05
  0
ENDBLK
  5
68
330
66
100
AcDbEntity
  8
0
100
AcDbBlockEnd
  0
BLOCK
  5
6A
330
69
100
AcDbEntity
  8
0
100
AcDbBlockBegin
  2
*D14
 70
    1
 10
0
 20
0
  3
*D14
  1

  0
LINE
  5
AB
100
AcDbEntity
  8
Dimensions
  6
ByBlock
 62
    0
370
   -2
100
AcDbLine
 10
101.75
 20
-2
 11
111.625
 21
-2
  0
MTEXT
  5
AC
100
AcDbEntity
  8
Dimensions
  6
CONTINUOUS
 62
    0
370
   -2
100
AcDbMText
 10
106.6875
 20
-1.375
 30
0
 40
0.75
 41
2.64583333333338
 71
    5
 72
    1
  1
9 7/8
  7
standard
210
0
220
0
230
1
 50
0
 73
    2
 44
1
  0
SOLID
  5
AD
100
AcDbEntity
  8
Dimensions
  6
ByBlock
 62
    0
370
   -2
100
AcDbTrace
 10
101.75
 20
-2
 30
0
 11
102.25
 21
-1.916743068445432
 31
0
 12
102.25
 22
-2.083256931554568
 32
0
 13
102.25
 23
-2.083256931554568
 33
0
  0
SOLID
  5
AE
100
AcDbEntity
  8
Dimensions
  6
ByBlock
 62
    0
370
   -2
100
AcDbTrace
 10
111.625
 20
-2
 30
0
 11
111.125
 21
-2.083256931554568
 31
0
 12
111.125
 22
-1.916743068445432
 32
0
 13
111.125
 23
-1.916743068445432
 33
0
  0
LINE
  5
AF
100
AcDbEntity
  8
Dimensions
  6
ByBlock
 62
    0
370
   -2
100
AcDbLine
 10
101.75
 20
-0.025
 11
101.75
 21
-2.05
  0
LINE
  5
B0
100
AcDbEntity
  8
Dimensions
  6
ByBlock
 62
    0
370
   -2
100
AcDbLine
 10
111.625
 20
-0.025
 11
111.625
 21
-2.05
  0
ENDBLK
  5
6B
330
69
100
AcDbEntity
  8
0
100
AcDbBlockEnd
  0
BLOCK
  5
6D
330
6C
100
AcDbEntity
  8
0
100
AcDbBlockBegin
  2
*D13
 70
    1
 10
0
 20
0
  3
*D13
  1

  0
LINE
  5
B1
100
AcDbEntity
  8
Dimensions
  6
CONTINUOUS
 62
    7
370
    0
100
AcDbLine
 10
100
 20
1
 11
101
 21
1
  0
SOLID
  5
B2
100
AcDbEntity
  8
Dimensions
  6
CONTINUOUS
 62
    7
370
    0
100
AcDbTrace
 10
100
 20
1
 30
0
 11
100.5
 21
1.083256931554568
 31
0
 12
100.5
 22
0.9167430684454319
 32
0
 13
100.5
 23
0.9167430684454319
 33
0
  0
ENDBLK
  5
6E
330
6C
100
AcDbEntity
  8
0
100
AcDbBlockEnd
  0
BLOCK
  5
70
330
6F
100
AcDbEntity
  8
0
100
AcDbBlockBegin
  2
*D19
 70
    1
 10
0
 20
0
  3
*D19
  1

  0
LINE
  5
B3
100
AcDbEntity
  8
Dimensions
  6
CONTINUOUS
 62
    7
370
    0
100
AcDbLine
 10
120
 20
1
 11
121
 21
1
  0
SOLID
  5
B4
100
AcDbEntity
  8
Dimensions
  6
CONTINUOUS
 62
    7
370
    0
100
AcDbTrace
 10
120
 20
1
 30
0
 11
120.5
 21
1.083256931554568
 31
0
 12
120.5
 22
0.9167430684454319
 32
0
 13
120.5
 23
0.9167430684454319
 33
0
  0
ENDBLK
  5
71
330
6F
100
AcDbEntity
  8
0
100
AcDbBlockEnd
  0
BLOCK
  5
73
330
72
100
AcDbEntity
  8
0
100
AcDbBlockBegin
  2
*D10
 70
    1
 10
0
 20
0
  3
*D10
  1

  0
LINE
  5
B5
100
AcDbEntity
  8
Dimensions
  6
ByBlock
 62
    0
370
   -2
100
AcDbLine
 10
89
 20
-2
 11
101.625
 21
-2
  0
MTEXT
  5
B6
100
AcDbEntity
  8
Dimensions
  6
CONTINUOUS
 62
    0
370
   -2
100
AcDbMText
 10
95.3125
 20
-1.375
 30
0
 40
0.75
 41
3.062500000000046
 71
    5
 72
    1
  1
12 5/8
  7
standard
210
0
220
0
230
1
 50
0
 73
    2
 44
1
  0
SOLID
  5
B7
100
AcDbEntity
  8
Dimensions
  6
ByBlock
 62
    0
370
   -2
100
AcDbTrace
 10
89
 20
-2
 30
0
 11
89.5
 21
-1.916743068445432
 31
0
 12
89.5
 22
-2.083256931554568
 32
0
 13
89.5
 23
-2.083256931554568
 33
0
  0
SOLID
  5
B8
100
AcDbEntity
  8
Dimensions
  6
ByBlock
 62
    0
370
   -2
100
AcDbTrace
 10
101.625
 20
-2
 30
0
 11
101.125
 21
-2.083256931554568
 31
0
 12
101.125
 22
-1.916743068445432
 32
0
 13
101.125
 23
-1.916743068445432
 33
0
  0
LINE
  5
B9
100
AcDbEntity
  8
Dimensions
  6
ByBlock
 62
    0
370
   -2
100
AcDbLine
 10
89
 20
-0.025
 11
89
 21
-2.05
  0
LINE
  5
BA
100
AcDbEntity
  8
Dimensions
  6
ByBlock
 62
    0
370
   -2
100
AcDbLine
 10
101.625
 20
-0.025
 11
101.625
 21
-2.05
  0
ENDBLK
  5
74
330
72
100
AcDbEntity
  8
0
100
AcDbBlockEnd
  0
BLOCK
  5
76
330
75
100
AcDbEntity
  8
0
100
AcDbBlockBegin
  2
*D18
 70
    1
 10
0
 20
0
  3
*D18
  1

  0
LINE
  5
BB
100
AcDbEntity
  8
Dimensions
  6
CONTINUOUS
 62
    7
370
    0
100
AcDbLine
 10
114
 20
1
 11
113
 21
1
  0
SOLID
  5
BC
100
AcDbEntity
  8
Dimensions
  6
CONTINUOUS
 62
    7
370
    0
100
AcDbTrace
 10
114
 20
1
 30
0
 11
113.5
 21
0.916743068445432
 31
0
 12
113.5
 22
1.083256931554568
 32
0
 13
113.5
 23
1.083256931554568
 33
0
  0
ENDBLK
  5
77
330
75
100
AcDbEntity
  8
0
100
AcDbBlockEnd
  0
BLOCK
  5
79
330
78
100
AcDbEntity
  8
0
100
AcDbBlockBegin
  2
*D5
 70
    1
 10
0
 20
0
  3
*D5
  1

  0
LINE
  5
BD
100
AcDbEntity
  8
Dimensions
  6
ByBlock
 62
    0
370
   -2
100
AcDbLine
 10
50.625
 20
-2.000000000000001
 11
60.5
 21
-2.000000000000001
  0
MTEXT
  5
BE
100
AcDbEntity
  8
Dimensions
  6
CONTINUOUS
 62
    0
370
   -2
100
AcDbMText
 10
55.5625
 20
-1.375000000000001
 30
0
 40
0.75
 41
2.64583333333338
 71
    5
 72
    1
  1
9 7/8
  7
standard
210
0
220
0
230
1
 50
0
 73
    2
 44
1
  0
SOLID
  5
BF
100
AcDbEntity
  8
Dimensions
  6
ByBlock
 62
    0
370
   -2
100
AcDbTrace
 10
50.625
 20
-2.000000000000001
 30
0
 11
51.125
 21
-1.916743068445433
 31
0
 12
51.125
 22
-2.083256931554569
 32
0
 13
51.125
 23
-2.083256931554569
 33
0
  0
SOLID
  5
C0
100
AcDbEntity
  8
Dimensions
  6
ByBlock
 62
    0
370
   -2
100
AcDbTrace
 10
60.5
 20
-2.000000000000001
 30
0
 11
60
 21
-2.083256931554569
 31
0
 12
60
 22
-1.916743068445433
 32
0
 13
60
 23
-1.916743068445433
 33
0
  0
LINE
  5
C1
100
AcDbEntity
  8
Dimensions
  6
ByBlock
 62
    0
370
   -2
100
AcDbLine
 10
50.625
 20
-0.025
 11
50.625
 21
-2.050000000000001
  0
LINE
  5
C2
100
AcDbEntity
  8
Dimensions
  6
ByBlock
 62
    0
370
   -2
100
AcDbLine
 10
60.5
 20
-0.025
 11
60.5
 21
-2.050000000000001
  0
ENDBLK
  5
7A
330
78
100
AcDbEntity
  8
0
100
AcDbBlockEnd
  0
BLOCK
  5
7C
330
7B
100
AcDbEntity
  8
0
100
AcDbBlockBegin
  2
*D3
 70
    1
 10
0
 20
0
  3
*D3
  1

  0
LINE
  5
C3
100
AcDbEntity
  8
Dimensions
  6
ByBlock
 62
    0
370
   -2
100
AcDbLine
 10
5.071796769724489
 20
21
 11
18.92820323027551
 21
21
  0
MTEXT
  5
C4
100
AcDbEntity
  8
Dimensions
  6
CONTINUOUS
 62
    0
370
   -2
100
AcDbMText
 10
12
 20
21.625
 30
0
 40
0.75
 41
3.062500000000046
 71
    5
 72
    1
  1
13 7/8
  7
standard
210
0
220
0
230
1
 50
0
 73
    2
 44
1
  0
SOLID
  5
C5
100
AcDbEntity
  8
Dimensions
  6
ByBlock
 62
    0
370
   -2
100
AcDbTrace
 10
5.071796769724489
 20
21
 30
0
 11
5.571796769724489
 21
21.08325693155457
 31
0
 12
5.571796769724489
 22
20.91674306844543
 32
0
 13
5.571796769724489
 23
20.91674306844543
 33
0
  0
SOLID
  5
C6
100
AcDbEntity
  8
Dimensions
  6
ByBlock
 62
    0
370
   -2
100
AcDbTrace
 10
18.92820323027551
 20
21
 30
0
 11
18.42820323027551
 21
20.91674306844543
 31
0
 12
18.42820323027551
 22
21.08325693155457
 32
0
 13
18.42820323027551
 23
21.08325693155457
 33
0
  0
LINE
  5
C7
100
AcDbEntity
  8
Dimensions
  6
ByBlock
 62
    0
370
   -2
100
AcDbLine
 10
5.071796769724489
 20
8.025
 11
5.071796769724489
 21
21.05
  0
LINE
  5
C8
100
AcDbEntity
  8
Dimensions
  6
ByBlock
 62
    0
370
   -2
100
AcDbLine
 10
18.92820323027551
 20
8.025
 11
18.92820323027551
 21
21.05
  0
ENDBLK
  5
7D
330
7B
100
AcDbEntity
  8
0
100
AcDbBlockEnd
  0
BLOCK
  5
7F
330
7E
100
AcDbEntity
  8
0
100
AcDbBlockBegin
  2
*D16
 70
    1
 10
0
 20
0
  3
*D16
  1

  0
LINE
  5
C9
100
AcDbEntity
  8
Dimensions
  6
CONTINUOUS
 62
    7
370
    0
100
AcDbLine
 10
111
 20
1
 11
110
 21
1
  0
SOLID
  5
CA
100
AcDbEntity
  8
Dimensions
  6
CONTINUOUS
 62
    7
370
    0
100
AcDbTrace
 10
111
 20
1
 30
0
 11
110.5
 21
0.916743068445432
 31
0
 12
110.5
 22
1.083256931554568
 32
0
 13
110.5
 23
1.083256931554568
 33
0
  0
ENDBLK
  5
80
330
7E
100
AcDbEntity
  8
0
100
AcDbBlockEnd
  0
BLOCK
  5
82
330
81
100
AcDbEntity
  8
0
100
AcDbBlockBegin
  2
*D11
 70
    1
 10
0
 20
0
  3
*D11
  1

  0
LINE
  5
CB
100
AcDbEntity
  8
Dimensions
  6
CONTINUOUS
 62
    7
370
    0
100
AcDbLine
 10
88
 20
1
 11
87
 21
1
  0
SOLID
  5
CC
100
AcDbEntity
  8
Dimensions
  6
CONTINUOUS
 62
    7
370
    0
100
AcDbTrace
 10
88
 20
1
 30
0
 11
87.5
 21
0.916743068445432
 31
0
 12
87.5
 22
1.083256931554568
 32
0
 13
87.5
 23
1.083256931554568
 33
0
  0
ENDBLK
  5
83
330
81
100
AcDbEntity
  8
0
100
AcDbBlockEnd
  0
BLOCK
  5
85
330
84
100
AcDbEntity
  8
0
100
AcDbBlockBegin
  2
*D6
 70
    1
 10
0
 20
0
  3
*D6
  1

  0
LINE
  5
CD
100
AcDbEntity
  8
Dimensions
  6
ByBlock
 62
    0
370
   -2
100
AcDbLine
 10
60.75
 20
-2
 11
74.75
 21
-2
  0
MTEXT
  5
CE
100
AcDbEntity
  8
Dimensions
  6
CONTINUOUS
 62
    0
370
   -2
100
AcDbMText
 10
67.75
 20
-1.375
 30
0
 40
0.75
 41
0.8333333333333333
 71
    5
 72
    1
  1
14
  7
standard
210
0
220
0
230
1
 50
0
 73
    2
 44
1
  0
SOLID
  5
CF
100
AcDbEntity
  8
Dimensions
  6
ByBlock
 62
    0
370
   -2
100
AcDbTrace
 10
60.75
 20
-2
 30
0
 11
61.25
 21
-1.916743068445432
 31
0
 12
61.25
 22
-2.083256931554568
 32
0
 13
61.25
 23
-2.083256931554568
 33
0
  0
SOLID
  5
D0
100
AcDbEntity
  8
Dimensions
  6
ByBlock
 62
    0
370
   -2
100
AcDbTrace
 10
74.75
 20
-2
 30
0
 11
74.25
 21
-2.083256931554568
 31
0
 12
74.25
 22
-1.916743068445432
 32
0
 13
74.25
 23
-1.916743068445432
 33
0
  0
LINE
  5
D1
100
AcDbEntity
  8
Dimensions
  6
ByBlock
 62
    0
370
   -2
100
AcDbLine
 10
60.75
 20
-0.025
 11
60.75
 21
-2.05
  0
LINE
  5
D2
100
AcDbEntity
  8
Dimensions
  6
ByBlock
 62
    0
370
   -2
100
AcDbLine
 10
74.75
 20
-0.025
 11
74.75
 21
-2.05
  0
ENDBLK
  5
86
330
84
100
AcDbEntity
  8
0
100
AcDbBlockEnd
  0
BLOCK
  5
88
330
87
100
AcDbEntity
  8
0
100
AcDbBlockBegin
  2
*D4
 70
    1
 10
0
 20
0
  3
*D4
  1

  0
LINE
  5
D3
100
AcDbEntity
  8
Dimensions
  6
ByBlock
 62
    0
370
   -2
100
AcDbLine
 10
36.5
 20
-2
 11
50.5
 21
-2
  0
MTEXT
  5
D4
100
AcDbEntity
  8
Dimensions
  6
CONTINUOUS
 62
    0
370
   -2
100
AcDbMText
 10
43.5
 20
-1.375
 30
0
 40
0.75
 41
0.8333333333333333
 71
    5
 72
    1
  1
14
  7
standard
210
0
220
0
230
1
 50
0
 73
    2
 44
1
  0
SOLID
  5
D5
100
AcDbEntity
  8
Dimensions
  6
ByBlock
 62
    0
370
   -2
100
AcDbTrace
 10
36.5
 20
-2
 30
0
 11
37
 21
-1.916743068445432
 31
0
 12
37
 22
-2.083256931554569
 32
0
 13
37
 23
-2.083256931554569
 33
0
  0
SOLID
  5
D6
100
AcDbEntity
  8
Dimensions
  6
ByBlock
 62
    0
370
   -2
100
AcDbTrace
 10
50.5
 20
-2
 30
0
 11
50
 21
-2.083256931554569
 31
0
 12
50
 22
-1.916743068445432
 32
0
 13
50
 23
-1.916743068445432
 33
0
  0
LINE
  5
D7
100
AcDbEntity
  8
Dimensions
  6
ByBlock
 62
    0
370
   -2
100
AcDbLine
 10
36.5
 20
-0.025
 11
36.5
 21
-2.05
  0
LINE
  5
D8
100
AcDbEntity
  8
Dimensions
  6
ByBlock
 62
    0
370
   -2
100
AcDbLine
 10
50.5
 20
-0.025
 11
50.5
 21
-2.05
  0
ENDBLK
  5
89
330
87
100
AcDbEntity
  8
0
100
AcDbBlockEnd
  0
BLOCK
  5
8B
330
8A
100
AcDbEntity
  8
0
100
AcDbBlockBegin
  2
*D7
 70
    1
 10
0
 20
0
  3
*D7
  1

  0
LINE
  5
D9
100
AcDbEntity
  8
Dimensions
  6
CONTINUOUS
 62
    7
370
    0
100
AcDbLine
 10
62.27777777777781
 20
0.9999999999999378
 11
61.27777777777781
 21
0.9999999999999378
  0
SOLID
  5
DA
100
AcDbEntity
  8
Dimensions
  6
CONTINUOUS
 62
    7
370
    0
100
AcDbTrace
 10
62.27777777777781
 20
0.9999999999999378
 30
0
 11
61.77777777777781
 21
0.9167430684453698
 31
0
 12
61.77777777777781
 22
1.083256931554506
 32
0
 13
61.77777777777781
 23
1.083256931554506
 33
0
  0
ENDBLK
  5
8C
330
8A
100
AcDbEntity
  8
0
100
AcDbBlockEnd
  0
ENDSEC
  0
SECTION
  2
ENTITIES
  0
LINE
  5
DB
100
AcDbEntity
  8
Guides
  6
ByLayer
 62
  256
370
   -1
100
AcDbLine
 10
36
 20
0
 11
132
 21
0
  0
LINE
  5
DC
100
AcDbEntity
  8
Guides
  6
ByLayer
 62
  256
370
   -1
100
AcDbLine
 10
0
 20
0
 11
12
 21
0
  0
LINE
  5
DD
100
AcDbEntity
  8
Guides
  6
ByLayer
 62
  256
370
   -1
100
AcDbLine
 10
12
 20
0
 11
24
 21
0
  0
LINE
  5
DE
100
AcDbEntity
  8
Guides
  6
ByLayer
 62
  256
370
   -1
100
AcDbLine
 10
24
 20
0
 11
24
 21
2
  0
LINE
  5
DF
100
AcDbEntity
  8
Guides
  6
ByLayer
 62
  256
370
   -1
100
AcDbLine
 10
24
 20
2
 11
0
 21
2
  0
LINE
  5
E0
100
AcDbEntity
  8
Guides
  6
ByLayer
 62
  256
370
   -1
100
AcDbLine
 10
0
 20
2
 11
0
 21
4
  0
LINE
  5
E1
100
AcDbEntity
  8
Guides
  6
ByLayer
 62
  256
370
   -1
100
AcDbLine
 10
0
 20
4
 11
24
 21
4
  0
LINE
  5
E2
100
AcDbEntity
  8
Guides
  6
ByLayer
 62
  256
370
   -1
100
AcDbLine
 10
24
 20
4
 11
24
 21
6
  0
LINE
  5
E3
100
AcDbEntity
  8
Guides
  6
ByLayer
 62
  256
370
   -1
100
AcDbLine
 10
24
 20
6
 11
0
 21
6
  0
LINE
  5
E4
100
AcDbEntity
  8
Guides
  6
ByLayer
 62
  256
370
   -1
100
AcDbLine
 10
0
 20
6
 11
0
 21
8
  0
LINE
  5
E5
100
AcDbEntity
  8
Guides
  6
ByLayer
 62
  256
370
   -1
100
AcDbLine
 10
0
 20
8
 11
24
 21
8
  0
LINE
  5
E6
100
AcDbEntity
  8
Guides
  6
ByLayer
 62
  256
370
   -1
100
AcDbLine
 10
24
 20
8
 11
24
 21
10
  0
LINE
  5
E7
100
AcDbEntity
  8
Guides
  6
ByLayer
 62
  256
370
   -1
100
AcDbLine
 10
24
 20
10
 11
0
 21
10
  0
LINE
  5
E8
100
AcDbEntity
  8
Guides
  6
ByLayer
 62
  256
370
   -1
100
AcDbLine
 10
0
 20
10
 11
0
 21
12
  0
LINE
  5
E9
100
AcDbEntity
  8
Guides
  6
ByLayer
 62
  256
370
   -1
100
AcDbLine
 10
0
 20
12
 11
24
 21
12
  0
LINE
  5
EA
100
AcDbEntity
  8
Guides
  6
ByLayer
 62
  256
370
   -1
100
AcDbLine
 10
24
 20
12
 11
24
 21
14
  0
LINE
  5
EB
100
AcDbEntity
  8
Guides
  6
ByLayer
 62
  256
370
   -1
100
AcDbLine
 10
24
 20
14
 11
0
 21
14
  0
LINE
  5
EC
100
AcDbEntity
  8
Guides
  6
ByLayer
 62
  256
370
   -1
100
AcDbLine
 10
0
 20
14
 11
0
 21
16
  0
LINE
  5
ED
100
AcDbEntity
  8
Guides
  6
ByLayer
 62
  256
370
   -1
100
AcDbLine
 10
0
 20
16
 11
12
 21
16
  0
LINE
  5
EE
100
AcDbEntity
  8
Guides
  6
ByLayer
 62
  256
370
   -1
100
AcDbLine
 10
12
 20
16
 11
24
 21
16
  0
LINE
  5
EF
100
AcDbEntity
  8
Guides
  6
ByLayer
 62
  256
370
   -1
100
AcDbLine
 10
12
 20
16
 11
12
 21
0
  0
CIRCLE
  5
F0
100
AcDbEntity
  8
Guides
  6
ByLayer
 62
  256
370
   -1
100
AcDbCircle
 10
12
 20
7
 40
7
  0
LINE
  5
F1
100
AcDbEntity
  8
Faces
  6
ByLayer
 62
  256
370
   -1
100
AcDbLine
 10
7.101020514433634
 20
12
 11
16.89897948556637
 21
12
  0
LINE
  5
F2
100
AcDbEntity
  8
Faces
  6
ByLayer
 62
  256
370
   -1
100
AcDbLine
 10
5.675444679663244
 20
10
 11
18.32455532033676
 21
10
  0
LINE
  5
F3
100
AcDbEntity
  8
Faces
  6
ByLayer
 62
  256
370
   -1
100
AcDbLine
 10
5.071796769724489
 20
8
 11
18.92820323027551
 21
8
  0
LINE
  5
F4
100
AcDbEntity
  8
Faces
  6
ByLayer
 62
  256
370
   -1
100
AcDbLine
 10
5.071796769724492
 20
6
 11
18.9282032302755
 21
6
  0
LINE
  5
F5
100
AcDbEntity
  8
Faces
  6
ByLayer
 62
  256
370
   -1
100
AcDbLine
 10
5.675444679663242
 20
4
 11
18.32455532033676
 21
4.000000000000001
  0
LINE
  5
F6
100
AcDbEntity
  8
Faces
  6
ByLayer
 62
  256
370
   -1
100
AcDbLine
 10
7.101020514433642
 20
2
 11
16.89897948556636
 21
2.000000000000001
  0
DIMENSION
  5
F7
100
AcDbEntity
  8
Dimensions
  6
ByLayer
 62
  256
370
   -1
100
AcDbDimension
  2
*D1
 10
16.89897948556634
 20
17
 30
0
 11
12
 21
17.625
 31
0
 70
   32
 71
    5
  3
Standard
 53
0
210
0
220
0
230
1
100
AcDbAlignedDimension
 13
7.101020514433653
 23
12
 33
0
 14
16.89897948556634
 24
12
 34
0
100
AcDbRotatedDimension
  0
DIMENSION
  5
F8
100
AcDbEntity
  8
Dimensions
  6
ByLayer
 62
  256
370
   -1
100
AcDbDimension
  2
*D2
 10
18.32455532033675
 20
19
 30
0
 11
12
 21
19.625
 31
0
 70
   32
 71
    5
  3
Standard
 53
0
210
0
220
0
230
1
100
AcDbAlignedDimension
 13
5.675444679663244
 23
10
 33
0
 14
18.32455532033675
 24
10
 34
0
100
AcDbRotatedDimension
  0
DIMENSION
  5
F9
100
AcDbEntity
  8
Dimensions
  6
ByLayer
 62
  256
370
   -1
100
AcDbDimension
  2
*D3
 10
18.92820323027551
 20
21
 30
0
 11
12
 21
21.625
 31
0
 70
   32
 71
    5
  3
Standard
 53
0
210
0
220
0
230
1
100
AcDbAlignedDimension
 13
5.071796769724489
 23
8
 33
0
 14
18.92820323027551
 24
8
 34
0
100
AcDbRotatedDimension
  0
LINE
  5
FA
100
AcDbEntity
  8
Faces
  6
ByLayer
 62
  256
370
   -1
100
AcDbLine
 10
18.92820323027551
 20
5.999999999999999
 11
18.15174609496794
 21
3.102222521132794
  0
LINE
  5
FB
100
AcDbEntity
  8
Faces
  6
ByLayer
 62
  256
370
   -1
100
AcDbLine
 10
18.32455532033676
 20
4.000000000000001
 11
16.60382601128362
 21
1.542543867133026
  0
LINE
  5
FC
100
AcDbEntity
  8
Faces
  6
ByLayer
 62
  256
370
   -1
100
AcDbLine
 10
132
 20
0
 11
132
 21
48
  0
LINE
  5
FD
100
AcDbEntity
  8
Faces
  6
ByLayer
 62
  256
370
   -1
100
AcDbLine
 10
132
 20
48
 11
36
 21
48
  0
LINE
  5
FE
100
AcDbEntity
  8
0
  6
ByLayer
 62
  256
370
   -1
100
AcDbLine
 10
36
 20
0
 11
36.5
 21
0
  0
LINE
  5
FF
100
AcDbEntity
  8
0
  6
ByLayer
 62
  256
370
   -1
100
AcDbLine
 10
36.5
 20
0
 11
50.5
 21
0
  0
LINE
  5
100
100
AcDbEntity
  8
0
  6
ByLayer
 62
  256
370
   -1
100
AcDbLine
 10
50.5
 20
0
 11
50.625
 21
0
  0
LINE
  5
101
100
AcDbEntity
  8
0
  6
ByLayer
 62
  256
370
   -1
100
AcDbLine
 10
50.625
 20
0
 11
60.5
 21
0
  0
LINE
  5
102
100
AcDbEntity
  8
0
  6
ByLayer
 62
  256
370
   -1
100
AcDbLine
 10
60.5
 20
0
 11
60.75
 21
0
  0
LINE
  5
103
100
AcDbEntity
  8
0
  6
ByLayer
 62
  256
370
   -1
100
AcDbLine
 10
60.75
 20
0
 11
74.75
 21
0
  0
LINE
  5
104
100
AcDbEntity
  8
0
  6
ByLayer
 62
  256
370
   -1
100
AcDbLine
 10
74.75
 20
0
 11
74.875
 21
0
  0
LINE
  5
105
100
AcDbEntity
  8
Faces
  6
ByLayer
 62
  256
370
   -1
100
AcDbLine
 10
36
 20
0
 11
36
 21
48
  0
LINE
  5
106
100
AcDbEntity
  8
Faces
  6
ByLayer
 62
  256
370
   -1
100
AcDbLine
 10
36.5
 20
0
 11
36.5
 21
48
  0
LINE
  5
107
100
AcDbEntity
  8
Faces
  6
ByLayer
 62
  256
370
   -1
100
AcDbLine
 10
50.5
 20
0
 11
50.5
 21
48
  0
LINE
  5
108
100
AcDbEntity
  8
Faces
  6
ByLayer
 62
  256
370
   -1
100
AcDbLine
 10
50.625
 20
0
 11
50.625
 21
48
  0
LINE
  5
109
100
AcDbEntity
  8
Faces
  6
ByLayer
 62
  256
370
   -1
100
AcDbLine
 10
60.5
 20
0
 11
60.5
 21
48
  0
LINE
  5
10A
100
AcDbEntity
  8
Faces
  6
ByLayer
 62
  256
370
   -1
100
AcDbLine
 10
60.75
 20
0
 11
60.75
 21
48
  0
LINE
  5
10B
100
AcDbEntity
  8
Faces
  6
ByLayer
 62
  256
370
   -1
100
AcDbLine
 10
74.75
 20
0
 11
74.75
 21
48
  0
LINE
  5
10C
100
AcDbEntity
  8
Faces
  6
ByLayer
 62
  256
370
   -1
100
AcDbLine
 10
74.875
 20
0
 11
74.875
 21
48
  0
DIMENSION
  5
10D
100
AcDbEntity
  8
Dimensions
  6
ByLayer
 62
  256
370
   -1
100
AcDbDimension
  2
*D4
 10
50.5
 20
-2
 30
0
 11
43.5
 21
-1.375
 31
0
 70
   32
 71
    5
  3
Standard
 53
0
210
0
220
0
230
1
100
AcDbAlignedDimension
 13
36.5
 23
0
 33
0
 14
50.5
 24
0
 34
0
100
AcDbRotatedDimension
  0
DIMENSION
  5
10E
100
AcDbEntity
  8
Dimensions
  6
ByLayer
 62
  256
370
   -1
100
AcDbDimension
  2
*D5
 10
60.5
 20
-2.000000000000001
 30
0
 11
55.5625
 21
-1.375000000000001
 31
0
 70
   32
 71
    5
  3
Standard
 53
0
210
0
220
0
230
1
100
AcDbAlignedDimension
 13
50.625
 23
0
 33
0
 14
60.5
 24
0
 34
0
100
AcDbRotatedDimension
  0
DIMENSION
  5
10F
100
AcDbEntity
  8
Dimensions
  6
ByLayer
 62
  256
370
   -1
100
AcDbDimension
  2
*D6
 10
74.75
 20
-2
 30
0
 11
67.75
 21
-1.375
 31
0
 70
   32
 71
    5
  3
Standard
 53
0
210
0
220
0
230
1
100
AcDbAlignedDimension
 13
60.75
 23
0
 33
0
 14
74.75
 24
0
 34
0
100
AcDbRotatedDimension
  0
MTEXT
  5
110
100
AcDbEntity
  8
Info
  6
ByLayer
 62
  256
370
   -1
100
AcDbMText
 10
44
 20
5
 30
0
 40
1
 41
5.083333333333379
 71
    8
 72
    1
  1
Layer 4\PMiddle
  7
iso
210
0
220
0
230
1
 50
0
 73
    2
 44
1
  0
MTEXT
  5
111
100
AcDbEntity
  8
Info
  6
ByLayer
 62
  256
370
   -1
100
AcDbMText
 10
56
 20
5
 30
0
 40
1
 41
4.972222222222269
 71
    8
 72
    1
  1
Layer 7\PBottom
  7
iso
210
0
220
0
230
1
 50
0
 73
    2
 44
1
  0
MTEXT
  5
112
100
AcDbEntity
  8
Info
  6
ByLayer
 62
  256
370
   -1
100
AcDbMText
 10
67
 20
6
 30
0
 40
1
 41
4.97222222222233
 71
    8
 72
    1
  1
Layer 3
  7
iso
210
0
220
0
230
1
 50
0
 73
    2
 44
1
  0
MTEXT
  5
113
100
AcDbEntity
  8
Info
  6
ByLayer
 62
  256
370
   -1
100
AcDbMText
 10
82
 20
6
 30
0
 40
1
 41
4.97222222222233
 71
    8
 72
    1
  1
Layer 5
  7
iso
210
0
220
0
230
1
 50
0
 73
    2
 44
1
  0
MTEXT
  5
114
100
AcDbEntity
  8
Dimensions
  6
ByLayer
 62
  256
370
   -1
100
AcDbMText
 10
38.38888888888892
 20
2
 30
0
 40
1
 41
1.888888888888951
 71
    8
 72
    1
  1
90%%D
  7
iso
210
0
220
0
230
1
 50
0
 73
    2
 44
1
  0
LEADER
  5
115
100
AcDbEntity
  8
Dimensions
  6
ByLayer
 62
  256
370
   -1
100
AcDbLeader
  3
Standard
 71
    1
 72
    0
 73
    3
 74
    0
 75
    0
 40
1
 41
10
 76
2
 76
2
 10
62.27777777777781
 20
0.9999999999999378
 30
0
 10
61.27777777777781
 20
0.9999999999999378
 30
0
  0
MTEXT
  5
116
100
AcDbEntity
  8
Dimensions
  6
ByLayer
 62
  256
370
   -1
100
AcDbMText
 10
62.27777777777781
 20
1.999999999999938
 30
0
 40
1
 41
1.666666666666728
 71
    8
 72
    1
  1
15%%D
  7
iso
210
0
220
0
230
1
 50
0
 73
    2
 44
1
  0
MTEXT
  5
117
100
AcDbEntity
  8
Dimensions
  6
ByLayer
 62
  256
370
   -1
100
AcDbMText
 10
73.49999999999997
 20
1.999999999999938
 30
0
 40
1
 41
1.666666666666728
 71
    8
 72
    1
  1
15%%D
  7
iso
210
0
220
0
230
1
 50
0
 73
    2
 44
1
  0
LEADER
  5
118
100
AcDbEntity
  8
Dimensions
  6
ByLayer
 62
  256
370
   -1
100
AcDbLeader
  3
Standard
 71
    1
 72
    0
 73
    3
 74
    0
 75
    0
 40
1
 41
10
 76
2
 76
2
 10
73.49999999999997
 20
0.9999999999999378
 30
0
 10
74.49999999999997
 20
0.9999999999999378
 30
0
  0
LINE
  5
119
100
AcDbEntity
  8
0
  6
ByLayer
 62
  256
370
   -1
100
AcDbLine
 10
74.875
 20
0
 11
88.75
 21
0
  0
LINE
  5
11A
100
AcDbEntity
  8
Faces
  6
ByLayer
 62
  256
370
   -1
100
AcDbLine
 10
88.75
 20
0
 11
88.75
 21
48
  0
DIMENSION
  5
11B
100
AcDbEntity
  8
Dimensions
  6
ByLayer
 62
  256
370
   -1
100
AcDbDimension
  2
*D9
 10
88.75
 20
-2
 30
0
 11
81.8125
 21
-1.375
 31
0
 70
   32
 71
    5
  3
Standard
 53
0
210
0
220
0
230
1
100
AcDbAlignedDimension
 13
74.875
 23
0
 33
0
 14
88.75
 24
0
 34
0
100
AcDbRotatedDimension
  0
MTEXT
  5
11C
100
AcDbEntity
  8
Dimensions
  6
ByLayer
 62
  256
370
   -1
100
AcDbMText
 10
68
 20
-4
 30
0
 40
0.75
 41
11.33333355238218
 71
    8
 72
    1
  1
(13 7/8 on other side)
  7
iso
210
0
220
0
230
1
 50
0
 73
    2
 44
1
  0
MTEXT
  5
11D
100
AcDbEntity
  8
Dimensions
  6
ByLayer
 62
  256
370
   -1
100
AcDbMText
 10
82
 20
-4
 30
0
 40
0.75
 41
9.104166885715468
 71
    8
 72
    1
  1
(14 on other side)
  7
iso
210
0
220
0
230
1
 50
0
 73
    2
 44
1
  0
MTEXT
  5
11E
100
AcDbEntity
  8
Dimensions
  6
ByLayer
 62
  256
370
   -1
100
AcDbMText
 10
87
 20
2
 30
0
 40
1
 41
1.666666666666728
 71
    8
 72
    1
  1
15%%D
  7
iso
210
0
220
0
230
1
 50
0
 73
    2
 44
1
  0
LINE
  5
11F
100
AcDbEntity
  8
0
  6
ByLayer
 62
  256
370
   -1
100
AcDbLine
 10
88.75
 20
0
 11
89
 21
0
  0
LINE
  5
120
100
AcDbEntity
  8
0
  6
ByLayer
 62
  256
370
   -1
100
AcDbLine
 10
89
 20
0
 11
101.625
 21
0
  0
LINE
  5
121
100
AcDbEntity
  8
Faces
  6
ByLayer
 62
  256
370
   -1
100
AcDbLine
 10
101.625
 20
0
 11
101.625
 21
48
  0
LINE
  5
122
100
AcDbEntity
  8
0
  6
ByLayer
 62
  256
370
   -1
100
AcDbLine
 10
101.625
 20
0
 11
101.75
 21
0
  0
LINE
  5
123
100
AcDbEntity
  8
Faces
  6
ByLayer
 62
  256
370
   -1
100
AcDbLine
 10
89
 20
0
 11
89
 21
48
  0
LINE
  5
124
100
AcDbEntity
  8
Faces
  6
ByLayer
 62
  256
370
   -1
100
AcDbLine
 10
101.75
 20
0
 11
101.75
 21
48
  0
DIMENSION
  5
125
100
AcDbEntity
  8
Dimensions
  6
ByLayer
 62
  256
370
   -1
100
AcDbDimension
  2
*D10
 10
101.625
 20
-2
 30
0
 11
95.3125
 21
-1.375
 31
0
 70
   32
 71
    5
  3
Standard
 53
0
210
0
220
0
230
1
100
AcDbAlignedDimension
 13
89
 23
0
 33
0
 14
101.625
 24
0
 34
0
100
AcDbRotatedDimension
  0
LEADER
  5
126
100
AcDbEntity
  8
Dimensions
  6
ByLayer
 62
  256
370
   -1
100
AcDbLeader
  3
Standard
 71
    1
 72
    0
 73
    3
 74
    0
 75
    0
 40
1
 41
10
 76
2
 76
2
 10
88
 20
1
 30
0
 10
87
 20
1
 30
0
  0
LEADER
  5
127
100
AcDbEntity
  8
Dimensions
  6
ByLayer
 62
  256
370
   -1
100
AcDbLeader
  3
Standard
 71
    1
 72
    0
 73
    3
 74
    0
 75
    0
 40
1
 41
10
 76
2
 76
2
 10
91
 20
1
 30
0
 10
90
 20
1
 30
0
  0
LEADER
  5
128
100
AcDbEntity
  8
Dimensions
  6
ByLayer
 62
  256
370
   -1
100
AcDbLeader
  3
Standard
 71
    1
 72
    0
 73
    3
 74
    0
 75
    0
 40
1
 41
10
 76
2
 76
2
 10
100
 20
1
 30
0
 10
101
 20
1
 30
0
  0
MTEXT
  5
129
100
AcDbEntity
  8
Dimensions
  6
ByLayer
 62
  256
370
   -1
100
AcDbMText
 10
91
 20
2
 30
0
 40
1
 41
1.888888888889013
 71
    8
 72
    1
  1
35%%D
  7
iso
210
0
220
0
230
1
 50
0
 73
    2
 44
1
  0
MTEXT
  5
12A
100
AcDbEntity
  8
Dimensions
  6
ByLayer
 62
  256
370
   -1
100
AcDbMText
 10
100
 20
2
 30
0
 40
1
 41
1.888888888889013
 71
    8
 72
    1
  1
35%%D
  7
iso
210
0
220
0
230
1
 50
0
 73
    2
 44
1
  0
MTEXT
  5
12B
100
AcDbEntity
  8
Dimensions
  6
ByLayer
 62
  256
370
   -1
100
AcDbMText
 10
95
 20
-4
 30
0
 40
0.75
 41
10.91666688571547
 71
    8
 72
    1
  1
(9 7/8 on other side)
  7
iso
210
0
220
0
230
1
 50
0
 73
    2
 44
1
  0
MTEXT
  5
12C
100
AcDbEntity
  8
Info
  6
ByLayer
 62
  256
370
   -1
100
AcDbMText
 10
95
 20
6
 30
0
 40
1
 41
4.972222222222269
 71
    8
 72
    1
  1
Layer 2
  7
iso
210
0
220
0
230
1
 50
0
 73
    2
 44
1
  0
LINE
  5
12D
100
AcDbEntity
  8
0
  6
ByLayer
 62
  256
370
   -1
100
AcDbLine
 10
101.75
 20
0
 11
111.625
 21
0
  0
LINE
  5
12E
100
AcDbEntity
  8
0
  6
ByLayer
 62
  256
370
   -1
100
AcDbLine
 10
111.625
 20
0
 11
111.875
 21
0
  0
DIMENSION
  5
12F
100
AcDbEntity
  8
Dimensions
  6
ByLayer
 62
  256
370
   -1
100
AcDbDimension
  2
*D14
 10
111.625
 20
-2
 30
0
 11
106.6875
 21
-1.375
 31
0
 70
   32
 71
    5
  3
Standard
 53
0
210
0
220
0
230
1
100
AcDbAlignedDimension
 13
101.75
 23
0
 33
0
 14
111.625
 24
0
 34
0
100
AcDbRotatedDimension
  0
LINE
  5
130
100
AcDbEntity
  8
Faces
  6
ByLayer
 62
  256
370
   -1
100
AcDbLine
 10
111.625
 20
0
 11
111.625
 21
48
  0
LINE
  5
131
100
AcDbEntity
  8
Faces
  6
ByLayer
 62
  256
370
   -1
100
AcDbLine
 10
111.875
 20
0
 11
111.875
 21
48
  0
MTEXT
  5
132
100
AcDbEntity
  8
Dimensions
  6
ByLayer
 62
  256
370
   -1
100
AcDbMText
 10
107
 20
-4
 30
0
 40
0.75
 41
11.33333355238218
 71
    8
 72
    1
  1
(12 5/8 on other side)
  7
iso
210
0
220
0
230
1
 50
0
 73
    2
 44
1
  0
LEADER
  5
133
100
AcDbEntity
  8
Dimensions
  6
ByLayer
 62
  256
370
   -1
100
AcDbLeader
  3
Standard
 71
    1
 72
    0
 73
    3
 74
    0
 75
    0
 40
1
 41
10
 76
2
 76
2
 10
102
 20
1
 30
0
 10
103
 20
1
 30
0
  0
LEADER
  5
134
100
AcDbEntity
  8
Dimensions
  6
ByLayer
 62
  256
370
   -1
100
AcDbLeader
  3
Standard
 71
    1
 72
    0
 73
    3
 74
    0
 75
    0
 40
1
 41
10
 76
2
 76
2
 10
111
 20
1
 30
0
 10
110
 20
1
 30
0
  0
MTEXT
  5
135
100
AcDbEntity
  8
Dimensions
  6
ByLayer
 62
  256
370
   -1
100
AcDbMText
 10
103
 20
2
 30
0
 40
1
 41
1.888888888889013
 71
    8
 72
    1
  1
35%%D
  7
iso
210
0
220
0
230
1
 50
0
 73
    2
 44
1
  0
MTEXT
  5
136
100
AcDbEntity
  8
Dimensions
  6
ByLayer
 62
  256
370
   -1
100
AcDbMText
 10
110
 20
2
 30
0
 40
1
 41
1.888888888889013
 71
    8
 72
    1
  1
35%%D
  7
iso
210
0
220
0
230
1
 50
0
 73
    2
 44
1
  0
MTEXT
  5
137
100
AcDbEntity
  8
Info
  6
ByLayer
 62
  256
370
   -1
100
AcDbMText
 10
107
 20
6
 30
0
 40
1
 41
4.97222222222233
 71
    8
 72
    1
  1
Layer 6
  7
iso
210
0
220
0
230
1
 50
0
 73
    2
 44
1
  0
LINE
  5
138
100
AcDbEntity
  8
0
  6
ByLayer
 62
  256
370
   -1
100
AcDbLine
 10
111.875
 20
0
 11
121.75
 21
0
  0
LINE
  5
139
100
AcDbEntity
  8
Faces
  6
ByLayer
 62
  256
370
   -1
100
AcDbLine
 10
121.75
 20
0
 11
121.75
 21
48
  0
DIMENSION
  5
13A
100
AcDbEntity
  8
Dimensions
  6
ByLayer
 62
  256
370
   -1
100
AcDbDimension
  2
*D17
 10
121.75
 20
-2
 30
0
 11
116.8125
 21
-1.375
 31
0
 70
   32
 71
    5
  3
Standard
 53
0
210
0
220
0
230
1
100
AcDbAlignedDimension
 13
111.875
 23
0
 33
0
 14
121.75
 24
0
 34
0
100
AcDbRotatedDimension
  0
MTEXT
  5
13B
100
AcDbEntity
  8
Dimensions
  6
ByLayer
 62
  256
370
   -1
100
AcDbMText
 10
114
 20
2
 30
0
 40
1
 41
1.888888888888951
 71
    8
 72
    1
  1
60%%D
  7
iso
210
0
220
0
230
1
 50
0
 73
    2
 44
1
  0
MTEXT
  5
13C
100
AcDbEntity
  8
Dimensions
  6
ByLayer
 62
  256
370
   -1
100
AcDbMText
 10
120
 20
2
 30
0
 40
1
 41
1.888888888888951
 71
    8
 72
    1
  1
60%%D
  7
iso
210
0
220
0
230
1
 50
0
 73
    2
 44
1
  0
LEADER
  5
13D
100
AcDbEntity
  8
Dimensions
  6
ByLayer
 62
  256
370
   -1
100
AcDbLeader
  3
Standard
 71
    1
 72
    0
 73
    3
 74
    0
 75
    0
 40
1
 41
10
 76
2
 76
2
 10
114
 20
1
 30
0
 10
113
 20
1
 30
0
  0
LEADER
  5
13E
100
AcDbEntity
  8
Dimensions
  6
ByLayer
 62
  256
370
   -1
100
AcDbLeader
  3
Standard
 71
    1
 72
    0
 73
    3
 74
    0
 75
    0
 40
1
 41
10
 76
2
 76
2
 10
120
 20
1
 30
0
 10
121
 20
1
 30
0
  0
MTEXT
  5
13F
100
AcDbEntity
  8
Info
  6
ByLayer
 62
  256
370
   -1
100
AcDbMText
 10
117
 20
5
 30
0
 40
1
 41
4.750000000000046
 71
    8
 72
    1
  1
Layer 1\PTop
  7
iso
210
0
220
0
230
1
 50
0
 73
    2
 44
1
  0
LINE
  5
140
100
AcDbEntity
  8
Faces
  6
ByLayer
 62
  256
370
   -1
100
AcDbLine
 10
5
 20
6
 11
5.776457135307561
 21
3.102222521132795
  0
LINE
  5
141
100
AcDbEntity
  8
Faces
  6
ByLayer
 62
  256
370
   -1
100
AcDbLine
 10
5.675444679663242
 20
4
 11
7.39617398871638
 21
1.542543867133025
  0
LINE
  5
142
100
AcDbEntity
  8
Faces
  6
ByLayer
 62
  256
370
   -1
100
AcDbLine
 10
7.101020514433647
 20
2
 11
7.101020514433647
 21
0
  0
LINE
  5
143
100
AcDbEntity
  8
Faces
  6
ByLayer
 62
  256
370
   -1
100
AcDbLine
 10
16.89897948556635
 20
2.000000000000001
 11
16.89897948556635
 21
8.881784197001252e-016
  0
LINE
  5
144
100
AcDbEntity
  8
Faces
  6
ByLayer
 62
  256
370
   -1
100
AcDbLine
 10
5.071796769724495
 20
8
 11
5.848253905032057
 21
10.89777747886721
  0
LINE
  5
145
100
AcDbEntity
  8
Faces
  6
ByLayer
 62
  256
370
   -1
100
AcDbLine
 10
5.675444679663247
 20
10
 11
7.396173988716386
 21
12.45745613286697
  0
LINE
  5
146
100
AcDbEntity
  8
Faces
  6
ByLayer
 62
  256
370
   -1
100
AcDbLine
 10
7.101020514433653
 20
12
 11
10.56512212957141
 21
14
  0
LINE
  5
147
100
AcDbEntity
  8
Faces
  6
ByLayer
 62
  256
370
   -1
100
AcDbLine
 10
16.89897948556634
 20
12
 11
13.43487787042858
 21
14
  0
LINE
  5
148
100
AcDbEntity
  8
Faces
  6
ByLayer
 62
  256
370
   -1
100
AcDbLine
 10
18.32455532033676
 20
10
 11
16.60382601128362
 21
12.45745613286697
  0
LINE
  5
149
100
AcDbEntity
  8
Faces
  6
ByLayer
 62
  256
370
   -1
100
AcDbLine
 10
18.92820323027551
 20
8
 11
18.15174609496794
 21
10.89777747886721
  0
MTEXT
  5
14A
100
AcDbEntity
  8
Dimensions
  6
ByLayer
 62
  256
370
   -1
100
AcDbMText
 10
10.16666666666664
 20
12.25
 30
0
 40
1
 41
1.888888888888951
 71
    8
 72
    1
  1
60%%D
  7
iso
210
0
220
0
230
1
 50
0
 73
    2
 44
1
  0
MTEXT
  5
14B
100
AcDbEntity
  8
Dimensions
  6
ByLayer
 62
  256
370
   -1
100
AcDbMText
 10
8.166666666666668
 20
10.24999999999994
 30
0
 40
1
 41
1.888888888889013
 71
    8
 72
    1
  1
35%%D
  7
iso
210
0
220
0
230
1
 50
0
 73
    2
 44
1
  0
MTEXT
  5
14C
100
AcDbEntity
  8
Dimensions
  6
ByLayer
 62
  256
370
   -1
100
AcDbMText
 10
6.277777777777807
 20
8.249999999999938
 30
0
 40
1
 41
1.666666666666728
 71
    8
 72
    1
  1
15%%D
  7
iso
210
0
220
0
230
1
 50
0
 73
    2
 44
1
  0
MTEXT
  5
14D
100
AcDbEntity
  8
Info
  6
ByLayer
 62
  256
370
   -1
100
AcDbMText
 10
13
 20
12.75
 30
0
 40
1
 41
0.2222222222222222
 71
    8
 72
    1
  1
1
  7
iso
210
0
220
0
230
1
 50
0
 73
    2
 44
1
  0
MTEXT
  5
14E
100
AcDbEntity
  8
Info
  6
ByLayer
 62
  256
370
   -1
100
AcDbMText
 10
13
 20
10.75
 30
0
 40
1
 41
0.4444444444444444
 71
    8
 72
    1
  1
2
  7
iso
210
0
220
0
230
1
 50
0
 73
    2
 44
1
  0
MTEXT
  5
14F
100
AcDbEntity
  8
Info
  6
ByLayer
 62
  256
370
   -1
100
AcDbMText
 10
13
 20
6.75
 30
0
 40
1
 41
0.5555555555555556
 71
    8
 72
    1
  1
4
  7
iso
210
0
220
0
230
1
 50
0
 73
    2
 44
1
  0
MTEXT
  5
150
100
AcDbEntity
  8
Info
  6
ByLayer
 62
  256
370
   -1
100
AcDbMText
 10
13
 20
4.75
 30
0
 40
1
 41
0.4444444444445064
 71
    8
 72
    1
  1
5
  7
iso
210
0
220
0
230
1
 50
0
 73
    2
 44
1
  0
MTEXT
  5
151
100
AcDbEntity
  8
Info
  6
ByLayer
 62
  256
370
   -1
100
AcDbMText
 10
13
 20
2.75
 30
0
 40
1
 41
0.4444444444445064
 71
    8
 72
    1
  1
6
  7
iso
210
0
220
0
230
1
 50
0
 73
    2
 44
1
  0
MTEXT
  5
152
100
AcDbEntity
  8
Info
  6
ByLayer
 62
  256
370
   -1
100
AcDbMText
 10
13
 20
0.75
 30
0
 40
1
 41
0.4444444444444444
 71
    8
 72
    1
  1
7
  7
iso
210
0
220
0
230
1
 50
0
 73
    2
 44
1
  0
MTEXT
  5
153
100
AcDbEntity
  8
Info
  6
ByLayer
 62
  256
370
   -1
100
AcDbMText
 10
13.22222222222225
 20
8.749999999999938
 30
0
 40
1
 41
0.4444444444445064
 71
    8
 72
    1
  1
3
  7
iso
210
0
220
0
230
1
 50
0
 73
    2
 44
1
  0
ENDSEC
  0
SECTION
  2
OBJECTS
  0
DICTIONARY
  5
C
330
0
100
AcDbDictionary
281
    1
  3
ACAD_GROUP
350
D
  0
DICTIONARY
  5
D
330
C
100
AcDbDictionary
281
    1
  0
PLOTSETTINGS
  5
154
100
AcDbPlotSettings
  6
1x1
 40
0
 41
0
 42
0
 43
0
  0
ENDSEC
  0
EOF
