999
dxfrw 0.6.3
  0
SECTION
  2
HEADER
  9
$ACADVER
  1
AC1021
  9
$DWGCODEPAGE
  3
ANSI_1252
  9
$INSBASE
 10
0
 20
0
 30
0
  9
$EXTMIN
 10
0.3264998706125815
 20
0.326891421916768
 30
0
  9
$EXTMAX
 10
47.67310875466748
 20
47.67325019962463
 30
0
  9
$LIMMIN
 10
0
 20
0
  9
$LIMMAX
 10
420
 20
297
  9
$ORTHOMODE
 70
    0
  9
$REGENMODE
 70
    1
  9
$FILLMODE
 70
    1
  9
$QTEXTMODE
 70
    0
  9
$MIRRTEXT
 70
    0
  9
$LTSCALE
 40
1
  9
$ATTMODE
 70
    0
  9
$TEXTSIZE
 40
2.5
  9
$TRACEWID
 40
15.68
  9
$TEXTSTYLE
  7
STANDARD
  9
$CLAYER
  8
InnerCurvz
  9
$CELTYPE
  6
BYLAYER
  9
$CECOLOR
 62
  256
  9
$CELTSCALE
 40
1
  9
$DISPSILH
 70
    0
  9
$DIMSCALE
 40
1
  9
$DIMASZ
 40
1
  9
$DIMEXO
 40
0.025
  9
$DIMDLI
 40
3.75
  9
$DIMRND
 40
0
  9
$DIMDLE
 40
0
  9
$DIMEXE
 40
0.05
  9
$DIMTP
 40
0
  9
$DIMTM
 40
0
  9
$DIMTXT
 40
2
  9
$DIMCEN
 40
2.5
  9
$DIMTSZ
 40
0
  9
$DIMTOL
 70
    0
  9
$DIMLIM
 70
    0
  9
$DIMTIH
 70
    0
  9
$DIMTOH
 70
    0
  9
$DIMSE1
 70
    0
  9
$DIMSE2
 70
    0
  9
$DIMTAD
 70
    1
  9
$DIMZIN
 70
    8
  9
$DIMBLK
  1

  9
$DIMASO
 70
    1
  9
$DIMSHO
 70
    1
  9
$DIMPOST
  1

  9
$DIMAPOST
  1

  9
$DIMALT
 70
    0
  9
$DIMALTD
 70
    3
  9
$DIMALTF
 40
0.03937
  9
$DIMLFAC
 40
1
  9
$DIMTOFL
 70
    1
  9
$DIMTVP
 40
0
  9
$DIMTIX
 70
    0
  9
$DIMSOXD
 70
    0
  9
$DIMSAH
 70
    0
  9
$DIMBLK1
  1

  9
$DIMBLK2
  1

  9
$DIMSTYLE
  2
STANDARD
  9
$DIMCLRD
 70
    0
  9
$DIMCLRE
 70
    0
  9
$DIMCLRT
 70
    0
  9
$DIMTFAC
 40
1
  9
$DIMGAP
 40
0.025
  9
$DIMJUST
 70
    0
  9
$DIMSD1
 70
    0
  9
$DIMSD2
 70
    0
  9
$DIMTOLJ
 70
    0
  9
$DIMTZIN
 70
    8
  9
$DIMALTZ
 70
    0
  9
$DIMALTTZ
 70
    0
  9
$DIMUPT
 70
    0
  9
$DIMDEC
 70
    4
  9
$DIMTDEC
 70
    2
  9
$DIMALTU
 70
    2
  9
$DIMALTTD
 70
    3
  9
$DIMTXSTY
  7
standard
  9
$DIMAUNIT
 70
    0
  9
$DIMADEC
 70
    2
  9
$DIMALTRND
 40
0
  9
$DIMAZIN
 70
    0
  9
$DIMDSEP
 70
    0
  9
$DIMATFIT
 70
    3
  9
$DIMFRAC
 70
    0
  9
$DIMLDRBLK
  1
STANDARD
  9
$DIMLUNIT
 70
    2
  9
$DIMLWD
 70
   -2
  9
$DIMLWE
 70
   -2
  9
$DIMTMOVE
 70
    0
  9
$DIMFXL
 40
0.04
  9
$DIMFXLON
 70
    0
  9
$DIMJOGANG
 40
0.7854
  9
$DIMTFILL
 70
    0
  9
$DIMTFILLCLR
 70
    0
  9
$DIMARCSYM
 70
    0
  9
$DIMLTYPE
  6

  9
$DIMLTEX1
  6

  9
$DIMLTEX2
  6

  9
$LUNITS
 70
    4
  9
$LUPREC
 70
    2
  9
$SKETCHINC
 40
1
  9
$FILLETRAD
 40
0
  9
$AUNITS
 70
    0
  9
$AUPREC
 70
    0
  9
$MENU
  1
.
  9
$ELEVATION
 40
0
  9
$PELEVATION
 40
0
  9
$THICKNESS
 40
0
  9
$LIMCHECK
 70
    0
  9
$CHAMFERA
 40
0
  9
$CHAMFERB
 40
0
  9
$CHAMFERC
 40
0
  9
$CHAMFERD
 40
0
  9
$SKPOLY
 70
    0
  9
$USRTIMER
 70
    1
  9
$ANGBASE
 50
0
  9
$ANGDIR
 70
    0
  9
$PDMODE
 70
   34
  9
$PDSIZE
 40
0
  9
$PLINEWID
 40
0
  9
$SPLFRAME
 70
    0
  9
$SPLINETYPE
 70
    2
  9
$SPLINESEGS
 70
    8
  9
$HANDSEED
  5
20000
  9
$SURFTAB1
 70
    6
  9
$SURFTAB2
 70
    6
  9
$SURFTYPE
 70
    6
  9
$SURFU
 70
    6
  9
$SURFV
 70
    6
  9
$UCSBASE
  2

  9
$UCSNAME
  2

  9
$UCSORG
 10
0
 20
0
 30
0
  9
$UCSXDIR
 10
1
 20
0
 30
0
  9
$UCSYDIR
 10
0
 20
1
 30
0
  9
$UCSORTHOREF
  2

  9
$UCSORTHOVIEW
 70
    0
  9
$UCSORGTOP
 10
0
 20
0
 30
0
  9
$UCSORGBOTTOM
 10
0
 20
0
 30
0
  9
$UCSORGLEFT
 10
0
 20
0
 30
0
  9
$UCSORGRIGHT
 10
0
 20
0
 30
0
  9
$UCSORGFRONT
 10
0
 20
0
 30
0
  9
$UCSORGBACK
 10
0
 20
0
 30
0
  9
$PUCSBASE
  2

  9
$PUCSNAME
  2

  9
$PUCSORG
 10
0
 20
0
 30
0
  9
$PUCSXDIR
 10
1
 20
0
 30
0
  9
$PUCSYDIR
 10
0
 20
1
 30
0
  9
$PUCSORTHOREF
  2

  9
$PUCSORTHOVIEW
 70
    0
  9
$PUCSORGTOP
 10
0
 20
0
 30
0
  9
$PUCSORGBOTTOM
 10
0
 20
0
 30
0
  9
$PUCSORGLEFT
 10
0
 20
0
 30
0
  9
$PUCSORGRIGHT
 10
0
 20
0
 30
0
  9
$PUCSORGFRONT
 10
0
 20
0
 30
0
  9
$PUCSORGBACK
 10
0
 20
0
 30
0
  9
$USERI1
 70
    0
  9
$USERI2
 70
    0
  9
$USERI3
 70
    0
  9
$USERI4
 70
    0
  9
$USERI5
 70
    0
  9
$USERR1
 40
0
  9
$USERR2
 40
0
  9
$USERR3
 40
0
  9
$USERR4
 40
0
  9
$USERR5
 40
0
  9
$WORLDVIEW
 70
    1
  9
$SHADEDGE
 70
    3
  9
$SHADEDIF
 70
   70
  9
$TILEMODE
 70
    1
  9
$MAXACTVP
 70
   64
  9
$PINSBASE
 10
0
 20
0
 30
0
  9
$PLIMCHECK
 70
    0
  9
$PEXTMIN
 10
0
 20
0
 30
0
  9
$PEXTMAX
 10
0
 20
0
 30
0
  9
$GRIDMODE
 70
    1
  9
$SNAPSTYLE
 70
    0
  9
$GRIDUNIT
 10
1
 20
1
  9
$PLIMMIN
 10
0
 20
0
  9
$PLIMMAX
 10
19.68503937007874
 20
13.89763779527559
  9
$UNITMODE
 70
    0
  9
$VISRETAIN
 70
    1
  9
$PLINEGEN
 70
    0
  9
$PSLTSCALE
 70
    1
  9
$TREEDEPTH
 70
 3020
  9
$CMLSTYLE
  2
Standard
  9
$CMLJUST
 70
    0
  9
$CMLSCALE
 40
20
  9
$PROXYGRAPHICS
 70
    1
  9
$MEASUREMENT
 70
    1
  9
$CELWEIGHT
370
   -1
  9
$ENDCAPS
280
    0
  9
$JOINSTYLE
280
    0
  9
$LWDISPLAY
290
    0
  9
$INSUNITS
 70
    1
  9
$HYPERLINKBASE
  1

  9
$STYLESHEET
  1

  9
$XEDIT
290
    1
  9
$CEPSNTYPE
380
    0
  9
$PSTYLEMODE
290
    1
  9
$EXTNAMES
290
    1
  9
$PSVPSCALE
 40
1
  9
$OLESTARTUP
290
    0
  9
$SORTENTS
280
  127
  9
$INDEXCTL
280
    0
  9
$HIDETEXT
280
    1
  9
$XCLIPFRAME
290
    0
  9
$HALOGAP
280
    0
  9
$OBSCOLOR
 70
  257
  9
$OBSLTYPE
280
    0
  9
$INTERSECTIONDISPLAY
280
    0
  9
$INTERSECTIONCOLOR
 70
  257
  9
$DIMASSOC
280
    1
  9
$PROJECTNAME
  1

  9
$CAMERADISPLAY
290
    0
  9
$LENSLENGTH
 40
50
  9
$CAMERAHEIGHT
 40
0
  9
$STEPSPERSEC
 40
2
  9
$STEPSIZE
 40
50
  9
$3DDWFPREC
 40
2
  9
$PSOLWIDTH
 40
5
  9
$PSOLHEIGHT
 40
80
  9
$LOFTANG1
 40
1.570796326794897
  9
$LOFTANG2
 40
1.570796326794897
  9
$LOFTMAG1
 40
0
  9
$LOFTMAG2
 40
0
  9
$LOFTPARAM
 70
    7
  9
$LOFTNORMALS
280
    1
  9
$LATITUDE
 40
1
  9
$LONGITUDE
 40
1
  9
$NORTHDIRECTION
 40
0
  9
$TIMEZONE
 70
-8000
  9
$LIGHTGLYPHDISPLAY
280
    1
  9
$TILEMODELIGHTSYNCH
280
    1
  9
$SOLIDHIST
280
    1
  9
$SHOWHIST
280
    1
  9
$DWFFRAME
280
    2
  9
$DGNFRAME
280
    0
  9
$REALWORLDSCALE
290
    1
  9
$INTERFERECOLOR
 62
    1
  9
$CSHADOW
280
    0
  9
$SHADOWPLANELOCATION
 40
0
  0
ENDSEC
  0
SECTION
  2
CLASSES
  0
ENDSEC
  0
SECTION
  2
TABLES
  0
TABLE
  2
VPORT
  5
8
330
0
100
AcDbSymbolTable
 70
    1
  0
VPORT
  5
31
330
2
100
AcDbSymbolTableRecord
100
AcDbViewportTableRecord
  2
*ACTIVE
 70
    0
 10
0
 20
0
 11
1
 21
1
 12
58.46491487947083
 22
29.87046742353917
 13
0
 23
0
 14
10
 24
10
 15
1
 25
1
 16
0
 26
0
 36
1
 17
0
 27
0
 37
0
 40
78.53322891547967
 41
2.364844903988183
 42
50
 43
0
 44
0
 50
0
 51
0
 71
    0
 72
  100
 73
    1
 74
    3
 75
    0
 76
    1
 77
    0
 78
    0
281
    0
 65
    1
110
0
120
0
130
0
111
1
121
0
131
0
112
0
122
1
132
0
 79
    0
146
0
348
10020
 60
    3
 61
    5
292
1
282
    1
141
0
142
0
 63
  250
421
3358443
  0
ENDTAB
  0
TABLE
  2
LTYPE
  5
5
330
0
100
AcDbSymbolTable
 70
    4
  0
LTYPE
  5
14
330
5
100
AcDbSymbolTableRecord
100
AcDbLinetypeTableRecord
  2
ByBlock
 70
    0
  3

 72
   65
 73
    0
 40
0
  0
LTYPE
  5
15
330
5
100
AcDbSymbolTableRecord
100
AcDbLinetypeTableRecord
  2
ByLayer
 70
    0
  3

 72
   65
 73
    0
 40
0
  0
LTYPE
  5
16
330
5
100
AcDbSymbolTableRecord
100
AcDbLinetypeTableRecord
  2
Continuous
 70
    0
  3
Solid line
 72
   65
 73
    0
 40
0
  0
LTYPE
  5
32
330
5
100
AcDbSymbolTableRecord
100
AcDbLinetypeTableRecord
  2
DOT
 70
    0
  3
Dot . . . . . . . . . . . . . . . . . . . . . .
 72
   65
 73
    2
 40
6.35
 49
0
 74
    0
 49
-6.35
 74
    0
  0
LTYPE
  5
33
330
5
100
AcDbSymbolTableRecord
100
AcDbLinetypeTableRecord
  2
DOTTINY
 70
    0
  3
Dot (.15x) .....................................
 72
   65
 73
    2
 40
0.9525
 49
0
 74
    0
 49
-0.9525
 74
    0
  0
LTYPE
  5
34
330
5
100
AcDbSymbolTableRecord
100
AcDbLinetypeTableRecord
  2
DOT2
 70
    0
  3
Dot (.5x) .....................................
 72
   65
 73
    2
 40
3.175
 49
0
 74
    0
 49
-3.175
 74
    0
  0
LTYPE
  5
35
330
5
100
AcDbSymbolTableRecord
100
AcDbLinetypeTableRecord
  2
DOTX2
 70
    0
  3
Dot (2x) .  .  .  .  .  .  .  .  .  .  .  .  .
 72
   65
 73
    2
 40
12.7
 49
0
 74
    0
 49
-12.7
 74
    0
  0
LTYPE
  5
36
330
5
100
AcDbSymbolTableRecord
100
AcDbLinetypeTableRecord
  2
DASHED
 70
    0
  3
Dashed _ _ _ _ _ _ _ _ _ _ _ _ _ _ _ _ _
 72
   65
 73
    2
 40
19.05
 49
12.7
 74
    0
 49
-6.35
 74
    0
  0
LTYPE
  5
37
330
5
100
AcDbSymbolTableRecord
100
AcDbLinetypeTableRecord
  2
DASHEDTINY
 70
    0
  3
Dashed (.15x) _ _ _ _ _ _ _ _ _ _ _ _ _ _ _ _ _
 72
   65
 73
    2
 40
2.8575
 49
1.905
 74
    0
 49
-0.9525
 74
    0
  0
LTYPE
  5
38
330
5
100
AcDbSymbolTableRecord
100
AcDbLinetypeTableRecord
  2
DASHED2
 70
    0
  3
Dashed (.5x) _ _ _ _ _ _ _ _ _ _ _ _ _ _ _ _ _
 72
   65
 73
    2
 40
9.524999999999999
 49
6.35
 74
    0
 49
-3.175
 74
    0
  0
LTYPE
  5
39
330
5
100
AcDbSymbolTableRecord
100
AcDbLinetypeTableRecord
  2
DASHEDX2
 70
    0
  3
Dashed (2x) ____  ____  ____  ____  ____  ___
 72
   65
 73
    2
 40
38.09999999999999
 49
25.4
 74
    0
 49
-12.7
 74
    0
  0
LTYPE
  5
3A
330
5
100
AcDbSymbolTableRecord
100
AcDbLinetypeTableRecord
  2
DASHDOT
 70
    0
  3
Dash dot __ . __ . __ . __ . __ . __ . __ . __
 72
   65
 73
    4
 40
25.4
 49
12.7
 74
    0
 49
-6.35
 74
    0
 49
0
 74
    0
 49
-6.35
 74
    0
  0
LTYPE
  5
3B
330
5
100
AcDbSymbolTableRecord
100
AcDbLinetypeTableRecord
  2
DASHDOTTINY
 70
    0
  3
Dash dot (.15x) _._._._._._._._._._._._._._._.
 72
   65
 73
    4
 40
3.81
 49
1.905
 74
    0
 49
-0.9525
 74
    0
 49
0
 74
    0
 49
-0.9525
 74
    0
  0
LTYPE
  5
3C
330
5
100
AcDbSymbolTableRecord
100
AcDbLinetypeTableRecord
  2
DASHDOT2
 70
    0
  3
Dash dot (.5x) _._._._._._._._._._._._._._._.
 72
   65
 73
    4
 40
12.7
 49
6.35
 74
    0
 49
-3.175
 74
    0
 49
0
 74
    0
 49
-3.175
 74
    0
  0
LTYPE
  5
3D
330
5
100
AcDbSymbolTableRecord
100
AcDbLinetypeTableRecord
  2
DASHDOTX2
 70
    0
  3
Dash dot (2x) ____  .  ____  .  ____  .  ___
 72
   65
 73
    4
 40
50.8
 49
25.4
 74
    0
 49
-12.7
 74
    0
 49
0
 74
    0
 49
-12.7
 74
    0
  0
LTYPE
  5
3E
330
5
100
AcDbSymbolTableRecord
100
AcDbLinetypeTableRecord
  2
DIVIDE
 70
    0
  3
Divide ____ . . ____ . . ____ . . ____ . . ____
 72
   65
 73
    6
 40
31.75
 49
12.7
 74
    0
 49
-6.35
 74
    0
 49
0
 74
    0
 49
-6.35
 74
    0
 49
0
 74
    0
 49
-6.35
 74
    0
  0
LTYPE
  5
3F
330
5
100
AcDbSymbolTableRecord
100
AcDbLinetypeTableRecord
  2
DIVIDETINY
 70
    0
  3
Divide (.15x) __..__..__..__..__..__..__..__.._
 72
   65
 73
    6
 40
4.7625
 49
1.905
 74
    0
 49
-0.9525
 74
    0
 49
0
 74
    0
 49
-0.9525
 74
    0
 49
0
 74
    0
 49
-0.9525
 74
    0
  0
LTYPE
  5
40
330
5
100
AcDbSymbolTableRecord
100
AcDbLinetypeTableRecord
  2
DIVIDE2
 70
    0
  3
Divide (.5x) __..__..__..__..__..__..__..__.._
 72
   65
 73
    6
 40
15.875
 49
6.35
 74
    0
 49
-3.175
 74
    0
 49
0
 74
    0
 49
-3.175
 74
    0
 49
0
 74
    0
 49
-3.175
 74
    0
  0
LTYPE
  5
41
330
5
100
AcDbSymbolTableRecord
100
AcDbLinetypeTableRecord
  2
DIVIDEX2
 70
    0
  3
Divide (2x) ________  .  .  ________  .  .  _
 72
   65
 73
    6
 40
63.5
 49
25.4
 74
    0
 49
-12.7
 74
    0
 49
0
 74
    0
 49
-12.7
 74
    0
 49
0
 74
    0
 49
-12.7
 74
    0
  0
LTYPE
  5
42
330
5
100
AcDbSymbolTableRecord
100
AcDbLinetypeTableRecord
  2
BORDER
 70
    0
  3
Border __ __ . __ __ . __ __ . __ __ . __ __ .
 72
   65
 73
    6
 40
44.45
 49
12.7
 74
    0
 49
-6.35
 74
    0
 49
12.7
 74
    0
 49
-6.35
 74
    0
 49
0
 74
    0
 49
-6.35
 74
    0
  0
LTYPE
  5
43
330
5
100
AcDbSymbolTableRecord
100
AcDbLinetypeTableRecord
  2
BORDERTINY
 70
    0
  3
Border (.15x) __.__.__.__.__.__.__.__.__.__.__.
 72
   65
 73
    6
 40
6.6675
 49
1.905
 74
    0
 49
-0.9525
 74
    0
 49
1.905
 74
    0
 49
-0.9525
 74
    0
 49
0
 74
    0
 49
-0.9525
 74
    0
  0
LTYPE
  5
44
330
5
100
AcDbSymbolTableRecord
100
AcDbLinetypeTableRecord
  2
BORDER2
 70
    0
  3
Border (.5x) __.__.__.__.__.__.__.__.__.__.__.
 72
   65
 73
    6
 40
22.225
 49
6.35
 74
    0
 49
-3.175
 74
    0
 49
6.35
 74
    0
 49
-3.175
 74
    0
 49
0
 74
    0
 49
-3.175
 74
    0
  0
LTYPE
  5
45
330
5
100
AcDbSymbolTableRecord
100
AcDbLinetypeTableRecord
  2
BORDERX2
 70
    0
  3
Border (2x) ____  ____  .  ____  ____  .  ___
 72
   65
 73
    6
 40
88.89999999999999
 49
25.4
 74
    0
 49
-12.7
 74
    0
 49
25.4
 74
    0
 49
-12.7
 74
    0
 49
0
 74
    0
 49
-12.7
 74
    0
  0
LTYPE
  5
46
330
5
100
AcDbSymbolTableRecord
100
AcDbLinetypeTableRecord
  2
CENTER
 70
    0
  3
Center ____ _ ____ _ ____ _ ____ _ ____ _ ____
 72
   65
 73
    4
 40
50.8
 49
31.75
 74
    0
 49
-6.35
 74
    0
 49
6.35
 74
    0
 49
-6.35
 74
    0
  0
LTYPE
  5
47
330
5
100
AcDbSymbolTableRecord
100
AcDbLinetypeTableRecord
  2
CENTERTINY
 70
    0
  3
Center (.15x) ___ _ ___ _ ___ _ ___ _ ___ _ ___
 72
   65
 73
    4
 40
7.62
 49
4.7625
 74
    0
 49
-0.9525
 74
    0
 49
0.9525
 74
    0
 49
-0.9525
 74
    0
  0
LTYPE
  5
48
330
5
100
AcDbSymbolTableRecord
100
AcDbLinetypeTableRecord
  2
CENTER2
 70
    0
  3
Center (.5x) ___ _ ___ _ ___ _ ___ _ ___ _ ___
 72
   65
 73
    4
 40
28.575
 49
19.05
 74
    0
 49
-3.175
 74
    0
 49
3.175
 74
    0
 49
-3.175
 74
    0
  0
LTYPE
  5
49
330
5
100
AcDbSymbolTableRecord
100
AcDbLinetypeTableRecord
  2
CENTERX2
 70
    0
  3
Center (2x) ________  __  ________  __  _____
 72
   65
 73
    4
 40
101.6
 49
63.5
 74
    0
 49
-12.7
 74
    0
 49
12.7
 74
    0
 49
-12.7
 74
    0
  0
ENDTAB
  0
TABLE
  2
LAYER
  5
2
330
0
100
AcDbSymbolTable
 70
    1
  0
LAYER
  5
10
330
2
100
AcDbSymbolTableRecord
100
AcDbLayerTableRecord
  2
0
 70
    1
 62
  254
420
13684944
  6
CONTINUOUS
370
    0
390
F
  0
LAYER
  5
4A
330
2
100
AcDbSymbolTableRecord
100
AcDbLayerTableRecord
  2
00
 70
    1
 62
  254
420
13684944
  6
CONTINUOUS
370
    0
390
F
1001
LibreCad
1070
    1
  0
LAYER
  5
4B
330
2
100
AcDbSymbolTableRecord
100
AcDbLayerTableRecord
  2
000
 70
    1
 62
  254
420
13684944
  6
CONTINUOUS
370
    0
390
F
  0
LAYER
  5
4C
330
2
100
AcDbSymbolTableRecord
100
AcDbLayerTableRecord
  2
001
 70
    1
 62
  254
420
13684944
  6
CONTINUOUS
370
    0
390
F
  0
LAYER
  5
4D
330
2
100
AcDbSymbolTableRecord
100
AcDbLayerTableRecord
  2
1st Main Layer
 70
    1
 62
    7
  6
CONTINUOUS
370
   13
390
F
  0
LAYER
  5
4E
330
2
100
AcDbSymbolTableRecord
100
AcDbLayerTableRecord
  2
Center Lines For Holes
 70
    1
 62
   16
420
8388608
  6
CENTERTINY
370
    0
390
F
1001
LibreCad
1070
    1
  0
LAYER
  5
4F
330
2
100
AcDbSymbolTableRecord
100
AcDbLayerTableRecord
  2
Center Lines for Arms
 70
    1
 62
   20
420
16733440
  6
CENTERTINY
370
    0
390
F
1001
LibreCad
1070
    1
  0
LAYER
  5
50
330
2
100
AcDbSymbolTableRecord
100
AcDbLayerTableRecord
  2
Dimensions
 70
    1
 62
    2
  6
CONTINUOUS
370
    0
390
F
1001
LibreCad
1070
    1
  0
LAYER
  5
51
330
2
100
AcDbSymbolTableRecord
100
AcDbLayerTableRecord
  2
Holes
 70
    0
 62
    3
  6
CONTINUOUS
370
    0
390
F
  0
LAYER
  5
52
330
2
100
AcDbSymbolTableRecord
100
AcDbLayerTableRecord
  2
InnerCurvz
 70
    0
 62
    3
  6
CONTINUOUS
370
    0
390
F
  0
LAYER
  5
53
330
2
100
AcDbSymbolTableRecord
100
AcDbLayerTableRecord
  2
InnerCuts
 70
    1
 62
    7
  6
CONTINUOUS
370
    0
390
F
  0
LAYER
  5
54
330
2
100
AcDbSymbolTableRecord
100
AcDbLayerTableRecord
  2
InnerCutsNew
 70
    1
 62
    4
  6
CONTINUOUS
370
    0
390
F
  0
LAYER
  5
55
330
2
100
AcDbSymbolTableRecord
100
AcDbLayerTableRecord
  2
Main Curves
 70
    1
 62
  116
420
32832
  6
DASHEDTINY
370
    0
390
F
  0
LAYER
  5
56
330
2
100
AcDbSymbolTableRecord
100
AcDbLayerTableRecord
  2
NewArms
 70
    0
 62
    5
  6
CONTINUOUS
370
    0
390
F
  0
LAYER
  5
57
330
2
100
AcDbSymbolTableRecord
100
AcDbLayerTableRecord
  2
NewInnerz
 70
    1
 62
    3
  6
CONTINUOUS
370
    0
390
F
  0
LAYER
  5
58
330
2
100
AcDbSymbolTableRecord
100
AcDbLayerTableRecord
  2
NewOuterz
 70
    0
 62
    3
  6
CONTINUOUS
370
    0
390
F
  0
LAYER
  5
59
330
2
100
AcDbSymbolTableRecord
100
AcDbLayerTableRecord
  2
OuterCut
 70
    1
 62
    7
  6
CONTINUOUS
370
    0
390
F
  0
LAYER
  5
5A
330
2
100
AcDbSymbolTableRecord
100
AcDbLayerTableRecord
  2
Outline Curves
 70
    1
 62
   96
420
32768
  6
DOTTINY
370
    0
390
F
1001
LibreCad
1070
    1
  0
LAYER
  5
5B
330
2
100
AcDbSymbolTableRecord
100
AcDbLayerTableRecord
  2
Sheet
 70
    1
 62
    6
  6
CONTINUOUS
370
    0
390
F
  0
ENDTAB
  0
TABLE
  2
STYLE
  5
3
330
0
100
AcDbSymbolTable
 70
    3
  0
STYLE
  5
5C
330
2
100
AcDbSymbolTableRecord
100
AcDbTextStyleTableRecord
  2
Standard
 70
    0
 40
0
 41
1
 50
0
 71
    0
 42
1
  3
txt
  4

  0
ENDTAB
  0
TABLE
  2
VIEW
  5
6
330
0
100
AcDbSymbolTable
 70
    0
  0
ENDTAB
  0
TABLE
  2
UCS
  5
7
330
0
100
AcDbSymbolTable
 70
    0
  0
ENDTAB
  0
TABLE
  2
APPID
  5
9
330
0
100
AcDbSymbolTable
 70
    1
  0
APPID
  5
12
330
9
100
AcDbSymbolTableRecord
100
AcDbRegAppTableRecord
  2
ACAD
 70
    0
  0
APPID
  5
5D
330
9
100
AcDbSymbolTableRecord
100
AcDbRegAppTableRecord
  2
LibreCad
 70
    0
  0
ENDTAB
  0
TABLE
  2
DIMSTYLE
  5
A
330
0
100
AcDbSymbolTable
 70
    1
100
AcDbDimStyleTable
 71
    1
  0
DIMSTYLE
105
5E
330
A
100
AcDbSymbolTableRecord
100
AcDbDimStyleTableRecord
  2
Standard
 70
    0
 40
1
 41
1
 42
0.025
 43
0.38
 44
0.05
 45
0
 46
0
 47
0
 48
0
 49
0.04
140
2
141
0.09
142
0
143
25.4
144
1
145
0
146
1
147
0.025
148
0
 71
    0
 72
    0
 73
    0
 74
    1
 75
    0
 76
    0
 77
    0
 78
    8
 79
    0
170
    0
171
    2
172
    0
173
    0
174
    0
175
    0
176
    0
177
    0
178
    0
179
    2
271
    4
272
    4
273
    2
274
    2
275
    0
276
    0
277
    2
278
    0
279
    0
280
    0
281
    0
282
    0
283
    1
284
    0
285
    0
286
    0
288
    0
289
    3
340
standard
341

371
   -2
372
   -2
  0
ENDTAB
  0
TABLE
  2
BLOCK_RECORD
  5
1
330
0
100
AcDbSymbolTable
 70
    2
  0
BLOCK_RECORD
  5
1F
330
1
100
AcDbSymbolTableRecord
100
AcDbBlockTableRecord
  2
*Model_Space
 70
    0
280
    1
281
    0
  0
BLOCK_RECORD
  5
1E
330
1
100
AcDbSymbolTableRecord
100
AcDbBlockTableRecord
  2
*Paper_Space
 70
    0
280
    1
281
    0
  0
BLOCK_RECORD
  5
5F
330
1
100
AcDbSymbolTableRecord
100
AcDbBlockTableRecord
  2
*D1
 70
    0
280
    1
281
    0
  0
ENDTAB
  0
ENDSEC
  0
SECTION
  2
BLOCKS
  0
BLOCK
  5
20
330
1F
100
AcDbEntity
  8
0
100
AcDbBlockBegin
  2
*Model_Space
 70
    0
 10
0
 20
0
 30
0
  3
*Model_Space
  1

  0
ENDBLK
  5
21
330
1F
100
AcDbEntity
  8
0
100
AcDbBlockEnd
  0
BLOCK
  5
1C
330
1B
100
AcDbEntity
  8
0
100
AcDbBlockBegin
  2
*Paper_Space
 70
    0
 10
0
 20
0
 30
0
  3
*Paper_Space
  1

  0
ENDBLK
  5
1D
330
1F
100
AcDbEntity
  8
0
100
AcDbBlockEnd
  0
BLOCK
  5
60
330
5F
100
AcDbEntity
  8
0
100
AcDbBlockBegin
  2
*D1
 70
    1
 10
0
 20
0
  3
*D1
  1

  0
LINE
  5
62
100
AcDbEntity
  8
Dimensions
  6
ByBlock
 62
    0
370
   -2
100
AcDbLine
 10
-7.105427357601002e-015
 20
51
 11
48.00000000000001
 21
51
  0
MTEXT
  5
63
100
AcDbEntity
  8
Dimensions
  6
CONTINUOUS
 62
    0
370
   -2
100
AcDbMText
 10
24
 20
52.025
 30
0
 40
2
 41
2.666666666666667
 71
    5
 72
    1
  1
48
  7
standard
210
0
220
0
230
1
 50
0
 73
    2
 44
1
  0
SOLID
  5
64
100
AcDbEntity
  8
Dimensions
  6
ByBlock
 62
    0
370
   -2
100
AcDbTrace
 10
-7.105427357601002e-015
 20
51
 30
0
 11
0.9999999999999929
 21
51.16651386310914
 31
0
 12
0.9999999999999929
 22
50.83348613689086
 32
0
 13
0.9999999999999929
 23
50.83348613689086
 33
0
  0
SOLID
  5
65
100
AcDbEntity
  8
Dimensions
  6
ByBlock
 62
    0
370
   -2
100
AcDbTrace
 10
48.00000000000001
 20
51
 30
0
 11
47.00000000000001
 21
50.83348613689086
 31
0
 12
47.00000000000001
 22
51.16651386310914
 32
0
 13
47.00000000000001
 23
51.16651386310914
 33
0
  0
LINE
  5
66
100
AcDbEntity
  8
Dimensions
  6
ByBlock
 62
    0
370
   -2
100
AcDbLine
 10
-5.656616803651274e-015
 20
24.025
 11
-7.113468071962698e-015
 21
51.05
  0
LINE
  5
67
100
AcDbEntity
  8
Dimensions
  6
ByBlock
 62
    0
370
   -2
100
AcDbLine
 10
48.00000000000001
 20
24.025
 11
48.00000000000001
 21
51.05
  0
ENDBLK
  5
61
330
5F
100
AcDbEntity
  8
0
100
AcDbBlockEnd
  0
ENDSEC
  0
SECTION
  2
ENTITIES
  0
DIMENSION
  5
68
100
AcDbEntity
  8
Dimensions
  6
ByLayer
 62
  256
370
   -1
100
AcDbDimension
  2
*D1
 10
48.00000000000001
 20
51
 30
0
 11
24
 21
52.025
 31
0
 70
   32
 71
    5
 72
    0
  3
Standard
 53
0
210
0
220
0
230
1
100
AcDbAlignedDimension
 13
-5.652596446470426e-015
 23
24
 33
0
 14
48.00000000000001
 24
24
 34
0
100
AcDbRotatedDimension
  0
CIRCLE
  5
69
100
AcDbEntity
  8
Main Curves
  6
ByLayer
 62
  256
370
   -1
100
AcDbCircle
 10
24
 20
23.99999999999998
 40
4.5
  0
LWPOLYLINE
  5
6A
100
AcDbEntity
  8
Sheet
  6
ByLayer
 62
  256
370
   -1
100
AcDbPolyline
 90
    4
 70
    1
 43
0
 10
0
 20
0
 10
48
 20
0
 10
48
 20
48
 10
0
 20
48
  0
CIRCLE
  5
6B
100
AcDbEntity
  8
Center Lines For Holes
  6
ByLayer
 62
  256
370
   -1
100
AcDbCircle
 10
23.99999998428223
 20
23.99999992098143
 40
22
  0
CIRCLE
  5
6C
100
AcDbEntity
  8
Center Lines For Holes
  6
ByLayer
 62
  256
370
   -1
100
AcDbCircle
 10
23.99999998428223
 20
23.99999992098143
 40
20
  0
CIRCLE
  5
6D
100
AcDbEntity
  8
Center Lines For Holes
  6
ByLayer
 62
  256
370
   -1
100
AcDbCircle
 10
23.99999998428223
 20
23.99999992098143
 40
18
  0
CIRCLE
  5
6E
100
AcDbEntity
  8
Center Lines For Holes
  6
ByLayer
 62
  256
370
   -1
100
AcDbCircle
 10
23.99999998428223
 20
23.99999992098143
 40
16
  0
CIRCLE
  5
6F
100
AcDbEntity
  8
Center Lines For Holes
  6
ByLayer
 62
  256
370
   -1
100
AcDbCircle
 10
23.99999998428223
 20
23.99999992098143
 40
14
  0
CIRCLE
  5
70
100
AcDbEntity
  8
Center Lines For Holes
  6
ByLayer
 62
  256
370
   -1
100
AcDbCircle
 10
23.99999998428223
 20
23.99999992098143
 40
12
  0
CIRCLE
  5
71
100
AcDbEntity
  8
Center Lines For Holes
  6
ByLayer
 62
  256
370
   -1
100
AcDbCircle
 10
23.99999998428223
 20
23.99999992098143
 40
10
  0
CIRCLE
  5
72
100
AcDbEntity
  8
Center Lines For Holes
  6
ByLayer
 62
  256
370
   -1
100
AcDbCircle
 10
23.99999998428223
 20
23.99999992098143
 40
8
  0
CIRCLE
  5
73
100
AcDbEntity
  8
Center Lines For Holes
  6
ByLayer
 62
  256
370
   -1
100
AcDbCircle
 10
23.99999998428223
 20
23.99999992098143
 40
6
  0
CIRCLE
  5
74
100
AcDbEntity
  8
Center Lines For Holes
  6
ByLayer
 62
  256
370
   -1
100
AcDbCircle
 10
23.99999998428223
 20
23.99999992098143
 40
4
  0
CIRCLE
  5
75
100
AcDbEntity
  8
Center Lines For Holes
  6
ByLayer
 62
  256
370
   -1
100
AcDbCircle
 10
23.99999998428223
 20
23.99999992098143
 40
2
  0
LINE
  5
76
100
AcDbEntity
  8
Center Lines For Holes
  6
ByLayer
 62
  256
370
   -1
100
AcDbLine
 10
1.826891204011344
 20
33.18440229774357
 11
46.17310876455311
 21
14.81559754421928
  0
LINE
  5
77
100
AcDbEntity
  8
Center Lines For Holes
  6
ByLayer
 62
  256
370
   -1
100
AcDbLine
 10
46.17310876455311
 20
14.81559754421928
 11
1.826891204011339
 21
33.18440229774358
  0
LINE
  5
78
100
AcDbEntity
  8
Center Lines For Holes
  6
ByLayer
 62
  256
370
   -1
100
AcDbLine
 10
47.18221981521987
 20
17.78834283852094
 11
0.8177801533445824
 21
30.21165700344192
  0
LINE
  5
79
100
AcDbEntity
  8
Center Lines For Holes
  6
ByLayer
 62
  256
370
   -1
100
AcDbLine
 10
47.79467665725368
 20
20.8673713077002
 11
0.2053233113107712
 21
27.13262853426266
  0
LINE
  5
7A
100
AcDbEntity
  8
Center Lines For Holes
  6
ByLayer
 62
  256
370
   -1
100
AcDbLine
 10
47.99999998428223
 20
23.99999992098144
 11
-1.571777797325369e-008
 21
23.99999992098142
  0
LINE
  5
7B
100
AcDbEntity
  8
Center Lines For Holes
  6
ByLayer
 62
  256
370
   -1
100
AcDbLine
 10
47.79467665725368
 20
27.13262853426267
 11
0.2053233113107735
 21
20.86737130770019
  0
LINE
  5
7C
100
AcDbEntity
  8
Center Lines For Holes
  6
ByLayer
 62
  256
370
   -1
100
AcDbLine
 10
47.18221981521987
 20
30.21165700344192
 11
0.8177801533445843
 21
17.78834283852093
  0
LINE
  5
7D
100
AcDbEntity
  8
Center Lines For Holes
  6
ByLayer
 62
  256
370
   -1
100
AcDbLine
 10
46.17310876455311
 20
33.18440229774359
 11
1.826891204011343
 21
14.81559754421927
  0
LINE
  5
7E
100
AcDbEntity
  8
Center Lines For Holes
  6
ByLayer
 62
  256
370
   -1
100
AcDbLine
 10
44.78460967510876
 20
35.99999992098144
 11
3.215390293455699
 21
11.99999992098142
  0
LINE
  5
7F
100
AcDbEntity
  8
Center Lines For Holes
  6
ByLayer
 62
  256
370
   -1
100
AcDbLine
 10
43.04048015127187
 20
38.61027421719073
 11
4.959519817292577
 21
9.389725624772128
  0
LINE
  5
80
100
AcDbEntity
  8
Center Lines For Holes
  6
ByLayer
 62
  256
370
   -1
100
AcDbLine
 10
40.97056273275937
 20
40.97056266945857
 11
7.029437235805085
 21
7.02943717250428
  0
LINE
  5
81
100
AcDbEntity
  8
Center Lines For Holes
  6
ByLayer
 62
  256
370
   -1
100
AcDbLine
 10
38.61027428049152
 20
43.04048008797108
 11
9.389725688072934
 21
4.959519753991778
  0
LINE
  5
82
100
AcDbEntity
  8
Center Lines For Holes
  6
ByLayer
 62
  256
370
   -1
100
AcDbLine
 10
35.99999998428223
 20
44.78460961180796
 11
11.99999998428223
 21
3.215390230154894
  0
LINE
  5
83
100
AcDbEntity
  8
Center Lines For Holes
  6
ByLayer
 62
  256
370
   -1
100
AcDbLine
 10
33.18440236104438
 20
46.17310870125231
 11
14.81559760752008
 21
1.826891140710538
  0
LINE
  5
84
100
AcDbEntity
  8
Center Lines For Holes
  6
ByLayer
 62
  256
370
   -1
100
AcDbLine
 10
30.21165706674273
 20
47.18221975191906
 11
17.78834290182172
 21
0.8177800900437828
  0
LINE
  5
85
100
AcDbEntity
  8
Center Lines For Holes
  6
ByLayer
 62
  256
370
   -1
100
AcDbLine
 10
27.13262859756347
 20
47.79467659395288
 11
20.867371371001
 21
0.2053232480099699
  0
LINE
  5
86
100
AcDbEntity
  8
Center Lines For Holes
  6
ByLayer
 62
  256
370
   -1
100
AcDbLine
 10
23.99999998428223
 20
47.99999992098143
 11
23.99999998428223
 21
-7.901857854847316e-008
  0
LINE
  5
87
100
AcDbEntity
  8
Center Lines For Holes
  6
ByLayer
 62
  256
370
   -1
100
AcDbLine
 10
20.867371371001
 20
47.79467659395287
 11
27.13262859756347
 21
0.2053232480099722
  0
LINE
  5
88
100
AcDbEntity
  8
Center Lines For Holes
  6
ByLayer
 62
  256
370
   -1
100
AcDbLine
 10
17.78834290182174
 20
47.18221975191907
 11
30.21165706674272
 21
0.8177800900437826
  0
LINE
  5
89
100
AcDbEntity
  8
Center Lines For Holes
  6
ByLayer
 62
  256
370
   -1
100
AcDbLine
 10
14.81559760752007
 20
46.17310870125231
 11
33.18440236104439
 21
1.826891140710541
  0
LINE
  5
8A
100
AcDbEntity
  8
Center Lines For Holes
  6
ByLayer
 62
  256
370
   -1
100
AcDbLine
 10
11.99999998428223
 20
44.78460961180795
 11
35.99999998428224
 21
3.21539023015489
  0
LINE
  5
8B
100
AcDbEntity
  8
Center Lines For Holes
  6
ByLayer
 62
  256
370
   -1
100
AcDbLine
 10
9.389725688072934
 20
43.04048008797108
 11
38.61027428049152
 21
4.959519753991777
  0
LINE
  5
8C
100
AcDbEntity
  8
Center Lines For Holes
  6
ByLayer
 62
  256
370
   -1
100
AcDbLine
 10
7.029437235805085
 20
40.97056266945857
 11
40.97056273275938
 21
7.029437172504284
  0
LINE
  5
8D
100
AcDbEntity
  8
Center Lines For Holes
  6
ByLayer
 62
  256
370
   -1
100
AcDbLine
 10
4.959519817292584
 20
38.61027421719072
 11
43.04048015127188
 21
9.389725624772133
  0
LINE
  5
8E
100
AcDbEntity
  8
Center Lines For Holes
  6
ByLayer
 62
  256
370
   -1
100
AcDbLine
 10
3.215390293455703
 20
35.99999992098143
 11
44.78460967510877
 21
11.99999992098142
  0
LINE
  5
8F
100
AcDbEntity
  8
Center Lines For Holes
  6
ByLayer
 62
  256
370
   -1
100
AcDbLine
 10
1.826891204011344
 20
33.18440229774357
 11
46.17310876455312
 21
14.81559754421927
  0
LINE
  5
90
100
AcDbEntity
  8
Center Lines For Holes
  6
ByLayer
 62
  256
370
   -1
100
AcDbLine
 10
0.8177801533445893
 20
30.21165700344193
 11
47.18221981521988
 21
17.78834283852092
  0
LINE
  5
91
100
AcDbEntity
  8
Center Lines For Holes
  6
ByLayer
 62
  256
370
   -1
100
AcDbLine
 10
0.2053233113107778
 20
27.13262853426267
 11
47.79467665725368
 21
20.86737130770019
  0
LINE
  5
92
100
AcDbEntity
  8
Center Lines For Holes
  6
ByLayer
 62
  256
370
   -1
100
AcDbLine
 10
-1.571777049486078e-008
 20
23.99999992098144
 11
47.99999998428223
 21
23.99999992098141
  0
LINE
  5
93
100
AcDbEntity
  8
Center Lines For Holes
  6
ByLayer
 62
  256
370
   -1
100
AcDbLine
 10
0.2053233113107792
 20
20.8673713077002
 11
47.79467665725369
 21
27.13262853426266
  0
LINE
  5
94
100
AcDbEntity
  8
Center Lines For Holes
  6
ByLayer
 62
  256
370
   -1
100
AcDbLine
 10
0.8177801533445894
 20
17.78834283852093
 11
47.18221981521987
 21
30.21165700344192
  0
LINE
  5
95
100
AcDbEntity
  8
Center Lines For Holes
  6
ByLayer
 62
  256
370
   -1
100
AcDbLine
 10
1.826891204011344
 20
14.81559754421928
 11
46.17310876455313
 21
33.18440229774358
  0
LINE
  5
96
100
AcDbEntity
  8
Center Lines For Holes
  6
ByLayer
 62
  256
370
   -1
100
AcDbLine
 10
3.2153902934557
 20
11.99999992098143
 11
44.78460967510876
 21
35.99999992098144
  0
CIRCLE
  5
97
100
AcDbEntity
  8
Holes
  6
ByLayer
 62
  256
370
   -1
100
AcDbCircle
 10
44.32534965614754
 20
32.41903553774985
 40
0.47
  0
CIRCLE
  5
98
100
AcDbEntity
  8
Holes
  6
ByLayer
 62
  256
370
   -1
100
AcDbCircle
 10
42.47759063450814
 20
31.65366856828302
 40
0.47
  0
CIRCLE
  5
99
100
AcDbEntity
  8
Holes
  6
ByLayer
 62
  256
370
   -1
100
AcDbCircle
 10
40.62983156948561
 20
30.88830170355287
 40
0.47
  0
CIRCLE
  5
9A
100
AcDbEntity
  8
Holes
  6
ByLayer
 62
  256
370
   -1
100
AcDbCircle
 10
38.782072504463
 20
30.12293483882267
 40
0.47
  0
CIRCLE
  5
9B
100
AcDbEntity
  8
Holes
  6
ByLayer
 62
  256
370
   -1
100
AcDbCircle
 10
36.93431353486042
 20
29.35756774372862
 40
0.47
  0
CIRCLE
  5
9C
100
AcDbEntity
  8
Holes
  6
ByLayer
 62
  256
370
   -1
100
AcDbCircle
 10
35.08655446052276
 20
28.59220090148708
 40
0.47
  0
CIRCLE
  5
9D
100
AcDbEntity
  8
Holes
  6
ByLayer
 62
  256
370
   -1
100
AcDbCircle
 10
33.23879530939544
 20
27.8268342446322
 40
0.47
  0
CIRCLE
  5
9E
100
AcDbEntity
  8
Holes
  6
ByLayer
 62
  256
370
   -1
100
AcDbCircle
 10
31.39103624437281
 20
27.06146737990199
 40
0.47
  0
CIRCLE
  5
9F
100
AcDbEntity
  8
Holes
  6
ByLayer
 62
  256
370
   -1
100
AcDbCircle
 10
29.54327717935039
 20
26.29610051517189
 40
0.47
  0
CIRCLE
  5
A0
100
AcDbEntity
  8
Holes
  6
ByLayer
 62
  256
370
   -1
100
AcDbCircle
 10
27.69551811432786
 20
25.53073365044172
 40
0.47
  0
CIRCLE
  5
A1
100
AcDbEntity
  8
Holes
  6
ByLayer
 62
  256
370
   -1
100
AcDbCircle
 10
25.84775904930513
 20
24.76536678571148
 40
0.47
  0
LINE
  5
A2
100
AcDbEntity
  8
Center Lines for Arms
  6
ByLayer
 62
  256
370
   -1
100
AcDbLine
 10
1.826891204011344
 20
33.18440229774357
 11
46.17310876455311
 21
14.81559754421928
  0
LINE
  5
A3
100
AcDbEntity
  8
Center Lines for Arms
  6
ByLayer
 62
  256
370
   -1
100
AcDbLine
 10
14.81559760752008
 20
1.826891140710543
 11
33.18440236104438
 21
46.17310870125231
  0
LINE
  5
A4
100
AcDbEntity
  8
Center Lines for Arms
  6
ByLayer
 62
  256
370
   -1
100
AcDbLine
 10
1.826891204011349
 20
14.81559754421927
 11
46.17310891192124
 21
33.18440194196545
  0
LINE
  5
A5
100
AcDbEntity
  8
Center Lines for Arms
  6
ByLayer
 62
  256
370
   -1
100
AcDbLine
 10
14.8155976075201
 20
46.17310870125223
 11
33.18440209125811
 21
1.826891028961412
  0
CIRCLE
  5
A6
100
AcDbEntity
  8
Outline Curves
  6
ByLayer
 62
  256
370
   -1
100
AcDbCircle
 10
25.84775904930481
 20
24.76536678571161
 40
1.5
  0
CIRCLE
  5
A7
100
AcDbEntity
  8
Outline Curves
  6
ByLayer
 62
  256
370
   -1
100
AcDbCircle
 10
27.69551811432738
 20
25.53073365044179
 40
1.5
  0
CIRCLE
  5
A8
100
AcDbEntity
  8
Outline Curves
  6
ByLayer
 62
  256
370
   -1
100
AcDbCircle
 10
29.54327717934993
 20
26.29610051517196
 40
1.5
  0
CIRCLE
  5
A9
100
AcDbEntity
  8
Outline Curves
  6
ByLayer
 62
  256
370
   -1
100
AcDbCircle
 10
31.3910362443725
 20
27.06146737990214
 40
1.5
  0
CIRCLE
  5
AA
100
AcDbEntity
  8
Outline Curves
  6
ByLayer
 62
  256
370
   -1
100
AcDbCircle
 10
33.2387953093951
 20
27.82683424463233
 40
1.5
  0
CIRCLE
  5
AB
100
AcDbEntity
  8
Outline Curves
  6
ByLayer
 62
  256
370
   -1
100
AcDbCircle
 10
35.08655437441767
 20
28.5922011093625
 40
1.5
  0
CIRCLE
  5
AC
100
AcDbEntity
  8
Outline Curves
  6
ByLayer
 62
  256
370
   -1
100
AcDbCircle
 10
36.93431343944025
 20
29.35756797409269
 40
1.5
  0
CIRCLE
  5
AD
100
AcDbEntity
  8
Outline Curves
  6
ByLayer
 62
  256
370
   -1
100
AcDbCircle
 10
38.78207250446282
 20
30.12293483882286
 40
1.5
  0
CIRCLE
  5
AE
100
AcDbEntity
  8
Center Lines For Holes
  6
ByLayer
 62
  256
370
   -1
100
AcDbCircle
 10
24.00000019446539
 20
23.99999979963213
 40
24
  0
CIRCLE
  5
AF
100
AcDbEntity
  8
Holes
  6
ByLayer
 62
  256
370
   -1
100
AcDbCircle
 10
36.17522856445664
 20
39.86706672680614
 40
0.47
  0
CIRCLE
  5
B0
100
AcDbEntity
  8
Holes
  6
ByLayer
 62
  256
370
   -1
100
AcDbCircle
 10
33.99999998428223
 20
41.3205079966702
 40
0.47
  0
CIRCLE
  5
B1
100
AcDbEntity
  8
Holes
  6
ByLayer
 62
  256
370
   -1
100
AcDbCircle
 10
38.14213560801318
 20
38.14213554471238
 40
0.47
  0
CIRCLE
  5
B2
100
AcDbEntity
  8
Holes
  6
ByLayer
 62
  256
370
   -1
100
AcDbCircle
 10
39.86706679010693
 20
36.17522850115585
 40
0.47
  0
CIRCLE
  5
B3
100
AcDbEntity
  8
Holes
  6
ByLayer
 62
  256
370
   -1
100
AcDbCircle
 10
41.320508059971
 20
33.99999992098144
 40
0.47
  0
CIRCLE
  5
B4
100
AcDbEntity
  8
Holes
  6
ByLayer
 62
  256
370
   -1
100
AcDbCircle
 10
46.1731089010522
 20
33.18440235428336
 40
0.47
  0
CIRCLE
  5
B5
100
AcDbEntity
  8
Outline Curves
  6
ByLayer
 62
  256
370
   -1
100
AcDbCircle
 10
46.17310904842034
 20
33.18440199850522
 40
1.5
  0
CIRCLE
  5
B6
100
AcDbEntity
  8
Outline Curves
  6
ByLayer
 62
  256
370
   -1
100
AcDbCircle
 10
40.62983156948539
 20
30.88830170355305
 40
1.5
  0
CIRCLE
  5
B7
100
AcDbEntity
  8
Main Curves
  6
ByLayer
 62
  256
370
   -1
100
AcDbCircle
 10
23.99999974985338
 20
23.99999961546782
 40
18.5
  0
CIRCLE
  5
B8
100
AcDbEntity
  8
Main Curves
  6
ByLayer
 62
  256
370
   -1
100
AcDbCircle
 10
23.99999998428223
 20
23.99999953944599
 40
21.5
  0
CIRCLE
  5
B9
100
AcDbEntity
  8
Main Curves
  6
ByLayer
 62
  256
370
   -1
100
AcDbCircle
 10
24.00000027379858
 20
23.99999884049168
 40
25.5
  0
ARC
  5
BA
100
AcDbEntity
  8
InnerCuts
  6
ByLayer
 62
  256
370
   -1
100
AcDbCircle
 10
23.99999992307315
 20
23.99999968721779
 40
4.500000190767704
100
AcDbArc
 50
41.68813770839804
 51
48.31186542965968
  0
ARC
  5
BB
100
AcDbEntity
  8
InnerCuts
  6
ByLayer
 62
  256
370
   -1
100
AcDbCircle
 10
25.53073371374257
 20
27.69551805102654
 40
1.500000000000061
100
AcDbArc
 50
347.0940671586806
 51
19.31031489578123
  0
ARC
  5
BC
100
AcDbEntity
  8
InnerCuts
  6
ByLayer
 62
  256
370
   -1
100
AcDbCircle
 10
26.29610057847276
 20
29.54327711604912
 40
1.500000000000129
100
AcDbArc
 50
295.6896851042244
 51
19.3103148957808
  0
ARC
  5
BD
100
AcDbEntity
  8
InnerCuts
  6
ByLayer
 62
  256
370
   -1
100
AcDbCircle
 10
27.06146744320294
 20
31.39103618107171
 40
1.499999999999952
100
AcDbArc
 50
295.6896851042234
 51
19.31031489578016
  0
ARC
  5
BE
100
AcDbEntity
  8
InnerCuts
  6
ByLayer
 62
  256
370
   -1
100
AcDbCircle
 10
27.82683430793312
 20
33.23879524609428
 40
1.499999999999933
100
AcDbArc
 50
295.689685104223
 51
19.31031489577978
  0
ARC
  5
BF
100
AcDbEntity
  8
InnerCuts
  6
ByLayer
 62
  256
370
   -1
100
AcDbCircle
 10
28.5922011726633
 20
35.08655431111687
 40
1.500000000000018
100
AcDbArc
 50
295.6896851042225
 51
19.31031489577958
  0
ARC
  5
C0
100
AcDbEntity
  8
InnerCuts
  6
ByLayer
 62
  256
370
   -1
100
AcDbCircle
 10
29.35756803739348
 20
36.93431337613944
 40
1.500000000000026
100
AcDbArc
 50
295.6896851042226
 51
19.3103148957794
  0
ARC
  5
C1
100
AcDbEntity
  8
InnerCuts
  6
ByLayer
 62
  256
370
   -1
100
AcDbCircle
 10
30.12293490212366
 20
38.78207244116202
 40
1.500000000000002
100
AcDbArc
 50
295.689685104222
 51
19.31031489577833
  0
ARC
  5
C2
100
AcDbEntity
  8
InnerCuts
  6
ByLayer
 62
  256
370
   -1
100
AcDbCircle
 10
30.88830176685384
 20
40.62983150618459
 40
1.500000000000032
100
AcDbArc
 50
295.6896851042218
 51
354.7352696963191
  0
ARC
  5
C3
100
AcDbEntity
  8
InnerCuts
  6
ByLayer
 62
  256
370
   -1
100
AcDbCircle
 10
40.6298316984325
 20
30.88830139224718
 40
1.49999999999985
100
AcDbArc
 50
95.26473283631118
 51
154.3103063152903
  0
ARC
  5
C4
100
AcDbEntity
  8
InnerCuts
  6
ByLayer
 62
  256
370
   -1
100
AcDbCircle
 10
38.78207262726959
 20
30.12293454234108
 40
1.500000000000034
100
AcDbArc
 50
70.68969327611518
 51
154.3103067238847
  0
ARC
  5
C5
100
AcDbEntity
  8
InnerCuts
  6
ByLayer
 62
  256
370
   -1
100
AcDbCircle
 10
36.93431343944024
 20
29.35756797409269
 40
1.499999999999989
100
AcDbArc
 50
70.68967591083978
 51
154.3103148957786
  0
ARC
  5
C6
100
AcDbEntity
  8
InnerCuts
  6
ByLayer
 62
  256
370
   -1
100
AcDbCircle
 10
35.08655448494377
 20
28.5922008425289
 40
1.500000000000011
100
AcDbArc
 50
70.68969245892548
 51
154.3103075410738
  0
ARC
  5
C7
100
AcDbEntity
  8
InnerCuts
  6
ByLayer
 62
  256
370
   -1
100
AcDbCircle
 10
33.23879530939509
 20
27.82683424463232
 40
1.500000000000034
100
AcDbArc
 50
70.6896851042208
 51
154.3103148957788
  0
ARC
  5
C8
100
AcDbEntity
  8
InnerCuts
  6
ByLayer
 62
  256
370
   -1
100
AcDbCircle
 10
31.39103634261794
 20
27.06146714271672
 40
1.499999999999981
100
AcDbArc
 50
70.68969164173639
 51
154.3103083582639
  0
ARC
  5
C9
100
AcDbEntity
  8
InnerCuts
  6
ByLayer
 62
  256
370
   -1
100
AcDbCircle
 10
29.54327727145503
 20
26.29610029281063
 40
1.499999999999949
100
AcDbArc
 50
70.6896838784363
 51
154.310308766858
  0
ARC
  5
CA
100
AcDbEntity
  8
InnerCuts
  6
ByLayer
 62
  256
370
   -1
100
AcDbCircle
 10
27.69551811432736
 20
25.53073365044178
 40
1.500000000000068
100
AcDbArc
 50
70.68967820918215
 51
102.9059289712485
  0
ARC
  5
CB
100
AcDbEntity
  8
InnerCuts
  6
ByLayer
 62
  256
370
   -1
100
AcDbCircle
 10
24.00000027379858
 20
23.99999884049168
 40
18.49999993373825
100
AcDbArc
 50
26.94144848186653
 51
63.05855718470053
  0
ARC
  5
CC
100
AcDbEntity
  8
OuterCut
  6
ByLayer
 62
  256
370
   -1
100
AcDbCircle
 10
44.32534984075834
 20
32.41903509205936
 40
1.499999999999865
100
AcDbArc
 50
271.1763036900174
 51
334.3103170471529
  0
ARC
  5
CD
100
AcDbEntity
  8
OuterCut
  6
ByLayer
 62
  256
370
   -1
100
AcDbCircle
 10
46.17310904842034
 20
33.18440199850522
 40
1.500000000000257
100
AcDbArc
 50
250.6896808587959
 51
154.310307649473
  0
ARC
  5
CE
100
AcDbEntity
  8
OuterCut
  6
ByLayer
 62
  256
370
   -1
100
AcDbCircle
 10
44.32534984075834
 20
32.41903509205936
 40
1.499999999999865
100
AcDbArc
 50
70.68967968409221
 51
133.8236878939973
  0
ARC
  5
CF
100
AcDbEntity
  8
OuterCut
  6
ByLayer
 62
  256
370
   -1
100
AcDbCircle
 10
23.99999979351452
 20
24
 40
21.49999993493268
100
AcDbArc
 50
26.22634813821686
 51
63.7736500847638
  0
CIRCLE
  5
D0
100
AcDbEntity
  8
Holes
  6
ByLayer
 62
  256
370
   -1
100
AcDbCircle
 10
32.41903539157793
 20
44.32534967961318
 40
0.47
  0
CIRCLE
  5
D1
100
AcDbEntity
  8
Holes
  6
ByLayer
 62
  256
370
   -1
100
AcDbCircle
 10
31.65366863158428
 20
42.47759057120716
 40
0.47
  0
CIRCLE
  5
D2
100
AcDbEntity
  8
Holes
  6
ByLayer
 62
  256
370
   -1
100
AcDbCircle
 10
30.88830176685411
 20
40.62983150618464
 40
0.47
  0
CIRCLE
  5
D3
100
AcDbEntity
  8
Holes
  6
ByLayer
 62
  256
370
   -1
100
AcDbCircle
 10
30.12293490212392
 20
38.78207244116202
 40
0.47
  0
CIRCLE
  5
D4
100
AcDbEntity
  8
Holes
  6
ByLayer
 62
  256
370
   -1
100
AcDbCircle
 10
29.35756826775772
 20
36.93431328071972
 40
0.47
  0
CIRCLE
  5
D5
100
AcDbEntity
  8
Holes
  6
ByLayer
 62
  256
370
   -1
100
AcDbCircle
 10
28.59220138053891
 20
35.08655422501225
 40
0.47
  0
CIRCLE
  5
D6
100
AcDbEntity
  8
Holes
  6
ByLayer
 62
  256
370
   -1
100
AcDbCircle
 10
27.82683430793345
 20
33.23879524609447
 40
0.47
  0
CIRCLE
  5
D7
100
AcDbEntity
  8
Holes
  6
ByLayer
 62
  256
370
   -1
100
AcDbCircle
 10
27.06146744320325
 20
31.39103618107183
 40
0.47
  0
CIRCLE
  5
D8
100
AcDbEntity
  8
Holes
  6
ByLayer
 62
  256
370
   -1
100
AcDbCircle
 10
26.29610057847312
 20
29.54327711604942
 40
0.47
  0
CIRCLE
  5
D9
100
AcDbEntity
  8
Holes
  6
ByLayer
 62
  256
370
   -1
100
AcDbCircle
 10
25.53073371374296
 20
27.69551805102689
 40
0.47
  0
CIRCLE
  5
DA
100
AcDbEntity
  8
Holes
  6
ByLayer
 62
  256
370
   -1
100
AcDbCircle
 10
24.76536684901272
 20
25.84775898600416
 40
0.47
  0
CIRCLE
  5
DB
100
AcDbEntity
  8
Outline Curves
  6
ByLayer
 62
  256
370
   -1
100
AcDbCircle
 10
24.7653668490124
 20
25.84775898600402
 40
1.5
  0
CIRCLE
  5
DC
100
AcDbEntity
  8
Outline Curves
  6
ByLayer
 62
  256
370
   -1
100
AcDbCircle
 10
25.53073371374258
 20
27.6955180510266
 40
1.5
  0
CIRCLE
  5
DD
100
AcDbEntity
  8
Outline Curves
  6
ByLayer
 62
  256
370
   -1
100
AcDbCircle
 10
26.29610057847275
 20
29.54327711604914
 40
1.5
  0
CIRCLE
  5
DE
100
AcDbEntity
  8
Outline Curves
  6
ByLayer
 62
  256
370
   -1
100
AcDbCircle
 10
27.06146744320292
 20
31.39103618107172
 40
1.5
  0
CIRCLE
  5
DF
100
AcDbEntity
  8
Outline Curves
  6
ByLayer
 62
  256
370
   -1
100
AcDbCircle
 10
27.82683430793312
 20
33.23879524609431
 40
1.5
  0
CIRCLE
  5
E0
100
AcDbEntity
  8
Outline Curves
  6
ByLayer
 62
  256
370
   -1
100
AcDbCircle
 10
28.5922011726633
 20
35.08655431111688
 40
1.5
  0
CIRCLE
  5
E1
100
AcDbEntity
  8
Outline Curves
  6
ByLayer
 62
  256
370
   -1
100
AcDbCircle
 10
29.35756803739348
 20
36.93431337613946
 40
1.5
  0
CIRCLE
  5
E2
100
AcDbEntity
  8
Outline Curves
  6
ByLayer
 62
  256
370
   -1
100
AcDbCircle
 10
30.12293490212366
 20
38.78207244116203
 40
1.5
  0
CIRCLE
  5
E3
100
AcDbEntity
  8
Holes
  6
ByLayer
 62
  256
370
   -1
100
AcDbCircle
 10
21.38947613988118
 20
43.82889714845766
 40
0.47
  0
CIRCLE
  5
E4
100
AcDbEntity
  8
Holes
  6
ByLayer
 62
  256
370
   -1
100
AcDbCircle
 10
18.8236190822318
 20
43.31851644676281
 40
0.47
  0
CIRCLE
  5
E5
100
AcDbEntity
  8
Holes
  6
ByLayer
 62
  256
370
   -1
100
AcDbCircle
 10
23.99999998428222
 20
43.99999992098144
 40
0.47
  0
CIRCLE
  5
E6
100
AcDbEntity
  8
Holes
  6
ByLayer
 62
  256
370
   -1
100
AcDbCircle
 10
26.61052382868324
 20
43.82889714845766
 40
0.47
  0
CIRCLE
  5
E7
100
AcDbEntity
  8
Holes
  6
ByLayer
 62
  256
370
   -1
100
AcDbCircle
 10
29.17638088633263
 20
43.31851644676281
 40
0.47
  0
CIRCLE
  5
E8
100
AcDbEntity
  8
Holes
  6
ByLayer
 62
  256
370
   -1
100
AcDbCircle
 10
33.18440241758414
 20
46.17310883775142
 40
0.47
  0
CIRCLE
  5
E9
100
AcDbEntity
  8
Outline Curves
  6
ByLayer
 62
  256
370
   -1
100
AcDbCircle
 10
33.18440277336229
 20
46.17310869038329
 40
1.5
  0
CIRCLE
  5
EA
100
AcDbEntity
  8
Outline Curves
  6
ByLayer
 62
  256
370
   -1
100
AcDbCircle
 10
30.88830176685383
 20
40.6298315061846
 40
1.5
  0
ARC
  5
EB
100
AcDbEntity
  8
InnerCuts
  6
ByLayer
 62
  256
370
   -1
100
AcDbCircle
 10
24.00000010629671
 20
23.99999971240424
 40
4.500000190767704
100
AcDbArc
 50
86.68813770839803
 51
93.31186542965968
  0
ARC
  5
EC
100
AcDbEntity
  8
InnerCuts
  6
ByLayer
 62
  256
370
   -1
100
AcDbCircle
 10
22.46926625482187
 20
27.69551805102656
 40
1.500000000000061
100
AcDbArc
 50
32.09406715868059
 51
64.31031489578123
  0
ARC
  5
ED
100
AcDbEntity
  8
InnerCuts
  6
ByLayer
 62
  256
370
   -1
100
AcDbCircle
 10
21.70389939009169
 20
29.54327711604914
 40
1.500000000000129
100
AcDbArc
 50
340.6896851042244
 51
64.31031489578079
  0
ARC
  5
EE
100
AcDbEntity
  8
InnerCuts
  6
ByLayer
 62
  256
370
   -1
100
AcDbCircle
 10
20.9385325253615
 20
31.39103618107172
 40
1.499999999999952
100
AcDbArc
 50
340.6896851042234
 51
64.31031489578017
  0
ARC
  5
EF
100
AcDbEntity
  8
InnerCuts
  6
ByLayer
 62
  256
370
   -1
100
AcDbCircle
 10
20.17316566063132
 20
33.2387952460943
 40
1.499999999999933
100
AcDbArc
 50
340.689685104223
 51
64.31031489577978
  0
ARC
  5
F0
100
AcDbEntity
  8
InnerCuts
  6
ByLayer
 62
  256
370
   -1
100
AcDbCircle
 10
19.40779879590114
 20
35.08655431111688
 40
1.500000000000018
100
AcDbArc
 50
340.6896851042225
 51
64.31031489577958
  0
ARC
  5
F1
100
AcDbEntity
  8
InnerCuts
  6
ByLayer
 62
  256
370
   -1
100
AcDbCircle
 10
18.64243193117096
 20
36.93431337613946
 40
1.500000000000026
100
AcDbArc
 50
340.6896851042226
 51
64.3103148957794
  0
ARC
  5
F2
100
AcDbEntity
  8
InnerCuts
  6
ByLayer
 62
  256
370
   -1
100
AcDbCircle
 10
17.87706506644077
 20
38.78207244116204
 40
1.500000000000002
100
AcDbArc
 50
340.689685104222
 51
64.31031489577833
  0
ARC
  5
F3
100
AcDbEntity
  8
InnerCuts
  6
ByLayer
 62
  256
370
   -1
100
AcDbCircle
 10
17.1116982017106
 20
40.6298315061846
 40
1.500000000000032
100
AcDbArc
 50
340.6896851042218
 51
39.73526969631906
  0
ARC
  5
F4
100
AcDbEntity
  8
InnerCuts
  6
ByLayer
 62
  256
370
   -1
100
AcDbCircle
 10
30.8883020781597
 20
40.62983137723749
 40
1.49999999999985
100
AcDbArc
 50
140.2647328363112
 51
199.3103063152903
  0
ARC
  5
F5
100
AcDbEntity
  8
InnerCuts
  6
ByLayer
 62
  256
370
   -1
100
AcDbCircle
 10
30.12293519860543
 20
38.78207231835525
 40
1.500000000000034
100
AcDbArc
 50
115.6896932761152
 51
199.3103067238847
  0
ARC
  5
F6
100
AcDbEntity
  8
InnerCuts
  6
ByLayer
 62
  256
370
   -1
100
AcDbCircle
 10
29.35756803739347
 20
36.93431337613946
 40
1.499999999999989
100
AcDbArc
 50
115.6896759108398
 51
199.3103148957786
  0
ARC
  5
F7
100
AcDbEntity
  8
InnerCuts
  6
ByLayer
 62
  256
370
   -1
100
AcDbCircle
 10
28.5922014394969
 20
35.08655420059079
 40
1.500000000000011
100
AcDbArc
 50
115.6896924589255
 51
199.3103075410738
  0
ARC
  5
F8
100
AcDbEntity
  8
InnerCuts
  6
ByLayer
 62
  256
370
   -1
100
AcDbCircle
 10
27.82683430793311
 20
33.2387952460943
 40
1.500000000000034
100
AcDbArc
 50
115.6896851042208
 51
199.3103148957788
  0
ARC
  5
F9
100
AcDbEntity
  8
InnerCuts
  6
ByLayer
 62
  256
370
   -1
100
AcDbCircle
 10
27.06146768038836
 20
31.39103608282631
 40
1.499999999999981
100
AcDbArc
 50
115.6896916417364
 51
199.3103083582639
  0
ARC
  5
FA
100
AcDbEntity
  8
InnerCuts
  6
ByLayer
 62
  256
370
   -1
100
AcDbCircle
 10
26.29610080083409
 20
29.54327702394408
 40
1.499999999999949
100
AcDbArc
 50
115.6896838784363
 51
199.310308766858
  0
ARC
  5
FB
100
AcDbEntity
  8
InnerCuts
  6
ByLayer
 62
  256
370
   -1
100
AcDbCircle
 10
25.53073371374257
 20
27.69551805102657
 40
1.500000000000068
100
AcDbArc
 50
115.6896782091822
 51
147.9059289712485
  0
ARC
  5
FC
100
AcDbEntity
  8
InnerCuts
  6
ByLayer
 62
  256
370
   -1
100
AcDbCircle
 10
24.00000095302282
 20
23.99999936167879
 40
18.49999993373825
100
AcDbArc
 50
71.94144848186653
 51
108.0585571847005
  0
ARC
  5
FD
100
AcDbEntity
  8
OuterCut
  6
ByLayer
 62
  256
370
   -1
100
AcDbCircle
 10
32.41903583726824
 20
44.32534949500197
 40
1.499999999999865
100
AcDbArc
 50
316.1763036900174
 51
19.31031704715284
  0
ARC
  5
FE
100
AcDbEntity
  8
OuterCut
  6
ByLayer
 62
  256
370
   -1
100
AcDbCircle
 10
33.18440277336229
 20
46.17310869038329
 40
1.500000000000257
100
AcDbArc
 50
295.6896808587958
 51
199.310307649473
  0
ARC
  5
FF
100
AcDbEntity
  8
OuterCut
  6
ByLayer
 62
  256
370
   -1
100
AcDbCircle
 10
32.41903583726824
 20
44.32534949500197
 40
1.499999999999865
100
AcDbArc
 50
115.6896796840922
 51
178.8236878939973
  0
ARC
  5
100
100
AcDbEntity
  8
OuterCut
  6
ByLayer
 62
  256
370
   -1
100
AcDbCircle
 10
23.99999979351451
 20
23.99999984196287
 40
21.49999993493268
100
AcDbArc
 50
71.22634813821686
 51
108.7736500847638
  0
CIRCLE
  5
101
100
AcDbEntity
  8
Holes
  6
ByLayer
 62
  256
370
   -1
100
AcDbCircle
 10
15.58096436751378
 20
44.32534959284675
 40
0.47
  0
CIRCLE
  5
102
100
AcDbEntity
  8
Holes
  6
ByLayer
 62
  256
370
   -1
100
AcDbCircle
 10
16.3463313369806
 20
42.47759057120736
 40
0.47
  0
CIRCLE
  5
103
100
AcDbEntity
  8
Holes
  6
ByLayer
 62
  256
370
   -1
100
AcDbCircle
 10
17.11169820171076
 20
40.62983150618483
 40
0.47
  0
CIRCLE
  5
104
100
AcDbEntity
  8
Holes
  6
ByLayer
 62
  256
370
   -1
100
AcDbCircle
 10
17.87706506644096
 20
38.78207244116221
 40
0.47
  0
CIRCLE
  5
105
100
AcDbEntity
  8
Holes
  6
ByLayer
 62
  256
370
   -1
100
AcDbCircle
 10
18.64243216153501
 20
36.93431347155963
 40
0.47
  0
CIRCLE
  5
106
100
AcDbEntity
  8
Holes
  6
ByLayer
 62
  256
370
   -1
100
AcDbCircle
 10
19.40779900377655
 20
35.08655439722197
 40
0.47
  0
CIRCLE
  5
107
100
AcDbEntity
  8
Holes
  6
ByLayer
 62
  256
370
   -1
100
AcDbCircle
 10
20.17316566063143
 20
33.23879524609465
 40
0.47
  0
CIRCLE
  5
108
100
AcDbEntity
  8
Holes
  6
ByLayer
 62
  256
370
   -1
100
AcDbCircle
 10
20.93853252536163
 20
31.39103618107202
 40
0.47
  0
CIRCLE
  5
109
100
AcDbEntity
  8
Holes
  6
ByLayer
 62
  256
370
   -1
100
AcDbCircle
 10
21.70389939009173
 20
29.54327711604961
 40
0.47
  0
CIRCLE
  5
10A
100
AcDbEntity
  8
Holes
  6
ByLayer
 62
  256
370
   -1
100
AcDbCircle
 10
22.4692662548219
 20
27.69551805102708
 40
0.47
  0
CIRCLE
  5
10B
100
AcDbEntity
  8
Holes
  6
ByLayer
 62
  256
370
   -1
100
AcDbCircle
 10
23.23463311955215
 20
25.84775898600434
 40
0.47
  0
CIRCLE
  5
10C
100
AcDbEntity
  8
Outline Curves
  6
ByLayer
 62
  256
370
   -1
100
AcDbCircle
 10
23.23463311955202
 20
25.84775898600402
 40
1.5
  0
CIRCLE
  5
10D
100
AcDbEntity
  8
Outline Curves
  6
ByLayer
 62
  256
370
   -1
100
AcDbCircle
 10
22.46926625482184
 20
27.6955180510266
 40
1.5
  0
CIRCLE
  5
10E
100
AcDbEntity
  8
Outline Curves
  6
ByLayer
 62
  256
370
   -1
100
AcDbCircle
 10
21.70389939009166
 20
29.54327711604914
 40
1.5
  0
CIRCLE
  5
10F
100
AcDbEntity
  8
Outline Curves
  6
ByLayer
 62
  256
370
   -1
100
AcDbCircle
 10
20.93853252536148
 20
31.39103618107172
 40
1.5
  0
CIRCLE
  5
110
100
AcDbEntity
  8
Outline Curves
  6
ByLayer
 62
  256
370
   -1
100
AcDbCircle
 10
20.17316566063129
 20
33.23879524609431
 40
1.5
  0
CIRCLE
  5
111
100
AcDbEntity
  8
Outline Curves
  6
ByLayer
 62
  256
370
   -1
100
AcDbCircle
 10
19.40779879590113
 20
35.08655431111688
 40
1.5
  0
CIRCLE
  5
112
100
AcDbEntity
  8
Outline Curves
  6
ByLayer
 62
  256
370
   -1
100
AcDbCircle
 10
18.64243193117094
 20
36.93431337613947
 40
1.5
  0
CIRCLE
  5
113
100
AcDbEntity
  8
Outline Curves
  6
ByLayer
 62
  256
370
   -1
100
AcDbCircle
 10
17.87706506644076
 20
38.78207244116203
 40
1.5
  0
CIRCLE
  5
114
100
AcDbEntity
  8
Holes
  6
ByLayer
 62
  256
370
   -1
100
AcDbCircle
 10
8.132933178457481
 20
36.17522850115586
 40
0.47
  0
CIRCLE
  5
115
100
AcDbEntity
  8
Holes
  6
ByLayer
 62
  256
370
   -1
100
AcDbCircle
 10
6.679491908593423
 20
33.99999992098145
 40
0.47
  0
CIRCLE
  5
116
100
AcDbEntity
  8
Holes
  6
ByLayer
 62
  256
370
   -1
100
AcDbCircle
 10
9.857864360551243
 20
38.14213554471239
 40
0.47
  0
CIRCLE
  5
117
100
AcDbEntity
  8
Holes
  6
ByLayer
 62
  256
370
   -1
100
AcDbCircle
 10
11.82477140410778
 20
39.86706672680614
 40
0.47
  0
CIRCLE
  5
118
100
AcDbEntity
  8
Holes
  6
ByLayer
 62
  256
370
   -1
100
AcDbCircle
 10
13.99999998428219
 20
41.32050799667022
 40
0.47
  0
CIRCLE
  5
119
100
AcDbEntity
  8
Holes
  6
ByLayer
 62
  256
370
   -1
100
AcDbCircle
 10
14.81559755098026
 20
46.17310883775141
 40
0.47
  0
CIRCLE
  5
11A
100
AcDbEntity
  8
Outline Curves
  6
ByLayer
 62
  256
370
   -1
100
AcDbCircle
 10
14.8155979067584
 20
46.17310898511955
 40
1.5
  0
CIRCLE
  5
11B
100
AcDbEntity
  8
Outline Curves
  6
ByLayer
 62
  256
370
   -1
100
AcDbCircle
 10
17.11169820171058
 20
40.6298315061846
 40
1.5
  0
ARC
  5
11C
100
AcDbEntity
  8
InnerCuts
  6
ByLayer
 62
  256
370
   -1
100
AcDbCircle
 10
24.00000021804583
 20
23.99999985977237
 40
4.500000190767704
100
AcDbArc
 50
131.688137708398
 51
138.3118654296597
  0
ARC
  5
11D
100
AcDbEntity
  8
InnerCuts
  6
ByLayer
 62
  256
370
   -1
100
AcDbCircle
 10
20.30448185423708
 20
25.53073365044179
 40
1.500000000000061
100
AcDbArc
 50
77.09406715868059
 51
109.3103148957812
  0
ARC
  5
11E
100
AcDbEntity
  8
InnerCuts
  6
ByLayer
 62
  256
370
   -1
100
AcDbCircle
 10
18.4567227892145
 20
26.29610051517197
 40
1.500000000000129
100
AcDbArc
 50
25.68968510422442
 51
109.3103148957808
  0
ARC
  5
11F
100
AcDbEntity
  8
InnerCuts
  6
ByLayer
 62
  256
370
   -1
100
AcDbCircle
 10
16.60896372419192
 20
27.06146737990215
 40
1.499999999999952
100
AcDbArc
 50
25.6896851042234
 51
109.3103148957802
  0
ARC
  5
120
100
AcDbEntity
  8
InnerCuts
  6
ByLayer
 62
  256
370
   -1
100
AcDbCircle
 10
14.76120465916934
 20
27.82683424463233
 40
1.499999999999933
100
AcDbArc
 50
25.68968510422299
 51
109.3103148957798
  0
ARC
  5
121
100
AcDbEntity
  8
InnerCuts
  6
ByLayer
 62
  256
370
   -1
100
AcDbCircle
 10
12.91344559414675
 20
28.59220110936252
 40
1.500000000000018
100
AcDbArc
 50
25.68968510422248
 51
109.3103148957796
  0
ARC
  5
122
100
AcDbEntity
  8
InnerCuts
  6
ByLayer
 62
  256
370
   -1
100
AcDbCircle
 10
11.06568652912418
 20
29.3575679740927
 40
1.500000000000026
100
AcDbArc
 50
25.68968510422264
 51
109.3103148957794
  0
ARC
  5
123
100
AcDbEntity
  8
InnerCuts
  6
ByLayer
 62
  256
370
   -1
100
AcDbCircle
 10
9.217927464101603
 20
30.12293483882288
 40
1.500000000000002
100
AcDbArc
 50
25.68968510422203
 51
109.3103148957783
  0
ARC
  5
124
100
AcDbEntity
  8
InnerCuts
  6
ByLayer
 62
  256
370
   -1
100
AcDbCircle
 10
7.370168399079038
 20
30.88830170355305
 40
1.500000000000032
100
AcDbArc
 50
25.68968510422177
 51
84.73526969631905
  0
ARC
  5
125
100
AcDbEntity
  8
InnerCuts
  6
ByLayer
 62
  256
370
   -1
100
AcDbCircle
 10
17.11169851301645
 20
40.62983163513172
 40
1.49999999999985
100
AcDbArc
 50
185.2647328363112
 51
244.3103063152903
  0
ARC
  5
126
100
AcDbEntity
  8
InnerCuts
  6
ByLayer
 62
  256
370
   -1
100
AcDbCircle
 10
17.87706536292254
 20
38.78207256396881
 40
1.500000000000034
100
AcDbArc
 50
160.6896932761152
 51
244.3103067238846
  0
ARC
  5
127
100
AcDbEntity
  8
InnerCuts
  6
ByLayer
 62
  256
370
   -1
100
AcDbCircle
 10
18.64243193117094
 20
36.93431337613946
 40
1.499999999999989
100
AcDbArc
 50
160.6896759108398
 51
244.3103148957786
  0
ARC
  5
128
100
AcDbEntity
  8
InnerCuts
  6
ByLayer
 62
  256
370
   -1
100
AcDbCircle
 10
19.40779906273472
 20
35.08655442164299
 40
1.500000000000011
100
AcDbArc
 50
160.6896924589255
 51
244.3103075410739
  0
ARC
  5
129
100
AcDbEntity
  8
InnerCuts
  6
ByLayer
 62
  256
370
   -1
100
AcDbCircle
 10
20.1731656606313
 20
33.2387952460943
 40
1.500000000000034
100
AcDbArc
 50
160.6896851042208
 51
244.3103148957788
  0
ARC
  5
12A
100
AcDbEntity
  8
InnerCuts
  6
ByLayer
 62
  256
370
   -1
100
AcDbCircle
 10
20.93853276254691
 20
31.39103627931715
 40
1.499999999999981
100
AcDbArc
 50
160.6896916417364
 51
244.3103083582639
  0
ARC
  5
12B
100
AcDbEntity
  8
InnerCuts
  6
ByLayer
 62
  256
370
   -1
100
AcDbCircle
 10
21.70389961245299
 20
29.54327720815424
 40
1.499999999999949
100
AcDbArc
 50
160.6896838784363
 51
244.310308766858
  0
ARC
  5
12C
100
AcDbEntity
  8
InnerCuts
  6
ByLayer
 62
  256
370
   -1
100
AcDbCircle
 10
22.46926625482184
 20
27.69551805102657
 40
1.500000000000068
100
AcDbArc
 50
160.6896782091821
 51
192.9059289712485
  0
ARC
  5
12D
100
AcDbEntity
  8
InnerCuts
  6
ByLayer
 62
  256
370
   -1
100
AcDbCircle
 10
24.00000106477194
 20
24.0000002104978
 40
18.49999993373825
100
AcDbArc
 50
116.9414484818665
 51
153.0585571847005
  0
ARC
  5
12E
100
AcDbEntity
  8
OuterCut
  6
ByLayer
 62
  256
370
   -1
100
AcDbCircle
 10
15.58096481320427
 20
44.32534977745755
 40
1.499999999999865
100
AcDbArc
 50
1.17630369001741
 51
64.31031704715285
  0
ARC
  5
12F
100
AcDbEntity
  8
OuterCut
  6
ByLayer
 62
  256
370
   -1
100
AcDbCircle
 10
14.8155979067584
 20
46.17310898511955
 40
1.500000000000257
100
AcDbArc
 50
340.6896808587958
 51
244.3103076494731
  0
ARC
  5
130
100
AcDbEntity
  8
OuterCut
  6
ByLayer
 62
  256
370
   -1
100
AcDbCircle
 10
15.58096481320427
 20
44.32534977745755
 40
1.499999999999865
100
AcDbArc
 50
160.6896796840922
 51
223.8236878939973
  0
ARC
  5
131
100
AcDbEntity
  8
OuterCut
  6
ByLayer
 62
  256
370
   -1
100
AcDbCircle
 10
23.99999990526362
 20
23.99999973021373
 40
21.49999993493268
100
AcDbArc
 50
116.2263481382169
 51
153.7736500847638
  0
CIRCLE
  5
132
100
AcDbEntity
  8
Holes
  6
ByLayer
 62
  256
370
   -1
100
AcDbCircle
 10
3.674650225650439
 20
32.41903532827715
 40
0.47
  0
CIRCLE
  5
133
100
AcDbEntity
  8
Holes
  6
ByLayer
 62
  256
370
   -1
100
AcDbCircle
 10
5.522409334056466
 20
31.6536685682835
 40
0.47
  0
CIRCLE
  5
134
100
AcDbEntity
  8
Holes
  6
ByLayer
 62
  256
370
   -1
100
AcDbCircle
 10
7.370168399078988
 20
30.88830170355333
 40
0.47
  0
CIRCLE
  5
135
100
AcDbEntity
  8
Holes
  6
ByLayer
 62
  256
370
   -1
100
AcDbCircle
 10
9.217927464101601
 20
30.12293483882314
 40
0.47
  0
CIRCLE
  5
136
100
AcDbEntity
  8
Holes
  6
ByLayer
 62
  256
370
   -1
100
AcDbCircle
 10
11.06568662454391
 20
29.35756820445694
 40
0.47
  0
CIRCLE
  5
137
100
AcDbEntity
  8
Holes
  6
ByLayer
 62
  256
370
   -1
100
AcDbCircle
 10
12.91344568025137
 20
28.59220131723813
 40
0.47
  0
CIRCLE
  5
138
100
AcDbEntity
  8
Holes
  6
ByLayer
 62
  256
370
   -1
100
AcDbCircle
 10
14.76120465916916
 20
27.82683424463266
 40
0.47
  0
CIRCLE
  5
139
100
AcDbEntity
  8
Holes
  6
ByLayer
 62
  256
370
   -1
100
AcDbCircle
 10
16.6089637241918
 20
27.06146737990246
 40
0.47
  0
CIRCLE
  5
13A
100
AcDbEntity
  8
Holes
  6
ByLayer
 62
  256
370
   -1
100
AcDbCircle
 10
18.4567227892142
 20
26.29610051517233
 40
0.47
  0
CIRCLE
  5
13B
100
AcDbEntity
  8
Holes
  6
ByLayer
 62
  256
370
   -1
100
AcDbCircle
 10
20.30448185423674
 20
25.53073365044218
 40
0.47
  0
CIRCLE
  5
13C
100
AcDbEntity
  8
Holes
  6
ByLayer
 62
  256
370
   -1
100
AcDbCircle
 10
22.15224091925947
 20
24.76536678571193
 40
0.47
  0
CIRCLE
  5
13D
100
AcDbEntity
  8
Outline Curves
  6
ByLayer
 62
  256
370
   -1
100
AcDbCircle
 10
22.1522409192596
 20
24.76536678571161
 40
1.5
  0
CIRCLE
  5
13E
100
AcDbEntity
  8
Outline Curves
  6
ByLayer
 62
  256
370
   -1
100
AcDbCircle
 10
20.30448185423703
 20
25.53073365044179
 40
1.5
  0
CIRCLE
  5
13F
100
AcDbEntity
  8
Outline Curves
  6
ByLayer
 62
  256
370
   -1
100
AcDbCircle
 10
18.45672278921448
 20
26.29610051517196
 40
1.5
  0
CIRCLE
  5
140
100
AcDbEntity
  8
Outline Curves
  6
ByLayer
 62
  256
370
   -1
100
AcDbCircle
 10
16.60896372419191
 20
27.06146737990214
 40
1.5
  0
CIRCLE
  5
141
100
AcDbEntity
  8
Outline Curves
  6
ByLayer
 62
  256
370
   -1
100
AcDbCircle
 10
14.76120465916931
 20
27.82683424463233
 40
1.5
  0
CIRCLE
  5
142
100
AcDbEntity
  8
Outline Curves
  6
ByLayer
 62
  256
370
   -1
100
AcDbCircle
 10
12.91344559414674
 20
28.59220110936252
 40
1.5
  0
CIRCLE
  5
143
100
AcDbEntity
  8
Outline Curves
  6
ByLayer
 62
  256
370
   -1
100
AcDbCircle
 10
11.06568652912416
 20
29.35756797409269
 40
1.5
  0
CIRCLE
  5
144
100
AcDbEntity
  8
Outline Curves
  6
ByLayer
 62
  256
370
   -1
100
AcDbCircle
 10
9.217927464101598
 20
30.12293483882287
 40
1.5
  0
CIRCLE
  5
145
100
AcDbEntity
  8
Holes
  6
ByLayer
 62
  256
370
   -1
100
AcDbCircle
 10
4.171102756805968
 20
21.38947607658039
 40
0.47
  0
CIRCLE
  5
146
100
AcDbEntity
  8
Holes
  6
ByLayer
 62
  256
370
   -1
100
AcDbCircle
 10
4.681483458500814
 20
18.82361901893102
 40
0.47
  0
CIRCLE
  5
147
100
AcDbEntity
  8
Holes
  6
ByLayer
 62
  256
370
   -1
100
AcDbCircle
 10
3.99999998428218
 20
23.99999992098143
 40
0.47
  0
CIRCLE
  5
148
100
AcDbEntity
  8
Holes
  6
ByLayer
 62
  256
370
   -1
100
AcDbCircle
 10
4.171102756805968
 20
26.61052376538246
 40
0.47
  0
CIRCLE
  5
149
100
AcDbEntity
  8
Holes
  6
ByLayer
 62
  256
370
   -1
100
AcDbCircle
 10
4.681483458500807
 20
29.17638082303184
 40
0.47
  0
CIRCLE
  5
14A
100
AcDbEntity
  8
Holes
  6
ByLayer
 62
  256
370
   -1
100
AcDbCircle
 10
1.826891067512204
 20
33.18440235428336
 40
0.47
  0
CIRCLE
  5
14B
100
AcDbEntity
  8
Outline Curves
  6
ByLayer
 62
  256
370
   -1
100
AcDbCircle
 10
1.826891214880334
 20
33.1844027100615
 40
1.5
  0
CIRCLE
  5
14C
100
AcDbEntity
  8
Outline Curves
  6
ByLayer
 62
  256
370
   -1
100
AcDbCircle
 10
7.37016839907902
 20
30.88830170355305
 40
1.5
  0
ARC
  5
14D
100
AcDbEntity
  8
InnerCuts
  6
ByLayer
 62
  256
370
   -1
100
AcDbCircle
 10
24.00000019285939
 20
24.00000004299593
 40
4.500000190767704
100
AcDbArc
 50
176.688137708398
 51
183.3118654296597
  0
ARC
  5
14E
100
AcDbEntity
  8
InnerCuts
  6
ByLayer
 62
  256
370
   -1
100
AcDbCircle
 10
20.30448185423707
 20
22.46926619152109
 40
1.500000000000061
100
AcDbArc
 50
122.0940671586806
 51
154.3103148957812
  0
ARC
  5
14F
100
AcDbEntity
  8
InnerCuts
  6
ByLayer
 62
  256
370
   -1
100
AcDbCircle
 10
18.45672278921449
 20
21.7038993267909
 40
1.500000000000129
100
AcDbArc
 50
70.68968510422442
 51
154.3103148957808
  0
ARC
  5
150
100
AcDbEntity
  8
InnerCuts
  6
ByLayer
 62
  256
370
   -1
100
AcDbCircle
 10
16.6089637241919
 20
20.93853246206072
 40
1.499999999999952
100
AcDbArc
 50
70.6896851042234
 51
154.3103148957802
  0
ARC
  5
151
100
AcDbEntity
  8
InnerCuts
  6
ByLayer
 62
  256
370
   -1
100
AcDbCircle
 10
14.76120465916933
 20
20.17316559733054
 40
1.499999999999933
100
AcDbArc
 50
70.68968510422299
 51
154.3103148957798
  0
ARC
  5
152
100
AcDbEntity
  8
InnerCuts
  6
ByLayer
 62
  256
370
   -1
100
AcDbCircle
 10
12.91344559414674
 20
19.40779873260035
 40
1.500000000000018
100
AcDbArc
 50
70.68968510422248
 51
154.3103148957796
  0
ARC
  5
153
100
AcDbEntity
  8
InnerCuts
  6
ByLayer
 62
  256
370
   -1
100
AcDbCircle
 10
11.06568652912417
 20
18.64243186787017
 40
1.500000000000026
100
AcDbArc
 50
70.68968510422263
 51
154.3103148957794
  0
ARC
  5
154
100
AcDbEntity
  8
InnerCuts
  6
ByLayer
 62
  256
370
   -1
100
AcDbCircle
 10
9.21792746410159
 20
17.87706500313999
 40
1.500000000000002
100
AcDbArc
 50
70.68968510422202
 51
154.3103148957783
  0
ARC
  5
155
100
AcDbEntity
  8
InnerCuts
  6
ByLayer
 62
  256
370
   -1
100
AcDbCircle
 10
7.370168399079027
 20
17.11169813840981
 40
1.500000000000032
100
AcDbArc
 50
70.68968510422177
 51
129.7352696963191
  0
ARC
  5
156
100
AcDbEntity
  8
InnerCuts
  6
ByLayer
 62
  256
370
   -1
100
AcDbCircle
 10
7.370168528026134
 20
30.88830201485892
 40
1.49999999999985
100
AcDbArc
 50
230.2647328363112
 51
289.3103063152903
  0
ARC
  5
157
100
AcDbEntity
  8
InnerCuts
  6
ByLayer
 62
  256
370
   -1
100
AcDbCircle
 10
9.217927586908369
 20
30.12293513530465
 40
1.500000000000034
100
AcDbArc
 50
205.6896932761152
 51
289.3103067238847
  0
ARC
  5
158
100
AcDbEntity
  8
InnerCuts
  6
ByLayer
 62
  256
370
   -1
100
AcDbCircle
 10
11.06568652912417
 20
29.35756797409269
 40
1.499999999999989
100
AcDbArc
 50
205.6896759108398
 51
289.3103148957786
  0
ARC
  5
159
100
AcDbEntity
  8
InnerCuts
  6
ByLayer
 62
  256
370
   -1
100
AcDbCircle
 10
12.91344570467284
 20
28.59220137619611
 40
1.500000000000011
100
AcDbArc
 50
205.6896924589255
 51
289.3103075410738
  0
ARC
  5
15A
100
AcDbEntity
  8
InnerCuts
  6
ByLayer
 62
  256
370
   -1
100
AcDbCircle
 10
14.76120465916932
 20
27.82683424463232
 40
1.500000000000034
100
AcDbArc
 50
205.6896851042208
 51
289.3103148957788
  0
ARC
  5
15B
100
AcDbEntity
  8
InnerCuts
  6
ByLayer
 62
  256
370
   -1
100
AcDbCircle
 10
16.60896382243731
 20
27.06146761708757
 40
1.499999999999981
100
AcDbArc
 50
205.6896916417364
 51
289.3103083582639
  0
ARC
  5
15C
100
AcDbEntity
  8
InnerCuts
  6
ByLayer
 62
  256
370
   -1
100
AcDbCircle
 10
18.45672288131954
 20
26.2961007375333
 40
1.499999999999949
100
AcDbArc
 50
205.6896838784363
 51
289.310308766858
  0
ARC
  5
15D
100
AcDbEntity
  8
InnerCuts
  6
ByLayer
 62
  256
370
   -1
100
AcDbCircle
 10
20.30448185423705
 20
25.53073365044178
 40
1.500000000000068
100
AcDbArc
 50
205.6896782091821
 51
237.9059289712485
  0
ARC
  5
15E
100
AcDbEntity
  8
InnerCuts
  6
ByLayer
 62
  256
370
   -1
100
AcDbCircle
 10
24.00000054358483
 20
24.00000088972203
 40
18.49999993373825
100
AcDbArc
 50
161.9414484818665
 51
198.0585571847005
  0
ARC
  5
15F
100
AcDbEntity
  8
OuterCut
  6
ByLayer
 62
  256
370
   -1
100
AcDbCircle
 10
3.674650410261656
 20
32.41903577396746
 40
1.499999999999865
100
AcDbArc
 50
46.17630369001741
 51
109.3103170471528
  0
ARC
  5
160
100
AcDbEntity
  8
OuterCut
  6
ByLayer
 62
  256
370
   -1
100
AcDbCircle
 10
1.826891214880334
 20
33.1844027100615
 40
1.500000000000257
100
AcDbArc
 50
25.68968085879586
 51
289.310307649473
  0
ARC
  5
161
100
AcDbEntity
  8
OuterCut
  6
ByLayer
 62
  256
370
   -1
100
AcDbCircle
 10
3.674650410261656
 20
32.41903577396746
 40
1.499999999999865
100
AcDbArc
 50
205.6896796840922
 51
268.8236878939974
  0
ARC
  5
162
100
AcDbEntity
  8
OuterCut
  6
ByLayer
 62
  256
370
   -1
100
AcDbCircle
 10
24.00000006330076
 20
23.99999973021372
 40
21.49999993493268
100
AcDbArc
 50
161.2263481382169
 51
198.7736500847638
  0
CIRCLE
  5
163
100
AcDbEntity
  8
Holes
  6
ByLayer
 62
  256
370
   -1
100
AcDbCircle
 10
3.674650312416873
 20
15.58096430421299
 40
0.47
  0
CIRCLE
  5
164
100
AcDbEntity
  8
Holes
  6
ByLayer
 62
  256
370
   -1
100
AcDbCircle
 10
5.52240933405627
 20
16.34633127367982
 40
0.47
  0
CIRCLE
  5
165
100
AcDbEntity
  8
Holes
  6
ByLayer
 62
  256
370
   -1
100
AcDbCircle
 10
7.3701683990788
 20
17.11169813840997
 40
0.47
  0
CIRCLE
  5
166
100
AcDbEntity
  8
Holes
  6
ByLayer
 62
  256
370
   -1
100
AcDbCircle
 10
9.217927464101408
 20
17.87706500314017
 40
0.47
  0
CIRCLE
  5
167
100
AcDbEntity
  8
Holes
  6
ByLayer
 62
  256
370
   -1
100
AcDbCircle
 10
11.06568643370399
 20
18.64243209823422
 40
0.47
  0
CIRCLE
  5
168
100
AcDbEntity
  8
Holes
  6
ByLayer
 62
  256
370
   -1
100
AcDbCircle
 10
12.91344550804165
 20
19.40779894047576
 40
0.47
  0
CIRCLE
  5
169
100
AcDbEntity
  8
Holes
  6
ByLayer
 62
  256
370
   -1
100
AcDbCircle
 10
14.76120465916897
 20
20.17316559733064
 40
0.47
  0
CIRCLE
  5
16A
100
AcDbEntity
  8
Holes
  6
ByLayer
 62
  256
370
   -1
100
AcDbCircle
 10
16.6089637241916
 20
20.93853246206085
 40
0.47
  0
CIRCLE
  5
16B
100
AcDbEntity
  8
Holes
  6
ByLayer
 62
  256
370
   -1
100
AcDbCircle
 10
18.45672278921402
 20
21.70389932679095
 40
0.47
  0
CIRCLE
  5
16C
100
AcDbEntity
  8
Holes
  6
ByLayer
 62
  256
370
   -1
100
AcDbCircle
 10
20.30448185423655
 20
22.46926619152112
 40
0.47
  0
CIRCLE
  5
16D
100
AcDbEntity
  8
Holes
  6
ByLayer
 62
  256
370
   -1
100
AcDbCircle
 10
22.15224091925928
 20
23.23463305625136
 40
0.47
  0
CIRCLE
  5
16E
100
AcDbEntity
  8
Outline Curves
  6
ByLayer
 62
  256
370
   -1
100
AcDbCircle
 10
22.1522409192596
 20
23.23463305625123
 40
1.5
  0
CIRCLE
  5
16F
100
AcDbEntity
  8
Outline Curves
  6
ByLayer
 62
  256
370
   -1
100
AcDbCircle
 10
20.30448185423703
 20
22.46926619152105
 40
1.5
  0
CIRCLE
  5
170
100
AcDbEntity
  8
Outline Curves
  6
ByLayer
 62
  256
370
   -1
100
AcDbCircle
 10
18.45672278921448
 20
21.70389932679088
 40
1.5
  0
CIRCLE
  5
171
100
AcDbEntity
  8
Outline Curves
  6
ByLayer
 62
  256
370
   -1
100
AcDbCircle
 10
16.60896372419191
 20
20.9385324620607
 40
1.5
  0
CIRCLE
  5
172
100
AcDbEntity
  8
Outline Curves
  6
ByLayer
 62
  256
370
   -1
100
AcDbCircle
 10
14.76120465916931
 20
20.17316559733051
 40
1.5
  0
CIRCLE
  5
173
100
AcDbEntity
  8
Outline Curves
  6
ByLayer
 62
  256
370
   -1
100
AcDbCircle
 10
12.91344559414674
 20
19.40779873260034
 40
1.5
  0
CIRCLE
  5
174
100
AcDbEntity
  8
Outline Curves
  6
ByLayer
 62
  256
370
   -1
100
AcDbCircle
 10
11.06568652912416
 20
18.64243186787015
 40
1.5
  0
CIRCLE
  5
175
100
AcDbEntity
  8
Outline Curves
  6
ByLayer
 62
  256
370
   -1
100
AcDbCircle
 10
9.217927464101592
 20
17.87706500313998
 40
1.5
  0
CIRCLE
  5
176
100
AcDbEntity
  8
Holes
  6
ByLayer
 62
  256
370
   -1
100
AcDbCircle
 10
11.82477140410777
 20
8.132933115156698
 40
0.47
  0
CIRCLE
  5
177
100
AcDbEntity
  8
Holes
  6
ByLayer
 62
  256
370
   -1
100
AcDbCircle
 10
13.99999998428217
 20
6.679491845292638
 40
0.47
  0
CIRCLE
  5
178
100
AcDbEntity
  8
Holes
  6
ByLayer
 62
  256
370
   -1
100
AcDbCircle
 10
9.857864360551231
 20
9.85786429725046
 40
0.47
  0
CIRCLE
  5
179
100
AcDbEntity
  8
Holes
  6
ByLayer
 62
  256
370
   -1
100
AcDbCircle
 10
8.132933178457476
 20
11.82477134080699
 40
0.47
  0
CIRCLE
  5
17A
100
AcDbEntity
  8
Holes
  6
ByLayer
 62
  256
370
   -1
100
AcDbCircle
 10
6.679491908593405
 20
13.9999999209814
 40
0.47
  0
CIRCLE
  5
17B
100
AcDbEntity
  8
Holes
  6
ByLayer
 62
  256
370
   -1
100
AcDbCircle
 10
1.826891067512207
 20
14.81559748767948
 40
0.47
  0
CIRCLE
  5
17C
100
AcDbEntity
  8
Outline Curves
  6
ByLayer
 62
  256
370
   -1
100
AcDbCircle
 10
1.826890920144074
 20
14.81559784345762
 40
1.5
  0
CIRCLE
  5
17D
100
AcDbEntity
  8
Outline Curves
  6
ByLayer
 62
  256
370
   -1
100
AcDbCircle
 10
7.37016839907902
 20
17.11169813840979
 40
1.5
  0
ARC
  5
17E
100
AcDbEntity
  8
InnerCuts
  6
ByLayer
 62
  256
370
   -1
100
AcDbCircle
 10
24.00000004549126
 20
24.00000015474505
 40
4.500000190767704
100
AcDbArc
 50
221.688137708398
 51
228.3118654296597
  0
ARC
  5
17F
100
AcDbEntity
  8
InnerCuts
  6
ByLayer
 62
  256
370
   -1
100
AcDbCircle
 10
22.46926625482184
 20
20.3044817909363
 40
1.500000000000061
100
AcDbArc
 50
167.0940671586806
 51
199.3103148957812
  0
ARC
  5
180
100
AcDbEntity
  8
InnerCuts
  6
ByLayer
 62
  256
370
   -1
100
AcDbCircle
 10
21.70389939009165
 20
18.45672272591372
 40
1.500000000000129
100
AcDbArc
 50
115.6896851042244
 51
199.3103148957808
  0
ARC
  5
181
100
AcDbEntity
  8
InnerCuts
  6
ByLayer
 62
  256
370
   -1
100
AcDbCircle
 10
20.93853252536147
 20
16.60896366089113
 40
1.499999999999952
100
AcDbArc
 50
115.6896851042234
 51
199.3103148957802
  0
ARC
  5
182
100
AcDbEntity
  8
InnerCuts
  6
ByLayer
 62
  256
370
   -1
100
AcDbCircle
 10
20.17316566063129
 20
14.76120459586856
 40
1.499999999999933
100
AcDbArc
 50
115.689685104223
 51
199.3103148957798
  0
ARC
  5
183
100
AcDbEntity
  8
InnerCuts
  6
ByLayer
 62
  256
370
   -1
100
AcDbCircle
 10
19.40779879590111
 20
12.91344553084597
 40
1.500000000000018
100
AcDbArc
 50
115.6896851042225
 51
199.3103148957796
  0
ARC
  5
184
100
AcDbEntity
  8
InnerCuts
  6
ByLayer
 62
  256
370
   -1
100
AcDbCircle
 10
18.64243193117093
 20
11.0656864658234
 40
1.500000000000026
100
AcDbArc
 50
115.6896851042227
 51
199.3103148957794
  0
ARC
  5
185
100
AcDbEntity
  8
InnerCuts
  6
ByLayer
 62
  256
370
   -1
100
AcDbCircle
 10
17.87706506644074
 20
9.217927400800818
 40
1.500000000000002
100
AcDbArc
 50
115.6896851042221
 51
199.3103148957783
  0
ARC
  5
186
100
AcDbEntity
  8
InnerCuts
  6
ByLayer
 62
  256
370
   -1
100
AcDbCircle
 10
17.11169820171057
 20
7.370168335778253
 40
1.500000000000032
100
AcDbArc
 50
115.6896851042218
 51
174.7352696963191
  0
ARC
  5
187
100
AcDbEntity
  8
InnerCuts
  6
ByLayer
 62
  256
370
   -1
100
AcDbCircle
 10
7.370168270131906
 20
17.11169844971567
 40
1.49999999999985
100
AcDbArc
 50
275.2647328363112
 51
334.3103063152903
  0
ARC
  5
188
100
AcDbEntity
  8
InnerCuts
  6
ByLayer
 62
  256
370
   -1
100
AcDbCircle
 10
9.217927341294818
 20
17.87706529962175
 40
1.500000000000034
100
AcDbArc
 50
250.6896932761152
 51
334.3103067238847
  0
ARC
  5
189
100
AcDbEntity
  8
InnerCuts
  6
ByLayer
 62
  256
370
   -1
100
AcDbCircle
 10
11.06568652912417
 20
18.64243186787016
 40
1.499999999999989
100
AcDbArc
 50
250.6896759108398
 51
334.3103148957786
  0
ARC
  5
18A
100
AcDbEntity
  8
InnerCuts
  6
ByLayer
 62
  256
370
   -1
100
AcDbCircle
 10
12.91344548362064
 20
19.40779899943394
 40
1.500000000000011
100
AcDbArc
 50
250.6896924589255
 51
334.3103075410739
  0
ARC
  5
18B
100
AcDbEntity
  8
InnerCuts
  6
ByLayer
 62
  256
370
   -1
100
AcDbCircle
 10
14.76120465916932
 20
20.17316559733052
 40
1.500000000000034
100
AcDbArc
 50
250.6896851042208
 51
334.3103148957788
  0
ARC
  5
18C
100
AcDbEntity
  8
InnerCuts
  6
ByLayer
 62
  256
370
   -1
100
AcDbCircle
 10
16.60896362594647
 20
20.93853269924612
 40
1.499999999999981
100
AcDbArc
 50
250.6896916417364
 51
334.3103083582639
  0
ARC
  5
18D
100
AcDbEntity
  8
InnerCuts
  6
ByLayer
 62
  256
370
   -1
100
AcDbCircle
 10
18.45672269710938
 20
21.70389954915221
 40
1.499999999999949
100
AcDbArc
 50
250.6896838784363
 51
334.310308766858
  0
ARC
  5
18E
100
AcDbEntity
  8
InnerCuts
  6
ByLayer
 62
  256
370
   -1
100
AcDbCircle
 10
20.30448185423705
 20
22.46926619152106
 40
1.500000000000068
100
AcDbArc
 50
250.6896782091821
 51
282.9059289712485
  0
ARC
  5
18F
100
AcDbEntity
  8
InnerCuts
  6
ByLayer
 62
  256
370
   -1
100
AcDbCircle
 10
23.99999969476583
 20
24.00000100147116
 40
18.49999993373825
100
AcDbArc
 50
206.9414484818665
 51
243.0585571847005
  0
ARC
  5
190
100
AcDbEntity
  8
OuterCut
  6
ByLayer
 62
  256
370
   -1
100
AcDbCircle
 10
3.674650127806075
 20
15.58096474990348
 40
1.499999999999865
100
AcDbArc
 50
91.17630369001741
 51
154.3103170471528
  0
ARC
  5
191
100
AcDbEntity
  8
OuterCut
  6
ByLayer
 62
  256
370
   -1
100
AcDbCircle
 10
1.826890920144074
 20
14.81559784345762
 40
1.500000000000257
100
AcDbArc
 50
70.68968085879585
 51
334.3103076494731
  0
ARC
  5
192
100
AcDbEntity
  8
OuterCut
  6
ByLayer
 62
  256
370
   -1
100
AcDbCircle
 10
3.674650127806075
 20
15.58096474990348
 40
1.499999999999865
100
AcDbArc
 50
250.6896796840922
 51
313.8236878939973
  0
ARC
  5
193
100
AcDbEntity
  8
OuterCut
  6
ByLayer
 62
  256
370
   -1
100
AcDbCircle
 10
24.00000017504989
 20
23.99999984196284
 40
21.49999993493268
100
AcDbArc
 50
206.2263481382169
 51
243.7736500847638
  0
CIRCLE
  5
194
100
AcDbEntity
  8
Holes
  6
ByLayer
 62
  256
370
   -1
100
AcDbCircle
 10
15.58096457698648
 20
3.67465016234965
 40
0.47
  0
CIRCLE
  5
195
100
AcDbEntity
  8
Holes
  6
ByLayer
 62
  256
370
   -1
100
AcDbCircle
 10
16.34633133698013
 20
5.522409270755681
 40
0.47
  0
CIRCLE
  5
196
100
AcDbEntity
  8
Holes
  6
ByLayer
 62
  256
370
   -1
100
AcDbCircle
 10
17.1116982017103
 20
7.370168335778203
 40
0.47
  0
CIRCLE
  5
197
100
AcDbEntity
  8
Holes
  6
ByLayer
 62
  256
370
   -1
100
AcDbCircle
 10
17.87706506644049
 20
9.217927400800816
 40
0.47
  0
CIRCLE
  5
198
100
AcDbEntity
  8
Holes
  6
ByLayer
 62
  256
370
   -1
100
AcDbCircle
 10
18.64243170080669
 20
11.06568656124312
 40
0.47
  0
CIRCLE
  5
199
100
AcDbEntity
  8
Holes
  6
ByLayer
 62
  256
370
   -1
100
AcDbCircle
 10
19.4077985880255
 20
12.91344561695058
 40
0.47
  0
CIRCLE
  5
19A
100
AcDbEntity
  8
Holes
  6
ByLayer
 62
  256
370
   -1
100
AcDbCircle
 10
20.17316566063096
 20
14.76120459586837
 40
0.47
  0
CIRCLE
  5
19B
100
AcDbEntity
  8
Holes
  6
ByLayer
 62
  256
370
   -1
100
AcDbCircle
 10
20.93853252536116
 20
16.60896366089101
 40
0.47
  0
CIRCLE
  5
19C
100
AcDbEntity
  8
Holes
  6
ByLayer
 62
  256
370
   -1
100
AcDbCircle
 10
21.70389939009129
 20
18.45672272591342
 40
0.47
  0
CIRCLE
  5
19D
100
AcDbEntity
  8
Holes
  6
ByLayer
 62
  256
370
   -1
100
AcDbCircle
 10
22.46926625482145
 20
20.30448179093595
 40
0.47
  0
CIRCLE
  5
19E
100
AcDbEntity
  8
Holes
  6
ByLayer
 62
  256
370
   -1
100
AcDbCircle
 10
23.23463311955169
 20
22.15224085595868
 40
0.47
  0
CIRCLE
  5
19F
100
AcDbEntity
  8
Outline Curves
  6
ByLayer
 62
  256
370
   -1
100
AcDbCircle
 10
23.23463311955201
 20
22.15224085595882
 40
1.5
  0
CIRCLE
  5
1A0
100
AcDbEntity
  8
Outline Curves
  6
ByLayer
 62
  256
370
   -1
100
AcDbCircle
 10
22.46926625482183
 20
20.30448179093624
 40
1.5
  0
CIRCLE
  5
1A1
100
AcDbEntity
  8
Outline Curves
  6
ByLayer
 62
  256
370
   -1
100
AcDbCircle
 10
21.70389939009166
 20
18.4567227259137
 40
1.5
  0
CIRCLE
  5
1A2
100
AcDbEntity
  8
Outline Curves
  6
ByLayer
 62
  256
370
   -1
100
AcDbCircle
 10
20.93853252536148
 20
16.60896366089112
 40
1.5
  0
CIRCLE
  5
1A3
100
AcDbEntity
  8
Outline Curves
  6
ByLayer
 62
  256
370
   -1
100
AcDbCircle
 10
20.17316566063129
 20
14.76120459586852
 40
1.5
  0
CIRCLE
  5
1A4
100
AcDbEntity
  8
Outline Curves
  6
ByLayer
 62
  256
370
   -1
100
AcDbCircle
 10
19.40779879590111
 20
12.91344553084596
 40
1.5
  0
CIRCLE
  5
1A5
100
AcDbEntity
  8
Outline Curves
  6
ByLayer
 62
  256
370
   -1
100
AcDbCircle
 10
18.64243193117093
 20
11.06568646582337
 40
1.5
  0
CIRCLE
  5
1A6
100
AcDbEntity
  8
Outline Curves
  6
ByLayer
 62
  256
370
   -1
100
AcDbCircle
 10
17.87706506644075
 20
9.217927400800811
 40
1.5
  0
CIRCLE
  5
1A7
100
AcDbEntity
  8
Holes
  6
ByLayer
 62
  256
370
   -1
100
AcDbCircle
 10
26.61052382868323
 20
4.17110269350518
 40
0.47
  0
CIRCLE
  5
1A8
100
AcDbEntity
  8
Holes
  6
ByLayer
 62
  256
370
   -1
100
AcDbCircle
 10
29.1763808863326
 20
4.681483395200026
 40
0.47
  0
CIRCLE
  5
1A9
100
AcDbEntity
  8
Holes
  6
ByLayer
 62
  256
370
   -1
100
AcDbCircle
 10
23.99999998428219
 20
3.999999920981395
 40
0.47
  0
CIRCLE
  5
1AA
100
AcDbEntity
  8
Holes
  6
ByLayer
 62
  256
370
   -1
100
AcDbCircle
 10
21.38947613988116
 20
4.17110269350518
 40
0.47
  0
CIRCLE
  5
1AB
100
AcDbEntity
  8
Holes
  6
ByLayer
 62
  256
370
   -1
100
AcDbCircle
 10
18.82361908223178
 20
4.681483395200022
 40
0.47
  0
CIRCLE
  5
1AC
100
AcDbEntity
  8
Holes
  6
ByLayer
 62
  256
370
   -1
100
AcDbCircle
 10
14.81559755098026
 20
1.826891004211419
 40
0.47
  0
CIRCLE
  5
1AD
100
AcDbEntity
  8
Outline Curves
  6
ByLayer
 62
  256
370
   -1
100
AcDbCircle
 10
14.81559719520212
 20
1.826891151579549
 40
1.5
  0
CIRCLE
  5
1AE
100
AcDbEntity
  8
Outline Curves
  6
ByLayer
 62
  256
370
   -1
100
AcDbCircle
 10
17.11169820171058
 20
7.370168335778235
 40
1.5
  0
ARC
  5
1AF
100
AcDbEntity
  8
InnerCuts
  6
ByLayer
 62
  256
370
   -1
100
AcDbCircle
 10
23.9999998622677
 20
24.0000001295586
 40
4.500000190767704
100
AcDbArc
 50
266.6881377083981
 51
273.3118654296597
  0
ARC
  5
1B0
100
AcDbEntity
  8
InnerCuts
  6
ByLayer
 62
  256
370
   -1
100
AcDbCircle
 10
25.53073371374254
 20
20.30448179093628
 40
1.500000000000061
100
AcDbArc
 50
212.0940671586806
 51
244.3103148957812
  0
ARC
  5
1B1
100
AcDbEntity
  8
InnerCuts
  6
ByLayer
 62
  256
370
   -1
100
AcDbCircle
 10
26.29610057847272
 20
18.4567227259137
 40
1.500000000000129
100
AcDbArc
 50
160.6896851042244
 51
244.3103148957808
  0
ARC
  5
1B2
100
AcDbEntity
  8
InnerCuts
  6
ByLayer
 62
  256
370
   -1
100
AcDbCircle
 10
27.06146744320291
 20
16.60896366089112
 40
1.499999999999952
100
AcDbArc
 50
160.6896851042233
 51
244.3103148957802
  0
ARC
  5
1B3
100
AcDbEntity
  8
InnerCuts
  6
ByLayer
 62
  256
370
   -1
100
AcDbCircle
 10
27.82683430793309
 20
14.76120459586854
 40
1.499999999999933
100
AcDbArc
 50
160.6896851042229
 51
244.3103148957798
  0
ARC
  5
1B4
100
AcDbEntity
  8
InnerCuts
  6
ByLayer
 62
  256
370
   -1
100
AcDbCircle
 10
28.59220117266327
 20
12.91344553084596
 40
1.500000000000018
100
AcDbArc
 50
160.6896851042225
 51
244.3103148957796
  0
ARC
  5
1B5
100
AcDbEntity
  8
InnerCuts
  6
ByLayer
 62
  256
370
   -1
100
AcDbCircle
 10
29.35756803739345
 20
11.06568646582338
 40
1.500000000000026
100
AcDbArc
 50
160.6896851042226
 51
244.3103148957794
  0
ARC
  5
1B6
100
AcDbEntity
  8
InnerCuts
  6
ByLayer
 62
  256
370
   -1
100
AcDbCircle
 10
30.12293490212363
 20
9.217927400800804
 40
1.500000000000002
100
AcDbArc
 50
160.689685104222
 51
244.3103148957783
  0
ARC
  5
1B7
100
AcDbEntity
  8
InnerCuts
  6
ByLayer
 62
  256
370
   -1
100
AcDbCircle
 10
30.88830176685381
 20
7.370168335778239
 40
1.500000000000032
100
AcDbArc
 50
160.6896851042217
 51
219.7352696963191
  0
ARC
  5
1B8
100
AcDbEntity
  8
InnerCuts
  6
ByLayer
 62
  256
370
   -1
100
AcDbCircle
 10
17.11169789040471
 20
7.370168464725349
 40
1.49999999999985
100
AcDbArc
 50
320.2647328363112
 51
19.31030631529028
  0
ARC
  5
1B9
100
AcDbEntity
  8
InnerCuts
  6
ByLayer
 62
  256
370
   -1
100
AcDbCircle
 10
17.87706476995897
 20
9.217927523607582
 40
1.500000000000034
100
AcDbArc
 50
295.6896932761152
 51
19.31030672388469
  0
ARC
  5
1BA
100
AcDbEntity
  8
InnerCuts
  6
ByLayer
 62
  256
370
   -1
100
AcDbCircle
 10
18.64243193117094
 20
11.06568646582339
 40
1.499999999999989
100
AcDbArc
 50
295.6896759108398
 51
19.31031489577859
  0
ARC
  5
1BB
100
AcDbEntity
  8
InnerCuts
  6
ByLayer
 62
  256
370
   -1
100
AcDbCircle
 10
19.40779852906751
 20
12.91344564137205
 40
1.500000000000011
100
AcDbArc
 50
295.6896924589255
 51
19.31030754107381
  0
ARC
  5
1BC
100
AcDbEntity
  8
InnerCuts
  6
ByLayer
 62
  256
370
   -1
100
AcDbCircle
 10
20.1731656606313
 20
14.76120459586854
 40
1.500000000000034
100
AcDbArc
 50
295.6896851042208
 51
19.31031489577879
  0
ARC
  5
1BD
100
AcDbEntity
  8
InnerCuts
  6
ByLayer
 62
  256
370
   -1
100
AcDbCircle
 10
20.93853228817605
 20
16.60896375913653
 40
1.499999999999981
100
AcDbArc
 50
295.6896916417364
 51
19.3103083582639
  0
ARC
  5
1BE
100
AcDbEntity
  8
InnerCuts
  6
ByLayer
 62
  256
370
   -1
100
AcDbCircle
 10
21.70389916773032
 20
18.45672281801876
 40
1.499999999999949
100
AcDbArc
 50
295.6896838784363
 51
19.31030876685806
  0
ARC
  5
1BF
100
AcDbEntity
  8
InnerCuts
  6
ByLayer
 62
  256
370
   -1
100
AcDbCircle
 10
22.46926625482184
 20
20.30448179093626
 40
1.500000000000068
100
AcDbArc
 50
295.6896782091821
 51
327.9059289712485
  0
ARC
  5
1C0
100
AcDbEntity
  8
InnerCuts
  6
ByLayer
 62
  256
370
   -1
100
AcDbCircle
 10
23.99999901554159
 20
24.00000048028405
 40
18.49999993373825
100
AcDbArc
 50
251.9414484818665
 51
288.0585571847005
  0
ARC
  5
1C1
100
AcDbEntity
  8
OuterCut
  6
ByLayer
 62
  256
370
   -1
100
AcDbCircle
 10
15.58096413129617
 20
3.67465034696087
 40
1.499999999999865
100
AcDbArc
 50
136.1763036900174
 51
199.3103170471529
  0
ARC
  5
1C2
100
AcDbEntity
  8
OuterCut
  6
ByLayer
 62
  256
370
   -1
100
AcDbCircle
 10
14.81559719520212
 20
1.826891151579549
 40
1.500000000000257
100
AcDbArc
 50
115.6896808587959
 51
19.31030764947302
  0
ARC
  5
1C3
100
AcDbEntity
  8
OuterCut
  6
ByLayer
 62
  256
370
   -1
100
AcDbCircle
 10
15.58096413129617
 20
3.67465034696087
 40
1.499999999999865
100
AcDbArc
 50
295.6896796840922
 51
358.8236878939974
  0
ARC
  5
1C4
100
AcDbEntity
  8
OuterCut
  6
ByLayer
 62
  256
370
   -1
100
AcDbCircle
 10
24.0000001750499
 20
23.99999999999997
 40
21.49999993493268
100
AcDbArc
 50
251.2263481382168
 51
288.7736500847638
  0
CIRCLE
  5
1C5
100
AcDbEntity
  8
Holes
  6
ByLayer
 62
  256
370
   -1
100
AcDbCircle
 10
32.41903560105063
 20
3.674650249116088
 40
0.47
  0
CIRCLE
  5
1C6
100
AcDbEntity
  8
Holes
  6
ByLayer
 62
  256
370
   -1
100
AcDbCircle
 10
31.6536686315838
 20
5.522409270755485
 40
0.47
  0
CIRCLE
  5
1C7
100
AcDbEntity
  8
Holes
  6
ByLayer
 62
  256
370
   -1
100
AcDbCircle
 10
30.88830176685365
 20
7.370168335778015
 40
0.47
  0
CIRCLE
  5
1C8
100
AcDbEntity
  8
Holes
  6
ByLayer
 62
  256
370
   -1
100
AcDbCircle
 10
30.12293490212345
 20
9.217927400800621
 40
0.47
  0
CIRCLE
  5
1C9
100
AcDbEntity
  8
Holes
  6
ByLayer
 62
  256
370
   -1
100
AcDbCircle
 10
29.3575678070294
 20
11.0656863704032
 40
0.47
  0
CIRCLE
  5
1CA
100
AcDbEntity
  8
Holes
  6
ByLayer
 62
  256
370
   -1
100
AcDbCircle
 10
28.59220096478786
 20
12.91344544474086
 40
0.47
  0
CIRCLE
  5
1CB
100
AcDbEntity
  8
Holes
  6
ByLayer
 62
  256
370
   -1
100
AcDbCircle
 10
27.82683430793298
 20
14.76120459586818
 40
0.47
  0
CIRCLE
  5
1CC
100
AcDbEntity
  8
Holes
  6
ByLayer
 62
  256
370
   -1
100
AcDbCircle
 10
27.06146744320278
 20
16.60896366089082
 40
0.47
  0
CIRCLE
  5
1CD
100
AcDbEntity
  8
Holes
  6
ByLayer
 62
  256
370
   -1
100
AcDbCircle
 10
26.29610057847268
 20
18.45672272591323
 40
0.47
  0
CIRCLE
  5
1CE
100
AcDbEntity
  8
Holes
  6
ByLayer
 62
  256
370
   -1
100
AcDbCircle
 10
25.53073371374251
 20
20.30448179093576
 40
0.47
  0
CIRCLE
  5
1CF
100
AcDbEntity
  8
Holes
  6
ByLayer
 62
  256
370
   -1
100
AcDbCircle
 10
24.76536684901226
 20
22.1522408559585
 40
0.47
  0
CIRCLE
  5
1D0
100
AcDbEntity
  8
Outline Curves
  6
ByLayer
 62
  256
370
   -1
100
AcDbCircle
 10
24.76536684901239
 20
22.15224085595882
 40
1.5
  0
CIRCLE
  5
1D1
100
AcDbEntity
  8
Outline Curves
  6
ByLayer
 62
  256
370
   -1
100
AcDbCircle
 10
25.53073371374257
 20
20.30448179093624
 40
1.5
  0
CIRCLE
  5
1D2
100
AcDbEntity
  8
Outline Curves
  6
ByLayer
 62
  256
370
   -1
100
AcDbCircle
 10
26.29610057847275
 20
18.4567227259137
 40
1.5
  0
CIRCLE
  5
1D3
100
AcDbEntity
  8
Outline Curves
  6
ByLayer
 62
  256
370
   -1
100
AcDbCircle
 10
27.06146744320293
 20
16.60896366089112
 40
1.5
  0
CIRCLE
  5
1D4
100
AcDbEntity
  8
Outline Curves
  6
ByLayer
 62
  256
370
   -1
100
AcDbCircle
 10
27.82683430793311
 20
14.76120459586852
 40
1.5
  0
CIRCLE
  5
1D5
100
AcDbEntity
  8
Outline Curves
  6
ByLayer
 62
  256
370
   -1
100
AcDbCircle
 10
28.59220117266328
 20
12.91344553084595
 40
1.5
  0
CIRCLE
  5
1D6
100
AcDbEntity
  8
Outline Curves
  6
ByLayer
 62
  256
370
   -1
100
AcDbCircle
 10
29.35756803739347
 20
11.06568646582337
 40
1.5
  0
CIRCLE
  5
1D7
100
AcDbEntity
  8
Outline Curves
  6
ByLayer
 62
  256
370
   -1
100
AcDbCircle
 10
30.12293490212364
 20
9.217927400800805
 40
1.5
  0
CIRCLE
  5
1D8
100
AcDbEntity
  8
Holes
  6
ByLayer
 62
  256
370
   -1
100
AcDbCircle
 10
39.86706679010693
 20
11.82477134080698
 40
0.47
  0
CIRCLE
  5
1D9
100
AcDbEntity
  8
Holes
  6
ByLayer
 62
  256
370
   -1
100
AcDbCircle
 10
41.32050805997098
 20
13.99999992098139
 40
0.47
  0
CIRCLE
  5
1DA
100
AcDbEntity
  8
Holes
  6
ByLayer
 62
  256
370
   -1
100
AcDbCircle
 10
38.14213560801316
 20
9.857864297250446
 40
0.47
  0
CIRCLE
  5
1DB
100
AcDbEntity
  8
Holes
  6
ByLayer
 62
  256
370
   -1
100
AcDbCircle
 10
36.17522856445663
 20
8.132933115156691
 40
0.47
  0
CIRCLE
  5
1DC
100
AcDbEntity
  8
Holes
  6
ByLayer
 62
  256
370
   -1
100
AcDbCircle
 10
33.99999998428222
 20
6.679491845292617
 40
0.47
  0
CIRCLE
  5
1DD
100
AcDbEntity
  8
Holes
  6
ByLayer
 62
  256
370
   -1
100
AcDbCircle
 10
33.18440241758415
 20
1.826891004211422
 40
0.47
  0
CIRCLE
  5
1DE
100
AcDbEntity
  8
Outline Curves
  6
ByLayer
 62
  256
370
   -1
100
AcDbCircle
 10
33.184402061806
 20
1.826890856843288
 40
1.5
  0
CIRCLE
  5
1DF
100
AcDbEntity
  8
Outline Curves
  6
ByLayer
 62
  256
370
   -1
100
AcDbCircle
 10
30.88830176685383
 20
7.370168335778235
 40
1.5
  0
ARC
  5
1E0
100
AcDbEntity
  8
InnerCuts
  6
ByLayer
 62
  256
370
   -1
100
AcDbCircle
 10
23.99999975051858
 20
23.99999998219047
 40
4.500000190767704
100
AcDbArc
 50
311.688137708398
 51
318.3118654296597
  0
ARC
  5
1E1
100
AcDbEntity
  8
InnerCuts
  6
ByLayer
 62
  256
370
   -1
100
AcDbCircle
 10
27.69551811432733
 20
22.46926619152105
 40
1.500000000000061
100
AcDbArc
 50
257.0940671586806
 51
289.3103148957812
  0
ARC
  5
1E2
100
AcDbEntity
  8
InnerCuts
  6
ByLayer
 62
  256
370
   -1
100
AcDbCircle
 10
29.54327717934991
 20
21.70389932679087
 40
1.500000000000129
100
AcDbArc
 50
205.6896851042244
 51
289.3103148957808
  0
ARC
  5
1E3
100
AcDbEntity
  8
InnerCuts
  6
ByLayer
 62
  256
370
   -1
100
AcDbCircle
 10
31.39103624437249
 20
20.93853246206069
 40
1.499999999999952
100
AcDbArc
 50
205.6896851042234
 51
289.3103148957802
  0
ARC
  5
1E4
100
AcDbEntity
  8
InnerCuts
  6
ByLayer
 62
  256
370
   -1
100
AcDbCircle
 10
33.23879530939507
 20
20.1731655973305
 40
1.499999999999933
100
AcDbArc
 50
205.689685104223
 51
289.3103148957798
  0
ARC
  5
1E5
100
AcDbEntity
  8
InnerCuts
  6
ByLayer
 62
  256
370
   -1
100
AcDbCircle
 10
35.08655437441766
 20
19.40779873260032
 40
1.500000000000018
100
AcDbArc
 50
205.6896851042225
 51
289.3103148957796
  0
ARC
  5
1E6
100
AcDbEntity
  8
InnerCuts
  6
ByLayer
 62
  256
370
   -1
100
AcDbCircle
 10
36.93431343944022
 20
18.64243186787014
 40
1.500000000000026
100
AcDbArc
 50
205.6896851042226
 51
289.3103148957794
  0
ARC
  5
1E7
100
AcDbEntity
  8
InnerCuts
  6
ByLayer
 62
  256
370
   -1
100
AcDbCircle
 10
38.7820725044628
 20
17.87706500313996
 40
1.500000000000002
100
AcDbArc
 50
205.689685104222
 51
289.3103148957783
  0
ARC
  5
1E8
100
AcDbEntity
  8
InnerCuts
  6
ByLayer
 62
  256
370
   -1
100
AcDbCircle
 10
40.62983156948538
 20
17.11169813840978
 40
1.500000000000032
100
AcDbArc
 50
205.6896851042218
 51
264.735269696319
  0
ARC
  5
1E9
100
AcDbEntity
  8
InnerCuts
  6
ByLayer
 62
  256
370
   -1
100
AcDbCircle
 10
30.88830145554796
 20
7.370168206831121
 40
1.49999999999985
100
AcDbArc
 50
5.264732836311192
 51
64.31030631529033
  0
ARC
  5
1EA
100
AcDbEntity
  8
InnerCuts
  6
ByLayer
 62
  256
370
   -1
100
AcDbCircle
 10
30.12293460564187
 20
9.217927277994031
 40
1.500000000000034
100
AcDbArc
 50
340.6896932761152
 51
64.31030672388464
  0
ARC
  5
1EB
100
AcDbEntity
  8
InnerCuts
  6
ByLayer
 62
  256
370
   -1
100
AcDbCircle
 10
29.35756803739347
 20
11.06568646582338
 40
1.499999999999989
100
AcDbArc
 50
340.6896759108398
 51
64.31031489577859
  0
ARC
  5
1EC
100
AcDbEntity
  8
InnerCuts
  6
ByLayer
 62
  256
370
   -1
100
AcDbCircle
 10
28.59220090582969
 20
12.91344542031986
 40
1.500000000000011
100
AcDbArc
 50
340.6896924589255
 51
64.31030754107387
  0
ARC
  5
1ED
100
AcDbEntity
  8
InnerCuts
  6
ByLayer
 62
  256
370
   -1
100
AcDbCircle
 10
27.8268343079331
 20
14.76120459586854
 40
1.500000000000034
100
AcDbArc
 50
340.6896851042208
 51
64.31031489577884
  0
ARC
  5
1EE
100
AcDbEntity
  8
InnerCuts
  6
ByLayer
 62
  256
370
   -1
100
AcDbCircle
 10
27.0614672060175
 20
16.60896356264569
 40
1.499999999999981
100
AcDbArc
 50
340.6896916417364
 51
64.31030835826391
  0
ARC
  5
1EF
100
AcDbEntity
  8
InnerCuts
  6
ByLayer
 62
  256
370
   -1
100
AcDbCircle
 10
26.29610035611142
 20
18.4567226338086
 40
1.499999999999949
100
AcDbArc
 50
340.6896838784363
 51
64.31030876685801
  0
ARC
  5
1F0
100
AcDbEntity
  8
InnerCuts
  6
ByLayer
 62
  256
370
   -1
100
AcDbCircle
 10
25.53073371374257
 20
20.30448179093626
 40
1.500000000000068
100
AcDbArc
 50
340.6896782091821
 51
12.90592897124852
  0
ARC
  5
1F1
100
AcDbEntity
  8
InnerCuts
  6
ByLayer
 62
  256
370
   -1
100
AcDbCircle
 10
23.99999890379247
 20
23.99999963146504
 40
18.49999993373825
100
AcDbArc
 50
296.9414484818665
 51
333.0585571847005
  0
ARC
  5
1F2
100
AcDbEntity
  8
OuterCut
  6
ByLayer
 62
  256
370
   -1
100
AcDbCircle
 10
32.41903515536014
 20
3.67465006450529
 40
1.499999999999865
100
AcDbArc
 50
181.1763036900174
 51
244.3103170471528
  0
ARC
  5
1F3
100
AcDbEntity
  8
OuterCut
  6
ByLayer
 62
  256
370
   -1
100
AcDbCircle
 10
33.184402061806
 20
1.826890856843288
 40
1.500000000000257
100
AcDbArc
 50
160.6896808587959
 51
64.31030764947307
  0
ARC
  5
1F4
100
AcDbEntity
  8
OuterCut
  6
ByLayer
 62
  256
370
   -1
100
AcDbCircle
 10
32.41903515536014
 20
3.67465006450529
 40
1.499999999999865
100
AcDbArc
 50
340.6896796840923
 51
43.8236878939973
  0
ARC
  5
1F5
100
AcDbEntity
  8
OuterCut
  6
ByLayer
 62
  256
370
   -1
100
AcDbCircle
 10
24.00000006330079
 20
24.00000011174911
 40
21.49999993493268
100
AcDbArc
 50
296.2263481382169
 51
333.7736500847638
  0
CIRCLE
  5
1F6
100
AcDbEntity
  8
Holes
  6
ByLayer
 62
  256
370
   -1
100
AcDbCircle
 10
44.32534974291397
 20
15.58096451368569
 40
0.47
  0
CIRCLE
  5
1F7
100
AcDbEntity
  8
Holes
  6
ByLayer
 62
  256
370
   -1
100
AcDbCircle
 10
42.47759063450794
 20
16.34633127367934
 40
0.47
  0
CIRCLE
  5
1F8
100
AcDbEntity
  8
Holes
  6
ByLayer
 62
  256
370
   -1
100
AcDbCircle
 10
40.62983156948542
 20
17.11169813840951
 40
0.47
  0
CIRCLE
  5
1F9
100
AcDbEntity
  8
Holes
  6
ByLayer
 62
  256
370
   -1
100
AcDbCircle
 10
38.7820725044628
 20
17.8770650031397
 40
0.47
  0
CIRCLE
  5
1FA
100
AcDbEntity
  8
Holes
  6
ByLayer
 62
  256
370
   -1
100
AcDbCircle
 10
36.9343133440205
 20
18.6424316375059
 40
0.47
  0
CIRCLE
  5
1FB
100
AcDbEntity
  8
Holes
  6
ByLayer
 62
  256
370
   -1
100
AcDbCircle
 10
35.08655428831304
 20
19.40779852472471
 40
0.47
  0
CIRCLE
  5
1FC
100
AcDbEntity
  8
Holes
  6
ByLayer
 62
  256
370
   -1
100
AcDbCircle
 10
33.23879530939525
 20
20.17316559733018
 40
0.47
  0
CIRCLE
  5
1FD
100
AcDbEntity
  8
Holes
  6
ByLayer
 62
  256
370
   -1
100
AcDbCircle
 10
31.39103624437261
 20
20.93853246206038
 40
0.47
  0
CIRCLE
  5
1FE
100
AcDbEntity
  8
Holes
  6
ByLayer
 62
  256
370
   -1
100
AcDbCircle
 10
29.54327717935021
 20
21.7038993267905
 40
0.47
  0
CIRCLE
  5
1FF
100
AcDbEntity
  8
Holes
  6
ByLayer
 62
  256
370
   -1
100
AcDbCircle
 10
27.69551811432767
 20
22.46926619152066
 40
0.47
  0
CIRCLE
  5
200
100
AcDbEntity
  8
Holes
  6
ByLayer
 62
  256
370
   -1
100
AcDbCircle
 10
25.84775904930494
 20
23.23463305625091
 40
0.47
  0
CIRCLE
  5
201
100
AcDbEntity
  8
Outline Curves
  6
ByLayer
 62
  256
370
   -1
100
AcDbCircle
 10
25.84775904930481
 20
23.23463305625123
 40
1.5
  0
CIRCLE
  5
202
100
AcDbEntity
  8
Outline Curves
  6
ByLayer
 62
  256
370
   -1
100
AcDbCircle
 10
27.69551811432738
 20
22.46926619152105
 40
1.5
  0
CIRCLE
  5
203
100
AcDbEntity
  8
Outline Curves
  6
ByLayer
 62
  256
370
   -1
100
AcDbCircle
 10
29.54327717934993
 20
21.70389932679088
 40
1.5
  0
CIRCLE
  5
204
100
AcDbEntity
  8
Outline Curves
  6
ByLayer
 62
  256
370
   -1
100
AcDbCircle
 10
31.3910362443725
 20
20.9385324620607
 40
1.5
  0
CIRCLE
  5
205
100
AcDbEntity
  8
Outline Curves
  6
ByLayer
 62
  256
370
   -1
100
AcDbCircle
 10
33.2387953093951
 20
20.17316559733051
 40
1.5
  0
CIRCLE
  5
206
100
AcDbEntity
  8
Outline Curves
  6
ByLayer
 62
  256
370
   -1
100
AcDbCircle
 10
35.08655437441767
 20
19.40779873260032
 40
1.5
  0
CIRCLE
  5
207
100
AcDbEntity
  8
Outline Curves
  6
ByLayer
 62
  256
370
   -1
100
AcDbCircle
 10
36.93431343944025
 20
18.64243186787014
 40
1.5
  0
CIRCLE
  5
208
100
AcDbEntity
  8
Outline Curves
  6
ByLayer
 62
  256
370
   -1
100
AcDbCircle
 10
38.78207250446281
 20
17.87706500313996
 40
1.5
  0
CIRCLE
  5
209
100
AcDbEntity
  8
Holes
  6
ByLayer
 62
  256
370
   -1
100
AcDbCircle
 10
43.82889721175844
 20
26.61052376538245
 40
0.47
  0
CIRCLE
  5
20A
100
AcDbEntity
  8
Holes
  6
ByLayer
 62
  256
370
   -1
100
AcDbCircle
 10
43.3185165100636
 20
29.17638082303182
 40
0.47
  0
CIRCLE
  5
20B
100
AcDbEntity
  8
Holes
  6
ByLayer
 62
  256
370
   -1
100
AcDbCircle
 10
43.99999998428223
 20
23.99999992098141
 40
0.47
  0
CIRCLE
  5
20C
100
AcDbEntity
  8
Holes
  6
ByLayer
 62
  256
370
   -1
100
AcDbCircle
 10
43.82889721175844
 20
21.38947607658038
 40
0.47
  0
CIRCLE
  5
20D
100
AcDbEntity
  8
Holes
  6
ByLayer
 62
  256
370
   -1
100
AcDbCircle
 10
43.3185165100636
 20
18.82361901893099
 40
0.47
  0
CIRCLE
  5
20E
100
AcDbEntity
  8
Holes
  6
ByLayer
 62
  256
370
   -1
100
AcDbCircle
 10
46.1731089010522
 20
14.81559748767948
 40
0.47
  0
CIRCLE
  5
20F
100
AcDbEntity
  8
Outline Curves
  6
ByLayer
 62
  256
370
   -1
100
AcDbCircle
 10
46.17310875368408
 20
14.81559713190134
 40
1.5
  0
CIRCLE
  5
210
100
AcDbEntity
  8
Outline Curves
  6
ByLayer
 62
  256
370
   -1
100
AcDbCircle
 10
40.62983156948539
 20
17.11169813840979
 40
1.5
  0
ARC
  5
211
100
AcDbEntity
  8
InnerCuts
  6
ByLayer
 62
  256
370
   -1
100
AcDbCircle
 10
23.99999977570502
 20
23.99999979896691
 40
4.500000190767704
100
AcDbArc
 50
356.6881377083981
 51
3.311865429659675
  0
ARC
  5
212
100
AcDbEntity
  8
InnerCuts
  6
ByLayer
 62
  256
370
   -1
100
AcDbCircle
 10
27.69551811432734
 20
25.53073365044175
 40
1.500000000000061
100
AcDbArc
 50
302.0940671586806
 51
334.3103148957812
  0
ARC
  5
213
100
AcDbEntity
  8
InnerCuts
  6
ByLayer
 62
  256
370
   -1
100
AcDbCircle
 10
29.54327717934992
 20
26.29610051517194
 40
1.500000000000129
100
AcDbArc
 50
250.6896851042245
 51
334.3103148957808
  0
ARC
  5
214
100
AcDbEntity
  8
InnerCuts
  6
ByLayer
 62
  256
370
   -1
100
AcDbCircle
 10
31.39103624437251
 20
27.06146737990212
 40
1.499999999999952
100
AcDbArc
 50
250.6896851042235
 51
334.3103148957802
  0
ARC
  5
215
100
AcDbEntity
  8
InnerCuts
  6
ByLayer
 62
  256
370
   -1
100
AcDbCircle
 10
33.23879530939508
 20
27.8268342446323
 40
1.499999999999933
100
AcDbArc
 50
250.689685104223
 51
334.3103148957798
  0
ARC
  5
216
100
AcDbEntity
  8
InnerCuts
  6
ByLayer
 62
  256
370
   -1
100
AcDbCircle
 10
35.08655437441767
 20
28.59220110936249
 40
1.500000000000018
100
AcDbArc
 50
250.6896851042224
 51
334.3103148957795
  0
ARC
  5
217
100
AcDbEntity
  8
InnerCuts
  6
ByLayer
 62
  256
370
   -1
100
AcDbCircle
 10
36.93431343944024
 20
29.35756797409267
 40
1.500000000000026
100
AcDbArc
 50
250.6896851042226
 51
334.3103148957794
  0
ARC
  5
218
100
AcDbEntity
  8
InnerCuts
  6
ByLayer
 62
  256
370
   -1
100
AcDbCircle
 10
38.78207250446282
 20
30.12293483882285
 40
1.500000000000002
100
AcDbArc
 50
250.689685104222
 51
334.3103148957783
  0
ARC
  5
219
100
AcDbEntity
  8
InnerCuts
  6
ByLayer
 62
  256
370
   -1
100
AcDbCircle
 10
40.62983156948539
 20
30.88830170355302
 40
1.500000000000032
100
AcDbArc
 50
250.6896851042218
 51
309.7352696963191
  0
ARC
  5
21A
100
AcDbEntity
  8
InnerCuts
  6
ByLayer
 62
  256
370
   -1
100
AcDbCircle
 10
40.62983144053828
 20
17.11169782710392
 40
1.49999999999985
100
AcDbArc
 50
50.26473283631119
 51
109.3103063152903
  0
ARC
  5
21B
100
AcDbEntity
  8
InnerCuts
  6
ByLayer
 62
  256
370
   -1
100
AcDbCircle
 10
38.78207238165604
 20
17.87706470665819
 40
1.500000000000034
100
AcDbArc
 50
25.68969327611516
 51
109.3103067238847
  0
ARC
  5
21C
100
AcDbEntity
  8
InnerCuts
  6
ByLayer
 62
  256
370
   -1
100
AcDbCircle
 10
36.93431343944024
 20
18.64243186787015
 40
1.499999999999989
100
AcDbArc
 50
25.68967591083976
 51
109.3103148957786
  0
ARC
  5
21D
100
AcDbEntity
  8
InnerCuts
  6
ByLayer
 62
  256
370
   -1
100
AcDbCircle
 10
35.08655426389157
 20
19.40779846576672
 40
1.500000000000011
100
AcDbArc
 50
25.68969245892547
 51
109.3103075410738
  0
ARC
  5
21E
100
AcDbEntity
  8
InnerCuts
  6
ByLayer
 62
  256
370
   -1
100
AcDbCircle
 10
33.23879530939509
 20
20.17316559733051
 40
1.500000000000034
100
AcDbArc
 50
25.6896851042208
 51
109.3103148957788
  0
ARC
  5
21F
100
AcDbEntity
  8
InnerCuts
  6
ByLayer
 62
  256
370
   -1
100
AcDbCircle
 10
31.3910361461271
 20
20.93853222487527
 40
1.499999999999981
100
AcDbArc
 50
25.6896916417364
 51
109.310308358264
  0
ARC
  5
220
100
AcDbEntity
  8
InnerCuts
  6
ByLayer
 62
  256
370
   -1
100
AcDbCircle
 10
29.54327708724487
 20
21.70389910442954
 40
1.499999999999949
100
AcDbArc
 50
25.6896838784363
 51
109.3103087668581
  0
ARC
  5
221
100
AcDbEntity
  8
InnerCuts
  6
ByLayer
 62
  256
370
   -1
100
AcDbCircle
 10
27.69551811432736
 20
22.46926619152106
 40
1.500000000000068
100
AcDbArc
 50
25.68967820918216
 51
57.90592897124852
  0
ARC
  5
222
100
AcDbEntity
  8
InnerCuts
  6
ByLayer
 62
  256
370
   -1
100
AcDbCircle
 10
23.99999942497958
 20
23.99999895224081
 40
18.49999993373825
100
AcDbArc
 50
341.9414484818665
 51
18.05855718470053
  0
ARC
  5
223
100
AcDbEntity
  8
OuterCut
  6
ByLayer
 62
  256
370
   -1
100
AcDbCircle
 10
44.32534955830275
 20
15.58096406799538
 40
1.499999999999865
100
AcDbArc
 50
226.1763036900174
 51
289.3103170471528
  0
ARC
  5
224
100
AcDbEntity
  8
OuterCut
  6
ByLayer
 62
  256
370
   -1
100
AcDbCircle
 10
46.17310875368408
 20
14.81559713190134
 40
1.500000000000257
100
AcDbArc
 50
205.6896808587958
 51
109.310307649473
  0
ARC
  5
225
100
AcDbEntity
  8
OuterCut
  6
ByLayer
 62
  256
370
   -1
100
AcDbCircle
 10
44.32534955830275
 20
15.58096406799538
 40
1.499999999999865
100
AcDbArc
 50
25.68967968409218
 51
88.82368789399736
  0
ARC
  5
226
100
AcDbEntity
  8
OuterCut
  6
ByLayer
 62
  256
370
   -1
100
AcDbCircle
 10
23.99999990526365
 20
24.00000011174912
 40
21.49999993493268
100
AcDbArc
 50
341.2263481382168
 51
18.7736500847638
  0
CIRCLE
  5
227
100
AcDbEntity
  8
InnerCutsNew
  6
ByLayer
 62
  256
370
   -1
100
AcDbCircle
 10
23.99999998428223
 20
23.99999992098143
 40
18.49999990033099
  0
CIRCLE
  5
228
100
AcDbEntity
  8
InnerCutsNew
  6
ByLayer
 62
  256
370
   -1
100
AcDbCircle
 10
32.60474455051823
 20
18.90506395822091
 40
7
  0
CIRCLE
  5
229
100
AcDbEntity
  8
InnerCutsNew
  6
ByLayer
 62
  256
370
   -1
100
AcDbCircle
 10
41.84353990633278
 20
22.73189820775137
 40
7
  0
CIRCLE
  5
22A
100
AcDbEntity
  8
Main Curves
  6
ByLayer
 62
  256
370
   -1
100
AcDbCircle
 10
24.00000003454674
 20
23.99999933077445
 40
18.5
  0
CIRCLE
  5
22B
100
AcDbEntity
  8
Main Curves
  6
ByLayer
 62
  256
370
   -1
100
AcDbCircle
 10
24.00000043716396
 20
23.99999933077445
 40
18.5
  0
CIRCLE
  5
22C
100
AcDbEntity
  8
Main Curves
  6
ByLayer
 62
  256
370
   -1
100
AcDbCircle
 10
24.00000072185732
 20
23.99999961546781
 40
18.5
  0
CIRCLE
  5
22D
100
AcDbEntity
  8
Main Curves
  6
ByLayer
 62
  256
370
   -1
100
AcDbCircle
 10
24.00000072185732
 20
24.00000001808503
 40
18.5
  0
CIRCLE
  5
22E
100
AcDbEntity
  8
Main Curves
  6
ByLayer
 62
  256
370
   -1
100
AcDbCircle
 10
24.00000043716396
 20
24.00000030277839
 40
18.5
  0
CIRCLE
  5
22F
100
AcDbEntity
  8
Main Curves
  6
ByLayer
 62
  256
370
   -1
100
AcDbCircle
 10
24.00000003454675
 20
24.00000030277839
 40
18.5
  0
CIRCLE
  5
230
100
AcDbEntity
  8
Main Curves
  6
ByLayer
 62
  256
370
   -1
100
AcDbCircle
 10
23.99999974985338
 20
24.00000001808503
 40
18.5
  0
LINE
  5
231
100
AcDbEntity
  8
0
  6
ByLayer
 62
  256
370
   -1
100
AcDbLine
 10
14.24157289181275
 20
47.55892697889622
 11
47.55892808040027
 21
33.75842702352044
  0
LINE
  5
232
100
AcDbEntity
  8
0
  6
ByLayer
 62
  256
370
   -1
100
AcDbLine
 10
18.51111573756523
 20
0.296157411250185
 11
36.87992049108952
 21
44.64237497179195
  0
CIRCLE
  5
233
100
AcDbEntity
  8
0
  6
ByLayer
 62
  256
370
   -1
100
AcDbCircle
 10
47.55892808040026
 20
33.75842702352043
 40
16.5
  0
ARC
  5
234
100
AcDbEntity
  8
NewInnerz
  6
ByLayer
 62
  256
370
   -1
100
AcDbCircle
 10
47.55892808040027
 20
33.75842702352044
 40
16.49999999999999
100
AcDbArc
 50
222.3374002125054
 51
248.9060988728263
  0
ARC
  5
235
100
AcDbEntity
  8
NewInnerz
  6
ByLayer
 62
  256
370
   -1
100
AcDbCircle
 10
34.5957681856006
 20
39.12794349735481
 40
16.50000000000003
100
AcDbArc
 50
248.3017760526988
 51
272.6626010385134
  0
LINE
  5
236
100
AcDbEntity
  8
00
  6
ByLayer
 62
  256
370
   -1
100
AcDbLine
 10
33.75842716997988
 20
47.55892718012304
 11
0.4410725343729053
 21
33.75842718569765
  0
CIRCLE
  5
237
100
AcDbEntity
  8
00
  6
ByLayer
 62
  256
370
   -1
100
AcDbCircle
 10
20.79526802231785
 20
42.18941091144987
 40
16.5
  0
CIRCLE
  5
238
100
AcDbEntity
  8
00
  6
ByLayer
 62
  256
370
   -1
100
AcDbCircle
 10
33.75842716997988
 20
47.55892718012304
 40
16.5
  0
LINE
  5
239
100
AcDbEntity
  8
000
  6
ByLayer
 62
  256
370
   -1
100
AcDbLine
 10
0.4410717657460393
 20
14.24157235091514
 11
33.75842765578442
 21
0.4410707020871438
  0
CIRCLE
  5
23A
100
AcDbEntity
  8
000
  6
ByLayer
 62
  256
370
   -1
100
AcDbCircle
 10
33.75842765578442
 20
0.4410707020871444
 40
16.5
  0
CIRCLE
  5
23B
100
AcDbEntity
  8
000
  6
ByLayer
 62
  256
370
   -1
100
AcDbCircle
 10
20.79526759023713
 20
5.810587792490338
 40
16.5
  0
LINE
  5
23C
100
AcDbEntity
  8
000
  6
ByLayer
 62
  256
370
   -1
100
AcDbLine
 10
14.24157211936033
 20
0.4410710220474244
 11
47.5589286924485
 21
14.2415721350781
  0
LINE
  5
23D
100
AcDbEntity
  8
001
  6
ByLayer
 62
  256
370
   -1
100
AcDbLine
 10
14.24157211936033
 20
0.4410710220474244
 11
47.5589286924485
 21
14.2415721350781
  0
CIRCLE
  5
23E
100
AcDbEntity
  8
001
  6
ByLayer
 62
  256
370
   -1
100
AcDbCircle
 10
47.5589286924485
 20
14.2415721350781
 40
16.5
  0
ARC
  5
23F
100
AcDbEntity
  8
NewInnerz
  6
ByLayer
 62
  256
370
   -1
100
AcDbCircle
 10
47.55892869244851
 20
14.2415721350781
 40
16.49999999999998
100
AcDbArc
 50
111.0939026516437
 51
137.6626017185382
  0
ARC
  5
240
100
AcDbEntity
  8
NewInnerz
  6
ByLayer
 62
  256
370
   -1
100
AcDbCircle
 10
34.59576836096011
 20
8.8720552530694
 40
16.5
100
AcDbArc
 50
87.33739874541259
 51
111.6982243840106
  0
ARC
  5
241
100
AcDbEntity
  8
NewInnerz
  6
ByLayer
 62
  256
370
   -1
100
AcDbCircle
 10
24.00000027379858
 20
23.99999884049168
 40
4.499999303318557
100
AcDbArc
 50
357.4153143170035
 51
2.584698660679112
  0
ARC
  5
242
100
AcDbEntity
  8
NewInnerz
  6
ByLayer
 62
  256
370
   -1
100
AcDbCircle
 10
24.00000027379858
 20
23.99999884049168
 40
18.50000011738179
100
AcDbArc
 50
342.2631771217397
 51
17.73682657991548
  0
ARC
  5
243
100
AcDbEntity
  8
NewInnerz
  6
ByLayer
 62
  256
370
   -1
100
AcDbCircle
 10
33.7584271413894
 20
47.55892719196561
 40
16.49999999999999
100
AcDbArc
 50
267.3374002125054
 51
293.9060988728262
  0
ARC
  5
244
100
AcDbEntity
  8
NewInnerz
  6
ByLayer
 62
  256
370
   -1
100
AcDbCircle
 10
20.79526736382989
 20
42.18941043508843
 40
16.50000000000003
100
AcDbArc
 50
293.3017760526988
 51
317.6626010385134
  0
ARC
  5
245
100
AcDbEntity
  8
NewInnerz
  6
ByLayer
 62
  256
370
   -1
100
AcDbCircle
 10
47.55892801322426
 20
33.75842718569767
 40
16.49999999999998
100
AcDbArc
 50
156.0939026516437
 51
182.6626017185382
  0
ARC
  5
246
100
AcDbEntity
  8
NewInnerz
  6
ByLayer
 62
  256
370
   -1
100
AcDbCircle
 10
42.18941123618436
 20
20.79526681072977
 40
16.5
100
AcDbArc
 50
132.3373987454126
 51
156.6982243840106
  0
ARC
  5
247
100
AcDbEntity
  8
NewInnerz
  6
ByLayer
 62
  256
370
   -1
100
AcDbCircle
 10
24.00000027379858
 20
23.99999884049168
 40
4.499999303318557
100
AcDbArc
 50
42.4153143170035
 51
47.58469866067911
  0
ARC
  5
248
100
AcDbEntity
  8
NewInnerz
  6
ByLayer
 62
  256
370
   -1
100
AcDbCircle
 10
24.00000027379858
 20
23.99999884049168
 40
18.50000011738179
100
AcDbArc
 50
27.26317712173968
 51
62.73682657991548
  0
ARC
  5
249
100
AcDbEntity
  8
NewInnerz
  6
ByLayer
 62
  256
370
   -1
100
AcDbCircle
 10
14.24157209076983
 20
47.55892664709337
 40
16.49999999999999
100
AcDbArc
 50
312.3374002125054
 51
338.9060988728262
  0
ARC
  5
24A
100
AcDbEntity
  8
NewInnerz
  6
ByLayer
 62
  256
370
   -1
100
AcDbCircle
 10
8.872055616935452
 20
34.5957667522937
 40
16.50000000000003
100
AcDbArc
 50
338.3017760526988
 51
2.66260103851338
  0
ARC
  5
24B
100
AcDbEntity
  8
NewInnerz
  6
ByLayer
 62
  256
370
   -1
100
AcDbCircle
 10
33.75842697921217
 20
47.55892725914161
 40
16.49999999999998
100
AcDbArc
 50
201.0939026516437
 51
227.6626017185382
  0
ARC
  5
24C
100
AcDbEntity
  8
NewInnerz
  6
ByLayer
 62
  256
370
   -1
100
AcDbCircle
 10
39.12794386122086
 20
34.59576692765321
 40
16.5
100
AcDbArc
 50
177.3373987454126
 51
201.6982243840106
  0
ARC
  5
24D
100
AcDbEntity
  8
NewInnerz
  6
ByLayer
 62
  256
370
   -1
100
AcDbCircle
 10
24.00000027379858
 20
23.99999884049168
 40
4.499999303318557
100
AcDbArc
 50
87.41531431700349
 51
92.58469866067911
  0
ARC
  5
24E
100
AcDbEntity
  8
NewInnerz
  6
ByLayer
 62
  256
370
   -1
100
AcDbCircle
 10
24.00000027379858
 20
23.99999884049168
 40
18.50000011738179
100
AcDbArc
 50
72.26317712173967
 51
107.7368265799155
  0
ARC
  5
24F
100
AcDbEntity
  8
NewInnerz
  6
ByLayer
 62
  256
370
   -1
100
AcDbCircle
 10
0.4410719223246602
 20
33.7584257080825
 40
16.49999999999999
100
AcDbArc
 50
357.3374002125054
 51
23.90609887282627
  0
ARC
  5
250
100
AcDbEntity
  8
NewInnerz
  6
ByLayer
 62
  256
370
   -1
100
AcDbCircle
 10
5.810588679201835
 20
20.79526593052299
 40
16.50000000000003
100
AcDbArc
 50
23.30177605269876
 51
47.66260103851338
  0
ARC
  5
251
100
AcDbEntity
  8
NewInnerz
  6
ByLayer
 62
  256
370
   -1
100
AcDbCircle
 10
14.2415719285926
 20
47.55892657991735
 40
16.49999999999998
100
AcDbArc
 50
246.0939026516437
 51
272.6626017185382
  0
ARC
  5
252
100
AcDbEntity
  8
NewInnerz
  6
ByLayer
 62
  256
370
   -1
100
AcDbCircle
 10
27.20473230356049
 20
42.18940980287746
 40
16.5
100
AcDbArc
 50
222.3373987454126
 51
246.6982243840106
  0
ARC
  5
253
100
AcDbEntity
  8
NewInnerz
  6
ByLayer
 62
  256
370
   -1
100
AcDbCircle
 10
24.00000027379858
 20
23.99999884049168
 40
4.499999303318557
100
AcDbArc
 50
132.4153143170034
 51
137.5846986606791
  0
ARC
  5
254
100
AcDbEntity
  8
NewInnerz
  6
ByLayer
 62
  256
370
   -1
100
AcDbCircle
 10
24.00000027379858
 20
23.99999884049168
 40
18.50000011738179
100
AcDbArc
 50
117.2631771217397
 51
152.7368265799155
  0
ARC
  5
255
100
AcDbEntity
  8
NewInnerz
  6
ByLayer
 62
  256
370
   -1
100
AcDbCircle
 10
0.4410724671968964
 20
14.24157065746293
 40
16.49999999999999
100
AcDbArc
 50
42.33740021250544
 51
68.90609887282626
  0
ARC
  5
256
100
AcDbEntity
  8
NewInnerz
  6
ByLayer
 62
  256
370
   -1
100
AcDbCircle
 10
13.40423236199657
 20
8.872054183628551
 40
16.50000000000003
100
AcDbArc
 50
68.30177605269877
 51
92.66260103851337
  0
ARC
  5
257
100
AcDbEntity
  8
NewInnerz
  6
ByLayer
 62
  256
370
   -1
100
AcDbCircle
 10
0.4410718551486568
 20
33.75842554590527
 40
16.49999999999998
100
AcDbArc
 50
291.0939026516437
 51
317.6626017185382
  0
ARC
  5
258
100
AcDbEntity
  8
NewInnerz
  6
ByLayer
 62
  256
370
   -1
100
AcDbCircle
 10
13.40423218663705
 20
39.12794242791396
 40
16.5
100
AcDbArc
 50
267.3373987454126
 51
291.6982243840106
  0
ARC
  5
259
100
AcDbEntity
  8
NewInnerz
  6
ByLayer
 62
  256
370
   -1
100
AcDbCircle
 10
24.00000027379858
 20
23.99999884049168
 40
4.499999303318557
100
AcDbArc
 50
177.4153143170035
 51
182.5846986606791
  0
ARC
  5
25A
100
AcDbEntity
  8
NewInnerz
  6
ByLayer
 62
  256
370
   -1
100
AcDbCircle
 10
24.00000027379858
 20
23.99999884049168
 40
18.50000011738179
100
AcDbArc
 50
162.2631771217397
 51
197.7368265799155
  0
ARC
  5
25B
100
AcDbEntity
  8
NewInnerz
  6
ByLayer
 62
  256
370
   -1
100
AcDbCircle
 10
14.24157340620777
 20
0.4410704890177577
 40
16.49999999999999
100
AcDbArc
 50
87.33740021250544
 51
113.9060988728262
  0
ARC
  5
25C
100
AcDbEntity
  8
NewInnerz
  6
ByLayer
 62
  256
370
   -1
100
AcDbCircle
 10
27.20473318376727
 20
5.810587245894933
 40
16.50000000000003
100
AcDbArc
 50
113.3017760526988
 51
137.6626010385134
  0
ARC
  5
25D
100
AcDbEntity
  8
NewInnerz
  6
ByLayer
 62
  256
370
   -1
100
AcDbCircle
 10
0.4410725343729069
 20
14.2415704952857
 40
16.49999999999998
100
AcDbArc
 50
336.0939026516436
 51
2.662601718538209
  0
ARC
  5
25E
100
AcDbEntity
  8
NewInnerz
  6
ByLayer
 62
  256
370
   -1
100
AcDbCircle
 10
5.810589311412809
 20
27.2047308702536
 40
16.5
100
AcDbArc
 50
312.3373987454125
 51
336.6982243840106
  0
ARC
  5
25F
100
AcDbEntity
  8
NewInnerz
  6
ByLayer
 62
  256
370
   -1
100
AcDbCircle
 10
24.00000027379858
 20
23.99999884049168
 40
4.499999303318557
100
AcDbArc
 50
222.4153143170035
 51
227.5846986606791
  0
ARC
  5
260
100
AcDbEntity
  8
NewInnerz
  6
ByLayer
 62
  256
370
   -1
100
AcDbCircle
 10
24.00000027379858
 20
23.99999884049168
 40
18.50000011738179
100
AcDbArc
 50
207.2631771217397
 51
242.7368265799155
  0
ARC
  5
261
100
AcDbEntity
  8
NewInnerz
  6
ByLayer
 62
  256
370
   -1
100
AcDbCircle
 10
33.75842845682734
 20
0.4410710338899904
 40
16.49999999999999
100
AcDbArc
 50
132.3374002125054
 51
158.9060988728263
  0
ARC
  5
262
100
AcDbEntity
  8
NewInnerz
  6
ByLayer
 62
  256
370
   -1
100
AcDbCircle
 10
39.12794493066171
 20
13.40423092868966
 40
16.50000000000003
100
AcDbArc
 50
158.3017760526988
 51
182.6626010385133
  0
ARC
  5
263
100
AcDbEntity
  8
NewInnerz
  6
ByLayer
 62
  256
370
   -1
100
AcDbCircle
 10
14.241573568385
 20
0.4410704218417578
 40
16.49999999999998
100
AcDbArc
 50
21.09390265164372
 51
47.66260171853816
  0
ARC
  5
264
100
AcDbEntity
  8
NewInnerz
  6
ByLayer
 62
  256
370
   -1
100
AcDbCircle
 10
8.8720566863763
 20
13.40423075333015
 40
16.5
100
AcDbArc
 50
357.3373987454126
 51
21.69822438401058
  0
ARC
  5
265
100
AcDbEntity
  8
NewInnerz
  6
ByLayer
 62
  256
370
   -1
100
AcDbCircle
 10
24.00000027379858
 20
23.99999884049168
 40
4.499999303318557
100
AcDbArc
 50
267.4153143170035
 51
272.5846986606791
  0
ARC
  5
266
100
AcDbEntity
  8
NewInnerz
  6
ByLayer
 62
  256
370
   -1
100
AcDbCircle
 10
24.00000027379858
 20
23.99999884049168
 40
18.50000011738179
100
AcDbArc
 50
252.2631771217396
 51
287.7368265799155
  0
ARC
  5
267
100
AcDbEntity
  8
NewInnerz
  6
ByLayer
 62
  256
370
   -1
100
AcDbCircle
 10
47.55892862527251
 20
14.24157197290086
 40
16.49999999999999
100
AcDbArc
 50
177.3374002125054
 51
203.9060988728263
  0
ARC
  5
268
100
AcDbEntity
  8
NewInnerz
  6
ByLayer
 62
  256
370
   -1
100
AcDbCircle
 10
42.18941186839533
 20
27.20473175046037
 40
16.50000000000003
100
AcDbArc
 50
203.3017760526988
 51
227.6626010385134
  0
ARC
  5
269
100
AcDbEntity
  8
NewInnerz
  6
ByLayer
 62
  256
370
   -1
100
AcDbCircle
 10
33.75842861900456
 20
0.441071101066008
 40
16.49999999999998
100
AcDbArc
 50
66.09390265164366
 51
92.66260171853821
  0
ARC
  5
26A
100
AcDbEntity
  8
NewInnerz
  6
ByLayer
 62
  256
370
   -1
100
AcDbCircle
 10
20.79526824403667
 20
5.81058787810591
 40
16.5
100
AcDbArc
 50
42.33739874541256
 51
66.69822438401057
  0
ARC
  5
26B
100
AcDbEntity
  8
NewInnerz
  6
ByLayer
 62
  256
370
   -1
100
AcDbCircle
 10
24.00000027379858
 20
23.99999884049168
 40
4.499999303318557
100
AcDbArc
 50
312.4153143170034
 51
317.5846986606791
  0
ARC
  5
26C
100
AcDbEntity
  8
NewInnerz
  6
ByLayer
 62
  256
370
   -1
100
AcDbCircle
 10
24.00000027379858
 20
23.99999884049168
 40
18.50000011738179
100
AcDbArc
 50
297.2631771217397
 51
332.7368265799154
  0
CIRCLE
  5
26D
100
AcDbEntity
  8
Outline Curves
  6
ByLayer
 62
  256
370
   -1
100
AcDbCircle
 10
44.3253
 20
15.581
 40
2
  0
CIRCLE
  5
26E
100
AcDbEntity
  8
Outline Curves
  6
ByLayer
 62
  256
370
   -1
100
AcDbCircle
 10
44.3253
 20
32.419
 40
2
  0
CIRCLE
  5
26F
100
AcDbEntity
  8
Outline Curves
  6
ByLayer
 62
  256
370
   -1
100
AcDbCircle
 10
32.41903539157793
 20
44.32534967961318
 40
2
  0
CIRCLE
  5
270
100
AcDbEntity
  8
Outline Curves
  6
ByLayer
 62
  256
370
   -1
100
AcDbCircle
 10
15.58096436751378
 20
44.32534959284675
 40
2
  0
ARC
  5
271
100
AcDbEntity
  8
NewOuterz
  6
ByLayer
 62
  256
370
   -1
100
AcDbCircle
 10
15.58096436751378
 20
44.32534959284675
 40
2.000000147745389
100
AcDbArc
 50
5.485494049109351
 51
68.45136175833555
  0
ARC
  5
272
100
AcDbEntity
  8
NewOuterz
  6
ByLayer
 62
  256
370
   -1
100
AcDbCircle
 10
15.58096447225025
 20
44.32534963622973
 40
1.999999807454257
100
AcDbArc
 50
156.548612016441
 51
219.5145048305442
  0
ARC
  5
273
100
AcDbEntity
  8
NewOuterz
  6
ByLayer
 62
  256
370
   -1
100
AcDbCircle
 10
14.8155979067584
 20
46.17310898511955
 40
1.500000000000027
100
AcDbArc
 50
0.4756745953775617
 51
224.5243141141996
  0
ARC
  5
274
100
AcDbEntity
  8
NewOuterz
  6
ByLayer
 62
  256
370
   -1
100
AcDbCircle
 10
32.41903549631419
 20
44.32534963622974
 40
1.999999999999903
100
AcDbArc
 50
320.4854938593066
 51
23.45136409261838
  0
ARC
  5
275
100
AcDbEntity
  8
NewOuterz
  6
ByLayer
 62
  256
370
   -1
100
AcDbCircle
 10
33.18440241758414
 20
46.17310883775142
 40
1.499999999533728
100
AcDbArc
 50
315.4756740237005
 51
67.4999999999993
  0
ARC
  5
276
100
AcDbEntity
  8
NewOuterz
  6
ByLayer
 62
  256
370
   -1
100
AcDbCircle
 10
33.18405871571735
 20
46.17325100639518
 40
1.499999193229447
100
AcDbArc
 50
67.41639346954493
 51
179.5296309327152
  0
ARC
  5
277
100
AcDbEntity
  8
NewOuterz
  6
ByLayer
 62
  256
370
   -1
100
AcDbCircle
 10
32.41903539157793
 20
44.32534967961318
 40
2.000000000000149
100
AcDbArc
 50
111.5486096821673
 51
174.5145065413791
  0
ARC
  5
278
100
AcDbEntity
  8
NewOuterz
  6
ByLayer
 62
  256
370
   -1
100
AcDbCircle
 10
44.32534984075834
 20
32.41903509205936
 40
1.999940523949429
100
AcDbArc
 50
275.4856823994911
 51
338.4509877302988
  0
ARC
  5
279
100
AcDbEntity
  8
NewOuterz
  6
ByLayer
 62
  256
370
   -1
100
AcDbCircle
 10
46.17310904842034
 20
33.18440199850522
 40
1.499999706247146
100
AcDbArc
 50
270.4743032939
 51
134.5264605253054
  0
ARC
  5
27A
100
AcDbEntity
  8
NewOuterz
  6
ByLayer
 62
  256
370
   -1
100
AcDbCircle
 10
44.3253
 20
32.419
 40
2.000059623796218
100
AcDbArc
 50
66.54830752682959
 51
129.5127305921381
  0
ARC
  5
27B
100
AcDbEntity
  8
NewOuterz
  6
ByLayer
 62
  256
370
   -1
100
AcDbCircle
 10
24.00000027379858
 20
23.99999884049168
 40
21.50000000000003
100
AcDbArc
 50
27.60331642337032
 51
62.39670056350729
  0
ARC
  5
27C
100
AcDbEntity
  8
NewOuterz
  6
ByLayer
 62
  256
370
   -1
100
AcDbCircle
 10
23.99999974985338
 20
23.99999961546782
 40
21.50000001947702
100
AcDbArc
 50
72.60330167753818
 51
107.3966977206372
  0
LINE
  5
27D
100
AcDbEntity
  8
0
  6
ByLayer
 62
  256
370
   -1
100
AcDbLine
 10
13.8589
 20
46.635
 11
47.1762
 21
32.8345
  0
LINE
  5
27E
100
AcDbEntity
  8
0
  6
ByLayer
 62
  256
370
   -1
100
AcDbLine
 10
17.58723620505394
 20
0.6788408436152745
 11
35.95604095857824
 21
45.02505840415704
  0
CIRCLE
  5
27F
100
AcDbEntity
  8
0
  6
ByLayer
 62
  256
370
   -1
100
AcDbCircle
 10
33.28918526270334
 20
38.58669921428394
 40
16
  0
LINE
  5
280
100
AcDbEntity
  8
001
  6
ByLayer
 62
  256
370
   -1
100
AcDbLine
 10
18.5111
 20
47.7038
 11
36.8799
 21
3.35762
  0
LINE
  5
281
100
AcDbEntity
  8
001
  6
ByLayer
 62
  256
370
   -1
100
AcDbLine
 10
17.5872
 20
47.3211
 11
35.956
 21
2.97494
  0
LINE
  5
282
100
AcDbEntity
  8
001
  6
ByLayer
 62
  256
370
   -1
100
AcDbLine
 10
13.85888868325469
 20
1.364950553009327
 11
47.17624525634287
 21
15.16545166604001
  0
CIRCLE
  5
283
100
AcDbEntity
  8
001
  6
ByLayer
 62
  256
370
   -1
100
AcDbCircle
 10
33.28916779968623
 20
9.413235775895355
 40
16
  0
ARC
  5
284
100
AcDbEntity
  8
InnerCurvz
  6
ByLayer
 62
  256
370
   -1
100
AcDbCircle
 10
33.28916779968623
 20
9.413235775895355
 40
16
100
AcDbArc
 50
82.77763435228302
 51
107.6019740673079
  0
ARC
  5
285
100
AcDbEntity
  8
InnerCurvz
  6
ByLayer
 62
  256
370
   -1
100
AcDbCircle
 10
47.5589286924485
 20
14.2415721350781
 40
16.49999999999998
100
AcDbArc
 50
111.0939026516437
 51
137.9810267896666
  0
ARC
  5
286
100
AcDbEntity
  8
InnerCurvz
  6
ByLayer
 62
  256
370
   -1
100
AcDbCircle
 10
33.28918526270334
 20
38.58669921428394
 40
16.00000000000001
100
AcDbArc
 50
252.3979284938316
 51
277.22249439769
  0
ARC
  5
287
100
AcDbEntity
  8
InnerCurvz
  6
ByLayer
 62
  256
370
   -1
100
AcDbCircle
 10
47.55892835179277
 20
33.75842713593489
 40
16.50000029375314
100
AcDbArc
 50
222.0192516699424
 51
248.9060981340604
  0
ARC
  5
288
100
AcDbEntity
  8
InnerCurvz
  6
ByLayer
 62
  256
370
   -1
100
AcDbCircle
 10
24.00000072185732
 20
24.00000001808503
 40
4.499999326169947
100
AcDbArc
 50
351.5124317674639
 51
8.486836808739092
  0
ARC
  5
289
100
AcDbEntity
  8
InnerCurvz
  6
ByLayer
 62
  256
370
   -1
100
AcDbCircle
 10
24.00000027379858
 20
23.99999884049168
 40
18.50000011738179
100
AcDbArc
 50
342.2631766483331
 51
17.7368267703902
  0
ARC
  5
28A
100
AcDbEntity
  8
InnerCurvz
  6
ByLayer
 62
  256
370
   -1
100
AcDbCircle
 10
40.88283366538674
 20
20.25403313917091
 40
16
100
AcDbArc
 50
127.777634352283
 51
152.601974067308
  0
ARC
  5
28B
100
AcDbEntity
  8
InnerCurvz
  6
ByLayer
 62
  256
370
   -1
100
AcDbCircle
 10
47.55892897714186
 20
33.7584272137814
 40
16.49999999999998
100
AcDbArc
 50
156.0939026516437
 51
182.9810267896666
  0
ARC
  5
28C
100
AcDbEntity
  8
InnerCurvz
  6
ByLayer
 62
  256
370
   -1
100
AcDbCircle
 10
20.25409218562218
 20
40.8827993153711
 40
16.00000000000001
100
AcDbArc
 50
297.3979284938316
 51
322.22249439769
  0
ARC
  5
28D
100
AcDbEntity
  8
InnerCurvz
  6
ByLayer
 62
  256
370
   -1
100
AcDbCircle
 10
33.75842821772146
 20
47.55892749144184
 40
16.50000029375314
100
AcDbArc
 50
267.0192516699424
 51
293.9060981340604
  0
ARC
  5
28E
100
AcDbEntity
  8
InnerCurvz
  6
ByLayer
 62
  256
370
   -1
100
AcDbCircle
 10
24.00000072185732
 20
24.00000001808503
 40
4.499999326169947
100
AcDbArc
 50
36.51243176746392
 51
53.48683680873909
  0
ARC
  5
28F
100
AcDbEntity
  8
InnerCurvz
  6
ByLayer
 62
  256
370
   -1
100
AcDbCircle
 10
24.00000123771619
 20
23.99999886857541
 40
18.50000011738179
100
AcDbArc
 50
27.26317664833314
 51
62.7368267703902
  0
ARC
  5
290
100
AcDbEntity
  8
InnerCurvz
  6
ByLayer
 62
  256
370
   -1
100
AcDbCircle
 10
38.58676496404699
 20
33.28916709591394
 40
16
100
AcDbArc
 50
172.777634352283
 51
197.601974067308
  0
ARC
  5
291
100
AcDbEntity
  8
InnerCurvz
  6
ByLayer
 62
  256
370
   -1
100
AcDbCircle
 10
33.75842860486425
 20
47.55892798867621
 40
16.49999999999998
100
AcDbArc
 50
201.0939026516437
 51
227.9810267896666
  0
ARC
  5
292
100
AcDbEntity
  8
InnerCurvz
  6
ByLayer
 62
  256
370
   -1
100
AcDbCircle
 10
9.413301525658412
 20
33.28918455893105
 40
16.00000000000001
100
AcDbArc
 50
342.3979284938316
 51
7.222494397690041
  0
ARC
  5
293
100
AcDbEntity
  8
InnerCurvz
  6
ByLayer
 62
  256
370
   -1
100
AcDbCircle
 10
14.24157360400746
 20
47.55892764802048
 40
16.50000029375314
100
AcDbArc
 50
312.0192516699424
 51
338.9060981340604
  0
ARC
  5
294
100
AcDbEntity
  8
InnerCurvz
  6
ByLayer
 62
  256
370
   -1
100
AcDbCircle
 10
24.00000072185732
 20
24.00000001808503
 40
4.499999326169947
100
AcDbArc
 50
81.51243176746391
 51
98.4868368087391
  0
ARC
  5
295
100
AcDbEntity
  8
InnerCurvz
  6
ByLayer
 62
  256
370
   -1
100
AcDbCircle
 10
24.00000189945067
 20
23.99999957002629
 40
18.50000011738179
100
AcDbArc
 50
72.26317664833314
 51
107.7368267703902
  0
ARC
  5
296
100
AcDbEntity
  8
InnerCurvz
  6
ByLayer
 62
  256
370
   -1
100
AcDbCircle
 10
27.74596760077144
 20
40.88283296161445
 40
16
100
AcDbArc
 50
217.777634352283
 51
242.601974067308
  0
ARC
  5
297
100
AcDbEntity
  8
InnerCurvz
  6
ByLayer
 62
  256
370
   -1
100
AcDbCircle
 10
14.24157352616095
 20
47.55892827336956
 40
16.49999999999998
100
AcDbArc
 50
246.0939026516437
 51
272.9810267896667
  0
ARC
  5
298
100
AcDbEntity
  8
InnerCurvz
  6
ByLayer
 62
  256
370
   -1
100
AcDbCircle
 10
7.117201424571245
 20
20.25409148184988
 40
16.00000000000001
100
AcDbArc
 50
27.39792849383162
 51
52.22249439769004
  0
ARC
  5
299
100
AcDbEntity
  8
InnerCurvz
  6
ByLayer
 62
  256
370
   -1
100
AcDbCircle
 10
0.441073248500512
 20
33.75842751394917
 40
16.50000029375314
100
AcDbArc
 50
357.0192516699424
 51
23.90609813406036
  0
ARC
  5
29A
100
AcDbEntity
  8
InnerCurvz
  6
ByLayer
 62
  256
370
   -1
100
AcDbCircle
 10
24.00000072185732
 20
24.00000001808503
 40
4.499999326169947
100
AcDbArc
 50
126.512431767464
 51
143.4868368087391
  0
ARC
  5
29B
100
AcDbEntity
  8
InnerCurvz
  6
ByLayer
 62
  256
370
   -1
100
AcDbCircle
 10
24.00000187136694
 20
24.0000005339439
 40
18.50000011738179
100
AcDbArc
 50
117.2631766483331
 51
152.7368267703902
  0
ARC
  5
29C
100
AcDbEntity
  8
InnerCurvz
  6
ByLayer
 62
  256
370
   -1
100
AcDbCircle
 10
14.71083364402841
 20
38.58676426027471
 40
16
100
AcDbArc
 50
262.777634352283
 51
287.6019740673079
  0
ARC
  5
29D
100
AcDbEntity
  8
InnerCurvz
  6
ByLayer
 62
  256
370
   -1
100
AcDbCircle
 10
0.441072751266141
 20
33.75842790109196
 40
16.49999999999998
100
AcDbArc
 50
291.0939026516436
 51
317.9810267896666
  0
ARC
  5
29E
100
AcDbEntity
  8
InnerCurvz
  6
ByLayer
 62
  256
370
   -1
100
AcDbCircle
 10
14.7108161810113
 20
9.41330082188612
 40
16.00000000000001
100
AcDbArc
 50
72.39792849383163
 51
97.22249439769004
  0
ARC
  5
29F
100
AcDbEntity
  8
InnerCurvz
  6
ByLayer
 62
  256
370
   -1
100
AcDbCircle
 10
0.4410730919218722
 20
14.24157290023517
 40
16.50000029375314
100
AcDbArc
 50
42.01925166994242
 51
68.90609813406036
  0
ARC
  5
2A0
100
AcDbEntity
  8
InnerCurvz
  6
ByLayer
 62
  256
370
   -1
100
AcDbCircle
 10
24.00000072185732
 20
24.00000001808503
 40
4.499999326169947
100
AcDbArc
 50
171.5124317674639
 51
188.4868368087391
  0
ARC
  5
2A1
100
AcDbEntity
  8
InnerCurvz
  6
ByLayer
 62
  256
370
   -1
100
AcDbCircle
 10
24.00000116991606
 20
24.00000119567838
 40
18.50000011738179
100
AcDbArc
 50
162.2631766483331
 51
197.7368267703902
  0
ARC
  5
2A2
100
AcDbEntity
  8
InnerCurvz
  6
ByLayer
 62
  256
370
   -1
100
AcDbCircle
 10
7.117167778327904
 20
27.74596689699915
 40
16
100
AcDbArc
 50
307.777634352283
 51
332.6019740673079
  0
ARC
  5
2A3
100
AcDbEntity
  8
InnerCurvz
  6
ByLayer
 62
  256
370
   -1
100
AcDbCircle
 10
0.4410724665727841
 20
14.24157282238866
 40
16.49999999999998
100
AcDbArc
 50
336.0939026516436
 51
2.981026789666644
  0
ARC
  5
2A4
100
AcDbEntity
  8
InnerCurvz
  6
ByLayer
 62
  256
370
   -1
100
AcDbCircle
 10
27.74590925809247
 20
7.117200720798948
 40
16.00000000000001
100
AcDbArc
 50
117.3979284938316
 51
142.22249439769
  0
ARC
  5
2A5
100
AcDbEntity
  8
InnerCurvz
  6
ByLayer
 62
  256
370
   -1
100
AcDbCircle
 10
14.24157322599318
 20
0.4410725447282182
 40
16.50000029375314
100
AcDbArc
 50
87.01925166994242
 51
113.9060981340604
  0
ARC
  5
2A6
100
AcDbEntity
  8
InnerCurvz
  6
ByLayer
 62
  256
370
   -1
100
AcDbCircle
 10
24.00000072185732
 20
24.00000001808503
 40
4.499999326169947
100
AcDbArc
 50
216.5124317674639
 51
233.4868368087391
  0
ARC
  5
2A7
100
AcDbEntity
  8
InnerCurvz
  6
ByLayer
 62
  256
370
   -1
100
AcDbCircle
 10
24.00000020599845
 20
24.00000116759464
 40
18.50000011738179
100
AcDbArc
 50
207.2631766483332
 51
242.7368267703902
  0
ARC
  5
2A8
100
AcDbEntity
  8
InnerCurvz
  6
ByLayer
 62
  256
370
   -1
100
AcDbCircle
 10
9.413236479667647
 20
14.71083294025612
 40
16
100
AcDbArc
 50
352.777634352283
 51
17.60197406730796
  0
ARC
  5
2A9
100
AcDbEntity
  8
InnerCurvz
  6
ByLayer
 62
  256
370
   -1
100
AcDbCircle
 10
14.24157283885039
 20
0.4410720474938508
 40
16.49999999999998
100
AcDbArc
 50
21.09390265164367
 51
47.98102678966659
  0
ARC
  5
2AA
100
AcDbEntity
  8
InnerCurvz
  6
ByLayer
 62
  256
370
   -1
100
AcDbCircle
 10
38.58669991805623
 20
14.71081547723901
 40
16.00000000000001
100
AcDbArc
 50
162.3979284938316
 51
187.22249439769
  0
ARC
  5
2AB
100
AcDbEntity
  8
InnerCurvz
  6
ByLayer
 62
  256
370
   -1
100
AcDbCircle
 10
33.75842783970718
 20
0.4410723881495748
 40
16.50000029375314
100
AcDbArc
 50
132.0192516699424
 51
158.9060981340604
  0
ARC
  5
2AC
100
AcDbEntity
  8
InnerCurvz
  6
ByLayer
 62
  256
370
   -1
100
AcDbCircle
 10
24.00000072185732
 20
24.00000001808503
 40
4.499999326169947
100
AcDbArc
 50
261.5124317674639
 51
278.486836808739
  0
ARC
  5
2AD
100
AcDbEntity
  8
InnerCurvz
  6
ByLayer
 62
  256
370
   -1
100
AcDbCircle
 10
23.99999954426398
 20
24.00000046614377
 40
18.50000011738179
100
AcDbArc
 50
252.2631766483331
 51
287.7368267703902
  0
ARC
  5
2AE
100
AcDbEntity
  8
InnerCurvz
  6
ByLayer
 62
  256
370
   -1
100
AcDbCircle
 10
20.2540338429432
 20
7.117167074555613
 40
16
100
AcDbArc
 50
37.77763435228302
 51
62.60197406730796
  0
ARC
  5
2AF
100
AcDbEntity
  8
InnerCurvz
  6
ByLayer
 62
  256
370
   -1
100
AcDbCircle
 10
33.75842791755369
 20
0.4410717628004903
 40
16.49999999999998
100
AcDbArc
 50
66.09390265164366
 51
92.98102678966664
  0
ARC
  5
2B0
100
AcDbEntity
  8
InnerCurvz
  6
ByLayer
 62
  256
370
   -1
100
AcDbCircle
 10
40.8828000191434
 20
27.74590855432017
 40
16.00000000000001
100
AcDbArc
 50
207.3979284938316
 51
232.2224943976901
  0
ARC
  5
2B1
100
AcDbEntity
  8
InnerCurvz
  6
ByLayer
 62
  256
370
   -1
100
AcDbCircle
 10
47.55892819521414
 20
14.24157252222088
 40
16.50000029375314
100
AcDbArc
 50
177.0192516699424
 51
203.9060981340603
  0
ARC
  5
2B2
100
AcDbEntity
  8
InnerCurvz
  6
ByLayer
 62
  256
370
   -1
100
AcDbCircle
 10
24.00000072185732
 20
24.00000001808503
 40
4.499999326169947
100
AcDbArc
 50
306.512431767464
 51
323.4868368087391
  0
ARC
  5
2B3
100
AcDbEntity
  8
InnerCurvz
  6
ByLayer
 62
  256
370
   -1
100
AcDbCircle
 10
23.99999957234771
 20
23.99999950222616
 40
18.50000011738179
100
AcDbArc
 50
297.2631766483331
 51
332.7368267703902
  0
CIRCLE
  5
2B4
100
AcDbEntity
  8
Outline Curves
  6
ByLayer
 62
  256
370
   -1
100
AcDbCircle
 10
32.41903560105063
 20
3.674650249116088
 40
2
  0
CIRCLE
  5
2B5
100
AcDbEntity
  8
Outline Curves
  6
ByLayer
 62
  256
370
   -1
100
AcDbCircle
 10
3.674650225650439
 20
32.41903532827715
 40
2
  0
CIRCLE
  5
2B6
100
AcDbEntity
  8
Outline Curves
  6
ByLayer
 62
  256
370
   -1
100
AcDbCircle
 10
3.674650312416873
 20
15.58096430421299
 40
2
  0
CIRCLE
  5
2B7
100
AcDbEntity
  8
Outline Curves
  6
ByLayer
 62
  256
370
   -1
100
AcDbCircle
 10
15.58096457698648
 20
3.67465016234965
 40
2
  0
ARC
  5
2B8
100
AcDbEntity
  8
NewOuterz
  6
ByLayer
 62
  256
370
   -1
100
AcDbCircle
 10
24.00000123771619
 20
23.99999886857541
 40
21.50000109947201
100
AcDbArc
 50
117.603303705476
 51
152.3966975172994
  0
ARC
  5
2B9
100
AcDbEntity
  8
NewOuterz
  6
ByLayer
 62
  256
370
   -1
100
AcDbCircle
 10
3.674650225650439
 20
32.41903532827715
 40
1.999999759377437
100
AcDbArc
 50
50.48549010127107
 51
113.4513617583358
  0
ARC
  5
2BA
100
AcDbEntity
  8
NewOuterz
  6
ByLayer
 62
  256
370
   -1
100
AcDbCircle
 10
1.826499268471373
 20
33.18345539569957
 40
1.499999397858792
100
AcDbArc
 50
45.49034867895529
 51
269.5389825492196
  0
ARC
  5
2BB
100
AcDbEntity
  8
NewOuterz
  6
ByLayer
 62
  256
370
   -1
100
AcDbCircle
 10
3.674650269033921
 20
32.4190354330134
 40
2.000000000058368
100
AcDbArc
 50
201.5486120164406
 51
264.5144982712062
  0
ARC
  5
2BC
100
AcDbEntity
  8
NewOuterz
  6
ByLayer
 62
  256
370
   -1
100
AcDbCircle
 10
24.00000123771619
 20
23.99999886857541
 40
21.50000133027686
100
AcDbArc
 50
162.6033004932211
 51
197.3966946164408
  0
ARC
  5
2BD
100
AcDbEntity
  8
NewOuterz
  6
ByLayer
 62
  256
370
   -1
100
AcDbCircle
 10
3.674650312416873
 20
15.58096430421299
 40
1.999999852254163
100
AcDbArc
 50
95.48550804872069
 51
158.4513617583356
  0
ARC
  5
2BE
100
AcDbEntity
  8
NewOuterz
  6
ByLayer
 62
  256
370
   -1
100
AcDbCircle
 10
1.827198664542454
 20
14.8148556900034
 40
1.49999908670545
100
AcDbArc
 50
90.48717592859242
 51
314.5358059752161
  0
ARC
  5
2BF
100
AcDbEntity
  8
NewOuterz
  6
ByLayer
 62
  256
370
   -1
100
AcDbCircle
 10
3.674650312416873
 20
15.58096430421299
 40
1.999999852254163
100
AcDbArc
 50
246.5486096821673
 51
309.5144907057369
  0
ARC
  5
2C0
100
AcDbEntity
  8
NewOuterz
  6
ByLayer
 62
  256
370
   -1
100
AcDbCircle
 10
24.00000187136694
 20
24.0000005339439
 40
21.50000193777264
100
AcDbArc
 50
207.6033014517338
 51
242.3966944658511
  0
ARC
  5
2C1
100
AcDbEntity
  8
NewOuterz
  6
ByLayer
 62
  256
370
   -1
100
AcDbCircle
 10
15.58096457698648
 20
3.67465016234965
 40
2.000000147745381
100
AcDbArc
 50
140.4855199395275
 51
203.4513617583355
  0
ARC
  5
2C2
100
AcDbEntity
  8
NewOuterz
  6
ByLayer
 62
  256
370
   -1
100
AcDbCircle
 10
14.81559719520212
 20
1.826891151579549
 40
1.499998909440187
100
AcDbArc
 50
135.4756745953775
 51
359.5243029328349
  0
ARC
  5
2C3
100
AcDbEntity
  8
NewOuterz
  6
ByLayer
 62
  256
370
   -1
100
AcDbCircle
 10
15.58096447225026
 20
3.674650205733121
 40
2.000000147745603
100
AcDbArc
 50
291.548578314825
 51
354.5144842715952
  0
ARC
  5
2C4
100
AcDbEntity
  8
NewOuterz
  6
ByLayer
 62
  256
370
   -1
100
AcDbCircle
 10
24.00000123771619
 20
23.99999886857541
 40
21.49999932912946
100
AcDbArc
 50
252.6032985207075
 51
287.3966958019161
  0
ARC
  5
2C5
100
AcDbEntity
  8
NewOuterz
  6
ByLayer
 62
  256
370
   -1
100
AcDbCircle
 10
32.41903560105063
 20
3.674650249116088
 40
2.000000192545491
100
AcDbArc
 50
185.4855254423999
 51
248.4513617583356
  0
ARC
  5
2C6
100
AcDbEntity
  8
NewOuterz
  6
ByLayer
 62
  256
370
   -1
100
AcDbCircle
 10
33.18440216494217
 20
1.826890851072338
 40
1.49999942915557
100
AcDbArc
 50
180.4756682545361
 51
44.52430585242568
  0
ARC
  5
2C7
100
AcDbEntity
  8
NewOuterz
  6
ByLayer
 62
  256
370
   -1
100
AcDbCircle
 10
32.41903560105063
 20
3.674650249116088
 40
2.000000192545491
100
AcDbArc
 50
336.5485941886228
 51
39.51448598242943
  0
ARC
  5
2C8
100
AcDbEntity
  8
NewOuterz
  6
ByLayer
 62
  256
370
   -1
100
AcDbCircle
 10
24.00000027379858
 20
23.99999884049168
 40
21.49999926923588
100
AcDbArc
 50
297.6033030754441
 51
332.3966888133204
  0
ARC
  5
2C9
100
AcDbEntity
  8
NewOuterz
  6
ByLayer
 62
  256
370
   -1
100
AcDbCircle
 10
44.3253
 20
15.581
 40
2.000059684280737
100
AcDbArc
 50
230.4872819035464
 51
293.451657850322
  0
ARC
  5
2CA
100
AcDbEntity
  8
NewOuterz
  6
ByLayer
 62
  256
370
   -1
100
AcDbCircle
 10
46.17310875368408
 20
14.81559713190134
 40
1.499999999999929
100
AcDbArc
 50
225.4735114373076
 51
89.5256722512415
  0
ARC
  5
2CB
100
AcDbEntity
  8
NewOuterz
  6
ByLayer
 62
  256
370
   -1
100
AcDbCircle
 10
44.3253
 20
15.581
 40
2.000059777154754
100
AcDbArc
 50
21.54752583822485
 51
84.51279213920382
  0
ARC
  5
2CC
100
AcDbEntity
  8
NewOuterz
  6
ByLayer
 62
  256
370
   -1
100
AcDbCircle
 10
24.00000020599845
 20
24.00000116759464
 40
21.49999999269667
100
AcDbArc
 50
342.6033822055103
 51
17.396612010839
  0
ENDSEC
  0
SECTION
  2
OBJECTS
  0
DICTIONARY
  5
C
330
0
100
AcDbDictionary
281
    1
  3
ACAD_GROUP
350
D
  0
DICTIONARY
  5
D
330
C
100
AcDbDictionary
281
    1
  0
PLOTSETTINGS
  5
2CD
100
AcDbPlotSettings
  6
1x1
 40
0
 41
0
 42
0
 43
0
  0
ENDSEC
  0
EOF
