999
dxfrw 0.6.3
  0
SECTION
  2
HEADER
  9
$ACADVER
  1
AC1021
  9
$DWGCODEPAGE
  3
ANSI_1252
  9
$INSBASE
 10
0
 20
0
 30
0
  9
$EXTMIN
 10
0.326891032362786
 20
0.3268911335898526
 30
0
  9
$EXTMAX
 10
47.67316341097344
 20
47.67310898408115
 30
0
  9
$LIMMIN
 10
0
 20
0
  9
$LIMMAX
 10
420
 20
297
  9
$ORTHOMODE
 70
    0
  9
$REGENMODE
 70
    1
  9
$FILLMODE
 70
    1
  9
$QTEXTMODE
 70
    0
  9
$MIRRTEXT
 70
    0
  9
$LTSCALE
 40
1
  9
$ATTMODE
 70
    0
  9
$TEXTSIZE
 40
2.5
  9
$TRACEWID
 40
15.68
  9
$TEXTSTYLE
  7
STANDARD
  9
$CLAYER
  8
Outer Cut
  9
$CELTYPE
  6
BYLAYER
  9
$CECOLOR
 62
  256
  9
$CELTSCALE
 40
1
  9
$DISPSILH
 70
    0
  9
$DIMSCALE
 40
1
  9
$DIMASZ
 40
1
  9
$DIMEXO
 40
0.025
  9
$DIMDLI
 40
3.75
  9
$DIMRND
 40
0
  9
$DIMDLE
 40
0
  9
$DIMEXE
 40
0.05
  9
$DIMTP
 40
0
  9
$DIMTM
 40
0
  9
$DIMTXT
 40
2
  9
$DIMCEN
 40
2.5
  9
$DIMTSZ
 40
0
  9
$DIMTOL
 70
    0
  9
$DIMLIM
 70
    0
  9
$DIMTIH
 70
    0
  9
$DIMTOH
 70
    0
  9
$DIMSE1
 70
    0
  9
$DIMSE2
 70
    0
  9
$DIMTAD
 70
    1
  9
$DIMZIN
 70
    8
  9
$DIMBLK
  1

  9
$DIMASO
 70
    1
  9
$DIMSHO
 70
    1
  9
$DIMPOST
  1

  9
$DIMAPOST
  1

  9
$DIMALT
 70
    0
  9
$DIMALTD
 70
    3
  9
$DIMALTF
 40
0.03937
  9
$DIMLFAC
 40
1
  9
$DIMTOFL
 70
    1
  9
$DIMTVP
 40
0
  9
$DIMTIX
 70
    0
  9
$DIMSOXD
 70
    0
  9
$DIMSAH
 70
    0
  9
$DIMBLK1
  1

  9
$DIMBLK2
  1

  9
$DIMSTYLE
  2
STANDARD
  9
$DIMCLRD
 70
    0
  9
$DIMCLRE
 70
    0
  9
$DIMCLRT
 70
    0
  9
$DIMTFAC
 40
1
  9
$DIMGAP
 40
0.025
  9
$DIMJUST
 70
    0
  9
$DIMSD1
 70
    0
  9
$DIMSD2
 70
    0
  9
$DIMTOLJ
 70
    0
  9
$DIMTZIN
 70
    8
  9
$DIMALTZ
 70
    0
  9
$DIMALTTZ
 70
    0
  9
$DIMUPT
 70
    0
  9
$DIMDEC
 70
    4
  9
$DIMTDEC
 70
    2
  9
$DIMALTU
 70
    2
  9
$DIMALTTD
 70
    3
  9
$DIMTXSTY
  7
standard
  9
$DIMAUNIT
 70
    0
  9
$DIMADEC
 70
    2
  9
$DIMALTRND
 40
0
  9
$DIMAZIN
 70
    0
  9
$DIMDSEP
 70
    0
  9
$DIMATFIT
 70
    3
  9
$DIMFRAC
 70
    0
  9
$DIMLDRBLK
  1
STANDARD
  9
$DIMLUNIT
 70
    2
  9
$DIMLWD
 70
   -2
  9
$DIMLWE
 70
   -2
  9
$DIMTMOVE
 70
    0
  9
$DIMFXL
 40
0.04
  9
$DIMFXLON
 70
    0
  9
$DIMJOGANG
 40
0.7854
  9
$DIMTFILL
 70
    0
  9
$DIMTFILLCLR
 70
    0
  9
$DIMARCSYM
 70
    0
  9
$DIMLTYPE
  6

  9
$DIMLTEX1
  6

  9
$DIMLTEX2
  6

  9
$LUNITS
 70
    4
  9
$LUPREC
 70
    2
  9
$SKETCHINC
 40
1
  9
$FILLETRAD
 40
0
  9
$AUNITS
 70
    0
  9
$AUPREC
 70
    0
  9
$MENU
  1
.
  9
$ELEVATION
 40
0
  9
$PELEVATION
 40
0
  9
$THICKNESS
 40
0
  9
$LIMCHECK
 70
    0
  9
$CHAMFERA
 40
0
  9
$CHAMFERB
 40
0
  9
$CHAMFERC
 40
0
  9
$CHAMFERD
 40
0
  9
$SKPOLY
 70
    0
  9
$USRTIMER
 70
    1
  9
$ANGBASE
 50
0
  9
$ANGDIR
 70
    0
  9
$PDMODE
 70
   34
  9
$PDSIZE
 40
0
  9
$PLINEWID
 40
0
  9
$SPLFRAME
 70
    0
  9
$SPLINETYPE
 70
    2
  9
$SPLINESEGS
 70
    8
  9
$HANDSEED
  5
20000
  9
$SURFTAB1
 70
    6
  9
$SURFTAB2
 70
    6
  9
$SURFTYPE
 70
    6
  9
$SURFU
 70
    6
  9
$SURFV
 70
    6
  9
$UCSBASE
  2

  9
$UCSNAME
  2

  9
$UCSORG
 10
0
 20
0
 30
0
  9
$UCSXDIR
 10
1
 20
0
 30
0
  9
$UCSYDIR
 10
0
 20
1
 30
0
  9
$UCSORTHOREF
  2

  9
$UCSORTHOVIEW
 70
    0
  9
$UCSORGTOP
 10
0
 20
0
 30
0
  9
$UCSORGBOTTOM
 10
0
 20
0
 30
0
  9
$UCSORGLEFT
 10
0
 20
0
 30
0
  9
$UCSORGRIGHT
 10
0
 20
0
 30
0
  9
$UCSORGFRONT
 10
0
 20
0
 30
0
  9
$UCSORGBACK
 10
0
 20
0
 30
0
  9
$PUCSBASE
  2

  9
$PUCSNAME
  2

  9
$PUCSORG
 10
0
 20
0
 30
0
  9
$PUCSXDIR
 10
1
 20
0
 30
0
  9
$PUCSYDIR
 10
0
 20
1
 30
0
  9
$PUCSORTHOREF
  2

  9
$PUCSORTHOVIEW
 70
    0
  9
$PUCSORGTOP
 10
0
 20
0
 30
0
  9
$PUCSORGBOTTOM
 10
0
 20
0
 30
0
  9
$PUCSORGLEFT
 10
0
 20
0
 30
0
  9
$PUCSORGRIGHT
 10
0
 20
0
 30
0
  9
$PUCSORGFRONT
 10
0
 20
0
 30
0
  9
$PUCSORGBACK
 10
0
 20
0
 30
0
  9
$USERI1
 70
    0
  9
$USERI2
 70
    0
  9
$USERI3
 70
    0
  9
$USERI4
 70
    0
  9
$USERI5
 70
    0
  9
$USERR1
 40
0
  9
$USERR2
 40
0
  9
$USERR3
 40
0
  9
$USERR4
 40
0
  9
$USERR5
 40
0
  9
$WORLDVIEW
 70
    1
  9
$SHADEDGE
 70
    3
  9
$SHADEDIF
 70
   70
  9
$TILEMODE
 70
    1
  9
$MAXACTVP
 70
   64
  9
$PINSBASE
 10
0
 20
0
 30
0
  9
$PLIMCHECK
 70
    0
  9
$PEXTMIN
 10
0
 20
0
 30
0
  9
$PEXTMAX
 10
0
 20
0
 30
0
  9
$GRIDMODE
 70
    1
  9
$SNAPSTYLE
 70
    0
  9
$GRIDUNIT
 10
1
 20
1
  9
$PLIMMIN
 10
0
 20
0
  9
$PLIMMAX
 10
19.68503937007874
 20
13.89763779527559
  9
$UNITMODE
 70
    0
  9
$VISRETAIN
 70
    1
  9
$PLINEGEN
 70
    0
  9
$PSLTSCALE
 70
    1
  9
$TREEDEPTH
 70
 3020
  9
$CMLSTYLE
  2
Standard
  9
$CMLJUST
 70
    0
  9
$CMLSCALE
 40
20
  9
$PROXYGRAPHICS
 70
    1
  9
$MEASUREMENT
 70
    1
  9
$CELWEIGHT
370
   -1
  9
$ENDCAPS
280
    0
  9
$JOINSTYLE
280
    0
  9
$LWDISPLAY
290
    0
  9
$INSUNITS
 70
    1
  9
$HYPERLINKBASE
  1

  9
$STYLESHEET
  1

  9
$XEDIT
290
    1
  9
$CEPSNTYPE
380
    0
  9
$PSTYLEMODE
290
    1
  9
$EXTNAMES
290
    1
  9
$PSVPSCALE
 40
1
  9
$OLESTARTUP
290
    0
  9
$SORTENTS
280
  127
  9
$INDEXCTL
280
    0
  9
$HIDETEXT
280
    1
  9
$XCLIPFRAME
290
    0
  9
$HALOGAP
280
    0
  9
$OBSCOLOR
 70
  257
  9
$OBSLTYPE
280
    0
  9
$INTERSECTIONDISPLAY
280
    0
  9
$INTERSECTIONCOLOR
 70
  257
  9
$DIMASSOC
280
    1
  9
$PROJECTNAME
  1

  9
$CAMERADISPLAY
290
    0
  9
$LENSLENGTH
 40
50
  9
$CAMERAHEIGHT
 40
0
  9
$STEPSPERSEC
 40
2
  9
$STEPSIZE
 40
50
  9
$3DDWFPREC
 40
2
  9
$PSOLWIDTH
 40
5
  9
$PSOLHEIGHT
 40
80
  9
$LOFTANG1
 40
1.570796326794897
  9
$LOFTANG2
 40
1.570796326794897
  9
$LOFTMAG1
 40
0
  9
$LOFTMAG2
 40
0
  9
$LOFTPARAM
 70
    7
  9
$LOFTNORMALS
280
    1
  9
$LATITUDE
 40
1
  9
$LONGITUDE
 40
1
  9
$NORTHDIRECTION
 40
0
  9
$TIMEZONE
 70
-8000
  9
$LIGHTGLYPHDISPLAY
280
    1
  9
$TILEMODELIGHTSYNCH
280
    1
  9
$SOLIDHIST
280
    1
  9
$SHOWHIST
280
    1
  9
$DWFFRAME
280
    2
  9
$DGNFRAME
280
    0
  9
$REALWORLDSCALE
290
    1
  9
$INTERFERECOLOR
 62
    1
  9
$CSHADOW
280
    0
  9
$SHADOWPLANELOCATION
 40
0
  0
ENDSEC
  0
SECTION
  2
CLASSES
  0
ENDSEC
  0
SECTION
  2
TABLES
  0
TABLE
  2
VPORT
  5
8
330
0
100
AcDbSymbolTable
 70
    1
  0
VPORT
  5
31
330
2
100
AcDbSymbolTableRecord
100
AcDbViewportTableRecord
  2
*ACTIVE
 70
    0
 10
0
 20
0
 11
1
 21
1
 12
23.02777672292274
 22
18.31110753693758
 13
0
 23
0
 14
10
 24
10
 15
1
 25
1
 16
0
 26
0
 36
1
 17
0
 27
0
 37
0
 40
15.89608220853652
 41
2.714693295292439
 42
50
 43
0
 44
0
 50
0
 51
0
 71
    0
 72
  100
 73
    1
 74
    3
 75
    0
 76
    1
 77
    0
 78
    0
281
    0
 65
    1
110
0
120
0
130
0
111
1
121
0
131
0
112
0
122
1
132
0
 79
    0
146
0
348
10020
 60
    3
 61
    5
292
1
282
    1
141
0
142
0
 63
  250
421
3358443
  0
ENDTAB
  0
TABLE
  2
LTYPE
  5
5
330
0
100
AcDbSymbolTable
 70
    4
  0
LTYPE
  5
14
330
5
100
AcDbSymbolTableRecord
100
AcDbLinetypeTableRecord
  2
ByBlock
 70
    0
  3

 72
   65
 73
    0
 40
0
  0
LTYPE
  5
15
330
5
100
AcDbSymbolTableRecord
100
AcDbLinetypeTableRecord
  2
ByLayer
 70
    0
  3

 72
   65
 73
    0
 40
0
  0
LTYPE
  5
16
330
5
100
AcDbSymbolTableRecord
100
AcDbLinetypeTableRecord
  2
Continuous
 70
    0
  3
Solid line
 72
   65
 73
    0
 40
0
  0
LTYPE
  5
32
330
5
100
AcDbSymbolTableRecord
100
AcDbLinetypeTableRecord
  2
DOT
 70
    0
  3
Dot . . . . . . . . . . . . . . . . . . . . . .
 72
   65
 73
    2
 40
6.35
 49
0
 74
    0
 49
-6.35
 74
    0
  0
LTYPE
  5
33
330
5
100
AcDbSymbolTableRecord
100
AcDbLinetypeTableRecord
  2
DOTTINY
 70
    0
  3
Dot (.15x) .....................................
 72
   65
 73
    2
 40
0.9525
 49
0
 74
    0
 49
-0.9525
 74
    0
  0
LTYPE
  5
34
330
5
100
AcDbSymbolTableRecord
100
AcDbLinetypeTableRecord
  2
DOT2
 70
    0
  3
Dot (.5x) .....................................
 72
   65
 73
    2
 40
3.175
 49
0
 74
    0
 49
-3.175
 74
    0
  0
LTYPE
  5
35
330
5
100
AcDbSymbolTableRecord
100
AcDbLinetypeTableRecord
  2
DOTX2
 70
    0
  3
Dot (2x) .  .  .  .  .  .  .  .  .  .  .  .  .
 72
   65
 73
    2
 40
12.7
 49
0
 74
    0
 49
-12.7
 74
    0
  0
LTYPE
  5
36
330
5
100
AcDbSymbolTableRecord
100
AcDbLinetypeTableRecord
  2
DASHED
 70
    0
  3
Dashed _ _ _ _ _ _ _ _ _ _ _ _ _ _ _ _ _
 72
   65
 73
    2
 40
19.05
 49
12.7
 74
    0
 49
-6.35
 74
    0
  0
LTYPE
  5
37
330
5
100
AcDbSymbolTableRecord
100
AcDbLinetypeTableRecord
  2
DASHEDTINY
 70
    0
  3
Dashed (.15x) _ _ _ _ _ _ _ _ _ _ _ _ _ _ _ _ _
 72
   65
 73
    2
 40
2.8575
 49
1.905
 74
    0
 49
-0.9525
 74
    0
  0
LTYPE
  5
38
330
5
100
AcDbSymbolTableRecord
100
AcDbLinetypeTableRecord
  2
DASHED2
 70
    0
  3
Dashed (.5x) _ _ _ _ _ _ _ _ _ _ _ _ _ _ _ _ _
 72
   65
 73
    2
 40
9.524999999999999
 49
6.35
 74
    0
 49
-3.175
 74
    0
  0
LTYPE
  5
39
330
5
100
AcDbSymbolTableRecord
100
AcDbLinetypeTableRecord
  2
DASHEDX2
 70
    0
  3
Dashed (2x) ____  ____  ____  ____  ____  ___
 72
   65
 73
    2
 40
38.09999999999999
 49
25.4
 74
    0
 49
-12.7
 74
    0
  0
LTYPE
  5
3A
330
5
100
AcDbSymbolTableRecord
100
AcDbLinetypeTableRecord
  2
DASHDOT
 70
    0
  3
Dash dot __ . __ . __ . __ . __ . __ . __ . __
 72
   65
 73
    4
 40
25.4
 49
12.7
 74
    0
 49
-6.35
 74
    0
 49
0
 74
    0
 49
-6.35
 74
    0
  0
LTYPE
  5
3B
330
5
100
AcDbSymbolTableRecord
100
AcDbLinetypeTableRecord
  2
DASHDOTTINY
 70
    0
  3
Dash dot (.15x) _._._._._._._._._._._._._._._.
 72
   65
 73
    4
 40
3.81
 49
1.905
 74
    0
 49
-0.9525
 74
    0
 49
0
 74
    0
 49
-0.9525
 74
    0
  0
LTYPE
  5
3C
330
5
100
AcDbSymbolTableRecord
100
AcDbLinetypeTableRecord
  2
DASHDOT2
 70
    0
  3
Dash dot (.5x) _._._._._._._._._._._._._._._.
 72
   65
 73
    4
 40
12.7
 49
6.35
 74
    0
 49
-3.175
 74
    0
 49
0
 74
    0
 49
-3.175
 74
    0
  0
LTYPE
  5
3D
330
5
100
AcDbSymbolTableRecord
100
AcDbLinetypeTableRecord
  2
DASHDOTX2
 70
    0
  3
Dash dot (2x) ____  .  ____  .  ____  .  ___
 72
   65
 73
    4
 40
50.8
 49
25.4
 74
    0
 49
-12.7
 74
    0
 49
0
 74
    0
 49
-12.7
 74
    0
  0
LTYPE
  5
3E
330
5
100
AcDbSymbolTableRecord
100
AcDbLinetypeTableRecord
  2
DIVIDE
 70
    0
  3
Divide ____ . . ____ . . ____ . . ____ . . ____
 72
   65
 73
    6
 40
31.75
 49
12.7
 74
    0
 49
-6.35
 74
    0
 49
0
 74
    0
 49
-6.35
 74
    0
 49
0
 74
    0
 49
-6.35
 74
    0
  0
LTYPE
  5
3F
330
5
100
AcDbSymbolTableRecord
100
AcDbLinetypeTableRecord
  2
DIVIDETINY
 70
    0
  3
Divide (.15x) __..__..__..__..__..__..__..__.._
 72
   65
 73
    6
 40
4.7625
 49
1.905
 74
    0
 49
-0.9525
 74
    0
 49
0
 74
    0
 49
-0.9525
 74
    0
 49
0
 74
    0
 49
-0.9525
 74
    0
  0
LTYPE
  5
40
330
5
100
AcDbSymbolTableRecord
100
AcDbLinetypeTableRecord
  2
DIVIDE2
 70
    0
  3
Divide (.5x) __..__..__..__..__..__..__..__.._
 72
   65
 73
    6
 40
15.875
 49
6.35
 74
    0
 49
-3.175
 74
    0
 49
0
 74
    0
 49
-3.175
 74
    0
 49
0
 74
    0
 49
-3.175
 74
    0
  0
LTYPE
  5
41
330
5
100
AcDbSymbolTableRecord
100
AcDbLinetypeTableRecord
  2
DIVIDEX2
 70
    0
  3
Divide (2x) ________  .  .  ________  .  .  _
 72
   65
 73
    6
 40
63.5
 49
25.4
 74
    0
 49
-12.7
 74
    0
 49
0
 74
    0
 49
-12.7
 74
    0
 49
0
 74
    0
 49
-12.7
 74
    0
  0
LTYPE
  5
42
330
5
100
AcDbSymbolTableRecord
100
AcDbLinetypeTableRecord
  2
BORDER
 70
    0
  3
Border __ __ . __ __ . __ __ . __ __ . __ __ .
 72
   65
 73
    6
 40
44.45
 49
12.7
 74
    0
 49
-6.35
 74
    0
 49
12.7
 74
    0
 49
-6.35
 74
    0
 49
0
 74
    0
 49
-6.35
 74
    0
  0
LTYPE
  5
43
330
5
100
AcDbSymbolTableRecord
100
AcDbLinetypeTableRecord
  2
BORDERTINY
 70
    0
  3
Border (.15x) __.__.__.__.__.__.__.__.__.__.__.
 72
   65
 73
    6
 40
6.6675
 49
1.905
 74
    0
 49
-0.9525
 74
    0
 49
1.905
 74
    0
 49
-0.9525
 74
    0
 49
0
 74
    0
 49
-0.9525
 74
    0
  0
LTYPE
  5
44
330
5
100
AcDbSymbolTableRecord
100
AcDbLinetypeTableRecord
  2
BORDER2
 70
    0
  3
Border (.5x) __.__.__.__.__.__.__.__.__.__.__.
 72
   65
 73
    6
 40
22.225
 49
6.35
 74
    0
 49
-3.175
 74
    0
 49
6.35
 74
    0
 49
-3.175
 74
    0
 49
0
 74
    0
 49
-3.175
 74
    0
  0
LTYPE
  5
45
330
5
100
AcDbSymbolTableRecord
100
AcDbLinetypeTableRecord
  2
BORDERX2
 70
    0
  3
Border (2x) ____  ____  .  ____  ____  .  ___
 72
   65
 73
    6
 40
88.89999999999999
 49
25.4
 74
    0
 49
-12.7
 74
    0
 49
25.4
 74
    0
 49
-12.7
 74
    0
 49
0
 74
    0
 49
-12.7
 74
    0
  0
LTYPE
  5
46
330
5
100
AcDbSymbolTableRecord
100
AcDbLinetypeTableRecord
  2
CENTER
 70
    0
  3
Center ____ _ ____ _ ____ _ ____ _ ____ _ ____
 72
   65
 73
    4
 40
50.8
 49
31.75
 74
    0
 49
-6.35
 74
    0
 49
6.35
 74
    0
 49
-6.35
 74
    0
  0
LTYPE
  5
47
330
5
100
AcDbSymbolTableRecord
100
AcDbLinetypeTableRecord
  2
CENTERTINY
 70
    0
  3
Center (.15x) ___ _ ___ _ ___ _ ___ _ ___ _ ___
 72
   65
 73
    4
 40
7.619999999999999
 49
4.7625
 74
    0
 49
-0.9525
 74
    0
 49
0.9525
 74
    0
 49
-0.9525
 74
    0
  0
LTYPE
  5
48
330
5
100
AcDbSymbolTableRecord
100
AcDbLinetypeTableRecord
  2
CENTER2
 70
    0
  3
Center (.5x) ___ _ ___ _ ___ _ ___ _ ___ _ ___
 72
   65
 73
    4
 40
28.575
 49
19.05
 74
    0
 49
-3.175
 74
    0
 49
3.175
 74
    0
 49
-3.175
 74
    0
  0
LTYPE
  5
49
330
5
100
AcDbSymbolTableRecord
100
AcDbLinetypeTableRecord
  2
CENTERX2
 70
    0
  3
Center (2x) ________  __  ________  __  _____
 72
   65
 73
    4
 40
101.6
 49
63.5
 74
    0
 49
-12.7
 74
    0
 49
12.7
 74
    0
 49
-12.7
 74
    0
  0
ENDTAB
  0
TABLE
  2
LAYER
  5
2
330
0
100
AcDbSymbolTable
 70
    1
  0
LAYER
  5
10
330
2
100
AcDbSymbolTableRecord
100
AcDbLayerTableRecord
  2
0
 70
    1
 62
  254
420
13684944
  6
CONTINUOUS
370
    0
390
F
  0
LAYER
  5
4A
330
2
100
AcDbSymbolTableRecord
100
AcDbLayerTableRecord
  2
Holes
 70
    0
 62
    7
  6
CONTINUOUS
370
    0
390
F
  0
LAYER
  5
4B
330
2
100
AcDbSymbolTableRecord
100
AcDbLayerTableRecord
  2
Inner Cuts
 70
    0
 62
    7
  6
CONTINUOUS
370
    0
390
F
  0
LAYER
  5
4C
330
2
100
AcDbSymbolTableRecord
100
AcDbLayerTableRecord
  2
Outer Cut
 70
    0
 62
    7
  6
CONTINUOUS
370
    0
390
F
  0
ENDTAB
  0
TABLE
  2
STYLE
  5
3
330
0
100
AcDbSymbolTable
 70
    3
  0
STYLE
  5
4D
330
2
100
AcDbSymbolTableRecord
100
AcDbTextStyleTableRecord
  2
Standard
 70
    0
 40
0
 41
1
 50
0
 71
    0
 42
1
  3
txt
  4

  0
ENDTAB
  0
TABLE
  2
VIEW
  5
6
330
0
100
AcDbSymbolTable
 70
    0
  0
ENDTAB
  0
TABLE
  2
UCS
  5
7
330
0
100
AcDbSymbolTable
 70
    0
  0
ENDTAB
  0
TABLE
  2
APPID
  5
9
330
0
100
AcDbSymbolTable
 70
    1
  0
APPID
  5
12
330
9
100
AcDbSymbolTableRecord
100
AcDbRegAppTableRecord
  2
ACAD
 70
    0
  0
APPID
  5
4E
330
9
100
AcDbSymbolTableRecord
100
AcDbRegAppTableRecord
  2
LibreCad
 70
    0
  0
ENDTAB
  0
TABLE
  2
DIMSTYLE
  5
A
330
0
100
AcDbSymbolTable
 70
    1
100
AcDbDimStyleTable
 71
    1
  0
DIMSTYLE
105
4F
330
A
100
AcDbSymbolTableRecord
100
AcDbDimStyleTableRecord
  2
Standard
 70
    0
 40
1
 41
1
 42
0.025
 43
0.38
 44
0.05
 45
0
 46
0
 47
0
 48
0
 49
0.04
140
2
141
0.09
142
0
143
25.4
144
1
145
0
146
1
147
0.025
148
0
 71
    0
 72
    0
 73
    0
 74
    1
 75
    0
 76
    0
 77
    0
 78
    8
 79
    0
170
    0
171
    2
172
    0
173
    0
174
    0
175
    0
176
    0
177
    0
178
    0
179
    2
271
    4
272
    4
273
    2
274
    2
275
    0
276
    0
277
    2
278
    0
279
    0
280
    0
281
    0
282
    0
283
    1
284
    0
285
    0
286
    0
288
    0
289
    3
340
standard
341

371
   -2
372
   -2
  0
ENDTAB
  0
TABLE
  2
BLOCK_RECORD
  5
1
330
0
100
AcDbSymbolTable
 70
    2
  0
BLOCK_RECORD
  5
1F
330
1
100
AcDbSymbolTableRecord
100
AcDbBlockTableRecord
  2
*Model_Space
 70
    0
280
    1
281
    0
  0
BLOCK_RECORD
  5
1E
330
1
100
AcDbSymbolTableRecord
100
AcDbBlockTableRecord
  2
*Paper_Space
 70
    0
280
    1
281
    0
  0
ENDTAB
  0
ENDSEC
  0
SECTION
  2
BLOCKS
  0
BLOCK
  5
20
330
1F
100
AcDbEntity
  8
0
100
AcDbBlockBegin
  2
*Model_Space
 70
    0
 10
0
 20
0
 30
0
  3
*Model_Space
  1

  0
ENDBLK
  5
21
330
1F
100
AcDbEntity
  8
0
100
AcDbBlockEnd
  0
BLOCK
  5
1C
330
1B
100
AcDbEntity
  8
0
100
AcDbBlockBegin
  2
*Paper_Space
 70
    0
 10
0
 20
0
 30
0
  3
*Paper_Space
  1

  0
ENDBLK
  5
1D
330
1F
100
AcDbEntity
  8
0
100
AcDbBlockEnd
  0
ENDSEC
  0
SECTION
  2
ENTITIES
  0
CIRCLE
  5
50
100
AcDbEntity
  8
Holes
  6
ByLayer
 62
  256
370
   -1
100
AcDbCircle
 10
44.32534965614754
 20
32.41903553774985
 40
0.47
  0
CIRCLE
  5
51
100
AcDbEntity
  8
Holes
  6
ByLayer
 62
  256
370
   -1
100
AcDbCircle
 10
42.47759063450814
 20
31.65366856828302
 40
0.47
  0
CIRCLE
  5
52
100
AcDbEntity
  8
Holes
  6
ByLayer
 62
  256
370
   -1
100
AcDbCircle
 10
40.62983156948561
 20
30.88830170355287
 40
0.47
  0
CIRCLE
  5
53
100
AcDbEntity
  8
Holes
  6
ByLayer
 62
  256
370
   -1
100
AcDbCircle
 10
38.782072504463
 20
30.12293483882267
 40
0.47
  0
CIRCLE
  5
54
100
AcDbEntity
  8
Holes
  6
ByLayer
 62
  256
370
   -1
100
AcDbCircle
 10
36.93431353486042
 20
29.35756774372862
 40
0.47
  0
CIRCLE
  5
55
100
AcDbEntity
  8
Holes
  6
ByLayer
 62
  256
370
   -1
100
AcDbCircle
 10
35.08655446052276
 20
28.59220090148708
 40
0.47
  0
CIRCLE
  5
56
100
AcDbEntity
  8
Holes
  6
ByLayer
 62
  256
370
   -1
100
AcDbCircle
 10
33.23879530939544
 20
27.8268342446322
 40
0.47
  0
CIRCLE
  5
57
100
AcDbEntity
  8
Holes
  6
ByLayer
 62
  256
370
   -1
100
AcDbCircle
 10
31.39103624437281
 20
27.06146737990199
 40
0.47
  0
CIRCLE
  5
58
100
AcDbEntity
  8
Holes
  6
ByLayer
 62
  256
370
   -1
100
AcDbCircle
 10
29.54327717935039
 20
26.29610051517189
 40
0.47
  0
CIRCLE
  5
59
100
AcDbEntity
  8
Holes
  6
ByLayer
 62
  256
370
   -1
100
AcDbCircle
 10
27.69551811432786
 20
25.53073365044172
 40
0.47
  0
CIRCLE
  5
5A
100
AcDbEntity
  8
Holes
  6
ByLayer
 62
  256
370
   -1
100
AcDbCircle
 10
25.84775904930513
 20
24.76536678571148
 40
0.47
  0
CIRCLE
  5
5B
100
AcDbEntity
  8
Holes
  6
ByLayer
 62
  256
370
   -1
100
AcDbCircle
 10
36.17522856445664
 20
39.86706672680614
 40
0.47
  0
CIRCLE
  5
5C
100
AcDbEntity
  8
Holes
  6
ByLayer
 62
  256
370
   -1
100
AcDbCircle
 10
33.99999998428223
 20
41.3205079966702
 40
0.47
  0
CIRCLE
  5
5D
100
AcDbEntity
  8
Holes
  6
ByLayer
 62
  256
370
   -1
100
AcDbCircle
 10
38.14213560801318
 20
38.14213554471238
 40
0.47
  0
CIRCLE
  5
5E
100
AcDbEntity
  8
Holes
  6
ByLayer
 62
  256
370
   -1
100
AcDbCircle
 10
39.86706679010693
 20
36.17522850115585
 40
0.47
  0
CIRCLE
  5
5F
100
AcDbEntity
  8
Holes
  6
ByLayer
 62
  256
370
   -1
100
AcDbCircle
 10
41.320508059971
 20
33.99999992098144
 40
0.47
  0
CIRCLE
  5
60
100
AcDbEntity
  8
Holes
  6
ByLayer
 62
  256
370
   -1
100
AcDbCircle
 10
46.1731089010522
 20
33.18440235428336
 40
0.47
  0
CIRCLE
  5
61
100
AcDbEntity
  8
Holes
  6
ByLayer
 62
  256
370
   -1
100
AcDbCircle
 10
32.41903539157793
 20
44.32534967961318
 40
0.47
  0
CIRCLE
  5
62
100
AcDbEntity
  8
Holes
  6
ByLayer
 62
  256
370
   -1
100
AcDbCircle
 10
31.65366863158428
 20
42.47759057120716
 40
0.47
  0
CIRCLE
  5
63
100
AcDbEntity
  8
Holes
  6
ByLayer
 62
  256
370
   -1
100
AcDbCircle
 10
30.88830176685411
 20
40.62983150618464
 40
0.47
  0
CIRCLE
  5
64
100
AcDbEntity
  8
Holes
  6
ByLayer
 62
  256
370
   -1
100
AcDbCircle
 10
30.12293490212392
 20
38.78207244116202
 40
0.47
  0
CIRCLE
  5
65
100
AcDbEntity
  8
Holes
  6
ByLayer
 62
  256
370
   -1
100
AcDbCircle
 10
29.35756826775772
 20
36.93431328071972
 40
0.47
  0
CIRCLE
  5
66
100
AcDbEntity
  8
Holes
  6
ByLayer
 62
  256
370
   -1
100
AcDbCircle
 10
28.59220138053891
 20
35.08655422501225
 40
0.47
  0
CIRCLE
  5
67
100
AcDbEntity
  8
Holes
  6
ByLayer
 62
  256
370
   -1
100
AcDbCircle
 10
27.82683430793345
 20
33.23879524609447
 40
0.47
  0
CIRCLE
  5
68
100
AcDbEntity
  8
Holes
  6
ByLayer
 62
  256
370
   -1
100
AcDbCircle
 10
27.06146744320325
 20
31.39103618107183
 40
0.47
  0
CIRCLE
  5
69
100
AcDbEntity
  8
Holes
  6
ByLayer
 62
  256
370
   -1
100
AcDbCircle
 10
26.29610057847312
 20
29.54327711604942
 40
0.47
  0
CIRCLE
  5
6A
100
AcDbEntity
  8
Holes
  6
ByLayer
 62
  256
370
   -1
100
AcDbCircle
 10
25.53073371374296
 20
27.69551805102689
 40
0.47
  0
CIRCLE
  5
6B
100
AcDbEntity
  8
Holes
  6
ByLayer
 62
  256
370
   -1
100
AcDbCircle
 10
24.76536684901272
 20
25.84775898600416
 40
0.47
  0
CIRCLE
  5
6C
100
AcDbEntity
  8
Holes
  6
ByLayer
 62
  256
370
   -1
100
AcDbCircle
 10
21.38947613988118
 20
43.82889714845766
 40
0.47
  0
CIRCLE
  5
6D
100
AcDbEntity
  8
Holes
  6
ByLayer
 62
  256
370
   -1
100
AcDbCircle
 10
18.8236190822318
 20
43.31851644676281
 40
0.47
  0
CIRCLE
  5
6E
100
AcDbEntity
  8
Holes
  6
ByLayer
 62
  256
370
   -1
100
AcDbCircle
 10
23.99999998428222
 20
43.99999992098144
 40
0.47
  0
CIRCLE
  5
6F
100
AcDbEntity
  8
Holes
  6
ByLayer
 62
  256
370
   -1
100
AcDbCircle
 10
26.61052382868324
 20
43.82889714845766
 40
0.47
  0
CIRCLE
  5
70
100
AcDbEntity
  8
Holes
  6
ByLayer
 62
  256
370
   -1
100
AcDbCircle
 10
29.17638088633263
 20
43.31851644676281
 40
0.47
  0
CIRCLE
  5
71
100
AcDbEntity
  8
Holes
  6
ByLayer
 62
  256
370
   -1
100
AcDbCircle
 10
33.18440241758414
 20
46.17310883775142
 40
0.47
  0
CIRCLE
  5
72
100
AcDbEntity
  8
Holes
  6
ByLayer
 62
  256
370
   -1
100
AcDbCircle
 10
15.58096436751378
 20
44.32534959284675
 40
0.47
  0
CIRCLE
  5
73
100
AcDbEntity
  8
Holes
  6
ByLayer
 62
  256
370
   -1
100
AcDbCircle
 10
16.3463313369806
 20
42.47759057120736
 40
0.47
  0
CIRCLE
  5
74
100
AcDbEntity
  8
Holes
  6
ByLayer
 62
  256
370
   -1
100
AcDbCircle
 10
17.11169820171076
 20
40.62983150618483
 40
0.47
  0
CIRCLE
  5
75
100
AcDbEntity
  8
Holes
  6
ByLayer
 62
  256
370
   -1
100
AcDbCircle
 10
17.87706506644096
 20
38.78207244116221
 40
0.47
  0
CIRCLE
  5
76
100
AcDbEntity
  8
Holes
  6
ByLayer
 62
  256
370
   -1
100
AcDbCircle
 10
18.64243216153501
 20
36.93431347155963
 40
0.47
  0
CIRCLE
  5
77
100
AcDbEntity
  8
Holes
  6
ByLayer
 62
  256
370
   -1
100
AcDbCircle
 10
19.40779900377655
 20
35.08655439722197
 40
0.47
  0
CIRCLE
  5
78
100
AcDbEntity
  8
Holes
  6
ByLayer
 62
  256
370
   -1
100
AcDbCircle
 10
20.17316566063143
 20
33.23879524609465
 40
0.47
  0
CIRCLE
  5
79
100
AcDbEntity
  8
Holes
  6
ByLayer
 62
  256
370
   -1
100
AcDbCircle
 10
20.93853252536163
 20
31.39103618107202
 40
0.47
  0
CIRCLE
  5
7A
100
AcDbEntity
  8
Holes
  6
ByLayer
 62
  256
370
   -1
100
AcDbCircle
 10
21.70389939009173
 20
29.54327711604961
 40
0.47
  0
CIRCLE
  5
7B
100
AcDbEntity
  8
Holes
  6
ByLayer
 62
  256
370
   -1
100
AcDbCircle
 10
22.4692662548219
 20
27.69551805102708
 40
0.47
  0
CIRCLE
  5
7C
100
AcDbEntity
  8
Holes
  6
ByLayer
 62
  256
370
   -1
100
AcDbCircle
 10
23.23463311955215
 20
25.84775898600434
 40
0.47
  0
CIRCLE
  5
7D
100
AcDbEntity
  8
Holes
  6
ByLayer
 62
  256
370
   -1
100
AcDbCircle
 10
8.132933178457481
 20
36.17522850115586
 40
0.47
  0
CIRCLE
  5
7E
100
AcDbEntity
  8
Holes
  6
ByLayer
 62
  256
370
   -1
100
AcDbCircle
 10
6.679491908593423
 20
33.99999992098145
 40
0.47
  0
CIRCLE
  5
7F
100
AcDbEntity
  8
Holes
  6
ByLayer
 62
  256
370
   -1
100
AcDbCircle
 10
9.857864360551243
 20
38.14213554471239
 40
0.47
  0
CIRCLE
  5
80
100
AcDbEntity
  8
Holes
  6
ByLayer
 62
  256
370
   -1
100
AcDbCircle
 10
11.82477140410778
 20
39.86706672680614
 40
0.47
  0
CIRCLE
  5
81
100
AcDbEntity
  8
Holes
  6
ByLayer
 62
  256
370
   -1
100
AcDbCircle
 10
13.99999998428219
 20
41.32050799667022
 40
0.47
  0
CIRCLE
  5
82
100
AcDbEntity
  8
Holes
  6
ByLayer
 62
  256
370
   -1
100
AcDbCircle
 10
14.81559755098026
 20
46.17310883775141
 40
0.47
  0
CIRCLE
  5
83
100
AcDbEntity
  8
Holes
  6
ByLayer
 62
  256
370
   -1
100
AcDbCircle
 10
3.674650225650439
 20
32.41903532827715
 40
0.47
  0
CIRCLE
  5
84
100
AcDbEntity
  8
Holes
  6
ByLayer
 62
  256
370
   -1
100
AcDbCircle
 10
5.522409334056466
 20
31.6536685682835
 40
0.47
  0
CIRCLE
  5
85
100
AcDbEntity
  8
Holes
  6
ByLayer
 62
  256
370
   -1
100
AcDbCircle
 10
7.370168399078988
 20
30.88830170355333
 40
0.47
  0
CIRCLE
  5
86
100
AcDbEntity
  8
Holes
  6
ByLayer
 62
  256
370
   -1
100
AcDbCircle
 10
9.217927464101601
 20
30.12293483882314
 40
0.47
  0
CIRCLE
  5
87
100
AcDbEntity
  8
Holes
  6
ByLayer
 62
  256
370
   -1
100
AcDbCircle
 10
11.06568662454391
 20
29.35756820445694
 40
0.47
  0
CIRCLE
  5
88
100
AcDbEntity
  8
Holes
  6
ByLayer
 62
  256
370
   -1
100
AcDbCircle
 10
12.91344568025137
 20
28.59220131723813
 40
0.47
  0
CIRCLE
  5
89
100
AcDbEntity
  8
Holes
  6
ByLayer
 62
  256
370
   -1
100
AcDbCircle
 10
14.76120465916916
 20
27.82683424463266
 40
0.47
  0
CIRCLE
  5
8A
100
AcDbEntity
  8
Holes
  6
ByLayer
 62
  256
370
   -1
100
AcDbCircle
 10
16.6089637241918
 20
27.06146737990246
 40
0.47
  0
CIRCLE
  5
8B
100
AcDbEntity
  8
Holes
  6
ByLayer
 62
  256
370
   -1
100
AcDbCircle
 10
18.4567227892142
 20
26.29610051517233
 40
0.47
  0
CIRCLE
  5
8C
100
AcDbEntity
  8
Holes
  6
ByLayer
 62
  256
370
   -1
100
AcDbCircle
 10
20.30448185423674
 20
25.53073365044218
 40
0.47
  0
CIRCLE
  5
8D
100
AcDbEntity
  8
Holes
  6
ByLayer
 62
  256
370
   -1
100
AcDbCircle
 10
22.15224091925947
 20
24.76536678571193
 40
0.47
  0
CIRCLE
  5
8E
100
AcDbEntity
  8
Holes
  6
ByLayer
 62
  256
370
   -1
100
AcDbCircle
 10
4.171102756805968
 20
21.38947607658039
 40
0.47
  0
CIRCLE
  5
8F
100
AcDbEntity
  8
Holes
  6
ByLayer
 62
  256
370
   -1
100
AcDbCircle
 10
4.681483458500814
 20
18.82361901893102
 40
0.47
  0
CIRCLE
  5
90
100
AcDbEntity
  8
Holes
  6
ByLayer
 62
  256
370
   -1
100
AcDbCircle
 10
3.99999998428218
 20
23.99999992098143
 40
0.47
  0
CIRCLE
  5
91
100
AcDbEntity
  8
Holes
  6
ByLayer
 62
  256
370
   -1
100
AcDbCircle
 10
4.171102756805968
 20
26.61052376538246
 40
0.47
  0
CIRCLE
  5
92
100
AcDbEntity
  8
Holes
  6
ByLayer
 62
  256
370
   -1
100
AcDbCircle
 10
4.681483458500807
 20
29.17638082303184
 40
0.47
  0
CIRCLE
  5
93
100
AcDbEntity
  8
Holes
  6
ByLayer
 62
  256
370
   -1
100
AcDbCircle
 10
1.826891067512204
 20
33.18440235428336
 40
0.47
  0
CIRCLE
  5
94
100
AcDbEntity
  8
Holes
  6
ByLayer
 62
  256
370
   -1
100
AcDbCircle
 10
3.674650312416873
 20
15.58096430421299
 40
0.47
  0
CIRCLE
  5
95
100
AcDbEntity
  8
Holes
  6
ByLayer
 62
  256
370
   -1
100
AcDbCircle
 10
5.52240933405627
 20
16.34633127367982
 40
0.47
  0
CIRCLE
  5
96
100
AcDbEntity
  8
Holes
  6
ByLayer
 62
  256
370
   -1
100
AcDbCircle
 10
7.3701683990788
 20
17.11169813840997
 40
0.47
  0
CIRCLE
  5
97
100
AcDbEntity
  8
Holes
  6
ByLayer
 62
  256
370
   -1
100
AcDbCircle
 10
9.217927464101408
 20
17.87706500314017
 40
0.47
  0
CIRCLE
  5
98
100
AcDbEntity
  8
Holes
  6
ByLayer
 62
  256
370
   -1
100
AcDbCircle
 10
11.06568643370399
 20
18.64243209823422
 40
0.47
  0
CIRCLE
  5
99
100
AcDbEntity
  8
Holes
  6
ByLayer
 62
  256
370
   -1
100
AcDbCircle
 10
12.91344550804165
 20
19.40779894047576
 40
0.47
  0
CIRCLE
  5
9A
100
AcDbEntity
  8
Holes
  6
ByLayer
 62
  256
370
   -1
100
AcDbCircle
 10
14.76120465916897
 20
20.17316559733064
 40
0.47
  0
CIRCLE
  5
9B
100
AcDbEntity
  8
Holes
  6
ByLayer
 62
  256
370
   -1
100
AcDbCircle
 10
16.6089637241916
 20
20.93853246206085
 40
0.47
  0
CIRCLE
  5
9C
100
AcDbEntity
  8
Holes
  6
ByLayer
 62
  256
370
   -1
100
AcDbCircle
 10
18.45672278921402
 20
21.70389932679095
 40
0.47
  0
CIRCLE
  5
9D
100
AcDbEntity
  8
Holes
  6
ByLayer
 62
  256
370
   -1
100
AcDbCircle
 10
20.30448185423655
 20
22.46926619152112
 40
0.47
  0
CIRCLE
  5
9E
100
AcDbEntity
  8
Holes
  6
ByLayer
 62
  256
370
   -1
100
AcDbCircle
 10
22.15224091925928
 20
23.23463305625136
 40
0.47
  0
CIRCLE
  5
9F
100
AcDbEntity
  8
Holes
  6
ByLayer
 62
  256
370
   -1
100
AcDbCircle
 10
11.82477140410777
 20
8.132933115156698
 40
0.47
  0
CIRCLE
  5
A0
100
AcDbEntity
  8
Holes
  6
ByLayer
 62
  256
370
   -1
100
AcDbCircle
 10
13.99999998428217
 20
6.679491845292638
 40
0.47
  0
CIRCLE
  5
A1
100
AcDbEntity
  8
Holes
  6
ByLayer
 62
  256
370
   -1
100
AcDbCircle
 10
9.857864360551231
 20
9.85786429725046
 40
0.47
  0
CIRCLE
  5
A2
100
AcDbEntity
  8
Holes
  6
ByLayer
 62
  256
370
   -1
100
AcDbCircle
 10
8.132933178457476
 20
11.82477134080699
 40
0.47
  0
CIRCLE
  5
A3
100
AcDbEntity
  8
Holes
  6
ByLayer
 62
  256
370
   -1
100
AcDbCircle
 10
6.679491908593405
 20
13.9999999209814
 40
0.47
  0
CIRCLE
  5
A4
100
AcDbEntity
  8
Holes
  6
ByLayer
 62
  256
370
   -1
100
AcDbCircle
 10
1.826891067512207
 20
14.81559748767948
 40
0.47
  0
CIRCLE
  5
A5
100
AcDbEntity
  8
Holes
  6
ByLayer
 62
  256
370
   -1
100
AcDbCircle
 10
15.58096457698648
 20
3.67465016234965
 40
0.47
  0
CIRCLE
  5
A6
100
AcDbEntity
  8
Holes
  6
ByLayer
 62
  256
370
   -1
100
AcDbCircle
 10
16.34633133698013
 20
5.522409270755681
 40
0.47
  0
CIRCLE
  5
A7
100
AcDbEntity
  8
Holes
  6
ByLayer
 62
  256
370
   -1
100
AcDbCircle
 10
17.1116982017103
 20
7.370168335778203
 40
0.47
  0
CIRCLE
  5
A8
100
AcDbEntity
  8
Holes
  6
ByLayer
 62
  256
370
   -1
100
AcDbCircle
 10
17.87706506644049
 20
9.217927400800816
 40
0.47
  0
CIRCLE
  5
A9
100
AcDbEntity
  8
Holes
  6
ByLayer
 62
  256
370
   -1
100
AcDbCircle
 10
18.64243170080669
 20
11.06568656124312
 40
0.47
  0
CIRCLE
  5
AA
100
AcDbEntity
  8
Holes
  6
ByLayer
 62
  256
370
   -1
100
AcDbCircle
 10
19.4077985880255
 20
12.91344561695058
 40
0.47
  0
CIRCLE
  5
AB
100
AcDbEntity
  8
Holes
  6
ByLayer
 62
  256
370
   -1
100
AcDbCircle
 10
20.17316566063096
 20
14.76120459586837
 40
0.47
  0
CIRCLE
  5
AC
100
AcDbEntity
  8
Holes
  6
ByLayer
 62
  256
370
   -1
100
AcDbCircle
 10
20.93853252536116
 20
16.60896366089101
 40
0.47
  0
CIRCLE
  5
AD
100
AcDbEntity
  8
Holes
  6
ByLayer
 62
  256
370
   -1
100
AcDbCircle
 10
21.70389939009129
 20
18.45672272591342
 40
0.47
  0
CIRCLE
  5
AE
100
AcDbEntity
  8
Holes
  6
ByLayer
 62
  256
370
   -1
100
AcDbCircle
 10
22.46926625482145
 20
20.30448179093595
 40
0.47
  0
CIRCLE
  5
AF
100
AcDbEntity
  8
Holes
  6
ByLayer
 62
  256
370
   -1
100
AcDbCircle
 10
23.23463311955169
 20
22.15224085595868
 40
0.47
  0
CIRCLE
  5
B0
100
AcDbEntity
  8
Holes
  6
ByLayer
 62
  256
370
   -1
100
AcDbCircle
 10
26.61052382868323
 20
4.17110269350518
 40
0.47
  0
CIRCLE
  5
B1
100
AcDbEntity
  8
Holes
  6
ByLayer
 62
  256
370
   -1
100
AcDbCircle
 10
29.1763808863326
 20
4.681483395200026
 40
0.47
  0
CIRCLE
  5
B2
100
AcDbEntity
  8
Holes
  6
ByLayer
 62
  256
370
   -1
100
AcDbCircle
 10
23.99999998428219
 20
3.999999920981395
 40
0.47
  0
CIRCLE
  5
B3
100
AcDbEntity
  8
Holes
  6
ByLayer
 62
  256
370
   -1
100
AcDbCircle
 10
21.38947613988116
 20
4.17110269350518
 40
0.47
  0
CIRCLE
  5
B4
100
AcDbEntity
  8
Holes
  6
ByLayer
 62
  256
370
   -1
100
AcDbCircle
 10
18.82361908223178
 20
4.681483395200022
 40
0.47
  0
CIRCLE
  5
B5
100
AcDbEntity
  8
Holes
  6
ByLayer
 62
  256
370
   -1
100
AcDbCircle
 10
14.81559755098026
 20
1.826891004211419
 40
0.47
  0
CIRCLE
  5
B6
100
AcDbEntity
  8
Holes
  6
ByLayer
 62
  256
370
   -1
100
AcDbCircle
 10
32.41903560105063
 20
3.674650249116088
 40
0.47
  0
CIRCLE
  5
B7
100
AcDbEntity
  8
Holes
  6
ByLayer
 62
  256
370
   -1
100
AcDbCircle
 10
31.6536686315838
 20
5.522409270755485
 40
0.47
  0
CIRCLE
  5
B8
100
AcDbEntity
  8
Holes
  6
ByLayer
 62
  256
370
   -1
100
AcDbCircle
 10
30.88830176685365
 20
7.370168335778015
 40
0.47
  0
CIRCLE
  5
B9
100
AcDbEntity
  8
Holes
  6
ByLayer
 62
  256
370
   -1
100
AcDbCircle
 10
30.12293490212345
 20
9.217927400800621
 40
0.47
  0
CIRCLE
  5
BA
100
AcDbEntity
  8
Holes
  6
ByLayer
 62
  256
370
   -1
100
AcDbCircle
 10
29.3575678070294
 20
11.0656863704032
 40
0.47
  0
CIRCLE
  5
BB
100
AcDbEntity
  8
Holes
  6
ByLayer
 62
  256
370
   -1
100
AcDbCircle
 10
28.59220096478786
 20
12.91344544474086
 40
0.47
  0
CIRCLE
  5
BC
100
AcDbEntity
  8
Holes
  6
ByLayer
 62
  256
370
   -1
100
AcDbCircle
 10
27.82683430793298
 20
14.76120459586818
 40
0.47
  0
CIRCLE
  5
BD
100
AcDbEntity
  8
Holes
  6
ByLayer
 62
  256
370
   -1
100
AcDbCircle
 10
27.06146744320278
 20
16.60896366089082
 40
0.47
  0
CIRCLE
  5
BE
100
AcDbEntity
  8
Holes
  6
ByLayer
 62
  256
370
   -1
100
AcDbCircle
 10
26.29610057847268
 20
18.45672272591323
 40
0.47
  0
CIRCLE
  5
BF
100
AcDbEntity
  8
Holes
  6
ByLayer
 62
  256
370
   -1
100
AcDbCircle
 10
25.53073371374251
 20
20.30448179093576
 40
0.47
  0
CIRCLE
  5
C0
100
AcDbEntity
  8
Holes
  6
ByLayer
 62
  256
370
   -1
100
AcDbCircle
 10
24.76536684901226
 20
22.1522408559585
 40
0.47
  0
CIRCLE
  5
C1
100
AcDbEntity
  8
Holes
  6
ByLayer
 62
  256
370
   -1
100
AcDbCircle
 10
39.86706679010693
 20
11.82477134080698
 40
0.47
  0
CIRCLE
  5
C2
100
AcDbEntity
  8
Holes
  6
ByLayer
 62
  256
370
   -1
100
AcDbCircle
 10
41.32050805997098
 20
13.99999992098139
 40
0.47
  0
CIRCLE
  5
C3
100
AcDbEntity
  8
Holes
  6
ByLayer
 62
  256
370
   -1
100
AcDbCircle
 10
38.14213560801316
 20
9.857864297250446
 40
0.47
  0
CIRCLE
  5
C4
100
AcDbEntity
  8
Holes
  6
ByLayer
 62
  256
370
   -1
100
AcDbCircle
 10
36.17522856445663
 20
8.132933115156691
 40
0.47
  0
CIRCLE
  5
C5
100
AcDbEntity
  8
Holes
  6
ByLayer
 62
  256
370
   -1
100
AcDbCircle
 10
33.99999998428222
 20
6.679491845292617
 40
0.47
  0
CIRCLE
  5
C6
100
AcDbEntity
  8
Holes
  6
ByLayer
 62
  256
370
   -1
100
AcDbCircle
 10
33.18440241758415
 20
1.826891004211422
 40
0.47
  0
CIRCLE
  5
C7
100
AcDbEntity
  8
Holes
  6
ByLayer
 62
  256
370
   -1
100
AcDbCircle
 10
44.32534974291397
 20
15.58096451368569
 40
0.47
  0
CIRCLE
  5
C8
100
AcDbEntity
  8
Holes
  6
ByLayer
 62
  256
370
   -1
100
AcDbCircle
 10
42.47759063450794
 20
16.34633127367934
 40
0.47
  0
CIRCLE
  5
C9
100
AcDbEntity
  8
Holes
  6
ByLayer
 62
  256
370
   -1
100
AcDbCircle
 10
40.62983156948542
 20
17.11169813840951
 40
0.47
  0
CIRCLE
  5
CA
100
AcDbEntity
  8
Holes
  6
ByLayer
 62
  256
370
   -1
100
AcDbCircle
 10
38.7820725044628
 20
17.8770650031397
 40
0.47
  0
CIRCLE
  5
CB
100
AcDbEntity
  8
Holes
  6
ByLayer
 62
  256
370
   -1
100
AcDbCircle
 10
36.9343133440205
 20
18.6424316375059
 40
0.47
  0
CIRCLE
  5
CC
100
AcDbEntity
  8
Holes
  6
ByLayer
 62
  256
370
   -1
100
AcDbCircle
 10
35.08655428831304
 20
19.40779852472471
 40
0.47
  0
CIRCLE
  5
CD
100
AcDbEntity
  8
Holes
  6
ByLayer
 62
  256
370
   -1
100
AcDbCircle
 10
33.23879530939525
 20
20.17316559733018
 40
0.47
  0
CIRCLE
  5
CE
100
AcDbEntity
  8
Holes
  6
ByLayer
 62
  256
370
   -1
100
AcDbCircle
 10
31.39103624437261
 20
20.93853246206038
 40
0.47
  0
CIRCLE
  5
CF
100
AcDbEntity
  8
Holes
  6
ByLayer
 62
  256
370
   -1
100
AcDbCircle
 10
29.54327717935021
 20
21.7038993267905
 40
0.47
  0
CIRCLE
  5
D0
100
AcDbEntity
  8
Holes
  6
ByLayer
 62
  256
370
   -1
100
AcDbCircle
 10
27.69551811432767
 20
22.46926619152066
 40
0.47
  0
CIRCLE
  5
D1
100
AcDbEntity
  8
Holes
  6
ByLayer
 62
  256
370
   -1
100
AcDbCircle
 10
25.84775904930494
 20
23.23463305625091
 40
0.47
  0
CIRCLE
  5
D2
100
AcDbEntity
  8
Holes
  6
ByLayer
 62
  256
370
   -1
100
AcDbCircle
 10
43.82889721175844
 20
26.61052376538245
 40
0.47
  0
CIRCLE
  5
D3
100
AcDbEntity
  8
Holes
  6
ByLayer
 62
  256
370
   -1
100
AcDbCircle
 10
43.3185165100636
 20
29.17638082303182
 40
0.47
  0
CIRCLE
  5
D4
100
AcDbEntity
  8
Holes
  6
ByLayer
 62
  256
370
   -1
100
AcDbCircle
 10
43.99999998428223
 20
23.99999992098141
 40
0.47
  0
CIRCLE
  5
D5
100
AcDbEntity
  8
Holes
  6
ByLayer
 62
  256
370
   -1
100
AcDbCircle
 10
43.82889721175844
 20
21.38947607658038
 40
0.47
  0
CIRCLE
  5
D6
100
AcDbEntity
  8
Holes
  6
ByLayer
 62
  256
370
   -1
100
AcDbCircle
 10
43.3185165100636
 20
18.82361901893099
 40
0.47
  0
CIRCLE
  5
D7
100
AcDbEntity
  8
Holes
  6
ByLayer
 62
  256
370
   -1
100
AcDbCircle
 10
46.1731089010522
 20
14.81559748767948
 40
0.47
  0
LWPOLYLINE
  5
D8
100
AcDbEntity
  8
Inner Cuts
  6
ByLayer
 62
  256
370
   -1
100
AcDbPolyline
 90
    6
 70
    1
 43
0
 10
35.3007489208738
 20
22.71365250114724
 42
0.1178571870268964
 10
41.62061927471268
 20
18.36406144128727
 42
0.1560310451123595
 10
41.62061957479597
 20
29.63593749462456
 42
0.1178584154372868
 10
35.30069580189681
 20
25.2862869978981
 42
0.1087422209829758
 10
28.45072413356744
 20
24.66411977233523
 42
-0.07420054186097429
 10
28.4507156181737
 20
23.33582345257879
 42
0.1087432195884306
  0
LWPOLYLINE
  5
D9
100
AcDbEntity
  8
Inner Cuts
  6
ByLayer
 62
  256
370
   -1
100
AcDbPolyline
 90
    6
 70
    1
 43
0
 10
32.9004214580527
 20
31.08125064990206
 42
0.1178571870268966
 10
40.44486997528738
 20
32.47444849950601
 42
0.1560310451123593
 10
32.47445019346927
 20
40.44486870570599
 42
0.1178584154372869
 10
31.08125659909692
 20
32.9003403872802
 42
0.1087422209829762
 10
26.67753384571301
 20
27.61674030544125
 42
-0.0742005418609744
 10
27.61677515954527
 20
26.67748694902368
 42
0.1087432195884304
  0
LWPOLYLINE
  5
DA
100
AcDbEntity
  8
Inner Cuts
  6
ByLayer
 62
  256
370
   -1
100
AcDbPolyline
 90
    6
 70
    1
 43
0
 10
25.28634823879508
 20
35.3007482171015
 42
0.1178571870268966
 10
29.63593929865505
 20
41.62061857094042
 42
0.1560310451123593
 10
18.36406324531779
 20
41.62061887102368
 42
0.1178584154372868
 10
22.71371374204426
 20
35.30069509812455
 42
0.1087422209829764
 10
23.33588096760711
 20
28.45072342979514
 42
-0.07420054186097451
 10
24.66417728736356
 20
28.45071491440143
 42
0.1087432195884306
  0
LWPOLYLINE
  5
DB
100
AcDbEntity
  8
Inner Cuts
  6
ByLayer
 62
  256
370
   -1
100
AcDbPolyline
 90
    6
 70
    1
 43
0
 10
16.91875009004029
 20
32.9004207542804
 42
0.1178571870268961
 10
15.52555224043634
 20
40.4448692715151
 42
0.1560310451123599
 10
7.555132034236374
 20
32.47444948969697
 42
0.1178584154372872
 10
15.09966035266216
 20
31.08125589532464
 42
0.108742220982976
 10
20.38326043450109
 20
26.67753314194072
 42
-0.07420054186097418
 10
21.32251379091866
 20
27.616774455773
 42
0.1087432195884306
  0
LWPOLYLINE
  5
DC
100
AcDbEntity
  8
Inner Cuts
  6
ByLayer
 62
  256
370
   -1
100
AcDbPolyline
 90
    6
 70
    1
 43
0
 10
12.69925252284085
 20
25.28634753502282
 42
0.1178571870268961
 10
6.379382169001946
 20
29.63593859488278
 42
0.1560310451123597
 10
6.379381868918638
 20
18.36406254154549
 42
0.1178584154372872
 10
12.69930564181779
 20
22.71371303827198
 42
0.1087422209829758
 10
19.54927731014719
 20
23.33588026383482
 42
-0.0742005418609744
 10
19.54928582554091
 20
24.66417658359128
 42
0.1087432195884304
  0
LWPOLYLINE
  5
DD
100
AcDbEntity
  8
Inner Cuts
  6
ByLayer
 62
  256
370
   -1
100
AcDbPolyline
 90
    6
 70
    1
 43
0
 10
15.09957998566192
 20
16.918749386268
 42
0.1178571870268964
 10
7.555131468427255
 20
15.52555153666405
 42
0.1560310451123593
 10
15.52555125024536
 20
7.555131330464048
 42
0.1178584154372872
 10
16.91874484461771
 20
15.09965964888984
 42
0.1087422209829758
 10
21.32246759800162
 20
20.38325973072879
 42
-0.07420054186097429
 10
20.38322628416936
 20
21.32251308714637
 42
0.1087432195884305
  0
LWPOLYLINE
  5
DE
100
AcDbEntity
  8
Inner Cuts
  6
ByLayer
 62
  256
370
   -1
100
AcDbPolyline
 90
    6
 70
    1
 43
0
 10
22.71365320491953
 20
12.69925181906855
 42
0.1178571870268964
 10
18.36406214505957
 20
6.379381465229663
 42
0.1560310451123598
 10
29.63593819839684
 20
6.379381165146371
 42
0.117858415437287
 10
25.28628770167039
 20
12.69930493804551
 42
0.1087422209829762
 10
24.66412047610751
 20
19.5492766063749
 42
-0.07420054186097384
 10
23.33582415635108
 20
19.54928512176862
 42
0.1087432195884303
  0
LWPOLYLINE
  5
DF
100
AcDbEntity
  8
Inner Cuts
  6
ByLayer
 62
  256
370
   -1
100
AcDbPolyline
 90
    6
 70
    1
 43
0
 10
31.08125135367436
 20
15.09957928188962
 42
0.1178571870268955
 10
32.47444920327828
 20
7.555130764654962
 42
0.1560310451123598
 10
40.44486940947827
 20
15.52555054647306
 42
0.1178584154372872
 10
32.90034109105248
 20
16.91874414084545
 42
0.1087422209829758
 10
27.61674100921354
 20
21.32246689422934
 42
-0.07420054186097429
 10
26.67748765279597
 20
20.38322558039706
 42
0.1087432195884306
  0
LWPOLYLINE
  5
E0
100
AcDbEntity
  8
Outer Cut
  6
ByLayer
 62
  256
370
   -1
100
AcDbPolyline
 90
   32
 70
    1
 43
0
 10
2.878708585894254
 20
13.74616835452353
 42
0.2818684615738091
 10
4.947197189325355
 20
14.0380370190438
 42
0.1529919996629941
 10
14.03803685090529
 20
4.947196673512021
 42
0.2818682769198452
 10
13.74616876077394
 20
2.878708413254911
 42
1.483239734606839
 10
16.31554442824851
 20
1.814437078366248
 42
0.2818685790088992
 10
17.57180553214272
 20
3.483462340120759
 42
0.1529920187174921
 10
30.42819464940709
 20
3.48346166305209
 42
0.2818682510013836
 10
31.68445442758896
 20
1.814438033076555
 42
1.48323986390687
 10
34.2538316476893
 20
2.878707891014023
 42
0.2818685123015021
 10
33.96196309217899
 20
4.947196805558608
 42
0.1529919671712786
 10
43.05276305757614
 20
14.03798720975756
 42
0.2818613726926767
 10
45.12125035256771
 20
13.74620763129797
 42
1.483289058412374
 10
46.18558208278896
 20
16.31556768554485
 42
0.281865566239723
 10
44.51654675650967
 20
17.57183522957915
 42
0.1529912708618207
 10
44.51653817642779
 20
30.42825405948971
 42
0.2818657500694927
 10
46.18552613536554
 20
31.68445368783138
 42
1.483289008388557
 10
45.12127519012467
 20
34.25384658635153
 42
0.2818615946196116
 10
43.05280063552605
 20
33.96196643611049
 42
0.1529919600366481
 10
33.96196222817314
 20
43.05280215180505
 42
0.2818685210523011
 10
34.25383102278622
 20
45.12129167075324
 42
1.483239848639707
 10
31.68445515120057
 20
46.18556245109076
 42
0.2818686151628846
 10
30.42819453142949
 20
44.51653715686669
 42
0.1529920131887713
 10
17.5718053793174
 20
44.51653708381394
 42
0.281868398863406
 10
16.31554621355825
 20
46.18556197385152
 42
1.483239890728152
 10
13.74616853123286
 20
45.12129127017231
 42
0.281868517107086
 10
14.03803736179398
 20
43.05280241587831
 42
0.1529920032251139
 10
4.947197293223807
 20
33.96196209203498
 42
0.2818684174576794
 10
2.878709330797381
 20
34.25383153750865
 42
1.483239636853975
 10
1.814437837001091
 20
31.68445390384782
 42
0.2818684285242081
 10
3.483474091037973
 20
30.42819085897638
 42
0.1529916224385147
 10
3.483462349132527
 20
17.57180512223315
 42
0.2818683329254028
 10
1.81443809078246
 20
16.31554615158057
 42
1.483239819607242
  0
CIRCLE
  5
E1
100
AcDbEntity
  8
Holes
  6
ByLayer
 62
  256
370
   -1
100
AcDbCircle
 10
24.00005494497009
 20
23.99991539556209
 40
0.47
  0
ENDSEC
  0
SECTION
  2
OBJECTS
  0
DICTIONARY
  5
C
330
0
100
AcDbDictionary
281
    1
  3
ACAD_GROUP
350
D
  0
DICTIONARY
  5
D
330
C
100
AcDbDictionary
281
    1
  0
ENDSEC
  0
EOF
