<?xml version="1.0" encoding="UTF-8" standalone="no"?>
<!-- Created with Inkscape (http://www.inkscape.org/) -->

<svg
   xmlns:dc="http://purl.org/dc/elements/1.1/"
   xmlns:cc="http://creativecommons.org/ns#"
   xmlns:rdf="http://www.w3.org/1999/02/22-rdf-syntax-ns#"
   xmlns:svg="http://www.w3.org/2000/svg"
   xmlns="http://www.w3.org/2000/svg"
   xmlns:sodipodi="http://sodipodi.sourceforge.net/DTD/sodipodi-0.dtd"
   xmlns:inkscape="http://www.inkscape.org/namespaces/inkscape"
   width="48in"
   height="48in"
   viewBox="0 0 48 48"
   version="1.1"
   id="svg8"
   inkscape:version="0.92.3 (2405546, 2018-03-11)"
   sodipodi:docname="Wheel of Dharma Pixels.svg">
  <defs
     id="defs2" />
  <sodipodi:namedview
     id="base"
     pagecolor="#ffffff"
     bordercolor="#666666"
     borderopacity="1.0"
     inkscape:pageopacity="0.0"
     inkscape:pageshadow="2"
     inkscape:zoom="0.19"
     inkscape:cx="2349.425"
     inkscape:cy="2286.9125"
     inkscape:document-units="in"
     inkscape:current-layer="layer4"
     showgrid="true"
     units="in"
     inkscape:window-width="1920"
     inkscape:window-height="1017"
     inkscape:window-x="-8"
     inkscape:window-y="-8"
     inkscape:window-maximized="1"
     inkscape:snap-object-midpoints="true"
     inkscape:snap-intersection-paths="true"
     inkscape:object-paths="true"
     inkscape:snap-grids="true">
    <inkscape:grid
       type="xygrid"
       id="grid815"
       units="in"
       spacingx="2"
       spacingy="2"
       empspacing="6" />
  </sodipodi:namedview>
  <metadata
     id="metadata5">
    <rdf:RDF>
      <cc:Work
         rdf:about="">
        <dc:format>image/svg+xml</dc:format>
        <dc:type
           rdf:resource="http://purl.org/dc/dcmitype/StillImage" />
        <dc:title />
      </cc:Work>
    </rdf:RDF>
  </metadata>
  <g
     inkscape:label="Centerlines"
     inkscape:groupmode="layer"
     id="layer1"
     transform="translate(0,922.20003)"
     style="display:none">
    <circle
       style="fill:none;fill-opacity:1;stroke:#00ffff;stroke-width:0.025;stroke-miterlimit:4;stroke-dasharray:none;stroke-opacity:1"
       id="path817"
       cx="24.000008"
       cy="-898.20001"
       r="2.0000007" />
    <circle
       style="fill:none;fill-opacity:1;stroke:#00ffff;stroke-width:0.025;stroke-miterlimit:4;stroke-dasharray:none;stroke-opacity:1"
       id="path819"
       cx="24.000008"
       cy="-898.20001"
       r="18.000006" />
    <path
       style="fill:none;stroke:#00ffff;stroke-width:0.025;stroke-linecap:butt;stroke-linejoin:miter;stroke-miterlimit:4;stroke-dasharray:none;stroke-opacity:1"
       d="m 6.0000019,-916.20003 36.0000111,36.00001"
       id="path821"
       inkscape:connector-curvature="0" />
    <path
       style="fill:none;stroke:#00ffff;stroke-width:0.025;stroke-linecap:butt;stroke-linejoin:miter;stroke-miterlimit:4;stroke-dasharray:none;stroke-opacity:1"
       d="M 42.000013,-916.20003 6.0000019,-880.20002"
       id="path823"
       inkscape:connector-curvature="0" />
  </g>
  <g
     inkscape:groupmode="layer"
     id="layer2"
     inkscape:label="HorVer"
     style="display:inline">
    <path
       style="fill:none;fill-opacity:1;stroke:#5f5f5f;stroke-width:2.40000105;stroke-miterlimit:4;stroke-dasharray:none;stroke-opacity:1"
       d="M 2304 48 A 144.00015 144.00015 0 0 0 2160 192 A 144.00015 144.00015 0 0 0 2196.8887 287.98633 A 144.00015 144.00015 0 0 0 2160 384 A 144.00015 144.00015 0 0 0 2170.291 436.8457 A 1872 1872 0 0 0 1079.2695 891.26562 A 144.00015 144.00015 0 0 0 1048.4531 844.82031 A 144.00015 144.00015 0 0 0 954.5 803.02734 A 144.00015 144.00015 0 0 0 912.69531 709.04883 A 144.00015 144.00015 0 0 0 709.04883 709.03906 A 144.00015 144.00015 0 0 0 709.03906 912.68555 A 144.00015 144.00015 0 0 0 802.99219 954.47852 A 144.00015 144.00015 0 0 0 844.79688 1048.457 A 144.00015 144.00015 0 0 0 890.08008 1078.8477 A 1872 1872 0 0 0 438.65234 2171.0566 A 144.00015 144.00015 0 0 0 384 2160 A 144.00015 144.00015 0 0 0 288.01367 2196.8887 A 144.00015 144.00015 0 0 0 192 2160 A 144.00015 144.00015 0 0 0 48 2304 A 144.00015 144.00015 0 0 0 192 2448 A 144.00015 144.00015 0 0 0 287.98633 2411.1113 A 144.00015 144.00015 0 0 0 384 2448 A 144.00015 144.00015 0 0 0 436.8457 2437.7109 A 1872 1872 0 0 0 891.27148 3528.7383 A 144.00015 144.00015 0 0 0 844.4375 3559.7188 A 144.00015 144.00015 0 0 0 802.65039 3653.5645 A 144.00015 144.00015 0 0 0 709.00195 3695.3555 A 144.00015 144.00015 0 0 0 708.99023 3899.002 A 144.00015 144.00015 0 0 0 912.63672 3899.0137 A 144.00015 144.00015 0 0 0 954.42383 3805.1699 A 144.00015 144.00015 0 0 0 1048.0703 3763.3809 A 144.00015 144.00015 0 0 0 1078.6348 3717.7227 A 1872.0006 1872.0006 0 0 1 961.10938 3608.2363 A 1872.0006 1872.0006 0 0 1 961.10938 3608.2344 A 1872 1872 0 0 0 1078.6348 3717.7227 A 1872 1872 0 0 0 2304 4176 A 1872 1872 0 0 0 4176 2304 A 1872 1872 0 0 0 3716.7168 1079.248 A 1872 1872 0 0 0 3646.8906 999.76562 A 1872.0006 1872.0006 0 0 1 3646.8926 999.76562 A 1872.0006 1872.0006 0 0 1 3716.7168 1079.248 A 144.00015 144.00015 0 0 0 3763.2266 1048.4062 A 144.00015 144.00015 0 0 0 3805.0234 954.45312 A 144.00015 144.00015 0 0 0 3899.002 912.65234 A 144.00015 144.00015 0 0 0 3899.0176 709.00586 A 144.00015 144.00015 0 0 0 3695.3711 708.99023 A 144.00015 144.00015 0 0 0 3653.5742 802.94336 A 144.00015 144.00015 0 0 0 3559.5957 844.74414 A 144.00015 144.00015 0 0 0 3529.1699 890.0957 A 1872 1872 0 0 0 2436.9453 438.65234 A 144.00015 144.00015 0 0 0 2448 384 A 144.00015 144.00015 0 0 0 2411.1113 288.01367 A 144.00015 144.00015 0 0 0 2448 192 A 144.00015 144.00015 0 0 0 2304 48 z M 4224.0059 2160 A 144.00015 144.00015 0 0 0 4171.1562 2170.291 A 1872.0006 1872.0006 0 0 1 4171.3125 2171.5801 A 1872.0006 1872.0006 0 0 1 4176.002 2304 A 1872.0006 1872.0006 0 0 1 4169.3496 2436.9434 A 144.00015 144.00015 0 0 0 4224.0059 2448 A 144.00015 144.00015 0 0 0 4320.0059 2411.127 A 144.0001 144.0001 0 0 0 4416.0039 2448 A 144.0001 144.0001 0 0 0 4560.0039 2304 A 144.0001 144.0001 0 0 0 4416.0039 2160 A 144.0001 144.0001 0 0 0 4320.0039 2196.9004 A 144.00015 144.00015 0 0 0 4224.0059 2160 z M 3717.75 3529.3379 A 1872.0006 1872.0006 0 0 1 3608.2363 3646.8926 A 1872.0006 1872.0006 0 0 1 3528.7695 3716.7031 A 144.00015 144.00015 0 0 0 3559.752 3763.5391 A 144.00015 144.00015 0 0 0 3653.2949 3805.3047 A 144.00015 144.00015 0 0 0 3796.9961 3941.3359 A 144.00015 144.00015 0 0 0 3941.0137 3797.3535 A 144.00015 144.00015 0 0 0 3805.209 3653.7461 A 144.00015 144.00015 0 0 0 3763.4102 3559.9023 A 144.00015 144.00015 0 0 0 3717.75 3529.3379 z M 2171.0586 4169.3496 A 144.00015 144.00015 0 0 0 2160 4224.0059 A 144.00015 144.00015 0 0 0 2196.8887 4319.9922 A 144.00015 144.00015 0 0 0 2160 4416.0059 A 144.00015 144.00015 0 0 0 2304 4560.0059 A 144.00015 144.00015 0 0 0 2448 4416.0059 A 144.00015 144.00015 0 0 0 2411.1113 4320.0195 A 144.00015 144.00015 0 0 0 2448 4224.0059 A 144.00015 144.00015 0 0 0 2437.709 4171.1562 A 1872.0006 1872.0006 0 0 1 2436.4199 4171.3125 A 1872.0006 1872.0006 0 0 1 2304 4176.002 A 1872.0006 1872.0006 0 0 1 2171.0586 4169.3496 z "
       transform="scale(0.01041667)"
       id="path6340" />
    <path
       style="fill:none;fill-opacity:1;stroke:#5f5f5f;stroke-width:2.40000105;stroke-miterlimit:4;stroke-dasharray:none;stroke-opacity:1"
       d="M 1285.4141 3516.9219 A 1584 1584 0 0 1 1283.5586 3515.5098 A 1584 1584 0 0 1 1167.707 3407.584 A 1584.0005 1584.0005 0 0 0 1167.707 3407.5859 A 1584.0005 1584.0005 0 0 0 1283.5586 3515.5117 A 1584.0005 1584.0005 0 0 0 1285.4141 3516.9219 z "
       id="path6391"
       transform="scale(0.01041667)" />
    <path
       style="fill:none;fill-opacity:1;stroke:#5f5f5f;stroke-width:2.40000105;stroke-miterlimit:4;stroke-dasharray:none;stroke-opacity:1"
       d="M 2441.8203 3880.9023 A 1584 1584 0 0 1 2416.0469 3884.0312 A 1584 1584 0 0 1 2304 3888 A 1584 1584 0 0 1 2166.1367 3881.1016 A 1584.0005 1584.0005 0 0 0 2304 3888.002 A 1584.0005 1584.0005 0 0 0 2416.0469 3884.0332 A 1584.0005 1584.0005 0 0 0 2441.8203 3880.9043 A 144.0002 144.0002 0 0 0 2441.8203 3880.9023 z "
       id="path6389"
       transform="scale(0.01041667)" />
    <path
       style="fill:none;fill-opacity:1;stroke:#5f5f5f;stroke-width:2.40000105;stroke-miterlimit:4;stroke-dasharray:none;stroke-opacity:1"
       d="M 3516.9414 3322.5586 A 1584 1584 0 0 1 3515.5098 3324.4414 A 1584 1584 0 0 1 3407.584 3440.293 A 1584 1584 0 0 1 3321.0039 3516.3496 A 144.0002 144.0002 0 0 0 3321.0078 3516.3516 A 1584.0005 1584.0005 0 0 0 3407.5859 3440.2949 A 1584.0005 1584.0005 0 0 0 3515.5117 3324.4434 A 1584.0005 1584.0005 0 0 0 3516.9434 3322.5605 A 144.0002 144.0002 0 0 0 3516.9414 3322.5586 z "
       id="path6387"
       transform="scale(0.01041667)" />
    <path
       style="fill:none;fill-opacity:1;stroke:#5f5f5f;stroke-width:2.40000105;stroke-miterlimit:4;stroke-dasharray:none;stroke-opacity:1"
       d="M 3880.9043 2166.1816 A 1584 1584 0 0 1 3884.0312 2191.9531 A 1584 1584 0 0 1 3888 2304 A 1584 1584 0 0 1 3881.0996 2441.8652 A 144.0002 144.0002 0 0 0 3881.1016 2441.8652 A 1584.0005 1584.0005 0 0 0 3888.002 2304 A 1584.0005 1584.0005 0 0 0 3884.0332 2191.9531 A 1584.0005 1584.0005 0 0 0 3880.9043 2166.1816 z "
       id="path6385"
       transform="scale(0.01041667)" />
    <path
       style="fill:none;fill-opacity:1;stroke:#5f5f5f;stroke-width:2.40000105;stroke-miterlimit:4;stroke-dasharray:none;stroke-opacity:1"
       d="M 3440.293 1200.416 A 1584 1584 0 0 1 3516.2129 1286.8398 A 144.0002 144.0002 0 0 0 3516.2148 1286.8379 A 1584.0005 1584.0005 0 0 0 3440.2949 1200.416 A 1584.0005 1584.0005 0 0 0 3440.293 1200.416 z "
       id="path6383"
       transform="scale(0.01041667)" />
    <path
       style="fill:none;fill-opacity:1;stroke:#5f5f5f;stroke-width:2.40000105;stroke-miterlimit:4;stroke-dasharray:none;stroke-opacity:1"
       d="M 3322.541 1091.0449 A 1584 1584 0 0 1 3324.4414 1092.4902 A 1584.0005 1584.0005 0 0 0 3322.543 1091.0449 A 144.0002 144.0002 0 0 0 3322.541 1091.0449 z "
       id="path6381"
       transform="scale(0.01041667)" />
    <path
       style="display:inline;fill:none;fill-opacity:1;stroke:#5f5f5f;stroke-width:2.40000105;stroke-miterlimit:4;stroke-dasharray:none;stroke-opacity:1"
       d="M 2441.8652 726.90039 A 144.0003 144.0003 0 0 1 2448.002 768 A 144.0003 144.0003 0 0 1 2411.1133 864.01367 A 144.0003 144.0003 0 0 1 2448.002 960 A 144.0003 144.0003 0 0 1 2411.1133 1056.0137 A 144.0003 144.0003 0 0 1 2448.002 1152 A 144.0003 144.0003 0 0 1 2411.1133 1248.0137 A 144.0003 144.0003 0 0 1 2448.002 1344 A 144.0003 144.0003 0 0 1 2411.1133 1440.0137 A 144.0003 144.0003 0 0 1 2448.002 1536 A 144.0003 144.0003 0 0 1 2411.1133 1632.0137 A 144.0003 144.0003 0 0 1 2448.002 1728 A 144.0003 144.0003 0 0 1 2411.1133 1824.0137 A 144.0003 144.0003 0 0 1 2448.002 1920 A 144.0003 144.0003 0 0 1 2411.1133 2016.0137 A 144.0003 144.0003 0 0 1 2419.2832 2025.9609 A 144.0003 144.0003 0 0 1 2431.5996 2024.7324 A 144.0003 144.0003 0 0 1 2473.3926 1930.7793 A 144.0003 144.0003 0 0 1 2567.373 1888.9785 A 144.0003 144.0003 0 0 1 2609.1699 1795.0254 A 144.0003 144.0003 0 0 1 2703.1484 1753.2246 A 144.0003 144.0003 0 0 1 2744.9434 1659.2715 A 144.0003 144.0003 0 0 1 2838.9238 1617.4688 A 144.0003 144.0003 0 0 1 2880.7188 1523.5156 A 144.0003 144.0003 0 0 1 2974.6992 1481.7148 A 144.0003 144.0003 0 0 1 3016.4961 1387.7617 A 144.0003 144.0003 0 0 1 3110.4824 1345.9609 A 144.0003 144.0003 0 0 1 3152.2773 1252.0078 A 144.0003 144.0003 0 0 1 3246.2559 1210.207 A 144.0003 144.0003 0 0 1 3288.0527 1116.2539 A 144.0003 144.0003 0 0 1 3322.543 1091.0449 A 1584.0005 1584.0005 0 0 0 2441.8652 726.90039 z M 2166.1836 727.0957 A 1584.0005 1584.0005 0 0 0 1286.832 1091.7949 A 144.0003 144.0003 0 0 1 1319.9707 1116.3633 A 144.0003 144.0003 0 0 1 1361.7734 1210.3418 A 144.0003 144.0003 0 0 1 1455.7285 1252.1348 A 144.0003 144.0003 0 0 1 1497.5312 1346.1133 A 144.0003 144.0003 0 0 1 1591.4863 1387.9062 A 144.0003 144.0003 0 0 1 1633.2891 1481.8848 A 144.0003 144.0003 0 0 1 1727.2422 1523.6777 A 144.0003 144.0003 0 0 1 1769.0469 1617.6562 A 144.0003 144.0003 0 0 1 1863 1659.4492 A 144.0003 144.0003 0 0 1 1904.8047 1753.4277 A 144.0003 144.0003 0 0 1 1998.7578 1795.2207 A 144.0003 144.0003 0 0 1 2040.5605 1889.1992 A 144.0003 144.0003 0 0 1 2134.5156 1930.9922 A 144.0003 144.0003 0 0 1 2176.3184 2024.9707 A 144.0003 144.0003 0 0 1 2188.6133 2026.1406 A 144.0003 144.0003 0 0 1 2196.8906 2015.9863 A 144.0003 144.0003 0 0 1 2160 1920 A 144.0003 144.0003 0 0 1 2196.8906 1823.9863 A 144.0003 144.0003 0 0 1 2160 1728 A 144.0003 144.0003 0 0 1 2196.8906 1631.9863 A 144.0003 144.0003 0 0 1 2160 1536 A 144.0003 144.0003 0 0 1 2196.8906 1439.9863 A 144.0003 144.0003 0 0 1 2160 1344 A 144.0003 144.0003 0 0 1 2196.8906 1247.9863 A 144.0003 144.0003 0 0 1 2160 1152 A 144.0003 144.0003 0 0 1 2196.8906 1055.9863 A 144.0003 144.0003 0 0 1 2160 960 A 144.0003 144.0003 0 0 1 2196.8906 863.98633 A 144.0003 144.0003 0 0 1 2160 768 A 144.0003 144.0003 0 0 1 2166.1836 727.0957 z M 3440.2949 1200.416 A 1584.0005 1584.0005 0 0 1 3516.2168 1286.8398 A 1584.001 1584.001 0 0 0 3440.2969 1200.416 A 1584.0015 1584.0015 0 0 0 3440.2949 1200.416 z M 1091.0645 1285.4355 A 1584.0005 1584.0005 0 0 0 726.90039 2166.1387 A 144.0003 144.0003 0 0 1 768.00195 2160 A 144.0003 144.0003 0 0 1 864.01562 2196.8887 A 144.0003 144.0003 0 0 1 960.00195 2160 A 144.0003 144.0003 0 0 1 1056.0156 2196.8887 A 144.0003 144.0003 0 0 1 1152.002 2160 A 144.0003 144.0003 0 0 1 1248.0156 2196.8887 A 144.0003 144.0003 0 0 1 1344.002 2160 A 144.0003 144.0003 0 0 1 1440.0156 2196.8887 A 144.0003 144.0003 0 0 1 1536.002 2160 A 144.0003 144.0003 0 0 1 1632.0156 2196.8887 A 144.0003 144.0003 0 0 1 1728.002 2160 A 144.0003 144.0003 0 0 1 1824.0156 2196.8887 A 144.0003 144.0003 0 0 1 1920.002 2160 A 144.0003 144.0003 0 0 1 2016.0156 2196.8887 A 144.0003 144.0003 0 0 1 2026.0312 2188.668 A 144.0003 144.0003 0 0 1 2024.8125 2176.4219 A 144.0003 144.0003 0 0 1 1930.8574 2134.6289 A 144.0003 144.0003 0 0 1 1889.0547 2040.6504 A 144.0003 144.0003 0 0 1 1795.1016 1998.8574 A 144.0003 144.0003 0 0 1 1753.2969 1904.8789 A 144.0003 144.0003 0 0 1 1659.3438 1863.0859 A 144.0003 144.0003 0 0 1 1617.5391 1769.1074 A 144.0003 144.0003 0 0 1 1523.5859 1727.3145 A 144.0003 144.0003 0 0 1 1481.7812 1633.3359 A 144.0003 144.0003 0 0 1 1387.8281 1591.543 A 144.0003 144.0003 0 0 1 1346.0254 1497.5645 A 144.0003 144.0003 0 0 1 1252.0703 1455.7715 A 144.0003 144.0003 0 0 1 1210.2676 1361.793 A 144.0003 144.0003 0 0 1 1116.3125 1320 A 144.0003 144.0003 0 0 1 1091.0645 1285.4355 z M 726.90039 2166.1387 A 1584.0005 1584.0005 0 0 0 720 2304 A 1584.0005 1584.0005 0 0 0 720.00586 2304.1211 A 1584.0015 1584.0015 0 0 1 720.00195 2304 A 1584.0015 1584.0015 0 0 1 726.90039 2166.1387 z M 720.00586 2304.1211 A 1584.0015 1584.0015 0 0 0 723.9707 2416.0469 A 1584.0015 1584.0015 0 0 0 727.09961 2441.8184 A 144.0003 144.0003 0 0 0 727.11133 2441.8203 A 1584.0005 1584.0005 0 0 1 720.00586 2304.1211 z M 727.11133 2441.8203 A 1584.0005 1584.0005 0 0 0 1091.6328 3320.9844 A 144.0003 144.0003 0 0 1 1115.9883 3288.2129 A 144.0003 144.0003 0 0 1 1209.9688 3246.4121 A 144.0003 144.0003 0 0 1 1251.7637 3152.459 A 144.0003 144.0003 0 0 1 1345.7422 3110.6484 A 144.0003 144.0003 0 0 1 1387.5391 3016.6953 A 144.0003 144.0003 0 0 1 1481.5176 2974.8945 A 144.0003 144.0003 0 0 1 1523.3125 2880.9414 A 144.0003 144.0003 0 0 1 1617.291 2839.1387 A 144.0003 144.0003 0 0 1 1659.0879 2745.1875 A 144.0003 144.0003 0 0 1 1753.0664 2703.3848 A 144.0003 144.0003 0 0 1 1794.8613 2609.4316 A 144.0003 144.0003 0 0 1 1888.8418 2567.6309 A 144.0003 144.0003 0 0 1 1930.6367 2473.6777 A 144.0003 144.0003 0 0 1 2024.6152 2431.877 A 144.0003 144.0003 0 0 1 2025.8555 2419.1699 A 144.0003 144.0003 0 0 1 2015.9883 2411.1113 A 144.0003 144.0003 0 0 1 1920.002 2448 A 144.0003 144.0003 0 0 1 1823.9883 2411.1113 A 144.0003 144.0003 0 0 1 1728.002 2448 A 144.0003 144.0003 0 0 1 1631.9883 2411.1113 A 144.0003 144.0003 0 0 1 1536.002 2448 A 144.0003 144.0003 0 0 1 1439.9883 2411.1113 A 144.0003 144.0003 0 0 1 1344.002 2448 A 144.0003 144.0003 0 0 1 1247.9883 2411.1113 A 144.0003 144.0003 0 0 1 1152.002 2448 A 144.0003 144.0003 0 0 1 1055.9883 2411.1113 A 144.0003 144.0003 0 0 1 960.00195 2448 A 144.0003 144.0003 0 0 1 863.98828 2411.1113 A 144.0003 144.0003 0 0 1 768.00195 2448 A 144.0003 144.0003 0 0 1 727.11133 2441.8203 z M 3516.2168 1286.8418 A 144.0003 144.0003 0 0 1 3491.6836 1319.916 A 144.0003 144.0003 0 0 1 3397.7051 1361.7168 A 144.0003 144.0003 0 0 1 3355.9102 1455.6699 A 144.0003 144.0003 0 0 1 3261.9297 1497.4707 A 144.0003 144.0003 0 0 1 3220.1348 1591.4238 A 144.0003 144.0003 0 0 1 3126.1484 1633.2246 A 144.0003 144.0003 0 0 1 3084.3574 1727.1777 A 144.0003 144.0003 0 0 1 2990.3711 1768.9805 A 144.0003 144.0003 0 0 1 2948.5762 1862.9336 A 144.0003 144.0003 0 0 1 2854.5957 1904.7344 A 144.0003 144.0003 0 0 1 2812.8008 1998.6875 A 144.0003 144.0003 0 0 1 2718.8223 2040.4883 A 144.0003 144.0003 0 0 1 2677.0273 2134.4414 A 144.0003 144.0003 0 0 1 2583.0469 2176.2422 A 144.0003 144.0003 0 0 1 2581.8633 2188.6133 A 144.0003 144.0003 0 0 1 2592.0156 2196.8887 A 144.0003 144.0003 0 0 1 2688.002 2160 A 144.0003 144.0003 0 0 1 2784.0156 2196.8887 A 144.0003 144.0003 0 0 1 2880.002 2160 A 144.0003 144.0003 0 0 1 2976.0176 2196.8887 A 144.0003 144.0003 0 0 1 3072.0117 2160 A 144.0003 144.0003 0 0 1 3168.0234 2196.8887 A 144.0003 144.0003 0 0 1 3264.0117 2160 A 144.0003 144.0003 0 0 1 3360.0254 2196.8887 A 144.0003 144.0003 0 0 1 3456.0117 2160 A 144.0003 144.0003 0 0 1 3552.0254 2196.8887 A 144.0003 144.0003 0 0 1 3648.0117 2160 A 144.0003 144.0003 0 0 1 3744.0254 2196.8887 A 144.0003 144.0003 0 0 1 3840.0117 2160 A 144.0003 144.0003 0 0 1 3880.9043 2166.1816 A 1584.0005 1584.0005 0 0 0 3516.2168 1286.8418 z M 3880.9062 2166.1816 A 1584.0005 1584.0005 0 0 1 3888.002 2304 A 1584.0005 1584.0005 0 0 1 3881.1016 2441.8652 A 144.0003 144.0003 0 0 0 3881.1035 2441.8652 A 1584.001 1584.001 0 0 0 3888.0039 2304 A 1584.001 1584.001 0 0 0 3884.0352 2191.9531 A 1584.001 1584.001 0 0 0 3880.9082 2166.1816 A 144.0003 144.0003 0 0 0 3880.9062 2166.1816 z M 3881.1016 2441.8652 A 144.0003 144.0003 0 0 1 3840.0117 2448 A 144.0003 144.0003 0 0 1 3743.998 2411.1113 A 144.0003 144.0003 0 0 1 3648.0117 2448 A 144.0003 144.0003 0 0 1 3551.998 2411.1113 A 144.0003 144.0003 0 0 1 3456.0117 2448 A 144.0003 144.0003 0 0 1 3359.998 2411.1113 A 144.0003 144.0003 0 0 1 3264.0117 2448 A 144.0003 144.0003 0 0 1 3167.9941 2411.1113 A 144.0003 144.0003 0 0 1 3072.0078 2448 A 144.0003 144.0003 0 0 1 2975.9863 2411.1113 A 144.0003 144.0003 0 0 1 2880 2448 A 144.0003 144.0003 0 0 1 2783.9863 2411.1113 A 144.0003 144.0003 0 0 1 2688 2448 A 144.0003 144.0003 0 0 1 2591.9863 2411.1113 A 144.0003 144.0003 0 0 1 2582.1074 2419.2324 A 144.0003 144.0003 0 0 1 2583.3906 2431.9316 A 144.0003 144.0003 0 0 1 2677.3457 2473.7246 A 144.0003 144.0003 0 0 1 2719.1484 2567.7031 A 144.0003 144.0003 0 0 1 2813.1035 2609.4961 A 144.0003 144.0003 0 0 1 2854.9062 2703.4746 A 144.0003 144.0003 0 0 1 2948.8613 2745.2676 A 144.0003 144.0003 0 0 1 2990.666 2839.2461 A 144.0003 144.0003 0 0 1 3084.6191 2881.0391 A 144.0003 144.0003 0 0 1 3126.4277 2975.0176 A 144.0003 144.0003 0 0 1 3220.3848 3016.8105 A 144.0003 144.0003 0 0 1 3262.1895 3110.7949 A 144.0003 144.0003 0 0 1 3356.1426 3152.5859 A 144.0003 144.0003 0 0 1 3397.9473 3246.5703 A 144.0003 144.0003 0 0 1 3491.9004 3288.3633 A 144.0003 144.0003 0 0 1 3516.9434 3322.5586 A 1584.0005 1584.0005 0 0 0 3881.1016 2441.8652 z M 3516.9434 3322.5586 A 1584.0005 1584.0005 0 0 1 3443.457 3401.793 A 1584.001 1584.001 0 0 0 3515.5137 3324.4434 A 1584.001 1584.001 0 0 0 3516.9453 3322.5605 A 144.0003 144.0003 0 0 0 3516.9434 3322.5586 z M 3443.457 3401.793 A 1584.001 1584.001 0 0 1 3407.6074 3440.2734 A 1584.0005 1584.0005 0 0 0 3443.457 3401.793 z M 2283.8984 2254.416 L 2283.9004 2254.418 A 144.0003 144.0003 0 0 1 2270.2617 2270.4121 A 144.0003 144.0003 0 0 1 2254.4316 2283.8691 A 144.0003 144.0003 0 0 1 2256.002 2304.002 A 144.0003 144.0003 0 0 1 2254.3535 2324.5273 A 144.0003 144.0003 0 0 1 2270.0586 2337.9414 A 144.0003 144.0003 0 0 1 2283.4082 2353.627 A 144.0003 144.0003 0 0 1 2304.002 2352 A 144.0003 144.0003 0 0 1 2324.5293 2353.6484 A 144.0003 144.0003 0 0 1 2337.9414 2337.9434 A 144.0003 144.0003 0 0 1 2353.627 2324.5918 A 144.0003 144.0003 0 0 1 2352.002 2304 A 144.0003 144.0003 0 0 1 2353.5977 2283.8184 A 144.0003 144.0003 0 0 1 2337.6035 2270.1797 A 144.0003 144.0003 0 0 1 2324.1992 2254.4238 A 144.0003 144.0003 0 0 1 2304 2256 A 144.0003 144.0003 0 0 1 2283.8984 2254.416 z M 2188.7676 2582.1055 A 144.0003 144.0003 0 0 1 2176.0645 2583.3867 A 144.0003 144.0003 0 0 1 2134.2676 2677.3398 A 144.0003 144.0003 0 0 1 2040.2891 2719.1406 A 144.0003 144.0003 0 0 1 1998.4941 2813.0938 A 144.0003 144.0003 0 0 1 1904.5156 2854.8945 A 144.0003 144.0003 0 0 1 1862.7188 2948.8496 A 144.0003 144.0003 0 0 1 1768.7402 2990.6504 A 144.0003 144.0003 0 0 1 1726.9453 3084.6035 A 144.0003 144.0003 0 0 1 1632.9648 3126.4062 A 144.0003 144.0003 0 0 1 1591.1699 3220.3672 A 144.0003 144.0003 0 0 1 1497.1914 3262.168 A 144.0003 144.0003 0 0 1 1455.3945 3356.1211 A 144.0003 144.0003 0 0 1 1361.416 3397.9219 A 144.0003 144.0003 0 0 1 1319.6211 3491.875 A 144.0003 144.0003 0 0 1 1285.418 3516.9238 A 1584.0005 1584.0005 0 0 0 2166.1387 3881.1016 A 144.0003 144.0003 0 0 1 2160.002 3840.0098 A 144.0003 144.0003 0 0 1 2196.8906 3743.9961 A 144.0003 144.0003 0 0 1 2160.002 3648.0098 A 144.0003 144.0003 0 0 1 2196.8906 3551.9961 A 144.0003 144.0003 0 0 1 2160.002 3456.0098 A 144.0003 144.0003 0 0 1 2196.8906 3359.9961 A 144.0003 144.0003 0 0 1 2160.002 3264.0098 A 144.0003 144.0003 0 0 1 2196.8906 3167.9941 A 144.0003 144.0003 0 0 1 2160.002 3072.0078 A 144.0003 144.0003 0 0 1 2196.8906 2975.9863 A 144.0003 144.0003 0 0 1 2160.002 2880 A 144.0003 144.0003 0 0 1 2196.8906 2783.9863 A 144.0003 144.0003 0 0 1 2160.002 2688 A 144.0003 144.0003 0 0 1 2196.8906 2591.9863 A 144.0003 144.0003 0 0 1 2188.7676 2582.1055 z M 2419.1738 2582.1426 A 144.0003 144.0003 0 0 1 2411.1133 2592.0137 A 144.0003 144.0003 0 0 1 2448.002 2688 A 144.0003 144.0003 0 0 1 2411.1133 2784.0137 A 144.0003 144.0003 0 0 1 2448.002 2880 A 144.0003 144.0003 0 0 1 2411.1133 2976.0156 A 144.0003 144.0003 0 0 1 2448.002 3072.0078 A 144.0003 144.0003 0 0 1 2411.1133 3168.0234 A 144.0003 144.0003 0 0 1 2448.002 3264.0098 A 144.0003 144.0003 0 0 1 2411.1133 3360.0234 A 144.0003 144.0003 0 0 1 2448.002 3456.0098 A 144.0003 144.0003 0 0 1 2411.1133 3552.0234 A 144.0003 144.0003 0 0 1 2448.002 3648.0098 A 144.0003 144.0003 0 0 1 2411.1133 3744.0234 A 144.0003 144.0003 0 0 1 2448.002 3840.0098 A 144.0003 144.0003 0 0 1 2441.8223 3880.9043 A 1584.0005 1584.0005 0 0 0 3321.0078 3516.3516 A 144.0003 144.0003 0 0 1 3288.2422 3492 A 144.0003 144.0003 0 0 1 3246.4395 3398.0215 A 144.0003 144.0003 0 0 1 3152.4863 3356.2285 A 144.0003 144.0003 0 0 1 3110.6738 3262.25 A 144.0003 144.0003 0 0 1 3016.7207 3220.457 A 144.0003 144.0003 0 0 1 2974.916 3126.4785 A 144.0003 144.0003 0 0 1 2880.9609 3084.6777 A 144.0003 144.0003 0 0 1 2839.1582 2990.6992 A 144.0003 144.0003 0 0 1 2745.2031 2948.9043 A 144.0003 144.0003 0 0 1 2703.4004 2854.9258 A 144.0003 144.0003 0 0 1 2609.4453 2813.1328 A 144.0003 144.0003 0 0 1 2567.6426 2719.1543 A 144.0003 144.0003 0 0 1 2473.6875 2677.3613 A 144.0003 144.0003 0 0 1 2431.8848 2583.3828 A 144.0003 144.0003 0 0 1 2419.1738 2582.1426 z "
       transform="scale(0.01041667)"
       id="path1373" />
    <circle
       style="display:inline;fill:none;fill-opacity:1;stroke:#5f5f5f;stroke-width:0.025;stroke-miterlimit:4;stroke-dasharray:none;stroke-opacity:1"
       id="path1371"
       cx="24"
       cy="24"
       r="4" />
  </g>
  <g
     inkscape:groupmode="layer"
     id="layer4"
     inkscape:label="OuterRing"
     style="display:none">
    <circle
       style="display:inline;fill:none;fill-opacity:1;stroke:#5f5f5f;stroke-width:0.02500001;stroke-miterlimit:4;stroke-dasharray:none;stroke-opacity:1"
       id="path826-92"
       cx="6.1634617"
       cy="26.147436"
       r="1.5" />
    <circle
       style="display:inline;fill:none;fill-opacity:1;stroke:#5f5f5f;stroke-width:0.02500001;stroke-miterlimit:4;stroke-dasharray:none;stroke-opacity:1"
       id="path826-03"
       cx="9.7996798"
       cy="34.887821"
       r="1.5" />
    <circle
       style="display:inline;fill:none;fill-opacity:1;stroke:#5f5f5f;stroke-width:0.02500001;stroke-miterlimit:4;stroke-dasharray:none;stroke-opacity:1"
       id="path826-82"
       cx="6.3108974"
       cy="28.157051"
       r="1.5" />
    <circle
       style="display:inline;fill:none;fill-opacity:1;stroke:#5f5f5f;stroke-width:0.02500001;stroke-miterlimit:4;stroke-dasharray:none;stroke-opacity:1"
       id="path826-18"
       cx="8.5512819"
       cy="33.128204"
       r="1.5" />
    <circle
       style="display:inline;fill:none;fill-opacity:1;stroke:#5f5f5f;stroke-width:0.02500001;stroke-miterlimit:4;stroke-dasharray:none;stroke-opacity:1"
       id="path826-75"
       cx="6.9919872"
       cy="29.959936"
       r="1.5" />
    <circle
       style="display:inline;fill:none;fill-opacity:1;stroke:#5f5f5f;stroke-width:0.02500001;stroke-miterlimit:4;stroke-dasharray:none;stroke-opacity:1"
       id="path826-83"
       cx="7.75"
       cy="31.565704"
       r="1.5" />
    <circle
       style="display:inline;fill:none;fill-opacity:1;stroke:#5f5f5f;stroke-width:0.02500001;stroke-miterlimit:4;stroke-dasharray:none;stroke-opacity:1"
       id="path826-92-8"
       cx="16.203526"
       cy="40.20673"
       r="1.5" />
    <circle
       style="display:inline;fill:none;fill-opacity:1;stroke:#5f5f5f;stroke-width:0.02500001;stroke-miterlimit:4;stroke-dasharray:none;stroke-opacity:1"
       id="path826-03-1"
       cx="21.802885"
       cy="42.016026"
       r="1.5" />
    <circle
       style="display:inline;fill:none;fill-opacity:1;stroke:#5f5f5f;stroke-width:0.02500001;stroke-miterlimit:4;stroke-dasharray:none;stroke-opacity:1"
       id="path826-82-5"
       cx="17.79327"
       cy="40.89423"
       r="1.5" />
    <circle
       style="display:inline;fill:none;fill-opacity:1;stroke:#5f5f5f;stroke-width:0.02500001;stroke-miterlimit:4;stroke-dasharray:none;stroke-opacity:1"
       id="path826-18-9"
       cx="12.902245"
       cy="38.133011"
       r="1.5" />
    <circle
       style="display:inline;fill:none;fill-opacity:1;stroke:#5f5f5f;stroke-width:0.02500001;stroke-miterlimit:4;stroke-dasharray:none;stroke-opacity:1"
       id="path826-75-4"
       cx="14.58814"
       cy="39.411858"
       r="1.5" />
    <circle
       style="display:inline;fill:none;fill-opacity:1;stroke:#5f5f5f;stroke-width:0.02500001;stroke-miterlimit:4;stroke-dasharray:none;stroke-opacity:1"
       id="path826-83-8"
       cx="19.633013"
       cy="41.258011"
       r="1.5" />
    <circle
       style="display:inline;fill:none;fill-opacity:1;stroke:#5f5f5f;stroke-width:0.02500001;stroke-miterlimit:4;stroke-dasharray:none;stroke-opacity:1"
       id="path826-92-83"
       cx="26.060896"
       cy="41.894234"
       r="1.5" />
    <circle
       style="display:inline;fill:none;fill-opacity:1;stroke:#5f5f5f;stroke-width:0.02500001;stroke-miterlimit:4;stroke-dasharray:none;stroke-opacity:1"
       id="path826-03-9"
       cx="31.700319"
       cy="40.41827"
       r="1.5" />
    <circle
       style="display:inline;fill:none;fill-opacity:1;stroke:#5f5f5f;stroke-width:0.02500001;stroke-miterlimit:4;stroke-dasharray:none;stroke-opacity:1"
       id="path826-82-6"
       cx="35.0625"
       cy="38.094551"
       r="1.5" />
    <circle
       style="display:inline;fill:none;fill-opacity:1;stroke:#5f5f5f;stroke-width:0.02500001;stroke-miterlimit:4;stroke-dasharray:none;stroke-opacity:1"
       id="path826-18-3"
       cx="29.931089"
       cy="40.982372"
       r="1.5" />
    <circle
       style="display:inline;fill:none;fill-opacity:1;stroke:#5f5f5f;stroke-width:0.02500001;stroke-miterlimit:4;stroke-dasharray:none;stroke-opacity:1"
       id="path826-75-5"
       cx="28.21154"
       cy="41.459938"
       r="1.5" />
    <circle
       style="display:inline;fill:none;fill-opacity:1;stroke:#5f5f5f;stroke-width:0.02500001;stroke-miterlimit:4;stroke-dasharray:none;stroke-opacity:1"
       id="path826-83-9"
       cx="33.256409"
       cy="39.5"
       r="1.5" />
    <circle
       style="display:inline;fill:none;fill-opacity:1;stroke:#5f5f5f;stroke-width:0.02500001;stroke-miterlimit:4;stroke-dasharray:none;stroke-opacity:1"
       id="path826-92-9"
       cx="41.943909"
       cy="26.22436"
       r="1.5" />
    <circle
       style="display:inline;fill:none;fill-opacity:1;stroke:#5f5f5f;stroke-width:0.02500001;stroke-miterlimit:4;stroke-dasharray:none;stroke-opacity:1"
       id="path826-03-6"
       cx="40.211536"
       cy="31.919872"
       r="1.5" />
    <circle
       style="display:inline;fill:none;fill-opacity:1;stroke:#5f5f5f;stroke-width:0.02500001;stroke-miterlimit:4;stroke-dasharray:none;stroke-opacity:1"
       id="path826-82-2"
       cx="38.325321"
       cy="35.445511"
       r="1.5" />
    <circle
       style="display:inline;fill:none;fill-opacity:1;stroke:#5f5f5f;stroke-width:0.02500001;stroke-miterlimit:4;stroke-dasharray:none;stroke-opacity:1"
       id="path826-18-5"
       cx="41.046474"
       cy="30.080128"
       r="1.5" />
    <circle
       style="display:inline;fill:none;fill-opacity:1;stroke:#5f5f5f;stroke-width:0.02500001;stroke-miterlimit:4;stroke-dasharray:none;stroke-opacity:1"
       id="path826-75-2"
       cx="41.650642"
       cy="28.033653"
       r="1.5" />
    <circle
       style="display:inline;fill:none;fill-opacity:1;stroke:#5f5f5f;stroke-width:0.02500001;stroke-miterlimit:4;stroke-dasharray:none;stroke-opacity:1"
       id="path826-83-1"
       cx="39.243591"
       cy="33.645832"
       r="1.5" />
    <circle
       style="display:inline;fill:none;fill-opacity:1;stroke:#5f5f5f;stroke-width:0.02500001;stroke-miterlimit:4;stroke-dasharray:none;stroke-opacity:1"
       id="path826-92-5"
       cx="38.10096"
       cy="12.982372"
       r="1.5" />
    <circle
       style="display:inline;fill:none;fill-opacity:1;stroke:#5f5f5f;stroke-width:0.02500001;stroke-miterlimit:4;stroke-dasharray:none;stroke-opacity:1"
       id="path826-03-5"
       cx="40.495193"
       cy="16.915064"
       r="1.5" />
    <circle
       style="display:inline;fill:none;fill-opacity:1;stroke:#5f5f5f;stroke-width:0.02500001;stroke-miterlimit:4;stroke-dasharray:none;stroke-opacity:1"
       id="path826-82-0"
       cx="39.370193"
       cy="14.791666"
       r="1.5" />
    <circle
       style="display:inline;fill:none;fill-opacity:1;stroke:#5f5f5f;stroke-width:0.02500001;stroke-miterlimit:4;stroke-dasharray:none;stroke-opacity:1"
       id="path826-18-55"
       cx="41.169872"
       cy="18.320513"
       r="1.5" />
    <circle
       style="display:inline;fill:none;fill-opacity:1;stroke:#5f5f5f;stroke-width:0.02500001;stroke-miterlimit:4;stroke-dasharray:none;stroke-opacity:1"
       id="path826-75-9"
       cx="41.894234"
       cy="22.083334"
       r="1.5" />
    <circle
       style="display:inline;fill:none;fill-opacity:1;stroke:#5f5f5f;stroke-width:0.02500001;stroke-miterlimit:4;stroke-dasharray:none;stroke-opacity:1"
       id="path826-83-0"
       cx="41.490383"
       cy="19.842947"
       r="1.5" />
    <circle
       style="display:inline;fill:none;fill-opacity:1;stroke:#5f5f5f;stroke-width:0.02500001;stroke-miterlimit:4;stroke-dasharray:none;stroke-opacity:1"
       id="path826-92-0"
       cx="26.118587"
       cy="6.2516026"
       r="1.5" />
    <circle
       style="display:inline;fill:none;fill-opacity:1;stroke:#5f5f5f;stroke-width:0.02500001;stroke-miterlimit:4;stroke-dasharray:none;stroke-opacity:1"
       id="path826-03-92"
       cx="31.878204"
       cy="7.8205137"
       r="1.5" />
    <circle
       style="display:inline;fill:none;fill-opacity:1;stroke:#5f5f5f;stroke-width:0.02500001;stroke-miterlimit:4;stroke-dasharray:none;stroke-opacity:1"
       id="path826-82-4"
       cx="35.320515"
       cy="9.7836533"
       r="1.5" />
    <circle
       style="display:inline;fill:none;fill-opacity:1;stroke:#5f5f5f;stroke-width:0.02500001;stroke-miterlimit:4;stroke-dasharray:none;stroke-opacity:1"
       id="path826-18-0"
       cx="29.948717"
       cy="7.1025634"
       r="1.5" />
    <circle
       style="display:inline;fill:none;fill-opacity:1;stroke:#5f5f5f;stroke-width:0.02500001;stroke-miterlimit:4;stroke-dasharray:none;stroke-opacity:1"
       id="path826-75-46"
       cx="28.229168"
       cy="6.4983978"
       r="1.5" />
    <circle
       style="display:inline;fill:none;fill-opacity:1;stroke:#5f5f5f;stroke-width:0.02500001;stroke-miterlimit:4;stroke-dasharray:none;stroke-opacity:1"
       id="path826-83-97"
       cx="33.594551"
       cy="8.7451916"
       r="1.5" />
    <circle
       style="display:inline;fill:none;fill-opacity:1;stroke:#5f5f5f;stroke-width:0.02500001;stroke-miterlimit:4;stroke-dasharray:none;stroke-opacity:1"
       id="path826-92-6"
       cx="15.858974"
       cy="7.4519238"
       r="1.5" />
    <circle
       style="display:inline;fill:none;fill-opacity:1;stroke:#5f5f5f;stroke-width:0.02500001;stroke-miterlimit:4;stroke-dasharray:none;stroke-opacity:1"
       id="path826-03-4"
       cx="12.764423"
       cy="9.8221159"
       r="1.5" />
    <circle
       style="display:inline;fill:none;fill-opacity:1;stroke:#5f5f5f;stroke-width:0.02500001;stroke-miterlimit:4;stroke-dasharray:none;stroke-opacity:1"
       id="path826-82-8"
       cx="17.608974"
       cy="6.7371798"
       r="1.5" />
    <circle
       style="display:inline;fill:none;fill-opacity:1;stroke:#5f5f5f;stroke-width:0.02500001;stroke-miterlimit:4;stroke-dasharray:none;stroke-opacity:1"
       id="path826-18-1"
       cx="21.8125"
       cy="6.0192304"
       r="1.5" />
    <circle
       style="display:inline;fill:none;fill-opacity:1;stroke:#5f5f5f;stroke-width:0.02500001;stroke-miterlimit:4;stroke-dasharray:none;stroke-opacity:1"
       id="path826-75-29"
       cx="14.443911"
       cy="8.500001"
       r="1.5" />
    <circle
       style="display:inline;fill:none;fill-opacity:1;stroke:#5f5f5f;stroke-width:0.02500001;stroke-miterlimit:4;stroke-dasharray:none;stroke-opacity:1"
       id="path826-83-3"
       cx="19.729166"
       cy="6.4599357"
       r="1.5" />
    <circle
       style="display:inline;fill:none;fill-opacity:1;stroke:#5f5f5f;stroke-width:0.02500001;stroke-miterlimit:4;stroke-dasharray:none;stroke-opacity:1"
       id="path826-92-85"
       cx="8.0625"
       cy="15.171474"
       r="1.5" />
    <circle
       style="display:inline;fill:none;fill-opacity:1;stroke:#5f5f5f;stroke-width:0.02500001;stroke-miterlimit:4;stroke-dasharray:none;stroke-opacity:1"
       id="path826-03-920"
       cx="6.0897441"
       cy="21.66827"
       r="1.5" />
    <circle
       style="display:inline;fill:none;fill-opacity:1;stroke:#5f5f5f;stroke-width:0.02500001;stroke-miterlimit:4;stroke-dasharray:none;stroke-opacity:1"
       id="path826-82-68"
       cx="8.9711542"
       cy="13.615385"
       r="1.5" />
    <circle
       style="display:inline;fill:none;fill-opacity:1;stroke:#5f5f5f;stroke-width:0.02500001;stroke-miterlimit:4;stroke-dasharray:none;stroke-opacity:1"
       id="path826-18-6"
       cx="6.4439101"
       cy="19.427883"
       r="1.5" />
    <circle
       style="display:inline;fill:none;fill-opacity:1;stroke:#5f5f5f;stroke-width:0.02500001;stroke-miterlimit:4;stroke-dasharray:none;stroke-opacity:1"
       id="path826-75-7"
       cx="9.8525639"
       cy="12.253206"
       r="1.5" />
    <circle
       style="display:inline;fill:none;fill-opacity:1;stroke:#5f5f5f;stroke-width:0.02500001;stroke-miterlimit:4;stroke-dasharray:none;stroke-opacity:1"
       id="path826-83-4"
       cx="7.0048075"
       cy="17.22436"
       r="1.5" />
  </g>
  <g
     inkscape:groupmode="layer"
     id="layer3"
     inkscape:label="Diags"
     style="display:inline" />
</svg>
