<?xml version="1.0" encoding="UTF-8" standalone="no"?>
<!-- Created with Inkscape (http://www.inkscape.org/) -->

<svg
   xmlns:dc="http://purl.org/dc/elements/1.1/"
   xmlns:cc="http://creativecommons.org/ns#"
   xmlns:rdf="http://www.w3.org/1999/02/22-rdf-syntax-ns#"
   xmlns:svg="http://www.w3.org/2000/svg"
   xmlns="http://www.w3.org/2000/svg"
   xmlns:sodipodi="http://sodipodi.sourceforge.net/DTD/sodipodi-0.dtd"
   xmlns:inkscape="http://www.inkscape.org/namespaces/inkscape"
   width="19in"
   height="13in"
   viewBox="0 0 482.60001 330.20001"
   version="1.1"
   id="svg1121"
   inkscape:version="0.92.4 (5da689c313, 2019-01-14)"
   sodipodi:docname="Wheel of Dharma Cutting Jig Final Printable.svg">
  <defs
     id="defs1115" />
  <sodipodi:namedview
     id="base"
     pagecolor="#ffffff"
     bordercolor="#666666"
     borderopacity="1.0"
     inkscape:pageopacity="0.0"
     inkscape:pageshadow="2"
     inkscape:zoom="0.35739105"
     inkscape:cx="903.40484"
     inkscape:cy="381.32861"
     inkscape:document-units="in"
     inkscape:current-layer="layer1"
     showgrid="false"
     units="in"
     inkscape:window-width="1920"
     inkscape:window-height="1017"
     inkscape:window-x="-8"
     inkscape:window-y="-8"
     inkscape:window-maximized="1" />
  <metadata
     id="metadata1118">
    <rdf:RDF>
      <cc:Work
         rdf:about="">
        <dc:format>image/svg+xml</dc:format>
        <dc:type
           rdf:resource="http://purl.org/dc/dcmitype/StillImage" />
        <dc:title></dc:title>
      </cc:Work>
    </rdf:RDF>
  </metadata>
  <g
     inkscape:label="Layer 1"
     inkscape:groupmode="layer"
     id="layer1"
     transform="translate(0,33.200018)">
    <path
       inkscape:connector-curvature="0"
       style="fill:#00006c;fill-opacity:0.29468599;stroke:#000000;stroke-width:0.025;stroke-miterlimit:4;stroke-dasharray:none;stroke-dashoffset:0;stroke-opacity:1"
       d="M 496.59258,3.7058287 H 341.76947 l 18.44847,50.0744643 a 72.797678,72.79767 0 0 1 31.89626,-7.49102 72.797678,72.79767 0 0 1 57.77786,28.66181 72.797678,72.79767 0 0 1 1.52135,1.96631 72.797678,72.79767 0 0 1 17.31005,47.102547 72.797678,72.79767 0 0 1 -5.53609,27.69391 72.797678,72.79767 0 0 1 -56.93193,46.38374 72.797678,72.79767 0 0 1 -36.56364,9.93116 72.797678,72.79767 0 0 1 -25.52973,-4.66535 72.797678,72.79767 0 0 1 -25.27596,4.62452 72.797678,72.79767 0 0 1 -25.59844,-4.68754 72.797678,72.79767 0 0 1 -24.94473,4.50411 72.797678,72.79767 0 0 1 -25.52041,-4.66225 72.797678,72.79767 0 0 1 -25.3783,4.66225 72.797678,72.79767 0 0 1 -25.08115,-4.51652 72.797678,72.79767 0 0 1 -25.59325,4.74078 72.797678,72.79767 0 0 1 -25.65323,-4.70667 72.797678,72.79767 0 0 1 -25.52971,4.71805 72.797678,72.79767 0 0 1 -33.941595,-8.44807 72.797678,72.79767 0 0 1 -71.7113908,-72.75939 72.797678,72.79767 0 0 1 0.3116098,-6.21305 72.797678,72.79767 0 0 1 1.13533,-9.94873 72.797678,72.79767 0 0 1 2.36988,-11.500587 72.797678,72.79767 0 0 1 70.545571,-55.10879 72.797678,72.79767 0 0 1 37.902085,10.71615 L 143.34282,3.7058287 H -22.437246 V 268.57597 L 496.13525,267.92639 Z M 43.941654,221.56592 a 5.2464055,5.2464055 0 0 1 0.524,0.0265 5.2464055,5.2464055 0 0 1 0.51831,0.078 5.2464055,5.2464055 0 0 1 0.50798,0.12973 5.2464055,5.2464055 0 0 1 0.49299,0.17983 5.2464055,5.2464055 0 0 1 0.47181,0.22839 5.2464055,5.2464055 0 0 1 0.44752,0.2739 5.2464055,5.2464055 0 0 1 0.41754,0.31729 5.2464055,5.2464055 0 0 1 0.38344,0.35761 5.2464055,5.2464055 0 0 1 0.34623,0.39428 5.2464055,5.2464055 0 0 1 0.30489,0.42632 5.2464055,5.2464055 0 0 1 0.26097,0.45477 5.2464055,5.2464055 0 0 1 0.21446,0.47903 5.2464055,5.2464055 0 0 1 0.16536,0.49765 5.2464055,5.2464055 0 0 1 0.11472,0.5116 5.2464055,5.2464055 0 0 1 0.063,0.52038 5.2464055,5.2464055 0 0 1 0.0134,0.37103 5.2464055,5.2464055 0 0 1 -0.0264,0.524 5.2464055,5.2464055 0 0 1 -0.0785,0.51832 5.2464055,5.2464055 0 0 1 -0.1297,0.50851 5.2464055,5.2464055 0 0 1 -0.17984,0.49246 5.2464055,5.2464055 0 0 1 -0.22789,0.47231 5.2464055,5.2464055 0 0 1 -0.2744,0.44702 5.2464055,5.2464055 0 0 1 -0.31729,0.41753 5.2464055,5.2464055 0 0 1 -0.35761,0.38344 5.2464055,5.2464055 0 0 1 -0.39377,0.34623 5.2464055,5.2464055 0 0 1 -0.42633,0.30491 5.2464055,5.2464055 0 0 1 -0.45527,0.26096 5.2464055,5.2464055 0 0 1 -0.47852,0.21447 5.2464055,5.2464055 0 0 1 -0.49765,0.16536 5.2464055,5.2464055 0 0 1 -0.5116,0.11473 5.2464055,5.2464055 0 0 1 -0.52089,0.063 5.2464055,5.2464055 0 0 1 -0.37104,0.0135 5.2464055,5.2464055 0 0 1 -0.52348,-0.0264 5.2464055,5.2464055 0 0 1 -0.51883,-0.0786 5.2464055,5.2464055 0 0 1 -0.50798,-0.1297 5.2464055,5.2464055 0 0 1 -0.49248,-0.17984 5.2464055,5.2464055 0 0 1 -0.47232,-0.22788 5.2464055,5.2464055 0 0 1 -0.447,-0.2739 5.2464055,5.2464055 0 0 1 -0.41755,-0.31779 5.2464055,5.2464055 0 0 1 -0.38396,-0.35711 5.2464055,5.2464055 0 0 1 -0.34623,-0.39428 5.2464055,5.2464055 0 0 1 -0.30489,-0.42632 5.2464055,5.2464055 0 0 1 -0.26096,-0.45527 5.2464055,5.2464055 0 0 1 -0.21394,-0.47853 5.2464055,5.2464055 0 0 1 -0.16537,-0.49765 5.2464055,5.2464055 0 0 1 -0.11524,-0.5116 5.2464055,5.2464055 0 0 1 -0.063,-0.52038 5.2464055,5.2464055 0 0 1 -0.0129,-0.37156 5.2464055,5.2464055 0 0 1 0.0258,-0.52347 5.2464055,5.2464055 0 0 1 0.0786,-0.51883 5.2464055,5.2464055 0 0 1 0.12971,-0.50797 5.2464055,5.2464055 0 0 1 0.17984,-0.49249 5.2464055,5.2464055 0 0 1 0.22841,-0.47231 5.2464055,5.2464055 0 0 1 0.27388,-0.44702 5.2464055,5.2464055 0 0 1 0.3173,-0.41753 5.2464055,5.2464055 0 0 1 0.3576,-0.38397 5.2464055,5.2464055 0 0 1 0.39377,-0.3457 5.2464055,5.2464055 0 0 1 0.42685,-0.30541 5.2464055,5.2464055 0 0 1 0.45475,-0.26096 5.2464055,5.2464055 0 0 1 0.47852,-0.21394 5.2464055,5.2464055 0 0 1 0.49765,-0.16537 5.2464055,5.2464055 0 0 1 0.51211,-0.11472 5.2464055,5.2464055 0 0 1 0.52038,-0.0636 5.2464055,5.2464055 0 0 1 0.37104,-0.013 z m 381.361216,12.15429 a 5.246407,5.246407 0 0 1 0.52398,0.0259 5.246407,5.246407 0 0 1 0.51832,0.0785 5.246407,5.246407 0 0 1 0.50798,0.12973 5.246407,5.246407 0 0 1 0.493,0.17983 5.246407,5.246407 0 0 1 0.4718,0.22789 5.246407,5.246407 0 0 1 0.44752,0.2744 5.246407,5.246407 0 0 1 0.41703,0.31729 5.246407,5.246407 0 0 1 0.38397,0.35761 5.246407,5.246407 0 0 1 0.34623,0.39378 5.246407,5.246407 0 0 1 0.30488,0.42682 5.246407,5.246407 0 0 1 0.26096,0.45477 5.246407,5.246407 0 0 1 0.21447,0.47852 5.246407,5.246407 0 0 1 0.16536,0.49763 5.246407,5.246407 0 0 1 0.11473,0.5116 5.246407,5.246407 0 0 1 0.0631,0.52091 5.246407,5.246407 0 0 1 0.0135,0.37103 5.246407,5.246407 0 0 1 -0.0265,0.524 5.246407,5.246407 0 0 1 -0.0785,0.51832 5.246407,5.246407 0 0 1 -0.12972,0.50798 5.246407,5.246407 0 0 1 -0.17984,0.49299 5.246407,5.246407 0 0 1 -0.22788,0.47181 5.246407,5.246407 0 0 1 -0.2744,0.44699 5.246407,5.246407 0 0 1 -0.31729,0.41756 5.246407,5.246407 0 0 1 -0.35761,0.38394 5.246407,5.246407 0 0 1 -0.39378,0.34623 5.246407,5.246407 0 0 1 -0.42683,0.30491 5.246407,5.246407 0 0 1 -0.45476,0.26096 5.246407,5.246407 0 0 1 -0.47853,0.21394 5.246407,5.246407 0 0 1 -0.49763,0.16536 5.246407,5.246407 0 0 1 -0.5116,0.11523 5.246407,5.246407 0 0 1 -0.52091,0.063 5.246407,5.246407 0 0 1 -0.37102,0.013 5.246407,5.246407 0 0 1 -0.52351,-0.0259 5.246407,5.246407 0 0 1 -0.51882,-0.0786 5.246407,5.246407 0 0 1 -0.50797,-0.1297 5.246407,5.246407 0 0 1 -0.49247,-0.17984 5.246407,5.246407 0 0 1 -0.47234,-0.22788 5.246407,5.246407 0 0 1 -0.44698,-0.2744 5.246407,5.246407 0 0 1 -0.41757,-0.31731 5.246407,5.246407 0 0 1 -0.38393,-0.35759 5.246407,5.246407 0 0 1 -0.34624,-0.39378 5.246407,5.246407 0 0 1 -0.3049,-0.42685 5.246407,5.246407 0 0 1 -0.26096,-0.45474 5.246407,5.246407 0 0 1 -0.21394,-0.47853 5.246407,5.246407 0 0 1 -0.16537,-0.49765 5.246407,5.246407 0 0 1 -0.11523,-0.5116 5.246407,5.246407 0 0 1 -0.0631,-0.52088 5.246407,5.246407 0 0 1 -0.013,-0.37106 5.246407,5.246407 0 0 1 0.0259,-0.52398 5.246407,5.246407 0 0 1 0.0786,-0.51832 5.246407,5.246407 0 0 1 0.1297,-0.50797 5.246407,5.246407 0 0 1 0.17984,-0.493 5.246407,5.246407 0 0 1 0.22841,-0.4718 5.246407,5.246407 0 0 1 0.27387,-0.44702 5.246407,5.246407 0 0 1 0.31732,-0.41753 5.246407,5.246407 0 0 1 0.35758,-0.38397 5.246407,5.246407 0 0 1 0.39378,-0.34623 5.246407,5.246407 0 0 1 0.42686,-0.30488 5.246407,5.246407 0 0 1 0.45473,-0.26096 5.246407,5.246407 0 0 1 0.47853,-0.21394 5.246407,5.246407 0 0 1 0.49766,-0.16537 5.246407,5.246407 0 0 1 0.5121,-0.11525 5.246407,5.246407 0 0 1 0.52038,-0.063 5.246407,5.246407 0 0 1 0.37105,-0.013 z"
       id="path1104" />
  </g>
</svg>
