<?xml version="1.0" encoding="UTF-8" standalone="no"?>
<!-- Created with Inkscape (http://www.inkscape.org/) -->

<svg
   xmlns:dc="http://purl.org/dc/elements/1.1/"
   xmlns:cc="http://creativecommons.org/ns#"
   xmlns:rdf="http://www.w3.org/1999/02/22-rdf-syntax-ns#"
   xmlns:svg="http://www.w3.org/2000/svg"
   xmlns="http://www.w3.org/2000/svg"
   xmlns:sodipodi="http://sodipodi.sourceforge.net/DTD/sodipodi-0.dtd"
   xmlns:inkscape="http://www.inkscape.org/namespaces/inkscape"
   width="48in"
   height="48in"
   viewBox="0 0 48 48"
   version="1.1"
   id="svg8"
   inkscape:version="0.92.3 (2405546, 2018-03-11)"
   sodipodi:docname="Wheel of Dharma Pixels ph00.svg">
  <defs
     id="defs2" />
  <sodipodi:namedview
     id="base"
     pagecolor="#ffffff"
     bordercolor="#666666"
     borderopacity="1.0"
     inkscape:pageopacity="0.0"
     inkscape:pageshadow="2"
     inkscape:zoom="0.19"
     inkscape:cx="1473.1092"
     inkscape:cy="2286.9125"
     inkscape:document-units="in"
     inkscape:current-layer="layer2"
     showgrid="true"
     units="in"
     inkscape:window-width="1920"
     inkscape:window-height="1017"
     inkscape:window-x="-8"
     inkscape:window-y="-8"
     inkscape:window-maximized="1"
     inkscape:snap-object-midpoints="true"
     inkscape:snap-intersection-paths="false"
     inkscape:object-paths="false"
     inkscape:snap-grids="true"
     inkscape:object-nodes="false"
     inkscape:snap-nodes="true"
     inkscape:snap-others="true">
    <inkscape:grid
       type="xygrid"
       id="grid815"
       units="in"
       spacingx="2"
       spacingy="2"
       empspacing="6" />
  </sodipodi:namedview>
  <metadata
     id="metadata5">
    <rdf:RDF>
      <cc:Work
         rdf:about="">
        <dc:format>image/svg+xml</dc:format>
        <dc:type
           rdf:resource="http://purl.org/dc/dcmitype/StillImage" />
        <dc:title></dc:title>
      </cc:Work>
    </rdf:RDF>
  </metadata>
  <g
     inkscape:label="Centerlines"
     inkscape:groupmode="layer"
     id="layer1"
     transform="translate(0,922.20003)"
     style="display:none">
    <circle
       style="fill:none;fill-opacity:1;stroke:#00ffff;stroke-width:0.025;stroke-miterlimit:4;stroke-dasharray:none;stroke-opacity:1"
       id="path817"
       cx="24.000008"
       cy="-898.20001"
       r="2.0000007" />
    <circle
       style="fill:none;fill-opacity:1;stroke:#00ffff;stroke-width:0.025;stroke-miterlimit:4;stroke-dasharray:none;stroke-opacity:1"
       id="path819"
       cx="24.000008"
       cy="-898.20001"
       r="18.000006" />
    <path
       style="fill:none;stroke:#00ffff;stroke-width:0.025;stroke-linecap:butt;stroke-linejoin:miter;stroke-miterlimit:4;stroke-dasharray:none;stroke-opacity:1"
       d="m 6.0000019,-916.20003 36.0000111,36.00001"
       id="path821"
       inkscape:connector-curvature="0" />
    <path
       style="fill:none;stroke:#00ffff;stroke-width:0.025;stroke-linecap:butt;stroke-linejoin:miter;stroke-miterlimit:4;stroke-dasharray:none;stroke-opacity:1"
       d="M 42.000013,-916.20003 6.0000019,-880.20002"
       id="path823"
       inkscape:connector-curvature="0" />
  </g>
  <g
     inkscape:groupmode="layer"
     id="layer2"
     inkscape:label="HorVer"
     style="display:inline">
    <path
       style="fill:none;fill-opacity:1;stroke:#5f5f5f;stroke-width:2.40000105;stroke-miterlimit:4;stroke-dasharray:none;stroke-opacity:1"
       d="M 2304 48 A 144 144 0 0 0 2160 192 A 144 144 0 0 0 2196.8887 287.98633 A 144 144 0 0 0 2160 384 A 144 144 0 0 0 2196.8887 479.98633 A 144 144 0 0 0 2160 576 A 144 144 0 0 0 2196.8887 671.98633 A 144 144 0 0 0 2160 768 A 144 144 0 0 0 2196.8887 863.98633 A 144 144 0 0 0 2160 960 A 144 144 0 0 0 2196.8887 1055.9863 A 144 144 0 0 0 2160 1152 A 144 144 0 0 0 2196.8887 1247.9863 A 144 144 0 0 0 2160 1344 A 144 144 0 0 0 2196.8887 1439.9863 A 144 144 0 0 0 2160 1536 A 144 144 0 0 0 2196.8887 1631.9863 A 144 144 0 0 0 2160 1728 A 144 144 0 0 0 2196.8887 1823.9863 A 144 144 0 0 0 2160 1920 A 144 144 0 0 0 2160.2109 1925.9297 A 404.62807 404.62811 0 0 0 2138.4492 1935.3438 A 144 144 0 0 0 2134.5137 1930.9922 A 144 144 0 0 0 2040.5586 1889.1992 A 144 144 0 0 0 1998.7559 1795.2207 A 144 144 0 0 0 1904.8027 1753.4277 A 144 144 0 0 0 1862.998 1659.4492 A 144 144 0 0 0 1769.0449 1617.6562 A 144 144 0 0 0 1727.2402 1523.6777 A 144 144 0 0 0 1633.2871 1481.8848 A 144 144 0 0 0 1591.4844 1387.9062 A 144 144 0 0 0 1497.5293 1346.1133 A 144 144 0 0 0 1455.7266 1252.1348 A 144 144 0 0 0 1361.7715 1210.3418 A 144 144 0 0 0 1319.9688 1116.3633 A 144 144 0 0 0 1226.0137 1074.5703 A 144 144 0 0 0 1184.2109 980.5918 A 144 144 0 0 0 1090.2578 938.79883 A 144 144 0 0 0 1048.4531 844.82031 A 144 144 0 0 0 954.5 803.02734 A 144 144 0 0 0 912.69531 709.04883 A 144 144 0 0 0 709.04883 709.03906 A 144 144 0 0 0 709.03906 912.68555 A 144 144 0 0 0 802.99219 954.47852 A 144 144 0 0 0 844.79688 1048.457 A 144 144 0 0 0 938.75 1090.25 A 144 144 0 0 0 980.55273 1184.2285 A 144 144 0 0 0 1074.5078 1226.0215 A 144 144 0 0 0 1116.3105 1320 A 144 144 0 0 0 1210.2656 1361.793 A 144 144 0 0 0 1252.0684 1455.7715 A 144 144 0 0 0 1346.0234 1497.5645 A 144 144 0 0 0 1387.8262 1591.543 A 144 144 0 0 0 1481.7793 1633.3359 A 144 144 0 0 0 1523.584 1727.3145 A 144 144 0 0 0 1617.5371 1769.1074 A 144 144 0 0 0 1659.3418 1863.0859 A 144 144 0 0 0 1753.2949 1904.8789 A 144 144 0 0 0 1795.0996 1998.8574 A 144 144 0 0 0 1889.0527 2040.6504 A 144 144 0 0 0 1930.8555 2134.6289 A 144 144 0 0 0 1935.1016 2138.584 A 404.62807 404.62811 0 0 0 1926.2441 2160.3125 A 144 144 0 0 0 1920 2160 A 144 144 0 0 0 1824.0137 2196.8887 A 144 144 0 0 0 1728 2160 A 144 144 0 0 0 1632.0137 2196.8887 A 144 144 0 0 0 1536 2160 A 144 144 0 0 0 1440.0137 2196.8887 A 144 144 0 0 0 1344 2160 A 144 144 0 0 0 1248.0137 2196.8887 A 144 144 0 0 0 1152 2160 A 144 144 0 0 0 1056.0137 2196.8887 A 144 144 0 0 0 960 2160 A 144 144 0 0 0 864.01367 2196.8887 A 144 144 0 0 0 768 2160 A 144 144 0 0 0 672.01367 2196.8887 A 144 144 0 0 0 576 2160 A 144 144 0 0 0 480.01367 2196.8887 A 144 144 0 0 0 384 2160 A 144 144 0 0 0 288.01367 2196.8887 A 144 144 0 0 0 192 2160 A 144 144 0 0 0 48 2304 A 144 144 0 0 0 192 2448 A 144 144 0 0 0 287.98633 2411.1113 A 144 144 0 0 0 384 2448 A 144 144 0 0 0 479.98633 2411.1113 A 144 144 0 0 0 576 2448 A 144 144 0 0 0 671.98633 2411.1113 A 144 144 0 0 0 768 2448 A 144 144 0 0 0 863.98633 2411.1113 A 144 144 0 0 0 960 2448 A 144 144 0 0 0 1055.9863 2411.1113 A 144 144 0 0 0 1152 2448 A 144 144 0 0 0 1247.9863 2411.1113 A 144 144 0 0 0 1344 2448 A 144 144 0 0 0 1439.9863 2411.1113 A 144 144 0 0 0 1536 2448 A 144 144 0 0 0 1631.9863 2411.1113 A 144 144 0 0 0 1728 2448 A 144 144 0 0 0 1823.9863 2411.1113 A 144 144 0 0 0 1920 2448 A 144 144 0 0 0 1925.9297 2447.7891 A 404.62807 404.62811 0 0 0 1935.3008 2469.457 A 144 144 0 0 0 1930.6348 2473.6777 A 144 144 0 0 0 1888.8398 2567.6309 A 144 144 0 0 0 1794.8594 2609.4316 A 144 144 0 0 0 1753.0645 2703.3848 A 144 144 0 0 0 1659.0859 2745.1875 A 144 144 0 0 0 1617.2891 2839.1387 A 144 144 0 0 0 1523.3105 2880.9414 A 144 144 0 0 0 1481.5156 2974.8945 A 144 144 0 0 0 1387.5371 3016.6953 A 144 144 0 0 0 1345.7402 3110.6484 A 144 144 0 0 0 1251.7617 3152.4492 A 144 144 0 0 0 1209.9668 3246.4023 A 144 144 0 0 0 1115.9863 3288.2031 A 144 144 0 0 0 1074.1914 3382.1562 A 144 144 0 0 0 980.21289 3423.959 A 144 144 0 0 0 938.41602 3517.9121 A 144 144 0 0 0 844.4375 3559.7129 A 144 144 0 0 0 802.65039 3653.5586 A 144 144 0 0 0 709.00195 3695.3496 A 144 144 0 0 0 708.99023 3898.9961 A 144 144 0 0 0 912.63672 3899.0078 A 144 144 0 0 0 954.42383 3805.1641 A 144 144 0 0 0 1048.0703 3763.375 A 144 144 0 0 0 1089.8652 3669.4219 A 144 144 0 0 0 1183.8438 3627.6211 A 144 144 0 0 0 1225.6406 3533.668 A 144 144 0 0 0 1319.6191 3491.8652 A 144 144 0 0 0 1361.4141 3397.9121 A 144 144 0 0 0 1455.3926 3356.1113 A 144 144 0 0 0 1497.1895 3262.1582 A 144 144 0 0 0 1591.168 3220.3574 A 144 144 0 0 0 1632.9629 3126.4043 A 144 144 0 0 0 1726.9434 3084.6035 A 144 144 0 0 0 1768.7383 2990.6504 A 144 144 0 0 0 1862.7168 2948.8477 A 144 144 0 0 0 1904.5137 2854.8945 A 144 144 0 0 0 1998.4922 2813.0938 A 144 144 0 0 0 2040.2871 2719.1406 A 144 144 0 0 0 2134.2656 2677.3398 A 144 144 0 0 0 2138.4609 2672.8379 A 404.62807 404.62811 0 0 0 2160.3125 2681.7559 A 144 144 0 0 0 2160 2688 A 144 144 0 0 0 2196.8887 2783.9863 A 144 144 0 0 0 2160 2880 A 144 144 0 0 0 2196.8887 2975.9863 A 144 144 0 0 0 2160 3072 A 144 144 0 0 0 2196.8887 3167.9863 A 144 144 0 0 0 2160 3264 A 144 144 0 0 0 2196.8887 3359.9863 A 144 144 0 0 0 2160 3456 A 144 144 0 0 0 2196.8887 3551.9863 A 144 144 0 0 0 2160 3648 A 144 144 0 0 0 2196.8887 3743.9863 A 144 144 0 0 0 2160 3840 A 144 144 0 0 0 2196.8887 3935.9863 A 144 144 0 0 0 2160 4032 A 144 144 0 0 0 2196.8887 4127.9863 A 144 144 0 0 0 2160 4224 A 144 144 0 0 0 2196.8887 4319.9863 A 144 144 0 0 0 2160 4416 A 144 144 0 0 0 2304 4560 A 144 144 0 0 0 2448 4416 A 144 144 0 0 0 2411.1113 4320.0137 A 144 144 0 0 0 2448 4224 A 144 144 0 0 0 2411.1113 4128.0137 A 144 144 0 0 0 2448 4032 A 144 144 0 0 0 2411.1113 3936.0137 A 144 144 0 0 0 2448 3840 A 144 144 0 0 0 2411.1113 3744.0137 A 144 144 0 0 0 2448 3648 A 144 144 0 0 0 2411.1113 3552.0137 A 144 144 0 0 0 2448 3456 A 144 144 0 0 0 2411.1113 3360.0137 A 144 144 0 0 0 2448 3264 A 144 144 0 0 0 2411.1113 3168.0137 A 144 144 0 0 0 2448 3072 A 144 144 0 0 0 2411.1113 2976.0137 A 144 144 0 0 0 2448 2880 A 144 144 0 0 0 2411.1113 2784.0137 A 144 144 0 0 0 2448 2688 A 144 144 0 0 0 2447.7891 2682.0703 A 404.62807 404.62811 0 0 0 2469.4648 2672.6953 A 144 144 0 0 0 2473.6855 2677.3613 A 144 144 0 0 0 2567.6406 2719.1543 A 144 144 0 0 0 2609.4434 2813.1328 A 144 144 0 0 0 2703.3984 2854.9258 A 144 144 0 0 0 2745.2012 2948.9043 A 144 144 0 0 0 2839.1562 2990.6973 A 144 144 0 0 0 2880.959 3084.6758 A 144 144 0 0 0 2974.9121 3126.4688 A 144 144 0 0 0 3016.7168 3220.4473 A 144 144 0 0 0 3110.6699 3262.2402 A 144 144 0 0 0 3152.4746 3356.2188 A 144 144 0 0 0 3246.4277 3398.0117 A 144 144 0 0 0 3288.2305 3491.9902 A 144 144 0 0 0 3382.1855 3533.7832 A 144 144 0 0 0 3423.9883 3627.7617 A 144 144 0 0 0 3517.9434 3669.5547 A 144 144 0 0 0 3559.7461 3763.5332 A 144 144 0 0 0 3653.2891 3805.2988 A 144 144 0 0 0 3796.9902 3941.3301 A 144 144 0 0 0 3941.0078 3797.3477 A 144 144 0 0 0 3805.2031 3653.7402 A 144 144 0 0 0 3763.4043 3559.8965 A 144 144 0 0 0 3669.4492 3518.1035 A 144 144 0 0 0 3627.6465 3424.125 A 144 144 0 0 0 3533.6914 3382.332 A 144 144 0 0 0 3491.8887 3288.3535 A 144 144 0 0 0 3397.9355 3246.5605 A 144 144 0 0 0 3356.1309 3152.582 A 144 144 0 0 0 3262.1777 3110.7891 A 144 144 0 0 0 3220.373 3016.8105 A 144 144 0 0 0 3126.4199 2975.0176 A 144 144 0 0 0 3084.6152 2881.0391 A 144 144 0 0 0 2990.6621 2839.2461 A 144 144 0 0 0 2948.8594 2745.2676 A 144 144 0 0 0 2854.9043 2703.4746 A 144 144 0 0 0 2813.1016 2609.4961 A 144 144 0 0 0 2719.1465 2567.7031 A 144 144 0 0 0 2677.3438 2473.7246 A 144 144 0 0 0 2672.8418 2469.5312 A 404.62807 404.62811 0 0 0 2681.7559 2447.6875 A 144 144 0 0 0 2688 2448 A 144 144 0 0 0 2783.9863 2411.1113 A 144 144 0 0 0 2880 2448 A 144 144 0 0 0 2975.9863 2411.1113 A 144 144 0 0 0 3072 2448 A 144 144 0 0 0 3167.9863 2411.1113 A 144 144 0 0 0 3264 2448 A 144 144 0 0 0 3359.9863 2411.1113 A 144 144 0 0 0 3456 2448 A 144 144 0 0 0 3551.9863 2411.1113 A 144 144 0 0 0 3648 2448 A 144 144 0 0 0 3743.9863 2411.1113 A 144 144 0 0 0 3840 2448 A 144 144 0 0 0 3935.9863 2411.1113 A 144 144 0 0 0 4032 2448 A 144 144 0 0 0 4127.9863 2411.1113 A 144 144 0 0 0 4224 2448 A 144 144 0 0 0 4319.9863 2411.1113 A 144 144 0 0 0 4416 2448 A 144 144 0 0 0 4560 2304 A 144 144 0 0 0 4416 2160 A 144 144 0 0 0 4320.0137 2196.8887 A 144 144 0 0 0 4224 2160 A 144 144 0 0 0 4128.0137 2196.8887 A 144 144 0 0 0 4032 2160 A 144 144 0 0 0 3936.0137 2196.8887 A 144 144 0 0 0 3840 2160 A 144 144 0 0 0 3744.0137 2196.8887 A 144 144 0 0 0 3648 2160 A 144 144 0 0 0 3552.0137 2196.8887 A 144 144 0 0 0 3456 2160 A 144 144 0 0 0 3360.0137 2196.8887 A 144 144 0 0 0 3264 2160 A 144 144 0 0 0 3168.0137 2196.8887 A 144 144 0 0 0 3072 2160 A 144 144 0 0 0 2976.0137 2196.8887 A 144 144 0 0 0 2880 2160 A 144 144 0 0 0 2784.0137 2196.8887 A 144 144 0 0 0 2688 2160 A 144 144 0 0 0 2682.0703 2160.2109 A 404.62807 404.62811 0 0 0 2672.6387 2138.4082 A 144 144 0 0 0 2677.0254 2134.4414 A 144 144 0 0 0 2718.8203 2040.4883 A 144 144 0 0 0 2812.7988 1998.6875 A 144 144 0 0 0 2854.5938 1904.7344 A 144 144 0 0 0 2948.5742 1862.9336 A 144 144 0 0 0 2990.3691 1768.9805 A 144 144 0 0 0 3084.3477 1727.1777 A 144 144 0 0 0 3126.1445 1633.2246 A 144 144 0 0 0 3220.123 1591.4238 A 144 144 0 0 0 3261.918 1497.4707 A 144 144 0 0 0 3355.8984 1455.6699 A 144 144 0 0 0 3397.6934 1361.7168 A 144 144 0 0 0 3491.6719 1319.916 A 144 144 0 0 0 3533.4688 1225.9629 A 144 144 0 0 0 3627.4473 1184.1602 A 144 144 0 0 0 3669.2422 1090.207 A 144 144 0 0 0 3763.2207 1048.4062 A 144 144 0 0 0 3805.0176 954.45312 A 144 144 0 0 0 3898.9961 912.65234 A 144 144 0 0 0 3899.0117 709.00586 A 144 144 0 0 0 3695.3652 708.99023 A 144 144 0 0 0 3653.5684 802.94336 A 144 144 0 0 0 3559.5898 844.74414 A 144 144 0 0 0 3517.7949 938.69727 A 144 144 0 0 0 3423.8145 980.49805 A 144 144 0 0 0 3382.0195 1074.4512 A 144 144 0 0 0 3288.041 1116.2539 A 144 144 0 0 0 3246.2441 1210.207 A 144 144 0 0 0 3152.2656 1252.0078 A 144 144 0 0 0 3110.4707 1345.9609 A 144 144 0 0 0 3016.4922 1387.7617 A 144 144 0 0 0 2974.6953 1481.7148 A 144 144 0 0 0 2880.7168 1523.5156 A 144 144 0 0 0 2838.9219 1617.4688 A 144 144 0 0 0 2744.9414 1659.2715 A 144 144 0 0 0 2703.1465 1753.2246 A 144 144 0 0 0 2609.168 1795.0254 A 144 144 0 0 0 2567.3711 1888.9785 A 144 144 0 0 0 2473.3926 1930.7793 A 144 144 0 0 0 2469.3809 1935.0859 A 404.62807 404.62811 0 0 0 2447.6875 1926.2441 A 144 144 0 0 0 2448 1920 A 144 144 0 0 0 2411.1113 1824.0137 A 144 144 0 0 0 2448 1728 A 144 144 0 0 0 2411.1113 1632.0137 A 144 144 0 0 0 2448 1536 A 144 144 0 0 0 2411.1113 1440.0137 A 144 144 0 0 0 2448 1344 A 144 144 0 0 0 2411.1113 1248.0137 A 144 144 0 0 0 2448 1152 A 144 144 0 0 0 2411.1113 1056.0137 A 144 144 0 0 0 2448 960 A 144 144 0 0 0 2411.1113 864.01367 A 144 144 0 0 0 2448 768 A 144 144 0 0 0 2411.1113 672.01367 A 144 144 0 0 0 2448 576 A 144 144 0 0 0 2411.1113 480.01367 A 144 144 0 0 0 2448 384 A 144 144 0 0 0 2411.1113 288.01367 A 144 144 0 0 0 2448 192 A 144 144 0 0 0 2304 48 z "
       transform="scale(0.01041667)"
       id="path826" />
  </g>
  <g
     inkscape:groupmode="layer"
     id="layer4"
     inkscape:label="OuterRing"
     style="display:none">
    <circle
       style="display:inline;fill:none;fill-opacity:1;stroke:#5f5f5f;stroke-width:0.02500001;stroke-miterlimit:4;stroke-dasharray:none;stroke-opacity:1"
       id="path826-92"
       cx="6.1634617"
       cy="26.147436"
       r="1.5" />
    <circle
       style="display:inline;fill:none;fill-opacity:1;stroke:#5f5f5f;stroke-width:0.02500001;stroke-miterlimit:4;stroke-dasharray:none;stroke-opacity:1"
       id="path826-03"
       cx="9.7996798"
       cy="34.887821"
       r="1.5" />
    <circle
       style="display:inline;fill:none;fill-opacity:1;stroke:#5f5f5f;stroke-width:0.02500001;stroke-miterlimit:4;stroke-dasharray:none;stroke-opacity:1"
       id="path826-82"
       cx="6.3108974"
       cy="28.157051"
       r="1.5" />
    <circle
       style="display:inline;fill:none;fill-opacity:1;stroke:#5f5f5f;stroke-width:0.02500001;stroke-miterlimit:4;stroke-dasharray:none;stroke-opacity:1"
       id="path826-18"
       cx="8.5512819"
       cy="33.128204"
       r="1.5" />
    <circle
       style="display:inline;fill:none;fill-opacity:1;stroke:#5f5f5f;stroke-width:0.02500001;stroke-miterlimit:4;stroke-dasharray:none;stroke-opacity:1"
       id="path826-75"
       cx="6.9919872"
       cy="29.959936"
       r="1.5" />
    <circle
       style="display:inline;fill:none;fill-opacity:1;stroke:#5f5f5f;stroke-width:0.02500001;stroke-miterlimit:4;stroke-dasharray:none;stroke-opacity:1"
       id="path826-83"
       cx="7.75"
       cy="31.565704"
       r="1.5" />
    <circle
       style="display:inline;fill:none;fill-opacity:1;stroke:#5f5f5f;stroke-width:0.02500001;stroke-miterlimit:4;stroke-dasharray:none;stroke-opacity:1"
       id="path826-92-8"
       cx="16.203526"
       cy="40.20673"
       r="1.5" />
    <circle
       style="display:inline;fill:none;fill-opacity:1;stroke:#5f5f5f;stroke-width:0.02500001;stroke-miterlimit:4;stroke-dasharray:none;stroke-opacity:1"
       id="path826-03-1"
       cx="21.802885"
       cy="42.016026"
       r="1.5" />
    <circle
       style="display:inline;fill:none;fill-opacity:1;stroke:#5f5f5f;stroke-width:0.02500001;stroke-miterlimit:4;stroke-dasharray:none;stroke-opacity:1"
       id="path826-82-5"
       cx="17.79327"
       cy="40.89423"
       r="1.5" />
    <circle
       style="display:inline;fill:none;fill-opacity:1;stroke:#5f5f5f;stroke-width:0.02500001;stroke-miterlimit:4;stroke-dasharray:none;stroke-opacity:1"
       id="path826-18-9"
       cx="12.902245"
       cy="38.133011"
       r="1.5" />
    <circle
       style="display:inline;fill:none;fill-opacity:1;stroke:#5f5f5f;stroke-width:0.02500001;stroke-miterlimit:4;stroke-dasharray:none;stroke-opacity:1"
       id="path826-75-4"
       cx="14.58814"
       cy="39.411858"
       r="1.5" />
    <circle
       style="display:inline;fill:none;fill-opacity:1;stroke:#5f5f5f;stroke-width:0.02500001;stroke-miterlimit:4;stroke-dasharray:none;stroke-opacity:1"
       id="path826-83-8"
       cx="19.633013"
       cy="41.258011"
       r="1.5" />
    <circle
       style="display:inline;fill:none;fill-opacity:1;stroke:#5f5f5f;stroke-width:0.02500001;stroke-miterlimit:4;stroke-dasharray:none;stroke-opacity:1"
       id="path826-92-83"
       cx="26.060896"
       cy="41.894234"
       r="1.5" />
    <circle
       style="display:inline;fill:none;fill-opacity:1;stroke:#5f5f5f;stroke-width:0.02500001;stroke-miterlimit:4;stroke-dasharray:none;stroke-opacity:1"
       id="path826-03-9"
       cx="31.700319"
       cy="40.41827"
       r="1.5" />
    <circle
       style="display:inline;fill:none;fill-opacity:1;stroke:#5f5f5f;stroke-width:0.02500001;stroke-miterlimit:4;stroke-dasharray:none;stroke-opacity:1"
       id="path826-82-6"
       cx="35.0625"
       cy="38.094551"
       r="1.5" />
    <circle
       style="display:inline;fill:none;fill-opacity:1;stroke:#5f5f5f;stroke-width:0.02500001;stroke-miterlimit:4;stroke-dasharray:none;stroke-opacity:1"
       id="path826-18-3"
       cx="29.931089"
       cy="40.982372"
       r="1.5" />
    <circle
       style="display:inline;fill:none;fill-opacity:1;stroke:#5f5f5f;stroke-width:0.02500001;stroke-miterlimit:4;stroke-dasharray:none;stroke-opacity:1"
       id="path826-75-5"
       cx="28.21154"
       cy="41.459938"
       r="1.5" />
    <circle
       style="display:inline;fill:none;fill-opacity:1;stroke:#5f5f5f;stroke-width:0.02500001;stroke-miterlimit:4;stroke-dasharray:none;stroke-opacity:1"
       id="path826-83-9"
       cx="33.256409"
       cy="39.5"
       r="1.5" />
    <circle
       style="display:inline;fill:none;fill-opacity:1;stroke:#5f5f5f;stroke-width:0.02500001;stroke-miterlimit:4;stroke-dasharray:none;stroke-opacity:1"
       id="path826-92-9"
       cx="41.943909"
       cy="26.22436"
       r="1.5" />
    <circle
       style="display:inline;fill:none;fill-opacity:1;stroke:#5f5f5f;stroke-width:0.02500001;stroke-miterlimit:4;stroke-dasharray:none;stroke-opacity:1"
       id="path826-03-6"
       cx="40.211536"
       cy="31.919872"
       r="1.5" />
    <circle
       style="display:inline;fill:none;fill-opacity:1;stroke:#5f5f5f;stroke-width:0.02500001;stroke-miterlimit:4;stroke-dasharray:none;stroke-opacity:1"
       id="path826-82-2"
       cx="38.325321"
       cy="35.445511"
       r="1.5" />
    <circle
       style="display:inline;fill:none;fill-opacity:1;stroke:#5f5f5f;stroke-width:0.02500001;stroke-miterlimit:4;stroke-dasharray:none;stroke-opacity:1"
       id="path826-18-5"
       cx="41.046474"
       cy="30.080128"
       r="1.5" />
    <circle
       style="display:inline;fill:none;fill-opacity:1;stroke:#5f5f5f;stroke-width:0.02500001;stroke-miterlimit:4;stroke-dasharray:none;stroke-opacity:1"
       id="path826-75-2"
       cx="41.650642"
       cy="28.033653"
       r="1.5" />
    <circle
       style="display:inline;fill:none;fill-opacity:1;stroke:#5f5f5f;stroke-width:0.02500001;stroke-miterlimit:4;stroke-dasharray:none;stroke-opacity:1"
       id="path826-83-1"
       cx="39.243591"
       cy="33.645832"
       r="1.5" />
    <circle
       style="display:inline;fill:none;fill-opacity:1;stroke:#5f5f5f;stroke-width:0.02500001;stroke-miterlimit:4;stroke-dasharray:none;stroke-opacity:1"
       id="path826-92-5"
       cx="38.10096"
       cy="12.982372"
       r="1.5" />
    <circle
       style="display:inline;fill:none;fill-opacity:1;stroke:#5f5f5f;stroke-width:0.02500001;stroke-miterlimit:4;stroke-dasharray:none;stroke-opacity:1"
       id="path826-03-5"
       cx="40.495193"
       cy="16.915064"
       r="1.5" />
    <circle
       style="display:inline;fill:none;fill-opacity:1;stroke:#5f5f5f;stroke-width:0.02500001;stroke-miterlimit:4;stroke-dasharray:none;stroke-opacity:1"
       id="path826-82-0"
       cx="39.370193"
       cy="14.791666"
       r="1.5" />
    <circle
       style="display:inline;fill:none;fill-opacity:1;stroke:#5f5f5f;stroke-width:0.02500001;stroke-miterlimit:4;stroke-dasharray:none;stroke-opacity:1"
       id="path826-18-55"
       cx="41.169872"
       cy="18.320513"
       r="1.5" />
    <circle
       style="display:inline;fill:none;fill-opacity:1;stroke:#5f5f5f;stroke-width:0.02500001;stroke-miterlimit:4;stroke-dasharray:none;stroke-opacity:1"
       id="path826-75-9"
       cx="41.894234"
       cy="22.083334"
       r="1.5" />
    <circle
       style="display:inline;fill:none;fill-opacity:1;stroke:#5f5f5f;stroke-width:0.02500001;stroke-miterlimit:4;stroke-dasharray:none;stroke-opacity:1"
       id="path826-83-0"
       cx="41.490383"
       cy="19.842947"
       r="1.5" />
    <circle
       style="display:inline;fill:none;fill-opacity:1;stroke:#5f5f5f;stroke-width:0.02500001;stroke-miterlimit:4;stroke-dasharray:none;stroke-opacity:1"
       id="path826-92-0"
       cx="26.118587"
       cy="6.2516026"
       r="1.5" />
    <circle
       style="display:inline;fill:none;fill-opacity:1;stroke:#5f5f5f;stroke-width:0.02500001;stroke-miterlimit:4;stroke-dasharray:none;stroke-opacity:1"
       id="path826-03-92"
       cx="31.878204"
       cy="7.8205137"
       r="1.5" />
    <circle
       style="display:inline;fill:none;fill-opacity:1;stroke:#5f5f5f;stroke-width:0.02500001;stroke-miterlimit:4;stroke-dasharray:none;stroke-opacity:1"
       id="path826-82-4"
       cx="35.320515"
       cy="9.7836533"
       r="1.5" />
    <circle
       style="display:inline;fill:none;fill-opacity:1;stroke:#5f5f5f;stroke-width:0.02500001;stroke-miterlimit:4;stroke-dasharray:none;stroke-opacity:1"
       id="path826-18-0"
       cx="29.948717"
       cy="7.1025634"
       r="1.5" />
    <circle
       style="display:inline;fill:none;fill-opacity:1;stroke:#5f5f5f;stroke-width:0.02500001;stroke-miterlimit:4;stroke-dasharray:none;stroke-opacity:1"
       id="path826-75-46"
       cx="28.229168"
       cy="6.4983978"
       r="1.5" />
    <circle
       style="display:inline;fill:none;fill-opacity:1;stroke:#5f5f5f;stroke-width:0.02500001;stroke-miterlimit:4;stroke-dasharray:none;stroke-opacity:1"
       id="path826-83-97"
       cx="33.594551"
       cy="8.7451916"
       r="1.5" />
    <circle
       style="display:inline;fill:none;fill-opacity:1;stroke:#5f5f5f;stroke-width:0.02500001;stroke-miterlimit:4;stroke-dasharray:none;stroke-opacity:1"
       id="path826-92-6"
       cx="15.858974"
       cy="7.4519238"
       r="1.5" />
    <circle
       style="display:inline;fill:none;fill-opacity:1;stroke:#5f5f5f;stroke-width:0.02500001;stroke-miterlimit:4;stroke-dasharray:none;stroke-opacity:1"
       id="path826-03-4"
       cx="12.764423"
       cy="9.8221159"
       r="1.5" />
    <circle
       style="display:inline;fill:none;fill-opacity:1;stroke:#5f5f5f;stroke-width:0.02500001;stroke-miterlimit:4;stroke-dasharray:none;stroke-opacity:1"
       id="path826-82-8"
       cx="17.608974"
       cy="6.7371798"
       r="1.5" />
    <circle
       style="display:inline;fill:none;fill-opacity:1;stroke:#5f5f5f;stroke-width:0.02500001;stroke-miterlimit:4;stroke-dasharray:none;stroke-opacity:1"
       id="path826-18-1"
       cx="21.8125"
       cy="6.0192304"
       r="1.5" />
    <circle
       style="display:inline;fill:none;fill-opacity:1;stroke:#5f5f5f;stroke-width:0.02500001;stroke-miterlimit:4;stroke-dasharray:none;stroke-opacity:1"
       id="path826-75-29"
       cx="14.443911"
       cy="8.500001"
       r="1.5" />
    <circle
       style="display:inline;fill:none;fill-opacity:1;stroke:#5f5f5f;stroke-width:0.02500001;stroke-miterlimit:4;stroke-dasharray:none;stroke-opacity:1"
       id="path826-83-3"
       cx="19.729166"
       cy="6.4599357"
       r="1.5" />
    <circle
       style="display:inline;fill:none;fill-opacity:1;stroke:#5f5f5f;stroke-width:0.02500001;stroke-miterlimit:4;stroke-dasharray:none;stroke-opacity:1"
       id="path826-92-85"
       cx="8.0625"
       cy="15.171474"
       r="1.5" />
    <circle
       style="display:inline;fill:none;fill-opacity:1;stroke:#5f5f5f;stroke-width:0.02500001;stroke-miterlimit:4;stroke-dasharray:none;stroke-opacity:1"
       id="path826-03-920"
       cx="6.0897441"
       cy="21.66827"
       r="1.5" />
    <circle
       style="display:inline;fill:none;fill-opacity:1;stroke:#5f5f5f;stroke-width:0.02500001;stroke-miterlimit:4;stroke-dasharray:none;stroke-opacity:1"
       id="path826-82-68"
       cx="8.9711542"
       cy="13.615385"
       r="1.5" />
    <circle
       style="display:inline;fill:none;fill-opacity:1;stroke:#5f5f5f;stroke-width:0.02500001;stroke-miterlimit:4;stroke-dasharray:none;stroke-opacity:1"
       id="path826-18-6"
       cx="6.4439101"
       cy="19.427883"
       r="1.5" />
    <circle
       style="display:inline;fill:none;fill-opacity:1;stroke:#5f5f5f;stroke-width:0.02500001;stroke-miterlimit:4;stroke-dasharray:none;stroke-opacity:1"
       id="path826-75-7"
       cx="9.8525639"
       cy="12.253206"
       r="1.5" />
    <circle
       style="display:inline;fill:none;fill-opacity:1;stroke:#5f5f5f;stroke-width:0.02500001;stroke-miterlimit:4;stroke-dasharray:none;stroke-opacity:1"
       id="path826-83-4"
       cx="7.0048075"
       cy="17.22436"
       r="1.5" />
  </g>
  <g
     inkscape:groupmode="layer"
     id="layer3"
     inkscape:label="Diags"
     style="display:inline" />
</svg>
