999
dxfrw 0.6.3
  0
SECTION
  2
HEADER
  9
$ACADVER
  1
AC1021
  9
$DWGCODEPAGE
  3
ANSI_1252
  9
$INSBASE
 10
0
 20
0
 30
0
  9
$EXTMIN
 10
-37.96865963598766
 20
-80.51763809020504
 30
0
  9
$EXTMAX
 10
78.45750223426212
 20
116.0749445387018
 30
0
  9
$LIMMIN
 10
0
 20
0
  9
$LIMMAX
 10
420
 20
297
  9
$ORTHOMODE
 70
    0
  9
$REGENMODE
 70
    1
  9
$FILLMODE
 70
    1
  9
$QTEXTMODE
 70
    0
  9
$MIRRTEXT
 70
    0
  9
$LTSCALE
 40
1
  9
$ATTMODE
 70
    0
  9
$TEXTSIZE
 40
2.5
  9
$TRACEWID
 40
15.68
  9
$TEXTSTYLE
  7
STANDARD
  9
$CLAYER
  8
DIM Green Canes
  9
$CELTYPE
  6
BYLAYER
  9
$CECOLOR
 62
  256
  9
$CELTSCALE
 40
1
  9
$DISPSILH
 70
    0
  9
$DIMSCALE
 40
1
  9
$DIMASZ
 40
0.5
  9
$DIMEXO
 40
0.1
  9
$DIMDLI
 40
3.75
  9
$DIMRND
 40
0
  9
$DIMDLE
 40
0
  9
$DIMEXE
 40
0.05
  9
$DIMTP
 40
0
  9
$DIMTM
 40
0
  9
$DIMTXT
 40
0.75
  9
$DIMCEN
 40
2.5
  9
$DIMTSZ
 40
0
  9
$DIMTOL
 70
    0
  9
$DIMLIM
 70
    0
  9
$DIMTIH
 70
    0
  9
$DIMTOH
 70
    0
  9
$DIMSE1
 70
    0
  9
$DIMSE2
 70
    0
  9
$DIMTAD
 70
    1
  9
$DIMZIN
 70
    8
  9
$DIMBLK
  1

  9
$DIMASO
 70
    1
  9
$DIMSHO
 70
    1
  9
$DIMPOST
  1

  9
$DIMAPOST
  1

  9
$DIMALT
 70
    0
  9
$DIMALTD
 70
    3
  9
$DIMALTF
 40
0.03937
  9
$DIMLFAC
 40
1
  9
$DIMTOFL
 70
    1
  9
$DIMTVP
 40
0
  9
$DIMTIX
 70
    0
  9
$DIMSOXD
 70
    0
  9
$DIMSAH
 70
    0
  9
$DIMBLK1
  1

  9
$DIMBLK2
  1

  9
$DIMSTYLE
  2
STANDARD
  9
$DIMCLRD
 70
    0
  9
$DIMCLRE
 70
    0
  9
$DIMCLRT
 70
    0
  9
$DIMTFAC
 40
1
  9
$DIMGAP
 40
0.1
  9
$DIMJUST
 70
    0
  9
$DIMSD1
 70
    0
  9
$DIMSD2
 70
    0
  9
$DIMTOLJ
 70
    0
  9
$DIMTZIN
 70
    8
  9
$DIMALTZ
 70
    0
  9
$DIMALTTZ
 70
    0
  9
$DIMUPT
 70
    0
  9
$DIMDEC
 70
    4
  9
$DIMTDEC
 70
    2
  9
$DIMALTU
 70
    2
  9
$DIMALTTD
 70
    3
  9
$DIMTXSTY
  7
standard
  9
$DIMAUNIT
 70
    0
  9
$DIMADEC
 70
    2
  9
$DIMALTRND
 40
0
  9
$DIMAZIN
 70
    0
  9
$DIMDSEP
 70
    0
  9
$DIMATFIT
 70
    3
  9
$DIMFRAC
 70
    0
  9
$DIMLDRBLK
  1
STANDARD
  9
$DIMLUNIT
 70
    2
  9
$DIMLWD
 70
   -2
  9
$DIMLWE
 70
   -2
  9
$DIMTMOVE
 70
    0
  9
$DIMFXL
 40
0.04
  9
$DIMFXLON
 70
    0
  9
$DIMJOGANG
 40
0.7854
  9
$DIMTFILL
 70
    0
  9
$DIMTFILLCLR
 70
    0
  9
$DIMARCSYM
 70
    0
  9
$DIMLTYPE
  6

  9
$DIMLTEX1
  6

  9
$DIMLTEX2
  6

  9
$LUNITS
 70
    2
  9
$LUPREC
 70
    2
  9
$SKETCHINC
 40
1
  9
$FILLETRAD
 40
0
  9
$AUNITS
 70
    0
  9
$AUPREC
 70
    0
  9
$MENU
  1
.
  9
$ELEVATION
 40
0
  9
$PELEVATION
 40
0
  9
$THICKNESS
 40
0
  9
$LIMCHECK
 70
    0
  9
$CHAMFERA
 40
0
  9
$CHAMFERB
 40
0
  9
$CHAMFERC
 40
0
  9
$CHAMFERD
 40
0
  9
$SKPOLY
 70
    0
  9
$USRTIMER
 70
    1
  9
$ANGBASE
 50
0
  9
$ANGDIR
 70
    0
  9
$PDMODE
 70
   34
  9
$PDSIZE
 40
0
  9
$PLINEWID
 40
0
  9
$SPLFRAME
 70
    0
  9
$SPLINETYPE
 70
    2
  9
$SPLINESEGS
 70
    8
  9
$HANDSEED
  5
20000
  9
$SURFTAB1
 70
    6
  9
$SURFTAB2
 70
    6
  9
$SURFTYPE
 70
    6
  9
$SURFU
 70
    6
  9
$SURFV
 70
    6
  9
$UCSBASE
  2

  9
$UCSNAME
  2

  9
$UCSORG
 10
0
 20
0
 30
0
  9
$UCSXDIR
 10
1
 20
0
 30
0
  9
$UCSYDIR
 10
0
 20
1
 30
0
  9
$UCSORTHOREF
  2

  9
$UCSORTHOVIEW
 70
    0
  9
$UCSORGTOP
 10
0
 20
0
 30
0
  9
$UCSORGBOTTOM
 10
0
 20
0
 30
0
  9
$UCSORGLEFT
 10
0
 20
0
 30
0
  9
$UCSORGRIGHT
 10
0
 20
0
 30
0
  9
$UCSORGFRONT
 10
0
 20
0
 30
0
  9
$UCSORGBACK
 10
0
 20
0
 30
0
  9
$PUCSBASE
  2

  9
$PUCSNAME
  2

  9
$PUCSORG
 10
0
 20
0
 30
0
  9
$PUCSXDIR
 10
1
 20
0
 30
0
  9
$PUCSYDIR
 10
0
 20
1
 30
0
  9
$PUCSORTHOREF
  2

  9
$PUCSORTHOVIEW
 70
    0
  9
$PUCSORGTOP
 10
0
 20
0
 30
0
  9
$PUCSORGBOTTOM
 10
0
 20
0
 30
0
  9
$PUCSORGLEFT
 10
0
 20
0
 30
0
  9
$PUCSORGRIGHT
 10
0
 20
0
 30
0
  9
$PUCSORGFRONT
 10
0
 20
0
 30
0
  9
$PUCSORGBACK
 10
0
 20
0
 30
0
  9
$USERI1
 70
    0
  9
$USERI2
 70
    0
  9
$USERI3
 70
    0
  9
$USERI4
 70
    0
  9
$USERI5
 70
    0
  9
$USERR1
 40
0
  9
$USERR2
 40
0
  9
$USERR3
 40
0
  9
$USERR4
 40
0
  9
$USERR5
 40
0
  9
$WORLDVIEW
 70
    1
  9
$SHADEDGE
 70
    3
  9
$SHADEDIF
 70
   70
  9
$TILEMODE
 70
    1
  9
$MAXACTVP
 70
   64
  9
$PINSBASE
 10
0
 20
0
 30
0
  9
$PLIMCHECK
 70
    0
  9
$PEXTMIN
 10
0
 20
0
 30
0
  9
$PEXTMAX
 10
0
 20
0
 30
0
  9
$GRIDMODE
 70
    1
  9
$SNAPSTYLE
 70
    0
  9
$GRIDUNIT
 10
1
 20
1
  9
$PLIMMIN
 10
0
 20
0
  9
$PLIMMAX
 10
1.640419947506562
 20
1.158136482939633
  9
$UNITMODE
 70
    0
  9
$VISRETAIN
 70
    1
  9
$PLINEGEN
 70
    0
  9
$PSLTSCALE
 70
    1
  9
$TREEDEPTH
 70
 3020
  9
$CMLSTYLE
  2
Standard
  9
$CMLJUST
 70
    0
  9
$CMLSCALE
 40
20
  9
$PROXYGRAPHICS
 70
    1
  9
$MEASUREMENT
 70
    1
  9
$CELWEIGHT
370
   -1
  9
$ENDCAPS
280
    0
  9
$JOINSTYLE
280
    0
  9
$LWDISPLAY
290
    0
  9
$INSUNITS
 70
    2
  9
$HYPERLINKBASE
  1

  9
$STYLESHEET
  1

  9
$XEDIT
290
    1
  9
$CEPSNTYPE
380
    0
  9
$PSTYLEMODE
290
    1
  9
$EXTNAMES
290
    1
  9
$PSVPSCALE
 40
1
  9
$OLESTARTUP
290
    0
  9
$SORTENTS
280
  127
  9
$INDEXCTL
280
    0
  9
$HIDETEXT
280
    1
  9
$XCLIPFRAME
290
    0
  9
$HALOGAP
280
    0
  9
$OBSCOLOR
 70
  257
  9
$OBSLTYPE
280
    0
  9
$INTERSECTIONDISPLAY
280
    0
  9
$INTERSECTIONCOLOR
 70
  257
  9
$DIMASSOC
280
    1
  9
$PROJECTNAME
  1

  9
$CAMERADISPLAY
290
    0
  9
$LENSLENGTH
 40
50
  9
$CAMERAHEIGHT
 40
0
  9
$STEPSPERSEC
 40
2
  9
$STEPSIZE
 40
50
  9
$3DDWFPREC
 40
2
  9
$PSOLWIDTH
 40
5
  9
$PSOLHEIGHT
 40
80
  9
$LOFTANG1
 40
1.570796326794897
  9
$LOFTANG2
 40
1.570796326794897
  9
$LOFTMAG1
 40
0
  9
$LOFTMAG2
 40
0
  9
$LOFTPARAM
 70
    7
  9
$LOFTNORMALS
280
    1
  9
$LATITUDE
 40
1
  9
$LONGITUDE
 40
1
  9
$NORTHDIRECTION
 40
0
  9
$TIMEZONE
 70
-8000
  9
$LIGHTGLYPHDISPLAY
280
    1
  9
$TILEMODELIGHTSYNCH
280
    1
  9
$SOLIDHIST
280
    1
  9
$SHOWHIST
280
    1
  9
$DWFFRAME
280
    2
  9
$DGNFRAME
280
    0
  9
$REALWORLDSCALE
290
    1
  9
$INTERFERECOLOR
 62
    1
  9
$CSHADOW
280
    0
  9
$SHADOWPLANELOCATION
 40
0
  0
ENDSEC
  0
SECTION
  2
CLASSES
  0
ENDSEC
  0
SECTION
  2
TABLES
  0
TABLE
  2
VPORT
  5
8
330
0
100
AcDbSymbolTable
 70
    1
  0
VPORT
  5
31
330
2
100
AcDbSymbolTableRecord
100
AcDbViewportTableRecord
  2
*ACTIVE
 70
    0
 10
0
 20
0
 11
1
 21
1
 12
38.79107125145992
 22
13.07634498637923
 13
0
 23
0
 14
10
 24
10
 15
1
 25
1
 16
0
 26
0
 36
1
 17
0
 27
0
 37
0
 40
45.54822559848842
 41
2.616758241758242
 42
50
 43
0
 44
0
 50
0
 51
0
 71
    0
 72
  100
 73
    1
 74
    3
 75
    0
 76
    1
 77
    0
 78
    0
281
    0
 65
    1
110
0
120
0
130
0
111
1
121
0
131
0
112
0
122
1
132
0
 79
    0
146
0
348
10020
 60
    3
 61
    5
292
1
282
    1
141
0
142
0
 63
  250
421
3358443
  0
ENDTAB
  0
TABLE
  2
LTYPE
  5
5
330
0
100
AcDbSymbolTable
 70
    4
  0
LTYPE
  5
14
330
5
100
AcDbSymbolTableRecord
100
AcDbLinetypeTableRecord
  2
ByBlock
 70
    0
  3

 72
   65
 73
    0
 40
0
  0
LTYPE
  5
15
330
5
100
AcDbSymbolTableRecord
100
AcDbLinetypeTableRecord
  2
ByLayer
 70
    0
  3

 72
   65
 73
    0
 40
0
  0
LTYPE
  5
16
330
5
100
AcDbSymbolTableRecord
100
AcDbLinetypeTableRecord
  2
Continuous
 70
    0
  3
Solid line
 72
   65
 73
    0
 40
0
  0
LTYPE
  5
32
330
5
100
AcDbSymbolTableRecord
100
AcDbLinetypeTableRecord
  2
DOT
 70
    0
  3
Dot . . . . . . . . . . . . . . . . . . . . . .
 72
   65
 73
    2
 40
6.35
 49
0
 74
    0
 49
-6.35
 74
    0
  0
LTYPE
  5
33
330
5
100
AcDbSymbolTableRecord
100
AcDbLinetypeTableRecord
  2
DOTTINY
 70
    0
  3
Dot (.15x) .....................................
 72
   65
 73
    2
 40
0.9525
 49
0
 74
    0
 49
-0.9525
 74
    0
  0
LTYPE
  5
34
330
5
100
AcDbSymbolTableRecord
100
AcDbLinetypeTableRecord
  2
DOT2
 70
    0
  3
Dot (.5x) .....................................
 72
   65
 73
    2
 40
3.175
 49
0
 74
    0
 49
-3.175
 74
    0
  0
LTYPE
  5
35
330
5
100
AcDbSymbolTableRecord
100
AcDbLinetypeTableRecord
  2
DOTX2
 70
    0
  3
Dot (2x) .  .  .  .  .  .  .  .  .  .  .  .  .
 72
   65
 73
    2
 40
12.7
 49
0
 74
    0
 49
-12.7
 74
    0
  0
LTYPE
  5
36
330
5
100
AcDbSymbolTableRecord
100
AcDbLinetypeTableRecord
  2
DASHED
 70
    0
  3
Dashed _ _ _ _ _ _ _ _ _ _ _ _ _ _ _ _ _
 72
   65
 73
    2
 40
19.05
 49
12.7
 74
    0
 49
-6.35
 74
    0
  0
LTYPE
  5
37
330
5
100
AcDbSymbolTableRecord
100
AcDbLinetypeTableRecord
  2
DASHEDTINY
 70
    0
  3
Dashed (.15x) _ _ _ _ _ _ _ _ _ _ _ _ _ _ _ _ _
 72
   65
 73
    2
 40
2.8575
 49
1.905
 74
    0
 49
-0.9525
 74
    0
  0
LTYPE
  5
38
330
5
100
AcDbSymbolTableRecord
100
AcDbLinetypeTableRecord
  2
DASHED2
 70
    0
  3
Dashed (.5x) _ _ _ _ _ _ _ _ _ _ _ _ _ _ _ _ _
 72
   65
 73
    2
 40
9.524999999999999
 49
6.35
 74
    0
 49
-3.175
 74
    0
  0
LTYPE
  5
39
330
5
100
AcDbSymbolTableRecord
100
AcDbLinetypeTableRecord
  2
DASHEDX2
 70
    0
  3
Dashed (2x) ____  ____  ____  ____  ____  ___
 72
   65
 73
    2
 40
38.09999999999999
 49
25.4
 74
    0
 49
-12.7
 74
    0
  0
LTYPE
  5
3A
330
5
100
AcDbSymbolTableRecord
100
AcDbLinetypeTableRecord
  2
DASHDOT
 70
    0
  3
Dash dot __ . __ . __ . __ . __ . __ . __ . __
 72
   65
 73
    4
 40
25.4
 49
12.7
 74
    0
 49
-6.35
 74
    0
 49
0
 74
    0
 49
-6.35
 74
    0
  0
LTYPE
  5
3B
330
5
100
AcDbSymbolTableRecord
100
AcDbLinetypeTableRecord
  2
DASHDOTTINY
 70
    0
  3
Dash dot (.15x) _._._._._._._._._._._._._._._.
 72
   65
 73
    4
 40
3.81
 49
1.905
 74
    0
 49
-0.9525
 74
    0
 49
0
 74
    0
 49
-0.9525
 74
    0
  0
LTYPE
  5
3C
330
5
100
AcDbSymbolTableRecord
100
AcDbLinetypeTableRecord
  2
DASHDOT2
 70
    0
  3
Dash dot (.5x) _._._._._._._._._._._._._._._.
 72
   65
 73
    4
 40
12.7
 49
6.35
 74
    0
 49
-3.175
 74
    0
 49
0
 74
    0
 49
-3.175
 74
    0
  0
LTYPE
  5
3D
330
5
100
AcDbSymbolTableRecord
100
AcDbLinetypeTableRecord
  2
DASHDOTX2
 70
    0
  3
Dash dot (2x) ____  .  ____  .  ____  .  ___
 72
   65
 73
    4
 40
50.8
 49
25.4
 74
    0
 49
-12.7
 74
    0
 49
0
 74
    0
 49
-12.7
 74
    0
  0
LTYPE
  5
3E
330
5
100
AcDbSymbolTableRecord
100
AcDbLinetypeTableRecord
  2
DIVIDE
 70
    0
  3
Divide ____ . . ____ . . ____ . . ____ . . ____
 72
   65
 73
    6
 40
31.75
 49
12.7
 74
    0
 49
-6.35
 74
    0
 49
0
 74
    0
 49
-6.35
 74
    0
 49
0
 74
    0
 49
-6.35
 74
    0
  0
LTYPE
  5
3F
330
5
100
AcDbSymbolTableRecord
100
AcDbLinetypeTableRecord
  2
DIVIDETINY
 70
    0
  3
Divide (.15x) __..__..__..__..__..__..__..__.._
 72
   65
 73
    6
 40
4.7625
 49
1.905
 74
    0
 49
-0.9525
 74
    0
 49
0
 74
    0
 49
-0.9525
 74
    0
 49
0
 74
    0
 49
-0.9525
 74
    0
  0
LTYPE
  5
40
330
5
100
AcDbSymbolTableRecord
100
AcDbLinetypeTableRecord
  2
DIVIDE2
 70
    0
  3
Divide (.5x) __..__..__..__..__..__..__..__.._
 72
   65
 73
    6
 40
15.875
 49
6.35
 74
    0
 49
-3.175
 74
    0
 49
0
 74
    0
 49
-3.175
 74
    0
 49
0
 74
    0
 49
-3.175
 74
    0
  0
LTYPE
  5
41
330
5
100
AcDbSymbolTableRecord
100
AcDbLinetypeTableRecord
  2
DIVIDEX2
 70
    0
  3
Divide (2x) ________  .  .  ________  .  .  _
 72
   65
 73
    6
 40
63.5
 49
25.4
 74
    0
 49
-12.7
 74
    0
 49
0
 74
    0
 49
-12.7
 74
    0
 49
0
 74
    0
 49
-12.7
 74
    0
  0
LTYPE
  5
42
330
5
100
AcDbSymbolTableRecord
100
AcDbLinetypeTableRecord
  2
BORDER
 70
    0
  3
Border __ __ . __ __ . __ __ . __ __ . __ __ .
 72
   65
 73
    6
 40
44.45
 49
12.7
 74
    0
 49
-6.35
 74
    0
 49
12.7
 74
    0
 49
-6.35
 74
    0
 49
0
 74
    0
 49
-6.35
 74
    0
  0
LTYPE
  5
43
330
5
100
AcDbSymbolTableRecord
100
AcDbLinetypeTableRecord
  2
BORDERTINY
 70
    0
  3
Border (.15x) __.__.__.__.__.__.__.__.__.__.__.
 72
   65
 73
    6
 40
6.6675
 49
1.905
 74
    0
 49
-0.9525
 74
    0
 49
1.905
 74
    0
 49
-0.9525
 74
    0
 49
0
 74
    0
 49
-0.9525
 74
    0
  0
LTYPE
  5
44
330
5
100
AcDbSymbolTableRecord
100
AcDbLinetypeTableRecord
  2
BORDER2
 70
    0
  3
Border (.5x) __.__.__.__.__.__.__.__.__.__.__.
 72
   65
 73
    6
 40
22.225
 49
6.35
 74
    0
 49
-3.175
 74
    0
 49
6.35
 74
    0
 49
-3.175
 74
    0
 49
0
 74
    0
 49
-3.175
 74
    0
  0
LTYPE
  5
45
330
5
100
AcDbSymbolTableRecord
100
AcDbLinetypeTableRecord
  2
BORDERX2
 70
    0
  3
Border (2x) ____  ____  .  ____  ____  .  ___
 72
   65
 73
    6
 40
88.89999999999999
 49
25.4
 74
    0
 49
-12.7
 74
    0
 49
25.4
 74
    0
 49
-12.7
 74
    0
 49
0
 74
    0
 49
-12.7
 74
    0
  0
LTYPE
  5
46
330
5
100
AcDbSymbolTableRecord
100
AcDbLinetypeTableRecord
  2
CENTER
 70
    0
  3
Center ____ _ ____ _ ____ _ ____ _ ____ _ ____
 72
   65
 73
    4
 40
50.8
 49
31.75
 74
    0
 49
-6.35
 74
    0
 49
6.35
 74
    0
 49
-6.35
 74
    0
  0
LTYPE
  5
47
330
5
100
AcDbSymbolTableRecord
100
AcDbLinetypeTableRecord
  2
CENTERTINY
 70
    0
  3
Center (.15x) ___ _ ___ _ ___ _ ___ _ ___ _ ___
 72
   65
 73
    4
 40
7.619999999999999
 49
4.7625
 74
    0
 49
-0.9525
 74
    0
 49
0.9525
 74
    0
 49
-0.9525
 74
    0
  0
LTYPE
  5
48
330
5
100
AcDbSymbolTableRecord
100
AcDbLinetypeTableRecord
  2
CENTER2
 70
    0
  3
Center (.5x) ___ _ ___ _ ___ _ ___ _ ___ _ ___
 72
   65
 73
    4
 40
28.575
 49
19.05
 74
    0
 49
-3.175
 74
    0
 49
3.175
 74
    0
 49
-3.175
 74
    0
  0
LTYPE
  5
49
330
5
100
AcDbSymbolTableRecord
100
AcDbLinetypeTableRecord
  2
CENTERX2
 70
    0
  3
Center (2x) ________  __  ________  __  _____
 72
   65
 73
    4
 40
101.6
 49
63.5
 74
    0
 49
-12.7
 74
    0
 49
12.7
 74
    0
 49
-12.7
 74
    0
  0
ENDTAB
  0
TABLE
  2
LAYER
  5
2
330
0
100
AcDbSymbolTable
 70
    1
  0
LAYER
  5
10
330
2
100
AcDbSymbolTableRecord
100
AcDbLayerTableRecord
  2
0
 70
    1
 62
  253
420
10526884
  6
CONTINUOUS
370
    0
390
F
  0
LAYER
  5
4A
330
2
100
AcDbSymbolTableRecord
100
AcDbLayerTableRecord
  2
1st Main Layer
 70
    0
 62
    7
  6
CONTINUOUS
370
   13
390
F
  0
LAYER
  5
4B
330
2
100
AcDbSymbolTableRecord
100
AcDbLayerTableRecord
  2
Big Trees
 70
    0
 62
   96
420
32768
  6
CONTINUOUS
370
   25
390
F
  0
LAYER
  5
4C
330
2
100
AcDbSymbolTableRecord
100
AcDbLayerTableRecord
  2
Curb
 70
    1
 62
    8
  6
CONTINUOUS
370
   13
390
F
  0
LAYER
  5
4D
330
2
100
AcDbSymbolTableRecord
100
AcDbLayerTableRecord
  2
DIM Big Trees
 70
    0
 62
   96
420
32768
  6
CONTINUOUS
370
   13
390
F
  0
LAYER
  5
4E
330
2
100
AcDbSymbolTableRecord
100
AcDbLayerTableRecord
  2
DIM Green Canes
 70
    0
 62
    3
  6
CONTINUOUS
370
   13
390
F
  0
LAYER
  5
4F
330
2
100
AcDbSymbolTableRecord
100
AcDbLayerTableRecord
  2
DIM Red Canes
 70
    0
 62
    1
  6
CONTINUOUS
370
   13
390
F
  0
LAYER
  5
50
330
2
100
AcDbSymbolTableRecord
100
AcDbLayerTableRecord
  2
DIM Red Mini Trees
 70
    0
 62
   16
420
8388608
  6
CONTINUOUS
370
   13
390
F
  0
LAYER
  5
51
330
2
100
AcDbSymbolTableRecord
100
AcDbLayerTableRecord
  2
DIM Tom Trees Row A
 70
    0
 62
    5
  6
CONTINUOUS
370
   13
390
F
  0
LAYER
  5
52
330
2
100
AcDbSymbolTableRecord
100
AcDbLayerTableRecord
  2
DIM Tom Trees Row B
 70
    0
 62
    6
  6
CONTINUOUS
370
   13
390
F
  0
LAYER
  5
53
330
2
100
AcDbSymbolTableRecord
100
AcDbLayerTableRecord
  2
Green Canes
 70
    0
 62
    3
  6
CONTINUOUS
370
   25
390
F
  0
LAYER
  5
54
330
2
100
AcDbSymbolTableRecord
100
AcDbLayerTableRecord
  2
Property Line
 70
    1
 62
    8
  6
CONTINUOUS
370
   13
390
F
  0
LAYER
  5
55
330
2
100
AcDbSymbolTableRecord
100
AcDbLayerTableRecord
  2
Red Canes
 70
    0
 62
    1
  6
CONTINUOUS
370
   25
390
F
  0
LAYER
  5
56
330
2
100
AcDbSymbolTableRecord
100
AcDbLayerTableRecord
  2
Red Mini Trees
 70
    0
 62
   16
420
8388608
  6
CONTINUOUS
370
   25
390
F
  0
LAYER
  5
57
330
2
100
AcDbSymbolTableRecord
100
AcDbLayerTableRecord
  2
Tom Trees Row A RGBW
 70
    0
 62
    5
  6
CONTINUOUS
370
   25
390
F
  0
LAYER
  5
58
330
2
100
AcDbSymbolTableRecord
100
AcDbLayerTableRecord
  2
Tom Trees Row B VW
 70
    0
 62
    6
  6
CONTINUOUS
370
   25
390
F
  0
ENDTAB
  0
TABLE
  2
STYLE
  5
3
330
0
100
AcDbSymbolTable
 70
    3
  0
STYLE
  5
59
330
2
100
AcDbSymbolTableRecord
100
AcDbTextStyleTableRecord
  2
Standard
 70
    0
 40
0
 41
1
 50
0
 71
    0
 42
1
  3
txt
  4

  0
ENDTAB
  0
TABLE
  2
VIEW
  5
6
330
0
100
AcDbSymbolTable
 70
    0
  0
ENDTAB
  0
TABLE
  2
UCS
  5
7
330
0
100
AcDbSymbolTable
 70
    0
  0
ENDTAB
  0
TABLE
  2
APPID
  5
9
330
0
100
AcDbSymbolTable
 70
    1
  0
APPID
  5
12
330
9
100
AcDbSymbolTableRecord
100
AcDbRegAppTableRecord
  2
ACAD
 70
    0
  0
APPID
  5
5A
330
9
100
AcDbSymbolTableRecord
100
AcDbRegAppTableRecord
  2
LibreCad
 70
    0
  0
ENDTAB
  0
TABLE
  2
DIMSTYLE
  5
A
330
0
100
AcDbSymbolTable
 70
    1
100
AcDbDimStyleTable
 71
    1
  0
DIMSTYLE
105
5B
330
A
100
AcDbSymbolTableRecord
100
AcDbDimStyleTableRecord
  2
Standard
 70
    0
 40
1
 41
0.5
 42
0.1
 43
0.38
 44
0.05
 45
0
 46
0
 47
0
 48
0
 49
0.04
140
0.75
141
0.09
142
0
143
25.4
144
1
145
0
146
1
147
0.1
148
0
 71
    0
 72
    0
 73
    0
 74
    1
 75
    0
 76
    0
 77
    0
 78
    8
 79
    0
170
    0
171
    2
172
    0
173
    0
174
    0
175
    0
176
    0
177
    0
178
    0
179
    2
271
    4
272
    4
273
    2
274
    2
275
    0
276
    0
277
    2
278
    0
279
    0
280
    0
281
    0
282
    0
283
    1
284
    0
285
    0
286
    0
288
    0
289
    3
340
standard
341

371
   -2
372
   -2
  0
ENDTAB
  0
TABLE
  2
BLOCK_RECORD
  5
1
330
0
100
AcDbSymbolTable
 70
    2
  0
BLOCK_RECORD
  5
1F
330
1
100
AcDbSymbolTableRecord
100
AcDbBlockTableRecord
  2
*Model_Space
 70
    0
280
    1
281
    0
  0
BLOCK_RECORD
  5
1E
330
1
100
AcDbSymbolTableRecord
100
AcDbBlockTableRecord
  2
*Paper_Space
 70
    0
280
    1
281
    0
  0
BLOCK_RECORD
  5
5C
330
1
100
AcDbSymbolTableRecord
100
AcDbBlockTableRecord
  2
*D26
 70
    0
280
    1
281
    0
  0
BLOCK_RECORD
  5
5F
330
1
100
AcDbSymbolTableRecord
100
AcDbBlockTableRecord
  2
*D36
 70
    0
280
    1
281
    0
  0
BLOCK_RECORD
  5
62
330
1
100
AcDbSymbolTableRecord
100
AcDbBlockTableRecord
  2
*D12
 70
    0
280
    1
281
    0
  0
BLOCK_RECORD
  5
65
330
1
100
AcDbSymbolTableRecord
100
AcDbBlockTableRecord
  2
*D42
 70
    0
280
    1
281
    0
  0
BLOCK_RECORD
  5
68
330
1
100
AcDbSymbolTableRecord
100
AcDbBlockTableRecord
  2
*D49
 70
    0
280
    1
281
    0
  0
BLOCK_RECORD
  5
6B
330
1
100
AcDbSymbolTableRecord
100
AcDbBlockTableRecord
  2
*D32
 70
    0
280
    1
281
    0
  0
BLOCK_RECORD
  5
6E
330
1
100
AcDbSymbolTableRecord
100
AcDbBlockTableRecord
  2
*D2
 70
    0
280
    1
281
    0
  0
BLOCK_RECORD
  5
71
330
1
100
AcDbSymbolTableRecord
100
AcDbBlockTableRecord
  2
*D11
 70
    0
280
    1
281
    0
  0
BLOCK_RECORD
  5
74
330
1
100
AcDbSymbolTableRecord
100
AcDbBlockTableRecord
  2
*D39
 70
    0
280
    1
281
    0
  0
BLOCK_RECORD
  5
77
330
1
100
AcDbSymbolTableRecord
100
AcDbBlockTableRecord
  2
*D38
 70
    0
280
    1
281
    0
  0
BLOCK_RECORD
  5
7A
330
1
100
AcDbSymbolTableRecord
100
AcDbBlockTableRecord
  2
*D29
 70
    0
280
    1
281
    0
  0
BLOCK_RECORD
  5
7D
330
1
100
AcDbSymbolTableRecord
100
AcDbBlockTableRecord
  2
*D31
 70
    0
280
    1
281
    0
  0
BLOCK_RECORD
  5
80
330
1
100
AcDbSymbolTableRecord
100
AcDbBlockTableRecord
  2
*D5
 70
    0
280
    1
281
    0
  0
BLOCK_RECORD
  5
83
330
1
100
AcDbSymbolTableRecord
100
AcDbBlockTableRecord
  2
*D47
 70
    0
280
    1
281
    0
  0
BLOCK_RECORD
  5
86
330
1
100
AcDbSymbolTableRecord
100
AcDbBlockTableRecord
  2
*D24
 70
    0
280
    1
281
    0
  0
BLOCK_RECORD
  5
89
330
1
100
AcDbSymbolTableRecord
100
AcDbBlockTableRecord
  2
*D30
 70
    0
280
    1
281
    0
  0
BLOCK_RECORD
  5
8C
330
1
100
AcDbSymbolTableRecord
100
AcDbBlockTableRecord
  2
*D1
 70
    0
280
    1
281
    0
  0
BLOCK_RECORD
  5
8F
330
1
100
AcDbSymbolTableRecord
100
AcDbBlockTableRecord
  2
*D41
 70
    0
280
    1
281
    0
  0
BLOCK_RECORD
  5
92
330
1
100
AcDbSymbolTableRecord
100
AcDbBlockTableRecord
  2
*D45
 70
    0
280
    1
281
    0
  0
BLOCK_RECORD
  5
95
330
1
100
AcDbSymbolTableRecord
100
AcDbBlockTableRecord
  2
*D34
 70
    0
280
    1
281
    0
  0
BLOCK_RECORD
  5
98
330
1
100
AcDbSymbolTableRecord
100
AcDbBlockTableRecord
  2
*D6
 70
    0
280
    1
281
    0
  0
BLOCK_RECORD
  5
9B
330
1
100
AcDbSymbolTableRecord
100
AcDbBlockTableRecord
  2
*D33
 70
    0
280
    1
281
    0
  0
BLOCK_RECORD
  5
9E
330
1
100
AcDbSymbolTableRecord
100
AcDbBlockTableRecord
  2
*D22
 70
    0
280
    1
281
    0
  0
BLOCK_RECORD
  5
A1
330
1
100
AcDbSymbolTableRecord
100
AcDbBlockTableRecord
  2
*D16
 70
    0
280
    1
281
    0
  0
BLOCK_RECORD
  5
A4
330
1
100
AcDbSymbolTableRecord
100
AcDbBlockTableRecord
  2
*D40
 70
    0
280
    1
281
    0
  0
BLOCK_RECORD
  5
A7
330
1
100
AcDbSymbolTableRecord
100
AcDbBlockTableRecord
  2
*D48
 70
    0
280
    1
281
    0
  0
BLOCK_RECORD
  5
AA
330
1
100
AcDbSymbolTableRecord
100
AcDbBlockTableRecord
  2
*D10
 70
    0
280
    1
281
    0
  0
BLOCK_RECORD
  5
AD
330
1
100
AcDbSymbolTableRecord
100
AcDbBlockTableRecord
  2
*D15
 70
    0
280
    1
281
    0
  0
BLOCK_RECORD
  5
B0
330
1
100
AcDbSymbolTableRecord
100
AcDbBlockTableRecord
  2
*D3
 70
    0
280
    1
281
    0
  0
BLOCK_RECORD
  5
B3
330
1
100
AcDbSymbolTableRecord
100
AcDbBlockTableRecord
  2
*D43
 70
    0
280
    1
281
    0
  0
BLOCK_RECORD
  5
B6
330
1
100
AcDbSymbolTableRecord
100
AcDbBlockTableRecord
  2
*D35
 70
    0
280
    1
281
    0
  0
BLOCK_RECORD
  5
B9
330
1
100
AcDbSymbolTableRecord
100
AcDbBlockTableRecord
  2
*D46
 70
    0
280
    1
281
    0
  0
BLOCK_RECORD
  5
BC
330
1
100
AcDbSymbolTableRecord
100
AcDbBlockTableRecord
  2
*D27
 70
    0
280
    1
281
    0
  0
BLOCK_RECORD
  5
BF
330
1
100
AcDbSymbolTableRecord
100
AcDbBlockTableRecord
  2
*D21
 70
    0
280
    1
281
    0
  0
BLOCK_RECORD
  5
C2
330
1
100
AcDbSymbolTableRecord
100
AcDbBlockTableRecord
  2
*D14
 70
    0
280
    1
281
    0
  0
BLOCK_RECORD
  5
C5
330
1
100
AcDbSymbolTableRecord
100
AcDbBlockTableRecord
  2
*D18
 70
    0
280
    1
281
    0
  0
BLOCK_RECORD
  5
C8
330
1
100
AcDbSymbolTableRecord
100
AcDbBlockTableRecord
  2
*D20
 70
    0
280
    1
281
    0
  0
BLOCK_RECORD
  5
CB
330
1
100
AcDbSymbolTableRecord
100
AcDbBlockTableRecord
  2
*D44
 70
    0
280
    1
281
    0
  0
BLOCK_RECORD
  5
CE
330
1
100
AcDbSymbolTableRecord
100
AcDbBlockTableRecord
  2
*D17
 70
    0
280
    1
281
    0
  0
BLOCK_RECORD
  5
D1
330
1
100
AcDbSymbolTableRecord
100
AcDbBlockTableRecord
  2
*D37
 70
    0
280
    1
281
    0
  0
BLOCK_RECORD
  5
D4
330
1
100
AcDbSymbolTableRecord
100
AcDbBlockTableRecord
  2
*D19
 70
    0
280
    1
281
    0
  0
BLOCK_RECORD
  5
D7
330
1
100
AcDbSymbolTableRecord
100
AcDbBlockTableRecord
  2
*D28
 70
    0
280
    1
281
    0
  0
BLOCK_RECORD
  5
DA
330
1
100
AcDbSymbolTableRecord
100
AcDbBlockTableRecord
  2
*D25
 70
    0
280
    1
281
    0
  0
BLOCK_RECORD
  5
DD
330
1
100
AcDbSymbolTableRecord
100
AcDbBlockTableRecord
  2
*D13
 70
    0
280
    1
281
    0
  0
BLOCK_RECORD
  5
E0
330
1
100
AcDbSymbolTableRecord
100
AcDbBlockTableRecord
  2
*D8
 70
    0
280
    1
281
    0
  0
BLOCK_RECORD
  5
E3
330
1
100
AcDbSymbolTableRecord
100
AcDbBlockTableRecord
  2
*D7
 70
    0
280
    1
281
    0
  0
BLOCK_RECORD
  5
E6
330
1
100
AcDbSymbolTableRecord
100
AcDbBlockTableRecord
  2
*D23
 70
    0
280
    1
281
    0
  0
BLOCK_RECORD
  5
E9
330
1
100
AcDbSymbolTableRecord
100
AcDbBlockTableRecord
  2
*D9
 70
    0
280
    1
281
    0
  0
BLOCK_RECORD
  5
EC
330
1
100
AcDbSymbolTableRecord
100
AcDbBlockTableRecord
  2
*D4
 70
    0
280
    1
281
    0
  0
BLOCK_RECORD
  5
EF
330
1
100
AcDbSymbolTableRecord
100
AcDbBlockTableRecord
  2
Green Cane H
 70
    0
280
    1
281
    0
  0
BLOCK_RECORD
  5
F2
330
1
100
AcDbSymbolTableRecord
100
AcDbBlockTableRecord
  2
Red Cane H
 70
    0
280
    1
281
    0
  0
BLOCK_RECORD
  5
F5
330
1
100
AcDbSymbolTableRecord
100
AcDbBlockTableRecord
  2
Green Cane V
 70
    0
280
    1
281
    0
  0
BLOCK_RECORD
  5
F8
330
1
100
AcDbSymbolTableRecord
100
AcDbBlockTableRecord
  2
Red Cane V
 70
    0
280
    1
281
    0
  0
ENDTAB
  0
ENDSEC
  0
SECTION
  2
BLOCKS
  0
BLOCK
  5
20
330
1F
100
AcDbEntity
  8
0
100
AcDbBlockBegin
  2
*Model_Space
 70
    0
 10
0
 20
0
 30
0
  3
*Model_Space
  1

  0
ENDBLK
  5
21
330
1F
100
AcDbEntity
  8
0
100
AcDbBlockEnd
  0
BLOCK
  5
1C
330
1B
100
AcDbEntity
  8
0
100
AcDbBlockBegin
  2
*Paper_Space
 70
    0
 10
0
 20
0
 30
0
  3
*Paper_Space
  1

  0
ENDBLK
  5
1D
330
1F
100
AcDbEntity
  8
0
100
AcDbBlockEnd
  0
BLOCK
  5
5D
330
5C
100
AcDbEntity
  8
0
100
AcDbBlockBegin
  2
*D26
 70
    1
 10
0
 20
0
  3
*D26
  1

  0
LINE
  5
FB
100
AcDbEntity
  8
DIM Tom Trees Row A
  6
ByBlock
 62
    0
370
   -2
100
AcDbLine
 10
0
 20
-11
 11
26
 21
-11
  0
SOLID
  5
FC
100
AcDbEntity
  8
DIM Tom Trees Row A
  6
ByBlock
 62
    0
370
   -2
100
AcDbTrace
 10
0
 20
-11
 30
0
 11
0.5
 21
-10.91674306844543
 31
0
 12
0.5
 22
-11.08325693155457
 32
0
 13
0.5
 23
-11.08325693155457
 33
0
  0
SOLID
  5
FD
100
AcDbEntity
  8
DIM Tom Trees Row A
  6
ByBlock
 62
    0
370
   -2
100
AcDbTrace
 10
26
 20
-11
 30
0
 11
25.5
 21
-11.08325693155457
 31
0
 12
25.5
 22
-10.91674306844543
 32
0
 13
25.5
 23
-10.91674306844543
 33
0
  0
MTEXT
  5
FE
100
AcDbEntity
  8
DIM Tom Trees Row A
  6
CONTINUOUS
 62
    0
370
   -2
100
AcDbMText
 10
13
 20
-10.525
 30
0
 40
0.75
 41
0.9166666666667131
 71
    5
 72
    1
  1
26
  7
standard
210
0
220
0
230
1
 50
0
 73
    2
 44
1
  0
LINE
  5
FF
100
AcDbEntity
  8
DIM Tom Trees Row A
  6
ByBlock
 62
    0
370
   -2
100
AcDbLine
 10
-1.83697019872103e-17
 20
-0.1
 11
-9.184850993605149e-18
 21
-11.05
  0
LINE
  5
100
100
AcDbEntity
  8
DIM Tom Trees Row A
  6
ByBlock
 62
    0
370
   -2
100
AcDbLine
 10
26
 20
13.76370330515627
 11
26
 21
-11.05
  0
ENDBLK
  5
5E
330
5C
100
AcDbEntity
  8
0
100
AcDbBlockEnd
  0
BLOCK
  5
60
330
5F
100
AcDbEntity
  8
0
100
AcDbBlockBegin
  2
*D36
 70
    1
 10
0
 20
0
  3
*D36
  1

  0
LINE
  5
101
100
AcDbEntity
  8
DIM Tom Trees Row B
  6
ByBlock
 62
    0
370
   -2
100
AcDbLine
 10
-4
 20
8.267949192431129
 11
-4
 21
2.486899575160351e-16
  0
SOLID
  5
102
100
AcDbEntity
  8
DIM Tom Trees Row B
  6
ByBlock
 62
    0
370
   -2
100
AcDbTrace
 10
-4
 20
8.267949192431129
 30
0
 11
-3.916743068445431
 21
7.767949192431129
 31
0
 12
-4.083256931554567
 22
7.767949192431129
 32
0
 13
-4.083256931554567
 23
7.767949192431129
 33
0
  0
SOLID
  5
103
100
AcDbEntity
  8
DIM Tom Trees Row B
  6
ByBlock
 62
    0
370
   -2
100
AcDbTrace
 10
-4
 20
2.486899575160351e-16
 30
0
 11
-4.083256931554568
 21
0.5000000000000002
 31
0
 12
-3.916743068445432
 22
0.5000000000000002
 32
0
 13
-3.916743068445432
 23
0.5000000000000002
 33
0
  0
MTEXT
  5
104
100
AcDbEntity
  8
DIM Tom Trees Row B
  6
CONTINUOUS
 62
    0
370
   -2
100
AcDbMText
 10
-4.475
 20
4.133974596215564
 30
0
 40
0.75
 41
2.916666666666713
 71
    5
 72
    1
  1
8.2679
  7
standard
210
0
220
0
230
1
 50
90
 73
    2
 44
1
  0
LINE
  5
105
100
AcDbEntity
  8
DIM Tom Trees Row B
  6
ByBlock
 62
    0
370
   -2
100
AcDbLine
 10
40.52033366017796
 20
8.267949192431127
 11
-4.05
 21
8.267949192431129
  0
LINE
  5
106
100
AcDbEntity
  8
DIM Tom Trees Row B
  6
ByBlock
 62
    0
370
   -2
100
AcDbLine
 10
-0.1
 20
1.224646799147353e-17
 11
-4.05
 21
2.548131915117719e-16
  0
ENDBLK
  5
61
330
5F
100
AcDbEntity
  8
0
100
AcDbBlockEnd
  0
BLOCK
  5
63
330
62
100
AcDbEntity
  8
0
100
AcDbBlockBegin
  2
*D12
 70
    1
 10
0
 20
0
  3
*D12
  1

  0
LINE
  5
107
100
AcDbEntity
  8
DIM Green Canes
  6
ByBlock
 62
    0
370
   -2
100
AcDbLine
 10
-2
 20
0
 11
-2
 21
4.441941736473825
  0
SOLID
  5
108
100
AcDbEntity
  8
DIM Green Canes
  6
ByBlock
 62
    0
370
   -2
100
AcDbTrace
 10
-2
 20
0
 30
0
 11
-2.083256931554568
 21
0.5
 31
0
 12
-1.916743068445432
 22
0.5
 32
0
 13
-1.916743068445432
 23
0.5
 33
0
  0
SOLID
  5
109
100
AcDbEntity
  8
DIM Green Canes
  6
ByBlock
 62
    0
370
   -2
100
AcDbTrace
 10
-2
 20
4.441941736473825
 30
0
 11
-1.916743068445432
 21
3.941941736473825
 31
0
 12
-2.083256931554568
 22
3.941941736473825
 32
0
 13
-2.083256931554568
 23
3.941941736473825
 33
0
  0
MTEXT
  5
10A
100
AcDbEntity
  8
DIM Green Canes
  6
CONTINUOUS
 62
    0
370
   -2
100
AcDbMText
 10
-2.475
 20
2.220970868236912
 30
0
 40
0.75
 41
3
 71
    5
 72
    1
  1
4.4419
  7
standard
210
0
220
0
230
1
 50
90
 73
    2
 44
1
  0
LINE
  5
10B
100
AcDbEntity
  8
DIM Green Canes
  6
ByBlock
 62
    0
370
   -2
100
AcDbLine
 10
-0.1
 20
1.224646799147353e-17
 11
-2.05
 21
6.123233995736766e-18
  0
LINE
  5
10C
100
AcDbEntity
  8
DIM Green Canes
  6
ByBlock
 62
    0
370
   -2
100
AcDbLine
 10
0.3419417364738251
 20
4.441941736473825
 11
-2.05
 21
4.441941736473825
  0
ENDBLK
  5
64
330
62
100
AcDbEntity
  8
0
100
AcDbBlockEnd
  0
BLOCK
  5
66
330
65
100
AcDbEntity
  8
0
100
AcDbBlockBegin
  2
*D42
 70
    1
 10
0
 20
0
  3
*D42
  1

  0
LINE
  5
10D
100
AcDbEntity
  8
DIM Tom Trees Row B
  6
ByBlock
 62
    0
370
   -2
100
AcDbLine
 10
-9.999999999999998
 20
17.20980330515627
 11
-10
 21
5.329070518200751e-16
  0
SOLID
  5
10E
100
AcDbEntity
  8
DIM Tom Trees Row B
  6
ByBlock
 62
    0
370
   -2
100
AcDbTrace
 10
-9.999999999999998
 20
17.20980330515627
 30
0
 11
-9.916743068445431
 21
16.70980330515627
 31
0
 12
-10.08325693155457
 22
16.70980330515627
 32
0
 13
-10.08325693155457
 23
16.70980330515627
 33
0
  0
SOLID
  5
10F
100
AcDbEntity
  8
DIM Tom Trees Row B
  6
ByBlock
 62
    0
370
   -2
100
AcDbTrace
 10
-10
 20
5.329070518200751e-16
 30
0
 11
-10.08325693155457
 21
0.5000000000000006
 31
0
 12
-9.916743068445431
 22
0.5000000000000006
 32
0
 13
-9.916743068445431
 23
0.5000000000000006
 33
0
  0
MTEXT
  5
110
100
AcDbEntity
  8
DIM Tom Trees Row B
  6
CONTINUOUS
 62
    0
370
   -2
100
AcDbMText
 10
-10.475
 20
8.604901652578137
 30
0
 40
0.75
 41
3.333333333333333
 71
    5
 72
    1
  1
17.2098
  7
standard
210
0
220
0
230
1
 50
90
 73
    2
 44
1
  0
LINE
  5
111
100
AcDbEntity
  8
DIM Tom Trees Row B
  6
ByBlock
 62
    0
370
   -2
100
AcDbLine
 10
28.8671
 20
17.20980330515627
 11
-10.05
 21
17.20980330515627
  0
LINE
  5
112
100
AcDbEntity
  8
DIM Tom Trees Row B
  6
ByBlock
 62
    0
370
   -2
100
AcDbLine
 10
-0.1
 20
1.224646799147353e-17
 11
-10.05
 21
5.390302858158119e-16
  0
ENDBLK
  5
67
330
65
100
AcDbEntity
  8
0
100
AcDbBlockEnd
  0
BLOCK
  5
69
330
68
100
AcDbEntity
  8
0
100
AcDbBlockBegin
  2
*D49
 70
    1
 10
0
 20
0
  3
*D49
  1

  0
LINE
  5
113
100
AcDbEntity
  8
DIM Green Canes
  6
ByBlock
 62
    0
370
   -2
100
AcDbLine
 10
-7.999999999999999
 20
20
 11
-8
 21
4.973799150320702e-16
  0
SOLID
  5
114
100
AcDbEntity
  8
DIM Green Canes
  6
ByBlock
 62
    0
370
   -2
100
AcDbTrace
 10
-7.999999999999999
 20
20
 30
0
 11
-7.916743068445431
 21
19.5
 31
0
 12
-8.083256931554567
 22
19.5
 32
0
 13
-8.083256931554567
 23
19.5
 33
0
  0
SOLID
  5
115
100
AcDbEntity
  8
DIM Green Canes
  6
ByBlock
 62
    0
370
   -2
100
AcDbTrace
 10
-8
 20
4.973799150320702e-16
 30
0
 11
-8.083256931554567
 21
0.5000000000000004
 31
0
 12
-7.916743068445432
 22
0.5000000000000004
 32
0
 13
-7.916743068445432
 23
0.5000000000000004
 33
0
  0
MTEXT
  5
116
100
AcDbEntity
  8
DIM Green Canes
  6
CONTINUOUS
 62
    0
370
   -2
100
AcDbMText
 10
-8.475
 20
10
 30
0
 40
0.75
 41
0.9166666666666665
 71
    5
 72
    1
  1
20
  7
standard
210
0
220
0
230
1
 50
90
 73
    2
 44
1
  0
LINE
  5
117
100
AcDbEntity
  8
DIM Green Canes
  6
ByBlock
 62
    0
370
   -2
100
AcDbLine
 10
0.5249999974999998
 20
20
 11
-8.049999999999999
 21
20
  0
LINE
  5
118
100
AcDbEntity
  8
DIM Green Canes
  6
ByBlock
 62
    0
370
   -2
100
AcDbLine
 10
-0.1
 20
1.224646799147353e-17
 11
-8.050000000000001
 21
5.03503149027807e-16
  0
ENDBLK
  5
6A
330
68
100
AcDbEntity
  8
0
100
AcDbBlockEnd
  0
BLOCK
  5
6C
330
6B
100
AcDbEntity
  8
0
100
AcDbBlockBegin
  2
*D32
 70
    1
 10
0
 20
0
  3
*D32
  1

  0
LINE
  5
119
100
AcDbEntity
  8
DIM Tom Trees Row B
  6
ByBlock
 62
    0
370
   -2
100
AcDbLine
 10
0
 20
-17
 11
37.5704
 21
-17
  0
SOLID
  5
11A
100
AcDbEntity
  8
DIM Tom Trees Row B
  6
ByBlock
 62
    0
370
   -2
100
AcDbTrace
 10
0
 20
-17
 30
0
 11
0.5
 21
-16.91674306844543
 31
0
 12
0.5
 22
-17.08325693155457
 32
0
 13
0.5
 23
-17.08325693155457
 33
0
  0
SOLID
  5
11B
100
AcDbEntity
  8
DIM Tom Trees Row B
  6
ByBlock
 62
    0
370
   -2
100
AcDbTrace
 10
37.5704
 20
-17
 30
0
 11
37.0704
 21
-17.08325693155457
 31
0
 12
37.0704
 22
-16.91674306844543
 32
0
 13
37.0704
 23
-16.91674306844543
 33
0
  0
MTEXT
  5
11C
100
AcDbEntity
  8
DIM Tom Trees Row B
  6
CONTINUOUS
 62
    0
370
   -2
100
AcDbMText
 10
18.7852
 20
-16.525
 30
0
 40
0.75
 41
3.583333333333426
 71
    5
 72
    1
  1
37.5704
  7
standard
210
0
220
0
230
1
 50
0
 73
    2
 44
1
  0
LINE
  5
11D
100
AcDbEntity
  8
DIM Tom Trees Row B
  6
ByBlock
 62
    0
370
   -2
100
AcDbLine
 10
-1.83697019872103e-17
 20
-0.1
 11
-9.184850993605149e-18
 21
-17.05
  0
LINE
  5
11E
100
AcDbEntity
  8
DIM Tom Trees Row B
  6
ByBlock
 62
    0
370
   -2
100
AcDbLine
 10
37.5704
 20
12.14260330515628
 11
37.5704
 21
-17.05
  0
ENDBLK
  5
6D
330
6B
100
AcDbEntity
  8
0
100
AcDbBlockEnd
  0
BLOCK
  5
6F
330
6E
100
AcDbEntity
  8
0
100
AcDbBlockBegin
  2
*D2
 70
    1
 10
0
 20
0
  3
*D2
  1

  0
LINE
  5
11F
100
AcDbEntity
  8
DIM Red Canes
  6
ByBlock
 62
    0
370
   -2
100
AcDbLine
 10
0
 20
-4
 11
12
 21
-4
  0
SOLID
  5
120
100
AcDbEntity
  8
DIM Red Canes
  6
ByBlock
 62
    0
370
   -2
100
AcDbTrace
 10
0
 20
-4
 30
0
 11
0.5
 21
-3.916743068445432
 31
0
 12
0.5
 22
-4.083256931554568
 32
0
 13
0.5
 23
-4.083256931554568
 33
0
  0
SOLID
  5
121
100
AcDbEntity
  8
DIM Red Canes
  6
ByBlock
 62
    0
370
   -2
100
AcDbTrace
 10
12
 20
-4
 30
0
 11
11.5
 21
-4.083256931554568
 31
0
 12
11.5
 22
-3.916743068445432
 32
0
 13
11.5
 23
-3.916743068445432
 33
0
  0
MTEXT
  5
122
100
AcDbEntity
  8
DIM Red Canes
  6
CONTINUOUS
 62
    0
370
   -2
100
AcDbMText
 10
6
 20
-3.525
 30
0
 40
0.75
 41
0.75
 71
    5
 72
    1
  1
12
  7
standard
210
0
220
0
230
1
 50
0
 73
    2
 44
1
  0
LINE
  5
123
100
AcDbEntity
  8
DIM Red Canes
  6
ByBlock
 62
    0
370
   -2
100
AcDbLine
 10
-1.83697019872103e-17
 20
-0.1
 11
-9.184850993605149e-18
 21
-4.05
  0
LINE
  5
124
100
AcDbEntity
  8
DIM Red Canes
  6
ByBlock
 62
    0
370
   -2
100
AcDbLine
 10
12
 20
3.9
 11
12
 21
-4.05
  0
ENDBLK
  5
70
330
6E
100
AcDbEntity
  8
0
100
AcDbBlockEnd
  0
BLOCK
  5
72
330
71
100
AcDbEntity
  8
0
100
AcDbBlockBegin
  2
*D11
 70
    1
 10
0
 20
0
  3
*D11
  1

  0
LINE
  5
125
100
AcDbEntity
  8
DIM Green Canes
  6
ByBlock
 62
    0
370
   -2
100
AcDbLine
 10
-1
 20
2
 11
1.441941736473825
 21
2
  0
SOLID
  5
126
100
AcDbEntity
  8
DIM Green Canes
  6
ByBlock
 62
    0
370
   -2
100
AcDbTrace
 10
0
 20
2
 30
0
 11
-0.5
 21
1.916743068445432
 31
0
 12
-0.5
 22
2.083256931554568
 32
0
 13
-0.5
 23
2.083256931554568
 33
0
  0
SOLID
  5
127
100
AcDbEntity
  8
DIM Green Canes
  6
ByBlock
 62
    0
370
   -2
100
AcDbTrace
 10
0.4419417364738251
 20
2
 30
0
 11
0.9419417364738252
 21
2.083256931554568
 31
0
 12
0.9419417364738252
 22
1.916743068445432
 32
0
 13
0.9419417364738252
 23
1.916743068445432
 33
0
  0
MTEXT
  5
128
100
AcDbEntity
  8
DIM Green Canes
  6
CONTINUOUS
 62
    0
370
   -2
100
AcDbMText
 10
2.000275069807159
 20
2.475
 30
0
 40
0.75
 41
2.916666666666667
 71
    5
 72
    1
  1
0.4419
  7
standard
210
0
220
0
230
1
 50
0
 73
    2
 44
1
  0
LINE
  5
129
100
AcDbEntity
  8
DIM Green Canes
  6
ByBlock
 62
    0
370
   -2
100
AcDbLine
 10
6.123233995736766e-18
 20
0.1
 11
3.061616997868383e-18
 21
2.05
  0
LINE
  5
12A
100
AcDbEntity
  8
DIM Green Canes
  6
ByBlock
 62
    0
370
   -2
100
AcDbLine
 10
0.4419417364738251
 20
4.341941736473825
 11
0.4419417364738251
 21
1.95
  0
ENDBLK
  5
73
330
71
100
AcDbEntity
  8
0
100
AcDbBlockEnd
  0
BLOCK
  5
75
330
74
100
AcDbEntity
  8
0
100
AcDbBlockBegin
  2
*D39
 70
    1
 10
0
 20
0
  3
*D39
  1

  0
LINE
  5
12B
100
AcDbEntity
  8
DIM Tom Trees Row A
  6
ByBlock
 62
    0
370
   -2
100
AcDbLine
 10
-6.999999999999999
 20
12.82840330515628
 11
-7
 21
4.352074256530614e-16
  0
SOLID
  5
12C
100
AcDbEntity
  8
DIM Tom Trees Row A
  6
ByBlock
 62
    0
370
   -2
100
AcDbTrace
 10
-6.999999999999999
 20
12.82840330515628
 30
0
 11
-6.916743068445431
 21
12.32840330515628
 31
0
 12
-7.083256931554567
 22
12.32840330515628
 32
0
 13
-7.083256931554567
 23
12.32840330515628
 33
0
  0
SOLID
  5
12D
100
AcDbEntity
  8
DIM Tom Trees Row A
  6
ByBlock
 62
    0
370
   -2
100
AcDbTrace
 10
-7
 20
4.352074256530614e-16
 30
0
 11
-7.083256931554568
 21
0.5000000000000004
 31
0
 12
-6.916743068445432
 22
0.5000000000000004
 32
0
 13
-6.916743068445432
 23
0.5000000000000004
 33
0
  0
MTEXT
  5
12E
100
AcDbEntity
  8
DIM Tom Trees Row A
  6
CONTINUOUS
 62
    0
370
   -2
100
AcDbMText
 10
-7.475
 20
6.414201652578138
 30
0
 40
0.75
 41
3.416666666666666
 71
    5
 72
    1
  1
12.8284
  7
standard
210
0
220
0
230
1
 50
90
 73
    2
 44
1
  0
LINE
  5
12F
100
AcDbEntity
  8
DIM Tom Trees Row A
  6
ByBlock
 62
    0
370
   -2
100
AcDbLine
 10
29.7637
 20
12.82840330515628
 11
-7.049999999999999
 21
12.82840330515628
  0
LINE
  5
130
100
AcDbEntity
  8
DIM Tom Trees Row A
  6
ByBlock
 62
    0
370
   -2
100
AcDbLine
 10
-0.1
 20
1.224646799147353e-17
 11
-7.05
 21
4.413306596487982e-16
  0
ENDBLK
  5
76
330
74
100
AcDbEntity
  8
0
100
AcDbBlockEnd
  0
BLOCK
  5
78
330
77
100
AcDbEntity
  8
0
100
AcDbBlockBegin
  2
*D38
 70
    1
 10
0
 20
0
  3
*D38
  1

  0
LINE
  5
131
100
AcDbEntity
  8
DIM Tom Trees Row B
  6
ByBlock
 62
    0
370
   -2
100
AcDbLine
 10
-5.999999999999999
 20
12.24260330515628
 11
-6
 21
3.730349362740525e-16
  0
SOLID
  5
132
100
AcDbEntity
  8
DIM Tom Trees Row B
  6
ByBlock
 62
    0
370
   -2
100
AcDbTrace
 10
-5.999999999999999
 20
12.24260330515628
 30
0
 11
-5.916743068445431
 21
11.74260330515628
 31
0
 12
-6.083256931554567
 22
11.74260330515628
 32
0
 13
-6.083256931554567
 23
11.74260330515628
 33
0
  0
SOLID
  5
133
100
AcDbEntity
  8
DIM Tom Trees Row B
  6
ByBlock
 62
    0
370
   -2
100
AcDbTrace
 10
-6
 20
3.730349362740525e-16
 30
0
 11
-6.083256931554568
 21
0.5000000000000003
 31
0
 12
-5.916743068445432
 22
0.5000000000000003
 32
0
 13
-5.916743068445432
 23
0.5000000000000003
 33
0
  0
MTEXT
  5
134
100
AcDbEntity
  8
DIM Tom Trees Row B
  6
CONTINUOUS
 62
    0
370
   -2
100
AcDbMText
 10
-6.475
 20
6.121301652578139
 30
0
 40
0.75
 41
3.416666666666713
 71
    5
 72
    1
  1
12.2426
  7
standard
210
0
220
0
230
1
 50
90
 73
    2
 44
1
  0
LINE
  5
135
100
AcDbEntity
  8
DIM Tom Trees Row B
  6
ByBlock
 62
    0
370
   -2
100
AcDbLine
 10
37.4704
 20
12.24260330515628
 11
-6.049999999999999
 21
12.24260330515628
  0
LINE
  5
136
100
AcDbEntity
  8
DIM Tom Trees Row B
  6
ByBlock
 62
    0
370
   -2
100
AcDbLine
 10
-0.1
 20
1.224646799147353e-17
 11
-6.05
 21
3.791581702697893e-16
  0
ENDBLK
  5
79
330
77
100
AcDbEntity
  8
0
100
AcDbBlockEnd
  0
BLOCK
  5
7B
330
7A
100
AcDbEntity
  8
0
100
AcDbBlockBegin
  2
*D29
 70
    1
 10
0
 20
0
  3
*D29
  1

  0
LINE
  5
137
100
AcDbEntity
  8
DIM Tom Trees Row A
  6
ByBlock
 62
    0
370
   -2
100
AcDbLine
 10
-7.105427357601002e-15
 20
-14
 11
33.3278
 21
-14
  0
SOLID
  5
138
100
AcDbEntity
  8
DIM Tom Trees Row A
  6
ByBlock
 62
    0
370
   -2
100
AcDbTrace
 10
-7.105427357601002e-15
 20
-14
 30
0
 11
0.4999999999999929
 21
-13.91674306844543
 31
0
 12
0.4999999999999929
 22
-14.08325693155457
 32
0
 13
0.4999999999999929
 23
-14.08325693155457
 33
0
  0
SOLID
  5
139
100
AcDbEntity
  8
DIM Tom Trees Row A
  6
ByBlock
 62
    0
370
   -2
100
AcDbTrace
 10
33.3278
 20
-14
 30
0
 11
32.8278
 21
-14.08325693155457
 31
0
 12
32.8278
 22
-13.91674306844543
 32
0
 13
32.8278
 23
-13.91674306844543
 33
0
  0
MTEXT
  5
13A
100
AcDbEntity
  8
DIM Tom Trees Row A
  6
CONTINUOUS
 62
    0
370
   -2
100
AcDbMText
 10
16.66389999999999
 20
-13.525
 30
0
 40
0.75
 41
3.500000000000139
 71
    5
 72
    1
  1
33.3278
  7
standard
210
0
220
0
230
1
 50
0
 73
    2
 44
1
  0
LINE
  5
13B
100
AcDbEntity
  8
DIM Tom Trees Row A
  6
ByBlock
 62
    0
370
   -2
100
AcDbLine
 10
-1.071875439572228e-16
 20
-0.1
 11
-7.159021129579614e-15
 21
-14.05
  0
LINE
  5
13C
100
AcDbEntity
  8
DIM Tom Trees Row A
  6
ByBlock
 62
    0
370
   -2
100
AcDbLine
 10
33.3278
 20
10.72840330515628
 11
33.3278
 21
-14.05
  0
ENDBLK
  5
7C
330
7A
100
AcDbEntity
  8
0
100
AcDbBlockEnd
  0
BLOCK
  5
7E
330
7D
100
AcDbEntity
  8
0
100
AcDbBlockBegin
  2
*D31
 70
    1
 10
0
 20
0
  3
*D31
  1

  0
LINE
  5
13D
100
AcDbEntity
  8
DIM Tom Trees Row A
  6
ByBlock
 62
    0
370
   -2
100
AcDbLine
 10
7.105427357601002e-15
 20
-16.00000000000001
 11
36.1562
 21
-16.00000000000001
  0
SOLID
  5
13E
100
AcDbEntity
  8
DIM Tom Trees Row A
  6
ByBlock
 62
    0
370
   -2
100
AcDbTrace
 10
7.105427357601002e-15
 20
-16.00000000000001
 30
0
 11
0.5000000000000071
 21
-15.91674306844544
 31
0
 12
0.5000000000000071
 22
-16.08325693155458
 32
0
 13
0.5000000000000071
 23
-16.08325693155458
 33
0
  0
SOLID
  5
13F
100
AcDbEntity
  8
DIM Tom Trees Row A
  6
ByBlock
 62
    0
370
   -2
100
AcDbTrace
 10
36.1562
 20
-16.00000000000001
 30
0
 11
35.6562
 21
-16.08325693155458
 31
0
 12
35.6562
 22
-15.91674306844544
 32
0
 13
35.6562
 23
-15.91674306844544
 33
0
  0
MTEXT
  5
140
100
AcDbEntity
  8
DIM Tom Trees Row A
  6
CONTINUOUS
 62
    0
370
   -2
100
AcDbMText
 10
18.0781
 20
-15.52500000000001
 30
0
 40
0.75
 41
3.333333333333519
 71
    5
 72
    1
  1
36.1562
  7
standard
210
0
220
0
230
1
 50
0
 73
    2
 44
1
  0
LINE
  5
141
100
AcDbEntity
  8
DIM Tom Trees Row A
  6
ByBlock
 62
    0
370
   -2
100
AcDbLine
 10
-1.83697019872103e-17
 20
-0.1
 11
7.096242506607397e-15
 21
-16.05000000000001
  0
LINE
  5
142
100
AcDbEntity
  8
DIM Tom Trees Row A
  6
ByBlock
 62
    0
370
   -2
100
AcDbLine
 10
36.1562
 20
7.900003305156275
 11
36.1562
 21
-16.05000000000001
  0
ENDBLK
  5
7F
330
7D
100
AcDbEntity
  8
0
100
AcDbBlockEnd
  0
BLOCK
  5
81
330
80
100
AcDbEntity
  8
0
100
AcDbBlockBegin
  2
*D5
 70
    1
 10
0
 20
0
  3
*D5
  1

  0
LINE
  5
143
100
AcDbEntity
  8
DIM Red Canes
  6
ByBlock
 62
    0
370
   -2
100
AcDbLine
 10
0
 20
-10
 11
36
 21
-10
  0
SOLID
  5
144
100
AcDbEntity
  8
DIM Red Canes
  6
ByBlock
 62
    0
370
   -2
100
AcDbTrace
 10
0
 20
-10
 30
0
 11
0.5
 21
-9.916743068445433
 31
0
 12
0.5
 22
-10.08325693155457
 32
0
 13
0.5
 23
-10.08325693155457
 33
0
  0
SOLID
  5
145
100
AcDbEntity
  8
DIM Red Canes
  6
ByBlock
 62
    0
370
   -2
100
AcDbTrace
 10
36
 20
-10
 30
0
 11
35.5
 21
-10.08325693155457
 31
0
 12
35.5
 22
-9.916743068445433
 32
0
 13
35.5
 23
-9.916743068445433
 33
0
  0
MTEXT
  5
146
100
AcDbEntity
  8
DIM Red Canes
  6
CONTINUOUS
 62
    0
370
   -2
100
AcDbMText
 10
18
 20
-9.525
 30
0
 40
0.75
 41
0.9166666666667596
 71
    5
 72
    1
  1
36
  7
standard
210
0
220
0
230
1
 50
0
 73
    2
 44
1
  0
LINE
  5
147
100
AcDbEntity
  8
DIM Red Canes
  6
ByBlock
 62
    0
370
   -2
100
AcDbLine
 10
-1.83697019872103e-17
 20
-0.1
 11
-9.184850993605149e-18
 21
-10.05
  0
LINE
  5
148
100
AcDbEntity
  8
DIM Red Canes
  6
ByBlock
 62
    0
370
   -2
100
AcDbLine
 10
36
 20
3.9
 11
36
 21
-10.05
  0
ENDBLK
  5
82
330
80
100
AcDbEntity
  8
0
100
AcDbBlockEnd
  0
BLOCK
  5
84
330
83
100
AcDbEntity
  8
0
100
AcDbBlockBegin
  2
*D47
 70
    1
 10
0
 20
0
  3
*D47
  1

  0
LINE
  5
149
100
AcDbEntity
  8
DIM Red Canes
  6
ByBlock
 62
    0
370
   -2
100
AcDbLine
 10
-8.999999999999998
 20
24
 11
-9
 21
4.796163466380678e-16
  0
SOLID
  5
14A
100
AcDbEntity
  8
DIM Red Canes
  6
ByBlock
 62
    0
370
   -2
100
AcDbTrace
 10
-8.999999999999998
 20
24
 30
0
 11
-8.916743068445431
 21
23.5
 31
0
 12
-9.083256931554565
 22
23.5
 32
0
 13
-9.083256931554565
 23
23.5
 33
0
  0
SOLID
  5
14B
100
AcDbEntity
  8
DIM Red Canes
  6
ByBlock
 62
    0
370
   -2
100
AcDbTrace
 10
-9
 20
4.796163466380678e-16
 30
0
 11
-9.083256931554567
 21
0.5000000000000004
 31
0
 12
-8.916743068445431
 22
0.5000000000000004
 32
0
 13
-8.916743068445431
 23
0.5000000000000004
 33
0
  0
MTEXT
  5
14C
100
AcDbEntity
  8
DIM Red Canes
  6
CONTINUOUS
 62
    0
370
   -2
100
AcDbMText
 10
-9.475
 20
12
 30
0
 40
0.75
 41
1
 71
    5
 72
    1
  1
24
  7
standard
210
0
220
0
230
1
 50
90
 73
    2
 44
1
  0
LINE
  5
14D
100
AcDbEntity
  8
DIM Red Canes
  6
ByBlock
 62
    0
370
   -2
100
AcDbLine
 10
0.5249999974999998
 20
24
 11
-9.049999999999999
 21
24
  0
LINE
  5
14E
100
AcDbEntity
  8
DIM Red Canes
  6
ByBlock
 62
    0
370
   -2
100
AcDbLine
 10
-0.1
 20
1.224646799147353e-17
 11
-9.050000000000001
 21
4.857395806338045e-16
  0
ENDBLK
  5
85
330
83
100
AcDbEntity
  8
0
100
AcDbBlockEnd
  0
BLOCK
  5
87
330
86
100
AcDbEntity
  8
0
100
AcDbBlockBegin
  2
*D24
 70
    1
 10
0
 20
0
  3
*D24
  1

  0
LINE
  5
14F
100
AcDbEntity
  8
DIM Tom Trees Row A
  6
ByBlock
 62
    0
370
   -2
100
AcDbLine
 10
0
 20
-9
 11
22
 21
-9
  0
SOLID
  5
150
100
AcDbEntity
  8
DIM Tom Trees Row A
  6
ByBlock
 62
    0
370
   -2
100
AcDbTrace
 10
0
 20
-9
 30
0
 11
0.5
 21
-8.916743068445433
 31
0
 12
0.5
 22
-9.083256931554569
 32
0
 13
0.5
 23
-9.083256931554569
 33
0
  0
SOLID
  5
151
100
AcDbEntity
  8
DIM Tom Trees Row A
  6
ByBlock
 62
    0
370
   -2
100
AcDbTrace
 10
22
 20
-9
 30
0
 11
21.5
 21
-9.083256931554567
 31
0
 12
21.5
 22
-8.916743068445433
 32
0
 13
21.5
 23
-8.916743068445433
 33
0
  0
MTEXT
  5
152
100
AcDbEntity
  8
DIM Tom Trees Row A
  6
CONTINUOUS
 62
    0
370
   -2
100
AcDbMText
 10
11
 20
-8.525
 30
0
 40
0.75
 41
0.9166666666666666
 71
    5
 72
    1
  1
22
  7
standard
210
0
220
0
230
1
 50
0
 73
    2
 44
1
  0
LINE
  5
153
100
AcDbEntity
  8
DIM Tom Trees Row A
  6
ByBlock
 62
    0
370
   -2
100
AcDbLine
 10
-1.83697019872103e-17
 20
-0.1
 11
-9.184850993605149e-18
 21
-9.050000000000001
  0
LINE
  5
154
100
AcDbEntity
  8
DIM Tom Trees Row A
  6
ByBlock
 62
    0
370
   -2
100
AcDbLine
 10
22
 20
13.76370330515627
 11
22
 21
-9.050000000000001
  0
ENDBLK
  5
88
330
86
100
AcDbEntity
  8
0
100
AcDbBlockEnd
  0
BLOCK
  5
8A
330
89
100
AcDbEntity
  8
0
100
AcDbBlockBegin
  2
*D30
 70
    1
 10
0
 20
0
  3
*D30
  1

  0
LINE
  5
155
100
AcDbEntity
  8
DIM Tom Trees Row B
  6
ByBlock
 62
    0
370
   -2
100
AcDbLine
 10
0
 20
-15
 11
33.5958
 21
-15
  0
SOLID
  5
156
100
AcDbEntity
  8
DIM Tom Trees Row B
  6
ByBlock
 62
    0
370
   -2
100
AcDbTrace
 10
0
 20
-15
 30
0
 11
0.5
 21
-14.91674306844543
 31
0
 12
0.5
 22
-15.08325693155457
 32
0
 13
0.5
 23
-15.08325693155457
 33
0
  0
SOLID
  5
157
100
AcDbEntity
  8
DIM Tom Trees Row B
  6
ByBlock
 62
    0
370
   -2
100
AcDbTrace
 10
33.5958
 20
-15
 30
0
 11
33.0958
 21
-15.08325693155457
 31
0
 12
33.0958
 22
-14.91674306844543
 32
0
 13
33.0958
 23
-14.91674306844543
 33
0
  0
MTEXT
  5
158
100
AcDbEntity
  8
DIM Tom Trees Row B
  6
CONTINUOUS
 62
    0
370
   -2
100
AcDbMText
 10
16.7979
 20
-14.525
 30
0
 40
0.75
 41
3.500000000000187
 71
    5
 72
    1
  1
33.5958
  7
standard
210
0
220
0
230
1
 50
0
 73
    2
 44
1
  0
LINE
  5
159
100
AcDbEntity
  8
DIM Tom Trees Row B
  6
ByBlock
 62
    0
370
   -2
100
AcDbLine
 10
-1.83697019872103e-17
 20
-0.1
 11
-9.184850993605149e-18
 21
-15.05
  0
LINE
  5
15A
100
AcDbEntity
  8
DIM Tom Trees Row B
  6
ByBlock
 62
    0
370
   -2
100
AcDbLine
 10
33.5958
 20
15.19250330515627
 11
33.5958
 21
-15.05
  0
ENDBLK
  5
8B
330
89
100
AcDbEntity
  8
0
100
AcDbBlockEnd
  0
BLOCK
  5
8D
330
8C
100
AcDbEntity
  8
0
100
AcDbBlockBegin
  2
*D1
 70
    1
 10
0
 20
0
  3
*D1
  1

  0
LINE
  5
15B
100
AcDbEntity
  8
DIM Red Canes
  6
ByBlock
 62
    0
370
   -2
100
AcDbLine
 10
4.440892098500626e-16
 20
-2
 11
4
 21
-2
  0
SOLID
  5
15C
100
AcDbEntity
  8
DIM Red Canes
  6
ByBlock
 62
    0
370
   -2
100
AcDbTrace
 10
4.440892098500626e-16
 20
-2
 30
0
 11
0.5000000000000004
 21
-1.916743068445432
 31
0
 12
0.5000000000000004
 22
-2.083256931554569
 32
0
 13
0.5000000000000004
 23
-2.083256931554569
 33
0
  0
SOLID
  5
15D
100
AcDbEntity
  8
DIM Red Canes
  6
ByBlock
 62
    0
370
   -2
100
AcDbTrace
 10
4
 20
-2
 30
0
 11
3.5
 21
-2.083256931554569
 31
0
 12
3.5
 22
-1.916743068445432
 32
0
 13
3.5
 23
-1.916743068445432
 33
0
  0
MTEXT
  5
15E
100
AcDbEntity
  8
DIM Red Canes
  6
CONTINUOUS
 62
    0
370
   -2
100
AcDbMText
 10
2
 20
-1.525
 30
0
 40
0.75
 41
0.4166666666666666
 71
    5
 72
    1
  1
4
  7
standard
210
0
220
0
230
1
 50
0
 73
    2
 44
1
  0
LINE
  5
15F
100
AcDbEntity
  8
DIM Red Canes
  6
ByBlock
 62
    0
370
   -2
100
AcDbLine
 10
-1.83697019872103e-17
 20
-0.1
 11
4.349043588564575e-16
 21
-2.05
  0
LINE
  5
160
100
AcDbEntity
  8
DIM Red Canes
  6
ByBlock
 62
    0
370
   -2
100
AcDbLine
 10
4
 20
3.8583333335
 11
4
 21
-2.05
  0
ENDBLK
  5
8E
330
8C
100
AcDbEntity
  8
0
100
AcDbBlockEnd
  0
BLOCK
  5
90
330
8F
100
AcDbEntity
  8
0
100
AcDbBlockBegin
  2
*D41
 70
    1
 10
0
 20
0
  3
*D41
  1

  0
LINE
  5
161
100
AcDbEntity
  8
DIM Tom Trees Row B
  6
ByBlock
 62
    0
370
   -2
100
AcDbLine
 10
-9
 20
15.29250330515628
 11
-9
 21
4.796163466380678e-16
  0
SOLID
  5
162
100
AcDbEntity
  8
DIM Tom Trees Row B
  6
ByBlock
 62
    0
370
   -2
100
AcDbTrace
 10
-9
 20
15.29250330515628
 30
0
 11
-8.916743068445433
 21
14.79250330515628
 31
0
 12
-9.083256931554567
 22
14.79250330515628
 32
0
 13
-9.083256931554567
 23
14.79250330515628
 33
0
  0
SOLID
  5
163
100
AcDbEntity
  8
DIM Tom Trees Row B
  6
ByBlock
 62
    0
370
   -2
100
AcDbTrace
 10
-9
 20
4.796163466380678e-16
 30
0
 11
-9.083256931554567
 21
0.5000000000000004
 31
0
 12
-8.916743068445431
 22
0.5000000000000004
 32
0
 13
-8.916743068445431
 23
0.5000000000000004
 33
0
  0
MTEXT
  5
164
100
AcDbEntity
  8
DIM Tom Trees Row B
  6
CONTINUOUS
 62
    0
370
   -2
100
AcDbMText
 10
-9.475
 20
7.646251652578138
 30
0
 40
0.75
 41
3.333333333333426
 71
    5
 72
    1
  1
15.2925
  7
standard
210
0
220
0
230
1
 50
90
 73
    2
 44
1
  0
LINE
  5
165
100
AcDbEntity
  8
DIM Tom Trees Row B
  6
ByBlock
 62
    0
370
   -2
100
AcDbLine
 10
33.4958
 20
15.29250330515627
 11
-9.050000000000001
 21
15.29250330515628
  0
LINE
  5
166
100
AcDbEntity
  8
DIM Tom Trees Row B
  6
ByBlock
 62
    0
370
   -2
100
AcDbLine
 10
-0.1
 20
1.224646799147353e-17
 11
-9.050000000000001
 21
4.857395806338045e-16
  0
ENDBLK
  5
91
330
8F
100
AcDbEntity
  8
0
100
AcDbBlockEnd
  0
BLOCK
  5
93
330
92
100
AcDbEntity
  8
0
100
AcDbBlockBegin
  2
*D45
 70
    1
 10
0
 20
0
  3
*D45
  1

  0
LINE
  5
167
100
AcDbEntity
  8
DIM Red Canes
  6
ByBlock
 62
    0
370
   -2
100
AcDbLine
 10
-4.999999999999999
 20
7.999999999999999
 11
-5
 21
3.108624468950438e-16
  0
SOLID
  5
168
100
AcDbEntity
  8
DIM Red Canes
  6
ByBlock
 62
    0
370
   -2
100
AcDbTrace
 10
-4.999999999999999
 20
7.999999999999999
 30
0
 11
-4.916743068445431
 21
7.499999999999999
 31
0
 12
-5.083256931554567
 22
7.499999999999999
 32
0
 13
-5.083256931554567
 23
7.499999999999999
 33
0
  0
SOLID
  5
169
100
AcDbEntity
  8
DIM Red Canes
  6
ByBlock
 62
    0
370
   -2
100
AcDbTrace
 10
-5
 20
3.108624468950438e-16
 30
0
 11
-5.083256931554568
 21
0.5000000000000003
 31
0
 12
-4.916743068445432
 22
0.5000000000000003
 32
0
 13
-4.916743068445432
 23
0.5000000000000003
 33
0
  0
MTEXT
  5
16A
100
AcDbEntity
  8
DIM Red Canes
  6
CONTINUOUS
 62
    0
370
   -2
100
AcDbMText
 10
-5.475
 20
4
 30
0
 40
0.75
 41
0.3333333333333333
 71
    5
 72
    1
  1
8
  7
standard
210
0
220
0
230
1
 50
90
 73
    2
 44
1
  0
LINE
  5
16B
100
AcDbEntity
  8
DIM Red Canes
  6
ByBlock
 62
    0
370
   -2
100
AcDbLine
 10
0.5249999974999998
 20
8
 11
-5.049999999999999
 21
7.999999999999999
  0
LINE
  5
16C
100
AcDbEntity
  8
DIM Red Canes
  6
ByBlock
 62
    0
370
   -2
100
AcDbLine
 10
-0.1
 20
1.224646799147353e-17
 11
-5.05
 21
3.169856808907806e-16
  0
ENDBLK
  5
94
330
92
100
AcDbEntity
  8
0
100
AcDbBlockEnd
  0
BLOCK
  5
96
330
95
100
AcDbEntity
  8
0
100
AcDbBlockBegin
  2
*D34
 70
    1
 10
0
 20
0
  3
*D34
  1

  0
LINE
  5
16D
100
AcDbEntity
  8
DIM Big Trees
  6
ByBlock
 62
    0
370
   -2
100
AcDbLine
 10
-2
 20
8.000000000000002
 11
-2
 21
1.243449787580175e-16
  0
SOLID
  5
16E
100
AcDbEntity
  8
DIM Big Trees
  6
ByBlock
 62
    0
370
   -2
100
AcDbTrace
 10
-2
 20
8.000000000000002
 30
0
 11
-1.916743068445432
 21
7.500000000000002
 31
0
 12
-2.083256931554568
 22
7.500000000000002
 32
0
 13
-2.083256931554568
 23
7.500000000000002
 33
0
  0
SOLID
  5
16F
100
AcDbEntity
  8
DIM Big Trees
  6
ByBlock
 62
    0
370
   -2
100
AcDbTrace
 10
-2
 20
1.243449787580175e-16
 30
0
 11
-2.083256931554569
 21
0.5000000000000001
 31
0
 12
-1.916743068445432
 22
0.5000000000000001
 32
0
 13
-1.916743068445432
 23
0.5000000000000001
 33
0
  0
MTEXT
  5
170
100
AcDbEntity
  8
DIM Big Trees
  6
CONTINUOUS
 62
    0
370
   -2
100
AcDbMText
 10
-2.475
 20
4.000000000000001
 30
0
 40
0.75
 41
0.3333333333333333
 71
    5
 72
    1
  1
8
  7
standard
210
0
220
0
230
1
 50
90
 73
    2
 44
1
  0
LINE
  5
171
100
AcDbEntity
  8
DIM Big Trees
  6
ByBlock
 62
    0
370
   -2
100
AcDbLine
 10
23.9
 20
8
 11
-2.05
 21
8.000000000000002
  0
LINE
  5
172
100
AcDbEntity
  8
DIM Big Trees
  6
ByBlock
 62
    0
370
   -2
100
AcDbLine
 10
-0.1
 20
1.224646799147353e-17
 11
-2.05
 21
1.304682127537543e-16
  0
ENDBLK
  5
97
330
95
100
AcDbEntity
  8
0
100
AcDbBlockEnd
  0
BLOCK
  5
99
330
98
100
AcDbEntity
  8
0
100
AcDbBlockBegin
  2
*D6
 70
    1
 10
0
 20
0
  3
*D6
  1

  0
LINE
  5
173
100
AcDbEntity
  8
DIM Green Canes
  6
ByBlock
 62
    0
370
   -2
100
AcDbLine
 10
8
 20
-3
 11
2.465190328815662e-32
 21
-3
  0
SOLID
  5
174
100
AcDbEntity
  8
DIM Green Canes
  6
ByBlock
 62
    0
370
   -2
100
AcDbTrace
 10
8
 20
-3
 30
0
 11
7.5
 21
-3.083256931554568
 31
0
 12
7.5
 22
-2.916743068445432
 32
0
 13
7.5
 23
-2.916743068445432
 33
0
  0
SOLID
  5
175
100
AcDbEntity
  8
DIM Green Canes
  6
ByBlock
 62
    0
370
   -2
100
AcDbTrace
 10
2.465190328815662e-32
 20
-3
 30
0
 11
0.5
 21
-2.916743068445432
 31
0
 12
0.5
 22
-3.083256931554568
 32
0
 13
0.5
 23
-3.083256931554568
 33
0
  0
MTEXT
  5
176
100
AcDbEntity
  8
DIM Green Canes
  6
CONTINUOUS
 62
    0
370
   -2
100
AcDbMText
 10
4
 20
-2.525
 30
0
 40
0.75
 41
0.3333333333333333
 71
    5
 72
    1
  1
8
  7
standard
210
0
220
0
230
1
 50
360
 73
    2
 44
1
  0
LINE
  5
177
100
AcDbEntity
  8
DIM Green Canes
  6
ByBlock
 62
    0
370
   -2
100
AcDbLine
 10
8
 20
3.9
 11
8
 21
-3.05
  0
LINE
  5
178
100
AcDbEntity
  8
DIM Green Canes
  6
ByBlock
 62
    0
370
   -2
100
AcDbLine
 10
-1.83697019872103e-17
 20
-0.1
 11
-9.184850993605124e-18
 21
-3.05
  0
ENDBLK
  5
9A
330
98
100
AcDbEntity
  8
0
100
AcDbBlockEnd
  0
BLOCK
  5
9C
330
9B
100
AcDbEntity
  8
0
100
AcDbBlockBegin
  2
*D33
 70
    1
 10
0
 20
0
  3
*D33
  1

  0
LINE
  5
179
100
AcDbEntity
  8
DIM Tom Trees Row B
  6
ByBlock
 62
    0
370
   -2
100
AcDbLine
 10
0
 20
-18
 11
40.62033366017796
 21
-18
  0
SOLID
  5
17A
100
AcDbEntity
  8
DIM Tom Trees Row B
  6
ByBlock
 62
    0
370
   -2
100
AcDbTrace
 10
0
 20
-18
 30
0
 11
0.5
 21
-17.91674306844543
 31
0
 12
0.5
 22
-18.08325693155457
 32
0
 13
0.5
 23
-18.08325693155457
 33
0
  0
SOLID
  5
17B
100
AcDbEntity
  8
DIM Tom Trees Row B
  6
ByBlock
 62
    0
370
   -2
100
AcDbTrace
 10
40.62033366017796
 20
-18
 30
0
 11
40.12033366017796
 21
-18.08325693155457
 31
0
 12
40.12033366017796
 22
-17.91674306844543
 32
0
 13
40.12033366017796
 23
-17.91674306844543
 33
0
  0
MTEXT
  5
17C
100
AcDbEntity
  8
DIM Tom Trees Row B
  6
CONTINUOUS
 62
    0
370
   -2
100
AcDbMText
 10
20.31016683008898
 20
-17.525
 30
0
 40
0.75
 41
3.583333333333426
 71
    5
 72
    1
  1
40.6203
  7
standard
210
0
220
0
230
1
 50
0
 73
    2
 44
1
  0
LINE
  5
17D
100
AcDbEntity
  8
DIM Tom Trees Row B
  6
ByBlock
 62
    0
370
   -2
100
AcDbLine
 10
-1.83697019872103e-17
 20
-0.1
 11
-9.184850993605149e-18
 21
-18.05
  0
LINE
  5
17E
100
AcDbEntity
  8
DIM Tom Trees Row B
  6
ByBlock
 62
    0
370
   -2
100
AcDbLine
 10
40.62033366017796
 20
8.167949192431127
 11
40.62033366017796
 21
-18.05
  0
ENDBLK
  5
9D
330
9B
100
AcDbEntity
  8
0
100
AcDbBlockEnd
  0
BLOCK
  5
9F
330
9E
100
AcDbEntity
  8
0
100
AcDbBlockBegin
  2
*D22
 70
    1
 10
0
 20
0
  3
*D22
  1

  0
LINE
  5
17F
100
AcDbEntity
  8
DIM Tom Trees Row A
  6
ByBlock
 62
    0
370
   -2
100
AcDbLine
 10
0
 20
-7
 11
18.13629669484373
 21
-7
  0
SOLID
  5
180
100
AcDbEntity
  8
DIM Tom Trees Row A
  6
ByBlock
 62
    0
370
   -2
100
AcDbTrace
 10
0
 20
-7
 30
0
 11
0.5
 21
-6.916743068445432
 31
0
 12
0.5
 22
-7.083256931554568
 32
0
 13
0.5
 23
-7.083256931554568
 33
0
  0
SOLID
  5
181
100
AcDbEntity
  8
DIM Tom Trees Row A
  6
ByBlock
 62
    0
370
   -2
100
AcDbTrace
 10
18.13629669484373
 20
-7
 30
0
 11
17.63629669484373
 21
-7.083256931554568
 31
0
 12
17.63629669484373
 22
-6.916743068445432
 32
0
 13
17.63629669484373
 23
-6.916743068445432
 33
0
  0
MTEXT
  5
182
100
AcDbEntity
  8
DIM Tom Trees Row A
  6
CONTINUOUS
 62
    0
370
   -2
100
AcDbMText
 10
9.068148347421864
 20
-6.525
 30
0
 40
0.75
 41
3.166666666666806
 71
    5
 72
    1
  1
18.1363
  7
standard
210
0
220
0
230
1
 50
0
 73
    2
 44
1
  0
LINE
  5
183
100
AcDbEntity
  8
DIM Tom Trees Row A
  6
ByBlock
 62
    0
370
   -2
100
AcDbLine
 10
-1.83697019872103e-17
 20
-0.1
 11
-9.184850993605149e-18
 21
-7.05
  0
LINE
  5
184
100
AcDbEntity
  8
DIM Tom Trees Row A
  6
ByBlock
 62
    0
370
   -2
100
AcDbLine
 10
18.13629669484373
 20
12.72842712474619
 11
18.13629669484373
 21
-7.05
  0
ENDBLK
  5
A0
330
9E
100
AcDbEntity
  8
0
100
AcDbBlockEnd
  0
BLOCK
  5
A2
330
A1
100
AcDbEntity
  8
0
100
AcDbBlockBegin
  2
*D16
 70
    1
 10
0
 20
0
  3
*D16
  1

  0
LINE
  5
185
100
AcDbEntity
  8
DIM Green Canes
  6
ByBlock
 62
    0
370
   -2
100
AcDbLine
 10
-0.9999999999999999
 20
10
 11
1.6249999975
 21
10
  0
SOLID
  5
186
100
AcDbEntity
  8
DIM Green Canes
  6
ByBlock
 62
    0
370
   -2
100
AcDbTrace
 10
1.110223024625157e-16
 20
10
 30
0
 11
-0.4999999999999999
 21
9.916743068445433
 31
0
 12
-0.4999999999999999
 22
10.08325693155457
 32
0
 13
-0.4999999999999999
 23
10.08325693155457
 33
0
  0
SOLID
  5
187
100
AcDbEntity
  8
DIM Green Canes
  6
ByBlock
 62
    0
370
   -2
100
AcDbTrace
 10
0.6249999974999998
 20
10
 30
0
 11
1.1249999975
 21
10.08325693155457
 31
0
 12
1.1249999975
 22
9.916743068445431
 32
0
 13
1.1249999975
 23
9.916743068445431
 33
0
  0
MTEXT
  5
188
100
AcDbEntity
  8
DIM Green Canes
  6
CONTINUOUS
 62
    0
370
   -2
100
AcDbMText
 10
1.891666664166713
 20
10.475
 30
0
 40
0.75
 41
2.333333333333426
 71
    5
 72
    1
  1
0.625
  7
standard
210
0
220
0
230
1
 50
0
 73
    2
 44
1
  0
LINE
  5
189
100
AcDbEntity
  8
DIM Green Canes
  6
ByBlock
 62
    0
370
   -2
100
AcDbLine
 10
6.123233995736766e-18
 20
0.1
 11
1.14083919460384e-16
 21
10.05
  0
LINE
  5
18A
100
AcDbEntity
  8
DIM Green Canes
  6
ByBlock
 62
    0
370
   -2
100
AcDbLine
 10
0.6249999974999998
 20
11.9
 11
0.6249999974999998
 21
9.949999999999999
  0
ENDBLK
  5
A3
330
A1
100
AcDbEntity
  8
0
100
AcDbBlockEnd
  0
BLOCK
  5
A5
330
A4
100
AcDbEntity
  8
0
100
AcDbBlockBegin
  2
*D40
 70
    1
 10
0
 20
0
  3
*D40
  1

  0
LINE
  5
18B
100
AcDbEntity
  8
DIM Tom Trees Row A
  6
ByBlock
 62
    0
370
   -2
100
AcDbLine
 10
-7.999999999999999
 20
13.86370330515628
 11
-8
 21
4.973799150320702e-16
  0
SOLID
  5
18C
100
AcDbEntity
  8
DIM Tom Trees Row A
  6
ByBlock
 62
    0
370
   -2
100
AcDbTrace
 10
-7.999999999999999
 20
13.86370330515628
 30
0
 11
-7.916743068445431
 21
13.36370330515628
 31
0
 12
-8.083256931554567
 22
13.36370330515628
 32
0
 13
-8.083256931554567
 23
13.36370330515628
 33
0
  0
SOLID
  5
18D
100
AcDbEntity
  8
DIM Tom Trees Row A
  6
ByBlock
 62
    0
370
   -2
100
AcDbTrace
 10
-8
 20
4.973799150320702e-16
 30
0
 11
-8.083256931554567
 21
0.5000000000000004
 31
0
 12
-7.916743068445432
 22
0.5000000000000004
 32
0
 13
-7.916743068445432
 23
0.5000000000000004
 33
0
  0
MTEXT
  5
18E
100
AcDbEntity
  8
DIM Tom Trees Row A
  6
CONTINUOUS
 62
    0
370
   -2
100
AcDbMText
 10
-8.475
 20
6.931851652578139
 30
0
 40
0.75
 41
3.333333333333473
 71
    5
 72
    1
  1
13.8637
  7
standard
210
0
220
0
230
1
 50
90
 73
    2
 44
1
  0
LINE
  5
18F
100
AcDbEntity
  8
DIM Tom Trees Row A
  6
ByBlock
 62
    0
370
   -2
100
AcDbLine
 10
25.9
 20
13.86370330515627
 11
-8.049999999999999
 21
13.86370330515628
  0
LINE
  5
190
100
AcDbEntity
  8
DIM Tom Trees Row A
  6
ByBlock
 62
    0
370
   -2
100
AcDbLine
 10
-0.1
 20
1.224646799147353e-17
 11
-8.050000000000001
 21
5.03503149027807e-16
  0
ENDBLK
  5
A6
330
A4
100
AcDbEntity
  8
0
100
AcDbBlockEnd
  0
BLOCK
  5
A8
330
A7
100
AcDbEntity
  8
0
100
AcDbBlockBegin
  2
*D48
 70
    1
 10
0
 20
0
  3
*D48
  1

  0
LINE
  5
191
100
AcDbEntity
  8
DIM Green Canes
  6
ByBlock
 62
    0
370
   -2
100
AcDbLine
 10
-5.999999999999999
 20
12
 11
-6
 21
3.730349362740525e-16
  0
SOLID
  5
192
100
AcDbEntity
  8
DIM Green Canes
  6
ByBlock
 62
    0
370
   -2
100
AcDbTrace
 10
-5.999999999999999
 20
12
 30
0
 11
-5.916743068445431
 21
11.5
 31
0
 12
-6.083256931554567
 22
11.5
 32
0
 13
-6.083256931554567
 23
11.5
 33
0
  0
SOLID
  5
193
100
AcDbEntity
  8
DIM Green Canes
  6
ByBlock
 62
    0
370
   -2
100
AcDbTrace
 10
-6
 20
3.730349362740525e-16
 30
0
 11
-6.083256931554568
 21
0.5000000000000003
 31
0
 12
-5.916743068445432
 22
0.5000000000000003
 32
0
 13
-5.916743068445432
 23
0.5000000000000003
 33
0
  0
MTEXT
  5
194
100
AcDbEntity
  8
DIM Green Canes
  6
CONTINUOUS
 62
    0
370
   -2
100
AcDbMText
 10
-6.475
 20
6
 30
0
 40
0.75
 41
0.75
 71
    5
 72
    1
  1
12
  7
standard
210
0
220
0
230
1
 50
90
 73
    2
 44
1
  0
LINE
  5
195
100
AcDbEntity
  8
DIM Green Canes
  6
ByBlock
 62
    0
370
   -2
100
AcDbLine
 10
0.5249999974999998
 20
12
 11
-6.049999999999999
 21
12
  0
LINE
  5
196
100
AcDbEntity
  8
DIM Green Canes
  6
ByBlock
 62
    0
370
   -2
100
AcDbLine
 10
-0.1
 20
1.224646799147353e-17
 11
-6.05
 21
3.791581702697893e-16
  0
ENDBLK
  5
A9
330
A7
100
AcDbEntity
  8
0
100
AcDbBlockEnd
  0
BLOCK
  5
AB
330
AA
100
AcDbEntity
  8
0
100
AcDbBlockBegin
  2
*D10
 70
    1
 10
0
 20
0
  3
*D10
  1

  0
LINE
  5
197
100
AcDbEntity
  8
DIM Green Canes
  6
ByBlock
 62
    0
370
   -2
100
AcDbLine
 10
40
 20
-11
 11
0
 21
-11
  0
SOLID
  5
198
100
AcDbEntity
  8
DIM Green Canes
  6
ByBlock
 62
    0
370
   -2
100
AcDbTrace
 10
40
 20
-11
 30
0
 11
39.5
 21
-11.08325693155456
 31
0
 12
39.5
 22
-10.91674306844543
 32
0
 13
39.5
 23
-10.91674306844543
 33
0
  0
SOLID
  5
199
100
AcDbEntity
  8
DIM Green Canes
  6
ByBlock
 62
    0
370
   -2
100
AcDbTrace
 10
0
 20
-11
 30
0
 11
0.5
 21
-10.91674306844543
 31
0
 12
0.5
 22
-11.08325693155457
 32
0
 13
0.5
 23
-11.08325693155457
 33
0
  0
MTEXT
  5
19A
100
AcDbEntity
  8
DIM Green Canes
  6
CONTINUOUS
 62
    0
370
   -2
100
AcDbMText
 10
20
 20
-10.525
 30
0
 40
0.75
 41
0.9999999999999999
 71
    5
 72
    1
  1
40
  7
standard
210
0
220
0
230
1
 50
360
 73
    2
 44
1
  0
LINE
  5
19B
100
AcDbEntity
  8
DIM Green Canes
  6
ByBlock
 62
    0
370
   -2
100
AcDbLine
 10
40
 20
3.9
 11
40
 21
-11.05
  0
LINE
  5
19C
100
AcDbEntity
  8
DIM Green Canes
  6
ByBlock
 62
    0
370
   -2
100
AcDbLine
 10
-1.83697019872103e-17
 20
-0.1
 11
-9.184850993605149e-18
 21
-11.05
  0
ENDBLK
  5
AC
330
AA
100
AcDbEntity
  8
0
100
AcDbBlockEnd
  0
BLOCK
  5
AE
330
AD
100
AcDbEntity
  8
0
100
AcDbBlockBegin
  2
*D15
 70
    1
 10
0
 20
0
  3
*D15
  1

  0
LINE
  5
19D
100
AcDbEntity
  8
DIM Red Canes
  6
ByBlock
 62
    0
370
   -2
100
AcDbLine
 10
-0.9999999999999999
 20
6
 11
1.6249999975
 21
6
  0
SOLID
  5
19E
100
AcDbEntity
  8
DIM Red Canes
  6
ByBlock
 62
    0
370
   -2
100
AcDbTrace
 10
1.110223024625157e-16
 20
6
 30
0
 11
-0.4999999999999999
 21
5.916743068445432
 31
0
 12
-0.4999999999999999
 22
6.083256931554568
 32
0
 13
-0.4999999999999999
 23
6.083256931554568
 33
0
  0
SOLID
  5
19F
100
AcDbEntity
  8
DIM Red Canes
  6
ByBlock
 62
    0
370
   -2
100
AcDbTrace
 10
0.6249999974999998
 20
6
 30
0
 11
1.1249999975
 21
6.083256931554568
 31
0
 12
1.1249999975
 22
5.916743068445432
 32
0
 13
1.1249999975
 23
5.916743068445432
 33
0
  0
MTEXT
  5
1A0
100
AcDbEntity
  8
DIM Red Canes
  6
CONTINUOUS
 62
    0
370
   -2
100
AcDbMText
 10
1.891666664166713
 20
6.475
 30
0
 40
0.75
 41
2.333333333333426
 71
    5
 72
    1
  1
0.625
  7
standard
210
0
220
0
230
1
 50
0
 73
    2
 44
1
  0
LINE
  5
1A1
100
AcDbEntity
  8
DIM Red Canes
  6
ByBlock
 62
    0
370
   -2
100
AcDbLine
 10
6.123233995736766e-18
 20
0.1
 11
1.14083919460384e-16
 21
6.05
  0
LINE
  5
1A2
100
AcDbEntity
  8
DIM Red Canes
  6
ByBlock
 62
    0
370
   -2
100
AcDbLine
 10
0.6249999974999998
 20
7.9
 11
0.6249999974999998
 21
5.95
  0
ENDBLK
  5
AF
330
AD
100
AcDbEntity
  8
0
100
AcDbBlockEnd
  0
BLOCK
  5
B1
330
B0
100
AcDbEntity
  8
0
100
AcDbBlockBegin
  2
*D3
 70
    1
 10
0
 20
0
  3
*D3
  1

  0
LINE
  5
1A3
100
AcDbEntity
  8
DIM Red Canes
  6
ByBlock
 62
    0
370
   -2
100
AcDbLine
 10
0
 20
-6
 11
20
 21
-6
  0
SOLID
  5
1A4
100
AcDbEntity
  8
DIM Red Canes
  6
ByBlock
 62
    0
370
   -2
100
AcDbTrace
 10
0
 20
-6
 30
0
 11
0.5
 21
-5.916743068445432
 31
0
 12
0.5
 22
-6.083256931554568
 32
0
 13
0.5
 23
-6.083256931554568
 33
0
  0
SOLID
  5
1A5
100
AcDbEntity
  8
DIM Red Canes
  6
ByBlock
 62
    0
370
   -2
100
AcDbTrace
 10
20
 20
-6
 30
0
 11
19.5
 21
-6.083256931554568
 31
0
 12
19.5
 22
-5.916743068445432
 32
0
 13
19.5
 23
-5.916743068445432
 33
0
  0
MTEXT
  5
1A6
100
AcDbEntity
  8
DIM Red Canes
  6
CONTINUOUS
 62
    0
370
   -2
100
AcDbMText
 10
10
 20
-5.525
 30
0
 40
0.75
 41
0.9166666666666665
 71
    5
 72
    1
  1
20
  7
standard
210
0
220
0
230
1
 50
0
 73
    2
 44
1
  0
LINE
  5
1A7
100
AcDbEntity
  8
DIM Red Canes
  6
ByBlock
 62
    0
370
   -2
100
AcDbLine
 10
-1.83697019872103e-17
 20
-0.1
 11
-9.184850993605149e-18
 21
-6.05
  0
LINE
  5
1A8
100
AcDbEntity
  8
DIM Red Canes
  6
ByBlock
 62
    0
370
   -2
100
AcDbLine
 10
20
 20
3.9
 11
20
 21
-6.05
  0
ENDBLK
  5
B2
330
B0
100
AcDbEntity
  8
0
100
AcDbBlockEnd
  0
BLOCK
  5
B4
330
B3
100
AcDbEntity
  8
0
100
AcDbBlockBegin
  2
*D43
 70
    1
 10
0
 20
0
  3
*D43
  1

  0
LINE
  5
1A9
100
AcDbEntity
  8
DIM Red Mini Trees
  6
ByBlock
 62
    0
370
   -2
100
AcDbLine
 10
-11
 20
17.17530330515628
 11
-11
 21
5.861977570020826e-16
  0
SOLID
  5
1AA
100
AcDbEntity
  8
DIM Red Mini Trees
  6
ByBlock
 62
    0
370
   -2
100
AcDbTrace
 10
-11
 20
17.17530330515628
 30
0
 11
-10.91674306844543
 21
16.67530330515628
 31
0
 12
-11.08325693155457
 22
16.67530330515628
 32
0
 13
-11.08325693155457
 23
16.67530330515628
 33
0
  0
SOLID
  5
1AB
100
AcDbEntity
  8
DIM Red Mini Trees
  6
ByBlock
 62
    0
370
   -2
100
AcDbTrace
 10
-11
 20
5.861977570020826e-16
 30
0
 11
-11.08325693155457
 21
0.5000000000000006
 31
0
 12
-10.91674306844543
 22
0.5000000000000006
 32
0
 13
-10.91674306844543
 23
0.5000000000000006
 33
0
  0
MTEXT
  5
1AC
100
AcDbEntity
  8
DIM Red Mini Trees
  6
CONTINUOUS
 62
    0
370
   -2
100
AcDbMText
 10
-11.475
 20
8.587651652578138
 30
0
 40
0.75
 41
3.166666666666759
 71
    5
 72
    1
  1
17.1753
  7
standard
210
0
220
0
230
1
 50
90
 73
    2
 44
1
  0
LINE
  5
1AD
100
AcDbEntity
  8
DIM Red Mini Trees
  6
ByBlock
 62
    0
370
   -2
100
AcDbLine
 10
38.0979
 20
17.17530330515627
 11
-11.05
 21
17.17530330515628
  0
LINE
  5
1AE
100
AcDbEntity
  8
DIM Red Mini Trees
  6
ByBlock
 62
    0
370
   -2
100
AcDbLine
 10
-0.1
 20
1.224646799147353e-17
 11
-11.05
 21
5.923209909978194e-16
  0
ENDBLK
  5
B5
330
B3
100
AcDbEntity
  8
0
100
AcDbBlockEnd
  0
BLOCK
  5
B7
330
B6
100
AcDbEntity
  8
0
100
AcDbBlockBegin
  2
*D35
 70
    1
 10
0
 20
0
  3
*D35
  1

  0
LINE
  5
1AF
100
AcDbEntity
  8
DIM Tom Trees Row A
  6
ByBlock
 62
    0
370
   -2
100
AcDbLine
 10
-3
 20
8.000003305156277
 11
-3
 21
1.865174681370263e-16
  0
SOLID
  5
1B0
100
AcDbEntity
  8
DIM Tom Trees Row A
  6
ByBlock
 62
    0
370
   -2
100
AcDbTrace
 10
-3
 20
8.000003305156277
 30
0
 11
-2.916743068445431
 21
7.500003305156277
 31
0
 12
-3.083256931554568
 22
7.500003305156277
 32
0
 13
-3.083256931554568
 23
7.500003305156277
 33
0
  0
SOLID
  5
1B1
100
AcDbEntity
  8
DIM Tom Trees Row A
  6
ByBlock
 62
    0
370
   -2
100
AcDbTrace
 10
-3
 20
1.865174681370263e-16
 30
0
 11
-3.083256931554568
 21
0.5000000000000002
 31
0
 12
-2.916743068445432
 22
0.5000000000000002
 32
0
 13
-2.916743068445432
 23
0.5000000000000002
 33
0
  0
MTEXT
  5
1B2
100
AcDbEntity
  8
DIM Tom Trees Row A
  6
CONTINUOUS
 62
    0
370
   -2
100
AcDbMText
 10
-3.475
 20
4.000001652578138
 30
0
 40
0.75
 41
0.3333333333333333
 71
    5
 72
    1
  1
8
  7
standard
210
0
220
0
230
1
 50
90
 73
    2
 44
1
  0
LINE
  5
1B3
100
AcDbEntity
  8
DIM Tom Trees Row A
  6
ByBlock
 62
    0
370
   -2
100
AcDbLine
 10
36.0562
 20
8.000003305156275
 11
-3.049999999999999
 21
8.000003305156277
  0
LINE
  5
1B4
100
AcDbEntity
  8
DIM Tom Trees Row A
  6
ByBlock
 62
    0
370
   -2
100
AcDbLine
 10
-0.1
 20
1.224646799147353e-17
 11
-3.05
 21
1.92640702132763e-16
  0
ENDBLK
  5
B8
330
B6
100
AcDbEntity
  8
0
100
AcDbBlockEnd
  0
BLOCK
  5
BA
330
B9
100
AcDbEntity
  8
0
100
AcDbBlockBegin
  2
*D46
 70
    1
 10
0
 20
0
  3
*D46
  1

  0
LINE
  5
1B5
100
AcDbEntity
  8
DIM Red Canes
  6
ByBlock
 62
    0
370
   -2
100
AcDbLine
 10
-6.999999999999999
 20
16
 11
-7
 21
4.352074256530614e-16
  0
SOLID
  5
1B6
100
AcDbEntity
  8
DIM Red Canes
  6
ByBlock
 62
    0
370
   -2
100
AcDbTrace
 10
-6.999999999999999
 20
16
 30
0
 11
-6.916743068445431
 21
15.5
 31
0
 12
-7.083256931554567
 22
15.5
 32
0
 13
-7.083256931554567
 23
15.5
 33
0
  0
SOLID
  5
1B7
100
AcDbEntity
  8
DIM Red Canes
  6
ByBlock
 62
    0
370
   -2
100
AcDbTrace
 10
-7
 20
4.352074256530614e-16
 30
0
 11
-7.083256931554568
 21
0.5000000000000004
 31
0
 12
-6.916743068445432
 22
0.5000000000000004
 32
0
 13
-6.916743068445432
 23
0.5000000000000004
 33
0
  0
MTEXT
  5
1B8
100
AcDbEntity
  8
DIM Red Canes
  6
CONTINUOUS
 62
    0
370
   -2
100
AcDbMText
 10
-7.475
 20
8
 30
0
 40
0.75
 41
0.7500000000000464
 71
    5
 72
    1
  1
16
  7
standard
210
0
220
0
230
1
 50
90
 73
    2
 44
1
  0
LINE
  5
1B9
100
AcDbEntity
  8
DIM Red Canes
  6
ByBlock
 62
    0
370
   -2
100
AcDbLine
 10
0.5249999974999998
 20
16
 11
-7.049999999999999
 21
16
  0
LINE
  5
1BA
100
AcDbEntity
  8
DIM Red Canes
  6
ByBlock
 62
    0
370
   -2
100
AcDbLine
 10
-0.1
 20
1.224646799147353e-17
 11
-7.05
 21
4.413306596487982e-16
  0
ENDBLK
  5
BB
330
B9
100
AcDbEntity
  8
0
100
AcDbBlockEnd
  0
BLOCK
  5
BD
330
BC
100
AcDbEntity
  8
0
100
AcDbBlockBegin
  2
*D27
 70
    1
 10
0
 20
0
  3
*D27
  1

  0
LINE
  5
1BB
100
AcDbEntity
  8
DIM Tom Trees Row B
  6
ByBlock
 62
    0
370
   -2
100
AcDbLine
 10
0
 20
-12
 11
28.9671
 21
-12
  0
SOLID
  5
1BC
100
AcDbEntity
  8
DIM Tom Trees Row B
  6
ByBlock
 62
    0
370
   -2
100
AcDbTrace
 10
0
 20
-12
 30
0
 11
0.5
 21
-11.91674306844543
 31
0
 12
0.5
 22
-12.08325693155457
 32
0
 13
0.5
 23
-12.08325693155457
 33
0
  0
SOLID
  5
1BD
100
AcDbEntity
  8
DIM Tom Trees Row B
  6
ByBlock
 62
    0
370
   -2
100
AcDbTrace
 10
28.9671
 20
-12
 30
0
 11
28.4671
 21
-12.08325693155457
 31
0
 12
28.4671
 22
-11.91674306844543
 32
0
 13
28.4671
 23
-11.91674306844543
 33
0
  0
MTEXT
  5
1BE
100
AcDbEntity
  8
DIM Tom Trees Row B
  6
CONTINUOUS
 62
    0
370
   -2
100
AcDbMText
 10
14.48355
 20
-11.525
 30
0
 40
0.75
 41
3.333333333333379
 71
    5
 72
    1
  1
28.9671
  7
standard
210
0
220
0
230
1
 50
0
 73
    2
 44
1
  0
LINE
  5
1BF
100
AcDbEntity
  8
DIM Tom Trees Row B
  6
ByBlock
 62
    0
370
   -2
100
AcDbLine
 10
-1.83697019872103e-17
 20
-0.1
 11
-9.184850993605149e-18
 21
-12.05
  0
LINE
  5
1C0
100
AcDbEntity
  8
DIM Tom Trees Row B
  6
ByBlock
 62
    0
370
   -2
100
AcDbLine
 10
28.9671
 20
17.10980330515627
 11
28.9671
 21
-12.05
  0
ENDBLK
  5
BE
330
BC
100
AcDbEntity
  8
0
100
AcDbBlockEnd
  0
BLOCK
  5
C0
330
BF
100
AcDbEntity
  8
0
100
AcDbBlockBegin
  2
*D21
 70
    1
 10
0
 20
0
  3
*D21
  1

  0
LINE
  5
1C1
100
AcDbEntity
  8
DIM Tom Trees Row A
  6
ByBlock
 62
    0
370
   -2
100
AcDbLine
 10
1.77635683940025e-15
 20
-6
 11
14.67219507970598
 21
-6
  0
SOLID
  5
1C2
100
AcDbEntity
  8
DIM Tom Trees Row A
  6
ByBlock
 62
    0
370
   -2
100
AcDbTrace
 10
1.77635683940025e-15
 20
-6
 30
0
 11
0.5000000000000018
 21
-5.916743068445432
 31
0
 12
0.5000000000000018
 22
-6.083256931554568
 32
0
 13
0.5000000000000018
 23
-6.083256931554568
 33
0
  0
SOLID
  5
1C3
100
AcDbEntity
  8
DIM Tom Trees Row A
  6
ByBlock
 62
    0
370
   -2
100
AcDbTrace
 10
14.67219507970598
 20
-6
 30
0
 11
14.17219507970598
 21
-6.083256931554568
 31
0
 12
14.17219507970598
 22
-5.916743068445432
 32
0
 13
14.17219507970598
 23
-5.916743068445432
 33
0
  0
MTEXT
  5
1C4
100
AcDbEntity
  8
DIM Tom Trees Row A
  6
CONTINUOUS
 62
    0
370
   -2
100
AcDbMText
 10
7.336097539852989
 20
-5.525
 30
0
 40
0.75
 41
3.416666666666713
 71
    5
 72
    1
  1
14.6722
  7
standard
210
0
220
0
230
1
 50
0
 73
    2
 44
1
  0
LINE
  5
1C5
100
AcDbEntity
  8
DIM Tom Trees Row A
  6
ByBlock
 62
    0
370
   -2
100
AcDbLine
 10
-1.83697019872103e-17
 20
-0.1
 11
1.767171988406645e-15
 21
-6.05
  0
LINE
  5
1C6
100
AcDbEntity
  8
DIM Tom Trees Row A
  6
ByBlock
 62
    0
370
   -2
100
AcDbLine
 10
14.67219507970598
 20
10.72842712474619
 11
14.67219507970598
 21
-6.05
  0
ENDBLK
  5
C1
330
BF
100
AcDbEntity
  8
0
100
AcDbBlockEnd
  0
BLOCK
  5
C3
330
C2
100
AcDbEntity
  8
0
100
AcDbBlockBegin
  2
*D14
 70
    1
 10
0
 20
0
  3
*D14
  1

  0
LINE
  5
1C7
100
AcDbEntity
  8
DIM Red Canes
  6
ByBlock
 62
    0
370
   -2
100
AcDbLine
 10
-3
 20
0
 11
-3
 21
4.6249999975
  0
SOLID
  5
1C8
100
AcDbEntity
  8
DIM Red Canes
  6
ByBlock
 62
    0
370
   -2
100
AcDbTrace
 10
-3
 20
0
 30
0
 11
-3.083256931554569
 21
0.5
 31
0
 12
-2.916743068445432
 22
0.5
 32
0
 13
-2.916743068445432
 23
0.5
 33
0
  0
SOLID
  5
1C9
100
AcDbEntity
  8
DIM Red Canes
  6
ByBlock
 62
    0
370
   -2
100
AcDbTrace
 10
-3
 20
4.6249999975
 30
0
 11
-2.916743068445432
 21
4.1249999975
 31
0
 12
-3.083256931554568
 22
4.1249999975
 32
0
 13
-3.083256931554568
 23
4.1249999975
 33
0
  0
MTEXT
  5
1CA
100
AcDbEntity
  8
DIM Red Canes
  6
CONTINUOUS
 62
    0
370
   -2
100
AcDbMText
 10
-3.475
 20
2.31249999875
 30
0
 40
0.75
 41
2.41666666666676
 71
    5
 72
    1
  1
4.625
  7
standard
210
0
220
0
230
1
 50
90
 73
    2
 44
1
  0
LINE
  5
1CB
100
AcDbEntity
  8
DIM Red Canes
  6
ByBlock
 62
    0
370
   -2
100
AcDbLine
 10
-0.1
 20
1.224646799147353e-17
 11
-3.05
 21
6.123233995736766e-18
  0
LINE
  5
1CC
100
AcDbEntity
  8
DIM Red Canes
  6
ByBlock
 62
    0
370
   -2
100
AcDbLine
 10
3.9
 20
4.6249999975
 11
-3.05
 21
4.6249999975
  0
ENDBLK
  5
C4
330
C2
100
AcDbEntity
  8
0
100
AcDbBlockEnd
  0
BLOCK
  5
C6
330
C5
100
AcDbEntity
  8
0
100
AcDbBlockBegin
  2
*D18
 70
    1
 10
0
 20
0
  3
*D18
  1

  0
LINE
  5
1CD
100
AcDbEntity
  8
DIM Tom Trees Row B
  6
ByBlock
 62
    0
370
   -2
100
AcDbLine
 10
0
 20
-2.999999999999998
 11
10.42955439258669
 21
-2.999999999999998
  0
SOLID
  5
1CE
100
AcDbEntity
  8
DIM Tom Trees Row B
  6
ByBlock
 62
    0
370
   -2
100
AcDbTrace
 10
0
 20
-2.999999999999998
 30
0
 11
0.5
 21
-2.91674306844543
 31
0
 12
0.5
 22
-3.083256931554566
 32
0
 13
0.5
 23
-3.083256931554566
 33
0
  0
SOLID
  5
1CF
100
AcDbEntity
  8
DIM Tom Trees Row B
  6
ByBlock
 62
    0
370
   -2
100
AcDbTrace
 10
10.42955439258669
 20
-2.999999999999998
 30
0
 11
9.92955439258669
 21
-3.083256931554566
 31
0
 12
9.92955439258669
 22
-2.91674306844543
 32
0
 13
9.92955439258669
 23
-2.91674306844543
 33
0
  0
MTEXT
  5
1D0
100
AcDbEntity
  8
DIM Tom Trees Row B
  6
CONTINUOUS
 62
    0
370
   -2
100
AcDbMText
 10
5.214777196293345
 20
-2.524999999999998
 30
0
 40
0.75
 41
3.416666666666713
 71
    5
 72
    1
  1
10.4296
  7
standard
210
0
220
0
230
1
 50
0
 73
    2
 44
1
  0
LINE
  5
1D1
100
AcDbEntity
  8
DIM Tom Trees Row B
  6
ByBlock
 62
    0
370
   -2
100
AcDbLine
 10
-1.83697019872103e-17
 20
-0.1
 11
-9.184850993605149e-18
 21
-3.049999999999998
  0
LINE
  5
1D2
100
AcDbEntity
  8
DIM Tom Trees Row B
  6
ByBlock
 62
    0
370
   -2
100
AcDbLine
 10
10.42955439258669
 20
12.14264068711928
 11
10.42955439258669
 21
-3.049999999999998
  0
ENDBLK
  5
C7
330
C5
100
AcDbEntity
  8
0
100
AcDbBlockEnd
  0
BLOCK
  5
C9
330
C8
100
AcDbEntity
  8
0
100
AcDbBlockBegin
  2
*D20
 70
    1
 10
0
 20
0
  3
*D20
  1

  0
LINE
  5
1D3
100
AcDbEntity
  8
DIM Tom Trees Row B
  6
ByBlock
 62
    0
370
   -2
100
AcDbLine
 10
1.77635683940025e-15
 20
-5
 11
14.40424588727485
 21
-5
  0
SOLID
  5
1D4
100
AcDbEntity
  8
DIM Tom Trees Row B
  6
ByBlock
 62
    0
370
   -2
100
AcDbTrace
 10
1.77635683940025e-15
 20
-5
 30
0
 11
0.5000000000000018
 21
-4.916743068445432
 31
0
 12
0.5000000000000018
 22
-5.083256931554568
 32
0
 13
0.5000000000000018
 23
-5.083256931554568
 33
0
  0
SOLID
  5
1D5
100
AcDbEntity
  8
DIM Tom Trees Row B
  6
ByBlock
 62
    0
370
   -2
100
AcDbTrace
 10
14.40424588727485
 20
-5
 30
0
 11
13.90424588727485
 21
-5.083256931554568
 31
0
 12
13.90424588727485
 22
-4.916743068445432
 32
0
 13
13.90424588727485
 23
-4.916743068445432
 33
0
  0
MTEXT
  5
1D6
100
AcDbEntity
  8
DIM Tom Trees Row B
  6
CONTINUOUS
 62
    0
370
   -2
100
AcDbMText
 10
7.202122943637428
 20
-4.525
 30
0
 40
0.75
 41
3.583333333333333
 71
    5
 72
    1
  1
14.4042
  7
standard
210
0
220
0
230
1
 50
0
 73
    2
 44
1
  0
LINE
  5
1D7
100
AcDbEntity
  8
DIM Tom Trees Row B
  6
ByBlock
 62
    0
370
   -2
100
AcDbLine
 10
-1.83697019872103e-17
 20
-0.1
 11
1.767171988406645e-15
 21
-5.05
  0
LINE
  5
1D8
100
AcDbEntity
  8
DIM Tom Trees Row B
  6
ByBlock
 62
    0
370
   -2
100
AcDbLine
 10
14.40424588727485
 20
15.19252873988394
 11
14.40424588727485
 21
-5.05
  0
ENDBLK
  5
CA
330
C8
100
AcDbEntity
  8
0
100
AcDbBlockEnd
  0
BLOCK
  5
CC
330
CB
100
AcDbEntity
  8
0
100
AcDbBlockBegin
  2
*D44
 70
    1
 10
0
 20
0
  3
*D44
  1

  0
LINE
  5
1D9
100
AcDbEntity
  8
DIM Big Trees
  6
ByBlock
 62
    0
370
   -2
100
AcDbLine
 10
-12
 20
17.86370330515628
 11
-12
 21
6.3948846218409e-16
  0
SOLID
  5
1DA
100
AcDbEntity
  8
DIM Big Trees
  6
ByBlock
 62
    0
370
   -2
100
AcDbTrace
 10
-12
 20
17.86370330515628
 30
0
 11
-11.91674306844543
 21
17.36370330515628
 31
0
 12
-12.08325693155457
 22
17.36370330515628
 32
0
 13
-12.08325693155457
 23
17.36370330515628
 33
0
  0
SOLID
  5
1DB
100
AcDbEntity
  8
DIM Big Trees
  6
ByBlock
 62
    0
370
   -2
100
AcDbTrace
 10
-12
 20
6.3948846218409e-16
 30
0
 11
-12.08325693155457
 21
0.5000000000000007
 31
0
 12
-11.91674306844543
 22
0.5000000000000007
 32
0
 13
-11.91674306844543
 23
0.5000000000000007
 33
0
  0
MTEXT
  5
1DC
100
AcDbEntity
  8
DIM Big Trees
  6
CONTINUOUS
 62
    0
370
   -2
100
AcDbMText
 10
-12.475
 20
8.931851652578139
 30
0
 40
0.75
 41
3.333333333333426
 71
    5
 72
    1
  1
17.8637
  7
standard
210
0
220
0
230
1
 50
90
 73
    2
 44
1
  0
LINE
  5
1DD
100
AcDbEntity
  8
DIM Big Trees
  6
ByBlock
 62
    0
370
   -2
100
AcDbLine
 10
23.9
 20
17.86370330515627
 11
-12.05
 21
17.86370330515628
  0
LINE
  5
1DE
100
AcDbEntity
  8
DIM Big Trees
  6
ByBlock
 62
    0
370
   -2
100
AcDbLine
 10
-0.1
 20
1.224646799147353e-17
 11
-12.05
 21
6.456116961798268e-16
  0
ENDBLK
  5
CD
330
CB
100
AcDbEntity
  8
0
100
AcDbBlockEnd
  0
BLOCK
  5
CF
330
CE
100
AcDbEntity
  8
0
100
AcDbBlockBegin
  2
*D17
 70
    1
 10
0
 20
0
  3
*D17
  1

  0
LINE
  5
1DF
100
AcDbEntity
  8
DIM Tom Trees Row B
  6
ByBlock
 62
    0
370
   -2
100
AcDbLine
 10
0
 20
-2
 11
7.379666339822029
 21
-2
  0
SOLID
  5
1E0
100
AcDbEntity
  8
DIM Tom Trees Row B
  6
ByBlock
 62
    0
370
   -2
100
AcDbTrace
 10
0
 20
-2
 30
0
 11
0.5
 21
-1.916743068445432
 31
0
 12
0.5
 22
-2.083256931554568
 32
0
 13
0.5
 23
-2.083256931554568
 33
0
  0
SOLID
  5
1E1
100
AcDbEntity
  8
DIM Tom Trees Row B
  6
ByBlock
 62
    0
370
   -2
100
AcDbTrace
 10
7.379666339822029
 20
-2
 30
0
 11
6.879666339822029
 21
-2.083256931554568
 31
0
 12
6.879666339822029
 22
-1.916743068445432
 32
0
 13
6.879666339822029
 23
-1.916743068445432
 33
0
  0
MTEXT
  5
1E2
100
AcDbEntity
  8
DIM Tom Trees Row B
  6
CONTINUOUS
 62
    0
370
   -2
100
AcDbMText
 10
3.689833169911014
 20
-1.525
 30
0
 40
0.75
 41
2.916666666666713
 71
    5
 72
    1
  1
7.3797
  7
standard
210
0
220
0
230
1
 50
0
 73
    2
 44
1
  0
LINE
  5
1E3
100
AcDbEntity
  8
DIM Tom Trees Row B
  6
ByBlock
 62
    0
370
   -2
100
AcDbLine
 10
-1.83697019872103e-17
 20
-0.1
 11
-9.184850993605149e-18
 21
-2.05
  0
LINE
  5
1E4
100
AcDbEntity
  8
DIM Tom Trees Row B
  6
ByBlock
 62
    0
370
   -2
100
AcDbLine
 10
7.379666339822029
 20
8.16794919243112
 11
7.379666339822029
 21
-2.05
  0
ENDBLK
  5
D0
330
CE
100
AcDbEntity
  8
0
100
AcDbBlockEnd
  0
BLOCK
  5
D2
330
D1
100
AcDbEntity
  8
0
100
AcDbBlockBegin
  2
*D37
 70
    1
 10
0
 20
0
  3
*D37
  1

  0
LINE
  5
1E5
100
AcDbEntity
  8
DIM Tom Trees Row A
  6
ByBlock
 62
    0
370
   -2
100
AcDbLine
 10
-4.999999999999999
 20
10.82840330515628
 11
-5
 21
3.108624468950438e-16
  0
SOLID
  5
1E6
100
AcDbEntity
  8
DIM Tom Trees Row A
  6
ByBlock
 62
    0
370
   -2
100
AcDbTrace
 10
-4.999999999999999
 20
10.82840330515628
 30
0
 11
-4.916743068445431
 21
10.32840330515628
 31
0
 12
-5.083256931554567
 22
10.32840330515628
 32
0
 13
-5.083256931554567
 23
10.32840330515628
 33
0
  0
SOLID
  5
1E7
100
AcDbEntity
  8
DIM Tom Trees Row A
  6
ByBlock
 62
    0
370
   -2
100
AcDbTrace
 10
-5
 20
3.108624468950438e-16
 30
0
 11
-5.083256931554568
 21
0.5000000000000003
 31
0
 12
-4.916743068445432
 22
0.5000000000000003
 32
0
 13
-4.916743068445432
 23
0.5000000000000003
 33
0
  0
MTEXT
  5
1E8
100
AcDbEntity
  8
DIM Tom Trees Row A
  6
CONTINUOUS
 62
    0
370
   -2
100
AcDbMText
 10
-5.475
 20
5.414201652578138
 30
0
 40
0.75
 41
3.416666666666666
 71
    5
 72
    1
  1
10.8284
  7
standard
210
0
220
0
230
1
 50
90
 73
    2
 44
1
  0
LINE
  5
1E9
100
AcDbEntity
  8
DIM Tom Trees Row A
  6
ByBlock
 62
    0
370
   -2
100
AcDbLine
 10
33.22779999999999
 20
10.82840330515628
 11
-5.049999999999999
 21
10.82840330515628
  0
LINE
  5
1EA
100
AcDbEntity
  8
DIM Tom Trees Row A
  6
ByBlock
 62
    0
370
   -2
100
AcDbLine
 10
-0.1
 20
1.224646799147353e-17
 11
-5.05
 21
3.169856808907806e-16
  0
ENDBLK
  5
D3
330
D1
100
AcDbEntity
  8
0
100
AcDbBlockEnd
  0
BLOCK
  5
D5
330
D4
100
AcDbEntity
  8
0
100
AcDbBlockBegin
  2
*D19
 70
    1
 10
0
 20
0
  3
*D19
  1

  0
LINE
  5
1EB
100
AcDbEntity
  8
DIM Tom Trees Row A
  6
ByBlock
 62
    0
370
   -2
100
AcDbLine
 10
1.77635683940025e-15
 20
-4
 11
11.84376795495978
 21
-4
  0
SOLID
  5
1EC
100
AcDbEntity
  8
DIM Tom Trees Row A
  6
ByBlock
 62
    0
370
   -2
100
AcDbTrace
 10
1.77635683940025e-15
 20
-4
 30
0
 11
0.5000000000000018
 21
-3.916743068445432
 31
0
 12
0.5000000000000018
 22
-4.083256931554568
 32
0
 13
0.5000000000000018
 23
-4.083256931554568
 33
0
  0
SOLID
  5
1ED
100
AcDbEntity
  8
DIM Tom Trees Row A
  6
ByBlock
 62
    0
370
   -2
100
AcDbTrace
 10
11.84376795495978
 20
-4
 30
0
 11
11.34376795495978
 21
-4.083256931554568
 31
0
 12
11.34376795495978
 22
-3.916743068445432
 32
0
 13
11.34376795495978
 23
-3.916743068445432
 33
0
  0
MTEXT
  5
1EE
100
AcDbEntity
  8
DIM Tom Trees Row A
  6
CONTINUOUS
 62
    0
370
   -2
100
AcDbMText
 10
5.921883977479893
 20
-3.525
 30
0
 40
0.75
 41
3.250000000000047
 71
    5
 72
    1
  1
11.8438
  7
standard
210
0
220
0
230
1
 50
0
 73
    2
 44
1
  0
LINE
  5
1EF
100
AcDbEntity
  8
DIM Tom Trees Row A
  6
ByBlock
 62
    0
370
   -2
100
AcDbLine
 10
-1.83697019872103e-17
 20
-0.1
 11
1.767171988406645e-15
 21
-4.05
  0
LINE
  5
1F0
100
AcDbEntity
  8
DIM Tom Trees Row A
  6
ByBlock
 62
    0
370
   -2
100
AcDbLine
 10
11.84376795495978
 20
7.899999999999997
 11
11.84376795495978
 21
-4.05
  0
ENDBLK
  5
D6
330
D4
100
AcDbEntity
  8
0
100
AcDbBlockEnd
  0
BLOCK
  5
D8
330
D7
100
AcDbEntity
  8
0
100
AcDbBlockBegin
  2
*D28
 70
    1
 10
0
 20
0
  3
*D28
  1

  0
LINE
  5
1F1
100
AcDbEntity
  8
DIM Tom Trees Row A
  6
ByBlock
 62
    0
370
   -2
100
AcDbLine
 10
-3.552713678800501e-15
 20
-13
 11
29.8637
 21
-13
  0
SOLID
  5
1F2
100
AcDbEntity
  8
DIM Tom Trees Row A
  6
ByBlock
 62
    0
370
   -2
100
AcDbTrace
 10
-3.552713678800501e-15
 20
-13
 30
0
 11
0.4999999999999964
 21
-12.91674306844543
 31
0
 12
0.4999999999999964
 22
-13.08325693155457
 32
0
 13
0.4999999999999964
 23
-13.08325693155457
 33
0
  0
SOLID
  5
1F3
100
AcDbEntity
  8
DIM Tom Trees Row A
  6
ByBlock
 62
    0
370
   -2
100
AcDbTrace
 10
29.8637
 20
-13
 30
0
 11
29.3637
 21
-13.08325693155457
 31
0
 12
29.3637
 22
-12.91674306844543
 32
0
 13
29.3637
 23
-12.91674306844543
 33
0
  0
MTEXT
  5
1F4
100
AcDbEntity
  8
DIM Tom Trees Row A
  6
CONTINUOUS
 62
    0
370
   -2
100
AcDbMText
 10
14.93185
 20
-12.525
 30
0
 40
0.75
 41
3.500000000000093
 71
    5
 72
    1
  1
29.8637
  7
standard
210
0
220
0
230
1
 50
0
 73
    2
 44
1
  0
LINE
  5
1F5
100
AcDbEntity
  8
DIM Tom Trees Row A
  6
ByBlock
 62
    0
370
   -2
100
AcDbLine
 10
-1.83697019872103e-17
 20
-0.1
 11
-3.561898529794106e-15
 21
-13.05
  0
LINE
  5
1F6
100
AcDbEntity
  8
DIM Tom Trees Row A
  6
ByBlock
 62
    0
370
   -2
100
AcDbLine
 10
29.8637
 20
12.72840330515628
 11
29.8637
 21
-13.05
  0
ENDBLK
  5
D9
330
D7
100
AcDbEntity
  8
0
100
AcDbBlockEnd
  0
BLOCK
  5
DB
330
DA
100
AcDbEntity
  8
0
100
AcDbBlockBegin
  2
*D25
 70
    1
 10
0
 20
0
  3
*D25
  1

  0
LINE
  5
1F7
100
AcDbEntity
  8
DIM Big Trees
  6
ByBlock
 62
    0
370
   -2
100
AcDbLine
 10
0
 20
-10
 11
24
 21
-10
  0
SOLID
  5
1F8
100
AcDbEntity
  8
DIM Big Trees
  6
ByBlock
 62
    0
370
   -2
100
AcDbTrace
 10
0
 20
-10
 30
0
 11
0.5
 21
-9.916743068445433
 31
0
 12
0.5
 22
-10.08325693155457
 32
0
 13
0.5
 23
-10.08325693155457
 33
0
  0
SOLID
  5
1F9
100
AcDbEntity
  8
DIM Big Trees
  6
ByBlock
 62
    0
370
   -2
100
AcDbTrace
 10
24
 20
-10
 30
0
 11
23.5
 21
-10.08325693155457
 31
0
 12
23.5
 22
-9.916743068445433
 32
0
 13
23.5
 23
-9.916743068445433
 33
0
  0
MTEXT
  5
1FA
100
AcDbEntity
  8
DIM Big Trees
  6
CONTINUOUS
 62
    0
370
   -2
100
AcDbMText
 10
12
 20
-9.525
 30
0
 40
0.75
 41
1
 71
    5
 72
    1
  1
24
  7
standard
210
0
220
0
230
1
 50
0
 73
    2
 44
1
  0
LINE
  5
1FB
100
AcDbEntity
  8
DIM Big Trees
  6
ByBlock
 62
    0
370
   -2
100
AcDbLine
 10
-1.83697019872103e-17
 20
-0.1
 11
-9.184850993605149e-18
 21
-10.05
  0
LINE
  5
1FC
100
AcDbEntity
  8
DIM Big Trees
  6
ByBlock
 62
    0
370
   -2
100
AcDbLine
 10
24
 20
7.9
 11
24
 21
-10.05
  0
ENDBLK
  5
DC
330
DA
100
AcDbEntity
  8
0
100
AcDbBlockEnd
  0
BLOCK
  5
DE
330
DD
100
AcDbEntity
  8
0
100
AcDbBlockBegin
  2
*D13
 70
    1
 10
0
 20
0
  3
*D13
  1

  0
LINE
  5
1FD
100
AcDbEntity
  8
DIM Green Canes
  6
ByBlock
 62
    0
370
   -2
100
AcDbLine
 10
-4
 20
0
 11
-4
 21
4.624999997500001
  0
SOLID
  5
1FE
100
AcDbEntity
  8
DIM Green Canes
  6
ByBlock
 62
    0
370
   -2
100
AcDbTrace
 10
-4
 20
0
 30
0
 11
-4.083256931554568
 21
0.5
 31
0
 12
-3.916743068445432
 22
0.5
 32
0
 13
-3.916743068445432
 23
0.5
 33
0
  0
SOLID
  5
1FF
100
AcDbEntity
  8
DIM Green Canes
  6
ByBlock
 62
    0
370
   -2
100
AcDbTrace
 10
-4
 20
4.624999997500001
 30
0
 11
-3.916743068445432
 21
4.124999997500001
 31
0
 12
-4.083256931554568
 22
4.124999997500001
 32
0
 13
-4.083256931554568
 23
4.124999997500001
 33
0
  0
MTEXT
  5
200
100
AcDbEntity
  8
DIM Green Canes
  6
CONTINUOUS
 62
    0
370
   -2
100
AcDbMText
 10
-4.475
 20
2.31249999875
 30
0
 40
0.75
 41
2.41666666666676
 71
    5
 72
    1
  1
4.625
  7
standard
210
0
220
0
230
1
 50
90
 73
    2
 44
1
  0
LINE
  5
201
100
AcDbEntity
  8
DIM Green Canes
  6
ByBlock
 62
    0
370
   -2
100
AcDbLine
 10
-0.1
 20
1.224646799147353e-17
 11
-4.05
 21
6.123233995736766e-18
  0
LINE
  5
202
100
AcDbEntity
  8
DIM Green Canes
  6
ByBlock
 62
    0
370
   -2
100
AcDbLine
 10
7.9
 20
4.6249999975
 11
-4.05
 21
4.624999997500001
  0
ENDBLK
  5
DF
330
DD
100
AcDbEntity
  8
0
100
AcDbBlockEnd
  0
BLOCK
  5
E1
330
E0
100
AcDbEntity
  8
0
100
AcDbBlockBegin
  2
*D8
 70
    1
 10
0
 20
0
  3
*D8
  1

  0
LINE
  5
203
100
AcDbEntity
  8
DIM Green Canes
  6
ByBlock
 62
    0
370
   -2
100
AcDbLine
 10
24
 20
-6.999999999999998
 11
0
 21
-6.999999999999998
  0
SOLID
  5
204
100
AcDbEntity
  8
DIM Green Canes
  6
ByBlock
 62
    0
370
   -2
100
AcDbTrace
 10
24
 20
-6.999999999999998
 30
0
 11
23.5
 21
-7.083256931554566
 31
0
 12
23.5
 22
-6.91674306844543
 32
0
 13
23.5
 23
-6.91674306844543
 33
0
  0
SOLID
  5
205
100
AcDbEntity
  8
DIM Green Canes
  6
ByBlock
 62
    0
370
   -2
100
AcDbTrace
 10
0
 20
-6.999999999999998
 30
0
 11
0.5
 21
-6.91674306844543
 31
0
 12
0.5
 22
-7.083256931554566
 32
0
 13
0.5
 23
-7.083256931554566
 33
0
  0
MTEXT
  5
206
100
AcDbEntity
  8
DIM Green Canes
  6
CONTINUOUS
 62
    0
370
   -2
100
AcDbMText
 10
12
 20
-6.524999999999999
 30
0
 40
0.75
 41
1
 71
    5
 72
    1
  1
24
  7
standard
210
0
220
0
230
1
 50
360
 73
    2
 44
1
  0
LINE
  5
207
100
AcDbEntity
  8
DIM Green Canes
  6
ByBlock
 62
    0
370
   -2
100
AcDbLine
 10
24
 20
3.9
 11
24
 21
-7.049999999999998
  0
LINE
  5
208
100
AcDbEntity
  8
DIM Green Canes
  6
ByBlock
 62
    0
370
   -2
100
AcDbLine
 10
-1.83697019872103e-17
 20
-0.1
 11
-9.184850993605149e-18
 21
-7.049999999999998
  0
ENDBLK
  5
E2
330
E0
100
AcDbEntity
  8
0
100
AcDbBlockEnd
  0
BLOCK
  5
E4
330
E3
100
AcDbEntity
  8
0
100
AcDbBlockBegin
  2
*D7
 70
    1
 10
0
 20
0
  3
*D7
  1

  0
LINE
  5
209
100
AcDbEntity
  8
DIM Green Canes
  6
ByBlock
 62
    0
370
   -2
100
AcDbLine
 10
16
 20
-4.999999999999999
 11
0
 21
-4.999999999999999
  0
SOLID
  5
20A
100
AcDbEntity
  8
DIM Green Canes
  6
ByBlock
 62
    0
370
   -2
100
AcDbTrace
 10
16
 20
-4.999999999999999
 30
0
 11
15.5
 21
-5.083256931554567
 31
0
 12
15.5
 22
-4.916743068445431
 32
0
 13
15.5
 23
-4.916743068445431
 33
0
  0
SOLID
  5
20B
100
AcDbEntity
  8
DIM Green Canes
  6
ByBlock
 62
    0
370
   -2
100
AcDbTrace
 10
0
 20
-4.999999999999999
 30
0
 11
0.5
 21
-4.916743068445431
 31
0
 12
0.5
 22
-5.083256931554567
 32
0
 13
0.5
 23
-5.083256931554567
 33
0
  0
MTEXT
  5
20C
100
AcDbEntity
  8
DIM Green Canes
  6
CONTINUOUS
 62
    0
370
   -2
100
AcDbMText
 10
8
 20
-4.524999999999999
 30
0
 40
0.75
 41
0.7500000000000464
 71
    5
 72
    1
  1
16
  7
standard
210
0
220
0
230
1
 50
360
 73
    2
 44
1
  0
LINE
  5
20D
100
AcDbEntity
  8
DIM Green Canes
  6
ByBlock
 62
    0
370
   -2
100
AcDbLine
 10
16
 20
3.9
 11
16
 21
-5.049999999999999
  0
LINE
  5
20E
100
AcDbEntity
  8
DIM Green Canes
  6
ByBlock
 62
    0
370
   -2
100
AcDbLine
 10
-1.83697019872103e-17
 20
-0.1
 11
-9.184850993605149e-18
 21
-5.049999999999999
  0
ENDBLK
  5
E5
330
E3
100
AcDbEntity
  8
0
100
AcDbBlockEnd
  0
BLOCK
  5
E7
330
E6
100
AcDbEntity
  8
0
100
AcDbBlockBegin
  2
*D23
 70
    1
 10
0
 20
0
  3
*D23
  1

  0
LINE
  5
20F
100
AcDbEntity
  8
DIM Tom Trees Row B
  6
ByBlock
 62
    0
370
   -2
100
AcDbLine
 10
0
 20
-8
 11
19.03287216701178
 21
-8
  0
SOLID
  5
210
100
AcDbEntity
  8
DIM Tom Trees Row B
  6
ByBlock
 62
    0
370
   -2
100
AcDbTrace
 10
0
 20
-8
 30
0
 11
0.5
 21
-7.916743068445432
 31
0
 12
0.5
 22
-8.083256931554569
 32
0
 13
0.5
 23
-8.083256931554569
 33
0
  0
SOLID
  5
211
100
AcDbEntity
  8
DIM Tom Trees Row B
  6
ByBlock
 62
    0
370
   -2
100
AcDbTrace
 10
19.03287216701178
 20
-8
 30
0
 11
18.53287216701178
 21
-8.083256931554567
 31
0
 12
18.53287216701178
 22
-7.916743068445432
 32
0
 13
18.53287216701178
 23
-7.916743068445432
 33
0
  0
MTEXT
  5
212
100
AcDbEntity
  8
DIM Tom Trees Row B
  6
CONTINUOUS
 62
    0
370
   -2
100
AcDbMText
 10
9.516436083505891
 20
-7.525
 30
0
 40
0.75
 41
3.333333333333379
 71
    5
 72
    1
  1
19.0329
  7
standard
210
0
220
0
230
1
 50
0
 73
    2
 44
1
  0
LINE
  5
213
100
AcDbEntity
  8
DIM Tom Trees Row B
  6
ByBlock
 62
    0
370
   -2
100
AcDbLine
 10
-1.83697019872103e-17
 20
-0.1
 11
-9.184850993605149e-18
 21
-8.050000000000001
  0
LINE
  5
214
100
AcDbEntity
  8
DIM Tom Trees Row B
  6
ByBlock
 62
    0
370
   -2
100
AcDbLine
 10
19.03287216701178
 20
17.1097685201075
 11
19.03287216701178
 21
-8.050000000000001
  0
ENDBLK
  5
E8
330
E6
100
AcDbEntity
  8
0
100
AcDbBlockEnd
  0
BLOCK
  5
EA
330
E9
100
AcDbEntity
  8
0
100
AcDbBlockBegin
  2
*D9
 70
    1
 10
0
 20
0
  3
*D9
  1

  0
LINE
  5
215
100
AcDbEntity
  8
DIM Green Canes
  6
ByBlock
 62
    0
370
   -2
100
AcDbLine
 10
32
 20
-8.999999999999998
 11
0
 21
-8.999999999999998
  0
SOLID
  5
216
100
AcDbEntity
  8
DIM Green Canes
  6
ByBlock
 62
    0
370
   -2
100
AcDbTrace
 10
32
 20
-8.999999999999998
 30
0
 11
31.5
 21
-9.083256931554565
 31
0
 12
31.5
 22
-8.916743068445431
 32
0
 13
31.5
 23
-8.916743068445431
 33
0
  0
SOLID
  5
217
100
AcDbEntity
  8
DIM Green Canes
  6
ByBlock
 62
    0
370
   -2
100
AcDbTrace
 10
0
 20
-8.999999999999998
 30
0
 11
0.5
 21
-8.916743068445431
 31
0
 12
0.5
 22
-9.083256931554565
 32
0
 13
0.5
 23
-9.083256931554565
 33
0
  0
MTEXT
  5
218
100
AcDbEntity
  8
DIM Green Canes
  6
CONTINUOUS
 62
    0
370
   -2
100
AcDbMText
 10
16
 20
-8.524999999999999
 30
0
 40
0.75
 41
0.9166666666667131
 71
    5
 72
    1
  1
32
  7
standard
210
0
220
0
230
1
 50
360
 73
    2
 44
1
  0
LINE
  5
219
100
AcDbEntity
  8
DIM Green Canes
  6
ByBlock
 62
    0
370
   -2
100
AcDbLine
 10
32
 20
3.9
 11
32
 21
-9.049999999999999
  0
LINE
  5
21A
100
AcDbEntity
  8
DIM Green Canes
  6
ByBlock
 62
    0
370
   -2
100
AcDbLine
 10
-1.83697019872103e-17
 20
-0.1
 11
-9.184850993605149e-18
 21
-9.049999999999999
  0
ENDBLK
  5
EB
330
E9
100
AcDbEntity
  8
0
100
AcDbBlockEnd
  0
BLOCK
  5
ED
330
EC
100
AcDbEntity
  8
0
100
AcDbBlockBegin
  2
*D4
 70
    1
 10
0
 20
0
  3
*D4
  1

  0
LINE
  5
21B
100
AcDbEntity
  8
DIM Red Canes
  6
ByBlock
 62
    0
370
   -2
100
AcDbLine
 10
0
 20
-8
 11
28
 21
-8
  0
SOLID
  5
21C
100
AcDbEntity
  8
DIM Red Canes
  6
ByBlock
 62
    0
370
   -2
100
AcDbTrace
 10
0
 20
-8
 30
0
 11
0.5
 21
-7.916743068445432
 31
0
 12
0.5
 22
-8.083256931554569
 32
0
 13
0.5
 23
-8.083256931554569
 33
0
  0
SOLID
  5
21D
100
AcDbEntity
  8
DIM Red Canes
  6
ByBlock
 62
    0
370
   -2
100
AcDbTrace
 10
28
 20
-8
 30
0
 11
27.5
 21
-8.083256931554567
 31
0
 12
27.5
 22
-7.916743068445432
 32
0
 13
27.5
 23
-7.916743068445432
 33
0
  0
MTEXT
  5
21E
100
AcDbEntity
  8
DIM Red Canes
  6
CONTINUOUS
 62
    0
370
   -2
100
AcDbMText
 10
14
 20
-7.525
 30
0
 40
0.75
 41
0.9166666666666666
 71
    5
 72
    1
  1
28
  7
standard
210
0
220
0
230
1
 50
0
 73
    2
 44
1
  0
LINE
  5
21F
100
AcDbEntity
  8
DIM Red Canes
  6
ByBlock
 62
    0
370
   -2
100
AcDbLine
 10
-1.83697019872103e-17
 20
-0.1
 11
-9.184850993605149e-18
 21
-8.050000000000001
  0
LINE
  5
220
100
AcDbEntity
  8
DIM Red Canes
  6
ByBlock
 62
    0
370
   -2
100
AcDbLine
 10
28
 20
3.9
 11
28
 21
-8.050000000000001
  0
ENDBLK
  5
EE
330
EC
100
AcDbEntity
  8
0
100
AcDbBlockEnd
  0
BLOCK
  5
F0
330
EF
100
AcDbEntity
  8
0
100
AcDbBlockBegin
  2
Green Cane H
 70
    0
 10
0
 20
0
  3
Green Cane H
  1

  0
CIRCLE
  5
221
100
AcDbEntity
  8
Green Canes
  6
ByLayer
 62
  256
370
   -1
100
AcDbCircle
 10
0
 20
0
 40
0.0416666665
  0
CIRCLE
  5
222
100
AcDbEntity
  8
Green Canes
  6
ByLayer
 62
  256
370
   -1
100
AcDbCircle
 10
0.6249999974999998
 20
0
 40
0.0416666665
  0
LINE
  5
223
100
AcDbEntity
  8
Green Canes
  6
ByLayer
 62
  256
370
   -1
100
AcDbLine
 10
0
 20
0.04166666650000028
 11
0.6249999974999998
 21
0.04166666650000028
  0
LINE
  5
224
100
AcDbEntity
  8
Green Canes
  6
ByLayer
 62
  256
370
   -1
100
AcDbLine
 10
0
 20
-0.04166666650000028
 11
0.6249999974999998
 21
-0.04166666650000028
  0
ENDBLK
  5
F1
330
EF
100
AcDbEntity
  8
0
100
AcDbBlockEnd
  0
BLOCK
  5
F3
330
F2
100
AcDbEntity
  8
0
100
AcDbBlockBegin
  2
Red Cane H
 70
    0
 10
0
 20
0
  3
Red Cane H
  1

  0
CIRCLE
  5
225
100
AcDbEntity
  8
Red Canes
  6
ByLayer
 62
  256
370
   -1
100
AcDbCircle
 10
0.6249999974999998
 20
0
 40
0.0416666665
  0
CIRCLE
  5
226
100
AcDbEntity
  8
Red Canes
  6
ByLayer
 62
  256
370
   -1
100
AcDbCircle
 10
0
 20
0
 40
0.0416666665
  0
LINE
  5
227
100
AcDbEntity
  8
Red Canes
  6
ByLayer
 62
  256
370
   -1
100
AcDbLine
 10
0
 20
0.04166666650000028
 11
0.6249999974999998
 21
0.04166666650000028
  0
LINE
  5
228
100
AcDbEntity
  8
Red Canes
  6
ByLayer
 62
  256
370
   -1
100
AcDbLine
 10
0
 20
-0.04166666650000028
 11
0.6249999974999998
 21
-0.04166666650000028
  0
ENDBLK
  5
F4
330
F2
100
AcDbEntity
  8
0
100
AcDbBlockEnd
  0
BLOCK
  5
F6
330
F5
100
AcDbEntity
  8
0
100
AcDbBlockBegin
  2
Green Cane V
 70
    0
 10
0
 20
0
  3
Green Cane V
  1

  0
INSERT
  5
229
100
AcDbEntity
  8
Green Canes
  6
ByLayer
 62
  256
370
   -1
100
AcDbBlockReference
  2
Green Cane H
 10
0
 20
0
 30
0
 41
1
 42
1
 43
0
 50
90
 70
    1
 71
    1
 44
0
 45
0
  0
INSERT
  5
22A
100
AcDbEntity
  8
0
  6
ByLayer
 62
  256
370
   -1
100
AcDbBlockReference
  2
Red Cane
 10
0.2499999990000017
 20
0.6666666639999992
 30
0
 41
1
 42
1
 43
0
 50
90
 70
    1
 71
    1
 44
1
 45
1
  0
ENDBLK
  5
F7
330
F5
100
AcDbEntity
  8
0
100
AcDbBlockEnd
  0
BLOCK
  5
F9
330
F8
100
AcDbEntity
  8
0
100
AcDbBlockBegin
  2
Red Cane V
 70
    0
 10
0
 20
0
  3
Red Cane V
  1

  0
INSERT
  5
22B
100
AcDbEntity
  8
Red Canes
  6
ByLayer
 62
  256
370
   -1
100
AcDbBlockReference
  2
Red Cane H
 10
0
 20
0
 30
0
 41
1
 42
1
 43
0
 50
90
 70
    1
 71
    1
 44
0
 45
0
  0
ENDBLK
  5
FA
330
F8
100
AcDbEntity
  8
0
100
AcDbBlockEnd
  0
ENDSEC
  0
SECTION
  2
ENTITIES
  0
LINE
  5
22C
100
AcDbEntity
  8
Curb
  6
ByLayer
 62
  256
370
   -1
100
AcDbLine
 10
0
 20
0
 11
60
 21
0
  0
LINE
  5
22D
100
AcDbEntity
  8
Property Line
  6
ByLayer
 62
  256
370
   -1
100
AcDbLine
 10
0
 20
0
 11
0
 21
60
  0
LINE
  5
22E
100
AcDbEntity
  8
0
  6
ByLayer
 62
  256
370
   -1
100
AcDbLine
 10
0
 20
0
 11
0
 21
4
  0
LINE
  5
22F
100
AcDbEntity
  8
0
  6
ByLayer
 62
  256
370
   -1
100
AcDbLine
 10
0
 20
4
 11
0
 21
8
  0
LINE
  5
230
100
AcDbEntity
  8
0
  6
ByLayer
 62
  256
370
   -1
100
AcDbLine
 10
0
 20
8
 11
0
 21
12
  0
LINE
  5
231
100
AcDbEntity
  8
0
  6
ByLayer
 62
  256
370
   -1
100
AcDbLine
 10
0
 20
12
 11
0
 21
16
  0
LINE
  5
232
100
AcDbEntity
  8
0
  6
ByLayer
 62
  256
370
   -1
100
AcDbLine
 10
0
 20
16
 11
0
 21
20
  0
LINE
  5
233
100
AcDbEntity
  8
0
  6
ByLayer
 62
  256
370
   -1
100
AcDbLine
 10
0
 20
20
 11
0
 21
24
  0
LINE
  5
234
100
AcDbEntity
  8
0
  6
ByLayer
 62
  256
370
   -1
100
AcDbLine
 10
0
 20
24
 11
0
 21
28
  0
LINE
  5
235
100
AcDbEntity
  8
0
  6
ByLayer
 62
  256
370
   -1
100
AcDbLine
 10
0
 20
28
 11
0
 21
32
  0
LINE
  5
236
100
AcDbEntity
  8
0
  6
ByLayer
 62
  256
370
   -1
100
AcDbLine
 10
0
 20
4
 11
4
 21
4
  0
LINE
  5
237
100
AcDbEntity
  8
0
  6
ByLayer
 62
  256
370
   -1
100
AcDbLine
 10
4
 20
4
 11
8
 21
4
  0
LINE
  5
238
100
AcDbEntity
  8
0
  6
ByLayer
 62
  256
370
   -1
100
AcDbLine
 10
8
 20
4
 11
12
 21
4
  0
LINE
  5
239
100
AcDbEntity
  8
0
  6
ByLayer
 62
  256
370
   -1
100
AcDbLine
 10
12
 20
4
 11
16
 21
4
  0
LINE
  5
23A
100
AcDbEntity
  8
0
  6
ByLayer
 62
  256
370
   -1
100
AcDbLine
 10
16
 20
4
 11
20
 21
4
  0
LINE
  5
23B
100
AcDbEntity
  8
0
  6
ByLayer
 62
  256
370
   -1
100
AcDbLine
 10
20
 20
4
 11
24
 21
4
  0
LINE
  5
23C
100
AcDbEntity
  8
0
  6
ByLayer
 62
  256
370
   -1
100
AcDbLine
 10
24
 20
4
 11
28
 21
4
  0
LINE
  5
23D
100
AcDbEntity
  8
0
  6
ByLayer
 62
  256
370
   -1
100
AcDbLine
 10
28
 20
4
 11
32
 21
4
  0
LINE
  5
23E
100
AcDbEntity
  8
0
  6
ByLayer
 62
  256
370
   -1
100
AcDbLine
 10
32
 20
4
 11
36
 21
4
  0
LINE
  5
23F
100
AcDbEntity
  8
0
  6
ByLayer
 62
  256
370
   -1
100
AcDbLine
 10
36
 20
4
 11
40
 21
4
  0
LINE
  5
240
100
AcDbEntity
  8
0
  6
ByLayer
 62
  256
370
   -1
100
AcDbLine
 10
40
 20
4
 11
44
 21
4
  0
LINE
  5
241
100
AcDbEntity
  8
0
  6
ByLayer
 62
  256
370
   -1
100
AcDbLine
 10
44
 20
4
 11
48
 21
4
  0
LINE
  5
242
100
AcDbEntity
  8
0
  6
ByLayer
 62
  256
370
   -1
100
AcDbLine
 10
48
 20
4
 11
52
 21
4
  0
INSERT
  5
243
100
AcDbEntity
  8
Red Canes
  6
ByLayer
 62
  256
370
   -1
100
AcDbBlockReference
  2
Red Cane V
 10
4
 20
4
 30
0
 41
1
 42
1
 43
0
 50
0
 70
    1
 71
    1
 44
1
 45
1
  0
INSERT
  5
244
100
AcDbEntity
  8
Red Canes
  6
ByLayer
 62
  256
370
   -1
100
AcDbBlockReference
  2
Green Cane V
 10
8
 20
4
 30
0
 41
1
 42
1
 43
0
 50
0
 70
    1
 71
    1
 44
1
 45
1
  0
INSERT
  5
245
100
AcDbEntity
  8
Red Canes
  6
ByLayer
 62
  256
370
   -1
100
AcDbBlockReference
  2
Green Cane V
 10
16
 20
4
 30
0
 41
1
 42
1
 43
0
 50
0
 70
    1
 71
    1
 44
1
 45
1
  0
INSERT
  5
246
100
AcDbEntity
  8
Red Canes
  6
ByLayer
 62
  256
370
   -1
100
AcDbBlockReference
  2
Green Cane V
 10
24
 20
4
 30
0
 41
1
 42
1
 43
0
 50
0
 70
    1
 71
    1
 44
1
 45
1
  0
INSERT
  5
247
100
AcDbEntity
  8
Red Canes
  6
ByLayer
 62
  256
370
   -1
100
AcDbBlockReference
  2
Green Cane V
 10
32
 20
4
 30
0
 41
1
 42
1
 43
0
 50
0
 70
    1
 71
    1
 44
1
 45
1
  0
INSERT
  5
248
100
AcDbEntity
  8
Red Canes
  6
ByLayer
 62
  256
370
   -1
100
AcDbBlockReference
  2
Green Cane V
 10
40
 20
4
 30
0
 41
1
 42
1
 43
0
 50
0
 70
    1
 71
    1
 44
1
 45
1
  0
INSERT
  5
249
100
AcDbEntity
  8
Red Canes
  6
ByLayer
 62
  256
370
   -1
100
AcDbBlockReference
  2
Green Cane H
 10
0
 20
12
 30
0
 41
1
 42
1
 43
0
 50
0
 70
    1
 71
    1
 44
1
 45
1
  0
INSERT
  5
24A
100
AcDbEntity
  8
Red Canes
  6
ByLayer
 62
  256
370
   -1
100
AcDbBlockReference
  2
Green Cane H
 10
0
 20
20
 30
0
 41
1
 42
1
 43
0
 50
0
 70
    1
 71
    1
 44
1
 45
1
  0
INSERT
  5
24B
100
AcDbEntity
  8
Red Canes
  6
ByLayer
 62
  256
370
   -1
100
AcDbBlockReference
  2
Green Cane V
 10
0
 20
4
 30
0
 41
1
 42
1
 43
0
 50
315
 70
    1
 71
    1
 44
1
 45
1
  0
INSERT
  5
24C
100
AcDbEntity
  8
Red Canes
  6
ByLayer
 62
  256
370
   -1
100
AcDbBlockReference
  2
Red Cane V
 10
43
 20
6
 30
0
 41
1
 42
1
 43
0
 50
29.99999999999999
 70
    1
 71
    1
 44
1
 45
1
  0
INSERT
  5
24D
100
AcDbEntity
  8
Red Canes
  6
ByLayer
 62
  256
370
   -1
100
AcDbBlockReference
  2
Green Cane V
 10
46
 20
8
 30
0
 41
1
 42
1
 43
0
 50
29.99999999999999
 70
    1
 71
    1
 44
1
 45
1
  0
INSERT
  5
24E
100
AcDbEntity
  8
Red Canes
  6
ByLayer
 62
  256
370
   -1
100
AcDbBlockReference
  2
Red Cane V
 10
49
 20
10
 30
0
 41
1
 42
1
 43
0
 50
90
 70
    1
 71
    1
 44
1
 45
1
  0
INSERT
  5
24F
100
AcDbEntity
  8
Red Canes
  6
ByLayer
 62
  256
370
   -1
100
AcDbBlockReference
  2
Green Cane V
 10
49
 20
14
 30
0
 41
1
 42
1
 43
0
 50
90
 70
    1
 71
    1
 44
1
 45
1
  0
INSERT
  5
250
100
AcDbEntity
  8
Red Canes
  6
ByLayer
 62
  256
370
   -1
100
AcDbBlockReference
  2
Red Cane V
 10
49
 20
18
 30
0
 41
1
 42
1
 43
0
 50
90
 70
    1
 71
    1
 44
1
 45
1
  0
INSERT
  5
251
100
AcDbEntity
  8
Red Canes
  6
ByLayer
 62
  256
370
   -1
100
AcDbBlockReference
  2
Green Cane V
 10
49
 20
22
 30
0
 41
1
 42
1
 43
0
 50
90
 70
    1
 71
    1
 44
1
 45
1
  0
CIRCLE
  5
252
100
AcDbEntity
  8
Tom Trees Row A RGBW
  6
ByLayer
 62
  256
370
   -1
100
AcDbCircle
 10
22
 20
13.86370330515627
 40
0.5
  0
CIRCLE
  5
253
100
AcDbEntity
  8
Tom Trees Row A RGBW
  6
ByLayer
 62
  256
370
   -1
100
AcDbCircle
 10
18.13629669484373
 20
12.82842712474619
 40
0.5
  0
CIRCLE
  5
254
100
AcDbEntity
  8
Tom Trees Row A RGBW
  6
ByLayer
 62
  256
370
   -1
100
AcDbCircle
 10
14.67219507970598
 20
10.82842712474619
 40
0.5
  0
CIRCLE
  5
255
100
AcDbEntity
  8
Tom Trees Row A RGBW
  6
ByLayer
 62
  256
370
   -1
100
AcDbCircle
 10
11.84376795495978
 20
7.999999999999996
 40
0.5
  0
CIRCLE
  5
256
100
AcDbEntity
  8
Tom Trees Row B VW
  6
ByLayer
 62
  256
370
   -1
100
AcDbCircle
 10
19.03287216701178
 20
17.20976852010751
 40
0.5
  0
CIRCLE
  5
257
100
AcDbEntity
  8
Tom Trees Row B VW
  6
ByLayer
 62
  256
370
   -1
100
AcDbCircle
 10
14.40424588727485
 20
15.29252873988394
 40
0.5
  0
CIRCLE
  5
258
100
AcDbEntity
  8
Tom Trees Row B VW
  6
ByLayer
 62
  256
370
   -1
100
AcDbCircle
 10
10.42955439258669
 20
12.24264068711928
 40
0.5
  0
CIRCLE
  5
259
100
AcDbEntity
  8
Tom Trees Row B VW
  6
ByLayer
 62
  256
370
   -1
100
AcDbCircle
 10
7.379666339822029
 20
8.26794919243112
 40
0.5
  0
CIRCLE
  5
25A
100
AcDbEntity
  8
Tom Trees Row B VW
  6
ByLayer
 62
  256
370
   -1
100
AcDbCircle
 10
40.62033366017796
 20
8.267949192431127
 40
0.5
  0
CIRCLE
  5
25B
100
AcDbEntity
  8
Tom Trees Row B VW
  6
ByLayer
 62
  256
370
   -1
100
AcDbCircle
 10
37.5704
 20
12.24260330515628
 40
0.5
  0
CIRCLE
  5
25C
100
AcDbEntity
  8
Tom Trees Row B VW
  6
ByLayer
 62
  256
370
   -1
100
AcDbCircle
 10
33.5958
 20
15.29250330515627
 40
0.5
  0
CIRCLE
  5
25D
100
AcDbEntity
  8
Tom Trees Row B VW
  6
ByLayer
 62
  256
370
   -1
100
AcDbCircle
 10
28.9671
 20
17.20980330515627
 40
0.5
  0
CIRCLE
  5
25E
100
AcDbEntity
  8
Tom Trees Row A RGBW
  6
ByLayer
 62
  256
370
   -1
100
AcDbCircle
 10
26
 20
13.86370330515627
 40
0.5
  0
CIRCLE
  5
25F
100
AcDbEntity
  8
Tom Trees Row A RGBW
  6
ByLayer
 62
  256
370
   -1
100
AcDbCircle
 10
29.8637
 20
12.82840330515628
 40
0.5
  0
CIRCLE
  5
260
100
AcDbEntity
  8
Tom Trees Row A RGBW
  6
ByLayer
 62
  256
370
   -1
100
AcDbCircle
 10
33.3278
 20
10.82840330515628
 40
0.5
  0
CIRCLE
  5
261
100
AcDbEntity
  8
Tom Trees Row A RGBW
  6
ByLayer
 62
  256
370
   -1
100
AcDbCircle
 10
36.1562
 20
8.000003305156275
 40
0.5
  0
CIRCLE
  5
262
100
AcDbEntity
  8
Big Trees
  6
ByLayer
 62
  256
370
   -1
100
AcDbCircle
 10
24
 20
8
 40
1
  0
CIRCLE
  5
263
100
AcDbEntity
  8
Big Trees
  6
ByLayer
 62
  256
370
   -1
100
AcDbCircle
 10
24
 20
17.86370330515627
 40
1
  0
CIRCLE
  5
264
100
AcDbEntity
  8
Red Mini Trees
  6
ByLayer
 62
  256
370
   -1
100
AcDbCircle
 10
38.1979
 20
17.17530330515627
 40
0.5
  0
CIRCLE
  5
265
100
AcDbEntity
  8
Red Mini Trees
  6
ByLayer
 62
  256
370
   -1
100
AcDbCircle
 10
9.80210364763621
 20
17.17525384707607
 40
0.5
  0
LINE
  5
266
100
AcDbEntity
  8
0
  6
DOTTINY
 62
  256
370
   -1
100
AcDbLine
 10
22
 20
14
 11
24
 21
14
  0
LINE
  5
267
100
AcDbEntity
  8
0
  6
DOTTINY
 62
  256
370
   -1
100
AcDbLine
 10
24
 20
14
 11
26
 21
14
  0
LINE
  5
268
100
AcDbEntity
  8
0
  6
DOTTINY
 62
  256
370
   -1
100
AcDbLine
 10
26
 20
14
 11
27.93185165257814
 21
13.48236190979496
  0
LINE
  5
269
100
AcDbEntity
  8
0
  6
DOTTINY
 62
  256
370
   -1
100
AcDbLine
 10
27.93185165257814
 20
13.48236190979496
 11
29.86370330515627
 21
12.96472381958992
  0
LINE
  5
26A
100
AcDbEntity
  8
0
  6
DOTTINY
 62
  256
370
   -1
100
AcDbLine
 10
29.86370330515627
 20
12.96472381958992
 11
31.59575411272515
 21
11.96472381958992
  0
LINE
  5
26B
100
AcDbEntity
  8
0
  6
DOTTINY
 62
  256
370
   -1
100
AcDbLine
 10
31.59575411272515
 20
11.96472381958992
 11
33.32780492029402
 21
10.96472381958992
  0
LINE
  5
26C
100
AcDbEntity
  8
0
  6
DOTTINY
 62
  256
370
   -1
100
AcDbLine
 10
33.32780492029402
 20
10.96472381958992
 11
34.74201848266711
 21
9.550510257216825
  0
LINE
  5
26D
100
AcDbEntity
  8
0
  6
DOTTINY
 62
  256
370
   -1
100
AcDbLine
 10
34.74201848266711
 20
9.550510257216825
 11
36.15623204504021
 21
8.136296694843729
  0
LINE
  5
26E
100
AcDbEntity
  8
0
  6
DOTTINY
 62
  256
370
   -1
100
AcDbLine
 10
27.93185165257814
 20
13.48236190979496
 11
28.96712783298822
 21
17.34606521495123
  0
LINE
  5
26F
100
AcDbEntity
  8
0
  6
DOTTINY
 62
  256
370
   -1
100
AcDbLine
 10
31.59575411272515
 20
11.96472381958992
 11
33.59575411272515
 21
15.42882543472767
  0
LINE
  5
270
100
AcDbEntity
  8
0
  6
DOTTINY
 62
  256
370
   -1
100
AcDbLine
 10
34.74201848266711
 20
9.550510257216825
 11
37.5704456074133
 21
12.37893738196301
  0
LINE
  5
271
100
AcDbEntity
  8
0
  6
DOTTINY
 62
  256
370
   -1
100
AcDbLine
 10
36.15623204504021
 20
8.136296694843729
 11
37.15623204504021
 21
6.404245887274852
  0
LINE
  5
272
100
AcDbEntity
  8
0
  6
DOTTINY
 62
  256
370
   -1
100
AcDbLine
 10
37.15623204504021
 20
6.404245887274852
 11
38.15623204504021
 21
4.672195079705975
  0
LINE
  5
273
100
AcDbEntity
  8
0
  6
DOTTINY
 62
  256
370
   -1
100
AcDbLine
 10
37.15623204504021
 20
6.404245887274852
 11
40.62033366017796
 21
8.404245887274852
  0
LINE
  5
274
100
AcDbEntity
  8
0
  6
DOTTINY
 62
  256
370
   -1
100
AcDbLine
 10
22
 20
14
 11
20.06814834742186
 21
13.48236190979496
  0
LINE
  5
275
100
AcDbEntity
  8
0
  6
DOTTINY
 62
  256
370
   -1
100
AcDbLine
 10
20.06814834742186
 20
13.48236190979496
 11
18.13629669484373
 21
12.96472381958991
  0
LINE
  5
276
100
AcDbEntity
  8
0
  6
DOTTINY
 62
  256
370
   -1
100
AcDbLine
 10
18.13629669484373
 20
12.96472381958991
 11
16.40424588727485
 21
11.96472381958991
  0
LINE
  5
277
100
AcDbEntity
  8
0
  6
DOTTINY
 62
  256
370
   -1
100
AcDbLine
 10
16.40424588727485
 20
11.96472381958991
 11
14.67219507970598
 21
10.96472381958991
  0
LINE
  5
278
100
AcDbEntity
  8
0
  6
DOTTINY
 62
  256
370
   -1
100
AcDbLine
 10
14.67219507970598
 20
10.96472381958991
 11
13.25798151733288
 21
9.550510257216818
  0
LINE
  5
279
100
AcDbEntity
  8
0
  6
DOTTINY
 62
  256
370
   -1
100
AcDbLine
 10
13.25798151733288
 20
9.550510257216818
 11
11.84376795495978
 21
8.136296694843722
  0
LINE
  5
27A
100
AcDbEntity
  8
0
  6
DOTTINY
 62
  256
370
   -1
100
AcDbLine
 10
11.84376795495978
 20
8.136296694843722
 11
10.84376795495978
 21
6.404245887274845
  0
LINE
  5
27B
100
AcDbEntity
  8
0
  6
DOTTINY
 62
  256
370
   -1
100
AcDbLine
 10
10.84376795495978
 20
6.404245887274845
 11
9.843767954959784
 21
4.672195079705968
  0
LINE
  5
27C
100
AcDbEntity
  8
0
  6
DOTTINY
 62
  256
370
   -1
100
AcDbLine
 10
20.06814834742186
 20
13.48236190979496
 11
19.03287216701178
 21
17.34606521495123
  0
LINE
  5
27D
100
AcDbEntity
  8
0
  6
DOTTINY
 62
  256
370
   -1
100
AcDbLine
 10
16.40424588727485
 20
11.96472381958991
 11
14.40424588727485
 21
15.42882543472767
  0
LINE
  5
27E
100
AcDbEntity
  8
0
  6
DOTTINY
 62
  256
370
   -1
100
AcDbLine
 10
13.25798151733288
 20
9.550510257216818
 11
10.42955439258669
 21
12.37893738196301
  0
LINE
  5
27F
100
AcDbEntity
  8
0
  6
DOTTINY
 62
  256
370
   -1
100
AcDbLine
 10
10.84376795495978
 20
6.404245887274845
 11
7.379666339822029
 21
8.404245887274845
  0
LINE
  5
280
100
AcDbEntity
  8
0
  6
DOTTINY
 62
  256
370
   -1
100
AcDbLine
 10
10.84376795495978
 20
6.404245887274845
 11
23.99999999999999
 21
-1.191508225450304
  0
LINE
  5
281
100
AcDbEntity
  8
0
  6
DOTTINY
 62
  256
370
   -1
100
AcDbLine
 10
13.25798151733288
 20
9.550510257216818
 11
23.99999999999999
 21
-1.191508225450298
  0
LINE
  5
282
100
AcDbEntity
  8
0
  6
DOTTINY
 62
  256
370
   -1
100
AcDbLine
 10
16.40424588727485
 20
11.96472381958991
 11
24
 21
-1.191508225450293
  0
LINE
  5
283
100
AcDbEntity
  8
0
  6
DOTTINY
 62
  256
370
   -1
100
AcDbLine
 10
20.06814834742186
 20
13.48236190979496
 11
23.99999999999999
 21
-1.191508225450297
  0
LINE
  5
284
100
AcDbEntity
  8
0
  6
DOTTINY
 62
  256
370
   -1
100
AcDbLine
 10
24
 20
14
 11
24
 21
-1.191508225450295
  0
LINE
  5
285
100
AcDbEntity
  8
0
  6
DOTTINY
 62
  256
370
   -1
100
AcDbLine
 10
27.93185165257814
 20
13.48236190979496
 11
24
 21
-1.191508225450292
  0
LINE
  5
286
100
AcDbEntity
  8
0
  6
DOTTINY
 62
  256
370
   -1
100
AcDbLine
 10
31.59575411272515
 20
11.96472381958992
 11
23.99999999999998
 21
-1.191508225450304
  0
LINE
  5
287
100
AcDbEntity
  8
0
  6
DOTTINY
 62
  256
370
   -1
100
AcDbLine
 10
34.74201848266711
 20
9.550510257216825
 11
23.99999999999998
 21
-1.191508225450307
  0
LINE
  5
288
100
AcDbEntity
  8
0
  6
DOTTINY
 62
  256
370
   -1
100
AcDbLine
 10
37.15623204504021
 20
6.404245887274852
 11
23.99999999999999
 21
-1.191508225450302
  0
LINE
  5
289
100
AcDbEntity
  8
0
  6
DOTTINY
 62
  256
370
   -1
100
AcDbLine
 10
11.84376795495978
 20
8.136296694843722
 11
36.15623204504021
 21
8.136296694843729
  0
LINE
  5
28A
100
AcDbEntity
  8
0
  6
DOTTINY
 62
  256
370
   -1
100
AcDbLine
 10
24
 20
14
 11
24
 21
18
  0
LINE
  5
28B
100
AcDbEntity
  8
0
  6
DOTTINY
 62
  256
370
   -1
100
AcDbLine
 10
33.32780492029404
 20
10.96472381958991
 11
38.19789635236381
 21
17.31155054191979
  0
LINE
  5
28C
100
AcDbEntity
  8
0
  6
DOTTINY
 62
  256
370
   -1
100
AcDbLine
 10
14.67219507970598
 20
10.96472381958991
 11
9.80210364763621
 21
17.31155054191979
  0
INSERT
  5
28D
100
AcDbEntity
  8
Red Canes
  6
ByLayer
 62
  256
370
   -1
100
AcDbBlockReference
  2
Red Cane H
 10
0
 20
24
 30
0
 41
1
 42
1
 43
0
 50
0
 70
    1
 71
    1
 44
1
 45
1
  0
INSERT
  5
28E
100
AcDbEntity
  8
Red Canes
  6
ByLayer
 62
  256
370
   -1
100
AcDbBlockReference
  2
Red Cane H
 10
0
 20
16
 30
0
 41
1
 42
1
 43
0
 50
0
 70
    1
 71
    1
 44
1
 45
1
  0
INSERT
  5
28F
100
AcDbEntity
  8
Red Canes
  6
ByLayer
 62
  256
370
   -1
100
AcDbBlockReference
  2
Red Cane H
 10
0
 20
8
 30
0
 41
1
 42
1
 43
0
 50
0
 70
    1
 71
    1
 44
1
 45
1
  0
DIMENSION
  5
290
100
AcDbEntity
  8
DIM Red Canes
  6
ByLayer
 62
  256
370
   -1
100
AcDbDimension
  2
*D1
 10
4
 20
-2
 30
0
 11
2
 21
-1.525
 31
0
 70
   32
 71
    5
  3
Standard
 53
0
210
0
220
0
230
1
100
AcDbAlignedDimension
 13
0
 23
0
 33
0
 14
4
 24
3.9583333335
 34
0
100
AcDbRotatedDimension
  0
INSERT
  5
291
100
AcDbEntity
  8
Red Canes
  6
ByLayer
 62
  256
370
   -1
100
AcDbBlockReference
  2
Red Cane V
 10
19.9583
 20
4
 30
0
 41
1
 42
1
 43
0
 50
0
 70
    1
 71
    1
 44
1
 45
1
  0
INSERT
  5
292
100
AcDbEntity
  8
Red Canes
  6
ByLayer
 62
  256
370
   -1
100
AcDbBlockReference
  2
Red Cane V
 10
27.9583
 20
4
 30
0
 41
1
 42
1
 43
0
 50
0
 70
    1
 71
    1
 44
1
 45
1
  0
INSERT
  5
293
100
AcDbEntity
  8
Red Canes
  6
ByLayer
 62
  256
370
   -1
100
AcDbBlockReference
  2
Red Cane V
 10
35.9583
 20
4
 30
0
 41
1
 42
1
 43
0
 50
0
 70
    1
 71
    1
 44
1
 45
1
  0
INSERT
  5
294
100
AcDbEntity
  8
Red Canes
  6
ByLayer
 62
  256
370
   -1
100
AcDbBlockReference
  2
Red Cane V
 10
12
 20
4
 30
0
 41
1
 42
1
 43
0
 50
0
 70
    1
 71
    1
 44
1
 45
1
  0
DIMENSION
  5
295
100
AcDbEntity
  8
DIM Red Canes
  6
ByLayer
 62
  256
370
   -1
100
AcDbDimension
  2
*D2
 10
12
 20
-4
 30
0
 11
6
 21
-3.525
 31
0
 70
   32
 71
    5
  3
Standard
 53
0
210
0
220
0
230
1
100
AcDbAlignedDimension
 13
0
 23
0
 33
0
 14
12
 24
4
 34
0
100
AcDbRotatedDimension
  0
DIMENSION
  5
296
100
AcDbEntity
  8
DIM Red Canes
  6
ByLayer
 62
  256
370
   -1
100
AcDbDimension
  2
*D3
 10
20
 20
-6
 30
0
 11
10
 21
-5.525
 31
0
 70
   32
 71
    5
  3
Standard
 53
0
210
0
220
0
230
1
100
AcDbAlignedDimension
 13
0
 23
0
 33
0
 14
20
 24
4
 34
0
100
AcDbRotatedDimension
  0
DIMENSION
  5
297
100
AcDbEntity
  8
DIM Red Canes
  6
ByLayer
 62
  256
370
   -1
100
AcDbDimension
  2
*D4
 10
28
 20
-8
 30
0
 11
14
 21
-7.525
 31
0
 70
   32
 71
    5
  3
Standard
 53
0
210
0
220
0
230
1
100
AcDbAlignedDimension
 13
0
 23
0
 33
0
 14
28
 24
4
 34
0
100
AcDbRotatedDimension
  0
DIMENSION
  5
298
100
AcDbEntity
  8
DIM Red Canes
  6
ByLayer
 62
  256
370
   -1
100
AcDbDimension
  2
*D5
 10
36
 20
-10
 30
0
 11
18
 21
-9.525
 31
0
 70
   32
 71
    5
  3
Standard
 53
0
210
0
220
0
230
1
100
AcDbAlignedDimension
 13
0
 23
0
 33
0
 14
36
 24
4
 34
0
100
AcDbRotatedDimension
  0
DIMENSION
  5
299
100
AcDbEntity
  8
DIM Green Canes
  6
ByLayer
 62
  256
370
   -1
100
AcDbDimension
  2
*D6
 10
-1.83697019872103e-16
 20
-3
 30
0
 11
4
 21
-2.525
 31
0
 70
   32
 71
    5
  3
Standard
 53
0
210
0
220
0
230
1
100
AcDbAlignedDimension
 13
8
 23
4
 33
0
 14
0
 24
0
 34
0
100
AcDbRotatedDimension
  0
DIMENSION
  5
29A
100
AcDbEntity
  8
DIM Green Canes
  6
ByLayer
 62
  256
370
   -1
100
AcDbDimension
  2
*D7
 10
-3.061616997868383e-16
 20
-4.999999999999999
 30
0
 11
8
 21
-4.524999999999999
 31
0
 70
   32
 71
    5
  3
Standard
 53
0
210
0
220
0
230
1
100
AcDbAlignedDimension
 13
16
 23
4
 33
0
 14
0
 24
0
 34
0
100
AcDbRotatedDimension
  0
DIMENSION
  5
29B
100
AcDbEntity
  8
DIM Green Canes
  6
ByLayer
 62
  256
370
   -1
100
AcDbDimension
  2
*D8
 10
-4.286263797015736e-16
 20
-6.999999999999998
 30
0
 11
12
 21
-6.524999999999999
 31
0
 70
   32
 71
    5
  3
Standard
 53
0
210
0
220
0
230
1
100
AcDbAlignedDimension
 13
24
 23
4
 33
0
 14
0
 24
0
 34
0
100
AcDbRotatedDimension
  0
DIMENSION
  5
29C
100
AcDbEntity
  8
DIM Green Canes
  6
ByLayer
 62
  256
370
   -1
100
AcDbDimension
  2
*D9
 10
-5.51091059616309e-16
 20
-8.999999999999998
 30
0
 11
16
 21
-8.524999999999999
 31
0
 70
   32
 71
    5
  3
Standard
 53
0
210
0
220
0
230
1
100
AcDbAlignedDimension
 13
32
 23
4
 33
0
 14
0
 24
0
 34
0
100
AcDbRotatedDimension
  0
DIMENSION
  5
29D
100
AcDbEntity
  8
DIM Green Canes
  6
ByLayer
 62
  256
370
   -1
100
AcDbDimension
  2
*D10
 10
-6.735557395310441e-16
 20
-11
 30
0
 11
20
 21
-10.525
 31
0
 70
   32
 71
    5
  3
Standard
 53
0
210
0
220
0
230
1
100
AcDbAlignedDimension
 13
40
 23
4
 33
0
 14
0
 24
0
 34
0
100
AcDbRotatedDimension
  0
DIMENSION
  5
29E
100
AcDbEntity
  8
DIM Green Canes
  6
ByLayer
 62
  256
370
   -1
100
AcDbDimension
  2
*D11
 10
0.441941736473825
 20
2
 30
0
 11
0.2209708682369126
 21
2.475
 31
0
 70
   32
 71
    5
  3
Standard
 53
0
210
0
220
0
230
1
100
AcDbAlignedDimension
 13
0
 23
0
 33
0
 14
0.4419417364738251
 24
4.441941736473825
 34
0
100
AcDbRotatedDimension
  0
DIMENSION
  5
29F
100
AcDbEntity
  8
DIM Green Canes
  6
ByLayer
 62
  256
370
   -1
100
AcDbDimension
  2
*D12
 10
-2
 20
4.441941736473825
 30
0
 11
-2.475
 21
2.220970868236912
 31
0
 70
   32
 71
    5
  3
Standard
 53
0
210
0
220
0
230
1
100
AcDbAlignedDimension
 13
0
 23
0
 33
0
 14
0.4419417364738251
 24
4.441941736473825
 34
0
 50
90
100
AcDbRotatedDimension
  0
DIMENSION
  5
2A0
100
AcDbEntity
  8
DIM Green Canes
  6
ByLayer
 62
  256
370
   -1
100
AcDbDimension
  2
*D13
 10
-4
 20
4.624999997500002
 30
0
 11
-4.475
 21
2.31249999875
 31
0
 70
   32
 71
    5
  3
Standard
 53
0
210
0
220
0
230
1
100
AcDbAlignedDimension
 13
0
 23
0
 33
0
 14
8
 24
4.6249999975
 34
0
 50
90
100
AcDbRotatedDimension
  0
DIMENSION
  5
2A1
100
AcDbEntity
  8
DIM Red Canes
  6
ByLayer
 62
  256
370
   -1
100
AcDbDimension
  2
*D14
 10
-3
 20
4.624999997500001
 30
0
 11
-3.475
 21
2.31249999875
 31
0
 70
   32
 71
    5
  3
Standard
 53
0
210
0
220
0
230
1
100
AcDbAlignedDimension
 13
0
 23
0
 33
0
 14
4
 24
4.6249999975
 34
0
 50
90
100
AcDbRotatedDimension
  0
DIMENSION
  5
2A2
100
AcDbEntity
  8
DIM Red Canes
  6
ByLayer
 62
  256
370
   -1
100
AcDbDimension
  2
*D15
 10
0.6249999974999997
 20
6
 30
0
 11
0.31249999875
 21
6.475
 31
0
 70
   32
 71
    5
  3
Standard
 53
0
210
0
220
0
230
1
100
AcDbAlignedDimension
 13
0
 23
0
 33
0
 14
0.6249999974999998
 24
8
 34
0
100
AcDbRotatedDimension
  0
DIMENSION
  5
2A3
100
AcDbEntity
  8
DIM Green Canes
  6
ByLayer
 62
  256
370
   -1
100
AcDbDimension
  2
*D16
 10
0.6249999974999997
 20
10
 30
0
 11
0.31249999875
 21
10.475
 31
0
 70
   32
 71
    5
  3
Standard
 53
0
210
0
220
0
230
1
100
AcDbAlignedDimension
 13
0
 23
0
 33
0
 14
0.6249999974999998
 24
12
 34
0
100
AcDbRotatedDimension
  0
DIMENSION
  5
2A4
100
AcDbEntity
  8
DIM Tom Trees Row B
  6
ByLayer
 62
  256
370
   -1
100
AcDbDimension
  2
*D17
 10
7.379666339822028
 20
-2
 30
0
 11
3.689833169911014
 21
-1.525
 31
0
 70
   32
 71
    5
  3
Standard
 53
0
210
0
220
0
230
1
100
AcDbAlignedDimension
 13
0
 23
0
 33
0
 14
7.379666339822029
 24
8.26794919243112
 34
0
100
AcDbRotatedDimension
  0
DIMENSION
  5
2A5
100
AcDbEntity
  8
DIM Tom Trees Row B
  6
ByLayer
 62
  256
370
   -1
100
AcDbDimension
  2
*D18
 10
10.42955439258669
 20
-2.999999999999998
 30
0
 11
5.214777196293345
 21
-2.524999999999998
 31
0
 70
   32
 71
    5
  3
Standard
 53
0
210
0
220
0
230
1
100
AcDbAlignedDimension
 13
0
 23
0
 33
0
 14
10.42955439258669
 24
12.24264068711928
 34
0
100
AcDbRotatedDimension
  0
DIMENSION
  5
2A6
100
AcDbEntity
  8
DIM Tom Trees Row A
  6
ByLayer
 62
  256
370
   -1
100
AcDbDimension
  2
*D19
 10
11.84376795495978
 20
-4
 30
0
 11
5.921883977479893
 21
-3.525
 31
0
 70
   32
 71
    5
  3
Standard
 53
0
210
0
220
0
230
1
100
AcDbAlignedDimension
 13
0
 23
0
 33
0
 14
11.84376795495978
 24
7.999999999999996
 34
0
100
AcDbRotatedDimension
  0
DIMENSION
  5
2A7
100
AcDbEntity
  8
DIM Tom Trees Row B
  6
ByLayer
 62
  256
370
   -1
100
AcDbDimension
  2
*D20
 10
14.40424588727485
 20
-5
 30
0
 11
7.202122943637428
 21
-4.525
 31
0
 70
   32
 71
    5
  3
Standard
 53
0
210
0
220
0
230
1
100
AcDbAlignedDimension
 13
0
 23
0
 33
0
 14
14.40424588727485
 24
15.29252873988394
 34
0
100
AcDbRotatedDimension
  0
DIMENSION
  5
2A8
100
AcDbEntity
  8
DIM Tom Trees Row A
  6
ByLayer
 62
  256
370
   -1
100
AcDbDimension
  2
*D21
 10
14.67219507970597
 20
-6
 30
0
 11
7.336097539852989
 21
-5.525
 31
0
 70
   32
 71
    5
  3
Standard
 53
0
210
0
220
0
230
1
100
AcDbAlignedDimension
 13
0
 23
0
 33
0
 14
14.67219507970598
 24
10.82842712474619
 34
0
100
AcDbRotatedDimension
  0
DIMENSION
  5
2A9
100
AcDbEntity
  8
DIM Tom Trees Row A
  6
ByLayer
 62
  256
370
   -1
100
AcDbDimension
  2
*D22
 10
18.13629669484373
 20
-7
 30
0
 11
9.068148347421864
 21
-6.525
 31
0
 70
   32
 71
    5
  3
Standard
 53
0
210
0
220
0
230
1
100
AcDbAlignedDimension
 13
0
 23
0
 33
0
 14
18.13629669484373
 24
12.82842712474619
 34
0
100
AcDbRotatedDimension
  0
DIMENSION
  5
2AA
100
AcDbEntity
  8
DIM Tom Trees Row B
  6
ByLayer
 62
  256
370
   -1
100
AcDbDimension
  2
*D23
 10
19.03287216701178
 20
-8
 30
0
 11
9.516436083505891
 21
-7.525
 31
0
 70
   32
 71
    5
  3
Standard
 53
0
210
0
220
0
230
1
100
AcDbAlignedDimension
 13
0
 23
0
 33
0
 14
19.03287216701178
 24
17.20976852010751
 34
0
100
AcDbRotatedDimension
  0
DIMENSION
  5
2AB
100
AcDbEntity
  8
DIM Tom Trees Row A
  6
ByLayer
 62
  256
370
   -1
100
AcDbDimension
  2
*D24
 10
22
 20
-9
 30
0
 11
11
 21
-8.525
 31
0
 70
   32
 71
    5
  3
Standard
 53
0
210
0
220
0
230
1
100
AcDbAlignedDimension
 13
0
 23
0
 33
0
 14
22
 24
13.86370330515627
 34
0
100
AcDbRotatedDimension
  0
DIMENSION
  5
2AC
100
AcDbEntity
  8
DIM Big Trees
  6
ByLayer
 62
  256
370
   -1
100
AcDbDimension
  2
*D25
 10
24
 20
-10
 30
0
 11
12
 21
-9.525
 31
0
 70
   32
 71
    5
  3
Standard
 53
0
210
0
220
0
230
1
100
AcDbAlignedDimension
 13
0
 23
0
 33
0
 14
24
 24
8
 34
0
100
AcDbRotatedDimension
  0
DIMENSION
  5
2AD
100
AcDbEntity
  8
DIM Tom Trees Row A
  6
ByLayer
 62
  256
370
   -1
100
AcDbDimension
  2
*D26
 10
26
 20
-11
 30
0
 11
13
 21
-10.525
 31
0
 70
   32
 71
    5
  3
Standard
 53
0
210
0
220
0
230
1
100
AcDbAlignedDimension
 13
0
 23
0
 33
0
 14
26
 24
13.86370330515627
 34
0
100
AcDbRotatedDimension
  0
DIMENSION
  5
2AE
100
AcDbEntity
  8
DIM Tom Trees Row B
  6
ByLayer
 62
  256
370
   -1
100
AcDbDimension
  2
*D27
 10
28.96709999999999
 20
-12
 30
0
 11
14.48355
 21
-11.525
 31
0
 70
   32
 71
    5
  3
Standard
 53
0
210
0
220
0
230
1
100
AcDbAlignedDimension
 13
0
 23
0
 33
0
 14
28.9671
 24
17.20980330515627
 34
0
100
AcDbRotatedDimension
  0
DIMENSION
  5
2AF
100
AcDbEntity
  8
DIM Tom Trees Row A
  6
ByLayer
 62
  256
370
   -1
100
AcDbDimension
  2
*D28
 10
29.8637
 20
-13
 30
0
 11
14.93185
 21
-12.525
 31
0
 70
   32
 71
    5
  3
Standard
 53
0
210
0
220
0
230
1
100
AcDbAlignedDimension
 13
0
 23
0
 33
0
 14
29.8637
 24
12.82840330515628
 34
0
100
AcDbRotatedDimension
  0
DIMENSION
  5
2B0
100
AcDbEntity
  8
DIM Tom Trees Row A
  6
ByLayer
 62
  256
370
   -1
100
AcDbDimension
  2
*D29
 10
33.3278
 20
-14
 30
0
 11
16.66389999999999
 21
-13.525
 31
0
 70
   32
 71
    5
  3
Standard
 53
0
210
0
220
0
230
1
100
AcDbAlignedDimension
 13
0
 23
0
 33
0
 14
33.3278
 24
10.82840330515628
 34
0
100
AcDbRotatedDimension
  0
DIMENSION
  5
2B1
100
AcDbEntity
  8
DIM Tom Trees Row B
  6
ByLayer
 62
  256
370
   -1
100
AcDbDimension
  2
*D30
 10
33.5958
 20
-15
 30
0
 11
16.7979
 21
-14.525
 31
0
 70
   32
 71
    5
  3
Standard
 53
0
210
0
220
0
230
1
100
AcDbAlignedDimension
 13
0
 23
0
 33
0
 14
33.5958
 24
15.29250330515627
 34
0
100
AcDbRotatedDimension
  0
DIMENSION
  5
2B2
100
AcDbEntity
  8
DIM Tom Trees Row A
  6
ByLayer
 62
  256
370
   -1
100
AcDbDimension
  2
*D31
 10
36.1562
 20
-16.00000000000001
 30
0
 11
18.0781
 21
-15.52500000000001
 31
0
 70
   32
 71
    5
  3
Standard
 53
0
210
0
220
0
230
1
100
AcDbAlignedDimension
 13
0
 23
0
 33
0
 14
36.1562
 24
8.000003305156275
 34
0
100
AcDbRotatedDimension
  0
DIMENSION
  5
2B3
100
AcDbEntity
  8
DIM Tom Trees Row B
  6
ByLayer
 62
  256
370
   -1
100
AcDbDimension
  2
*D32
 10
37.5704
 20
-17
 30
0
 11
18.7852
 21
-16.525
 31
0
 70
   32
 71
    5
  3
Standard
 53
0
210
0
220
0
230
1
100
AcDbAlignedDimension
 13
0
 23
0
 33
0
 14
37.5704
 24
12.24260330515628
 34
0
100
AcDbRotatedDimension
  0
DIMENSION
  5
2B4
100
AcDbEntity
  8
DIM Tom Trees Row B
  6
ByLayer
 62
  256
370
   -1
100
AcDbDimension
  2
*D33
 10
40.62033366017796
 20
-18
 30
0
 11
20.31016683008898
 21
-17.525
 31
0
 70
   32
 71
    5
  3
Standard
 53
0
210
0
220
0
230
1
100
AcDbAlignedDimension
 13
0
 23
0
 33
0
 14
40.62033366017796
 24
8.267949192431127
 34
0
100
AcDbRotatedDimension
  0
DIMENSION
  5
2B5
100
AcDbEntity
  8
DIM Big Trees
  6
ByLayer
 62
  256
370
   -1
100
AcDbDimension
  2
*D34
 10
-2
 20
2.449293598294706e-16
 30
0
 11
-2.475
 21
4.000000000000001
 31
0
 70
   32
 71
    5
  3
Standard
 53
0
210
0
220
0
230
1
100
AcDbAlignedDimension
 13
24
 23
8
 33
0
 14
0
 24
0
 34
0
 50
90
100
AcDbRotatedDimension
  0
DIMENSION
  5
2B6
100
AcDbEntity
  8
DIM Tom Trees Row A
  6
ByLayer
 62
  256
370
   -1
100
AcDbDimension
  2
*D35
 10
-3
 20
3.67394039744206e-16
 30
0
 11
-3.475
 21
4.000001652578138
 31
0
 70
   32
 71
    5
  3
Standard
 53
0
210
0
220
0
230
1
100
AcDbAlignedDimension
 13
36.1562
 23
8.000003305156275
 33
0
 14
0
 24
0
 34
0
 50
90
100
AcDbRotatedDimension
  0
DIMENSION
  5
2B7
100
AcDbEntity
  8
DIM Tom Trees Row B
  6
ByLayer
 62
  256
370
   -1
100
AcDbDimension
  2
*D36
 10
-4
 20
4.898587196589413e-16
 30
0
 11
-4.475
 21
4.133974596215564
 31
0
 70
   32
 71
    5
  3
Standard
 53
0
210
0
220
0
230
1
100
AcDbAlignedDimension
 13
40.62033366017796
 23
8.267949192431127
 33
0
 14
0
 24
0
 34
0
 50
90
100
AcDbRotatedDimension
  0
DIMENSION
  5
2B8
100
AcDbEntity
  8
DIM Tom Trees Row A
  6
ByLayer
 62
  256
370
   -1
100
AcDbDimension
  2
*D37
 10
-5
 20
6.123233995736766e-16
 30
0
 11
-5.475
 21
5.414201652578138
 31
0
 70
   32
 71
    5
  3
Standard
 53
0
210
0
220
0
230
1
100
AcDbAlignedDimension
 13
33.3278
 23
10.82840330515628
 33
0
 14
0
 24
0
 34
0
 50
90
100
AcDbRotatedDimension
  0
DIMENSION
  5
2B9
100
AcDbEntity
  8
DIM Tom Trees Row B
  6
ByLayer
 62
  256
370
   -1
100
AcDbDimension
  2
*D38
 10
-6
 20
7.34788079488412e-16
 30
0
 11
-6.475
 21
6.121301652578139
 31
0
 70
   32
 71
    5
  3
Standard
 53
0
210
0
220
0
230
1
100
AcDbAlignedDimension
 13
37.5704
 23
12.24260330515628
 33
0
 14
0
 24
0
 34
0
 50
90
100
AcDbRotatedDimension
  0
DIMENSION
  5
2BA
100
AcDbEntity
  8
DIM Tom Trees Row A
  6
ByLayer
 62
  256
370
   -1
100
AcDbDimension
  2
*D39
 10
-7
 20
8.572527594031473e-16
 30
0
 11
-7.475
 21
6.414201652578138
 31
0
 70
   32
 71
    5
  3
Standard
 53
0
210
0
220
0
230
1
100
AcDbAlignedDimension
 13
29.8637
 23
12.82840330515628
 33
0
 14
0
 24
0
 34
0
 50
90
100
AcDbRotatedDimension
  0
DIMENSION
  5
2BB
100
AcDbEntity
  8
DIM Tom Trees Row A
  6
ByLayer
 62
  256
370
   -1
100
AcDbDimension
  2
*D40
 10
-8
 20
9.797174393178826e-16
 30
0
 11
-8.475
 21
6.931851652578139
 31
0
 70
   32
 71
    5
  3
Standard
 53
0
210
0
220
0
230
1
100
AcDbAlignedDimension
 13
26
 23
13.86370330515627
 33
0
 14
0
 24
0
 34
0
 50
90
100
AcDbRotatedDimension
  0
DIMENSION
  5
2BC
100
AcDbEntity
  8
DIM Tom Trees Row B
  6
ByLayer
 62
  256
370
   -1
100
AcDbDimension
  2
*D41
 10
-9
 20
1.102182119232618e-15
 30
0
 11
-9.475
 21
7.646251652578138
 31
0
 70
   32
 71
    5
  3
Standard
 53
0
210
0
220
0
230
1
100
AcDbAlignedDimension
 13
33.5958
 23
15.29250330515627
 33
0
 14
0
 24
0
 34
0
 50
90
100
AcDbRotatedDimension
  0
DIMENSION
  5
2BD
100
AcDbEntity
  8
DIM Tom Trees Row B
  6
ByLayer
 62
  256
370
   -1
100
AcDbDimension
  2
*D42
 10
-10
 20
1.224646799147353e-15
 30
0
 11
-10.475
 21
8.604901652578137
 31
0
 70
   32
 71
    5
  3
Standard
 53
0
210
0
220
0
230
1
100
AcDbAlignedDimension
 13
28.9671
 23
17.20980330515627
 33
0
 14
0
 24
0
 34
0
 50
90
100
AcDbRotatedDimension
  0
DIMENSION
  5
2BE
100
AcDbEntity
  8
DIM Red Mini Trees
  6
ByLayer
 62
  256
370
   -1
100
AcDbDimension
  2
*D43
 10
-11
 20
1.347111479062089e-15
 30
0
 11
-11.475
 21
8.587651652578138
 31
0
 70
   32
 71
    5
  3
Standard
 53
0
210
0
220
0
230
1
100
AcDbAlignedDimension
 13
38.1979
 23
17.17530330515627
 33
0
 14
0
 24
0
 34
0
 50
90
100
AcDbRotatedDimension
  0
DIMENSION
  5
2BF
100
AcDbEntity
  8
DIM Big Trees
  6
ByLayer
 62
  256
370
   -1
100
AcDbDimension
  2
*D44
 10
-12
 20
1.469576158976824e-15
 30
0
 11
-12.475
 21
8.931851652578139
 31
0
 70
   32
 71
    5
  3
Standard
 53
0
210
0
220
0
230
1
100
AcDbAlignedDimension
 13
24
 23
17.86370330515627
 33
0
 14
0
 24
0
 34
0
 50
90
100
AcDbRotatedDimension
  0
DIMENSION
  5
2C0
100
AcDbEntity
  8
DIM Red Canes
  6
ByLayer
 62
  256
370
   -1
100
AcDbDimension
  2
*D45
 10
-5
 20
6.123233995736766e-16
 30
0
 11
-5.475
 21
4
 31
0
 70
   32
 71
    5
  3
Standard
 53
0
210
0
220
0
230
1
100
AcDbAlignedDimension
 13
0.6249999974999998
 23
8
 33
0
 14
0
 24
0
 34
0
 50
90
100
AcDbRotatedDimension
  0
DIMENSION
  5
2C1
100
AcDbEntity
  8
DIM Red Canes
  6
ByLayer
 62
  256
370
   -1
100
AcDbDimension
  2
*D46
 10
-7
 20
8.572527594031473e-16
 30
0
 11
-7.475
 21
8
 31
0
 70
   32
 71
    5
  3
Standard
 53
0
210
0
220
0
230
1
100
AcDbAlignedDimension
 13
0.6249999974999998
 23
16
 33
0
 14
0
 24
0
 34
0
 50
90
100
AcDbRotatedDimension
  0
DIMENSION
  5
2C2
100
AcDbEntity
  8
DIM Red Canes
  6
ByLayer
 62
  256
370
   -1
100
AcDbDimension
  2
*D47
 10
-9
 20
1.102182119232618e-15
 30
0
 11
-9.475
 21
12
 31
0
 70
   32
 71
    5
  3
Standard
 53
0
210
0
220
0
230
1
100
AcDbAlignedDimension
 13
0.6249999974999998
 23
24
 33
0
 14
0
 24
0
 34
0
 50
90
100
AcDbRotatedDimension
  0
DIMENSION
  5
2C3
100
AcDbEntity
  8
DIM Green Canes
  6
ByLayer
 62
  256
370
   -1
100
AcDbDimension
  2
*D48
 10
-6
 20
7.34788079488412e-16
 30
0
 11
-6.475
 21
6
 31
0
 70
   32
 71
    5
  3
Standard
 53
0
210
0
220
0
230
1
100
AcDbAlignedDimension
 13
0.6249999974999998
 23
12
 33
0
 14
0
 24
0
 34
0
 50
90
100
AcDbRotatedDimension
  0
DIMENSION
  5
2C4
100
AcDbEntity
  8
DIM Green Canes
  6
ByLayer
 62
  256
370
   -1
100
AcDbDimension
  2
*D49
 10
-8
 20
9.797174393178826e-16
 30
0
 11
-8.475
 21
10
 31
0
 70
   32
 71
    5
  3
Standard
 53
0
210
0
220
0
230
1
100
AcDbAlignedDimension
 13
0.6249999974999998
 23
20
 33
0
 14
0
 24
0
 34
0
 50
90
100
AcDbRotatedDimension
  0
ENDSEC
  0
SECTION
  2
OBJECTS
  0
DICTIONARY
  5
C
330
0
100
AcDbDictionary
281
    1
  3
ACAD_GROUP
350
D
  0
DICTIONARY
  5
D
330
C
100
AcDbDictionary
281
    1
  0
ENDSEC
  0
EOF
