999
dxfrw 0.6.3
  0
SECTION
  2
HEADER
  9
$ACADVER
  1
AC1021
  9
$DWGCODEPAGE
  3
ANSI_1252
  9
$INSBASE
 10
0
 20
0
 30
0
  9
$EXTMIN
 10
-2.25
 20
-2.25
 30
0
  9
$EXTMAX
 10
49.0416666665
 20
27
 30
0
  9
$LIMMIN
 10
0
 20
0
  9
$LIMMAX
 10
420
 20
297
  9
$ORTHOMODE
 70
    0
  9
$REGENMODE
 70
    1
  9
$FILLMODE
 70
    1
  9
$QTEXTMODE
 70
    0
  9
$MIRRTEXT
 70
    0
  9
$LTSCALE
 40
1
  9
$ATTMODE
 70
    0
  9
$TEXTSIZE
 40
2.5
  9
$TRACEWID
 40
15.68
  9
$TEXTSTYLE
  7
STANDARD
  9
$CLAYER
  8
Water Meters
  9
$CELTYPE
  6
BYLAYER
  9
$CECOLOR
 62
  256
  9
$CELTSCALE
 40
1
  9
$DISPSILH
 70
    0
  9
$DIMSCALE
 40
1
  9
$DIMASZ
 40
0.5
  9
$DIMEXO
 40
0.1
  9
$DIMDLI
 40
3.75
  9
$DIMRND
 40
0
  9
$DIMDLE
 40
0
  9
$DIMEXE
 40
0.05
  9
$DIMTP
 40
0
  9
$DIMTM
 40
0
  9
$DIMTXT
 40
0.75
  9
$DIMCEN
 40
2.5
  9
$DIMTSZ
 40
0
  9
$DIMTOL
 70
    0
  9
$DIMLIM
 70
    0
  9
$DIMTIH
 70
    0
  9
$DIMTOH
 70
    0
  9
$DIMSE1
 70
    0
  9
$DIMSE2
 70
    0
  9
$DIMTAD
 70
    1
  9
$DIMZIN
 70
    8
  9
$DIMBLK
  1

  9
$DIMASO
 70
    1
  9
$DIMSHO
 70
    1
  9
$DIMPOST
  1

  9
$DIMAPOST
  1

  9
$DIMALT
 70
    0
  9
$DIMALTD
 70
    3
  9
$DIMALTF
 40
0.03937
  9
$DIMLFAC
 40
1
  9
$DIMTOFL
 70
    1
  9
$DIMTVP
 40
0
  9
$DIMTIX
 70
    0
  9
$DIMSOXD
 70
    0
  9
$DIMSAH
 70
    0
  9
$DIMBLK1
  1

  9
$DIMBLK2
  1

  9
$DIMSTYLE
  2
STANDARD
  9
$DIMCLRD
 70
    0
  9
$DIMCLRE
 70
    0
  9
$DIMCLRT
 70
    0
  9
$DIMTFAC
 40
1
  9
$DIMGAP
 40
0.1
  9
$DIMJUST
 70
    0
  9
$DIMSD1
 70
    0
  9
$DIMSD2
 70
    0
  9
$DIMTOLJ
 70
    0
  9
$DIMTZIN
 70
    8
  9
$DIMALTZ
 70
    0
  9
$DIMALTTZ
 70
    0
  9
$DIMUPT
 70
    0
  9
$DIMDEC
 70
    2
  9
$DIMTDEC
 70
    2
  9
$DIMALTU
 70
    2
  9
$DIMALTTD
 70
    3
  9
$DIMTXSTY
  7
standard
  9
$DIMAUNIT
 70
    0
  9
$DIMADEC
 70
    2
  9
$DIMALTRND
 40
0
  9
$DIMAZIN
 70
    0
  9
$DIMDSEP
 70
    0
  9
$DIMATFIT
 70
    3
  9
$DIMFRAC
 70
    0
  9
$DIMLDRBLK
  1
STANDARD
  9
$DIMLUNIT
 70
    2
  9
$DIMLWD
 70
   -2
  9
$DIMLWE
 70
   -2
  9
$DIMTMOVE
 70
    0
  9
$DIMFXL
 40
0.04
  9
$DIMFXLON
 70
    0
  9
$DIMJOGANG
 40
0.7854
  9
$DIMTFILL
 70
    0
  9
$DIMTFILLCLR
 70
    0
  9
$DIMARCSYM
 70
    0
  9
$DIMLTYPE
  6

  9
$DIMLTEX1
  6

  9
$DIMLTEX2
  6

  9
$LUNITS
 70
    2
  9
$LUPREC
 70
    2
  9
$SKETCHINC
 40
1
  9
$FILLETRAD
 40
0
  9
$AUNITS
 70
    0
  9
$AUPREC
 70
    0
  9
$MENU
  1
.
  9
$ELEVATION
 40
0
  9
$PELEVATION
 40
0
  9
$THICKNESS
 40
0
  9
$LIMCHECK
 70
    0
  9
$CHAMFERA
 40
0
  9
$CHAMFERB
 40
0
  9
$CHAMFERC
 40
0
  9
$CHAMFERD
 40
0
  9
$SKPOLY
 70
    0
  9
$USRTIMER
 70
    1
  9
$ANGBASE
 50
0
  9
$ANGDIR
 70
    0
  9
$PDMODE
 70
   34
  9
$PDSIZE
 40
0
  9
$PLINEWID
 40
0
  9
$SPLFRAME
 70
    0
  9
$SPLINETYPE
 70
    2
  9
$SPLINESEGS
 70
    8
  9
$HANDSEED
  5
20000
  9
$SURFTAB1
 70
    6
  9
$SURFTAB2
 70
    6
  9
$SURFTYPE
 70
    6
  9
$SURFU
 70
    6
  9
$SURFV
 70
    6
  9
$UCSBASE
  2

  9
$UCSNAME
  2

  9
$UCSORG
 10
0
 20
0
 30
0
  9
$UCSXDIR
 10
1
 20
0
 30
0
  9
$UCSYDIR
 10
0
 20
1
 30
0
  9
$UCSORTHOREF
  2

  9
$UCSORTHOVIEW
 70
    0
  9
$UCSORGTOP
 10
0
 20
0
 30
0
  9
$UCSORGBOTTOM
 10
0
 20
0
 30
0
  9
$UCSORGLEFT
 10
0
 20
0
 30
0
  9
$UCSORGRIGHT
 10
0
 20
0
 30
0
  9
$UCSORGFRONT
 10
0
 20
0
 30
0
  9
$UCSORGBACK
 10
0
 20
0
 30
0
  9
$PUCSBASE
  2

  9
$PUCSNAME
  2

  9
$PUCSORG
 10
0
 20
0
 30
0
  9
$PUCSXDIR
 10
1
 20
0
 30
0
  9
$PUCSYDIR
 10
0
 20
1
 30
0
  9
$PUCSORTHOREF
  2

  9
$PUCSORTHOVIEW
 70
    0
  9
$PUCSORGTOP
 10
0
 20
0
 30
0
  9
$PUCSORGBOTTOM
 10
0
 20
0
 30
0
  9
$PUCSORGLEFT
 10
0
 20
0
 30
0
  9
$PUCSORGRIGHT
 10
0
 20
0
 30
0
  9
$PUCSORGFRONT
 10
0
 20
0
 30
0
  9
$PUCSORGBACK
 10
0
 20
0
 30
0
  9
$USERI1
 70
    0
  9
$USERI2
 70
    0
  9
$USERI3
 70
    0
  9
$USERI4
 70
    0
  9
$USERI5
 70
    0
  9
$USERR1
 40
0
  9
$USERR2
 40
0
  9
$USERR3
 40
0
  9
$USERR4
 40
0
  9
$USERR5
 40
0
  9
$WORLDVIEW
 70
    1
  9
$SHADEDGE
 70
    3
  9
$SHADEDIF
 70
   70
  9
$TILEMODE
 70
    1
  9
$MAXACTVP
 70
   64
  9
$PINSBASE
 10
0.1093724347618802
 20
0.2182691344114535
 30
0
  9
$PLIMCHECK
 70
    0
  9
$PEXTMIN
 10
0
 20
0
 30
0
  9
$PEXTMAX
 10
0
 20
0
 30
0
  9
$GRIDMODE
 70
    1
  9
$SNAPSTYLE
 70
    0
  9
$GRIDUNIT
 10
1
 20
1
  9
$PLIMMIN
 10
0
 20
0
  9
$PLIMMAX
 10
1.640419947506562
 20
1.158136482939633
  9
$UNITMODE
 70
    0
  9
$VISRETAIN
 70
    1
  9
$PLINEGEN
 70
    0
  9
$PSLTSCALE
 70
    1
  9
$TREEDEPTH
 70
 3020
  9
$CMLSTYLE
  2
Standard
  9
$CMLJUST
 70
    0
  9
$CMLSCALE
 40
20
  9
$PROXYGRAPHICS
 70
    1
  9
$MEASUREMENT
 70
    1
  9
$CELWEIGHT
370
   -1
  9
$ENDCAPS
280
    0
  9
$JOINSTYLE
280
    0
  9
$LWDISPLAY
290
    0
  9
$INSUNITS
 70
    2
  9
$HYPERLINKBASE
  1

  9
$STYLESHEET
  1

  9
$XEDIT
290
    1
  9
$CEPSNTYPE
380
    0
  9
$PSTYLEMODE
290
    1
  9
$EXTNAMES
290
    1
  9
$PSVPSCALE
 40
0.03038303897232409
  9
$OLESTARTUP
290
    0
  9
$SORTENTS
280
  127
  9
$INDEXCTL
280
    0
  9
$HIDETEXT
280
    1
  9
$XCLIPFRAME
290
    0
  9
$HALOGAP
280
    0
  9
$OBSCOLOR
 70
  257
  9
$OBSLTYPE
280
    0
  9
$INTERSECTIONDISPLAY
280
    0
  9
$INTERSECTIONCOLOR
 70
  257
  9
$DIMASSOC
280
    1
  9
$PROJECTNAME
  1

  9
$CAMERADISPLAY
290
    0
  9
$LENSLENGTH
 40
50
  9
$CAMERAHEIGHT
 40
0
  9
$STEPSPERSEC
 40
2
  9
$STEPSIZE
 40
50
  9
$3DDWFPREC
 40
2
  9
$PSOLWIDTH
 40
5
  9
$PSOLHEIGHT
 40
80
  9
$LOFTANG1
 40
1.570796326794897
  9
$LOFTANG2
 40
1.570796326794897
  9
$LOFTMAG1
 40
0
  9
$LOFTMAG2
 40
0
  9
$LOFTPARAM
 70
    7
  9
$LOFTNORMALS
280
    1
  9
$LATITUDE
 40
1
  9
$LONGITUDE
 40
1
  9
$NORTHDIRECTION
 40
0
  9
$TIMEZONE
 70
-8000
  9
$LIGHTGLYPHDISPLAY
280
    1
  9
$TILEMODELIGHTSYNCH
280
    1
  9
$SOLIDHIST
280
    1
  9
$SHOWHIST
280
    1
  9
$DWFFRAME
280
    2
  9
$DGNFRAME
280
    0
  9
$REALWORLDSCALE
290
    1
  9
$INTERFERECOLOR
 62
    1
  9
$CSHADOW
280
    0
  9
$SHADOWPLANELOCATION
 40
0
  0
ENDSEC
  0
SECTION
  2
CLASSES
  0
ENDSEC
  0
SECTION
  2
TABLES
  0
TABLE
  2
VPORT
  5
8
330
0
100
AcDbSymbolTable
 70
    1
  0
VPORT
  5
31
330
2
100
AcDbSymbolTableRecord
100
AcDbViewportTableRecord
  2
*ACTIVE
 70
    0
 10
0
 20
0
 11
1
 21
1
 12
28.47738059680266
 22
13.15400167832964
 13
0
 23
0
 14
10
 24
10
 15
1
 25
1
 16
0
 26
0
 36
1
 17
0
 27
0
 37
0
 40
28.92502986857827
 41
2.263095238095238
 42
50
 43
0
 44
0
 50
0
 51
0
 71
    0
 72
  100
 73
    1
 74
    3
 75
    0
 76
    1
 77
    0
 78
    0
281
    0
 65
    1
110
0
120
0
130
0
111
1
121
0
131
0
112
0
122
1
132
0
 79
    0
146
0
348
10020
 60
    3
 61
    5
292
1
282
    1
141
0
142
0
 63
  250
421
3358443
  0
ENDTAB
  0
TABLE
  2
LTYPE
  5
5
330
0
100
AcDbSymbolTable
 70
    4
  0
LTYPE
  5
14
330
5
100
AcDbSymbolTableRecord
100
AcDbLinetypeTableRecord
  2
ByBlock
 70
    0
  3

 72
   65
 73
    0
 40
0
  0
LTYPE
  5
15
330
5
100
AcDbSymbolTableRecord
100
AcDbLinetypeTableRecord
  2
ByLayer
 70
    0
  3

 72
   65
 73
    0
 40
0
  0
LTYPE
  5
16
330
5
100
AcDbSymbolTableRecord
100
AcDbLinetypeTableRecord
  2
Continuous
 70
    0
  3
Solid line
 72
   65
 73
    0
 40
0
  0
LTYPE
  5
32
330
5
100
AcDbSymbolTableRecord
100
AcDbLinetypeTableRecord
  2
DOT
 70
    0
  3
Dot . . . . . . . . . . . . . . . . . . . . . .
 72
   65
 73
    2
 40
6.35
 49
0
 74
    0
 49
-6.35
 74
    0
  0
LTYPE
  5
33
330
5
100
AcDbSymbolTableRecord
100
AcDbLinetypeTableRecord
  2
DOTTINY
 70
    0
  3
Dot (.15x) .....................................
 72
   65
 73
    2
 40
0.9525
 49
0
 74
    0
 49
-0.9525
 74
    0
  0
LTYPE
  5
34
330
5
100
AcDbSymbolTableRecord
100
AcDbLinetypeTableRecord
  2
DOT2
 70
    0
  3
Dot (.5x) .....................................
 72
   65
 73
    2
 40
3.175
 49
0
 74
    0
 49
-3.175
 74
    0
  0
LTYPE
  5
35
330
5
100
AcDbSymbolTableRecord
100
AcDbLinetypeTableRecord
  2
DOTX2
 70
    0
  3
Dot (2x) .  .  .  .  .  .  .  .  .  .  .  .  .
 72
   65
 73
    2
 40
12.7
 49
0
 74
    0
 49
-12.7
 74
    0
  0
LTYPE
  5
36
330
5
100
AcDbSymbolTableRecord
100
AcDbLinetypeTableRecord
  2
DASHED
 70
    0
  3
Dashed _ _ _ _ _ _ _ _ _ _ _ _ _ _ _ _ _
 72
   65
 73
    2
 40
19.05
 49
12.7
 74
    0
 49
-6.35
 74
    0
  0
LTYPE
  5
37
330
5
100
AcDbSymbolTableRecord
100
AcDbLinetypeTableRecord
  2
DASHEDTINY
 70
    0
  3
Dashed (.15x) _ _ _ _ _ _ _ _ _ _ _ _ _ _ _ _ _
 72
   65
 73
    2
 40
2.8575
 49
1.905
 74
    0
 49
-0.9525
 74
    0
  0
LTYPE
  5
38
330
5
100
AcDbSymbolTableRecord
100
AcDbLinetypeTableRecord
  2
DASHED2
 70
    0
  3
Dashed (.5x) _ _ _ _ _ _ _ _ _ _ _ _ _ _ _ _ _
 72
   65
 73
    2
 40
9.524999999999999
 49
6.35
 74
    0
 49
-3.175
 74
    0
  0
LTYPE
  5
39
330
5
100
AcDbSymbolTableRecord
100
AcDbLinetypeTableRecord
  2
DASHEDX2
 70
    0
  3
Dashed (2x) ____  ____  ____  ____  ____  ___
 72
   65
 73
    2
 40
38.09999999999999
 49
25.4
 74
    0
 49
-12.7
 74
    0
  0
LTYPE
  5
3A
330
5
100
AcDbSymbolTableRecord
100
AcDbLinetypeTableRecord
  2
DASHDOT
 70
    0
  3
Dash dot __ . __ . __ . __ . __ . __ . __ . __
 72
   65
 73
    4
 40
25.4
 49
12.7
 74
    0
 49
-6.35
 74
    0
 49
0
 74
    0
 49
-6.35
 74
    0
  0
LTYPE
  5
3B
330
5
100
AcDbSymbolTableRecord
100
AcDbLinetypeTableRecord
  2
DASHDOTTINY
 70
    0
  3
Dash dot (.15x) _._._._._._._._._._._._._._._.
 72
   65
 73
    4
 40
3.81
 49
1.905
 74
    0
 49
-0.9525
 74
    0
 49
0
 74
    0
 49
-0.9525
 74
    0
  0
LTYPE
  5
3C
330
5
100
AcDbSymbolTableRecord
100
AcDbLinetypeTableRecord
  2
DASHDOT2
 70
    0
  3
Dash dot (.5x) _._._._._._._._._._._._._._._.
 72
   65
 73
    4
 40
12.7
 49
6.35
 74
    0
 49
-3.175
 74
    0
 49
0
 74
    0
 49
-3.175
 74
    0
  0
LTYPE
  5
3D
330
5
100
AcDbSymbolTableRecord
100
AcDbLinetypeTableRecord
  2
DASHDOTX2
 70
    0
  3
Dash dot (2x) ____  .  ____  .  ____  .  ___
 72
   65
 73
    4
 40
50.8
 49
25.4
 74
    0
 49
-12.7
 74
    0
 49
0
 74
    0
 49
-12.7
 74
    0
  0
LTYPE
  5
3E
330
5
100
AcDbSymbolTableRecord
100
AcDbLinetypeTableRecord
  2
DIVIDE
 70
    0
  3
Divide ____ . . ____ . . ____ . . ____ . . ____
 72
   65
 73
    6
 40
31.75
 49
12.7
 74
    0
 49
-6.35
 74
    0
 49
0
 74
    0
 49
-6.35
 74
    0
 49
0
 74
    0
 49
-6.35
 74
    0
  0
LTYPE
  5
3F
330
5
100
AcDbSymbolTableRecord
100
AcDbLinetypeTableRecord
  2
DIVIDETINY
 70
    0
  3
Divide (.15x) __..__..__..__..__..__..__..__.._
 72
   65
 73
    6
 40
4.7625
 49
1.905
 74
    0
 49
-0.9525
 74
    0
 49
0
 74
    0
 49
-0.9525
 74
    0
 49
0
 74
    0
 49
-0.9525
 74
    0
  0
LTYPE
  5
40
330
5
100
AcDbSymbolTableRecord
100
AcDbLinetypeTableRecord
  2
DIVIDE2
 70
    0
  3
Divide (.5x) __..__..__..__..__..__..__..__.._
 72
   65
 73
    6
 40
15.875
 49
6.35
 74
    0
 49
-3.175
 74
    0
 49
0
 74
    0
 49
-3.175
 74
    0
 49
0
 74
    0
 49
-3.175
 74
    0
  0
LTYPE
  5
41
330
5
100
AcDbSymbolTableRecord
100
AcDbLinetypeTableRecord
  2
DIVIDEX2
 70
    0
  3
Divide (2x) ________  .  .  ________  .  .  _
 72
   65
 73
    6
 40
63.5
 49
25.4
 74
    0
 49
-12.7
 74
    0
 49
0
 74
    0
 49
-12.7
 74
    0
 49
0
 74
    0
 49
-12.7
 74
    0
  0
LTYPE
  5
42
330
5
100
AcDbSymbolTableRecord
100
AcDbLinetypeTableRecord
  2
BORDER
 70
    0
  3
Border __ __ . __ __ . __ __ . __ __ . __ __ .
 72
   65
 73
    6
 40
44.45
 49
12.7
 74
    0
 49
-6.35
 74
    0
 49
12.7
 74
    0
 49
-6.35
 74
    0
 49
0
 74
    0
 49
-6.35
 74
    0
  0
LTYPE
  5
43
330
5
100
AcDbSymbolTableRecord
100
AcDbLinetypeTableRecord
  2
BORDERTINY
 70
    0
  3
Border (.15x) __.__.__.__.__.__.__.__.__.__.__.
 72
   65
 73
    6
 40
6.6675
 49
1.905
 74
    0
 49
-0.9525
 74
    0
 49
1.905
 74
    0
 49
-0.9525
 74
    0
 49
0
 74
    0
 49
-0.9525
 74
    0
  0
LTYPE
  5
44
330
5
100
AcDbSymbolTableRecord
100
AcDbLinetypeTableRecord
  2
BORDER2
 70
    0
  3
Border (.5x) __.__.__.__.__.__.__.__.__.__.__.
 72
   65
 73
    6
 40
22.225
 49
6.35
 74
    0
 49
-3.175
 74
    0
 49
6.35
 74
    0
 49
-3.175
 74
    0
 49
0
 74
    0
 49
-3.175
 74
    0
  0
LTYPE
  5
45
330
5
100
AcDbSymbolTableRecord
100
AcDbLinetypeTableRecord
  2
BORDERX2
 70
    0
  3
Border (2x) ____  ____  .  ____  ____  .  ___
 72
   65
 73
    6
 40
88.89999999999999
 49
25.4
 74
    0
 49
-12.7
 74
    0
 49
25.4
 74
    0
 49
-12.7
 74
    0
 49
0
 74
    0
 49
-12.7
 74
    0
  0
LTYPE
  5
46
330
5
100
AcDbSymbolTableRecord
100
AcDbLinetypeTableRecord
  2
CENTER
 70
    0
  3
Center ____ _ ____ _ ____ _ ____ _ ____ _ ____
 72
   65
 73
    4
 40
50.8
 49
31.75
 74
    0
 49
-6.35
 74
    0
 49
6.35
 74
    0
 49
-6.35
 74
    0
  0
LTYPE
  5
47
330
5
100
AcDbSymbolTableRecord
100
AcDbLinetypeTableRecord
  2
CENTERTINY
 70
    0
  3
Center (.15x) ___ _ ___ _ ___ _ ___ _ ___ _ ___
 72
   65
 73
    4
 40
7.62
 49
4.7625
 74
    0
 49
-0.9525
 74
    0
 49
0.9525
 74
    0
 49
-0.9525
 74
    0
  0
LTYPE
  5
48
330
5
100
AcDbSymbolTableRecord
100
AcDbLinetypeTableRecord
  2
CENTER2
 70
    0
  3
Center (.5x) ___ _ ___ _ ___ _ ___ _ ___ _ ___
 72
   65
 73
    4
 40
28.575
 49
19.05
 74
    0
 49
-3.175
 74
    0
 49
3.175
 74
    0
 49
-3.175
 74
    0
  0
LTYPE
  5
49
330
5
100
AcDbSymbolTableRecord
100
AcDbLinetypeTableRecord
  2
CENTERX2
 70
    0
  3
Center (2x) ________  __  ________  __  _____
 72
   65
 73
    4
 40
101.6
 49
63.5
 74
    0
 49
-12.7
 74
    0
 49
12.7
 74
    0
 49
-12.7
 74
    0
  0
ENDTAB
  0
TABLE
  2
LAYER
  5
2
330
0
100
AcDbSymbolTable
 70
    1
  0
LAYER
  5
10
330
2
100
AcDbSymbolTableRecord
100
AcDbLayerTableRecord
  2
0
 70
    0
 62
  253
420
10526884
  6
CONTINUOUS
370
    0
390
F
  0
LAYER
  5
4A
330
2
100
AcDbSymbolTableRecord
100
AcDbLayerTableRecord
  2
CANES Green
 70
    0
 62
    3
  6
CONTINUOUS
370
   25
390
F
  0
LAYER
  5
4B
330
2
100
AcDbSymbolTableRecord
100
AcDbLayerTableRecord
  2
CANES Line
 70
    1
 62
    2
  6
CENTER2
370
   13
390
F
  0
LAYER
  5
4C
330
2
100
AcDbSymbolTableRecord
100
AcDbLayerTableRecord
  2
CANES Pixels
 70
    1
 62
   56
420
8421376
  6
CENTER2
370
    0
390
F
  0
LAYER
  5
4D
330
2
100
AcDbSymbolTableRecord
100
AcDbLayerTableRecord
  2
CANES Red
 70
    0
 62
    1
  6
CONTINUOUS
370
   25
390
F
  0
LAYER
  5
4E
330
2
100
AcDbSymbolTableRecord
100
AcDbLayerTableRecord
  2
COORD Canes Green
 70
    0
 62
    3
  6
CONTINUOUS
370
   13
390
F
  0
LAYER
  5
4F
330
2
100
AcDbSymbolTableRecord
100
AcDbLayerTableRecord
  2
COORD Canes Red
 70
    0
 62
    1
  6
CONTINUOUS
370
   13
390
F
  0
LAYER
  5
50
330
2
100
AcDbSymbolTableRecord
100
AcDbLayerTableRecord
  2
COORD Trees Big
 70
    0
 62
   96
420
32768
  6
CONTINUOUS
370
   13
390
F
  0
LAYER
  5
51
330
2
100
AcDbSymbolTableRecord
100
AcDbLayerTableRecord
  2
COORD Trees Red Mini
 70
    0
 62
   16
420
8388608
  6
CONTINUOUS
370
   13
390
F
  0
LAYER
  5
52
330
2
100
AcDbSymbolTableRecord
100
AcDbLayerTableRecord
  2
COORD Trees Tom Row A
 70
    0
 62
    5
  6
CONTINUOUS
370
   13
390
F
  0
LAYER
  5
53
330
2
100
AcDbSymbolTableRecord
100
AcDbLayerTableRecord
  2
COORD Trees Tom Row B
 70
    0
 62
    6
  6
CONTINUOUS
370
   13
390
F
  0
LAYER
  5
54
330
2
100
AcDbSymbolTableRecord
100
AcDbLayerTableRecord
  2
DIM Big Trees
 70
    1
 62
   96
420
32768
  6
CONTINUOUS
370
   13
390
F
  0
LAYER
  5
55
330
2
100
AcDbSymbolTableRecord
100
AcDbLayerTableRecord
  2
DIM Green Canes
 70
    1
 62
    3
  6
CONTINUOUS
370
   13
390
F
  0
LAYER
  5
56
330
2
100
AcDbSymbolTableRecord
100
AcDbLayerTableRecord
  2
DIM Red Canes
 70
    1
 62
    1
  6
CONTINUOUS
370
   13
390
F
  0
LAYER
  5
57
330
2
100
AcDbSymbolTableRecord
100
AcDbLayerTableRecord
  2
DIM Red Mini Trees
 70
    1
 62
   16
420
8388608
  6
CONTINUOUS
370
   13
390
F
  0
LAYER
  5
58
330
2
100
AcDbSymbolTableRecord
100
AcDbLayerTableRecord
  2
DIM Tom Trees Row A
 70
    1
 62
    5
  6
CONTINUOUS
370
   13
390
F
  0
LAYER
  5
59
330
2
100
AcDbSymbolTableRecord
100
AcDbLayerTableRecord
  2
DIM Tom Trees Row B
 70
    1
 62
    6
  6
CONTINUOUS
370
   13
390
F
  0
LAYER
  5
5A
330
2
100
AcDbSymbolTableRecord
100
AcDbLayerTableRecord
  2
LINE Curb
 70
    0
 62
    8
  6
CONTINUOUS
370
   13
390
F
  0
LAYER
  5
5B
330
2
100
AcDbSymbolTableRecord
100
AcDbLayerTableRecord
  2
LINE Origin
 70
    0
 62
    4
  6
CONTINUOUS
370
   13
390
F
  0
LAYER
  5
5C
330
2
100
AcDbSymbolTableRecord
100
AcDbLayerTableRecord
  2
LINE Property
 70
    0
 62
    8
  6
CONTINUOUS
370
   13
390
F
  0
LAYER
  5
5D
330
2
100
AcDbSymbolTableRecord
100
AcDbLayerTableRecord
  2
TREES Big
 70
    0
 62
   96
420
32768
  6
CONTINUOUS
370
   25
390
F
  0
LAYER
  5
5E
330
2
100
AcDbSymbolTableRecord
100
AcDbLayerTableRecord
  2
TREES Red Mini
 70
    0
 62
   16
420
8388608
  6
CONTINUOUS
370
   25
390
F
  0
LAYER
  5
5F
330
2
100
AcDbSymbolTableRecord
100
AcDbLayerTableRecord
  2
TREES Tom Row A RGBW
 70
    0
 62
    5
  6
CONTINUOUS
370
   25
390
F
  0
LAYER
  5
60
330
2
100
AcDbSymbolTableRecord
100
AcDbLayerTableRecord
  2
TREES Tom Row B VW
 70
    0
 62
    6
  6
CONTINUOUS
370
   25
390
F
  0
LAYER
  5
61
330
2
100
AcDbSymbolTableRecord
100
AcDbLayerTableRecord
  2
Water Meters
 70
    0
 62
  136
420
32896
  6
CONTINUOUS
370
   13
390
F
  0
ENDTAB
  0
TABLE
  2
STYLE
  5
3
330
0
100
AcDbSymbolTable
 70
    3
  0
STYLE
  5
62
330
2
100
AcDbSymbolTableRecord
100
AcDbTextStyleTableRecord
  2
iso
 70
    0
 40
0
 41
1
 50
0
 71
    0
 42
1
  3
iso
  4

  0
STYLE
  5
63
330
2
100
AcDbSymbolTableRecord
100
AcDbTextStyleTableRecord
  2
Standard
 70
    0
 40
0
 41
1
 50
0
 71
    0
 42
1
  3
txt
  4

  0
ENDTAB
  0
TABLE
  2
VIEW
  5
6
330
0
100
AcDbSymbolTable
 70
    0
  0
ENDTAB
  0
TABLE
  2
UCS
  5
7
330
0
100
AcDbSymbolTable
 70
    0
  0
ENDTAB
  0
TABLE
  2
APPID
  5
9
330
0
100
AcDbSymbolTable
 70
    1
  0
APPID
  5
12
330
9
100
AcDbSymbolTableRecord
100
AcDbRegAppTableRecord
  2
ACAD
 70
    0
  0
APPID
  5
64
330
9
100
AcDbSymbolTableRecord
100
AcDbRegAppTableRecord
  2
LibreCad
 70
    0
  0
ENDTAB
  0
TABLE
  2
DIMSTYLE
  5
A
330
0
100
AcDbSymbolTable
 70
    1
100
AcDbDimStyleTable
 71
    1
  0
DIMSTYLE
105
65
330
A
100
AcDbSymbolTableRecord
100
AcDbDimStyleTableRecord
  2
Standard
 70
    0
 40
1
 41
0.5
 42
0.1
 43
0.38
 44
0.05
 45
0
 46
0
 47
0
 48
0
 49
0.04
140
0.75
141
0.09
142
0
143
25.4
144
1
145
0
146
1
147
0.1
148
0
 71
    0
 72
    0
 73
    0
 74
    1
 75
    0
 76
    0
 77
    0
 78
    8
 79
    0
170
    0
171
    2
172
    0
173
    0
174
    0
175
    0
176
    0
177
    0
178
    0
179
    2
271
    2
272
    4
273
    2
274
    2
275
    0
276
    0
277
    2
278
    0
279
    0
280
    0
281
    0
282
    0
283
    1
284
    0
285
    0
286
    0
288
    0
289
    3
340
standard
341

371
   -2
372
   -2
  0
ENDTAB
  0
TABLE
  2
BLOCK_RECORD
  5
1
330
0
100
AcDbSymbolTable
 70
    2
  0
BLOCK_RECORD
  5
1F
330
1
100
AcDbSymbolTableRecord
100
AcDbBlockTableRecord
  2
*Model_Space
 70
    0
280
    1
281
    0
  0
BLOCK_RECORD
  5
1E
330
1
100
AcDbSymbolTableRecord
100
AcDbBlockTableRecord
  2
*Paper_Space
 70
    0
280
    1
281
    0
  0
BLOCK_RECORD
  5
66
330
1
100
AcDbSymbolTableRecord
100
AcDbBlockTableRecord
  2
*D57
 70
    0
280
    1
281
    0
  0
BLOCK_RECORD
  5
69
330
1
100
AcDbSymbolTableRecord
100
AcDbBlockTableRecord
  2
*D22
 70
    0
280
    1
281
    0
  0
BLOCK_RECORD
  5
6C
330
1
100
AcDbSymbolTableRecord
100
AcDbBlockTableRecord
  2
*D20
 70
    0
280
    1
281
    0
  0
BLOCK_RECORD
  5
6F
330
1
100
AcDbSymbolTableRecord
100
AcDbBlockTableRecord
  2
*D74
 70
    0
280
    1
281
    0
  0
BLOCK_RECORD
  5
72
330
1
100
AcDbSymbolTableRecord
100
AcDbBlockTableRecord
  2
*D27
 70
    0
280
    1
281
    0
  0
BLOCK_RECORD
  5
75
330
1
100
AcDbSymbolTableRecord
100
AcDbBlockTableRecord
  2
*D75
 70
    0
280
    1
281
    0
  0
BLOCK_RECORD
  5
78
330
1
100
AcDbSymbolTableRecord
100
AcDbBlockTableRecord
  2
*D54
 70
    0
280
    1
281
    0
  0
BLOCK_RECORD
  5
7B
330
1
100
AcDbSymbolTableRecord
100
AcDbBlockTableRecord
  2
*D23
 70
    0
280
    1
281
    0
  0
BLOCK_RECORD
  5
7E
330
1
100
AcDbSymbolTableRecord
100
AcDbBlockTableRecord
  2
*D11
 70
    0
280
    1
281
    0
  0
BLOCK_RECORD
  5
81
330
1
100
AcDbSymbolTableRecord
100
AcDbBlockTableRecord
  2
*D13
 70
    0
280
    1
281
    0
  0
BLOCK_RECORD
  5
84
330
1
100
AcDbSymbolTableRecord
100
AcDbBlockTableRecord
  2
*D91
 70
    0
280
    1
281
    0
  0
BLOCK_RECORD
  5
87
330
1
100
AcDbSymbolTableRecord
100
AcDbBlockTableRecord
  2
*D17
 70
    0
280
    1
281
    0
  0
BLOCK_RECORD
  5
8A
330
1
100
AcDbSymbolTableRecord
100
AcDbBlockTableRecord
  2
*D55
 70
    0
280
    1
281
    0
  0
BLOCK_RECORD
  5
8D
330
1
100
AcDbSymbolTableRecord
100
AcDbBlockTableRecord
  2
*D50
 70
    0
280
    1
281
    0
  0
BLOCK_RECORD
  5
90
330
1
100
AcDbSymbolTableRecord
100
AcDbBlockTableRecord
  2
*D19
 70
    0
280
    1
281
    0
  0
BLOCK_RECORD
  5
93
330
1
100
AcDbSymbolTableRecord
100
AcDbBlockTableRecord
  2
*D64
 70
    0
280
    1
281
    0
  0
BLOCK_RECORD
  5
96
330
1
100
AcDbSymbolTableRecord
100
AcDbBlockTableRecord
  2
*D52
 70
    0
280
    1
281
    0
  0
BLOCK_RECORD
  5
99
330
1
100
AcDbSymbolTableRecord
100
AcDbBlockTableRecord
  2
*D86
 70
    0
280
    1
281
    0
  0
BLOCK_RECORD
  5
9C
330
1
100
AcDbSymbolTableRecord
100
AcDbBlockTableRecord
  2
*D76
 70
    0
280
    1
281
    0
  0
BLOCK_RECORD
  5
9F
330
1
100
AcDbSymbolTableRecord
100
AcDbBlockTableRecord
  2
*D84
 70
    0
280
    1
281
    0
  0
BLOCK_RECORD
  5
A2
330
1
100
AcDbSymbolTableRecord
100
AcDbBlockTableRecord
  2
*D12
 70
    0
280
    1
281
    0
  0
BLOCK_RECORD
  5
A5
330
1
100
AcDbSymbolTableRecord
100
AcDbBlockTableRecord
  2
*D29
 70
    0
280
    1
281
    0
  0
BLOCK_RECORD
  5
A8
330
1
100
AcDbSymbolTableRecord
100
AcDbBlockTableRecord
  2
*D24
 70
    0
280
    1
281
    0
  0
BLOCK_RECORD
  5
AB
330
1
100
AcDbSymbolTableRecord
100
AcDbBlockTableRecord
  2
*D21
 70
    0
280
    1
281
    0
  0
BLOCK_RECORD
  5
AE
330
1
100
AcDbSymbolTableRecord
100
AcDbBlockTableRecord
  2
*D62
 70
    0
280
    1
281
    0
  0
BLOCK_RECORD
  5
B1
330
1
100
AcDbSymbolTableRecord
100
AcDbBlockTableRecord
  2
*D14
 70
    0
280
    1
281
    0
  0
BLOCK_RECORD
  5
B4
330
1
100
AcDbSymbolTableRecord
100
AcDbBlockTableRecord
  2
*D81
 70
    0
280
    1
281
    0
  0
BLOCK_RECORD
  5
B7
330
1
100
AcDbSymbolTableRecord
100
AcDbBlockTableRecord
  2
*D83
 70
    0
280
    1
281
    0
  0
BLOCK_RECORD
  5
BA
330
1
100
AcDbSymbolTableRecord
100
AcDbBlockTableRecord
  2
*D9
 70
    0
280
    1
281
    0
  0
BLOCK_RECORD
  5
BD
330
1
100
AcDbSymbolTableRecord
100
AcDbBlockTableRecord
  2
*D71
 70
    0
280
    1
281
    0
  0
BLOCK_RECORD
  5
C0
330
1
100
AcDbSymbolTableRecord
100
AcDbBlockTableRecord
  2
*D26
 70
    0
280
    1
281
    0
  0
BLOCK_RECORD
  5
C3
330
1
100
AcDbSymbolTableRecord
100
AcDbBlockTableRecord
  2
*D30
 70
    0
280
    1
281
    0
  0
BLOCK_RECORD
  5
C6
330
1
100
AcDbSymbolTableRecord
100
AcDbBlockTableRecord
  2
*D16
 70
    0
280
    1
281
    0
  0
BLOCK_RECORD
  5
C9
330
1
100
AcDbSymbolTableRecord
100
AcDbBlockTableRecord
  2
*D2
 70
    0
280
    1
281
    0
  0
BLOCK_RECORD
  5
CC
330
1
100
AcDbSymbolTableRecord
100
AcDbBlockTableRecord
  2
*D89
 70
    0
280
    1
281
    0
  0
BLOCK_RECORD
  5
CF
330
1
100
AcDbSymbolTableRecord
100
AcDbBlockTableRecord
  2
*D65
 70
    0
280
    1
281
    0
  0
BLOCK_RECORD
  5
D2
330
1
100
AcDbSymbolTableRecord
100
AcDbBlockTableRecord
  2
*D18
 70
    0
280
    1
281
    0
  0
BLOCK_RECORD
  5
D5
330
1
100
AcDbSymbolTableRecord
100
AcDbBlockTableRecord
  2
*D49
 70
    0
280
    1
281
    0
  0
BLOCK_RECORD
  5
D8
330
1
100
AcDbSymbolTableRecord
100
AcDbBlockTableRecord
  2
*D8
 70
    0
280
    1
281
    0
  0
BLOCK_RECORD
  5
DB
330
1
100
AcDbSymbolTableRecord
100
AcDbBlockTableRecord
  2
*D73
 70
    0
280
    1
281
    0
  0
BLOCK_RECORD
  5
DE
330
1
100
AcDbSymbolTableRecord
100
AcDbBlockTableRecord
  2
*D4
 70
    0
280
    1
281
    0
  0
BLOCK_RECORD
  5
E1
330
1
100
AcDbSymbolTableRecord
100
AcDbBlockTableRecord
  2
*D7
 70
    0
280
    1
281
    0
  0
BLOCK_RECORD
  5
E4
330
1
100
AcDbSymbolTableRecord
100
AcDbBlockTableRecord
  2
*D88
 70
    0
280
    1
281
    0
  0
BLOCK_RECORD
  5
E7
330
1
100
AcDbSymbolTableRecord
100
AcDbBlockTableRecord
  2
*D51
 70
    0
280
    1
281
    0
  0
BLOCK_RECORD
  5
EA
330
1
100
AcDbSymbolTableRecord
100
AcDbBlockTableRecord
  2
*D1
 70
    0
280
    1
281
    0
  0
BLOCK_RECORD
  5
ED
330
1
100
AcDbSymbolTableRecord
100
AcDbBlockTableRecord
  2
*D66
 70
    0
280
    1
281
    0
  0
BLOCK_RECORD
  5
F0
330
1
100
AcDbSymbolTableRecord
100
AcDbBlockTableRecord
  2
*D59
 70
    0
280
    1
281
    0
  0
BLOCK_RECORD
  5
F3
330
1
100
AcDbSymbolTableRecord
100
AcDbBlockTableRecord
  2
*D38
 70
    0
280
    1
281
    0
  0
BLOCK_RECORD
  5
F6
330
1
100
AcDbSymbolTableRecord
100
AcDbBlockTableRecord
  2
*D37
 70
    0
280
    1
281
    0
  0
BLOCK_RECORD
  5
F9
330
1
100
AcDbSymbolTableRecord
100
AcDbBlockTableRecord
  2
*D79
 70
    0
280
    1
281
    0
  0
BLOCK_RECORD
  5
FC
330
1
100
AcDbSymbolTableRecord
100
AcDbBlockTableRecord
  2
*D35
 70
    0
280
    1
281
    0
  0
BLOCK_RECORD
  5
FF
330
1
100
AcDbSymbolTableRecord
100
AcDbBlockTableRecord
  2
*D44
 70
    0
280
    1
281
    0
  0
BLOCK_RECORD
  5
102
330
1
100
AcDbSymbolTableRecord
100
AcDbBlockTableRecord
  2
*D6
 70
    0
280
    1
281
    0
  0
BLOCK_RECORD
  5
105
330
1
100
AcDbSymbolTableRecord
100
AcDbBlockTableRecord
  2
*D34
 70
    0
280
    1
281
    0
  0
BLOCK_RECORD
  5
108
330
1
100
AcDbSymbolTableRecord
100
AcDbBlockTableRecord
  2
*D40
 70
    0
280
    1
281
    0
  0
BLOCK_RECORD
  5
10B
330
1
100
AcDbSymbolTableRecord
100
AcDbBlockTableRecord
  2
*D70
 70
    0
280
    1
281
    0
  0
BLOCK_RECORD
  5
10E
330
1
100
AcDbSymbolTableRecord
100
AcDbBlockTableRecord
  2
*D3
 70
    0
280
    1
281
    0
  0
BLOCK_RECORD
  5
111
330
1
100
AcDbSymbolTableRecord
100
AcDbBlockTableRecord
  2
*D56
 70
    0
280
    1
281
    0
  0
BLOCK_RECORD
  5
114
330
1
100
AcDbSymbolTableRecord
100
AcDbBlockTableRecord
  2
*D46
 70
    0
280
    1
281
    0
  0
BLOCK_RECORD
  5
117
330
1
100
AcDbSymbolTableRecord
100
AcDbBlockTableRecord
  2
*D67
 70
    0
280
    1
281
    0
  0
BLOCK_RECORD
  5
11A
330
1
100
AcDbSymbolTableRecord
100
AcDbBlockTableRecord
  2
*D32
 70
    0
280
    1
281
    0
  0
BLOCK_RECORD
  5
11D
330
1
100
AcDbSymbolTableRecord
100
AcDbBlockTableRecord
  2
*D47
 70
    0
280
    1
281
    0
  0
BLOCK_RECORD
  5
120
330
1
100
AcDbSymbolTableRecord
100
AcDbBlockTableRecord
  2
*D82
 70
    0
280
    1
281
    0
  0
BLOCK_RECORD
  5
123
330
1
100
AcDbSymbolTableRecord
100
AcDbBlockTableRecord
  2
*D53
 70
    0
280
    1
281
    0
  0
BLOCK_RECORD
  5
126
330
1
100
AcDbSymbolTableRecord
100
AcDbBlockTableRecord
  2
*D61
 70
    0
280
    1
281
    0
  0
BLOCK_RECORD
  5
129
330
1
100
AcDbSymbolTableRecord
100
AcDbBlockTableRecord
  2
*D10
 70
    0
280
    1
281
    0
  0
BLOCK_RECORD
  5
12C
330
1
100
AcDbSymbolTableRecord
100
AcDbBlockTableRecord
  2
*D31
 70
    0
280
    1
281
    0
  0
BLOCK_RECORD
  5
12F
330
1
100
AcDbSymbolTableRecord
100
AcDbBlockTableRecord
  2
*D85
 70
    0
280
    1
281
    0
  0
BLOCK_RECORD
  5
132
330
1
100
AcDbSymbolTableRecord
100
AcDbBlockTableRecord
  2
*D77
 70
    0
280
    1
281
    0
  0
BLOCK_RECORD
  5
135
330
1
100
AcDbSymbolTableRecord
100
AcDbBlockTableRecord
  2
*D42
 70
    0
280
    1
281
    0
  0
BLOCK_RECORD
  5
138
330
1
100
AcDbSymbolTableRecord
100
AcDbBlockTableRecord
  2
*D78
 70
    0
280
    1
281
    0
  0
BLOCK_RECORD
  5
13B
330
1
100
AcDbSymbolTableRecord
100
AcDbBlockTableRecord
  2
*D68
 70
    0
280
    1
281
    0
  0
BLOCK_RECORD
  5
13E
330
1
100
AcDbSymbolTableRecord
100
AcDbBlockTableRecord
  2
*D72
 70
    0
280
    1
281
    0
  0
BLOCK_RECORD
  5
141
330
1
100
AcDbSymbolTableRecord
100
AcDbBlockTableRecord
  2
*D41
 70
    0
280
    1
281
    0
  0
BLOCK_RECORD
  5
144
330
1
100
AcDbSymbolTableRecord
100
AcDbBlockTableRecord
  2
*D60
 70
    0
280
    1
281
    0
  0
BLOCK_RECORD
  5
147
330
1
100
AcDbSymbolTableRecord
100
AcDbBlockTableRecord
  2
*D5
 70
    0
280
    1
281
    0
  0
BLOCK_RECORD
  5
14A
330
1
100
AcDbSymbolTableRecord
100
AcDbBlockTableRecord
  2
*D45
 70
    0
280
    1
281
    0
  0
BLOCK_RECORD
  5
14D
330
1
100
AcDbSymbolTableRecord
100
AcDbBlockTableRecord
  2
*D69
 70
    0
280
    1
281
    0
  0
BLOCK_RECORD
  5
150
330
1
100
AcDbSymbolTableRecord
100
AcDbBlockTableRecord
  2
*D43
 70
    0
280
    1
281
    0
  0
BLOCK_RECORD
  5
153
330
1
100
AcDbSymbolTableRecord
100
AcDbBlockTableRecord
  2
*D80
 70
    0
280
    1
281
    0
  0
BLOCK_RECORD
  5
156
330
1
100
AcDbSymbolTableRecord
100
AcDbBlockTableRecord
  2
*D33
 70
    0
280
    1
281
    0
  0
BLOCK_RECORD
  5
159
330
1
100
AcDbSymbolTableRecord
100
AcDbBlockTableRecord
  2
*D58
 70
    0
280
    1
281
    0
  0
BLOCK_RECORD
  5
15C
330
1
100
AcDbSymbolTableRecord
100
AcDbBlockTableRecord
  2
*D90
 70
    0
280
    1
281
    0
  0
BLOCK_RECORD
  5
15F
330
1
100
AcDbSymbolTableRecord
100
AcDbBlockTableRecord
  2
*D48
 70
    0
280
    1
281
    0
  0
BLOCK_RECORD
  5
162
330
1
100
AcDbSymbolTableRecord
100
AcDbBlockTableRecord
  2
*D28
 70
    0
280
    1
281
    0
  0
BLOCK_RECORD
  5
165
330
1
100
AcDbSymbolTableRecord
100
AcDbBlockTableRecord
  2
*D36
 70
    0
280
    1
281
    0
  0
BLOCK_RECORD
  5
168
330
1
100
AcDbSymbolTableRecord
100
AcDbBlockTableRecord
  2
*D15
 70
    0
280
    1
281
    0
  0
BLOCK_RECORD
  5
16B
330
1
100
AcDbSymbolTableRecord
100
AcDbBlockTableRecord
  2
*D25
 70
    0
280
    1
281
    0
  0
BLOCK_RECORD
  5
16E
330
1
100
AcDbSymbolTableRecord
100
AcDbBlockTableRecord
  2
*D63
 70
    0
280
    1
281
    0
  0
BLOCK_RECORD
  5
171
330
1
100
AcDbSymbolTableRecord
100
AcDbBlockTableRecord
  2
*D87
 70
    0
280
    1
281
    0
  0
BLOCK_RECORD
  5
174
330
1
100
AcDbSymbolTableRecord
100
AcDbBlockTableRecord
  2
*D39
 70
    0
280
    1
281
    0
  0
BLOCK_RECORD
  5
177
330
1
100
AcDbSymbolTableRecord
100
AcDbBlockTableRecord
  2
Green Cane H
 70
    0
280
    1
281
    0
  0
BLOCK_RECORD
  5
17A
330
1
100
AcDbSymbolTableRecord
100
AcDbBlockTableRecord
  2
Red Cane H
 70
    0
280
    1
281
    0
  0
BLOCK_RECORD
  5
17D
330
1
100
AcDbSymbolTableRecord
100
AcDbBlockTableRecord
  2
Green Cane V
 70
    0
280
    1
281
    0
  0
BLOCK_RECORD
  5
180
330
1
100
AcDbSymbolTableRecord
100
AcDbBlockTableRecord
  2
Red Cane V
 70
    0
280
    1
281
    0
  0
ENDTAB
  0
ENDSEC
  0
SECTION
  2
BLOCKS
  0
BLOCK
  5
20
330
1F
100
AcDbEntity
  8
0
100
AcDbBlockBegin
  2
*Model_Space
 70
    0
 10
0
 20
0
 30
0
  3
*Model_Space
  1

  0
ENDBLK
  5
21
330
1F
100
AcDbEntity
  8
0
100
AcDbBlockEnd
  0
BLOCK
  5
1C
330
1B
100
AcDbEntity
  8
0
100
AcDbBlockBegin
  2
*Paper_Space
 70
    0
 10
0
 20
0
 30
0
  3
*Paper_Space
  1

  0
ENDBLK
  5
1D
330
1F
100
AcDbEntity
  8
0
100
AcDbBlockEnd
  0
BLOCK
  5
67
330
66
100
AcDbEntity
  8
0
100
AcDbBlockBegin
  2
*D57
 70
    1
 10
0
 20
0
  3
*D57
  1

  0
LINE
  5
183
100
AcDbEntity
  8
COORD Trees Tom Row B
  6
CONTINUOUS
 62
    7
370
    0
100
AcDbLine
 10
7.379666339822029
 20
8.26794919243112
 11
9
 21
10
  0
LINE
  5
184
100
AcDbEntity
  8
COORD Trees Tom Row B
  6
CONTINUOUS
 62
    7
370
    0
100
AcDbLine
 10
9
 20
10
 11
10
 21
10
  0
SOLID
  5
185
100
AcDbEntity
  8
COORD Trees Tom Row B
  6
CONTINUOUS
 62
    7
370
    0
100
AcDbTrace
 10
7.379666339822029
 20
8.26794919243112
 30
0
 11
7.660448393900744
 21
8.689960039162836
 31
0
 12
7.782047725073799
 22
8.576203855744993
 32
0
 13
7.782047725073799
 23
8.576203855744993
 33
0
  0
ENDBLK
  5
68
330
66
100
AcDbEntity
  8
0
100
AcDbBlockEnd
  0
BLOCK
  5
6A
330
69
100
AcDbEntity
  8
0
100
AcDbBlockBegin
  2
*D22
 70
    1
 10
0
 20
0
  3
*D22
  1

  0
LINE
  5
186
100
AcDbEntity
  8
DIM Tom Trees Row A
  6
ByBlock
 62
    0
370
   -2
100
AcDbLine
 10
0
 20
-7
 11
18.13629669484373
 21
-7
  0
SOLID
  5
187
100
AcDbEntity
  8
DIM Tom Trees Row A
  6
ByBlock
 62
    0
370
   -2
100
AcDbTrace
 10
0
 20
-7
 30
0
 11
0.5
 21
-6.916743068445432
 31
0
 12
0.5
 22
-7.083256931554568
 32
0
 13
0.5
 23
-7.083256931554568
 33
0
  0
SOLID
  5
188
100
AcDbEntity
  8
DIM Tom Trees Row A
  6
ByBlock
 62
    0
370
   -2
100
AcDbTrace
 10
18.13629669484373
 20
-7
 30
0
 11
17.63629669484373
 21
-7.083256931554568
 31
0
 12
17.63629669484373
 22
-6.916743068445432
 32
0
 13
17.63629669484373
 23
-6.916743068445432
 33
0
  0
MTEXT
  5
189
100
AcDbEntity
  8
DIM Tom Trees Row A
  6
CONTINUOUS
 62
    0
370
   -2
100
AcDbMText
 10
9.068148347421864
 20
-6.525
 30
0
 40
0.75
 41
2.083333333333333
 71
    5
 72
    1
  1
18.14
  7
standard
210
0
220
0
230
1
 50
0
 73
    2
 44
1
  0
LINE
  5
18A
100
AcDbEntity
  8
DIM Tom Trees Row A
  6
ByBlock
 62
    0
370
   -2
100
AcDbLine
 10
-1.836909530733566e-017
 20
-0.1
 11
-9.18454765366783e-018
 21
-7.05
  0
LINE
  5
18B
100
AcDbEntity
  8
DIM Tom Trees Row A
  6
ByBlock
 62
    0
370
   -2
100
AcDbLine
 10
18.13629669484373
 20
12.72842712474619
 11
18.13629669484373
 21
-7.05
  0
ENDBLK
  5
6B
330
69
100
AcDbEntity
  8
0
100
AcDbBlockEnd
  0
BLOCK
  5
6D
330
6C
100
AcDbEntity
  8
0
100
AcDbBlockBegin
  2
*D20
 70
    1
 10
0
 20
0
  3
*D20
  1

  0
LINE
  5
18C
100
AcDbEntity
  8
DIM Tom Trees Row B
  6
ByBlock
 62
    0
370
   -2
100
AcDbLine
 10
0
 20
-5
 11
14.40424588727485
 21
-5
  0
SOLID
  5
18D
100
AcDbEntity
  8
DIM Tom Trees Row B
  6
ByBlock
 62
    0
370
   -2
100
AcDbTrace
 10
0
 20
-5
 30
0
 11
0.5
 21
-4.916743068445432
 31
0
 12
0.5
 22
-5.083256931554568
 32
0
 13
0.5
 23
-5.083256931554568
 33
0
  0
SOLID
  5
18E
100
AcDbEntity
  8
DIM Tom Trees Row B
  6
ByBlock
 62
    0
370
   -2
100
AcDbTrace
 10
14.40424588727485
 20
-5
 30
0
 11
13.90424588727485
 21
-5.083256931554568
 31
0
 12
13.90424588727485
 22
-4.916743068445432
 32
0
 13
13.90424588727485
 23
-4.916743068445432
 33
0
  0
MTEXT
  5
18F
100
AcDbEntity
  8
DIM Tom Trees Row B
  6
CONTINUOUS
 62
    0
370
   -2
100
AcDbMText
 10
7.202122943637428
 20
-4.525
 30
0
 40
0.75
 41
1.75
 71
    5
 72
    1
  1
14.4
  7
standard
210
0
220
0
230
1
 50
0
 73
    2
 44
1
  0
LINE
  5
190
100
AcDbEntity
  8
DIM Tom Trees Row B
  6
ByBlock
 62
    0
370
   -2
100
AcDbLine
 10
-1.836909530733566e-017
 20
-0.1
 11
-9.18454765366783e-018
 21
-5.05
  0
LINE
  5
191
100
AcDbEntity
  8
DIM Tom Trees Row B
  6
ByBlock
 62
    0
370
   -2
100
AcDbLine
 10
14.40424588727485
 20
15.19252873988394
 11
14.40424588727485
 21
-5.05
  0
ENDBLK
  5
6E
330
6C
100
AcDbEntity
  8
0
100
AcDbBlockEnd
  0
BLOCK
  5
70
330
6F
100
AcDbEntity
  8
0
100
AcDbBlockBegin
  2
*D74
 70
    1
 10
0
 20
0
  3
*D74
  1

  0
LINE
  5
192
100
AcDbEntity
  8
COORD Canes Green
  6
CONTINUOUS
 62
    7
370
    0
100
AcDbLine
 10
32
 20
4.624999997499998
 11
33
 21
6
  0
LINE
  5
193
100
AcDbEntity
  8
COORD Canes Green
  6
CONTINUOUS
 62
    7
370
    0
100
AcDbLine
 10
33
 20
6
 11
34
 21
6
  0
SOLID
  5
194
100
AcDbEntity
  8
COORD Canes Green
  6
CONTINUOUS
 62
    7
370
    0
100
AcDbTrace
 10
32
 20
4.624999997499998
 30
0
 11
32.2267529636289
 21
5.078337410623369
 31
0
 12
32.36141873334669
 22
4.980398669188506
 32
0
 13
32.36141873334669
 23
4.980398669188506
 33
0
  0
ENDBLK
  5
71
330
6F
100
AcDbEntity
  8
0
100
AcDbBlockEnd
  0
BLOCK
  5
73
330
72
100
AcDbEntity
  8
0
100
AcDbBlockBegin
  2
*D27
 70
    1
 10
0
 20
0
  3
*D27
  1

  0
LINE
  5
195
100
AcDbEntity
  8
DIM Tom Trees Row B
  6
ByBlock
 62
    0
370
   -2
100
AcDbLine
 10
3.552713678800501e-015
 20
-12
 11
28.9671
 21
-12
  0
SOLID
  5
196
100
AcDbEntity
  8
DIM Tom Trees Row B
  6
ByBlock
 62
    0
370
   -2
100
AcDbTrace
 10
3.552713678800501e-015
 20
-12
 30
0
 11
0.5000000000000036
 21
-11.91674306844543
 31
0
 12
0.5000000000000036
 22
-12.08325693155457
 32
0
 13
0.5000000000000036
 23
-12.08325693155457
 33
0
  0
SOLID
  5
197
100
AcDbEntity
  8
DIM Tom Trees Row B
  6
ByBlock
 62
    0
370
   -2
100
AcDbTrace
 10
28.9671
 20
-12
 30
0
 11
28.4671
 21
-12.08325693155457
 31
0
 12
28.4671
 22
-11.91674306844543
 32
0
 13
28.4671
 23
-11.91674306844543
 33
0
  0
MTEXT
  5
198
100
AcDbEntity
  8
DIM Tom Trees Row B
  6
CONTINUOUS
 62
    0
370
   -2
100
AcDbMText
 10
14.48355
 20
-11.525
 30
0
 40
0.75
 41
2.333333333333333
 71
    5
 72
    1
  1
28.97
  7
standard
210
0
220
0
230
1
 50
0
 73
    2
 44
1
  0
LINE
  5
199
100
AcDbEntity
  8
DIM Tom Trees Row B
  6
ByBlock
 62
    0
370
   -2
100
AcDbLine
 10
-1.836909530733566e-017
 20
-0.1
 11
3.543529131146833e-015
 21
-12.05
  0
LINE
  5
19A
100
AcDbEntity
  8
DIM Tom Trees Row B
  6
ByBlock
 62
    0
370
   -2
100
AcDbLine
 10
28.9671
 20
17.10980330515627
 11
28.9671
 21
-12.05
  0
ENDBLK
  5
74
330
72
100
AcDbEntity
  8
0
100
AcDbBlockEnd
  0
BLOCK
  5
76
330
75
100
AcDbEntity
  8
0
100
AcDbBlockBegin
  2
*D75
 70
    1
 10
0
 20
0
  3
*D75
  1

  0
LINE
  5
19B
100
AcDbEntity
  8
COORD Canes Green
  6
CONTINUOUS
 62
    7
370
    0
100
AcDbLine
 10
40
 20
4.624999997499998
 11
41
 21
5
  0
LINE
  5
19C
100
AcDbEntity
  8
COORD Canes Green
  6
CONTINUOUS
 62
    7
370
    0
100
AcDbLine
 10
41
 20
5
 11
42
 21
5
  0
SOLID
  5
19D
100
AcDbEntity
  8
COORD Canes Green
  6
CONTINUOUS
 62
    7
370
    0
100
AcDbTrace
 10
40
 20
4.624999997499998
 30
0
 11
40.43893112788534
 21
4.878517613505646
 31
0
 12
40.49739804891412
 22
4.722605825134971
 32
0
 13
40.49739804891412
 23
4.722605825134971
 33
0
  0
ENDBLK
  5
77
330
75
100
AcDbEntity
  8
0
100
AcDbBlockEnd
  0
BLOCK
  5
79
330
78
100
AcDbEntity
  8
0
100
AcDbBlockBegin
  2
*D54
 70
    1
 10
0
 20
0
  3
*D54
  1

  0
LINE
  5
19E
100
AcDbEntity
  8
COORD Trees Tom Row B
  6
CONTINUOUS
 62
    7
370
    0
100
AcDbLine
 10
19.03287216701178
 20
17.20976852010751
 11
20
 21
19
  0
LINE
  5
19F
100
AcDbEntity
  8
COORD Trees Tom Row B
  6
CONTINUOUS
 62
    7
370
    0
100
AcDbLine
 10
20
 20
19
 11
21
 21
19
  0
SOLID
  5
1A0
100
AcDbEntity
  8
COORD Trees Tom Row B
  6
CONTINUOUS
 62
    7
370
    0
100
AcDbTrace
 10
19.03287216701178
 20
17.20976852010751
 30
0
 11
19.19727192937868
 21
17.68925202846373
 31
0
 12
19.34377459159001
 22
17.61010762517128
 32
0
 13
19.34377459159001
 23
17.61010762517128
 33
0
  0
ENDBLK
  5
7A
330
78
100
AcDbEntity
  8
0
100
AcDbBlockEnd
  0
BLOCK
  5
7C
330
7B
100
AcDbEntity
  8
0
100
AcDbBlockBegin
  2
*D23
 70
    1
 10
0
 20
0
  3
*D23
  1

  0
LINE
  5
1A1
100
AcDbEntity
  8
DIM Tom Trees Row B
  6
ByBlock
 62
    0
370
   -2
100
AcDbLine
 10
0
 20
-8
 11
19.03287216701178
 21
-8
  0
SOLID
  5
1A2
100
AcDbEntity
  8
DIM Tom Trees Row B
  6
ByBlock
 62
    0
370
   -2
100
AcDbTrace
 10
0
 20
-8
 30
0
 11
0.5
 21
-7.916743068445432
 31
0
 12
0.5
 22
-8.083256931554569
 32
0
 13
0.5
 23
-8.083256931554569
 33
0
  0
SOLID
  5
1A3
100
AcDbEntity
  8
DIM Tom Trees Row B
  6
ByBlock
 62
    0
370
   -2
100
AcDbTrace
 10
19.03287216701178
 20
-8
 30
0
 11
18.53287216701178
 21
-8.083256931554567
 31
0
 12
18.53287216701178
 22
-7.916743068445432
 32
0
 13
18.53287216701178
 23
-7.916743068445432
 33
0
  0
MTEXT
  5
1A4
100
AcDbEntity
  8
DIM Tom Trees Row B
  6
CONTINUOUS
 62
    0
370
   -2
100
AcDbMText
 10
9.516436083505891
 20
-7.525
 30
0
 40
0.75
 41
2.166666666666713
 71
    5
 72
    1
  1
19.03
  7
standard
210
0
220
0
230
1
 50
0
 73
    2
 44
1
  0
LINE
  5
1A5
100
AcDbEntity
  8
DIM Tom Trees Row B
  6
ByBlock
 62
    0
370
   -2
100
AcDbLine
 10
-1.836909530733566e-017
 20
-0.1
 11
-9.18454765366783e-018
 21
-8.050000000000001
  0
LINE
  5
1A6
100
AcDbEntity
  8
DIM Tom Trees Row B
  6
ByBlock
 62
    0
370
   -2
100
AcDbLine
 10
19.03287216701178
 20
17.10976852010751
 11
19.03287216701178
 21
-8.050000000000001
  0
ENDBLK
  5
7D
330
7B
100
AcDbEntity
  8
0
100
AcDbBlockEnd
  0
BLOCK
  5
7F
330
7E
100
AcDbEntity
  8
0
100
AcDbBlockBegin
  2
*D11
 70
    1
 10
0
 20
0
  3
*D11
  1

  0
LINE
  5
1A7
100
AcDbEntity
  8
DIM Green Canes
  6
ByBlock
 62
    0
370
   -2
100
AcDbLine
 10
-1
 20
2
 11
1.441941736473825
 21
2
  0
SOLID
  5
1A8
100
AcDbEntity
  8
DIM Green Canes
  6
ByBlock
 62
    0
370
   -2
100
AcDbTrace
 10
5.551115123125783e-017
 20
2
 30
0
 11
-0.4999999999999999
 21
1.916743068445432
 31
0
 12
-0.4999999999999999
 22
2.083256931554568
 32
0
 13
-0.4999999999999999
 23
2.083256931554568
 33
0
  0
SOLID
  5
1A9
100
AcDbEntity
  8
DIM Green Canes
  6
ByBlock
 62
    0
370
   -2
100
AcDbTrace
 10
0.4419417364738251
 20
2
 30
0
 11
0.9419417364738251
 21
2.083256931554568
 31
0
 12
0.9419417364738252
 22
1.916743068445432
 32
0
 13
0.9419417364738252
 23
1.916743068445432
 33
0
  0
MTEXT
  5
1AA
100
AcDbEntity
  8
DIM Green Canes
  6
CONTINUOUS
 62
    0
370
   -2
100
AcDbMText
 10
1.500275069807159
 20
2.475
 30
0
 40
0.75
 41
1.916666666666667
 71
    5
 72
    1
  1
0.44
  7
standard
210
0
220
0
230
1
 50
0
 73
    2
 44
1
  0
LINE
  5
1AB
100
AcDbEntity
  8
DIM Green Canes
  6
ByBlock
 62
    0
370
   -2
100
AcDbLine
 10
6.123031769111886e-018
 20
0.1
 11
5.857266711581377e-017
 21
2.05
  0
LINE
  5
1AC
100
AcDbEntity
  8
DIM Green Canes
  6
ByBlock
 62
    0
370
   -2
100
AcDbLine
 10
0.4419417364738251
 20
4.341941736473825
 11
0.4419417364738251
 21
1.95
  0
ENDBLK
  5
80
330
7E
100
AcDbEntity
  8
0
100
AcDbBlockEnd
  0
BLOCK
  5
82
330
81
100
AcDbEntity
  8
0
100
AcDbBlockBegin
  2
*D13
 70
    1
 10
0
 20
0
  3
*D13
  1

  0
LINE
  5
1AD
100
AcDbEntity
  8
DIM Green Canes
  6
ByBlock
 62
    0
370
   -2
100
AcDbLine
 10
-4
 20
0
 11
-4
 21
4.624999997500001
  0
SOLID
  5
1AE
100
AcDbEntity
  8
DIM Green Canes
  6
ByBlock
 62
    0
370
   -2
100
AcDbTrace
 10
-4
 20
0
 30
0
 11
-4.083256931554568
 21
0.5
 31
0
 12
-3.916743068445432
 22
0.5
 32
0
 13
-3.916743068445432
 23
0.5
 33
0
  0
SOLID
  5
1AF
100
AcDbEntity
  8
DIM Green Canes
  6
ByBlock
 62
    0
370
   -2
100
AcDbTrace
 10
-4
 20
4.624999997500001
 30
0
 11
-3.916743068445432
 21
4.124999997500001
 31
0
 12
-4.083256931554568
 22
4.124999997500001
 32
0
 13
-4.083256931554568
 23
4.124999997500001
 33
0
  0
MTEXT
  5
1B0
100
AcDbEntity
  8
DIM Green Canes
  6
CONTINUOUS
 62
    0
370
   -2
100
AcDbMText
 10
-4.475
 20
2.31249999875
 30
0
 40
0.75
 41
1.83333333333338
 71
    5
 72
    1
  1
4.62
  7
standard
210
0
220
0
230
1
 50
90
 73
    2
 44
1
  0
LINE
  5
1B1
100
AcDbEntity
  8
DIM Green Canes
  6
ByBlock
 62
    0
370
   -2
100
AcDbLine
 10
-0.1
 20
1.224606353822377e-017
 11
-4.05
 21
6.123031769111886e-018
  0
LINE
  5
1B2
100
AcDbEntity
  8
DIM Green Canes
  6
ByBlock
 62
    0
370
   -2
100
AcDbLine
 10
7.9
 20
4.6249999975
 11
-4.05
 21
4.624999997500001
  0
ENDBLK
  5
83
330
81
100
AcDbEntity
  8
0
100
AcDbBlockEnd
  0
BLOCK
  5
85
330
84
100
AcDbEntity
  8
0
100
AcDbBlockBegin
  2
*D91
 70
    1
 10
0
 20
0
  3
*D91
  1

  0
LINE
  5
1B3
100
AcDbEntity
  8
COORD Trees Tom Row A
  6
CONTINUOUS
 62
    7
370
    0
100
AcDbLine
 10
22
 20
13.86370330515627
 11
23
 21
15.86370330515627
  0
LINE
  5
1B4
100
AcDbEntity
  8
COORD Trees Tom Row A
  6
CONTINUOUS
 62
    7
370
    0
100
AcDbLine
 10
23
 20
15.86370330515627
 11
24
 21
15.86370330515627
  0
SOLID
  5
1B5
100
AcDbEntity
  8
COORD Trees Tom Row A
  6
CONTINUOUS
 62
    7
370
    0
100
AcDbTrace
 10
22
 20
13.86370330515627
 30
0
 11
22.14913953432836
 21
14.34815053236704
 31
0
 12
22.2980740611716
 22
14.27368326894542
 32
0
 13
22.2980740611716
 23
14.27368326894542
 33
0
  0
ENDBLK
  5
86
330
84
100
AcDbEntity
  8
0
100
AcDbBlockEnd
  0
BLOCK
  5
88
330
87
100
AcDbEntity
  8
0
100
AcDbBlockBegin
  2
*D17
 70
    1
 10
0
 20
0
  3
*D17
  1

  0
LINE
  5
1B6
100
AcDbEntity
  8
DIM Tom Trees Row B
  6
ByBlock
 62
    0
370
   -2
100
AcDbLine
 10
0
 20
-2
 11
7.379666339822029
 21
-2
  0
SOLID
  5
1B7
100
AcDbEntity
  8
DIM Tom Trees Row B
  6
ByBlock
 62
    0
370
   -2
100
AcDbTrace
 10
0
 20
-2
 30
0
 11
0.5
 21
-1.916743068445432
 31
0
 12
0.5
 22
-2.083256931554568
 32
0
 13
0.5
 23
-2.083256931554568
 33
0
  0
SOLID
  5
1B8
100
AcDbEntity
  8
DIM Tom Trees Row B
  6
ByBlock
 62
    0
370
   -2
100
AcDbTrace
 10
7.379666339822029
 20
-2
 30
0
 11
6.879666339822029
 21
-2.083256931554568
 31
0
 12
6.879666339822029
 22
-1.916743068445432
 32
0
 13
6.879666339822029
 23
-1.916743068445432
 33
0
  0
MTEXT
  5
1B9
100
AcDbEntity
  8
DIM Tom Trees Row B
  6
CONTINUOUS
 62
    0
370
   -2
100
AcDbMText
 10
3.689833169911014
 20
-1.525
 30
0
 40
0.75
 41
1.750000000000047
 71
    5
 72
    1
  1
7.38
  7
standard
210
0
220
0
230
1
 50
0
 73
    2
 44
1
  0
LINE
  5
1BA
100
AcDbEntity
  8
DIM Tom Trees Row B
  6
ByBlock
 62
    0
370
   -2
100
AcDbLine
 10
-1.836909530733566e-017
 20
-0.1
 11
-9.18454765366783e-018
 21
-2.05
  0
LINE
  5
1BB
100
AcDbEntity
  8
DIM Tom Trees Row B
  6
ByBlock
 62
    0
370
   -2
100
AcDbLine
 10
7.379666339822029
 20
8.16794919243112
 11
7.379666339822029
 21
-2.05
  0
ENDBLK
  5
89
330
87
100
AcDbEntity
  8
0
100
AcDbBlockEnd
  0
BLOCK
  5
8B
330
8A
100
AcDbEntity
  8
0
100
AcDbBlockBegin
  2
*D55
 70
    1
 10
0
 20
0
  3
*D55
  1

  0
LINE
  5
1BC
100
AcDbEntity
  8
COORD Trees Tom Row B
  6
CONTINUOUS
 62
    7
370
    0
100
AcDbLine
 10
14.40424588727485
 20
15.29252873988394
 11
15
 21
16
  0
LINE
  5
1BD
100
AcDbEntity
  8
COORD Trees Tom Row B
  6
CONTINUOUS
 62
    7
370
    0
100
AcDbLine
 10
15
 20
16
 11
16
 21
16
  0
SOLID
  5
1BE
100
AcDbEntity
  8
COORD Trees Tom Row B
  6
CONTINUOUS
 62
    7
370
    0
100
AcDbTrace
 10
14.40424588727485
 20
15.29252873988394
 30
0
 11
14.66262557640138
 21
15.72861548916527
 31
0
 12
14.78999488477625
 22
15.62135913321544
 32
0
 13
14.78999488477625
 23
15.62135913321544
 33
0
  0
ENDBLK
  5
8C
330
8A
100
AcDbEntity
  8
0
100
AcDbBlockEnd
  0
BLOCK
  5
8E
330
8D
100
AcDbEntity
  8
0
100
AcDbBlockBegin
  2
*D50
 70
    1
 10
0
 20
0
  3
*D50
  1

  0
LINE
  5
1BF
100
AcDbEntity
  8
COORD Trees Tom Row B
  6
CONTINUOUS
 62
    7
370
    0
100
AcDbLine
 10
40.62033366017796
 20
8.267949192431127
 11
42
 21
10
  0
LINE
  5
1C0
100
AcDbEntity
  8
COORD Trees Tom Row B
  6
CONTINUOUS
 62
    7
370
    0
100
AcDbLine
 10
42
 20
10
 11
43
 21
10
  0
LINE
  5
1C1
100
AcDbEntity
  8
COORD Trees Tom Row B
  6
CONTINUOUS
 62
    7
370
    0
100
AcDbLine
 10
43
 20
10
 11
43
 21
10
  0
LINE
  5
1C2
100
AcDbEntity
  8
COORD Trees Tom Row B
  6
CONTINUOUS
 62
    7
370
    0
100
AcDbLine
 10
43
 20
10
 11
43
 21
10
  0
SOLID
  5
1C3
100
AcDbEntity
  8
COORD Trees Tom Row B
  6
CONTINUOUS
 62
    7
370
    0
100
AcDbTrace
 10
40.62033366017796
 20
8.267949192431127
 30
0
 11
40.86673577306716
 21
8.71091388110915
 31
0
 12
40.99698011169723
 22
8.607167657744895
 32
0
 13
40.99698011169723
 23
8.607167657744895
 33
0
  0
ENDBLK
  5
8F
330
8D
100
AcDbEntity
  8
0
100
AcDbBlockEnd
  0
BLOCK
  5
91
330
90
100
AcDbEntity
  8
0
100
AcDbBlockBegin
  2
*D19
 70
    1
 10
0
 20
0
  3
*D19
  1

  0
LINE
  5
1C4
100
AcDbEntity
  8
DIM Tom Trees Row A
  6
ByBlock
 62
    0
370
   -2
100
AcDbLine
 10
0
 20
-4
 11
11.84376795495978
 21
-4
  0
SOLID
  5
1C5
100
AcDbEntity
  8
DIM Tom Trees Row A
  6
ByBlock
 62
    0
370
   -2
100
AcDbTrace
 10
0
 20
-4
 30
0
 11
0.5
 21
-3.916743068445432
 31
0
 12
0.5
 22
-4.083256931554568
 32
0
 13
0.5
 23
-4.083256931554568
 33
0
  0
SOLID
  5
1C6
100
AcDbEntity
  8
DIM Tom Trees Row A
  6
ByBlock
 62
    0
370
   -2
100
AcDbTrace
 10
11.84376795495978
 20
-4
 30
0
 11
11.34376795495978
 21
-4.083256931554568
 31
0
 12
11.34376795495978
 22
-3.916743068445432
 32
0
 13
11.34376795495978
 23
-3.916743068445432
 33
0
  0
MTEXT
  5
1C7
100
AcDbEntity
  8
DIM Tom Trees Row A
  6
CONTINUOUS
 62
    0
370
   -2
100
AcDbMText
 10
5.921883977479893
 20
-3.525
 30
0
 40
0.75
 41
2.083333333333333
 71
    5
 72
    1
  1
11.84
  7
standard
210
0
220
0
230
1
 50
0
 73
    2
 44
1
  0
LINE
  5
1C8
100
AcDbEntity
  8
DIM Tom Trees Row A
  6
ByBlock
 62
    0
370
   -2
100
AcDbLine
 10
-1.836909530733566e-017
 20
-0.1
 11
-9.18454765366783e-018
 21
-4.05
  0
LINE
  5
1C9
100
AcDbEntity
  8
DIM Tom Trees Row A
  6
ByBlock
 62
    0
370
   -2
100
AcDbLine
 10
11.84376795495978
 20
7.899999999999996
 11
11.84376795495978
 21
-4.05
  0
ENDBLK
  5
92
330
90
100
AcDbEntity
  8
0
100
AcDbBlockEnd
  0
BLOCK
  5
94
330
93
100
AcDbEntity
  8
0
100
AcDbBlockBegin
  2
*D64
 70
    1
 10
0
 20
0
  3
*D64
  1

  0
LINE
  5
1CA
100
AcDbEntity
  8
COORD Trees Big
  6
CONTINUOUS
 62
    7
370
    0
100
AcDbLine
 10
24
 20
8
 11
25
 21
10
  0
LINE
  5
1CB
100
AcDbEntity
  8
COORD Trees Big
  6
CONTINUOUS
 62
    7
370
    0
100
AcDbLine
 10
25
 20
10
 11
26
 21
10
  0
SOLID
  5
1CC
100
AcDbEntity
  8
COORD Trees Big
  6
CONTINUOUS
 62
    7
370
    0
100
AcDbTrace
 10
24
 20
8
 30
0
 11
24.14913953432836
 21
8.48444722721077
 31
0
 12
24.2980740611716
 22
8.409979963789146
 32
0
 13
24.2980740611716
 23
8.409979963789146
 33
0
  0
ENDBLK
  5
95
330
93
100
AcDbEntity
  8
0
100
AcDbBlockEnd
  0
BLOCK
  5
97
330
96
100
AcDbEntity
  8
0
100
AcDbBlockBegin
  2
*D52
 70
    1
 10
0
 20
0
  3
*D52
  1

  0
LINE
  5
1CD
100
AcDbEntity
  8
COORD Trees Tom Row B
  6
CONTINUOUS
 62
    7
370
    0
100
AcDbLine
 10
33.5958
 20
15.29250330515627
 11
35
 21
16
  0
LINE
  5
1CE
100
AcDbEntity
  8
COORD Trees Tom Row B
  6
CONTINUOUS
 62
    7
370
    0
100
AcDbLine
 10
35
 20
16
 11
36
 21
16
  0
SOLID
  5
1CF
100
AcDbEntity
  8
COORD Trees Tom Row B
  6
CONTINUOUS
 62
    7
370
    0
100
AcDbTrace
 10
33.5958
 20
15.29250330515627
 30
0
 11
34.00486298391236
 21
15.59183454616628
 31
0
 12
34.07978710578124
 22
15.44312932578144
 32
0
 13
34.07978710578124
 23
15.44312932578144
 33
0
  0
ENDBLK
  5
98
330
96
100
AcDbEntity
  8
0
100
AcDbBlockEnd
  0
BLOCK
  5
9A
330
99
100
AcDbEntity
  8
0
100
AcDbBlockBegin
  2
*D86
 70
    1
 10
0
 20
0
  3
*D86
  1

  0
LINE
  5
1D0
100
AcDbEntity
  8
LINE Origin
  6
CONTINUOUS
 62
    7
370
    0
100
AcDbLine
 10
0
 20
0
 11
1
 21
1
  0
LINE
  5
1D1
100
AcDbEntity
  8
LINE Origin
  6
CONTINUOUS
 62
    7
370
    0
100
AcDbLine
 10
1
 20
1
 11
2
 21
1
  0
SOLID
  5
1D2
100
AcDbEntity
  8
LINE Origin
  6
CONTINUOUS
 62
    7
370
    0
100
AcDbTrace
 10
0
 20
0
 30
0
 11
0.2946818497102545
 21
0.4124249314762931
 31
0
 12
0.4124249314762931
 22
0.2946818497102544
 32
0
 13
0.4124249314762931
 23
0.2946818497102544
 33
0
  0
ENDBLK
  5
9B
330
99
100
AcDbEntity
  8
0
100
AcDbBlockEnd
  0
BLOCK
  5
9D
330
9C
100
AcDbEntity
  8
0
100
AcDbBlockBegin
  2
*D76
 70
    1
 10
0
 20
0
  3
*D76
  1

  0
LINE
  5
1D3
100
AcDbEntity
  8
COORD Canes Red
  6
CONTINUOUS
 62
    7
370
    0
100
AcDbLine
 10
4
 20
4.6249999975
 11
5
 21
3
  0
LINE
  5
1D4
100
AcDbEntity
  8
COORD Canes Red
  6
CONTINUOUS
 62
    7
370
    0
100
AcDbLine
 10
5
 20
3
 11
6
 21
3
  0
SOLID
  5
1D5
100
AcDbEntity
  8
COORD Canes Red
  6
CONTINUOUS
 62
    7
370
    0
100
AcDbTrace
 10
4
 20
4.6249999975
 30
0
 11
4.332955171276367
 21
4.242805582872827
 31
0
 12
4.191142254972797
 22
4.155536095782524
 32
0
 13
4.191142254972797
 23
4.155536095782524
 33
0
  0
ENDBLK
  5
9E
330
9C
100
AcDbEntity
  8
0
100
AcDbBlockEnd
  0
BLOCK
  5
A0
330
9F
100
AcDbEntity
  8
0
100
AcDbBlockBegin
  2
*D84
 70
    1
 10
0
 20
0
  3
*D84
  1

  0
LINE
  5
1D6
100
AcDbEntity
  8
COORD Canes Green
  6
CONTINUOUS
 62
    7
370
    0
100
AcDbLine
 10
0.6249999974999998
 20
20
 11
1
 21
21
  0
LINE
  5
1D7
100
AcDbEntity
  8
COORD Canes Green
  6
CONTINUOUS
 62
    7
370
    0
100
AcDbLine
 10
1
 20
21
 11
2
 21
21
  0
SOLID
  5
1D8
100
AcDbEntity
  8
COORD Canes Green
  6
CONTINUOUS
 62
    7
370
    0
100
AcDbTrace
 10
0.6249999974999998
 20
20
 30
0
 11
0.7226058251349723
 21
20.49739804891412
 31
0
 12
0.8785176135056476
 22
20.43893112788534
 32
0
 13
0.8785176135056476
 23
20.43893112788534
 33
0
  0
ENDBLK
  5
A1
330
9F
100
AcDbEntity
  8
0
100
AcDbBlockEnd
  0
BLOCK
  5
A3
330
A2
100
AcDbEntity
  8
0
100
AcDbBlockBegin
  2
*D12
 70
    1
 10
0
 20
0
  3
*D12
  1

  0
LINE
  5
1D9
100
AcDbEntity
  8
DIM Green Canes
  6
ByBlock
 62
    0
370
   -2
100
AcDbLine
 10
-2
 20
0
 11
-2
 21
4.441941736473825
  0
SOLID
  5
1DA
100
AcDbEntity
  8
DIM Green Canes
  6
ByBlock
 62
    0
370
   -2
100
AcDbTrace
 10
-2
 20
0
 30
0
 11
-2.083256931554569
 21
0.5
 31
0
 12
-1.916743068445432
 22
0.5
 32
0
 13
-1.916743068445432
 23
0.5
 33
0
  0
SOLID
  5
1DB
100
AcDbEntity
  8
DIM Green Canes
  6
ByBlock
 62
    0
370
   -2
100
AcDbTrace
 10
-2
 20
4.441941736473825
 30
0
 11
-1.916743068445432
 21
3.941941736473825
 31
0
 12
-2.083256931554568
 22
3.941941736473825
 32
0
 13
-2.083256931554568
 23
3.941941736473825
 33
0
  0
MTEXT
  5
1DC
100
AcDbEntity
  8
DIM Green Canes
  6
CONTINUOUS
 62
    0
370
   -2
100
AcDbMText
 10
-2.475
 20
2.220970868236912
 30
0
 40
0.75
 41
2
 71
    5
 72
    1
  1
4.44
  7
standard
210
0
220
0
230
1
 50
90
 73
    2
 44
1
  0
LINE
  5
1DD
100
AcDbEntity
  8
DIM Green Canes
  6
ByBlock
 62
    0
370
   -2
100
AcDbLine
 10
-0.1
 20
1.224606353822377e-017
 11
-2.05
 21
6.123031769111886e-018
  0
LINE
  5
1DE
100
AcDbEntity
  8
DIM Green Canes
  6
ByBlock
 62
    0
370
   -2
100
AcDbLine
 10
0.3419417364738251
 20
4.441941736473825
 11
-2.05
 21
4.441941736473825
  0
ENDBLK
  5
A4
330
A2
100
AcDbEntity
  8
0
100
AcDbBlockEnd
  0
BLOCK
  5
A6
330
A5
100
AcDbEntity
  8
0
100
AcDbBlockBegin
  2
*D29
 70
    1
 10
0
 20
0
  3
*D29
  1

  0
LINE
  5
1DF
100
AcDbEntity
  8
DIM Tom Trees Row A
  6
ByBlock
 62
    0
370
   -2
100
AcDbLine
 10
0
 20
-14
 11
33.3278
 21
-14
  0
SOLID
  5
1E0
100
AcDbEntity
  8
DIM Tom Trees Row A
  6
ByBlock
 62
    0
370
   -2
100
AcDbTrace
 10
0
 20
-14
 30
0
 11
0.5
 21
-13.91674306844543
 31
0
 12
0.5
 22
-14.08325693155457
 32
0
 13
0.5
 23
-14.08325693155457
 33
0
  0
SOLID
  5
1E1
100
AcDbEntity
  8
DIM Tom Trees Row A
  6
ByBlock
 62
    0
370
   -2
100
AcDbTrace
 10
33.3278
 20
-14
 30
0
 11
32.8278
 21
-14.08325693155457
 31
0
 12
32.8278
 22
-13.91674306844543
 32
0
 13
32.8278
 23
-13.91674306844543
 33
0
  0
MTEXT
  5
1E2
100
AcDbEntity
  8
DIM Tom Trees Row A
  6
CONTINUOUS
 62
    0
370
   -2
100
AcDbMText
 10
16.66389999999999
 20
-13.525
 30
0
 40
0.75
 41
2.333333333333519
 71
    5
 72
    1
  1
33.33
  7
standard
210
0
220
0
230
1
 50
0
 73
    2
 44
1
  0
LINE
  5
1E3
100
AcDbEntity
  8
DIM Tom Trees Row A
  6
ByBlock
 62
    0
370
   -2
100
AcDbLine
 10
-1.836909530733566e-017
 20
-0.1
 11
-9.18454765366783e-018
 21
-14.05
  0
LINE
  5
1E4
100
AcDbEntity
  8
DIM Tom Trees Row A
  6
ByBlock
 62
    0
370
   -2
100
AcDbLine
 10
33.3278
 20
10.72840330515628
 11
33.3278
 21
-14.05
  0
ENDBLK
  5
A7
330
A5
100
AcDbEntity
  8
0
100
AcDbBlockEnd
  0
BLOCK
  5
A9
330
A8
100
AcDbEntity
  8
0
100
AcDbBlockBegin
  2
*D24
 70
    1
 10
0
 20
0
  3
*D24
  1

  0
LINE
  5
1E5
100
AcDbEntity
  8
DIM Tom Trees Row A
  6
ByBlock
 62
    0
370
   -2
100
AcDbLine
 10
0
 20
-9
 11
22
 21
-9
  0
SOLID
  5
1E6
100
AcDbEntity
  8
DIM Tom Trees Row A
  6
ByBlock
 62
    0
370
   -2
100
AcDbTrace
 10
0
 20
-9
 30
0
 11
0.5
 21
-8.916743068445433
 31
0
 12
0.5
 22
-9.083256931554569
 32
0
 13
0.5
 23
-9.083256931554569
 33
0
  0
SOLID
  5
1E7
100
AcDbEntity
  8
DIM Tom Trees Row A
  6
ByBlock
 62
    0
370
   -2
100
AcDbTrace
 10
22
 20
-9
 30
0
 11
21.5
 21
-9.083256931554567
 31
0
 12
21.5
 22
-8.916743068445433
 32
0
 13
21.5
 23
-8.916743068445433
 33
0
  0
MTEXT
  5
1E8
100
AcDbEntity
  8
DIM Tom Trees Row A
  6
CONTINUOUS
 62
    0
370
   -2
100
AcDbMText
 10
11
 20
-8.525
 30
0
 40
0.75
 41
0.9166666666666666
 71
    5
 72
    1
  1
22
  7
standard
210
0
220
0
230
1
 50
0
 73
    2
 44
1
  0
LINE
  5
1E9
100
AcDbEntity
  8
DIM Tom Trees Row A
  6
ByBlock
 62
    0
370
   -2
100
AcDbLine
 10
-1.836909530733566e-017
 20
-0.1
 11
-9.18454765366783e-018
 21
-9.050000000000001
  0
LINE
  5
1EA
100
AcDbEntity
  8
DIM Tom Trees Row A
  6
ByBlock
 62
    0
370
   -2
100
AcDbLine
 10
22
 20
13.76370330515627
 11
22
 21
-9.050000000000001
  0
ENDBLK
  5
AA
330
A8
100
AcDbEntity
  8
0
100
AcDbBlockEnd
  0
BLOCK
  5
AC
330
AB
100
AcDbEntity
  8
0
100
AcDbBlockBegin
  2
*D21
 70
    1
 10
0
 20
0
  3
*D21
  1

  0
LINE
  5
1EB
100
AcDbEntity
  8
DIM Tom Trees Row A
  6
ByBlock
 62
    0
370
   -2
100
AcDbLine
 10
-1.77635683940025e-015
 20
-6
 11
14.67219507970598
 21
-6
  0
SOLID
  5
1EC
100
AcDbEntity
  8
DIM Tom Trees Row A
  6
ByBlock
 62
    0
370
   -2
100
AcDbTrace
 10
-1.77635683940025e-015
 20
-6
 30
0
 11
0.4999999999999982
 21
-5.916743068445432
 31
0
 12
0.4999999999999982
 22
-6.083256931554568
 32
0
 13
0.4999999999999982
 23
-6.083256931554568
 33
0
  0
SOLID
  5
1ED
100
AcDbEntity
  8
DIM Tom Trees Row A
  6
ByBlock
 62
    0
370
   -2
100
AcDbTrace
 10
14.67219507970598
 20
-6
 30
0
 11
14.17219507970598
 21
-6.083256931554568
 31
0
 12
14.17219507970598
 22
-5.916743068445432
 32
0
 13
14.17219507970598
 23
-5.916743068445432
 33
0
  0
MTEXT
  5
1EE
100
AcDbEntity
  8
DIM Tom Trees Row A
  6
CONTINUOUS
 62
    0
370
   -2
100
AcDbMText
 10
7.336097539852989
 20
-5.525
 30
0
 40
0.75
 41
2.250000000000046
 71
    5
 72
    1
  1
14.67
  7
standard
210
0
220
0
230
1
 50
0
 73
    2
 44
1
  0
LINE
  5
1EF
100
AcDbEntity
  8
DIM Tom Trees Row A
  6
ByBlock
 62
    0
370
   -2
100
AcDbLine
 10
-1.836909530733566e-017
 20
-0.1
 11
-1.785541387053918e-015
 21
-6.05
  0
LINE
  5
1F0
100
AcDbEntity
  8
DIM Tom Trees Row A
  6
ByBlock
 62
    0
370
   -2
100
AcDbLine
 10
14.67219507970598
 20
10.72842712474619
 11
14.67219507970598
 21
-6.05
  0
ENDBLK
  5
AD
330
AB
100
AcDbEntity
  8
0
100
AcDbBlockEnd
  0
BLOCK
  5
AF
330
AE
100
AcDbEntity
  8
0
100
AcDbBlockBegin
  2
*D62
 70
    1
 10
0
 20
0
  3
*D62
  1

  0
LINE
  5
1F1
100
AcDbEntity
  8
COORD Trees Tom Row A
  6
CONTINUOUS
 62
    7
370
    0
100
AcDbLine
 10
14.67219507970598
 20
10.82842712474619
 11
16
 21
12
  0
LINE
  5
1F2
100
AcDbEntity
  8
COORD Trees Tom Row A
  6
CONTINUOUS
 62
    7
370
    0
100
AcDbLine
 10
16
 20
12
 11
17
 21
12
  0
SOLID
  5
1F3
100
AcDbEntity
  8
COORD Trees Tom Row A
  6
CONTINUOUS
 62
    7
370
    0
100
AcDbTrace
 10
14.67219507970598
 20
10.82842712474619
 30
0
 11
14.99203270067512
 21
11.22166447402101
 31
0
 12
15.10220083373315
 22
11.09680515692358
 32
0
 13
15.10220083373315
 23
11.09680515692358
 33
0
  0
ENDBLK
  5
B0
330
AE
100
AcDbEntity
  8
0
100
AcDbBlockEnd
  0
BLOCK
  5
B2
330
B1
100
AcDbEntity
  8
0
100
AcDbBlockBegin
  2
*D14
 70
    1
 10
0
 20
0
  3
*D14
  1

  0
LINE
  5
1F4
100
AcDbEntity
  8
DIM Red Canes
  6
ByBlock
 62
    0
370
   -2
100
AcDbLine
 10
-3
 20
0
 11
-3
 21
4.6249999975
  0
SOLID
  5
1F5
100
AcDbEntity
  8
DIM Red Canes
  6
ByBlock
 62
    0
370
   -2
100
AcDbTrace
 10
-3
 20
0
 30
0
 11
-3.083256931554569
 21
0.5
 31
0
 12
-2.916743068445432
 22
0.5
 32
0
 13
-2.916743068445432
 23
0.5
 33
0
  0
SOLID
  5
1F6
100
AcDbEntity
  8
DIM Red Canes
  6
ByBlock
 62
    0
370
   -2
100
AcDbTrace
 10
-3
 20
4.6249999975
 30
0
 11
-2.916743068445432
 21
4.1249999975
 31
0
 12
-3.083256931554568
 22
4.1249999975
 32
0
 13
-3.083256931554568
 23
4.1249999975
 33
0
  0
MTEXT
  5
1F7
100
AcDbEntity
  8
DIM Red Canes
  6
CONTINUOUS
 62
    0
370
   -2
100
AcDbMText
 10
-3.475
 20
2.31249999875
 30
0
 40
0.75
 41
1.83333333333338
 71
    5
 72
    1
  1
4.62
  7
standard
210
0
220
0
230
1
 50
90
 73
    2
 44
1
  0
LINE
  5
1F8
100
AcDbEntity
  8
DIM Red Canes
  6
ByBlock
 62
    0
370
   -2
100
AcDbLine
 10
-0.1
 20
1.224606353822377e-017
 11
-3.05
 21
6.123031769111886e-018
  0
LINE
  5
1F9
100
AcDbEntity
  8
DIM Red Canes
  6
ByBlock
 62
    0
370
   -2
100
AcDbLine
 10
3.9
 20
4.6249999975
 11
-3.05
 21
4.6249999975
  0
ENDBLK
  5
B3
330
B1
100
AcDbEntity
  8
0
100
AcDbBlockEnd
  0
BLOCK
  5
B5
330
B4
100
AcDbEntity
  8
0
100
AcDbBlockBegin
  2
*D81
 70
    1
 10
0
 20
0
  3
*D81
  1

  0
LINE
  5
1FA
100
AcDbEntity
  8
COORD Canes Red
  6
CONTINUOUS
 62
    7
370
    0
100
AcDbLine
 10
0.6249999974999998
 20
8
 11
1
 21
9
  0
LINE
  5
1FB
100
AcDbEntity
  8
COORD Canes Red
  6
CONTINUOUS
 62
    7
370
    0
100
AcDbLine
 10
1
 20
9
 11
2
 21
9
  0
SOLID
  5
1FC
100
AcDbEntity
  8
COORD Canes Red
  6
CONTINUOUS
 62
    7
370
    0
100
AcDbTrace
 10
0.6249999974999998
 20
8
 30
0
 11
0.7226058251349723
 21
8.497398048914121
 31
0
 12
0.8785176135056476
 22
8.438931127885338
 32
0
 13
0.8785176135056476
 23
8.438931127885338
 33
0
  0
ENDBLK
  5
B6
330
B4
100
AcDbEntity
  8
0
100
AcDbBlockEnd
  0
BLOCK
  5
B8
330
B7
100
AcDbEntity
  8
0
100
AcDbBlockBegin
  2
*D83
 70
    1
 10
0
 20
0
  3
*D83
  1

  0
LINE
  5
1FD
100
AcDbEntity
  8
COORD Canes Red
  6
CONTINUOUS
 62
    7
370
    0
100
AcDbLine
 10
0.6249999974999998
 20
24
 11
1
 21
25
  0
LINE
  5
1FE
100
AcDbEntity
  8
COORD Canes Red
  6
CONTINUOUS
 62
    7
370
    0
100
AcDbLine
 10
1
 20
25
 11
2
 21
25
  0
SOLID
  5
1FF
100
AcDbEntity
  8
COORD Canes Red
  6
CONTINUOUS
 62
    7
370
    0
100
AcDbTrace
 10
0.6249999974999998
 20
24
 30
0
 11
0.7226058251349723
 21
24.49739804891412
 31
0
 12
0.8785176135056476
 22
24.43893112788534
 32
0
 13
0.8785176135056476
 23
24.43893112788534
 33
0
  0
ENDBLK
  5
B9
330
B7
100
AcDbEntity
  8
0
100
AcDbBlockEnd
  0
BLOCK
  5
BB
330
BA
100
AcDbEntity
  8
0
100
AcDbBlockBegin
  2
*D9
 70
    1
 10
0
 20
0
  3
*D9
  1

  0
LINE
  5
200
100
AcDbEntity
  8
DIM Green Canes
  6
ByBlock
 62
    0
370
   -2
100
AcDbLine
 10
32
 20
-8.999999999999998
 11
0
 21
-8.999999999999998
  0
SOLID
  5
201
100
AcDbEntity
  8
DIM Green Canes
  6
ByBlock
 62
    0
370
   -2
100
AcDbTrace
 10
32
 20
-8.999999999999998
 30
0
 11
31.5
 21
-9.083256931554565
 31
0
 12
31.5
 22
-8.916743068445431
 32
0
 13
31.5
 23
-8.916743068445431
 33
0
  0
SOLID
  5
202
100
AcDbEntity
  8
DIM Green Canes
  6
ByBlock
 62
    0
370
   -2
100
AcDbTrace
 10
0
 20
-8.999999999999998
 30
0
 11
0.5
 21
-8.916743068445431
 31
0
 12
0.5
 22
-9.083256931554565
 32
0
 13
0.5
 23
-9.083256931554565
 33
0
  0
MTEXT
  5
203
100
AcDbEntity
  8
DIM Green Canes
  6
CONTINUOUS
 62
    0
370
   -2
100
AcDbMText
 10
16
 20
-8.524999999999999
 30
0
 40
0.75
 41
0.9166666666667131
 71
    5
 72
    1
  1
32
  7
standard
210
0
220
0
230
1
 50
0
 73
    2
 44
1
  0
LINE
  5
204
100
AcDbEntity
  8
DIM Green Canes
  6
ByBlock
 62
    0
370
   -2
100
AcDbLine
 10
32
 20
3.9
 11
32
 21
-9.049999999999999
  0
LINE
  5
205
100
AcDbEntity
  8
DIM Green Canes
  6
ByBlock
 62
    0
370
   -2
100
AcDbLine
 10
-1.836909530733566e-017
 20
-0.1
 11
-9.18454765366783e-018
 21
-9.049999999999999
  0
ENDBLK
  5
BC
330
BA
100
AcDbEntity
  8
0
100
AcDbBlockEnd
  0
BLOCK
  5
BE
330
BD
100
AcDbEntity
  8
0
100
AcDbBlockBegin
  2
*D71
 70
    1
 10
0
 20
0
  3
*D71
  1

  0
LINE
  5
206
100
AcDbEntity
  8
COORD Canes Green
  6
CONTINUOUS
 62
    7
370
    0
100
AcDbLine
 10
8
 20
4.6249999975
 11
9
 21
6
  0
LINE
  5
207
100
AcDbEntity
  8
COORD Canes Green
  6
CONTINUOUS
 62
    7
370
    0
100
AcDbLine
 10
9
 20
6
 11
10
 21
6
  0
SOLID
  5
208
100
AcDbEntity
  8
COORD Canes Green
  6
CONTINUOUS
 62
    7
370
    0
100
AcDbTrace
 10
8
 20
4.6249999975
 30
0
 11
8.226752963628908
 21
5.07833741062337
 31
0
 12
8.361418733346691
 22
4.980398669188507
 32
0
 13
8.361418733346691
 23
4.980398669188507
 33
0
  0
ENDBLK
  5
BF
330
BD
100
AcDbEntity
  8
0
100
AcDbBlockEnd
  0
BLOCK
  5
C1
330
C0
100
AcDbEntity
  8
0
100
AcDbBlockBegin
  2
*D26
 70
    1
 10
0
 20
0
  3
*D26
  1

  0
LINE
  5
209
100
AcDbEntity
  8
DIM Tom Trees Row A
  6
ByBlock
 62
    0
370
   -2
100
AcDbLine
 10
0
 20
-11
 11
26
 21
-11
  0
SOLID
  5
20A
100
AcDbEntity
  8
DIM Tom Trees Row A
  6
ByBlock
 62
    0
370
   -2
100
AcDbTrace
 10
0
 20
-11
 30
0
 11
0.5
 21
-10.91674306844543
 31
0
 12
0.5
 22
-11.08325693155457
 32
0
 13
0.5
 23
-11.08325693155457
 33
0
  0
SOLID
  5
20B
100
AcDbEntity
  8
DIM Tom Trees Row A
  6
ByBlock
 62
    0
370
   -2
100
AcDbTrace
 10
26
 20
-11
 30
0
 11
25.5
 21
-11.08325693155457
 31
0
 12
25.5
 22
-10.91674306844543
 32
0
 13
25.5
 23
-10.91674306844543
 33
0
  0
MTEXT
  5
20C
100
AcDbEntity
  8
DIM Tom Trees Row A
  6
CONTINUOUS
 62
    0
370
   -2
100
AcDbMText
 10
13
 20
-10.525
 30
0
 40
0.75
 41
0.9166666666667131
 71
    5
 72
    1
  1
26
  7
standard
210
0
220
0
230
1
 50
0
 73
    2
 44
1
  0
LINE
  5
20D
100
AcDbEntity
  8
DIM Tom Trees Row A
  6
ByBlock
 62
    0
370
   -2
100
AcDbLine
 10
-1.836909530733566e-017
 20
-0.1
 11
-9.18454765366783e-018
 21
-11.05
  0
LINE
  5
20E
100
AcDbEntity
  8
DIM Tom Trees Row A
  6
ByBlock
 62
    0
370
   -2
100
AcDbLine
 10
26
 20
13.76370330515627
 11
26
 21
-11.05
  0
ENDBLK
  5
C2
330
C0
100
AcDbEntity
  8
0
100
AcDbBlockEnd
  0
BLOCK
  5
C4
330
C3
100
AcDbEntity
  8
0
100
AcDbBlockBegin
  2
*D30
 70
    1
 10
0
 20
0
  3
*D30
  1

  0
LINE
  5
20F
100
AcDbEntity
  8
DIM Tom Trees Row B
  6
ByBlock
 62
    0
370
   -2
100
AcDbLine
 10
0
 20
-15
 11
33.5958
 21
-15
  0
SOLID
  5
210
100
AcDbEntity
  8
DIM Tom Trees Row B
  6
ByBlock
 62
    0
370
   -2
100
AcDbTrace
 10
0
 20
-15
 30
0
 11
0.5
 21
-14.91674306844543
 31
0
 12
0.5
 22
-15.08325693155457
 32
0
 13
0.5
 23
-15.08325693155457
 33
0
  0
SOLID
  5
211
100
AcDbEntity
  8
DIM Tom Trees Row B
  6
ByBlock
 62
    0
370
   -2
100
AcDbTrace
 10
33.5958
 20
-15
 30
0
 11
33.0958
 21
-15.08325693155457
 31
0
 12
33.0958
 22
-14.91674306844543
 32
0
 13
33.0958
 23
-14.91674306844543
 33
0
  0
MTEXT
  5
212
100
AcDbEntity
  8
DIM Tom Trees Row B
  6
CONTINUOUS
 62
    0
370
   -2
100
AcDbMText
 10
16.7979
 20
-14.525
 30
0
 40
0.75
 41
1.750000000000139
 71
    5
 72
    1
  1
33.6
  7
standard
210
0
220
0
230
1
 50
0
 73
    2
 44
1
  0
LINE
  5
213
100
AcDbEntity
  8
DIM Tom Trees Row B
  6
ByBlock
 62
    0
370
   -2
100
AcDbLine
 10
-1.836909530733566e-017
 20
-0.1
 11
-9.18454765366783e-018
 21
-15.05
  0
LINE
  5
214
100
AcDbEntity
  8
DIM Tom Trees Row B
  6
ByBlock
 62
    0
370
   -2
100
AcDbLine
 10
33.5958
 20
15.19250330515627
 11
33.5958
 21
-15.05
  0
ENDBLK
  5
C5
330
C3
100
AcDbEntity
  8
0
100
AcDbBlockEnd
  0
BLOCK
  5
C7
330
C6
100
AcDbEntity
  8
0
100
AcDbBlockBegin
  2
*D16
 70
    1
 10
0
 20
0
  3
*D16
  1

  0
LINE
  5
215
100
AcDbEntity
  8
DIM Green Canes
  6
ByBlock
 62
    0
370
   -2
100
AcDbLine
 10
-0.9999999999999999
 20
10
 11
1.6249999975
 21
10
  0
SOLID
  5
216
100
AcDbEntity
  8
DIM Green Canes
  6
ByBlock
 62
    0
370
   -2
100
AcDbTrace
 10
1.110223024625157e-016
 20
10
 30
0
 11
-0.4999999999999999
 21
9.916743068445433
 31
0
 12
-0.4999999999999999
 22
10.08325693155457
 32
0
 13
-0.4999999999999999
 23
10.08325693155457
 33
0
  0
SOLID
  5
217
100
AcDbEntity
  8
DIM Green Canes
  6
ByBlock
 62
    0
370
   -2
100
AcDbTrace
 10
0.6249999974999998
 20
10
 30
0
 11
1.1249999975
 21
10.08325693155457
 31
0
 12
1.1249999975
 22
9.916743068445431
 32
0
 13
1.1249999975
 23
9.916743068445431
 33
0
  0
MTEXT
  5
218
100
AcDbEntity
  8
DIM Green Canes
  6
CONTINUOUS
 62
    0
370
   -2
100
AcDbMText
 10
1.599999997500023
 20
10.475
 30
0
 40
0.75
 41
1.750000000000047
 71
    5
 72
    1
  1
0.62
  7
standard
210
0
220
0
230
1
 50
0
 73
    2
 44
1
  0
LINE
  5
219
100
AcDbEntity
  8
DIM Green Canes
  6
ByBlock
 62
    0
370
   -2
100
AcDbLine
 10
6.123031769111886e-018
 20
0.1
 11
1.140838183470716e-016
 21
10.05
  0
LINE
  5
21A
100
AcDbEntity
  8
DIM Green Canes
  6
ByBlock
 62
    0
370
   -2
100
AcDbLine
 10
0.6249999974999998
 20
11.9
 11
0.6249999974999998
 21
9.949999999999999
  0
ENDBLK
  5
C8
330
C6
100
AcDbEntity
  8
0
100
AcDbBlockEnd
  0
BLOCK
  5
CA
330
C9
100
AcDbEntity
  8
0
100
AcDbBlockBegin
  2
*D2
 70
    1
 10
0
 20
0
  3
*D2
  1

  0
LINE
  5
21B
100
AcDbEntity
  8
DIM Red Canes
  6
ByBlock
 62
    0
370
   -2
100
AcDbLine
 10
0
 20
-4
 11
12
 21
-4
  0
SOLID
  5
21C
100
AcDbEntity
  8
DIM Red Canes
  6
ByBlock
 62
    0
370
   -2
100
AcDbTrace
 10
0
 20
-4
 30
0
 11
0.5
 21
-3.916743068445432
 31
0
 12
0.5
 22
-4.083256931554568
 32
0
 13
0.5
 23
-4.083256931554568
 33
0
  0
SOLID
  5
21D
100
AcDbEntity
  8
DIM Red Canes
  6
ByBlock
 62
    0
370
   -2
100
AcDbTrace
 10
12
 20
-4
 30
0
 11
11.5
 21
-4.083256931554568
 31
0
 12
11.5
 22
-3.916743068445432
 32
0
 13
11.5
 23
-3.916743068445432
 33
0
  0
MTEXT
  5
21E
100
AcDbEntity
  8
DIM Red Canes
  6
CONTINUOUS
 62
    0
370
   -2
100
AcDbMText
 10
6
 20
-3.525
 30
0
 40
0.75
 41
0.75
 71
    5
 72
    1
  1
12
  7
standard
210
0
220
0
230
1
 50
0
 73
    2
 44
1
  0
LINE
  5
21F
100
AcDbEntity
  8
DIM Red Canes
  6
ByBlock
 62
    0
370
   -2
100
AcDbLine
 10
-1.836909530733566e-017
 20
-0.1
 11
-9.18454765366783e-018
 21
-4.05
  0
LINE
  5
220
100
AcDbEntity
  8
DIM Red Canes
  6
ByBlock
 62
    0
370
   -2
100
AcDbLine
 10
12
 20
3.9
 11
12
 21
-4.05
  0
ENDBLK
  5
CB
330
C9
100
AcDbEntity
  8
0
100
AcDbBlockEnd
  0
BLOCK
  5
CD
330
CC
100
AcDbEntity
  8
0
100
AcDbBlockBegin
  2
*D89
 70
    1
 10
0
 20
0
  3
*D89
  1

  0
LINE
  5
221
100
AcDbEntity
  8
COORD Trees Tom Row A
  6
CONTINUOUS
 62
    7
370
    0
100
AcDbLine
 10
29.8637
 20
12.82840330515628
 11
30.8637
 21
13.82840330515628
  0
LINE
  5
222
100
AcDbEntity
  8
COORD Trees Tom Row A
  6
CONTINUOUS
 62
    7
370
    0
100
AcDbLine
 10
30.8637
 20
13.82840330515628
 11
31.8637
 21
13.82840330515628
  0
SOLID
  5
223
100
AcDbEntity
  8
COORD Trees Tom Row A
  6
CONTINUOUS
 62
    7
370
    0
100
AcDbTrace
 10
29.8637
 20
12.82840330515628
 30
0
 11
30.15838184971026
 21
13.24082823663257
 31
0
 12
30.2761249314763
 22
13.12308515486654
 32
0
 13
30.2761249314763
 23
13.12308515486654
 33
0
  0
ENDBLK
  5
CE
330
CC
100
AcDbEntity
  8
0
100
AcDbBlockEnd
  0
BLOCK
  5
D0
330
CF
100
AcDbEntity
  8
0
100
AcDbBlockBegin
  2
*D65
 70
    1
 10
0
 20
0
  3
*D65
  1

  0
LINE
  5
224
100
AcDbEntity
  8
COORD Trees Big
  6
CONTINUOUS
 62
    7
370
    0
100
AcDbLine
 10
24
 20
17.86370330515627
 11
26
 21
19
  0
LINE
  5
225
100
AcDbEntity
  8
COORD Trees Big
  6
CONTINUOUS
 62
    7
370
    0
100
AcDbLine
 10
26
 20
19
 11
27
 21
19
  0
SOLID
  5
226
100
AcDbEntity
  8
COORD Trees Big
  6
CONTINUOUS
 62
    7
370
    0
100
AcDbTrace
 10
24
 20
17.86370330515627
 30
0
 11
24.3936066526522
 21
18.18308633482412
 31
0
 12
24.47586240425495
 22
18.03830768330466
 32
0
 13
24.47586240425495
 23
18.03830768330466
 33
0
  0
ENDBLK
  5
D1
330
CF
100
AcDbEntity
  8
0
100
AcDbBlockEnd
  0
BLOCK
  5
D3
330
D2
100
AcDbEntity
  8
0
100
AcDbBlockBegin
  2
*D18
 70
    1
 10
0
 20
0
  3
*D18
  1

  0
LINE
  5
227
100
AcDbEntity
  8
DIM Tom Trees Row B
  6
ByBlock
 62
    0
370
   -2
100
AcDbLine
 10
0
 20
-2.999999999999998
 11
10.42955439258669
 21
-2.999999999999998
  0
SOLID
  5
228
100
AcDbEntity
  8
DIM Tom Trees Row B
  6
ByBlock
 62
    0
370
   -2
100
AcDbTrace
 10
0
 20
-2.999999999999998
 30
0
 11
0.5
 21
-2.91674306844543
 31
0
 12
0.5
 22
-3.083256931554566
 32
0
 13
0.5
 23
-3.083256931554566
 33
0
  0
SOLID
  5
229
100
AcDbEntity
  8
DIM Tom Trees Row B
  6
ByBlock
 62
    0
370
   -2
100
AcDbTrace
 10
10.42955439258669
 20
-2.999999999999998
 30
0
 11
9.92955439258669
 21
-3.083256931554566
 31
0
 12
9.92955439258669
 22
-2.91674306844543
 32
0
 13
9.92955439258669
 23
-2.91674306844543
 33
0
  0
MTEXT
  5
22A
100
AcDbEntity
  8
DIM Tom Trees Row B
  6
CONTINUOUS
 62
    0
370
   -2
100
AcDbMText
 10
5.214777196293345
 20
-2.524999999999998
 30
0
 40
0.75
 41
2.250000000000046
 71
    5
 72
    1
  1
10.43
  7
standard
210
0
220
0
230
1
 50
0
 73
    2
 44
1
  0
LINE
  5
22B
100
AcDbEntity
  8
DIM Tom Trees Row B
  6
ByBlock
 62
    0
370
   -2
100
AcDbLine
 10
-1.836909530733566e-017
 20
-0.1
 11
-9.18454765366783e-018
 21
-3.049999999999998
  0
LINE
  5
22C
100
AcDbEntity
  8
DIM Tom Trees Row B
  6
ByBlock
 62
    0
370
   -2
100
AcDbLine
 10
10.42955439258669
 20
12.14264068711928
 11
10.42955439258669
 21
-3.049999999999998
  0
ENDBLK
  5
D4
330
D2
100
AcDbEntity
  8
0
100
AcDbBlockEnd
  0
BLOCK
  5
D6
330
D5
100
AcDbEntity
  8
0
100
AcDbBlockBegin
  2
*D49
 70
    1
 10
0
 20
0
  3
*D49
  1

  0
LINE
  5
22D
100
AcDbEntity
  8
DIM Green Canes
  6
ByBlock
 62
    0
370
   -2
100
AcDbLine
 10
-7.999999999999999
 20
20
 11
-8
 21
4.973799150320702e-016
  0
SOLID
  5
22E
100
AcDbEntity
  8
DIM Green Canes
  6
ByBlock
 62
    0
370
   -2
100
AcDbTrace
 10
-7.999999999999999
 20
20
 30
0
 11
-7.916743068445431
 21
19.5
 31
0
 12
-8.083256931554567
 22
19.5
 32
0
 13
-8.083256931554567
 23
19.5
 33
0
  0
SOLID
  5
22F
100
AcDbEntity
  8
DIM Green Canes
  6
ByBlock
 62
    0
370
   -2
100
AcDbTrace
 10
-8
 20
4.973799150320702e-016
 30
0
 11
-8.083256931554567
 21
0.5000000000000004
 31
0
 12
-7.916743068445432
 22
0.5000000000000004
 32
0
 13
-7.916743068445432
 23
0.5000000000000004
 33
0
  0
MTEXT
  5
230
100
AcDbEntity
  8
DIM Green Canes
  6
CONTINUOUS
 62
    0
370
   -2
100
AcDbMText
 10
-8.475
 20
10
 30
0
 40
0.75
 41
0.9166666666666665
 71
    5
 72
    1
  1
20
  7
standard
210
0
220
0
230
1
 50
90
 73
    2
 44
1
  0
LINE
  5
231
100
AcDbEntity
  8
DIM Green Canes
  6
ByBlock
 62
    0
370
   -2
100
AcDbLine
 10
0.5249999974999998
 20
20
 11
-8.049999999999999
 21
20
  0
LINE
  5
232
100
AcDbEntity
  8
DIM Green Canes
  6
ByBlock
 62
    0
370
   -2
100
AcDbLine
 10
-0.1
 20
1.224606353822377e-017
 11
-8.050000000000001
 21
5.035029468011821e-016
  0
ENDBLK
  5
D7
330
D5
100
AcDbEntity
  8
0
100
AcDbBlockEnd
  0
BLOCK
  5
D9
330
D8
100
AcDbEntity
  8
0
100
AcDbBlockBegin
  2
*D8
 70
    1
 10
0
 20
0
  3
*D8
  1

  0
LINE
  5
233
100
AcDbEntity
  8
DIM Green Canes
  6
ByBlock
 62
    0
370
   -2
100
AcDbLine
 10
24
 20
-6.999999999999998
 11
-4.930380657631324e-032
 21
-6.999999999999998
  0
SOLID
  5
234
100
AcDbEntity
  8
DIM Green Canes
  6
ByBlock
 62
    0
370
   -2
100
AcDbTrace
 10
24
 20
-6.999999999999998
 30
0
 11
23.5
 21
-7.083256931554566
 31
0
 12
23.5
 22
-6.91674306844543
 32
0
 13
23.5
 23
-6.91674306844543
 33
0
  0
SOLID
  5
235
100
AcDbEntity
  8
DIM Green Canes
  6
ByBlock
 62
    0
370
   -2
100
AcDbTrace
 10
-4.930380657631324e-032
 20
-6.999999999999998
 30
0
 11
0.5
 21
-6.91674306844543
 31
0
 12
0.5
 22
-7.083256931554566
 32
0
 13
0.5
 23
-7.083256931554566
 33
0
  0
MTEXT
  5
236
100
AcDbEntity
  8
DIM Green Canes
  6
CONTINUOUS
 62
    0
370
   -2
100
AcDbMText
 10
12
 20
-6.524999999999999
 30
0
 40
0.75
 41
1
 71
    5
 72
    1
  1
24
  7
standard
210
0
220
0
230
1
 50
0
 73
    2
 44
1
  0
LINE
  5
237
100
AcDbEntity
  8
DIM Green Canes
  6
ByBlock
 62
    0
370
   -2
100
AcDbLine
 10
24
 20
3.9
 11
24
 21
-7.049999999999998
  0
LINE
  5
238
100
AcDbEntity
  8
DIM Green Canes
  6
ByBlock
 62
    0
370
   -2
100
AcDbLine
 10
-1.836909530733566e-017
 20
-0.1
 11
-9.184547653667879e-018
 21
-7.049999999999998
  0
ENDBLK
  5
DA
330
D8
100
AcDbEntity
  8
0
100
AcDbBlockEnd
  0
BLOCK
  5
DC
330
DB
100
AcDbEntity
  8
0
100
AcDbBlockBegin
  2
*D73
 70
    1
 10
0
 20
0
  3
*D73
  1

  0
LINE
  5
239
100
AcDbEntity
  8
COORD Canes Green
  6
CONTINUOUS
 62
    7
370
    0
100
AcDbLine
 10
24
 20
4.624999997499998
 11
25
 21
6
  0
LINE
  5
23A
100
AcDbEntity
  8
COORD Canes Green
  6
CONTINUOUS
 62
    7
370
    0
100
AcDbLine
 10
25
 20
6
 11
26
 21
6
  0
SOLID
  5
23B
100
AcDbEntity
  8
COORD Canes Green
  6
CONTINUOUS
 62
    7
370
    0
100
AcDbTrace
 10
24
 20
4.624999997499998
 30
0
 11
24.22675296362891
 21
5.078337410623369
 31
0
 12
24.36141873334669
 22
4.980398669188506
 32
0
 13
24.36141873334669
 23
4.980398669188506
 33
0
  0
ENDBLK
  5
DD
330
DB
100
AcDbEntity
  8
0
100
AcDbBlockEnd
  0
BLOCK
  5
DF
330
DE
100
AcDbEntity
  8
0
100
AcDbBlockBegin
  2
*D4
 70
    1
 10
0
 20
0
  3
*D4
  1

  0
LINE
  5
23C
100
AcDbEntity
  8
DIM Red Canes
  6
ByBlock
 62
    0
370
   -2
100
AcDbLine
 10
0
 20
-8
 11
28
 21
-8
  0
SOLID
  5
23D
100
AcDbEntity
  8
DIM Red Canes
  6
ByBlock
 62
    0
370
   -2
100
AcDbTrace
 10
0
 20
-8
 30
0
 11
0.5
 21
-7.916743068445432
 31
0
 12
0.5
 22
-8.083256931554569
 32
0
 13
0.5
 23
-8.083256931554569
 33
0
  0
SOLID
  5
23E
100
AcDbEntity
  8
DIM Red Canes
  6
ByBlock
 62
    0
370
   -2
100
AcDbTrace
 10
28
 20
-8
 30
0
 11
27.5
 21
-8.083256931554567
 31
0
 12
27.5
 22
-7.916743068445432
 32
0
 13
27.5
 23
-7.916743068445432
 33
0
  0
MTEXT
  5
23F
100
AcDbEntity
  8
DIM Red Canes
  6
CONTINUOUS
 62
    0
370
   -2
100
AcDbMText
 10
14
 20
-7.525
 30
0
 40
0.75
 41
0.9166666666666666
 71
    5
 72
    1
  1
28
  7
standard
210
0
220
0
230
1
 50
0
 73
    2
 44
1
  0
LINE
  5
240
100
AcDbEntity
  8
DIM Red Canes
  6
ByBlock
 62
    0
370
   -2
100
AcDbLine
 10
-1.836909530733566e-017
 20
-0.1
 11
-9.18454765366783e-018
 21
-8.050000000000001
  0
LINE
  5
241
100
AcDbEntity
  8
DIM Red Canes
  6
ByBlock
 62
    0
370
   -2
100
AcDbLine
 10
28
 20
3.9
 11
28
 21
-8.050000000000001
  0
ENDBLK
  5
E0
330
DE
100
AcDbEntity
  8
0
100
AcDbBlockEnd
  0
BLOCK
  5
E2
330
E1
100
AcDbEntity
  8
0
100
AcDbBlockBegin
  2
*D7
 70
    1
 10
0
 20
0
  3
*D7
  1

  0
LINE
  5
242
100
AcDbEntity
  8
DIM Green Canes
  6
ByBlock
 62
    0
370
   -2
100
AcDbLine
 10
16
 20
-4.999999999999999
 11
0
 21
-4.999999999999999
  0
SOLID
  5
243
100
AcDbEntity
  8
DIM Green Canes
  6
ByBlock
 62
    0
370
   -2
100
AcDbTrace
 10
16
 20
-4.999999999999999
 30
0
 11
15.5
 21
-5.083256931554567
 31
0
 12
15.5
 22
-4.916743068445431
 32
0
 13
15.5
 23
-4.916743068445431
 33
0
  0
SOLID
  5
244
100
AcDbEntity
  8
DIM Green Canes
  6
ByBlock
 62
    0
370
   -2
100
AcDbTrace
 10
0
 20
-4.999999999999999
 30
0
 11
0.5
 21
-4.916743068445431
 31
0
 12
0.5
 22
-5.083256931554567
 32
0
 13
0.5
 23
-5.083256931554567
 33
0
  0
MTEXT
  5
245
100
AcDbEntity
  8
DIM Green Canes
  6
CONTINUOUS
 62
    0
370
   -2
100
AcDbMText
 10
8
 20
-4.524999999999999
 30
0
 40
0.75
 41
0.7500000000000464
 71
    5
 72
    1
  1
16
  7
standard
210
0
220
0
230
1
 50
0
 73
    2
 44
1
  0
LINE
  5
246
100
AcDbEntity
  8
DIM Green Canes
  6
ByBlock
 62
    0
370
   -2
100
AcDbLine
 10
16
 20
3.9
 11
16
 21
-5.049999999999999
  0
LINE
  5
247
100
AcDbEntity
  8
DIM Green Canes
  6
ByBlock
 62
    0
370
   -2
100
AcDbLine
 10
-1.836909530733566e-017
 20
-0.1
 11
-9.18454765366783e-018
 21
-5.049999999999999
  0
ENDBLK
  5
E3
330
E1
100
AcDbEntity
  8
0
100
AcDbBlockEnd
  0
BLOCK
  5
E5
330
E4
100
AcDbEntity
  8
0
100
AcDbBlockBegin
  2
*D88
 70
    1
 10
0
 20
0
  3
*D88
  1

  0
LINE
  5
248
100
AcDbEntity
  8
LINE Origin
  6
CONTINUOUS
 62
    7
370
    0
100
AcDbLine
 10
2
 20
-2
 11
0
 21
-2
  0
SOLID
  5
249
100
AcDbEntity
  8
LINE Origin
  6
CONTINUOUS
 62
    7
370
    0
100
AcDbTrace
 10
2
 20
-2
 30
0
 11
1.5
 21
-2.083256931554568
 31
0
 12
1.5
 22
-1.916743068445432
 32
0
 13
1.5
 23
-1.916743068445432
 33
0
  0
ENDBLK
  5
E6
330
E4
100
AcDbEntity
  8
0
100
AcDbBlockEnd
  0
BLOCK
  5
E8
330
E7
100
AcDbEntity
  8
0
100
AcDbBlockBegin
  2
*D51
 70
    1
 10
0
 20
0
  3
*D51
  1

  0
LINE
  5
24A
100
AcDbEntity
  8
COORD Trees Tom Row B
  6
CONTINUOUS
 62
    7
370
    0
100
AcDbLine
 10
37.5704
 20
12.24260330515628
 11
39
 21
14
  0
LINE
  5
24B
100
AcDbEntity
  8
COORD Trees Tom Row B
  6
CONTINUOUS
 62
    7
370
    0
100
AcDbLine
 10
39
 20
14
 11
40
 21
14
  0
SOLID
  5
24C
100
AcDbEntity
  8
COORD Trees Tom Row B
  6
CONTINUOUS
 62
    7
370
    0
100
AcDbTrace
 10
37.5704
 20
12.24260330515628
 30
0
 11
37.82133827290741
 21
12.68301413590653
 31
0
 12
37.95051029111651
 22
12.57793580170143
 32
0
 13
37.95051029111651
 23
12.57793580170143
 33
0
  0
ENDBLK
  5
E9
330
E7
100
AcDbEntity
  8
0
100
AcDbBlockEnd
  0
BLOCK
  5
EB
330
EA
100
AcDbEntity
  8
0
100
AcDbBlockBegin
  2
*D1
 70
    1
 10
0
 20
0
  3
*D1
  1

  0
LINE
  5
24D
100
AcDbEntity
  8
DIM Red Canes
  6
ByBlock
 62
    0
370
   -2
100
AcDbLine
 10
0
 20
-2
 11
4
 21
-2
  0
SOLID
  5
24E
100
AcDbEntity
  8
DIM Red Canes
  6
ByBlock
 62
    0
370
   -2
100
AcDbTrace
 10
0
 20
-2
 30
0
 11
0.5
 21
-1.916743068445432
 31
0
 12
0.5
 22
-2.083256931554568
 32
0
 13
0.5
 23
-2.083256931554568
 33
0
  0
SOLID
  5
24F
100
AcDbEntity
  8
DIM Red Canes
  6
ByBlock
 62
    0
370
   -2
100
AcDbTrace
 10
4
 20
-2
 30
0
 11
3.5
 21
-2.083256931554568
 31
0
 12
3.5
 22
-1.916743068445432
 32
0
 13
3.5
 23
-1.916743068445432
 33
0
  0
MTEXT
  5
250
100
AcDbEntity
  8
DIM Red Canes
  6
CONTINUOUS
 62
    0
370
   -2
100
AcDbMText
 10
2
 20
-1.525
 30
0
 40
0.75
 41
0.4166666666666666
 71
    5
 72
    1
  1
4
  7
standard
210
0
220
0
230
1
 50
0
 73
    2
 44
1
  0
LINE
  5
251
100
AcDbEntity
  8
DIM Red Canes
  6
ByBlock
 62
    0
370
   -2
100
AcDbLine
 10
-1.836909530733566e-017
 20
-0.1
 11
-9.18454765366783e-018
 21
-2.05
  0
LINE
  5
252
100
AcDbEntity
  8
DIM Red Canes
  6
ByBlock
 62
    0
370
   -2
100
AcDbLine
 10
4
 20
3.8583333335
 11
4
 21
-2.05
  0
ENDBLK
  5
EC
330
EA
100
AcDbEntity
  8
0
100
AcDbBlockEnd
  0
BLOCK
  5
EE
330
ED
100
AcDbEntity
  8
0
100
AcDbBlockBegin
  2
*D66
 70
    1
 10
0
 20
0
  3
*D66
  1

  0
LINE
  5
253
100
AcDbEntity
  8
DIM Red Mini Trees
  6
ByBlock
 62
    0
370
   -2
100
AcDbLine
 10
0
 20
-0.9999999999999964
 11
9.80210364763621
 21
-0.9999999999999964
  0
SOLID
  5
254
100
AcDbEntity
  8
DIM Red Mini Trees
  6
ByBlock
 62
    0
370
   -2
100
AcDbTrace
 10
0
 20
-0.9999999999999964
 30
0
 11
0.5
 21
-0.9167430684454284
 31
0
 12
0.5
 22
-1.083256931554565
 32
0
 13
0.5
 23
-1.083256931554565
 33
0
  0
SOLID
  5
255
100
AcDbEntity
  8
DIM Red Mini Trees
  6
ByBlock
 62
    0
370
   -2
100
AcDbTrace
 10
9.80210364763621
 20
-0.9999999999999964
 30
0
 11
9.30210364763621
 21
-1.083256931554565
 31
0
 12
9.30210364763621
 22
-0.9167430684454284
 32
0
 13
9.30210364763621
 23
-0.9167430684454284
 33
0
  0
MTEXT
  5
256
100
AcDbEntity
  8
DIM Red Mini Trees
  6
CONTINUOUS
 62
    0
370
   -2
100
AcDbMText
 10
4.901051823818105
 20
-0.5249999999999965
 30
0
 40
0.75
 41
1.166666666666713
 71
    5
 72
    1
  1
9.8
  7
standard
210
0
220
0
230
1
 50
0
 73
    2
 44
1
  0
LINE
  5
257
100
AcDbEntity
  8
DIM Red Mini Trees
  6
ByBlock
 62
    0
370
   -2
100
AcDbLine
 10
-1.836909530733566e-017
 20
-0.1
 11
-9.18454765366783e-018
 21
-1.049999999999996
  0
LINE
  5
258
100
AcDbEntity
  8
DIM Red Mini Trees
  6
ByBlock
 62
    0
370
   -2
100
AcDbLine
 10
9.80210364763621
 20
17.07525384707607
 11
9.80210364763621
 21
-1.049999999999996
  0
ENDBLK
  5
EF
330
ED
100
AcDbEntity
  8
0
100
AcDbBlockEnd
  0
BLOCK
  5
F1
330
F0
100
AcDbEntity
  8
0
100
AcDbBlockBegin
  2
*D59
 70
    1
 10
0
 20
0
  3
*D59
  1

  0
LINE
  5
259
100
AcDbEntity
  8
COORD Trees Tom Row A
  6
CONTINUOUS
 62
    7
370
    0
100
AcDbLine
 10
36.1562
 20
8.000003305156275
 11
37
 21
10
  0
LINE
  5
25A
100
AcDbEntity
  8
COORD Trees Tom Row A
  6
CONTINUOUS
 62
    7
370
    0
100
AcDbLine
 10
37
 20
10
 11
38
 21
10
  0
SOLID
  5
25B
100
AcDbEntity
  8
COORD Trees Tom Row A
  6
CONTINUOUS
 62
    7
370
    0
100
AcDbTrace
 10
36.1562
 20
8.000003305156275
 30
0
 11
36.27385105528831
 21
8.49304483062997
 31
0
 12
36.42726954910246
 22
8.428317461122743
 32
0
 13
36.42726954910246
 23
8.428317461122743
 33
0
  0
ENDBLK
  5
F2
330
F0
100
AcDbEntity
  8
0
100
AcDbBlockEnd
  0
BLOCK
  5
F4
330
F3
100
AcDbEntity
  8
0
100
AcDbBlockBegin
  2
*D38
 70
    1
 10
0
 20
0
  3
*D38
  1

  0
LINE
  5
25C
100
AcDbEntity
  8
DIM Tom Trees Row B
  6
ByBlock
 62
    0
370
   -2
100
AcDbLine
 10
-5.999999999999999
 20
12.24260330515628
 11
-6
 21
3.730349362740526e-016
  0
SOLID
  5
25D
100
AcDbEntity
  8
DIM Tom Trees Row B
  6
ByBlock
 62
    0
370
   -2
100
AcDbTrace
 10
-5.999999999999999
 20
12.24260330515628
 30
0
 11
-5.916743068445431
 21
11.74260330515628
 31
0
 12
-6.083256931554567
 22
11.74260330515628
 32
0
 13
-6.083256931554567
 23
11.74260330515628
 33
0
  0
SOLID
  5
25E
100
AcDbEntity
  8
DIM Tom Trees Row B
  6
ByBlock
 62
    0
370
   -2
100
AcDbTrace
 10
-6
 20
3.730349362740526e-016
 30
0
 11
-6.083256931554568
 21
0.5000000000000003
 31
0
 12
-5.916743068445432
 22
0.5000000000000003
 32
0
 13
-5.916743068445432
 23
0.5000000000000003
 33
0
  0
MTEXT
  5
25F
100
AcDbEntity
  8
DIM Tom Trees Row B
  6
CONTINUOUS
 62
    0
370
   -2
100
AcDbMText
 10
-6.475
 20
6.121301652578139
 30
0
 40
0.75
 41
2.25
 71
    5
 72
    1
  1
12.24
  7
standard
210
0
220
0
230
1
 50
90
 73
    2
 44
1
  0
LINE
  5
260
100
AcDbEntity
  8
DIM Tom Trees Row B
  6
ByBlock
 62
    0
370
   -2
100
AcDbLine
 10
37.4704
 20
12.24260330515628
 11
-6.049999999999999
 21
12.24260330515628
  0
LINE
  5
261
100
AcDbEntity
  8
DIM Tom Trees Row B
  6
ByBlock
 62
    0
370
   -2
100
AcDbLine
 10
-0.1
 20
1.224606353822377e-017
 11
-6.05
 21
3.791579680431645e-016
  0
ENDBLK
  5
F5
330
F3
100
AcDbEntity
  8
0
100
AcDbBlockEnd
  0
BLOCK
  5
F7
330
F6
100
AcDbEntity
  8
0
100
AcDbBlockBegin
  2
*D37
 70
    1
 10
0
 20
0
  3
*D37
  1

  0
LINE
  5
262
100
AcDbEntity
  8
DIM Tom Trees Row A
  6
ByBlock
 62
    0
370
   -2
100
AcDbLine
 10
-4.999999999999999
 20
10.82840330515628
 11
-5
 21
3.108624468950438e-016
  0
SOLID
  5
263
100
AcDbEntity
  8
DIM Tom Trees Row A
  6
ByBlock
 62
    0
370
   -2
100
AcDbTrace
 10
-4.999999999999999
 20
10.82840330515628
 30
0
 11
-4.916743068445431
 21
10.32840330515628
 31
0
 12
-5.083256931554567
 22
10.32840330515628
 32
0
 13
-5.083256931554567
 23
10.32840330515628
 33
0
  0
SOLID
  5
264
100
AcDbEntity
  8
DIM Tom Trees Row A
  6
ByBlock
 62
    0
370
   -2
100
AcDbTrace
 10
-5
 20
3.108624468950438e-016
 30
0
 11
-5.083256931554568
 21
0.5000000000000003
 31
0
 12
-4.916743068445432
 22
0.5000000000000003
 32
0
 13
-4.916743068445432
 23
0.5000000000000003
 33
0
  0
MTEXT
  5
265
100
AcDbEntity
  8
DIM Tom Trees Row A
  6
CONTINUOUS
 62
    0
370
   -2
100
AcDbMText
 10
-5.475
 20
5.414201652578138
 30
0
 40
0.75
 41
2.166666666666713
 71
    5
 72
    1
  1
10.83
  7
standard
210
0
220
0
230
1
 50
90
 73
    2
 44
1
  0
LINE
  5
266
100
AcDbEntity
  8
DIM Tom Trees Row A
  6
ByBlock
 62
    0
370
   -2
100
AcDbLine
 10
33.2278
 20
10.82840330515628
 11
-5.049999999999999
 21
10.82840330515628
  0
LINE
  5
267
100
AcDbEntity
  8
DIM Tom Trees Row A
  6
ByBlock
 62
    0
370
   -2
100
AcDbLine
 10
-0.1
 20
1.224606353822377e-017
 11
-5.05
 21
3.169854786641557e-016
  0
ENDBLK
  5
F8
330
F6
100
AcDbEntity
  8
0
100
AcDbBlockEnd
  0
BLOCK
  5
FA
330
F9
100
AcDbEntity
  8
0
100
AcDbBlockBegin
  2
*D79
 70
    1
 10
0
 20
0
  3
*D79
  1

  0
LINE
  5
268
100
AcDbEntity
  8
COORD Canes Red
  6
CONTINUOUS
 62
    7
370
    0
100
AcDbLine
 10
27.9583
 20
4.624999997499998
 11
29
 21
3
  0
LINE
  5
269
100
AcDbEntity
  8
COORD Canes Red
  6
CONTINUOUS
 62
    7
370
    0
100
AcDbLine
 10
29
 20
3
 11
30
 21
3
  0
SOLID
  5
26A
100
AcDbEntity
  8
COORD Canes Red
  6
CONTINUOUS
 62
    7
370
    0
100
AcDbTrace
 10
27.9583
 20
4.624999997499998
 30
0
 11
28.2982307980539
 21
4.248996315089407
 31
0
 12
28.15804755689243
 22
4.159132387370911
 32
0
 13
28.15804755689243
 23
4.159132387370911
 33
0
  0
ENDBLK
  5
FB
330
F9
100
AcDbEntity
  8
0
100
AcDbBlockEnd
  0
BLOCK
  5
FD
330
FC
100
AcDbEntity
  8
0
100
AcDbBlockBegin
  2
*D35
 70
    1
 10
0
 20
0
  3
*D35
  1

  0
LINE
  5
26B
100
AcDbEntity
  8
DIM Tom Trees Row A
  6
ByBlock
 62
    0
370
   -2
100
AcDbLine
 10
-3
 20
8.000003305156277
 11
-3
 21
1.865174681370263e-016
  0
SOLID
  5
26C
100
AcDbEntity
  8
DIM Tom Trees Row A
  6
ByBlock
 62
    0
370
   -2
100
AcDbTrace
 10
-3
 20
8.000003305156277
 30
0
 11
-2.916743068445431
 21
7.500003305156277
 31
0
 12
-3.083256931554568
 22
7.500003305156277
 32
0
 13
-3.083256931554568
 23
7.500003305156277
 33
0
  0
SOLID
  5
26D
100
AcDbEntity
  8
DIM Tom Trees Row A
  6
ByBlock
 62
    0
370
   -2
100
AcDbTrace
 10
-3
 20
1.865174681370263e-016
 30
0
 11
-3.083256931554568
 21
0.5000000000000002
 31
0
 12
-2.916743068445432
 22
0.5000000000000002
 32
0
 13
-2.916743068445432
 23
0.5000000000000002
 33
0
  0
MTEXT
  5
26E
100
AcDbEntity
  8
DIM Tom Trees Row A
  6
CONTINUOUS
 62
    0
370
   -2
100
AcDbMText
 10
-3.475
 20
4.000001652578138
 30
0
 40
0.75
 41
0.3333333333333333
 71
    5
 72
    1
  1
8
  7
standard
210
0
220
0
230
1
 50
90
 73
    2
 44
1
  0
LINE
  5
26F
100
AcDbEntity
  8
DIM Tom Trees Row A
  6
ByBlock
 62
    0
370
   -2
100
AcDbLine
 10
36.0562
 20
8.000003305156275
 11
-3.049999999999999
 21
8.000003305156277
  0
LINE
  5
270
100
AcDbEntity
  8
DIM Tom Trees Row A
  6
ByBlock
 62
    0
370
   -2
100
AcDbLine
 10
-0.1
 20
1.224606353822377e-017
 11
-3.05
 21
1.926404999061382e-016
  0
ENDBLK
  5
FE
330
FC
100
AcDbEntity
  8
0
100
AcDbBlockEnd
  0
BLOCK
  5
100
330
FF
100
AcDbEntity
  8
0
100
AcDbBlockBegin
  2
*D44
 70
    1
 10
0
 20
0
  3
*D44
  1

  0
LINE
  5
271
100
AcDbEntity
  8
DIM Big Trees
  6
ByBlock
 62
    0
370
   -2
100
AcDbLine
 10
-12
 20
17.86370330515627
 11
-12
 21
6.394884621840902e-016
  0
SOLID
  5
272
100
AcDbEntity
  8
DIM Big Trees
  6
ByBlock
 62
    0
370
   -2
100
AcDbTrace
 10
-12
 20
17.86370330515627
 30
0
 11
-11.91674306844543
 21
17.36370330515627
 31
0
 12
-12.08325693155457
 22
17.36370330515627
 32
0
 13
-12.08325693155457
 23
17.36370330515627
 33
0
  0
SOLID
  5
273
100
AcDbEntity
  8
DIM Big Trees
  6
ByBlock
 62
    0
370
   -2
100
AcDbTrace
 10
-12
 20
6.394884621840902e-016
 30
0
 11
-12.08325693155457
 21
0.5000000000000007
 31
0
 12
-11.91674306844543
 22
0.5000000000000007
 32
0
 13
-11.91674306844543
 23
0.5000000000000007
 33
0
  0
MTEXT
  5
274
100
AcDbEntity
  8
DIM Big Trees
  6
CONTINUOUS
 62
    0
370
   -2
100
AcDbMText
 10
-12.475
 20
8.931851652578139
 30
0
 40
0.75
 41
2.166666666666713
 71
    5
 72
    1
  1
17.86
  7
standard
210
0
220
0
230
1
 50
90
 73
    2
 44
1
  0
LINE
  5
275
100
AcDbEntity
  8
DIM Big Trees
  6
ByBlock
 62
    0
370
   -2
100
AcDbLine
 10
23.9
 20
17.86370330515627
 11
-12.05
 21
17.86370330515627
  0
LINE
  5
276
100
AcDbEntity
  8
DIM Big Trees
  6
ByBlock
 62
    0
370
   -2
100
AcDbLine
 10
-0.1
 20
1.224606353822377e-017
 11
-12.05
 21
6.456114939532022e-016
  0
ENDBLK
  5
101
330
FF
100
AcDbEntity
  8
0
100
AcDbBlockEnd
  0
BLOCK
  5
103
330
102
100
AcDbEntity
  8
0
100
AcDbBlockBegin
  2
*D6
 70
    1
 10
0
 20
0
  3
*D6
  1

  0
LINE
  5
277
100
AcDbEntity
  8
DIM Green Canes
  6
ByBlock
 62
    0
370
   -2
100
AcDbLine
 10
8
 20
-3
 11
2.465190328815662e-032
 21
-3
  0
SOLID
  5
278
100
AcDbEntity
  8
DIM Green Canes
  6
ByBlock
 62
    0
370
   -2
100
AcDbTrace
 10
8
 20
-3
 30
0
 11
7.5
 21
-3.083256931554568
 31
0
 12
7.5
 22
-2.916743068445432
 32
0
 13
7.5
 23
-2.916743068445432
 33
0
  0
SOLID
  5
279
100
AcDbEntity
  8
DIM Green Canes
  6
ByBlock
 62
    0
370
   -2
100
AcDbTrace
 10
2.465190328815662e-032
 20
-3
 30
0
 11
0.5
 21
-2.916743068445432
 31
0
 12
0.5
 22
-3.083256931554568
 32
0
 13
0.5
 23
-3.083256931554568
 33
0
  0
MTEXT
  5
27A
100
AcDbEntity
  8
DIM Green Canes
  6
CONTINUOUS
 62
    0
370
   -2
100
AcDbMText
 10
4
 20
-2.525
 30
0
 40
0.75
 41
0.3333333333333333
 71
    5
 72
    1
  1
8
  7
standard
210
0
220
0
230
1
 50
0
 73
    2
 44
1
  0
LINE
  5
27B
100
AcDbEntity
  8
DIM Green Canes
  6
ByBlock
 62
    0
370
   -2
100
AcDbLine
 10
8
 20
3.9
 11
8
 21
-3.05
  0
LINE
  5
27C
100
AcDbEntity
  8
DIM Green Canes
  6
ByBlock
 62
    0
370
   -2
100
AcDbLine
 10
-1.836909530733566e-017
 20
-0.1
 11
-9.184547653667805e-018
 21
-3.05
  0
ENDBLK
  5
104
330
102
100
AcDbEntity
  8
0
100
AcDbBlockEnd
  0
BLOCK
  5
106
330
105
100
AcDbEntity
  8
0
100
AcDbBlockBegin
  2
*D34
 70
    1
 10
0
 20
0
  3
*D34
  1

  0
LINE
  5
27D
100
AcDbEntity
  8
DIM Big Trees
  6
ByBlock
 62
    0
370
   -2
100
AcDbLine
 10
-2
 20
8.000000000000002
 11
-2
 21
1.243449787580175e-016
  0
SOLID
  5
27E
100
AcDbEntity
  8
DIM Big Trees
  6
ByBlock
 62
    0
370
   -2
100
AcDbTrace
 10
-2
 20
8.000000000000002
 30
0
 11
-1.916743068445431
 21
7.500000000000002
 31
0
 12
-2.083256931554568
 22
7.500000000000002
 32
0
 13
-2.083256931554568
 23
7.500000000000002
 33
0
  0
SOLID
  5
27F
100
AcDbEntity
  8
DIM Big Trees
  6
ByBlock
 62
    0
370
   -2
100
AcDbTrace
 10
-2
 20
1.243449787580175e-016
 30
0
 11
-2.083256931554568
 21
0.5000000000000001
 31
0
 12
-1.916743068445432
 22
0.5000000000000001
 32
0
 13
-1.916743068445432
 23
0.5000000000000001
 33
0
  0
MTEXT
  5
280
100
AcDbEntity
  8
DIM Big Trees
  6
CONTINUOUS
 62
    0
370
   -2
100
AcDbMText
 10
-2.475
 20
4.000000000000001
 30
0
 40
0.75
 41
0.3333333333333333
 71
    5
 72
    1
  1
8
  7
standard
210
0
220
0
230
1
 50
90
 73
    2
 44
1
  0
LINE
  5
281
100
AcDbEntity
  8
DIM Big Trees
  6
ByBlock
 62
    0
370
   -2
100
AcDbLine
 10
23.9
 20
8
 11
-2.049999999999999
 21
8.000000000000002
  0
LINE
  5
282
100
AcDbEntity
  8
DIM Big Trees
  6
ByBlock
 62
    0
370
   -2
100
AcDbLine
 10
-0.1
 20
1.224606353822377e-017
 11
-2.05
 21
1.304680105271294e-016
  0
ENDBLK
  5
107
330
105
100
AcDbEntity
  8
0
100
AcDbBlockEnd
  0
BLOCK
  5
109
330
108
100
AcDbEntity
  8
0
100
AcDbBlockBegin
  2
*D40
 70
    1
 10
0
 20
0
  3
*D40
  1

  0
LINE
  5
283
100
AcDbEntity
  8
DIM Tom Trees Row A
  6
ByBlock
 62
    0
370
   -2
100
AcDbLine
 10
-7.999999999999999
 20
13.86370330515627
 11
-8
 21
4.973799150320702e-016
  0
SOLID
  5
284
100
AcDbEntity
  8
DIM Tom Trees Row A
  6
ByBlock
 62
    0
370
   -2
100
AcDbTrace
 10
-7.999999999999999
 20
13.86370330515627
 30
0
 11
-7.916743068445431
 21
13.36370330515627
 31
0
 12
-8.083256931554567
 22
13.36370330515627
 32
0
 13
-8.083256931554567
 23
13.36370330515627
 33
0
  0
SOLID
  5
285
100
AcDbEntity
  8
DIM Tom Trees Row A
  6
ByBlock
 62
    0
370
   -2
100
AcDbTrace
 10
-8
 20
4.973799150320702e-016
 30
0
 11
-8.083256931554567
 21
0.5000000000000004
 31
0
 12
-7.916743068445432
 22
0.5000000000000004
 32
0
 13
-7.916743068445432
 23
0.5000000000000004
 33
0
  0
MTEXT
  5
286
100
AcDbEntity
  8
DIM Tom Trees Row A
  6
CONTINUOUS
 62
    0
370
   -2
100
AcDbMText
 10
-8.475
 20
6.931851652578139
 30
0
 40
0.75
 41
2.166666666666759
 71
    5
 72
    1
  1
13.86
  7
standard
210
0
220
0
230
1
 50
90
 73
    2
 44
1
  0
LINE
  5
287
100
AcDbEntity
  8
DIM Tom Trees Row A
  6
ByBlock
 62
    0
370
   -2
100
AcDbLine
 10
25.9
 20
13.86370330515627
 11
-8.049999999999999
 21
13.86370330515627
  0
LINE
  5
288
100
AcDbEntity
  8
DIM Tom Trees Row A
  6
ByBlock
 62
    0
370
   -2
100
AcDbLine
 10
-0.1
 20
1.224606353822377e-017
 11
-8.050000000000001
 21
5.035029468011821e-016
  0
ENDBLK
  5
10A
330
108
100
AcDbEntity
  8
0
100
AcDbBlockEnd
  0
BLOCK
  5
10C
330
10B
100
AcDbEntity
  8
0
100
AcDbBlockBegin
  2
*D70
 70
    1
 10
0
 20
0
  3
*D70
  1

  0
LINE
  5
289
100
AcDbEntity
  8
COORD Canes Green
  6
CONTINUOUS
 62
    7
370
    0
100
AcDbLine
 10
0.4419417364738251
 20
4.441941736473825
 11
2
 21
6
  0
LINE
  5
28A
100
AcDbEntity
  8
COORD Canes Green
  6
CONTINUOUS
 62
    7
370
    0
100
AcDbLine
 10
2
 20
6
 11
3
 21
6
  0
SOLID
  5
28B
100
AcDbEntity
  8
COORD Canes Green
  6
CONTINUOUS
 62
    7
370
    0
100
AcDbTrace
 10
0.4419417364738251
 20
4.441941736473825
 30
0
 11
0.7366235861840796
 21
4.854366667950118
 31
0
 12
0.8543666679501183
 22
4.736623586184079
 32
0
 13
0.8543666679501183
 23
4.736623586184079
 33
0
  0
ENDBLK
  5
10D
330
10B
100
AcDbEntity
  8
0
100
AcDbBlockEnd
  0
BLOCK
  5
10F
330
10E
100
AcDbEntity
  8
0
100
AcDbBlockBegin
  2
*D3
 70
    1
 10
0
 20
0
  3
*D3
  1

  0
LINE
  5
28C
100
AcDbEntity
  8
DIM Red Canes
  6
ByBlock
 62
    0
370
   -2
100
AcDbLine
 10
0
 20
-6
 11
20
 21
-6
  0
SOLID
  5
28D
100
AcDbEntity
  8
DIM Red Canes
  6
ByBlock
 62
    0
370
   -2
100
AcDbTrace
 10
0
 20
-6
 30
0
 11
0.5
 21
-5.916743068445432
 31
0
 12
0.5
 22
-6.083256931554568
 32
0
 13
0.5
 23
-6.083256931554568
 33
0
  0
SOLID
  5
28E
100
AcDbEntity
  8
DIM Red Canes
  6
ByBlock
 62
    0
370
   -2
100
AcDbTrace
 10
20
 20
-6
 30
0
 11
19.5
 21
-6.083256931554568
 31
0
 12
19.5
 22
-5.916743068445432
 32
0
 13
19.5
 23
-5.916743068445432
 33
0
  0
MTEXT
  5
28F
100
AcDbEntity
  8
DIM Red Canes
  6
CONTINUOUS
 62
    0
370
   -2
100
AcDbMText
 10
10
 20
-5.525
 30
0
 40
0.75
 41
0.9166666666666665
 71
    5
 72
    1
  1
20
  7
standard
210
0
220
0
230
1
 50
0
 73
    2
 44
1
  0
LINE
  5
290
100
AcDbEntity
  8
DIM Red Canes
  6
ByBlock
 62
    0
370
   -2
100
AcDbLine
 10
-1.836909530733566e-017
 20
-0.1
 11
-9.18454765366783e-018
 21
-6.05
  0
LINE
  5
291
100
AcDbEntity
  8
DIM Red Canes
  6
ByBlock
 62
    0
370
   -2
100
AcDbLine
 10
20
 20
3.9
 11
20
 21
-6.05
  0
ENDBLK
  5
110
330
10E
100
AcDbEntity
  8
0
100
AcDbBlockEnd
  0
BLOCK
  5
112
330
111
100
AcDbEntity
  8
0
100
AcDbBlockBegin
  2
*D56
 70
    1
 10
0
 20
0
  3
*D56
  1

  0
LINE
  5
292
100
AcDbEntity
  8
COORD Trees Tom Row B
  6
CONTINUOUS
 62
    7
370
    0
100
AcDbLine
 10
10.42955439258669
 20
12.24264068711928
 11
11
 21
13
  0
LINE
  5
293
100
AcDbEntity
  8
COORD Trees Tom Row B
  6
CONTINUOUS
 62
    7
370
    0
100
AcDbLine
 10
11
 20
13
 11
12
 21
13
  0
SOLID
  5
294
100
AcDbEntity
  8
COORD Trees Tom Row B
  6
CONTINUOUS
 62
    7
370
    0
100
AcDbTrace
 10
10.42955439258669
 20
12.24264068711928
 30
0
 11
10.66386942458422
 21
12.69211613965465
 31
0
 12
10.79687572141028
 22
12.59193534502741
 32
0
 13
10.79687572141028
 23
12.59193534502741
 33
0
  0
ENDBLK
  5
113
330
111
100
AcDbEntity
  8
0
100
AcDbBlockEnd
  0
BLOCK
  5
115
330
114
100
AcDbEntity
  8
0
100
AcDbBlockBegin
  2
*D46
 70
    1
 10
0
 20
0
  3
*D46
  1

  0
LINE
  5
295
100
AcDbEntity
  8
DIM Red Canes
  6
ByBlock
 62
    0
370
   -2
100
AcDbLine
 10
-6.999999999999999
 20
16
 11
-7
 21
4.352074256530614e-016
  0
SOLID
  5
296
100
AcDbEntity
  8
DIM Red Canes
  6
ByBlock
 62
    0
370
   -2
100
AcDbTrace
 10
-6.999999999999999
 20
16
 30
0
 11
-6.916743068445431
 21
15.5
 31
0
 12
-7.083256931554567
 22
15.5
 32
0
 13
-7.083256931554567
 23
15.5
 33
0
  0
SOLID
  5
297
100
AcDbEntity
  8
DIM Red Canes
  6
ByBlock
 62
    0
370
   -2
100
AcDbTrace
 10
-7
 20
4.352074256530614e-016
 30
0
 11
-7.083256931554568
 21
0.5000000000000004
 31
0
 12
-6.916743068445432
 22
0.5000000000000004
 32
0
 13
-6.916743068445432
 23
0.5000000000000004
 33
0
  0
MTEXT
  5
298
100
AcDbEntity
  8
DIM Red Canes
  6
CONTINUOUS
 62
    0
370
   -2
100
AcDbMText
 10
-7.475
 20
8
 30
0
 40
0.75
 41
0.7500000000000464
 71
    5
 72
    1
  1
16
  7
standard
210
0
220
0
230
1
 50
90
 73
    2
 44
1
  0
LINE
  5
299
100
AcDbEntity
  8
DIM Red Canes
  6
ByBlock
 62
    0
370
   -2
100
AcDbLine
 10
0.5249999974999998
 20
16
 11
-7.049999999999999
 21
16
  0
LINE
  5
29A
100
AcDbEntity
  8
DIM Red Canes
  6
ByBlock
 62
    0
370
   -2
100
AcDbLine
 10
-0.1
 20
1.224606353822377e-017
 11
-7.05
 21
4.413304574221733e-016
  0
ENDBLK
  5
116
330
114
100
AcDbEntity
  8
0
100
AcDbBlockEnd
  0
BLOCK
  5
118
330
117
100
AcDbEntity
  8
0
100
AcDbBlockBegin
  2
*D67
 70
    1
 10
0
 20
0
  3
*D67
  1

  0
LINE
  5
29B
100
AcDbEntity
  8
DIM Red Mini Trees
  6
ByBlock
 62
    0
370
   -2
100
AcDbLine
 10
0
 20
-19
 11
38.1979
 21
-19
  0
SOLID
  5
29C
100
AcDbEntity
  8
DIM Red Mini Trees
  6
ByBlock
 62
    0
370
   -2
100
AcDbTrace
 10
0
 20
-19
 30
0
 11
0.5
 21
-18.91674306844543
 31
0
 12
0.5
 22
-19.08325693155457
 32
0
 13
0.5
 23
-19.08325693155457
 33
0
  0
SOLID
  5
29D
100
AcDbEntity
  8
DIM Red Mini Trees
  6
ByBlock
 62
    0
370
   -2
100
AcDbTrace
 10
38.1979
 20
-19
 30
0
 11
37.6979
 21
-19.08325693155457
 31
0
 12
37.6979
 22
-18.91674306844543
 32
0
 13
37.6979
 23
-18.91674306844543
 33
0
  0
MTEXT
  5
29E
100
AcDbEntity
  8
DIM Red Mini Trees
  6
CONTINUOUS
 62
    0
370
   -2
100
AcDbMText
 10
19.09895
 20
-18.525
 30
0
 40
0.75
 41
1.750000000000046
 71
    5
 72
    1
  1
38.2
  7
standard
210
0
220
0
230
1
 50
0
 73
    2
 44
1
  0
LINE
  5
29F
100
AcDbEntity
  8
DIM Red Mini Trees
  6
ByBlock
 62
    0
370
   -2
100
AcDbLine
 10
-1.836909530733566e-017
 20
-0.1
 11
-9.18454765366783e-018
 21
-19.05
  0
LINE
  5
2A0
100
AcDbEntity
  8
DIM Red Mini Trees
  6
ByBlock
 62
    0
370
   -2
100
AcDbLine
 10
38.1979
 20
17.07530330515627
 11
38.1979
 21
-19.05
  0
ENDBLK
  5
119
330
117
100
AcDbEntity
  8
0
100
AcDbBlockEnd
  0
BLOCK
  5
11B
330
11A
100
AcDbEntity
  8
0
100
AcDbBlockBegin
  2
*D32
 70
    1
 10
0
 20
0
  3
*D32
  1

  0
LINE
  5
2A1
100
AcDbEntity
  8
DIM Tom Trees Row B
  6
ByBlock
 62
    0
370
   -2
100
AcDbLine
 10
0
 20
-17
 11
37.5704
 21
-17
  0
SOLID
  5
2A2
100
AcDbEntity
  8
DIM Tom Trees Row B
  6
ByBlock
 62
    0
370
   -2
100
AcDbTrace
 10
0
 20
-17
 30
0
 11
0.5
 21
-16.91674306844543
 31
0
 12
0.5
 22
-17.08325693155457
 32
0
 13
0.5
 23
-17.08325693155457
 33
0
  0
SOLID
  5
2A3
100
AcDbEntity
  8
DIM Tom Trees Row B
  6
ByBlock
 62
    0
370
   -2
100
AcDbTrace
 10
37.5704
 20
-17
 30
0
 11
37.0704
 21
-17.08325693155457
 31
0
 12
37.0704
 22
-16.91674306844543
 32
0
 13
37.0704
 23
-16.91674306844543
 33
0
  0
MTEXT
  5
2A4
100
AcDbEntity
  8
DIM Tom Trees Row B
  6
CONTINUOUS
 62
    0
370
   -2
100
AcDbMText
 10
18.7852
 20
-16.525
 30
0
 40
0.75
 41
2.333333333333426
 71
    5
 72
    1
  1
37.57
  7
standard
210
0
220
0
230
1
 50
0
 73
    2
 44
1
  0
LINE
  5
2A5
100
AcDbEntity
  8
DIM Tom Trees Row B
  6
ByBlock
 62
    0
370
   -2
100
AcDbLine
 10
-1.836909530733566e-017
 20
-0.1
 11
-9.18454765366783e-018
 21
-17.05
  0
LINE
  5
2A6
100
AcDbEntity
  8
DIM Tom Trees Row B
  6
ByBlock
 62
    0
370
   -2
100
AcDbLine
 10
37.5704
 20
12.14260330515628
 11
37.5704
 21
-17.05
  0
ENDBLK
  5
11C
330
11A
100
AcDbEntity
  8
0
100
AcDbBlockEnd
  0
BLOCK
  5
11E
330
11D
100
AcDbEntity
  8
0
100
AcDbBlockBegin
  2
*D47
 70
    1
 10
0
 20
0
  3
*D47
  1

  0
LINE
  5
2A7
100
AcDbEntity
  8
DIM Red Canes
  6
ByBlock
 62
    0
370
   -2
100
AcDbLine
 10
-8.999999999999998
 20
24
 11
-9
 21
4.796163466380678e-016
  0
SOLID
  5
2A8
100
AcDbEntity
  8
DIM Red Canes
  6
ByBlock
 62
    0
370
   -2
100
AcDbTrace
 10
-8.999999999999998
 20
24
 30
0
 11
-8.916743068445431
 21
23.5
 31
0
 12
-9.083256931554565
 22
23.5
 32
0
 13
-9.083256931554565
 23
23.5
 33
0
  0
SOLID
  5
2A9
100
AcDbEntity
  8
DIM Red Canes
  6
ByBlock
 62
    0
370
   -2
100
AcDbTrace
 10
-9
 20
4.796163466380678e-016
 30
0
 11
-9.083256931554567
 21
0.5000000000000004
 31
0
 12
-8.916743068445431
 22
0.5000000000000004
 32
0
 13
-8.916743068445431
 23
0.5000000000000004
 33
0
  0
MTEXT
  5
2AA
100
AcDbEntity
  8
DIM Red Canes
  6
CONTINUOUS
 62
    0
370
   -2
100
AcDbMText
 10
-9.475
 20
12
 30
0
 40
0.75
 41
1
 71
    5
 72
    1
  1
24
  7
standard
210
0
220
0
230
1
 50
90
 73
    2
 44
1
  0
LINE
  5
2AB
100
AcDbEntity
  8
DIM Red Canes
  6
ByBlock
 62
    0
370
   -2
100
AcDbLine
 10
0.5249999974999998
 20
24
 11
-9.049999999999999
 21
24
  0
LINE
  5
2AC
100
AcDbEntity
  8
DIM Red Canes
  6
ByBlock
 62
    0
370
   -2
100
AcDbLine
 10
-0.1
 20
1.224606353822377e-017
 11
-9.050000000000001
 21
4.857393784071797e-016
  0
ENDBLK
  5
11F
330
11D
100
AcDbEntity
  8
0
100
AcDbBlockEnd
  0
BLOCK
  5
121
330
120
100
AcDbEntity
  8
0
100
AcDbBlockBegin
  2
*D82
 70
    1
 10
0
 20
0
  3
*D82
  1

  0
LINE
  5
2AD
100
AcDbEntity
  8
COORD Canes Red
  6
CONTINUOUS
 62
    7
370
    0
100
AcDbLine
 10
0.6249999974999998
 20
16
 11
1
 21
17
  0
LINE
  5
2AE
100
AcDbEntity
  8
COORD Canes Red
  6
CONTINUOUS
 62
    7
370
    0
100
AcDbLine
 10
1
 20
17
 11
2
 21
17
  0
SOLID
  5
2AF
100
AcDbEntity
  8
COORD Canes Red
  6
CONTINUOUS
 62
    7
370
    0
100
AcDbTrace
 10
0.6249999974999998
 20
16
 30
0
 11
0.7226058251349723
 21
16.49739804891412
 31
0
 12
0.8785176135056476
 22
16.43893112788534
 32
0
 13
0.8785176135056476
 23
16.43893112788534
 33
0
  0
ENDBLK
  5
122
330
120
100
AcDbEntity
  8
0
100
AcDbBlockEnd
  0
BLOCK
  5
124
330
123
100
AcDbEntity
  8
0
100
AcDbBlockBegin
  2
*D53
 70
    1
 10
0
 20
0
  3
*D53
  1

  0
LINE
  5
2B0
100
AcDbEntity
  8
COORD Trees Tom Row B
  6
CONTINUOUS
 62
    7
370
    0
100
AcDbLine
 10
28.9671
 20
17.20980330515627
 11
31
 21
19
  0
LINE
  5
2B1
100
AcDbEntity
  8
COORD Trees Tom Row B
  6
CONTINUOUS
 62
    7
370
    0
100
AcDbLine
 10
31
 20
19
 11
32
 21
19
  0
SOLID
  5
2B2
100
AcDbEntity
  8
COORD Trees Tom Row B
  6
CONTINUOUS
 62
    7
370
    0
100
AcDbTrace
 10
28.9671
 20
17.20980330515627
 30
0
 11
29.28731938379361
 21
17.60272984141302
 31
0
 12
29.39736620103266
 22
17.47776358747587
 32
0
 13
29.39736620103266
 23
17.47776358747587
 33
0
  0
ENDBLK
  5
125
330
123
100
AcDbEntity
  8
0
100
AcDbBlockEnd
  0
BLOCK
  5
127
330
126
100
AcDbEntity
  8
0
100
AcDbBlockBegin
  2
*D61
 70
    1
 10
0
 20
0
  3
*D61
  1

  0
LINE
  5
2B3
100
AcDbEntity
  8
COORD Trees Tom Row A
  6
CONTINUOUS
 62
    7
370
    0
100
AcDbLine
 10
18.13629669484373
 20
12.82842712474619
 11
19
 21
15
  0
LINE
  5
2B4
100
AcDbEntity
  8
COORD Trees Tom Row A
  6
CONTINUOUS
 62
    7
370
    0
100
AcDbLine
 10
19
 20
15
 11
20
 21
15
  0
SOLID
  5
2B5
100
AcDbEntity
  8
COORD Trees Tom Row A
  6
CONTINUOUS
 62
    7
370
    0
100
AcDbTrace
 10
18.13629669484373
 20
12.82842712474619
 30
0
 11
18.24372068639485
 21
13.32379749395604
 31
0
 12
18.39844565417777
 22
13.26225847420351
 32
0
 13
18.39844565417777
 23
13.26225847420351
 33
0
  0
ENDBLK
  5
128
330
126
100
AcDbEntity
  8
0
100
AcDbBlockEnd
  0
BLOCK
  5
12A
330
129
100
AcDbEntity
  8
0
100
AcDbBlockBegin
  2
*D10
 70
    1
 10
0
 20
0
  3
*D10
  1

  0
LINE
  5
2B6
100
AcDbEntity
  8
DIM Green Canes
  6
ByBlock
 62
    0
370
   -2
100
AcDbLine
 10
40
 20
-11
 11
0
 21
-11
  0
SOLID
  5
2B7
100
AcDbEntity
  8
DIM Green Canes
  6
ByBlock
 62
    0
370
   -2
100
AcDbTrace
 10
40
 20
-11
 30
0
 11
39.5
 21
-11.08325693155457
 31
0
 12
39.5
 22
-10.91674306844543
 32
0
 13
39.5
 23
-10.91674306844543
 33
0
  0
SOLID
  5
2B8
100
AcDbEntity
  8
DIM Green Canes
  6
ByBlock
 62
    0
370
   -2
100
AcDbTrace
 10
0
 20
-11
 30
0
 11
0.5
 21
-10.91674306844543
 31
0
 12
0.5
 22
-11.08325693155457
 32
0
 13
0.5
 23
-11.08325693155457
 33
0
  0
MTEXT
  5
2B9
100
AcDbEntity
  8
DIM Green Canes
  6
CONTINUOUS
 62
    0
370
   -2
100
AcDbMText
 10
20
 20
-10.525
 30
0
 40
0.75
 41
1
 71
    5
 72
    1
  1
40
  7
standard
210
0
220
0
230
1
 50
0
 73
    2
 44
1
  0
LINE
  5
2BA
100
AcDbEntity
  8
DIM Green Canes
  6
ByBlock
 62
    0
370
   -2
100
AcDbLine
 10
40
 20
3.9
 11
40
 21
-11.05
  0
LINE
  5
2BB
100
AcDbEntity
  8
DIM Green Canes
  6
ByBlock
 62
    0
370
   -2
100
AcDbLine
 10
-1.836909530733566e-017
 20
-0.1
 11
-9.18454765366783e-018
 21
-11.05
  0
ENDBLK
  5
12B
330
129
100
AcDbEntity
  8
0
100
AcDbBlockEnd
  0
BLOCK
  5
12D
330
12C
100
AcDbEntity
  8
0
100
AcDbBlockBegin
  2
*D31
 70
    1
 10
0
 20
0
  3
*D31
  1

  0
LINE
  5
2BC
100
AcDbEntity
  8
DIM Tom Trees Row A
  6
ByBlock
 62
    0
370
   -2
100
AcDbLine
 10
7.105427357601002e-015
 20
-16.00000000000001
 11
36.1562
 21
-16.00000000000001
  0
SOLID
  5
2BD
100
AcDbEntity
  8
DIM Tom Trees Row A
  6
ByBlock
 62
    0
370
   -2
100
AcDbTrace
 10
7.105427357601002e-015
 20
-16.00000000000001
 30
0
 11
0.5000000000000071
 21
-15.91674306844544
 31
0
 12
0.5000000000000071
 22
-16.08325693155458
 32
0
 13
0.5000000000000071
 23
-16.08325693155458
 33
0
  0
SOLID
  5
2BE
100
AcDbEntity
  8
DIM Tom Trees Row A
  6
ByBlock
 62
    0
370
   -2
100
AcDbTrace
 10
36.1562
 20
-16.00000000000001
 30
0
 11
35.6562
 21
-16.08325693155458
 31
0
 12
35.6562
 22
-15.91674306844544
 32
0
 13
35.6562
 23
-15.91674306844544
 33
0
  0
MTEXT
  5
2BF
100
AcDbEntity
  8
DIM Tom Trees Row A
  6
CONTINUOUS
 62
    0
370
   -2
100
AcDbMText
 10
18.0781
 20
-15.52500000000001
 30
0
 40
0.75
 41
2.166666666666806
 71
    5
 72
    1
  1
36.16
  7
standard
210
0
220
0
230
1
 50
0
 73
    2
 44
1
  0
LINE
  5
2C0
100
AcDbEntity
  8
DIM Tom Trees Row A
  6
ByBlock
 62
    0
370
   -2
100
AcDbLine
 10
-1.836909530733566e-017
 20
-0.1
 11
7.096242809947334e-015
 21
-16.05000000000001
  0
LINE
  5
2C1
100
AcDbEntity
  8
DIM Tom Trees Row A
  6
ByBlock
 62
    0
370
   -2
100
AcDbLine
 10
36.1562
 20
7.900003305156275
 11
36.1562
 21
-16.05000000000001
  0
ENDBLK
  5
12E
330
12C
100
AcDbEntity
  8
0
100
AcDbBlockEnd
  0
BLOCK
  5
130
330
12F
100
AcDbEntity
  8
0
100
AcDbBlockBegin
  2
*D85
 70
    1
 10
0
 20
0
  3
*D85
  1

  0
LINE
  5
2C2
100
AcDbEntity
  8
COORD Canes Green
  6
CONTINUOUS
 62
    7
370
    0
100
AcDbLine
 10
0.6249999974999998
 20
12
 11
1
 21
13
  0
LINE
  5
2C3
100
AcDbEntity
  8
COORD Canes Green
  6
CONTINUOUS
 62
    7
370
    0
100
AcDbLine
 10
1
 20
13
 11
2
 21
13
  0
SOLID
  5
2C4
100
AcDbEntity
  8
COORD Canes Green
  6
CONTINUOUS
 62
    7
370
    0
100
AcDbTrace
 10
0.6249999974999998
 20
12
 30
0
 11
0.7226058251349723
 21
12.49739804891412
 31
0
 12
0.8785176135056476
 22
12.43893112788534
 32
0
 13
0.8785176135056476
 23
12.43893112788534
 33
0
  0
ENDBLK
  5
131
330
12F
100
AcDbEntity
  8
0
100
AcDbBlockEnd
  0
BLOCK
  5
133
330
132
100
AcDbEntity
  8
0
100
AcDbBlockBegin
  2
*D77
 70
    1
 10
0
 20
0
  3
*D77
  1

  0
LINE
  5
2C5
100
AcDbEntity
  8
COORD Canes Red
  6
CONTINUOUS
 62
    7
370
    0
100
AcDbLine
 10
12
 20
4.6249999975
 11
13
 21
3
  0
LINE
  5
2C6
100
AcDbEntity
  8
COORD Canes Red
  6
CONTINUOUS
 62
    7
370
    0
100
AcDbLine
 10
13
 20
3
 11
14
 21
3
  0
SOLID
  5
2C7
100
AcDbEntity
  8
COORD Canes Red
  6
CONTINUOUS
 62
    7
370
    0
100
AcDbTrace
 10
12
 20
4.6249999975
 30
0
 11
12.33295517127637
 21
4.242805582872827
 31
0
 12
12.1911422549728
 22
4.155536095782524
 32
0
 13
12.1911422549728
 23
4.155536095782524
 33
0
  0
ENDBLK
  5
134
330
132
100
AcDbEntity
  8
0
100
AcDbBlockEnd
  0
BLOCK
  5
136
330
135
100
AcDbEntity
  8
0
100
AcDbBlockBegin
  2
*D42
 70
    1
 10
0
 20
0
  3
*D42
  1

  0
LINE
  5
2C8
100
AcDbEntity
  8
DIM Tom Trees Row B
  6
ByBlock
 62
    0
370
   -2
100
AcDbLine
 10
-9.999999999999998
 20
17.20980330515627
 11
-10
 21
5.329070518200752e-016
  0
SOLID
  5
2C9
100
AcDbEntity
  8
DIM Tom Trees Row B
  6
ByBlock
 62
    0
370
   -2
100
AcDbTrace
 10
-9.999999999999998
 20
17.20980330515627
 30
0
 11
-9.916743068445431
 21
16.70980330515627
 31
0
 12
-10.08325693155457
 22
16.70980330515627
 32
0
 13
-10.08325693155457
 23
16.70980330515627
 33
0
  0
SOLID
  5
2CA
100
AcDbEntity
  8
DIM Tom Trees Row B
  6
ByBlock
 62
    0
370
   -2
100
AcDbTrace
 10
-10
 20
5.329070518200752e-016
 30
0
 11
-10.08325693155457
 21
0.5000000000000006
 31
0
 12
-9.916743068445431
 22
0.5000000000000006
 32
0
 13
-9.916743068445431
 23
0.5000000000000006
 33
0
  0
MTEXT
  5
2CB
100
AcDbEntity
  8
DIM Tom Trees Row B
  6
CONTINUOUS
 62
    0
370
   -2
100
AcDbMText
 10
-10.475
 20
8.604901652578137
 30
0
 40
0.75
 41
2
 71
    5
 72
    1
  1
17.21
  7
standard
210
0
220
0
230
1
 50
90
 73
    2
 44
1
  0
LINE
  5
2CC
100
AcDbEntity
  8
DIM Tom Trees Row B
  6
ByBlock
 62
    0
370
   -2
100
AcDbLine
 10
28.8671
 20
17.20980330515627
 11
-10.05
 21
17.20980330515627
  0
LINE
  5
2CD
100
AcDbEntity
  8
DIM Tom Trees Row B
  6
ByBlock
 62
    0
370
   -2
100
AcDbLine
 10
-0.1
 20
1.224606353822377e-017
 11
-10.05
 21
5.390300835891871e-016
  0
ENDBLK
  5
137
330
135
100
AcDbEntity
  8
0
100
AcDbBlockEnd
  0
BLOCK
  5
139
330
138
100
AcDbEntity
  8
0
100
AcDbBlockBegin
  2
*D78
 70
    1
 10
0
 20
0
  3
*D78
  1

  0
LINE
  5
2CE
100
AcDbEntity
  8
COORD Canes Red
  6
CONTINUOUS
 62
    7
370
    0
100
AcDbLine
 10
19.9583
 20
4.624999997499998
 11
21
 21
3
  0
LINE
  5
2CF
100
AcDbEntity
  8
COORD Canes Red
  6
CONTINUOUS
 62
    7
370
    0
100
AcDbLine
 10
21
 20
3
 11
22
 21
3
  0
SOLID
  5
2D0
100
AcDbEntity
  8
COORD Canes Red
  6
CONTINUOUS
 62
    7
370
    0
100
AcDbTrace
 10
19.9583
 20
4.624999997499998
 30
0
 11
20.2982307980539
 21
4.248996315089407
 31
0
 12
20.15804755689243
 22
4.159132387370911
 32
0
 13
20.15804755689243
 23
4.159132387370911
 33
0
  0
ENDBLK
  5
13A
330
138
100
AcDbEntity
  8
0
100
AcDbBlockEnd
  0
BLOCK
  5
13C
330
13B
100
AcDbEntity
  8
0
100
AcDbBlockBegin
  2
*D68
 70
    1
 10
0
 20
0
  3
*D68
  1

  0
LINE
  5
2D1
100
AcDbEntity
  8
COORD Trees Red Mini
  6
CONTINUOUS
 62
    7
370
    0
100
AcDbLine
 10
9.80210364763621
 20
17.17525384707607
 11
11
 21
18
  0
LINE
  5
2D2
100
AcDbEntity
  8
COORD Trees Red Mini
  6
CONTINUOUS
 62
    7
370
    0
100
AcDbLine
 10
11
 20
18
 11
12
 21
18
  0
SOLID
  5
2D3
100
AcDbEntity
  8
COORD Trees Red Mini
  6
CONTINUOUS
 62
    7
370
    0
100
AcDbTrace
 10
9.80210364763621
 20
17.17525384707607
 30
0
 11
10.16671934306407
 21
17.52737188310879
 31
0
 12
10.26114692937451
 22
17.39022124493633
 32
0
 13
10.26114692937451
 23
17.39022124493633
 33
0
  0
ENDBLK
  5
13D
330
13B
100
AcDbEntity
  8
0
100
AcDbBlockEnd
  0
BLOCK
  5
13F
330
13E
100
AcDbEntity
  8
0
100
AcDbBlockBegin
  2
*D72
 70
    1
 10
0
 20
0
  3
*D72
  1

  0
LINE
  5
2D4
100
AcDbEntity
  8
COORD Canes Green
  6
CONTINUOUS
 62
    7
370
    0
100
AcDbLine
 10
16
 20
4.624999997499998
 11
17
 21
6
  0
LINE
  5
2D5
100
AcDbEntity
  8
COORD Canes Green
  6
CONTINUOUS
 62
    7
370
    0
100
AcDbLine
 10
17
 20
6
 11
18
 21
6
  0
SOLID
  5
2D6
100
AcDbEntity
  8
COORD Canes Green
  6
CONTINUOUS
 62
    7
370
    0
100
AcDbTrace
 10
16
 20
4.624999997499998
 30
0
 11
16.22675296362891
 21
5.078337410623369
 31
0
 12
16.36141873334669
 22
4.980398669188506
 32
0
 13
16.36141873334669
 23
4.980398669188506
 33
0
  0
ENDBLK
  5
140
330
13E
100
AcDbEntity
  8
0
100
AcDbBlockEnd
  0
BLOCK
  5
142
330
141
100
AcDbEntity
  8
0
100
AcDbBlockBegin
  2
*D41
 70
    1
 10
0
 20
0
  3
*D41
  1

  0
LINE
  5
2D7
100
AcDbEntity
  8
DIM Tom Trees Row B
  6
ByBlock
 62
    0
370
   -2
100
AcDbLine
 10
-9
 20
15.29250330515627
 11
-9
 21
4.796163466380678e-016
  0
SOLID
  5
2D8
100
AcDbEntity
  8
DIM Tom Trees Row B
  6
ByBlock
 62
    0
370
   -2
100
AcDbTrace
 10
-9
 20
15.29250330515627
 30
0
 11
-8.916743068445433
 21
14.79250330515627
 31
0
 12
-9.083256931554567
 22
14.79250330515627
 32
0
 13
-9.083256931554567
 23
14.79250330515627
 33
0
  0
SOLID
  5
2D9
100
AcDbEntity
  8
DIM Tom Trees Row B
  6
ByBlock
 62
    0
370
   -2
100
AcDbTrace
 10
-9
 20
4.796163466380678e-016
 30
0
 11
-9.083256931554567
 21
0.5000000000000004
 31
0
 12
-8.916743068445431
 22
0.5000000000000004
 32
0
 13
-8.916743068445431
 23
0.5000000000000004
 33
0
  0
MTEXT
  5
2DA
100
AcDbEntity
  8
DIM Tom Trees Row B
  6
CONTINUOUS
 62
    0
370
   -2
100
AcDbMText
 10
-9.475
 20
7.646251652578138
 30
0
 40
0.75
 41
2.166666666666713
 71
    5
 72
    1
  1
15.29
  7
standard
210
0
220
0
230
1
 50
90
 73
    2
 44
1
  0
LINE
  5
2DB
100
AcDbEntity
  8
DIM Tom Trees Row B
  6
ByBlock
 62
    0
370
   -2
100
AcDbLine
 10
33.4958
 20
15.29250330515627
 11
-9.050000000000001
 21
15.29250330515627
  0
LINE
  5
2DC
100
AcDbEntity
  8
DIM Tom Trees Row B
  6
ByBlock
 62
    0
370
   -2
100
AcDbLine
 10
-0.1
 20
1.224606353822377e-017
 11
-9.050000000000001
 21
4.857393784071797e-016
  0
ENDBLK
  5
143
330
141
100
AcDbEntity
  8
0
100
AcDbBlockEnd
  0
BLOCK
  5
145
330
144
100
AcDbEntity
  8
0
100
AcDbBlockBegin
  2
*D60
 70
    1
 10
0
 20
0
  3
*D60
  1

  0
LINE
  5
2DD
100
AcDbEntity
  8
COORD Trees Tom Row A
  6
CONTINUOUS
 62
    7
370
    0
100
AcDbLine
 10
33.3278
 20
10.82840330515628
 11
34
 21
13
  0
LINE
  5
2DE
100
AcDbEntity
  8
COORD Trees Tom Row A
  6
CONTINUOUS
 62
    7
370
    0
100
AcDbLine
 10
34
 20
13
 11
35
 21
13
  0
SOLID
  5
2DF
100
AcDbEntity
  8
COORD Trees Tom Row A
  6
CONTINUOUS
 62
    7
370
    0
100
AcDbTrace
 10
33.3278
 20
10.82840330515628
 30
0
 11
33.39611594847361
 21
11.33066284746089
 31
0
 12
33.55518348312295
 22
11.28142479278657
 32
0
 13
33.55518348312295
 23
11.28142479278657
 33
0
  0
ENDBLK
  5
146
330
144
100
AcDbEntity
  8
0
100
AcDbBlockEnd
  0
BLOCK
  5
148
330
147
100
AcDbEntity
  8
0
100
AcDbBlockBegin
  2
*D5
 70
    1
 10
0
 20
0
  3
*D5
  1

  0
LINE
  5
2E0
100
AcDbEntity
  8
DIM Red Canes
  6
ByBlock
 62
    0
370
   -2
100
AcDbLine
 10
0
 20
-10
 11
36
 21
-10
  0
SOLID
  5
2E1
100
AcDbEntity
  8
DIM Red Canes
  6
ByBlock
 62
    0
370
   -2
100
AcDbTrace
 10
0
 20
-10
 30
0
 11
0.5
 21
-9.916743068445433
 31
0
 12
0.5
 22
-10.08325693155457
 32
0
 13
0.5
 23
-10.08325693155457
 33
0
  0
SOLID
  5
2E2
100
AcDbEntity
  8
DIM Red Canes
  6
ByBlock
 62
    0
370
   -2
100
AcDbTrace
 10
36
 20
-10
 30
0
 11
35.5
 21
-10.08325693155457
 31
0
 12
35.5
 22
-9.916743068445433
 32
0
 13
35.5
 23
-9.916743068445433
 33
0
  0
MTEXT
  5
2E3
100
AcDbEntity
  8
DIM Red Canes
  6
CONTINUOUS
 62
    0
370
   -2
100
AcDbMText
 10
18
 20
-9.525
 30
0
 40
0.75
 41
0.9166666666667596
 71
    5
 72
    1
  1
36
  7
standard
210
0
220
0
230
1
 50
0
 73
    2
 44
1
  0
LINE
  5
2E4
100
AcDbEntity
  8
DIM Red Canes
  6
ByBlock
 62
    0
370
   -2
100
AcDbLine
 10
-1.836909530733566e-017
 20
-0.1
 11
-9.18454765366783e-018
 21
-10.05
  0
LINE
  5
2E5
100
AcDbEntity
  8
DIM Red Canes
  6
ByBlock
 62
    0
370
   -2
100
AcDbLine
 10
36
 20
3.9
 11
36
 21
-10.05
  0
ENDBLK
  5
149
330
147
100
AcDbEntity
  8
0
100
AcDbBlockEnd
  0
BLOCK
  5
14B
330
14A
100
AcDbEntity
  8
0
100
AcDbBlockBegin
  2
*D45
 70
    1
 10
0
 20
0
  3
*D45
  1

  0
LINE
  5
2E6
100
AcDbEntity
  8
DIM Red Canes
  6
ByBlock
 62
    0
370
   -2
100
AcDbLine
 10
-4.999999999999999
 20
8
 11
-5
 21
3.108624468950438e-016
  0
SOLID
  5
2E7
100
AcDbEntity
  8
DIM Red Canes
  6
ByBlock
 62
    0
370
   -2
100
AcDbTrace
 10
-4.999999999999999
 20
8
 30
0
 11
-4.916743068445431
 21
7.5
 31
0
 12
-5.083256931554567
 22
7.5
 32
0
 13
-5.083256931554567
 23
7.5
 33
0
  0
SOLID
  5
2E8
100
AcDbEntity
  8
DIM Red Canes
  6
ByBlock
 62
    0
370
   -2
100
AcDbTrace
 10
-5
 20
3.108624468950438e-016
 30
0
 11
-5.083256931554568
 21
0.5000000000000003
 31
0
 12
-4.916743068445432
 22
0.5000000000000003
 32
0
 13
-4.916743068445432
 23
0.5000000000000003
 33
0
  0
MTEXT
  5
2E9
100
AcDbEntity
  8
DIM Red Canes
  6
CONTINUOUS
 62
    0
370
   -2
100
AcDbMText
 10
-5.475
 20
4
 30
0
 40
0.75
 41
0.3333333333333333
 71
    5
 72
    1
  1
8
  7
standard
210
0
220
0
230
1
 50
90
 73
    2
 44
1
  0
LINE
  5
2EA
100
AcDbEntity
  8
DIM Red Canes
  6
ByBlock
 62
    0
370
   -2
100
AcDbLine
 10
0.5249999974999998
 20
8
 11
-5.049999999999999
 21
8
  0
LINE
  5
2EB
100
AcDbEntity
  8
DIM Red Canes
  6
ByBlock
 62
    0
370
   -2
100
AcDbLine
 10
-0.1
 20
1.224606353822377e-017
 11
-5.05
 21
3.169854786641557e-016
  0
ENDBLK
  5
14C
330
14A
100
AcDbEntity
  8
0
100
AcDbBlockEnd
  0
BLOCK
  5
14E
330
14D
100
AcDbEntity
  8
0
100
AcDbBlockBegin
  2
*D69
 70
    1
 10
0
 20
0
  3
*D69
  1

  0
LINE
  5
2EC
100
AcDbEntity
  8
COORD Trees Red Mini
  6
CONTINUOUS
 62
    7
370
    0
100
AcDbLine
 10
38.1979
 20
17.17530330515627
 11
39
 21
18
  0
LINE
  5
2ED
100
AcDbEntity
  8
COORD Trees Red Mini
  6
CONTINUOUS
 62
    7
370
    0
100
AcDbLine
 10
39
 20
18
 11
40
 21
18
  0
SOLID
  5
2EE
100
AcDbEntity
  8
COORD Trees Red Mini
  6
CONTINUOUS
 62
    7
370
    0
100
AcDbTrace
 10
38.1979
 20
17.17530330515627
 30
0
 11
38.48682527216256
 21
17.59178128027341
 31
0
 12
38.60619232589796
 22
17.47568488459268
 32
0
 13
38.60619232589796
 23
17.47568488459268
 33
0
  0
ENDBLK
  5
14F
330
14D
100
AcDbEntity
  8
0
100
AcDbBlockEnd
  0
BLOCK
  5
151
330
150
100
AcDbEntity
  8
0
100
AcDbBlockBegin
  2
*D43
 70
    1
 10
0
 20
0
  3
*D43
  1

  0
LINE
  5
2EF
100
AcDbEntity
  8
DIM Red Mini Trees
  6
ByBlock
 62
    0
370
   -2
100
AcDbLine
 10
-11
 20
17.17530330515627
 11
-11
 21
5.861977570020827e-016
  0
SOLID
  5
2F0
100
AcDbEntity
  8
DIM Red Mini Trees
  6
ByBlock
 62
    0
370
   -2
100
AcDbTrace
 10
-11
 20
17.17530330515627
 30
0
 11
-10.91674306844543
 21
16.67530330515627
 31
0
 12
-11.08325693155457
 22
16.67530330515627
 32
0
 13
-11.08325693155457
 23
16.67530330515627
 33
0
  0
SOLID
  5
2F1
100
AcDbEntity
  8
DIM Red Mini Trees
  6
ByBlock
 62
    0
370
   -2
100
AcDbTrace
 10
-11
 20
5.861977570020827e-016
 30
0
 11
-11.08325693155457
 21
0.5000000000000006
 31
0
 12
-10.91674306844543
 22
0.5000000000000006
 32
0
 13
-10.91674306844543
 23
0.5000000000000006
 33
0
  0
MTEXT
  5
2F2
100
AcDbEntity
  8
DIM Red Mini Trees
  6
CONTINUOUS
 62
    0
370
   -2
100
AcDbMText
 10
-11.475
 20
8.587651652578138
 30
0
 40
0.75
 41
2
 71
    5
 72
    1
  1
17.18
  7
standard
210
0
220
0
230
1
 50
90
 73
    2
 44
1
  0
LINE
  5
2F3
100
AcDbEntity
  8
DIM Red Mini Trees
  6
ByBlock
 62
    0
370
   -2
100
AcDbLine
 10
38.0979
 20
17.17530330515627
 11
-11.05
 21
17.17530330515627
  0
LINE
  5
2F4
100
AcDbEntity
  8
DIM Red Mini Trees
  6
ByBlock
 62
    0
370
   -2
100
AcDbLine
 10
-0.1
 20
1.224606353822377e-017
 11
-11.05
 21
5.923207887711946e-016
  0
ENDBLK
  5
152
330
150
100
AcDbEntity
  8
0
100
AcDbBlockEnd
  0
BLOCK
  5
154
330
153
100
AcDbEntity
  8
0
100
AcDbBlockBegin
  2
*D80
 70
    1
 10
0
 20
0
  3
*D80
  1

  0
LINE
  5
2F5
100
AcDbEntity
  8
COORD Canes Red
  6
CONTINUOUS
 62
    7
370
    0
100
AcDbLine
 10
35.9583
 20
4.624999997499998
 11
37
 21
3
  0
LINE
  5
2F6
100
AcDbEntity
  8
COORD Canes Red
  6
CONTINUOUS
 62
    7
370
    0
100
AcDbLine
 10
37
 20
3
 11
38
 21
3
  0
SOLID
  5
2F7
100
AcDbEntity
  8
COORD Canes Red
  6
CONTINUOUS
 62
    7
370
    0
100
AcDbTrace
 10
35.9583
 20
4.624999997499998
 30
0
 11
36.29823079805389
 21
4.248996315089407
 31
0
 12
36.15804755689243
 22
4.159132387370911
 32
0
 13
36.15804755689243
 23
4.159132387370911
 33
0
  0
ENDBLK
  5
155
330
153
100
AcDbEntity
  8
0
100
AcDbBlockEnd
  0
BLOCK
  5
157
330
156
100
AcDbEntity
  8
0
100
AcDbBlockBegin
  2
*D33
 70
    1
 10
0
 20
0
  3
*D33
  1

  0
LINE
  5
2F8
100
AcDbEntity
  8
DIM Tom Trees Row B
  6
ByBlock
 62
    0
370
   -2
100
AcDbLine
 10
0
 20
-18
 11
40.62033366017796
 21
-18
  0
SOLID
  5
2F9
100
AcDbEntity
  8
DIM Tom Trees Row B
  6
ByBlock
 62
    0
370
   -2
100
AcDbTrace
 10
0
 20
-18
 30
0
 11
0.5
 21
-17.91674306844543
 31
0
 12
0.5
 22
-18.08325693155457
 32
0
 13
0.5
 23
-18.08325693155457
 33
0
  0
SOLID
  5
2FA
100
AcDbEntity
  8
DIM Tom Trees Row B
  6
ByBlock
 62
    0
370
   -2
100
AcDbTrace
 10
40.62033366017796
 20
-18
 30
0
 11
40.12033366017796
 21
-18.08325693155457
 31
0
 12
40.12033366017796
 22
-17.91674306844543
 32
0
 13
40.12033366017796
 23
-17.91674306844543
 33
0
  0
MTEXT
  5
2FB
100
AcDbEntity
  8
DIM Tom Trees Row B
  6
CONTINUOUS
 62
    0
370
   -2
100
AcDbMText
 10
20.31016683008898
 20
-17.525
 30
0
 40
0.75
 41
2.416666666666713
 71
    5
 72
    1
  1
40.62
  7
standard
210
0
220
0
230
1
 50
0
 73
    2
 44
1
  0
LINE
  5
2FC
100
AcDbEntity
  8
DIM Tom Trees Row B
  6
ByBlock
 62
    0
370
   -2
100
AcDbLine
 10
-1.836909530733566e-017
 20
-0.1
 11
-9.18454765366783e-018
 21
-18.05
  0
LINE
  5
2FD
100
AcDbEntity
  8
DIM Tom Trees Row B
  6
ByBlock
 62
    0
370
   -2
100
AcDbLine
 10
40.62033366017796
 20
8.167949192431127
 11
40.62033366017796
 21
-18.05
  0
ENDBLK
  5
158
330
156
100
AcDbEntity
  8
0
100
AcDbBlockEnd
  0
BLOCK
  5
15A
330
159
100
AcDbEntity
  8
0
100
AcDbBlockBegin
  2
*D58
 70
    1
 10
0
 20
0
  3
*D58
  1

  0
ENDBLK
  5
15B
330
159
100
AcDbEntity
  8
0
100
AcDbBlockEnd
  0
BLOCK
  5
15D
330
15C
100
AcDbEntity
  8
0
100
AcDbBlockBegin
  2
*D90
 70
    1
 10
0
 20
0
  3
*D90
  1

  0
LINE
  5
2FE
100
AcDbEntity
  8
COORD Trees Tom Row A
  6
CONTINUOUS
 62
    7
370
    0
100
AcDbLine
 10
26
 20
13.86370330515627
 11
27
 21
14.86370330515627
  0
LINE
  5
2FF
100
AcDbEntity
  8
COORD Trees Tom Row A
  6
CONTINUOUS
 62
    7
370
    0
100
AcDbLine
 10
27
 20
14.86370330515627
 11
28
 21
14.86370330515627
  0
SOLID
  5
300
100
AcDbEntity
  8
COORD Trees Tom Row A
  6
CONTINUOUS
 62
    7
370
    0
100
AcDbTrace
 10
26
 20
13.86370330515627
 30
0
 11
26.29468184971025
 21
14.27612823663256
 31
0
 12
26.41242493147629
 22
14.15838515486652
 32
0
 13
26.41242493147629
 23
14.15838515486652
 33
0
  0
ENDBLK
  5
15E
330
15C
100
AcDbEntity
  8
0
100
AcDbBlockEnd
  0
BLOCK
  5
160
330
15F
100
AcDbEntity
  8
0
100
AcDbBlockBegin
  2
*D48
 70
    1
 10
0
 20
0
  3
*D48
  1

  0
LINE
  5
301
100
AcDbEntity
  8
DIM Green Canes
  6
ByBlock
 62
    0
370
   -2
100
AcDbLine
 10
-5.999999999999999
 20
12
 11
-6
 21
3.730349362740526e-016
  0
SOLID
  5
302
100
AcDbEntity
  8
DIM Green Canes
  6
ByBlock
 62
    0
370
   -2
100
AcDbTrace
 10
-5.999999999999999
 20
12
 30
0
 11
-5.916743068445431
 21
11.5
 31
0
 12
-6.083256931554567
 22
11.5
 32
0
 13
-6.083256931554567
 23
11.5
 33
0
  0
SOLID
  5
303
100
AcDbEntity
  8
DIM Green Canes
  6
ByBlock
 62
    0
370
   -2
100
AcDbTrace
 10
-6
 20
3.730349362740526e-016
 30
0
 11
-6.083256931554568
 21
0.5000000000000003
 31
0
 12
-5.916743068445432
 22
0.5000000000000003
 32
0
 13
-5.916743068445432
 23
0.5000000000000003
 33
0
  0
MTEXT
  5
304
100
AcDbEntity
  8
DIM Green Canes
  6
CONTINUOUS
 62
    0
370
   -2
100
AcDbMText
 10
-6.475
 20
6
 30
0
 40
0.75
 41
0.75
 71
    5
 72
    1
  1
12
  7
standard
210
0
220
0
230
1
 50
90
 73
    2
 44
1
  0
LINE
  5
305
100
AcDbEntity
  8
DIM Green Canes
  6
ByBlock
 62
    0
370
   -2
100
AcDbLine
 10
0.5249999974999998
 20
12
 11
-6.049999999999999
 21
12
  0
LINE
  5
306
100
AcDbEntity
  8
DIM Green Canes
  6
ByBlock
 62
    0
370
   -2
100
AcDbLine
 10
-0.1
 20
1.224606353822377e-017
 11
-6.05
 21
3.791579680431645e-016
  0
ENDBLK
  5
161
330
15F
100
AcDbEntity
  8
0
100
AcDbBlockEnd
  0
BLOCK
  5
163
330
162
100
AcDbEntity
  8
0
100
AcDbBlockBegin
  2
*D28
 70
    1
 10
0
 20
0
  3
*D28
  1

  0
LINE
  5
307
100
AcDbEntity
  8
DIM Tom Trees Row A
  6
ByBlock
 62
    0
370
   -2
100
AcDbLine
 10
-3.552713678800501e-015
 20
-13
 11
29.8637
 21
-13
  0
SOLID
  5
308
100
AcDbEntity
  8
DIM Tom Trees Row A
  6
ByBlock
 62
    0
370
   -2
100
AcDbTrace
 10
-3.552713678800501e-015
 20
-13
 30
0
 11
0.4999999999999964
 21
-12.91674306844543
 31
0
 12
0.4999999999999964
 22
-13.08325693155457
 32
0
 13
0.4999999999999964
 23
-13.08325693155457
 33
0
  0
SOLID
  5
309
100
AcDbEntity
  8
DIM Tom Trees Row A
  6
ByBlock
 62
    0
370
   -2
100
AcDbTrace
 10
29.8637
 20
-13
 30
0
 11
29.3637
 21
-13.08325693155457
 31
0
 12
29.3637
 22
-12.91674306844543
 32
0
 13
29.3637
 23
-12.91674306844543
 33
0
  0
MTEXT
  5
30A
100
AcDbEntity
  8
DIM Tom Trees Row A
  6
CONTINUOUS
 62
    0
370
   -2
100
AcDbMText
 10
14.93185
 20
-12.525
 30
0
 40
0.75
 41
2.33333333333338
 71
    5
 72
    1
  1
29.86
  7
standard
210
0
220
0
230
1
 50
0
 73
    2
 44
1
  0
LINE
  5
30B
100
AcDbEntity
  8
DIM Tom Trees Row A
  6
ByBlock
 62
    0
370
   -2
100
AcDbLine
 10
-1.836909530733566e-017
 20
-0.1
 11
-3.561898226454169e-015
 21
-13.05
  0
LINE
  5
30C
100
AcDbEntity
  8
DIM Tom Trees Row A
  6
ByBlock
 62
    0
370
   -2
100
AcDbLine
 10
29.8637
 20
12.72840330515628
 11
29.8637
 21
-13.05
  0
ENDBLK
  5
164
330
162
100
AcDbEntity
  8
0
100
AcDbBlockEnd
  0
BLOCK
  5
166
330
165
100
AcDbEntity
  8
0
100
AcDbBlockBegin
  2
*D36
 70
    1
 10
0
 20
0
  3
*D36
  1

  0
LINE
  5
30D
100
AcDbEntity
  8
DIM Tom Trees Row B
  6
ByBlock
 62
    0
370
   -2
100
AcDbLine
 10
-4
 20
8.26794919243113
 11
-4
 21
2.486899575160351e-016
  0
SOLID
  5
30E
100
AcDbEntity
  8
DIM Tom Trees Row B
  6
ByBlock
 62
    0
370
   -2
100
AcDbTrace
 10
-4
 20
8.26794919243113
 30
0
 11
-3.916743068445431
 21
7.76794919243113
 31
0
 12
-4.083256931554567
 22
7.76794919243113
 32
0
 13
-4.083256931554567
 23
7.76794919243113
 33
0
  0
SOLID
  5
30F
100
AcDbEntity
  8
DIM Tom Trees Row B
  6
ByBlock
 62
    0
370
   -2
100
AcDbTrace
 10
-4
 20
2.486899575160351e-016
 30
0
 11
-4.083256931554568
 21
0.5000000000000002
 31
0
 12
-3.916743068445432
 22
0.5000000000000002
 32
0
 13
-3.916743068445432
 23
0.5000000000000002
 33
0
  0
MTEXT
  5
310
100
AcDbEntity
  8
DIM Tom Trees Row B
  6
CONTINUOUS
 62
    0
370
   -2
100
AcDbMText
 10
-4.475
 20
4.133974596215564
 30
0
 40
0.75
 41
1.75
 71
    5
 72
    1
  1
8.27
  7
standard
210
0
220
0
230
1
 50
90
 73
    2
 44
1
  0
LINE
  5
311
100
AcDbEntity
  8
DIM Tom Trees Row B
  6
ByBlock
 62
    0
370
   -2
100
AcDbLine
 10
40.52033366017796
 20
8.267949192431127
 11
-4.05
 21
8.26794919243113
  0
LINE
  5
312
100
AcDbEntity
  8
DIM Tom Trees Row B
  6
ByBlock
 62
    0
370
   -2
100
AcDbLine
 10
-0.1
 20
1.224606353822377e-017
 11
-4.05
 21
2.54812989285147e-016
  0
ENDBLK
  5
167
330
165
100
AcDbEntity
  8
0
100
AcDbBlockEnd
  0
BLOCK
  5
169
330
168
100
AcDbEntity
  8
0
100
AcDbBlockBegin
  2
*D15
 70
    1
 10
0
 20
0
  3
*D15
  1

  0
LINE
  5
313
100
AcDbEntity
  8
DIM Red Canes
  6
ByBlock
 62
    0
370
   -2
100
AcDbLine
 10
-0.9999999999999999
 20
6
 11
1.6249999975
 21
6
  0
SOLID
  5
314
100
AcDbEntity
  8
DIM Red Canes
  6
ByBlock
 62
    0
370
   -2
100
AcDbTrace
 10
1.110223024625157e-016
 20
6
 30
0
 11
-0.4999999999999999
 21
5.916743068445432
 31
0
 12
-0.4999999999999999
 22
6.083256931554568
 32
0
 13
-0.4999999999999999
 23
6.083256931554568
 33
0
  0
SOLID
  5
315
100
AcDbEntity
  8
DIM Red Canes
  6
ByBlock
 62
    0
370
   -2
100
AcDbTrace
 10
0.6249999974999998
 20
6
 30
0
 11
1.1249999975
 21
6.083256931554568
 31
0
 12
1.1249999975
 22
5.916743068445432
 32
0
 13
1.1249999975
 23
5.916743068445432
 33
0
  0
MTEXT
  5
316
100
AcDbEntity
  8
DIM Red Canes
  6
CONTINUOUS
 62
    0
370
   -2
100
AcDbMText
 10
1.599999997500023
 20
6.475
 30
0
 40
0.75
 41
1.750000000000047
 71
    5
 72
    1
  1
0.62
  7
standard
210
0
220
0
230
1
 50
0
 73
    2
 44
1
  0
LINE
  5
317
100
AcDbEntity
  8
DIM Red Canes
  6
ByBlock
 62
    0
370
   -2
100
AcDbLine
 10
6.123031769111886e-018
 20
0.1
 11
1.140838183470716e-016
 21
6.05
  0
LINE
  5
318
100
AcDbEntity
  8
DIM Red Canes
  6
ByBlock
 62
    0
370
   -2
100
AcDbLine
 10
0.6249999974999998
 20
7.9
 11
0.6249999974999998
 21
5.95
  0
ENDBLK
  5
16A
330
168
100
AcDbEntity
  8
0
100
AcDbBlockEnd
  0
BLOCK
  5
16C
330
16B
100
AcDbEntity
  8
0
100
AcDbBlockBegin
  2
*D25
 70
    1
 10
0
 20
0
  3
*D25
  1

  0
LINE
  5
319
100
AcDbEntity
  8
DIM Big Trees
  6
ByBlock
 62
    0
370
   -2
100
AcDbLine
 10
0
 20
-10
 11
24
 21
-10
  0
SOLID
  5
31A
100
AcDbEntity
  8
DIM Big Trees
  6
ByBlock
 62
    0
370
   -2
100
AcDbTrace
 10
0
 20
-10
 30
0
 11
0.5
 21
-9.916743068445433
 31
0
 12
0.5
 22
-10.08325693155457
 32
0
 13
0.5
 23
-10.08325693155457
 33
0
  0
SOLID
  5
31B
100
AcDbEntity
  8
DIM Big Trees
  6
ByBlock
 62
    0
370
   -2
100
AcDbTrace
 10
24
 20
-10
 30
0
 11
23.5
 21
-10.08325693155457
 31
0
 12
23.5
 22
-9.916743068445433
 32
0
 13
23.5
 23
-9.916743068445433
 33
0
  0
MTEXT
  5
31C
100
AcDbEntity
  8
DIM Big Trees
  6
CONTINUOUS
 62
    0
370
   -2
100
AcDbMText
 10
12
 20
-9.525
 30
0
 40
0.75
 41
1
 71
    5
 72
    1
  1
24
  7
standard
210
0
220
0
230
1
 50
0
 73
    2
 44
1
  0
LINE
  5
31D
100
AcDbEntity
  8
DIM Big Trees
  6
ByBlock
 62
    0
370
   -2
100
AcDbLine
 10
-1.836909530733566e-017
 20
-0.1
 11
-9.18454765366783e-018
 21
-10.05
  0
LINE
  5
31E
100
AcDbEntity
  8
DIM Big Trees
  6
ByBlock
 62
    0
370
   -2
100
AcDbLine
 10
24
 20
7.9
 11
24
 21
-10.05
  0
ENDBLK
  5
16D
330
16B
100
AcDbEntity
  8
0
100
AcDbBlockEnd
  0
BLOCK
  5
16F
330
16E
100
AcDbEntity
  8
0
100
AcDbBlockBegin
  2
*D63
 70
    1
 10
0
 20
0
  3
*D63
  1

  0
LINE
  5
31F
100
AcDbEntity
  8
COORD Trees Tom Row A
  6
CONTINUOUS
 62
    7
370
    0
100
AcDbLine
 10
11.84376795495978
 20
7.999999999999996
 11
13
 21
9
  0
LINE
  5
320
100
AcDbEntity
  8
COORD Trees Tom Row A
  6
CONTINUOUS
 62
    7
370
    0
100
AcDbLine
 10
13
 20
9
 11
14
 21
9
  0
SOLID
  5
321
100
AcDbEntity
  8
COORD Trees Tom Row A
  6
CONTINUOUS
 62
    7
370
    0
100
AcDbTrace
 10
11.84376795495978
 20
7.999999999999996
 30
0
 11
12.16748386162616
 21
8.390050930550153
 31
0
 12
12.27641019470357
 22
8.26410681369733
 32
0
 13
12.27641019470357
 23
8.26410681369733
 33
0
  0
ENDBLK
  5
170
330
16E
100
AcDbEntity
  8
0
100
AcDbBlockEnd
  0
BLOCK
  5
172
330
171
100
AcDbEntity
  8
0
100
AcDbBlockBegin
  2
*D87
 70
    1
 10
0
 20
0
  3
*D87
  1

  0
LINE
  5
322
100
AcDbEntity
  8
LINE Origin
  6
CONTINUOUS
 62
    7
370
    0
100
AcDbLine
 10
-2
 20
2
 11
-2
 21
0
  0
SOLID
  5
323
100
AcDbEntity
  8
LINE Origin
  6
CONTINUOUS
 62
    7
370
    0
100
AcDbTrace
 10
-2
 20
2
 30
0
 11
-1.916743068445432
 21
1.5
 31
0
 12
-2.083256931554568
 22
1.5
 32
0
 13
-2.083256931554568
 23
1.5
 33
0
  0
ENDBLK
  5
173
330
171
100
AcDbEntity
  8
0
100
AcDbBlockEnd
  0
BLOCK
  5
175
330
174
100
AcDbEntity
  8
0
100
AcDbBlockBegin
  2
*D39
 70
    1
 10
0
 20
0
  3
*D39
  1

  0
LINE
  5
324
100
AcDbEntity
  8
DIM Tom Trees Row A
  6
ByBlock
 62
    0
370
   -2
100
AcDbLine
 10
-6.999999999999999
 20
12.82840330515628
 11
-7
 21
4.352074256530614e-016
  0
SOLID
  5
325
100
AcDbEntity
  8
DIM Tom Trees Row A
  6
ByBlock
 62
    0
370
   -2
100
AcDbTrace
 10
-6.999999999999999
 20
12.82840330515628
 30
0
 11
-6.916743068445431
 21
12.32840330515628
 31
0
 12
-7.083256931554567
 22
12.32840330515628
 32
0
 13
-7.083256931554567
 23
12.32840330515628
 33
0
  0
SOLID
  5
326
100
AcDbEntity
  8
DIM Tom Trees Row A
  6
ByBlock
 62
    0
370
   -2
100
AcDbTrace
 10
-7
 20
4.352074256530614e-016
 30
0
 11
-7.083256931554568
 21
0.5000000000000004
 31
0
 12
-6.916743068445432
 22
0.5000000000000004
 32
0
 13
-6.916743068445432
 23
0.5000000000000004
 33
0
  0
MTEXT
  5
327
100
AcDbEntity
  8
DIM Tom Trees Row A
  6
CONTINUOUS
 62
    0
370
   -2
100
AcDbMText
 10
-7.475
 20
6.414201652578138
 30
0
 40
0.75
 41
2.166666666666713
 71
    5
 72
    1
  1
12.83
  7
standard
210
0
220
0
230
1
 50
90
 73
    2
 44
1
  0
LINE
  5
328
100
AcDbEntity
  8
DIM Tom Trees Row A
  6
ByBlock
 62
    0
370
   -2
100
AcDbLine
 10
29.7637
 20
12.82840330515628
 11
-7.049999999999999
 21
12.82840330515628
  0
LINE
  5
329
100
AcDbEntity
  8
DIM Tom Trees Row A
  6
ByBlock
 62
    0
370
   -2
100
AcDbLine
 10
-0.1
 20
1.224606353822377e-017
 11
-7.05
 21
4.413304574221733e-016
  0
ENDBLK
  5
176
330
174
100
AcDbEntity
  8
0
100
AcDbBlockEnd
  0
BLOCK
  5
178
330
177
100
AcDbEntity
  8
0
100
AcDbBlockBegin
  2
Green Cane H
 70
    0
 10
0
 20
0
  3
Green Cane H
  1

  0
CIRCLE
  5
32A
100
AcDbEntity
  8
CANES Green
  6
ByLayer
 62
  256
370
   -1
100
AcDbCircle
 10
0
 20
0
 40
0.0416666665
  0
CIRCLE
  5
32B
100
AcDbEntity
  8
CANES Green
  6
ByLayer
 62
  256
370
   -1
100
AcDbCircle
 10
0.6249999974999998
 20
0
 40
0.0416666665
  0
LINE
  5
32C
100
AcDbEntity
  8
CANES Green
  6
ByLayer
 62
  256
370
   -1
100
AcDbLine
 10
0
 20
0.04166666650000028
 11
0.6249999974999998
 21
0.04166666650000028
  0
LINE
  5
32D
100
AcDbEntity
  8
CANES Green
  6
ByLayer
 62
  256
370
   -1
100
AcDbLine
 10
0
 20
-0.04166666650000028
 11
0.6249999974999998
 21
-0.04166666650000028
  0
ENDBLK
  5
179
330
177
100
AcDbEntity
  8
0
100
AcDbBlockEnd
  0
BLOCK
  5
17B
330
17A
100
AcDbEntity
  8
0
100
AcDbBlockBegin
  2
Red Cane H
 70
    0
 10
0
 20
0
  3
Red Cane H
  1

  0
CIRCLE
  5
32E
100
AcDbEntity
  8
CANES Red
  6
ByLayer
 62
  256
370
   -1
100
AcDbCircle
 10
0.6249999974999998
 20
0
 40
0.0416666665
  0
CIRCLE
  5
32F
100
AcDbEntity
  8
CANES Red
  6
ByLayer
 62
  256
370
   -1
100
AcDbCircle
 10
0
 20
0
 40
0.0416666665
  0
LINE
  5
330
100
AcDbEntity
  8
CANES Red
  6
ByLayer
 62
  256
370
   -1
100
AcDbLine
 10
0
 20
0.04166666650000028
 11
0.6249999974999998
 21
0.04166666650000028
  0
LINE
  5
331
100
AcDbEntity
  8
CANES Red
  6
ByLayer
 62
  256
370
   -1
100
AcDbLine
 10
0
 20
-0.04166666650000028
 11
0.6249999974999998
 21
-0.04166666650000028
  0
ENDBLK
  5
17C
330
17A
100
AcDbEntity
  8
0
100
AcDbBlockEnd
  0
BLOCK
  5
17E
330
17D
100
AcDbEntity
  8
0
100
AcDbBlockBegin
  2
Green Cane V
 70
    0
 10
0
 20
0
  3
Green Cane V
  1

  0
INSERT
  5
332
100
AcDbEntity
  8
CANES Green
  6
ByLayer
 62
  256
370
   -1
100
AcDbBlockReference
  2
Green Cane H
 10
0
 20
0
 30
0
 41
1
 42
1
 43
0
 50
90
 70
    1
 71
    1
 44
0
 45
0
  0
INSERT
  5
333
100
AcDbEntity
  8
0
  6
ByLayer
 62
  256
370
   -1
100
AcDbBlockReference
  2
Red Cane
 10
0.2499999990000017
 20
0.6666666639999992
 30
0
 41
1
 42
1
 43
0
 50
90
 70
    1
 71
    1
 44
1
 45
1
  0
ENDBLK
  5
17F
330
17D
100
AcDbEntity
  8
0
100
AcDbBlockEnd
  0
BLOCK
  5
181
330
180
100
AcDbEntity
  8
0
100
AcDbBlockBegin
  2
Red Cane V
 70
    0
 10
0
 20
0
  3
Red Cane V
  1

  0
INSERT
  5
334
100
AcDbEntity
  8
CANES Red
  6
ByLayer
 62
  256
370
   -1
100
AcDbBlockReference
  2
Red Cane H
 10
0
 20
0
 30
0
 41
1
 42
1
 43
0
 50
90
 70
    1
 71
    1
 44
0
 45
0
  0
ENDBLK
  5
182
330
180
100
AcDbEntity
  8
0
100
AcDbBlockEnd
  0
ENDSEC
  0
SECTION
  2
ENTITIES
  0
LINE
  5
335
100
AcDbEntity
  8
0
  6
ByLayer
 62
  256
370
   -1
100
AcDbLine
 10
0
 20
0
 11
0
 21
4
  0
LINE
  5
336
100
AcDbEntity
  8
0
  6
ByLayer
 62
  256
370
   -1
100
AcDbLine
 10
0
 20
4
 11
0
 21
8
  0
LINE
  5
337
100
AcDbEntity
  8
0
  6
ByLayer
 62
  256
370
   -1
100
AcDbLine
 10
0
 20
8
 11
0
 21
12
  0
LINE
  5
338
100
AcDbEntity
  8
0
  6
ByLayer
 62
  256
370
   -1
100
AcDbLine
 10
0
 20
12
 11
0
 21
16
  0
LINE
  5
339
100
AcDbEntity
  8
0
  6
ByLayer
 62
  256
370
   -1
100
AcDbLine
 10
0
 20
16
 11
0
 21
20
  0
LINE
  5
33A
100
AcDbEntity
  8
0
  6
ByLayer
 62
  256
370
   -1
100
AcDbLine
 10
0
 20
20
 11
0
 21
24
  0
LINE
  5
33B
100
AcDbEntity
  8
0
  6
ByLayer
 62
  256
370
   -1
100
AcDbLine
 10
0
 20
4
 11
4
 21
4
  0
LINE
  5
33C
100
AcDbEntity
  8
0
  6
ByLayer
 62
  256
370
   -1
100
AcDbLine
 10
4
 20
4
 11
8
 21
4
  0
LINE
  5
33D
100
AcDbEntity
  8
0
  6
ByLayer
 62
  256
370
   -1
100
AcDbLine
 10
8
 20
4
 11
12
 21
4
  0
LINE
  5
33E
100
AcDbEntity
  8
0
  6
ByLayer
 62
  256
370
   -1
100
AcDbLine
 10
12
 20
4
 11
16
 21
4
  0
LINE
  5
33F
100
AcDbEntity
  8
0
  6
ByLayer
 62
  256
370
   -1
100
AcDbLine
 10
16
 20
4
 11
20
 21
4
  0
LINE
  5
340
100
AcDbEntity
  8
0
  6
ByLayer
 62
  256
370
   -1
100
AcDbLine
 10
20
 20
4
 11
24
 21
4
  0
LINE
  5
341
100
AcDbEntity
  8
0
  6
ByLayer
 62
  256
370
   -1
100
AcDbLine
 10
24
 20
4
 11
28
 21
4
  0
LINE
  5
342
100
AcDbEntity
  8
0
  6
ByLayer
 62
  256
370
   -1
100
AcDbLine
 10
28
 20
4
 11
32
 21
4
  0
LINE
  5
343
100
AcDbEntity
  8
0
  6
ByLayer
 62
  256
370
   -1
100
AcDbLine
 10
32
 20
4
 11
36
 21
4
  0
LINE
  5
344
100
AcDbEntity
  8
0
  6
ByLayer
 62
  256
370
   -1
100
AcDbLine
 10
36
 20
4
 11
40
 21
4
  0
LINE
  5
345
100
AcDbEntity
  8
0
  6
ByLayer
 62
  256
370
   -1
100
AcDbLine
 10
40
 20
4
 11
44
 21
4
  0
LINE
  5
346
100
AcDbEntity
  8
0
  6
ByLayer
 62
  256
370
   -1
100
AcDbLine
 10
44
 20
4
 11
48
 21
4
  0
INSERT
  5
347
100
AcDbEntity
  8
CANES Red
  6
ByLayer
 62
  256
370
   -1
100
AcDbBlockReference
  2
Red Cane V
 10
4
 20
4
 30
0
 41
1
 42
1
 43
0
 50
0
 70
    1
 71
    1
 44
1
 45
1
  0
INSERT
  5
348
100
AcDbEntity
  8
CANES Red
  6
ByLayer
 62
  256
370
   -1
100
AcDbBlockReference
  2
Green Cane V
 10
8
 20
4
 30
0
 41
1
 42
1
 43
0
 50
0
 70
    1
 71
    1
 44
1
 45
1
  0
INSERT
  5
349
100
AcDbEntity
  8
CANES Red
  6
ByLayer
 62
  256
370
   -1
100
AcDbBlockReference
  2
Green Cane V
 10
16
 20
4
 30
0
 41
1
 42
1
 43
0
 50
0
 70
    1
 71
    1
 44
1
 45
1
  0
INSERT
  5
34A
100
AcDbEntity
  8
CANES Red
  6
ByLayer
 62
  256
370
   -1
100
AcDbBlockReference
  2
Green Cane V
 10
24
 20
4
 30
0
 41
1
 42
1
 43
0
 50
0
 70
    1
 71
    1
 44
1
 45
1
  0
INSERT
  5
34B
100
AcDbEntity
  8
CANES Red
  6
ByLayer
 62
  256
370
   -1
100
AcDbBlockReference
  2
Green Cane V
 10
32
 20
4
 30
0
 41
1
 42
1
 43
0
 50
0
 70
    1
 71
    1
 44
1
 45
1
  0
INSERT
  5
34C
100
AcDbEntity
  8
CANES Red
  6
ByLayer
 62
  256
370
   -1
100
AcDbBlockReference
  2
Green Cane V
 10
40
 20
4
 30
0
 41
1
 42
1
 43
0
 50
0
 70
    1
 71
    1
 44
1
 45
1
  0
INSERT
  5
34D
100
AcDbEntity
  8
CANES Red
  6
ByLayer
 62
  256
370
   -1
100
AcDbBlockReference
  2
Green Cane H
 10
0
 20
12
 30
0
 41
1
 42
1
 43
0
 50
0
 70
    1
 71
    1
 44
1
 45
1
  0
INSERT
  5
34E
100
AcDbEntity
  8
CANES Red
  6
ByLayer
 62
  256
370
   -1
100
AcDbBlockReference
  2
Green Cane H
 10
0
 20
20
 30
0
 41
1
 42
1
 43
0
 50
0
 70
    1
 71
    1
 44
1
 45
1
  0
INSERT
  5
34F
100
AcDbEntity
  8
CANES Red
  6
ByLayer
 62
  256
370
   -1
100
AcDbBlockReference
  2
Green Cane V
 10
0
 20
4
 30
0
 41
1
 42
1
 43
0
 50
315
 70
    1
 71
    1
 44
1
 45
1
  0
INSERT
  5
350
100
AcDbEntity
  8
CANES Red
  6
ByLayer
 62
  256
370
   -1
100
AcDbBlockReference
  2
Red Cane V
 10
43
 20
6
 30
0
 41
1
 42
1
 43
0
 50
29.99999999999999
 70
    1
 71
    1
 44
1
 45
1
  0
INSERT
  5
351
100
AcDbEntity
  8
CANES Red
  6
ByLayer
 62
  256
370
   -1
100
AcDbBlockReference
  2
Green Cane V
 10
46
 20
8
 30
0
 41
1
 42
1
 43
0
 50
29.99999999999999
 70
    1
 71
    1
 44
1
 45
1
  0
INSERT
  5
352
100
AcDbEntity
  8
CANES Red
  6
ByLayer
 62
  256
370
   -1
100
AcDbBlockReference
  2
Red Cane V
 10
49
 20
10
 30
0
 41
1
 42
1
 43
0
 50
90
 70
    1
 71
    1
 44
1
 45
1
  0
INSERT
  5
353
100
AcDbEntity
  8
CANES Red
  6
ByLayer
 62
  256
370
   -1
100
AcDbBlockReference
  2
Green Cane V
 10
49
 20
14
 30
0
 41
1
 42
1
 43
0
 50
90
 70
    1
 71
    1
 44
1
 45
1
  0
INSERT
  5
354
100
AcDbEntity
  8
CANES Red
  6
ByLayer
 62
  256
370
   -1
100
AcDbBlockReference
  2
Red Cane V
 10
49
 20
18
 30
0
 41
1
 42
1
 43
0
 50
90
 70
    1
 71
    1
 44
1
 45
1
  0
INSERT
  5
355
100
AcDbEntity
  8
CANES Red
  6
ByLayer
 62
  256
370
   -1
100
AcDbBlockReference
  2
Green Cane V
 10
49
 20
22
 30
0
 41
1
 42
1
 43
0
 50
90
 70
    1
 71
    1
 44
1
 45
1
  0
CIRCLE
  5
356
100
AcDbEntity
  8
TREES Tom Row A RGBW
  6
ByLayer
 62
  256
370
   -1
100
AcDbCircle
 10
22
 20
13.86370330515627
 40
0.5
  0
CIRCLE
  5
357
100
AcDbEntity
  8
TREES Tom Row A RGBW
  6
ByLayer
 62
  256
370
   -1
100
AcDbCircle
 10
18.13629669484373
 20
12.82842712474619
 40
0.5
  0
CIRCLE
  5
358
100
AcDbEntity
  8
TREES Tom Row A RGBW
  6
ByLayer
 62
  256
370
   -1
100
AcDbCircle
 10
14.67219507970598
 20
10.82842712474619
 40
0.5
  0
CIRCLE
  5
359
100
AcDbEntity
  8
TREES Tom Row A RGBW
  6
ByLayer
 62
  256
370
   -1
100
AcDbCircle
 10
11.84376795495978
 20
7.999999999999996
 40
0.5
  0
CIRCLE
  5
35A
100
AcDbEntity
  8
TREES Tom Row B VW
  6
ByLayer
 62
  256
370
   -1
100
AcDbCircle
 10
19.03287216701178
 20
17.20976852010751
 40
0.5
  0
CIRCLE
  5
35B
100
AcDbEntity
  8
TREES Tom Row B VW
  6
ByLayer
 62
  256
370
   -1
100
AcDbCircle
 10
14.40424588727485
 20
15.29252873988394
 40
0.5
  0
CIRCLE
  5
35C
100
AcDbEntity
  8
TREES Tom Row B VW
  6
ByLayer
 62
  256
370
   -1
100
AcDbCircle
 10
10.42955439258669
 20
12.24264068711928
 40
0.5
  0
CIRCLE
  5
35D
100
AcDbEntity
  8
TREES Tom Row B VW
  6
ByLayer
 62
  256
370
   -1
100
AcDbCircle
 10
7.379666339822029
 20
8.26794919243112
 40
0.5
  0
CIRCLE
  5
35E
100
AcDbEntity
  8
TREES Tom Row B VW
  6
ByLayer
 62
  256
370
   -1
100
AcDbCircle
 10
40.62033366017796
 20
8.267949192431127
 40
0.5
  0
CIRCLE
  5
35F
100
AcDbEntity
  8
TREES Tom Row B VW
  6
ByLayer
 62
  256
370
   -1
100
AcDbCircle
 10
37.5704
 20
12.24260330515628
 40
0.5
  0
CIRCLE
  5
360
100
AcDbEntity
  8
TREES Tom Row B VW
  6
ByLayer
 62
  256
370
   -1
100
AcDbCircle
 10
33.5958
 20
15.29250330515627
 40
0.5
  0
CIRCLE
  5
361
100
AcDbEntity
  8
TREES Tom Row B VW
  6
ByLayer
 62
  256
370
   -1
100
AcDbCircle
 10
28.9671
 20
17.20980330515627
 40
0.5
  0
CIRCLE
  5
362
100
AcDbEntity
  8
TREES Tom Row A RGBW
  6
ByLayer
 62
  256
370
   -1
100
AcDbCircle
 10
26
 20
13.86370330515627
 40
0.5
  0
CIRCLE
  5
363
100
AcDbEntity
  8
TREES Tom Row A RGBW
  6
ByLayer
 62
  256
370
   -1
100
AcDbCircle
 10
29.8637
 20
12.82840330515628
 40
0.5
  0
CIRCLE
  5
364
100
AcDbEntity
  8
TREES Tom Row A RGBW
  6
ByLayer
 62
  256
370
   -1
100
AcDbCircle
 10
33.3278
 20
10.82840330515628
 40
0.5
  0
CIRCLE
  5
365
100
AcDbEntity
  8
TREES Tom Row A RGBW
  6
ByLayer
 62
  256
370
   -1
100
AcDbCircle
 10
36.1562
 20
8.000003305156275
 40
0.5
  0
CIRCLE
  5
366
100
AcDbEntity
  8
TREES Big
  6
ByLayer
 62
  256
370
   -1
100
AcDbCircle
 10
24
 20
8
 40
1
  0
CIRCLE
  5
367
100
AcDbEntity
  8
TREES Big
  6
ByLayer
 62
  256
370
   -1
100
AcDbCircle
 10
24
 20
17.86370330515627
 40
1
  0
CIRCLE
  5
368
100
AcDbEntity
  8
TREES Red Mini
  6
ByLayer
 62
  256
370
   -1
100
AcDbCircle
 10
38.1979
 20
17.17530330515627
 40
0.5
  0
CIRCLE
  5
369
100
AcDbEntity
  8
TREES Red Mini
  6
ByLayer
 62
  256
370
   -1
100
AcDbCircle
 10
9.80210364763621
 20
17.17525384707607
 40
0.5
  0
LINE
  5
36A
100
AcDbEntity
  8
0
  6
DOTTINY
 62
  256
370
   -1
100
AcDbLine
 10
22
 20
14
 11
24
 21
14
  0
LINE
  5
36B
100
AcDbEntity
  8
0
  6
DOTTINY
 62
  256
370
   -1
100
AcDbLine
 10
24
 20
14
 11
26
 21
14
  0
LINE
  5
36C
100
AcDbEntity
  8
0
  6
DOTTINY
 62
  256
370
   -1
100
AcDbLine
 10
26
 20
14
 11
27.93185165257814
 21
13.48236190979496
  0
LINE
  5
36D
100
AcDbEntity
  8
0
  6
DOTTINY
 62
  256
370
   -1
100
AcDbLine
 10
27.93185165257814
 20
13.48236190979496
 11
29.86370330515627
 21
12.96472381958992
  0
LINE
  5
36E
100
AcDbEntity
  8
0
  6
DOTTINY
 62
  256
370
   -1
100
AcDbLine
 10
29.86370330515627
 20
12.96472381958992
 11
31.59575411272515
 21
11.96472381958992
  0
LINE
  5
36F
100
AcDbEntity
  8
0
  6
DOTTINY
 62
  256
370
   -1
100
AcDbLine
 10
31.59575411272515
 20
11.96472381958992
 11
33.32780492029402
 21
10.96472381958992
  0
LINE
  5
370
100
AcDbEntity
  8
0
  6
DOTTINY
 62
  256
370
   -1
100
AcDbLine
 10
33.32780492029402
 20
10.96472381958992
 11
34.74201848266711
 21
9.550510257216825
  0
LINE
  5
371
100
AcDbEntity
  8
0
  6
DOTTINY
 62
  256
370
   -1
100
AcDbLine
 10
34.74201848266711
 20
9.550510257216825
 11
36.15623204504021
 21
8.136296694843729
  0
LINE
  5
372
100
AcDbEntity
  8
0
  6
DOTTINY
 62
  256
370
   -1
100
AcDbLine
 10
27.93185165257814
 20
13.48236190979496
 11
28.96712783298822
 21
17.34606521495123
  0
LINE
  5
373
100
AcDbEntity
  8
0
  6
DOTTINY
 62
  256
370
   -1
100
AcDbLine
 10
31.59575411272515
 20
11.96472381958992
 11
33.59575411272515
 21
15.42882543472767
  0
LINE
  5
374
100
AcDbEntity
  8
0
  6
DOTTINY
 62
  256
370
   -1
100
AcDbLine
 10
34.74201848266711
 20
9.550510257216825
 11
37.5704456074133
 21
12.37893738196301
  0
LINE
  5
375
100
AcDbEntity
  8
0
  6
DOTTINY
 62
  256
370
   -1
100
AcDbLine
 10
36.15623204504021
 20
8.136296694843729
 11
37.15623204504021
 21
6.404245887274852
  0
LINE
  5
376
100
AcDbEntity
  8
0
  6
DOTTINY
 62
  256
370
   -1
100
AcDbLine
 10
37.15623204504021
 20
6.404245887274852
 11
38.15623204504021
 21
4.672195079705975
  0
LINE
  5
377
100
AcDbEntity
  8
0
  6
DOTTINY
 62
  256
370
   -1
100
AcDbLine
 10
37.15623204504021
 20
6.404245887274852
 11
40.62033366017796
 21
8.404245887274852
  0
LINE
  5
378
100
AcDbEntity
  8
0
  6
DOTTINY
 62
  256
370
   -1
100
AcDbLine
 10
22
 20
14
 11
20.06814834742186
 21
13.48236190979496
  0
LINE
  5
379
100
AcDbEntity
  8
0
  6
DOTTINY
 62
  256
370
   -1
100
AcDbLine
 10
20.06814834742186
 20
13.48236190979496
 11
18.13629669484373
 21
12.96472381958991
  0
LINE
  5
37A
100
AcDbEntity
  8
0
  6
DOTTINY
 62
  256
370
   -1
100
AcDbLine
 10
18.13629669484373
 20
12.96472381958991
 11
16.40424588727485
 21
11.96472381958991
  0
LINE
  5
37B
100
AcDbEntity
  8
0
  6
DOTTINY
 62
  256
370
   -1
100
AcDbLine
 10
16.40424588727485
 20
11.96472381958991
 11
14.67219507970598
 21
10.96472381958991
  0
LINE
  5
37C
100
AcDbEntity
  8
0
  6
DOTTINY
 62
  256
370
   -1
100
AcDbLine
 10
14.67219507970598
 20
10.96472381958991
 11
13.25798151733288
 21
9.550510257216818
  0
LINE
  5
37D
100
AcDbEntity
  8
0
  6
DOTTINY
 62
  256
370
   -1
100
AcDbLine
 10
13.25798151733288
 20
9.550510257216818
 11
11.84376795495978
 21
8.136296694843722
  0
LINE
  5
37E
100
AcDbEntity
  8
0
  6
DOTTINY
 62
  256
370
   -1
100
AcDbLine
 10
11.84376795495978
 20
8.136296694843722
 11
10.84376795495978
 21
6.404245887274845
  0
LINE
  5
37F
100
AcDbEntity
  8
0
  6
DOTTINY
 62
  256
370
   -1
100
AcDbLine
 10
10.84376795495978
 20
6.404245887274845
 11
9.843767954959784
 21
4.672195079705968
  0
LINE
  5
380
100
AcDbEntity
  8
0
  6
DOTTINY
 62
  256
370
   -1
100
AcDbLine
 10
20.06814834742186
 20
13.48236190979496
 11
19.03287216701178
 21
17.34606521495123
  0
LINE
  5
381
100
AcDbEntity
  8
0
  6
DOTTINY
 62
  256
370
   -1
100
AcDbLine
 10
16.40424588727485
 20
11.96472381958991
 11
14.40424588727485
 21
15.42882543472767
  0
LINE
  5
382
100
AcDbEntity
  8
0
  6
DOTTINY
 62
  256
370
   -1
100
AcDbLine
 10
13.25798151733288
 20
9.550510257216818
 11
10.42955439258669
 21
12.37893738196301
  0
LINE
  5
383
100
AcDbEntity
  8
0
  6
DOTTINY
 62
  256
370
   -1
100
AcDbLine
 10
10.84376795495978
 20
6.404245887274845
 11
7.379666339822029
 21
8.404245887274845
  0
LINE
  5
384
100
AcDbEntity
  8
0
  6
DOTTINY
 62
  256
370
   -1
100
AcDbLine
 10
10.84376795495978
 20
6.404245887274845
 11
23.99999999999999
 21
-1.191508225450304
  0
LINE
  5
385
100
AcDbEntity
  8
0
  6
DOTTINY
 62
  256
370
   -1
100
AcDbLine
 10
13.25798151733288
 20
9.550510257216818
 11
23.99999999999999
 21
-1.191508225450298
  0
LINE
  5
386
100
AcDbEntity
  8
0
  6
DOTTINY
 62
  256
370
   -1
100
AcDbLine
 10
16.40424588727485
 20
11.96472381958991
 11
24
 21
-1.191508225450293
  0
LINE
  5
387
100
AcDbEntity
  8
0
  6
DOTTINY
 62
  256
370
   -1
100
AcDbLine
 10
20.06814834742186
 20
13.48236190979496
 11
23.99999999999999
 21
-1.191508225450297
  0
LINE
  5
388
100
AcDbEntity
  8
0
  6
DOTTINY
 62
  256
370
   -1
100
AcDbLine
 10
24
 20
14
 11
24
 21
-1.191508225450295
  0
LINE
  5
389
100
AcDbEntity
  8
0
  6
DOTTINY
 62
  256
370
   -1
100
AcDbLine
 10
27.93185165257814
 20
13.48236190979496
 11
24
 21
-1.191508225450292
  0
LINE
  5
38A
100
AcDbEntity
  8
0
  6
DOTTINY
 62
  256
370
   -1
100
AcDbLine
 10
31.59575411272515
 20
11.96472381958992
 11
23.99999999999998
 21
-1.191508225450304
  0
LINE
  5
38B
100
AcDbEntity
  8
0
  6
DOTTINY
 62
  256
370
   -1
100
AcDbLine
 10
34.74201848266711
 20
9.550510257216825
 11
23.99999999999998
 21
-1.191508225450307
  0
LINE
  5
38C
100
AcDbEntity
  8
0
  6
DOTTINY
 62
  256
370
   -1
100
AcDbLine
 10
37.15623204504021
 20
6.404245887274852
 11
23.99999999999999
 21
-1.191508225450302
  0
LINE
  5
38D
100
AcDbEntity
  8
0
  6
DOTTINY
 62
  256
370
   -1
100
AcDbLine
 10
11.84376795495978
 20
8.136296694843722
 11
36.15623204504021
 21
8.136296694843729
  0
LINE
  5
38E
100
AcDbEntity
  8
0
  6
DOTTINY
 62
  256
370
   -1
100
AcDbLine
 10
24
 20
14
 11
24
 21
18
  0
LINE
  5
38F
100
AcDbEntity
  8
0
  6
DOTTINY
 62
  256
370
   -1
100
AcDbLine
 10
33.32780492029404
 20
10.96472381958991
 11
38.19789635236381
 21
17.31155054191979
  0
LINE
  5
390
100
AcDbEntity
  8
0
  6
DOTTINY
 62
  256
370
   -1
100
AcDbLine
 10
14.67219507970598
 20
10.96472381958991
 11
9.80210364763621
 21
17.31155054191979
  0
INSERT
  5
391
100
AcDbEntity
  8
CANES Red
  6
ByLayer
 62
  256
370
   -1
100
AcDbBlockReference
  2
Red Cane H
 10
0
 20
24
 30
0
 41
1
 42
1
 43
0
 50
0
 70
    1
 71
    1
 44
1
 45
1
  0
INSERT
  5
392
100
AcDbEntity
  8
CANES Red
  6
ByLayer
 62
  256
370
   -1
100
AcDbBlockReference
  2
Red Cane H
 10
0
 20
16
 30
0
 41
1
 42
1
 43
0
 50
0
 70
    1
 71
    1
 44
1
 45
1
  0
INSERT
  5
393
100
AcDbEntity
  8
CANES Red
  6
ByLayer
 62
  256
370
   -1
100
AcDbBlockReference
  2
Red Cane H
 10
0
 20
8
 30
0
 41
1
 42
1
 43
0
 50
0
 70
    1
 71
    1
 44
1
 45
1
  0
DIMENSION
  5
394
100
AcDbEntity
  8
DIM Red Canes
  6
ByLayer
 62
  256
370
   -1
100
AcDbDimension
  2
*D1
 10
4
 20
-2
 30
0
 11
2
 21
-1.525
 31
0
 70
   32
 71
    5
 72
    0
  3
Standard
 53
0
210
0
220
0
230
1
100
AcDbAlignedDimension
 13
0
 23
0
 33
0
 14
4
 24
3.9583333335
 34
0
100
AcDbRotatedDimension
  0
INSERT
  5
395
100
AcDbEntity
  8
CANES Red
  6
ByLayer
 62
  256
370
   -1
100
AcDbBlockReference
  2
Red Cane V
 10
19.9583
 20
4
 30
0
 41
1
 42
1
 43
0
 50
0
 70
    1
 71
    1
 44
1
 45
1
  0
INSERT
  5
396
100
AcDbEntity
  8
CANES Red
  6
ByLayer
 62
  256
370
   -1
100
AcDbBlockReference
  2
Red Cane V
 10
27.9583
 20
4
 30
0
 41
1
 42
1
 43
0
 50
0
 70
    1
 71
    1
 44
1
 45
1
  0
INSERT
  5
397
100
AcDbEntity
  8
CANES Red
  6
ByLayer
 62
  256
370
   -1
100
AcDbBlockReference
  2
Red Cane V
 10
35.9583
 20
4
 30
0
 41
1
 42
1
 43
0
 50
0
 70
    1
 71
    1
 44
1
 45
1
  0
INSERT
  5
398
100
AcDbEntity
  8
CANES Red
  6
ByLayer
 62
  256
370
   -1
100
AcDbBlockReference
  2
Red Cane V
 10
12
 20
4
 30
0
 41
1
 42
1
 43
0
 50
0
 70
    1
 71
    1
 44
1
 45
1
  0
DIMENSION
  5
399
100
AcDbEntity
  8
DIM Red Canes
  6
ByLayer
 62
  256
370
   -1
100
AcDbDimension
  2
*D2
 10
12
 20
-4
 30
0
 11
6
 21
-3.525
 31
0
 70
   32
 71
    5
 72
    0
  3
Standard
 53
0
210
0
220
0
230
1
100
AcDbAlignedDimension
 13
0
 23
0
 33
0
 14
12
 24
4
 34
0
100
AcDbRotatedDimension
  0
DIMENSION
  5
39A
100
AcDbEntity
  8
DIM Red Canes
  6
ByLayer
 62
  256
370
   -1
100
AcDbDimension
  2
*D3
 10
20
 20
-6
 30
0
 11
10
 21
-5.525
 31
0
 70
   32
 71
    5
 72
    0
  3
Standard
 53
0
210
0
220
0
230
1
100
AcDbAlignedDimension
 13
0
 23
0
 33
0
 14
20
 24
4
 34
0
100
AcDbRotatedDimension
  0
DIMENSION
  5
39B
100
AcDbEntity
  8
DIM Red Canes
  6
ByLayer
 62
  256
370
   -1
100
AcDbDimension
  2
*D4
 10
28
 20
-8
 30
0
 11
14
 21
-7.525
 31
0
 70
   32
 71
    5
 72
    0
  3
Standard
 53
0
210
0
220
0
230
1
100
AcDbAlignedDimension
 13
0
 23
0
 33
0
 14
28
 24
4
 34
0
100
AcDbRotatedDimension
  0
DIMENSION
  5
39C
100
AcDbEntity
  8
DIM Red Canes
  6
ByLayer
 62
  256
370
   -1
100
AcDbDimension
  2
*D5
 10
36
 20
-10
 30
0
 11
18
 21
-9.525
 31
0
 70
   32
 71
    5
 72
    0
  3
Standard
 53
0
210
0
220
0
230
1
100
AcDbAlignedDimension
 13
0
 23
0
 33
0
 14
36
 24
4
 34
0
100
AcDbRotatedDimension
  0
DIMENSION
  5
39D
100
AcDbEntity
  8
DIM Green Canes
  6
ByLayer
 62
  256
370
   -1
100
AcDbDimension
  2
*D6
 10
-1.83697019872103e-016
 20
-3
 30
0
 11
4
 21
-2.525
 31
0
 70
   32
 71
    5
 72
    0
  3
Standard
 53
0
210
0
220
0
230
1
100
AcDbAlignedDimension
 13
8
 23
4
 33
0
 14
0
 24
0
 34
0
100
AcDbRotatedDimension
  0
DIMENSION
  5
39E
100
AcDbEntity
  8
DIM Green Canes
  6
ByLayer
 62
  256
370
   -1
100
AcDbDimension
  2
*D7
 10
-3.061616997868383e-016
 20
-4.999999999999999
 30
0
 11
8
 21
-4.524999999999999
 31
0
 70
   32
 71
    5
 72
    0
  3
Standard
 53
0
210
0
220
0
230
1
100
AcDbAlignedDimension
 13
16
 23
4
 33
0
 14
0
 24
0
 34
0
100
AcDbRotatedDimension
  0
DIMENSION
  5
39F
100
AcDbEntity
  8
DIM Green Canes
  6
ByLayer
 62
  256
370
   -1
100
AcDbDimension
  2
*D8
 10
-4.286263797015736e-016
 20
-6.999999999999998
 30
0
 11
12
 21
-6.524999999999999
 31
0
 70
   32
 71
    5
 72
    0
  3
Standard
 53
0
210
0
220
0
230
1
100
AcDbAlignedDimension
 13
24
 23
4
 33
0
 14
0
 24
0
 34
0
100
AcDbRotatedDimension
  0
DIMENSION
  5
3A0
100
AcDbEntity
  8
DIM Green Canes
  6
ByLayer
 62
  256
370
   -1
100
AcDbDimension
  2
*D9
 10
-5.51091059616309e-016
 20
-8.999999999999998
 30
0
 11
16
 21
-8.524999999999999
 31
0
 70
   32
 71
    5
 72
    0
  3
Standard
 53
0
210
0
220
0
230
1
100
AcDbAlignedDimension
 13
32
 23
4
 33
0
 14
0
 24
0
 34
0
100
AcDbRotatedDimension
  0
DIMENSION
  5
3A1
100
AcDbEntity
  8
DIM Green Canes
  6
ByLayer
 62
  256
370
   -1
100
AcDbDimension
  2
*D10
 10
-6.735557395310441e-016
 20
-11
 30
0
 11
20
 21
-10.525
 31
0
 70
   32
 71
    5
 72
    0
  3
Standard
 53
0
210
0
220
0
230
1
100
AcDbAlignedDimension
 13
40
 23
4
 33
0
 14
0
 24
0
 34
0
100
AcDbRotatedDimension
  0
DIMENSION
  5
3A2
100
AcDbEntity
  8
DIM Green Canes
  6
ByLayer
 62
  256
370
   -1
100
AcDbDimension
  2
*D11
 10
0.441941736473825
 20
2
 30
0
 11
0.2209708682369126
 21
2.475
 31
0
 70
   32
 71
    5
 72
    0
  3
Standard
 53
0
210
0
220
0
230
1
100
AcDbAlignedDimension
 13
0
 23
0
 33
0
 14
0.4419417364738251
 24
4.441941736473825
 34
0
100
AcDbRotatedDimension
  0
DIMENSION
  5
3A3
100
AcDbEntity
  8
DIM Green Canes
  6
ByLayer
 62
  256
370
   -1
100
AcDbDimension
  2
*D12
 10
-2
 20
4.441941736473825
 30
0
 11
-2.475
 21
2.220970868236912
 31
0
 70
   32
 71
    5
 72
    0
  3
Standard
 53
0
210
0
220
0
230
1
100
AcDbAlignedDimension
 13
0
 23
0
 33
0
 14
0.4419417364738251
 24
4.441941736473825
 34
0
 50
90
100
AcDbRotatedDimension
  0
DIMENSION
  5
3A4
100
AcDbEntity
  8
DIM Green Canes
  6
ByLayer
 62
  256
370
   -1
100
AcDbDimension
  2
*D13
 10
-4
 20
4.624999997500002
 30
0
 11
-4.475
 21
2.31249999875
 31
0
 70
   32
 71
    5
 72
    0
  3
Standard
 53
0
210
0
220
0
230
1
100
AcDbAlignedDimension
 13
0
 23
0
 33
0
 14
8
 24
4.6249999975
 34
0
 50
90
100
AcDbRotatedDimension
  0
DIMENSION
  5
3A5
100
AcDbEntity
  8
DIM Red Canes
  6
ByLayer
 62
  256
370
   -1
100
AcDbDimension
  2
*D14
 10
-3
 20
4.624999997500001
 30
0
 11
-3.475
 21
2.31249999875
 31
0
 70
   32
 71
    5
 72
    0
  3
Standard
 53
0
210
0
220
0
230
1
100
AcDbAlignedDimension
 13
0
 23
0
 33
0
 14
4
 24
4.6249999975
 34
0
 50
90
100
AcDbRotatedDimension
  0
DIMENSION
  5
3A6
100
AcDbEntity
  8
DIM Red Canes
  6
ByLayer
 62
  256
370
   -1
100
AcDbDimension
  2
*D15
 10
0.6249999974999997
 20
6
 30
0
 11
0.31249999875
 21
6.475
 31
0
 70
   32
 71
    5
 72
    0
  3
Standard
 53
0
210
0
220
0
230
1
100
AcDbAlignedDimension
 13
0
 23
0
 33
0
 14
0.6249999974999998
 24
8
 34
0
100
AcDbRotatedDimension
  0
DIMENSION
  5
3A7
100
AcDbEntity
  8
DIM Green Canes
  6
ByLayer
 62
  256
370
   -1
100
AcDbDimension
  2
*D16
 10
0.6249999974999997
 20
10
 30
0
 11
0.31249999875
 21
10.475
 31
0
 70
   32
 71
    5
 72
    0
  3
Standard
 53
0
210
0
220
0
230
1
100
AcDbAlignedDimension
 13
0
 23
0
 33
0
 14
0.6249999974999998
 24
12
 34
0
100
AcDbRotatedDimension
  0
DIMENSION
  5
3A8
100
AcDbEntity
  8
DIM Tom Trees Row B
  6
ByLayer
 62
  256
370
   -1
100
AcDbDimension
  2
*D17
 10
7.379666339822028
 20
-2
 30
0
 11
3.689833169911014
 21
-1.525
 31
0
 70
   32
 71
    5
 72
    0
  3
Standard
 53
0
210
0
220
0
230
1
100
AcDbAlignedDimension
 13
0
 23
0
 33
0
 14
7.379666339822029
 24
8.26794919243112
 34
0
100
AcDbRotatedDimension
  0
DIMENSION
  5
3A9
100
AcDbEntity
  8
DIM Tom Trees Row B
  6
ByLayer
 62
  256
370
   -1
100
AcDbDimension
  2
*D18
 10
10.42955439258669
 20
-2.999999999999998
 30
0
 11
5.214777196293345
 21
-2.524999999999998
 31
0
 70
   32
 71
    5
 72
    0
  3
Standard
 53
0
210
0
220
0
230
1
100
AcDbAlignedDimension
 13
0
 23
0
 33
0
 14
10.42955439258669
 24
12.24264068711928
 34
0
100
AcDbRotatedDimension
  0
DIMENSION
  5
3AA
100
AcDbEntity
  8
DIM Tom Trees Row A
  6
ByLayer
 62
  256
370
   -1
100
AcDbDimension
  2
*D19
 10
11.84376795495978
 20
-4
 30
0
 11
5.921883977479893
 21
-3.525
 31
0
 70
   32
 71
    5
 72
    0
  3
Standard
 53
0
210
0
220
0
230
1
100
AcDbAlignedDimension
 13
0
 23
0
 33
0
 14
11.84376795495978
 24
7.999999999999996
 34
0
100
AcDbRotatedDimension
  0
DIMENSION
  5
3AB
100
AcDbEntity
  8
DIM Tom Trees Row B
  6
ByLayer
 62
  256
370
   -1
100
AcDbDimension
  2
*D20
 10
14.40424588727485
 20
-5
 30
0
 11
7.202122943637428
 21
-4.525
 31
0
 70
   32
 71
    5
 72
    0
  3
Standard
 53
0
210
0
220
0
230
1
100
AcDbAlignedDimension
 13
0
 23
0
 33
0
 14
14.40424588727485
 24
15.29252873988394
 34
0
100
AcDbRotatedDimension
  0
DIMENSION
  5
3AC
100
AcDbEntity
  8
DIM Tom Trees Row A
  6
ByLayer
 62
  256
370
   -1
100
AcDbDimension
  2
*D21
 10
14.67219507970597
 20
-6
 30
0
 11
7.336097539852989
 21
-5.525
 31
0
 70
   32
 71
    5
 72
    0
  3
Standard
 53
0
210
0
220
0
230
1
100
AcDbAlignedDimension
 13
0
 23
0
 33
0
 14
14.67219507970598
 24
10.82842712474619
 34
0
100
AcDbRotatedDimension
  0
DIMENSION
  5
3AD
100
AcDbEntity
  8
DIM Tom Trees Row A
  6
ByLayer
 62
  256
370
   -1
100
AcDbDimension
  2
*D22
 10
18.13629669484373
 20
-7
 30
0
 11
9.068148347421864
 21
-6.525
 31
0
 70
   32
 71
    5
 72
    0
  3
Standard
 53
0
210
0
220
0
230
1
100
AcDbAlignedDimension
 13
0
 23
0
 33
0
 14
18.13629669484373
 24
12.82842712474619
 34
0
100
AcDbRotatedDimension
  0
DIMENSION
  5
3AE
100
AcDbEntity
  8
DIM Tom Trees Row B
  6
ByLayer
 62
  256
370
   -1
100
AcDbDimension
  2
*D23
 10
19.03287216701178
 20
-8
 30
0
 11
9.516436083505891
 21
-7.525
 31
0
 70
   32
 71
    5
 72
    0
  3
Standard
 53
0
210
0
220
0
230
1
100
AcDbAlignedDimension
 13
0
 23
0
 33
0
 14
19.03287216701178
 24
17.20976852010751
 34
0
100
AcDbRotatedDimension
  0
DIMENSION
  5
3AF
100
AcDbEntity
  8
DIM Tom Trees Row A
  6
ByLayer
 62
  256
370
   -1
100
AcDbDimension
  2
*D24
 10
22
 20
-9
 30
0
 11
11
 21
-8.525
 31
0
 70
   32
 71
    5
 72
    0
  3
Standard
 53
0
210
0
220
0
230
1
100
AcDbAlignedDimension
 13
0
 23
0
 33
0
 14
22
 24
13.86370330515627
 34
0
100
AcDbRotatedDimension
  0
DIMENSION
  5
3B0
100
AcDbEntity
  8
DIM Big Trees
  6
ByLayer
 62
  256
370
   -1
100
AcDbDimension
  2
*D25
 10
24
 20
-10
 30
0
 11
12
 21
-9.525
 31
0
 70
   32
 71
    5
 72
    0
  3
Standard
 53
0
210
0
220
0
230
1
100
AcDbAlignedDimension
 13
0
 23
0
 33
0
 14
24
 24
8
 34
0
100
AcDbRotatedDimension
  0
DIMENSION
  5
3B1
100
AcDbEntity
  8
DIM Tom Trees Row A
  6
ByLayer
 62
  256
370
   -1
100
AcDbDimension
  2
*D26
 10
26
 20
-11
 30
0
 11
13
 21
-10.525
 31
0
 70
   32
 71
    5
 72
    0
  3
Standard
 53
0
210
0
220
0
230
1
100
AcDbAlignedDimension
 13
0
 23
0
 33
0
 14
26
 24
13.86370330515627
 34
0
100
AcDbRotatedDimension
  0
DIMENSION
  5
3B2
100
AcDbEntity
  8
DIM Tom Trees Row B
  6
ByLayer
 62
  256
370
   -1
100
AcDbDimension
  2
*D27
 10
28.96709999999999
 20
-12
 30
0
 11
14.48355
 21
-11.525
 31
0
 70
   32
 71
    5
 72
    0
  3
Standard
 53
0
210
0
220
0
230
1
100
AcDbAlignedDimension
 13
0
 23
0
 33
0
 14
28.9671
 24
17.20980330515627
 34
0
100
AcDbRotatedDimension
  0
DIMENSION
  5
3B3
100
AcDbEntity
  8
DIM Tom Trees Row A
  6
ByLayer
 62
  256
370
   -1
100
AcDbDimension
  2
*D28
 10
29.8637
 20
-13
 30
0
 11
14.93185
 21
-12.525
 31
0
 70
   32
 71
    5
 72
    0
  3
Standard
 53
0
210
0
220
0
230
1
100
AcDbAlignedDimension
 13
0
 23
0
 33
0
 14
29.8637
 24
12.82840330515628
 34
0
100
AcDbRotatedDimension
  0
DIMENSION
  5
3B4
100
AcDbEntity
  8
DIM Tom Trees Row A
  6
ByLayer
 62
  256
370
   -1
100
AcDbDimension
  2
*D29
 10
33.3278
 20
-14
 30
0
 11
16.66389999999999
 21
-13.525
 31
0
 70
   32
 71
    5
 72
    0
  3
Standard
 53
0
210
0
220
0
230
1
100
AcDbAlignedDimension
 13
0
 23
0
 33
0
 14
33.3278
 24
10.82840330515628
 34
0
100
AcDbRotatedDimension
  0
DIMENSION
  5
3B5
100
AcDbEntity
  8
DIM Tom Trees Row B
  6
ByLayer
 62
  256
370
   -1
100
AcDbDimension
  2
*D30
 10
33.5958
 20
-15
 30
0
 11
16.7979
 21
-14.525
 31
0
 70
   32
 71
    5
 72
    0
  3
Standard
 53
0
210
0
220
0
230
1
100
AcDbAlignedDimension
 13
0
 23
0
 33
0
 14
33.5958
 24
15.29250330515627
 34
0
100
AcDbRotatedDimension
  0
DIMENSION
  5
3B6
100
AcDbEntity
  8
DIM Tom Trees Row A
  6
ByLayer
 62
  256
370
   -1
100
AcDbDimension
  2
*D31
 10
36.1562
 20
-16.00000000000001
 30
0
 11
18.0781
 21
-15.52500000000001
 31
0
 70
   32
 71
    5
 72
    0
  3
Standard
 53
0
210
0
220
0
230
1
100
AcDbAlignedDimension
 13
0
 23
0
 33
0
 14
36.1562
 24
8.000003305156275
 34
0
100
AcDbRotatedDimension
  0
DIMENSION
  5
3B7
100
AcDbEntity
  8
DIM Tom Trees Row B
  6
ByLayer
 62
  256
370
   -1
100
AcDbDimension
  2
*D32
 10
37.5704
 20
-17
 30
0
 11
18.7852
 21
-16.525
 31
0
 70
   32
 71
    5
 72
    0
  3
Standard
 53
0
210
0
220
0
230
1
100
AcDbAlignedDimension
 13
0
 23
0
 33
0
 14
37.5704
 24
12.24260330515628
 34
0
100
AcDbRotatedDimension
  0
DIMENSION
  5
3B8
100
AcDbEntity
  8
DIM Tom Trees Row B
  6
ByLayer
 62
  256
370
   -1
100
AcDbDimension
  2
*D33
 10
40.62033366017796
 20
-18
 30
0
 11
20.31016683008898
 21
-17.525
 31
0
 70
   32
 71
    5
 72
    0
  3
Standard
 53
0
210
0
220
0
230
1
100
AcDbAlignedDimension
 13
0
 23
0
 33
0
 14
40.62033366017796
 24
8.267949192431127
 34
0
100
AcDbRotatedDimension
  0
DIMENSION
  5
3B9
100
AcDbEntity
  8
DIM Big Trees
  6
ByLayer
 62
  256
370
   -1
100
AcDbDimension
  2
*D34
 10
-2
 20
2.449293598294706e-016
 30
0
 11
-2.475
 21
4.000000000000001
 31
0
 70
   32
 71
    5
 72
    0
  3
Standard
 53
0
210
0
220
0
230
1
100
AcDbAlignedDimension
 13
24
 23
8
 33
0
 14
0
 24
0
 34
0
 50
90
100
AcDbRotatedDimension
  0
DIMENSION
  5
3BA
100
AcDbEntity
  8
DIM Tom Trees Row A
  6
ByLayer
 62
  256
370
   -1
100
AcDbDimension
  2
*D35
 10
-3
 20
3.67394039744206e-016
 30
0
 11
-3.475
 21
4.000001652578138
 31
0
 70
   32
 71
    5
 72
    0
  3
Standard
 53
0
210
0
220
0
230
1
100
AcDbAlignedDimension
 13
36.1562
 23
8.000003305156275
 33
0
 14
0
 24
0
 34
0
 50
90
100
AcDbRotatedDimension
  0
DIMENSION
  5
3BB
100
AcDbEntity
  8
DIM Tom Trees Row B
  6
ByLayer
 62
  256
370
   -1
100
AcDbDimension
  2
*D36
 10
-4
 20
4.898587196589413e-016
 30
0
 11
-4.475
 21
4.133974596215564
 31
0
 70
   32
 71
    5
 72
    0
  3
Standard
 53
0
210
0
220
0
230
1
100
AcDbAlignedDimension
 13
40.62033366017796
 23
8.267949192431127
 33
0
 14
0
 24
0
 34
0
 50
90
100
AcDbRotatedDimension
  0
DIMENSION
  5
3BC
100
AcDbEntity
  8
DIM Tom Trees Row A
  6
ByLayer
 62
  256
370
   -1
100
AcDbDimension
  2
*D37
 10
-5
 20
6.123233995736766e-016
 30
0
 11
-5.475
 21
5.414201652578138
 31
0
 70
   32
 71
    5
 72
    0
  3
Standard
 53
0
210
0
220
0
230
1
100
AcDbAlignedDimension
 13
33.3278
 23
10.82840330515628
 33
0
 14
0
 24
0
 34
0
 50
90
100
AcDbRotatedDimension
  0
DIMENSION
  5
3BD
100
AcDbEntity
  8
DIM Tom Trees Row B
  6
ByLayer
 62
  256
370
   -1
100
AcDbDimension
  2
*D38
 10
-6
 20
7.34788079488412e-016
 30
0
 11
-6.475
 21
6.121301652578139
 31
0
 70
   32
 71
    5
 72
    0
  3
Standard
 53
0
210
0
220
0
230
1
100
AcDbAlignedDimension
 13
37.5704
 23
12.24260330515628
 33
0
 14
0
 24
0
 34
0
 50
90
100
AcDbRotatedDimension
  0
DIMENSION
  5
3BE
100
AcDbEntity
  8
DIM Tom Trees Row A
  6
ByLayer
 62
  256
370
   -1
100
AcDbDimension
  2
*D39
 10
-7
 20
8.572527594031473e-016
 30
0
 11
-7.475
 21
6.414201652578138
 31
0
 70
   32
 71
    5
 72
    0
  3
Standard
 53
0
210
0
220
0
230
1
100
AcDbAlignedDimension
 13
29.8637
 23
12.82840330515628
 33
0
 14
0
 24
0
 34
0
 50
90
100
AcDbRotatedDimension
  0
DIMENSION
  5
3BF
100
AcDbEntity
  8
DIM Tom Trees Row A
  6
ByLayer
 62
  256
370
   -1
100
AcDbDimension
  2
*D40
 10
-8
 20
9.797174393178826e-016
 30
0
 11
-8.475
 21
6.931851652578139
 31
0
 70
   32
 71
    5
 72
    0
  3
Standard
 53
0
210
0
220
0
230
1
100
AcDbAlignedDimension
 13
26
 23
13.86370330515627
 33
0
 14
0
 24
0
 34
0
 50
90
100
AcDbRotatedDimension
  0
DIMENSION
  5
3C0
100
AcDbEntity
  8
DIM Tom Trees Row B
  6
ByLayer
 62
  256
370
   -1
100
AcDbDimension
  2
*D41
 10
-9
 20
1.102182119232618e-015
 30
0
 11
-9.475
 21
7.646251652578138
 31
0
 70
   32
 71
    5
 72
    0
  3
Standard
 53
0
210
0
220
0
230
1
100
AcDbAlignedDimension
 13
33.5958
 23
15.29250330515627
 33
0
 14
0
 24
0
 34
0
 50
90
100
AcDbRotatedDimension
  0
DIMENSION
  5
3C1
100
AcDbEntity
  8
DIM Tom Trees Row B
  6
ByLayer
 62
  256
370
   -1
100
AcDbDimension
  2
*D42
 10
-10
 20
1.224646799147353e-015
 30
0
 11
-10.475
 21
8.604901652578137
 31
0
 70
   32
 71
    5
 72
    0
  3
Standard
 53
0
210
0
220
0
230
1
100
AcDbAlignedDimension
 13
28.9671
 23
17.20980330515627
 33
0
 14
0
 24
0
 34
0
 50
90
100
AcDbRotatedDimension
  0
DIMENSION
  5
3C2
100
AcDbEntity
  8
DIM Red Mini Trees
  6
ByLayer
 62
  256
370
   -1
100
AcDbDimension
  2
*D43
 10
-11
 20
1.347111479062089e-015
 30
0
 11
-11.475
 21
8.587651652578138
 31
0
 70
   32
 71
    5
 72
    0
  3
Standard
 53
0
210
0
220
0
230
1
100
AcDbAlignedDimension
 13
38.1979
 23
17.17530330515627
 33
0
 14
0
 24
0
 34
0
 50
90
100
AcDbRotatedDimension
  0
DIMENSION
  5
3C3
100
AcDbEntity
  8
DIM Big Trees
  6
ByLayer
 62
  256
370
   -1
100
AcDbDimension
  2
*D44
 10
-12
 20
1.469576158976824e-015
 30
0
 11
-12.475
 21
8.931851652578139
 31
0
 70
   32
 71
    5
 72
    0
  3
Standard
 53
0
210
0
220
0
230
1
100
AcDbAlignedDimension
 13
24
 23
17.86370330515627
 33
0
 14
0
 24
0
 34
0
 50
90
100
AcDbRotatedDimension
  0
DIMENSION
  5
3C4
100
AcDbEntity
  8
DIM Red Canes
  6
ByLayer
 62
  256
370
   -1
100
AcDbDimension
  2
*D45
 10
-5
 20
6.123233995736766e-016
 30
0
 11
-5.475
 21
4
 31
0
 70
   32
 71
    5
 72
    0
  3
Standard
 53
0
210
0
220
0
230
1
100
AcDbAlignedDimension
 13
0.6249999974999998
 23
8
 33
0
 14
0
 24
0
 34
0
 50
90
100
AcDbRotatedDimension
  0
DIMENSION
  5
3C5
100
AcDbEntity
  8
DIM Red Canes
  6
ByLayer
 62
  256
370
   -1
100
AcDbDimension
  2
*D46
 10
-7
 20
8.572527594031473e-016
 30
0
 11
-7.475
 21
8
 31
0
 70
   32
 71
    5
 72
    0
  3
Standard
 53
0
210
0
220
0
230
1
100
AcDbAlignedDimension
 13
0.6249999974999998
 23
16
 33
0
 14
0
 24
0
 34
0
 50
90
100
AcDbRotatedDimension
  0
DIMENSION
  5
3C6
100
AcDbEntity
  8
DIM Red Canes
  6
ByLayer
 62
  256
370
   -1
100
AcDbDimension
  2
*D47
 10
-9
 20
1.102182119232618e-015
 30
0
 11
-9.475
 21
12
 31
0
 70
   32
 71
    5
 72
    0
  3
Standard
 53
0
210
0
220
0
230
1
100
AcDbAlignedDimension
 13
0.6249999974999998
 23
24
 33
0
 14
0
 24
0
 34
0
 50
90
100
AcDbRotatedDimension
  0
DIMENSION
  5
3C7
100
AcDbEntity
  8
DIM Green Canes
  6
ByLayer
 62
  256
370
   -1
100
AcDbDimension
  2
*D48
 10
-6
 20
7.34788079488412e-016
 30
0
 11
-6.475
 21
6
 31
0
 70
   32
 71
    5
 72
    0
  3
Standard
 53
0
210
0
220
0
230
1
100
AcDbAlignedDimension
 13
0.6249999974999998
 23
12
 33
0
 14
0
 24
0
 34
0
 50
90
100
AcDbRotatedDimension
  0
DIMENSION
  5
3C8
100
AcDbEntity
  8
DIM Green Canes
  6
ByLayer
 62
  256
370
   -1
100
AcDbDimension
  2
*D49
 10
-8
 20
9.797174393178826e-016
 30
0
 11
-8.475
 21
10
 31
0
 70
   32
 71
    5
 72
    0
  3
Standard
 53
0
210
0
220
0
230
1
100
AcDbAlignedDimension
 13
0.6249999974999998
 23
20
 33
0
 14
0
 24
0
 34
0
 50
90
100
AcDbRotatedDimension
  0
LEADER
  5
3C9
100
AcDbEntity
  8
COORD Trees Tom Row B
  6
ByLayer
 62
  256
370
   -1
100
AcDbLeader
  3
Standard
 71
    1
 72
    0
 73
    3
 74
    0
 75
    0
 40
1
 41
10
 76
5
 76
5
 10
40.62033366017796
 20
8.267949192431127
 30
0
 10
42
 20
10
 30
0
 10
43
 20
10
 30
0
 10
43
 20
10
 30
0
 10
43
 20
10
 30
0
  0
LEADER
  5
3CA
100
AcDbEntity
  8
COORD Trees Tom Row B
  6
ByLayer
 62
  256
370
   -1
100
AcDbLeader
  3
Standard
 71
    1
 72
    0
 73
    3
 74
    0
 75
    0
 40
1
 41
10
 76
3
 76
3
 10
37.5704
 20
12.24260330515628
 30
0
 10
39
 20
14
 30
0
 10
40
 20
14
 30
0
  0
LEADER
  5
3CB
100
AcDbEntity
  8
COORD Trees Tom Row B
  6
ByLayer
 62
  256
370
   -1
100
AcDbLeader
  3
Standard
 71
    1
 72
    0
 73
    3
 74
    0
 75
    0
 40
1
 41
10
 76
3
 76
3
 10
33.5958
 20
15.29250330515627
 30
0
 10
35
 20
16
 30
0
 10
36
 20
16
 30
0
  0
LEADER
  5
3CC
100
AcDbEntity
  8
COORD Trees Tom Row B
  6
ByLayer
 62
  256
370
   -1
100
AcDbLeader
  3
Standard
 71
    1
 72
    0
 73
    3
 74
    0
 75
    0
 40
1
 41
10
 76
3
 76
3
 10
28.9671
 20
17.20980330515627
 30
0
 10
31
 20
19
 30
0
 10
32
 20
19
 30
0
  0
LEADER
  5
3CD
100
AcDbEntity
  8
COORD Trees Tom Row B
  6
ByLayer
 62
  256
370
   -1
100
AcDbLeader
  3
Standard
 71
    1
 72
    0
 73
    3
 74
    0
 75
    0
 40
1
 41
10
 76
3
 76
3
 10
19.03287216701178
 20
17.20976852010751
 30
0
 10
20
 20
19
 30
0
 10
21
 20
19
 30
0
  0
LEADER
  5
3CE
100
AcDbEntity
  8
COORD Trees Tom Row B
  6
ByLayer
 62
  256
370
   -1
100
AcDbLeader
  3
Standard
 71
    1
 72
    0
 73
    3
 74
    0
 75
    0
 40
1
 41
10
 76
3
 76
3
 10
14.40424588727485
 20
15.29252873988394
 30
0
 10
15
 20
16
 30
0
 10
16
 20
16
 30
0
  0
LEADER
  5
3CF
100
AcDbEntity
  8
COORD Trees Tom Row B
  6
ByLayer
 62
  256
370
   -1
100
AcDbLeader
  3
Standard
 71
    1
 72
    0
 73
    3
 74
    0
 75
    0
 40
1
 41
10
 76
3
 76
3
 10
10.42955439258669
 20
12.24264068711928
 30
0
 10
11
 20
13
 30
0
 10
12
 20
13
 30
0
  0
LEADER
  5
3D0
100
AcDbEntity
  8
COORD Trees Tom Row B
  6
ByLayer
 62
  256
370
   -1
100
AcDbLeader
  3
Standard
 71
    1
 72
    0
 73
    3
 74
    0
 75
    0
 40
1
 41
10
 76
3
 76
3
 10
7.379666339822029
 20
8.26794919243112
 30
0
 10
9
 20
10
 30
0
 10
10
 20
10
 30
0
  0
MTEXT
  5
3D1
100
AcDbEntity
  8
COORD Trees Tom Row B
  6
ByLayer
 62
  256
370
   -1
100
AcDbMText
 10
10
 20
10
 30
0
 40
0.5
 41
3.069444444444476
 71
    4
 72
    1
  1
7.38, 8.27
  7
iso
210
0
220
0
230
1
 50
0
 73
    2
 44
1
  0
MTEXT
  5
3D2
100
AcDbEntity
  8
COORD Trees Tom Row B
  6
ByLayer
 62
  256
370
   -1
100
AcDbMText
 10
12
 20
13
 30
0
 40
0.5
 41
3.736111111111142
 71
    4
 72
    1
  1
10.43, 12.24
  7
iso
210
0
220
0
230
1
 50
0
 73
    2
 44
1
  0
MTEXT
  5
3D3
100
AcDbEntity
  8
COORD Trees Tom Row B
  6
ByLayer
 62
  256
370
   -1
100
AcDbMText
 10
16
 20
16
 30
0
 40
0.5
 41
3.736111111111142
 71
    4
 72
    1
  1
14.40, 15.29
  7
iso
210
0
220
0
230
1
 50
0
 73
    2
 44
1
  0
MTEXT
  5
3D4
100
AcDbEntity
  8
COORD Trees Tom Row B
  6
ByLayer
 62
  256
370
   -1
100
AcDbMText
 10
21
 20
19
 30
0
 40
0.5
 41
3.513888888888919
 71
    4
 72
    1
  1
19.03, 17.21
  7
iso
210
0
220
0
230
1
 50
0
 73
    2
 44
1
  0
MTEXT
  5
3D5
100
AcDbEntity
  8
COORD Trees Tom Row B
  6
ByLayer
 62
  256
370
   -1
100
AcDbMText
 10
32
 20
19
 30
0
 40
0.5
 41
3.625
 71
    4
 72
    1
  1
28.97, 17.21
  7
iso
210
0
220
0
230
1
 50
0
 73
    2
 44
1
  0
MTEXT
  5
3D6
100
AcDbEntity
  8
COORD Trees Tom Row B
  6
ByLayer
 62
  256
370
   -1
100
AcDbMText
 10
36
 20
16
 30
0
 40
0.5
 41
3.736111111111236
 71
    4
 72
    1
  1
33.06, 15.29
  7
iso
210
0
220
0
230
1
 50
0
 73
    2
 44
1
  0
MTEXT
  5
3D7
100
AcDbEntity
  8
COORD Trees Tom Row B
  6
ByLayer
 62
  256
370
   -1
100
AcDbMText
 10
40
 20
14
 30
0
 40
0.5
 41
3.791666666666728
 71
    4
 72
    1
  1
37.57, 12.24
  7
iso
210
0
220
0
230
1
 50
0
 73
    2
 44
1
  0
MTEXT
  5
3D8
100
AcDbEntity
  8
COORD Trees Tom Row B
  6
ByLayer
 62
  256
370
   -1
100
AcDbMText
 10
43
 20
10
 30
0
 40
0.5
 41
3.513888888888919
 71
    4
 72
    1
  1
40.62, 8.27
  7
iso
210
0
220
0
230
1
 50
0
 73
    2
 44
1
  0
LEADER
  5
3D9
100
AcDbEntity
  8
COORD Trees Tom Row A
  6
ByLayer
 62
  256
370
   -1
100
AcDbLeader
  3
Standard
 71
    1
 72
    0
 73
    3
 74
    0
 75
    0
 40
1
 41
10
 76
0
 76
0
  0
LEADER
  5
3DA
100
AcDbEntity
  8
COORD Trees Tom Row A
  6
ByLayer
 62
  256
370
   -1
100
AcDbLeader
  3
Standard
 71
    1
 72
    0
 73
    3
 74
    0
 75
    0
 40
1
 41
10
 76
3
 76
3
 10
36.1562
 20
8.000003305156275
 30
0
 10
37
 20
10
 30
0
 10
38
 20
10
 30
0
  0
LEADER
  5
3DB
100
AcDbEntity
  8
COORD Trees Tom Row A
  6
ByLayer
 62
  256
370
   -1
100
AcDbLeader
  3
Standard
 71
    1
 72
    0
 73
    3
 74
    0
 75
    0
 40
1
 41
10
 76
3
 76
3
 10
33.3278
 20
10.82840330515628
 30
0
 10
34
 20
13
 30
0
 10
35
 20
13
 30
0
  0
LEADER
  5
3DC
100
AcDbEntity
  8
COORD Trees Tom Row A
  6
ByLayer
 62
  256
370
   -1
100
AcDbLeader
  3
Standard
 71
    1
 72
    0
 73
    3
 74
    0
 75
    0
 40
1
 41
10
 76
3
 76
3
 10
18.13629669484373
 20
12.82842712474619
 30
0
 10
19
 20
15
 30
0
 10
20
 20
15
 30
0
  0
LEADER
  5
3DD
100
AcDbEntity
  8
COORD Trees Tom Row A
  6
ByLayer
 62
  256
370
   -1
100
AcDbLeader
  3
Standard
 71
    1
 72
    0
 73
    3
 74
    0
 75
    0
 40
1
 41
10
 76
3
 76
3
 10
14.67219507970598
 20
10.82842712474619
 30
0
 10
16
 20
12
 30
0
 10
17
 20
12
 30
0
  0
LEADER
  5
3DE
100
AcDbEntity
  8
COORD Trees Tom Row A
  6
ByLayer
 62
  256
370
   -1
100
AcDbLeader
  3
Standard
 71
    1
 72
    0
 73
    3
 74
    0
 75
    0
 40
1
 41
10
 76
3
 76
3
 10
11.84376795495978
 20
7.999999999999996
 30
0
 10
13
 20
9
 30
0
 10
14
 20
9
 30
0
  0
MTEXT
  5
3DF
100
AcDbEntity
  8
COORD Trees Tom Row A
  6
ByLayer
 62
  256
370
   -1
100
AcDbMText
 10
14
 20
9
 30
0
 40
0.5
 41
3.291666666666667
 71
    4
 72
    1
  1
11.84, 8.00
  7
iso
210
0
220
0
230
1
 50
0
 73
    2
 44
1
  0
MTEXT
  5
3E0
100
AcDbEntity
  8
COORD Trees Tom Row A
  6
ByLayer
 62
  256
370
   -1
100
AcDbMText
 10
17
 20
12
 30
0
 40
0.5
 41
3.680555555555617
 71
    4
 72
    1
  1
14.67, 10.83
  7
iso
210
0
220
0
230
1
 50
0
 73
    2
 44
1
  0
MTEXT
  5
3E1
100
AcDbEntity
  8
COORD Trees Tom Row A
  6
ByLayer
 62
  256
370
   -1
100
AcDbMText
 10
35
 20
13
 30
0
 40
0.5
 41
3.736111111111266
 71
    4
 72
    1
  1
33.33, 10.83
  7
iso
210
0
220
0
230
1
 50
0
 73
    2
 44
1
  0
MTEXT
  5
3E2
100
AcDbEntity
  8
COORD Trees Tom Row A
  6
ByLayer
 62
  256
370
   -1
100
AcDbMText
 10
38
 20
10
 30
0
 40
0.5
 41
3.347222222222315
 71
    4
 72
    1
  1
36.16, 8.00
  7
iso
210
0
220
0
230
1
 50
0
 73
    2
 44
1
  0
MTEXT
  5
3E3
100
AcDbEntity
  8
COORD Trees Tom Row A
  6
ByLayer
 62
  256
370
   -1
100
AcDbMText
 10
20
 20
15
 30
0
 40
0.5
 41
3.569444444444475
 71
    4
 72
    1
  1
18.14, 12.83
  7
iso
210
0
220
0
230
1
 50
0
 73
    2
 44
1
  0
LEADER
  5
3E4
100
AcDbEntity
  8
COORD Trees Big
  6
ByLayer
 62
  256
370
   -1
100
AcDbLeader
  3
Standard
 71
    1
 72
    0
 73
    3
 74
    0
 75
    0
 40
1
 41
10
 76
3
 76
3
 10
24
 20
8
 30
0
 10
25
 20
10
 30
0
 10
26
 20
10
 30
0
  0
LEADER
  5
3E5
100
AcDbEntity
  8
COORD Trees Big
  6
ByLayer
 62
  256
370
   -1
100
AcDbLeader
  3
Standard
 71
    1
 72
    0
 73
    3
 74
    0
 75
    0
 40
1
 41
10
 76
3
 76
3
 10
24
 20
17.86370330515627
 30
0
 10
26
 20
19
 30
0
 10
27
 20
19
 30
0
  0
MTEXT
  5
3E6
100
AcDbEntity
  8
COORD Trees Big
  6
ByLayer
 62
  256
370
   -1
100
AcDbMText
 10
26
 20
10
 30
0
 40
0.5
 41
3.513888888888889
 71
    4
 72
    1
  1
24.00, 8.00
  7
iso
210
0
220
0
230
1
 50
0
 73
    2
 44
1
  0
MTEXT
  5
3E7
100
AcDbEntity
  8
COORD Trees Big
  6
ByLayer
 62
  256
370
   -1
100
AcDbMText
 10
27
 20
19
 30
0
 40
0.5
 41
3.791666666666697
 71
    4
 72
    1
  1
24.00, 17.86
  7
iso
210
0
220
0
230
1
 50
0
 73
    2
 44
1
  0
DIMENSION
  5
3E8
100
AcDbEntity
  8
DIM Red Mini Trees
  6
ByLayer
 62
  256
370
   -1
100
AcDbDimension
  2
*D66
 10
9.802103647636208
 20
-0.9999999999999964
 30
0
 11
4.901051823818105
 21
-0.5249999999999965
 31
0
 70
   32
 71
    5
 72
    0
  3
Standard
 53
0
210
0
220
0
230
1
100
AcDbAlignedDimension
 13
0
 23
0
 33
0
 14
9.80210364763621
 24
17.17525384707607
 34
0
100
AcDbRotatedDimension
  0
DIMENSION
  5
3E9
100
AcDbEntity
  8
DIM Red Mini Trees
  6
ByLayer
 62
  256
370
   -1
100
AcDbDimension
  2
*D67
 10
38.1979
 20
-19
 30
0
 11
19.09895
 21
-18.525
 31
0
 70
   32
 71
    5
 72
    0
  3
Standard
 53
0
210
0
220
0
230
1
100
AcDbAlignedDimension
 13
0
 23
0
 33
0
 14
38.1979
 24
17.17530330515627
 34
0
100
AcDbRotatedDimension
  0
LEADER
  5
3EA
100
AcDbEntity
  8
COORD Trees Red Mini
  6
ByLayer
 62
  256
370
   -1
100
AcDbLeader
  3
Standard
 71
    1
 72
    0
 73
    3
 74
    0
 75
    0
 40
1
 41
10
 76
3
 76
3
 10
9.80210364763621
 20
17.17525384707607
 30
0
 10
11
 20
18
 30
0
 10
12
 20
18
 30
0
  0
LEADER
  5
3EB
100
AcDbEntity
  8
COORD Trees Red Mini
  6
ByLayer
 62
  256
370
   -1
100
AcDbLeader
  3
Standard
 71
    1
 72
    0
 73
    3
 74
    0
 75
    0
 40
1
 41
10
 76
3
 76
3
 10
38.1979
 20
17.17530330515627
 30
0
 10
39
 20
18
 30
0
 10
40
 20
18
 30
0
  0
MTEXT
  5
3EC
100
AcDbEntity
  8
COORD Trees Red Mini
  6
ByLayer
 62
  256
370
   -1
100
AcDbMText
 10
12
 20
18
 30
0
 40
0.5
 41
3.236111111111142
 71
    4
 72
    1
  1
9.80, 17.18
  7
iso
210
0
220
0
230
1
 50
0
 73
    2
 44
1
  0
MTEXT
  5
3ED
100
AcDbEntity
  8
COORD Trees Red Mini
  6
ByLayer
 62
  256
370
   -1
100
AcDbMText
 10
40
 20
18
 30
0
 40
0.5
 41
3.625000000000031
 71
    4
 72
    1
  1
38.20, 17.18
  7
iso
210
0
220
0
230
1
 50
0
 73
    2
 44
1
  0
LEADER
  5
3EE
100
AcDbEntity
  8
COORD Canes Green
  6
ByLayer
 62
  256
370
   -1
100
AcDbLeader
  3
Standard
 71
    1
 72
    0
 73
    3
 74
    0
 75
    0
 40
1
 41
10
 76
3
 76
3
 10
0.4419417364738251
 20
4.441941736473825
 30
0
 10
2
 20
6
 30
0
 10
3
 20
6
 30
0
  0
LEADER
  5
3EF
100
AcDbEntity
  8
COORD Canes Green
  6
ByLayer
 62
  256
370
   -1
100
AcDbLeader
  3
Standard
 71
    1
 72
    0
 73
    3
 74
    0
 75
    0
 40
1
 41
10
 76
3
 76
3
 10
8
 20
4.6249999975
 30
0
 10
9
 20
6
 30
0
 10
10
 20
6
 30
0
  0
LEADER
  5
3F0
100
AcDbEntity
  8
COORD Canes Green
  6
ByLayer
 62
  256
370
   -1
100
AcDbLeader
  3
Standard
 71
    1
 72
    0
 73
    3
 74
    0
 75
    0
 40
1
 41
10
 76
3
 76
3
 10
16
 20
4.624999997499998
 30
0
 10
17
 20
6
 30
0
 10
18
 20
6
 30
0
  0
LEADER
  5
3F1
100
AcDbEntity
  8
COORD Canes Green
  6
ByLayer
 62
  256
370
   -1
100
AcDbLeader
  3
Standard
 71
    1
 72
    0
 73
    3
 74
    0
 75
    0
 40
1
 41
10
 76
3
 76
3
 10
24
 20
4.624999997499998
 30
0
 10
25
 20
6
 30
0
 10
26
 20
6
 30
0
  0
LEADER
  5
3F2
100
AcDbEntity
  8
COORD Canes Green
  6
ByLayer
 62
  256
370
   -1
100
AcDbLeader
  3
Standard
 71
    1
 72
    0
 73
    3
 74
    0
 75
    0
 40
1
 41
10
 76
3
 76
3
 10
32
 20
4.624999997499998
 30
0
 10
33
 20
6
 30
0
 10
34
 20
6
 30
0
  0
LEADER
  5
3F3
100
AcDbEntity
  8
COORD Canes Green
  6
ByLayer
 62
  256
370
   -1
100
AcDbLeader
  3
Standard
 71
    1
 72
    0
 73
    3
 74
    0
 75
    0
 40
1
 41
10
 76
3
 76
3
 10
40
 20
4.624999997499998
 30
0
 10
41
 20
5
 30
0
 10
42
 20
5
 30
0
  0
LEADER
  5
3F4
100
AcDbEntity
  8
COORD Canes Red
  6
ByLayer
 62
  256
370
   -1
100
AcDbLeader
  3
Standard
 71
    1
 72
    0
 73
    3
 74
    0
 75
    0
 40
1
 41
10
 76
3
 76
3
 10
4
 20
4.6249999975
 30
0
 10
5
 20
3
 30
0
 10
6
 20
3
 30
0
  0
LEADER
  5
3F5
100
AcDbEntity
  8
COORD Canes Red
  6
ByLayer
 62
  256
370
   -1
100
AcDbLeader
  3
Standard
 71
    1
 72
    0
 73
    3
 74
    0
 75
    0
 40
1
 41
10
 76
3
 76
3
 10
12
 20
4.6249999975
 30
0
 10
13
 20
3
 30
0
 10
14
 20
3
 30
0
  0
LEADER
  5
3F6
100
AcDbEntity
  8
COORD Canes Red
  6
ByLayer
 62
  256
370
   -1
100
AcDbLeader
  3
Standard
 71
    1
 72
    0
 73
    3
 74
    0
 75
    0
 40
1
 41
10
 76
3
 76
3
 10
19.9583
 20
4.624999997499998
 30
0
 10
21
 20
3
 30
0
 10
22
 20
3
 30
0
  0
LEADER
  5
3F7
100
AcDbEntity
  8
COORD Canes Red
  6
ByLayer
 62
  256
370
   -1
100
AcDbLeader
  3
Standard
 71
    1
 72
    0
 73
    3
 74
    0
 75
    0
 40
1
 41
10
 76
3
 76
3
 10
27.9583
 20
4.624999997499998
 30
0
 10
29
 20
3
 30
0
 10
30
 20
3
 30
0
  0
LEADER
  5
3F8
100
AcDbEntity
  8
COORD Canes Red
  6
ByLayer
 62
  256
370
   -1
100
AcDbLeader
  3
Standard
 71
    1
 72
    0
 73
    3
 74
    0
 75
    0
 40
1
 41
10
 76
3
 76
3
 10
35.9583
 20
4.624999997499998
 30
0
 10
37
 20
3
 30
0
 10
38
 20
3
 30
0
  0
LEADER
  5
3F9
100
AcDbEntity
  8
COORD Canes Red
  6
ByLayer
 62
  256
370
   -1
100
AcDbLeader
  3
Standard
 71
    1
 72
    0
 73
    3
 74
    0
 75
    0
 40
1
 41
10
 76
3
 76
3
 10
0.6249999974999998
 20
8
 30
0
 10
1
 20
9
 30
0
 10
2
 20
9
 30
0
  0
LEADER
  5
3FA
100
AcDbEntity
  8
COORD Canes Red
  6
ByLayer
 62
  256
370
   -1
100
AcDbLeader
  3
Standard
 71
    1
 72
    0
 73
    3
 74
    0
 75
    0
 40
1
 41
10
 76
3
 76
3
 10
0.6249999974999998
 20
16
 30
0
 10
1
 20
17
 30
0
 10
2
 20
17
 30
0
  0
LEADER
  5
3FB
100
AcDbEntity
  8
COORD Canes Red
  6
ByLayer
 62
  256
370
   -1
100
AcDbLeader
  3
Standard
 71
    1
 72
    0
 73
    3
 74
    0
 75
    0
 40
1
 41
10
 76
3
 76
3
 10
0.6249999974999998
 20
24
 30
0
 10
1
 20
25
 30
0
 10
2
 20
25
 30
0
  0
LEADER
  5
3FC
100
AcDbEntity
  8
COORD Canes Green
  6
ByLayer
 62
  256
370
   -1
100
AcDbLeader
  3
Standard
 71
    1
 72
    0
 73
    3
 74
    0
 75
    0
 40
1
 41
10
 76
3
 76
3
 10
0.6249999974999998
 20
20
 30
0
 10
1
 20
21
 30
0
 10
2
 20
21
 30
0
  0
LEADER
  5
3FD
100
AcDbEntity
  8
COORD Canes Green
  6
ByLayer
 62
  256
370
   -1
100
AcDbLeader
  3
Standard
 71
    1
 72
    0
 73
    3
 74
    0
 75
    0
 40
1
 41
10
 76
3
 76
3
 10
0.6249999974999998
 20
12
 30
0
 10
1
 20
13
 30
0
 10
2
 20
13
 30
0
  0
MTEXT
  5
3FE
100
AcDbEntity
  8
COORD Canes Green
  6
ByLayer
 62
  256
370
   -1
100
AcDbMText
 10
3
 20
6
 30
0
 40
0.5
 41
3.347222222222222
 71
    4
 72
    1
  1
0.44, 4.44
  7
iso
210
0
220
0
230
1
 50
0
 73
    2
 44
1
  0
MTEXT
  5
3FF
100
AcDbEntity
  8
COORD Canes Green
  6
ByLayer
 62
  256
370
   -1
100
AcDbMText
 10
10
 20
6
 30
0
 40
0.5
 41
3.125000000000031
 71
    4
 72
    1
  1
8.00, 4.62
  7
iso
210
0
220
0
230
1
 50
0
 73
    2
 44
1
  0
MTEXT
  5
400
100
AcDbEntity
  8
COORD Canes Green
  6
ByLayer
 62
  256
370
   -1
100
AcDbMText
 10
18
 20
6
 30
0
 40
0.5
 41
3.40277777777784
 71
    4
 72
    1
  1
16.00, 4.62
  7
iso
210
0
220
0
230
1
 50
0
 73
    2
 44
1
  0
MTEXT
  5
401
100
AcDbEntity
  8
COORD Canes Green
  6
ByLayer
 62
  256
370
   -1
100
AcDbMText
 10
26
 20
6
 30
0
 40
0.5
 41
3.569444444444476
 71
    4
 72
    1
  1
24.00, 4.62
  7
iso
210
0
220
0
230
1
 50
0
 73
    2
 44
1
  0
MTEXT
  5
402
100
AcDbEntity
  8
COORD Canes Green
  6
ByLayer
 62
  256
370
   -1
100
AcDbMText
 10
34
 20
6
 30
0
 40
0.5
 41
3.513888888888951
 71
    4
 72
    1
  1
32.00, 4.62
  7
iso
210
0
220
0
230
1
 50
0
 73
    2
 44
1
  0
MTEXT
  5
403
100
AcDbEntity
  8
COORD Canes Green
  6
ByLayer
 62
  256
370
   -1
100
AcDbMText
 10
42
 20
5
 30
0
 40
0.5
 41
3.569444444444476
 71
    4
 72
    1
  1
40.00, 4.62
  7
iso
210
0
220
0
230
1
 50
0
 73
    2
 44
1
  0
MTEXT
  5
404
100
AcDbEntity
  8
COORD Canes Red
  6
ByLayer
 62
  256
370
   -1
100
AcDbMText
 10
6
 20
3
 30
0
 40
0.5
 41
3.180555555555587
 71
    4
 72
    1
  1
4.00, 4.62
  7
iso
210
0
220
0
230
1
 50
0
 73
    2
 44
1
  0
MTEXT
  5
405
100
AcDbEntity
  8
COORD Canes Red
  6
ByLayer
 62
  256
370
   -1
100
AcDbMText
 10
14
 20
3
 30
0
 40
0.5
 41
3.402777777777809
 71
    4
 72
    1
  1
12.00, 4.62
  7
iso
210
0
220
0
230
1
 50
0
 73
    2
 44
1
  0
MTEXT
  5
406
100
AcDbEntity
  8
COORD Canes Red
  6
ByLayer
 62
  256
370
   -1
100
AcDbMText
 10
22
 20
3
 30
0
 40
0.5
 41
3.51388888888892
 71
    4
 72
    1
  1
20.00, 4.62
  7
iso
210
0
220
0
230
1
 50
0
 73
    2
 44
1
  0
MTEXT
  5
407
100
AcDbEntity
  8
COORD Canes Red
  6
ByLayer
 62
  256
370
   -1
100
AcDbMText
 10
30
 20
3
 30
0
 40
0.5
 41
3.51388888888892
 71
    4
 72
    1
  1
28.00, 4.62
  7
iso
210
0
220
0
230
1
 50
0
 73
    2
 44
1
  0
MTEXT
  5
408
100
AcDbEntity
  8
COORD Canes Red
  6
ByLayer
 62
  256
370
   -1
100
AcDbMText
 10
38
 20
3
 30
0
 40
0.5
 41
3.513888888888982
 71
    4
 72
    1
  1
36.00, 4.62
  7
iso
210
0
220
0
230
1
 50
0
 73
    2
 44
1
  0
MTEXT
  5
409
100
AcDbEntity
  8
COORD Canes Red
  6
ByLayer
 62
  256
370
   -1
100
AcDbMText
 10
2
 20
9
 30
0
 40
0.5
 41
3.069444444444476
 71
    4
 72
    1
  1
0.62, 8.00
  7
iso
210
0
220
0
230
1
 50
0
 73
    2
 44
1
  0
MTEXT
  5
40A
100
AcDbEntity
  8
COORD Canes Red
  6
ByLayer
 62
  256
370
   -1
100
AcDbMText
 10
2
 20
17
 30
0
 40
0.5
 41
3.347222222222284
 71
    4
 72
    1
  1
0.62, 16.00
  7
iso
210
0
220
0
230
1
 50
0
 73
    2
 44
1
  0
MTEXT
  5
40B
100
AcDbEntity
  8
COORD Canes Red
  6
ByLayer
 62
  256
370
   -1
100
AcDbMText
 10
2
 20
25
 30
0
 40
0.5
 41
3.51388888888892
 71
    4
 72
    1
  1
0.62, 24.00
  7
iso
210
0
220
0
230
1
 50
0
 73
    2
 44
1
  0
MTEXT
  5
40C
100
AcDbEntity
  8
COORD Canes Green
  6
ByLayer
 62
  256
370
   -1
100
AcDbMText
 10
2
 20
21
 30
0
 40
0.5
 41
3.458333333333365
 71
    4
 72
    1
  1
0.62, 20.00
  7
iso
210
0
220
0
230
1
 50
0
 73
    2
 44
1
  0
MTEXT
  5
40D
100
AcDbEntity
  8
COORD Canes Green
  6
ByLayer
 62
  256
370
   -1
100
AcDbMText
 10
2
 20
13
 30
0
 40
0.5
 41
3.347222222222253
 71
    4
 72
    1
  1
0.62, 12.00
  7
iso
210
0
220
0
230
1
 50
0
 73
    2
 44
1
  0
MTEXT
  5
40E
100
AcDbEntity
  8
LINE Property
  6
ByLayer
 62
  256
370
   -1
100
AcDbMText
 10
-1
 20
11
 30
0
 40
0.5
 41
5.152777777777778
 71
    4
 72
    1
  1
PROPERTY LINE
  7
iso
210
0
220
0
230
1
 50
90
 73
    2
 44
1
  0
LINE
  5
40F
100
AcDbEntity
  8
LINE Origin
  6
ByLayer
 62
  256
370
   -1
100
AcDbLine
 10
-1
 20
0
 11
0
 21
0
  0
LINE
  5
410
100
AcDbEntity
  8
LINE Origin
  6
ByLayer
 62
  256
370
   -1
100
AcDbLine
 10
0
 20
0
 11
1
 21
0
  0
LINE
  5
411
100
AcDbEntity
  8
LINE Origin
  6
ByLayer
 62
  256
370
   -1
100
AcDbLine
 10
0
 20
1
 11
0
 21
0
  0
LINE
  5
412
100
AcDbEntity
  8
LINE Origin
  6
ByLayer
 62
  256
370
   -1
100
AcDbLine
 10
0
 20
0
 11
0
 21
-1
  0
LEADER
  5
413
100
AcDbEntity
  8
LINE Origin
  6
ByLayer
 62
  256
370
   -1
100
AcDbLeader
  3
Standard
 71
    1
 72
    0
 73
    3
 74
    0
 75
    0
 40
1
 41
10
 76
3
 76
3
 10
0
 20
0
 30
0
 10
1
 20
1
 30
0
 10
2
 20
1
 30
0
  0
MTEXT
  5
414
100
AcDbEntity
  8
LINE Origin
  6
ByLayer
 62
  256
370
   -1
100
AcDbMText
 10
2
 20
1
 30
0
 40
0.5
 41
3.069444444444444
 71
    4
 72
    1
  1
0.00, 0.00
  7
iso
210
0
220
0
230
1
 50
0
 73
    2
 44
1
  0
MTEXT
  5
415
100
AcDbEntity
  8
LINE Curb
  6
ByLayer
 62
  256
370
   -1
100
AcDbMText
 10
23.06792608501277
 20
0.5636060279820482
 30
0
 40
0.5
 41
1.555555555555586
 71
    4
 72
    1
  1
CURB
  7
iso
210
0
220
0
230
1
 50
0
 73
    2
 44
1
  0
LINE
  5
416
100
AcDbEntity
  8
0
  6
ByLayer
 62
  256
370
   -1
100
AcDbLine
 10
-1
 20
27
 11
1
 21
27
  0
LINE
  5
417
100
AcDbEntity
  8
0
  6
ByLayer
 62
  256
370
   -1
100
AcDbLine
 10
0
 20
24
 11
0
 21
27
  0
LINE
  5
418
100
AcDbEntity
  8
0
  6
ByLayer
 62
  256
370
   -1
100
AcDbLine
 10
49
 20
1
 11
49
 21
-1
  0
LINE
  5
419
100
AcDbEntity
  8
LINE Curb
  6
ByLayer
 62
  256
370
   -1
100
AcDbLine
 10
0
 20
0
 11
49
 21
0
  0
LINE
  5
41A
100
AcDbEntity
  8
LINE Property
  6
ByLayer
 62
  256
370
   -1
100
AcDbLine
 10
0
 20
26
 11
0
 21
0
  0
LEADER
  5
41B
100
AcDbEntity
  8
LINE Origin
  6
ByLayer
 62
  256
370
   -1
100
AcDbLeader
  3
Standard
 71
    1
 72
    0
 73
    3
 74
    0
 75
    0
 40
1
 41
10
 76
2
 76
2
 10
-2
 20
2
 30
0
 10
-2
 20
0
 30
0
  0
LEADER
  5
41C
100
AcDbEntity
  8
LINE Origin
  6
ByLayer
 62
  256
370
   -1
100
AcDbLeader
  3
Standard
 71
    1
 72
    0
 73
    3
 74
    0
 75
    0
 40
1
 41
10
 76
2
 76
2
 10
2
 20
-2
 30
0
 10
0
 20
-2
 30
0
  0
MTEXT
  5
41D
100
AcDbEntity
  8
LINE Origin
  6
ByLayer
 62
  256
370
   -1
100
AcDbMText
 10
3
 20
-2
 30
0
 40
0.5
 41
2.055555555555555
 71
    4
 72
    1
  1
NORTH
  7
iso
210
0
220
0
230
1
 50
0
 73
    2
 44
1
  0
MTEXT
  5
41E
100
AcDbEntity
  8
LINE Origin
  6
ByLayer
 62
  256
370
   -1
100
AcDbMText
 10
-2
 20
3
 30
0
 40
0.5
 41
1.722222116221147
 71
    4
 72
    1
  1
WEST
  7
iso
210
0
220
0
230
1
 50
90
 73
    2
 44
1
  0
LINE
  5
41F
100
AcDbEntity
  8
CANES Line
  6
ByLayer
 62
  256
370
   -1
100
AcDbLine
 10
4
 20
4.6249999975
 11
40
 21
4.624999997499998
  0
LINE
  5
420
100
AcDbEntity
  8
CANES Line
  6
ByLayer
 62
  256
370
   -1
100
AcDbLine
 10
0.6249999974999998
 20
24
 11
0.6249999974999998
 21
8
  0
LINE
  5
421
100
AcDbEntity
  8
CANES Pixels
  6
ByLayer
 62
  256
370
   -1
100
AcDbLine
 10
0
 20
4
 11
40
 21
4
  0
LINE
  5
422
100
AcDbEntity
  8
CANES Pixels
  6
ByLayer
 62
  256
370
   -1
100
AcDbLine
 10
0
 20
24
 11
0
 21
4
  0
LINE
  5
423
100
AcDbEntity
  8
CANES Pixels
  6
ByLayer
 62
  256
370
   -1
100
AcDbLine
 10
49
 20
22
 11
49
 21
10
  0
LINE
  5
424
100
AcDbEntity
  8
CANES Pixels
  6
ByLayer
 62
  256
370
   -1
100
AcDbLine
 10
49
 20
10
 11
40
 21
4
  0
LEADER
  5
425
100
AcDbEntity
  8
COORD Trees Tom Row A
  6
ByLayer
 62
  256
370
   -1
100
AcDbLeader
  3
Standard
 71
    1
 72
    0
 73
    3
 74
    0
 75
    0
 40
1
 41
10
 76
3
 76
3
 10
29.8637
 20
12.82840330515628
 30
0
 10
30.8637
 20
13.82840330515628
 30
0
 10
31.8637
 20
13.82840330515628
 30
0
  0
MTEXT
  5
426
100
AcDbEntity
  8
COORD Trees Tom Row A
  6
ByLayer
 62
  256
370
   -1
100
AcDbMText
 10
31.8637
 20
13.82840330515628
 30
0
 40
0.5
 41
3.736111111111172
 71
    4
 72
    1
  1
29.86, 12.83
  7
iso
210
0
220
0
230
1
 50
0
 73
    2
 44
1
  0
LEADER
  5
427
100
AcDbEntity
  8
COORD Trees Tom Row A
  6
ByLayer
 62
  256
370
   -1
100
AcDbLeader
  3
Standard
 71
    1
 72
    0
 73
    3
 74
    0
 75
    0
 40
1
 41
10
 76
3
 76
3
 10
26
 20
13.86370330515627
 30
0
 10
27
 20
14.86370330515627
 30
0
 10
28
 20
14.86370330515627
 30
0
  0
MTEXT
  5
428
100
AcDbEntity
  8
COORD Trees Tom Row A
  6
ByLayer
 62
  256
370
   -1
100
AcDbMText
 10
28
 20
14.86370330515627
 30
0
 40
0.5
 41
3.736111111111204
 71
    4
 72
    1
  1
26.00, 13.86
  7
iso
210
0
220
0
230
1
 50
0
 73
    2
 44
1
  0
LEADER
  5
429
100
AcDbEntity
  8
COORD Trees Tom Row A
  6
ByLayer
 62
  256
370
   -1
100
AcDbLeader
  3
Standard
 71
    1
 72
    0
 73
    3
 74
    0
 75
    0
 40
1
 41
10
 76
3
 76
3
 10
22
 20
13.86370330515627
 30
0
 10
23
 20
15.86370330515627
 30
0
 10
24
 20
15.86370330515627
 30
0
  0
MTEXT
  5
42A
100
AcDbEntity
  8
COORD Trees Tom Row A
  6
ByLayer
 62
  256
370
   -1
100
AcDbMText
 10
24
 20
15.86370330515627
 30
0
 40
0.5
 41
3.736111111111173
 71
    4
 72
    1
  1
22.00, 13.86
  7
iso
210
0
220
0
230
1
 50
0
 73
    2
 44
1
  0
ENDSEC
  0
SECTION
  2
OBJECTS
  0
DICTIONARY
  5
C
330
0
100
AcDbDictionary
281
    1
  3
ACAD_GROUP
350
D
  0
DICTIONARY
  5
D
330
C
100
AcDbDictionary
281
    1
  0
ENDSEC
  0
EOF
