<?xml version="1.0" encoding="UTF-8" standalone="no"?>
<svg
   xmlns:dc="http://purl.org/dc/elements/1.1/"
   xmlns:cc="http://creativecommons.org/ns#"
   xmlns:rdf="http://www.w3.org/1999/02/22-rdf-syntax-ns#"
   xmlns:svg="http://www.w3.org/2000/svg"
   xmlns="http://www.w3.org/2000/svg"
   xmlns:sodipodi="http://sodipodi.sourceforge.net/DTD/sodipodi-0.dtd"
   xmlns:inkscape="http://www.inkscape.org/namespaces/inkscape"
   version="1.1"
   width="11.5in"
   height="4in"
   id="svg5276"
   inkscape:version="1.0.1 (3bc2e813f5, 2020-09-07)"
   sodipodi:docname="Orange Park Direction Sign for Lamp Post.svg"
   inkscape:export-filename="C:\Users\Klemen\Downloads\The Chronicles of Narnia logo.png"
   inkscape:export-xdpi="1500.2426"
   inkscape:export-ydpi="1500.2426"
   viewBox="0 0 1104 384">
  <sodipodi:namedview
     pagecolor="#ffffff"
     bordercolor="#666666"
     borderopacity="1"
     objecttolerance="10"
     gridtolerance="10"
     guidetolerance="10"
     inkscape:pageopacity="0"
     inkscape:pageshadow="2"
     inkscape:window-width="1904"
     inkscape:window-height="996"
     id="namedview67"
     showgrid="true"
     inkscape:zoom="1.044997"
     inkscape:cx="572.02"
     inkscape:cy="168.69086"
     inkscape:window-x="-10"
     inkscape:window-y="8"
     inkscape:window-maximized="0"
     inkscape:current-layer="svg5276"
     fit-margin-top="0"
     fit-margin-left="0"
     fit-margin-right="0"
     fit-margin-bottom="0"
     inkscape:document-rotation="0"
     showguides="false"
     inkscape:snap-nodes="false"
     units="in"
     inkscape:document-units="in">
    <inkscape:grid
       type="xygrid"
       id="grid986"
       units="in"
       spacingx="24"
       spacingy="24"
       empspacing="4" />
  </sodipodi:namedview>
  <defs
     id="defs5278">
    <clipPath
       id="clipPath3717">
      <path
         d="m 427.26,426.42 h 71.64 v 24 h -71.64 z"
         id="path3719"
         inkscape:connector-curvature="0" />
    </clipPath>
    <clipPath
       id="clipPath3733">
      <path
         d="m 427.264,426.42 h 71.589 v 23.968 h -71.589 z"
         id="path3735"
         inkscape:connector-curvature="0" />
    </clipPath>
    <clipPath
       id="clipPath3745">
      <path
         d="m 427.26,426.42 h 71.64 v 24 h -71.64 z"
         id="path3747"
         inkscape:connector-curvature="0" />
    </clipPath>
    <clipPath
       id="clipPath3773">
      <path
         d="m 427.264,426.42 h 71.589 v 23.968 h -71.589 z"
         id="path3775"
         inkscape:connector-curvature="0" />
    </clipPath>
    <clipPath
       id="clipPath3789">
      <path
         d="m 427.26,426.42 h 71.64 v 24 h -71.64 z"
         id="path3791"
         inkscape:connector-curvature="0" />
    </clipPath>
  </defs>
  <metadata
     id="metadata5281">
    <rdf:RDF>
      <cc:Work
         rdf:about="">
        <dc:format>image/svg+xml</dc:format>
        <dc:type
           rdf:resource="http://purl.org/dc/dcmitype/StillImage" />
        <dc:title></dc:title>
      </cc:Work>
    </rdf:RDF>
  </metadata>
  <path
     id="path863"
     style="font-size:185.055px;line-height:1.25;font-family:Saloon;-inkscape-font-specification:Saloon;fill:#e06800;fill-opacity:1;stroke:#e06800;stroke-width:0.96;stroke-miterlimit:4;stroke-dasharray:none;stroke-opacity:1"
     d="m 1073.6097,81.222603 q 3.6719,2.685979 5.2019,6.491115 1.53,3.805136 2.4479,10.296252 0.4589,-6.267284 1.9889,-9.848589 1.683,-3.805136 5.6609,-6.938778 h 11.4747 v 33.574727 h -2.1419 q -0.612,0 -1.683,0 -0.918,0 -2.1419,-0.22383 -2.754,0 -5.8139,0.6715 -2.6009,0.44766 -3.6719,1.56682 l -3.8249,4.2528 -41.7679,50.13827 42.0739,49.69059 q 3.0599,4.47663 7.9558,4.70047 4.8959,0.22383 11.0157,1.11915 v 33.57474 h -11.4747 q -3.6719,-2.90981 -5.2018,-6.71495 -1.53,-3.80513 -2.448,-9.62475 -0.459,5.59578 -2.142,9.40092 -1.5299,3.80513 -5.5078,6.93878 H 1062.135 V 226.7131 q 1.9889,0 3.8249,0 1.9889,0 3.9779,-0.22382 1.9889,0 3.2129,-1.11917 1.377,-1.11915 -0.153,-3.35746 l -7.9557,-10.07243 -20.8075,-24.17381 -5.355,-5.81962 q -0.3059,-0.44766 -1.5299,0.44767 -1.071,0.6715 -2.4479,1.79065 -1.224,0.89532 -2.295,2.01449 -0.9179,0.89532 -1.0709,1.34299 v 27.97894 q 0,1.56682 1.3769,3.35748 1.53,1.56681 3.3659,3.35746 2.907,2.23832 5.0489,3.13364 2.142,0.89533 5.5079,1.34299 v 33.57474 h -11.4747 q -3.8249,-2.90981 -5.3549,-6.49111 -1.3769,-3.80514 -2.295,-10.29625 -0.4589,6.04344 -1.9889,9.84858 -1.5299,3.80513 -5.6608,6.93878 h -11.4747 V 226.7131 q 3.3659,0 5.6608,-1.11915 2.448,-1.11916 5.0489,-3.80514 1.53,-1.79065 2.4479,-2.9098 1.071,-1.34299 2.142,-3.35748 v -27.97894 q 0,-0.6715 -0.765,-2.01449 -0.765,-1.34299 -1.836,-2.68598 -0.9179,-1.56682 -1.9889,-2.90981 -1.071,-1.34298 -1.683,-2.01447 -1.836,-2.01449 -4.4369,-3.58131 -2.4479,-1.79065 -4.5898,-3.5813 3.8248,-2.23832 6.4258,-4.70047 2.754,-2.46214 5.6608,-6.71495 l 3.213,-5.37196 v -27.97893 q 0,-2.01449 -1.683,-3.80515 -1.683,-2.01448 -4.1309,-3.35747 -2.295,-1.56682 -4.8959,-2.68598 -2.6009,-1.11915 -4.5898,-1.34299 V 81.222603 h 11.4747 q 3.6719,2.685979 5.2019,6.491115 1.5299,3.805136 2.4478,10.296252 0.4591,-6.267284 1.989,-9.848589 1.683,-3.805136 5.6609,-6.938778 h 11.4747 v 33.574727 q -4.1309,0 -8.7208,2.68598 -4.5899,2.68598 -6.5788,8.50561 v 27.97893 q 0,0.67151 0.9179,1.79066 0.918,0.89532 2.142,1.79065 1.2239,0.6715 2.4479,1.34299 1.224,0.6715 1.8359,0.6715 l 5.355,-5.81962 28.7632,-33.35091 q 0.918,-1.11915 0.918,-1.79065 0,-1.11916 -1.377,-1.79065 -1.224,-0.6715 -3.2129,-1.11916 -1.836,-0.44766 -3.8249,-0.44766 -1.989,-0.22383 -3.3659,-0.44767 V 81.222603 Z m -113.98156,0 q 10.4037,0 18.66551,11.415409 8.10878,11.191578 8.10878,33.350908 0,27.53127 -5.04886,35.36538 -5.04886,7.38644 -10.25075,9.40093 3.05992,0.67149 9.17977,6.04344 5.96681,4.70046 6.11984,33.12707 0,5.81962 2.29492,9.17709 2.29492,3.13364 5.81386,6.26728 0.91795,0.6715 3.21296,1.56683 2.44783,0.67149 3.97783,-0.22384 v 33.57474 h -11.47464 q -3.82493,-2.90981 -5.35493,-6.49111 -1.37697,-3.80514 -2.29492,-10.29625 -0.45894,6.04344 -1.98894,9.84858 -1.52992,3.80513 -5.66082,6.93878 H 963.45298 V 226.7131 q 7.95583,1.56683 11.47477,-5.37195 3.67189,-6.93878 3.67189,-17.0112 0,-10.07242 -3.97788,-17.23503 -3.82492,-7.38643 -10.40378,-9.17708 H 938.9736 q -1.22393,0.89532 -3.51885,4.47662 -2.29492,3.5813 -2.60099,5.14813 v 27.97894 q 0,0.89532 1.83599,3.13364 1.83598,2.23831 2.6009,3.35748 2.14197,2.01447 4.74287,3.13364 2.60099,1.11915 6.11985,1.56681 v 33.57474 h -11.47469 q -3.82492,-2.90981 -5.35484,-6.49111 -1.37697,-3.80514 -2.29492,-10.29625 -0.45902,6.04344 -1.98894,9.84858 -1.53,3.80513 -5.66091,6.93878 H 909.90439 V 226.7131 q 3.3659,0 5.66082,-1.11915 2.44796,-1.11916 5.04886,-3.80514 1.53,-1.79065 2.44796,-2.9098 1.07098,-1.34299 2.14197,-3.35748 v -27.97894 q 0,-1.34299 -1.22394,-3.35748 -1.07098,-2.01448 -2.75394,-3.80513 -1.68295,-2.01448 -3.51894,-3.58131 -1.83598,-1.79065 -3.21295,-2.68598 -3.97788,-2.68597 -3.82484,-2.9098 0.15295,-0.44766 3.97787,-3.5813 3.51894,-2.23832 5.81386,-5.81963 2.29492,-3.80514 4.74288,-7.83411 v -27.97893 q 0,-2.01449 -1.68296,-3.80515 -1.68295,-2.01448 -4.1309,-3.35747 -2.29492,-1.56682 -4.89591,-2.68598 -2.60091,-1.11915 -4.58984,-1.34299 V 81.222603 h 11.47468 q 3.67189,2.685979 5.20189,6.491115 1.52992,3.805136 2.44796,10.296252 0.76492,-10.520084 4.43689,-13.653725 3.67189,-3.133642 9.94468,-3.133642 1.68296,0 3.82493,0 2.29492,0 4.8959,-0.223832 h 5.50788 q 1.8359,0 1.98894,0.223832 z m 4.58984,82.370017 q 2.90697,0 8.72083,-6.04346 5.50779,-5.81962 5.81378,-20.36867 0,-10.07242 -2.44788,-14.54905 -2.295,-4.70046 -9.02681,-7.83411 h -19.12453 q -4.28386,0 -8.8737,2.68598 -4.43689,2.68598 -6.42591,8.50561 v 27.97893 q 0,0.67151 0.765,2.01449 0.765,1.34299 1.83599,2.90981 1.07098,1.56683 1.98893,2.90981 1.07099,1.34299 1.52992,1.79066 z M 851.30686,81.222603 v 33.574727 q -1.52992,0 -2.75394,0 -1.22394,0 -2.14189,0.44767 -1.22402,0.22383 -1.22402,1.79065 l 9.17977,37.37987 q 0,0.22384 1.22402,1.79065 1.37696,1.34299 2.75393,3.13364 1.52992,1.56683 2.90689,3.13364 1.37697,1.34299 1.53,1.56683 l 10.55674,6.71495 q -1.22402,0.67149 -2.44796,1.56681 -1.07098,0.6715 -2.44795,1.56683 -2.75394,1.79065 -4.43689,4.25279 -1.68295,2.46216 -1.98894,6.71495 l 7.0378,30.21725 q 2.6009,11.63924 10.4037,11.63924 h 7.64985 v 33.57474 H 875.3273 q -3.82493,-2.90981 -5.35493,-6.49111 -1.37697,-3.80514 -2.29492,-10.29625 -0.45894,6.04344 -1.98894,9.84858 -1.52992,3.80513 -5.66082,6.93878 H 848.85898 V 226.7131 h 7.64977 q 2.29492,0 3.97787,-3.35746 1.83599,-3.35748 1.22402,-6.71495 l -6.42583,-27.75511 q -0.30598,-1.56683 -1.68295,-3.35748 -1.22402,-2.01448 -2.90697,-3.58131 -1.68296,-1.79064 -3.51894,-2.9098 -1.68295,-1.11915 -2.90689,-1.11915 h -23.86739 q -1.22397,0 -3.05992,1.11915 -1.68295,0.89532 -3.36592,2.46214 -1.52996,1.56683 -2.90692,3.5813 -1.22397,1.79066 -1.68296,3.58131 l -6.42583,27.75511 q -1.22397,4.25281 0.61198,7.38645 1.83595,2.9098 4.58988,2.9098 h 7.64981 v 33.57474 h -11.47471 q -3.8249,-2.90981 -5.35486,-6.49111 -1.37696,-3.80514 -2.29494,-10.29625 -0.45899,6.04344 -1.98895,9.84858 -1.52996,3.80513 -5.66085,6.93878 H 777.56276 V 226.7131 h 7.80281 q 3.9779,0 6.42584,-3.13364 2.60092,-3.13364 3.82489,-8.5056 l 7.03782,-30.21725 q 0.459,-2.23832 -0.45898,-4.25279 -0.91798,-2.01449 -2.75393,-3.58131 -1.68296,-1.79065 -3.9779,-3.35748 -2.14194,-1.56681 -4.1309,-2.9098 1.37697,-0.6715 2.75393,-1.34299 1.37697,-0.6715 2.90693,-1.56683 0.91798,-0.44766 2.75393,-1.79065 1.98895,-1.56682 3.9779,-3.35747 2.14195,-2.01449 3.9779,-4.02897 1.83595,-2.23831 2.60093,-4.2528 l 8.87377,-37.37987 q 0.30599,-1.79065 -2.14194,-1.79065 -2.44794,0 -3.9779,-0.44767 V 81.222603 h 11.47471 q 3.82491,2.685979 5.20188,6.938778 1.52992,4.2528 2.44796,10.296252 0.45893,-6.491115 1.98893,-10.07242 1.52992,-3.805137 5.66083,-7.16261 z m -7.0378,82.370017 q 2.14197,0 2.75394,-2.46216 0.61197,-2.46214 0.30598,-4.92429 l -9.94476,-41.40884 h -10.40371 l -9.63876,41.40884 q -0.45899,2.23832 0.30599,4.92429 0.91798,2.46216 2.75393,2.46216 z m -82.1587,-82.370017 q 10.40374,0 18.66553,11.415409 7.95579,10.967748 8.10878,33.350908 0,22.38315 -6.27283,35.14154 -5.96685,12.75841 -15.9116,16.78738 h -25.24435 q -1.22397,0.89532 -3.51891,4.47662 -2.29495,3.5813 -2.60094,5.14813 v 27.97894 q 0,0.89532 1.83596,3.13364 1.83595,2.23831 2.60093,3.35748 2.14195,2.01447 4.74288,3.13364 2.60094,1.11915 6.11984,1.56681 v 33.57474 h -11.4747 q -3.82491,-2.90981 -5.35487,-6.49111 -1.37696,-3.80514 -2.29494,-10.29625 -0.45899,6.04344 -1.98895,9.84858 -1.52996,3.80513 -5.66085,6.93878 H 712.38663 V 226.7131 q 3.36591,0 5.66086,-1.11915 2.44794,-1.11916 5.04886,-3.80514 1.52997,-1.79065 2.44794,-2.9098 1.07098,-1.34299 2.14195,-3.35748 v -27.97894 q 0,-1.34299 -1.22397,-3.35748 -1.07097,-2.01448 -2.75393,-3.80513 -1.68295,-2.01448 -3.51891,-3.58131 -1.83595,-1.79065 -3.21292,-2.68598 -3.9779,-2.68597 -3.8249,-2.9098 0.153,-0.44766 3.9779,-3.5813 3.51891,-2.23832 5.81385,-5.81963 2.29494,-3.80514 4.74288,-7.83411 v -27.97893 q 0,-2.01449 -1.68296,-3.80515 -1.68296,-2.01448 -4.13089,-3.35747 -2.29494,-1.56682 -4.89588,-2.68598 -2.60093,-1.11915 -4.58988,-1.34299 V 81.222603 h 11.47471 q 3.67191,2.685979 5.20187,6.491115 1.52996,3.805136 2.44793,10.296252 0.76498,-10.520084 4.43689,-13.653725 3.6719,-3.133642 9.94475,-3.133642 1.68295,0 3.82489,0 2.29495,0 4.89588,-0.223832 h 5.50786 q 1.83595,0 1.98895,0.223832 z m 4.58988,82.370017 q 2.90693,0 8.72078,-6.04346 5.50786,-5.81962 5.81385,-20.36867 0,-10.07242 -2.44794,-14.54905 -2.29494,-4.70046 -9.02676,-7.83411 h -19.12452 q -4.28389,0 -8.87377,2.68598 -4.43688,2.68598 -6.42584,8.50561 v 27.97893 q 0,0.67151 0.76499,2.01449 0.76497,1.34299 1.83595,2.90981 1.07097,1.56683 1.98894,2.90981 1.07098,1.34299 1.52997,1.79066 z M 635.88889,81.222603 v 44.766317 h -7.64981 q -1.07096,-1.79066 -3.6719,-5.14813 -2.44794,-3.35748 -5.35486,-4.9243 -1.07098,-0.44766 -2.60094,-0.67149 -1.52996,-0.22383 -3.6719,-0.44767 h -15.2996 q -4.74289,0 -9.02678,2.46215 -4.13089,2.46215 -6.27283,8.72944 v 27.97893 q 0,0.67151 0.76497,2.01449 0.76499,1.34299 1.83596,2.90981 1.07097,1.56683 1.98895,2.90981 1.07097,1.34299 1.52996,1.79066 h 20.65447 q 2.14194,0 2.75393,-4.02897 0.76497,-4.02897 1.07097,-5.5958 h 7.6498 v 33.57474 h -7.6498 q 0,-1.79065 -1.07097,-5.14813 -0.91798,-3.35747 -2.75393,-4.47662 h -20.65447 q -1.22397,0.89532 -3.51891,4.47662 -2.29494,3.5813 -2.60093,5.14813 v 27.97894 q 0,0.89532 1.83595,3.13364 1.83595,2.23831 2.60093,3.35748 2.14194,2.01447 4.74288,3.13364 2.60093,1.11915 6.11985,1.56681 h 15.2996 q 10.25074,0 15.2996,-11.19157 h 7.64981 v 44.76631 h -49.72373 q -3.82489,-2.90981 -5.35485,-6.49111 -1.37697,-3.80514 -2.29495,-10.29625 -0.45898,6.04344 -1.98895,9.84858 -1.52996,3.80513 -5.66085,6.93878 H 559.39085 V 226.7131 q 3.36592,0 5.66085,-1.11915 2.44794,-1.11916 5.04888,-3.80514 1.52996,-1.79065 2.44794,-2.9098 1.07096,-1.34299 2.14194,-3.35748 v -27.97894 q 0,-1.34299 -1.22397,-3.35748 -1.07097,-2.01448 -2.75393,-3.80513 -1.68296,-2.01448 -3.51891,-3.58131 -1.83595,-1.79065 -3.21291,-2.68598 -3.9779,-2.68597 -3.82491,-2.9098 0.153,-0.44766 3.9779,-3.5813 3.51891,-2.23832 5.81385,-5.81963 2.29494,-3.80514 4.74288,-7.83411 v -27.97893 q 0,-2.01449 -1.68296,-3.80515 -1.68295,-2.01448 -4.13089,-3.35747 -2.29495,-1.56682 -4.89587,-2.68598 -2.60094,-1.11915 -4.58989,-1.34299 V 81.222603 h 11.62771 q 4.28389,3.133642 5.50785,7.386441 1.37697,4.2528 1.98895,9.848589 0.45899,-6.491115 1.98895,-10.07242 1.52996,-3.805137 5.66085,-7.16261 z M 544.85672,209.92574 v -27.97895 h -22.94941 v -22.38314 h 30.59922 v 55.95788 q 0,17.45886 -7.64981,31.33641 -7.6498,13.4299 -19.88949,13.4299 h -21.41945 q -13.00466,0 -20.19548,-12.53457 -7.34382,-12.53457 -7.34382,-37.82753 v -22.38315 q 0,-0.6715 -0.76497,-2.01449 -0.76499,-1.34299 -1.83596,-2.68598 -0.91797,-1.56682 -1.98895,-2.90981 -1.07097,-1.34298 -1.68295,-2.01447 -1.83596,-2.01449 -4.43689,-3.58131 -2.44794,-1.79065 -4.58989,-3.5813 3.82491,-2.23832 6.42584,-4.70047 2.75393,-2.46214 5.66086,-6.71495 l 3.21291,-5.37196 v -27.97893 q 0,-25.74063 9.33277,-35.365392 9.33276,-9.400925 18.20653,-9.400925 h 21.41945 q 9.33277,0 18.35953,9.177094 8.72078,8.953262 9.02677,31.560253 l 0.153,4.02897 h -8.87377 q -1.22397,-3.35748 -3.67191,-7.16262 -2.29494,-4.02897 -7.34381,-4.02897 h -36.71906 q -5.35486,0 -8.87378,6.71496 -3.36591,6.71494 -3.36591,15.6682 v 16.78736 q 0,2.23832 1.68296,4.70047 1.83595,2.46214 4.28389,4.70046 2.44794,2.23832 5.04887,4.25281 2.60093,2.01447 4.28389,3.13364 -2.14195,1.34299 -4.58989,3.13364 -2.44793,1.56681 -4.43688,3.80513 -1.07097,1.11916 -3.51891,4.70046 -2.29494,3.35748 -2.75393,5.14813 v 16.11587 q 0,8.5056 3.05992,15.89203 3.05992,7.16261 9.17977,7.16261 h 36.71906 q 4.28389,0 8.26179,-4.92429 3.97789,-4.92429 3.97789,-11.86307 z m -91.03221,-95.12841 q -4.13089,0 -8.72077,2.68598 -4.58989,2.68598 -6.57884,8.50561 v 27.97893 q 0,2.23832 1.68296,4.70047 1.83595,2.46214 4.28389,4.70046 2.44794,2.23832 5.04887,4.25281 2.60094,2.01447 4.28389,3.13364 -2.14195,1.34299 -4.58988,3.13364 -2.44794,1.56681 -4.43689,3.80513 -1.07097,1.11916 -3.51891,4.70046 -2.29494,3.35748 -2.75393,5.14813 v 27.97894 q 0,1.56682 1.37697,3.35748 1.52996,1.56681 3.36591,3.35746 2.90692,2.23832 5.04887,3.13364 2.14195,0.89533 5.50786,1.34299 v 33.57474 h -11.4747 q -3.82491,-2.90981 -5.35487,-6.49111 -1.37696,-3.80514 -2.29494,-10.29625 -0.45899,6.04344 -1.98895,9.84858 -1.52996,3.80513 -5.66085,6.93878 H 415.57549 V 226.7131 h 6.11984 l -35.95408,-77.22188 -6.88482,-15.44437 q -2.60093,-5.37196 -4.43689,-6.71494 -1.83595,-1.34299 -4.74287,-1.34299 v 27.97893 q 0,2.23832 1.68295,4.70047 1.83595,2.46214 4.28389,4.70046 2.44794,2.23832 5.04888,4.25281 2.60093,2.01447 4.28388,3.13364 -2.14195,1.34299 -4.58988,3.13364 -2.44793,1.56681 -4.43689,3.80513 -1.07097,1.11916 -3.5189,4.70046 -2.29495,3.35748 -2.75393,5.14813 v 27.97894 q 0,1.56682 1.37696,3.35748 1.52996,1.56681 3.36591,3.35746 2.90693,2.23832 5.04888,3.13364 2.14194,0.89533 5.50785,1.34299 v 33.57474 h -11.4747 q -3.8249,-2.90981 -5.35486,-6.49111 -1.37697,-3.80514 -2.29495,-10.29625 -0.45898,6.04344 -1.98894,9.84858 -1.52996,3.80513 -5.66086,6.93878 H 346.72725 V 226.7131 q 3.36592,0 5.66086,-1.11915 2.44793,-1.11916 5.04887,-3.80514 1.52996,-1.79065 2.44794,-2.9098 1.07097,-1.34299 2.14194,-3.35748 v -27.97894 q 0,-0.6715 -0.76498,-2.01449 -0.76498,-1.34299 -1.83595,-2.68598 -0.91798,-1.56682 -1.98895,-2.90981 -1.07098,-1.34298 -1.68296,-2.01447 -1.83595,-2.01449 -4.43688,-3.58131 -2.44794,-1.79065 -4.58989,-3.5813 3.8249,-2.23832 6.42584,-4.70047 2.75393,-2.46214 5.66085,-6.71495 l 3.21292,-5.37196 v -27.97893 q 0,-2.01449 -1.68296,-3.80515 -1.68295,-2.01448 -4.13089,-3.35747 -2.29494,-1.56682 -4.89587,-2.68598 -2.60094,-1.11915 -4.58989,-1.34299 V 81.222603 h 11.47471 q 3.6719,2.685979 5.20186,6.491115 1.52996,3.805136 2.44794,10.296252 0.45899,-6.267284 1.98895,-9.848589 1.68296,-3.805136 5.66086,-6.938778 h 11.4747 v 33.574727 h -6.11984 l 35.95408,77.22189 6.73183,14.99671 q 1.98894,4.47663 3.9779,6.49112 2.14194,2.01448 5.35486,2.01448 v -27.97894 q 0,-0.6715 -0.76498,-2.01449 -0.76499,-1.34299 -1.83595,-2.68598 -0.91798,-1.56682 -1.98896,-2.90981 -1.07097,-1.34298 -1.68295,-2.01447 -1.83595,-2.01449 -4.43689,-3.58131 -2.44794,-1.79065 -4.58988,-3.5813 3.8249,-2.23832 6.42583,-4.70047 2.75393,-2.46214 5.66086,-6.71495 l 3.21292,-5.37196 v -27.97893 q 0,-2.01449 -1.68296,-3.80515 -1.68296,-2.01448 -4.1309,-3.35747 -2.29493,-1.56682 -4.89587,-2.68598 -2.60093,-1.11915 -4.58988,-1.34299 V 81.222603 h 11.47471 q 3.6719,2.685979 5.20186,6.491115 1.52997,3.805136 2.44794,10.296252 0.45899,-6.267284 1.98895,-9.848589 1.68296,-3.805136 5.66086,-6.938778 h 11.4747 z M 288.1298,81.222603 v 33.574727 q -1.52996,0 -2.75393,0 -1.22397,0 -2.14195,0.44767 -1.22397,0.22383 -1.22397,1.79065 l 9.17977,37.37987 q 0,0.22384 1.22397,1.79065 1.37697,1.34299 2.75393,3.13364 1.52996,1.56683 2.90693,3.13364 1.37696,1.34299 1.52996,1.56683 l 10.55672,6.71495 q -1.22396,0.67149 -2.44793,1.56681 -1.07097,0.6715 -2.44794,1.56683 -2.75393,1.79065 -4.43688,4.25279 -1.68296,2.46216 -1.98896,6.71495 l 7.03782,30.21725 q 2.60094,11.63924 10.40374,11.63924 h 7.6498 v 33.57474 h -11.78069 q -3.82491,-2.90981 -5.35487,-6.49111 -1.37696,-3.80514 -2.29494,-10.29625 -0.45899,6.04344 -1.98895,9.84858 -1.52996,3.80513 -5.66085,6.93878 H 285.68186 V 226.7131 h 7.6498 q 2.29495,0 3.9779,-3.35746 1.83596,-3.35748 1.22397,-6.71495 l -6.42583,-27.75511 q -0.306,-1.56683 -1.68296,-3.35748 -1.22397,-2.01448 -2.90693,-3.58131 -1.68295,-1.79064 -3.5189,-2.9098 -1.68296,-1.11915 -2.90693,-1.11915 h -23.86739 q -1.22397,0 -3.05992,1.11915 -1.68296,0.89532 -3.36591,2.46214 -1.52996,1.56683 -2.90693,3.5813 -1.22397,1.79066 -1.68295,3.58131 l -6.42584,27.75511 q -1.22397,4.25281 0.61199,7.38645 1.83595,2.9098 4.58988,2.9098 h 7.6498 v 33.57474 H 241.16 q -3.8249,-2.90981 -5.35486,-6.49111 -1.37697,-3.80514 -2.29494,-10.29625 -0.45899,6.04344 -1.98895,9.84858 -1.52996,3.80513 -5.66086,6.93878 h -11.4747 V 226.7131 h 7.8028 q 3.97789,0 6.42583,-3.13364 2.60094,-3.13364 3.82491,-8.5056 l 7.03782,-30.21725 q 0.45898,-2.23832 -0.45899,-4.25279 -0.91798,-2.01449 -2.75393,-3.58131 -1.68296,-1.79065 -3.9779,-3.35748 -2.14195,-1.56681 -4.13089,-2.9098 1.37696,-0.6715 2.75393,-1.34299 1.37696,-0.6715 2.90692,-1.56683 0.91798,-0.44766 2.75393,-1.79065 1.98895,-1.56682 3.9779,-3.35747 2.14194,-2.01449 3.9779,-4.02897 1.83595,-2.23831 2.60093,-4.2528 l 8.87377,-37.37987 q 0.30599,-1.79065 -2.14194,-1.79065 -2.44794,0 -3.9779,-0.44767 V 81.222603 h 11.47471 q 3.82489,2.685979 5.20186,6.938778 1.52996,4.2528 2.44794,10.296252 0.45898,-6.491115 1.98895,-10.07242 1.52996,-3.805137 5.66085,-7.16261 z m -7.03782,82.370017 q 2.14194,0 2.75393,-2.46216 0.61198,-2.46214 0.30599,-4.92429 l -9.94474,-41.40884 h -10.40374 l -9.63875,41.40884 q -0.45899,2.23832 0.306,4.92429 0.91796,2.46216 2.75392,2.46216 z M 165.42745,81.222603 q 10.40373,0 18.66552,11.415409 8.10879,11.191578 8.10879,33.350908 0,27.53127 -5.04887,35.36538 -5.04887,7.38644 -10.25074,9.40093 3.05992,0.67149 9.17976,6.04344 5.96685,4.70046 6.11985,33.12707 0,5.81962 2.29493,9.17709 2.29495,3.13364 5.81386,6.26728 0.91797,0.6715 3.21292,1.56683 2.44794,0.67149 3.9779,-0.22384 v 33.57474 h -11.47471 q -3.8249,-2.90981 -5.35486,-6.49111 -1.37696,-3.80514 -2.29494,-10.29625 -0.45899,6.04344 -1.98895,9.84858 -1.52997,3.80513 -5.66086,6.93878 H 169.25234 V 226.7131 q 7.9558,1.56683 11.47471,-5.37195 3.67191,-6.93878 3.67191,-17.0112 0,-10.07242 -3.9779,-17.23503 -3.8249,-7.38643 -10.40373,-9.17708 h -25.24436 q -1.22397,0.89532 -3.51891,4.47662 -2.29494,3.5813 -2.60093,5.14813 v 27.97894 q 0,0.89532 1.83595,3.13364 1.83595,2.23831 2.60094,3.35748 2.14194,2.01447 4.74287,3.13364 2.60094,1.11915 6.11984,1.56681 v 33.57474 h -11.4747 q -3.8249,-2.90981 -5.35487,-6.49111 -1.37696,-3.80514 -2.29493,-10.29625 -0.459,6.04344 -1.98896,9.84858 -1.52996,3.80513 -5.66085,6.93878 H 115.70371 V 226.7131 q 3.36592,0 5.66086,-1.11915 2.44794,-1.11916 5.04887,-3.80514 1.52996,-1.79065 2.44794,-2.9098 1.07097,-1.34299 2.14194,-3.35748 v -27.97894 q 0,-1.34299 -1.22397,-3.35748 -1.07097,-2.01448 -2.75393,-3.80513 -1.68295,-2.01448 -3.5189,-3.58131 -1.83596,-1.79065 -3.21293,-2.68598 -3.97789,-2.68597 -3.82489,-2.9098 0.15299,-0.44766 3.97789,-3.5813 3.51891,-2.23832 5.81386,-5.81963 2.29493,-3.80514 4.74287,-7.83411 v -27.97893 q 0,-2.01449 -1.68295,-3.80515 -1.68296,-2.01448 -4.1309,-3.35747 -2.29494,-1.56682 -4.89588,-2.68598 -2.60092,-1.11915 -4.58988,-1.34299 V 81.222603 h 11.47471 q 3.67191,2.685979 5.20187,6.491115 1.52996,3.805136 2.44794,10.296252 0.76497,-10.520084 4.43688,-13.653725 3.67191,-3.133642 9.94475,-3.133642 1.68295,0 3.8249,0 2.29494,0 4.89587,-0.223832 h 5.50786 q 1.83596,0 1.98896,0.223832 z m 4.58988,82.370017 q 2.90692,0 8.72077,-6.04346 5.50786,-5.81962 5.81385,-20.36867 0,-10.07242 -2.44793,-14.54905 -2.29494,-4.70046 -9.02677,-7.83411 h -19.12452 q -4.28389,0 -8.87377,2.68598 -4.43688,2.68598 -6.42583,8.50561 v 27.97893 q 0,0.67151 0.76498,2.01449 0.76498,1.34299 1.83595,2.90981 1.07097,1.56683 1.98895,2.90981 1.07097,1.34299 1.52996,1.79066 z m -77.262734,45.21396 q 0,22.83082 -5.966852,34.24623 -4.895874,9.17709 -10.556729,12.98223 -5.507859,3.58131 -11.015718,4.2528 H 43.795845 q -6.272839,0 -11.780698,-4.47663 -5.507859,-4.47664 -9.79175,-12.08691 -5.966847,-11.19158 -5.966847,-33.79856 v -17.0112 -5.37195 q 0,-0.6715 -0.764981,-2.01449 -0.76498,-1.34299 -1.835953,-2.68598 -0.917975,-1.56682 -1.988948,-2.90981 -1.070973,-1.34298 -1.6829569,-2.01447 -1.8359534,-2.01449 -4.4368867,-3.58131 -2.4479374,-1.79065 -4.58988257,-3.5813 3.82490207,-2.23832 6.42583557,-4.70047 2.7539296,-2.46214 5.6608556,-6.71495 l 3.212917,-5.37196 v -27.97893 q 0,-27.531287 9.179765,-35.365392 9.179765,-7.386441 18.35953,-9.400925 h 21.419452 q 12.545679,0 21.419455,14.772883 2.906922,4.924294 4.436883,12.534564 1.682961,7.38644 1.682961,17.45887 v 27.97893 q 0,2.23832 1.682953,4.70047 1.835953,2.46214 4.28389,4.70046 2.447941,2.23832 5.048871,4.25281 2.60093,2.01447 4.28389,3.13364 -2.14194,1.34299 -4.58988,3.13364 -2.44794,1.56681 -4.436889,3.80513 -1.070968,1.11916 -3.518905,4.70046 -2.294946,3.35748 -2.75393,5.14813 z m -7.649805,-21.26399 q 0,-0.6715 -0.764984,-2.01449 -0.764976,-1.34299 -1.835952,-2.68598 -0.917977,-1.56682 -1.98895,-2.90981 -1.070972,-1.34298 -1.682957,-2.01447 -1.835953,-2.01449 -4.436885,-3.58131 -2.447938,-1.79065 -4.589883,-3.5813 1.529961,-0.89533 3.671906,-2.23832 2.294941,-1.56683 4.436886,-3.5813 2.294941,-2.23832 4.130894,-4.9243 1.988949,-2.68598 3.059925,-6.04346 v -16.78736 q 0,-12.0869 -3.212921,-16.3397 -3.212918,-4.2528 -9.026768,-6.04346 H 36.146041 q -5.201866,0 -8.720776,5.14813 -3.518911,5.14813 -3.518911,17.23503 v 16.78736 q 1.223969,2.23832 2.906926,5.14814 1.682957,2.68597 3.365914,4.70045 1.835953,1.56683 4.28389,3.58131 2.600933,2.01449 4.742879,3.35748 -2.141946,1.34299 -4.589883,3.13364 -2.447937,1.56681 -4.436886,3.80513 -1.070972,1.11916 -3.51891,4.70046 -2.294941,3.35748 -2.75393,5.14813 v 16.11587 q 0,12.53457 3.059922,17.0112 3.212918,4.25279 9.179765,6.04344 h 36.719061 q 5.507858,0 8.873772,-5.37195 3.365917,-5.37196 3.365917,-17.0112 z" />
</svg>
