<?xml version="1.0" encoding="UTF-8" standalone="no"?>
<svg
   xmlns:dc="http://purl.org/dc/elements/1.1/"
   xmlns:cc="http://creativecommons.org/ns#"
   xmlns:rdf="http://www.w3.org/1999/02/22-rdf-syntax-ns#"
   xmlns:svg="http://www.w3.org/2000/svg"
   xmlns="http://www.w3.org/2000/svg"
   xmlns:sodipodi="http://sodipodi.sourceforge.net/DTD/sodipodi-0.dtd"
   xmlns:inkscape="http://www.inkscape.org/namespaces/inkscape"
   version="1.1"
   width="11.5in"
   height="4in"
   id="svg5276"
   inkscape:version="1.0.1 (3bc2e813f5, 2020-09-07)"
   sodipodi:docname="The Kastle Seven Direction Sign for Lamp Post.svg"
   inkscape:export-filename="C:\Users\Klemen\Downloads\The Chronicles of Narnia logo.png"
   inkscape:export-xdpi="1500.2426"
   inkscape:export-ydpi="1500.2426"
   viewBox="0 0 1104 384">
  <sodipodi:namedview
     pagecolor="#ffffff"
     bordercolor="#666666"
     borderopacity="1"
     objecttolerance="10"
     gridtolerance="10"
     guidetolerance="10"
     inkscape:pageopacity="0"
     inkscape:pageshadow="2"
     inkscape:window-width="1920"
     inkscape:window-height="1017"
     id="namedview67"
     showgrid="true"
     inkscape:zoom="1"
     inkscape:cx="573.75"
     inkscape:cy="124.25645"
     inkscape:window-x="-8"
     inkscape:window-y="-8"
     inkscape:window-maximized="1"
     inkscape:current-layer="svg5276"
     fit-margin-top="0"
     fit-margin-left="0"
     fit-margin-right="0"
     fit-margin-bottom="0"
     inkscape:document-rotation="0"
     showguides="false"
     inkscape:snap-nodes="false"
     units="in"
     inkscape:document-units="in"
     inkscape:snap-bbox="true"
     inkscape:bbox-nodes="true"
     inkscape:snap-global="false">
    <inkscape:grid
       type="xygrid"
       id="grid986"
       units="in"
       spacingx="24"
       spacingy="24"
       empspacing="4" />
  </sodipodi:namedview>
  <defs
     id="defs5278">
    <inkscape:path-effect
       effect="perspective-envelope"
       up_left_point="104.39,36.803497"
       up_right_point="970.61,36.803497"
       down_left_point="24.394341,357.89577"
       down_right_point="1030.6059,357.89577"
       id="path-effect967"
       is_visible="true"
       lpeversion="1"
       deform_type="perspective"
       horizontal_mirror="false"
       vertical_mirror="false"
       overflow_perspective="false" />
    <inkscape:path-effect
       effect="perspective-envelope"
       up_left_point="53.102544,52.114112"
       up_right_point="998.73,52.114112"
       down_left_point="53.102544,382.77622"
       down_right_point="999.02854,382.77622"
       id="path-effect906"
       is_visible="true"
       lpeversion="1"
       deform_type="perspective"
       horizontal_mirror="false"
       vertical_mirror="false"
       overflow_perspective="false" />
    <clipPath
       id="clipPath3717">
      <path
         d="m 427.26,426.42 h 71.64 v 24 h -71.64 z"
         id="path3719"
         inkscape:connector-curvature="0" />
    </clipPath>
    <clipPath
       id="clipPath3733">
      <path
         d="m 427.264,426.42 h 71.589 v 23.968 h -71.589 z"
         id="path3735"
         inkscape:connector-curvature="0" />
    </clipPath>
    <clipPath
       id="clipPath3745">
      <path
         d="m 427.26,426.42 h 71.64 v 24 h -71.64 z"
         id="path3747"
         inkscape:connector-curvature="0" />
    </clipPath>
    <clipPath
       id="clipPath3773">
      <path
         d="m 427.264,426.42 h 71.589 v 23.968 h -71.589 z"
         id="path3775"
         inkscape:connector-curvature="0" />
    </clipPath>
    <clipPath
       id="clipPath3789">
      <path
         d="m 427.26,426.42 h 71.64 v 24 h -71.64 z"
         id="path3791"
         inkscape:connector-curvature="0" />
    </clipPath>
  </defs>
  <metadata
     id="metadata5281">
    <rdf:RDF>
      <cc:Work
         rdf:about="">
        <dc:format>image/svg+xml</dc:format>
        <dc:type
           rdf:resource="http://purl.org/dc/dcmitype/StillImage" />
        <dc:title></dc:title>
      </cc:Work>
    </rdf:RDF>
  </metadata>
  <g
     id="text1040"
     style="font-size:192px;line-height:1.25;font-family:CountdownD;-inkscape-font-specification:CountdownD" />
  <g
     id="text1044"
     style="font-size:192px;line-height:1.25;font-family:CountdownD;-inkscape-font-specification:CountdownD" />
  <g
     id="g1076"
     transform="matrix(1.0046511,0,0,0.66242038,805.10699,-269.96178)"
     style="stroke-width:1.22582">
    <path
       id="path1058"
       style="font-style:normal;font-variant:normal;font-weight:normal;font-stretch:normal;font-size:174.68px;line-height:1.25;font-family:Computerfont;-inkscape-font-specification:'Computerfont, Normal';font-variant-ligatures:normal;font-variant-caps:normal;font-variant-numeric:normal;font-variant-east-asian:normal;stroke-width:1.22581"
       d="M 239.77778,868.93 V 951 h -6.85463 v -77.43 h -27.2139 v 14.79 l 6.65002,9.42501 V 946.215 L 208.98311,951 H 195.37616 L 192,946.215 V 868.93 l 3.47847,-4.93 h 40.82084 z M 205.60694,777.57 V 797 h 27.2139 v 9.57001 H 212.46157 V 845.285 h 20.35927 V 855 H 195.47846 L 192,850.07 v -77.14 l 3.47846,-4.93 h 37.34238 v 9.57 z m 20.56389,-52.49999 6.85463,-9.715 V 672 h 6.65001 v 53.07001 l -6.75232,9.57 V 754.07 L 229.44468,759 H 202.3331 l -3.47847,-4.93 V 734.78501 L 192,725.07001 V 676.93 l 3.47847,-4.93 h 13.40233 l 3.47847,4.93 v 72.355 h 13.81156 z M 205.60694,585.57 V 605 h 27.2139 v 9.57001 H 212.46157 V 653.285 h 20.35927 V 663 H 195.47846 L 192,658.07 v -77.14 l 3.47846,-4.93 h 37.34238 v 9.57 z m -6.85462,-28.285 H 219.3162 V 518.57001 H 195.47847 L 192,513.64001 V 484.93 L 195.47847,480 H 236.197 l 3.47847,4.93 v 14.355 h -6.65001 V 489.57 H 205.70925 V 509 H 236.197 l 3.47847,4.93001 V 562.07 L 236.197,567 H 195.47847 L 192,562.07 v -14.5 h 6.75232 z m -970.90188,228.12636 q 0.84401,-1.19467 1.899,-1.67999 0.96121,-0.29868 2.69609,-0.29868 h 31.29809 q 2.01623,0 3.46976,1.53067 1.33632,1.67999 1.33632,4.59197 0,3.21063 -1.33632,4.59198 -1.33632,1.53064 -3.46976,1.53064 h -22.17826 q -2.01621,0 -3.44632,0.896 -0.58611,0.336 -1.54733,1.38133 -1.05499,1.23198 -1.52387,3.0613 -0.5861,1.82933 -0.5861,3.69598 v 24.30384 q 0,2.42665 0.18755,4.2933 0.21099,1.97864 1.05499,3.65863 0.77366,1.68001 2.41476,2.27733 1.61765,0.78399 3.93864,0.78399 h 21.0295 q 2.29755,0 3.93865,1.38133 1.61765,1.34399 1.61765,4.89062 0,3.50933 -1.82865,5.03999 -1.24255,1.08265 -3.82142,1.08265 h -13.83211 q -1.24254,0 -2.29755,0.44799 -1.1722,0.44801 -2.0162,1.82933 -1.6411,2.61332 -1.6411,7.01862 v 27.55181 q 0,3.95731 1.14878,6.4213 0.86743,1.67998 2.20375,2.27732 1.24255,0.784 3.07119,0.784 h 14.11345 q 2.01623,0 3.44632,1.38131 1.45354,1.344 1.45354,4.70396 0,3.21065 -1.45354,4.44265 -1.43009,1.232 -3.44632,1.232 h -28.88334 q -3.09464,0 -4.43097,-0.29868 -1.33631,-0.1493 -2.39131,-1.67999 -1.055,-1.38133 -1.26598,-3.0613 -0.28134,-1.53066 -0.28134,-4.14399 v -109.0126 q 0,-2.6133 0.28134,-4.14397 0.21098,-1.53065 1.07842,-2.76264 z m -0.4074,-149.92098 q 1.6411,0 2.78988,1.67999 1.055,1.82931 1.055,4.25597 v 43.75438 q 0,2.57599 0.9612,4.44263 1.61765,2.72532 4.03242,2.72532 h 17.95832 q 1.71143,0 2.76643,-0.44799 0.9612,-0.29866 2.01619,-1.68001 1.45354,-1.8293 1.45354,-5.3386 v -42.22373 q 0,-2.76264 1.14878,-4.74131 1.14877,-1.97864 2.88365,-1.97864 1.73486,0 2.88363,2.16529 1.14877,2.12801 1.14877,5.00265 v 39.61039 q 0,2.76267 0.37511,4.74131 0.30479,1.97867 1.14877,3.21065 0.86745,1.232 3.09464,2.16532 2.10999,0.896 3.07122,2.87465 0.9612,2.16532 0.9612,5.5253 v 53.68497 q 0,2.57598 -0.0937,3.80798 -0.21101,1.23198 -1.17222,2.27731 -0.46889,0.63466 -1.4301,0.78399 -0.96123,0.1493 -1.92244,0.1493 h -7.68972 q -0.7502,0 -1.8052,-0.1493 -1.07845,0 -1.73488,-1.38133 -0.77365,-1.23196 -0.77365,-4.29328 0,-1.04534 0,-1.67999 v -40.65574 q 0,-2.16532 -0.0937,-3.50931 -0.18755,-1.23199 -0.77365,-2.61331 -1.24255,-3.06131 -3.75108,-3.06131 h -9.77626 q -1.26599,0 -2.41476,0 -1.24255,0.1493 -2.20376,1.38133 -2.10999,2.42663 -2.10999,6.42128 v 40.35705 q 0,1.53068 0,2.16533 0,2.27732 -0.0937,3.50932 -0.18756,1.23199 -0.77366,2.16531 -0.58611,0.89599 -1.24255,1.04532 -0.77366,0.29868 -2.32097,0.29868 h -8.6275 q -1.82865,0 -2.41477,-1.08267 -0.46888,-1.38133 -0.46888,-4.10665 0,-2.16532 0,-3.21064 V 641.42634 q 0,-2.57596 1.14876,-4.25597 1.14879,-1.67999 2.78987,-1.67999 z m -8.91532,-138.50177 q 0,-2.91201 1.54732,-4.74131 1.4301,-1.68 3.44631,-1.68 h 43.79389 q 1.73488,0 3.07121,1.68 1.35975,1.67999 1.35975,4.25596 0,2.61334 -1.26598,4.59197 -1.24254,1.97866 -2.88366,1.97866 h -8.72126 q -1.45355,0 -1.82866,0.18673 -0.67987,0.29867 -1.64109,1.53067 -1.43009,1.97864 -1.43009,5.93596 v 99.56733 q 0,2.57598 -0.39856,4.25597 -0.46888,1.86666 -1.43009,2.61333 -1.05501,0.78399 -2.88365,0.78399 h -7.19739 q -1.6411,0 -2.29754,-0.336 -0.77366,-0.1493 -1.45355,-1.53066 -0.77367,-1.34399 -0.86743,-2.87465 -0.18757,-1.53065 -0.18757,-3.06131 v -98.18603 q 0,-4.44262 -1.33631,-6.71993 -0.77367,-1.232 -1.92243,-1.82932 -1.14878,-0.48535 -2.6961,-0.48535 h -7.97104 q -1.92243,0 -3.35254,-1.67999 -1.45354,-1.53065 -1.45354,-4.25595 z m 802.896155,4.84291 q 2.133776,-3.70363 4.712054,-5.26306 2.400475,-0.97464 6.667897,-0.97464 h 77.081334 q 4.97877,0 8.62384,4.8732 3.2895,5.26306 3.2895,14.42467 0,9.94133 -3.2895,14.22975 -3.28949,4.8732 -8.62384,4.8732 H 55.297088 q -4.978783,0 -8.535053,2.92392 -1.422494,0.97464 -3.822939,4.28841 -2.578189,3.89857 -3.734013,9.55148 -1.422494,5.65291 -1.422494,11.50075 v 76.21684 q 0,7.6022 0.444523,13.45005 0.533449,6.23769 2.489382,11.50074 2.044739,5.26306 6.045541,7.01743 4.000802,2.53404 9.690747,2.53404 h 51.832158 q 5.68995,0 9.69062,4.28842 4.0008,4.28843 4.0008,15.39932 0,10.91597 -4.44533,15.78917 -3.11163,3.31379 -9.42396,3.31379 H 73.967261 q -3.022821,0 -5.601139,1.36448 -2.933904,1.55942 -4.978763,5.84784 -4.089599,8.18699 -4.089599,22.02686 v 86.35311 q 0,12.28048 2.844968,20.0776 2.133795,5.26305 5.423286,7.01741 3.02283,2.53408 7.556962,2.53408 h 34.762184 q 4.97877,0 8.62384,4.28839 3.46736,4.28841 3.46736,14.81452 0,9.94135 -3.46736,13.8399 -3.64507,3.89856 -8.62384,3.89856 H 38.760561 q -7.645988,0 -10.935478,-0.97463 -3.2895,-0.38986 -5.867769,-5.26307 -2.667204,-4.28844 -3.111707,-9.55148 -0.711222,-4.87319 -0.711222,-13.06017 V 523.46853 q 0,-8.18698 0.711222,-13.06018 0.444503,-4.67827 2.578268,-8.57683 z M -75.838926,673.95294 V 517.81562 q 0,-9.16162 2.667175,-15.9841 2.311579,-6.2377 6.401207,-6.2377 4.000723,0 6.578991,6.82248 2.578278,6.62755 2.578278,15.39932 v 305.64712 q 0,4.67827 0,6.62754 0,9.55149 0.26672,12.08553 0.266709,2.33913 1.422543,5.65292 2.133676,5.84784 4.978654,7.60218 2.578268,1.94931 6.845819,1.94931 h 34.584365 q 6.1344879,0 10.13521015,3.89855 3.82291925,3.70363 3.82291925,14.22974 0,10.52613 -3.82291925,14.42468 -4.00072225,3.89856 -10.13521015,3.89856 h -74.592015 q -4.711944,0 -8.268264,-2.33915 -3.734012,-1.94927 -4.978653,-6.82246 -1.155834,-4.28841 -1.422534,-8.57685 -0.177803,-4.28839 -0.177803,-10.52611 V 735.16035 q 0,-9.94133 0.444503,-13.83988 0.266709,-3.31379 1.600366,-7.21235 1.422434,-3.89857 8.090441,-7.01741 6.401197,-3.5087 8.712676,-8.77175 4.267531,-9.94135 4.267531,-24.36602 z M -244.58213,517.81562 q 0,-9.16162 3.82294,-15.00946 3.55623,-5.26306 8.53496,-5.26306 h 107.9316 q 4.26753,0 7.55703,5.26306 3.3784,5.26305 3.3784,13.45003 0,8.18698 -3.20061,14.42467 -3.02279,6.2377 -7.02349,6.2377 h -21.51528 q -3.64511,0 -4.53413,0.58478 -1.68926,0.77972 -4.00084,4.67827 -3.55621,6.2377 -3.55621,18.71309 v 311.88482 q 0,7.99202 -0.97793,13.25512 -1.15584,5.84784 -3.5562,8.18696 -2.57829,2.53407 -7.11252,2.53407 h -17.69226 q -4.08965,0 -5.68995,-0.97464 -1.86703,-0.58478 -3.55623,-4.87322 -1.95593,-4.28839 -2.13376,-8.96668 -0.44452,-4.87319 -0.44452,-9.55149 V 564.59833 q 0,-13.83988 -3.28951,-21.05222 -1.95592,-3.70363 -4.80091,-5.65291 -2.84499,-1.55943 -6.66793,-1.55943 h -19.55927 q -4.8009,0 -8.26824,-5.26305 -3.64514,-4.8732 -3.64514,-13.2551 z m -121.08973,-15.00946 q 1.60029,-3.70363 4.712,-5.65291 3.0228,-1.55943 6.84575,-1.55943 h 82.14895 q 4.26747,0 6.1345,0.58478 1.95593,0.97465 4.00075,4.28842 4.08969,6.2377 4.08969,17.73845 v 76.21685 q 0,9.55147 -2.40047,16.37395 -2.40044,6.62756 -6.66794,6.62756 -4.6231,0 -7.29028,-6.82248 -2.84499,-6.2377 -2.84499,-16.17903 v -34.1124 q 0,-7.60219 -0.2667,-11.50075 -0.44454,-3.31378 -2.13374,-8.18698 -1.60031,-4.28842 -4.00075,-5.65291 -2.31157,-1.3645 -5.95671,-1.3645 h -44.00836 q -2.57827,0 -4.6231,0 -2.40046,0.38986 -4.97872,3.89856 -6.40122,8.96669 -6.40122,23.78122 v 77.58135 q 0,12.47539 3.28952,22.02688 2.57827,6.82246 4.44529,9.55147 1.95592,2.92391 5.24544,2.92391 h 62.23404 q 5.95669,0 8.71278,0.58477 2.66717,0.97466 5.24544,5.65292 2.40047,5.26304 2.40047,14.03483 v 171.92649 q 0,3.89858 0,5.65292 0,5.45798 -0.26673,8.77174 -0.26673,3.31377 -1.95595,7.60221 -1.60028,4.28843 -4.17856,5.26307 -2.84499,1.36448 -7.6459,1.36448 h -84.90501 q -2.57829,0 -4.71201,-0.77972 -2.40046,-0.97462 -4.53421,-5.84783 -0.88905,-2.33915 -1.15578,-7.21232 -0.26671,-4.28844 -0.26671,-10.52611 v -79.9205 q 0,-10.13626 2.84499,-16.37396 2.57827,-5.65292 9.69074,-5.65292 h 16.35865 q 4.26748,0 7.557,6.04277 3.37842,6.2377 3.37842,18.32324 v 34.50228 q 0,12.86524 2.57827,21.0522 3.46733,11.11092 10.8465,11.11092 l 22.67098,-0.58479 q 6.93466,0 11.20211,-7.21236 4.2675,-6.62756 4.2675,-18.51815 v -89.66689 q 0,-9.55148 -0.44454,-15.39932 -0.80014,-5.26303 -2.93388,-9.55146 -2.13375,-4.28841 -5.15653,-5.65292 -3.11172,-1.55943 -6.93466,-1.55943 h -60.54484 q -5.95669,0 -8.26824,-0.97461 -2.31155,-0.38989 -4.712,-4.28844 -2.40047,-3.31377 -2.84499,-9.55147 -0.71125,-5.84784 -0.71125,-15.00946 V 522.10403 q 0,-4.28841 0.44452,-9.16162 0.26673,-4.8732 2.40047,-10.13625 z m -120.02283,0 q 2.13374,-4.28842 4.97873,-5.65291 2.845,-1.55943 6.13451,-1.55943 h 76.19225 q 3.55623,0 7.11247,0 3.28952,0.97464 6.66792,6.2377 3.28952,6.82248 3.28952,17.73845 v 352.81967 q 0,7.01742 -1.42249,12.2805 -2.40044,8.77174 -7.82371,8.77174 -5.42325,0 -7.55699,-7.40724 -2.40046,-7.01742 -2.40046,-14.22974 V 742.95746 q 0,-8.77175 -0.71124,-14.81452 -0.88905,-5.84783 -3.55623,-11.11089 -3.55625,-7.21233 -11.11323,-7.21233 h -38.3184 q -2.13374,0 -4.88981,0.58477 -2.66717,0.38984 -5.06763,3.70363 -2.57827,3.50871 -4.17857,9.55147 -1.95593,6.2377 -1.95593,12.08553 v 133.13585 q 0,15.78917 -5.15653,21.05222 -3.82295,3.89856 -12.09119,3.89856 -3.11171,0 -4.71202,0 -1.95592,0 -3.55623,0 -1.95592,0 -3.55622,0.38985 -5.95669,0 -8.53496,-4.28841 -3.55624,-5.65291 -3.55624,-21.4421 v -139.9583 q 0,-6.62752 0.71125,-10.13626 0.44453,-3.31378 1.86703,-7.21233 0.44452,-0.97465 11.64665,-10.91597 8.26824,-7.21233 8.26824,-24.95078 V 525.41781 q 0,-8.18698 0.71125,-12.86525 0.44453,-4.8732 2.57826,-9.7464 z m 29.60564,26.31528 q -2.9339,0 -5.51217,0 -2.57826,0.58478 -5.15653,4.48334 -4.97874,6.62756 -4.97874,21.44208 v 84.40383 q 0,6.62755 0.17783,12.86525 0,6.2377 2.66717,10.52612 2.31156,4.87319 5.42326,5.84783 2.84498,1.36449 7.8237,1.36449 h 39.74089 q 4.97872,0 8.80168,-2.33913 3.55623,-1.94928 5.24544,-7.21234 1.33358,-5.26305 1.77811,-10.52609 0.26672,-5.26307 0.26672,-14.03482 v -79.53064 q 0,-8.38191 -0.26672,-13.2551 -0.44453,-4.28842 -2.57826,-9.16162 -2.13374,-4.8732 -7.29029,-4.8732 -1.867,0 -3.11169,0 z M -658.97203,867.1266 V 519.56997 q 0,-9.55148 3.0228,-16.76381 3.11169,-7.21234 7.91261,-7.21234 4.4453,0 7.73481,7.21234 3.11169,7.60219 3.11169,17.73845 v 122.21985 q 0,5.26308 0,7.6022 0,5.26305 0.53345,7.79712 0.62233,3.89856 2.57826,4.28841 0.17781,0 0.71124,0 1.15579,0 2.31156,-0.97464 1.51139,-1.55943 2.84498,-3.89855 l 73.88071,-142.68731 q 3.55623,-6.82248 6.13449,-10.52611 3.73405,-5.84784 6.84576,-6.82248 2.84499,-0.38985 5.15653,-0.38985 7.37919,0 9.51292,3.31377 1.86703,3.31378 1.86703,7.21234 0,2.72899 -0.17782,4.28841 -0.44453,2.33914 -2.40046,6.2377 l -69.96885,135.6699 q -1.95592,3.31377 -3.37841,7.01742 -0.97798,3.50869 -1.15578,5.26304 0,1.16958 0.1778,1.55942 0.71125,4.28841 4.5342,4.28841 1.86703,0 2.84499,0 h 53.52128 q 4.00076,0 7.55699,1.55943 3.55622,1.36451 5.15654,4.28843 1.68921,3.11883 2.40044,8.3819 0.71126,5.84782 0.71126,13.06018 v 172.5113 q 0,8.96664 -2.57827,15.39928 -2.84498,6.62757 -8.62386,6.62757 l -17.95896,0.38985 q -4.26748,0 -6.57904,-0.58478 -2.31154,-0.7797 -4.00076,-4.48333 -1.68921,-3.89859 -1.95593,-8.38195 -0.44452,-3.7036 -0.44452,-12.28045 V 738.08427 q 0,-9.16163 -0.44453,-13.45003 -0.80016,-4.28844 -2.93389,-7.60219 -2.04484,-3.31378 -4.17857,-4.28843 -2.40046,-0.97462 -4.97873,-0.97462 h -19.64817 q -5.42327,0 -8.44607,0.7797 -2.93389,0.58478 -5.33434,4.48335 -4.17856,7.21233 -4.17856,22.41671 v 128.0677 q 0,10.13626 -1.86703,17.15368 -3.37842,9.16161 -9.77963,9.16161 h -19.826 q -7.37917,0 -9.06837,-9.16161 -0.62236,-2.72901 -0.88908,-7.6022 -0.26671,-4.28842 -0.26671,-9.94134 z" />
  </g>
</svg>
