<?xml version="1.0" encoding="UTF-8" standalone="no"?>
<svg
   xmlns:dc="http://purl.org/dc/elements/1.1/"
   xmlns:cc="http://creativecommons.org/ns#"
   xmlns:rdf="http://www.w3.org/1999/02/22-rdf-syntax-ns#"
   xmlns:svg="http://www.w3.org/2000/svg"
   xmlns="http://www.w3.org/2000/svg"
   xmlns:sodipodi="http://sodipodi.sourceforge.net/DTD/sodipodi-0.dtd"
   xmlns:inkscape="http://www.inkscape.org/namespaces/inkscape"
   width="12in"
   height="9in"
   viewBox="0 0 1152 864"
   version="1.1"
   id="svg2815"
   inkscape:version="1.0.1 (3bc2e813f5, 2020-09-07)"
   sodipodi:docname="12 X 9 Sheet Purple For the Rest of Us with light holes.svg">
  <defs
     id="defs2809" />
  <sodipodi:namedview
     id="base"
     pagecolor="#1f1f1f"
     bordercolor="#666666"
     borderopacity="1.0"
     inkscape:pageopacity="0"
     inkscape:pageshadow="2"
     inkscape:zoom="0.78"
     inkscape:cx="622.05093"
     inkscape:cy="383.85983"
     inkscape:document-units="in"
     inkscape:current-layer="layer3"
     showgrid="true"
     inkscape:snap-global="false"
     showguides="true"
     units="in"
     gridtolerance="10"
     inkscape:window-width="1904"
     inkscape:window-height="1001"
     inkscape:window-x="0"
     inkscape:window-y="0"
     inkscape:window-maximized="0"
     inkscape:guide-bbox="true"
     inkscape:document-rotation="0">
    <inkscape:grid
       type="xygrid"
       id="grid3368"
       units="in"
       spacingx="24"
       spacingy="24"
       empspacing="4" />
    <sodipodi:guide
       position="848.52941,1015.4706"
       orientation="0,1"
       id="guide845"
       inkscape:locked="false" />
    <sodipodi:guide
       position="1723.8948,926.85761"
       orientation="1,0"
       id="guide847"
       inkscape:locked="false" />
    <sodipodi:guide
       position="1103.3898,618.23729"
       orientation="1,0"
       id="guide849"
       inkscape:locked="false" />
    <sodipodi:guide
       position="46.795743,878.55233"
       orientation="1,0"
       id="guide851"
       inkscape:locked="false" />
    <sodipodi:guide
       position="1680.1181,795.52763"
       orientation="1,0"
       id="guide853"
       inkscape:locked="false" />
    <sodipodi:guide
       position="719.11765,1059.5882"
       orientation="0,-1"
       id="guide1138" />
  </sodipodi:namedview>
  <metadata
     id="metadata2812">
    <rdf:RDF>
      <cc:Work
         rdf:about="">
        <dc:format>image/svg+xml</dc:format>
        <dc:type
           rdf:resource="http://purl.org/dc/dcmitype/StillImage" />
        <dc:title></dc:title>
      </cc:Work>
    </rdf:RDF>
  </metadata>
  <g
     inkscape:label="Letter outlines with weed lines"
     inkscape:groupmode="layer"
     id="layer1"
     transform="translate(0,-40.2)"
     sodipodi:insensitive="true">
    <text
       xml:space="preserve"
       style="font-style:normal;font-variant:normal;font-weight:normal;font-stretch:normal;font-size:192px;line-height:1.25;font-family:CountdownD;-inkscape-font-specification:CountdownD;letter-spacing:0px;word-spacing:0px;fill:#0000d2;fill-opacity:0.507538;stroke:none;stroke-width:0.288;stroke-miterlimit:4;stroke-dasharray:none"
       x="129.82045"
       y="1059.6658"
       id="text827"><tspan
         sodipodi:role="line"
         id="tspan825"
         x="129.82045"
         y="1059.6658" /></text>
    <text
       xml:space="preserve"
       style="font-style:normal;font-variant:normal;font-weight:normal;font-stretch:normal;font-size:192px;line-height:1.25;font-family:Mephisto™;-inkscape-font-specification:Mephisto™;letter-spacing:0px;word-spacing:0px;fill:#0000d2;fill-opacity:0.507538;stroke:none;stroke-width:0.288;stroke-miterlimit:4;stroke-dasharray:none"
       x="1204.613"
       y="706.43341"
       id="text876"><tspan
         sodipodi:role="line"
         id="tspan874"
         x="1204.613"
         y="706.43341" /></text>
  </g>
  <g
     inkscape:groupmode="layer"
     id="layer2"
     inkscape:label="Cut Lines"
     sodipodi:insensitive="true">
    <path
       id="path845-3"
       style="display:inline;fill:#800080;fill-opacity:0.51;stroke:#0000ff;stroke-width:0.533037;stroke-miterlimit:4;stroke-dasharray:none;stroke-opacity:1"
       d="m 972.15249,622.60923 c 10.39538,0.60354 21.43523,-5.54855 27.28385,-9.87501 17.80176,6.40204 39.37676,5.96145 53.92996,-7.23008 16.0921,-8.02317 7.2482,-20.70009 -2.986,-28.87023 -20.3413,-25.68243 -18.3174,-59.7089 -22.1925,-90.23437 -1.8564,-17.70908 -3.0819,-35.66219 -1.9922,-53.38621 7.2277,14.08541 23.3889,12.3166 36.3544,16.31591 13.3554,14.92129 19.293,-10.18452 18.1842,-20.53161 2.2582,-8.1933 -4.4779,-28.97321 2.8567,-28.39795 7.5932,48.62414 11.151,97.78507 19.4333,146.29887 -0.1173,6.38371 8.8753,28.08061 8.0437,10.30394 -6.4252,-54.24444 -11.9945,-108.60948 -19.5886,-162.72009 10.0123,-9.15166 4.2847,-24.68281 -5.2447,-29.34598 -3.2092,-17.31589 -10.6513,-33.51462 -14.9386,-50.51415 -1.506,-13.23507 4.278,-8.40508 9.1781,-1.49619 14.7061,-8.71761 -5.2142,-35.77602 -17.0558,-18.89206 -11.4283,13.07502 -3.54,30.19648 3.714,43.09634 5.8332,10.9953 9.1486,23.01349 11.669,35.07573 -4.0185,7.80756 -9.872,-8.30248 -13.6276,4.3029 -6.8214,8.9292 -13.4766,24.67955 -27.6813,19.45421 -8.9125,-2.76872 -34.3866,-0.78575 -19.9802,-14.69555 8.8624,-12.57995 -14.428,-29.02194 4.7987,-34.7728 13.8723,-12.52779 -7.1137,-19.80439 -18.4292,-16.87378 -6.25278,-6.05372 -11.04005,-14.93032 -16.72781,-22.00098 -6.82347,-6.67464 -13.46222,-24.05786 -19.67912,-25.26568 0.3965,19.40619 0.43269,38.82205 0.28186,58.2343 -13.51641,4.48371 -22.52106,28.03743 -1.1641,25.78802 -4.28732,6.10444 1.51194,20.11316 1.70248,24.65835 -19.75578,6.69471 -41.93326,13.30838 -62.41807,5.8871 -6.16958,1.70353 -1.96768,12.82455 -10.52279,6.10706 -4.52546,4.7588 -1.02717,13.66882 -12.31478,9.0237 -17.75715,7.62483 5.39313,27.13903 18.64348,19.5405 5.97838,8.29 5.2863,25.84664 12.31641,36.47797 3.56542,11.44068 15.68005,10.5518 17.12763,-1.27876 4.8935,-9.17988 19.43183,-27.58937 26.07343,-24.71547 -4.06487,39.08762 -6.60589,79.06801 -20.08392,116.42156 -5.74203,13.88553 -13.78588,27.99394 -27.35761,35.95116 -1.07135,11.75037 15.86631,19.7418 25.91765,24.23738 11.59338,4.4661 24.24144,4.11571 36.47605,3.92195 z m -445.2219,-8.61417 -51.15772,55.95255 q 0.25823,-1.03615 1.58393,-5.18079 1.32578,-4.14463 1.84208,-6.21695 3.27023,-13.12466 -8.48617,-14.16083 -48.64483,0 -48.64483,0 l -11.44575,45.93635 q 2.55136,0.34538 8.4121,0.34538 5.94691,-0.34538 6.53296,-0.34538 13.77288,0 18.30579,-1.72693 9.7379,-3.79924 18.04099,-18.30547 2.44667,-2.76308 4.49794,-2.76308 l -19.01898,76.33031 q -0.87908,0 -2.29308,-1.38154 -0.33237,-12.77928 -7.16046,-18.30546 -5.12124,-4.14463 -15.58463,-4.49001 -8.49812,0 -16.99628,0 -0.46516,0.69076 -2.36076,2.41769 -4.47503,17.96008 -13.09714,54.91639 -2.28877,10.36157 -7.43592,28.66701 -6.12882,21.06865 -8.02212,28.66705 -4.87612,-40.41013 -30.55163,-63.20561 4.61895,-2.07231 13.18464,-5.87161 3.65379,-1.7269 7.54716,-7.94385 3.34215,-5.18079 4.20276,-8.63468 l 26.42,-106.03349 q 2.49572,-10.0162 -6.57444,-18.30546 -8.98409,-8.63465 -8.84681,-10.36159 z M 338.8739,713.51342 q -8.60587,34.5386 -30.74727,58.71559 -25.26027,27.28552 -56.32253,27.28552 -31.94142,0 -43.01824,-27.28552 -9.88614,-23.83161 -1.02209,-59.40637 8.43376,-33.84784 33.00548,-58.37026 26.08815,-25.90394 55.97824,-25.90394 32.2345,0 42.08797,28.66704 8.21401,23.48625 0.0383,56.29794 z m -27.25283,0 q 5.33564,-21.41395 1.33104,-35.92015 -5.14412,-19.34163 -25.95001,-19.34163 -19.63368,0 -34.84661,21.06855 -11.57781,15.88776 -16.31104,34.884 -4.90535,19.68699 -0.27976,35.22938 5.4371,19.34163 23.89863,19.34163 18.46158,0 33.48611,-17.9601 13.24992,-15.54237 18.67164,-37.30168 z M 1037.6963,269.81194 H 889.16898 q 8.57081,-4.15993 23.98982,-15.59973 1.44669,-2.42667 3.53801,-5.19997 10.18572,-30.50614 19.25943,-66.55888 l 8.98646,-35.70607 q 6.80526,-27.03955 -12.78309,-37.78606 0.24477,-2.07994 0.33205,-2.42662 h 142.11814 q -9.2884,11.43981 -49.1557,50.26584 0.09,-5.89323 0.3712,-11.43981 -0.6927,-8.31986 -6.1787,-8.66652 -47.3728,0 -47.28551,-0.34666 l -9.59722,38.13271 h 27.86632 q 5.016,0 12.59581,-7.9732 7.5801,-7.97321 14.9685,-16.29308 l -19.71781,78.34536 q -5.2475,-25.65289 -12.9629,-25.99954 h -29.81686 q -0.17449,0.69332 -9.59728,38.13268 h 53.78204 q 5.57331,0 10.12431,-11.4398 2.9469,-7.27987 3.5068,-12.82644 13.0449,36.74608 24.1835,53.38579 z m -162.05664,-4.09446 h -67.43643 q 4.5993,-2.7733 14.26786,-7.97321 11.13227,-6.58653 14.70937,-20.79963 10.13761,-39.17272 10.05033,-38.82606 h -56.56857 l -27.91908,110.9315 h -3.06529 q -3.87645,-15.59973 -11.70757,-28.77287 -9.83252,-16.29305 -21.2043,-18.71966 0.73182,-0.69334 4.40784,-3.11994 15.11813,-1.38669 22.73719,-18.37302 2.42335,-5.19992 8.63483,-28.7729 1.57045,-6.23989 5.5135,-20.79965 4.30895,-14.90642 4.65794,-16.29307 9.16095,-36.3994 10.36812,-47.8392 0.90897,-6.93322 -5.04449,-13.17311 -7.17227,-6.93323 -7.38061,-8.31988 h 63.81378 q -1.27218,1.73331 -14.86166,11.43982 -10.55796,7.62653 -12.4774,15.25308 l -9.68443,38.47937 h 55.73256 q 2.38688,-1.73331 5.35332,-13.51978 4.79858,-19.06636 4.03556,-25.99957 -0.53781,-4.5066 -5.03021,-6.58657 -4.21381,-2.07995 -8.23616,-3.81326 12.28072,-4.50659 28.13596,-17.67972 16.13385,-13.173112 26.31164,-27.039552 L 881.41802,164.1458 q 0.59378,-3.4666 -9.43966,36.39942 -7.41601,29.46619 -7.41601,29.46619 -1.57041,6.23989 -2.69036,17.33304 0.46746,5.89325 5.55105,10.05318 6.68531,5.54655 8.21662,8.31985 z M 753.50996,101.54341 q -17.40875,20.453 -39.26447,53.03913 0.2813,-5.54657 0.56262,-11.09315 0.42195,-8.31987 -3.25144,-11.43982 -3.67338,-3.11994 -17.32786,-3.11994 -2.50796,0 -4.77375,3.46661 l -19.36888,76.95874 q -4.79859,19.06638 -4.45488,28.77285 0.47908,18.02639 13.69468,25.30626 h -71.61637 q 6.70748,-4.50663 20.10552,-14.55974 1.7423,-1.3867 6.36111,-8.66656 4.89748,-7.27987 5.76995,-10.74645 l 24.69094,-98.10508 q -0.78258,-2.42663 -7.47049,-2.42663 -11.98251,0 -17.12216,3.81327 -6.88197,5.19991 -13.36946,23.22629 -1.10409,-22.1863 -7.48058,-54.42578 z M 872.66423,385.5425 q -15.7829,19.05413 -35.4246,49.41157 0.1246,-5.16721 0.2491,-10.33444 0.1868,-7.75084 -3.3295,-10.65739 -3.5163,-2.90656 -16.2969,-2.90656 -2.3474,0 -4.3814,3.22951 l -16.204,71.69522 q -4.0145,17.76233 -3.4499,26.80497 0.8993,16.79348 13.4512,23.57547 h -67.0326 q 6.1654,-4.19837 18.4544,-13.56397 1.5961,-1.29181 5.7372,-8.07379 4.4019,-6.78198 5.1318,-10.0115 l 20.6563,-91.39526 q -0.7932,-2.26065 -7.053,-2.26065 -11.2156,0 -15.9309,3.55246 -6.3114,4.84426 -11.9327,21.63774 -1.5885,-20.66889 -8.3634,-50.70338 z m -165.5792,103.41853 q -5.2553,23.2525 -25.7234,36.49352 -16.4934,10.65739 -33.1863,10.65739 -14.0847,0 -28.6502,-7.10493 -14.3777,-6.78198 -19.8551,-6.78198 -6.2599,0 -19.8745,4.84427 l 55.5384,-58.77718 q -3.3586,6.78199 -4.6724,12.59511 -3.1386,13.88692 5.24,20.66891 6.2502,5.81312 17.205,5.81312 8.0856,0 15.2214,-3.87542 9.2535,-5.16723 11.3702,-14.53281 2.6277,-11.62626 -15.3286,-18.73119 -30.3515,-12.27215 -32.8556,-13.88691 -16.9344,-11.62626 -11.8251,-34.23286 5.2554,-23.2525 22.6665,-36.81647 15.1474,-11.62626 31.8403,-11.62626 11.7373,0 25.1446,6.45905 13.4804,6.13607 16.8711,6.13607 -2.6082,0 14.8146,-3.22951 -17.3585,16.79347 -49.9053,52.31814 0.9908,-3.22953 1.5747,-5.81314 5.7662,-25.51316 -15.3608,-25.51316 -16.1713,0 -19.1639,13.241 -2.6277,11.62626 15.3286,18.73119 28.4108,11.62626 32.8245,15.17874 16.3816,12.91804 10.7613,37.78531 z m -139.2418,43.36651 h -139.021 q 7.9182,-3.87542 22.0641,-14.53281 1.2934,-2.26067 3.1815,-4.84428 8.7706,-28.41974 16.3617,-62.00668 l 7.518,-33.26401 q 5.6933,-25.19021 -12.9102,-35.20171 0.1771,-1.9377 0.2501,-2.26066 h 133.022 q -8.4077,10.6574 -44.752,46.82796 -0.063,-5.49017 0.061,-10.65739 -0.8565,-7.75085 -6.0001,-8.07378 -44.3407,0 -44.2677,-0.32297 l -8.0289,35.52467 h 26.0827 q 4.6949,0 11.5902,-7.42788 6.8954,-7.42788 13.6029,-15.17872 l -16.4959,72.98703 q -5.5535,-23.8984 -12.7837,-24.22135 h -27.9085 q -0.146,0.64589 -8.029,35.52466 h 50.3398 q 5.2165,0 9.1902,-10.65741 2.5761,-6.78197 2.9614,-11.9492 13.1292,34.23286 23.9712,49.73453 z m -155.3356,-9.22908 c -12.1012,9.68856 -22.2789,21.63777 -30.5331,35.84763 -7.6632,13.13335 -12.8154,26.6973 -15.4567,40.69188 -2.2633,-21.5301 -4.6135,-43.06019 -7.0506,-64.59029 -2.9595,-26.91262 -6.12,-49.08863 -9.4817,-66.528 -9.9952,-1.93772 -20.0601,-5.49018 -30.1947,-10.65741 -0.9596,1.93772 -2.2423,6.45904 -3.8481,13.56397 -0.1947,0.8612 -0.88273,5.05957 -2.06419,12.5951 -1.18147,7.53553 -2.13715,12.91807 -2.86706,16.14758 -1.31383,5.81312 0.391,11.7339 5.11445,17.76233 3.7217,4.30602 7.4191,8.7197 11.0921,13.24102 h -74.07502 c 16.94919,-8.82734 27.39453,-21.9607 31.33603,-39.40009 l 21.24028,-93.97888 c 2.87097,-12.70276 3.83993,-23.14485 2.90686,-31.3263 -0.26474,-3.4448 -2.0526,-5.92076 -5.36355,-7.42787 -4.85518,-2.36831 -7.4706,-3.87541 -7.84627,-4.52132 4.85448,-3.01422 12.39347,-8.28908 22.61697,-15.82462 9.1801,-7.53554 21.2427,-20.13065 36.1876,-37.78532 l -7.2261,31.97219 c 0.6748,0.8612 1.6695,1.0765 2.984,0.64591 14.0489,-7.53554 25.7683,-11.30332 35.1581,-11.30332 15.4758,0 27.5303,6.67434 36.1637,20.023 9.6559,14.20987 12.0508,32.07985 7.1848,53.60995 -2.5304,11.19565 -8.7434,23.6831 -18.6392,37.46236 -9.7219,13.77927 -19.4409,22.92957 -29.157,27.45089 1.9491,12.91805 3.8982,25.83611 5.8474,38.75417 3.7302,16.57817 9.5947,24.86726 17.5934,24.86726 0.8694,0 2.2848,-0.10762 4.2462,-0.32296 2.1839,-0.43059 3.5611,-0.75354 4.1314,-0.96886 z m -14.4349,-128.85762 c 0.7299,-3.22952 1.3972,-6.56669 2.0019,-10.01149 0.2848,-2.79892 -0.8773,-6.88964 -3.4863,-12.27216 -2.5603,-5.59784 -0.089,-1.68871 -6.7095,-8.39675 -13.0972,-3.91606 -0.5171,-1.84465 -14.1373,-3.22951 -8.3464,0 -16.4804,2.90656 -24.4019,8.7197 -9.7784,7.10493 -16.0301,16.68582 -18.755,28.74267 -2.4331,10.76506 -0.4184,19.1618 6.0439,25.19022 5.1894,4.73663 11.7834,7.10493 19.7821,7.10493 7.6509,0 14.8808,-2.3683 21.6895,-7.10493 9.1108,-6.45903 15.1016,-16.03993 17.9726,-28.74268 z m 524.56135,354.66182 q -6.55437,24.95958 -28.95706,39.17268 -18.05203,11.43982 -35.88634,11.43982 -15.04778,0 -30.32219,-7.62655 -15.08679,-7.27988 -20.93857,-7.27988 -6.68799,0 -21.42934,5.19992 l 61.71134,-63.09229 q -3.86227,7.27987 -5.50096,13.51978 -3.91434,14.9064 4.76308,22.1863 6.44265,6.23989 18.14656,6.23989 8.63858,0 16.41872,-4.15994 10.09521,-5.54657 12.73506,-15.59973 3.27723,-12.47979 -15.61976,-20.10635 -31.93097,-13.17311 -34.54117,-14.9064 -17.62251,-12.47981 -11.25022,-36.74606 6.55436,-24.95961 25.7041,-39.51936 16.65311,-12.4798 34.48743,-12.4798 12.53985,0 26.60298,6.93322 14.15412,6.58656 17.77686,6.58656 -2.78671,0 15.95805,-3.46661 -19.22416,18.02637 -55.43208,56.15908 1.18904,-3.46662 1.91731,-6.2399 7.19147,-27.38621 -15.38023,-27.38621 -17.27708,0 -21.00934,14.21309 -3.27723,12.47979 15.61976,20.10633 29.88374,12.47981 34.45566,16.29308 16.97975,13.86643 9.97035,40.55933 z M 811.17241,566.13763 759.7225,758.88111 q -9.73494,38.13272 -36.85262,56.50574 -20.36111,13.86644 -43.76885,13.86644 -51.27398,0 -48.11724,-52.3458 0.0682,-4.50659 7.14707,-35.70608 3.99429,-17.33304 14.37191,-56.85238 1.36547,-5.19993 4.1986,-13.86645 3.11184,-8.66653 4.38623,-13.51978 3.18614,-12.13313 3.39248,-25.6529 0.23969,-7.27988 -5.27037,-12.82646 -7.37522,-6.93322 -9.34815,-11.09316 h 78.02568 q -7.77475,5.19992 -15.27088,10.39983 -10.45909,6.93322 -14.21377,16.98638 -4.67597,11.43982 -15.41789,52.34582 0.27314,-1.03999 -3.72115,16.29305 -3.35709,14.90643 -5.4563,21.83965 -19.63318,63.09229 15.19959,63.09229 33.43959,0 47.64064,-54.0791 1.54753,-5.89324 3.72679,-15.25309 2.17917,-9.35985 2.99843,-12.4798 8.37496,-31.8928 9.91137,-39.86601 5.06446,-25.6529 -0.70198,-27.03954 -4.09447,-1.38665 -12.09029,-2.7733 -0.37526,-0.69331 -2.99094,-3.46661 13.54119,-3.81327 36.92306,-25.99957 19.49719,-19.06635 36.74849,-41.25265 z M 483.99952,258.155 c -23.19725,16.17751 -37.48352,36.97717 -42.8588,62.39899 l -6.22681,-52.69248 c -2.59452,-21.9552 -5.38473,-39.98156 -8.37067,-54.0791 -9.23549,-1.61775 -18.50875,-4.5066 -27.81978,-8.66653 -0.73568,1.38664 -1.86212,4.96881 -3.37933,10.74649 -0.24274,0.92443 -0.9673,4.39104 -2.17363,10.39983 -1.20634,6.00878 -2.17365,10.39982 -2.90191,13.17311 -1.02799,4.62215 0.60741,9.35985 4.90624,14.2131 3.30181,3.69772 6.60362,7.39544 9.90545,11.09316 h -68.27241 c 15.6287,-7.16433 25.32438,-17.91082 29.08705,-32.23948 l 20.11814,-76.61206 c 2.67027,-10.16872 3.70821,-18.7197 3.11377,-25.65291 -0.20061,-2.77329 -1.91407,-4.73771 -5.14036,-5.89324 -4.28396,-2.07997 -6.67427,-3.2355 -7.17091,-3.4666 4.62954,-2.77329 11.63454,-7.16434 21.015,-13.17314 8.51226,-6.23988 19.75856,-16.524153 33.73886,-30.852813 l -6.82743,25.999573 c 0.56105,0.69331 1.42923,0.92442 2.60457,0.69331 12.97087,-6.239896 23.72914,-9.359833 32.27481,-9.359833 14.30468,0 25.51123,5.431017 33.61962,16.293063 8.60875,11.78647 10.60696,26.46178 5.99466,44.02594 -2.36682,9.01319 -8.1024,19.1819 -17.20671,30.50616 -9.04362,11.09315 -18.04509,18.48859 -27.00445,22.18631 1.66696,10.63094 3.36425,21.14632 5.09188,31.54615 3.29309,13.63533 8.65513,20.45299 16.08615,20.45299 0.7431,0 2.07386,-0.11556 3.99231,-0.34667 1.97914,-0.46221 3.24736,-0.69332 3.80469,-0.69332 z M 471.45484,153.11673 c 0.72826,-2.77328 1.24039,-5.43102 1.53641,-7.9732 0.4818,-2.54217 -0.46564,-6.00879 -2.84229,-10.39982 -2.37664,-4.39104 -2.69806,-4.25199 -6.35161,-6.58657 -7.61838,-2.82242 -1.61914,-1.31921 -12.64756,-2.77327 -7.80255,0 -15.40636,2.42662 -22.81138,7.27987 -8.88753,5.54658 -14.6361,13.28867 -17.24569,23.22629 -2.30615,8.78207 -0.56673,15.59974 5.21827,20.45299 4.72734,3.92882 10.80652,5.89324 18.23753,5.89324 7.05945,0 13.70589,-1.96442 19.93931,-5.89324 8.58036,-5.08436 14.23603,-12.82645 16.96701,-23.22629 z m -122.87979,30.83006 q -9.10323,34.6661 -30.80195,58.93235 -24.74732,27.38623 -54.28558,27.38623 -30.37425,0 -40.18114,-27.38623 -8.76657,-23.91959 0.60976,-59.62567 8.92116,-33.97278 32.94022,-58.58571 25.49782,-25.999566 53.92144,-25.999566 30.65292,0 39.2597,28.772856 7.18561,23.57295 -1.46245,56.50574 z m -25.91564,0 q 5.64399,-21.49298 2.22212,-36.05274 -4.37673,-19.41301 -24.1618,-19.41301 -18.67042,0 -33.69792,21.14632 -11.43272,15.94639 -16.4395,35.01275 -5.18884,19.75968 -1.20407,35.35942 4.6554,19.41302 22.21116,19.41302 17.55577,0 32.32131,-18.02638 13.01366,-15.59974 18.7487,-37.43938 z M 291.05468,29.654107 230.61033,103.83955 q 0.36413,-1.38664 2.0993,-6.933213 2.10488,-5.89325 2.7421,-8.31987 4.55161,-17.33305 -8.46007,-18.7197 -24.52234,0 -45.88279,0.69333 -7.33626,0.34666 -7.62049,-0.69333 L 157.4667,130.8791 q 3.06528,0 9.00824,-0.34666 6.96657,0 7.5239,0 15.32647,0 20.4223,-2.42663 10.74898,-4.85326 21.05036,-23.9196 2.95199,-3.81328 5.18129,-3.81328 l -26.58142,101.22501 q -1.02362,-0.34667 -2.42808,-2.42664 0.83798,-16.98639 -6.53726,-23.9196 -5.32241,-5.19991 -16.8442,-5.89324 -9.19588,0 -18.67042,0 -0.46073,0.69333 -2.49126,3.11995 -6.55989,23.91961 -18.74708,72.45214 -3.08397,13.86644 -10.20118,37.78605 -8.20961,28.07954 -10.75851,37.78606 -2.51317,-53.03915 -29.056531,-83.54532 5.004798,-2.07996 14.73017,-7.27987 4.259845,-2.42662 8.861551,-10.39983 4.04995,-6.93323 5.3244,-11.78647 L 144.03001,67.440157 q 2.63993,-10.05317 -1.3969,-18.02637 -2.06393,-3.81328 -8.79081,-11.09316 -5.23139,-5.54657 -4.69077,-8.66652 z M 183.97764,641.69988 c -11.05165,0.64161 -22.78862,-5.89862 -29.00648,-10.49803 -18.92576,6.80595 -41.86296,6.33755 -57.33509,-7.68625 -17.10802,-8.52937 -7.705761,-22.00609 3.17464,-30.69169 21.62558,-27.30278 19.47386,-63.47602 23.59363,-95.92739 1.97366,-18.82637 3.27655,-37.91216 2.11807,-56.75442 -7.68404,14.97408 -24.86569,13.09366 -38.649848,17.3453 -14.198538,15.8627 -20.511125,-10.82708 -19.332374,-21.82698 -2.400754,-8.71023 4.760679,-30.80116 -3.037022,-30.18961 -8.072718,51.69191 -11.855095,103.95447 -20.660277,155.52907 0.124808,6.78647 -9.435632,29.85226 -8.551691,10.95403 6.831034,-57.66679 12.751939,-115.4618 20.825532,-172.98631 -10.644435,-9.72906 -4.555188,-26.24009 5.575868,-31.19747 3.411827,-18.40837 11.323855,-35.6291 15.881761,-53.70116 1.601077,-14.07009 -4.548212,-8.93537 -9.757505,-1.59059 -15.634654,-9.26762 5.54348,-38.03318 18.132588,-20.08399 12.149908,13.89995 3.76347,32.10162 -3.948393,45.81535 -6.201557,11.68902 -9.726174,24.46544 -12.405932,37.28871 4.272408,8.30015 10.495394,-8.82629 14.488108,4.57437 7.252106,9.49257 14.327517,26.2366 29.429095,20.68161 9.47512,-2.9434 36.55767,-0.83532 21.24176,-15.62272 -9.42205,-13.37363 15.33889,-30.85296 -5.10174,-36.96665 -14.7481,-13.31819 7.56273,-21.05388 19.59267,-17.93838 6.64765,-6.43566 11.73718,-15.8723 17.78406,-23.38904 7.25433,-7.09576 14.31228,-25.57573 20.92172,-26.85973 -0.42156,20.63055 -0.46005,41.27137 -0.29965,61.90836 14.36969,4.76661 23.94294,29.80637 1.23761,27.41504 4.55799,6.48958 -1.60739,21.38213 -1.81006,26.21408 21.00309,7.11707 44.58082,14.14801 66.35905,6.25852 6.55921,1.81099 2.09189,13.63366 11.18722,6.49236 4.8111,5.05903 1.09205,14.5312 13.09232,9.59302 18.87824,8.10588 -5.73374,28.85126 -19.82066,20.77334 -6.35585,8.81302 -5.62007,27.47734 -13.09397,38.77942 -3.79052,12.16248 -16.67008,11.21752 -18.2091,-1.35944 -5.20241,-9.75906 -20.65864,-29.33003 -27.7197,-26.27481 4.32156,41.5537 7.02305,84.05652 21.35203,123.76675 6.10457,14.7616 14.65636,29.76013 29.08482,38.21938 1.13909,12.49172 -16.86801,20.98734 -27.55395,25.76655 -12.32535,4.74787 -25.77202,4.37538 -38.77911,4.1694 z" />
  </g>
  <g
     inkscape:groupmode="layer"
     id="layer3"
     inkscape:label="Light Holes">
    <circle
       style="opacity:0.928105;fill:#ff92a6;fill-opacity:1;stroke:#000060;stroke-width:0.188976"
       id="path842"
       cx="158.42316"
       cy="52.54081"
       r="14.305512" />
    <circle
       style="opacity:0.928105;fill:#ff92a6;fill-opacity:1;stroke:#000060;stroke-width:0.188976"
       id="path842-7"
       cx="247.05881"
       cy="52.941177"
       r="14.305512" />
    <circle
       style="opacity:0.928105;fill:#ff92a6;fill-opacity:1;stroke:#000060;stroke-width:0.188976"
       id="path842-8"
       cx="104.21158"
       cy="252.741"
       r="14.305512" />
    <circle
       style="opacity:0.928105;fill:#ff92a6;fill-opacity:1;stroke:#000060;stroke-width:0.188976"
       id="path842-7-9"
       cx="142.84723"
       cy="148.7296"
       r="14.305512" />
    <circle
       style="opacity:0.928105;fill:#ff92a6;fill-opacity:1;stroke:#000060;stroke-width:0.188976"
       id="path842-5"
       cx="149.7998"
       cy="101.27041"
       r="14.305512" />
    <circle
       style="opacity:0.928105;fill:#ff92a6;fill-opacity:1;stroke:#000060;stroke-width:0.188976"
       id="path842-7-2"
       cx="186.96489"
       cy="150.20018"
       r="14.305512" />
    <circle
       style="opacity:0.928105;fill:#ff92a6;fill-opacity:1;stroke:#000060;stroke-width:0.188976"
       id="path842-9"
       cx="201.27039"
       cy="51.270409"
       r="14.305512" />
    <circle
       style="opacity:0.928105;fill:#ff92a6;fill-opacity:1;stroke:#000060;stroke-width:0.188976"
       id="path842-7-6"
       cx="125.20019"
       cy="198.7296"
       r="14.305512" />
    <circle
       style="opacity:0.928105;fill:#ff92a6;fill-opacity:1;stroke:#000060;stroke-width:0.188976"
       id="path842-6"
       cx="495.38806"
       cy="-26.67078"
       r="14.305512" />
    <circle
       style="opacity:0.928105;fill:#ff92a6;fill-opacity:1;stroke:#000060;stroke-width:0.188976"
       id="path842-7-61"
       cx="267.8472"
       cy="259.02371"
       r="14.305512" />
    <circle
       style="opacity:0.928105;fill:#ff92a6;fill-opacity:1;stroke:#000060;stroke-width:0.188976"
       id="path842-85"
       cx="394.5527"
       cy="186.36433"
       r="14.305512" />
    <circle
       style="opacity:0.928105;fill:#ff92a6;fill-opacity:1;stroke:#000060;stroke-width:0.188976"
       id="path842-7-66"
       cx="447.89423"
       cy="266.17645"
       r="14.305512" />
    <circle
       style="opacity:0.928105;fill:#ff92a6;fill-opacity:1;stroke:#000060;stroke-width:0.188976"
       id="path842-8-8"
       cx="375.63519"
       cy="246.85863"
       r="14.305512" />
    <circle
       style="opacity:0.928105;fill:#ff92a6;fill-opacity:1;stroke:#000060;stroke-width:0.188976"
       id="path842-7-9-5"
       cx="411.32971"
       cy="120.78841"
       r="14.305512" />
    <circle
       style="opacity:0.928105;fill:#ff92a6;fill-opacity:1;stroke:#000060;stroke-width:0.188976"
       id="path842-5-4"
       cx="307.98813"
       cy="230.68216"
       r="14.305512" />
    <circle
       style="opacity:0.928105;fill:#ff92a6;fill-opacity:1;stroke:#000060;stroke-width:0.188976"
       id="path842-7-2-0"
       cx="337.80032"
       cy="186.96489"
       r="14.305512" />
    <circle
       style="opacity:0.928105;fill:#ff92a6;fill-opacity:1;stroke:#000060;stroke-width:0.188976"
       id="path842-9-2"
       cx="327.1058"
       cy="130.68217"
       r="14.305512" />
    <circle
       style="opacity:0.928105;fill:#ff92a6;fill-opacity:1;stroke:#000060;stroke-width:0.188976"
       id="path842-7-6-3"
       cx="234.85913"
       cy="217.84723"
       r="14.305512" />
    <circle
       style="opacity:0.928105;fill:#ff92a6;fill-opacity:1;stroke:#000060;stroke-width:0.188976"
       id="path842-6-1"
       cx="249.16464"
       cy="165.97627"
       r="14.305512" />
    <circle
       style="opacity:0.928105;fill:#ff92a6;fill-opacity:1;stroke:#000060;stroke-width:0.188976"
       id="path842-7-61-5"
       cx="276.03555"
       cy="128.14136"
       r="14.305512" />
    <circle
       style="opacity:0.928105;fill:#ff92a6;fill-opacity:1;stroke:#000060;stroke-width:0.188976"
       id="path842-0"
       cx="653.37622"
       cy="246.65845"
       r="14.305512" />
    <circle
       style="opacity:0.928105;fill:#ff92a6;fill-opacity:1;stroke:#000060;stroke-width:0.188976"
       id="path842-7-619"
       cx="311.12952"
       cy="655.88239"
       r="14.305512" />
    <circle
       style="opacity:0.928105;fill:#ff92a6;fill-opacity:1;stroke:#000060;stroke-width:0.188976"
       id="path842-8-9"
       cx="674.16461"
       cy="142.44687"
       r="14.305512" />
    <circle
       style="opacity:0.928105;fill:#ff92a6;fill-opacity:1;stroke:#000060;stroke-width:0.188976"
       id="path842-7-9-4"
       cx="571.62378"
       cy="34.023701"
       r="14.305512" />
    <circle
       style="opacity:0.928105;fill:#ff92a6;fill-opacity:1;stroke:#000060;stroke-width:0.188976"
       id="path842-5-1"
       cx="440.34103"
       cy="214.50571"
       r="14.305512" />
    <circle
       style="opacity:0.928105;fill:#ff92a6;fill-opacity:1;stroke:#000060;stroke-width:0.188976"
       id="path842-7-2-08"
       cx="481.91791"
       cy="169.31783"
       r="14.305512" />
    <circle
       style="opacity:0.928105;fill:#ff92a6;fill-opacity:1;stroke:#000060;stroke-width:0.188976"
       id="path842-9-29"
       cx="463.87045"
       cy="117.44687"
       r="14.305512" />
    <circle
       style="opacity:0.928105;fill:#ff92a6;fill-opacity:1;stroke:#000060;stroke-width:0.188976"
       id="path842-7-6-5"
       cx="639.27087"
       cy="116.37666"
       r="14.305512" />
    <circle
       style="opacity:0.928105;fill:#ff92a6;fill-opacity:1;stroke:#000060;stroke-width:0.188976"
       id="path842-6-6"
       cx="666.81165"
       cy="196.85863"
       r="14.305512" />
    <circle
       style="opacity:0.928105;fill:#ff92a6;fill-opacity:1;stroke:#000060;stroke-width:0.188976"
       id="path842-7-61-7"
       cx="718.68268"
       cy="119.31783"
       r="14.305512" />
    <circle
       style="opacity:0.928105;fill:#ff92a6;fill-opacity:1;stroke:#000060;stroke-width:0.188976"
       id="path842-66"
       cx="800.435"
       cy="121.65847"
       r="14.305512" />
    <circle
       style="opacity:0.928105;fill:#ff92a6;fill-opacity:1;stroke:#000060;stroke-width:0.188976"
       id="path842-7-5"
       cx="953.39954"
       cy="186.46306"
       r="14.305512" />
    <circle
       style="opacity:0.928105;fill:#ff92a6;fill-opacity:1;stroke:#000060;stroke-width:0.188976"
       id="path842-8-2"
       cx="1259.4587"
       cy="133.62337"
       r="14.305512" />
    <circle
       style="opacity:0.928105;fill:#ff92a6;fill-opacity:1;stroke:#000060;stroke-width:0.188976"
       id="path842-7-9-6"
       cx="778.97668"
       cy="214.90608"
       r="14.305512" />
    <circle
       style="opacity:0.928105;fill:#ff92a6;fill-opacity:1;stroke:#000060;stroke-width:0.188976"
       id="path842-5-5"
       cx="866.81158"
       cy="174.79984"
       r="14.305512" />
    <circle
       style="opacity:0.928105;fill:#ff92a6;fill-opacity:1;stroke:#000060;stroke-width:0.188976"
       id="path842-7-2-8"
       cx="820.1532"
       cy="192.84724"
       r="14.305512" />
    <circle
       style="opacity:0.928105;fill:#ff92a6;fill-opacity:1;stroke:#000060;stroke-width:0.188976"
       id="path842-9-28"
       cx="793.28223"
       cy="163.0351"
       r="14.305512" />
    <circle
       style="opacity:0.928105;fill:#ff92a6;fill-opacity:1;stroke:#000060;stroke-width:0.188976"
       id="path842-7-6-56"
       cx="851.03552"
       cy="250.2002"
       r="14.305512" />
    <circle
       style="opacity:0.928105;fill:#ff92a6;fill-opacity:1;stroke:#000060;stroke-width:0.188976"
       id="path842-6-7"
       cx="757.98816"
       cy="265.97632"
       r="14.305512" />
    <circle
       style="opacity:0.928105;fill:#ff92a6;fill-opacity:1;stroke:#000060;stroke-width:0.188976"
       id="path842-7-61-9"
       cx="876.03558"
       cy="123.72961"
       r="14.305512" />
    <circle
       style="opacity:0.928105;fill:#ff92a6;fill-opacity:1;stroke:#000060;stroke-width:0.188976"
       id="path842-80"
       cx="328.37619"
       cy="356.95255"
       r="14.305512" />
    <circle
       style="opacity:0.928105;fill:#ff92a6;fill-opacity:1;stroke:#000060;stroke-width:0.188976"
       id="path842-7-7"
       cx="296.42365"
       cy="511.76471"
       r="14.305512" />
    <circle
       style="opacity:0.928105;fill:#ff92a6;fill-opacity:1;stroke:#000060;stroke-width:0.188976"
       id="path842-8-7"
       cx="1009.8735"
       cy="257.30359"
       r="14.305512" />
    <circle
       style="opacity:0.928105;fill:#ff92a6;fill-opacity:1;stroke:#000060;stroke-width:0.188976"
       id="path842-7-9-59"
       cx="963.32825"
       cy="124.8231"
       r="14.305512" />
    <circle
       style="opacity:0.928105;fill:#ff92a6;fill-opacity:1;stroke:#000060;stroke-width:0.188976"
       id="path842-5-8"
       cx="936.38184"
       cy="252.02457"
       r="14.305512" />
    <circle
       style="opacity:0.928105;fill:#ff92a6;fill-opacity:1;stroke:#000060;stroke-width:0.188976"
       id="path842-7-2-6"
       cx="999.565"
       cy="36.964897"
       r="14.305512" />
    <circle
       style="opacity:0.928105;fill:#ff92a6;fill-opacity:1;stroke:#000060;stroke-width:0.188976"
       id="path842-9-7"
       cx="993.28229"
       cy="183.62334"
       r="14.305512" />
    <circle
       style="opacity:0.928105;fill:#ff92a6;fill-opacity:1;stroke:#000060;stroke-width:0.188976"
       id="path842-7-6-0"
       cx="1247.0009"
       cy="243.26202"
       r="14.305512" />
    <circle
       style="opacity:0.928105;fill:#ff92a6;fill-opacity:1;stroke:#000060;stroke-width:0.188976"
       id="path842-6-65"
       cx="789.24762"
       cy="481.39859"
       r="14.305512" />
    <circle
       style="opacity:0.928105;fill:#ff92a6;fill-opacity:1;stroke:#000060;stroke-width:0.188976"
       id="path842-7-61-53"
       cx="1038.1772"
       cy="125.38873"
       r="14.305512" />
    <circle
       style="opacity:0.928105;fill:#ff92a6;fill-opacity:1;stroke:#000060;stroke-width:0.188976"
       id="path842-78"
       cx="263.67035"
       cy="658.42316"
       r="14.305512" />
    <circle
       style="opacity:0.928105;fill:#ff92a6;fill-opacity:1;stroke:#000060;stroke-width:0.188976"
       id="path842-7-50"
       cx="259.65894"
       cy="783.82355"
       r="14.305512" />
    <circle
       style="opacity:0.928105;fill:#ff92a6;fill-opacity:1;stroke:#000060;stroke-width:0.188976"
       id="path842-8-6"
       cx="732.98816"
       cy="776.27039"
       r="14.305512" />
    <circle
       style="opacity:0.928105;fill:#ff92a6;fill-opacity:1;stroke:#000060;stroke-width:0.188976"
       id="path842-7-9-7"
       cx="327.50613"
       cy="700.2002"
       r="14.305512" />
    <circle
       style="opacity:0.928105;fill:#ff92a6;fill-opacity:1;stroke:#000060;stroke-width:0.188976"
       id="path842-5-2"
       cx="225.63516"
       cy="704.21155"
       r="14.305512" />
    <circle
       style="opacity:0.928105;fill:#ff92a6;fill-opacity:1;stroke:#000060;stroke-width:0.188976"
       id="path842-7-2-1"
       cx="695.1532"
       cy="810.49432"
       r="14.305512" />
    <circle
       style="opacity:0.928105;fill:#ff92a6;fill-opacity:1;stroke:#000060;stroke-width:0.188976"
       id="path842-9-6"
       cx="218.28221"
       cy="749.7998"
       r="14.305512" />
    <circle
       style="opacity:0.928105;fill:#ff92a6;fill-opacity:1;stroke:#000060;stroke-width:0.188976"
       id="path842-7-6-37"
       cx="311.32968"
       cy="759.02368"
       r="14.305512" />
    <circle
       style="opacity:0.928105;fill:#ff92a6;fill-opacity:1;stroke:#000060;stroke-width:0.188976"
       id="path842-6-8"
       cx="409.45874"
       cy="630.68213"
       r="14.305512" />
    <circle
       style="opacity:0.928105;fill:#ff92a6;fill-opacity:1;stroke:#000060;stroke-width:0.188976"
       id="path842-7-61-0"
       cx="483.72784"
       cy="633.30725"
       r="14.305512" />
    <circle
       style="opacity:0.928105;fill:#ff92a6;fill-opacity:1;stroke:#000060;stroke-width:0.188976"
       id="path842-68"
       cx="400.43503"
       cy="415.77612"
       r="14.305512" />
    <circle
       style="opacity:0.928105;fill:#ff92a6;fill-opacity:1;stroke:#000060;stroke-width:0.188976"
       id="path842-7-22"
       cx="367.01187"
       cy="454.33636"
       r="14.305512" />
    <circle
       style="opacity:0.928105;fill:#ff92a6;fill-opacity:1;stroke:#000060;stroke-width:0.188976"
       id="path842-8-81"
       cx="378.57642"
       cy="527.59015"
       r="14.305512" />
    <circle
       style="opacity:0.928105;fill:#ff92a6;fill-opacity:1;stroke:#000060;stroke-width:0.188976"
       id="path842-7-9-2"
       cx="766.11853"
       cy="403.32993"
       r="14.305512" />
    <circle
       style="opacity:0.928105;fill:#ff92a6;fill-opacity:1;stroke:#000060;stroke-width:0.188976"
       id="path842-5-49"
       cx="652.10577"
       cy="780.68219"
       r="14.305512" />
    <circle
       style="opacity:0.928105;fill:#ff92a6;fill-opacity:1;stroke:#000060;stroke-width:0.188976"
       id="path842-7-2-4"
       cx="800.31921"
       cy="432.55316"
       r="14.305512" />
    <circle
       style="opacity:0.928105;fill:#ff92a6;fill-opacity:1;stroke:#000060;stroke-width:0.188976"
       id="path842-9-9"
       cx="778.57635"
       cy="523.32922"
       r="14.305512" />
    <circle
       style="opacity:0.928105;fill:#ff92a6;fill-opacity:1;stroke:#000060;stroke-width:0.188976"
       id="path842-7-6-6"
       cx="664.27087"
       cy="734.02374"
       r="14.305512" />
    <circle
       style="opacity:0.928105;fill:#ff92a6;fill-opacity:1;stroke:#000060;stroke-width:0.188976"
       id="path842-6-2"
       cx="838.15405"
       cy="403.11804"
       r="14.305512" />
    <circle
       style="opacity:0.928105;fill:#ff92a6;fill-opacity:1;stroke:#000060;stroke-width:0.188976"
       id="path842-7-61-8"
       cx="626.03558"
       cy="509.02371"
       r="14.305512" />
    <circle
       style="opacity:0.928105;fill:#ff92a6;fill-opacity:1;stroke:#000060;stroke-width:0.188976"
       id="path842-56"
       cx="393.08206"
       cy="706.95258"
       r="14.305512" />
    <circle
       style="opacity:0.928105;fill:#ff92a6;fill-opacity:1;stroke:#000060;stroke-width:0.188976"
       id="path842-7-4"
       cx="443.48245"
       cy="705.88232"
       r="14.305512" />
    <circle
       style="opacity:0.928105;fill:#ff92a6;fill-opacity:1;stroke:#000060;stroke-width:0.188976"
       id="path842-8-4"
       cx="372.35464"
       cy="775.5163"
       r="14.305512" />
    <circle
       style="opacity:0.928105;fill:#ff92a6;fill-opacity:1;stroke:#000060;stroke-width:0.188976"
       id="path842-7-9-8"
       cx="680.44727"
       cy="628.14136"
       r="14.305512" />
    <circle
       style="opacity:0.928105;fill:#ff92a6;fill-opacity:1;stroke:#000060;stroke-width:0.188976"
       id="path842-5-24"
       cx="913.87042"
       cy="640.97632"
       r="14.305512" />
    <circle
       style="opacity:0.928105;fill:#ff92a6;fill-opacity:1;stroke:#000060;stroke-width:0.188976"
       id="path842-7-2-86"
       cx="864.27081"
       cy="648.72961"
       r="14.305512" />
    <circle
       style="opacity:0.928105;fill:#ff92a6;fill-opacity:1;stroke:#000060;stroke-width:0.188976"
       id="path842-9-5"
       cx="859.45874"
       cy="702.74103"
       r="14.305512" />
    <circle
       style="opacity:0.928105;fill:#ff92a6;fill-opacity:1;stroke:#000060;stroke-width:0.188976"
       id="path842-7-6-371"
       cx="898.09442"
       cy="728.14136"
       r="14.305512" />
    <circle
       style="opacity:0.928105;fill:#ff92a6;fill-opacity:1;stroke:#000060;stroke-width:0.188976"
       id="path842-6-5"
       cx="884.45874"
       cy="780.68219"
       r="14.305512" />
    <circle
       style="opacity:0.928105;fill:#ff92a6;fill-opacity:1;stroke:#000060;stroke-width:0.188976"
       id="path842-7-61-6"
       cx="830.44727"
       cy="781.08252"
       r="14.305512" />
    <circle
       style="opacity:0.928105;fill:#ff92a6;fill-opacity:1;stroke:#000060;stroke-width:0.188976"
       id="path842-4"
       cx="321.02328"
       cy="406.95261"
       r="14.305512" />
    <circle
       style="opacity:0.928105;fill:#ff92a6;fill-opacity:1;stroke:#000060;stroke-width:0.188976"
       id="path842-7-3"
       cx="312.60013"
       cy="454.41177"
       r="14.305512" />
    <circle
       style="opacity:0.928105;fill:#ff92a6;fill-opacity:1;stroke:#000060;stroke-width:0.188976"
       id="path842-8-79"
       cx="375.63522"
       cy="342.44687"
       r="14.305512" />
    <circle
       style="opacity:0.928105;fill:#ff92a6;fill-opacity:1;stroke:#000060;stroke-width:0.188976"
       id="path842-7-9-29"
       cx="412.80023"
       cy="372.25903"
       r="14.305512" />
    <circle
       style="opacity:0.928105;fill:#ff92a6;fill-opacity:1;stroke:#000060;stroke-width:0.188976"
       id="path842-5-13"
       cx="804.14197"
       cy="-11.399255"
       r="14.305512" />
    <circle
       style="opacity:0.928105;fill:#ff92a6;fill-opacity:1;stroke:#000060;stroke-width:0.188976"
       id="path842-7-2-3"
       cx="786.32965"
       cy="620.78839"
       r="14.305512" />
    <circle
       style="opacity:0.928105;fill:#ff92a6;fill-opacity:1;stroke:#000060;stroke-width:0.188976"
       id="path842-9-53"
       cx="757.9881"
       cy="729.21155"
       r="14.305512" />
    <circle
       style="opacity:0.928105;fill:#ff92a6;fill-opacity:1;stroke:#000060;stroke-width:0.188976"
       id="path842-7-6-4"
       cx="527.50616"
       cy="458.49582"
       r="14.305512" />
    <circle
       style="opacity:0.928105;fill:#ff92a6;fill-opacity:1;stroke:#000060;stroke-width:0.188976"
       id="path842-6-0"
       cx="772.69403"
       cy="677.74097"
       r="14.305512" />
    <circle
       style="opacity:0.928105;fill:#ff92a6;fill-opacity:1;stroke:#000060;stroke-width:0.188976"
       id="path842-7-61-76"
       cx="651.03552"
       cy="391.37668"
       r="14.305512" />
    <circle
       style="opacity:0.928105;fill:#ff92a6;fill-opacity:1;stroke:#000060;stroke-width:0.188976"
       id="path842-55"
       cx="490.14093"
       cy="393.71729"
       r="14.305512" />
    <circle
       style="opacity:0.928105;fill:#ff92a6;fill-opacity:1;stroke:#000060;stroke-width:0.188976"
       id="path842-7-27"
       cx="562.6001"
       cy="394.11765"
       r="14.305512" />
    <circle
       style="opacity:0.928105;fill:#ff92a6;fill-opacity:1;stroke:#000060;stroke-width:0.188976"
       id="path842-8-99"
       cx="486.49496"
       cy="459.71689"
       r="14.305512" />
    <circle
       style="opacity:0.928105;fill:#ff92a6;fill-opacity:1;stroke:#000060;stroke-width:0.188976"
       id="path842-7-9-70"
       cx="468.87115"
       cy="518.2243"
       r="14.305512" />
    <circle
       style="opacity:0.928105;fill:#ff92a6;fill-opacity:1;stroke:#000060;stroke-width:0.188976"
       id="path842-5-3"
       cx="544.94141"
       cy="516.01398"
       r="14.305512" />
    <circle
       style="opacity:0.928105;fill:#ff92a6;fill-opacity:1;stroke:#000060;stroke-width:0.188976"
       id="path842-7-2-33"
       cx="698.09442"
       cy="398.72961"
       r="14.305512" />
    <circle
       style="opacity:0.928105;fill:#ff92a6;fill-opacity:1;stroke:#000060;stroke-width:0.188976"
       id="path842-9-50"
       cx="641.81165"
       cy="435.09396"
       r="14.305512" />
    <circle
       style="opacity:0.928105;fill:#ff92a6;fill-opacity:1;stroke:#000060;stroke-width:0.188976"
       id="path842-7-6-54"
       cx="689.27094"
       cy="466.37665"
       r="14.305512" />
    <circle
       style="opacity:0.928105;fill:#ff92a6;fill-opacity:1;stroke:#000060;stroke-width:0.188976"
       id="path842-6-10"
       cx="671.22339"
       cy="685.09393"
       r="14.305512" />
    <circle
       style="opacity:0.928105;fill:#ff92a6;fill-opacity:1;stroke:#000060;stroke-width:0.188976"
       id="path842-7-61-85"
       cx="678.97675"
       cy="514.90607"
       r="14.305512" />
  </g>
</svg>
