<?xml version="1.0" encoding="UTF-8" standalone="no"?>
<!-- Created with Inkscape (http://www.inkscape.org/) -->

<svg
   xmlns:dc="http://purl.org/dc/elements/1.1/"
   xmlns:cc="http://creativecommons.org/ns#"
   xmlns:rdf="http://www.w3.org/1999/02/22-rdf-syntax-ns#"
   xmlns:svg="http://www.w3.org/2000/svg"
   xmlns="http://www.w3.org/2000/svg"
   xmlns:sodipodi="http://sodipodi.sourceforge.net/DTD/sodipodi-0.dtd"
   xmlns:inkscape="http://www.inkscape.org/namespaces/inkscape"
   width="23.5in"
   height="11.5in"
   viewBox="0 0 2256 1104"
   version="1.1"
   id="svg2815"
   inkscape:version="0.92.3 (2405546, 2018-03-11)"
   sodipodi:docname="23.5 x 11.5 Sheet Blue For the Rest of Us Cut Letters with Weed Lines.svg">
  <defs
     id="defs2809" />
  <sodipodi:namedview
     id="base"
     pagecolor="#1f1f1f"
     bordercolor="#666666"
     borderopacity="1.0"
     inkscape:pageopacity="0"
     inkscape:pageshadow="2"
     inkscape:zoom="1.03"
     inkscape:cx="579.55396"
     inkscape:cy="736.52931"
     inkscape:document-units="in"
     inkscape:current-layer="layer2"
     showgrid="true"
     inkscape:snap-global="false"
     showguides="true"
     units="in"
     gridtolerance="10"
     inkscape:window-width="1920"
     inkscape:window-height="1017"
     inkscape:window-x="-8"
     inkscape:window-y="-8"
     inkscape:window-maximized="1"
     inkscape:guide-bbox="true">
    <inkscape:grid
       type="xygrid"
       id="grid3368"
       units="in"
       spacingx="24"
       spacingy="24"
       empspacing="4" />
    <sodipodi:guide
       position="146.42539,1151.7791"
       orientation="0,1"
       id="guide845"
       inkscape:locked="false" />
    <sodipodi:guide
       position="1723.8948,926.85761"
       orientation="1,0"
       id="guide847"
       inkscape:locked="false" />
    <sodipodi:guide
       position="1103.4738,858.92831"
       orientation="1,0"
       id="guide849"
       inkscape:locked="false" />
    <sodipodi:guide
       position="46.795743,878.55233"
       orientation="1,0"
       id="guide851"
       inkscape:locked="false" />
    <sodipodi:guide
       position="1680.1181,795.52763"
       orientation="1,0"
       id="guide853"
       inkscape:locked="false" />
  </sodipodi:namedview>
  <metadata
     id="metadata2812">
    <rdf:RDF>
      <cc:Work
         rdf:about="">
        <dc:format>image/svg+xml</dc:format>
        <dc:type
           rdf:resource="http://purl.org/dc/dcmitype/StillImage" />
        <dc:title />
      </cc:Work>
    </rdf:RDF>
  </metadata>
  <g
     inkscape:label="Letter outlines with weed lines"
     inkscape:groupmode="layer"
     id="layer1"
     transform="translate(0,-40.2)">
    <g
       id="g861"
       transform="translate(-49.814823,-66.419764)"
       style="fill:#0000d2;stroke:#0000fc;stroke-opacity:1;stroke-width:0.288;stroke-miterlimit:4;stroke-dasharray:none;fill-opacity:0.50753766">
      <path
         d="m 349.10357,107.70409 -83.78822,102.83427 q 0.50476,-1.92214 2.91006,-9.61069 2.91779,-8.16908 3.80111,-11.53281 6.30947,-24.0267 -11.72739,-25.94884 -33.99296,0 -63.60291,0.96107 -10.16956,0.48054 -10.56356,-0.96107 L 163.92333,248.02 q 4.24912,0 12.48727,-0.48053 9.65709,0 10.42966,0 21.24561,0 28.30948,-3.36374 14.90029,-6.72748 29.1801,-33.15684 4.09206,-5.28588 7.18234,-5.28588 l -36.84729,140.31592 q -1.41895,-0.48054 -3.36581,-3.36374 1.1616,-23.54617 -9.06198,-33.15684 -7.37796,-7.20801 -23.3495,-8.16908 -12.74737,0 -25.88101,0 -0.63867,0.96107 -3.45341,4.3248 -9.09335,33.15685 -25.98729,100.4316 -4.275,19.22136 -14.14092,52.3782 -11.380189,38.92325 -14.913491,52.37821 -3.483767,-73.52171 -40.278287,-115.80869 6.937674,-2.8832 20.419026,-10.09121 5.905016,-3.36374 12.283924,-14.41602 5.614055,-9.61068 7.380706,-16.33815 L 145.29734,160.08229 q 3.65949,-13.93549 -1.93639,-24.98776 -2.86104,-5.28589 -12.18586,-15.3771 -7.25178,-7.68854 -6.50236,-12.01334 z"
         style="font-style:normal;font-variant:normal;font-weight:normal;font-stretch:normal;font-size:medium;line-height:1.25;font-family:Mephisto™;-inkscape-font-specification:Mephisto™;letter-spacing:0px;word-spacing:0px;fill:#0000d2;fill-opacity:0.50753766;stroke:#0000fc;stroke-width:0.288;stroke-opacity:1;stroke-miterlimit:4;stroke-dasharray:none"
         id="path847"
         inkscape:connector-curvature="0" />
      <path
         d="m 441.48346,287.42378 q -12.61894,48.0534 -42.69779,81.69077 -34.30484,37.96219 -75.25091,37.96219 -42.10492,0 -55.69927,-37.96219 -12.15226,-33.15683 0.84525,-82.65184 12.36655,-47.09232 45.66187,-81.21024 35.34521,-36.04004 74.74615,-36.04004 42.49121,0 54.42195,39.88432 9.96073,32.67631 -2.02725,78.32703 z m -35.92438,0 q 7.82374,-29.7931 3.08032,-49.97553 -6.06705,-26.90989 -33.49319,-26.90989 -25.88101,0 -46.71222,29.31256 -15.84808,22.10456 -22.7885,48.53393 -7.19279,27.39044 -1.66908,49.01446 6.45332,26.90991 30.78921,26.90991 24.33587,0 44.80393,-24.98777 18.0396,-21.62403 25.98953,-51.89767 z"
         style="font-style:normal;font-variant:normal;font-weight:normal;font-stretch:normal;font-size:medium;line-height:1.25;font-family:Mephisto™;-inkscape-font-specification:Mephisto™;letter-spacing:0px;word-spacing:0px;fill:#0000d2;fill-opacity:0.50753766;stroke:#0000fc;stroke-width:0.288;stroke-opacity:1;stroke-miterlimit:4;stroke-dasharray:none"
         id="path849"
         inkscape:connector-curvature="0" />
      <path
         d="m 627.91178,394.58285 c -32.15613,22.42492 -51.95981,51.25696 -59.41104,86.49611 l -8.63164,-73.04115 c -3.59653,-30.43382 -7.46434,-55.42159 -11.60345,-74.9633 -12.80229,-2.24249 -25.65692,-6.24694 -38.56391,-12.01335 -1.0198,1.92213 -2.58128,6.88765 -4.68444,14.89656 -0.3365,1.28142 -1.34087,6.08676 -3.01311,14.41601 -1.67223,8.32925 -3.01311,14.41602 -4.02262,18.26029 -1.42501,6.40712 0.842,12.97442 6.80103,19.70189 4.57699,5.1257 9.15399,10.2514 13.73099,15.37709 h -94.63951 c 21.66457,-9.93103 35.10477,-24.82759 40.3206,-44.68966 l 27.88784,-106.198 c 3.70156,-14.09567 5.14034,-25.94884 4.31633,-35.55951 -0.27809,-3.84427 -2.65329,-6.5673 -7.12559,-8.16908 -5.93845,-2.8832 -9.25189,-4.48498 -9.94034,-4.80533 6.41749,-3.84427 16.12785,-9.93104 29.13107,-18.26031 11.79975,-8.6496 27.3894,-22.90544 46.76896,-42.76752 l -9.46421,36.04006 c 0.77772,0.96106 1.98121,1.28141 3.61047,0.96106 17.98028,-8.64961 32.89344,-12.97442 44.73947,-12.97442 19.82923,0 35.36379,7.52837 46.60368,22.5851 11.93348,16.33815 14.70342,36.68076 8.30983,61.02781 -3.28092,12.49389 -11.23159,26.58955 -23.85202,42.28699 -12.53631,15.37709 -25.0142,25.62848 -37.43369,30.75417 2.31074,14.73638 4.66354,29.31258 7.05839,43.7286 4.56489,18.901 11.99778,28.3515 22.29868,28.3515 1.03009,0 2.87481,-0.16018 5.53416,-0.48054 2.74348,-0.64071 4.5015,-0.96107 5.27407,-0.96107 z M 610.5223,248.98106 c 1.00951,-3.84427 1.71944,-7.52836 2.12978,-11.05228 0.66787,-3.52391 -0.64546,-8.32925 -3.93999,-14.41601 -3.29453,-6.08677 -3.74008,-5.89402 -8.80463,-9.13015 -10.56064,-3.91239 -2.24448,-1.82867 -17.53211,-3.84426 -10.81594,0 -21.35636,3.36374 -31.62125,10.09121 -12.31993,7.68854 -20.28861,18.42046 -23.90604,32.19577 -3.1968,12.17353 -0.7856,21.62403 7.23361,28.3515 6.55305,5.44605 14.98003,8.16908 25.28093,8.16908 9.78585,0 18.99917,-2.72303 27.63994,-8.16908 11.89415,-7.04783 19.73407,-17.77975 23.51976,-32.19578 z"
         style="font-style:normal;font-variant:normal;font-weight:normal;font-stretch:normal;font-size:medium;line-height:1.25;font-family:Mephisto™;-inkscape-font-specification:Mephisto™;letter-spacing:0px;word-spacing:0px;fill:#0000d2;fill-opacity:0.50753766;stroke:#0000fc;stroke-width:0.288;stroke-miterlimit:4;stroke-dasharray:none;stroke-opacity:1"
         id="path851"
         inkscape:connector-curvature="0"
         sodipodi:nodetypes="ccscccsccccsscccccccscscccsccscscccscscs" />
    </g>
    <g
       id="g865"
       transform="translate(-61.891144,-9.0572406)"
       style="stroke-width:0.288;stroke-miterlimit:4;stroke-dasharray:none;fill:#0000d2;stroke:#0000fe;stroke-opacity:1;fill-opacity:0.50753766">
      <path
         d="M 937.11177,51.001079 865.79164,318.17795 q -13.49454,52.85874 -51.08528,78.32704 -28.22459,19.22136 -60.67243,19.22136 -71.0762,0 -66.70039,-72.56063 0.0953,-6.24694 9.90724,-49.495 5.5369,-24.02669 19.92248,-78.80756 1.89284,-7.20801 5.82014,-19.22136 4.31358,-12.01335 6.08023,-18.74082 4.41663,-16.81869 4.70261,-35.55951 0.33228,-10.09122 -7.30578,-17.77977 -10.22359,-9.61067 -12.95843,-15.37708 h 108.15944 q -10.77737,7.20801 -21.16845,14.41602 -14.49858,9.61068 -19.7032,23.54616 -6.48196,15.85762 -21.3723,72.56063 0.37857,-1.4416 -5.15833,22.5851 -4.65357,20.66295 -7.56365,30.27364 -27.21558,87.45717 21.06988,87.45717 46.35405,0 66.03959,-74.96329 2.14522,-8.16908 5.16605,-21.1435 3.02083,-12.97442 4.15653,-17.29922 11.60942,-44.20912 13.73921,-55.2614 7.02031,-35.55952 -0.97317,-37.48165 -5.67579,-1.92214 -16.75954,-3.84428 -0.52019,-0.96106 -4.14608,-4.80534 18.77085,-5.28587 51.18284,-36.04004 27.02717,-26.429368 50.94092,-57.183541 z"
         style="font-style:normal;font-variant:normal;font-weight:normal;font-stretch:normal;font-size:medium;line-height:1.25;font-family:Mephisto™;-inkscape-font-specification:Mephisto™;letter-spacing:0px;word-spacing:0px;fill:#0000d2;fill-opacity:0.50753766;stroke:#0000fe;stroke-width:0.288;stroke-miterlimit:4;stroke-dasharray:none;stroke-opacity:1"
         id="path853"
         inkscape:connector-curvature="0" />
      <path
         d="m 1048.7246,347.01 q -9.0857,34.59844 -40.1405,54.30033 -25.02357,15.85763 -49.74572,15.85763 -20.8593,0 -42.03269,-10.57176 -20.91337,-10.09121 -29.02533,-10.09121 -9.27081,0 -29.70527,7.20801 l 85.54445,-87.45717 q -5.35398,10.0912 -7.62539,18.74082 -5.42614,20.66295 6.60267,30.75417 8.93079,8.64961 25.15475,8.64961 11.97478,0 22.75982,-5.76641 13.99391,-7.68854 17.65341,-21.62402 4.5428,-17.29922 -21.65236,-27.87098 -44.26286,-18.26029 -47.88101,-20.66295 -24.42846,-17.29923 -15.59521,-50.9366 9.08563,-34.59845 35.63119,-54.78088 23.08444,-17.29922 47.80659,-17.29922 17.3828,0 36.8772,9.61069 19.6205,9.13014 24.6423,9.13014 -3.8629,0 22.1212,-4.80534 -26.6487,24.98776 -76.8402,77.8465 1.6482,-4.80534 2.6577,-8.64961 9.969,-37.96218 -21.32,-37.96218 -23.94956,0 -29.12332,19.70189 -4.54282,17.29922 21.65226,27.87096 41.42496,17.29923 47.76256,22.5851 23.5374,19.22136 13.8209,56.22248 z"
         style="font-style:normal;font-variant:normal;font-weight:normal;font-stretch:normal;font-size:medium;line-height:1.25;font-family:Mephisto™;-inkscape-font-specification:Mephisto™;letter-spacing:0px;word-spacing:0px;fill:#0000d2;fill-opacity:0.50753766;stroke:#0000fe;stroke-width:0.288;stroke-miterlimit:4;stroke-dasharray:none;stroke-opacity:1"
         id="path855"
         inkscape:connector-curvature="0" />
    </g>
    <g
       id="g875"
       transform="translate(-86.043786,1.5095401)"
       style="stroke-width:0.288;stroke-miterlimit:4;stroke-dasharray:none;fill:#0000d2;stroke:#0000fe;stroke-opacity:1;fill-opacity:0.50753766">
      <path
         d="m 309.14551,719.74263 c -16.77469,13.43005 -30.88308,29.99379 -42.32517,49.6912 -10.62273,18.20517 -17.76477,37.00724 -21.42612,56.40621 -3.13732,-29.84456 -6.39516,-59.68912 -9.77351,-89.53367 -4.10243,-37.3057 -8.48362,-68.0456 -13.14359,-92.21969 -13.85533,-2.68601 -27.80736,-7.61037 -41.8561,-14.77306 -1.3302,2.68601 -3.10828,8.95337 -5.33424,18.80207 -0.26981,1.19378 -1.22359,7.01347 -2.86134,17.45907 -1.63775,10.44559 -2.96252,17.90673 -3.97432,22.38342 -1.82124,8.05803 0.542,16.26529 7.08972,24.62176 5.15902,5.96891 10.28431,12.08705 15.37587,18.3544 H 88.233597 C 111.72863,718.69807 126.20801,700.4929 131.67173,676.31881 l 29.44338,-130.2715 c 3.97975,-17.60829 5.32291,-32.08291 4.0295,-43.42384 -0.36699,-4.77513 -2.84532,-8.20725 -7.43499,-10.29637 -6.73026,-3.2829 -10.35577,-5.37202 -10.87653,-6.26736 6.72931,-4.17823 17.17988,-11.49015 31.35171,-21.93574 12.7256,-10.4456 29.44675,-27.90467 50.16345,-52.37721 l -10.01682,44.31917 c 0.93539,1.19379 2.31418,1.49223 4.13637,0.89534 19.47472,-10.4456 35.72017,-15.6684 48.73634,-15.6684 21.45258,0 38.16266,9.25182 50.13024,27.75545 13.38506,19.69741 16.70492,44.46839 9.95959,74.31295 -3.50757,15.51917 -12.12015,32.82901 -25.83773,51.92953 -13.47655,19.10052 -26.94908,31.78446 -40.4176,38.05181 2.70192,17.90673 5.40384,35.81347 8.10577,53.7202 5.17083,22.98031 13.30016,34.47047 24.388,34.47047 1.20521,0 3.16726,-0.14922 5.88615,-0.44767 3.02739,-0.59689 4.93638,-1.04456 5.72695,-1.34301 z M 289.13575,541.12295 c 1.0118,-4.47669 1.93681,-9.10259 2.77502,-13.87771 0.39481,-3.8798 -1.21606,-9.55027 -4.83261,-17.0114 -3.5491,-7.75959 -0.12408,-2.34085 -9.30081,-11.63938 -18.15539,-5.42837 -0.71673,-2.55702 -19.5971,-4.47668 -11.56993,0 -22.84528,4.02901 -33.82605,12.08704 -13.55485,9.84871 -22.22096,23.12954 -25.99835,39.84249 -3.37267,14.92228 -0.57994,26.56166 8.37817,34.91813 7.19347,6.56581 16.33414,9.84871 27.42199,9.84871 10.60577,0 20.6278,-3.2829 30.0661,-9.84871 12.62937,-8.95337 20.93392,-22.2342 24.91367,-39.84249 z"
         style="font-style:normal;font-variant:normal;font-weight:normal;font-stretch:normal;font-size:medium;line-height:1.25;font-family:Mephisto™;-inkscape-font-specification:Mephisto™;letter-spacing:0px;word-spacing:0px;fill:#0000d2;fill-opacity:0.50753766;stroke:#0000fe;stroke-width:0.28799999;stroke-miterlimit:4;stroke-dasharray:none;stroke-opacity:1"
         id="path858"
         inkscape:connector-curvature="0"
         sodipodi:nodetypes="ccccccssscccsscccccccscscccsccccccccscsccc" />
      <path
         d="M 509.02197,730.93434 H 316.31034 q 10.9763,-5.37202 30.58545,-20.14507 1.79294,-3.13368 4.41018,-6.71503 12.15788,-39.39482 22.6806,-85.95233 l 10.42154,-46.10985 q 7.89203,-34.91812 -17.89621,-48.79585 0.24552,-2.686 0.3467,-3.13367 h 184.39575 q -11.65483,14.77306 -62.0355,64.91191 -0.0877,-7.61036 0.0849,-14.77305 -1.18728,-10.74405 -8.3173,-11.19171 -61.46525,0 -61.36407,-0.44767 l -11.1298,49.24352 h 36.15603 q 6.50808,0 16.06643,-10.29638 9.55834,-10.29636 18.85631,-21.0404 l -22.86667,101.17305 q -7.69822,-33.12746 -17.72073,-33.57513 H 400.297 q -0.20235,0.89533 -11.12979,49.24352 h 69.78113 q 7.2312,0 12.73951,-14.77306 3.57102,-9.40103 4.10522,-16.56372 18.19974,47.45285 33.22891,68.94092 z"
         style="font-style:normal;font-variant:normal;font-weight:normal;font-stretch:normal;font-size:medium;line-height:1.25;font-family:Mephisto™;-inkscape-font-specification:Mephisto™;letter-spacing:0px;word-spacing:0px;fill:#0000d2;fill-opacity:0.50753766;stroke:#0000fe;stroke-width:0.288;stroke-miterlimit:4;stroke-dasharray:none;stroke-opacity:1"
         id="path860"
         inkscape:connector-curvature="0" />
      <path
         d="M 692.96788,678.10947 Q 685.68292,710.3416 657.31,728.696 q -22.86319,14.77306 -46.00304,14.77306 -19.52426,0 -39.71504,-9.84871 -19.9304,-9.40104 -27.52316,-9.40104 -8.67745,0 -27.55005,6.71503 l 76.98753,-81.47565 q -4.65571,9.40105 -6.47694,17.45907 -4.35074,19.24974 7.26377,28.65078 8.66401,8.05803 23.84954,8.05803 11.20837,0 21.09998,-5.37202 12.82724,-7.1627 15.76146,-20.14508 3.64248,-16.11605 -21.24858,-25.96476 -42.07332,-17.01139 -45.54458,-19.24974 -23.47454,-16.11606 -16.39194,-47.45285 7.28496,-32.23213 31.42033,-51.0342 20.99737,-16.11606 44.13723,-16.11606 16.27022,0 34.85555,8.95338 18.68652,8.50569 23.38681,8.50569 -3.61561,0 20.53604,-4.47668 -24.06249,23.27876 -69.17895,72.52227 1.37336,-4.47668 2.1828,-8.05803 7.99321,-35.3658 -21.29317,-35.3658 -22.41673,0 -26.56511,18.3544 -3.64248,16.11607 21.24858,25.96477 39.38319,16.11607 45.50142,21.04042 22.70826,17.90673 14.9174,52.37719 z"
         style="font-style:normal;font-variant:normal;font-weight:normal;font-stretch:normal;font-size:medium;line-height:1.25;font-family:Mephisto™;-inkscape-font-specification:Mephisto™;letter-spacing:0px;word-spacing:0px;fill:#0000d2;fill-opacity:0.50753766;stroke:#0000fe;stroke-width:0.288;stroke-miterlimit:4;stroke-dasharray:none;stroke-opacity:1"
         id="path862"
         inkscape:connector-curvature="0" />
      <path
         d="m 914.22335,521.87321 q -21.87827,26.41243 -49.10564,68.49326 0.17263,-7.1627 0.34527,-14.32538 0.25896,-10.74404 -4.61538,-14.77306 -4.87435,-4.02901 -22.5908,-4.02901 -3.25404,0 -6.07364,4.47668 l -22.46196,99.38237 q -5.5649,24.62177 -4.78234,37.15648 1.24673,23.27876 18.64621,32.67979 h -92.92099 q 8.54654,-5.81968 25.58161,-18.80207 2.21252,-1.79067 7.95291,-11.19171 6.10193,-9.40103 7.11373,-13.87772 l 28.63394,-126.69015 q -1.09954,-3.13367 -9.77699,-3.13367 -15.54709,0 -22.08348,4.92435 -8.7489,6.71502 -16.54118,29.99378 -2.20192,-28.65078 -11.59333,-70.28394 z"
         style="font-style:normal;font-variant:normal;font-weight:normal;font-stretch:normal;font-size:medium;line-height:1.25;font-family:Mephisto™;-inkscape-font-specification:Mephisto™;letter-spacing:0px;word-spacing:0px;fill:#0000d2;fill-opacity:0.50753766;stroke:#0000fe;stroke-width:0.288;stroke-miterlimit:4;stroke-dasharray:none;stroke-opacity:1"
         id="path864"
         inkscape:connector-curvature="0" />
    </g>
    <text
       xml:space="preserve"
       style="font-style:normal;font-variant:normal;font-weight:normal;font-stretch:normal;font-size:192px;line-height:1.25;font-family:CountdownD;-inkscape-font-specification:CountdownD;letter-spacing:0px;word-spacing:0px;fill:#0000d2;fill-opacity:0.50753766;stroke:none;stroke-width:0.288;stroke-miterlimit:4;stroke-dasharray:none;"
       x="129.82045"
       y="1059.6658"
       id="text827"><tspan
         sodipodi:role="line"
         id="tspan825"
         x="129.82045"
         y="1240.4158" /></text>
    <g
       id="g883"
       transform="translate(-15.095401,12.076321)"
       style="stroke-width:0.288;stroke-miterlimit:4;stroke-dasharray:none;fill:#0000d2;stroke:#0000fe;stroke-opacity:1;fill-opacity:0.50753766">
      <path
         d="m 216.84834,833.09053 q -24.13209,28.3515 -54.42857,73.52169 0.38994,-7.68854 0.77988,-15.37709 0.58492,-11.53281 -4.50714,-15.85762 -5.09206,-4.3248 -24.01996,-4.3248 -3.47655,0 -6.6174,4.80534 l -26.84921,106.67854 q -6.651832,26.42941 -6.175382,39.88431 0.664106,24.9878 18.983632,35.079 H 14.739272 q 9.29793,-6.247 27.870325,-20.1824 2.415193,-1.9222 8.817817,-12.0134 6.788909,-10.0912 7.998335,-14.8965 L 93.652445,874.41645 q -1.084826,-3.36374 -10.355634,-3.36374 -16.610203,0 -23.734817,5.28587 -9.539816,7.20802 -18.532802,32.19578 -1.530495,-30.75417 -10.369605,-75.44383 z"
         style="font-style:normal;font-variant:normal;font-weight:normal;font-stretch:normal;font-size:medium;line-height:1.25;font-family:Mephisto™;-inkscape-font-specification:Mephisto™;letter-spacing:0px;word-spacing:0px;fill:#0000d2;fill-opacity:0.50753766;stroke:#0000fe;stroke-width:0.288;stroke-miterlimit:4;stroke-dasharray:none;stroke-opacity:1"
         id="path867"
         inkscape:connector-curvature="0" />
      <path
         d="M 379.66875,1057.4999 H 286.1881 q 6.37551,-3.8443 19.77816,-11.0523 15.43155,-9.1301 20.39019,-28.832 14.05277,-54.30037 13.93183,-53.81984 h -78.4156 L 223.17112,1117.5666 H 218.922 q -5.37355,-21.624 -16.22908,-39.8843 -13.62989,-22.5851 -29.39349,-25.9488 1.01444,-0.9611 6.11017,-4.3248 20.9568,-1.9222 31.51838,-25.4683 3.35927,-7.208 11.96964,-39.88435 2.17696,-8.64961 7.64283,-28.83204 5.97309,-20.66295 6.45686,-22.58509 12.69895,-50.45607 14.37234,-66.31368 1.26001,-9.61069 -6.99269,-18.26029 -9.94224,-9.61069 -10.23104,-11.53283 h 88.45898 q -1.76357,2.40268 -20.6013,15.85763 -14.63552,10.57174 -17.29626,21.14349 l -13.4246,53.33927 h 77.25674 q 3.3087,-2.40267 7.42074,-18.74082 6.65183,-26.42937 5.59412,-36.04005 -0.74545,-6.24694 -6.9729,-9.13015 -5.84118,-2.88319 -11.41699,-5.28587 17.0236,-6.24694 39.00217,-24.50723 22.36487,-18.26029 36.47337,-37.48165 l -30.96125,123.01669 q 0.82314,-4.80534 -13.08524,50.45607 -10.2801,40.8454 -10.2801,40.8454 -2.17696,8.6496 -3.72942,24.0267 0.64796,8.1691 7.6949,13.9355 9.26715,7.6885 11.38987,11.5328 z"
         style="font-style:normal;font-variant:normal;font-weight:normal;font-stretch:normal;font-size:medium;line-height:1.25;font-family:Mephisto™;-inkscape-font-specification:Mephisto™;letter-spacing:0px;word-spacing:0px;fill:#0000d2;fill-opacity:0.50753766;stroke:#0000fe;stroke-width:0.288;stroke-miterlimit:4;stroke-dasharray:none;stroke-opacity:1"
         id="path869"
         inkscape:connector-curvature="0" />
      <path
         d="M 598.79424,1057.4999 H 392.90502 q 11.88096,-5.7664 33.25483,-21.624 2.00545,-3.3638 4.90441,-7.2081 14.11949,-42.28695 26.69749,-92.26248 l 12.45707,-49.49499 q 9.43351,-37.48165 -17.71998,-52.37821 0.33937,-2.88319 0.46031,-3.36373 h 197.0047 q -12.87562,15.85762 -68.13981,69.67742 0.1246,-8.16908 0.51455,-15.85762 -0.96023,-11.53281 -8.56496,-12.01335 -65.66823,0 -65.54729,-0.48053 l -13.30366,52.85874 h 38.62837 q 6.95311,0 17.46045,-11.05228 10.50736,-11.05229 20.74936,-22.58511 l -27.33298,108.60064 q -7.27417,-35.55947 -17.96918,-36.04 h -41.33236 q -0.24188,0.96107 -13.30366,52.8587 h 74.55276 q 7.72568,0 14.03447,-15.8576 4.08493,-10.09121 4.86116,-17.77974 18.0828,50.93664 33.52317,74.00224 z"
         style="font-style:normal;font-variant:normal;font-weight:normal;font-stretch:normal;font-size:medium;line-height:1.25;font-family:Mephisto™;-inkscape-font-specification:Mephisto™;letter-spacing:0px;word-spacing:0px;fill:#0000d2;fill-opacity:0.50753766;stroke:#0000fe;stroke-width:0.288;stroke-miterlimit:4;stroke-dasharray:none;stroke-opacity:1"
         id="path871"
         inkscape:connector-curvature="0" />
    </g>
    <text
       xml:space="preserve"
       style="font-style:normal;font-variant:normal;font-weight:normal;font-stretch:normal;font-size:192px;line-height:1.25;font-family:Mephisto™;-inkscape-font-specification:Mephisto™;letter-spacing:0px;word-spacing:0px;fill:#0000d2;fill-opacity:0.50753766;stroke:none;stroke-width:0.288;stroke-miterlimit:4;stroke-dasharray:none;"
       x="1204.613"
       y="706.43341"
       id="text876"><tspan
         sodipodi:role="line"
         id="tspan874"
         x="1204.613"
         y="887.18341" /></text>
    <g
       id="g894"
       style="stroke-width:0.288;stroke-miterlimit:4;stroke-dasharray:none;stroke:#0000fe;fill:#0000d2;stroke-opacity:1;fill-opacity:0.50753766">
      <path
         d="m 840.08065,928.2637 q -11.9295,47.87667 -42.62197,81.3903 -35.01583,37.8226 -78.07453,37.8226 -44.27734,0 -59.63206,-37.8226 -13.70421,-33.03487 -1.41683,-82.34784 11.69091,-46.91914 45.75235,-80.91158 36.1635,-35.9075 77.59734,-35.9075 44.68356,0 58.34245,39.73764 11.38627,32.55613 0.0533,78.03898 z m -37.77793,0 q 7.39629,-29.68355 1.84504,-49.79174 -7.13073,-26.81095 -35.97197,-26.81095 -27.21629,0 -48.30453,29.20478 -16.04921,22.02327 -22.61043,48.35544 -6.79982,27.28971 -0.38781,48.83421 7.53694,26.81096 33.12838,26.81096 25.59153,0 46.41855,-24.8959 18.36719,-21.5445 25.88277,-51.7068 z"
         style="font-style:normal;font-variant:normal;font-weight:normal;font-stretch:normal;font-size:medium;line-height:1.25;font-family:Mephisto™;-inkscape-font-specification:Mephisto™;letter-spacing:0px;word-spacing:0px;fill:#0000d2;fill-opacity:0.50753766;stroke:#0000fe;stroke-width:0.288;stroke-miterlimit:4;stroke-dasharray:none;stroke-opacity:1"
         id="path885"
         inkscape:connector-curvature="0" />
      <path
         d="m 1080.0879,820.06241 -70.915,77.56021 q 0.3579,-1.43629 2.1956,-7.18149 1.8378,-5.7452 2.5535,-8.61781 4.5332,-18.19313 -11.7636,-19.62944 -67.43161,0 -67.43161,0 l -15.86623,63.67599 q 3.53671,0.47876 11.66098,0.47876 8.24356,-0.47876 9.05598,-0.47876 19.09203,0 25.37558,-2.39384 13.49865,-5.26644 25.00845,-25.37464 3.39163,-3.83013 6.23513,-3.83013 l -26.36419,105.80744 q -1.21864,0 -3.17874,-1.91507 -0.46064,-17.71436 -9.9259,-25.37462 -7.09903,-5.7452 -21.60341,-6.22398 -11.78018,0 -23.56037,0 -0.6448,0.95754 -3.27244,3.35137 -6.20334,24.89587 -18.15538,76.1239 -3.17263,14.363 -10.30769,39.7376 -8.49574,29.2049 -11.12022,39.7377 -6.75936,-56.0157 -42.35081,-87.6143 6.40276,-2.8726 18.27655,-8.1391 5.06491,-2.3938 10.46193,-11.0116 4.63291,-7.1815 5.82586,-11.9692 l 36.62356,-146.98135 q 3.45955,-13.88424 -9.11357,-25.37464 -12.45373,-11.96916 -12.26346,-14.363 z"
         style="font-style:normal;font-variant:normal;font-weight:normal;font-stretch:normal;font-size:medium;line-height:1.25;font-family:Mephisto™;-inkscape-font-specification:Mephisto™;letter-spacing:0px;word-spacing:0px;fill:#0000d2;fill-opacity:0.50753766;stroke:#0000fe;stroke-width:0.288;stroke-miterlimit:4;stroke-dasharray:none;stroke-opacity:1"
         id="path887"
         inkscape:connector-curvature="0" />
    </g>
    <path
       style="fill:#0000d2;stroke:#0000fe;stroke-width:0.28799999;stroke-linecap:butt;stroke-linejoin:miter;stroke-miterlimit:4;stroke-dasharray:none;stroke-opacity:1;fill-opacity:0.50753766"
       d="m 201.57103,139.41207 14.0247,4.41695"
       id="path896"
       inkscape:connector-curvature="0"
       sodipodi:nodetypes="cc" />
    <path
       style="fill:#0000d2;stroke:#0000fe;stroke-width:0.28799999;stroke-linecap:butt;stroke-linejoin:miter;stroke-miterlimit:4;stroke-dasharray:none;stroke-opacity:1;fill-opacity:0.50753766"
       d="m 253.97436,96.704497 33.20335,23.088893"
       id="path896-5"
       inkscape:connector-curvature="0"
       sodipodi:nodetypes="cc" />
    <path
       style="fill:#0000d2;stroke:#0000fe;stroke-width:0.28799999;stroke-linecap:butt;stroke-linejoin:miter;stroke-miterlimit:4;stroke-dasharray:none;stroke-opacity:1;fill-opacity:0.50753766"
       d="m 395.74097,150.56494 33.97378,-12.78877"
       id="path896-3"
       inkscape:connector-curvature="0"
       sodipodi:nodetypes="cc" />
    <path
       style="fill:#0000d2;stroke:#0000fe;stroke-width:0.28799999;stroke-linecap:butt;stroke-linejoin:miter;stroke-miterlimit:4;stroke-dasharray:none;stroke-opacity:1;fill-opacity:0.50753766"
       d="M 589.1272,121.19987 651.72466,99.266285"
       id="path896-8"
       inkscape:connector-curvature="0"
       sodipodi:nodetypes="cc" />
    <path
       style="fill:#0000d2;stroke:#0000fe;stroke-width:0.28799999;stroke-linecap:butt;stroke-linejoin:miter;stroke-miterlimit:4;stroke-dasharray:none;stroke-opacity:1;fill-opacity:0.50753766"
       d="M 773.11404,135.06097 759.70015,99.210717"
       id="path896-0"
       inkscape:connector-curvature="0"
       sodipodi:nodetypes="cc" />
    <path
       style="fill:#0000d2;stroke:#0000fe;stroke-width:0.28799999;stroke-linecap:butt;stroke-linejoin:miter;stroke-miterlimit:4;stroke-dasharray:none;stroke-opacity:1;fill-opacity:0.50753766"
       d="m 840.49557,171.9902 46.36535,20.39446"
       id="path896-81"
       inkscape:connector-curvature="0"
       sodipodi:nodetypes="cc" />
    <path
       style="fill:#0000d2;fill-opacity:0.50753766;stroke:#0000fe;stroke-width:0.28799999;stroke-linecap:butt;stroke-linejoin:miter;stroke-miterlimit:4;stroke-dasharray:none;stroke-opacity:1"
       d="m 951.62327,257.84795 -6.88805,9.88128"
       id="path896-2"
       inkscape:connector-curvature="0"
       sodipodi:nodetypes="cc" />
    <path
       style="fill:#0000d2;stroke:#0000fe;stroke-width:0.28799999;stroke-linecap:butt;stroke-linejoin:miter;stroke-miterlimit:4;stroke-dasharray:none;stroke-opacity:1;fill-opacity:0.50753766"
       d="m 892.30181,296.59669 -11.16977,11.29858"
       id="path896-56"
       inkscape:connector-curvature="0"
       sodipodi:nodetypes="cc" />
    <path
       style="fill:#0000d2;stroke:#0000fe;stroke-width:0.28799999;stroke-linecap:butt;stroke-linejoin:miter;stroke-miterlimit:4;stroke-dasharray:none;stroke-opacity:1;fill-opacity:0.50753766"
       d="m 765.19992,377.6602 31.17486,16.78529"
       id="path896-50"
       inkscape:connector-curvature="0"
       sodipodi:nodetypes="cc" />
    <path
       style="fill:#0000d2;stroke:#0000fe;stroke-width:0.28799999;stroke-linecap:butt;stroke-linejoin:miter;stroke-miterlimit:4;stroke-dasharray:none;stroke-opacity:1;fill-opacity:0.50753766"
       d="m 577.9116,328.23491 48.31174,0.14102"
       id="path896-34"
       inkscape:connector-curvature="0"
       sodipodi:nodetypes="cc" />
    <path
       style="fill:#0000d2;stroke:#0000fe;stroke-width:0.28799999;stroke-linecap:butt;stroke-linejoin:miter;stroke-miterlimit:4;stroke-dasharray:none;stroke-opacity:1;fill-opacity:0.50753766"
       d="m 468.49229,337.33744 41.01545,-0.12271"
       id="path896-6"
       inkscape:connector-curvature="0"
       sodipodi:nodetypes="cc" />
    <path
       style="fill:#0000d2;stroke:#0000fe;stroke-width:0.28799999;stroke-linecap:butt;stroke-linejoin:miter;stroke-miterlimit:4;stroke-dasharray:none;stroke-opacity:1;fill-opacity:0.50753766"
       d="m 334.82889,316.28454 39.70929,20.85805"
       id="path896-36"
       inkscape:connector-curvature="0"
       sodipodi:nodetypes="cc" />
    <path
       style="fill:#0000d2;stroke:#0000fe;stroke-width:0.28799999;stroke-linecap:butt;stroke-linejoin:miter;stroke-miterlimit:4;stroke-dasharray:none;stroke-opacity:1;fill-opacity:0.50753766"
       d="m 164.78858,279.66547 47.4136,-9.34962"
       id="path896-23"
       inkscape:connector-curvature="0"
       sodipodi:nodetypes="cc" />
    <path
       style="fill:#0000d2;stroke:#0000fe;stroke-width:0.28799999;stroke-linecap:butt;stroke-linejoin:miter;stroke-miterlimit:4;stroke-dasharray:none;stroke-opacity:1;fill-opacity:0.50753766"
       d="m 104.90269,732.37312 44.19136,0.16273"
       id="path896-26"
       inkscape:connector-curvature="0"
       sodipodi:nodetypes="cc" />
    <path
       style="fill:#0000d2;stroke:#0000fe;stroke-width:0.28799999;stroke-linecap:butt;stroke-linejoin:miter;stroke-miterlimit:4;stroke-dasharray:none;stroke-opacity:1;fill-opacity:0.50753766"
       d="m 393.38825,578.30844 9.68218,8.12897"
       id="path896-30"
       inkscape:connector-curvature="0"
       sodipodi:nodetypes="cc" />
    <path
       style="fill:#0000d2;stroke:#0000fe;stroke-width:0.28799999;stroke-linecap:butt;stroke-linejoin:miter;stroke-miterlimit:4;stroke-dasharray:none;stroke-opacity:1;fill-opacity:0.50753766"
       d="m 370.82843,678.81819 18.92294,-14.89631"
       id="path896-63"
       inkscape:connector-curvature="0"
       sodipodi:nodetypes="cc" />
    <path
       style="fill:#0000d2;stroke:#0000fe;stroke-width:0.28799999;stroke-linecap:butt;stroke-linejoin:miter;stroke-miterlimit:4;stroke-dasharray:none;stroke-opacity:1;fill-opacity:0.50753766"
       d="m 422.76222,732.3833 8.05773,0.01"
       id="path896-86"
       inkscape:connector-curvature="0"
       sodipodi:nodetypes="cc" />
    <path
       style="fill:#0000d2;stroke:#0000fe;stroke-width:0.28799999;stroke-linecap:butt;stroke-linejoin:miter;stroke-miterlimit:4;stroke-dasharray:none;stroke-opacity:1;fill-opacity:0.50753766"
       d="m 507.02341,651.34404 9.60735,-10.48845"
       id="path896-35"
       inkscape:connector-curvature="0"
       sodipodi:nodetypes="cc" />
    <path
       style="fill:#0000d2;stroke:#0000fe;stroke-width:0.28799999;stroke-linecap:butt;stroke-linejoin:miter;stroke-miterlimit:4;stroke-dasharray:none;stroke-opacity:1;fill-opacity:0.50753766"
       d="m 571.07657,604.93969 -5.66931,9.32536"
       id="path896-57"
       inkscape:connector-curvature="0"
       sodipodi:nodetypes="cc" />
    <path
       style="fill:#0000d2;stroke:#0000fe;stroke-width:0.28799999;stroke-linecap:butt;stroke-linejoin:miter;stroke-miterlimit:4;stroke-dasharray:none;stroke-opacity:1;fill-opacity:0.50753766"
       d="m 465.02032,521.58605 46.60093,19.154"
       id="path896-349"
       inkscape:connector-curvature="0"
       sodipodi:nodetypes="cc" />
    <path
       style="fill:#0000d2;stroke:#0000fe;stroke-width:0.28799999;stroke-linecap:butt;stroke-linejoin:miter;stroke-miterlimit:4;stroke-dasharray:none;stroke-opacity:1;fill-opacity:0.50753766"
       d="m 639.83333,532.91011 14.22951,-9.46207"
       id="path896-357"
       inkscape:connector-curvature="0"
       sodipodi:nodetypes="cc" />
    <path
       style="fill:#0000d2;stroke:#0000fe;stroke-width:0.28799999;stroke-linecap:butt;stroke-linejoin:miter;stroke-miterlimit:4;stroke-dasharray:none;stroke-opacity:1;fill-opacity:0.50753766"
       d="m 593.24547,709.82347 51.52901,22.6172"
       id="path896-565"
       inkscape:connector-curvature="0"
       sodipodi:nodetypes="cc" />
    <path
       style="fill:#0000d2;stroke:#0000fe;stroke-width:0.28799999;stroke-linecap:butt;stroke-linejoin:miter;stroke-miterlimit:4;stroke-dasharray:none;stroke-opacity:1;fill-opacity:0.50753766"
       d="m 222.89811,721.36514 7.74165,11.01775"
       id="path896-237"
       inkscape:connector-curvature="0"
       sodipodi:nodetypes="cc" />
    <path
       style="fill:#0000d2;stroke:#0000fe;stroke-width:0.28799999;stroke-linecap:butt;stroke-linejoin:miter;stroke-miterlimit:4;stroke-dasharray:none;stroke-opacity:1;fill-opacity:0.50753766"
       d="m 201.64005,845.09743 17.60082,1.63092"
       id="path896-9"
       inkscape:connector-curvature="0"
       sodipodi:nodetypes="cc" />
    <path
       style="fill:#0000d2;stroke:#0000fe;stroke-width:0.28799999;stroke-linecap:butt;stroke-linejoin:miter;stroke-miterlimit:4;stroke-dasharray:none;stroke-opacity:1;fill-opacity:0.50753766"
       d="m 308.0022,846.56562 20.70033,20.88051"
       id="path896-94"
       inkscape:connector-curvature="0"
       sodipodi:nodetypes="cc" />
    <path
       style="fill:#0000d2;stroke:#0000fe;stroke-width:0.28799999;stroke-linecap:butt;stroke-linejoin:miter;stroke-miterlimit:4;stroke-dasharray:none;stroke-opacity:1;fill-opacity:0.50753766"
       d="m 403.3495,806.00348 34.59379,37.13596"
       id="path896-58"
       inkscape:connector-curvature="0"
       sodipodi:nodetypes="cc" />
    <path
       style="fill:#0000d2;stroke:#0000fe;stroke-width:0.28799999;stroke-linecap:butt;stroke-linejoin:miter;stroke-miterlimit:4;stroke-dasharray:none;stroke-opacity:1;fill-opacity:0.50753766"
       d="m 556.45245,904.47752 10.58614,8.31934"
       id="path896-815"
       inkscape:connector-curvature="0"
       sodipodi:nodetypes="cc" />
    <path
       style="fill:#0000d2;stroke:#0000fe;stroke-width:0.28799999;stroke-linecap:butt;stroke-linejoin:miter;stroke-miterlimit:4;stroke-dasharray:none;stroke-opacity:1;fill-opacity:0.50753766"
       d="m 529.32492,1012.2807 20.84311,-16.45976"
       id="path896-59"
       inkscape:connector-curvature="0"
       sodipodi:nodetypes="cc" />
    <path
       style="fill:#0000d2;stroke:#0000fe;stroke-width:0.28799999;stroke-linecap:butt;stroke-linejoin:miter;stroke-miterlimit:4;stroke-dasharray:none;stroke-opacity:1;fill-opacity:0.50753766"
       d="m 364.39832,1069.5298 13.78084,-0.1261"
       id="path896-65"
       inkscape:connector-curvature="0"
       sodipodi:nodetypes="cc" />
    <path
       style="fill:#0000d2;stroke:#0000fe;stroke-width:0.28799999;stroke-linecap:butt;stroke-linejoin:miter;stroke-miterlimit:4;stroke-dasharray:none;stroke-opacity:1;fill-opacity:0.50753766"
       d="m 223.33662,1068.9147 48.18136,0.5672"
       id="path896-27"
       inkscape:connector-curvature="0"
       sodipodi:nodetypes="cc" />
    <path
       style="fill:#0000d2;stroke:#0000fe;stroke-width:0.28799999;stroke-linecap:butt;stroke-linejoin:miter;stroke-miterlimit:4;stroke-dasharray:none;stroke-opacity:1;fill-opacity:0.50753766"
       d="m 98.424995,1069.4619 59.984645,-5.6047"
       id="path896-7"
       inkscape:connector-curvature="0"
       sodipodi:nodetypes="cc" />
    <path
       style="fill:#0000d2;stroke:#0000fe;stroke-width:0.28799999;stroke-linecap:butt;stroke-linejoin:miter;stroke-miterlimit:4;stroke-dasharray:none;stroke-opacity:1;fill-opacity:0.50753766"
       d="m 791.95075,1015.1593 34.35921,22.7427"
       id="path896-636"
       inkscape:connector-curvature="0"
       sodipodi:nodetypes="cc" />
    <path
       style="fill:#0000d2;stroke:#0000fe;stroke-width:0.28799999;stroke-linecap:butt;stroke-linejoin:miter;stroke-miterlimit:4;stroke-dasharray:none;stroke-opacity:1;fill-opacity:0.50753766"
       d="m 996.05139,894.4042 13.24061,3.02872"
       id="path896-99"
       inkscape:connector-curvature="0"
       sodipodi:nodetypes="cc" />
    <path
       style="fill:#0000d2;stroke:#0000fe;stroke-width:0.28799999;stroke-linecap:butt;stroke-linejoin:miter;stroke-miterlimit:4;stroke-dasharray:none;stroke-opacity:1;fill-opacity:0.50753766"
       d="m 832.3972,834.79994 43.74087,-14.68652"
       id="path896-1"
       inkscape:connector-curvature="0"
       sodipodi:nodetypes="cc" />
    <path
       style="fill:#0000d2;stroke:#0000fe;stroke-width:0.28799999;stroke-linecap:butt;stroke-linejoin:miter;stroke-miterlimit:4;stroke-dasharray:none;stroke-opacity:1;fill-opacity:0.50753766"
       d="m 248.57903,521.67303 32.30467,-0.0645"
       id="path896-61"
       inkscape:connector-curvature="0"
       sodipodi:nodetypes="cc" />
  </g>
  <g
     inkscape:groupmode="layer"
     id="layer2"
     inkscape:label="Cut Lines">
    <path
       transform="translate(0,-40.2)"
       style="fill:none;stroke:#000000;stroke-width:1px;stroke-linecap:butt;stroke-linejoin:miter;stroke-opacity:1"
       d="M 672.81553,772.35534 596.11651,1129.6369"
       id="path1119"
       inkscape:connector-curvature="0"
       sodipodi:nodetypes="cc" />
    <path
       transform="translate(0,-40.2)"
       style="fill:none;stroke:#000000;stroke-width:1px;stroke-linecap:butt;stroke-linejoin:miter;stroke-opacity:1"
       d="m 0,830.60777 203.88349,3.88349 210.67962,-56.31068 667.96109,1.94175"
       id="path1117"
       inkscape:connector-curvature="0"
       sodipodi:nodetypes="cccc" />
    <path
       transform="translate(0,-40.2)"
       style="fill:none;stroke:#000000;stroke-width:1px;stroke-linecap:butt;stroke-linejoin:miter;stroke-opacity:1"
       d="M 2.9126214,534.49126 148.54369,352.93786 666.99029,486.91845 1074.7573,484.00583"
       id="path1113"
       inkscape:connector-curvature="0"
       sodipodi:nodetypes="cccc" />
    <path
       transform="translate(0,-40.2)"
       style="fill:none;stroke:#000000;stroke-width:1px;stroke-linecap:butt;stroke-linejoin:miter;stroke-opacity:1"
       d="M 594.17476,467.50097 635.92233,41.287379"
       id="path1115"
       inkscape:connector-curvature="0" />
  </g>
</svg>
