<?xml version="1.0" encoding="UTF-8" standalone="no"?>
<!-- Created with Inkscape (http://www.inkscape.org/) -->

<svg
   xmlns:dc="http://purl.org/dc/elements/1.1/"
   xmlns:cc="http://creativecommons.org/ns#"
   xmlns:rdf="http://www.w3.org/1999/02/22-rdf-syntax-ns#"
   xmlns:svg="http://www.w3.org/2000/svg"
   xmlns="http://www.w3.org/2000/svg"
   xmlns:sodipodi="http://sodipodi.sourceforge.net/DTD/sodipodi-0.dtd"
   xmlns:inkscape="http://www.inkscape.org/namespaces/inkscape"
   width="12in"
   height="24in"
   viewBox="0 0 1152 2304"
   version="1.1"
   id="svg2815"
   inkscape:version="0.92.3 (2405546, 2018-03-11)"
   sodipodi:docname="12x24 Sheet Calculator - Lt. Blue (Musical) Single w Weed Lines.svg">
  <defs
     id="defs2809" />
  <sodipodi:namedview
     id="base"
     pagecolor="#1f1f1f"
     bordercolor="#666666"
     borderopacity="1.0"
     inkscape:pageopacity="0"
     inkscape:pageshadow="2"
     inkscape:zoom="1.03"
     inkscape:cx="350.63834"
     inkscape:cy="2038.3162"
     inkscape:document-units="in"
     inkscape:current-layer="layer1"
     showgrid="true"
     inkscape:snap-global="false"
     showguides="true"
     units="in"
     gridtolerance="10"
     inkscape:window-width="1920"
     inkscape:window-height="1017"
     inkscape:window-x="-8"
     inkscape:window-y="-8"
     inkscape:window-maximized="1"
     inkscape:guide-bbox="true">
    <inkscape:grid
       type="xygrid"
       id="grid3368" />
    <sodipodi:guide
       position="-358.88172,1152.9684"
       orientation="0,1"
       id="guide1164"
       inkscape:locked="false" />
  </sodipodi:namedview>
  <metadata
     id="metadata2812">
    <rdf:RDF>
      <cc:Work
         rdf:about="">
        <dc:format>image/svg+xml</dc:format>
        <dc:type
           rdf:resource="http://purl.org/dc/dcmitype/StillImage" />
        <dc:title />
      </cc:Work>
    </rdf:RDF>
  </metadata>
  <g
     inkscape:label="Layer 1"
     inkscape:groupmode="layer"
     id="layer1"
     transform="translate(0,1159.8)">
    <path
       id="path848"
       style="fill:none;fill-rule:evenodd;stroke:#2f2fff;stroke-width:0.48;stroke-linecap:butt;stroke-linejoin:miter;stroke-opacity:1;stroke-miterlimit:4;stroke-dasharray:none"
       d="m 531.12784,-655.60952 -19.61471,-11.909 m 40.66828,18.99684 q -8.63967,0 -21.17321,-7.2673 v -4.5713 q 7.78787,3.3992 10.46496,4.3368 5.84087,1.8755 11.31675,1.8755 4.38068,0 9.24805,-4.337 4.86738,-4.2196 5.96258,-8.4394 h -53.17646 q -0.2434,-0.2344 -0.36499,-0.2344 -7.05777,0 -12.04685,-6.9157 -4.38068,-6.2124 -4.38068,-13.3625 0,-3.9852 2.31199,-7.0329 2.67709,-3.3992 6.69266,-3.3992 7.17947,0 12.65524,6.9157 5.23248,6.4468 5.23248,13.4797 0,3.282 -0.97349,5.5091 h 65.83169 l 1.3386,4.8058 q -6.93607,0.7033 -13.75044,5.6263 -5.71917,4.337 -11.31675,8.5567 -6.69266,4.4541 -13.87213,4.4541 z" />
    <path
       id="path850"
       style="fill:none;fill-rule:evenodd;stroke:#2f2fff;stroke-width:0.48;stroke-linecap:butt;stroke-linejoin:miter;stroke-opacity:1;stroke-miterlimit:4;stroke-dasharray:none"
       d="m 391.94177,-634.21963 -11.55867,20.3152 m 18.9235,-41.25592 q 0,8.6396 -7.26736,21.1732 h -4.57131 q 3.39911,-7.7879 4.33685,-10.4649 1.87548,-5.8409 1.87548,-11.3168 0,-4.3806 -4.33695,-9.248 -4.21978,-4.8674 -8.43956,-5.9626 v 53.1764 q -0.23435,0.2434 -0.23435,0.3651 0,7.0577 -6.91561,12.0468 -6.21243,4.3807 -13.36261,4.3807 -3.98521,0 -7.03278,-2.312 -3.39922,-2.6771 -3.39922,-6.6927 0,-7.1794 6.91561,-12.6553 6.44679,-5.2324 13.47968,-5.2324 3.28204,0 5.50916,0.9734 v -65.8317 l 4.80577,-1.3385 q 0.70338,6.9361 5.62633,13.7504 4.33696,5.7192 8.55663,11.3168 4.45424,6.6926 4.45424,13.8721 z" />
    <path
       id="path852"
       style="fill:none;fill-rule:evenodd;stroke:#2f2fff;stroke-width:0.48;stroke-linecap:butt;stroke-linejoin:miter;stroke-opacity:1;stroke-miterlimit:4;stroke-dasharray:none"
       d="m 142.78295,-598.42924 24.51839,-2.8021 h -0.17513 m 32.6499,-68.06137 -0.41691,54.1574 q 0,7.0692 -8.19971,11.8619 -7.3659,4.3134 -15.84358,4.3134 -4.72521,0 -8.33864,-2.3964 -4.03044,-2.5161 -4.03044,-6.4701 0,-7.0692 8.19971,-12.5808 7.50483,-5.0323 15.98251,-5.0323 3.75247,0 6.53198,0.9585 v -45.6503 l -49.47622,10.6637 -0.41701,56.3141 q 0,7.0692 -8.19971,11.8619 -7.36579,4.3134 -15.84347,4.3134 -4.72532,0 -8.33875,-2.3963 -4.03034,-2.5162 -4.03034,-6.4702 0,-7.0692 8.19971,-12.5808 7.50483,-5.0323 15.98251,-5.0323 3.75237,0 6.53198,0.9586 v -60.0285 l 61.56744,-13.29967 q 0.13894,16.53477 0.13894,16.53477 z" />
    <path
       id="path856"
       style="fill:none;fill-rule:evenodd;stroke:#2f2fff;stroke-width:0.48;stroke-linecap:butt;stroke-linejoin:miter;stroke-opacity:1;stroke-miterlimit:4;stroke-dasharray:none"
       d="m 112.60946,-887.14851 12.08406,3.32749 m -18.73905,-0.70052 -28.721545,8.58143 m 451.488615,-123.29246 16.46235,-7.35553 m -273.02977,59.54467 8.05604,1.92644 m 10.68301,-18.21366 -3.85289,11.38354 m -42.03152,-30.47285 -24.16813,-0.5254 m 144.48336,-18.38874 -22.9422,3.15231 0.87565,11.90894 m 45.18389,-26.97025 19.96497,-0.1751 m 59.89493,21.01575 8.05604,-22.24165 m -17.16287,4.9036 1.22592,-20.3152 20.1401,2.8021 m -101.22592,7.8809 9.28196,5.7794 m -190.36777,43.2574 -20.31524,12.08406 m -17.32977,71.24186 q -2.33417,9.44431 -14.70627,18.86568 -11.08046,8.32803 -22.16598,11.16631 -6.17872,1.58197 -10.13905,-0.30209 -4.38477,-2.23298 -3.05673,-7.60646 1.97209,-7.97882 11.25482,-16.6092 8.17278,-7.58355 18.04464,-12.39904 l 22.73861,-92.00063 -50.05888,98.538 -6.62158,3.37316 -8.706221,-68.08664 -18.010387,72.18154 q -2.334281,9.44432 -14.706379,18.86568 -11.08035,8.32801 -22.165868,11.16629 -6.178834,1.582 -10.139055,-0.30208 -4.384774,-2.23299 -3.056622,-7.60648 2.374453,-9.60714 14.907562,-19.67984 11.725577,-9.56091 22.629299,-12.35265 4.36151,-1.11671 7.714414,-0.90746 l 19.156849,-77.5085 26.667608,-13.53913 7.84106,49.54713 36.975,-72.46131 28.24217,-14.3998 z m 111.19563,-56.68783 q -1.89153,7.65315 -11.72063,15.05066 -8.79981,6.67639 -17.70452,8.95631 -9.81326,2.51255 -10.36479,-4.21004 -0.26473,-2.37267 2.67321,-14.25948 -7.38367,9.21186 -17.75794,16.74897 -11.18169,8.04887 -20.81337,10.51492 -13.6296,3.48967 -9.7661,-12.1423 l 11.79193,-47.71006 23.07334,-12.77138 -12.95906,52.43222 q -0.60366,2.44249 0.56973,4.58253 1.17339,2.14004 3.71757,1.48862 0.54518,-0.13956 1.89778,-0.79096 12.67829,-5.83907 19.89599,-19.88935 3.72953,-7.51364 7.51259,-22.81994 1.5891,-7.11812 3.3599,-14.28277 l 23.07334,-12.77138 -11.26871,45.59324 q 2.48323,-1.09339 4.66382,-1.65172 12.90284,-3.30356 10.12592,7.93191 z m 73.3515,-31.44047 q -3.38059,13.67796 -21.44482,26.84467 -15.9249,11.39871 -32.09879,15.53979 -6.72401,1.72157 -10.84524,0.48882 -4.86888,-1.65143 -3.46028,-7.35057 1.56951,-6.35049 9.15813,-12.25919 6.74102,-5.23409 14.19189,-7.14178 4.36141,-1.11668 6.7057,0.4185 2.52599,1.48866 1.56003,5.39666 -1.44877,5.86199 -7.50311,11.07279 l 3.59437,-0.76775 q 7.59228,-1.79137 15.80664,-8.16535 8.25453,-6.53679 9.90459,-13.21295 1.4086,-5.69914 -11.49413,-2.39558 -2.54429,0.65142 -6.62277,2.00073 -3.85651,1.13992 -4.58348,1.32605 -11.08541,2.83828 -15.59092,1.09379 -5.39456,-2.27949 -3.06039,-11.7238 3.30013,-13.3523 19.46649,-25.72802 14.47105,-11.02653 29.91798,-14.98143 14.72005,-3.7689 12.58706,4.8613 -1.52933,6.1876 -9.7033,12.39876 -7.36665,5.69932 -14.45415,7.51398 -3.99802,1.02362 -6.74598,-0.25567 -2.70767,-1.44213 -1.86255,-4.86163 0.96596,-3.90799 3.32587,-7.25774 -5.99575,2.90787 -11.20237,7.44407 -5.87254,5.16427 -7.03968,9.88642 -1.52933,6.18766 11.55509,2.83759 2.72598,-0.69795 7.12767,-1.97747 4.44206,-1.44237 5.53231,-1.72154 10.54045,-2.69871 14.64219,-0.69832 4.88967,2.25622 2.63595,11.37487 z m 29.24313,19.20524 -22.9733,11.67808 14.24683,-57.64284 22.9734,-11.6781 z m 28.0188,-82.37046 q -1.48916,6.0248 -9.44116,12.0266 -7.10441,5.3271 -14.19179,7.1417 -3.99814,1.0237 -6.74598,-0.2556 -2.56627,-1.3258 -1.72115,-4.7453 1.52933,-6.1877 9.19851,-12.4221 7.66908,-6.2343 14.75646,-8.049 10.35855,-2.6521 8.14511,6.3037 z m 57.44039,28.4588 q -5.48083,13.9107 -18.82007,25.86763 -13.29896,11.79405 -28.20071,15.60944 -11.99407,3.07091 -16.36312,-4.047 -3.7823,-6.04792 -0.9652,-17.44622 3.86361,-15.63195 21.21671,-33.49745 18.09934,-18.8193 35.18179,-23.193 16.35569,-4.1876 13.09573,9.0018 -1.52933,6.1877 -9.48133,12.1894 -7.10451,5.3272 -14.3737,7.1884 -3.99791,1.0236 -6.74597,-0.2557 -2.70757,-1.4422 -1.86245,-4.8616 1.97198,-7.9789 13.57822,-15.6789 -7.97537,2.6521 -14.27106,8.8399 -6.1141,6.1413 -7.8849,13.306 l -7.04301,28.49575 q -3.09884,12.53814 3.62517,10.81654 9.99506,-2.55908 19.70094,-12.213 8.73746,-8.49077 13.43423,-18.53999 1.06957,-0.884 2.52341,-1.2562 1.99901,-0.5118 3.65532,-0.3258 z m 53.23354,-11.3417 q -22.00497,10.515 -25.02336,22.72744 -2.25372,9.11865 4.83367,7.30402 13.6296,-3.48967 19.06272,-25.47216 z m 15.65241,22.07483 -23.19526,11.88745 2.07192,-9.07211 q -7.16288,7.63005 -15.66016,13.77141 -9.93034,7.11838 -17.56301,9.07261 -14.35657,3.67579 -11.37835,-8.37386 5.31239,-21.49393 51.07729,-44.80353 l 2.8172,-11.3984 q 2.13299,-8.6301 -4.9545,-6.8155 -6.54221,1.6751 -14.27095,8.8399 0.20236,0.5583 2.24424,2.6285 1.41474,1.163 0.85137,3.4427 -1.00613,4.0708 -6.9994,9.7236 -5.81168,5.6063 -10.53657,6.816 -8.90471,2.2799 -7.05347,-5.2104 2.69648,-10.9098 20.68016,-23.7508 15.92489,-11.3987 29.00931,-14.7488 18.35471,-4.6995 14.57165,10.6068 z m 56.23879,-24.77103 q -1.89153,7.6531 -11.90231,15.0972 -8.79971,6.6763 -17.70452,8.95627 -4.90669,1.25627 -8.2205,-0.48827 -3.35409,-1.5817 -2.2674,-5.9782 l 26.60212,-107.6326 22.9734,-11.678 -23.50339,95.0944 q 2.07957,-0.8375 3.8969,-1.3028 12.90262,-3.3035 10.1257,7.932 z" />
  </g>
</svg>
