<?xml version="1.0" encoding="UTF-8" standalone="no"?>
<!-- Created with Inkscape (http://www.inkscape.org/) -->

<svg
   xmlns:dc="http://purl.org/dc/elements/1.1/"
   xmlns:cc="http://creativecommons.org/ns#"
   xmlns:rdf="http://www.w3.org/1999/02/22-rdf-syntax-ns#"
   xmlns:svg="http://www.w3.org/2000/svg"
   xmlns="http://www.w3.org/2000/svg"
   xmlns:sodipodi="http://sodipodi.sourceforge.net/DTD/sodipodi-0.dtd"
   xmlns:inkscape="http://www.inkscape.org/namespaces/inkscape"
   width="12in"
   height="24in"
   viewBox="0 0 1152 2304"
   version="1.1"
   id="svg2815"
   inkscape:version="0.92.3 (2405546, 2018-03-11)"
   sodipodi:docname="12x24 Sheet Calculator - Green &amp; White (Light Show &amp; Marquee) - Singles w Weed Lines.svg">
  <defs
     id="defs2809" />
  <sodipodi:namedview
     id="base"
     pagecolor="#1f1f1f"
     bordercolor="#666666"
     borderopacity="1.0"
     inkscape:pageopacity="0"
     inkscape:pageshadow="2"
     inkscape:zoom="0.87"
     inkscape:cx="525.0307"
     inkscape:cy="1796.6776"
     inkscape:document-units="in"
     inkscape:current-layer="layer3"
     showgrid="true"
     inkscape:snap-global="false"
     showguides="true"
     units="in"
     gridtolerance="10"
     inkscape:window-width="1920"
     inkscape:window-height="1017"
     inkscape:window-x="-8"
     inkscape:window-y="-8"
     inkscape:window-maximized="1">
    <inkscape:grid
       type="xygrid"
       id="grid3368" />
  </sodipodi:namedview>
  <metadata
     id="metadata2812">
    <rdf:RDF>
      <cc:Work
         rdf:about="">
        <dc:format>image/svg+xml</dc:format>
        <dc:type
           rdf:resource="http://purl.org/dc/dcmitype/StillImage" />
        <dc:title />
      </cc:Work>
    </rdf:RDF>
  </metadata>
  <g
     inkscape:label="Layer 1"
     inkscape:groupmode="layer"
     id="layer1"
     transform="translate(0,1159.8)">
    <g
       transform="translate(-0.29917528,-1178.267)"
       id="g5860"
       style="fill:#00ff00;fill-opacity:1" />
  </g>
  <g
     inkscape:groupmode="layer"
     id="layer2"
     inkscape:label="Green - Light Show"
     style="display:inline" />
  <g
     inkscape:groupmode="layer"
     id="layer3"
     inkscape:label="White - Marquee"
     style="display:inline">
    <g
       id="g1742">
      <path
         d="m 48.662497,698.94195 24.130163,83.65124 m 660.36214,-261.00794 -49.869,36.59742 m 330.9854,-194.64999 89.2816,29.35836 M 934.64167,452.00995 1056.499,410.18433 m -277.09472,95.71631 122.2595,-41.82561 M 824.84942,734.33286 968.4239,684.46385 M 809.56699,739.56106 675.24241,757.25651 M 445.60369,622.52977 548.15688,594.37791 m -267.04047,84.45557 119.04214,-41.02127 m 23.72799,234.46475 86.46642,-50.67334 M 259.80143,928.58068 378.4414,887.5594 M 199.47602,722.66995 236.07343,694.92026 m -42.62995,85.66208 -9.2499,66.76012 M 54.292868,915.30909 71.183983,852.97283 m 143.172307,92.49896 -38.60827,-11.66291 m 129.49855,-606.47145 93.70547,-8.04338 M 611.29748,503.8898 581.53694,492.62905 m -287.95328,120.65082 89.2816,-57.51022 M 676.04675,199.44757 814.39302,151.5894 m 53.08636,-17.6954 28.15186,-9.6521 m -38.60826,295.19232 104.56404,-37.40175 m -297.20318,102.5532 139.15061,-47.85816 m -215.96497,-128.29204 -0.40217,58.31456 m 2.81519,-115.42261 33.38006,-33.78223 v 0 l -0.80434,1.60868 M 112.60743,394.90189 252.96455,346.2394 m -36.59742,293.98582 24.53234,-8.04339 m 861.59783,-530.62793 -77.8226,26.9349 -9.2207,235.71894 -53.69752,18.58503 9.22068,-235.71897 -77.82263,26.93489 1.98694,-50.79459 209.34273,-72.4548 z m -245.85605,317.61989 -53.69752,18.58503 4.61034,-117.85949 -137.74593,47.6747 -4.61034,117.85948 -53.69762,18.58507 11.20763,-286.5136 53.69762,-18.58506 -4.61034,117.85948 137.74593,-47.67469 4.61034,-117.85951 53.69752,-18.585 z M 582.6989,492.84797 q -56.23196,44.12419 -106.03839,61.3625 -63.42544,21.95192 -104.64445,-3.71086 -41.2191,-25.66285 -38.70437,-89.94983 2.51473,-64.28697 48.14549,-121.96626 44.43228,-56.48169 107.85771,-78.43362 42.41331,-14.67949 101.32771,-9.62516 l -2.26637,57.93767 q -55.94219,-12.34638 -101.85753,3.5452 -40.07862,13.87145 -68.38761,50.68011 -28.309,36.80866 -29.90787,77.68247 -1.69201,43.25481 25.70425,59.21777 27.39616,15.96299 70.19861,1.1488 18.67744,-6.46437 46.25685,-24.62189 l 1.62992,-41.66754 -42.02416,14.54481 1.98695,-50.79463 95.72167,-33.12985 z m -288.37436,120.947 -53.69761,18.58506 11.20763,-286.51359 53.69761,-18.58507 z M 216.97013,640.56779 48.48426,698.88177 59.691889,412.36817 113.3894,393.78314 104.16872,629.502 218.95708,589.77307 Z M 1104.4842,392.95655 983.39092,680.3182 l -15.38965,5.31431 -57.23253,-151.24203 -85.95782,200.68803 -15.38966,5.3143 -76.62994,-219.08454 47.50711,-16.405 45.94161,131.86806 75.83717,-173.92029 32.45206,-11.20624 50.9599,130.13516 71.82253,-172.53396 z m -449.24236,159.5811 c -14.16233,-0.0997 -29.92024,2.84682 -47.2754,8.83984 -36.57824,12.63108 -68.27751,35.04383 -95.0957,67.24024 -27.77096,33.19996 -43.3022,68.69505 -46.5957,106.48437 -3.27329,37.55751 6.74207,64.11703 30.04687,79.67969 22.67606,15.33012 52.19171,16.7181 88.54688,4.16406 37.02433,-12.78512 68.93639,-35.15845 95.73437,-67.12305 27.99398,-33.27698 43.64724,-68.92608 46.96094,-106.94726 3.3137,-38.02113 -6.79446,-64.776 -30.32226,-80.26172 -11.94962,-7.93868 -25.94937,-11.96321 -42,-12.07617 z m -22.82227,48.63281 c 11.03942,-0.0492 20.62703,2.82144 28.76172,8.61328 14.70501,9.98767 20.99658,27.15328 18.875,51.4961 -2.12158,24.34288 -11.89929,47.16831 -29.33203,68.47851 -17.18941,21.00134 -37.60405,35.58405 -61.2461,43.74805 -23.64205,8.16398 -42.70361,7.21509 -57.18554,-2.84961 -14.46174,-10.29651 -20.6333,-27.61611 -18.51172,-51.95899 2.12158,-24.34281 11.77733,-47.01621 28.9668,-68.01757 17.20967,-21.23324 37.63529,-35.93171 61.27734,-44.09571 10.34339,-3.57174 19.80832,-5.37579 28.39453,-5.41406 z m -208.00339,271.15917 -46.16886,15.94287 9.00155,-103.28318 -118.43316,40.89694 -9.00155,103.28317 -46.16886,15.94288 21.88256,-251.07889 46.16886,-15.94287 -9.00155,103.28317 118.43316,-40.89693 9.00155,-103.28318 46.16886,-15.94287 z m -230.74822,13.57261 q -2.72774,31.29787 -24.89355,58.51483 -21.801,26.75374 -51.91118,37.15133 -38.13947,13.1701 -68.379032,-1.00972 l 5.819182,-66.76886 q 14.483872,16.24764 25.983578,22.05797 17.036783,9.29498 36.775592,2.47884 11.37491,-3.92794 20.55836,-12.49584 10.91682,-9.84095 11.88668,-20.96906 1.4851,-17.03997 -22.39549,-25.99534 -22.29875,-8.48977 -44.962329,-16.51621 -23.426066,-14.17168 -20.910484,-43.03528 2.909591,-33.38443 26.991953,-60.25137 22.28816,-24.89821 55.07474,-36.21996 28.77194,-9.93542 55.8163,-0.0488 l -5.09178,58.42273 q -31.51945,-21.83276 -57.28037,-12.93708 -11.0404,3.81243 -19.82862,11.56916 -10.52169,9.02991 -11.46124,19.81031 -1.33357,15.30123 22.69856,22.51785 38.26896,11.40718 45.05337,15.47284 23.36535,14.86724 20.45576,48.25166 z"
         style="display:inline;fill:none;fill-rule:evenodd;stroke:#00ff0e;stroke-width:0.47999999;stroke-linecap:butt;stroke-linejoin:miter;stroke-miterlimit:4;stroke-dasharray:none;stroke-opacity:1"
         id="path873"
         inkscape:connector-curvature="0" />
      <g
         id="g1735">
        <path
           d="m 74.752475,944.09901 2.722773,-103.9604 M 192.66496,738.4845 q 0.5455,-6.2596 -3.4097,-9.2785 -3.9552,-3.019 -9.9772,-0.9395 -6.0221,2.0795 -10.7956,8.4499 -4.7432,6.0227 -5.2888,12.2823 -0.5455,6.2595 3.4097,9.2785 3.9552,3.019 9.9773,0.9395 6.022,-2.0795 10.7652,-8.1022 4.7735,-6.3704 5.3191,-12.63 z m -30.144,-0.384 q 0.5456,-6.2597 -3.4096,-9.2785 -3.95519,-3.019 -9.97719,-0.9395 -6.022,2.0795 -10.7653,8.1022 -4.7433,6.0226 -5.2888,12.2823 -0.5456,6.2595 3.4097,9.2784 4.2897,2.9034 10.3118,0.8239 6.022,-2.0795 10.4307,-7.9866 4.74319,-6.0226 5.28869,-12.2822 z m -32.84589,15.7269 q 0.5455,-6.2595 -3.7442,-9.163 -3.9553,-3.0188 -9.9773,-0.9393 -6.022,2.0795 -10.7956,8.4499 -4.7433,6.0227 -5.288799,12.2823 -0.5153,5.9117 3.439999,8.9307 4.2898,2.9034 10.3118,0.8239 6.022,-2.0795 10.7653,-8.1022 4.7432,-6.0227 5.2888,-12.2823 z m -26.3928,31.0377 q 0.5456,-6.2595 -3.744199,-9.163 -3.955204,-3.0189 -9.642704,-1.0549 -6.022,2.0795 -10.7956,8.4499 -4.7433,6.0227 -5.2888,12.2822 -0.5456,6.2596 3.4097,9.2786 3.9855,2.6711 10.0076,0.5916 6.022,-2.0795 10.7652,-8.1021 4.743303,-6.0227 5.288803,-12.2823 z m 70.25589,68.8312 q 0.5455,-6.2596 -3.7443,-9.163 -3.9552,-3.019 -9.9773,-0.9394 -6.02199,2.0795 -10.79549,8.4498 -4.7432,6.0227 -5.2888,12.2823 -0.5455,6.2596 3.4097,9.2785 4.2898,2.9035 10.3118,0.824 6.02199,-2.0795 10.76529,-8.1022 4.7735,-6.3704 5.3191,-12.63 z m -26.16199,-8.8422 q 0.5456,-6.2595 -3.7442,-9.163 -3.9552,-3.0189 -9.9772,-0.9394 -5.6875,1.964 -10.4307,7.9866 -4.7433,6.0227 -5.2888,12.2823 -0.5456,6.2596 3.4097,9.2785 3.9551,3.019 9.9772,0.9395 6.0221,-2.0795 10.7653,-8.1022 4.7432,-6.0227 5.2887,-12.2823 z m 39.24929,33.667 q 0.5456,-6.2596 -3.7442,-9.163 -3.9552,-3.019 -9.9772,-0.9394 -6.022,2.0795 -10.7956,8.4499 -4.74329,6.0227 -5.28879,12.2822 -0.5456,6.2596 3.40969,9.2786 4.2897,2.9034 10.3117,0.8239 6.0221,-2.0795 10.7653,-8.1022 4.7736,-6.3704 5.3191,-12.63 z m -85.97889,-59.6915 q 0.5456,-6.2596 -3.744203,-9.163 -3.9552,-3.019 -9.9772,-0.9395 -6.022,2.0795 -10.7956,8.4499 -4.4087,5.9072 -4.9542,12.1667 -0.5456,6.2596 3.4097,9.2786 3.9552,3.0189 9.9772,0.9394 6.0221,-2.0795 10.7653,-8.1022 4.773503,-6.3704 5.319003,-12.6299 z m 19.5338,17.8767 q 0.5456,-6.2596 -3.4097,-9.2785 -3.9552,-3.019 -9.9772,-0.9395 -6.0221,2.0795 -10.795603,8.45 -4.7433,6.0226 -5.2888,12.2822 -0.5456,6.2596 3.4097,9.2786 3.9552,3.0189 9.977203,0.9394 6.022,-2.0795 10.7653,-8.1022 4.7736,-6.3704 5.3191,-12.63 z m 58.45659,77.6277 q 0.5455,-6.2596 -3.7443,-9.163 -3.9552,-3.019 -9.9772,-0.9395 -6.022,2.0795 -10.79559,8.45 -4.7433,6.0226 -5.2888,12.2822 -0.5153,5.9119 3.44,8.9308 4.2897,2.9035 10.31179,0.824 6.022,-2.0795 10.7652,-8.1022 4.7433,-6.0227 5.2889,-12.2823 z m -27.91399,29.8765 q 0.5456,-6.2596 -3.7442,-9.163 -3.9552,-3.019 -9.9773,-0.9395 -6.022,2.0795 -10.7956,8.45 -4.7432,6.0226 -5.2888,12.2822 -0.5152,5.9118 3.44,8.9308 4.2898,2.9034 10.3118,0.8239 6.022,-2.0795 10.7653,-8.1022 4.7433,-6.0227 5.2888,-12.2822 z m -32.8169,11.6694 q 0.5456,-6.2595 -3.7442,-9.1629 -3.9552,-3.0189 -9.9772,-0.9394 -6.022103,2.0795 -10.765303,8.1022 -4.4088,5.907 -4.9543,12.1666 -0.5456,6.2597 3.4097,9.2785 3.9552,3.019 9.977203,0.9395 6.0221,-2.0795 10.7653,-8.1022 4.7736,-6.3704 5.2888,-12.2823 z m -29.049403,-1.7738 q 0.5456,-6.2595 -3.7442,-9.163 -3.9552,-3.0189 -9.9772,-0.9394 -6.0221,2.0795 -10.7956,8.4499 -4.7433,6.0227 -5.2888,12.2822 -0.5456,6.2596 3.4097,9.2786 4.2898,2.9034 10.3118,0.8239 6.0221,-2.0795 10.7653,-8.1022 4.7735,-6.3704 5.319,-12.63 z M 437.74553,646.0965 q 0.5456,-6.2597 -3.4097,-9.2785 -3.9553,-3.019 -9.9773,-0.9395 -6.022,2.0795 -10.7653,8.1022 -4.74317,6.0226 -5.28877,12.2823 -0.5455,6.2596 3.37937,9.6262 3.9553,3.019 9.9773,0.9395 6.022,-2.0795 10.7653,-8.1022 4.7735,-6.3704 5.3191,-12.63 z m -3.0005,34.4277 q 0.5455,-6.2596 -3.4097,-9.2786 -3.9553,-3.0189 -9.9773,-0.9394 -6.022,2.0795 -10.7653,8.1022 -4.74317,6.0227 -5.28877,12.2823 -0.5455,6.2595 3.4097,9.2785 3.95527,3.0189 9.97727,0.9394 6.022,-2.0795 10.7653,-8.1022 4.7432,-6.0227 5.2888,-12.2822 z m -2.9702,34.0799 q 0.5455,-6.2596 -3.4097,-9.2785 -3.9553,-3.019 -9.9773,-0.9395 -6.022,2.0795 -10.76527,8.1022 -4.7432,6.0227 -5.2888,12.2823 -0.5455,6.2596 3.3794,9.6263 3.95527,3.0189 9.97727,0.9394 6.022,-2.0795 10.7652,-8.1021 4.7736,-6.3705 5.3192,-12.6301 z m -3.0005,34.4278 q 0.5455,-6.2596 -3.4097,-9.2786 -3.9553,-3.0189 -9.9773,-0.9394 -6.022,2.0795 -10.76527,8.1022 -4.7433,6.0227 -5.2888,12.2823 -0.5456,6.2595 3.4097,9.2785 3.9552,3.0189 9.97727,0.9394 6.022,-2.0795 10.7652,-8.1022 4.7433,-6.0227 5.2889,-12.2822 z m -2.9703,34.0799 q 0.5456,-6.2596 -3.4097,-9.2785 -3.9552,-3.019 -9.9772,-0.9395 -6.02197,2.0795 -10.76527,8.1022 -4.7433,6.0227 -5.2888,12.2823 -0.5456,6.2596 3.3794,9.6262 3.9552,3.019 9.97717,0.9395 6.0221,-2.0795 10.7653,-8.1022 4.7736,-6.3704 5.3191,-12.63 z m -29.81637,-22.7581 q 0.5455,-6.2596 -3.7442,-9.1631 -3.9553,-3.0189 -9.9773,-0.9394 -6.022,2.0795 -10.7653,8.1022 -4.7432,6.0227 -5.2888,12.2823 -0.5455,6.2595 3.4097,9.2785 3.9553,3.0189 9.9773,0.9394 6.022,-2.0795 10.7652,-8.1022 5.0778,-6.1382 5.6234,-12.3977 z m 26.81587,57.1858 q 0.5456,-6.2596 -3.4097,-9.2786 -3.9552,-3.0188 -9.9772,-0.9393 -6.02207,2.0795 -10.76527,8.1021 -4.7433,6.0227 -5.2888,12.2823 -0.5456,6.2595 3.4097,9.2785 3.9552,3.0189 9.9772,0.9394 6.02207,-2.0795 10.76527,-8.1022 4.7433,-6.0226 5.2888,-12.2822 z m -59.93697,-45.7486 q 0.5455,-6.2596 -3.4097,-9.2785 -3.9553,-3.019 -9.9773,-0.9395 -6.022,2.0795 -10.7653,8.1022 -4.7432,6.0227 -5.2888,12.2823 -0.5455,6.2596 3.4097,9.2785 3.9553,3.019 9.9773,0.9395 6.022,-2.0795 10.7653,-8.1022 4.7432,-6.0227 5.2888,-12.2823 z m -90.0576,-68.739 q 0.5455,-6.2597 -3.7443,-9.163 -3.9552,-3.019 -9.9772,-0.9395 -6.0221,2.0795 -10.7653,8.1022 -4.7433,6.0226 -5.2888,12.2823 -0.5456,6.2595 3.3794,9.6262 3.9551,3.019 9.9773,0.9395 6.022,-2.0795 10.7651,-8.1022 5.1082,-6.486 5.6538,-12.7455 z m 147.02437,148.5675 q 0.5456,-6.2595 -3.4097,-9.2784 -3.9552,-3.019 -9.97727,-0.9395 -6.022,2.0795 -10.7652,8.1022 -4.7433,6.0226 -5.2888,12.2822 -0.5456,6.2597 3.3794,9.6264 3.9552,3.0189 9.9772,0.9394 6.02197,-2.0795 10.76527,-8.1022 4.7736,-6.3704 5.3191,-12.6301 z m -90.08797,-68.3912 q 0.5455,-6.2596 -3.4096,-9.2785 -3.9553,-3.019 -9.9773,-0.9395 -6.022,2.0795 -10.7653,8.1022 -4.7432,6.0227 -5.2888,12.2823 -0.5455,6.2595 3.4097,9.2785 3.9553,3.019 9.9773,0.9395 6.022,-2.0796 10.7653,-8.1022 4.7431,-6.0227 5.2887,-12.2823 z m -59.937,-45.7487 q 0.5456,-6.2596 -3.7443,-9.163 -3.9551,-3.019 -9.9771,-0.9394 -6.0221,2.0795 -10.7653,8.1022 -4.7433,6.0226 -5.2888,12.2822 -0.5456,6.2596 3.4097,9.2786 3.9551,3.0189 9.9772,0.9394 6.0221,-2.0795 10.7652,-8.1022 5.0779,-6.1382 5.6234,-12.3978 z m 26.8159,57.186 q 0.5455,-6.2596 -3.4097,-9.2786 -3.9552,-3.0189 -9.9773,-0.9394 -6.022,2.0795 -10.7652,8.1022 -4.7433,6.0227 -5.2889,12.2823 -0.5455,6.2595 3.4097,9.2785 3.9553,3.019 9.9773,0.9394 6.022,-2.0795 10.7653,-8.1022 4.7433,-6.0226 5.2888,-12.2822 z m -29.7861,-23.106 q 0.5456,-6.2596 -3.7443,-9.163 -3.9551,-3.019 -9.9771,-0.9395 -6.0222,2.0795 -10.7653,8.1022 -4.7433,6.0227 -5.2888,12.2823 -0.5456,6.2595 3.3794,9.6263 3.9551,3.0189 9.9772,0.9394 6.022,-2.0795 10.7652,-8.1021 5.1082,-6.4861 5.6537,-12.7456 z m -3.0005,34.4277 q 0.5456,-6.2595 -3.7443,-9.163 -3.9551,-3.0189 -9.9772,-0.9394 -6.0221,2.0795 -10.7652,8.1022 -4.7433,6.0227 -5.2889,12.2822 -0.5455,6.2596 3.4097,9.2786 3.9552,3.0189 9.9773,0.9394 6.022,-2.0795 10.7652,-8.1022 5.0779,-6.1382 5.6234,-12.3978 z m -2.9702,34.08 q 0.5456,-6.2596 -3.7443,-9.163 -3.9551,-3.019 -9.9772,-0.9395 -6.0221,2.0795 -10.7652,8.1022 -4.7433,6.0227 -5.2889,12.2823 -0.5455,6.2595 3.3794,9.6262 3.9552,3.019 9.9773,0.9395 6.022,-2.0795 10.7652,-8.1022 5.1082,-6.4859 5.6537,-12.7455 z m -3.0005,34.4276 q 0.5455,-6.2595 -3.7443,-9.1629 -3.9552,-3.0189 -9.9772,-0.9394 -6.0221,2.0795 -10.7653,8.1021 -4.7432,6.0227 -5.2888,12.2822 -0.5455,6.2596 3.4097,9.2786 3.9552,3.019 9.9773,0.9394 6.022,-2.0795 10.7652,-8.1021 5.0779,-6.1383 5.6234,-12.3979 z m -2.9702,34.08 q 0.5455,-6.2596 -3.7443,-9.1629 -3.9552,-3.019 -9.9772,-0.9395 -6.0221,2.0796 -10.7653,8.1022 -4.7432,6.0226 -5.2888,12.2822 -0.5455,6.2597 3.3794,9.6263 3.9552,3.019 9.9773,0.9395 6.022,-2.0795 10.7652,-8.1022 5.1081,-6.4859 5.6537,-12.7456 z M 706.24013,589.1334 q 0.5456,-6.25958 -3.4097,-9.27853 -3.9552,-3.01896 -9.9772,-0.93946 -6.022,2.0795 -10.7956,8.45001 -4.7433,6.02268 -5.2888,12.28228 -0.5456,6.2596 3.4097,9.2785 3.9552,3.019 9.9772,0.9395 6.022,-2.0795 10.7653,-8.1022 4.7736,-6.3705 5.3191,-12.6301 z m -22.4526,-14.17048 q 0.5455,-6.25957 -3.4097,-9.27853 -3.9553,-3.01895 -9.9773,-0.93945 -6.022,2.0795 -10.7653,8.1022 -4.7431,6.02266 -5.2887,12.28223 -0.5455,6.25953 3.4096,9.27853 3.9553,3.019 9.9773,0.9395 6.022,-2.0795 10.7653,-8.10221 4.7432,-6.02269 5.2888,-12.28227 z m 35.54,38.99528 q 0.5455,-6.2596 -3.7442,-9.163 -3.9553,-3.0189 -9.9773,-0.9394 -6.022,2.0796 -10.7956,8.45 -4.7433,6.0227 -5.2888,12.2822 -0.5455,6.2596 3.4097,9.2786 4.2898,2.9034 10.3118,0.8239 6.022,-2.0795 10.7653,-8.1022 4.7735,-6.3704 5.3191,-12.6301 z m -64.4984,-41.81243 q 0.5456,-6.25958 -3.7443,-9.16299 -3.9552,-3.01895 -9.9773,-0.93945 -6.022,2.0795 -10.7652,8.1022 -4.7432,6.02266 -5.2887,12.28224 -0.5456,6.25953 3.4096,9.27853 3.9552,3.019 9.9772,0.9395 6.3566,-2.1951 11.0999,-8.21776 4.7433,-6.0227 5.2888,-12.28227 z m 64.8435,75.08493 q 0.5455,-6.2596 -3.4097,-9.2786 -3.9553,-3.0189 -10.3119,-0.8239 -6.022,2.0795 -10.7956,8.4499 -4.7431,6.0227 -5.2887,12.2823 -0.5455,6.2596 3.4096,9.2785 4.2899,2.9035 10.3119,0.824 6.022,-2.0795 10.7653,-8.1022 4.7735,-6.3704 5.3191,-12.63 z m -97.236,-68.28401 q 0.5455,-6.25957 -3.7444,-9.16298 -3.9552,-3.01896 -9.9772,-0.93946 -6.022,2.07951 -10.7653,8.1022 -4.7432,6.02267 -5.2887,12.28225 -0.5456,6.2596 3.4096,9.2785 4.2898,2.9035 10.3119,0.824 6.022,-2.0795 10.7652,-8.1022 4.7433,-6.02274 5.2889,-12.28231 z m 89.8862,104.21351 q 0.5456,-6.2596 -3.4097,-9.2784 -3.9552,-3.019 -9.9773,-0.9395 -6.022,2.0795 -10.7955,8.4499 -4.7433,6.0227 -5.2889,12.2823 -0.5455,6.2596 3.4097,9.2785 3.9553,3.019 9.9773,0.9395 6.022,-2.0795 10.7653,-8.1022 4.7736,-6.3704 5.3191,-12.6301 z m -123.4014,-88.2554 q 0.5455,-6.2596 -3.4097,-9.27852 -3.9553,-3.01895 -9.9773,-0.93945 -6.022,2.0795 -10.7653,8.10217 -4.7433,6.0227 -5.2888,12.2823 -0.5456,6.2596 3.4097,9.2785 3.9552,3.019 9.9773,0.9395 6.022,-2.0795 10.7652,-8.1022 4.7433,-6.0227 5.2889,-12.2823 z m 105.6791,124.0566 q 0.5456,-6.2595 -3.4096,-9.2785 -3.9552,-3.019 -9.9772,-0.9395 -6.022,2.0795 -10.7956,8.45 -4.7433,6.0226 -5.2888,12.2823 -0.5456,6.2596 3.4097,9.2784 3.9552,3.019 9.9772,0.9395 6.0221,-2.0795 10.7653,-8.1022 4.7735,-6.3704 5.319,-12.63 z M 557.32493,618.6325 q 0.5456,-6.2595 -3.4097,-9.2785 -3.9552,-3.019 -9.9772,-0.9394 -6.022,2.0795 -10.7653,8.1021 -4.7433,6.0227 -5.2888,12.2823 -0.5456,6.2596 3.4097,9.2786 3.9552,3.0189 9.9773,0.9394 6.022,-2.0795 10.7652,-8.1022 4.7433,-6.0227 5.2888,-12.2823 z m 110.8527,131.7143 q 0.5456,-6.2596 -3.4097,-9.2785 -3.9552,-3.019 -9.9772,-0.9395 -6.0221,2.0795 -10.7653,8.1022 -4.7433,6.0227 -5.2888,12.2823 -0.5456,6.2596 3.4097,9.2785 3.9552,3.019 9.9772,0.9395 6.022,-2.0795 10.7653,-8.1022 4.7433,-6.0227 5.2888,-12.2823 z M 530.90193,650.0179 q 0.5456,-6.2595 -3.4097,-9.2785 -3.9248,-3.3668 -9.9469,-1.2873 -6.022,2.0795 -10.7653,8.1022 -4.7432,6.0227 -5.2887,12.2823 -0.5456,6.2595 3.3793,9.6263 3.9552,3.019 9.9772,0.9395 6.0221,-2.0795 10.7653,-8.1022 4.7433,-6.0227 5.2888,-12.2823 z m 105.9835,124.2888 q 0.5456,-6.2595 -3.4097,-9.2785 -3.9552,-3.0189 -9.9773,-0.9394 -6.022,2.0796 -10.7652,8.1021 -4.7432,6.0227 -5.2887,12.2823 -0.5456,6.2596 3.4096,9.2785 3.9552,3.019 9.9772,0.9395 6.022,-2.0795 10.7653,-8.1022 4.7433,-6.0227 5.2888,-12.2823 z m -124.0099,-88.7199 q 0.5456,-6.2595 -3.4097,-9.2785 -3.9249,-3.3667 -9.9469,-1.2872 -6.022,2.0796 -10.7653,8.1021 -4.7433,6.0227 -5.2888,12.2823 -0.5456,6.2597 3.3794,9.6264 3.9552,3.0189 9.9773,0.9394 6.022,-2.0795 10.7652,-8.1022 4.7433,-6.0227 5.2888,-12.2823 z m 90.799,104.9103 q 0.5456,-6.2597 -3.4097,-9.2785 -3.9552,-3.019 -9.9772,-0.9395 -6.0221,2.0795 -10.7653,8.1022 -4.7432,6.0226 -5.2887,12.2823 -0.5456,6.2595 3.4096,9.2785 3.9552,3.0189 9.9772,0.9394 6.022,-2.0795 10.7653,-8.1021 4.7433,-6.0227 5.2888,-12.2823 z m -97.1451,-69.3273 q 0.5456,-6.2596 -3.4097,-9.2785 -3.9249,-3.3667 -9.9469,-1.2872 -6.0221,2.0795 -11.0998,8.2177 -4.7433,6.0227 -5.2889,12.2823 -0.5455,6.2596 3.3794,9.6262 3.9553,3.019 9.9773,0.9395 6.022,-2.0795 10.7653,-8.1022 5.0778,-6.1382 5.6233,-12.3978 z m 65.1174,75.6649 q 0.5455,-6.2596 -3.4096,-9.2785 -3.9553,-3.0189 -9.9773,-0.9394 -6.022,2.0795 -11.0999,8.2176 -4.7433,6.0227 -5.2888,12.2823 -0.5455,6.2596 3.4097,9.2785 3.9552,3.019 9.9773,0.9395 6.022,-2.0795 10.7652,-8.1022 5.0778,-6.1382 5.6234,-12.3978 z m -64.1033,-42.6235 q 0.5456,-6.2595 -3.4096,-9.2785 -3.9249,-3.3667 -9.9469,-1.2872 -6.022,2.0795 -10.7653,8.1022 -4.7433,6.0226 -5.2888,12.2822 -0.5456,6.2596 3.3794,9.6263 3.9552,3.019 9.9772,0.9395 6.0221,-2.0795 10.7653,-8.1022 4.7432,-6.0227 5.2887,-12.2823 z m 34.8407,39.5742 q 0.5455,-6.2596 -3.4097,-9.2786 -3.9553,-3.0189 -9.9773,-0.9394 -6.022,2.0795 -10.7653,8.1022 -4.7432,6.0227 -5.2888,12.2823 -0.5455,6.2595 3.4097,9.2785 3.9553,3.0189 9.9773,0.9394 6.022,-2.0795 10.7653,-8.1022 4.7432,-6.0227 5.2888,-12.2822 z m -22.1181,-14.286 q 0.5455,-6.2597 -3.4097,-9.2785 -3.925,-3.3668 -9.947,-1.2873 -6.022,2.0795 -11.0998,8.2177 -4.7432,6.0227 -5.2888,12.2823 -0.5455,6.2595 3.3794,9.6262 3.9552,3.019 9.9773,0.9395 6.022,-2.0795 10.7652,-8.1022 5.0778,-6.1381 5.6234,-12.3977 z M 1086.138,422.19587 q 0.5455,-6.25968 -3.4097,-9.27853 -3.9553,-3.01896 -9.9773,-0.93945 -6.022,2.0795 -10.7653,8.10219 -4.7433,6.0226 -5.2889,12.28227 -0.5455,6.25958 3.4098,9.27853 3.9553,3.01886 9.9773,0.93936 6.022,-2.07951 10.7653,-8.1021 4.7432,-6.0227 5.2888,-12.28227 z m -15.4409,35.68793 q 0.5455,-6.25957 -3.4097,-9.27853 -3.9553,-3.01895 -9.9774,-0.93945 -6.022,2.0795 -11.0999,8.21774 -4.7431,6.02267 -5.2887,12.28224 -0.5455,6.25958 3.3793,9.62627 4.2899,2.90341 10.3119,0.82391 6.0221,-2.0795 10.7654,-8.1022 4.7432,-6.02259 5.3191,-12.62998 z m -15.4713,36.03575 q 0.5455,-6.25958 -3.7443,-9.16299 -3.9553,-3.01895 -9.9773,-0.93945 -6.022,2.0795 -10.7653,8.1022 -4.7432,6.02266 -5.2887,12.28224 -0.5456,6.25957 3.4096,9.27856 3.9552,3.01896 9.9773,0.93945 6.022,-2.0795 10.7652,-8.1022 5.0779,-6.13824 5.6235,-12.39781 z m -15.8059,36.15129 q 0.5456,-6.25957 -3.4097,-9.27853 -3.9552,-3.01896 -9.9772,-0.93945 -6.022,2.0795 -10.7653,8.10219 -4.7433,6.0227 -5.2888,12.28228 -0.5456,6.25957 3.4097,9.27852 3.9552,3.01896 9.9772,0.93946 6.0221,-2.0795 10.7653,-8.1022 4.7433,-6.0227 5.2888,-12.28227 z M 931.69493,477.88861 q 0.5455,-6.25958 -3.4096,-9.27857 -3.9553,-3.01895 -9.9773,-0.93945 -6.0221,2.07954 -10.7653,8.1022 -4.7432,6.02269 -5.2888,12.28227 -0.5455,6.25957 3.4097,9.27853 3.9552,3.01899 9.9773,0.93945 6.022,-2.0795 10.7653,-8.1022 4.7431,-6.02266 5.2887,-12.28223 z m 10.806,24.93799 q 0.485,-5.56405 -3.1963,-8.00303 -3.3164,-2.90231 -8.6693,-1.05387 -5.3529,1.84845 -9.7313,7.40792 -4.0136,5.09612 -4.4985,10.66017 -0.4849,5.56406 2.8315,8.46636 3.6814,2.43895 9.0343,0.59051 5.3528,-1.84844 9.3664,-6.94456 4.3783,-5.55944 4.8632,-11.1235 z m 81.53877,62.23676 q 0.5455,-6.25968 -3.7443,-9.16302 -3.9552,-3.01896 -9.9772,-0.93945 -6.022,2.0795 -10.76529,8.10219 -4.74328,6.0226 -5.28878,12.28227 -0.5456,6.25958 3.3794,9.62624 3.95517,3.01896 9.97717,0.93946 6.0221,-2.07951 10.7653,-8.1022 5.1081,-6.48592 5.6537,-12.74549 z m -71.79687,-36.25667 q 0.5455,-6.25957 -3.4097,-9.27852 -3.9553,-3.01896 -9.9773,-0.93946 -6.022,2.0795 -10.7653,8.1022 -4.7432,6.0227 -5.2888,12.28227 -0.5455,6.25957 3.4097,9.27853 3.9553,3.01896 9.9773,0.93945 6.022,-2.0795 10.7653,-8.10219 4.7432,-6.0227 5.2888,-12.28228 z m -39.1828,-15.81363 q 0.4849,-5.56406 -3.1964,-8.00301 -3.3165,-2.9023 -8.6694,-1.05386 -5.3528,1.84844 -9.7312,7.40788 -4.0135,5.09612 -4.4985,10.66017 -0.4849,5.56406 2.8315,8.46637 3.6813,2.43898 9.0342,0.59054 5.3529,-1.84845 9.3664,-6.94456 4.3785,-5.55948 4.8634,-11.12353 z m 49.4725,42.9537 q 0.5455,-6.25957 -3.7443,-9.16298 -3.925,-3.36666 -9.947,-1.28716 -6.022,2.0795 -10.7956,8.44991 -4.7431,6.02266 -5.2887,12.28223 -0.5455,6.25958 3.4096,9.27857 4.2899,2.90341 10.3119,0.8239 6.022,-2.0795 10.7653,-8.1022 4.7432,-6.02269 5.2888,-12.28227 z m 46.79597,43.87794 q 0.4849,-5.564 -3.1661,-8.3507 -3.3164,-2.9023 -8.66927,-1.0539 -5.3529,1.8485 -9.7313,7.4079 -4.0438,5.4438 -4.5287,11.0079 -0.485,5.564 2.8315,8.4664 3.6812,2.4389 9.0341,0.5905 5.35287,-1.8484 9.36637,-6.9446 4.3785,-5.5594 4.8634,-11.1235 z m -36.81057,-16.97003 q 0.5456,-6.25967 -3.4097,-9.27853 -3.9552,-3.01895 -9.9773,-0.93945 -6.022,2.0795 -10.7652,8.1022 -4.7433,6.02259 -5.2889,12.28231 -0.5455,6.2595 3.3794,9.6262 3.9553,3.0189 9.9773,0.9394 6.022,-2.0795 10.7653,-8.1022 4.7736,-6.3704 5.3191,-12.62993 z m -71.523,-35.67665 q 0.5456,-6.25958 -3.7442,-9.16302 -3.9552,-3.01895 -9.9773,-0.93945 -6.022,2.0795 -10.7652,8.1022 -4.7433,6.02269 -5.2889,12.28227 -0.5455,6.25957 3.4097,9.27853 3.9553,3.01895 9.9773,0.93945 6.022,-2.0795 10.7653,-8.1022 5.0778,-6.13821 5.6233,-12.39778 z m 78.8925,62.81318 q 0.485,-5.5641 -3.166,-8.3508 -3.3164,-2.9023 -8.6693,-1.0538 -5.353,1.8485 -9.7313,7.4079 -4.3784,5.5593 -4.8633,11.1234 -0.4849,5.564 3.166,8.3508 3.6813,2.439 9.0342,0.5905 5.3529,-1.8484 9.3665,-6.9445 4.3783,-5.5595 4.8632,-11.1235 z m 13.2389,23.0861 q 0.5456,-6.2596 -3.4097,-9.2786 -3.9551,-3.0189 -9.9772,-0.9394 -6.0221,2.0795 -11.0998,8.2177 -4.7433,6.0227 -5.2888,12.2823 -0.5456,6.2595 3.4097,9.2785 4.2897,2.9034 10.3117,0.8239 6.0222,-2.0795 10.7653,-8.1022 4.7433,-6.0227 5.2888,-12.2822 z m -8.4163,29.5521 q 0.7274,-8.3461 -7.302,-5.5734 -8.0293,2.7726 -8.7567,11.1188 -0.7274,8.346 7.3019,5.5733 8.0294,-2.7726 8.7568,-11.1187 z m -99.5208,-79.30012 q 0.5455,-6.25958 -3.4097,-9.27853 -3.9553,-3.01896 -9.9773,-0.93946 -6.022,2.0795 -10.7653,8.1022 -4.7432,6.0227 -5.2888,12.28231 -0.5455,6.2595 3.4097,9.2785 3.9553,3.0189 9.9773,0.9394 6.022,-2.0795 10.7653,-8.1022 4.7432,-6.0227 5.2888,-12.28222 z m -107.4523,-55.31202 q 0.5455,-6.25958 -3.4097,-9.27853 -3.9249,-3.36677 -9.947,-1.28727 -6.022,2.0795 -10.7956,8.45001 -4.7432,6.0227 -5.2888,12.28227 -0.5455,6.25958 3.4097,9.27853 3.9553,3.01886 9.9773,0.93935 6.022,-2.0795 10.7653,-8.10209 4.7432,-6.0227 5.2888,-12.28227 z m 10.32,26.79225 q 0.5456,-6.25957 -3.4097,-9.27852 -3.9552,-3.01896 -9.9772,-0.93946 -6.0221,2.0795 -11.0999,8.21775 -4.7432,6.02266 -5.2887,12.28223 -0.5456,6.25958 3.3792,9.62638 4.2899,2.9033 10.3119,0.8238 6.022,-2.0795 10.7653,-8.10209 4.7736,-6.37051 5.3191,-12.63009 z m 81.752,63.51229 q 0.5456,-6.2597 -3.4097,-9.2785 -3.9552,-3.019 -9.9773,-0.9395 -6.022,2.0795 -11.0998,8.2178 -4.7432,6.0225 -5.2888,12.2822 -0.5455,6.2596 3.3793,9.6263 4.2899,2.9034 10.3119,0.8239 6.022,-2.0795 10.7653,-8.1022 4.7736,-6.3704 5.3191,-12.63 z m -71.7969,-36.25667 q 0.5456,-6.25957 -3.4097,-9.27853 -3.9552,-3.01895 -9.9772,-0.93945 -6.0221,2.0795 -10.7653,8.1022 -4.7433,6.02269 -5.2888,12.28225 -0.5456,6.2596 3.4097,9.2785 3.9552,3.019 9.9772,0.9395 6.022,-2.0795 10.7653,-8.1022 4.7433,-6.0227 5.2888,-12.28227 z m 10.2896,27.14007 q 0.5456,-6.2595 -3.4097,-9.2785 -3.9249,-3.3667 -9.9469,-1.2872 -6.022,2.0795 -11.1301,8.5655 -4.7433,6.0227 -5.2888,12.2822 -0.5456,6.2596 3.4097,9.2786 4.2897,2.9034 10.3118,0.8239 6.022,-2.0795 10.7652,-8.1022 4.7433,-6.0227 5.2888,-12.2823 z m 46.7961,43.878 q 0.4849,-5.5641 -3.1661,-8.3508 -3.3164,-2.9023 -8.6693,-1.0538 -5.3529,1.8484 -9.7313,7.4079 -4.0439,5.4438 -4.5288,11.0079 -0.4849,5.564 2.8315,8.4663 3.6814,2.439 9.0343,0.5905 5.3529,-1.8484 9.3664,-6.9445 4.3783,-5.5595 4.8633,-11.1235 z m -36.8106,-16.9701 q 0.5455,-6.2596 -3.4097,-9.2785 -3.9552,-3.019 -9.9773,-0.9394 -6.022,2.0795 -10.7652,8.1021 -4.7432,6.0226 -5.2888,12.2823 -0.5456,6.2596 3.3794,9.6262 3.9551,3.019 9.9772,0.9395 6.0221,-2.0795 10.7652,-8.1022 4.7736,-6.3704 5.3192,-12.63 z m 7.3696,27.1365 q 0.4849,-5.564 -3.1661,-8.3507 -3.3165,-2.9023 -8.6693,-1.0538 -5.3529,1.8484 -9.7313,7.4078 -4.0438,5.4439 -4.5287,11.0079 -0.485,5.5641 2.8315,8.4664 3.6812,2.439 9.0341,0.5905 5.3529,-1.8484 9.3664,-6.9445 4.3785,-5.5595 4.8634,-11.1236 z m 13.2389,23.0861 q 0.5455,-6.2596 -3.4097,-9.2785 -3.9553,-3.019 -9.9773,-0.9395 -6.022,2.0795 -10.7653,8.1022 -4.7432,6.0227 -5.2888,12.2823 -0.5455,6.2596 3.4097,9.2785 3.9553,3.019 9.9773,0.9395 6.022,-2.0795 10.7653,-8.1022 4.7432,-6.0227 5.2888,-12.2823 z m -8.4164,29.5522 q 0.7274,-8.3462 -7.302,-5.5735 -8.0294,2.7727 -8.7568,11.1188 -0.7274,8.3461 7.302,5.5734 8.0294,-2.7727 8.7568,-11.1187 z M 102.56727,422.83446 q 0.2794,-7.14299 -4.577303,-10.55106 -4.8566,-3.40807 -11.8607,-0.98391 -7.004,2.42413 -12.2643,9.33373 -5.2602,6.90959 -5.5397,14.05259 -0.2794,7.143 4.5618,10.9479 4.8566,3.40807 11.8606,0.98394 7.0041,-2.42416 12.2644,-9.33376 5.275803,-7.30643 5.555203,-14.44943 z m -1.5368,39.28648 q 0.2794,-7.14299 -4.577203,-10.55105 -4.8567,-3.40807 -11.8608,-0.98391 -7.004,2.42413 -12.2643,9.33372 -5.2602,6.90959 -5.5396,14.05259 -0.2795,7.143 4.5772,10.55107 4.8567,3.40806 11.8607,0.98394 7.0041,-2.42417 12.2643,-9.33376 5.260303,-6.9096 5.539703,-14.0526 z m -1.521199,38.88966 q 0.2794,-7.143 -4.577304,-10.55106 -4.8567,-3.40807 -11.8608,-0.98391 -7.004,2.42413 -12.2642,9.33373 -5.2603,6.90959 -5.5397,14.05259 -0.2794,7.14299 4.5617,10.94789 4.8567,3.40808 11.8607,0.98395 7.0041,-2.42416 12.2644,-9.33376 5.275704,-7.30643 5.555204,-14.44943 z m -1.536804,39.28648 q 0.2794,-7.143 -4.5773,-10.55106 -4.8566,-3.40806 -11.8607,-0.9839 -7.004,2.42413 -12.2643,9.33372 -5.2603,6.90959 -5.5397,14.05259 -0.2794,7.14299 4.5773,10.55107 4.8566,3.40806 11.8606,0.98393 7.0041,-2.42416 12.2644,-9.33375 5.2603,-6.9096 5.5397,-14.0526 z M 208.57056,617.4993 q 0.2794,-7.143 -4.9663,-10.4164 -4.8568,-3.408 -11.8608,-0.9839 -7.004,2.4241 -12.2643,9.3337 -5.2602,6.9096 -5.5396,14.0526 -0.2795,7.143 4.5617,10.9478 4.8567,3.4081 11.8607,0.984 7.004,-2.4242 12.2643,-9.3338 5.6648,-7.441 5.9443,-14.584 z M 96.451167,579.18673 q 0.2794,-7.14299 -4.5772,-10.55106 -4.8567,-3.40807 -11.8608,-0.98391 -7.004,2.42413 -12.2643,9.33373 -5.2602,6.90959 -5.5396,14.05261 -0.2795,7.143 4.5617,10.9479 4.8567,3.408 11.8607,0.9839 7.0041,-2.4242 12.2643,-9.3337 5.2758,-7.30647 5.5552,-14.44947 z M 170.04836,630.832 q 0.2794,-7.1429 -4.5773,-10.551 -4.8566,-3.4081 -11.86059,-0.9839 -7.004,2.4241 -12.2643,9.3337 -5.2603,6.9096 -5.5397,14.0525 -0.2794,7.1431 4.5618,10.9479 4.8566,3.4081 11.8606,0.9839 7.00399,-2.4241 12.26429,-9.3337 5.2758,-7.3063 5.5552,-14.4494 z M 94.914367,618.4732 q 0.2795,-7.1429 -4.5772,-10.551 -4.8567,-3.4081 -11.8608,-0.9839 -7.004,2.4241 -12.2642,9.3337 -5.2603,6.9096 -5.5397,14.0526 -0.2794,7.1429 4.5772,10.551 4.8567,3.4081 11.8607,0.9839 7.0041,-2.4241 12.2644,-9.3337 5.2602,-6.9096 5.5396,-14.0526 z m 37.000903,25.5569 q 0.2795,-7.143 -4.9663,-10.4164 -4.8567,-3.408 -11.8607,-0.9839 -7.0041,2.4242 -12.2644,9.3338 -5.260203,6.9096 -5.539603,14.0525 -0.2795,7.1431 4.561703,10.9479 4.8567,3.4081 11.8608,0.9839 7.004,-2.4241 12.2642,-9.3337 5.6649,-7.441 5.9443,-14.5841 z m -38.522103,13.3327 q 0.2794,-7.1429 -4.5773,-10.551 -4.8566,-3.408 -11.8607,-0.9839 -7.004,2.4241 -12.2643,9.3337 -5.2603,6.9096 -5.5397,14.0526 -0.2794,7.1431 4.5618,10.9479 4.8566,3.408 11.8606,0.9839 7.0041,-2.4242 12.2644,-9.3337 5.2758,-7.3064 5.5552,-14.4495 z M 296.26636,355.79403 q 0.2795,-7.143 -4.9663,-10.41638 -4.8567,-3.40807 -11.8607,-0.98395 -7.004,2.42413 -12.2643,9.33373 -5.2602,6.90959 -5.5396,14.05259 -0.2795,7.143 4.5617,10.9479 4.8566,3.40807 11.8606,0.98394 7.004,-2.42412 12.2643,-9.33372 5.6649,-7.44111 5.9443,-14.58411 z m -1.5367,39.28648 q 0.2794,-7.143 -4.9664,-10.41638 -4.8567,-3.40806 -11.8607,-0.98393 -7.004,2.42412 -12.2642,9.33371 -5.2603,6.90959 -5.5397,14.05259 -0.2794,7.143 4.5772,10.55107 4.8567,3.40806 11.8607,0.98394 7.004,-2.42413 12.2643,-9.33372 5.6493,-7.04428 5.9288,-14.18728 z m -1.5213,38.88965 q 0.2794,-7.14299 -4.9664,-10.41638 -4.8566,-3.40807 -11.8606,-0.98394 -7.004,2.42413 -12.2643,9.33373 -5.2603,6.90959 -5.5397,14.05259 -0.2794,7.14299 4.5617,10.94789 4.8567,3.40808 11.8607,0.98395 7.004,-2.42413 12.2643,-9.33373 5.6649,-7.44111 5.9443,-14.58411 z m -1.5368,39.28649 q 0.2794,-7.143 -4.9664,-10.41638 -4.8566,-3.40807 -11.8606,-0.98394 -7.004,2.42413 -12.2643,9.33372 -5.2602,6.90959 -5.5397,14.05259 -0.2794,7.143 4.5773,10.55107 4.8567,3.40806 11.8607,0.98393 7.004,-2.42412 12.2642,-9.33372 5.6494,-7.04428 5.9288,-14.18727 z m -1.5212,38.88965 q 0.2794,-7.143 -4.9664,-10.41638 -4.8567,-3.40807 -11.8607,-0.98395 -7.004,2.42413 -12.2642,9.33373 -5.2603,6.90959 -5.5397,14.05259 -0.2794,7.143 4.5617,10.9479 4.8567,3.40806 11.8607,0.98393 7.004,-2.42412 12.2642,-9.33371 5.665,-7.44111 5.9444,-14.58411 z m -1.5368,39.28649 q 0.2794,-7.14296 -4.9664,-10.41635 -4.8567,-3.40806 -11.8607,-0.98393 -7.004,2.42412 -12.2642,9.33372 -5.2603,6.90959 -5.5397,14.05255 -0.2794,7.14297 4.5773,10.55103 4.8566,3.40807 11.8606,0.98394 7.004,-2.42413 12.2643,-9.33372 5.6494,-7.04427 5.9288,-14.18724 z m -1.5213,38.88961 q 0.2794,-7.14295 -4.9663,-10.41633 -4.8567,-3.40807 -11.8607,-0.98394 -7.004,2.42413 -12.2643,9.33367 -5.2602,6.9096 -5.5397,14.0526 -0.2794,7.1431 4.5618,10.9479 4.8566,3.408 11.8606,0.9839 7.004,-2.4241 12.2643,-9.3337 5.6649,-7.441 5.9443,-14.5841 z M 581.93673,274.53753 q 0.2794,-7.14299 -4.5772,-10.55107 -4.8567,-3.40806 -11.8608,-0.9839 -7.004,2.42413 -12.2643,9.33372 -5.2602,6.9096 -5.5396,14.0526 -0.2795,7.143 4.5772,10.55106 4.8567,3.40806 11.8607,0.98393 7.0041,-2.42416 12.2643,-9.33375 5.2603,-6.90959 5.5397,-14.05259 z m -34.8194,-2.82431 q 0.2795,-7.143 -4.5773,-10.55103 -4.8567,-3.40807 -11.8607,-0.98394 -7.004,2.42413 -12.2642,9.33372 -5.2603,6.9096 -5.5397,14.0526 -0.2794,7.143 4.5772,10.55106 4.8567,3.40807 11.8607,0.98394 7.004,-2.42412 12.2643,-9.33372 5.2603,-6.90963 5.5397,-14.05263 z m -37.9313,8.03927 q 0.2794,-7.14299 -4.5772,-10.55106 -4.8567,-3.40807 -11.8607,-0.98394 -7.004,2.42413 -12.2643,9.33373 -5.2603,6.90962 -5.5398,14.05262 -0.2794,7.143 4.5774,10.55103 4.8567,3.40807 11.8607,0.98394 7.004,-2.42413 12.2642,-9.33372 5.2603,-6.9096 5.5397,-14.0526 z m -38.3348,18.35691 q 0.2794,-7.143 -4.5773,-10.55107 -4.8566,-3.40806 -11.8606,-0.98393 -7.0041,2.42416 -12.6535,9.46843 -5.2603,6.9096 -5.5397,14.0526 -0.2794,7.143 4.5772,10.55106 4.8567,3.40807 11.8608,0.98391 7.004,-2.42413 12.2643,-9.33373 5.6494,-7.04427 5.9288,-14.18727 z m 105.9308,98.39059 q 0.2794,-7.143 -4.5772,-10.55106 -4.8567,-3.40807 -11.8607,-0.98394 -7.0041,2.42416 -12.2644,9.33376 -5.2602,6.90959 -5.5396,14.05259 -0.2795,7.143 4.5772,10.55107 4.8567,3.40806 11.8608,0.9839 7.004,-2.42413 12.2642,-9.33372 5.2603,-6.9096 5.5397,-14.0526 z m -141.9299,-71.05558 q 0.2794,-7.14299 -4.5773,-10.55107 -4.8567,-3.40806 -11.8608,-0.9839 -7.004,2.42413 -12.26417,9.33372 -5.2603,6.9096 -5.5397,14.0526 -0.2794,7.143 4.5772,10.55106 4.85667,3.40806 11.86067,0.98394 7.0041,-2.42417 12.2644,-9.33376 5.2602,-6.90959 5.5397,-14.05259 z m 103.7969,84.25365 q 0.2794,-7.14299 -4.9664,-10.41638 -4.8567,-3.40807 -11.8608,-0.98391 -7.004,2.42413 -12.2642,9.33373 -5.2603,6.90959 -5.5397,14.05259 -0.2794,7.143 4.5772,10.55107 5.2458,3.27338 12.2498,0.84925 7.0041,-2.42416 12.2644,-9.33375 5.2603,-6.9096 5.5397,-14.0526 z m 36.6118,25.69154 q 0.2794,-7.14296 -4.5773,-10.55103 -4.8567,-3.40806 -11.8607,-0.98393 -7.0041,2.42416 -12.2798,9.7306 -5.2603,6.90959 -5.5397,14.05256 -0.2794,7.14307 4.5772,10.55113 4.8567,3.40806 11.8608,0.9839 7.004,-2.42413 12.2643,-9.33372 5.2757,-7.30644 5.5552,-14.44951 z m -1.5368,39.28658 q 0.2794,-7.14307 -4.5773,-10.55113 -4.8566,-3.40807 -11.8606,-0.98394 -7.0041,2.42416 -12.2644,9.33375 -5.2603,6.9096 -5.5397,14.05266 -0.2794,7.14297 4.5773,10.55103 4.8566,3.40807 11.8607,0.9839 7.004,-2.42412 12.2643,-9.33371 5.2603,-6.9096 5.5397,-14.05256 z M 405.42236,361.46662 q 0.2949,-7.53983 -4.5617,-10.9479 -4.8567,-3.40806 -11.8608,-0.9839 -7.004,2.42413 -12.6534,9.4684 -5.2603,6.9096 -5.5397,14.0526 -0.2794,7.14299 4.5618,10.94789 4.8566,3.40807 11.8606,0.98394 7.3933,-2.55884 12.6535,-9.46843 5.2603,-6.9096 5.5397,-14.0526 z m 132.67617,140.80671 q 0.2794,-7.14307 -4.9664,-10.41645 -4.8567,-3.40807 -11.8608,-0.9839 -7.004,2.42412 -12.2642,9.33371 -5.2603,6.9096 -5.5397,14.05266 -0.2794,7.14297 4.5772,10.55103 5.2458,3.27339 12.2498,0.84926 7.004,-2.42413 12.2643,-9.33372 5.2603,-6.90962 5.5398,-14.05259 z M 386.17266,402.18613 q 0.2794,-7.143 -4.5773,-10.55104 -4.8412,-3.8049 -11.8452,-1.38077 -7.004,2.42413 -12.6534,9.46841 -5.2602,6.90959 -5.5397,14.05258 -0.2794,7.143 4.5618,10.9479 4.8566,3.40808 11.8606,0.98395 7.0041,-2.42416 12.2644,-9.33376 5.6494,-7.04428 5.9288,-14.18727 z m 113.57537,118.84098 q 0.2794,-7.14307 -4.5772,-10.55113 -4.8567,-3.40806 -11.8607,-0.98394 -7.004,2.42413 -12.2643,9.33372 -5.2603,6.90963 -5.5398,14.0527 -0.2794,7.14296 4.5774,10.55099 4.8567,3.40806 11.8607,0.98394 7.004,-2.42413 12.2642,-9.33372 5.2603,-6.90959 5.5397,-14.05256 z M 380.35556,442.95405 q 0.2794,-7.143 -4.5772,-10.55107 -4.8412,-3.80489 -11.8452,-1.38076 -7.0041,2.42416 -12.2643,9.33375 -5.2603,6.90959 -5.5397,14.05259 -0.2794,7.14299 4.5617,10.9479 4.8567,3.40807 11.8608,0.98391 7.004,-2.42413 12.2642,-9.33373 5.2603,-6.90959 5.5397,-14.05259 z m 81.47677,85.71546 q 0.2794,-7.14307 -4.5773,-10.55113 -4.8566,-3.40807 -11.8606,-0.98394 -7.0041,2.42416 -12.2644,9.33375 -5.2603,6.9096 -5.5397,14.05266 -0.2794,7.14297 4.5773,10.55103 4.8566,3.40807 11.8607,0.9839 7.0041,-2.42412 12.2643,-9.33371 5.2603,-6.9096 5.5397,-14.05256 z m -77.95507,-48.17974 q 0.2794,-7.143 -4.5772,-10.55106 -4.8412,-3.8049 -11.8452,-1.38078 -7.004,2.42413 -12.6534,9.4684 -5.2602,6.9096 -5.5397,14.0526 -0.2794,7.143 4.5618,10.94791 4.8566,3.40806 11.8606,0.98393 7.3932,-2.5588 12.6534,-9.46839 5.2603,-6.9096 5.5397,-14.05261 z m 43.54027,44.82396 q 0.2794,-7.14307 -4.5773,-10.55113 -4.8566,-3.40806 -11.8606,-0.98393 -7.00397,2.42412 -12.65337,9.4684 -5.2603,6.90959 -5.5397,14.05265 -0.2794,7.14297 4.5772,10.55103 4.8567,3.40807 11.86067,0.98394 7.0041,-2.42416 12.2644,-9.33375 5.6493,-7.04424 5.9287,-14.18721 z m -27.39627,-15.96301 q 0.2794,-7.14297 -4.5772,-10.55103 -4.8412,-3.80491 -11.8452,-1.38078 -7.004,2.42413 -12.2642,9.33372 -5.2603,6.90959 -5.5397,14.05256 -0.2794,7.14306 4.5617,10.94798 4.8567,3.40806 11.8607,0.98393 7.004,-2.42413 12.2643,-9.33372 5.2602,-6.90959 5.5396,-14.05266 z M 858.97233,161.03813 q 0.2794,-7.143 -4.5773,-10.551 -4.8566,-3.4081 -11.8606,-0.984 -7.0041,2.4242 -12.2644,9.3338 -5.2603,6.9096 -5.5397,14.0526 -0.2794,7.14295 4.5617,10.94785 4.8567,3.40807 11.8608,0.98391 7.004,-2.42413 12.2643,-9.33373 5.2758,-7.30643 5.5552,-14.44943 z m -1.5368,39.28649 q 0.2794,-7.143 -4.5773,-10.55106 -4.8566,-3.40807 -11.8606,-0.98394 -7.0041,2.42416 -12.2644,9.33375 -5.2603,6.9096 -5.5397,14.05259 -0.2794,7.143 4.5773,10.55107 4.8566,3.40807 11.8607,0.9839 7.0041,-2.42412 12.2643,-9.33371 5.2603,-6.90961 5.5397,-14.0526 z m -1.5213,38.88965 q 0.2794,-7.143 -4.5772,-10.55106 -4.8567,-3.40807 -11.8607,-0.98394 -7.0041,2.42416 -12.2643,9.33376 -5.2603,6.90959 -5.5397,14.05259 -0.2794,7.14299 4.5617,10.9479 4.8567,3.40807 11.8608,0.98391 7.004,-2.42413 12.2642,-9.33373 5.2758,-7.30643 5.5552,-14.44943 z m -1.5367,39.28648 q 0.2794,-7.143 -4.5773,-10.55106 -4.8567,-3.40806 -11.8607,-0.98393 -7.0041,2.42416 -12.2643,9.33375 -5.2603,6.90959 -5.5397,14.05259 -0.2794,7.143 4.5772,10.55107 4.8567,3.40806 11.8608,0.9839 7.004,-2.42413 12.2643,-9.33372 5.2602,-6.9096 5.5397,-14.0526 z m -1.5213,38.88966 q 0.2794,-7.143 -4.5773,-10.55106 -4.8566,-3.40808 -11.8606,-0.98395 -7.0041,2.42416 -12.2644,9.33376 -5.2602,6.9096 -5.5397,14.05259 -0.2794,7.143 4.5618,10.9479 4.8566,3.40806 11.8607,0.9839 7.004,-2.42413 12.2643,-9.33372 5.2758,-7.30643 5.5552,-14.44942 z m -36.6118,-25.69159 q 0.2794,-7.14299 -4.9664,-10.41638 -4.8566,-3.40806 -11.8606,-0.98393 -7.0041,2.42416 -12.2644,9.33375 -5.2603,6.90959 -5.5397,14.05259 -0.2794,7.143 4.5773,10.55107 4.8566,3.40806 11.8607,0.9839 7.004,-2.42413 12.2643,-9.33372 5.6494,-7.04428 5.9288,-14.18728 z m 35.075,64.97808 q 0.2794,-7.14297 -4.5772,-10.55103 -4.8567,-3.40806 -11.8607,-0.98394 -7.0041,2.42417 -12.2644,9.33376 -5.2602,6.90959 -5.5396,14.05255 -0.2795,7.14297 4.5772,10.55103 4.8567,3.40807 11.8608,0.9839 7.004,-2.42412 12.2642,-9.33371 5.2603,-6.90959 5.5397,-14.05256 z m -73.5971,-51.64532 q 0.2794,-7.143 -4.5773,-10.55106 -4.8567,-3.40807 -11.8608,-0.9839 -7.004,2.42412 -12.2642,9.33371 -5.2603,6.9096 -5.5397,14.05259 -0.2794,7.143 4.5772,10.55107 4.8567,3.40807 11.8607,0.98394 7.0041,-2.42416 12.2644,-9.33375 5.2602,-6.90961 5.5397,-14.0526 z m -110.5827,-77.59901 q 0.2794,-7.143 -4.9664,-10.41638 -4.8566,-3.40807 -11.8606,-0.98395 -7.004,2.42413 -12.2643,9.33373 -5.2603,6.90959 -5.5397,14.05259 -0.2794,7.143 4.5617,10.9479 4.8567,3.40807 11.8607,0.98394 7.004,-2.42412 12.2643,-9.33372 5.6649,-7.44111 5.9443,-14.58411 z m 182.6586,168.13395 q 0.2794,-7.14297 -4.5773,-10.55103 -4.8567,-3.40806 -11.8607,-0.98393 -7.0041,2.42416 -12.2643,9.33375 -5.2603,6.90959 -5.5397,14.05256 -0.2794,7.14307 4.5617,10.94788 4.8567,3.40806 11.8608,0.9839 7.004,-2.42413 12.2643,-9.33372 5.2757,-7.30634 5.5552,-14.44941 z m -110.5981,-77.20219 q 0.2794,-7.143 -4.5773,-10.55106 -4.8567,-3.40803 -11.8607,-0.9839 -7.004,2.42413 -12.2643,9.33372 -5.2603,6.90959 -5.5397,14.05259 -0.2794,7.14299 4.5773,10.55107 4.8566,3.40806 11.8606,0.98393 7.004,-2.42413 12.2644,-9.33375 5.2603,-6.9096 5.5397,-14.0526 z m -73.5973,-51.64528 q 0.2794,-7.143 -4.9664,-10.41638 -4.8566,-3.40806 -11.8606,-0.98393 -7.004,2.42412 -12.2643,9.33371 -5.2602,6.9096 -5.5397,14.05259 -0.2794,7.143 4.5773,10.55107 4.8567,3.40807 11.8607,0.98394 7.004,-2.42413 12.2642,-9.33372 5.6494,-7.04428 5.9288,-14.18728 z m 35.075,64.97807 q 0.2794,-7.143 -4.5772,-10.55106 -4.8567,-3.40807 -11.8607,-0.98394 -7.004,2.42413 -12.2643,9.33372 -5.2602,6.90959 -5.5396,14.05259 -0.2794,7.14299 4.5772,10.55107 4.8567,3.40806 11.8607,0.98393 7.004,-2.42413 12.2642,-9.33372 5.2603,-6.9096 5.5397,-14.05259 z m -36.5962,-26.08841 q 0.2794,-7.143 -4.9664,-10.41638 -4.8567,-3.40808 -11.8607,-0.98395 -7.004,2.42413 -12.2642,9.33373 -5.2603,6.90959 -5.5397,14.05259 -0.2794,7.14299 4.5617,10.9479 4.8567,3.40807 11.8607,0.98394 7.004,-2.42413 12.2642,-9.33373 5.665,-7.44111 5.9444,-14.5841 z m -1.5368,39.28648 q 0.2794,-7.143 -4.9664,-10.41638 -4.8567,-3.40807 -11.8607,-0.98394 -7.004,2.42413 -12.2642,9.33372 -5.2603,6.90959 -5.5397,14.05259 -0.2794,7.143 4.5773,10.55107 4.8566,3.40806 11.8606,0.98393 7.004,-2.42412 12.2643,-9.33371 5.6494,-7.04428 5.9288,-14.18728 z m -1.5213,38.88965 q 0.2794,-7.143 -4.9663,-10.41638 -4.8567,-3.40807 -11.8607,-0.98394 -7.004,2.42412 -12.2643,9.33372 -5.2602,6.9096 -5.5397,14.05259 -0.2794,7.143 4.5618,10.9479 4.8566,3.40806 11.8606,0.98394 7.004,-2.42413 12.2643,-9.33372 5.6649,-7.44111 5.9443,-14.58411 z m -1.5368,39.28649 q 0.2795,-7.14296 -4.9663,-10.41635 -4.8567,-3.40806 -11.8607,-0.98393 -7.004,2.42413 -12.2643,9.33372 -5.2602,6.90959 -5.5396,14.05255 -0.2794,7.14297 4.5772,10.55103 4.8567,3.40807 11.8607,0.98394 7.004,-2.42413 12.2642,-9.33372 5.6494,-7.04427 5.9288,-14.18724 z m -1.5212,38.88963 q 0.2794,-7.14297 -4.9664,-10.41635 -4.8566,-3.40807 -11.8607,-0.98394 -7.004,2.42413 -12.2642,9.33372 -5.2603,6.90959 -5.5397,14.05256 -0.2794,7.14307 4.5617,10.94788 4.8567,3.40806 11.8607,0.98393 7.004,-2.42413 12.2643,-9.33372 5.6649,-7.44101 5.9443,-14.58408 z M 1093.6311,80.604224 q 0.2794,-7.143 -4.5773,-10.551 -4.8411,-3.8049 -11.8451,-1.3808 -7.0041,2.4242 -12.2799,9.7306 -5.2602,6.9096 -5.5397,14.0526 -0.2794,7.143 4.5773,10.551106 4.8567,3.408 11.8608,0.9839 7.004,-2.4242 12.2642,-9.333806 5.2603,-6.9096 5.5397,-14.0526 z m -38.1331,13.1981 q 0.2794,-7.143 -4.5773,-10.5511 -4.8411,-3.8049 -11.8452,-1.3807 -7.3932,2.5588 -12.6689,9.8652 -5.2603,6.9096 -5.5397,14.052606 -0.2794,7.143 4.5772,10.5511 4.8567,3.4081 12.2498,0.8493 7.0041,-2.4242 12.2644,-9.3338 5.2602,-6.90961 5.5397,-14.052606 z m -38.5222,13.332806 q 0.2794,-7.143006 -4.5773,-10.551106 -4.8411,-3.8049 -11.8452,-1.3807 -7.00397,2.4241 -12.27977,9.730506 -5.2602,6.9096 -5.5397,14.0526 -0.2794,7.143 4.5773,10.5511 4.8567,3.408 11.86068,0.9839 7.00409,-2.4242 12.26429,-9.3337 5.2603,-6.9096 5.5397,-14.0526 z m -1.5213,38.8896 q 0.2795,-7.143 -4.5772,-10.5511 -4.8567,-3.408 -11.86079,-0.9839 -7.00398,2.4242 -12.26418,9.3338 -5.2603,6.9096 -5.5397,14.0526 -0.2794,7.143 4.5772,10.551 4.8567,3.4081 11.8607,0.984 7.00407,-2.4242 12.26437,-9.3338 5.2602,-6.9096 5.5396,-14.0526 z m -36.61177,-25.6915 q 0.2794,-7.143 -4.5773,-10.5511 -4.8411,-3.8049 -11.8451,-1.3808 -7.004,2.4242 -12.6689,9.8653 -5.2603,6.9096 -5.5397,14.0526 -0.2794,7.143 4.5772,10.551 5.2458,3.2734 12.2498,0.8493 7.004,-2.4241 12.2643,-9.3337 5.2602,-6.9096 5.5397,-14.0526 z m 35.07507,64.97799 q 0.2794,-7.14299 -4.5773,-10.55106 -4.8411,-3.80493 -11.84517,-1.38073 -7.004,2.42412 -12.2798,9.73055 -5.2603,6.90959 -5.5397,14.05259 -0.2794,7.143 4.5773,10.55107 4.8566,3.40806 11.8606,0.98394 7.00407,-2.42417 12.26437,-9.33376 5.2602,-6.9096 5.5397,-14.0526 z m -73.59727,-51.64529 q 0.2794,-7.143 -4.5773,-10.551 -4.8411,-3.8049 -11.8451,-1.3808 -7.004,2.4241 -12.2798,9.7305 -5.2602,6.9096 -5.5397,14.0526 -0.2794,7.143 4.5773,10.5511 4.8567,3.4081 11.8607,0.9839 7.004,-2.4241 12.2642,-9.3337 5.2603,-6.9096 5.5397,-14.0526 z m 72.07597,90.53495 q 0.2794,-7.143 -4.5772,-10.55107 -4.8567,-3.40806 -11.86077,-0.9839 -7.004,2.42413 -12.2643,9.33372 -5.2602,6.9096 -5.5397,14.05259 -0.2794,7.143 4.5773,10.55106 4.8567,3.40808 11.8607,0.98395 7.00407,-2.42416 12.26427,-9.33376 5.2603,-6.90959 5.5397,-14.05259 z m -1.5368,39.28648 q 0.2794,-7.143 -4.5772,-10.55106 -4.8412,-3.8049 -11.84527,-1.38074 -7.004,2.42413 -12.2798,9.73056 -5.2602,6.90959 -5.5396,14.05259 -0.2795,7.14301 4.5772,10.55108 4.8567,3.40806 11.8607,0.98393 7.00407,-2.42416 12.26427,-9.33375 5.2603,-6.90959 5.5397,-14.05261 z m -1.5212,38.88967 q 0.2794,-7.14306 -4.5773,-10.55113 -4.85659,-3.40806 -11.86067,-0.9839 -7.0041,2.42413 -12.2643,9.33372 -5.2603,6.90959 -5.5397,14.05266 -0.2794,7.14297 4.5773,10.55103 4.8566,3.40806 11.8606,0.98394 7.0041,-2.42417 12.26437,-9.33376 5.2603,-6.90959 5.5397,-14.05256 z m -1.5368,39.28648 q 0.2794,-7.14297 -4.5773,-10.55103 -4.84107,-3.80491 -11.84517,-1.38075 -7.004,2.42413 -12.2798,9.73056 -5.2603,6.9096 -5.5397,14.05256 -0.2794,7.14297 4.5773,10.55103 4.8566,3.40806 11.8606,0.98394 7.0041,-2.42416 12.26437,-9.33376 5.2603,-6.90959 5.5397,-14.05255 z m -738.37495,233.52706 1.14382,4.08508 m 0.32681,-82.19187 1.14382,4.24849 v 0 m 2.77786,-82.68208 0.1634,4.90209 0.16341,-0.1634 m 1.47063,-43.62869 0.65361,4.5753 m -3.59487,73.53149 v 4.5753 m -2.12425,73.36809 v 4.57529 M 253.08642,606.0738 208.1505,616.3682 M 82.983557,446.59215 v 4.9021 m -1.14382,33.82449 0.32681,4.7387 m -2.45105,34.96831 0.65361,4.41189 m -2.45105,34.3147 0.65361,4.7387 m -1.79743,34.31466 0.1634,5.2289 m -4.24849,34.3147 0.98042,5.3923 m 19.445,7.5166 4.5753,0.1634 m 33.824483,-13.2357 h 4.5753 m 33.49767,-12.2552 h 4.7387 M 101.77495,418.15998 262.0736,368.15856 m 33.66109,-15.35992 105.88535,-20.42541 m 3.59487,15.0331 -3.59487,4.41189 m -23.36667,33.17088 -1.63404,4.9021 m -12.41865,36.11213 0.1634,5.22891 m -2.28764,34.64151 1.30722,5.0655 m 8.00677,29.4126 2.61445,3.59487 m 19.445,19.7718 3.10466,2.61446 m 27.45179,8.17016 4.0851,2.45105 M 286.5841,588.753 396.88135,547.0852 m 64.05408,-15.52332 5.0655,-0.49021 m 33.3343,-12.25525 4.4119,-1.14382 m 32.027,-20.75222 5.8826,-2.61446 m 16.9939,-31.21003 -0.9804,-4.7387 m 0.9804,-38.56318 0.3268,4.24848 m -20.7522,-15.0331 4.9021,-0.98042 m 21.4058,-23.69348 -4.4119,-85.78675 m -10.2944,-20.09861 h -4.7387 m -31.5368,1.30723 -4.7387,0.3268 m -33.3343,14.21609 -5.0655,1.63404 m -32.5172,21.07903 -4.0851,2.61445 m 146.5728,-51.63545 53.2694,-22.87647 m 13.0723,6.53614 0.3268,4.41189 m -0.6536,34.15129 0.9804,4.7387 m -2.9412,34.3147 1.3072,4.73869 m -2.2877,34.3147 0.1634,4.57529 m -2.9412,35.13172 -0.4902,4.9021 m 0.3268,33.82449 -0.1634,4.24848 m -66.9954,23.03987 50.3282,-0.65361 m 38.3998,-128.76182 4.4119,-0.98042 m 33.8245,-12.58206 4.7387,-0.1634 m 33.8245,-14.05269 h 5.0655 m 33.1709,-13.72588 h 4.7387 m 33.9878,-11.11142 h 4.2485 m 17.9744,-24.6739 v -4.9021 m 1.4706,-34.3147 v -5.06551 m 1.7975,-33.66108 -0.4902,-4.7387 m -174.6782,38.23638 158.6646,-47.55037 m 33.3343,-16.5037 48.3674,-9.9676 m 33.3343,-16.8306 h 4.5753 m 33.4976,-11.4382 5.0656,-0.4902 m 33.17077,-12.2553 4.7387,-0.4902 m 34.3147,-15.033106 h 4.5754 m -59.6423,37.582806 0.4902,4.4119 m -3.75827,34.8049 -0.1634,4.73867 m -1.9608,34.96831 1.634,3.92168 m -3.9217,34.96832 1.3073,4.57529 m -2.4511,34.6415 0.6536,4.7387 m -2.6144,34.1513 1.4706,4.73869 v 0 l -0.1634,-0.1634 m -16.5037,27.12495 -125.167,36.76575 m -14.8697,-10.13101 0.1634,-5.0655 m -0.6536,-33.49768 -0.9804,-4.24849 m 4.2485,-35.45852 -0.3268,-4.41189 m -179.5963,158.4858 159.8553,-46.32541 M 70.758587,681.4896 l 8.48212,102.1116 m 84.821183,-36.8646 -4.24106,-1.9574 m -26.09882,7.8297 -4.89353,0.3262 m -25.44635,19.2479 -2.60988,5.2198 m -17.616713,27.73 0.9787,5.546 m 9.78706,21.5315 2.93612,1.9574 m 18.595423,13.3756 h 5.21976 m 23.48894,5.2198 3.91483,0.9787 m 16.96422,15.3331 2.60989,2.6099 m -1.30495,27.73 -0.65247,5.2197 m -14.02811,28.0563 -4.24105,2.2836 m -26.42506,23.1627 h -3.58859 m -28.056243,4.5673 h -3.58859 m 91.345883,-45.0205 48.28283,-1.6311 M 191.13942,732.7085 243.6633,717.0492 m 10.76577,6.5247 -0.32624,4.8936 m -1.30494,28.7087 v 4.8935 m -3.91482,29.6874 v 4.5673 m -4.24106,30.3399 v 4.5673 m -1.95741,29.0349 v 5.2198 m -0.97871,29.0349 0.65247,3.5886 m 11.74447,6.5247 137.01883,-44.368 m 15.6593,-18.2692 v -4.5672 m 1.95741,-28.7088 v -5.2197 m 3.58856,-30.3399 v -4.2411 m -13.04938,-8.4821 h -3.58859 m -28.05624,12.0707 h -5.546 m -27.73,13.0494 h -5.546 m -28.05624,10.1133 h -5.21976 m -27.73,10.7658 h -3.58859 m 3.16544,0.3329 h -4.22535 m 152.11271,-67.4044 v -4.4265 m 3.0181,-30.1811 0.2012,-4.4266 m 3.0181,-29.7787 0.2012,-4.4265 M 272.41176,699.5272 409.03147,660.493 m 28.57146,-17.1026 69.0141,5.0301 m 0.8048,21.7304 -1.6097,4.4266 m -11.67,31.9919 v 4.0242 m -2.2133,29.5775 0.6037,4.4265 m 3.2193,26.7606 2.8169,3.4205 m 14.8893,17.7062 3.2193,1.4085 m 22.1328,8.2495 4.2254,0.4024 m 27.9678,-3.8229 h 3.8229 m 28.3702,-10.8652 4.4266,-0.8049 m 28.169,-18.511 4.2254,-1.4085 m 25.3521,-24.7485 3.2193,-4.0241 m 20.7243,-29.1751 0.8049,-5.0301 m 10.664,-31.7908 0.2012,-4.2253 m 4.6277,-30.5835 V 633.33 m -7.0422,-24.9497 -1.8109,-3.0181 m -15.493,-16.499 -2.4144,-2.41448 m -22.9377,-6.23742 -3.6217,-0.80483 m -26.9618,2.01207 h -4.0241 m -28.169,11.87126 -5.0302,1.006 m -27.9678,16.9014 -3.6217,1.8109 m -26.3582,24.1448 -2.4145,4.2254 m -109.0543,205.2314 97.7867,-34.004 m 164.99,-245.27167 67.6056,-23.94366 m 16.7002,2.21328 2.0121,3.21932 m 8.0483,23.94366 2.8169,2.61569 m 8.0482,23.54128 2.0121,3.2193 m 8.0483,24.1449 1.006,3.8229 m 8.4507,24.1449 2.0121,3.0181 m 7.2435,20.7243 1.6096,3.0181 m 5.4326,25.1509 v 4.4266 m -7.847,14.0845 -121.7304,-1.2073 m 137.2233,-10.4627 139.6378,-40.0403 m -136.2173,3.2193 0.8049,-4.8289 m 13.8833,-27.9678 v -3.823 m 13.2796,-31.9919 1.2073,-3.823 m 14.8893,-31.18708 1.0061,-4.42656 m 13.4808,-31.38833 1.0061,-5.6338 m 14.4869,-27.16298 2.2133,-5.23139 m -7.6459,-7.64587 -125.3521,33.19919 m 145.2716,-30.38229 2.4145,3.62173 m 7.0423,21.52918 1.8108,2.8169 m 6.8411,24.54728 1.8108,3.21932 m 7.4447,24.94969 1.8109,3.01811 m 10.8652,22.1328 1.8108,3.2193 m 7.2435,21.5292 1.6096,2.2133 m 4.4266,26.5593 0.2012,3.6218 m 10.2616,-34.2053 2.0121,-4.4265 m 12.67597,-28.1691 1.2072,-3.82289 m 13.6821,-31.79074 0.6036,-4.22535 m 13.4809,-30.5835 0.8048,-5.63381 m 15.8954,-30.7847 1.8109,-4.22536 m 13.2798,-31.79074 0.6036,-4.42656 m 1.6096,-25.95573 -66.19719,-58.1489 m 57.74639,78.06841 -125.55317,38.22938 m -371.1992,18.88903 14.9533,91.58879"
           style="opacity:1;fill:none;fill-opacity:1;stroke:#ffffff;stroke-width:0.48;stroke-miterlimit:4;stroke-dasharray:none;stroke-opacity:1"
           id="path1430" />
      </g>
    </g>
  </g>
</svg>
