<?xml version="1.0" encoding="UTF-8" standalone="no"?>
<!-- Created with Inkscape (http://www.inkscape.org/) -->

<svg
   xmlns:dc="http://purl.org/dc/elements/1.1/"
   xmlns:cc="http://creativecommons.org/ns#"
   xmlns:rdf="http://www.w3.org/1999/02/22-rdf-syntax-ns#"
   xmlns:svg="http://www.w3.org/2000/svg"
   xmlns="http://www.w3.org/2000/svg"
   xmlns:sodipodi="http://sodipodi.sourceforge.net/DTD/sodipodi-0.dtd"
   xmlns:inkscape="http://www.inkscape.org/namespaces/inkscape"
   width="12in"
   height="24in"
   viewBox="0 0 1152 2304"
   version="1.1"
   id="svg2815"
   inkscape:version="0.92.3 (2405546, 2018-03-11)"
   sodipodi:docname="12x24 Sheet Calculator - Purple (Wizard's) - Single w Weed Lines.svg">
  <defs
     id="defs2809" />
  <sodipodi:namedview
     id="base"
     pagecolor="#1f1f1f"
     bordercolor="#666666"
     borderopacity="1.0"
     inkscape:pageopacity="0"
     inkscape:pageshadow="2"
     inkscape:zoom="3.5175344"
     inkscape:cx="215.35939"
     inkscape:cy="2159.2865"
     inkscape:document-units="in"
     inkscape:current-layer="layer1"
     showgrid="true"
     inkscape:snap-global="false"
     showguides="true"
     units="in"
     gridtolerance="10"
     inkscape:window-width="1920"
     inkscape:window-height="1017"
     inkscape:window-x="-8"
     inkscape:window-y="-8"
     inkscape:window-maximized="1"
     inkscape:guide-bbox="true">
    <inkscape:grid
       type="xygrid"
       id="grid3368" />
    <sodipodi:guide
       position="-820.06909,1154.5923"
       orientation="0,1"
       id="guide9322"
       inkscape:locked="false" />
  </sodipodi:namedview>
  <metadata
     id="metadata2812">
    <rdf:RDF>
      <cc:Work
         rdf:about="">
        <dc:format>image/svg+xml</dc:format>
        <dc:type
           rdf:resource="http://purl.org/dc/dcmitype/StillImage" />
        <dc:title />
      </cc:Work>
    </rdf:RDF>
  </metadata>
  <g
     inkscape:label="Layer 1"
     inkscape:groupmode="layer"
     id="layer1"
     transform="translate(0,1159.8)">
    <g
       id="g903">
      <g
         style="stroke:#b100a8;stroke-opacity:1;stroke-width:0.48;stroke-miterlimit:4;stroke-dasharray:none;opacity:1"
         id="g1895"
         transform="translate(-596.21225,-1073.5306)" />
      <g
         id="text1955-0"
         style="font-style:normal;font-variant:normal;font-weight:normal;font-stretch:normal;font-size:156.70088196px;line-height:125%;font-family:'Harry Potter';-inkscape-font-specification:'Harry Potter';font-variant-ligatures:normal;font-variant-caps:normal;font-variant-numeric:normal;font-feature-settings:normal;text-align:start;letter-spacing:0px;word-spacing:0px;writing-mode:lr-tb;text-anchor:start;fill:#a800b4;fill-opacity:1;stroke:#b100a8;stroke-width:0.48;stroke-linecap:butt;stroke-linejoin:miter;stroke-opacity:1;stroke-miterlimit:4;stroke-dasharray:none;opacity:1"
         transform="matrix(0.82084351,0.41275848,-0.71125083,0.86060884,0,0)"
         aria-label="\" />
      <path
         id="path878"
         style="opacity:1;fill:none;fill-opacity:1;stroke:#b100a8;stroke-width:0.48;stroke-miterlimit:4;stroke-dasharray:none;stroke-opacity:1"
         d="m 263.47155,-1056.8076 -8.63039,9.9437 m 32.64525,38.4615 23.26477,0.3753 m 44.08994,7.786 19.04317,-8.6304 m -0.28751,-0.1851 0.0452,-23.6498 m 40.30551,2.0225 -0.32631,23.2754 m -31.58513,-65.7245 18.31705,25.7198 m -47.10682,-31.4394 3.3774,5.7223 m -70.26282,33.2082 -4.31532,3.6586 m 21.01328,-12.8516 4.6904,1.9698 m -46.08228,33.2224 3.41476,5.4705 m -38.04308,-29.4762 -1.77654,7.5985 m -18.39246,21.4061 21.3002,5.5968 m -76.98733,-6.3884 11.44491,1.2194 m -71.7635,-52.7204 -17.073454,6.473 m -24.39048,-11.4449 24.390449,11.5387 m 58.630555,51.2193 -14.91565,-8.5366 m 40.80668,-65.1031 13.03948,21.9512 m -45.68491,-6.2852 17.07332,-13.5084 m 191.20674,-4.0939 c 2.8685,2.7505 4.08193,5.072 3.64063,6.9629 l -0.33008,26.4297 -9.4336,-10.3144 -20.18945,8.8965 3.30859,39.0644 13.90235,7.8652 12.57617,-5.1582 v 5.67392 l 17.37695,-0.64462 c -1.7652,-1.2033 -2.92301,-2.7086 -3.47461,-4.5136 l -1.49023,-67.9434 c 0,-1.9769 1.10405,-4.0836 3.31055,-6.3184 z m -4.79883,30.4278 8.43946,7.9922 -0.16602,29.0097 -11.25195,4.125 c -2.6479,-4.0397 -3.75185,-9.7117 -3.31055,-17.0175 l 1.32422,-20.7579 z m 27.06537,-24.6244 c 2.5375,1.1173 4.0832,3.0074 4.6348,5.6718 0.098,0.5345 0.1796,0.9288 0.2558,1.2598 -0.061,0.5534 -0.09,1.7208 -0.09,3.5117 0,2.0628 0.7161,4.5543 2.1504,7.4766 1.4342,2.9223 1.9852,5.8882 1.6543,8.8965 h 8.2754 c 0.1102,-1.805 1.0472,-4.2984 2.8125,-7.4785 1.6549,-2.9224 2.4287,-6.0581 2.3183,-9.4102 -0.056,-1.0458 -0.085,-1.8556 -0.084,-2.4375 -0.027,-0.1766 -0.055,-0.2943 -0.082,-0.5293 -0.5516,-3.1802 0.8826,-5.4998 4.3027,-6.9609 z m -326.467271,5.6718 -15.7207,0.3868 c 6.8402,1.2033 10.2597,3.353 10.2597,6.4472 0,1.805 -0.1094,4.4682 -0.3301,7.9922 -0.2207,3.524 -0.332,6.1892 -0.332,7.9942 l 0.4961,29.2656 c 0.1104,8.9389 0.4982,13.6249 1.1602,14.0547 l 17.541,18.56432 c 0.4413,0.4298 1.10371,0.6445 1.98631,0.6445 1.4343,0 5.6813,-2.1477 12.7422,-6.4452 1.1033,-0.6876 2.814,-2.6225 5.1309,-5.8027 2.3169,-3.1802 4.3021,-5.285 5.957,-6.31642 0,0.5157 0.056,0.3009 0.166,-0.6445 l 15.7207,16.63072 c 0.7722,0.4298 2.3716,0.9452 4.7988,1.5469 0.331,0 0.7726,-0.1289 1.3242,-0.3867 l 27.306701,-28.49212 -0.4961,-41.5156 c 0,-2.4926 0.7161,-4.1679 2.1504,-5.0274 0.4413,-0.3438 2.6474,-1.2029 6.6191,-2.5781 -1.6549,0 -4.0817,0.086 -7.2812,0.2578 -3.0892,0.086 -5.4604,0.1289 -7.1153,0.1289 -2.4271,0 -6.0137,-0.043 -10.7578,-0.1289 -4.743996,-0.1719 -8.328601,-0.2578 -10.755801,-0.2578 5.075005,0.9455 7.887705,3.5657 8.439405,7.8633 0.8826,7.048 1.2128,14.1825 0.9922,21.4023 -0.331,11.6893 -0.3847,18.9527 -0.164,21.7891 -8.384905,8.681 -13.350005,13.15032 -14.894605,13.40822 -0.6619,-0.6017 -1.5989,-2.3218 -2.8125,-5.15822 -0.1103,-0.3438 -0.8841,-0.9452 -2.3183,-1.8047 -1.4343,-0.9455 -2.1504,-1.7187 -2.1504,-2.3203 -1.2136,-13.924 -1.8203,-28.0193 -1.8203,-42.2871 0,-0.4298 -0.4973,-1.1171 -1.4903,-2.0625 -0.9929,-0.9455 -1.4883,-1.5469 -1.4883,-1.8047 0,-0.5157 0.3859,-1.0331 1.1582,-1.5488 v -0.7735 l -9.7636,8.7676 c -1.5446,0.4298 -2.3721,1.3318 -2.4825,2.707 l 0.8262,31.0723 c -4.6337,5.0711 -8.2183,9.3686 -10.7558,12.89262 -0.662,0.086 -1.3244,0.1289 -1.9864,0.1289 -2.3168,0 -4.0813,-0.9899 -5.2949,-2.96682 -0.5516,-0.9455 -0.93941,-7.4767 -1.16011,-19.5957 l -0.1641,-19.8555 c -0.1104,-11.9471 -0.2217,-18.3924 -0.332,-19.3379 0.3309,-2.8364 2.64841,-4.6854 6.95111,-5.5449 z m 251.869111,0.2579 c -7.1713,4.4694 -13.5706,8.2085 -19.1973,11.2168 l 8.6055,-0.2579 -0.3301,43.0625 c 0,1.3753 -0.2208,2.2344 -0.6621,2.5782 -0.5517,0.6016 -2.2623,1.3748 -5.1308,2.3203 0.993,0 2.4828,-0.043 4.4687,-0.1289 2.0962,-0.086 3.6399,-0.1289 4.6328,-0.1289 1.5446,0 3.8621,0.043 6.9512,0.1289 3.1995,0.086 5.5707,0.1289 7.1152,0.1289 -3.1994,-0.6017 -4.9082,-2.2769 -5.1289,-5.0274 -0.9929,-12.4628 -1.2694,-25.0976 -0.8281,-37.9043 0.9929,-1.0314 1.8205,-1.5917 2.4824,-1.6777 0.7723,-0.1719 1.8763,0.9469 3.3106,3.3535 1.1032,1.8909 1.8751,3.4803 2.3164,4.7695 -0.331,1.4612 -1.6559,3.0506 -3.9727,4.7696 v 0.5176 l 15.2266,-6.9629 c 1.1033,-0.2579 1.6543,-0.8163 1.6543,-1.6758 0,-0.7736 -0.4416,-1.5468 -1.3242,-2.3203 l -7.7774,-10.5723 c -0.2206,-0.2578 -0.6065,-0.3867 -1.1582,-0.3867 -1.7652,0 -5.517,1.933 -11.2539,5.8008 z m -45.0625,8.123 c -9.7088,4.4694 -15.1155,7.2635 -16.2187,8.3809 -0.5517,0.5157 -0.8262,1.16 -0.8262,1.9336 0,2.0628 0.8812,3.9958 2.6465,5.8007 l 4.9648,5.1582 3.4766,-0.1289 -1.4903,-4.2558 c 0,-1.5471 2.041,-3.3083 6.1231,-5.2852 2.4272,-1.2033 3.9171,-1.9335 4.4687,-2.1914 l 2.4825,-1.0312 v 37.7753 c -0.662,1.7191 -1.8754,2.4923 -3.6407,2.3204 -3.1995,-3.3521 -4.8008,-7.9073 -4.8008,-13.6661 0,-1.2033 0.1115,-2.408 0.3321,-3.6113 -0.1103,-1.8049 1.7098,-4.2964 5.4609,-7.4765 l -10.9219,3.8671 c -4.9647,1.7191 -8.3861,4.0406 -10.2617,6.9629 4.1924,15.6431 8.716,23.1193 13.5703,22.4317 l 10.5918,-5.1563 v 4.6406 c -0.3309,1.0315 0.055,1.5489 1.1582,1.5489 1.2137,0 3.2009,-0.7752 5.959,-2.3223 l 11.9141,-10.4414 -6.1231,-0.2578 0.6621,-29.3965 c 0.5517,-2.2347 -2.096,-5.1576 -7.9433,-8.7676 -4.0822,-2.4925 -7.9433,-4.7692 -11.584,-6.832 z m -23.127,1.0313 -42.3652,2.5781 -7.4473,16.8906 c 4.4132,-4.7273 9.2112,-6.9629 14.3965,-6.7051 l 16.7149,-2.8359 c -1.8755,6.5322 -12.6314,19.8113 -32.2696,39.8379 l 44.5157,-0.5157 7.4472,-16.5019 c -4.6337,4.2975 -9.6526,6.746 -15.0586,7.3477 l -17.873,2.0625 c 6.8402,-5.5009 12.4659,-11.2159 16.8789,-17.1465 3.9718,-5.329 8.9926,-13.6662 15.0605,-25.0117 z m 186.6822,10.8983 c -2.2065,0 -6.7857,2.0638 -13.7363,6.1894 -6.1783,3.6959 -9.7091,5.8008 -10.5918,6.3165 l -1.4883,1.289 c -0.4413,0.1719 -0.6621,0.4726 -0.6621,0.9024 0,0.6876 4.247,4.8992 12.7422,12.6347 8.6055,7.6496 12.9082,12.0331 12.9082,13.1504 0,0.5157 -0.2208,0.9023 -0.6621,1.1602 l 0.8281,-0.1289 c -2.0962,2.0628 -3.1445,3.5682 -3.1445,4.5136 -1.2136,0.2579 -3.1451,-0.3864 -5.793,-1.9336 -2.6478,-1.633 -4.1378,-2.9666 -4.4687,-3.998 0.1102,-0.4298 9e-4,-1.203 -0.3301,-2.3203 -0.2206,-1.2033 -0.3301,-1.9765 -0.3301,-2.3203 0,-1.0314 0.4396,-1.8905 1.3223,-2.5781 l -7.2813,1.289 -3.3086,1.5469 c -1.6549,0.7735 -2.4824,1.6756 -2.4824,2.707 0,0.9455 0.7162,2.6656 2.1504,5.1582 l 11.0879,10.57032 c 0.1103,0.1719 0.3311,0.2578 0.6621,0.2578 2.2066,0 6.7858,-2.0618 13.7363,-6.1875 6.1783,-3.69582 9.7072,-5.80262 10.5899,-6.31832 v -0.6445 l 0.9941,-0.1289 c 0.5516,-0.3439 0.8262,-0.8164 0.8262,-1.418 0,-1.5471 -2.8666,-4.7278 -8.6035,-9.541 -8.1642,-6.8761 -13.9569,-12.0327 -17.377,-15.4707 -0.4413,-0.4298 -0.6621,-0.9453 -0.6621,-1.5469 0,-1.0314 0.6068,-2.1053 1.8203,-3.2227 1.2137,-1.1173 2.427,-1.6758 3.6407,-1.6758 1.4341,0 2.9778,0.4726 4.6328,1.418 1.7652,0.8595 2.8135,1.8045 3.1445,2.836 -0.1104,0.5157 -0.055,1.3748 0.166,2.5781 0.331,1.2033 0.4961,2.0194 0.4961,2.4492 0,1.1174 -0.4416,2.0214 -1.3242,2.709 v 0.5156 l 11.916,-2.0625 c 1.655,-0.7735 2.4824,-1.6776 2.4824,-2.709 0,-0.9454 -0.7181,-2.6637 -2.1523,-5.1562 l -11.086,-10.5723 c -0.1103,-0.1719 -0.3311,-0.2578 -0.6621,-0.2578 z m -267.58031,44.0752 5.87238,-10.4103 -5.90325,38.64822 4.49218,-7.859 -2.50813,35.2012 16.31855,-62.04622 -4.44971,4.0622 9.23037,-37.1661 -5.94178,3.8847 8.64717,-38.223 -15.5712,2.0969 z m 80.76093,-54.8518 19.04026,0.8442" />
    </g>
  </g>
</svg>
