<?xml version="1.0" encoding="UTF-8" standalone="no"?>
<!-- Created with Inkscape (http://www.inkscape.org/) -->

<svg
   xmlns:dc="http://purl.org/dc/elements/1.1/"
   xmlns:cc="http://creativecommons.org/ns#"
   xmlns:rdf="http://www.w3.org/1999/02/22-rdf-syntax-ns#"
   xmlns:svg="http://www.w3.org/2000/svg"
   xmlns="http://www.w3.org/2000/svg"
   xmlns:sodipodi="http://sodipodi.sourceforge.net/DTD/sodipodi-0.dtd"
   xmlns:inkscape="http://www.inkscape.org/namespaces/inkscape"
   width="12in"
   height="24in"
   viewBox="0 0 1152 2304"
   version="1.1"
   id="svg2815"
   inkscape:version="0.92.3 (2405546, 2018-03-11)"
   sodipodi:docname="12x24 Sheet Calculator - Green (Light Show) - Single.svg">
  <defs
     id="defs2809" />
  <sodipodi:namedview
     id="base"
     pagecolor="#1f1f1f"
     bordercolor="#666666"
     borderopacity="1.0"
     inkscape:pageopacity="0"
     inkscape:pageshadow="2"
     inkscape:zoom="0.61580177"
     inkscape:cx="253.21658"
     inkscape:cy="1964.2576"
     inkscape:document-units="in"
     inkscape:current-layer="layer1"
     showgrid="true"
     inkscape:snap-global="false"
     showguides="true"
     units="in"
     gridtolerance="10"
     inkscape:window-width="1920"
     inkscape:window-height="1017"
     inkscape:window-x="-8"
     inkscape:window-y="-8"
     inkscape:window-maximized="1">
    <inkscape:grid
       type="xygrid"
       id="grid3368" />
  </sodipodi:namedview>
  <metadata
     id="metadata2812">
    <rdf:RDF>
      <cc:Work
         rdf:about="">
        <dc:format>image/svg+xml</dc:format>
        <dc:type
           rdf:resource="http://purl.org/dc/dcmitype/StillImage" />
        <dc:title></dc:title>
      </cc:Work>
    </rdf:RDF>
  </metadata>
  <g
     inkscape:label="Layer 1"
     inkscape:groupmode="layer"
     id="layer1"
     transform="translate(0,1159.8)">
    <g
       transform="translate(-0.29917528,-1178.267)"
       id="g5860"
       style="fill:#00ff00;fill-opacity:1">
      <path
         id="path5710"
         d="m 193.96714,904.36924 q -2.72774,31.29787 -24.89355,58.51483 -21.801,26.75374 -51.91118,37.15133 -38.139475,13.1701 -68.379037,-1.00972 l 5.819182,-66.76886 q 14.483872,16.24764 25.983578,22.05797 17.036783,9.29498 36.775597,2.47884 11.37491,-3.92794 20.55836,-12.49584 10.91682,-9.84095 11.88668,-20.96906 1.4851,-17.03997 -22.39549,-25.99534 Q 105.11253,888.84362 82.448946,880.81718 59.02288,866.6455 61.538462,837.7819 q 2.909591,-33.38443 26.991953,-60.25137 22.288165,-24.89821 55.074745,-36.21996 28.77194,-9.93542 55.8163,-0.0488 l -5.09178,58.42273 q -31.51945,-21.83276 -57.28037,-12.93708 -11.0404,3.81243 -19.82862,11.56916 -10.52169,9.02991 -11.46124,19.81031 -1.33357,15.30123 22.69856,22.51785 38.26896,11.40718 45.05337,15.47284 23.36535,14.86724 20.45576,48.25166 z"
         style="font-style:normal;font-variant:normal;font-weight:normal;font-stretch:normal;font-size:medium;line-height:125%;font-family:Marquee;-inkscape-font-specification:Marquee;font-variant-ligatures:normal;font-variant-caps:normal;font-variant-numeric:normal;font-feature-settings:normal;text-align:start;letter-spacing:0px;word-spacing:0px;writing-mode:lr-tb;text-anchor:start;fill:#00ff00;fill-opacity:1;stroke:none;stroke-width:1.74958384px;stroke-linecap:butt;stroke-linejoin:miter;stroke-opacity:1"
         inkscape:connector-curvature="0" />
      <path
         id="path5748"
         d="m 424.71536,890.79663 -46.16886,15.94287 9.00155,-103.28318 -118.43316,40.89694 -9.00155,103.28317 -46.16886,15.94288 21.88256,-251.07889 46.16886,-15.94287 -9.00155,103.28317 118.43316,-40.89693 9.00155,-103.28318 46.16886,-15.94287 z"
         style="font-style:normal;font-variant:normal;font-weight:normal;font-stretch:normal;font-size:medium;line-height:125%;font-family:Marquee;-inkscape-font-specification:Marquee;font-variant-ligatures:normal;font-variant-caps:normal;font-variant-numeric:normal;font-feature-settings:normal;text-align:start;letter-spacing:0px;word-spacing:0px;writing-mode:lr-tb;text-anchor:start;fill:#00ff00;fill-opacity:1;stroke:none;stroke-width:1.74958384px;stroke-linecap:butt;stroke-linejoin:miter;stroke-opacity:1"
         inkscape:connector-curvature="0" />
      <path
         id="path5792"
         transform="translate(0,-7.8000364)"
         d="m 655.54102,578.80469 c -14.16233,-0.0997 -29.92024,2.84682 -47.2754,8.83984 -36.57824,12.63108 -68.27751,35.04383 -95.0957,67.24024 -27.77096,33.19996 -43.3022,68.69505 -46.5957,106.48437 -3.27329,37.55751 6.74207,64.11703 30.04687,79.67969 22.67606,15.33012 52.19171,16.7181 88.54688,4.16406 37.02433,-12.78512 68.93639,-35.15845 95.73437,-67.12305 27.99398,-33.27698 43.64724,-68.92608 46.96094,-106.94726 3.3137,-38.02113 -6.79446,-64.776 -30.32226,-80.26172 -11.94962,-7.93868 -25.94937,-11.96321 -42,-12.07617 z m -22.82227,48.63281 c 11.03942,-0.0492 20.62703,2.82144 28.76172,8.61328 14.70501,9.98767 20.99658,27.15328 18.875,51.4961 -2.12158,24.34288 -11.89929,47.16831 -29.33203,68.47851 -17.18941,21.00134 -37.60405,35.58405 -61.2461,43.74805 -23.64205,8.16398 -42.70361,7.21509 -57.18554,-2.84961 -14.46174,-10.29651 -20.6333,-27.61611 -18.51172,-51.95899 2.12158,-24.34281 11.77733,-47.01621 28.9668,-68.01757 17.20967,-21.23324 37.63529,-35.93171 61.27734,-44.09571 10.34339,-3.57174 19.80832,-5.37579 28.39453,-5.41406 z"
         style="font-style:normal;font-variant:normal;font-weight:normal;font-stretch:normal;font-size:medium;line-height:125%;font-family:Marquee;-inkscape-font-specification:Marquee;font-variant-ligatures:normal;font-variant-caps:normal;font-variant-numeric:normal;font-feature-settings:normal;text-align:start;letter-spacing:0px;word-spacing:0px;writing-mode:lr-tb;text-anchor:start;fill:#00ff00;fill-opacity:1;stroke:none;stroke-width:1.74958384px;stroke-linecap:butt;stroke-linejoin:miter;stroke-opacity:1"
         inkscape:connector-curvature="0" />
      <path
         id="path5849"
         d="m 1104.7834,411.42355 -121.0933,287.36165 -15.38965,5.31431 -57.23253,-151.24203 -85.95782,200.68803 -15.38966,5.3143 -76.62994,-219.08454 47.50711,-16.405 45.94161,131.86806 75.83717,-173.92029 32.45206,-11.20624 50.9599,130.13516 71.82255,-172.53396 z"
         style="font-style:normal;font-variant:normal;font-weight:normal;font-stretch:normal;font-size:medium;line-height:125%;font-family:Marquee;-inkscape-font-specification:Marquee;font-variant-ligatures:normal;font-variant-caps:normal;font-variant-numeric:normal;font-feature-settings:normal;text-align:start;letter-spacing:0px;word-spacing:0px;writing-mode:lr-tb;text-anchor:start;fill:#00ff00;fill-opacity:1;stroke:none;stroke-width:1.74958384px;stroke-linecap:butt;stroke-linejoin:miter;stroke-opacity:1"
         inkscape:connector-curvature="0" />
      <path
         style="font-style:normal;font-variant:normal;font-weight:normal;font-stretch:normal;font-size:medium;line-height:125%;font-family:Marquee;-inkscape-font-specification:Marquee;font-variant-ligatures:normal;font-variant-caps:normal;font-variant-numeric:normal;font-feature-settings:normal;text-align:start;letter-spacing:0px;word-spacing:0px;writing-mode:lr-tb;text-anchor:start;fill:#00ff00;fill-opacity:1;stroke:none;stroke-width:2.03273392px;stroke-linecap:butt;stroke-linejoin:miter;stroke-opacity:1"
         d="M 217.26931,659.03479 48.783435,717.34877 59.991064,430.83517 113.68858,412.25014 104.4679,647.969 219.25626,608.24007 Z"
         id="path5512"
         inkscape:connector-curvature="0" />
      <path
         id="path5578"
         d="m 294.62372,632.26197 -53.69761,18.58506 11.20763,-286.51359 53.69761,-18.58507 z"
         style="font-style:normal;font-variant:normal;font-weight:normal;font-stretch:normal;font-size:medium;line-height:125%;font-family:Marquee;-inkscape-font-specification:Marquee;font-variant-ligatures:normal;font-variant-caps:normal;font-variant-numeric:normal;font-feature-settings:normal;text-align:start;letter-spacing:0px;word-spacing:0px;writing-mode:lr-tb;text-anchor:start;fill:#00ff00;fill-opacity:1;stroke:none;stroke-width:2.03273392px;stroke-linecap:butt;stroke-linejoin:miter;stroke-opacity:1"
         inkscape:connector-curvature="0" />
      <path
         id="path5616"
         d="m 582.99808,511.31497 q -56.23196,44.12419 -106.03839,61.3625 -63.42544,21.95192 -104.64445,-3.71086 -41.2191,-25.66285 -38.70437,-89.94983 2.51473,-64.28697 48.14549,-121.96626 44.43228,-56.48169 107.85771,-78.43362 42.41331,-14.67949 101.32771,-9.62516 l -2.26637,57.93767 q -55.94219,-12.34638 -101.85753,3.5452 -40.07862,13.87145 -68.38761,50.68011 -28.309,36.80866 -29.90787,77.68247 -1.69201,43.25481 25.70425,59.21777 27.39616,15.96299 70.19861,1.1488 18.67744,-6.46437 46.25685,-24.62189 l 1.62992,-41.66754 -42.02416,14.54481 1.98695,-50.79463 95.72167,-33.12985 z"
         style="font-style:normal;font-variant:normal;font-weight:normal;font-stretch:normal;font-size:medium;line-height:125%;font-family:Marquee;-inkscape-font-specification:Marquee;font-variant-ligatures:normal;font-variant-caps:normal;font-variant-numeric:normal;font-feature-settings:normal;text-align:start;letter-spacing:0px;word-spacing:0px;writing-mode:lr-tb;text-anchor:start;fill:#00ff00;fill-opacity:1;stroke:none;stroke-width:2.03273392px;stroke-linecap:butt;stroke-linejoin:miter;stroke-opacity:1"
         inkscape:connector-curvature="0" />
      <path
         id="path5654"
         d="m 856.94043,437.64079 -53.69752,18.58503 4.61034,-117.85949 -137.74593,47.6747 -4.61034,117.85948 -53.69762,18.58507 11.20763,-286.5136 53.69762,-18.58506 -4.61034,117.85948 137.74593,-47.67469 4.61034,-117.85949 53.69752,-18.58503 z"
         style="font-style:normal;font-variant:normal;font-weight:normal;font-stretch:normal;font-size:medium;line-height:125%;font-family:Marquee;-inkscape-font-specification:Marquee;font-variant-ligatures:normal;font-variant-caps:normal;font-variant-numeric:normal;font-feature-settings:normal;text-align:start;letter-spacing:0px;word-spacing:0px;writing-mode:lr-tb;text-anchor:start;fill:#00ff00;fill-opacity:1;stroke:none;stroke-width:2.03273392px;stroke-linecap:butt;stroke-linejoin:miter;stroke-opacity:1"
         inkscape:connector-curvature="0" />
      <path
         id="path5678"
         d="m 1102.7965,120.02089 -77.8226,26.93488 -9.2207,235.71897 -53.69754,18.58503 9.22068,-235.71896 -77.82263,26.93488 1.98694,-50.79463 209.34275,-72.454794 z"
         style="font-style:normal;font-variant:normal;font-weight:normal;font-stretch:normal;font-size:medium;line-height:125%;font-family:Marquee;-inkscape-font-specification:Marquee;font-variant-ligatures:normal;font-variant-caps:normal;font-variant-numeric:normal;font-feature-settings:normal;text-align:start;letter-spacing:0px;word-spacing:0px;writing-mode:lr-tb;text-anchor:start;fill:#00ff00;fill-opacity:1;stroke:none;stroke-width:2.03273392px;stroke-linecap:butt;stroke-linejoin:miter;stroke-opacity:1"
         inkscape:connector-curvature="0" />
    </g>
  </g>
</svg>
