<?xml version="1.0" encoding="UTF-8" standalone="no"?>
<!-- Created with Inkscape (http://www.inkscape.org/) -->

<svg
   xmlns:dc="http://purl.org/dc/elements/1.1/"
   xmlns:cc="http://creativecommons.org/ns#"
   xmlns:rdf="http://www.w3.org/1999/02/22-rdf-syntax-ns#"
   xmlns:svg="http://www.w3.org/2000/svg"
   xmlns="http://www.w3.org/2000/svg"
   xmlns:sodipodi="http://sodipodi.sourceforge.net/DTD/sodipodi-0.dtd"
   xmlns:inkscape="http://www.inkscape.org/namespaces/inkscape"
   width="12in"
   height="24in"
   viewBox="0 0 1152 2304"
   version="1.1"
   id="svg2815"
   inkscape:version="0.92.3 (2405546, 2018-03-11)"
   sodipodi:docname="12x24 Sheet Calculator - Orange (Right Here) - Single w Weed Lines.svg">
  <defs
     id="defs2809" />
  <sodipodi:namedview
     id="base"
     pagecolor="#1f1f1f"
     bordercolor="#666666"
     borderopacity="1.0"
     inkscape:pageopacity="0"
     inkscape:pageshadow="2"
     inkscape:zoom="2.32"
     inkscape:cx="137.5353"
     inkscape:cy="2132.0299"
     inkscape:document-units="in"
     inkscape:current-layer="layer1"
     showgrid="true"
     inkscape:snap-global="false"
     showguides="true"
     units="in"
     gridtolerance="10"
     inkscape:window-width="1920"
     inkscape:window-height="1017"
     inkscape:window-x="-8"
     inkscape:window-y="-8"
     inkscape:window-maximized="1"
     inkscape:guide-bbox="true">
    <inkscape:grid
       type="xygrid"
       id="grid3368" />
    <sodipodi:guide
       position="-820.06909,1154.5923"
       orientation="0,1"
       id="guide9322"
       inkscape:locked="false" />
  </sodipodi:namedview>
  <metadata
     id="metadata2812">
    <rdf:RDF>
      <cc:Work
         rdf:about="">
        <dc:format>image/svg+xml</dc:format>
        <dc:type
           rdf:resource="http://purl.org/dc/dcmitype/StillImage" />
        <dc:title></dc:title>
      </cc:Work>
    </rdf:RDF>
  </metadata>
  <g
     inkscape:label="Layer 1"
     inkscape:groupmode="layer"
     id="layer1"
     transform="translate(0,1159.8)">
    <g
       id="text7444"
       style="font-style:normal;font-variant:normal;font-weight:normal;font-stretch:normal;font-size:201.57617188px;line-height:125%;font-family:Saloon;-inkscape-font-specification:Saloon;font-variant-ligatures:normal;font-variant-caps:normal;font-variant-numeric:normal;font-feature-settings:normal;text-align:start;letter-spacing:0px;word-spacing:0px;writing-mode:lr-tb;text-anchor:start;fill:#ff3f00;fill-opacity:1;stroke:none;stroke-width:2.09975171px;stroke-linecap:butt;stroke-linejoin:miter;stroke-opacity:1"
       transform="matrix(0.82603084,0,-0.3042733,1.1891305,-13.697931,-3222.2309)"
       aria-label="Right Here!">
      <g
         id="g7478">
        <path
           d="m 830.1527,1762.8591 q 13.70718,0 24.59229,10.2803 10.68354,10.0789 10.68354,30.0349 0,24.7939 -6.65202,31.849 -6.65201,6.652 -13.5056,8.4662 4.03152,0.6048 12.09457,5.4426 7.86147,4.2331 8.06305,29.8333 0,5.2409 3.02364,8.2646 3.02364,2.822 7.65989,5.6441 1.20946,0.6047 4.2331,1.411 3.22522,0.6048 5.24099,-0.2015 v 30.2364 h -15.11822 q -5.0394,-2.6205 -7.05516,-5.8457 -1.81419,-3.4268 -3.02365,-9.2725 -0.60472,5.4425 -2.62049,8.8693 -2.01576,3.4268 -7.45832,6.2489 H 835.1921 v -30.2364 q 10.48196,1.411 15.11821,-4.8379 4.83783,-6.2488 4.83783,-15.3197 0,-9.071 -5.24098,-15.5214 -5.0394,-6.652 -13.70718,-8.2646 h -33.26007 q -1.6126,0.8063 -4.63625,4.0315 -3.02364,3.2252 -3.42679,4.6362 v 25.1971 q 0,0.8063 2.41891,2.822 2.41892,2.0158 3.4268,3.0237 2.82206,1.8142 6.24886,2.822 3.42679,1.0079 8.06304,1.4111 v 30.2364 h -15.11821 q -5.0394,-2.6205 -7.05516,-5.8457 -1.81419,-3.4268 -3.02365,-9.2725 -0.60473,5.4425 -2.62049,8.8693 -2.01576,3.4268 -7.45832,6.2489 h -15.11821 v -30.2364 q 4.43468,0 7.45832,-1.0079 3.22522,-1.0079 6.65201,-3.4268 2.01577,-1.6126 3.22522,-2.6205 1.41104,-1.2095 2.82207,-3.0236 v -25.1971 q 0,-1.2094 -1.61261,-3.0236 -1.41103,-1.8142 -3.62837,-3.4268 -2.21734,-1.8142 -4.63625,-3.2252 -2.41892,-1.6126 -4.2331,-2.4189 -5.24098,-2.4189 -5.03941,-2.6205 0.20158,-0.4032 5.24098,-3.2252 4.63626,-2.0158 7.6599,-5.241 3.02364,-3.4268 6.24886,-7.0552 v -25.197 q 0,-1.8142 -2.21734,-3.4268 -2.21734,-1.8142 -5.44256,-3.0236 -3.02364,-1.4111 -6.45043,-2.419 -3.4268,-1.0078 -6.04729,-1.2094 v -30.2364 h 15.11821 q 4.83783,2.4189 6.85359,5.8457 2.01577,3.4268 3.22522,9.2725 1.00788,-9.4741 5.84571,-12.2962 4.83783,-2.822 13.10245,-2.822 2.21734,0 5.03941,0 3.02364,0 6.45044,-0.2016 h 7.25674 q 2.41891,0 2.62049,0.2016 z m 6.04728,74.18 q 3.82995,0 11.48984,-5.4426 7.25675,-5.2409 7.6599,-18.3434 0,-9.0709 -3.22522,-13.1025 -3.02364,-4.2331 -11.89299,-7.0551 h -25.19703 q -5.64413,0 -11.69141,2.4189 -5.84571,2.4189 -8.4662,7.6599 v 25.197 q 0,0.6047 1.00788,1.8142 1.00788,1.2095 2.41891,2.6205 1.41104,1.411 2.62049,2.6205 1.41104,1.2094 2.01576,1.6126 z"
           style="fill:#ff3f00;fill-opacity:1;stroke-width:2.09975171px"
           id="path7447"
           inkscape:connector-curvature="0" />
        <path
           d="m 966.21661,1793.0955 q -5.44255,0 -11.48984,2.4189 -6.04728,2.4189 -8.66777,7.6599 v 25.197 q 0,2.0158 2.21733,4.2331 2.41892,2.2174 5.64414,4.2331 3.22522,2.0158 6.65201,3.83 3.4268,1.8141 5.64413,2.822 -2.82206,1.2095 -6.04728,2.8221 -3.22522,1.411 -5.84571,3.4268 -1.41103,1.0079 -4.63625,4.2331 -3.02364,3.0236 -3.62837,4.6362 v 25.1971 q 0,1.411 1.81418,3.0236 2.01576,1.411 4.43468,3.0236 3.82995,2.0158 6.65201,2.8221 2.82207,0.8063 7.25674,1.2095 V 1924.12 H 951.0984 q -5.0394,-2.6205 -7.05517,-5.8457 -1.81418,-3.4268 -3.02364,-9.2725 -0.60473,5.4425 -2.62049,8.8693 -2.01576,3.4268 -7.45832,6.2489 h -15.11821 v -30.2364 q 4.43468,0 7.45832,-1.0079 3.22522,-1.0079 6.65201,-3.4268 2.01576,-1.6126 3.22522,-2.6205 1.41103,-1.2095 2.82207,-3.0236 v -25.1971 q 0,-0.6047 -1.00788,-1.8141 -1.00788,-1.2095 -2.41892,-2.419 -1.20945,-1.411 -2.62049,-2.6205 -1.41103,-1.2094 -2.21734,-1.8141 -2.41891,-1.8142 -5.8457,-3.2253 -3.22522,-1.6126 -6.04729,-3.2252 5.03941,-2.0157 8.4662,-4.2331 3.62837,-2.2173 7.45832,-6.0473 l 4.2331,-4.8378 v -25.197 q 0,-1.8142 -2.21734,-3.4268 -2.21734,-1.8142 -5.44256,-3.0236 -3.02364,-1.4111 -6.45043,-2.419 -3.4268,-1.0078 -6.04729,-1.2094 v -30.2364 h 15.11821 q 5.24098,2.6204 7.05517,6.4504 1.81419,3.6284 2.62049,8.6678 0.8063,-4.6363 2.62049,-8.4662 2.01576,-3.83 7.86147,-6.652 h 15.11821 z"
           style="fill:#ff3f00;fill-opacity:1;stroke-width:2.09975171px"
           id="path7449"
           inkscape:connector-curvature="0" />
        <path
           d="m 1086.1387,1878.7654 v -25.1971 h -30.2364 v -20.1576 h 40.3152 v 50.3941 q 0,15.7229 -10.0788,28.2206 -10.0788,12.0946 -26.2049,12.0946 h -28.2207 q -17.134,0 -26.608,-11.2883 -9.67569,-11.2882 -9.67569,-34.0663 v -20.1577 q 0,-0.6047 -1.00788,-1.8141 -1.00788,-1.2095 -2.41892,-2.419 -1.20946,-1.411 -2.62049,-2.6205 -1.41103,-1.2094 -2.21734,-1.8141 -2.41891,-1.8142 -5.84571,-3.2253 -3.22521,-1.6126 -6.04728,-3.2252 5.0394,-2.0157 8.4662,-4.2331 3.62837,-2.2173 7.45832,-6.0473 l 4.2331,-4.8378 v -25.197 q 0,-23.1813 12.29619,-31.849 12.2961,-8.4662 23.9875,-8.4662 h 28.2207 q 12.2961,0 24.1891,8.2646 11.4899,8.063 11.893,28.4222 l 0.2016,3.6284 h -11.6914 q -1.6126,-3.0237 -4.8379,-6.4504 -3.0236,-3.6284 -9.6756,-3.6284 h -48.3783 q -7.0552,0 -11.6914,6.0473 -4.4347,6.0473 -4.4347,14.1103 v 15.1182 q 0,2.0158 2.2174,4.2331 2.4189,2.2174 5.6441,4.2331 3.2252,2.0158 6.652,3.83 3.4268,1.8141 5.6441,2.822 -2.822,1.2095 -6.0473,2.8221 -3.2252,1.411 -5.8457,3.4268 -1.411,1.0079 -4.6362,4.2331 -3.0237,3.0236 -3.6284,4.6362 v 14.5135 q 0,7.6599 4.0315,14.3119 4.0316,6.4505 12.0946,6.4505 h 48.3783 q 5.6441,0 10.8851,-4.4347 5.241,-4.4347 5.241,-10.6835 z"
           style="fill:#ff3f00;fill-opacity:1;stroke-width:2.09975171px"
           id="path7451"
           inkscape:connector-curvature="0" />
        <path
           d="m 1185.8244,1924.12 v -30.2364 q 4.4347,0 7.4583,-1.0079 3.2252,-1.0079 6.652,-3.4268 2.0158,-1.6126 3.2253,-2.6205 1.411,-1.2095 2.822,-3.0236 v -25.1971 q 0,-0.6047 -1.0079,-1.8141 -0.8063,-1.4111 -2.2173,-2.8221 -1.2095,-1.411 -2.6205,-2.6205 -1.411,-1.2095 -2.2173,-1.411 h -54.4256 q -0.8063,0 -2.2173,1.2094 -1.2095,1.2095 -2.6205,2.8221 -1.2095,1.411 -2.2174,2.8221 -1.0078,1.411 -1.0078,1.8141 v 25.1971 q 0,1.411 1.8142,3.0236 2.0157,1.411 4.4346,3.0236 3.83,2.0158 6.652,2.8221 2.8221,0.8063 7.2568,1.2095 v 30.2364 h -15.1182 q -5.0394,-2.6205 -7.0552,-5.8457 -1.8142,-3.4268 -3.0236,-9.2725 -0.6048,5.4425 -2.6205,8.8693 -2.0158,3.4268 -7.4583,6.2489 h -15.1183 v -30.2364 q 4.4347,0 7.4584,-1.0079 3.2252,-1.0079 6.652,-3.4268 2.0157,-1.6126 3.2252,-2.6205 1.411,-1.2095 2.8221,-3.0236 v -25.1971 q 0,-0.6047 -1.0079,-1.8141 -1.0079,-1.2095 -2.4189,-2.419 -1.2095,-1.411 -2.6205,-2.6205 -1.4111,-1.2094 -2.2174,-1.8141 -2.4189,-1.8142 -5.8457,-3.2253 -3.2252,-1.6126 -6.0473,-3.2252 5.0394,-2.0157 8.4662,-4.2331 3.6284,-2.2173 7.4584,-6.0473 l 4.2331,-4.8378 v -25.197 q 0,-1.8142 -2.2174,-3.4268 -2.2173,-1.8142 -5.4425,-3.0236 -3.0237,-1.4111 -6.4505,-2.419 -3.4268,-1.0078 -6.0473,-1.2094 v -30.2364 h 15.1183 q 5.0394,2.4189 6.8535,6.2488 2.0158,3.83 3.2253,9.2725 0.6047,-5.8457 2.6205,-9.0709 2.0157,-3.4268 7.4583,-6.4504 h 15.1182 v 30.2364 q -5.4426,0 -11.4899,2.4189 -6.0472,2.4189 -8.6677,7.6599 v 25.197 q 0,1.411 3.0236,4.4347 3.2252,3.0236 5.0394,4.2331 h 54.4256 q 1.0079,0 2.2173,-1.0079 1.2095,-1.2094 2.4189,-2.6205 1.2095,-1.6126 2.0158,-3.0236 1.0079,-1.4111 1.411,-2.0158 v -25.197 q 0,-1.8142 -2.2173,-3.4268 -2.2174,-1.8142 -5.4426,-3.0236 -3.0236,-1.4111 -6.4504,-2.419 -3.4268,-1.0078 -6.0473,-1.2094 v -30.2364 h 15.1182 q 5.0394,2.4189 6.8536,6.2488 2.0158,3.83 3.2252,9.2725 0.6048,-5.8457 2.6205,-9.0709 2.0158,-3.4268 7.4583,-6.4504 h 15.1183 v 30.2364 q -5.4426,0 -11.4899,2.4189 -6.0473,2.4189 -8.6678,7.6599 v 25.197 q 0,2.0158 2.2174,4.2331 2.4189,2.2174 5.6441,4.2331 3.2252,2.0158 6.652,3.83 3.4268,1.8141 5.6442,2.822 -2.8221,1.2095 -6.0473,2.8221 -3.2253,1.411 -5.8457,3.4268 -1.4111,1.0079 -4.6363,4.2331 -3.0236,3.0236 -3.6284,4.6362 v 25.1971 q 0,1.411 1.8142,3.0236 2.0158,1.411 4.4347,3.0236 3.8299,2.0158 6.652,2.8221 2.8221,0.8063 7.2568,1.2095 v 30.2364 h -15.1183 q -5.0394,-2.6205 -7.0551,-5.8457 -1.8142,-3.4268 -3.0237,-9.2725 -0.6047,5.4425 -2.6205,8.8693 -2.0157,3.4268 -7.4583,6.2489 z"
           style="fill:#ff3f00;fill-opacity:1;stroke-width:2.09975171px"
           id="path7453"
           inkscape:connector-curvature="0" />
        <path
           d="m 1376.3769,1762.8591 v 40.3152 h -10.0788 q -0.2016,0 -1.0079,-1.0079 -0.8063,-1.0079 -1.6126,-1.8142 -7.6599,-7.6599 -22.1734,-7.6599 -4.6362,0 -5.4425,0.4032 -5.4426,0 -11.4899,2.4189 -6.0473,2.4189 -8.6678,7.6599 v 25.197 q 0,2.0158 2.2174,4.2331 2.4189,2.2174 5.6441,4.2331 3.2252,2.0158 6.652,3.83 3.4268,1.8141 5.6442,2.822 -2.8221,1.2095 -6.0473,2.8221 -3.2252,1.411 -5.8457,3.4268 -1.4111,1.0079 -4.6363,4.2331 -3.0236,3.0236 -3.6284,4.6362 v 25.1971 q 0,1.411 1.8142,3.0236 2.0158,1.411 4.4347,3.0236 3.83,2.0158 6.652,2.8221 2.8221,0.8063 7.2568,1.2095 v 30.2364 h -15.1182 q -5.0395,-2.6205 -7.0552,-5.8457 -1.8142,-3.4268 -3.0237,-9.2725 -0.6047,5.4425 -2.6204,8.8693 -2.0158,3.4268 -7.4584,6.2489 h -15.1182 v -30.2364 q 4.4347,0 7.4583,-1.0079 3.2253,-1.0079 6.6521,-3.4268 2.0157,-1.6126 3.2252,-2.6205 1.411,-1.2095 2.822,-3.0236 v -25.1971 q 0,-0.6047 -1.0078,-1.8141 -1.0079,-1.2095 -2.419,-2.419 -1.2094,-1.411 -2.6204,-2.6205 -1.4111,-1.2094 -2.2174,-1.8141 -2.4189,-1.8142 -5.8457,-3.2253 -3.2252,-1.6126 -6.0473,-3.2252 5.0394,-2.0157 8.4662,-4.2331 3.6284,-2.2173 7.4583,-6.0473 l 4.2331,-4.8378 v -25.197 q 0,-2.4189 -2.6205,-4.2331 -2.6204,-1.8142 -6.2488,-3.0237 -3.4268,-1.2094 -7.2568,-1.8141 -3.8299,-0.8063 -6.2488,-1.2095 -10.482,0 -16.3277,2.2173 -5.6441,2.0158 -11.6914,8.0631 h -10.0788 v -40.3152 h 55.4334 q 4.8379,2.4189 6.8536,5.8457 2.0158,3.4268 3.2252,9.2725 0.6048,-5.6442 2.6205,-8.8694 2.2174,-3.4268 7.4584,-6.2488 z"
           style="fill:#ff3f00;fill-opacity:1;stroke-width:2.09975171px"
           id="path7455"
           inkscape:connector-curvature="0" />
        <path
           d="m 1557.8742,1924.12 v -30.2364 q 4.4347,0 7.4583,-1.0079 3.2252,-1.0079 6.652,-3.4268 2.0158,-1.6126 3.2252,-2.6205 1.4111,-1.2095 2.8221,-3.0236 v -25.1971 q 0,-0.6047 -1.0079,-1.8141 -0.8063,-1.4111 -2.2173,-2.8221 -1.2095,-1.411 -2.6205,-2.6205 -1.411,-1.2095 -2.2173,-1.411 h -54.4256 q -0.8063,0 -2.2174,1.2094 -1.2094,1.2095 -2.6204,2.8221 -1.2095,1.411 -2.2174,2.8221 -1.0079,1.411 -1.0079,1.8141 v 25.1971 q 0,1.411 1.8142,3.0236 2.0158,1.411 4.4347,3.0236 3.8299,2.0158 6.652,2.8221 2.8221,0.8063 7.2568,1.2095 v 30.2364 h -15.1183 q -5.0394,-2.6205 -7.0551,-5.8457 -1.8142,-3.4268 -3.0237,-9.2725 -0.6047,5.4425 -2.6205,8.8693 -2.0157,3.4268 -7.4583,6.2489 h -15.1182 v -30.2364 q 4.4347,0 7.4583,-1.0079 3.2253,-1.0079 6.652,-3.4268 2.0158,-1.6126 3.2253,-2.6205 1.411,-1.2095 2.822,-3.0236 v -25.1971 q 0,-0.6047 -1.0079,-1.8141 -1.0078,-1.2095 -2.4189,-2.419 -1.2094,-1.411 -2.6205,-2.6205 -1.411,-1.2094 -2.2173,-1.8141 -2.4189,-1.8142 -5.8457,-3.2253 -3.2252,-1.6126 -6.0473,-3.2252 5.0394,-2.0157 8.4662,-4.2331 3.6284,-2.2173 7.4583,-6.0473 l 4.2331,-4.8378 v -25.197 q 0,-1.8142 -2.2173,-3.4268 -2.2173,-1.8142 -5.4426,-3.0236 -3.0236,-1.4111 -6.4504,-2.419 -3.4268,-1.0078 -6.0473,-1.2094 v -30.2364 h 15.1182 q 5.0394,2.4189 6.8536,6.2488 2.0158,3.83 3.2252,9.2725 0.6048,-5.8457 2.6205,-9.0709 2.0158,-3.4268 7.4583,-6.4504 h 15.1183 v 30.2364 q -5.4426,0 -11.4899,2.4189 -6.0473,2.4189 -8.6678,7.6599 v 25.197 q 0,1.411 3.0237,4.4347 3.2252,3.0236 5.0394,4.2331 h 54.4256 q 1.0078,0 2.2173,-1.0079 1.2094,-1.2094 2.4189,-2.6205 1.2095,-1.6126 2.0158,-3.0236 1.0078,-1.4111 1.411,-2.0158 v -25.197 q 0,-1.8142 -2.2173,-3.4268 -2.2174,-1.8142 -5.4426,-3.0236 -3.0236,-1.4111 -6.4504,-2.419 -3.4268,-1.0078 -6.0473,-1.2094 v -30.2364 h 15.1182 q 5.0394,2.4189 6.8536,6.2488 2.0157,3.83 3.2252,9.2725 0.6047,-5.8457 2.6205,-9.0709 2.0158,-3.4268 7.4583,-6.4504 h 15.1182 v 30.2364 q -5.4425,0 -11.4898,2.4189 -6.0473,2.4189 -8.6678,7.6599 v 25.197 q 0,2.0158 2.2173,4.2331 2.419,2.2174 5.6442,4.2331 3.2252,2.0158 6.652,3.83 3.4268,1.8141 5.6441,2.822 -2.822,1.2095 -6.0473,2.8221 -3.2252,1.411 -5.8457,3.4268 -1.411,1.0079 -4.6362,4.2331 -3.0237,3.0236 -3.6284,4.6362 v 25.1971 q 0,1.411 1.8142,3.0236 2.0158,1.411 4.4347,3.0236 3.8299,2.0158 6.652,2.8221 2.822,0.8063 7.2567,1.2095 V 1924.12 H 1593.15 q -5.0394,-2.6205 -7.0552,-5.8457 -1.8141,-3.4268 -3.0236,-9.2725 -0.6047,5.4425 -2.6205,8.8693 -2.0157,3.4268 -7.4583,6.2489 z"
           style="fill:#ff3f00;fill-opacity:1;stroke-width:2.09975171px"
           id="path7457"
           inkscape:connector-curvature="0" />
        <path
           d="m 1718.1902,1762.8591 v 40.3152 h -10.0788 q -1.411,-1.6126 -4.8378,-4.6363 -3.2252,-3.0236 -7.0552,-4.4346 -1.411,-0.4032 -3.4268,-0.6048 -2.0157,-0.2015 -4.8378,-0.4031 h -20.1576 q -6.2489,0 -11.893,2.2173 -5.4425,2.2174 -8.2646,7.8615 v 25.197 q 0,0.6047 1.0079,1.8142 1.0078,1.2095 2.4189,2.6205 1.411,1.411 2.6205,2.6205 1.411,1.2094 2.0157,1.6126 h 27.2128 q 2.8221,0 3.6284,-3.6284 1.0079,-3.6284 1.411,-5.0394 h 10.0788 v 30.2364 h -10.0788 q 0,-1.6126 -1.411,-4.6362 -1.2095,-3.0237 -3.6284,-4.0315 h -27.2128 q -1.6126,0.8063 -4.6362,4.0315 -3.0237,3.2252 -3.4268,4.6362 v 25.1971 q 0,0.8063 2.4189,2.822 2.4189,2.0158 3.4268,3.0237 2.8221,1.8142 6.2489,2.822 3.4268,1.0079 8.063,1.4111 h 20.1576 q 13.5056,0 20.1576,-10.0788 h 10.0788 v 40.3152 h -65.5122 q -5.0394,-2.6205 -7.0552,-5.8457 -1.8142,-3.4268 -3.0236,-9.2725 -0.6047,5.4425 -2.6205,8.8693 -2.0158,3.4268 -7.4583,6.2489 h -15.1182 v -30.2364 q 4.4346,0 7.4583,-1.0079 3.2252,-1.0079 6.652,-3.4268 2.0158,-1.6126 3.2252,-2.6205 1.411,-1.2095 2.8221,-3.0236 v -25.1971 q 0,-1.2094 -1.6126,-3.0236 -1.4111,-1.8142 -3.6284,-3.4268 -2.2173,-1.8142 -4.6363,-3.2252 -2.4189,-1.6126 -4.2331,-2.4189 -5.2409,-2.4189 -5.0394,-2.6205 0.2016,-0.4032 5.241,-3.2252 4.6363,-2.0158 7.6599,-5.241 3.0237,-3.4268 6.2489,-7.0552 v -25.197 q 0,-1.8142 -2.2174,-3.4268 -2.2173,-1.8142 -5.4425,-3.0236 -3.0237,-1.4111 -6.4505,-2.419 -3.4267,-1.0078 -6.0472,-1.2094 v -30.2364 h 15.3197 q 5.6442,2.822 7.2568,6.652 1.8142,3.8299 2.6205,8.8693 0.6047,-5.8457 2.6205,-9.0709 2.0157,-3.4268 7.4583,-6.4504 z"
           style="fill:#ff3f00;fill-opacity:1;stroke-width:2.09975171px"
           id="path7459"
           inkscape:connector-curvature="0" />
        <path
           d="m 1792.7577,1762.8591 q 13.7072,0 24.5923,10.2803 10.6835,10.0789 10.6835,30.0349 0,24.7939 -6.652,31.849 -6.652,6.652 -13.5056,8.4662 4.0315,0.6048 12.0946,5.4426 7.8614,4.2331 8.063,29.8333 0,5.2409 3.0237,8.2646 3.0236,2.822 7.6598,5.6441 1.2095,0.6047 4.2331,1.411 3.2253,0.6048 5.241,-0.2015 v 30.2364 h -15.1182 q -5.0394,-2.6205 -7.0552,-5.8457 -1.8141,-3.4268 -3.0236,-9.2725 -0.6047,5.4425 -2.6205,8.8693 -2.0157,3.4268 -7.4583,6.2489 h -15.1182 v -30.2364 q 10.4819,1.411 15.1182,-4.8379 4.8378,-6.2488 4.8378,-15.3197 0,-9.071 -5.241,-15.5214 -5.0394,-6.652 -13.7071,-8.2646 h -33.2601 q -1.6126,0.8063 -4.6363,4.0315 -3.0236,3.2252 -3.4268,4.6362 v 25.1971 q 0,0.8063 2.419,2.822 2.4189,2.0158 3.4268,3.0237 2.822,1.8142 6.2488,2.822 3.4268,1.0079 8.0631,1.4111 v 30.2364 h -15.1182 q -5.0395,-2.6205 -7.0552,-5.8457 -1.8142,-3.4268 -3.0237,-9.2725 -0.6047,5.4425 -2.6204,8.8693 -2.0158,3.4268 -7.4584,6.2489 h -15.1182 v -30.2364 q 4.4347,0 7.4583,-1.0079 3.2253,-1.0079 6.6521,-3.4268 2.0157,-1.6126 3.2252,-2.6205 1.411,-1.2095 2.822,-3.0236 v -25.1971 q 0,-1.2094 -1.6126,-3.0236 -1.411,-1.8142 -3.6283,-3.4268 -2.2174,-1.8142 -4.6363,-3.2252 -2.4189,-1.6126 -4.2331,-2.4189 -5.241,-2.4189 -5.0394,-2.6205 0.2016,-0.4032 5.241,-3.2252 4.6362,-2.0158 7.6599,-5.241 3.0236,-3.4268 6.2488,-7.0552 v -25.197 q 0,-1.8142 -2.2173,-3.4268 -2.2173,-1.8142 -5.4426,-3.0236 -3.0236,-1.4111 -6.4504,-2.419 -3.4268,-1.0078 -6.0473,-1.2094 v -30.2364 h 15.1182 q 4.8379,2.4189 6.8536,5.8457 2.0158,3.4268 3.2252,9.2725 1.0079,-9.4741 5.8458,-12.2962 4.8378,-2.822 13.1024,-2.822 2.2173,0 5.0394,0 3.0237,0 6.4504,-0.2016 h 7.2568 q 2.4189,0 2.6205,0.2016 z m 6.0473,74.18 q 3.8299,0 11.4898,-5.4426 7.2567,-5.2409 7.6599,-18.3434 0,-9.0709 -3.2252,-13.1025 -3.0237,-4.2331 -11.893,-7.0551 h -25.197 q -5.6442,0 -11.6915,2.4189 -5.8457,2.4189 -8.4662,7.6599 v 25.197 q 0,0.6047 1.0079,1.8142 1.0079,1.2095 2.4189,2.6205 1.4111,1.411 2.6205,2.6205 1.4111,1.2094 2.0158,1.6126 z"
           style="fill:#ff3f00;fill-opacity:1;stroke-width:2.09975171px"
           id="path7461"
           inkscape:connector-curvature="0" />
        <path
           d="m 1957.9556,1762.8591 v 40.3152 h -10.0788 q -1.411,-1.6126 -4.8378,-4.6363 -3.2252,-3.0236 -7.0552,-4.4346 -1.411,-0.4032 -3.4268,-0.6048 -2.0157,-0.2015 -4.8378,-0.4031 h -20.1576 q -6.2489,0 -11.893,2.2173 -5.4426,2.2174 -8.2646,7.8615 v 25.197 q 0,0.6047 1.0078,1.8142 1.0079,1.2095 2.419,2.6205 1.411,1.411 2.6205,2.6205 1.411,1.2094 2.0157,1.6126 h 27.2128 q 2.8221,0 3.6284,-3.6284 1.0078,-3.6284 1.411,-5.0394 h 10.0788 v 30.2364 h -10.0788 q 0,-1.6126 -1.411,-4.6362 -1.2095,-3.0237 -3.6284,-4.0315 h -27.2128 q -1.6126,0.8063 -4.6362,4.0315 -3.0237,3.2252 -3.4268,4.6362 v 25.1971 q 0,0.8063 2.4189,2.822 2.4189,2.0158 3.4268,3.0237 2.822,1.8142 6.2488,2.822 3.4268,1.0079 8.0631,1.4111 h 20.1576 q 13.5056,0 20.1576,-10.0788 h 10.0788 v 40.3152 h -65.5122 q -5.0394,-2.6205 -7.0552,-5.8457 -1.8142,-3.4268 -3.0236,-9.2725 -0.6048,5.4425 -2.6205,8.8693 -2.0158,3.4268 -7.4583,6.2489 h -15.1183 v -30.2364 q 4.4347,0 7.4584,-1.0079 3.2252,-1.0079 6.652,-3.4268 2.0157,-1.6126 3.2252,-2.6205 1.411,-1.2095 2.8221,-3.0236 v -25.1971 q 0,-1.2094 -1.6127,-3.0236 -1.411,-1.8142 -3.6283,-3.4268 -2.2174,-1.8142 -4.6363,-3.2252 -2.4189,-1.6126 -4.2331,-2.4189 -5.241,-2.4189 -5.0394,-2.6205 0.2016,-0.4032 5.241,-3.2252 4.6363,-2.0158 7.6599,-5.241 3.0236,-3.4268 6.2489,-7.0552 v -25.197 q 0,-1.8142 -2.2174,-3.4268 -2.2173,-1.8142 -5.4425,-3.0236 -3.0237,-1.4111 -6.4505,-2.419 -3.4268,-1.0078 -6.0473,-1.2094 v -30.2364 h 15.3198 q 5.6442,2.822 7.2568,6.652 1.8142,3.8299 2.6205,8.8693 0.6047,-5.8457 2.6205,-9.0709 2.0157,-3.4268 7.4583,-6.4504 z"
           style="fill:#ff3f00;fill-opacity:1;stroke-width:2.09975171px"
           id="path7463"
           inkscape:connector-curvature="0" />
        <path
           d="m 2003.389,1873.726 -15.1182,-80.6305 v -30.2364 h 30.2364 v 30.2364 z m 15.1182,20.1576 v 30.2364 h -30.2364 v -30.2364 z"
           style="fill:#ff3f00;fill-opacity:1;stroke-width:2.09975171px"
           id="path7465"
           inkscape:connector-curvature="0" />
      </g>
    </g>
    <path
       style="fill:none;fill-rule:evenodd;stroke:#0000ee;stroke-width:0.48;stroke-linecap:butt;stroke-linejoin:miter;stroke-opacity:0.67632848;stroke-miterlimit:4;stroke-dasharray:none"
       d="m 148.36415,-1119.9536 58.17924,-5.8322"
       id="path826"
       inkscape:connector-curvature="0" />
    <path
       style="opacity:0.41100003;fill:#fb0000;fill-opacity:1;stroke:#0000ee;stroke-width:0.47999999;stroke-miterlimit:4;stroke-dasharray:none;stroke-opacity:0.67632847"
       d="m 247.51067,-1125.928 36.27311,7.5391"
       id="path828"
       inkscape:connector-curvature="0" />
    <path
       style="opacity:0.41100003;fill:#fb0000;fill-opacity:1;stroke:#0000ee;stroke-width:0.47999999;stroke-miterlimit:4;stroke-dasharray:none;stroke-opacity:0.67632847"
       d="m 342.8165,-1078.1329 -9.24609,36.5577"
       id="path830"
       inkscape:connector-curvature="0" />
    <path
       style="opacity:0.41100003;fill:#fb0000;fill-opacity:1;stroke:#0000ee;stroke-width:0.47999999;stroke-miterlimit:4;stroke-dasharray:none;stroke-opacity:0.67632847"
       d="m 341.25178,-1117.9622 21.76387,-7.5391"
       id="path832"
       inkscape:connector-curvature="0" />
    <path
       style="opacity:0.41100003;fill:#fb0000;fill-opacity:1;stroke:#0000ee;stroke-width:0.47999999;stroke-miterlimit:4;stroke-dasharray:none;stroke-opacity:0.67632847"
       d="m 404.26743,-1125.359 25.4623,-0.2845"
       id="path834"
       inkscape:connector-curvature="0" />
    <path
       style="opacity:0.41100003;fill:#fb0000;fill-opacity:1;stroke:#0000ee;stroke-width:0.47999999;stroke-miterlimit:4;stroke-dasharray:none;stroke-opacity:0.67632847"
       d="m 470.69701,-1125.6435 h 8.25036"
       id="path836"
       inkscape:connector-curvature="0" />
    <path
       style="opacity:0.41100003;fill:#fb0000;fill-opacity:1;stroke:#0000ee;stroke-width:0.47999999;stroke-miterlimit:4;stroke-dasharray:none;stroke-opacity:0.67632847"
       d="m 586.34424,-1125.6435 h 83.92603"
       id="path838"
       inkscape:connector-curvature="0" />
    <path
       style="opacity:0.41100003;fill:#fb0000;fill-opacity:1;stroke:#0000ee;stroke-width:0.47999999;stroke-miterlimit:4;stroke-dasharray:none;stroke-opacity:0.67632847"
       d="M 711.52205,-1125.6435 H 737.1266"
       id="path840"
       inkscape:connector-curvature="0" />
    <path
       style="opacity:0.41100003;fill:#fb0000;fill-opacity:1;stroke:#0000ee;stroke-width:0.47999999;stroke-miterlimit:4;stroke-dasharray:none;stroke-opacity:0.67632847"
       d="m 778.23613,-1125.7858 h 7.53912"
       id="path842"
       inkscape:connector-curvature="0" />
    <path
       style="opacity:0.41100003;fill:#fb0000;fill-opacity:1;stroke:#0000ee;stroke-width:0.47999999;stroke-miterlimit:4;stroke-dasharray:none;stroke-opacity:0.67632847"
       d="m 856.61451,-1078.4174 -24.03983,30.5833"
       id="path844"
       inkscape:connector-curvature="0" />
    <path
       style="opacity:0.41100003;fill:#fb0000;fill-opacity:1;stroke:#0000ee;stroke-width:0.47999999;stroke-miterlimit:4;stroke-dasharray:none;stroke-opacity:0.67632847"
       d="m 868.8478,-1125.5013 h 8.1081"
       id="path846"
       inkscape:connector-curvature="0" />
    <path
       style="opacity:0.41100003;fill:#fb0000;fill-opacity:1;stroke:#0000ee;stroke-width:0.47999999;stroke-miterlimit:4;stroke-dasharray:none;stroke-opacity:0.67632847"
       d="m 947.36842,-1114.6905 36.55761,-10.8108"
       id="path848"
       inkscape:connector-curvature="0" />
    <path
       style="opacity:0.41100003;fill:#fb0000;fill-opacity:1;stroke:#0000ee;stroke-width:0.47999999;stroke-miterlimit:4;stroke-dasharray:none;stroke-opacity:0.67632847"
       d="m 1054.7653,-1078.2751 -24.7511,30.5832"
       id="path850"
       inkscape:connector-curvature="0" />
    <path
       style="opacity:0.41100003;fill:#fb0000;fill-opacity:1;stroke:#0000ee;stroke-width:0.47999999;stroke-miterlimit:4;stroke-dasharray:none;stroke-opacity:0.67632847"
       d="m 1066.9986,-1125.6435 25.7468,-0.2845"
       id="path852"
       inkscape:connector-curvature="0" />
    <path
       style="opacity:0.41100003;fill:#fb0000;fill-opacity:1;stroke:#0000ee;stroke-width:0.47999999;stroke-miterlimit:4;stroke-dasharray:none;stroke-opacity:0.67632847"
       d="m 1071.266,-995.34481 5.6899,25.60455"
       id="path854"
       inkscape:connector-curvature="0" />
    <path
       style="opacity:0.41100003;fill:#fb0000;fill-opacity:1;stroke:#0000ee;stroke-width:0.47999999;stroke-miterlimit:4;stroke-dasharray:none;stroke-opacity:0.67632847"
       d="m 1043.3855,-934.60512 -25.3201,0.28449"
       id="path856"
       inkscape:connector-curvature="0" />
    <path
       style="opacity:0.41100003;fill:#fb0000;fill-opacity:1;stroke:#0000ee;stroke-width:0.47999999;stroke-miterlimit:4;stroke-dasharray:none;stroke-opacity:0.67632847"
       d="m 1030.0142,-981.97354 -8.8193,-30.44096"
       id="path858"
       inkscape:connector-curvature="0" />
    <path
       style="opacity:0.41100003;fill:#fb0000;fill-opacity:1;stroke:#0000ee;stroke-width:0.47999999;stroke-miterlimit:4;stroke-dasharray:none;stroke-opacity:0.67632847"
       d="m 935.13514,-934.60512 -8.10811,0.14225"
       id="path860"
       inkscape:connector-curvature="0" />
    <path
       style="opacity:0.41100003;fill:#fb0000;fill-opacity:1;stroke:#0000ee;stroke-width:0.47999999;stroke-miterlimit:4;stroke-dasharray:none;stroke-opacity:0.67632847"
       d="M 886.20199,-934.60512 H 868.8478"
       id="path862"
       inkscape:connector-curvature="0" />
    <path
       style="opacity:0.41100003;fill:#fb0000;fill-opacity:1;stroke:#0000ee;stroke-width:0.47999999;stroke-miterlimit:4;stroke-dasharray:none;stroke-opacity:0.67632847"
       d="m 828.16501,-934.88962 -8.53485,0.42675"
       id="path864"
       inkscape:connector-curvature="0" />
    <path
       style="opacity:0.41100003;fill:#fb0000;fill-opacity:1;stroke:#0000ee;stroke-width:0.47999999;stroke-miterlimit:4;stroke-dasharray:none;stroke-opacity:0.67632847"
       d="m 831.86344,-981.83129 -8.6771,-30.72551"
       id="path866"
       inkscape:connector-curvature="0" />
    <path
       style="opacity:0.41100003;fill:#fb0000;fill-opacity:1;stroke:#0000ee;stroke-width:0.47999999;stroke-miterlimit:4;stroke-dasharray:none;stroke-opacity:0.67632847"
       d="m 737.26885,-934.32063 h -7.96586"
       id="path868"
       inkscape:connector-curvature="0" />
    <path
       style="opacity:0.41100003;fill:#fb0000;fill-opacity:1;stroke:#0000ee;stroke-width:0.47999999;stroke-miterlimit:4;stroke-dasharray:none;stroke-opacity:0.67632847"
       d="m 687.90896,-934.32063 h -25.4623"
       id="path870"
       inkscape:connector-curvature="0" />
    <path
       style="opacity:0.41100003;fill:#fb0000;fill-opacity:1;stroke:#0000ee;stroke-width:0.47999999;stroke-miterlimit:4;stroke-dasharray:none;stroke-opacity:0.67632847"
       d="m 621.19488,-934.32063 -116.78521,-0.28449"
       id="path872"
       inkscape:connector-curvature="0" />
    <path
       style="opacity:0.41100003;fill:#fb0000;fill-opacity:1;stroke:#0000ee;stroke-width:0.47999999;stroke-miterlimit:4;stroke-dasharray:none;stroke-opacity:0.67632847"
       d="M 463.15789,-934.60512 H 421.62162"
       id="path874"
       inkscape:connector-curvature="0" />
    <path
       style="opacity:0.41100003;fill:#fb0000;fill-opacity:1;stroke:#0000ee;stroke-width:0.47999999;stroke-miterlimit:4;stroke-dasharray:none;stroke-opacity:0.67632847"
       d="m 380.79659,-934.17838 -25.88905,-0.14225"
       id="path876"
       inkscape:connector-curvature="0" />
    <path
       style="opacity:0.41100003;fill:#fb0000;fill-opacity:1;stroke:#0000ee;stroke-width:0.47999999;stroke-miterlimit:4;stroke-dasharray:none;stroke-opacity:0.67632847"
       d="m 314.0825,-934.32063 -22.04836,-5.54765"
       id="path878"
       inkscape:connector-curvature="0" />
    <path
       style="opacity:0.41100003;fill:#fb0000;fill-opacity:1;stroke:#0000ee;stroke-width:0.47999999;stroke-miterlimit:4;stroke-dasharray:none;stroke-opacity:0.67632847"
       d="m 237.55334,-942.00199 -38.97582,7.53912"
       id="path880"
       inkscape:connector-curvature="0" />
    <path
       style="opacity:0.41100003;fill:#fb0000;fill-opacity:1;stroke:#0000ee;stroke-width:0.47999999;stroke-miterlimit:4;stroke-dasharray:none;stroke-opacity:0.67632847"
       d="m 157.75249,-934.46287 -25.7468,0.14224"
       id="path882"
       inkscape:connector-curvature="0" />
    <path
       style="opacity:0.41100003;fill:#fb0000;fill-opacity:1;stroke:#0000ee;stroke-width:0.47999999;stroke-miterlimit:4;stroke-dasharray:none;stroke-opacity:0.67632847"
       d="m 90.896159,-934.46287 -17.069701,-0.42675"
       id="path884"
       inkscape:connector-curvature="0" />
  </g>
</svg>
