<?xml version="1.0" encoding="UTF-8" standalone="no"?>
<!-- Created with Inkscape (http://www.inkscape.org/) -->

<svg
   xmlns:dc="http://purl.org/dc/elements/1.1/"
   xmlns:cc="http://creativecommons.org/ns#"
   xmlns:rdf="http://www.w3.org/1999/02/22-rdf-syntax-ns#"
   xmlns:svg="http://www.w3.org/2000/svg"
   xmlns="http://www.w3.org/2000/svg"
   xmlns:sodipodi="http://sodipodi.sourceforge.net/DTD/sodipodi-0.dtd"
   xmlns:inkscape="http://www.inkscape.org/namespaces/inkscape"
   width="12in"
   height="24in"
   viewBox="0 0 1152 2304"
   version="1.1"
   id="svg2815"
   inkscape:version="0.92.3 (2405546, 2018-03-11)"
   sodipodi:docname="12x24 Sheet Calculator - Purple (Doctor) - Single w Weed Lines.svg">
  <defs
     id="defs2809" />
  <sodipodi:namedview
     id="base"
     pagecolor="#1f1f1f"
     bordercolor="#666666"
     borderopacity="1.0"
     inkscape:pageopacity="0"
     inkscape:pageshadow="2"
     inkscape:zoom="3.12"
     inkscape:cx="262.9769"
     inkscape:cy="2114.9413"
     inkscape:document-units="in"
     inkscape:current-layer="layer1"
     showgrid="true"
     inkscape:snap-global="false"
     showguides="true"
     units="in"
     gridtolerance="10"
     inkscape:window-width="1920"
     inkscape:window-height="1017"
     inkscape:window-x="-8"
     inkscape:window-y="-8"
     inkscape:window-maximized="1"
     inkscape:guide-bbox="true">
    <inkscape:grid
       type="xygrid"
       id="grid3368" />
    <sodipodi:guide
       position="-820.06909,1154.5923"
       orientation="0,1"
       id="guide9322"
       inkscape:locked="false" />
  </sodipodi:namedview>
  <metadata
     id="metadata2812">
    <rdf:RDF>
      <cc:Work
         rdf:about="">
        <dc:format>image/svg+xml</dc:format>
        <dc:type
           rdf:resource="http://purl.org/dc/dcmitype/StillImage" />
        <dc:title />
      </cc:Work>
    </rdf:RDF>
  </metadata>
  <g
     inkscape:label="Layer 1"
     inkscape:groupmode="layer"
     id="layer1"
     transform="translate(0,1159.8)">
    <g
       id="g4582">
      <g
         style="fill:none;fill-opacity:1;stroke:#b100a8;stroke-opacity:1;stroke-width:0.48;stroke-miterlimit:4;stroke-dasharray:none"
         id="g1895"
         transform="translate(-596.21225,-1073.5306)" />
      <g
         id="text1955-0"
         style="font-style:normal;font-variant:normal;font-weight:normal;font-stretch:normal;font-size:156.70088196px;line-height:125%;font-family:'Harry Potter';-inkscape-font-specification:'Harry Potter';font-variant-ligatures:normal;font-variant-caps:normal;font-variant-numeric:normal;font-feature-settings:normal;text-align:start;letter-spacing:0px;word-spacing:0px;writing-mode:lr-tb;text-anchor:start;fill:none;fill-opacity:1;stroke:#b100a8;stroke-width:0.48;stroke-linecap:butt;stroke-linejoin:miter;stroke-opacity:1;stroke-miterlimit:4;stroke-dasharray:none"
         transform="matrix(0.82084351,0.41275848,-0.71125083,0.86060884,0,0)"
         aria-label="\" />
      <path
         style="opacity:1;fill:none;fill-opacity:1;stroke:#b100a8;stroke-width:0.47999999;stroke-miterlimit:4;stroke-dasharray:none;stroke-opacity:1"
         d="m 358.44278,-1004.2053 -4.82781,3.8793"
         id="path852"
         inkscape:connector-curvature="0"
         sodipodi:nodetypes="cc" />
      <path
         style="opacity:1;fill:none;fill-opacity:1;stroke:#b100a8;stroke-width:0.47999999;stroke-miterlimit:4;stroke-dasharray:none;stroke-opacity:1"
         d="m 225.37436,-1011.1472 c -1.77116,0 -3.01028,0.091 -3.71875,0.2715 l -19.83789,11.94145 c -1.65309,6.9654 -2.48047,13.6151 -2.48047,19.9473 0,4.4325 0.47334,8.3672 1.41797,11.8047 l 17.88867,11.9394 9.03321,-0.1347 15.93945,-12.3477 -7.79297,-7.5996 -0.70898,5.4277 c -0.11808,0.9046 -0.17578,1.4018 -0.17578,1.4922 -0.35424,1.4474 -1.83002,3.1662 -4.42774,5.1563 l -5.49023,4.207 c -3.07003,-1.2664 -5.07882,-2.6692 -6.02344,-4.207 l -1.77148,-26.8653 2.48046,-15.46875 c 0.47231,-0.6332 0.94371,-0.9512 1.41602,-0.9512 5.66774,3.9802 9.26968,6.73955 10.80469,8.27745 0.35423,2.4424 -0.59051,5.1574 -2.83399,8.1425 l 16.29493,-8.414 -2.30274,-5.01965 -14.3457,-7.1914 c -0.59039,-0.2713 -1.71214,-0.4082 -3.36524,-0.4082 z"
         id="path850" />
      <path
         style="opacity:1;fill:none;fill-opacity:1;stroke:#b100a8;stroke-width:0.47999999;stroke-miterlimit:4;stroke-dasharray:none;stroke-opacity:1"
         d="m 310.32075,-1005.9911 c 2.2435,4.342 3.36524,18.31975 3.36524,41.92975 -1.2989,1.8092 -3.71942,3.1194 -7.26172,3.9336 -2.3616,-0.8142 -3.9567,-2.1244 -4.7832,-3.9336 l -0.88477,-35.6875 c 0.5904,-1.26655 1.88919,-2.48815 3.89649,-3.66415 z"
         id="path848" />
      <path
         style="opacity:1;fill:none;fill-opacity:1;stroke:#b100a8;stroke-width:0.47999999;stroke-miterlimit:4;stroke-dasharray:none;stroke-opacity:1"
         d="m 311.20552,-1011.4188 c -8.7377,2.352 -17.18072,5.7896 -25.32812,10.3125 -1.2988,16.73515 -1.82995,27.22885 -1.59376,31.48045 0.70841,1.9901 7.02538,6.5125 18.95118,13.5684 l 3.18945,0.4082 c 3.7785,-0.3619 8.61954,-1.7184 14.52344,-4.0703 7.0847,-2.8043 10.33053,-5.338 9.74023,-7.5996 -0.3543,-12.4834 -0.64866,-20.3085 -0.88476,-23.4746 -0.4723,-6.2417 -2.00777,-10.31135 -4.60547,-12.21105 l -1.41602,-1.7636 z"
         id="path846" />
      <path
         style="opacity:1;fill:none;fill-opacity:1;stroke:#b100a8;stroke-width:0.47999999;stroke-miterlimit:4;stroke-dasharray:none;stroke-opacity:1"
         d="m 175.40669,-1005.9911 c 2.24347,4.342 3.36524,18.31975 3.36524,41.92975 -1.29886,1.8092 -3.71938,3.1194 -7.26172,3.9336 -2.36156,-0.8142 -3.9547,-2.1244 -4.78125,-3.9336 l -0.88672,-35.6875 c 0.59039,-1.26655 1.88916,-2.48815 3.89648,-3.66415 z"
         id="path844" />
      <path
         style="opacity:1;fill:none;fill-opacity:1;stroke:#b100a8;stroke-width:0.47999999;stroke-miterlimit:4;stroke-dasharray:none;stroke-opacity:1"
         d="m 176.29341,-1011.4188 c -8.73775,2.352 -17.18075,5.7896 -25.32812,10.3125 -1.29886,16.73515 -1.82991,27.22885 -1.59375,31.48045 0.70847,1.9901 7.02531,6.5125 18.95117,13.5684 l 3.1875,0.4082 c 3.77849,-0.3619 8.61955,-1.7184 14.52343,-4.0703 7.08467,-2.8043 10.33258,-5.338 9.74219,-7.5996 -0.35423,-12.4834 -0.65056,-20.3085 -0.88672,-23.4746 -0.47231,-6.2417 -2.00579,-10.31135 -4.60351,-12.21105 l -1.41797,-1.7636 z"
         id="path842" />
      <path
         style="opacity:1;fill:none;fill-opacity:1;stroke:#b100a8;stroke-width:0.47999999;stroke-miterlimit:4;stroke-dasharray:none;stroke-opacity:1"
         d="m 353.38026,-1033.1276 c -7.6751,4.7039 -14.5249,8.6386 -20.5469,11.8046 l 9.2109,-0.2714 -0.3535,45.32035 c 0,1.4473 -0.2367,2.351 -0.709,2.7129 -0.5904,0.6332 -2.4202,1.4483 -5.4902,2.4433 1.0627,0 2.6558,-0.046 4.7812,-0.1367 2.2435,-0.091 3.8963,-0.1348 4.959,-0.1348 1.6531,0 4.1333,0.044 7.4395,0.1348 3.4242,0.09 5.9621,0.1367 7.6152,0.1367 -3.4242,-0.6332 -5.2541,-2.3963 -5.4902,-5.291 -1.0627,-13.1166 -1.3571,-26.41605 -0.8848,-39.89455 1.0627,-1.0855 1.9478,-1.6732 2.6563,-1.7637 0.8265,-0.1809 2.0079,0.9964 3.5429,3.5293 1.1808,1.9901 2.0062,3.6626 2.4785,5.0195 -0.3542,1.5378 -1.7703,3.2123 -4.25,5.0215 v 0.541 l 16.295,-7.3261 c 1.1807,-0.2714 1.7715,-0.8591 1.7715,-1.7637 0,-0.8141 -0.4734,-1.6292 -1.418,-2.4434 l -8.3242,-11.1269 c -0.2362,-0.2714 -0.6499,-0.4063 -1.2403,-0.4063 -1.8892,0 -5.9029,2.0348 -12.0429,6.1055 z"
         id="path840" />
      <path
         style="opacity:1;fill:none;fill-opacity:1;stroke:#b100a8;stroke-width:0.47999999;stroke-miterlimit:4;stroke-dasharray:none;stroke-opacity:1"
         d="m 270.43886,-1036.2487 c -10.15474,10.6742 -20.30824,18.1813 -30.46293,22.5234 h 14.87695 l -0.88477,57.39845 c 0.35423,2.2615 3.36547,4.2057 9.03321,5.834 l 14.52344,4.0703 c -5.6677,-3.7088 -8.502,-6.3776 -8.502,-8.0058 0,-0.3619 0.1174,-0.7241 0.3536,-1.086 l 1.5937,-57.66795 h 9.9199 l -1.5957,-5.834 h -9.209 z"
         id="path838" />
      <path
         style="opacity:1;fill:none;fill-opacity:1;stroke:#b100a8;stroke-width:0.47999999;stroke-miterlimit:4;stroke-dasharray:none;stroke-opacity:1"
         d="m 94.406696,-1030.4149 c 5.903894,2.2615 10.331254,3.936 13.283204,5.0215 5.3135,2.2615 8.56141,4.9302 9.74219,8.0058 l 0.35351,56.03915 c -0.70847,1.5378 -2.65565,3.3914 -5.84375,5.5625 -2.71579,1.8091 -5.25564,3.2119 -7.61718,4.207 -5.313515,-1.2665 -9.327184,-2.623 -12.042974,-4.0703 -0.11808,-0.3619 -0.237389,-0.6779 -0.355469,-0.9492 l -0.707031,-60.24615 c 0.70846,-1.4474 1.23951,-3.7096 1.59375,-6.7852 0.35423,-3.0756 0.88527,-5.3377 1.59375,-6.7851 z"
         id="path836" />
      <path
         style="opacity:1;fill:none;fill-opacity:1;stroke:#b100a8;stroke-width:0.47999999;stroke-miterlimit:4;stroke-dasharray:none;stroke-opacity:1"
         d="m 65.535602,-1038.6923 c 3.89657,1.3569 6.082378,3.6191 6.554688,6.7852 l 0.884765,79.92195 c 0,3.8898 -3.245944,6.6027 -9.740234,8.1406 l 40.205079,0.2715 c -0.11807,0 -0.2951,-0.044 -0.53125,-0.1348 l 1.41602,0.1348 5.31445,-0.6778 c 5.3135,-3.347 10.44893,-6.694 15.4082,-10.041 8.97392,-6.0608 13.99198,-10.8567 15.05468,-14.3847 0.35424,-6.2417 0.53125,-10.9453 0.53125,-14.1114 0,-11.5788 -0.47138,-23.92625 -1.41601,-37.04295 -13.8151,-8.0509 -28.16124,-14.2016 -43.03906,-18.4532 h -1.771484 c 0.23615,-0.1809 0.472834,-0.3177 0.708984,-0.4082 z"
         id="path834" />
      <path
         style="opacity:1;fill:none;fill-opacity:1;stroke:#b100a8;stroke-width:0.47999999;stroke-miterlimit:4;stroke-dasharray:none;stroke-opacity:1"
         d="m 140.27095,-988.96965 h 10.13133"
         id="path832" />
      <path
         style="opacity:1;fill:none;fill-opacity:1;stroke:#b100a8;stroke-width:0.47999999;stroke-miterlimit:4;stroke-dasharray:none;stroke-opacity:1"
         d="m 195.43043,-980.52685 h 3.75234"
         id="path830" />
      <path
         style="opacity:1;fill:none;fill-opacity:1;stroke:#b100a8;stroke-width:0.47999999;stroke-miterlimit:4;stroke-dasharray:none;stroke-opacity:1"
         d="m 240.17714,-1013.7351 -11.83815,2.8453"
         id="path828"
         inkscape:connector-curvature="0"
         sodipodi:nodetypes="cc" />
      <path
         style="opacity:1;fill:none;fill-opacity:1;stroke:#b100a8;stroke-width:0.47999999;stroke-miterlimit:4;stroke-dasharray:none;stroke-opacity:1"
         d="m 245.24281,-998.53813 -1.68855,30.58165 10.50656,11.91367"
         id="path826" />
      <path
         style="opacity:1;fill:none;fill-opacity:1;stroke:#b100a8;stroke-width:0.47999999;stroke-miterlimit:4;stroke-dasharray:none;stroke-opacity:1"
         d="m 280.89009,-1013.0784 4.97186,12.1012"
         id="path824" />
      <path
         style="opacity:1;fill:none;fill-opacity:1;stroke:#b100a8;stroke-width:0.47999999;stroke-miterlimit:4;stroke-dasharray:none;stroke-opacity:1"
         d="m 277.23155,-946.56815 7.03565,-22.88922"
         id="path822" />
      <path
         style="opacity:1;fill:none;fill-opacity:1;stroke:#b100a8;stroke-width:0.47999999;stroke-miterlimit:4;stroke-dasharray:none;stroke-opacity:1"
         d="m 336.51861,-971.14595 h -6.19137"
         id="path820" />
      <path
         style="opacity:1;fill:none;fill-opacity:1;stroke:#b100a8;stroke-width:0.47999999;stroke-miterlimit:4;stroke-dasharray:none;stroke-opacity:1"
         d="m 333.70435,-1021.6151 -22.42027,10.2251"
         id="path4560" />
    </g>
  </g>
</svg>
