<?xml version="1.0" encoding="UTF-8" standalone="no"?>
<!-- Created with Inkscape (http://www.inkscape.org/) -->

<svg
   xmlns:dc="http://purl.org/dc/elements/1.1/"
   xmlns:cc="http://creativecommons.org/ns#"
   xmlns:rdf="http://www.w3.org/1999/02/22-rdf-syntax-ns#"
   xmlns:svg="http://www.w3.org/2000/svg"
   xmlns="http://www.w3.org/2000/svg"
   xmlns:sodipodi="http://sodipodi.sourceforge.net/DTD/sodipodi-0.dtd"
   xmlns:inkscape="http://www.inkscape.org/namespaces/inkscape"
   width="12in"
   height="24in"
   viewBox="0 0 1152 2304"
   version="1.1"
   id="svg2815"
   inkscape:version="0.92.3 (2405546, 2018-03-11)"
   sodipodi:docname="12x24 Sheet Calculator - Purple (Doctor Wizard's - Single).svg">
  <defs
     id="defs2809" />
  <sodipodi:namedview
     id="base"
     pagecolor="#1f1f1f"
     bordercolor="#666666"
     borderopacity="1.0"
     inkscape:pageopacity="0"
     inkscape:pageshadow="2"
     inkscape:zoom="1.0824912"
     inkscape:cx="432.35407"
     inkscape:cy="2184.163"
     inkscape:document-units="in"
     inkscape:current-layer="layer1"
     showgrid="true"
     inkscape:snap-global="false"
     showguides="true"
     units="in"
     gridtolerance="10"
     inkscape:window-width="1920"
     inkscape:window-height="1017"
     inkscape:window-x="-8"
     inkscape:window-y="-8"
     inkscape:window-maximized="1"
     inkscape:guide-bbox="true">
    <inkscape:grid
       type="xygrid"
       id="grid3368" />
    <sodipodi:guide
       position="-820.06909,1154.5923"
       orientation="0,1"
       id="guide9322"
       inkscape:locked="false" />
  </sodipodi:namedview>
  <metadata
     id="metadata2812">
    <rdf:RDF>
      <cc:Work
         rdf:about="">
        <dc:format>image/svg+xml</dc:format>
        <dc:type
           rdf:resource="http://purl.org/dc/dcmitype/StillImage" />
        <dc:title />
      </cc:Work>
    </rdf:RDF>
  </metadata>
  <g
     inkscape:label="Layer 1"
     inkscape:groupmode="layer"
     id="layer1"
     transform="translate(0,1159.8)">
    <g
       id="g875">
      <g
         id="g1895"
         transform="translate(-596.21225,-1073.5306)" />
      <g
         id="g855">
        <g
           aria-label="\"
           transform="matrix(0.82084351,0.41275848,-0.71125083,0.86060884,0,0)"
           style="font-style:normal;font-variant:normal;font-weight:normal;font-stretch:normal;font-size:156.70088196px;line-height:125%;font-family:'Harry Potter';-inkscape-font-specification:'Harry Potter';font-variant-ligatures:normal;font-variant-caps:normal;font-variant-numeric:normal;font-feature-settings:normal;text-align:start;letter-spacing:0px;word-spacing:0px;writing-mode:lr-tb;text-anchor:start;fill:#a800b4;fill-opacity:1;stroke:none;stroke-width:1.63230085px;stroke-linecap:butt;stroke-linejoin:miter;stroke-opacity:1"
           id="text1955-0" />
        <path
           id="path1964-2"
           style="font-style:normal;font-variant:normal;font-weight:normal;font-stretch:normal;font-size:medium;line-height:125%;font-family:'Harry Potter';-inkscape-font-specification:'Harry Potter';font-variant-ligatures:normal;font-variant-caps:normal;font-variant-numeric:normal;font-feature-settings:normal;text-align:start;letter-spacing:0px;word-spacing:0px;writing-mode:lr-tb;text-anchor:start;fill:#a800b4;fill-opacity:1;stroke:none;stroke-width:0.80742419px;stroke-linecap:butt;stroke-linejoin:miter;stroke-opacity:1"
           d="m 730.44479,-1084.2995 c -2.2065,0 -6.7857,2.0638 -13.7363,6.1894 -6.1783,3.6959 -9.7091,5.8008 -10.5918,6.3165 l -1.4883,1.289 c -0.4413,0.1719 -0.6621,0.4726 -0.6621,0.9024 0,0.6876 4.247,4.8992 12.7422,12.6347 8.6055,7.6496 12.9082,12.0331 12.9082,13.1504 0,0.5157 -0.2208,0.9023 -0.6621,1.1602 l 0.8281,-0.1289 c -2.0962,2.0628 -3.1445,3.5682 -3.1445,4.5136 -1.2136,0.2579 -3.1451,-0.3864 -5.793,-1.9336 -2.6478,-1.633 -4.1378,-2.9666 -4.4687,-3.998 0.1102,-0.4298 9e-4,-1.203 -0.3301,-2.3203 -0.2206,-1.2033 -0.3301,-1.9765 -0.3301,-2.3203 0,-1.0314 0.4396,-1.8905 1.3223,-2.5781 l -7.2813,1.289 -3.3086,1.5469 c -1.6549,0.7735 -2.4824,1.6756 -2.4824,2.707 0,0.9455 0.7162,2.6656 2.1504,5.1582 l 11.0879,10.5703 c 0.1103,0.1719 0.3311,0.2578 0.6621,0.2578 2.2066,0 6.7858,-2.0618 13.7363,-6.1875 6.1783,-3.6958 9.7072,-5.8026 10.5899,-6.3183 v -0.6445 l 0.9941,-0.1289 c 0.5516,-0.3439 0.8262,-0.8164 0.8262,-1.418 0,-1.5471 -2.8666,-4.7278 -8.6035,-9.541 -8.1642,-6.8761 -13.9569,-12.0327 -17.377,-15.4707 -0.4413,-0.4298 -0.6621,-0.9453 -0.6621,-1.5469 0,-1.0314 0.6068,-2.1053 1.8203,-3.2227 1.2137,-1.1173 2.427,-1.6758 3.6407,-1.6758 1.4341,0 2.9778,0.4726 4.6328,1.418 1.7652,0.8595 2.8135,1.8045 3.1445,2.836 -0.1104,0.5157 -0.055,1.3748 0.166,2.5781 0.331,1.2033 0.4961,2.0194 0.4961,2.4492 0,1.1174 -0.4416,2.0214 -1.3242,2.709 v 0.5156 l 11.916,-2.0625 c 1.655,-0.7735 2.4824,-1.6776 2.4824,-2.709 0,-0.9454 -0.7181,-2.6637 -2.1523,-5.1562 l -11.086,-10.5723 c -0.1103,-0.1719 -0.3311,-0.2578 -0.6621,-0.2578 z m -186.6822,-10.8983 -42.3652,2.5781 -7.4473,16.8906 c 4.4132,-4.7273 9.2112,-6.9629 14.3965,-6.7051 l 16.7149,-2.8359 c -1.8755,6.5322 -12.6314,19.8113 -32.2696,39.8379 l 44.5157,-0.5157 7.4472,-16.5019 c -4.6337,4.2975 -9.6526,6.746 -15.0586,7.3477 l -17.873,2.0625 c 6.8402,-5.5009 12.4659,-11.2159 16.8789,-17.1465 3.9718,-5.329 8.9926,-13.6662 15.0605,-25.0117 z m 23.127,-1.0313 c -9.7088,4.4694 -15.1155,7.2635 -16.2187,8.3809 -0.5517,0.5157 -0.8262,1.16 -0.8262,1.9336 0,2.0628 0.8812,3.9958 2.6465,5.8007 l 4.9648,5.1582 3.4766,-0.1289 -1.4903,-4.2558 c 0,-1.5471 2.041,-3.3083 6.1231,-5.2852 2.4272,-1.2033 3.9171,-1.9335 4.4687,-2.1914 l 2.4825,-1.0312 v 37.7753 c -0.662,1.7191 -1.8754,2.4923 -3.6407,2.3204 -3.1995,-3.3521 -4.8008,-7.9073 -4.8008,-13.6661 0,-1.2033 0.1115,-2.408 0.3321,-3.6113 -0.1103,-1.8049 1.7098,-4.2964 5.4609,-7.4765 l -10.9219,3.8671 c -4.9647,1.7191 -8.3861,4.0406 -10.2617,6.9629 4.1924,15.6431 8.716,23.1193 13.5703,22.4317 l 10.5918,-5.1563 v 4.6406 c -0.3309,1.0315 0.055,1.5489 1.1582,1.5489 1.2137,0 3.2009,-0.7752 5.959,-2.3223 l 11.9141,-10.4414 -6.1231,-0.2578 0.6621,-29.3965 c 0.5517,-2.2347 -2.096,-5.1576 -7.9433,-8.7676 -4.0822,-2.4925 -7.9433,-4.7692 -11.584,-6.832 z m 45.0625,-8.123 c -7.1713,4.4694 -13.5706,8.2085 -19.1973,11.2168 l 8.6055,-0.2579 -0.3301,43.0625 c 0,1.3753 -0.2208,2.2344 -0.6621,2.5782 -0.5517,0.6016 -2.2623,1.3748 -5.1308,2.3203 0.993,0 2.4828,-0.043 4.4687,-0.1289 2.0962,-0.086 3.6399,-0.1289 4.6328,-0.1289 1.5446,0 3.8621,0.043 6.9512,0.1289 3.1995,0.086 5.5707,0.1289 7.1152,0.1289 -3.1994,-0.6017 -4.9082,-2.2769 -5.1289,-5.0274 -0.9929,-12.4628 -1.2694,-25.0976 -0.8281,-37.9043 0.9929,-1.0314 1.8205,-1.5917 2.4824,-1.6777 0.7723,-0.1719 1.8763,0.9469 3.3106,3.3535 1.1032,1.8909 1.8751,3.4803 2.3164,4.7695 -0.331,1.4612 -1.6559,3.0506 -3.9727,4.7696 v 0.5176 l 15.2266,-6.9629 c 1.1033,-0.2579 1.6543,-0.8163 1.6543,-1.6758 0,-0.7736 -0.4416,-1.5468 -1.3242,-2.3203 l -7.7774,-10.5723 c -0.2206,-0.2578 -0.6065,-0.3867 -1.1582,-0.3867 -1.7652,0 -5.517,1.933 -11.2539,5.8008 z m -251.86911,-0.2579 -15.7207,0.3868 c 6.8402,1.2033 10.2597,3.353 10.2597,6.4472 0,1.805 -0.1094,4.4682 -0.3301,7.9922 -0.2207,3.524 -0.332,6.1892 -0.332,7.9942 l 0.4961,29.2656 c 0.1104,8.9389 0.4982,13.6249 1.1602,14.0547 l 17.541,18.5644 c 0.4413,0.4298 1.10371,0.6445 1.98631,0.6445 1.4343,0 5.6813,-2.1477 12.7422,-6.4453 1.1033,-0.6876 2.814,-2.6225 5.1309,-5.8027 2.3169,-3.1802 4.3021,-5.285 5.957,-6.3164 0,0.5157 0.056,0.3009 0.166,-0.6445 l 15.7207,16.6308 c 0.7722,0.4298 2.3716,0.9452 4.7988,1.5469 0.331,0 0.7726,-0.1289 1.3242,-0.3867 l 27.3067,-28.4922 -0.4961,-41.5156 c 0,-2.4926 0.7161,-4.1679 2.1504,-5.0274 0.4413,-0.3438 2.6474,-1.2029 6.6191,-2.5781 -1.6549,0 -4.0817,0.086 -7.2812,0.2578 -3.0892,0.086 -5.4604,0.1289 -7.1153,0.1289 -2.4271,0 -6.0137,-0.043 -10.7578,-0.1289 -4.744,-0.1719 -8.3286,-0.2578 -10.7558,-0.2578 5.075,0.9455 7.8877,3.5657 8.4394,7.8633 0.8826,7.048 1.2128,14.1825 0.9922,21.4023 -0.331,11.6893 -0.3847,18.9527 -0.164,21.7891 -8.3849,8.681 -13.35,13.1503 -14.8946,13.4082 -0.6619,-0.6017 -1.5989,-2.3218 -2.8125,-5.1582 -0.1103,-0.3438 -0.8841,-0.9452 -2.3183,-1.8047 -1.4343,-0.9455 -2.1504,-1.7187 -2.1504,-2.3203 -1.2136,-13.924 -1.8203,-28.0193 -1.8203,-42.2871 0,-0.4298 -0.4973,-1.1171 -1.4903,-2.0625 -0.9929,-0.9455 -1.4883,-1.5469 -1.4883,-1.8047 0,-0.5157 0.3859,-1.0331 1.1582,-1.5488 v -0.7735 l -9.7636,8.7676 c -1.5446,0.4298 -2.3721,1.3318 -2.4825,2.707 l 0.8262,31.0723 c -4.6337,5.0711 -8.2183,9.3686 -10.7558,12.8926 -0.662,0.086 -1.3244,0.1289 -1.9864,0.1289 -2.3168,0 -4.0813,-0.9899 -5.2949,-2.9668 -0.5516,-0.9455 -0.93941,-7.4767 -1.16011,-19.5957 l -0.1641,-19.8555 c -0.1104,-11.9471 -0.2217,-18.3924 -0.332,-19.3379 0.3309,-2.8364 2.64841,-4.6854 6.95111,-5.5449 z m 344.45501,1.8184 c 0.083,0.5338 0.1652,0.8906 0.2481,0.8906 v -1.1621 c -0.1104,-0.7735 -0.1641,-1.0313 -0.1641,-0.7734 -0.054,0.1271 -0.083,0.479 -0.084,1.0449 z m -21.9277,-7.4902 c 2.5375,1.1173 4.0832,3.0074 4.6348,5.6718 0.098,0.5345 0.1796,0.9288 0.2558,1.2598 -0.061,0.5534 -0.09,1.7208 -0.09,3.5117 0,2.0628 0.7161,4.5543 2.1504,7.4766 1.4342,2.9223 1.9852,5.8882 1.6543,8.8965 h 8.2754 c 0.1102,-1.805 1.0472,-4.2984 2.8125,-7.4785 1.6549,-2.9224 2.4287,-6.0581 2.3183,-9.4102 -0.056,-1.0458 -0.085,-1.8556 -0.084,-2.4375 -0.027,-0.1766 -0.055,-0.2943 -0.082,-0.5293 -0.5516,-3.1802 0.8826,-5.4998 4.3027,-6.9609 z m -22.2656,-5.8028 c 2.8685,2.7505 4.0819,5.072 3.6406,6.9629 l -0.3301,26.4297 -9.4336,-10.3144 -20.1894,8.8964 3.3086,39.0645 13.9023,7.8652 12.5762,-5.1582 v 5.6739 l 17.3769,-0.6446 c -1.7652,-1.2033 -2.923,-2.7087 -3.4746,-4.5137 l -1.4902,-67.9433 c 0,-1.9769 1.104,-4.0836 3.3105,-6.3184 z m -4.7988,30.4278 8.4394,7.9922 -0.166,29.0097 -11.252,4.125 c -2.6479,-4.0397 -3.7518,-9.7117 -3.3105,-17.0176 l 1.3242,-20.7578 z m -192.68141,45.4325 5.87238,-10.4103 -5.90325,38.6483 4.49218,-7.859 -2.50813,35.20115 16.31855,-62.04625 -4.44971,4.0622 9.23037,-37.1661 -5.94178,3.8847 8.64717,-38.223 -15.5712,2.0969 z m -273.07064,-50.3236 c -1.77116,0 -3.01028,0.091 -3.71875,0.2715 l -19.83789,11.9414 c -1.65309,6.9654 -2.48047,13.6151 -2.48047,19.9473 0,4.4325 0.47334,8.3672 1.41797,11.8047 l 17.88867,11.9394 9.03321,-0.1347 15.93945,-12.3477 -7.79297,-7.5996 -0.70898,5.4277 c -0.11808,0.9046 -0.17578,1.4018 -0.17578,1.4922 -0.35424,1.4474 -1.83002,3.1662 -4.42774,5.1563 l -5.49023,4.207 c -3.07003,-1.2664 -5.07882,-2.6692 -6.02344,-4.207 l -1.77148,-26.8653 2.48046,-15.4687 c 0.47231,-0.6332 0.94371,-0.9512 1.41602,-0.9512 5.66774,3.9802 9.26968,6.7395 10.80469,8.2774 0.35423,2.4424 -0.59051,5.1574 -2.83399,8.1425 l 16.29493,-8.414 -2.30274,-5.0196 -14.3457,-7.1914 c -0.59039,-0.2713 -1.71214,-0.4082 -3.36524,-0.4082 z m 85.832,-0.2715 c -8.7377,2.352 -17.1807,5.7896 -25.3281,10.3125 -1.2988,16.7351 -1.8299,27.2289 -1.5937,31.4805 0.7084,1.9901 7.0253,6.5125 18.9511,13.5684 l 3.1895,0.4082 c 3.7785,-0.3619 8.6195,-1.7184 14.5234,-4.0703 7.0847,-2.8043 10.3306,-5.3381 9.7403,-7.5997 -0.3543,-12.4834 -0.6487,-20.3085 -0.8848,-23.4746 -0.4723,-6.2417 -2.0078,-10.3112 -4.6055,-12.2109 l -1.416,-1.7637 z m -0.8847,5.4278 c 2.2435,4.342 3.3652,18.3197 3.3652,41.9297 -1.2989,1.8092 -3.7194,3.1194 -7.2617,3.9336 -2.3616,-0.8142 -3.9567,-2.1244 -4.7832,-3.9336 l -0.8848,-35.6875 c 0.5904,-1.2665 1.8892,-2.4881 3.8965,-3.6641 z m -134.02738,-5.4278 c -8.73775,2.352 -17.18075,5.7896 -25.32812,10.3125 -1.29886,16.7351 -1.82991,27.2289 -1.59375,31.4805 0.70847,1.9901 7.02531,6.5125 18.95117,13.5684 l 3.1875,0.4082 c 3.77849,-0.3619 8.61955,-1.7184 14.52344,-4.0703 7.08467,-2.8043 10.33258,-5.3381 9.74219,-7.5997 -0.35423,-12.4834 -0.65056,-20.3085 -0.88672,-23.4746 -0.47231,-6.2417 -2.0058,-10.3112 -4.60352,-12.2109 l -1.41797,-1.7637 z m -0.88671,5.4278 c 2.24347,4.342 3.36523,18.3197 3.36523,41.9297 -1.29886,1.8092 -3.71938,3.1194 -7.26172,3.9336 -2.36156,-0.8142 -3.9547,-2.1244 -4.78125,-3.9336 l -0.88672,-35.6875 c 0.59039,-1.2665 1.88917,-2.4881 3.89649,-3.6641 z m 177.97269,-27.1367 c -7.6751,4.7039 -14.5249,8.6386 -20.5469,11.8046 l 9.2109,-0.2714 -0.3535,45.3203 c 0,1.4473 -0.2367,2.351 -0.709,2.7129 -0.5904,0.6332 -2.4202,1.4483 -5.4902,2.4433 1.0627,0 2.6558,-0.046 4.7812,-0.1367 2.2435,-0.091 3.8963,-0.1348 4.959,-0.1348 1.6531,0 4.1333,0.044 7.4395,0.1348 3.4242,0.09 5.9621,0.1367 7.6152,0.1367 -3.4242,-0.6332 -5.2541,-2.3963 -5.4902,-5.291 -1.0627,-13.1166 -1.3571,-26.416 -0.8848,-39.8945 1.0627,-1.0855 1.9478,-1.6732 2.6563,-1.7637 0.8265,-0.1809 2.0079,0.9964 3.5429,3.5293 1.1808,1.9901 2.0062,3.6626 2.4785,5.0195 -0.3542,1.5378 -1.7703,3.2123 -4.25,5.0215 v 0.541 l 16.295,-7.3261 c 1.1807,-0.2714 1.7715,-0.8591 1.7715,-1.7637 0,-0.8141 -0.4734,-1.6292 -1.418,-2.4434 l -8.3242,-11.1269 c -0.2362,-0.2714 -0.6499,-0.4063 -1.2403,-0.4063 -1.8892,0 -5.9029,2.0348 -12.0429,6.1055 z m -82.9414,-3.1211 c -10.15474,10.6742 -20.30824,18.1813 -30.46293,22.5234 h 14.87695 l -0.88477,57.3984 c 0.35423,2.2615 3.36547,4.2057 9.03321,5.834 l 14.52344,4.0703 c -5.6677,-3.7088 -8.502,-6.3776 -8.502,-8.0058 0,-0.3619 0.1174,-0.7241 0.3536,-1.086 l 1.5937,-57.6679 h 9.9199 l -1.5957,-5.834 h -9.209 z m -204.90239,-2.4434 c 3.89657,1.3569 6.08238,3.6191 6.55469,6.7852 l 0.88477,79.9218 c 0,3.8898 -3.24595,6.6028 -9.74024,8.1407 l 40.20508,0.2714 c -0.11807,0 -0.2951,-0.044 -0.53125,-0.1347 l 1.41602,0.1347 5.31445,-0.6777 c 5.3135,-3.347 10.44893,-6.694 15.4082,-10.041 8.97392,-6.0608 13.99199,-10.8568 15.05469,-14.3848 0.35424,-6.2417 0.53125,-10.9452 0.53125,-14.1113 0,-11.5788 -0.47139,-23.9263 -1.41602,-37.043 -13.8151,-8.0509 -28.16124,-14.2015 -43.03906,-18.4531 h -1.77148 c 0.23615,-0.1809 0.47283,-0.3177 0.70898,-0.4082 z m 28.8711,8.2773 c 5.90389,2.2615 10.33125,3.936 13.2832,5.0215 5.3135,2.2615 8.56141,4.9303 9.74219,8.0059 l 0.35351,56.0391 c -0.70847,1.5378 -2.65565,3.3914 -5.84375,5.5625 -2.71579,1.8091 -5.25564,3.2119 -7.61718,4.207 -5.31351,-1.2665 -9.32718,-2.623 -12.04297,-4.0703 -0.11808,-0.3619 -0.23739,-0.6779 -0.35547,-0.9492 l -0.70703,-60.2461 c 0.70846,-1.4474 1.23951,-3.7096 1.59375,-6.7852 0.35423,-3.0756 0.88527,-5.3378 1.59375,-6.7852 z" />
      </g>
    </g>
  </g>
</svg>
