<?xml version="1.0" encoding="UTF-8" standalone="no"?>
<!-- Created with Inkscape (http://www.inkscape.org/) -->

<svg
   xmlns:dc="http://purl.org/dc/elements/1.1/"
   xmlns:cc="http://creativecommons.org/ns#"
   xmlns:rdf="http://www.w3.org/1999/02/22-rdf-syntax-ns#"
   xmlns:svg="http://www.w3.org/2000/svg"
   xmlns="http://www.w3.org/2000/svg"
   xmlns:sodipodi="http://sodipodi.sourceforge.net/DTD/sodipodi-0.dtd"
   xmlns:inkscape="http://www.inkscape.org/namespaces/inkscape"
   width="24in"
   height="18in"
   viewBox="0 0 609.60002 457.20001"
   version="1.1"
   id="svg8"
   inkscape:version="0.92.3 (2405546, 2018-03-11)"
   sodipodi:docname="Holiday Light Show Sign [Vector].svg">
  <defs
     id="defs2" />
  <sodipodi:namedview
     id="base"
     pagecolor="#ffffff"
     bordercolor="#666666"
     borderopacity="1.0"
     inkscape:pageopacity="0.0"
     inkscape:pageshadow="2"
     inkscape:zoom="0.33224977"
     inkscape:cx="1235.3476"
     inkscape:cy="721.62441"
     inkscape:document-units="in"
     inkscape:current-layer="layer1"
     showgrid="false"
     units="in"
     inkscape:lockguides="true"
     showguides="false"
     inkscape:measure-start="0,0"
     inkscape:measure-end="0,0"
     inkscape:window-width="1920"
     inkscape:window-height="1017"
     inkscape:window-x="-8"
     inkscape:window-y="-8"
     inkscape:window-maximized="1" />
  <metadata
     id="metadata5">
    <rdf:RDF>
      <cc:Work
         rdf:about="">
        <dc:format>image/svg+xml</dc:format>
        <dc:type
           rdf:resource="http://purl.org/dc/dcmitype/StillImage" />
        <dc:title></dc:title>
      </cc:Work>
    </rdf:RDF>
  </metadata>
  <g
     inkscape:label="Layer 1"
     inkscape:groupmode="layer"
     id="layer1"
     transform="translate(0,160.20001)">
    <g
       aria-label="Doctor Wizard's"
       transform="matrix(0.24012752,0,0,0.33085653,315.24144,-194.50253)"
       style="font-style:normal;font-weight:normal;font-size:40px;line-height:125%;font-family:sans-serif;letter-spacing:0px;word-spacing:0px;fill:#e100fd;fill-opacity:1;stroke:none;stroke-width:1px;stroke-linecap:butt;stroke-linejoin:miter;stroke-opacity:1"
       id="flowRoot10">
      <path
         d="m 331.62569,277.0806 q 0.384,0.192 0.576,0.192 l -43.584,-0.384 q 10.56,-3.264 10.56,-11.52 l -0.96,-113.088 q -0.768,-6.72 -7.104,-9.6 h 32.064 q -0.384,0.192 -0.768,0.576 h 1.92 q 24.192,9.024 46.656,26.112 1.536,27.84 1.536,52.416 0,6.72 -0.576,19.968 -1.728,7.488 -16.32,20.352 -8.064,7.104 -16.704,14.208 l -5.76,0.96 z m -11.904,-18.24 q 0.192,0.576 0.384,1.344 4.416,3.072 13.056,5.76 3.84,-2.112 8.256,-5.952 5.184,-4.608 6.336,-7.872 l -0.384,-79.296 q -1.92,-6.528 -10.56,-11.328 -4.8,-2.304 -14.4,-7.104 -1.152,3.072 -1.728,9.6 -0.576,6.528 -1.728,9.6 z"
         style="font-style:normal;font-variant:normal;font-weight:normal;font-stretch:normal;font-size:192px;font-family:'Harry Potter';-inkscape-font-specification:'Harry Potter, Normal';font-variant-ligatures:normal;font-variant-caps:normal;font-variant-numeric:normal;font-feature-settings:normal;text-align:start;writing-mode:lr-tb;text-anchor:start;fill:#e100fd;fill-opacity:1"
         id="path921"
         inkscape:connector-curvature="0" />
      <path
         d="m 432.29669,243.6726 q 0.96,4.8 -10.56,10.752 -9.6,4.992 -15.744,5.76 l -3.456,-0.576 q -19.392,-14.976 -20.544,-19.2 -0.384,-9.024 1.728,-44.544 13.248,-9.6 27.456,-14.592 l 13.632,9.408 1.536,2.496 q 4.224,4.032 4.992,17.28 0.384,6.72 0.96,33.216 z m -18.432,4.608 q 0,-50.112 -3.648,-59.328 l -6.144,3.648 q -3.264,2.496 -4.224,5.184 l 0.96,50.496 q 1.344,3.84 5.184,5.568 5.76,-1.728 7.872,-5.568 z"
         style="font-style:normal;font-variant:normal;font-weight:normal;font-stretch:normal;font-size:192px;font-family:'Harry Potter';-inkscape-font-specification:'Harry Potter, Normal';font-variant-ligatures:normal;font-variant-caps:normal;font-variant-numeric:normal;font-feature-settings:normal;text-align:start;writing-mode:lr-tb;text-anchor:start;fill:#e100fd;fill-opacity:1"
         id="path923"
         inkscape:connector-curvature="0" />
      <path
         d="m 486.07769,199.5126 -2.496,-7.104 -15.552,-10.176 q -0.96,-0.576 -3.648,-0.576 -2.88,0 -4.032,0.384 l -21.504,16.896 q -2.688,14.784 -2.688,28.224 0,9.408 1.536,16.704 l 19.392,16.896 9.792,-0.192 17.28,-17.472 -8.448,-10.752 -0.768,7.68 q -0.192,1.92 -0.192,2.112 -0.576,3.072 -4.8,7.296 l -5.952,5.952 q -4.992,-2.688 -6.528,-5.952 l -1.92,-38.016 2.688,-21.888 q 0.768,-1.344 1.536,-1.344 9.216,8.448 11.712,11.712 0.576,5.184 -3.072,11.52 z"
         style="font-style:normal;font-variant:normal;font-weight:normal;font-stretch:normal;font-size:192px;font-family:'Harry Potter';-inkscape-font-specification:'Harry Potter, Normal';font-variant-ligatures:normal;font-variant-caps:normal;font-variant-numeric:normal;font-feature-settings:normal;text-align:start;writing-mode:lr-tb;text-anchor:start;fill:#e100fd;fill-opacity:1"
         id="path925"
         inkscape:connector-curvature="0" />
      <path
         d="m 524.56169,178.7766 h -10.752 l -1.728,81.6 q -0.384,0.768 -0.384,1.536 0,3.456 9.216,11.328 l -15.744,-5.76 q -9.216,-3.456 -9.792,-8.256 l 0.96,-81.216 h -16.128 q 16.512,-9.216 33.024,-31.872 l -0.384,24.384 h 9.984 z"
         style="font-style:normal;font-variant:normal;font-weight:normal;font-stretch:normal;font-size:192px;font-family:'Harry Potter';-inkscape-font-specification:'Harry Potter, Normal';font-variant-ligatures:normal;font-variant-caps:normal;font-variant-numeric:normal;font-feature-settings:normal;text-align:start;writing-mode:lr-tb;text-anchor:start;fill:#e100fd;fill-opacity:1"
         id="path927"
         inkscape:connector-curvature="0" />
      <path
         d="m 578.54669,243.6726 q 0.96,4.8 -10.56,10.752 -9.6,4.992 -15.744,5.76 l -3.456,-0.576 q -19.392,-14.976 -20.544,-19.2 -0.384,-9.024 1.728,-44.544 13.248,-9.6 27.456,-14.592 l 13.632,9.408 1.536,2.496 q 4.224,4.032 4.992,17.28 0.384,6.72 0.96,33.216 z m -18.432,4.608 q 0,-50.112 -3.648,-59.328 l -6.144,3.648 q -3.264,2.496 -4.224,5.184 l 0.96,50.496 q 1.344,3.84 5.184,5.568 5.76,-1.728 7.872,-5.568 z"
         style="font-style:normal;font-variant:normal;font-weight:normal;font-stretch:normal;font-size:192px;font-family:'Harry Potter';-inkscape-font-specification:'Harry Potter, Normal';font-variant-ligatures:normal;font-variant-caps:normal;font-variant-numeric:normal;font-feature-settings:normal;text-align:start;writing-mode:lr-tb;text-anchor:start;fill:#e100fd;fill-opacity:1"
         id="path929"
         inkscape:connector-curvature="0" />
      <path
         d="m 580.87169,167.2566 q 9.792,-6.72 22.272,-16.704 v 17.28 q 9.984,-8.64 13.056,-8.64 0.96,0 1.344,0.576 l 9.024,15.744 q 1.536,1.728 1.536,3.456 0,1.92 -1.92,2.496 l -17.664,10.368 v -0.768 q 4.032,-3.84 4.608,-7.104 -0.768,-2.88 -2.688,-7.104 -2.496,-5.376 -3.84,-4.992 -1.152,0.192 -2.88,2.496 -0.768,28.608 0.96,56.448 0.384,6.144 5.952,7.488 -2.688,0 -8.256,-0.192 -5.376,-0.192 -8.064,-0.192 -1.728,0 -5.376,0.192 -3.456,0.192 -5.184,0.192 4.992,-2.112 5.952,-3.456 0.768,-0.768 0.768,-3.84 l 0.384,-64.128 z"
         style="font-style:normal;font-variant:normal;font-weight:normal;font-stretch:normal;font-size:192px;font-family:'Harry Potter';-inkscape-font-specification:'Harry Potter, Normal';font-variant-ligatures:normal;font-variant-caps:normal;font-variant-numeric:normal;font-feature-settings:normal;text-align:start;writing-mode:lr-tb;text-anchor:start;fill:#e100fd;fill-opacity:1"
         id="path931"
         inkscape:connector-curvature="0" />
      <path
         d="m 773.10569,273.4326 -18.24,-24.768 q -0.192,2.112 -0.192,0.96 -2.88,2.304 -6.912,9.408 -4.032,7.104 -5.952,8.64 -12.288,9.6 -14.784,9.6 -1.536,0 -2.304,-0.96 l -20.352,-27.648 q -1.152,-0.96 -1.344,-20.928 l -0.576,-43.584 q 0,-4.032 0.384,-11.904 0.384,-7.872 0.384,-11.904 0,-6.912 -11.904,-9.6 l 18.24,-0.576 23.04,1.92 q -7.488,1.92 -8.064,8.256 0.192,2.112 0.384,28.8 l 0.192,29.568 q 0.384,27.072 1.344,29.184 2.112,4.416 6.144,4.416 1.152,0 2.304,-0.192 4.416,-7.872 12.48,-19.2 l -0.96,-46.272 q 0.192,-3.072 2.88,-4.032 l 11.328,-13.056 v 1.152 q -1.344,1.152 -1.344,2.304 0,0.576 1.728,2.688 1.728,2.112 1.728,3.072 0,31.872 2.112,62.976 0,1.344 2.496,3.456 2.496,1.92 2.688,2.688 2.112,6.336 3.264,7.68 2.688,-0.576 17.28,-19.968 -0.384,-6.336 0.192,-32.448 0.384,-16.128 -1.152,-31.872 -0.96,-9.6 -9.792,-11.712 4.224,0 12.48,0.384 8.256,0.192 12.48,0.192 2.88,0 8.256,-0.192 5.568,-0.384 8.448,-0.384 -6.912,3.072 -7.68,3.84 -2.496,1.92 -2.496,7.488 l 0.576,61.824 -31.68,42.432 q -0.96,0.576 -1.536,0.576 -4.224,-1.344 -5.568,-2.304 z"
         style="font-style:normal;font-variant:normal;font-weight:normal;font-stretch:normal;font-size:192px;font-family:'Harry Potter';-inkscape-font-specification:'Harry Potter, Normal';font-variant-ligatures:normal;font-variant-caps:normal;font-variant-numeric:normal;font-feature-settings:normal;text-align:start;writing-mode:lr-tb;text-anchor:start;fill:#e100fd;fill-opacity:1"
         id="path933"
         inkscape:connector-curvature="0" />
      <path
         d="m 828.04169,263.2566 h 26.496 q -5.952,-3.264 -4.992,-10.368 1.536,-11.52 2.112,-31.296 0.576,-20.16 -0.192,-34.752 h -17.28 q 1.344,18.624 1.344,33.984 0,20.352 -2.112,33.984 -0.96,5.952 -5.376,8.448 z m 12.48,-110.016 q 2.496,1.728 5.952,1.728 0.768,0 2.496,-0.384 1.728,-0.384 2.496,-0.384 2.112,0 2.112,17.472 -5.568,5.376 -13.056,6.144 -4.608,-4.992 -7.488,-13.824 0.384,-3.072 0.576,-5.952 1.344,-4.416 6.912,-4.8 z"
         style="font-style:normal;font-variant:normal;font-weight:normal;font-stretch:normal;font-size:192px;font-family:'Harry Potter';-inkscape-font-specification:'Harry Potter, Normal';font-variant-ligatures:normal;font-variant-caps:normal;font-variant-numeric:normal;font-feature-settings:normal;text-align:start;writing-mode:lr-tb;text-anchor:start;fill:#e100fd;fill-opacity:1"
         id="path935"
         inkscape:connector-curvature="0" />
      <path
         d="m 873.50369,168.0246 -8.64,25.152 q 7.68,-10.56 16.704,-9.984 l 19.392,-4.224 q -3.264,14.592 -37.44,59.328 l 51.648,-0.768 8.64,-24.576 q -8.064,9.6 -17.472,10.944 l -20.736,3.072 q 11.904,-12.288 19.584,-25.536 6.912,-11.904 17.472,-37.248 z"
         style="font-style:normal;font-variant:normal;font-weight:normal;font-stretch:normal;font-size:192px;font-family:'Harry Potter';-inkscape-font-specification:'Harry Potter, Normal';font-variant-ligatures:normal;font-variant-caps:normal;font-variant-numeric:normal;font-feature-settings:normal;text-align:start;writing-mode:lr-tb;text-anchor:start;fill:#e100fd;fill-opacity:1"
         id="path937"
         inkscape:connector-curvature="0" />
      <path
         d="m 938.54369,194.3286 -5.76,-7.68 q -3.072,-4.032 -3.072,-8.64 0,-1.728 0.96,-2.88 1.92,-2.496 18.816,-12.48 6.336,4.608 13.44,10.176 10.176,8.064 9.216,13.056 l -0.768,43.776 7.104,0.384 -13.824,15.552 q -4.8,3.456 -6.912,3.456 -1.92,0 -1.344,-2.304 v -6.912 l -12.288,7.68 q -8.448,1.536 -15.744,-33.408 3.264,-6.528 11.904,-10.368 l 12.672,-5.76 q -6.528,7.104 -6.336,11.136 -0.384,2.688 -0.384,5.376 0,12.864 5.568,20.352 3.072,0.384 4.224,-3.456 v -56.256 l -2.88,1.536 q -0.96,0.576 -5.184,3.264 -7.104,4.416 -7.104,7.872 l 1.728,6.336 z"
         style="font-style:normal;font-variant:normal;font-weight:normal;font-stretch:normal;font-size:192px;font-family:'Harry Potter';-inkscape-font-specification:'Harry Potter, Normal';font-variant-ligatures:normal;font-variant-caps:normal;font-variant-numeric:normal;font-feature-settings:normal;text-align:start;writing-mode:lr-tb;text-anchor:start;fill:#e100fd;fill-opacity:1"
         id="path939"
         inkscape:connector-curvature="0" />
      <path
         d="m 979.49669,167.2566 q 9.792,-6.72 22.27201,-16.704 v 17.28 q 9.984,-8.64 13.056,-8.64 0.96,0 1.344,0.576 l 9.024,15.744 q 1.536,1.728 1.536,3.456 0,1.92 -1.92,2.496 l -17.664,10.368 v -0.768 q 4.032,-3.84 4.608,-7.104 -0.768,-2.88 -2.688,-7.104 -2.496,-5.376 -3.84,-4.992 -1.152,0.192 -2.88,2.496 -0.768,28.608 0.96,56.448 0.384,6.144 5.952,7.488 -2.688,0 -8.256,-0.192 -5.37601,-0.192 -8.06401,-0.192 -1.728,0 -5.376,0.192 -3.456,0.192 -5.184,0.192 4.992,-2.112 5.952,-3.456 0.768,-0.768 0.768,-3.84 l 0.384,-64.128 z"
         style="font-style:normal;font-variant:normal;font-weight:normal;font-stretch:normal;font-size:192px;font-family:'Harry Potter';-inkscape-font-specification:'Harry Potter, Normal';font-variant-ligatures:normal;font-variant-caps:normal;font-variant-numeric:normal;font-feature-settings:normal;text-align:start;writing-mode:lr-tb;text-anchor:start;fill:#e100fd;fill-opacity:1"
         id="path941"
         inkscape:connector-curvature="0" />
      <path
         d="m 1082.1057,250.3926 -20.16,0.96 v -8.448 l -14.592,7.68 -16.128,-11.712 -3.84,-58.176 23.424,-13.248 10.944,15.36 0.384,-39.36 q 0.768,-4.224 -4.224,-10.368 h 22.272 q -3.84,4.992 -3.84,9.408 l 1.728,101.184 q 0.96,4.032 4.032,6.72 z m -35.52,-67.008 -1.536,30.912 q -0.768,16.32 3.84,25.344 l 13.056,-6.144 0.192,-43.2 -9.792,-11.904 z"
         style="font-style:normal;font-variant:normal;font-weight:normal;font-stretch:normal;font-size:192px;font-family:'Harry Potter';-inkscape-font-specification:'Harry Potter, Normal';font-variant-ligatures:normal;font-variant-caps:normal;font-variant-numeric:normal;font-feature-settings:normal;text-align:start;writing-mode:lr-tb;text-anchor:start;fill:#e100fd;fill-opacity:1"
         id="path943"
         inkscape:connector-curvature="0" />
      <path
         d="m 1083.7467,141.7206 h 30.336 q -5.952,3.264 -4.992,10.368 0.192,2.112 0.384,2.112 0,-1.344 0,-1.728 -0.192,-1.728 -0.192,-1.152 -0.192,0.576 0,5.184 0.192,7.488 -2.688,14.016 -3.072,7.104 -3.264,11.136 h -9.6 q 0.576,-6.72 -1.92,-13.248 -2.496,-6.528 -2.496,-11.136 0,-5.376 0.192,-5.76 0.576,1.152 0.192,1.728 -0.192,-0.384 -0.576,-3.072 -0.96,-5.952 -5.376,-8.448 z"
         style="font-style:normal;font-variant:normal;font-weight:normal;font-stretch:normal;font-size:192px;font-family:'Harry Potter';-inkscape-font-specification:'Harry Potter, Normal';font-variant-ligatures:normal;font-variant-caps:normal;font-variant-numeric:normal;font-feature-settings:normal;text-align:start;writing-mode:lr-tb;text-anchor:start;fill:#e100fd;fill-opacity:1"
         id="path945"
         inkscape:connector-curvature="0" />
      <path
         d="m 1165.3047,246.3606 q -1.536,1.152 -12.288,9.408 -12.096,9.216 -15.936,9.216 -0.576,0 -0.768,-0.384 l -12.864,-15.744 q -2.496,-5.568 -2.496,-7.68 0,-2.304 2.88,-4.032 l 3.84,-2.304 8.448,-1.92 q -1.536,1.536 -1.536,3.84 0,0.768 0.384,3.456 0.576,2.496 0.384,3.456 0.576,2.304 5.184,5.952 4.608,3.456 6.72,2.88 0,-2.112 3.648,-6.72 l -0.96,0.192 q 0.768,-0.576 0.768,-1.728 0,-2.496 -14.976,-19.584 -14.784,-17.28 -14.784,-18.816 0,-0.96 0.768,-1.344 l 1.728,-1.92 q 1.536,-1.152 12.288,-9.408 12.096,-9.216 15.936,-9.216 0.576,0 0.768,0.384 l 12.864,15.744 q 2.496,5.568 2.496,7.68 0,2.304 -2.88,4.032 l -13.824,3.072 v -0.768 q 1.536,-1.536 1.536,-4.032 0,-0.96 -0.576,-3.648 -0.384,-2.688 -0.192,-3.84 -0.576,-2.304 -3.648,-4.224 -2.88,-2.112 -5.376,-2.112 -2.112,0 -4.224,2.496 -2.112,2.496 -2.112,4.8 0,1.344 0.768,2.304 5.952,7.68 20.16,23.04 9.984,10.752 9.984,14.208 0,1.344 -0.96,2.112 l -1.152,0.192 z"
         style="font-style:normal;font-variant:normal;font-weight:normal;font-stretch:normal;font-size:192px;font-family:'Harry Potter';-inkscape-font-specification:'Harry Potter, Normal';font-variant-ligatures:normal;font-variant-caps:normal;font-variant-numeric:normal;font-feature-settings:normal;text-align:start;writing-mode:lr-tb;text-anchor:start;fill:#e100fd;fill-opacity:1"
         id="path947"
         inkscape:connector-curvature="0" />
    </g>
    <flowRoot
       xml:space="preserve"
       id="flowRoot18"
       style="fill:black;stroke:none;stroke-opacity:1;stroke-width:1px;stroke-linejoin:miter;stroke-linecap:butt;fill-opacity:1;font-family:sans-serif;font-style:normal;font-weight:normal;font-size:40px;line-height:125%;letter-spacing:0px;word-spacing:0px"><flowRegion
         id="flowRegion20"><rect
           id="rect22"
           width="415.35016"
           height="415.35016"
           x="1393.5299"
           y="193.01024" /></flowRegion><flowPara
         id="flowPara24"></flowPara></flowRoot>    <flowRoot
       xml:space="preserve"
       id="flowRoot26"
       style="font-style:normal;font-weight:500;font-size:192.00000041px;line-height:125%;font-family:Circus;letter-spacing:0px;word-spacing:0px;fill:#000000;fill-opacity:1;stroke:none;stroke-width:1px;stroke-linecap:butt;stroke-linejoin:miter;stroke-opacity:1;-inkscape-font-specification:'Circus, Medium';font-stretch:normal;font-variant:normal;text-anchor:start;text-align:start;writing-mode:lr;font-variant-ligatures:normal;font-variant-caps:normal;font-variant-numeric:normal;font-feature-settings:normal;"
       transform="matrix(0.26458334,0,0,0.26458334,0,-160.20001)"><flowRegion
         id="flowRegion28"
         style="-inkscape-font-specification:'Circus, Medium';font-family:Circus;font-weight:500;font-style:normal;font-stretch:normal;font-variant:normal;font-size:192.00000041px;text-anchor:start;text-align:start;writing-mode:lr;font-variant-ligatures:normal;font-variant-caps:normal;font-variant-numeric:normal;font-feature-settings:normal;"><rect
           id="rect30"
           width="394.28168"
           height="135.44028"
           x="761.47534"
           y="84.65802"
           style="-inkscape-font-specification:'Circus, Medium';font-family:Circus;font-weight:500;font-style:normal;font-stretch:normal;font-variant:normal;font-size:192.00000041px;text-anchor:start;text-align:start;writing-mode:lr;font-variant-ligatures:normal;font-variant-caps:normal;font-variant-numeric:normal;font-feature-settings:normal;" /></flowRegion><flowPara
         id="flowPara32">Giant</flowPara></flowRoot>    <flowRoot
       xml:space="preserve"
       id="flowRoot34"
       style="font-style:normal;font-weight:normal;font-size:40px;line-height:125%;font-family:sans-serif;letter-spacing:0px;word-spacing:0px;fill:#000000;fill-opacity:1;stroke:none;stroke-width:1px;stroke-linecap:butt;stroke-linejoin:miter;stroke-opacity:1"
       transform="matrix(0.26458334,0,0,0.26458334,216.60412,-133.92083)"><flowRegion
         id="flowRegion36"><rect
           id="rect38"
           width="1270.1288"
           height="520.69263"
           x="171.55768"
           y="226.11786" /></flowRegion><flowPara
         id="flowPara40"
         style="font-style:normal;font-variant:normal;font-weight:500;font-stretch:normal;font-size:192px;font-family:Circus;-inkscape-font-specification:'Circus, Medium';font-variant-ligatures:normal;font-variant-caps:normal;font-variant-numeric:normal;font-feature-settings:normal;text-align:start;writing-mode:lr-tb;text-anchor:start">Giant</flowPara></flowRoot>    <flowRoot
       xml:space="preserve"
       id="flowRoot42"
       style="font-style:normal;font-variant:normal;font-weight:normal;font-stretch:normal;font-size:192px;line-height:125%;font-family:'Only When I Do Fonts';-inkscape-font-specification:'Only When I Do Fonts, Normal';font-variant-ligatures:normal;font-variant-caps:normal;font-variant-numeric:normal;font-feature-settings:normal;text-align:start;letter-spacing:0px;word-spacing:0px;writing-mode:lr-tb;text-anchor:start;fill:#0000f9;fill-opacity:1;stroke:none;stroke-width:1px;stroke-linecap:butt;stroke-linejoin:miter;stroke-opacity:1"
       transform="matrix(0.26458334,0,0,0.26458334,-19.908467,-262.13136)"><flowRegion
         id="flowRegion44"
         style="font-style:normal;font-variant:normal;font-weight:normal;font-stretch:normal;font-size:192px;font-family:'Only When I Do Fonts';-inkscape-font-specification:'Only When I Do Fonts, Normal';font-variant-ligatures:normal;font-variant-caps:normal;font-variant-numeric:normal;font-feature-settings:normal;text-align:start;writing-mode:lr-tb;text-anchor:start;fill:#0000f9;fill-opacity:1"><rect
           id="rect46"
           width="701.27966"
           height="331.07623"
           x="231.75336"
           y="493.98862"
           style="font-style:normal;font-variant:normal;font-weight:normal;font-stretch:normal;font-size:192px;font-family:'Only When I Do Fonts';-inkscape-font-specification:'Only When I Do Fonts, Normal';font-variant-ligatures:normal;font-variant-caps:normal;font-variant-numeric:normal;font-feature-settings:normal;text-align:start;writing-mode:lr-tb;text-anchor:start;fill:#0000f9;fill-opacity:1" /></flowRegion><flowPara
         id="flowPara52">20,000</flowPara></flowRoot>    <flowRoot
       transform="matrix(0.26458334,0,0,0.26458334,-23.450429,-213.36145)"
       xml:space="preserve"
       id="flowRoot42-2"
       style="font-style:normal;font-variant:normal;font-weight:normal;font-stretch:normal;font-size:192px;line-height:125%;font-family:'Only When I Do Fonts';-inkscape-font-specification:'Only When I Do Fonts, Normal';font-variant-ligatures:normal;font-variant-caps:normal;font-variant-numeric:normal;font-feature-settings:normal;text-align:start;letter-spacing:0px;word-spacing:0px;writing-mode:lr-tb;text-anchor:start;fill:#0000fe;fill-opacity:1;stroke:none;stroke-width:1px;stroke-linecap:butt;stroke-linejoin:miter;stroke-opacity:1"><flowRegion
         id="flowRegion44-8"
         style="font-style:normal;font-variant:normal;font-weight:normal;font-stretch:normal;font-size:192px;font-family:'Only When I Do Fonts';-inkscape-font-specification:'Only When I Do Fonts, Normal';font-variant-ligatures:normal;font-variant-caps:normal;font-variant-numeric:normal;font-feature-settings:normal;text-align:start;writing-mode:lr-tb;text-anchor:start;fill:#0000fe;fill-opacity:1"><rect
           id="rect46-6"
           width="701.27966"
           height="331.07623"
           x="231.75336"
           y="493.98862"
           style="font-style:normal;font-variant:normal;font-weight:normal;font-stretch:normal;font-size:192px;font-family:'Only When I Do Fonts';-inkscape-font-specification:'Only When I Do Fonts, Normal';font-variant-ligatures:normal;font-variant-caps:normal;font-variant-numeric:normal;font-feature-settings:normal;text-align:start;writing-mode:lr-tb;text-anchor:start;fill:#0000fe;fill-opacity:1" /></flowRegion><flowPara
         id="flowPara78">LEDs</flowPara></flowRoot>    <flowRoot
       xml:space="preserve"
       id="flowRoot80"
       style="font-style:normal;font-weight:normal;font-size:40px;line-height:125%;font-family:sans-serif;letter-spacing:0px;word-spacing:0px;fill:#a4a100;fill-opacity:1;stroke:none;stroke-width:1px;stroke-linecap:butt;stroke-linejoin:miter;stroke-opacity:1"
       transform="matrix(0.26458334,0,0,0.26458334,301.01601,-313.09703)"><flowRegion
         id="flowRegion82"
         style="fill:#a4a100;fill-opacity:1"><rect
           id="rect84"
           width="1357.4125"
           height="472.53607"
           x="415.35016"
           y="1074.877"
           style="fill:#a4a100;fill-opacity:1" /></flowRegion><flowPara
         id="flowPara86"
         style="font-style:normal;font-variant:normal;font-weight:bold;font-stretch:normal;font-size:192px;font-family:'Script MT Bold';-inkscape-font-specification:'Script MT Bold, Bold';font-variant-ligatures:normal;font-variant-caps:normal;font-variant-numeric:normal;font-feature-settings:normal;text-align:start;writing-mode:lr-tb;text-anchor:start;fill:#a4a100;fill-opacity:1">Holiday</flowPara></flowRoot>    <flowRoot
       xml:space="preserve"
       id="flowRoot88"
       style="font-style:normal;font-variant:normal;font-weight:normal;font-stretch:normal;font-size:192px;line-height:125%;font-family:Amadeus;-inkscape-font-specification:'Amadeus, Normal';font-variant-ligatures:normal;font-variant-caps:normal;font-variant-numeric:normal;font-feature-settings:normal;text-align:start;letter-spacing:0px;word-spacing:0px;writing-mode:lr-tb;text-anchor:start;fill:#6464ba;fill-opacity:1;stroke:none;stroke-width:1px;stroke-linecap:butt;stroke-linejoin:miter;stroke-opacity:1"
       transform="matrix(0.26458334,0,0,0.26458334,-115.46911,-345.74692)"><flowRegion
         id="flowRegion90"
         style="font-style:normal;font-variant:normal;font-weight:normal;font-stretch:normal;font-size:192px;font-family:Amadeus;-inkscape-font-specification:'Amadeus, Normal';font-variant-ligatures:normal;font-variant-caps:normal;font-variant-numeric:normal;font-feature-settings:normal;text-align:start;writing-mode:lr-tb;text-anchor:start;fill:#6464ba;fill-opacity:1"><rect
           id="rect92"
           width="791.57318"
           height="355.15448"
           x="1333.3342"
           y="1107.9845"
           style="font-style:normal;font-variant:normal;font-weight:normal;font-stretch:normal;font-size:192px;font-family:Amadeus;-inkscape-font-specification:'Amadeus, Normal';font-variant-ligatures:normal;font-variant-caps:normal;font-variant-numeric:normal;font-feature-settings:normal;text-align:start;writing-mode:lr-tb;text-anchor:start;fill:#6464ba;fill-opacity:1" /></flowRegion><flowPara
         id="flowPara94">Musical</flowPara></flowRoot>    <text
       xml:space="preserve"
       style="font-style:normal;font-variant:normal;font-weight:bold;font-stretch:normal;font-size:42.91246414px;line-height:125%;font-family:'Script MT Bold';-inkscape-font-specification:'Script MT Bold, Bold';font-variant-ligatures:normal;font-variant-caps:normal;font-variant-numeric:normal;font-feature-settings:normal;text-align:start;letter-spacing:0px;word-spacing:0px;writing-mode:lr-tb;text-anchor:start;fill:#e38428;fill-opacity:1;stroke:none;stroke-width:0.22350241px;stroke-linecap:butt;stroke-linejoin:miter;stroke-opacity:1"
       x="99.827583"
       y="212.65486"
       id="text98"
       transform="scale(0.86153116,1.1607241)"><tspan
         sodipodi:role="line"
         id="tspan96"
         x="99.827583"
         y="212.65486"
         style="font-style:normal;font-variant:normal;font-weight:normal;font-stretch:normal;font-size:42.91246414px;font-family:Saloon;-inkscape-font-specification:'Saloon, Normal';font-variant-ligatures:normal;font-variant-caps:normal;font-variant-numeric:normal;font-feature-settings:normal;text-align:start;writing-mode:lr-tb;text-anchor:start;fill:#e38428;fill-opacity:1;stroke-width:0.22350241px">1252 Tumbleweed Dr.</tspan></text>
    <flowRoot
       xml:space="preserve"
       id="flowRoot100"
       style="font-style:normal;font-variant:normal;font-weight:bold;font-stretch:normal;font-size:192px;line-height:125%;font-family:'Script MT Bold';-inkscape-font-specification:'Script MT Bold, Bold';font-variant-ligatures:normal;font-variant-caps:normal;font-variant-numeric:normal;font-feature-settings:normal;text-align:start;letter-spacing:0px;word-spacing:0px;writing-mode:lr-tb;text-anchor:start;fill:#007c00;fill-opacity:1;stroke:none;stroke-width:1px;stroke-linecap:butt;stroke-linejoin:miter;stroke-opacity:1"
       transform="matrix(0.26458334,0,0,0.26458334,3.9816935,-107.64165)"><flowRegion
         id="flowRegion102"
         style="fill:#007c00;fill-opacity:1"><rect
           id="rect104"
           width="1324.3049"
           height="385.25232"
           x="1444.6963"
           y="478.9397"
           style="fill:#007c00;fill-opacity:1" /></flowRegion><flowPara
         id="flowPara106"
         style="font-style:normal;font-variant:normal;font-weight:normal;font-stretch:normal;font-size:192px;font-family:Marquee;-inkscape-font-specification:'Marquee, Normal';font-variant-ligatures:normal;font-variant-caps:normal;font-variant-numeric:normal;font-feature-settings:normal;text-align:start;writing-mode:lr-tb;text-anchor:start;fill:#007c00;fill-opacity:1">Light</flowPara></flowRoot>    <flowRoot
       xml:space="preserve"
       id="flowRoot108"
       style="font-style:normal;font-variant:normal;font-weight:bold;font-stretch:normal;font-size:192px;line-height:125%;font-family:'Script MT Bold';-inkscape-font-specification:'Script MT Bold, Bold';font-variant-ligatures:normal;font-variant-caps:normal;font-variant-numeric:normal;font-feature-settings:normal;text-align:start;letter-spacing:0px;word-spacing:0px;writing-mode:lr-tb;text-anchor:start;fill:#007f00;fill-opacity:1;stroke:none;stroke-width:1px;stroke-linecap:butt;stroke-linejoin:miter;stroke-opacity:1"
       transform="matrix(0.26458334,0,0,0.26458334,-73.263157,-124.36477)"><flowRegion
         id="flowRegion110"
         style="fill:#007f00;fill-opacity:1"><rect
           id="rect112"
           width="644.09375"
           height="279.90991"
           x="1730.6257"
           y="758.84961"
           style="fill:#007f00;fill-opacity:1" /></flowRegion><flowPara
         id="flowPara114"
         style="font-style:normal;font-variant:normal;font-weight:normal;font-stretch:normal;font-size:192px;font-family:Marquee;-inkscape-font-specification:'Marquee, Normal';font-variant-ligatures:normal;font-variant-caps:normal;font-variant-numeric:normal;font-feature-settings:normal;text-align:start;writing-mode:lr-tb;text-anchor:start;fill:#007f00;fill-opacity:1">Show</flowPara></flowRoot>  </g>
</svg>
