999
dxfrw 0.6.3
  0
SECTION
  2
HEADER
  9
$ACADVER
  1
AC1021
  9
$DWGCODEPAGE
  3
ANSI_1252
  9
$INSBASE
 10
0
 20
0
 30
0
  9
$EXTMIN
 10
-4.662936703425657e-015
 20
0
 30
0
  9
$EXTMAX
 10
33
 20
48
 30
0
  9
$LIMMIN
 10
0
 20
0
  9
$LIMMAX
 10
420
 20
297
  9
$ORTHOMODE
 70
    0
  9
$REGENMODE
 70
    1
  9
$FILLMODE
 70
    1
  9
$QTEXTMODE
 70
    0
  9
$MIRRTEXT
 70
    0
  9
$LTSCALE
 40
1
  9
$ATTMODE
 70
    0
  9
$TEXTSIZE
 40
2.5
  9
$TRACEWID
 40
15.68
  9
$TEXTSTYLE
  7
STANDARD
  9
$CLAYER
  8
Mounting Board
  9
$CELTYPE
  6
BYLAYER
  9
$CECOLOR
 62
  256
  9
$CELTSCALE
 40
1
  9
$DISPSILH
 70
    0
  9
$DIMSCALE
 40
1
  9
$DIMASZ
 40
0.1
  9
$DIMEXO
 40
0.025
  9
$DIMDLI
 40
3.75
  9
$DIMRND
 40
0
  9
$DIMDLE
 40
0
  9
$DIMEXE
 40
0.05
  9
$DIMTP
 40
0
  9
$DIMTM
 40
0
  9
$DIMTXT
 40
2
  9
$DIMCEN
 40
2.5
  9
$DIMTSZ
 40
0
  9
$DIMTOL
 70
    0
  9
$DIMLIM
 70
    0
  9
$DIMTIH
 70
    0
  9
$DIMTOH
 70
    0
  9
$DIMSE1
 70
    0
  9
$DIMSE2
 70
    0
  9
$DIMTAD
 70
    1
  9
$DIMZIN
 70
    8
  9
$DIMBLK
  1

  9
$DIMASO
 70
    1
  9
$DIMSHO
 70
    1
  9
$DIMPOST
  1

  9
$DIMAPOST
  1

  9
$DIMALT
 70
    0
  9
$DIMALTD
 70
    3
  9
$DIMALTF
 40
0.03937
  9
$DIMLFAC
 40
1
  9
$DIMTOFL
 70
    1
  9
$DIMTVP
 40
0
  9
$DIMTIX
 70
    0
  9
$DIMSOXD
 70
    0
  9
$DIMSAH
 70
    0
  9
$DIMBLK1
  1

  9
$DIMBLK2
  1

  9
$DIMSTYLE
  2
STANDARD
  9
$DIMCLRD
 70
    0
  9
$DIMCLRE
 70
    0
  9
$DIMCLRT
 70
    0
  9
$DIMTFAC
 40
1
  9
$DIMGAP
 40
0.025
  9
$DIMJUST
 70
    0
  9
$DIMSD1
 70
    0
  9
$DIMSD2
 70
    0
  9
$DIMTOLJ
 70
    0
  9
$DIMTZIN
 70
    8
  9
$DIMALTZ
 70
    0
  9
$DIMALTTZ
 70
    0
  9
$DIMUPT
 70
    0
  9
$DIMDEC
 70
    4
  9
$DIMTDEC
 70
    2
  9
$DIMALTU
 70
    2
  9
$DIMALTTD
 70
    3
  9
$DIMTXSTY
  7
standard
  9
$DIMAUNIT
 70
    0
  9
$DIMADEC
 70
    2
  9
$DIMALTRND
 40
0
  9
$DIMAZIN
 70
    0
  9
$DIMDSEP
 70
    0
  9
$DIMATFIT
 70
    3
  9
$DIMFRAC
 70
    0
  9
$DIMLDRBLK
  1
STANDARD
  9
$DIMLUNIT
 70
    2
  9
$DIMLWD
 70
   -2
  9
$DIMLWE
 70
   -2
  9
$DIMTMOVE
 70
    0
  9
$DIMFXL
 40
0.04
  9
$DIMFXLON
 70
    0
  9
$DIMJOGANG
 40
0.7854
  9
$DIMTFILL
 70
    0
  9
$DIMTFILLCLR
 70
    0
  9
$DIMARCSYM
 70
    0
  9
$DIMLTYPE
  6

  9
$DIMLTEX1
  6

  9
$DIMLTEX2
  6

  9
$LUNITS
 70
    4
  9
$LUPREC
 70
    2
  9
$SKETCHINC
 40
1
  9
$FILLETRAD
 40
0
  9
$AUNITS
 70
    0
  9
$AUPREC
 70
    0
  9
$MENU
  1
.
  9
$ELEVATION
 40
0
  9
$PELEVATION
 40
0
  9
$THICKNESS
 40
0
  9
$LIMCHECK
 70
    0
  9
$CHAMFERA
 40
0
  9
$CHAMFERB
 40
0
  9
$CHAMFERC
 40
0
  9
$CHAMFERD
 40
0
  9
$SKPOLY
 70
    0
  9
$USRTIMER
 70
    1
  9
$ANGBASE
 50
0
  9
$ANGDIR
 70
    0
  9
$PDMODE
 70
   34
  9
$PDSIZE
 40
0
  9
$PLINEWID
 40
0
  9
$SPLFRAME
 70
    0
  9
$SPLINETYPE
 70
    2
  9
$SPLINESEGS
 70
    8
  9
$HANDSEED
  5
20000
  9
$SURFTAB1
 70
    6
  9
$SURFTAB2
 70
    6
  9
$SURFTYPE
 70
    6
  9
$SURFU
 70
    6
  9
$SURFV
 70
    6
  9
$UCSBASE
  2

  9
$UCSNAME
  2

  9
$UCSORG
 10
0
 20
0
 30
0
  9
$UCSXDIR
 10
1
 20
0
 30
0
  9
$UCSYDIR
 10
0
 20
1
 30
0
  9
$UCSORTHOREF
  2

  9
$UCSORTHOVIEW
 70
    0
  9
$UCSORGTOP
 10
0
 20
0
 30
0
  9
$UCSORGBOTTOM
 10
0
 20
0
 30
0
  9
$UCSORGLEFT
 10
0
 20
0
 30
0
  9
$UCSORGRIGHT
 10
0
 20
0
 30
0
  9
$UCSORGFRONT
 10
0
 20
0
 30
0
  9
$UCSORGBACK
 10
0
 20
0
 30
0
  9
$PUCSBASE
  2

  9
$PUCSNAME
  2

  9
$PUCSORG
 10
0
 20
0
 30
0
  9
$PUCSXDIR
 10
1
 20
0
 30
0
  9
$PUCSYDIR
 10
0
 20
1
 30
0
  9
$PUCSORTHOREF
  2

  9
$PUCSORTHOVIEW
 70
    0
  9
$PUCSORGTOP
 10
0
 20
0
 30
0
  9
$PUCSORGBOTTOM
 10
0
 20
0
 30
0
  9
$PUCSORGLEFT
 10
0
 20
0
 30
0
  9
$PUCSORGRIGHT
 10
0
 20
0
 30
0
  9
$PUCSORGFRONT
 10
0
 20
0
 30
0
  9
$PUCSORGBACK
 10
0
 20
0
 30
0
  9
$USERI1
 70
    0
  9
$USERI2
 70
    0
  9
$USERI3
 70
    0
  9
$USERI4
 70
    0
  9
$USERI5
 70
    0
  9
$USERR1
 40
0
  9
$USERR2
 40
0
  9
$USERR3
 40
0
  9
$USERR4
 40
0
  9
$USERR5
 40
0
  9
$WORLDVIEW
 70
    1
  9
$SHADEDGE
 70
    3
  9
$SHADEDIF
 70
   70
  9
$TILEMODE
 70
    1
  9
$MAXACTVP
 70
   64
  9
$PINSBASE
 10
0
 20
0
 30
0
  9
$PLIMCHECK
 70
    0
  9
$PEXTMIN
 10
0
 20
0
 30
0
  9
$PEXTMAX
 10
0
 20
0
 30
0
  9
$GRIDMODE
 70
    1
  9
$SNAPSTYLE
 70
    0
  9
$GRIDUNIT
 10
1
 20
1
  9
$PLIMMIN
 10
0
 20
0
  9
$PLIMMAX
 10
19.68503937007874
 20
13.89763779527559
  9
$UNITMODE
 70
    0
  9
$VISRETAIN
 70
    1
  9
$PLINEGEN
 70
    0
  9
$PSLTSCALE
 70
    1
  9
$TREEDEPTH
 70
 3020
  9
$CMLSTYLE
  2
Standard
  9
$CMLJUST
 70
    0
  9
$CMLSCALE
 40
20
  9
$PROXYGRAPHICS
 70
    1
  9
$MEASUREMENT
 70
    1
  9
$CELWEIGHT
370
   -1
  9
$ENDCAPS
280
    0
  9
$JOINSTYLE
280
    0
  9
$LWDISPLAY
290
    0
  9
$INSUNITS
 70
    1
  9
$HYPERLINKBASE
  1

  9
$STYLESHEET
  1

  9
$XEDIT
290
    1
  9
$CEPSNTYPE
380
    0
  9
$PSTYLEMODE
290
    1
  9
$EXTNAMES
290
    1
  9
$PSVPSCALE
 40
1
  9
$OLESTARTUP
290
    0
  9
$SORTENTS
280
  127
  9
$INDEXCTL
280
    0
  9
$HIDETEXT
280
    1
  9
$XCLIPFRAME
290
    0
  9
$HALOGAP
280
    0
  9
$OBSCOLOR
 70
  257
  9
$OBSLTYPE
280
    0
  9
$INTERSECTIONDISPLAY
280
    0
  9
$INTERSECTIONCOLOR
 70
  257
  9
$DIMASSOC
280
    1
  9
$PROJECTNAME
  1

  9
$CAMERADISPLAY
290
    0
  9
$LENSLENGTH
 40
50
  9
$CAMERAHEIGHT
 40
0
  9
$STEPSPERSEC
 40
2
  9
$STEPSIZE
 40
50
  9
$3DDWFPREC
 40
2
  9
$PSOLWIDTH
 40
5
  9
$PSOLHEIGHT
 40
80
  9
$LOFTANG1
 40
1.570796326794897
  9
$LOFTANG2
 40
1.570796326794897
  9
$LOFTMAG1
 40
0
  9
$LOFTMAG2
 40
0
  9
$LOFTPARAM
 70
    7
  9
$LOFTNORMALS
280
    1
  9
$LATITUDE
 40
1
  9
$LONGITUDE
 40
1
  9
$NORTHDIRECTION
 40
0
  9
$TIMEZONE
 70
-8000
  9
$LIGHTGLYPHDISPLAY
280
    1
  9
$TILEMODELIGHTSYNCH
280
    1
  9
$SOLIDHIST
280
    1
  9
$SHOWHIST
280
    1
  9
$DWFFRAME
280
    2
  9
$DGNFRAME
280
    0
  9
$REALWORLDSCALE
290
    1
  9
$INTERFERECOLOR
 62
    1
  9
$CSHADOW
280
    0
  9
$SHADOWPLANELOCATION
 40
0
  0
ENDSEC
  0
SECTION
  2
CLASSES
  0
ENDSEC
  0
SECTION
  2
TABLES
  0
TABLE
  2
VPORT
  5
8
330
0
100
AcDbSymbolTable
 70
    1
  0
VPORT
  5
31
330
2
100
AcDbSymbolTableRecord
100
AcDbViewportTableRecord
  2
*ACTIVE
 70
    0
 10
0
 20
0
 11
1
 21
1
 12
50.46157029540537
 22
17.48301400755366
 13
0
 23
0
 14
10
 24
10
 15
1
 25
1
 16
0
 26
0
 36
1
 17
0
 27
0
 37
0
 40
44.26335338328615
 41
2.832572298325723
 42
50
 43
0
 44
0
 50
0
 51
0
 71
    0
 72
  100
 73
    1
 74
    3
 75
    0
 76
    1
 77
    0
 78
    0
281
    0
 65
    1
110
0
120
0
130
0
111
1
121
0
131
0
112
0
122
1
132
0
 79
    0
146
0
348
10020
 60
    3
 61
    5
292
1
282
    1
141
0
142
0
 63
  250
421
3358443
  0
ENDTAB
  0
TABLE
  2
LTYPE
  5
5
330
0
100
AcDbSymbolTable
 70
    4
  0
LTYPE
  5
14
330
5
100
AcDbSymbolTableRecord
100
AcDbLinetypeTableRecord
  2
ByBlock
 70
    0
  3

 72
   65
 73
    0
 40
0
  0
LTYPE
  5
15
330
5
100
AcDbSymbolTableRecord
100
AcDbLinetypeTableRecord
  2
ByLayer
 70
    0
  3

 72
   65
 73
    0
 40
0
  0
LTYPE
  5
16
330
5
100
AcDbSymbolTableRecord
100
AcDbLinetypeTableRecord
  2
Continuous
 70
    0
  3
Solid line
 72
   65
 73
    0
 40
0
  0
LTYPE
  5
32
330
5
100
AcDbSymbolTableRecord
100
AcDbLinetypeTableRecord
  2
DOT
 70
    0
  3
Dot . . . . . . . . . . . . . . . . . . . . . .
 72
   65
 73
    2
 40
6.35
 49
0
 74
    0
 49
-6.35
 74
    0
  0
LTYPE
  5
33
330
5
100
AcDbSymbolTableRecord
100
AcDbLinetypeTableRecord
  2
DOTTINY
 70
    0
  3
Dot (.15x) .....................................
 72
   65
 73
    2
 40
0.9525
 49
0
 74
    0
 49
-0.9525
 74
    0
  0
LTYPE
  5
34
330
5
100
AcDbSymbolTableRecord
100
AcDbLinetypeTableRecord
  2
DOT2
 70
    0
  3
Dot (.5x) .....................................
 72
   65
 73
    2
 40
3.175
 49
0
 74
    0
 49
-3.175
 74
    0
  0
LTYPE
  5
35
330
5
100
AcDbSymbolTableRecord
100
AcDbLinetypeTableRecord
  2
DOTX2
 70
    0
  3
Dot (2x) .  .  .  .  .  .  .  .  .  .  .  .  .
 72
   65
 73
    2
 40
12.7
 49
0
 74
    0
 49
-12.7
 74
    0
  0
LTYPE
  5
36
330
5
100
AcDbSymbolTableRecord
100
AcDbLinetypeTableRecord
  2
DASHED
 70
    0
  3
Dashed _ _ _ _ _ _ _ _ _ _ _ _ _ _ _ _ _
 72
   65
 73
    2
 40
19.05
 49
12.7
 74
    0
 49
-6.35
 74
    0
  0
LTYPE
  5
37
330
5
100
AcDbSymbolTableRecord
100
AcDbLinetypeTableRecord
  2
DASHEDTINY
 70
    0
  3
Dashed (.15x) _ _ _ _ _ _ _ _ _ _ _ _ _ _ _ _ _
 72
   65
 73
    2
 40
2.8575
 49
1.905
 74
    0
 49
-0.9525
 74
    0
  0
LTYPE
  5
38
330
5
100
AcDbSymbolTableRecord
100
AcDbLinetypeTableRecord
  2
DASHED2
 70
    0
  3
Dashed (.5x) _ _ _ _ _ _ _ _ _ _ _ _ _ _ _ _ _
 72
   65
 73
    2
 40
9.524999999999999
 49
6.35
 74
    0
 49
-3.175
 74
    0
  0
LTYPE
  5
39
330
5
100
AcDbSymbolTableRecord
100
AcDbLinetypeTableRecord
  2
DASHEDX2
 70
    0
  3
Dashed (2x) ____  ____  ____  ____  ____  ___
 72
   65
 73
    2
 40
38.09999999999999
 49
25.4
 74
    0
 49
-12.7
 74
    0
  0
LTYPE
  5
3A
330
5
100
AcDbSymbolTableRecord
100
AcDbLinetypeTableRecord
  2
DASHDOT
 70
    0
  3
Dash dot __ . __ . __ . __ . __ . __ . __ . __
 72
   65
 73
    4
 40
25.4
 49
12.7
 74
    0
 49
-6.35
 74
    0
 49
0
 74
    0
 49
-6.35
 74
    0
  0
LTYPE
  5
3B
330
5
100
AcDbSymbolTableRecord
100
AcDbLinetypeTableRecord
  2
DASHDOTTINY
 70
    0
  3
Dash dot (.15x) _._._._._._._._._._._._._._._.
 72
   65
 73
    4
 40
3.81
 49
1.905
 74
    0
 49
-0.9525
 74
    0
 49
0
 74
    0
 49
-0.9525
 74
    0
  0
LTYPE
  5
3C
330
5
100
AcDbSymbolTableRecord
100
AcDbLinetypeTableRecord
  2
DASHDOT2
 70
    0
  3
Dash dot (.5x) _._._._._._._._._._._._._._._.
 72
   65
 73
    4
 40
12.7
 49
6.35
 74
    0
 49
-3.175
 74
    0
 49
0
 74
    0
 49
-3.175
 74
    0
  0
LTYPE
  5
3D
330
5
100
AcDbSymbolTableRecord
100
AcDbLinetypeTableRecord
  2
DASHDOTX2
 70
    0
  3
Dash dot (2x) ____  .  ____  .  ____  .  ___
 72
   65
 73
    4
 40
50.8
 49
25.4
 74
    0
 49
-12.7
 74
    0
 49
0
 74
    0
 49
-12.7
 74
    0
  0
LTYPE
  5
3E
330
5
100
AcDbSymbolTableRecord
100
AcDbLinetypeTableRecord
  2
DIVIDE
 70
    0
  3
Divide ____ . . ____ . . ____ . . ____ . . ____
 72
   65
 73
    6
 40
31.75
 49
12.7
 74
    0
 49
-6.35
 74
    0
 49
0
 74
    0
 49
-6.35
 74
    0
 49
0
 74
    0
 49
-6.35
 74
    0
  0
LTYPE
  5
3F
330
5
100
AcDbSymbolTableRecord
100
AcDbLinetypeTableRecord
  2
DIVIDETINY
 70
    0
  3
Divide (.15x) __..__..__..__..__..__..__..__.._
 72
   65
 73
    6
 40
4.7625
 49
1.905
 74
    0
 49
-0.9525
 74
    0
 49
0
 74
    0
 49
-0.9525
 74
    0
 49
0
 74
    0
 49
-0.9525
 74
    0
  0
LTYPE
  5
40
330
5
100
AcDbSymbolTableRecord
100
AcDbLinetypeTableRecord
  2
DIVIDE2
 70
    0
  3
Divide (.5x) __..__..__..__..__..__..__..__.._
 72
   65
 73
    6
 40
15.875
 49
6.35
 74
    0
 49
-3.175
 74
    0
 49
0
 74
    0
 49
-3.175
 74
    0
 49
0
 74
    0
 49
-3.175
 74
    0
  0
LTYPE
  5
41
330
5
100
AcDbSymbolTableRecord
100
AcDbLinetypeTableRecord
  2
DIVIDEX2
 70
    0
  3
Divide (2x) ________  .  .  ________  .  .  _
 72
   65
 73
    6
 40
63.5
 49
25.4
 74
    0
 49
-12.7
 74
    0
 49
0
 74
    0
 49
-12.7
 74
    0
 49
0
 74
    0
 49
-12.7
 74
    0
  0
LTYPE
  5
42
330
5
100
AcDbSymbolTableRecord
100
AcDbLinetypeTableRecord
  2
BORDER
 70
    0
  3
Border __ __ . __ __ . __ __ . __ __ . __ __ .
 72
   65
 73
    6
 40
44.45
 49
12.7
 74
    0
 49
-6.35
 74
    0
 49
12.7
 74
    0
 49
-6.35
 74
    0
 49
0
 74
    0
 49
-6.35
 74
    0
  0
LTYPE
  5
43
330
5
100
AcDbSymbolTableRecord
100
AcDbLinetypeTableRecord
  2
BORDERTINY
 70
    0
  3
Border (.15x) __.__.__.__.__.__.__.__.__.__.__.
 72
   65
 73
    6
 40
6.6675
 49
1.905
 74
    0
 49
-0.9525
 74
    0
 49
1.905
 74
    0
 49
-0.9525
 74
    0
 49
0
 74
    0
 49
-0.9525
 74
    0
  0
LTYPE
  5
44
330
5
100
AcDbSymbolTableRecord
100
AcDbLinetypeTableRecord
  2
BORDER2
 70
    0
  3
Border (.5x) __.__.__.__.__.__.__.__.__.__.__.
 72
   65
 73
    6
 40
22.225
 49
6.35
 74
    0
 49
-3.175
 74
    0
 49
6.35
 74
    0
 49
-3.175
 74
    0
 49
0
 74
    0
 49
-3.175
 74
    0
  0
LTYPE
  5
45
330
5
100
AcDbSymbolTableRecord
100
AcDbLinetypeTableRecord
  2
BORDERX2
 70
    0
  3
Border (2x) ____  ____  .  ____  ____  .  ___
 72
   65
 73
    6
 40
88.89999999999999
 49
25.4
 74
    0
 49
-12.7
 74
    0
 49
25.4
 74
    0
 49
-12.7
 74
    0
 49
0
 74
    0
 49
-12.7
 74
    0
  0
LTYPE
  5
46
330
5
100
AcDbSymbolTableRecord
100
AcDbLinetypeTableRecord
  2
CENTER
 70
    0
  3
Center ____ _ ____ _ ____ _ ____ _ ____ _ ____
 72
   65
 73
    4
 40
50.8
 49
31.75
 74
    0
 49
-6.35
 74
    0
 49
6.35
 74
    0
 49
-6.35
 74
    0
  0
LTYPE
  5
47
330
5
100
AcDbSymbolTableRecord
100
AcDbLinetypeTableRecord
  2
CENTERTINY
 70
    0
  3
Center (.15x) ___ _ ___ _ ___ _ ___ _ ___ _ ___
 72
   65
 73
    4
 40
7.62
 49
4.7625
 74
    0
 49
-0.9525
 74
    0
 49
0.9525
 74
    0
 49
-0.9525
 74
    0
  0
LTYPE
  5
48
330
5
100
AcDbSymbolTableRecord
100
AcDbLinetypeTableRecord
  2
CENTER2
 70
    0
  3
Center (.5x) ___ _ ___ _ ___ _ ___ _ ___ _ ___
 72
   65
 73
    4
 40
28.575
 49
19.05
 74
    0
 49
-3.175
 74
    0
 49
3.175
 74
    0
 49
-3.175
 74
    0
  0
LTYPE
  5
49
330
5
100
AcDbSymbolTableRecord
100
AcDbLinetypeTableRecord
  2
CENTERX2
 70
    0
  3
Center (2x) ________  __  ________  __  _____
 72
   65
 73
    4
 40
101.6
 49
63.5
 74
    0
 49
-12.7
 74
    0
 49
12.7
 74
    0
 49
-12.7
 74
    0
  0
ENDTAB
  0
TABLE
  2
LAYER
  5
2
330
0
100
AcDbSymbolTable
 70
    1
  0
LAYER
  5
4A
330
2
100
AcDbSymbolTableRecord
100
AcDbLayerTableRecord
  2
+12V DC
 70
    0
 62
    2
  6
CONTINUOUS
370
   13
390
F
  0
LAYER
  5
4B
330
2
100
AcDbSymbolTableRecord
100
AcDbLayerTableRecord
  2
+5V DC
 70
    0
 62
    1
  6
CONTINUOUS
370
   13
390
F
  0
LAYER
  5
4C
330
2
100
AcDbSymbolTableRecord
100
AcDbLayerTableRecord
  2
-12V DC Controlled Ground
 70
    0
 62
   58
  6
CONTINUOUS
370
   13
390
F
  0
LAYER
  5
10
330
2
100
AcDbSymbolTableRecord
100
AcDbLayerTableRecord
  2
0
 70
    0
 62
  254
420
13684944
  6
CONTINUOUS
370
    0
390
F
  0
LAYER
  5
4D
330
2
100
AcDbSymbolTableRecord
100
AcDbLayerTableRecord
  2
0V DC Ground
 70
    0
 62
    7
  6
CONTINUOUS
370
   13
390
F
  0
LAYER
  5
4E
330
2
100
AcDbSymbolTableRecord
100
AcDbLayerTableRecord
  2
120V AC Controlled
 70
    0
 62
   28
420
3149840
  6
CONTINUOUS
370
   13
390
F
  0
LAYER
  5
4F
330
2
100
AcDbSymbolTableRecord
100
AcDbLayerTableRecord
  2
120V AC Cord
 70
    0
 62
   20
420
16733440
  6
CONTINUOUS
370
   13
390
F
  0
LAYER
  5
50
330
2
100
AcDbSymbolTableRecord
100
AcDbLayerTableRecord
  2
120V AC Ground
 70
    0
 62
   96
420
32768
  6
CONTINUOUS
370
   13
390
F
  0
LAYER
  5
51
330
2
100
AcDbSymbolTableRecord
100
AcDbLayerTableRecord
  2
120V AC Hot
 70
    0
 62
   19
420
2105376
  6
CONTINUOUS
370
   13
390
F
  0
LAYER
  5
52
330
2
100
AcDbSymbolTableRecord
100
AcDbLayerTableRecord
  2
120V AC Neutral
 70
    0
 62
  254
420
14737632
  6
CONTINUOUS
370
   13
390
F
  0
LAYER
  5
53
330
2
100
AcDbSymbolTableRecord
100
AcDbLayerTableRecord
  2
Center Lines
 70
    0
 62
   40
420
16755200
  6
CENTERTINY
370
   13
390
F
1001
LibreCad
1070
    1
  0
LAYER
  5
54
330
2
100
AcDbSymbolTableRecord
100
AcDbLayerTableRecord
  2
Controllers
 70
    0
 62
    3
  6
CONTINUOUS
370
   13
390
F
  0
LAYER
  5
55
330
2
100
AcDbSymbolTableRecord
100
AcDbLayerTableRecord
  2
DMX
 70
    0
 62
  136
420
32896
  6
CONTINUOUS
370
    0
390
F
  0
LAYER
  5
56
330
2
100
AcDbSymbolTableRecord
100
AcDbLayerTableRecord
  2
Dimensions
 70
    0
 62
  211
420
16755455
  6
CONTINUOUS
370
   13
390
F
1001
LibreCad
1070
    1
  0
LAYER
  5
57
330
2
100
AcDbSymbolTableRecord
100
AcDbLayerTableRecord
  2
Ethernet
 70
    0
 62
    4
  6
CONTINUOUS
370
   13
390
F
  0
LAYER
  5
58
330
2
100
AcDbSymbolTableRecord
100
AcDbLayerTableRecord
  2
Mounting Board
 70
    0
 62
  255
420
16711422
  6
CONTINUOUS
370
   13
390
F
  0
LAYER
  5
59
330
2
100
AcDbSymbolTableRecord
100
AcDbLayerTableRecord
  2
Names & Labels
 70
    0
 62
    7
  6
CONTINUOUS
370
    0
390
F
  0
LAYER
  5
5A
330
2
100
AcDbSymbolTableRecord
100
AcDbLayerTableRecord
  2
Net-Amp-Xmit
 70
    0
 62
  176
420
  128
  6
CONTINUOUS
370
   13
390
F
  0
LAYER
  5
5B
330
2
100
AcDbSymbolTableRecord
100
AcDbLayerTableRecord
  2
Pixel Data
 70
    0
 62
    6
  6
CONTINUOUS
370
   13
390
F
  0
LAYER
  5
5C
330
2
100
AcDbSymbolTableRecord
100
AcDbLayerTableRecord
  2
Power Devices
 70
    0
 62
    5
  6
CONTINUOUS
370
   13
390
F
  0
LAYER
  5
5D
330
2
100
AcDbSymbolTableRecord
100
AcDbLayerTableRecord
  2
Raceway
 70
    0
 62
  216
420
8388736
  6
CONTINUOUS
370
   13
390
F
  0
LAYER
  5
5E
330
2
100
AcDbSymbolTableRecord
100
AcDbLayerTableRecord
  2
Wire Misc. Other
 70
    0
 62
  200
420
11141375
  6
CONTINUOUS
370
   13
390
F
  0
ENDTAB
  0
TABLE
  2
STYLE
  5
3
330
0
100
AcDbSymbolTable
 70
    3
  0
STYLE
  5
5F
330
2
100
AcDbSymbolTableRecord
100
AcDbTextStyleTableRecord
  2
iso
 70
    0
 40
0
 41
1
 50
0
 71
    0
 42
1
  3
iso
  4

  0
STYLE
  5
60
330
2
100
AcDbSymbolTableRecord
100
AcDbTextStyleTableRecord
  2
Standard
 70
    0
 40
0
 41
1
 50
0
 71
    0
 42
1
  3
txt
  4

  0
ENDTAB
  0
TABLE
  2
VIEW
  5
6
330
0
100
AcDbSymbolTable
 70
    0
  0
ENDTAB
  0
TABLE
  2
UCS
  5
7
330
0
100
AcDbSymbolTable
 70
    0
  0
ENDTAB
  0
TABLE
  2
APPID
  5
9
330
0
100
AcDbSymbolTable
 70
    1
  0
APPID
  5
12
330
9
100
AcDbSymbolTableRecord
100
AcDbRegAppTableRecord
  2
ACAD
 70
    0
  0
APPID
  5
61
330
9
100
AcDbSymbolTableRecord
100
AcDbRegAppTableRecord
  2
LibreCad
 70
    0
  0
ENDTAB
  0
TABLE
  2
DIMSTYLE
  5
A
330
0
100
AcDbSymbolTable
 70
    1
100
AcDbDimStyleTable
 71
    1
  0
DIMSTYLE
105
62
330
A
100
AcDbSymbolTableRecord
100
AcDbDimStyleTableRecord
  2
Standard
 70
    0
 40
1
 41
0.1
 42
0.025
 43
0.38
 44
0.05
 45
0
 46
0
 47
0
 48
0
 49
0.04
140
2
141
0.09
142
0
143
25.4
144
1
145
0
146
1
147
0.025
148
0
 71
    0
 72
    0
 73
    0
 74
    1
 75
    0
 76
    0
 77
    0
 78
    8
 79
    0
170
    0
171
    2
172
    0
173
    0
174
    0
175
    0
176
    0
177
    0
178
    0
179
    2
271
    4
272
    4
273
    2
274
    2
275
    0
276
    0
277
    2
278
    0
279
    0
280
    0
281
    0
282
    0
283
    1
284
    0
285
    0
286
    0
288
    0
289
    3
340
standard
341

371
   -2
372
   -2
  0
ENDTAB
  0
TABLE
  2
BLOCK_RECORD
  5
1
330
0
100
AcDbSymbolTable
 70
    2
  0
BLOCK_RECORD
  5
1F
330
1
100
AcDbSymbolTableRecord
100
AcDbBlockTableRecord
  2
*Model_Space
 70
    0
280
    1
281
    0
  0
BLOCK_RECORD
  5
1E
330
1
100
AcDbSymbolTableRecord
100
AcDbBlockTableRecord
  2
*Paper_Space
 70
    0
280
    1
281
    0
  0
BLOCK_RECORD
  5
63
330
1
100
AcDbSymbolTableRecord
100
AcDbBlockTableRecord
  2
_Mounting Board
 70
    0
280
    1
281
    0
  0
BLOCK_RECORD
  5
66
330
1
100
AcDbSymbolTableRecord
100
AcDbBlockTableRecord
  2
Ctlr- AlphaPix 16
 70
    0
280
    1
281
    0
  0
BLOCK_RECORD
  5
69
330
1
100
AcDbSymbolTableRecord
100
AcDbBlockTableRecord
  2
Ctlr- AlphaPix 4
 70
    0
280
    1
281
    0
  0
BLOCK_RECORD
  5
6C
330
1
100
AcDbSymbolTableRecord
100
AcDbBlockTableRecord
  2
Ctlr- LOR DC 24
 70
    0
280
    1
281
    0
  0
BLOCK_RECORD
  5
6F
330
1
100
AcDbSymbolTableRecord
100
AcDbBlockTableRecord
  2
Ctlr- Chinese DC 27
 70
    0
280
    1
281
    0
  0
BLOCK_RECORD
  5
72
330
1
100
AcDbSymbolTableRecord
100
AcDbBlockTableRecord
  2
Pwr- DC Power Supply
 70
    0
280
    1
281
    0
  0
BLOCK_RECORD
  5
75
330
1
100
AcDbSymbolTableRecord
100
AcDbBlockTableRecord
  2
Pwr- Powah Centah
 70
    0
280
    1
281
    0
  0
BLOCK_RECORD
  5
78
330
1
100
AcDbSymbolTableRecord
100
AcDbBlockTableRecord
  2
Pwr- Power Strip
 70
    0
280
    1
281
    0
  0
BLOCK_RECORD
  5
7B
330
1
100
AcDbSymbolTableRecord
100
AcDbBlockTableRecord
  2
Ctlr- Falcon F16V3
 70
    0
280
    1
281
    0
  0
BLOCK_RECORD
  5
7E
330
1
100
AcDbSymbolTableRecord
100
AcDbBlockTableRecord
  2
Ctlr- Chinese AC 12
 70
    0
280
    1
281
    0
  0
BLOCK_RECORD
  5
81
330
1
100
AcDbSymbolTableRecord
100
AcDbBlockTableRecord
  2
Wire- Raceway
 70
    0
280
    1
281
    0
  0
BLOCK_RECORD
  5
84
330
1
100
AcDbSymbolTableRecord
100
AcDbBlockTableRecord
  2
Dev- Amplifier
 70
    0
280
    1
281
    0
  0
BLOCK_RECORD
  5
87
330
1
100
AcDbSymbolTableRecord
100
AcDbBlockTableRecord
  2
Dev- Network Switch
 70
    0
280
    1
281
    0
  0
BLOCK_RECORD
  5
8A
330
1
100
AcDbSymbolTableRecord
100
AcDbBlockTableRecord
  2
Dev- Transmitter
 70
    0
280
    1
281
    0
  0
BLOCK_RECORD
  5
8D
330
1
100
AcDbSymbolTableRecord
100
AcDbBlockTableRecord
  2
Pwr- Neutral Power Block
 70
    0
280
    1
281
    0
  0
BLOCK_RECORD
  5
90
330
1
100
AcDbSymbolTableRecord
100
AcDbBlockTableRecord
  2
Pwr- DC Fusebox 5V
 70
    0
280
    1
281
    0
  0
BLOCK_RECORD
  5
93
330
1
100
AcDbSymbolTableRecord
100
AcDbBlockTableRecord
  2
Pwr- DC Fusebox 12V
 70
    0
280
    1
281
    0
  0
BLOCK_RECORD
  5
96
330
1
100
AcDbSymbolTableRecord
100
AcDbBlockTableRecord
  2
Pwr- Neutral Power Block-0
 70
    0
280
    1
281
    0
  0
BLOCK_RECORD
  5
99
330
1
100
AcDbSymbolTableRecord
100
AcDbBlockTableRecord
  2
Wire- Raceway-0
 70
    0
280
    1
281
    0
  0
ENDTAB
  0
ENDSEC
  0
SECTION
  2
BLOCKS
  0
BLOCK
  5
20
330
1F
100
AcDbEntity
  8
0
100
AcDbBlockBegin
  2
*Model_Space
 70
    0
 10
0
 20
0
 30
0
  3
*Model_Space
  1

  0
ENDBLK
  5
21
330
1F
100
AcDbEntity
  8
0
100
AcDbBlockEnd
  0
BLOCK
  5
1C
330
1B
100
AcDbEntity
  8
0
100
AcDbBlockBegin
  2
*Paper_Space
 70
    0
 10
0
 20
0
 30
0
  3
*Paper_Space
  1

  0
ENDBLK
  5
1D
330
1F
100
AcDbEntity
  8
0
100
AcDbBlockEnd
  0
BLOCK
  5
64
330
63
100
AcDbEntity
  8
0
100
AcDbBlockBegin
  2
_Mounting Board
 70
    0
 10
0
 20
0
  3
_Mounting Board
  1

  0
LINE
  5
9C
100
AcDbEntity
  8
Mounting Board
  6
ByLayer
 62
  256
370
   -1
100
AcDbLine
 10
0
 20
0
 11
32
 21
0
  0
LINE
  5
9D
100
AcDbEntity
  8
Mounting Board
  6
ByLayer
 62
  256
370
   -1
100
AcDbLine
 10
32
 20
0
 11
32
 21
48
  0
LINE
  5
9E
100
AcDbEntity
  8
Mounting Board
  6
ByLayer
 62
  256
370
   -1
100
AcDbLine
 10
32
 20
48
 11
0
 21
48
  0
LINE
  5
9F
100
AcDbEntity
  8
Mounting Board
  6
ByLayer
 62
  256
370
   -1
100
AcDbLine
 10
0
 20
48
 11
0
 21
0
  0
ENDBLK
  5
65
330
63
100
AcDbEntity
  8
0
100
AcDbBlockEnd
  0
BLOCK
  5
67
330
66
100
AcDbEntity
  8
0
100
AcDbBlockBegin
  2
Ctlr- AlphaPix 16
 70
    0
 10
0
 20
0
  3
Ctlr- AlphaPix 16
  1

  0
LINE
  5
A0
100
AcDbEntity
  8
Controllers
  6
ByLayer
 62
  256
370
   -1
100
AcDbLine
 10
0
 20
0
 11
8
 21
0
  0
LINE
  5
A1
100
AcDbEntity
  8
Controllers
  6
ByLayer
 62
  256
370
   -1
100
AcDbLine
 10
8
 20
0
 11
8
 21
4.5
  0
LINE
  5
A2
100
AcDbEntity
  8
Controllers
  6
ByLayer
 62
  256
370
   -1
100
AcDbLine
 10
8
 20
4.5
 11
0
 21
4.5
  0
LINE
  5
A3
100
AcDbEntity
  8
Controllers
  6
ByLayer
 62
  256
370
   -1
100
AcDbLine
 10
0
 20
4.5
 11
0
 21
0
  0
MTEXT
  5
A4
100
AcDbEntity
  8
Controllers
  6
ByLayer
 62
  256
370
   -1
100
AcDbMText
 10
3.986111111111097
 20
2.7
 30
0
 40
0.75
 41
5.645833333333449
 71
    2
 72
    1
  1
AlphaPix 16
  7
iso
210
0
220
0
230
1
 50
0
 73
    2
 44
1
  0
LINE
  5
A5
100
AcDbEntity
  8
0V DC Ground
  6
ByLayer
 62
  256
370
   -1
100
AcDbLine
 10
0.1999999999999998
 20
0.1
 11
0.1999999999999998
 21
-0.2
  0
LINE
  5
A6
100
AcDbEntity
  8
Pixel Data
  6
ByLayer
 62
  256
370
   -1
100
AcDbLine
 10
0.3999999999999999
 20
0.1
 11
0.3999999999999999
 21
-0.2
  0
LINE
  5
A7
100
AcDbEntity
  8
+5V DC
  6
ByLayer
 62
  256
370
   -1
100
AcDbLine
 10
0.7999999999999998
 20
0.1
 11
0.7999999999999998
 21
-0.2
  0
LINE
  5
A8
100
AcDbEntity
  8
0V DC Ground
  6
ByLayer
 62
  256
370
   -1
100
AcDbLine
 10
1.2
 20
0.1
 11
1.2
 21
-0.2
  0
LINE
  5
A9
100
AcDbEntity
  8
Pixel Data
  6
ByLayer
 62
  256
370
   -1
100
AcDbLine
 10
1.4
 20
0.1
 11
1.4
 21
-0.2
  0
LINE
  5
AA
100
AcDbEntity
  8
+5V DC
  6
ByLayer
 62
  256
370
   -1
100
AcDbLine
 10
1.8
 20
0.1
 11
1.8
 21
-0.2
  0
LINE
  5
AB
100
AcDbEntity
  8
0V DC Ground
  6
ByLayer
 62
  256
370
   -1
100
AcDbLine
 10
2.2
 20
0.1
 11
2.2
 21
-0.2
  0
LINE
  5
AC
100
AcDbEntity
  8
Pixel Data
  6
ByLayer
 62
  256
370
   -1
100
AcDbLine
 10
2.4
 20
0.1
 11
2.4
 21
-0.2
  0
LINE
  5
AD
100
AcDbEntity
  8
+5V DC
  6
ByLayer
 62
  256
370
   -1
100
AcDbLine
 10
2.8
 20
0.1
 11
2.8
 21
-0.2
  0
LINE
  5
AE
100
AcDbEntity
  8
0V DC Ground
  6
ByLayer
 62
  256
370
   -1
100
AcDbLine
 10
3.2
 20
0.1
 11
3.2
 21
-0.2
  0
LINE
  5
AF
100
AcDbEntity
  8
Pixel Data
  6
ByLayer
 62
  256
370
   -1
100
AcDbLine
 10
3.4
 20
0.1
 11
3.4
 21
-0.2
  0
LINE
  5
B0
100
AcDbEntity
  8
+5V DC
  6
ByLayer
 62
  256
370
   -1
100
AcDbLine
 10
3.8
 20
0.1
 11
3.8
 21
-0.2
  0
LINE
  5
B1
100
AcDbEntity
  8
0V DC Ground
  6
ByLayer
 62
  256
370
   -1
100
AcDbLine
 10
4.2
 20
0.1
 11
4.2
 21
-0.2
  0
LINE
  5
B2
100
AcDbEntity
  8
Pixel Data
  6
ByLayer
 62
  256
370
   -1
100
AcDbLine
 10
4.4
 20
0.1
 11
4.4
 21
-0.2
  0
LINE
  5
B3
100
AcDbEntity
  8
+5V DC
  6
ByLayer
 62
  256
370
   -1
100
AcDbLine
 10
4.8
 20
0.1
 11
4.8
 21
-0.2
  0
LINE
  5
B4
100
AcDbEntity
  8
0V DC Ground
  6
ByLayer
 62
  256
370
   -1
100
AcDbLine
 10
5.2
 20
0.1
 11
5.2
 21
-0.2
  0
LINE
  5
B5
100
AcDbEntity
  8
Pixel Data
  6
ByLayer
 62
  256
370
   -1
100
AcDbLine
 10
5.4
 20
0.1
 11
5.4
 21
-0.2
  0
LINE
  5
B6
100
AcDbEntity
  8
+5V DC
  6
ByLayer
 62
  256
370
   -1
100
AcDbLine
 10
5.8
 20
0.1
 11
5.8
 21
-0.2
  0
LINE
  5
B7
100
AcDbEntity
  8
0V DC Ground
  6
ByLayer
 62
  256
370
   -1
100
AcDbLine
 10
6.2
 20
0.1
 11
6.2
 21
-0.2
  0
LINE
  5
B8
100
AcDbEntity
  8
Pixel Data
  6
ByLayer
 62
  256
370
   -1
100
AcDbLine
 10
6.4
 20
0.1
 11
6.4
 21
-0.2
  0
LINE
  5
B9
100
AcDbEntity
  8
+5V DC
  6
ByLayer
 62
  256
370
   -1
100
AcDbLine
 10
6.8
 20
0.1
 11
6.8
 21
-0.2
  0
LINE
  5
BA
100
AcDbEntity
  8
0V DC Ground
  6
ByLayer
 62
  256
370
   -1
100
AcDbLine
 10
7.2
 20
0.1
 11
7.2
 21
-0.2
  0
LINE
  5
BB
100
AcDbEntity
  8
Pixel Data
  6
ByLayer
 62
  256
370
   -1
100
AcDbLine
 10
7.4
 20
0.1
 11
7.4
 21
-0.2
  0
LINE
  5
BC
100
AcDbEntity
  8
+5V DC
  6
ByLayer
 62
  256
370
   -1
100
AcDbLine
 10
7.8
 20
0.1
 11
7.8
 21
-0.2
  0
LINE
  5
BD
100
AcDbEntity
  8
0V DC Ground
  6
ByLayer
 62
  256
370
   -1
100
AcDbLine
 10
7.800000000000001
 20
4.4
 11
7.800000000000001
 21
4.7
  0
LINE
  5
BE
100
AcDbEntity
  8
Pixel Data
  6
ByLayer
 62
  256
370
   -1
100
AcDbLine
 10
7.600000000000001
 20
4.4
 11
7.600000000000001
 21
4.7
  0
LINE
  5
BF
100
AcDbEntity
  8
+5V DC
  6
ByLayer
 62
  256
370
   -1
100
AcDbLine
 10
7.2
 20
4.4
 11
7.2
 21
4.7
  0
LINE
  5
C0
100
AcDbEntity
  8
0V DC Ground
  6
ByLayer
 62
  256
370
   -1
100
AcDbLine
 10
6.800000000000001
 20
4.4
 11
6.800000000000001
 21
4.7
  0
LINE
  5
C1
100
AcDbEntity
  8
Pixel Data
  6
ByLayer
 62
  256
370
   -1
100
AcDbLine
 10
6.600000000000001
 20
4.4
 11
6.600000000000001
 21
4.7
  0
LINE
  5
C2
100
AcDbEntity
  8
+5V DC
  6
ByLayer
 62
  256
370
   -1
100
AcDbLine
 10
6.2
 20
4.4
 11
6.2
 21
4.7
  0
LINE
  5
C3
100
AcDbEntity
  8
0V DC Ground
  6
ByLayer
 62
  256
370
   -1
100
AcDbLine
 10
5.800000000000001
 20
4.4
 11
5.800000000000001
 21
4.7
  0
LINE
  5
C4
100
AcDbEntity
  8
Pixel Data
  6
ByLayer
 62
  256
370
   -1
100
AcDbLine
 10
5.600000000000001
 20
4.4
 11
5.600000000000001
 21
4.7
  0
LINE
  5
C5
100
AcDbEntity
  8
+5V DC
  6
ByLayer
 62
  256
370
   -1
100
AcDbLine
 10
5.2
 20
4.4
 11
5.2
 21
4.7
  0
LINE
  5
C6
100
AcDbEntity
  8
0V DC Ground
  6
ByLayer
 62
  256
370
   -1
100
AcDbLine
 10
4.800000000000001
 20
4.4
 11
4.800000000000001
 21
4.7
  0
LINE
  5
C7
100
AcDbEntity
  8
Pixel Data
  6
ByLayer
 62
  256
370
   -1
100
AcDbLine
 10
4.600000000000001
 20
4.4
 11
4.600000000000001
 21
4.7
  0
LINE
  5
C8
100
AcDbEntity
  8
+5V DC
  6
ByLayer
 62
  256
370
   -1
100
AcDbLine
 10
4.2
 20
4.4
 11
4.2
 21
4.7
  0
LINE
  5
C9
100
AcDbEntity
  8
0V DC Ground
  6
ByLayer
 62
  256
370
   -1
100
AcDbLine
 10
3.8
 20
4.4
 11
3.8
 21
4.7
  0
LINE
  5
CA
100
AcDbEntity
  8
Pixel Data
  6
ByLayer
 62
  256
370
   -1
100
AcDbLine
 10
3.600000000000001
 20
4.4
 11
3.600000000000001
 21
4.7
  0
LINE
  5
CB
100
AcDbEntity
  8
+5V DC
  6
ByLayer
 62
  256
370
   -1
100
AcDbLine
 10
3.2
 20
4.4
 11
3.2
 21
4.7
  0
LINE
  5
CC
100
AcDbEntity
  8
0V DC Ground
  6
ByLayer
 62
  256
370
   -1
100
AcDbLine
 10
2.8
 20
4.4
 11
2.8
 21
4.7
  0
LINE
  5
CD
100
AcDbEntity
  8
Pixel Data
  6
ByLayer
 62
  256
370
   -1
100
AcDbLine
 10
2.600000000000001
 20
4.4
 11
2.600000000000001
 21
4.7
  0
LINE
  5
CE
100
AcDbEntity
  8
+5V DC
  6
ByLayer
 62
  256
370
   -1
100
AcDbLine
 10
2.2
 20
4.4
 11
2.2
 21
4.7
  0
LINE
  5
CF
100
AcDbEntity
  8
0V DC Ground
  6
ByLayer
 62
  256
370
   -1
100
AcDbLine
 10
1.8
 20
4.4
 11
1.8
 21
4.7
  0
LINE
  5
D0
100
AcDbEntity
  8
Pixel Data
  6
ByLayer
 62
  256
370
   -1
100
AcDbLine
 10
1.600000000000001
 20
4.4
 11
1.600000000000001
 21
4.7
  0
LINE
  5
D1
100
AcDbEntity
  8
+5V DC
  6
ByLayer
 62
  256
370
   -1
100
AcDbLine
 10
1.2
 20
4.4
 11
1.2
 21
4.7
  0
LINE
  5
D2
100
AcDbEntity
  8
0V DC Ground
  6
ByLayer
 62
  256
370
   -1
100
AcDbLine
 10
0.8
 20
4.4
 11
0.8
 21
4.7
  0
LINE
  5
D3
100
AcDbEntity
  8
Pixel Data
  6
ByLayer
 62
  256
370
   -1
100
AcDbLine
 10
0.6000000000000008
 20
4.4
 11
0.6000000000000008
 21
4.7
  0
LINE
  5
D4
100
AcDbEntity
  8
+5V DC
  6
ByLayer
 62
  256
370
   -1
100
AcDbLine
 10
0.1999999999999995
 20
4.4
 11
0.1999999999999995
 21
4.7
  0
MTEXT
  5
D5
100
AcDbEntity
  8
Pixel Data
  6
ByLayer
 62
  256
370
   -1
100
AcDbMText
 10
0.6000000000000001
 20
4.3
 30
0
 40
0.5
 41
0.2222222222222222
 71
    2
 72
    1
  1
8
  7
iso
210
0
220
0
230
1
 50
0
 73
    2
 44
1
  0
MTEXT
  5
D6
100
AcDbEntity
  8
Pixel Data
  6
ByLayer
 62
  256
370
   -1
100
AcDbMText
 10
1.6
 20
4.3
 30
0
 40
0.5
 41
0.2222222222222222
 71
    2
 72
    1
  1
7
  7
iso
210
0
220
0
230
1
 50
0
 73
    2
 44
1
  0
MTEXT
  5
D7
100
AcDbEntity
  8
Pixel Data
  6
ByLayer
 62
  256
370
   -1
100
AcDbMText
 10
2.6
 20
4.3
 30
0
 40
0.5
 41
0.2222222222222532
 71
    2
 72
    1
  1
6
  7
iso
210
0
220
0
230
1
 50
0
 73
    2
 44
1
  0
MTEXT
  5
D8
100
AcDbEntity
  8
Pixel Data
  6
ByLayer
 62
  256
370
   -1
100
AcDbMText
 10
3.6
 20
4.3
 30
0
 40
0.5
 41
0.2222222222222532
 71
    2
 72
    1
  1
5
  7
iso
210
0
220
0
230
1
 50
0
 73
    2
 44
1
  0
MTEXT
  5
D9
100
AcDbEntity
  8
Pixel Data
  6
ByLayer
 62
  256
370
   -1
100
AcDbMText
 10
4.600000000000001
 20
4.3
 30
0
 40
0.5
 41
0.2777777777777777
 71
    2
 72
    1
  1
4
  7
iso
210
0
220
0
230
1
 50
0
 73
    2
 44
1
  0
MTEXT
  5
DA
100
AcDbEntity
  8
Pixel Data
  6
ByLayer
 62
  256
370
   -1
100
AcDbMText
 10
5.600000000000001
 20
4.3
 30
0
 40
0.5
 41
0.2222222222222532
 71
    2
 72
    1
  1
3
  7
iso
210
0
220
0
230
1
 50
0
 73
    2
 44
1
  0
MTEXT
  5
DB
100
AcDbEntity
  8
Pixel Data
  6
ByLayer
 62
  256
370
   -1
100
AcDbMText
 10
6.600000000000001
 20
4.3
 30
0
 40
0.5
 41
0.2222222222222222
 71
    2
 72
    1
  1
2
  7
iso
210
0
220
0
230
1
 50
0
 73
    2
 44
1
  0
MTEXT
  5
DC
100
AcDbEntity
  8
Pixel Data
  6
ByLayer
 62
  256
370
   -1
100
AcDbMText
 10
7.600000000000001
 20
4.3
 30
0
 40
0.5
 41
0.1111111111111111
 71
    2
 72
    1
  1
1
  7
iso
210
0
220
0
230
1
 50
0
 73
    2
 44
1
  0
MTEXT
  5
DD
100
AcDbEntity
  8
Pixel Data
  6
ByLayer
 62
  256
370
   -1
100
AcDbMText
 10
0.4
 20
0.2
 30
0
 40
0.5
 41
0.2222222222222532
 71
    8
 72
    1
  1
9
  7
iso
210
0
220
0
230
1
 50
0
 73
    2
 44
1
  0
MTEXT
  5
DE
100
AcDbEntity
  8
Pixel Data
  6
ByLayer
 62
  256
370
   -1
100
AcDbMText
 10
1.4
 20
0.2
 30
0
 40
0.5
 41
0.5
 71
    8
 72
    1
  1
10
  7
iso
210
0
220
0
230
1
 50
0
 73
    2
 44
1
  0
MTEXT
  5
DF
100
AcDbEntity
  8
Pixel Data
  6
ByLayer
 62
  256
370
   -1
100
AcDbMText
 10
2.4
 20
0.2
 30
0
 40
0.5
 41
0.3888888888888888
 71
    8
 72
    1
  1
11
  7
iso
210
0
220
0
230
1
 50
0
 73
    2
 44
1
  0
MTEXT
  5
E0
100
AcDbEntity
  8
Pixel Data
  6
ByLayer
 62
  256
370
   -1
100
AcDbMText
 10
3.4
 20
0.2
 30
0
 40
0.5
 41
0.5
 71
    8
 72
    1
  1
12
  7
iso
210
0
220
0
230
1
 50
0
 73
    2
 44
1
  0
MTEXT
  5
E1
100
AcDbEntity
  8
Pixel Data
  6
ByLayer
 62
  256
370
   -1
100
AcDbMText
 10
4.4
 20
0.2
 30
0
 40
0.5
 41
0.500000000000031
 71
    8
 72
    1
  1
13
  7
iso
210
0
220
0
230
1
 50
0
 73
    2
 44
1
  0
MTEXT
  5
E2
100
AcDbEntity
  8
Pixel Data
  6
ByLayer
 62
  256
370
   -1
100
AcDbMText
 10
5.4
 20
0.2
 30
0
 40
0.5
 41
0.5555555555555556
 71
    8
 72
    1
  1
14
  7
iso
210
0
220
0
230
1
 50
0
 73
    2
 44
1
  0
MTEXT
  5
E3
100
AcDbEntity
  8
Pixel Data
  6
ByLayer
 62
  256
370
   -1
100
AcDbMText
 10
6.4
 20
0.2
 30
0
 40
0.5
 41
0.500000000000031
 71
    8
 72
    1
  1
15
  7
iso
210
0
220
0
230
1
 50
0
 73
    2
 44
1
  0
MTEXT
  5
E4
100
AcDbEntity
  8
Pixel Data
  6
ByLayer
 62
  256
370
   -1
100
AcDbMText
 10
7.4
 20
0.2
 30
0
 40
0.5
 41
0.500000000000031
 71
    8
 72
    1
  1
16
  7
iso
210
0
220
0
230
1
 50
0
 73
    2
 44
1
  0
LINE
  5
E5
100
AcDbEntity
  8
DMX
  6
ByLayer
 62
  256
370
   -1
100
AcDbLine
 10
0.1000000000000002
 20
1
 11
-0.1999999999999998
 21
1
  0
LINE
  5
E6
100
AcDbEntity
  8
DMX
  6
ByLayer
 62
  256
370
   -1
100
AcDbLine
 10
0.1000000000000002
 20
1.5
 11
-0.1999999999999998
 21
1.5
  0
LINE
  5
E7
100
AcDbEntity
  8
DMX
  6
ByLayer
 62
  256
370
   -1
100
AcDbLine
 10
0.1000000000000002
 20
2
 11
-0.1999999999999998
 21
2
  0
MTEXT
  5
E8
100
AcDbEntity
  8
DMX
  6
ByLayer
 62
  256
370
   -1
100
AcDbMText
 10
0.2
 20
1.5
 30
0
 40
0.4
 41
0.1777777777777778
 71
    4
 72
    1
  1
2
  7
iso
210
0
220
0
230
1
 50
0
 73
    2
 44
1
  0
MTEXT
  5
E9
100
AcDbEntity
  8
DMX
  6
ByLayer
 62
  256
370
   -1
100
AcDbMText
 10
0.2
 20
2
 30
0
 40
0.4
 41
0.08888888888888889
 71
    4
 72
    1
  1
1
  7
iso
210
0
220
0
230
1
 50
0
 73
    2
 44
1
  0
MTEXT
  5
EA
100
AcDbEntity
  8
DMX
  6
ByLayer
 62
  256
370
   -1
100
AcDbMText
 10
0.2
 20
1
 30
0
 40
0.4
 41
0.1777777777778026
 71
    4
 72
    1
  1
3
  7
iso
210
0
220
0
230
1
 50
0
 73
    2
 44
1
  0
LINE
  5
EB
100
AcDbEntity
  8
+12V DC
  6
ByLayer
 62
  256
370
   -1
100
AcDbLine
 10
7.900000000000001
 20
1
 11
8.200000000000001
 21
1
  0
LINE
  5
EC
100
AcDbEntity
  8
+12V DC
  6
ByLayer
 62
  256
370
   -1
100
AcDbLine
 10
7.900000000000001
 20
3.6
 11
8.200000000000001
 21
3.6
  0
LINE
  5
ED
100
AcDbEntity
  8
0V DC Ground
  6
ByLayer
 62
  256
370
   -1
100
AcDbLine
 10
7.900000000000001
 20
3.2
 11
8.200000000000001
 21
3.2
  0
LINE
  5
EE
100
AcDbEntity
  8
0V DC Ground
  6
ByLayer
 62
  256
370
   -1
100
AcDbLine
 10
7.900000000000001
 20
1.4
 11
8.200000000000001
 21
1.4
  0
MTEXT
  5
EF
100
AcDbEntity
  8
+12V DC
  6
ByLayer
 62
  256
370
   -1
100
AcDbMText
 10
7.900000000000001
 20
1.2
 30
0
 40
0.4
 41
0.888888888888889
 71
    6
 72
    1
  1
Pwr
  7
iso
210
0
220
0
230
1
 50
0
 73
    2
 44
1
  0
MTEXT
  5
F0
100
AcDbEntity
  8
+12V DC
  6
ByLayer
 62
  256
370
   -1
100
AcDbMText
 10
7.900000000000001
 20
3.4
 30
0
 40
0.4
 41
0.888888888888889
 71
    6
 72
    1
  1
Pwr
  7
iso
210
0
220
0
230
1
 50
0
 73
    2
 44
1
  0
ENDBLK
  5
68
330
66
100
AcDbEntity
  8
0
100
AcDbBlockEnd
  0
BLOCK
  5
6A
330
69
100
AcDbEntity
  8
0
100
AcDbBlockBegin
  2
Ctlr- AlphaPix 4
 70
    0
 10
0
 20
0
  3
Ctlr- AlphaPix 4
  1

  0
LINE
  5
F1
100
AcDbEntity
  8
Controllers
  6
ByLayer
 62
  256
370
   -1
100
AcDbLine
 10
7
 20
3.5
 11
0
 21
3.5
  0
LINE
  5
F2
100
AcDbEntity
  8
Controllers
  6
ByLayer
 62
  256
370
   -1
100
AcDbLine
 10
7
 20
0
 11
7
 21
3.5
  0
LINE
  5
F3
100
AcDbEntity
  8
Controllers
  6
ByLayer
 62
  256
370
   -1
100
AcDbLine
 10
0
 20
0
 11
7
 21
0
  0
LINE
  5
F4
100
AcDbEntity
  8
Controllers
  6
ByLayer
 62
  256
370
   -1
100
AcDbLine
 10
0
 20
3.5
 11
0
 21
0
  0
MTEXT
  5
F5
100
AcDbEntity
  8
Controllers
  6
ByLayer
 62
  256
370
   -1
100
AcDbMText
 10
3.5
 20
2.4
 30
0
 40
0.75
 41
5.312500000000069
 71
    2
 72
    1
  1
AlphaPix 4
  7
iso
210
0
220
0
230
1
 50
0
 73
    2
 44
1
  0
ENDBLK
  5
6B
330
69
100
AcDbEntity
  8
0
100
AcDbBlockEnd
  0
BLOCK
  5
6D
330
6C
100
AcDbEntity
  8
0
100
AcDbBlockBegin
  2
Ctlr- LOR DC 24
 70
    0
 10
0
 20
0
  3
Ctlr- LOR DC 24
  1

  0
LINE
  5
F6
100
AcDbEntity
  8
Controllers
  6
ByLayer
 62
  256
370
   -1
100
AcDbLine
 10
0
 20
0
 11
8
 21
0
  0
LINE
  5
F7
100
AcDbEntity
  8
Controllers
  6
ByLayer
 62
  256
370
   -1
100
AcDbLine
 10
8
 20
0
 11
8
 21
4
  0
LINE
  5
F8
100
AcDbEntity
  8
Controllers
  6
ByLayer
 62
  256
370
   -1
100
AcDbLine
 10
8
 20
4
 11
0
 21
4
  0
LINE
  5
F9
100
AcDbEntity
  8
Controllers
  6
ByLayer
 62
  256
370
   -1
100
AcDbLine
 10
0
 20
4
 11
0
 21
0
  0
LINE
  5
FA
100
AcDbEntity
  8
DMX
  6
ByLayer
 62
  256
370
   -1
100
AcDbLine
 10
7.9
 20
2.3
 11
8.200000000000001
 21
2.3
  0
LINE
  5
FB
100
AcDbEntity
  8
DMX
  6
ByLayer
 62
  256
370
   -1
100
AcDbLine
 10
7.9
 20
1.7
 11
8.200000000000001
 21
1.7
  0
MTEXT
  5
FC
100
AcDbEntity
  8
DMX
  6
ByLayer
 62
  256
370
   -1
100
AcDbMText
 10
7.800000000000001
 20
1.7
 30
0
 40
0.4
 41
0.3555555555555556
 71
    6
 72
    1
  1
IN
  7
iso
210
0
220
0
230
1
 50
0
 73
    2
 44
1
  0
MTEXT
  5
FD
100
AcDbEntity
  8
DMX
  6
ByLayer
 62
  256
370
   -1
100
AcDbMText
 10
7.877777777777778
 20
2.3
 30
0
 40
0.4
 41
0.9333333333333333
 71
    6
 72
    1
  1
OUT
  7
iso
210
0
220
0
230
1
 50
0
 73
    2
 44
1
  0
LINE
  5
FE
100
AcDbEntity
  8
+12V DC
  6
ByLayer
 62
  256
370
   -1
100
AcDbLine
 10
4.888888888888889
 20
0.09999999999999995
 11
4.888888888888889
 21
-0.2000000000000001
  0
LINE
  5
FF
100
AcDbEntity
  8
-12V DC Controlled Ground
  6
ByLayer
 62
  256
370
   -1
100
AcDbLine
 10
5.088888888888889
 20
0.09999999999999995
 11
5.088888888888889
 21
-0.2000000000000001
  0
LINE
  5
100
100
AcDbEntity
  8
-12V DC Controlled Ground
  6
ByLayer
 62
  256
370
   -1
100
AcDbLine
 10
5.28888888888889
 20
0.09999999999999995
 11
5.28888888888889
 21
-0.2000000000000001
  0
LINE
  5
101
100
AcDbEntity
  8
-12V DC Controlled Ground
  6
ByLayer
 62
  256
370
   -1
100
AcDbLine
 10
5.488888888888889
 20
0.09999999999999995
 11
5.488888888888889
 21
-0.2000000000000001
  0
LINE
  5
102
100
AcDbEntity
  8
+12V DC
  6
ByLayer
 62
  256
370
   -1
100
AcDbLine
 10
4.088888888888889
 20
0.09999999999999995
 11
4.088888888888889
 21
-0.2000000000000001
  0
LINE
  5
103
100
AcDbEntity
  8
-12V DC Controlled Ground
  6
ByLayer
 62
  256
370
   -1
100
AcDbLine
 10
4.28888888888889
 20
0.09999999999999995
 11
4.28888888888889
 21
-0.2000000000000001
  0
LINE
  5
104
100
AcDbEntity
  8
-12V DC Controlled Ground
  6
ByLayer
 62
  256
370
   -1
100
AcDbLine
 10
4.488888888888889
 20
0.09999999999999995
 11
4.488888888888889
 21
-0.2000000000000001
  0
LINE
  5
105
100
AcDbEntity
  8
+12V DC
  6
ByLayer
 62
  256
370
   -1
100
AcDbLine
 10
3.288888888888889
 20
0.09999999999999995
 11
3.288888888888889
 21
-0.2000000000000001
  0
LINE
  5
106
100
AcDbEntity
  8
-12V DC Controlled Ground
  6
ByLayer
 62
  256
370
   -1
100
AcDbLine
 10
3.488888888888889
 20
0.09999999999999995
 11
3.488888888888889
 21
-0.2000000000000001
  0
LINE
  5
107
100
AcDbEntity
  8
-12V DC Controlled Ground
  6
ByLayer
 62
  256
370
   -1
100
AcDbLine
 10
3.68888888888889
 20
0.09999999999999995
 11
3.68888888888889
 21
-0.2000000000000001
  0
LINE
  5
108
100
AcDbEntity
  8
-12V DC Controlled Ground
  6
ByLayer
 62
  256
370
   -1
100
AcDbLine
 10
3.888888888888889
 20
0.09999999999999995
 11
3.888888888888889
 21
-0.2000000000000001
  0
LINE
  5
109
100
AcDbEntity
  8
+12V DC
  6
ByLayer
 62
  256
370
   -1
100
AcDbLine
 10
2.488888888888889
 20
0.09999999999999995
 11
2.488888888888889
 21
-0.2000000000000001
  0
LINE
  5
10A
100
AcDbEntity
  8
-12V DC Controlled Ground
  6
ByLayer
 62
  256
370
   -1
100
AcDbLine
 10
2.688888888888889
 20
0.09999999999999995
 11
2.688888888888889
 21
-0.2000000000000001
  0
LINE
  5
10B
100
AcDbEntity
  8
-12V DC Controlled Ground
  6
ByLayer
 62
  256
370
   -1
100
AcDbLine
 10
2.88888888888889
 20
0.09999999999999995
 11
2.88888888888889
 21
-0.2000000000000001
  0
LINE
  5
10C
100
AcDbEntity
  8
-12V DC Controlled Ground
  6
ByLayer
 62
  256
370
   -1
100
AcDbLine
 10
3.088888888888889
 20
0.09999999999999995
 11
3.088888888888889
 21
-0.2000000000000001
  0
MTEXT
  5
10D
100
AcDbEntity
  8
-12V DC Controlled Ground
  6
ByLayer
 62
  256
370
   -1
100
AcDbMText
 10
2.688888888888889
 20
0.2
 30
0
 40
0.4
 41
0.08888888888888889
 71
    8
 72
    1
  1
1
  7
iso
210
0
220
0
230
1
 50
0
 73
    2
 44
1
  0
MTEXT
  5
10E
100
AcDbEntity
  8
-12V DC Controlled Ground
  6
ByLayer
 62
  256
370
   -1
100
AcDbMText
 10
3.488888888888889
 20
0.2
 30
0
 40
0.4
 41
0.2222222222222223
 71
    8
 72
    1
  1
4
  7
iso
210
0
220
0
230
1
 50
0
 73
    2
 44
1
  0
MTEXT
  5
10F
100
AcDbEntity
  8
-12V DC Controlled Ground
  6
ByLayer
 62
  256
370
   -1
100
AcDbMText
 10
4.28888888888889
 20
0.2
 30
0
 40
0.4
 41
0.1777777777777778
 71
    8
 72
    1
  1
7
  7
iso
210
0
220
0
230
1
 50
0
 73
    2
 44
1
  0
MTEXT
  5
110
100
AcDbEntity
  8
-12V DC Controlled Ground
  6
ByLayer
 62
  256
370
   -1
100
AcDbMText
 10
5.088888888888889
 20
0.2
 30
0
 40
0.4
 41
0.4
 71
    8
 72
    1
  1
10
  7
iso
210
0
220
0
230
1
 50
0
 73
    2
 44
1
  0
LINE
  5
111
100
AcDbEntity
  8
+12V DC
  6
ByLayer
 62
  256
370
   -1
100
AcDbLine
 10
4.7
 20
4.2
 11
4.7
 21
3.9
  0
LINE
  5
112
100
AcDbEntity
  8
-12V DC Controlled Ground
  6
ByLayer
 62
  256
370
   -1
100
AcDbLine
 10
4.899999999999999
 20
4.2
 11
4.899999999999999
 21
3.9
  0
LINE
  5
113
100
AcDbEntity
  8
-12V DC Controlled Ground
  6
ByLayer
 62
  256
370
   -1
100
AcDbLine
 10
5.100000000000001
 20
4.2
 11
5.100000000000001
 21
3.9
  0
LINE
  5
114
100
AcDbEntity
  8
-12V DC Controlled Ground
  6
ByLayer
 62
  256
370
   -1
100
AcDbLine
 10
5.3
 20
4.2
 11
5.3
 21
3.9
  0
LINE
  5
115
100
AcDbEntity
  8
+12V DC
  6
ByLayer
 62
  256
370
   -1
100
AcDbLine
 10
5.499999999999999
 20
4.2
 11
5.499999999999999
 21
3.9
  0
LINE
  5
116
100
AcDbEntity
  8
+12V DC
  6
ByLayer
 62
  256
370
   -1
100
AcDbLine
 10
3.9
 20
4.2
 11
3.9
 21
3.9
  0
LINE
  5
117
100
AcDbEntity
  8
-12V DC Controlled Ground
  6
ByLayer
 62
  256
370
   -1
100
AcDbLine
 10
4.100000000000001
 20
4.2
 11
4.100000000000001
 21
3.9
  0
LINE
  5
118
100
AcDbEntity
  8
-12V DC Controlled Ground
  6
ByLayer
 62
  256
370
   -1
100
AcDbLine
 10
4.300000000000001
 20
4.2
 11
4.300000000000001
 21
3.9
  0
LINE
  5
119
100
AcDbEntity
  8
-12V DC Controlled Ground
  6
ByLayer
 62
  256
370
   -1
100
AcDbLine
 10
4.5
 20
4.2
 11
4.5
 21
3.9
  0
LINE
  5
11A
100
AcDbEntity
  8
+12V DC
  6
ByLayer
 62
  256
370
   -1
100
AcDbLine
 10
3.100000000000001
 20
4.2
 11
3.100000000000001
 21
3.9
  0
LINE
  5
11B
100
AcDbEntity
  8
-12V DC Controlled Ground
  6
ByLayer
 62
  256
370
   -1
100
AcDbLine
 10
3.300000000000001
 20
4.2
 11
3.300000000000001
 21
3.9
  0
LINE
  5
11C
100
AcDbEntity
  8
-12V DC Controlled Ground
  6
ByLayer
 62
  256
370
   -1
100
AcDbLine
 10
3.500000000000001
 20
4.2
 11
3.500000000000001
 21
3.9
  0
LINE
  5
11D
100
AcDbEntity
  8
-12V DC Controlled Ground
  6
ByLayer
 62
  256
370
   -1
100
AcDbLine
 10
3.7
 20
4.2
 11
3.7
 21
3.9
  0
LINE
  5
11E
100
AcDbEntity
  8
-12V DC Controlled Ground
  6
ByLayer
 62
  256
370
   -1
100
AcDbLine
 10
2.5
 20
4.2
 11
2.5
 21
3.9
  0
LINE
  5
11F
100
AcDbEntity
  8
-12V DC Controlled Ground
  6
ByLayer
 62
  256
370
   -1
100
AcDbLine
 10
2.700000000000001
 20
4.2
 11
2.700000000000001
 21
3.9
  0
LINE
  5
120
100
AcDbEntity
  8
-12V DC Controlled Ground
  6
ByLayer
 62
  256
370
   -1
100
AcDbLine
 10
2.9
 20
4.2
 11
2.9
 21
3.9
  0
MTEXT
  5
121
100
AcDbEntity
  8
-12V DC Controlled Ground
  6
ByLayer
 62
  256
370
   -1
100
AcDbMText
 10
5.300000000000001
 20
3.8
 30
0
 40
0.4
 41
0.4000000000000248
 71
    2
 72
    1
  1
13
  7
iso
210
0
220
0
230
1
 50
0
 73
    2
 44
1
  0
MTEXT
  5
122
100
AcDbEntity
  8
-12V DC Controlled Ground
  6
ByLayer
 62
  256
370
   -1
100
AcDbMText
 10
4.500000000000001
 20
3.8
 30
0
 40
0.4
 41
0.4000000000000248
 71
    2
 72
    1
  1
16
  7
iso
210
0
220
0
230
1
 50
0
 73
    2
 44
1
  0
MTEXT
  5
123
100
AcDbEntity
  8
-12V DC Controlled Ground
  6
ByLayer
 62
  256
370
   -1
100
AcDbMText
 10
3.700000000000001
 20
3.8
 30
0
 40
0.4
 41
0.4
 71
    2
 72
    1
  1
19
  7
iso
210
0
220
0
230
1
 50
0
 73
    2
 44
1
  0
MTEXT
  5
124
100
AcDbEntity
  8
-12V DC Controlled Ground
  6
ByLayer
 62
  256
370
   -1
100
AcDbMText
 10
2.9
 20
3.8
 30
0
 40
0.4
 41
0.4888888888888889
 71
    2
 72
    1
  1
22
  7
iso
210
0
220
0
230
1
 50
0
 73
    2
 44
1
  0
MTEXT
  5
125
100
AcDbEntity
  8
Controllers
  6
ByLayer
 62
  256
370
   -1
100
AcDbMText
 10
4.083333333333334
 20
2.95
 30
0
 40
0.75
 41
2.812500000000046
 71
    2
 72
    1
  1
LOR\PDC 24
  7
iso
210
0
220
0
230
1
 50
0
 73
    2
 44
1
  0
LINE
  5
126
100
AcDbEntity
  8
0V DC Ground
  6
ByLayer
 62
  256
370
   -1
100
AcDbLine
 10
0.09999999999999987
 20
2.2
 11
-0.2000000000000001
 21
2.2
  0
LINE
  5
127
100
AcDbEntity
  8
0V DC Ground
  6
ByLayer
 62
  256
370
   -1
100
AcDbLine
 10
0.09999999999999987
 20
1.8
 11
-0.2000000000000001
 21
1.8
  0
LINE
  5
128
100
AcDbEntity
  8
+12V DC
  6
ByLayer
 62
  256
370
   -1
100
AcDbLine
 10
0.09999999999999987
 20
3.100000000000001
 11
-0.2000000000000001
 21
3.100000000000001
  0
LINE
  5
129
100
AcDbEntity
  8
+12V DC
  6
ByLayer
 62
  256
370
   -1
100
AcDbLine
 10
0.09999999999999987
 20
1
 11
-0.2000000000000001
 21
1
  0
MTEXT
  5
12A
100
AcDbEntity
  8
+12V DC
  6
ByLayer
 62
  256
370
   -1
100
AcDbMText
 10
0.09999999999999987
 20
2.600000000000001
 30
0
 40
0.4
 41
0.8888888888888888
 71
    4
 72
    1
  1
Pwr
  7
iso
210
0
220
0
230
1
 50
0
 73
    2
 44
1
  0
MTEXT
  5
12B
100
AcDbEntity
  8
+12V DC
  6
ByLayer
 62
  256
370
   -1
100
AcDbMText
 10
0.09999999999999987
 20
1.4
 30
0
 40
0.4
 41
0.8888888888888888
 71
    4
 72
    1
  1
Pwr
  7
iso
210
0
220
0
230
1
 50
0
 73
    2
 44
1
  0
ENDBLK
  5
6E
330
6C
100
AcDbEntity
  8
0
100
AcDbBlockEnd
  0
BLOCK
  5
70
330
6F
100
AcDbEntity
  8
0
100
AcDbBlockBegin
  2
Ctlr- Chinese DC 27
 70
    0
 10
0
 20
0
  3
Ctlr- Chinese DC 27
  1

  0
LINE
  5
12C
100
AcDbEntity
  8
Controllers
  6
ByLayer
 62
  256
370
   -1
100
AcDbLine
 10
0
 20
0
 11
8
 21
0
  0
LINE
  5
12D
100
AcDbEntity
  8
Controllers
  6
ByLayer
 62
  256
370
   -1
100
AcDbLine
 10
8
 20
0
 11
8
 21
4
  0
LINE
  5
12E
100
AcDbEntity
  8
Controllers
  6
ByLayer
 62
  256
370
   -1
100
AcDbLine
 10
8
 20
4
 11
0
 21
4
  0
LINE
  5
12F
100
AcDbEntity
  8
Controllers
  6
ByLayer
 62
  256
370
   -1
100
AcDbLine
 10
0
 20
4
 11
0
 21
0
  0
LINE
  5
130
100
AcDbEntity
  8
-12V DC Controlled Ground
  6
ByLayer
 62
  256
370
   -1
100
AcDbLine
 10
0.8999999999999992
 20
0.09999999999999992
 11
0.8999999999999992
 21
-0.2000000000000001
  0
LINE
  5
131
100
AcDbEntity
  8
-12V DC Controlled Ground
  6
ByLayer
 62
  256
370
   -1
100
AcDbLine
 10
0.6999999999999993
 20
0.09999999999999992
 11
0.6999999999999993
 21
-0.2000000000000001
  0
LINE
  5
132
100
AcDbEntity
  8
-12V DC Controlled Ground
  6
ByLayer
 62
  256
370
   -1
100
AcDbLine
 10
0.4999999999999993
 20
0.09999999999999992
 11
0.4999999999999993
 21
-0.2000000000000001
  0
LINE
  5
133
100
AcDbEntity
  8
-12V DC Controlled Ground
  6
ByLayer
 62
  256
370
   -1
100
AcDbLine
 10
1.699999999999999
 20
0.09999999999999992
 11
1.699999999999999
 21
-0.2000000000000001
  0
LINE
  5
134
100
AcDbEntity
  8
-12V DC Controlled Ground
  6
ByLayer
 62
  256
370
   -1
100
AcDbLine
 10
1.499999999999999
 20
0.09999999999999992
 11
1.499999999999999
 21
-0.2000000000000001
  0
LINE
  5
135
100
AcDbEntity
  8
-12V DC Controlled Ground
  6
ByLayer
 62
  256
370
   -1
100
AcDbLine
 10
1.299999999999999
 20
0.09999999999999992
 11
1.299999999999999
 21
-0.2000000000000001
  0
LINE
  5
136
100
AcDbEntity
  8
-12V DC Controlled Ground
  6
ByLayer
 62
  256
370
   -1
100
AcDbLine
 10
2.5
 20
0.09999999999999992
 11
2.5
 21
-0.2000000000000001
  0
LINE
  5
137
100
AcDbEntity
  8
-12V DC Controlled Ground
  6
ByLayer
 62
  256
370
   -1
100
AcDbLine
 10
2.299999999999999
 20
0.09999999999999992
 11
2.299999999999999
 21
-0.2000000000000001
  0
LINE
  5
138
100
AcDbEntity
  8
-12V DC Controlled Ground
  6
ByLayer
 62
  256
370
   -1
100
AcDbLine
 10
2.1
 20
0.09999999999999992
 11
2.1
 21
-0.2000000000000001
  0
LINE
  5
139
100
AcDbEntity
  8
-12V DC Controlled Ground
  6
ByLayer
 62
  256
370
   -1
100
AcDbLine
 10
3.299999999999999
 20
0.09999999999999992
 11
3.299999999999999
 21
-0.2000000000000001
  0
LINE
  5
13A
100
AcDbEntity
  8
-12V DC Controlled Ground
  6
ByLayer
 62
  256
370
   -1
100
AcDbLine
 10
3.099999999999999
 20
0.09999999999999992
 11
3.099999999999999
 21
-0.2000000000000001
  0
LINE
  5
13B
100
AcDbEntity
  8
-12V DC Controlled Ground
  6
ByLayer
 62
  256
370
   -1
100
AcDbLine
 10
2.899999999999999
 20
0.09999999999999992
 11
2.899999999999999
 21
-0.2000000000000001
  0
LINE
  5
13C
100
AcDbEntity
  8
-12V DC Controlled Ground
  6
ByLayer
 62
  256
370
   -1
100
AcDbLine
 10
4.1
 20
0.09999999999999992
 11
4.1
 21
-0.2000000000000001
  0
LINE
  5
13D
100
AcDbEntity
  8
-12V DC Controlled Ground
  6
ByLayer
 62
  256
370
   -1
100
AcDbLine
 10
3.9
 20
0.09999999999999992
 11
3.9
 21
-0.2000000000000001
  0
LINE
  5
13E
100
AcDbEntity
  8
-12V DC Controlled Ground
  6
ByLayer
 62
  256
370
   -1
100
AcDbLine
 10
3.7
 20
0.09999999999999992
 11
3.7
 21
-0.2000000000000001
  0
LINE
  5
13F
100
AcDbEntity
  8
-12V DC Controlled Ground
  6
ByLayer
 62
  256
370
   -1
100
AcDbLine
 10
4.9
 20
0.09999999999999992
 11
4.9
 21
-0.2000000000000001
  0
LINE
  5
140
100
AcDbEntity
  8
-12V DC Controlled Ground
  6
ByLayer
 62
  256
370
   -1
100
AcDbLine
 10
4.7
 20
0.09999999999999992
 11
4.7
 21
-0.2000000000000001
  0
LINE
  5
141
100
AcDbEntity
  8
-12V DC Controlled Ground
  6
ByLayer
 62
  256
370
   -1
100
AcDbLine
 10
4.5
 20
0.09999999999999992
 11
4.5
 21
-0.2000000000000001
  0
LINE
  5
142
100
AcDbEntity
  8
-12V DC Controlled Ground
  6
ByLayer
 62
  256
370
   -1
100
AcDbLine
 10
5.7
 20
0.09999999999999992
 11
5.7
 21
-0.2000000000000001
  0
LINE
  5
143
100
AcDbEntity
  8
-12V DC Controlled Ground
  6
ByLayer
 62
  256
370
   -1
100
AcDbLine
 10
5.5
 20
0.09999999999999992
 11
5.5
 21
-0.2000000000000001
  0
LINE
  5
144
100
AcDbEntity
  8
-12V DC Controlled Ground
  6
ByLayer
 62
  256
370
   -1
100
AcDbLine
 10
5.3
 20
0.09999999999999992
 11
5.3
 21
-0.2000000000000001
  0
LINE
  5
145
100
AcDbEntity
  8
-12V DC Controlled Ground
  6
ByLayer
 62
  256
370
   -1
100
AcDbLine
 10
6.5
 20
0.09999999999999992
 11
6.5
 21
-0.2000000000000001
  0
LINE
  5
146
100
AcDbEntity
  8
-12V DC Controlled Ground
  6
ByLayer
 62
  256
370
   -1
100
AcDbLine
 10
6.3
 20
0.09999999999999992
 11
6.3
 21
-0.2000000000000001
  0
LINE
  5
147
100
AcDbEntity
  8
-12V DC Controlled Ground
  6
ByLayer
 62
  256
370
   -1
100
AcDbLine
 10
6.1
 20
0.09999999999999992
 11
6.1
 21
-0.2000000000000001
  0
LINE
  5
148
100
AcDbEntity
  8
-12V DC Controlled Ground
  6
ByLayer
 62
  256
370
   -1
100
AcDbLine
 10
7.3
 20
0.09999999999999992
 11
7.3
 21
-0.2000000000000001
  0
LINE
  5
149
100
AcDbEntity
  8
-12V DC Controlled Ground
  6
ByLayer
 62
  256
370
   -1
100
AcDbLine
 10
7.1
 20
0.09999999999999992
 11
7.1
 21
-0.2000000000000001
  0
LINE
  5
14A
100
AcDbEntity
  8
-12V DC Controlled Ground
  6
ByLayer
 62
  256
370
   -1
100
AcDbLine
 10
6.899999999999999
 20
0.09999999999999992
 11
6.899999999999999
 21
-0.2000000000000001
  0
LINE
  5
14B
100
AcDbEntity
  8
DMX
  6
ByLayer
 62
  256
370
   -1
100
AcDbLine
 10
0.1000000000000001
 20
2
 11
-0.1999999999999999
 21
2
  0
LINE
  5
14C
100
AcDbEntity
  8
DMX
  6
ByLayer
 62
  256
370
   -1
100
AcDbLine
 10
0.1
 20
2.5
 11
-0.2
 21
2.5
  0
MTEXT
  5
14D
100
AcDbEntity
  8
DMX
  6
ByLayer
 62
  256
370
   -1
100
AcDbMText
 10
0.6000000000000001
 20
2.5
 30
0
 40
0.4
 41
0.3555555555555556
 71
    6
 72
    1
  1
IN
  7
iso
210
0
220
0
230
1
 50
0
 73
    2
 44
1
  0
MTEXT
  5
14E
100
AcDbEntity
  8
DMX
  6
ByLayer
 62
  256
370
   -1
100
AcDbMText
 10
1.1
 20
2
 30
0
 40
0.4
 41
0.9333333333333333
 71
    6
 72
    1
  1
OUT
  7
iso
210
0
220
0
230
1
 50
0
 73
    2
 44
1
  0
MTEXT
  5
14F
100
AcDbEntity
  8
Controllers
  6
ByLayer
 62
  256
370
   -1
100
AcDbMText
 10
4.133333526191056
 20
3.05
 30
0
 40
0.75
 41
3.500000385715515
 71
    2
 72
    1
  1
Chinese\PDC 27
  7
iso
210
0
220
0
230
1
 50
0
 73
    2
 44
1
  0
MTEXT
  5
150
100
AcDbEntity
  8
-12V DC Controlled Ground
  6
ByLayer
 62
  256
370
   -1
100
AcDbMText
 10
7.3
 20
0.2
 30
0
 40
0.4
 41
0.08888888888888889
 71
    8
 72
    1
  1
1
  7
iso
210
0
220
0
230
1
 50
0
 73
    2
 44
1
  0
MTEXT
  5
151
100
AcDbEntity
  8
-12V DC Controlled Ground
  6
ByLayer
 62
  256
370
   -1
100
AcDbMText
 10
6.5
 20
0.2
 30
0
 40
0.4
 41
0.2222222222222223
 71
    8
 72
    1
  1
4
  7
iso
210
0
220
0
230
1
 50
0
 73
    2
 44
1
  0
MTEXT
  5
152
100
AcDbEntity
  8
-12V DC Controlled Ground
  6
ByLayer
 62
  256
370
   -1
100
AcDbMText
 10
5.7
 20
0.2
 30
0
 40
0.4
 41
0.1777777777777778
 71
    8
 72
    1
  1
7
  7
iso
210
0
220
0
230
1
 50
0
 73
    2
 44
1
  0
MTEXT
  5
153
100
AcDbEntity
  8
-12V DC Controlled Ground
  6
ByLayer
 62
  256
370
   -1
100
AcDbMText
 10
4.9
 20
0.2
 30
0
 40
0.4
 41
0.4
 71
    8
 72
    1
  1
10
  7
iso
210
0
220
0
230
1
 50
0
 73
    2
 44
1
  0
MTEXT
  5
154
100
AcDbEntity
  8
-12V DC Controlled Ground
  6
ByLayer
 62
  256
370
   -1
100
AcDbMText
 10
4.100000000000001
 20
0.2
 30
0
 40
0.4
 41
0.4000000000000248
 71
    8
 72
    1
  1
13
  7
iso
210
0
220
0
230
1
 50
0
 73
    2
 44
1
  0
MTEXT
  5
155
100
AcDbEntity
  8
-12V DC Controlled Ground
  6
ByLayer
 62
  256
370
   -1
100
AcDbMText
 10
3.3
 20
0.2
 30
0
 40
0.4
 41
0.4000000000000248
 71
    8
 72
    1
  1
16
  7
iso
210
0
220
0
230
1
 50
0
 73
    2
 44
1
  0
MTEXT
  5
156
100
AcDbEntity
  8
-12V DC Controlled Ground
  6
ByLayer
 62
  256
370
   -1
100
AcDbMText
 10
2.5
 20
0.2
 30
0
 40
0.4
 41
0.4
 71
    8
 72
    1
  1
19
  7
iso
210
0
220
0
230
1
 50
0
 73
    2
 44
1
  0
MTEXT
  5
157
100
AcDbEntity
  8
-12V DC Controlled Ground
  6
ByLayer
 62
  256
370
   -1
100
AcDbMText
 10
1.7
 20
0.2
 30
0
 40
0.4
 41
0.4888888888888889
 71
    8
 72
    1
  1
22
  7
iso
210
0
220
0
230
1
 50
0
 73
    2
 44
1
  0
MTEXT
  5
158
100
AcDbEntity
  8
-12V DC Controlled Ground
  6
ByLayer
 62
  256
370
   -1
100
AcDbMText
 10
0.9
 20
0.2
 30
0
 40
0.4
 41
0.4888888888889137
 71
    8
 72
    1
  1
25
  7
iso
210
0
220
0
230
1
 50
0
 73
    2
 44
1
  0
LINE
  5
159
100
AcDbEntity
  8
+12V DC
  6
ByLayer
 62
  256
370
   -1
100
AcDbLine
 10
7.9
 20
1
 11
8.200000000000001
 21
1
  0
LINE
  5
15A
100
AcDbEntity
  8
0V DC Ground
  6
ByLayer
 62
  256
370
   -1
100
AcDbLine
 10
7.9
 20
1.4
 11
8.200000000000001
 21
1.4
  0
MTEXT
  5
15B
100
AcDbEntity
  8
+12V DC
  6
ByLayer
 62
  256
370
   -1
100
AcDbMText
 10
7.800000000000002
 20
1.2
 30
0
 40
0.4
 41
0.888888888888889
 71
    6
 72
    1
  1
Pwr
  7
iso
210
0
220
0
230
1
 50
0
 73
    2
 44
1
  0
LINE
  5
15C
100
AcDbEntity
  8
+12V DC
  6
ByLayer
 62
  256
370
   -1
100
AcDbLine
 10
1.099999999999999
 20
0.09999999999999978
 11
1.099999999999999
 21
-0.2000000000000002
  0
LINE
  5
15D
100
AcDbEntity
  8
+12V DC
  6
ByLayer
 62
  256
370
   -1
100
AcDbLine
 10
1.899999999999999
 20
0.09999999999999978
 11
1.899999999999999
 21
-0.2000000000000002
  0
LINE
  5
15E
100
AcDbEntity
  8
+12V DC
  6
ByLayer
 62
  256
370
   -1
100
AcDbLine
 10
2.699999999999999
 20
0.09999999999999978
 11
2.699999999999999
 21
-0.2000000000000002
  0
LINE
  5
15F
100
AcDbEntity
  8
+12V DC
  6
ByLayer
 62
  256
370
   -1
100
AcDbLine
 10
3.499999999999999
 20
0.09999999999999978
 11
3.499999999999999
 21
-0.2000000000000002
  0
LINE
  5
160
100
AcDbEntity
  8
+12V DC
  6
ByLayer
 62
  256
370
   -1
100
AcDbLine
 10
0.2999999999999998
 20
0.09999999999999989
 11
0.2999999999999998
 21
-0.2000000000000001
  0
LINE
  5
161
100
AcDbEntity
  8
+12V DC
  6
ByLayer
 62
  256
370
   -1
100
AcDbLine
 10
4.3
 20
0.09999999999999989
 11
4.3
 21
-0.2000000000000001
  0
LINE
  5
162
100
AcDbEntity
  8
+12V DC
  6
ByLayer
 62
  256
370
   -1
100
AcDbLine
 10
5.1
 20
0.09999999999999989
 11
5.1
 21
-0.2000000000000001
  0
LINE
  5
163
100
AcDbEntity
  8
+12V DC
  6
ByLayer
 62
  256
370
   -1
100
AcDbLine
 10
5.899999999999999
 20
0.09999999999999989
 11
5.899999999999999
 21
-0.2000000000000001
  0
LINE
  5
164
100
AcDbEntity
  8
+12V DC
  6
ByLayer
 62
  256
370
   -1
100
AcDbLine
 10
6.699999999999999
 20
0.09999999999999989
 11
6.699999999999999
 21
-0.2000000000000001
  0
ENDBLK
  5
71
330
6F
100
AcDbEntity
  8
0
100
AcDbBlockEnd
  0
BLOCK
  5
73
330
72
100
AcDbEntity
  8
0
100
AcDbBlockBegin
  2
Pwr- DC Power Supply
 70
    0
 10
0
 20
0
  3
Pwr- DC Power Supply
  1

  0
LINE
  5
165
100
AcDbEntity
  8
Power Devices
  6
ByLayer
 62
  256
370
   -1
100
AcDbLine
 10
6
 20
7
 11
0
 21
7
  0
LINE
  5
166
100
AcDbEntity
  8
Power Devices
  6
ByLayer
 62
  256
370
   -1
100
AcDbLine
 10
6
 20
0
 11
6
 21
7
  0
LINE
  5
167
100
AcDbEntity
  8
Power Devices
  6
ByLayer
 62
  256
370
   -1
100
AcDbLine
 10
0
 20
0
 11
6
 21
0
  0
LINE
  5
168
100
AcDbEntity
  8
Power Devices
  6
ByLayer
 62
  256
370
   -1
100
AcDbLine
 10
0
 20
7
 11
0
 21
0
  0
LINE
  5
169
100
AcDbEntity
  8
+5V DC
  6
ByLayer
 62
  256
370
   -1
100
AcDbLine
 10
0.4000000000000005
 20
6.9
 11
0.4000000000000005
 21
7.100000000000001
  0
LINE
  5
16A
100
AcDbEntity
  8
+5V DC
  6
ByLayer
 62
  256
370
   -1
100
AcDbLine
 10
0.5000000000000006
 20
6.9
 11
0.5000000000000006
 21
7.100000000000001
  0
LINE
  5
16B
100
AcDbEntity
  8
+5V DC
  6
ByLayer
 62
  256
370
   -1
100
AcDbLine
 10
0.6000000000000005
 20
7.100000000000001
 11
0.6000000000000005
 21
6.9
  0
LINE
  5
16C
100
AcDbEntity
  8
+5V DC
  6
ByLayer
 62
  256
370
   -1
100
AcDbLine
 10
0.7000000000000005
 20
6.9
 11
0.7000000000000005
 21
7.100000000000001
  0
LINE
  5
16D
100
AcDbEntity
  8
+5V DC
  6
ByLayer
 62
  256
370
   -1
100
AcDbLine
 10
0.8000000000000005
 20
7.100000000000001
 11
0.8000000000000005
 21
6.9
  0
LINE
  5
16E
100
AcDbEntity
  8
+5V DC
  6
ByLayer
 62
  256
370
   -1
100
AcDbLine
 10
0.9000000000000006
 20
6.9
 11
0.9000000000000006
 21
7.100000000000001
  0
LINE
  5
16F
100
AcDbEntity
  8
+5V DC
  6
ByLayer
 62
  256
370
   -1
100
AcDbLine
 10
1
 20
7.100000000000001
 11
1
 21
6.9
  0
LINE
  5
170
100
AcDbEntity
  8
+5V DC
  6
ByLayer
 62
  256
370
   -1
100
AcDbLine
 10
1.100000000000001
 20
6.9
 11
1.100000000000001
 21
7.100000000000001
  0
LINE
  5
171
100
AcDbEntity
  8
0V DC Ground
  6
ByLayer
 62
  256
370
   -1
100
AcDbLine
 10
1.200000000000001
 20
7.100000000000001
 11
1.200000000000001
 21
6.9
  0
LINE
  5
172
100
AcDbEntity
  8
0V DC Ground
  6
ByLayer
 62
  256
370
   -1
100
AcDbLine
 10
1.3
 20
6.9
 11
1.3
 21
7.100000000000001
  0
LINE
  5
173
100
AcDbEntity
  8
0V DC Ground
  6
ByLayer
 62
  256
370
   -1
100
AcDbLine
 10
1.400000000000001
 20
7.100000000000001
 11
1.400000000000001
 21
6.9
  0
LINE
  5
174
100
AcDbEntity
  8
0V DC Ground
  6
ByLayer
 62
  256
370
   -1
100
AcDbLine
 10
1.500000000000001
 20
6.9
 11
1.500000000000001
 21
7.100000000000001
  0
LINE
  5
175
100
AcDbEntity
  8
0V DC Ground
  6
ByLayer
 62
  256
370
   -1
100
AcDbLine
 10
1.600000000000001
 20
7.100000000000001
 11
1.600000000000001
 21
6.9
  0
LINE
  5
176
100
AcDbEntity
  8
0V DC Ground
  6
ByLayer
 62
  256
370
   -1
100
AcDbLine
 10
1.700000000000001
 20
6.9
 11
1.700000000000001
 21
7.100000000000001
  0
LINE
  5
177
100
AcDbEntity
  8
0V DC Ground
  6
ByLayer
 62
  256
370
   -1
100
AcDbLine
 10
1.800000000000001
 20
7.100000000000001
 11
1.800000000000001
 21
6.9
  0
LINE
  5
178
100
AcDbEntity
  8
0V DC Ground
  6
ByLayer
 62
  256
370
   -1
100
AcDbLine
 10
1.900000000000001
 20
6.9
 11
1.900000000000001
 21
7.100000000000001
  0
LINE
  5
179
100
AcDbEntity
  8
0V DC Ground
  6
ByLayer
 62
  256
370
   -1
100
AcDbLine
 10
2
 20
7.100000000000001
 11
2
 21
6.9
  0
LINE
  5
17A
100
AcDbEntity
  8
0V DC Ground
  6
ByLayer
 62
  256
370
   -1
100
AcDbLine
 10
2.100000000000001
 20
6.9
 11
2.100000000000001
 21
7.100000000000001
  0
LINE
  5
17B
100
AcDbEntity
  8
0V DC Ground
  6
ByLayer
 62
  256
370
   -1
100
AcDbLine
 10
2.200000000000001
 20
7.100000000000001
 11
2.200000000000001
 21
6.9
  0
LINE
  5
17C
100
AcDbEntity
  8
0V DC Ground
  6
ByLayer
 62
  256
370
   -1
100
AcDbLine
 10
2.300000000000001
 20
6.9
 11
2.300000000000001
 21
7.100000000000001
  0
LINE
  5
17D
100
AcDbEntity
  8
+12V DC
  6
ByLayer
 62
  256
370
   -1
100
AcDbLine
 10
2.400000000000001
 20
7.100000000000001
 11
2.400000000000001
 21
6.9
  0
LINE
  5
17E
100
AcDbEntity
  8
+12V DC
  6
ByLayer
 62
  256
370
   -1
100
AcDbLine
 10
2.5
 20
6.9
 11
2.5
 21
7.100000000000001
  0
LINE
  5
17F
100
AcDbEntity
  8
+12V DC
  6
ByLayer
 62
  256
370
   -1
100
AcDbLine
 10
2.600000000000001
 20
7.100000000000001
 11
2.600000000000001
 21
6.9
  0
LINE
  5
180
100
AcDbEntity
  8
+12V DC
  6
ByLayer
 62
  256
370
   -1
100
AcDbLine
 10
2.700000000000001
 20
6.9
 11
2.700000000000001
 21
7.100000000000001
  0
LINE
  5
181
100
AcDbEntity
  8
+12V DC
  6
ByLayer
 62
  256
370
   -1
100
AcDbLine
 10
2.800000000000001
 20
7.100000000000001
 11
2.800000000000001
 21
6.9
  0
LINE
  5
182
100
AcDbEntity
  8
+12V DC
  6
ByLayer
 62
  256
370
   -1
100
AcDbLine
 10
2.900000000000001
 20
6.9
 11
2.900000000000001
 21
7.100000000000001
  0
LINE
  5
183
100
AcDbEntity
  8
+12V DC
  6
ByLayer
 62
  256
370
   -1
100
AcDbLine
 10
3.000000000000001
 20
7.100000000000001
 11
3.000000000000001
 21
6.9
  0
LINE
  5
184
100
AcDbEntity
  8
+12V DC
  6
ByLayer
 62
  256
370
   -1
100
AcDbLine
 10
3.100000000000001
 20
6.9
 11
3.100000000000001
 21
7.100000000000001
  0
LINE
  5
185
100
AcDbEntity
  8
120V AC Hot
  6
ByLayer
 62
  256
370
   -1
100
AcDbLine
 10
4
 20
0.09999999999999989
 11
4
 21
-0.1000000000000001
  0
LINE
  5
186
100
AcDbEntity
  8
120V AC Ground
  6
ByLayer
 62
  256
370
   -1
100
AcDbLine
 10
4.2
 20
0.09999999999999989
 11
4.2
 21
-0.1000000000000001
  0
LINE
  5
187
100
AcDbEntity
  8
120V AC Neutral
  6
ByLayer
 62
  256
370
   -1
100
AcDbLine
 10
4.4
 20
0.09999999999999989
 11
4.4
 21
-0.1000000000000001
  0
LINE
  5
188
100
AcDbEntity
  8
120V AC Cord
  6
ByLayer
 62
  256
370
   -1
100
AcDbLine
 10
4
 20
-0.1000000000000001
 11
4.4
 21
-0.1000000000000001
  0
LINE
  5
189
100
AcDbEntity
  8
120V AC Cord
  6
ByLayer
 62
  256
370
   -1
100
AcDbLine
 10
4.2
 20
-0.1000000000000001
 11
4.2
 21
-0.2
  0
CIRCLE
  5
18A
100
AcDbEntity
  8
Power Devices
  6
ByLayer
 62
    3
370
   13
100
AcDbCircle
 10
3
 20
4
 40
2
  0
MTEXT
  5
18B
100
AcDbEntity
  8
Power Devices
  6
ByLayer
 62
    7
370
   -1
100
AcDbMText
 10
3.043749999999977
 20
5.05
 30
0
 40
0.75
 41
4.645833333333379
 71
    2
 72
    1
  1
DC Power\PSupply
  7
iso
210
0
220
0
230
1
 50
0
 73
    2
 44
1
  0
ENDBLK
  5
74
330
72
100
AcDbEntity
  8
0
100
AcDbBlockEnd
  0
BLOCK
  5
76
330
75
100
AcDbEntity
  8
0
100
AcDbBlockBegin
  2
Pwr- Powah Centah
 70
    0
 10
0
 20
0
  3
Pwr- Powah Centah
  1

  0
LINE
  5
18C
100
AcDbEntity
  8
Power Devices
  6
ByLayer
 62
  256
370
   -1
100
AcDbLine
 10
7
 20
22
 11
0
 21
22
  0
LINE
  5
18D
100
AcDbEntity
  8
Power Devices
  6
ByLayer
 62
  256
370
   -1
100
AcDbLine
 10
0
 20
22
 11
0
 21
0
  0
LINE
  5
18E
100
AcDbEntity
  8
Power Devices
  6
ByLayer
 62
  256
370
   -1
100
AcDbLine
 10
7
 20
22
 11
7
 21
12
  0
LINE
  5
18F
100
AcDbEntity
  8
Power Devices
  6
ByLayer
 62
  256
370
   -1
100
AcDbLine
 10
7
 20
12
 11
6
 21
12
  0
LINE
  5
190
100
AcDbEntity
  8
Power Devices
  6
ByLayer
 62
  256
370
   -1
100
AcDbLine
 10
6
 20
12
 11
6
 21
5
  0
LINE
  5
191
100
AcDbEntity
  8
Power Devices
  6
ByLayer
 62
  256
370
   -1
100
AcDbLine
 10
6
 20
5
 11
5
 21
5
  0
LINE
  5
192
100
AcDbEntity
  8
Power Devices
  6
DASHEDTINY
 62
  256
370
   -1
100
AcDbLine
 10
6
 20
12
 11
0
 21
12
  0
LINE
  5
193
100
AcDbEntity
  8
Power Devices
  6
DASHEDTINY
 62
  256
370
   -1
100
AcDbLine
 10
5
 20
5
 11
0
 21
5
  0
MTEXT
  5
194
100
AcDbEntity
  8
Names & Labels
  6
ByLayer
 62
  256
370
   -1
100
AcDbMText
 10
3.208333333333368
 20
9.75
 30
0
 40
0.75
 41
3.166666666666818
 71
    2
 72
    1
  1
Powah\PCentah
  7
iso
210
0
220
0
230
1
 50
0
 73
    2
 44
1
  0
LINE
  5
195
100
AcDbEntity
  8
Power Devices
  6
ByLayer
 62
  256
370
   -1
100
AcDbLine
 10
2
 20
20
 11
5
 21
20
  0
LINE
  5
196
100
AcDbEntity
  8
Power Devices
  6
ByLayer
 62
  256
370
   -1
100
AcDbLine
 10
5
 20
20
 11
5
 21
18
  0
LINE
  5
197
100
AcDbEntity
  8
Power Devices
  6
ByLayer
 62
  256
370
   -1
100
AcDbLine
 10
5
 20
18
 11
2
 21
18
  0
LINE
  5
198
100
AcDbEntity
  8
Power Devices
  6
ByLayer
 62
  256
370
   -1
100
AcDbLine
 10
2
 20
18
 11
2
 21
20
  0
LINE
  5
199
100
AcDbEntity
  8
Power Devices
  6
ByLayer
 62
  256
370
   -1
100
AcDbLine
 10
2
 20
16
 11
5
 21
16
  0
LINE
  5
19A
100
AcDbEntity
  8
Power Devices
  6
ByLayer
 62
  256
370
   -1
100
AcDbLine
 10
5
 20
16
 11
5
 21
14
  0
LINE
  5
19B
100
AcDbEntity
  8
Power Devices
  6
ByLayer
 62
  256
370
   -1
100
AcDbLine
 10
5
 20
14
 11
2
 21
14
  0
LINE
  5
19C
100
AcDbEntity
  8
Power Devices
  6
ByLayer
 62
  256
370
   -1
100
AcDbLine
 10
2
 20
14
 11
2
 21
16
  0
CIRCLE
  5
19D
100
AcDbEntity
  8
120V AC Cord
  6
ByLayer
 62
  256
370
   -1
100
AcDbCircle
 10
1.5
 20
1.5
 40
0.5
  0
CIRCLE
  5
19E
100
AcDbEntity
  8
120V AC Cord
  6
ByLayer
 62
  256
370
   -1
100
AcDbCircle
 10
3.5
 20
1.5
 40
0.5
  0
CIRCLE
  5
19F
100
AcDbEntity
  8
120V AC Cord
  6
ByLayer
 62
  256
370
   -1
100
AcDbCircle
 10
3.5
 20
3.5
 40
0.5
  0
CIRCLE
  5
1A0
100
AcDbEntity
  8
120V AC Cord
  6
ByLayer
 62
  256
370
   -1
100
AcDbCircle
 10
1.5
 20
3.5
 40
0.5
  0
LINE
  5
1A1
100
AcDbEntity
  8
Power Devices
  6
ByLayer
 62
  256
370
   -1
100
AcDbLine
 10
0
 20
0
 11
5
 21
0
  0
LINE
  5
1A2
100
AcDbEntity
  8
Power Devices
  6
ByLayer
 62
  256
370
   -1
100
AcDbLine
 10
5
 20
0
 11
5
 21
5
  0
LINE
  5
1A3
100
AcDbEntity
  8
120V AC Cord
  6
ByLayer
 62
  256
370
   -1
100
AcDbLine
 10
1.5
 20
1.5
 11
1.5
 21
0.4000000000000001
  0
LINE
  5
1A4
100
AcDbEntity
  8
120V AC Cord
  6
ByLayer
 62
  256
370
   -1
100
AcDbLine
 10
3.5
 20
1.5
 11
3.5
 21
0.5000000000000001
  0
LINE
  5
1A5
100
AcDbEntity
  8
120V AC Cord
  6
ByLayer
 62
  256
370
   -1
100
AcDbLine
 10
1.5
 20
3.5
 11
2.2
 21
2.8
  0
LINE
  5
1A6
100
AcDbEntity
  8
120V AC Cord
  6
ByLayer
 62
  256
370
   -1
100
AcDbLine
 10
2.2
 20
2.8
 11
2.2
 21
2.3
  0
LINE
  5
1A7
100
AcDbEntity
  8
120V AC Cord
  6
ByLayer
 62
  256
370
   -1
100
AcDbLine
 10
3.5
 20
3.5
 11
2.8
 21
2.8
  0
LINE
  5
1A8
100
AcDbEntity
  8
120V AC Cord
  6
ByLayer
 62
  256
370
   -1
100
AcDbLine
 10
2.8
 20
2.8
 11
2.8
 21
2.3
  0
LINE
  5
1A9
100
AcDbEntity
  8
120V AC Cord
  6
ByLayer
 62
  256
370
  200
100
AcDbLine
 10
6
 20
21
 11
8
 21
21
  0
ENDBLK
  5
77
330
75
100
AcDbEntity
  8
0
100
AcDbBlockEnd
  0
BLOCK
  5
79
330
78
100
AcDbEntity
  8
0
100
AcDbBlockBegin
  2
Pwr- Power Strip
 70
    0
 10
0
 20
0
  3
Pwr- Power Strip
  1

  0
LINE
  5
1AA
100
AcDbEntity
  8
Power Devices
  6
ByLayer
 62
  256
370
   -1
100
AcDbLine
 10
0
 20
0
 11
1.5
 21
0
  0
LINE
  5
1AB
100
AcDbEntity
  8
Power Devices
  6
ByLayer
 62
  256
370
   -1
100
AcDbLine
 10
1.5
 20
0
 11
1.5
 21
10
  0
LINE
  5
1AC
100
AcDbEntity
  8
Power Devices
  6
ByLayer
 62
  256
370
   -1
100
AcDbLine
 10
1.5
 20
10
 11
0
 21
10
  0
LINE
  5
1AD
100
AcDbEntity
  8
Power Devices
  6
ByLayer
 62
  256
370
   -1
100
AcDbLine
 10
0
 20
10
 11
0
 21
0
  0
MTEXT
  5
1AE
100
AcDbEntity
  8
Power Devices
  6
ByLayer
 62
  256
370
   -1
100
AcDbMText
 10
0.2499999999999999
 20
4.635416746167473
 30
0
 40
0.75
 41
5.895833174331721
 71
    2
 72
    1
  1
Power Strip
  7
iso
210
0
220
0
230
1
 50
90
 73
    2
 44
1
  0
LINE
  5
1AF
100
AcDbEntity
  8
120V AC Cord
  6
ByLayer
 62
  256
370
   -1
100
AcDbLine
 10
0.8000000000000005
 20
0.09999999999999978
 11
0.8000000000000005
 21
-0.1000000000000002
  0
ENDBLK
  5
7A
330
78
100
AcDbEntity
  8
0
100
AcDbBlockEnd
  0
BLOCK
  5
7C
330
7B
100
AcDbEntity
  8
0
100
AcDbBlockBegin
  2
Ctlr- Falcon F16V3
 70
    0
 10
0
 20
0
  3
Ctlr- Falcon F16V3
  1

  0
LINE
  5
1B0
100
AcDbEntity
  8
Controllers
  6
ByLayer
 62
  256
370
   -1
100
AcDbLine
 10
0
 20
0
 11
7.5
 21
0
  0
LINE
  5
1B1
100
AcDbEntity
  8
Controllers
  6
ByLayer
 62
  256
370
   -1
100
AcDbLine
 10
7.5
 20
0
 11
7.5
 21
4.75
  0
LINE
  5
1B2
100
AcDbEntity
  8
Controllers
  6
ByLayer
 62
  256
370
   -1
100
AcDbLine
 10
7.5
 20
4.75
 11
0
 21
4.75
  0
LINE
  5
1B3
100
AcDbEntity
  8
Controllers
  6
ByLayer
 62
  256
370
   -1
100
AcDbLine
 10
0
 20
4.75
 11
0
 21
0
  0
LINE
  5
1B4
100
AcDbEntity
  8
0V DC Ground
  6
ByLayer
 62
  256
370
   -1
100
AcDbLine
 10
0.1
 20
-5.551115123125783e-017
 11
0.1
 21
-0.2000000000000001
  0
LINE
  5
1B5
100
AcDbEntity
  8
+12V DC
  6
ByLayer
 62
  256
370
   -1
100
AcDbLine
 10
0.3
 20
-5.551115123125783e-017
 11
0.3
 21
-0.2000000000000001
  0
LINE
  5
1B6
100
AcDbEntity
  8
0V DC Ground
  6
ByLayer
 62
  256
370
   -1
100
AcDbLine
 10
7.4
 20
-5.551115123125783e-017
 11
7.4
 21
-0.3
  0
LINE
  5
1B7
100
AcDbEntity
  8
+12V DC
  6
ByLayer
 62
  256
370
   -1
100
AcDbLine
 10
7.2
 20
-5.551115123125783e-017
 11
7.2
 21
-0.3
  0
LINE
  5
1B8
100
AcDbEntity
  8
+5V DC
  6
ByLayer
 62
  256
370
   -1
100
AcDbLine
 10
0.4999999999999999
 20
-5.551115123125783e-017
 11
0.4999999999999999
 21
-0.2000000000000001
  0
LINE
  5
1B9
100
AcDbEntity
  8
Pixel Data
  6
ByLayer
 62
  256
370
   -1
100
AcDbLine
 10
0.5999999999999999
 20
-5.551115123125783e-017
 11
0.5999999999999999
 21
-0.2000000000000001
  0
LINE
  5
1BA
100
AcDbEntity
  8
0V DC Ground
  6
ByLayer
 62
  256
370
   -1
100
AcDbLine
 10
0.7
 20
-5.551115123125783e-017
 11
0.7
 21
-0.2000000000000001
  0
LINE
  5
1BB
100
AcDbEntity
  8
+5V DC
  6
ByLayer
 62
  256
370
   -1
100
AcDbLine
 10
0.9000000000000001
 20
-2.775557561562891e-017
 11
0.9000000000000001
 21
-0.2
  0
LINE
  5
1BC
100
AcDbEntity
  8
Pixel Data
  6
ByLayer
 62
  256
370
   -1
100
AcDbLine
 10
1
 20
-2.775557561562891e-017
 11
1
 21
-0.2
  0
LINE
  5
1BD
100
AcDbEntity
  8
0V DC Ground
  6
ByLayer
 62
  256
370
   -1
100
AcDbLine
 10
1.1
 20
-2.775557561562891e-017
 11
1.1
 21
-0.2
  0
LINE
  5
1BE
100
AcDbEntity
  8
+5V DC
  6
ByLayer
 62
  256
370
   -1
100
AcDbLine
 10
1.3
 20
-2.775557561562891e-017
 11
1.3
 21
-0.2
  0
LINE
  5
1BF
100
AcDbEntity
  8
Pixel Data
  6
ByLayer
 62
  256
370
   -1
100
AcDbLine
 10
1.4
 20
-2.775557561562891e-017
 11
1.4
 21
-0.2
  0
LINE
  5
1C0
100
AcDbEntity
  8
0V DC Ground
  6
ByLayer
 62
  256
370
   -1
100
AcDbLine
 10
1.5
 20
-2.775557561562891e-017
 11
1.5
 21
-0.2
  0
LINE
  5
1C1
100
AcDbEntity
  8
+5V DC
  6
ByLayer
 62
  256
370
   -1
100
AcDbLine
 10
1.7
 20
-2.775557561562891e-017
 11
1.7
 21
-0.2
  0
LINE
  5
1C2
100
AcDbEntity
  8
Pixel Data
  6
ByLayer
 62
  256
370
   -1
100
AcDbLine
 10
1.8
 20
-2.775557561562891e-017
 11
1.8
 21
-0.2
  0
LINE
  5
1C3
100
AcDbEntity
  8
0V DC Ground
  6
ByLayer
 62
  256
370
   -1
100
AcDbLine
 10
1.9
 20
-2.775557561562891e-017
 11
1.9
 21
-0.2
  0
LINE
  5
1C4
100
AcDbEntity
  8
+5V DC
  6
ByLayer
 62
  256
370
   -1
100
AcDbLine
 10
2.1
 20
-2.775557561562891e-017
 11
2.1
 21
-0.2
  0
LINE
  5
1C5
100
AcDbEntity
  8
Pixel Data
  6
ByLayer
 62
  256
370
   -1
100
AcDbLine
 10
2.2
 20
-2.775557561562891e-017
 11
2.2
 21
-0.2
  0
LINE
  5
1C6
100
AcDbEntity
  8
0V DC Ground
  6
ByLayer
 62
  256
370
   -1
100
AcDbLine
 10
2.3
 20
-2.775557561562891e-017
 11
2.3
 21
-0.2
  0
LINE
  5
1C7
100
AcDbEntity
  8
+5V DC
  6
ByLayer
 62
  256
370
   -1
100
AcDbLine
 10
2.5
 20
-2.775557561562891e-017
 11
2.5
 21
-0.2
  0
LINE
  5
1C8
100
AcDbEntity
  8
Pixel Data
  6
ByLayer
 62
  256
370
   -1
100
AcDbLine
 10
2.6
 20
-2.775557561562891e-017
 11
2.6
 21
-0.2
  0
LINE
  5
1C9
100
AcDbEntity
  8
0V DC Ground
  6
ByLayer
 62
  256
370
   -1
100
AcDbLine
 10
2.7
 20
-2.775557561562891e-017
 11
2.7
 21
-0.2
  0
LINE
  5
1CA
100
AcDbEntity
  8
+5V DC
  6
ByLayer
 62
  256
370
   -1
100
AcDbLine
 10
2.9
 20
-2.775557561562891e-017
 11
2.9
 21
-0.2
  0
LINE
  5
1CB
100
AcDbEntity
  8
Pixel Data
  6
ByLayer
 62
  256
370
   -1
100
AcDbLine
 10
3
 20
-2.775557561562891e-017
 11
3
 21
-0.2
  0
LINE
  5
1CC
100
AcDbEntity
  8
0V DC Ground
  6
ByLayer
 62
  256
370
   -1
100
AcDbLine
 10
3.1
 20
-2.775557561562891e-017
 11
3.1
 21
-0.2
  0
LINE
  5
1CD
100
AcDbEntity
  8
+5V DC
  6
ByLayer
 62
  256
370
   -1
100
AcDbLine
 10
3.3
 20
-2.775557561562891e-017
 11
3.3
 21
-0.2
  0
LINE
  5
1CE
100
AcDbEntity
  8
Pixel Data
  6
ByLayer
 62
  256
370
   -1
100
AcDbLine
 10
3.4
 20
-2.775557561562891e-017
 11
3.4
 21
-0.2
  0
LINE
  5
1CF
100
AcDbEntity
  8
0V DC Ground
  6
ByLayer
 62
  256
370
   -1
100
AcDbLine
 10
3.5
 20
-2.775557561562891e-017
 11
3.5
 21
-0.2
  0
LINE
  5
1D0
100
AcDbEntity
  8
+5V DC
  6
ByLayer
 62
  256
370
   -1
100
AcDbLine
 10
3.7
 20
-2.775557561562891e-017
 11
3.7
 21
-0.2
  0
LINE
  5
1D1
100
AcDbEntity
  8
Pixel Data
  6
ByLayer
 62
  256
370
   -1
100
AcDbLine
 10
3.8
 20
-2.775557561562891e-017
 11
3.8
 21
-0.2
  0
LINE
  5
1D2
100
AcDbEntity
  8
0V DC Ground
  6
ByLayer
 62
  256
370
   -1
100
AcDbLine
 10
3.9
 20
-2.775557561562891e-017
 11
3.9
 21
-0.2
  0
LINE
  5
1D3
100
AcDbEntity
  8
+5V DC
  6
ByLayer
 62
  256
370
   -1
100
AcDbLine
 10
4.100000000000001
 20
-2.775557561562891e-017
 11
4.100000000000001
 21
-0.2
  0
LINE
  5
1D4
100
AcDbEntity
  8
Pixel Data
  6
ByLayer
 62
  256
370
   -1
100
AcDbLine
 10
4.2
 20
-2.775557561562891e-017
 11
4.2
 21
-0.2
  0
LINE
  5
1D5
100
AcDbEntity
  8
0V DC Ground
  6
ByLayer
 62
  256
370
   -1
100
AcDbLine
 10
4.300000000000001
 20
-2.775557561562891e-017
 11
4.300000000000001
 21
-0.2
  0
LINE
  5
1D6
100
AcDbEntity
  8
+5V DC
  6
ByLayer
 62
  256
370
   -1
100
AcDbLine
 10
4.5
 20
-2.775557561562891e-017
 11
4.5
 21
-0.2
  0
LINE
  5
1D7
100
AcDbEntity
  8
Pixel Data
  6
ByLayer
 62
  256
370
   -1
100
AcDbLine
 10
4.6
 20
-2.775557561562891e-017
 11
4.6
 21
-0.2
  0
LINE
  5
1D8
100
AcDbEntity
  8
0V DC Ground
  6
ByLayer
 62
  256
370
   -1
100
AcDbLine
 10
4.7
 20
-2.775557561562891e-017
 11
4.7
 21
-0.2
  0
LINE
  5
1D9
100
AcDbEntity
  8
+5V DC
  6
ByLayer
 62
  256
370
   -1
100
AcDbLine
 10
4.9
 20
-2.775557561562891e-017
 11
4.9
 21
-0.2
  0
LINE
  5
1DA
100
AcDbEntity
  8
Pixel Data
  6
ByLayer
 62
  256
370
   -1
100
AcDbLine
 10
5
 20
-2.775557561562891e-017
 11
5
 21
-0.2
  0
LINE
  5
1DB
100
AcDbEntity
  8
0V DC Ground
  6
ByLayer
 62
  256
370
   -1
100
AcDbLine
 10
5.100000000000001
 20
-2.775557561562891e-017
 11
5.100000000000001
 21
-0.2
  0
LINE
  5
1DC
100
AcDbEntity
  8
+5V DC
  6
ByLayer
 62
  256
370
   -1
100
AcDbLine
 10
5.3
 20
-2.775557561562891e-017
 11
5.3
 21
-0.2
  0
LINE
  5
1DD
100
AcDbEntity
  8
Pixel Data
  6
ByLayer
 62
  256
370
   -1
100
AcDbLine
 10
5.399999999999999
 20
-2.775557561562891e-017
 11
5.399999999999999
 21
-0.2
  0
LINE
  5
1DE
100
AcDbEntity
  8
0V DC Ground
  6
ByLayer
 62
  256
370
   -1
100
AcDbLine
 10
5.5
 20
-2.775557561562891e-017
 11
5.5
 21
-0.2
  0
LINE
  5
1DF
100
AcDbEntity
  8
+5V DC
  6
ByLayer
 62
  256
370
   -1
100
AcDbLine
 10
5.7
 20
-2.775557561562891e-017
 11
5.7
 21
-0.2
  0
LINE
  5
1E0
100
AcDbEntity
  8
Pixel Data
  6
ByLayer
 62
  256
370
   -1
100
AcDbLine
 10
5.8
 20
-2.775557561562891e-017
 11
5.8
 21
-0.2
  0
LINE
  5
1E1
100
AcDbEntity
  8
0V DC Ground
  6
ByLayer
 62
  256
370
   -1
100
AcDbLine
 10
5.9
 20
-2.775557561562891e-017
 11
5.9
 21
-0.2
  0
LINE
  5
1E2
100
AcDbEntity
  8
+5V DC
  6
ByLayer
 62
  256
370
   -1
100
AcDbLine
 10
6.100000000000001
 20
-2.775557561562891e-017
 11
6.100000000000001
 21
-0.2
  0
LINE
  5
1E3
100
AcDbEntity
  8
Pixel Data
  6
ByLayer
 62
  256
370
   -1
100
AcDbLine
 10
6.2
 20
-2.775557561562891e-017
 11
6.2
 21
-0.2
  0
LINE
  5
1E4
100
AcDbEntity
  8
0V DC Ground
  6
ByLayer
 62
  256
370
   -1
100
AcDbLine
 10
6.300000000000001
 20
-2.775557561562891e-017
 11
6.300000000000001
 21
-0.2
  0
LINE
  5
1E5
100
AcDbEntity
  8
+5V DC
  6
ByLayer
 62
  256
370
   -1
100
AcDbLine
 10
6.5
 20
-2.775557561562891e-017
 11
6.5
 21
-0.2
  0
LINE
  5
1E6
100
AcDbEntity
  8
Pixel Data
  6
ByLayer
 62
  256
370
   -1
100
AcDbLine
 10
6.6
 20
-2.775557561562891e-017
 11
6.6
 21
-0.2
  0
LINE
  5
1E7
100
AcDbEntity
  8
0V DC Ground
  6
ByLayer
 62
  256
370
   -1
100
AcDbLine
 10
6.7
 20
-2.775557561562891e-017
 11
6.7
 21
-0.2
  0
MTEXT
  5
1E8
100
AcDbEntity
  8
Pixel Data
  6
ByLayer
 62
  256
370
   -1
100
AcDbMText
 10
0.6
 20
0.09999999999999995
 30
0
 40
0.25
 41
0.05555555555555555
 71
    8
 72
    1
  1
1
  7
iso
210
0
220
0
230
1
 50
0
 73
    2
 44
1
  0
MTEXT
  5
1E9
100
AcDbEntity
  8
Pixel Data
  6
ByLayer
 62
  256
370
   -1
100
AcDbMText
 10
1
 20
0.09999999999999995
 30
0
 40
0.25
 41
0.1111111111111111
 71
    8
 72
    1
  1
2
  7
iso
210
0
220
0
230
1
 50
0
 73
    2
 44
1
  0
MTEXT
  5
1EA
100
AcDbEntity
  8
Pixel Data
  6
ByLayer
 62
  256
370
   -1
100
AcDbMText
 10
1.4
 20
0.09999999999999995
 30
0
 40
0.25
 41
0.1111111111111266
 71
    8
 72
    1
  1
3
  7
iso
210
0
220
0
230
1
 50
0
 73
    2
 44
1
  0
MTEXT
  5
1EB
100
AcDbEntity
  8
Pixel Data
  6
ByLayer
 62
  256
370
   -1
100
AcDbMText
 10
1.8
 20
0.09999999999999995
 30
0
 40
0.25
 41
0.1388888888888889
 71
    8
 72
    1
  1
4
  7
iso
210
0
220
0
230
1
 50
0
 73
    2
 44
1
  0
MTEXT
  5
1EC
100
AcDbEntity
  8
Pixel Data
  6
ByLayer
 62
  256
370
   -1
100
AcDbMText
 10
2.2
 20
0.09999999999999995
 30
0
 40
0.25
 41
0.1111111111111266
 71
    8
 72
    1
  1
5
  7
iso
210
0
220
0
230
1
 50
0
 73
    2
 44
1
  0
MTEXT
  5
1ED
100
AcDbEntity
  8
Pixel Data
  6
ByLayer
 62
  256
370
   -1
100
AcDbMText
 10
2.6
 20
0.09999999999999995
 30
0
 40
0.25
 41
0.1111111111111266
 71
    8
 72
    1
  1
6
  7
iso
210
0
220
0
230
1
 50
0
 73
    2
 44
1
  0
MTEXT
  5
1EE
100
AcDbEntity
  8
Pixel Data
  6
ByLayer
 62
  256
370
   -1
100
AcDbMText
 10
3
 20
0.09999999999999995
 30
0
 40
0.25
 41
0.1111111111111111
 71
    8
 72
    1
  1
7
  7
iso
210
0
220
0
230
1
 50
0
 73
    2
 44
1
  0
MTEXT
  5
1EF
100
AcDbEntity
  8
Pixel Data
  6
ByLayer
 62
  256
370
   -1
100
AcDbMText
 10
3.4
 20
0.09999999999999995
 30
0
 40
0.25
 41
0.1111111111111111
 71
    8
 72
    1
  1
8
  7
iso
210
0
220
0
230
1
 50
0
 73
    2
 44
1
  0
MTEXT
  5
1F0
100
AcDbEntity
  8
Pixel Data
  6
ByLayer
 62
  256
370
   -1
100
AcDbMText
 10
3.8
 20
0.09999999999999995
 30
0
 40
0.25
 41
0.1111111111111266
 71
    8
 72
    1
  1
9
  7
iso
210
0
220
0
230
1
 50
0
 73
    2
 44
1
  0
MTEXT
  5
1F1
100
AcDbEntity
  8
Pixel Data
  6
ByLayer
 62
  256
370
   -1
100
AcDbMText
 10
4.2
 20
0.09999999999999995
 30
0
 40
0.25
 41
0.25
 71
    8
 72
    1
  1
10
  7
iso
210
0
220
0
230
1
 50
0
 73
    2
 44
1
  0
MTEXT
  5
1F2
100
AcDbEntity
  8
Pixel Data
  6
ByLayer
 62
  256
370
   -1
100
AcDbMText
 10
4.6
 20
0.09999999999999995
 30
0
 40
0.25
 41
0.1944444444444444
 71
    8
 72
    1
  1
11
  7
iso
210
0
220
0
230
1
 50
0
 73
    2
 44
1
  0
MTEXT
  5
1F3
100
AcDbEntity
  8
Pixel Data
  6
ByLayer
 62
  256
370
   -1
100
AcDbMText
 10
5
 20
0.09999999999999995
 30
0
 40
0.25
 41
0.25
 71
    8
 72
    1
  1
12
  7
iso
210
0
220
0
230
1
 50
0
 73
    2
 44
1
  0
MTEXT
  5
1F4
100
AcDbEntity
  8
Pixel Data
  6
ByLayer
 62
  256
370
   -1
100
AcDbMText
 10
5.400000000000001
 20
0.09999999999999995
 30
0
 40
0.25
 41
0.2500000000000155
 71
    8
 72
    1
  1
13
  7
iso
210
0
220
0
230
1
 50
0
 73
    2
 44
1
  0
MTEXT
  5
1F5
100
AcDbEntity
  8
Pixel Data
  6
ByLayer
 62
  256
370
   -1
100
AcDbMText
 10
5.800000000000001
 20
0.09999999999999995
 30
0
 40
0.25
 41
0.2777777777777778
 71
    8
 72
    1
  1
14
  7
iso
210
0
220
0
230
1
 50
0
 73
    2
 44
1
  0
MTEXT
  5
1F6
100
AcDbEntity
  8
Pixel Data
  6
ByLayer
 62
  256
370
   -1
100
AcDbMText
 10
6.200000000000001
 20
0.09999999999999995
 30
0
 40
0.25
 41
0.2500000000000155
 71
    8
 72
    1
  1
15
  7
iso
210
0
220
0
230
1
 50
0
 73
    2
 44
1
  0
MTEXT
  5
1F7
100
AcDbEntity
  8
Pixel Data
  6
ByLayer
 62
  256
370
   -1
100
AcDbMText
 10
6.600000000000001
 20
0.09999999999999995
 30
0
 40
0.25
 41
0.2500000000000155
 71
    8
 72
    1
  1
16
  7
iso
210
0
220
0
230
1
 50
0
 73
    2
 44
1
  0
MTEXT
  5
1F8
100
AcDbEntity
  8
+12V DC
  6
ByLayer
 62
  256
370
   -1
100
AcDbMText
 10
7.200000000000001
 20
0.09999999999999995
 30
0
 40
0.25
 41
0.5555555555555556
 71
    8
 72
    1
  1
Pwr
  7
iso
210
0
220
0
230
1
 50
0
 73
    2
 44
1
  0
MTEXT
  5
1F9
100
AcDbEntity
  8
+12V DC
  6
ByLayer
 62
  256
370
   -1
100
AcDbMText
 10
0.3
 20
0.09999999999999995
 30
0
 40
0.25
 41
0.5555555555555556
 71
    8
 72
    1
  1
Pwr
  7
iso
210
0
220
0
230
1
 50
0
 73
    2
 44
1
  0
LINE
  5
1FA
100
AcDbEntity
  8
DMX
  6
ByLayer
 62
  256
370
   -1
100
AcDbLine
 10
7.500000000000001
 20
4.4
 11
7.700000000000001
 21
4.4
  0
LINE
  5
1FB
100
AcDbEntity
  8
DMX
  6
ByLayer
 62
  256
370
   -1
100
AcDbLine
 10
7.500000000000001
 20
4.100000000000001
 11
7.700000000000001
 21
4.100000000000001
  0
LINE
  5
1FC
100
AcDbEntity
  8
DMX
  6
ByLayer
 62
  256
370
   -1
100
AcDbLine
 10
7.500000000000001
 20
3.8
 11
7.700000000000001
 21
3.8
  0
MTEXT
  5
1FD
100
AcDbEntity
  8
DMX
  6
ByLayer
 62
  256
370
   -1
100
AcDbMText
 10
6.600000000000001
 20
4.1
 30
0
 40
0.25
 41
0.8333333333333487
 71
    4
 72
    1
  1
DMX2
  7
iso
210
0
220
0
230
1
 50
0
 73
    2
 44
1
  0
MTEXT
  5
1FE
100
AcDbEntity
  8
DMX
  6
ByLayer
 62
  256
370
   -1
100
AcDbMText
 10
6.600000000000001
 20
4.4
 30
0
 40
0.25
 41
0.7777777777777932
 71
    4
 72
    1
  1
DMX1
  7
iso
210
0
220
0
230
1
 50
0
 73
    2
 44
1
  0
MTEXT
  5
1FF
100
AcDbEntity
  8
DMX
  6
ByLayer
 62
  256
370
   -1
100
AcDbMText
 10
6.600000000000001
 20
3.8
 30
0
 40
0.25
 41
0.8333333333333643
 71
    4
 72
    1
  1
DMX3
  7
iso
210
0
220
0
230
1
 50
0
 73
    2
 44
1
  0
LINE
  5
200
100
AcDbEntity
  8
Ethernet
  6
ByLayer
 62
  256
370
   -1
100
AcDbLine
 10
1
 20
4.75
 11
1
 21
4.9
  0
LINE
  5
201
100
AcDbEntity
  8
Ethernet
  6
ByLayer
 62
  256
370
   -1
100
AcDbLine
 10
1.3
 20
4.75
 11
1.3
 21
4.9
  0
MTEXT
  5
202
100
AcDbEntity
  8
Controllers
  6
ByLayer
 62
  256
370
   -1
100
AcDbMText
 10
3.8
 20
2.3
 30
0
 40
0.75
 41
6.395833333333496
 71
    5
 72
    1
  1
Falcon F16V3
  7
iso
210
0
220
0
230
1
 50
0
 73
    2
 44
1
  0
MTEXT
  5
203
100
AcDbEntity
  8
Ethernet
  6
ByLayer
 62
  256
370
   -1
100
AcDbMText
 10
0.8
 20
4.600000000000001
 30
0
 40
0.25
 41
1.180555555555567
 71
    2
 72
    1
  1
Eth 0 1
  7
iso
210
0
220
0
230
1
 50
0
 73
    2
 44
1
  0
ENDBLK
  5
7D
330
7B
100
AcDbEntity
  8
0
100
AcDbBlockEnd
  0
BLOCK
  5
7F
330
7E
100
AcDbEntity
  8
0
100
AcDbBlockBegin
  2
Ctlr- Chinese AC 12
 70
    0
 10
0
 20
0
  3
Ctlr- Chinese AC 12
  1

  0
LINE
  5
204
100
AcDbEntity
  8
Controllers
  6
ByLayer
 62
  256
370
   -1
100
AcDbLine
 10
0
 20
0
 11
8
 21
0
  0
LINE
  5
205
100
AcDbEntity
  8
Controllers
  6
ByLayer
 62
  256
370
   -1
100
AcDbLine
 10
8
 20
0
 11
8
 21
3.25
  0
LINE
  5
206
100
AcDbEntity
  8
Controllers
  6
ByLayer
 62
  256
370
   -1
100
AcDbLine
 10
8
 20
3.25
 11
0
 21
3.25
  0
LINE
  5
207
100
AcDbEntity
  8
Controllers
  6
ByLayer
 62
  256
370
   -1
100
AcDbLine
 10
0
 20
3.25
 11
0
 21
0
  0
MTEXT
  5
208
100
AcDbEntity
  8
Controllers
  6
ByLayer
 62
  256
370
   -1
100
AcDbMText
 10
4.166666473808956
 20
1.75
 30
0
 40
0.75
 41
6.958333719048849
 71
    2
 72
    1
  1
Chinese AC 12
  7
iso
210
0
220
0
230
1
 50
0
 73
    2
 44
1
  0
LINE
  5
209
100
AcDbEntity
  8
120V AC Hot
  6
ByLayer
 62
  256
370
   -1
100
AcDbLine
 10
0.5
 20
2.775557561562891e-017
 11
0.5
 21
-0.25
  0
LINE
  5
20A
100
AcDbEntity
  8
120V AC Hot
  6
ByLayer
 62
  256
370
   -1
100
AcDbLine
 10
1.1
 20
2.775557561562891e-017
 11
1.1
 21
-0.25
  0
LINE
  5
20B
100
AcDbEntity
  8
120V AC Hot
  6
ByLayer
 62
  256
370
   -1
100
AcDbLine
 10
1.7
 20
2.775557561562891e-017
 11
1.7
 21
-0.25
  0
LINE
  5
20C
100
AcDbEntity
  8
120V AC Hot
  6
ByLayer
 62
  256
370
   -1
100
AcDbLine
 10
2.3
 20
2.775557561562891e-017
 11
2.3
 21
-0.25
  0
LINE
  5
20D
100
AcDbEntity
  8
120V AC Controlled
  6
ByLayer
 62
  256
370
   -1
100
AcDbLine
 10
0.8
 20
2.775557561562891e-017
 11
0.8
 21
-0.25
  0
LINE
  5
20E
100
AcDbEntity
  8
120V AC Controlled
  6
ByLayer
 62
  256
370
   -1
100
AcDbLine
 10
1.4
 20
2.775557561562891e-017
 11
1.4
 21
-0.25
  0
LINE
  5
20F
100
AcDbEntity
  8
120V AC Controlled
  6
ByLayer
 62
  256
370
   -1
100
AcDbLine
 10
2
 20
2.775557561562891e-017
 11
2
 21
-0.25
  0
LINE
  5
210
100
AcDbEntity
  8
120V AC Controlled
  6
ByLayer
 62
  256
370
   -1
100
AcDbLine
 10
2.6
 20
2.775557561562891e-017
 11
2.6
 21
-0.25
  0
LINE
  5
211
100
AcDbEntity
  8
120V AC Hot
  6
ByLayer
 62
  256
370
   -1
100
AcDbLine
 10
2.899999999999999
 20
2.775557561562891e-017
 11
2.899999999999999
 21
-0.25
  0
LINE
  5
212
100
AcDbEntity
  8
120V AC Hot
  6
ByLayer
 62
  256
370
   -1
100
AcDbLine
 10
3.5
 20
2.775557561562891e-017
 11
3.5
 21
-0.25
  0
LINE
  5
213
100
AcDbEntity
  8
120V AC Hot
  6
ByLayer
 62
  256
370
   -1
100
AcDbLine
 10
4.1
 20
2.775557561562891e-017
 11
4.1
 21
-0.25
  0
LINE
  5
214
100
AcDbEntity
  8
120V AC Hot
  6
ByLayer
 62
  256
370
   -1
100
AcDbLine
 10
4.699999999999999
 20
2.775557561562891e-017
 11
4.699999999999999
 21
-0.25
  0
LINE
  5
215
100
AcDbEntity
  8
120V AC Controlled
  6
ByLayer
 62
  256
370
   -1
100
AcDbLine
 10
3.199999999999999
 20
2.775557561562891e-017
 11
3.199999999999999
 21
-0.25
  0
LINE
  5
216
100
AcDbEntity
  8
120V AC Controlled
  6
ByLayer
 62
  256
370
   -1
100
AcDbLine
 10
3.8
 20
2.775557561562891e-017
 11
3.8
 21
-0.25
  0
LINE
  5
217
100
AcDbEntity
  8
120V AC Controlled
  6
ByLayer
 62
  256
370
   -1
100
AcDbLine
 10
4.399999999999999
 20
2.775557561562891e-017
 11
4.399999999999999
 21
-0.25
  0
LINE
  5
218
100
AcDbEntity
  8
120V AC Controlled
  6
ByLayer
 62
  256
370
   -1
100
AcDbLine
 10
4.999999999999999
 20
2.775557561562891e-017
 11
4.999999999999999
 21
-0.25
  0
LINE
  5
219
100
AcDbEntity
  8
120V AC Hot
  6
ByLayer
 62
  256
370
   -1
100
AcDbLine
 10
5.299999999999999
 20
2.775557561562891e-017
 11
5.299999999999999
 21
-0.25
  0
LINE
  5
21A
100
AcDbEntity
  8
120V AC Hot
  6
ByLayer
 62
  256
370
   -1
100
AcDbLine
 10
5.899999999999999
 20
2.775557561562891e-017
 11
5.899999999999999
 21
-0.25
  0
LINE
  5
21B
100
AcDbEntity
  8
120V AC Hot
  6
ByLayer
 62
  256
370
   -1
100
AcDbLine
 10
6.499999999999999
 20
2.775557561562891e-017
 11
6.499999999999999
 21
-0.25
  0
LINE
  5
21C
100
AcDbEntity
  8
120V AC Hot
  6
ByLayer
 62
  256
370
   -1
100
AcDbLine
 10
7.099999999999999
 20
2.775557561562891e-017
 11
7.099999999999999
 21
-0.25
  0
LINE
  5
21D
100
AcDbEntity
  8
120V AC Controlled
  6
ByLayer
 62
  256
370
   -1
100
AcDbLine
 10
5.599999999999999
 20
2.775557561562891e-017
 11
5.599999999999999
 21
-0.25
  0
LINE
  5
21E
100
AcDbEntity
  8
120V AC Controlled
  6
ByLayer
 62
  256
370
   -1
100
AcDbLine
 10
6.199999999999999
 20
2.775557561562891e-017
 11
6.199999999999999
 21
-0.25
  0
LINE
  5
21F
100
AcDbEntity
  8
120V AC Controlled
  6
ByLayer
 62
  256
370
   -1
100
AcDbLine
 10
6.799999999999999
 20
2.775557561562891e-017
 11
6.799999999999999
 21
-0.25
  0
LINE
  5
220
100
AcDbEntity
  8
120V AC Controlled
  6
ByLayer
 62
  256
370
   -1
100
AcDbLine
 10
7.399999999999999
 20
2.775557561562891e-017
 11
7.399999999999999
 21
-0.25
  0
MTEXT
  5
221
100
AcDbEntity
  8
120V AC Controlled
  6
ByLayer
 62
  256
370
   -1
100
AcDbMText
 10
0.8
 20
0.1
 30
0
 40
0.25
 41
0.25
 71
    8
 72
    1
  1
12
  7
iso
210
0
220
0
230
1
 50
0
 73
    2
 44
1
  0
MTEXT
  5
222
100
AcDbEntity
  8
120V AC Controlled
  6
ByLayer
 62
  256
370
   -1
100
AcDbMText
 10
1.4
 20
0.1
 30
0
 40
0.25
 41
0.1944444444444444
 71
    8
 72
    1
  1
11
  7
iso
210
0
220
0
230
1
 50
0
 73
    2
 44
1
  0
MTEXT
  5
223
100
AcDbEntity
  8
120V AC Controlled
  6
ByLayer
 62
  256
370
   -1
100
AcDbMText
 10
2
 20
0.1
 30
0
 40
0.25
 41
0.25
 71
    8
 72
    1
  1
10
  7
iso
210
0
220
0
230
1
 50
0
 73
    2
 44
1
  0
MTEXT
  5
224
100
AcDbEntity
  8
120V AC Controlled
  6
ByLayer
 62
  256
370
   -1
100
AcDbMText
 10
2.6
 20
0.1
 30
0
 40
0.25
 41
0.1111111111111266
 71
    8
 72
    1
  1
9
  7
iso
210
0
220
0
230
1
 50
0
 73
    2
 44
1
  0
MTEXT
  5
225
100
AcDbEntity
  8
120V AC Controlled
  6
ByLayer
 62
  256
370
   -1
100
AcDbMText
 10
3.2
 20
0.1
 30
0
 40
0.25
 41
0.1111111111111111
 71
    8
 72
    1
  1
8
  7
iso
210
0
220
0
230
1
 50
0
 73
    2
 44
1
  0
MTEXT
  5
226
100
AcDbEntity
  8
120V AC Controlled
  6
ByLayer
 62
  256
370
   -1
100
AcDbMText
 10
3.8
 20
0.1
 30
0
 40
0.25
 41
0.1111111111111111
 71
    8
 72
    1
  1
7
  7
iso
210
0
220
0
230
1
 50
0
 73
    2
 44
1
  0
MTEXT
  5
227
100
AcDbEntity
  8
120V AC Controlled
  6
ByLayer
 62
  256
370
   -1
100
AcDbMText
 10
4.4
 20
0.1
 30
0
 40
0.25
 41
0.1111111111111266
 71
    8
 72
    1
  1
6
  7
iso
210
0
220
0
230
1
 50
0
 73
    2
 44
1
  0
MTEXT
  5
228
100
AcDbEntity
  8
120V AC Controlled
  6
ByLayer
 62
  256
370
   -1
100
AcDbMText
 10
5.000000000000001
 20
0.1
 30
0
 40
0.25
 41
0.1111111111111266
 71
    8
 72
    1
  1
5
  7
iso
210
0
220
0
230
1
 50
0
 73
    2
 44
1
  0
MTEXT
  5
229
100
AcDbEntity
  8
120V AC Controlled
  6
ByLayer
 62
  256
370
   -1
100
AcDbMText
 10
5.600000000000001
 20
0.1
 30
0
 40
0.25
 41
0.1388888888888889
 71
    8
 72
    1
  1
4
  7
iso
210
0
220
0
230
1
 50
0
 73
    2
 44
1
  0
MTEXT
  5
22A
100
AcDbEntity
  8
120V AC Controlled
  6
ByLayer
 62
  256
370
   -1
100
AcDbMText
 10
6.200000000000001
 20
0.1
 30
0
 40
0.25
 41
0.1111111111111266
 71
    8
 72
    1
  1
3
  7
iso
210
0
220
0
230
1
 50
0
 73
    2
 44
1
  0
MTEXT
  5
22B
100
AcDbEntity
  8
120V AC Controlled
  6
ByLayer
 62
  256
370
   -1
100
AcDbMText
 10
6.800000000000001
 20
0.1
 30
0
 40
0.25
 41
0.1111111111111111
 71
    8
 72
    1
  1
2
  7
iso
210
0
220
0
230
1
 50
0
 73
    2
 44
1
  0
MTEXT
  5
22C
100
AcDbEntity
  8
120V AC Controlled
  6
ByLayer
 62
  256
370
   -1
100
AcDbMText
 10
7.4
 20
0.1
 30
0
 40
0.25
 41
0.05555555555555555
 71
    8
 72
    1
  1
1
  7
iso
210
0
220
0
230
1
 50
0
 73
    2
 44
1
  0
LINE
  5
22D
100
AcDbEntity
  8
DMX
  6
ByLayer
 62
  256
370
   -1
100
AcDbLine
 10
1
 20
3.25
 11
1
 21
3.5
  0
LINE
  5
22E
100
AcDbEntity
  8
DMX
  6
ByLayer
 62
  256
370
   -1
100
AcDbLine
 10
2
 20
3.25
 11
2
 21
3.5
  0
MTEXT
  5
22F
100
AcDbEntity
  8
DMX
  6
ByLayer
 62
  256
370
   -1
100
AcDbMText
 10
1
 20
3.1
 30
0
 40
0.25
 41
0.1944444444444561
 71
    2
 72
    1
  1
In
  7
iso
210
0
220
0
230
1
 50
0
 73
    2
 44
1
  0
MTEXT
  5
230
100
AcDbEntity
  8
DMX
  6
ByLayer
 62
  256
370
   -1
100
AcDbMText
 10
2
 20
3.1
 30
0
 40
0.25
 41
0.5
 71
    2
 72
    1
  1
Out
  7
iso
210
0
220
0
230
1
 50
0
 73
    2
 44
1
  0
MTEXT
  5
231
100
AcDbEntity
  8
120V AC Neutral
  6
ByLayer
 62
  256
370
   -1
100
AcDbMText
 10
7.2
 20
3.1
 30
0
 40
0.25
 41
0.1388888888888889
 71
    2
 72
    1
  1
N
  7
iso
210
0
220
0
230
1
 50
0
 73
    2
 44
1
  0
MTEXT
  5
232
100
AcDbEntity
  8
120V AC Hot
  6
ByLayer
 62
  256
370
   -1
100
AcDbMText
 10
7.5
 20
3.1
 30
0
 40
0.25
 41
0.1111111111111111
 71
    2
 72
    1
  1
L
  7
iso
210
0
220
0
230
1
 50
0
 73
    2
 44
1
  0
LINE
  5
233
100
AcDbEntity
  8
120V AC Hot
  6
ByLayer
 62
  256
370
   -1
100
AcDbLine
 10
7.5
 20
3.25
 11
7.5
 21
3.5
  0
LINE
  5
234
100
AcDbEntity
  8
120V AC Neutral
  6
ByLayer
 62
  256
370
   -1
100
AcDbLine
 10
7.2
 20
3.25
 11
7.2
 21
3.5
  0
ENDBLK
  5
80
330
7E
100
AcDbEntity
  8
0
100
AcDbBlockEnd
  0
BLOCK
  5
82
330
81
100
AcDbEntity
  8
0
100
AcDbBlockBegin
  2
Wire- Raceway
 70
    0
 10
0
 20
0
  3
Wire- Raceway
  1

  0
LINE
  5
235
100
AcDbEntity
  8
Raceway
  6
ByLayer
 62
  256
370
   -1
100
AcDbLine
 10
0
 20
0
 11
15.5
 21
0
  0
LINE
  5
236
100
AcDbEntity
  8
Raceway
  6
ByLayer
 62
  256
370
   -1
100
AcDbLine
 10
15.5
 20
0
 11
15.5
 21
1
  0
LINE
  5
237
100
AcDbEntity
  8
Raceway
  6
ByLayer
 62
  256
370
   -1
100
AcDbLine
 10
15.5
 20
1
 11
0
 21
1
  0
LINE
  5
238
100
AcDbEntity
  8
Raceway
  6
ByLayer
 62
  256
370
   -1
100
AcDbLine
 10
0
 20
1
 11
0
 21
0
  0
ENDBLK
  5
83
330
81
100
AcDbEntity
  8
0
100
AcDbBlockEnd
  0
BLOCK
  5
85
330
84
100
AcDbEntity
  8
0
100
AcDbBlockBegin
  2
Dev- Amplifier
 70
    0
 10
0
 20
0
  3
Dev- Amplifier
  1

  0
LINE
  5
239
100
AcDbEntity
  8
Net-Amp-Xmit
  6
ByLayer
 62
    1
370
   -1
100
AcDbLine
 10
5
 20
4
 11
0
 21
4
  0
LINE
  5
23A
100
AcDbEntity
  8
Net-Amp-Xmit
  6
ByLayer
 62
    1
370
   -1
100
AcDbLine
 10
5
 20
0
 11
5
 21
4
  0
LINE
  5
23B
100
AcDbEntity
  8
Net-Amp-Xmit
  6
ByLayer
 62
    1
370
   -1
100
AcDbLine
 10
0
 20
4
 11
0
 21
0
  0
LINE
  5
23C
100
AcDbEntity
  8
Net-Amp-Xmit
  6
ByLayer
 62
    1
370
   -1
100
AcDbLine
 10
0
 20
0
 11
5
 21
0
  0
MTEXT
  5
23D
100
AcDbEntity
  8
Net-Amp-Xmit
  6
ByLayer
 62
    7
370
   -1
100
AcDbMText
 10
2.500000000000001
 20
2.3
 30
0
 40
0.75
 41
1.833333333333368
 71
    2
 72
    1
  1
Amp
  7
iso
210
0
220
0
230
1
 50
0
 73
    2
 44
1
  0
LINE
  5
23E
100
AcDbEntity
  8
Wire Misc. Other
  6
ByLayer
 62
  256
370
   -1
100
AcDbLine
 10
1
 20
0.1
 11
1
 21
-0.09999999999999998
  0
LINE
  5
23F
100
AcDbEntity
  8
Wire Misc. Other
  6
ByLayer
 62
  256
370
   -1
100
AcDbLine
 10
1.5
 20
0.1
 11
1.5
 21
-0.09999999999999998
  0
LINE
  5
240
100
AcDbEntity
  8
Wire Misc. Other
  6
ByLayer
 62
  256
370
   -1
100
AcDbLine
 10
2
 20
0.1
 11
2
 21
-0.09999999999999998
  0
LINE
  5
241
100
AcDbEntity
  8
Wire Misc. Other
  6
ByLayer
 62
  256
370
   -1
100
AcDbLine
 10
2.5
 20
0.1
 11
2.5
 21
-0.09999999999999998
  0
LINE
  5
242
100
AcDbEntity
  8
Wire Misc. Other
  6
ByLayer
 62
  256
370
   -1
100
AcDbLine
 10
3
 20
0.1
 11
3
 21
-0.09999999999999998
  0
LINE
  5
243
100
AcDbEntity
  8
+12V DC
  6
ByLayer
 62
  256
370
   -1
100
AcDbLine
 10
4.5
 20
0.1
 11
4.5
 21
-0.09999999999999998
  0
LINE
  5
244
100
AcDbEntity
  8
0V DC Ground
  6
ByLayer
 62
  256
370
   -1
100
AcDbLine
 10
4.4
 20
0.1
 11
4.4
 21
-0.09999999999999998
  0
MTEXT
  5
245
100
AcDbEntity
  8
+12V DC
  6
ByLayer
 62
  256
370
   -1
100
AcDbMText
 10
4.4
 20
0.2
 30
0
 40
0.4
 41
0.8888888888888888
 71
    8
 72
    1
  1
Pwr
  7
iso
210
0
220
0
230
1
 50
0
 73
    2
 44
1
  0
MTEXT
  5
246
100
AcDbEntity
  8
Wire Misc. Other
  6
ByLayer
 62
  256
370
   -1
100
AcDbMText
 10
0.9000000000000001
 20
0.2
 30
0
 40
0.4
 41
0.8888888888888888
 71
    8
 72
    1
  1
Aud
  7
iso
210
0
220
0
230
1
 50
0
 73
    2
 44
1
  0
LINE
  5
247
100
AcDbEntity
  8
Net-Amp-Xmit
  6
ByLayer
 62
    9
370
   -1
100
AcDbLine
 10
0.7000000000000002
 20
4
 11
0.7000000000000002
 21
4.600000000000001
  0
LINE
  5
248
100
AcDbEntity
  8
Net-Amp-Xmit
  6
ByLayer
 62
    9
370
   -1
100
AcDbLine
 10
0.7000000000000002
 20
4.600000000000001
 11
1.3
 21
4.600000000000001
  0
LINE
  5
249
100
AcDbEntity
  8
Net-Amp-Xmit
  6
ByLayer
 62
    9
370
   -1
100
AcDbLine
 10
1.3
 20
4.600000000000001
 11
1.3
 21
4
  0
LINE
  5
24A
100
AcDbEntity
  8
Net-Amp-Xmit
  6
ByLayer
 62
    9
370
   -1
100
AcDbLine
 10
1.7
 20
4
 11
1.7
 21
4.600000000000001
  0
LINE
  5
24B
100
AcDbEntity
  8
Net-Amp-Xmit
  6
ByLayer
 62
    9
370
   -1
100
AcDbLine
 10
1.7
 20
4.600000000000001
 11
2.7
 21
4.600000000000001
  0
LINE
  5
24C
100
AcDbEntity
  8
Net-Amp-Xmit
  6
ByLayer
 62
    9
370
   -1
100
AcDbLine
 10
2.7
 20
4.600000000000001
 11
2.7
 21
4
  0
LINE
  5
24D
100
AcDbEntity
  8
Net-Amp-Xmit
  6
ByLayer
 62
    9
370
   -1
100
AcDbLine
 10
3.1
 20
4
 11
3.1
 21
4.600000000000001
  0
LINE
  5
24E
100
AcDbEntity
  8
Net-Amp-Xmit
  6
ByLayer
 62
    9
370
   -1
100
AcDbLine
 10
3.1
 20
4.600000000000001
 11
3.7
 21
4.600000000000001
  0
LINE
  5
24F
100
AcDbEntity
  8
Net-Amp-Xmit
  6
ByLayer
 62
    9
370
   -1
100
AcDbLine
 10
3.7
 20
4.600000000000001
 11
3.7
 21
4
  0
LINE
  5
250
100
AcDbEntity
  8
Net-Amp-Xmit
  6
ByLayer
 62
    9
370
   -1
100
AcDbLine
 10
4.100000000000001
 20
4
 11
4.100000000000001
 21
4.2
  0
LINE
  5
251
100
AcDbEntity
  8
Net-Amp-Xmit
  6
ByLayer
 62
    9
370
   -1
100
AcDbLine
 10
4.100000000000001
 20
4.2
 11
4.600000000000001
 21
4.2
  0
LINE
  5
252
100
AcDbEntity
  8
Net-Amp-Xmit
  6
ByLayer
 62
    9
370
   -1
100
AcDbLine
 10
4.600000000000001
 20
4.2
 11
4.600000000000001
 21
4
  0
ENDBLK
  5
86
330
84
100
AcDbEntity
  8
0
100
AcDbBlockEnd
  0
BLOCK
  5
88
330
87
100
AcDbEntity
  8
0
100
AcDbBlockBegin
  2
Dev- Network Switch
 70
    0
 10
0
 20
0
  3
Dev- Network Switch
  1

  0
LINE
  5
253
100
AcDbEntity
  8
Net-Amp-Xmit
  6
ByLayer
 62
  256
370
   -1
100
AcDbLine
 10
6.5
 20
4
 11
0
 21
4
  0
LINE
  5
254
100
AcDbEntity
  8
Net-Amp-Xmit
  6
ByLayer
 62
  256
370
   -1
100
AcDbLine
 10
6.5
 20
0
 11
6.5
 21
4
  0
LINE
  5
255
100
AcDbEntity
  8
Net-Amp-Xmit
  6
ByLayer
 62
  256
370
   -1
100
AcDbLine
 10
0
 20
0
 11
6.5
 21
0
  0
LINE
  5
256
100
AcDbEntity
  8
Net-Amp-Xmit
  6
ByLayer
 62
  256
370
   -1
100
AcDbLine
 10
0
 20
4
 11
0
 21
0
  0
LINE
  5
257
100
AcDbEntity
  8
Ethernet
  6
ByLayer
 62
  256
370
   -1
100
AcDbLine
 10
4
 20
0.1
 11
4
 21
-1
  0
LINE
  5
258
100
AcDbEntity
  8
Ethernet
  6
ByLayer
 62
  256
370
   -1
100
AcDbLine
 10
3.5
 20
0.1
 11
3.5
 21
-1
  0
LINE
  5
259
100
AcDbEntity
  8
Ethernet
  6
ByLayer
 62
  256
370
   -1
100
AcDbLine
 10
4.5
 20
0.1
 11
4.5
 21
-1
  0
LINE
  5
25A
100
AcDbEntity
  8
Ethernet
  6
ByLayer
 62
  256
370
   -1
100
AcDbLine
 10
3
 20
0.1
 11
3
 21
-1
  0
LINE
  5
25B
100
AcDbEntity
  8
Ethernet
  6
ByLayer
 62
  256
370
   -1
100
AcDbLine
 10
5
 20
0.1
 11
5
 21
-1
  0
LINE
  5
25C
100
AcDbEntity
  8
Ethernet
  6
ByLayer
 62
  256
370
   -1
100
AcDbLine
 10
5.5
 20
0.1
 11
5.5
 21
-1
  0
LINE
  5
25D
100
AcDbEntity
  8
Ethernet
  6
ByLayer
 62
  256
370
   -1
100
AcDbLine
 10
2.5
 20
0.1
 11
2.5
 21
-1
  0
LINE
  5
25E
100
AcDbEntity
  8
Ethernet
  6
ByLayer
 62
  256
370
   -1
100
AcDbLine
 10
2
 20
0.1
 11
2
 21
-1
  0
LINE
  5
25F
100
AcDbEntity
  8
Ethernet
  6
DASHEDTINY
 62
  256
370
   -1
100
AcDbLine
 10
1.5
 20
-1
 11
6
 21
-1
  0
LINE
  5
260
100
AcDbEntity
  8
+12V DC
  6
ByLayer
 62
  256
370
   -1
100
AcDbLine
 10
1
 20
4
 11
1
 21
5
  0
LINE
  5
261
100
AcDbEntity
  8
0V DC Ground
  6
ByLayer
 62
  256
370
   -1
100
AcDbLine
 10
1.2
 20
4
 11
1.2
 21
5
  0
MTEXT
  5
262
100
AcDbEntity
  8
Net-Amp-Xmit
  6
ByLayer
 62
    7
370
   -1
100
AcDbMText
 10
3.343749920499212
 20
2.65
 30
0
 40
0.75
 41
5.312499840998423
 71
    2
 72
    1
  1
Net Switch
  7
iso
210
0
220
0
230
1
 50
0
 73
    2
 44
1
  0
ENDBLK
  5
89
330
87
100
AcDbEntity
  8
0
100
AcDbBlockEnd
  0
BLOCK
  5
8B
330
8A
100
AcDbEntity
  8
0
100
AcDbBlockBegin
  2
Dev- Transmitter
 70
    0
 10
0
 20
0
  3
Dev- Transmitter
  1

  0
LINE
  5
263
100
AcDbEntity
  8
Net-Amp-Xmit
  6
ByLayer
 62
    9
370
   -1
100
AcDbLine
 10
0
 20
6.5
 11
0
 21
0
  0
MTEXT
  5
264
100
AcDbEntity
  8
Net-Amp-Xmit
  6
ByLayer
 62
    7
370
   -1
100
AcDbMText
 10
2.250000000000017
 20
3.75
 30
0
 40
0.75
 41
2.000000000000035
 71
    2
 72
    1
  1
Xmit
  7
iso
210
0
220
0
230
1
 50
0
 73
    2
 44
1
  0
LINE
  5
265
100
AcDbEntity
  8
Net-Amp-Xmit
  6
ByLayer
 62
    9
370
   -1
100
AcDbLine
 10
4
 20
6.5
 11
0
 21
6.5
  0
LINE
  5
266
100
AcDbEntity
  8
Net-Amp-Xmit
  6
ByLayer
 62
    9
370
   -1
100
AcDbLine
 10
4
 20
0
 11
4
 21
6.5
  0
LINE
  5
267
100
AcDbEntity
  8
Net-Amp-Xmit
  6
ByLayer
 62
    9
370
   -1
100
AcDbLine
 10
0
 20
0
 11
4
 21
0
  0
LINE
  5
268
100
AcDbEntity
  8
Net-Amp-Xmit
  6
ByLayer
 62
    9
370
   -1
100
AcDbLine
 10
0.4999999999999996
 20
6.5
 11
0.4999999999999996
 21
7.100000000000001
  0
LINE
  5
269
100
AcDbEntity
  8
Net-Amp-Xmit
  6
ByLayer
 62
    9
370
   -1
100
AcDbLine
 10
0.4999999999999996
 20
7.100000000000001
 11
0.9999999999999996
 21
7.100000000000001
  0
LINE
  5
26A
100
AcDbEntity
  8
Net-Amp-Xmit
  6
ByLayer
 62
    9
370
   -1
100
AcDbLine
 10
0.9999999999999996
 20
7.100000000000001
 11
0.9999999999999996
 21
6.5
  0
LINE
  5
26B
100
AcDbEntity
  8
Net-Amp-Xmit
  6
ByLayer
 62
    9
370
   -1
100
AcDbLine
 10
3.5
 20
6.5
 11
3.5
 21
7
  0
LINE
  5
26C
100
AcDbEntity
  8
Net-Amp-Xmit
  6
ByLayer
 62
    9
370
   -1
100
AcDbLine
 10
3.5
 20
7
 11
3
 21
7
  0
LINE
  5
26D
100
AcDbEntity
  8
Net-Amp-Xmit
  6
ByLayer
 62
    9
370
   -1
100
AcDbLine
 10
3
 20
7
 11
3
 21
6.5
  0
LINE
  5
26E
100
AcDbEntity
  8
Wire Misc. Other
  6
ByLayer
 62
  256
370
   -1
100
AcDbLine
 10
2.7
 20
6.4
 11
2.7
 21
6.600000000000001
  0
MTEXT
  5
26F
100
AcDbEntity
  8
Wire Misc. Other
  6
ByLayer
 62
  256
370
   -1
100
AcDbMText
 10
2.7
 20
6.4
 30
0
 40
0.4
 41
0.8888888888888888
 71
    2
 72
    1
  1
Aud
  7
iso
210
0
220
0
230
1
 50
0
 73
    2
 44
1
  0
LINE
  5
270
100
AcDbEntity
  8
Wire Misc. Other
  6
ByLayer
 62
  256
370
   -1
100
AcDbLine
 10
3
 20
0.09999999999999998
 11
3
 21
-0.1
  0
MTEXT
  5
271
100
AcDbEntity
  8
Wire Misc. Other
  6
ByLayer
 62
  256
370
   -1
100
AcDbMText
 10
3.022222222222231
 20
0.2
 30
0
 40
0.4
 41
0.8444444444444631
 71
    8
 72
    1
  1
Ant
  7
iso
210
0
220
0
230
1
 50
0
 73
    2
 44
1
  0
LINE
  5
272
100
AcDbEntity
  8
+12V DC
  6
ByLayer
 62
  256
370
   -1
100
AcDbLine
 10
0.8999999999999998
 20
0.1
 11
0.8999999999999998
 21
-0.09999999999999998
  0
LINE
  5
273
100
AcDbEntity
  8
0V DC Ground
  6
ByLayer
 62
  256
370
   -1
100
AcDbLine
 10
0.9999999999999998
 20
0.1
 11
0.9999999999999998
 21
-0.09999999999999998
  0
MTEXT
  5
274
100
AcDbEntity
  8
+12V DC
  6
ByLayer
 62
  256
370
   -1
100
AcDbMText
 10
0.8999999999999998
 20
0.2
 30
0
 40
0.4
 41
0.8888888888888888
 71
    8
 72
    1
  1
Pwr
  7
iso
210
0
220
0
230
1
 50
0
 73
    2
 44
1
  0
ENDBLK
  5
8C
330
8A
100
AcDbEntity
  8
0
100
AcDbBlockEnd
  0
BLOCK
  5
8E
330
8D
100
AcDbEntity
  8
0
100
AcDbBlockBegin
  2
Pwr- Neutral Power Block
 70
    0
 10
0
 20
0
  3
Pwr- Neutral Power Block
  1

  0
LINE
  5
275
100
AcDbEntity
  8
Power Devices
  6
ByLayer
 62
  256
370
   -1
100
AcDbLine
 10
0
 20
0
 11
4
 21
0
  0
LINE
  5
276
100
AcDbEntity
  8
Power Devices
  6
ByLayer
 62
  256
370
   -1
100
AcDbLine
 10
4
 20
0
 11
4
 21
3.5
  0
LINE
  5
277
100
AcDbEntity
  8
Power Devices
  6
ByLayer
 62
  256
370
   -1
100
AcDbLine
 10
4
 20
3.5
 11
0
 21
3.5
  0
LINE
  5
278
100
AcDbEntity
  8
Power Devices
  6
ByLayer
 62
  256
370
   -1
100
AcDbLine
 10
0
 20
3.5
 11
0
 21
0.25
  0
LINE
  5
279
100
AcDbEntity
  8
120V AC Neutral
  6
ByLayer
 62
  256
370
   -1
100
AcDbLine
 10
1
 20
3.6
 11
1
 21
3.4
  0
LINE
  5
27A
100
AcDbEntity
  8
120V AC Neutral
  6
ByLayer
 62
  256
370
   -1
100
AcDbLine
 10
1.2
 20
3.6
 11
1.2
 21
3.4
  0
LINE
  5
27B
100
AcDbEntity
  8
120V AC Neutral
  6
ByLayer
 62
  256
370
   -1
100
AcDbLine
 10
1.4
 20
3.6
 11
1.4
 21
3.4
  0
LINE
  5
27C
100
AcDbEntity
  8
120V AC Neutral
  6
ByLayer
 62
  256
370
   -1
100
AcDbLine
 10
0.8
 20
3.6
 11
0.8
 21
3.4
  0
LINE
  5
27D
100
AcDbEntity
  8
120V AC Neutral
  6
ByLayer
 62
  256
370
   -1
100
AcDbLine
 10
0.6
 20
3.6
 11
0.6
 21
3.4
  0
LINE
  5
27E
100
AcDbEntity
  8
120V AC Neutral
  6
ByLayer
 62
  256
370
   -1
100
AcDbLine
 10
0.2
 20
3.6
 11
0.2
 21
3.4
  0
LINE
  5
27F
100
AcDbEntity
  8
120V AC Neutral
  6
ByLayer
 62
  256
370
   -1
100
AcDbLine
 10
0.4
 20
3.6
 11
0.4
 21
3.4
  0
LINE
  5
280
100
AcDbEntity
  8
120V AC Neutral
  6
ByLayer
 62
  256
370
   -1
100
AcDbLine
 10
1.6
 20
3.6
 11
1.6
 21
3.4
  0
LINE
  5
281
100
AcDbEntity
  8
120V AC Neutral
  6
ByLayer
 62
  256
370
   -1
100
AcDbLine
 10
1.8
 20
3.6
 11
1.8
 21
3.4
  0
LINE
  5
282
100
AcDbEntity
  8
120V AC Neutral
  6
ByLayer
 62
  256
370
   -1
100
AcDbLine
 10
2
 20
3.6
 11
2
 21
3.4
  0
LINE
  5
283
100
AcDbEntity
  8
120V AC Neutral
  6
ByLayer
 62
  256
370
   -1
100
AcDbLine
 10
2.2
 20
3.6
 11
2.2
 21
3.4
  0
LINE
  5
284
100
AcDbEntity
  8
120V AC Neutral
  6
ByLayer
 62
  256
370
   -1
100
AcDbLine
 10
2.4
 20
3.6
 11
2.4
 21
3.4
  0
LINE
  5
285
100
AcDbEntity
  8
120V AC Neutral
  6
ByLayer
 62
  256
370
   -1
100
AcDbLine
 10
2.6
 20
3.6
 11
2.6
 21
3.4
  0
LINE
  5
286
100
AcDbEntity
  8
120V AC Neutral
  6
ByLayer
 62
  256
370
   -1
100
AcDbLine
 10
2.8
 20
3.6
 11
2.8
 21
3.4
  0
LINE
  5
287
100
AcDbEntity
  8
120V AC Neutral
  6
ByLayer
 62
  256
370
   -1
100
AcDbLine
 10
3
 20
3.6
 11
3
 21
3.4
  0
LINE
  5
288
100
AcDbEntity
  8
120V AC Neutral
  6
ByLayer
 62
  256
370
   -1
100
AcDbLine
 10
3.2
 20
3.6
 11
3.2
 21
3.4
  0
LINE
  5
289
100
AcDbEntity
  8
120V AC Neutral
  6
ByLayer
 62
  256
370
   -1
100
AcDbLine
 10
3.4
 20
3.6
 11
3.4
 21
3.4
  0
LINE
  5
28A
100
AcDbEntity
  8
120V AC Neutral
  6
ByLayer
 62
  256
370
   -1
100
AcDbLine
 10
3.6
 20
3.6
 11
3.6
 21
3.4
  0
LINE
  5
28B
100
AcDbEntity
  8
120V AC Neutral
  6
ByLayer
 62
  256
370
   -1
100
AcDbLine
 10
3.8
 20
3.6
 11
3.8
 21
3.4
  0
LINE
  5
28C
100
AcDbEntity
  8
120V AC Neutral
  6
ByLayer
 62
  256
370
   -1
100
AcDbLine
 10
0.7
 20
3.6
 11
0.7
 21
3.4
  0
LINE
  5
28D
100
AcDbEntity
  8
120V AC Neutral
  6
ByLayer
 62
  256
370
   -1
100
AcDbLine
 10
1.1
 20
3.6
 11
1.1
 21
3.4
  0
LINE
  5
28E
100
AcDbEntity
  8
120V AC Neutral
  6
ByLayer
 62
  256
370
   -1
100
AcDbLine
 10
1.5
 20
3.6
 11
1.5
 21
3.4
  0
LINE
  5
28F
100
AcDbEntity
  8
120V AC Neutral
  6
ByLayer
 62
  256
370
   -1
100
AcDbLine
 10
2.1
 20
3.6
 11
2.1
 21
3.4
  0
LINE
  5
290
100
AcDbEntity
  8
120V AC Neutral
  6
ByLayer
 62
  256
370
   -1
100
AcDbLine
 10
2.5
 20
3.6
 11
2.5
 21
3.4
  0
LINE
  5
291
100
AcDbEntity
  8
120V AC Neutral
  6
ByLayer
 62
  256
370
   -1
100
AcDbLine
 10
2.9
 20
3.6
 11
2.9
 21
3.4
  0
LINE
  5
292
100
AcDbEntity
  8
120V AC Neutral
  6
ByLayer
 62
  256
370
   -1
100
AcDbLine
 10
3.3
 20
3.6
 11
3.3
 21
3.4
  0
MTEXT
  5
293
100
AcDbEntity
  8
Power Devices
  6
ByLayer
 62
  256
370
   -1
100
AcDbMText
 10
2.011111111111112
 20
1.75
 30
0
 40
0.5
 41
2.333333333333356
 71
    5
 72
    1
  1
Neutral\PPower\PBlock
  7
iso
210
0
220
0
230
1
 50
0
 73
    2
 44
1
  0
ENDBLK
  5
8F
330
8D
100
AcDbEntity
  8
0
100
AcDbBlockEnd
  0
BLOCK
  5
91
330
90
100
AcDbEntity
  8
0
100
AcDbBlockBegin
  2
Pwr- DC Fusebox 5V
 70
    0
 10
0
 20
0
  3
Pwr- DC Fusebox 5V
  1

  0
LINE
  5
294
100
AcDbEntity
  8
Power Devices
  6
ByLayer
 62
  256
370
   -1
100
AcDbLine
 10
0
 20
0
 11
3.5
 21
0
  0
LINE
  5
295
100
AcDbEntity
  8
Power Devices
  6
ByLayer
 62
  256
370
   -1
100
AcDbLine
 10
3.5
 20
0
 11
3.5
 21
5.5
  0
LINE
  5
296
100
AcDbEntity
  8
Power Devices
  6
ByLayer
 62
  256
370
   -1
100
AcDbLine
 10
3.5
 20
5.5
 11
0
 21
5.5
  0
LINE
  5
297
100
AcDbEntity
  8
Power Devices
  6
ByLayer
 62
  256
370
   -1
100
AcDbLine
 10
0
 20
5.5
 11
0
 21
0
  0
LINE
  5
298
100
AcDbEntity
  8
0V DC Ground
  6
ByLayer
 62
  256
370
   -1
100
AcDbLine
 10
0.2999999999999998
 20
5.600000000000001
 11
0.2999999999999998
 21
5.300000000000001
  0
LINE
  5
299
100
AcDbEntity
  8
0V DC Ground
  6
ByLayer
 62
  256
370
   -1
100
AcDbLine
 10
0.4999999999999998
 20
5.600000000000001
 11
0.4999999999999998
 21
5.100000000000001
  0
LINE
  5
29A
100
AcDbEntity
  8
0V DC Ground
  6
ByLayer
 62
  256
370
   -1
100
AcDbLine
 10
0.6999999999999998
 20
5.600000000000001
 11
0.6999999999999998
 21
5.300000000000001
  0
LINE
  5
29B
100
AcDbEntity
  8
0V DC Ground
  6
ByLayer
 62
  256
370
   -1
100
AcDbLine
 10
0.8999999999999998
 20
5.600000000000001
 11
0.8999999999999998
 21
5.100000000000001
  0
LINE
  5
29C
100
AcDbEntity
  8
0V DC Ground
  6
ByLayer
 62
  256
370
   -1
100
AcDbLine
 10
1.1
 20
5.600000000000001
 11
1.1
 21
5.300000000000001
  0
LINE
  5
29D
100
AcDbEntity
  8
0V DC Ground
  6
ByLayer
 62
  256
370
   -1
100
AcDbLine
 10
1.3
 20
5.600000000000001
 11
1.3
 21
5.100000000000001
  0
LINE
  5
29E
100
AcDbEntity
  8
0V DC Ground
  6
ByLayer
 62
  256
370
   -1
100
AcDbLine
 10
3.2
 20
5.600000000000001
 11
3.2
 21
5.300000000000001
  0
LINE
  5
29F
100
AcDbEntity
  8
0V DC Ground
  6
ByLayer
 62
  256
370
   -1
100
AcDbLine
 10
3
 20
5.600000000000001
 11
3
 21
5.100000000000001
  0
LINE
  5
2A0
100
AcDbEntity
  8
0V DC Ground
  6
ByLayer
 62
  256
370
   -1
100
AcDbLine
 10
2.8
 20
5.600000000000001
 11
2.8
 21
5.300000000000001
  0
LINE
  5
2A1
100
AcDbEntity
  8
0V DC Ground
  6
ByLayer
 62
  256
370
   -1
100
AcDbLine
 10
2.6
 20
5.600000000000001
 11
2.6
 21
5.100000000000001
  0
LINE
  5
2A2
100
AcDbEntity
  8
0V DC Ground
  6
ByLayer
 62
  256
370
   -1
100
AcDbLine
 10
2.4
 20
5.600000000000001
 11
2.4
 21
5.300000000000001
  0
LINE
  5
2A3
100
AcDbEntity
  8
0V DC Ground
  6
ByLayer
 62
  256
370
   -1
100
AcDbLine
 10
2.2
 20
5.600000000000001
 11
2.2
 21
5.100000000000001
  0
LINE
  5
2A4
100
AcDbEntity
  8
+5V DC
  6
ByLayer
 62
  256
370
   -1
100
AcDbLine
 10
0.1
 20
0.5000000000000001
 11
-0.1
 21
0.5000000000000001
  0
LINE
  5
2A5
100
AcDbEntity
  8
+5V DC
  6
ByLayer
 62
  256
370
   -1
100
AcDbLine
 10
0.1
 20
1
 11
-0.1
 21
1
  0
LINE
  5
2A6
100
AcDbEntity
  8
+5V DC
  6
ByLayer
 62
  256
370
   -1
100
AcDbLine
 10
0.1
 20
1.5
 11
-0.1
 21
1.5
  0
LINE
  5
2A7
100
AcDbEntity
  8
+5V DC
  6
ByLayer
 62
  256
370
   -1
100
AcDbLine
 10
0.1
 20
2
 11
-0.1
 21
2
  0
LINE
  5
2A8
100
AcDbEntity
  8
+5V DC
  6
ByLayer
 62
  256
370
   -1
100
AcDbLine
 10
3.4
 20
1
 11
3.6
 21
1
  0
LINE
  5
2A9
100
AcDbEntity
  8
+5V DC
  6
ByLayer
 62
  256
370
   -1
100
AcDbLine
 10
3.4
 20
0.5000000000000001
 11
3.6
 21
0.5000000000000001
  0
LINE
  5
2AA
100
AcDbEntity
  8
+5V DC
  6
ByLayer
 62
  256
370
   -1
100
AcDbLine
 10
3.4
 20
1.5
 11
3.6
 21
1.5
  0
LINE
  5
2AB
100
AcDbEntity
  8
+5V DC
  6
ByLayer
 62
  256
370
   -1
100
AcDbLine
 10
3.4
 20
2
 11
3.6
 21
2
  0
LINE
  5
2AC
100
AcDbEntity
  8
+5V DC
  6
ByLayer
 62
  256
370
   -1
100
AcDbLine
 10
3.4
 20
2.5
 11
3.6
 21
2.5
  0
LINE
  5
2AD
100
AcDbEntity
  8
+5V DC
  6
ByLayer
 62
  256
370
   -1
100
AcDbLine
 10
3.4
 20
3
 11
3.6
 21
3
  0
LINE
  5
2AE
100
AcDbEntity
  8
+5V DC
  6
ByLayer
 62
  256
370
   -1
100
AcDbLine
 10
0.1
 20
2.5
 11
-0.1
 21
2.5
  0
LINE
  5
2AF
100
AcDbEntity
  8
+5V DC
  6
ByLayer
 62
  256
370
   -1
100
AcDbLine
 10
0.1
 20
3
 11
-0.1
 21
3
  0
MTEXT
  5
2B0
100
AcDbEntity
  8
+5V DC
  6
ByLayer
 62
  256
370
   -1
100
AcDbMText
 10
1.700000000000001
 20
1.5
 30
0
 40
0.75
 41
2.895833333333426
 71
    5
 72
    1
  1
5V DC
  7
iso
210
0
220
0
230
1
 50
0
 73
    2
 44
1
  0
MTEXT
  5
2B1
100
AcDbEntity
  8
Power Devices
  6
ByLayer
 62
  256
370
   -1
100
AcDbMText
 10
1.741666666666667
 20
3.9
 30
0
 40
0.75
 41
2.416666666666667
 71
    5
 72
    1
  1
Fuse\PBlock
  7
iso
210
0
220
0
230
1
 50
0
 73
    2
 44
1
  0
LINE
  5
2B2
100
AcDbEntity
  8
+5V DC
  6
ByLayer
 62
  256
370
   -1
100
AcDbLine
 10
1.8
 20
0.1
 11
1.8
 21
-0.09999999999999998
  0
ENDBLK
  5
92
330
90
100
AcDbEntity
  8
0
100
AcDbBlockEnd
  0
BLOCK
  5
94
330
93
100
AcDbEntity
  8
0
100
AcDbBlockBegin
  2
Pwr- DC Fusebox 12V
 70
    0
 10
0
 20
0
  3
Pwr- DC Fusebox 12V
  1

  0
LINE
  5
2B3
100
AcDbEntity
  8
Power Devices
  6
ByLayer
 62
  256
370
   -1
100
AcDbLine
 10
-3.608224830031759e-016
 20
0
 11
3.5
 21
0
  0
LINE
  5
2B4
100
AcDbEntity
  8
Power Devices
  6
ByLayer
 62
  256
370
   -1
100
AcDbLine
 10
3.5
 20
0
 11
3.5
 21
5.5
  0
LINE
  5
2B5
100
AcDbEntity
  8
Power Devices
  6
ByLayer
 62
  256
370
   -1
100
AcDbLine
 10
3.5
 20
5.5
 11
-3.608224830031759e-016
 21
5.5
  0
LINE
  5
2B6
100
AcDbEntity
  8
Power Devices
  6
ByLayer
 62
  256
370
   -1
100
AcDbLine
 10
-3.608224830031759e-016
 20
5.5
 11
-3.608224830031759e-016
 21
0
  0
LINE
  5
2B7
100
AcDbEntity
  8
0V DC Ground
  6
ByLayer
 62
  256
370
   -1
100
AcDbLine
 10
0.2999999999999995
 20
5.600000000000001
 11
0.2999999999999995
 21
5.300000000000001
  0
LINE
  5
2B8
100
AcDbEntity
  8
0V DC Ground
  6
ByLayer
 62
  256
370
   -1
100
AcDbLine
 10
0.4999999999999994
 20
5.600000000000001
 11
0.4999999999999994
 21
5.100000000000001
  0
LINE
  5
2B9
100
AcDbEntity
  8
0V DC Ground
  6
ByLayer
 62
  256
370
   -1
100
AcDbLine
 10
0.6999999999999995
 20
5.600000000000001
 11
0.6999999999999995
 21
5.300000000000001
  0
LINE
  5
2BA
100
AcDbEntity
  8
0V DC Ground
  6
ByLayer
 62
  256
370
   -1
100
AcDbLine
 10
0.8999999999999995
 20
5.600000000000001
 11
0.8999999999999995
 21
5.100000000000001
  0
LINE
  5
2BB
100
AcDbEntity
  8
0V DC Ground
  6
ByLayer
 62
  256
370
   -1
100
AcDbLine
 10
1.099999999999999
 20
5.600000000000001
 11
1.099999999999999
 21
5.300000000000001
  0
LINE
  5
2BC
100
AcDbEntity
  8
0V DC Ground
  6
ByLayer
 62
  256
370
   -1
100
AcDbLine
 10
1.299999999999999
 20
5.600000000000001
 11
1.299999999999999
 21
5.100000000000001
  0
LINE
  5
2BD
100
AcDbEntity
  8
0V DC Ground
  6
ByLayer
 62
  256
370
   -1
100
AcDbLine
 10
3.2
 20
5.600000000000001
 11
3.2
 21
5.300000000000001
  0
LINE
  5
2BE
100
AcDbEntity
  8
0V DC Ground
  6
ByLayer
 62
  256
370
   -1
100
AcDbLine
 10
3
 20
5.600000000000001
 11
3
 21
5.100000000000001
  0
LINE
  5
2BF
100
AcDbEntity
  8
0V DC Ground
  6
ByLayer
 62
  256
370
   -1
100
AcDbLine
 10
2.799999999999999
 20
5.600000000000001
 11
2.799999999999999
 21
5.300000000000001
  0
LINE
  5
2C0
100
AcDbEntity
  8
0V DC Ground
  6
ByLayer
 62
  256
370
   -1
100
AcDbLine
 10
2.6
 20
5.600000000000001
 11
2.6
 21
5.100000000000001
  0
LINE
  5
2C1
100
AcDbEntity
  8
0V DC Ground
  6
ByLayer
 62
  256
370
   -1
100
AcDbLine
 10
2.399999999999999
 20
5.600000000000001
 11
2.399999999999999
 21
5.300000000000001
  0
LINE
  5
2C2
100
AcDbEntity
  8
0V DC Ground
  6
ByLayer
 62
  256
370
   -1
100
AcDbLine
 10
2.199999999999999
 20
5.600000000000001
 11
2.199999999999999
 21
5.100000000000001
  0
MTEXT
  5
2C3
100
AcDbEntity
  8
Power Devices
  6
ByLayer
 62
  256
370
   -1
100
AcDbMText
 10
1.741666666666667
 20
3.9
 30
0
 40
0.75
 41
2.416666666666667
 71
    5
 72
    1
  1
Fuse\PBlock
  7
iso
210
0
220
0
230
1
 50
0
 73
    2
 44
1
  0
LINE
  5
2C4
100
AcDbEntity
  8
+12V DC
  6
ByLayer
 62
  256
370
   -1
100
AcDbLine
 10
0.09999999999999964
 20
0.5000000000000001
 11
-0.1000000000000004
 21
0.5000000000000001
  0
LINE
  5
2C5
100
AcDbEntity
  8
+12V DC
  6
ByLayer
 62
  256
370
   -1
100
AcDbLine
 10
0.09999999999999964
 20
1
 11
-0.1000000000000004
 21
1
  0
LINE
  5
2C6
100
AcDbEntity
  8
+12V DC
  6
ByLayer
 62
  256
370
   -1
100
AcDbLine
 10
0.09999999999999964
 20
1.5
 11
-0.1000000000000004
 21
1.5
  0
LINE
  5
2C7
100
AcDbEntity
  8
+12V DC
  6
ByLayer
 62
  256
370
   -1
100
AcDbLine
 10
0.09999999999999964
 20
2
 11
-0.1000000000000004
 21
2
  0
LINE
  5
2C8
100
AcDbEntity
  8
+12V DC
  6
ByLayer
 62
  256
370
   -1
100
AcDbLine
 10
3.4
 20
1
 11
3.6
 21
1
  0
LINE
  5
2C9
100
AcDbEntity
  8
+12V DC
  6
ByLayer
 62
  256
370
   -1
100
AcDbLine
 10
3.4
 20
0.5000000000000001
 11
3.6
 21
0.5000000000000001
  0
LINE
  5
2CA
100
AcDbEntity
  8
+12V DC
  6
ByLayer
 62
  256
370
   -1
100
AcDbLine
 10
3.4
 20
1.5
 11
3.6
 21
1.5
  0
LINE
  5
2CB
100
AcDbEntity
  8
+12V DC
  6
ByLayer
 62
  256
370
   -1
100
AcDbLine
 10
3.4
 20
2
 11
3.6
 21
2
  0
LINE
  5
2CC
100
AcDbEntity
  8
+12V DC
  6
ByLayer
 62
  256
370
   -1
100
AcDbLine
 10
3.4
 20
2.5
 11
3.6
 21
2.5
  0
LINE
  5
2CD
100
AcDbEntity
  8
+12V DC
  6
ByLayer
 62
  256
370
   -1
100
AcDbLine
 10
3.4
 20
3
 11
3.6
 21
3
  0
LINE
  5
2CE
100
AcDbEntity
  8
+12V DC
  6
ByLayer
 62
  256
370
   -1
100
AcDbLine
 10
0.09999999999999964
 20
2.5
 11
-0.1000000000000004
 21
2.5
  0
LINE
  5
2CF
100
AcDbEntity
  8
+12V DC
  6
ByLayer
 62
  256
370
   -1
100
AcDbLine
 10
0.09999999999999964
 20
3
 11
-0.1000000000000004
 21
3
  0
MTEXT
  5
2D0
100
AcDbEntity
  8
+12V DC
  6
ByLayer
 62
  256
370
   -1
100
AcDbMText
 10
1.7
 20
1.5
 30
0
 40
0.75
 41
3.312500000000047
 71
    5
 72
    1
  1
12V DC
  7
iso
210
0
220
0
230
1
 50
0
 73
    2
 44
1
  0
LINE
  5
2D1
100
AcDbEntity
  8
+12V DC
  6
ByLayer
 62
  256
370
   -1
100
AcDbLine
 10
1.8
 20
0.1
 11
1.8
 21
-0.09999999999999998
  0
ENDBLK
  5
95
330
93
100
AcDbEntity
  8
0
100
AcDbBlockEnd
  0
BLOCK
  5
97
330
96
100
AcDbEntity
  8
0
100
AcDbBlockBegin
  2
Pwr- Neutral Power Block-0
 70
    0
 10
0
 20
0
  3
Pwr- Neutral Power Block-0
  1

  0
LINE
  5
2D2
100
AcDbEntity
  8
Power Devices
  6
ByLayer
 62
  256
370
   -1
100
AcDbLine
 10
4
 20
3.5
 11
0
 21
3.5
  0
LINE
  5
2D3
100
AcDbEntity
  8
Power Devices
  6
ByLayer
 62
  256
370
   -1
100
AcDbLine
 10
0
 20
3.5
 11
-4.284766985662714e-016
 21
-3.983358781711743e-016
  0
LINE
  5
2D4
100
AcDbEntity
  8
Power Devices
  6
ByLayer
 62
  256
370
   -1
100
AcDbLine
 10
-4.284766985662714e-016
 20
-3.983358781711743e-016
 11
4
 21
-8.881784197001252e-016
  0
LINE
  5
2D5
100
AcDbEntity
  8
Power Devices
  6
ByLayer
 62
  256
370
   -1
100
AcDbLine
 10
4
 20
-8.881784197001252e-016
 11
4
 21
3.25
  0
LINE
  5
2D6
100
AcDbEntity
  8
120V AC Neutral
  6
ByLayer
 62
  256
370
   -1
100
AcDbLine
 10
3
 20
-0.1000000000000004
 11
3
 21
0.09999999999999977
  0
LINE
  5
2D7
100
AcDbEntity
  8
120V AC Neutral
  6
ByLayer
 62
  256
370
   -1
100
AcDbLine
 10
2.799999999999999
 20
-0.1000000000000004
 11
2.799999999999999
 21
0.0999999999999998
  0
LINE
  5
2D8
100
AcDbEntity
  8
120V AC Neutral
  6
ByLayer
 62
  256
370
   -1
100
AcDbLine
 10
2.599999999999999
 20
-0.1000000000000004
 11
2.599999999999999
 21
0.09999999999999981
  0
LINE
  5
2D9
100
AcDbEntity
  8
120V AC Neutral
  6
ByLayer
 62
  256
370
   -1
100
AcDbLine
 10
3.2
 20
-0.1000000000000004
 11
3.2
 21
0.09999999999999974
  0
LINE
  5
2DA
100
AcDbEntity
  8
120V AC Neutral
  6
ByLayer
 62
  256
370
   -1
100
AcDbLine
 10
3.4
 20
-0.1000000000000005
 11
3.4
 21
0.09999999999999971
  0
LINE
  5
2DB
100
AcDbEntity
  8
120V AC Neutral
  6
ByLayer
 62
  256
370
   -1
100
AcDbLine
 10
3.799999999999999
 20
-0.1000000000000005
 11
3.799999999999999
 21
0.09999999999999967
  0
LINE
  5
2DC
100
AcDbEntity
  8
120V AC Neutral
  6
ByLayer
 62
  256
370
   -1
100
AcDbLine
 10
3.599999999999999
 20
-0.1000000000000005
 11
3.599999999999999
 21
0.0999999999999997
  0
LINE
  5
2DD
100
AcDbEntity
  8
120V AC Neutral
  6
ByLayer
 62
  256
370
   -1
100
AcDbLine
 10
2.4
 20
-0.1000000000000003
 11
2.4
 21
0.09999999999999984
  0
LINE
  5
2DE
100
AcDbEntity
  8
120V AC Neutral
  6
ByLayer
 62
  256
370
   -1
100
AcDbLine
 10
2.2
 20
-0.1000000000000003
 11
2.2
 21
0.09999999999999987
  0
LINE
  5
2DF
100
AcDbEntity
  8
120V AC Neutral
  6
ByLayer
 62
  256
370
   -1
100
AcDbLine
 10
2
 20
-0.1000000000000003
 11
2
 21
0.09999999999999989
  0
LINE
  5
2E0
100
AcDbEntity
  8
120V AC Neutral
  6
ByLayer
 62
  256
370
   -1
100
AcDbLine
 10
1.799999999999999
 20
-0.1000000000000003
 11
1.799999999999999
 21
0.09999999999999991
  0
LINE
  5
2E1
100
AcDbEntity
  8
120V AC Neutral
  6
ByLayer
 62
  256
370
   -1
100
AcDbLine
 10
1.599999999999999
 20
-0.1000000000000002
 11
1.599999999999999
 21
0.09999999999999994
  0
LINE
  5
2E2
100
AcDbEntity
  8
120V AC Neutral
  6
ByLayer
 62
  256
370
   -1
100
AcDbLine
 10
1.4
 20
-0.1000000000000002
 11
1.4
 21
0.09999999999999996
  0
LINE
  5
2E3
100
AcDbEntity
  8
120V AC Neutral
  6
ByLayer
 62
  256
370
   -1
100
AcDbLine
 10
1.199999999999999
 20
-0.1000000000000002
 11
1.199999999999999
 21
0.09999999999999999
  0
LINE
  5
2E4
100
AcDbEntity
  8
120V AC Neutral
  6
ByLayer
 62
  256
370
   -1
100
AcDbLine
 10
0.9999999999999996
 20
-0.1000000000000002
 11
0.9999999999999996
 21
0.1
  0
LINE
  5
2E5
100
AcDbEntity
  8
120V AC Neutral
  6
ByLayer
 62
  256
370
   -1
100
AcDbLine
 10
0.7999999999999994
 20
-0.1000000000000001
 11
0.7999999999999994
 21
0.1
  0
LINE
  5
2E6
100
AcDbEntity
  8
120V AC Neutral
  6
ByLayer
 62
  256
370
   -1
100
AcDbLine
 10
0.5999999999999992
 20
-0.1000000000000001
 11
0.5999999999999992
 21
0.1000000000000001
  0
LINE
  5
2E7
100
AcDbEntity
  8
120V AC Neutral
  6
ByLayer
 62
  256
370
   -1
100
AcDbLine
 10
0.3999999999999999
 20
-0.1000000000000001
 11
0.3999999999999999
 21
0.1000000000000001
  0
LINE
  5
2E8
100
AcDbEntity
  8
120V AC Neutral
  6
ByLayer
 62
  256
370
   -1
100
AcDbLine
 10
0.1999999999999988
 20
-0.1000000000000001
 11
0.1999999999999989
 21
0.1000000000000001
  0
LINE
  5
2E9
100
AcDbEntity
  8
120V AC Neutral
  6
ByLayer
 62
  256
370
   -1
100
AcDbLine
 10
3.299999999999999
 20
-0.1000000000000004
 11
3.299999999999999
 21
0.09999999999999973
  0
LINE
  5
2EA
100
AcDbEntity
  8
120V AC Neutral
  6
ByLayer
 62
  256
370
   -1
100
AcDbLine
 10
2.9
 20
-0.1000000000000004
 11
2.9
 21
0.09999999999999978
  0
LINE
  5
2EB
100
AcDbEntity
  8
120V AC Neutral
  6
ByLayer
 62
  256
370
   -1
100
AcDbLine
 10
2.5
 20
-0.1000000000000004
 11
2.5
 21
0.09999999999999983
  0
LINE
  5
2EC
100
AcDbEntity
  8
120V AC Neutral
  6
ByLayer
 62
  256
370
   -1
100
AcDbLine
 10
1.9
 20
-0.1000000000000003
 11
1.9
 21
0.09999999999999991
  0
LINE
  5
2ED
100
AcDbEntity
  8
120V AC Neutral
  6
ByLayer
 62
  256
370
   -1
100
AcDbLine
 10
1.5
 20
-0.1000000000000002
 11
1.5
 21
0.09999999999999995
  0
LINE
  5
2EE
100
AcDbEntity
  8
120V AC Neutral
  6
ByLayer
 62
  256
370
   -1
100
AcDbLine
 10
1.099999999999999
 20
-0.1000000000000002
 11
1.099999999999999
 21
0.1
  0
LINE
  5
2EF
100
AcDbEntity
  8
120V AC Neutral
  6
ByLayer
 62
  256
370
   -1
100
AcDbLine
 10
0.6999999999999988
 20
-0.1000000000000001
 11
0.6999999999999988
 21
0.1
  0
MTEXT
  5
2F0
100
AcDbEntity
  8
Power Devices
  6
ByLayer
 62
  256
370
   -1
100
AcDbMText
 10
1.988888888888888
 20
1.749999999999999
 30
0
 40
0.5
 41
2.333333333333356
 71
    5
 72
    1
  1
Neutral\PPower\PBlock
  7
iso
210
0
220
0
230
1
 50
180
 73
    2
 44
1
  0
ENDBLK
  5
98
330
96
100
AcDbEntity
  8
0
100
AcDbBlockEnd
  0
BLOCK
  5
9A
330
99
100
AcDbEntity
  8
0
100
AcDbBlockBegin
  2
Wire- Raceway-0
 70
    0
 10
0
 20
0
  3
Wire- Raceway-0
  1

  0
LINE
  5
2F1
100
AcDbEntity
  8
Raceway
  6
ByLayer
 62
  256
370
   -1
100
AcDbLine
 10
0
 20
0
 11
-2.847209772637027e-015
 21
-15.5
  0
LINE
  5
2F2
100
AcDbEntity
  8
Raceway
  6
ByLayer
 62
  256
370
   -1
100
AcDbLine
 10
-2.847209772637027e-015
 20
-15.5
 11
0.9999999999999971
 21
-15.5
  0
LINE
  5
2F3
100
AcDbEntity
  8
Raceway
  6
ByLayer
 62
  256
370
   -1
100
AcDbLine
 10
0.9999999999999971
 20
-15.5
 11
1
 21
-1.836909530733566e-016
  0
LINE
  5
2F4
100
AcDbEntity
  8
Raceway
  6
ByLayer
 62
  256
370
   -1
100
AcDbLine
 10
1
 20
-1.836909530733566e-016
 11
0
 21
0
  0
ENDBLK
  5
9B
330
99
100
AcDbEntity
  8
0
100
AcDbBlockEnd
  0
ENDSEC
  0
SECTION
  2
ENTITIES
  0
INSERT
  5
2F5
100
AcDbEntity
  8
Mounting Board
  6
ByLayer
 62
  256
370
   -1
100
AcDbBlockReference
  2
_Mounting Board
 10
0
 20
0
 30
0
 41
1
 42
1
 43
0
 50
0
 70
    1
 71
    1
 44
1
 45
1
  0
INSERT
  5
2F6
100
AcDbEntity
  8
Raceway
  6
ByLayer
 62
  256
370
   -1
100
AcDbBlockReference
  2
Pwr- Powah Centah
 10
25
 20
26
 30
0
 41
1
 42
1
 43
0
 50
0
 70
    1
 71
    1
 44
1
 45
1
  0
INSERT
  5
2F7
100
AcDbEntity
  8
0V DC Ground
  6
ByLayer
 62
  256
370
   -1
100
AcDbBlockReference
  2
Wire- Raceway
 10
0
 20
0
 30
0
 41
1
 42
1
 43
0
 50
0
 70
    1
 71
    1
 44
1
 45
1
  0
INSERT
  5
2F8
100
AcDbEntity
  8
0V DC Ground
  6
ByLayer
 62
  256
370
   -1
100
AcDbBlockReference
  2
Wire- Raceway
 10
15.5
 20
0
 30
0
 41
1
 42
1
 43
0
 50
0
 70
    1
 71
    1
 44
1
 45
1
  0
INSERT
  5
2F9
100
AcDbEntity
  8
0V DC Ground
  6
ByLayer
 62
  256
370
   -1
100
AcDbBlockReference
  2
Wire- Raceway
 10
0
 20
47
 30
0
 41
1
 42
1
 43
0
 50
270
 70
    1
 71
    1
 44
1
 45
1
  0
INSERT
  5
2FA
100
AcDbEntity
  8
0V DC Ground
  6
ByLayer
 62
  256
370
   -1
100
AcDbBlockReference
  2
Wire- Raceway
 10
16.5
 20
48
 30
0
 41
1
 42
1
 43
0
 50
180
 70
    1
 71
    1
 44
1
 45
1
  0
INSERT
  5
2FB
100
AcDbEntity
  8
0V DC Ground
  6
ByLayer
 62
  256
370
   -1
100
AcDbBlockReference
  2
Wire- Raceway-0
 10
1
 20
16
 30
0
 41
1
 42
1
 43
0
 50
180
 70
    1
 71
    1
 44
0
 45
0
  0
INSERT
  5
2FC
100
AcDbEntity
  8
0V DC Ground
  6
ByLayer
 62
  256
370
   -1
100
AcDbBlockReference
  2
Wire- Raceway-0
 10
0.9999999999999952
 20
0.5
 30
0
 41
1
 42
1
 43
0
 50
180
 70
    1
 71
    1
 44
0
 45
0
  0
INSERT
  5
2FD
100
AcDbEntity
  8
Power Devices
  6
ByLayer
 62
  256
370
   -1
100
AcDbBlockReference
  2
Ctlr- Chinese AC 12
 10
2
 20
2
 30
0
 41
1
 42
1
 43
0
 50
0
 70
    1
 71
    1
 44
1
 45
1
  0
INSERT
  5
2FE
100
AcDbEntity
  8
Power Devices
  6
ByLayer
 62
  256
370
   -1
100
AcDbBlockReference
  2
Pwr- Neutral Power Block-0
 10
11
 20
2.000000000000001
 30
0
 41
1
 42
1
 43
0
 50
0
 70
    1
 71
    1
 44
0
 45
0
  0
INSERT
  5
2FF
100
AcDbEntity
  8
Power Devices
  6
ByLayer
 62
  256
370
   -1
100
AcDbBlockReference
  2
Ctlr- Chinese AC 12
 10
16
 20
2
 30
0
 41
1
 42
1
 43
0
 50
0
 70
    1
 71
    1
 44
1
 45
1
  0
INSERT
  5
300
100
AcDbEntity
  8
+12V DC
  6
ByLayer
 62
  256
370
   -1
100
AcDbBlockReference
  2
Ctlr- AlphaPix 16
 10
2
 20
41.5
 30
0
 41
1
 42
1
 43
0
 50
0
 70
    1
 71
    1
 44
1
 45
1
  0
INSERT
  5
301
100
AcDbEntity
  8
Power Devices
  6
ByLayer
 62
  256
370
   -1
100
AcDbBlockReference
  2
Ctlr- Falcon F16V3
 10
2
 20
33
 30
0
 41
1
 42
1
 43
0
 50
0
 70
    1
 71
    1
 44
1
 45
1
  0
INSERT
  5
302
100
AcDbEntity
  8
0V DC Ground
  6
ByLayer
 62
  256
370
   -1
100
AcDbBlockReference
  2
Wire- Raceway
 10
1
 20
39
 30
0
 41
1
 42
1
 43
0
 50
0
 70
    1
 71
    1
 44
1
 45
1
  0
INSERT
  5
303
100
AcDbEntity
  8
0V DC Ground
  6
ByLayer
 62
  256
370
   -1
100
AcDbBlockReference
  2
Wire- Raceway
 10
1
 20
31
 30
0
 41
1
 42
1
 43
0
 50
0
 70
    1
 71
    1
 44
1
 45
1
  0
INSERT
  5
304
100
AcDbEntity
  8
Power Devices
  6
ByLayer
 62
  256
370
   -1
100
AcDbBlockReference
  2
Pwr- DC Fusebox 5V
 10
11
 20
41
 30
0
 41
1
 42
1
 43
0
 50
0
 70
    1
 71
    1
 44
1
 45
1
  0
INSERT
  5
305
100
AcDbEntity
  8
Power Devices
  6
ByLayer
 62
  256
370
   -1
100
AcDbBlockReference
  2
Pwr- DC Fusebox 12V
 10
11
 20
33
 30
0
 41
1
 42
1
 43
0
 50
0
 70
    1
 71
    1
 44
1
 45
1
  0
INSERT
  5
306
100
AcDbEntity
  8
0V DC Ground
  6
ByLayer
 62
  256
370
   -1
100
AcDbBlockReference
  2
Wire- Raceway
 10
1
 20
6
 30
0
 41
1
 42
1
 43
0
 50
0
 70
    1
 71
    1
 44
1
 45
1
  0
INSERT
  5
307
100
AcDbEntity
  8
0V DC Ground
  6
ByLayer
 62
  256
370
   -1
100
AcDbBlockReference
  2
Pwr- DC Fusebox 12V
 10
11
 20
8
 30
0
 41
1
 42
1
 43
0
 50
0
 70
    1
 71
    1
 44
1
 45
1
  0
INSERT
  5
308
100
AcDbEntity
  8
+12V DC
  6
ByLayer
 62
  256
370
   -1
100
AcDbBlockReference
  2
Ctlr- Chinese DC 27
 10
2
 20
8
 30
0
 41
1
 42
1
 43
0
 50
0
 70
    1
 71
    1
 44
1
 45
1
  0
INSERT
  5
309
100
AcDbEntity
  8
-12V DC Controlled Ground
  6
ByLayer
 62
  256
370
   -1
100
AcDbBlockReference
  2
Ctlr- LOR DC 24
 10
16
 20
8
 30
0
 41
1
 42
1
 43
0
 50
0
 70
    1
 71
    1
 44
1
 45
1
  0
INSERT
  5
30A
100
AcDbEntity
  8
0V DC Ground
  6
ByLayer
 62
  256
370
   -1
100
AcDbBlockReference
  2
Wire- Raceway
 10
1
 20
14
 30
0
 41
1
 42
1
 43
0
 50
0
 70
    1
 71
    1
 44
1
 45
1
  0
INSERT
  5
30B
100
AcDbEntity
  8
Power Devices
  6
ByLayer
 62
  256
370
   50
100
AcDbBlockReference
  2
Dev- Amplifier
 10
18
 20
25
 30
0
 41
1
 42
1
 43
0
 50
0
 70
    1
 71
    1
 44
1
 45
1
  0
INSERT
  5
30C
100
AcDbEntity
  8
0V DC Ground
  6
ByLayer
 62
  256
370
   -1
100
AcDbBlockReference
  2
Dev- Network Switch
 10
24
 20
46
 30
0
 41
1
 42
1
 43
0
 50
180
 70
    1
 71
    1
 44
1
 45
1
  0
INSERT
  5
30D
100
AcDbEntity
  8
120V AC Neutral
  6
ByLayer
 62
  256
370
   -1
100
AcDbBlockReference
  2
Pwr- DC Power Supply
 10
3
 20
22
 30
0
 41
1
 42
1
 43
0
 50
0
 70
    1
 71
    1
 44
1
 45
1
  0
INSERT
  5
30E
100
AcDbEntity
  8
+12V DC
  6
ByLayer
 62
  256
370
   -1
100
AcDbBlockReference
  2
Dev- Transmitter
 10
19
 20
33
 30
0
 41
1
 42
1
 43
0
 50
0
 70
    1
 71
    1
 44
1
 45
1
  0
INSERT
  5
30F
100
AcDbEntity
  8
Raceway
  6
ByLayer
 62
  256
370
   -1
100
AcDbBlockReference
  2
Pwr- Power Strip
 10
25
 20
13
 30
0
 41
1
 42
1
 43
0
 50
0
 70
    1
 71
    1
 44
1
 45
1
  0
INSERT
  5
310
100
AcDbEntity
  8
Raceway
  6
ByLayer
 62
  256
370
   -1
100
AcDbBlockReference
  2
Pwr- Power Strip
 10
28.5
 20
13
 30
0
 41
1
 42
1
 43
0
 50
0
 70
    1
 71
    1
 44
1
 45
1
  0
LINE
  5
311
100
AcDbEntity
  8
Mounting Board
  6
ByLayer
 62
  256
370
   -1
100
AcDbLine
 10
26
 20
11
 11
29
 21
11
  0
LINE
  5
312
100
AcDbEntity
  8
Mounting Board
  6
ByLayer
 62
  256
370
   -1
100
AcDbLine
 10
29
 20
11
 11
29
 21
10.5
  0
LINE
  5
313
100
AcDbEntity
  8
Mounting Board
  6
ByLayer
 62
  256
370
   -1
100
AcDbLine
 10
29
 20
10.5
 11
26
 21
10.5
  0
LINE
  5
314
100
AcDbEntity
  8
Mounting Board
  6
ByLayer
 62
  256
370
   -1
100
AcDbLine
 10
26
 20
10.5
 11
26
 21
11
  0
LINE
  5
315
100
AcDbEntity
  8
Mounting Board
  6
ByLayer
 62
  256
370
   -1
100
AcDbLine
 10
26
 20
4
 11
29
 21
4
  0
LINE
  5
316
100
AcDbEntity
  8
Mounting Board
  6
ByLayer
 62
  256
370
   -1
100
AcDbLine
 10
29
 20
4
 11
29
 21
3.5
  0
LINE
  5
317
100
AcDbEntity
  8
Mounting Board
  6
ByLayer
 62
  256
370
   -1
100
AcDbLine
 10
29
 20
3.5
 11
26
 21
3.5
  0
LINE
  5
318
100
AcDbEntity
  8
Mounting Board
  6
ByLayer
 62
  256
370
   -1
100
AcDbLine
 10
26
 20
3.5
 11
26
 21
4
  0
ENDSEC
  0
SECTION
  2
OBJECTS
  0
DICTIONARY
  5
C
330
0
100
AcDbDictionary
281
    1
  3
ACAD_GROUP
350
D
  0
DICTIONARY
  5
D
330
C
100
AcDbDictionary
281
    1
  0
PLOTSETTINGS
  5
319
100
AcDbPlotSettings
  6
1x1
 40
0
 41
0
 42
0
 43
0
  0
ENDSEC
  0
EOF
