<?xml version="1.0" encoding="UTF-8" standalone="no"?>
<!-- Created with Inkscape (http://www.inkscape.org/) -->

<svg
   xmlns:dc="http://purl.org/dc/elements/1.1/"
   xmlns:cc="http://creativecommons.org/ns#"
   xmlns:rdf="http://www.w3.org/1999/02/22-rdf-syntax-ns#"
   xmlns:svg="http://www.w3.org/2000/svg"
   xmlns="http://www.w3.org/2000/svg"
   xmlns:sodipodi="http://sodipodi.sourceforge.net/DTD/sodipodi-0.dtd"
   xmlns:inkscape="http://www.inkscape.org/namespaces/inkscape"
   width="11.5in"
   height="11.5in"
   viewBox="0 0 1104 1104"
   version="1.1"
   id="svg2815"
   inkscape:version="0.92.3 (2405546, 2018-03-11)"
   sodipodi:docname="12x12 Sheet Blue (Giant) 5x w Weed Lines + Stars, Bolts.svg">
  <defs
     id="defs2809" />
  <sodipodi:namedview
     id="base"
     pagecolor="#1f1f1f"
     bordercolor="#666666"
     borderopacity="1.0"
     inkscape:pageopacity="0"
     inkscape:pageshadow="2"
     inkscape:zoom="1.23"
     inkscape:cx="562.77425"
     inkscape:cy="902.83182"
     inkscape:document-units="in"
     inkscape:current-layer="layer1"
     showgrid="true"
     inkscape:snap-global="false"
     showguides="true"
     units="in"
     gridtolerance="10"
     inkscape:window-width="1920"
     inkscape:window-height="1017"
     inkscape:window-x="-8"
     inkscape:window-y="-8"
     inkscape:window-maximized="1"
     inkscape:guide-bbox="true">
    <inkscape:grid
       type="xygrid"
       id="grid3368"
       units="in"
       spacingx="24"
       spacingy="24"
       empspacing="4"
       color="#9f9f00"
       opacity="0.1254902"
       empcolor="#ffff00"
       empopacity="0.25098039" />
    <sodipodi:guide
       position="-358.88172,1152.9684"
       orientation="0,1"
       id="guide1164"
       inkscape:locked="false" />
  </sodipodi:namedview>
  <metadata
     id="metadata2812">
    <rdf:RDF>
      <cc:Work
         rdf:about="">
        <dc:format>image/svg+xml</dc:format>
        <dc:type
           rdf:resource="http://purl.org/dc/dcmitype/StillImage" />
        <dc:title></dc:title>
      </cc:Work>
    </rdf:RDF>
  </metadata>
  <g
     inkscape:label="Layer 1"
     inkscape:groupmode="layer"
     id="layer1"
     transform="translate(0,-40.2)">
    <path
       id="path1914-85-3-2-9"
       style="fill:#0000bf;fill-opacity:1;stroke:#0000ff;stroke-width:0.48;stroke-miterlimit:4;stroke-dasharray:none;stroke-opacity:0.90588236;opacity:1"
       d="m 917.02574,305.62359 c 1.50771,-5.06599 3.39648,-10.02333 4.84128,-15.10363 -0.51277,-2.12746 -3.317,-2.86428 -4.85576,-4.34236 -2.81165,-2.07263 -5.72194,-4.02114 -8.47081,-6.17274 1.69384,-0.4744 4.16237,-0.11167 6.14679,-0.24945 3.4067,-0.0119 6.81343,-0.0169 10.22013,-0.0257 1.55542,-1.20826 1.51026,-3.5316 2.30507,-5.24101 1.1966,-3.52125 2.23695,-7.10606 3.55254,-10.58046 1.10045,1.20175 1.29482,3.62046 2.0418,5.27675 1.1363,3.31466 2.09743,6.69513 3.34641,9.96758 0.68988,0.99867 2.0231,0.43221 3.04378,0.5873 4.68248,0.0421 9.36915,-0.0195 14.04816,0.13421 -1.17992,1.30132 -2.91747,2.15348 -4.30387,3.28718 -2.94051,2.17909 -6.01581,4.20048 -8.87264,6.47695 -0.38486,2.06274 1.00306,4.11153 1.47146,6.13962 1.04423,3.35622 2.31826,6.66292 3.20127,10.05562 -1.6967,-0.63236 -3.11359,-2.11443 -4.68588,-3.09801 -2.94216,-2.05559 -5.7707,-4.28408 -8.80268,-6.2057 -2.25386,0.26767 -3.88369,2.43832 -5.84472,3.5415 -2.76932,1.90353 -5.39147,4.05079 -8.25265,5.80175 l -0.13696,-0.0396 0.007,-0.20954 z M 434.09891,212.12765 c 1.50771,-5.06599 3.39648,-10.02333 4.84128,-15.10363 -0.51277,-2.12746 -3.317,-2.86428 -4.85575,-4.34236 -2.81166,-2.07263 -5.72195,-4.02114 -8.47082,-6.17274 1.69384,-0.4744 4.16237,-0.11167 6.14679,-0.24945 3.4067,-0.0119 6.81343,-0.0169 10.22013,-0.0257 1.55542,-1.20826 1.51026,-3.5316 2.30507,-5.24101 1.1966,-3.52125 2.23695,-7.10606 3.55254,-10.58046 1.10045,1.20175 1.29482,3.62046 2.0418,5.27675 1.1363,3.31466 2.09743,6.69513 3.34641,9.96758 0.68988,0.99867 2.0231,0.43221 3.04378,0.5873 4.68248,0.0421 9.36915,-0.0195 14.04816,0.13421 -1.17992,1.30132 -2.91747,2.15348 -4.30387,3.28718 -2.94051,2.17909 -6.01581,4.20048 -8.87264,6.47695 -0.38486,2.06274 1.00306,4.11153 1.47146,6.13962 1.04423,3.35622 2.31826,6.66292 3.20127,10.05562 -1.6967,-0.63236 -3.11359,-2.11443 -4.68588,-3.09801 -2.94216,-2.05559 -5.7707,-4.28408 -8.80268,-6.2057 -2.25386,0.26767 -3.88369,2.43832 -5.84472,3.5415 -2.76932,1.90353 -5.39147,4.05079 -8.25265,5.80175 l -0.13696,-0.0396 0.007,-0.20954 z M 9.3010732,258.06615 c 1.5077188,-5.06599 3.3964818,-10.02333 4.8412868,-15.10363 -0.512776,-2.12746 -3.317004,-2.86428 -4.8557573,-4.34236 -2.8116558,-2.07263 -5.7219428,-4.02114 -8.47081347,-6.17274 1.69383397,-0.4744 4.16236547,-0.11167 6.14678547,-0.24945 3.4067023,-0.0119 6.8134313,-0.0169 10.2201333,-0.0257 1.555418,-1.20826 1.510261,-3.5316 2.305067,-5.24101 1.196603,-3.52125 2.236957,-7.10606 3.552546,-10.58046 1.10045,1.20175 1.29482,3.62046 2.041797,5.27675 1.136296,3.31466 2.09743,6.69513 3.346406,9.96758 0.689885,0.99867 2.023103,0.43221 3.043781,0.5873 4.682487,0.0421 9.369153,-0.0195 14.048161,0.13421 -1.179918,1.30132 -2.917467,2.15348 -4.303867,3.28718 -2.940513,2.17909 -6.015815,4.20048 -8.872637,6.47695 -0.384864,2.06274 1.003058,4.11153 1.47146,6.13962 1.04423,3.35622 2.318252,6.66292 3.201267,10.05562 -1.696698,-0.63236 -3.11359,-2.11443 -4.685884,-3.09801 -2.942157,-2.05559 -5.770699,-4.28408 -8.802673,-6.2057 -2.25386,0.26767 -3.883696,2.43832 -5.844721,3.5415 -2.769319,1.90353 -5.391471,4.05079 -8.2526538,5.80175 l -0.136956,-0.0396 0.00734,-0.20954 z m 3.6425238,-51.69591 c 1.642073,-5.94143 3.699145,-11.75544 5.272687,-17.71364 -0.558467,-2.4951 -3.61258,-3.35925 -5.288447,-5.09274 -3.0622023,-2.43081 -6.2318165,-4.71603 -9.2256421,-7.23944 1.8447742,-0.55638 4.5332736,-0.13096 6.6945271,-0.29256 3.710262,-0.0139 7.420561,-0.0198 11.130835,-0.0301 1.69402,-1.41705 1.644837,-4.14188 2.510474,-6.14668 1.303228,-4.12976 2.436291,-8.33404 3.869106,-12.40884 1.198509,1.40942 1.410197,4.2461 2.223743,6.1886 1.237544,3.88746 2.284328,7.8521 3.644602,11.69004 0.751355,1.17125 2.203376,0.50691 3.315007,0.68879 5.099734,0.0493 10.204028,-0.0228 15.299979,0.15741 -1.285063,1.52619 -3.177439,2.52561 -4.687378,3.85522 -3.202546,2.55566 -6.551886,4.92636 -9.663271,7.59622 -0.419164,2.41919 1.092438,4.82202 1.602583,7.20058 1.137277,3.93619 2.524821,7.81431 3.486525,11.79329 -1.847885,-0.74163 -3.391043,-2.47982 -5.103443,-3.63336 -3.20433,-2.41082 -6.284913,-5.02439 -9.587069,-7.27808 -2.454696,0.31393 -4.229766,2.85967 -6.365542,4.15349 -3.016084,2.23247 -5.871899,4.7508 -8.988035,6.80433 l -0.149163,-0.0464 0.0084,-0.24575 z m 182.989623,107.70558 11.50628,1.63262 -38.0122,7.95733 8.7039,1.28449 -33.77311,9.77707 63.04989,-6.74205 -5.1286,-2.54009 37.60623,-4.51874 -5.40363,-3.91636 38.42531,-5.3929 -6.57572,-13.01624 z m 875.15738,-29.69919 5.9112,6.57262 -7.8485,-28.36409 4.5149,4.94719 -4.6047,-26.54962 18.6666,43.83047 -4.2203,-2.02673 10.6985,26.39057 -5.5316,-1.51765 10.253,27.3518 -13.9493,2.26314 z m -3.9289,65.75417 6.9701,9.29933 -11.3244,-37.14841 5.3159,7.01063 -7.6887,-34.30888 24.4427,58.50898 -4.6953,-3.27243 14.1429,35.13725 -6.034,-2.85097 13.771,36.27599 -14.5743,0.50237 z M 346.10172,77.038335 l -9.29933,-6.9701 37.14841,11.3244 -7.01063,-5.3159 34.30887,7.688701 -58.50897,-24.4427 3.27243,4.695299 -35.13725,-14.142899 2.85097,6.034 -36.27599,-13.771 -0.50237,14.5743 z m -211.69418,248.094145 9.29933,-6.9701 -37.14841,11.3244 7.01063,-5.3159 -34.308866,7.6887 58.508966,-24.4427 -3.27243,4.6953 35.13725,-14.1429 -2.85097,6.034 36.27599,-13.771 0.50237,14.5743 z m 121.32361,-248.885685 -9.29933,-6.9701 37.14841,11.3244 -7.01063,-5.3159 34.30887,7.6887 -58.50897,-24.4427 3.27243,4.6953 -35.13725,-14.1429 2.85097,6.034 -36.27599,-13.771 -0.50237,14.5743 z m 813.22625,351.539515 6.9701,9.29933 -11.3244,-37.14841 5.3159,7.01063 -7.6887,-34.30888 24.4427,58.50898 -4.6953,-3.27243 14.1429,35.13725 -6.034,-2.85097 13.771,36.27599 -14.5743,0.50237 z M 918.56328,101.37385 c 2.04756,-7.201172 4.6126,-14.247902 6.5747,-21.469382 -0.69636,-3.02414 -4.50465,-4.0715 -6.59435,-6.17253 -3.81837,-2.9462 -7.77067,-5.71596 -11.50378,-8.77439 2.30031,-0.67434 5.6527,-0.15872 8.34764,-0.35458 4.62647,-0.0169 9.25297,-0.024 13.87945,-0.0365 2.11233,-1.71751 2.051,-5.02007 3.1304,-7.44995 1.62503,-5.00537 3.0379,-10.10106 4.82452,-15.03981 1.49447,1.70824 1.75842,5.14637 2.77287,7.50071 1.54313,4.71172 2.84841,9.51696 4.54458,14.16864 0.93689,1.41957 2.74747,0.61439 4.1336,0.83484 6.35905,0.0597 12.72377,-0.0276 19.07809,0.19078 -1.60238,1.84977 -3.96206,3.0611 -5.84485,4.67262 -3.99337,3.09753 -8.16979,5.97087 -12.04948,9.20682 -0.52267,2.93212 1.36219,5.84439 1.99831,8.72727 1.41812,4.77077 3.1483,9.47116 4.34748,14.293772 -2.3042,-0.89887 -4.22841,-3.005612 -6.36367,-4.403722 -3.9956,-2.92197 -7.83688,-6.08968 -11.95446,-8.82123 -3.06085,0.3805 -5.27425,3.466 -7.93742,5.03414 -3.76086,2.70581 -7.32189,5.75809 -11.20751,8.247012 l -0.18599,-0.0562 0.01,-0.29785 z m -229.6901,109.81649 c 2.04756,-7.20117 4.6126,-14.2479 6.5747,-21.46938 -0.69636,-3.02414 -4.50465,-4.0715 -6.59435,-6.17253 -3.81837,-2.9462 -7.77067,-5.71596 -11.50378,-8.77439 2.30031,-0.67434 5.6527,-0.15872 8.34764,-0.35458 4.62647,-0.0169 9.25297,-0.024 13.87945,-0.0365 2.11233,-1.71751 2.051,-5.02007 3.1304,-7.44995 1.62503,-5.00537 3.0379,-10.10106 4.82452,-15.03981 1.49447,1.70824 1.75842,5.14637 2.77287,7.50071 1.54313,4.71172 2.84841,9.51696 4.54458,14.16864 0.93689,1.41957 2.74747,0.61439 4.1336,0.83484 6.35905,0.0597 12.72377,-0.0276 19.07809,0.19078 -1.60238,1.84977 -3.96206,3.0611 -5.84485,4.67262 -3.99337,3.09753 -8.16979,5.97087 -12.04948,9.20682 -0.52267,2.93212 1.36219,5.84439 1.99831,8.72727 1.41812,4.77077 3.1483,9.47116 4.34748,14.29377 -2.3042,-0.89887 -4.22841,-3.00561 -6.36367,-4.40372 -3.9956,-2.92197 -7.83688,-6.08968 -11.95446,-8.82123 -3.06085,0.3805 -5.27425,3.466 -7.93742,5.03414 -3.76086,2.70581 -7.32189,5.75809 -11.20751,8.24701 l -0.18599,-0.0562 0.01,-0.29785 z m 341.99692,274.8712 c 0,0 -35.02884,-16.5089 -35.02884,-16.5089 -4.14544,-1.9537 -7.53234,-2.8503 -10.16089,-2.7031 -2.62863,0.1771 -3.9454,1.3499 -3.95031,3.532 -0.004,1.8501 1.23397,4.9153 3.71438,9.2232 0.62021,1.0348 0.92952,1.9129 0.92792,2.6326 -0.002,1.1516 -1.00672,1.688 -3.01247,1.6023 -2.00575,-0.095 -4.18315,-0.7615 -6.53222,-1.9925 -4.28359,-2.2448 -8.39082,-5.9595 -12.3217,-11.0973 -8.34476,-10.5953 -12.50636,-20.2307 -12.4848,-29.1136 0.0171,-7.036 3.13984,-11.3856 9.3683,-13.1544 6.29757,-1.8818 14.55901,-0.8808 24.78435,3.1096 0,0 47.87958,18.6848 47.87958,18.6848 1.5891,0.6201 2.5566,0.8361 2.9027,0.6476 0.4151,-0.1082 0.6239,-0.7827 0.6263,-2.0231 0,0 0.016,-8.3324 0.016,-8.3324 0,-1.564 0.316,-2.4495 0.9386,-2.6575 0.6918,-0.1844 2.2467,0.1564 4.6649,1.0232 0,0 4.5599,1.6345 4.5599,1.6345 2.0726,0.7983 3.5914,1.982 4.5563,3.5543 0,0 29.7736,51.4347 29.7736,51.4347 0.62,1.2815 0.9287,2.6634 0.926,4.1442 0,0 -0.013,7.1963 -0.013,7.1963 0,1.4808 -0.419,2.2637 -1.2489,2.3478 -0.761,0.1739 -2.316,-0.2933 -4.6651,-1.4004 0,0 -13.9907,-6.5937 -13.9907,-6.5937 -2.0727,-0.9769 -3.4205,-1.3576 -4.0432,-1.1429 -0.6229,0.2696 -0.936,1.2771 -0.9393,3.0234 0,0 -0.03,15.6324 -0.03,15.6324 0,2.0843 -0.4901,3.185 -1.4586,3.3004 -0.8993,0.1489 -2.869,-0.5719 -5.9089,-2.1607 0,0 -6.1145,-3.1957 -6.1145,-3.1957 -3.3163,-1.7333 -5.6301,-3.3218 -6.9413,-4.7622 -1.2421,-1.4003 -1.8612,-3.0931 -1.8573,-5.0813 0,0 0.029,-14.59 0.029,-14.59 0,-1.5047 -0.3404,-2.6895 -1.0303,-3.5533 -0.6898,-0.8622 -2.002,-1.7485 -3.9365,-2.6603 0,0 0,0 0,0 m -10.9668,-64.12195 c 0,0 -36.48197,-11.369 -36.48197,-11.369 -2.76381,-0.8492 -4.80261,-1.2634 -6.11639,-1.2438 -1.31389,0.063 -3.83899,0.6338 -7.5753,1.6809 -1.10705,0.2967 -2.66238,0.086 -4.66599,-0.6295 -4.55995,-1.6282 -7.73388,-4.524 -9.5218,-8.6626 -1.78791,-4.1056 -2.67104,-10.618 -2.64937,-19.562 0.0148,-6.0802 0.85421,-10.1549 2.51846,-12.2409 1.73355,-2.1794 4.53485,-2.7951 8.4039,-1.8293 1.3818,0.3449 2.38329,0.7318 3.00446,1.1614 0.69026,0.4476 2.31174,1.7747 4.86446,3.9956 2.89751,2.6109 12.568,6.1024 29.01154,10.4542 9.5344,2.5234 16.5833,3.5636 21.1467,3.0952 3.6646,-0.4167 5.5006,-2.4787 5.508,-6.1694 0.01,-3.5325 -1.4733,-6.2982 -4.4416,-8.2841 -2.9682,-1.9686 -8.3559,-3.8125 -16.163,-5.5445 0,0 -20.5199,-4.5525 -20.5199,-4.5525 -4.07632,-0.9044 -6.87484,-1.3602 -8.39558,-1.3693 -1.52083,0.035 -4.45983,0.5383 -8.81699,1.4796 -1.2448,0.2154 -2.66173,0.1362 -4.25081,-0.2352 -4.07632,-0.9528 -7.07736,-3.4844 -9.00314,-7.5669 -1.92577,-4.0455 -2.87937,-9.8866 -2.86081,-17.5508 0.0297,-12.2452 4.01719,-17.8666 11.96256,-16.8645 1.65816,0.2092 2.90136,0.5492 3.72959,1.0211 0.89721,0.5283 2.13864,1.6336 3.7243,3.3235 1.30994,1.3847 2.79362,2.3586 4.45104,2.918 1.7265,0.5717 5.90576,1.4711 12.53776,2.7028 7.87554,1.4686 16.13148,2.8293 24.76778,4.0725 4.7672,0.6862 7.8769,0.8473 9.3289,0.4804 1.5211,-0.3084 3.3552,-1.6298 5.5023,-3.9802 1.87,-2.0384 4.1523,-2.8975 6.8468,-2.5633 2.7636,0.3428 5.0072,1.5711 6.7307,3.6954 1.7926,2.1478 4.0304,6.4052 6.7133,12.8127 2.3388,5.696 4.298,11.1817 5.8776,16.4427 1.6486,5.3075 2.4712,8.9021 2.4677,10.7579 0,1.6871 -0.7659,2.9293 -2.288,3.7215 -1.5222,0.8408 -3.3197,1.0291 -5.3924,0.5703 -0.2073,-0.046 -1.0709,-0.2646 -2.5907,-0.656 -0.5526,-0.1772 -1.0362,-0.3116 -1.4508,-0.4032 -3.3163,-0.7328 -4.9766,-0.013 -4.9809,2.1583 0,1.303 1.3075,2.9943 3.93,5.0863 8.558,6.8239 12.8283,14.9125 12.8108,24.1373 -0.013,7.0873 -2.305,12.4604 -6.8745,16.0475 -3.254,2.4361 -7.0932,3.59125 -11.5176,3.48155 -4.3554,-0.1121 -10.7824,-1.45535 -19.2811,-4.01965 0,0 0,0 0,0 m -21.35984,-145.6828 c -0.072,1.5779 -0.7662,2.6251 -2.0801,3.1406 -1.314,0.561 -3.87204,0.7973 -7.67194,0.7129 -9.32717,-0.2071 -13.98552,-2.1739 -13.97652,-5.9004 0.004,-1.7701 1.0076,-3.1906 3.01367,-4.2695 2.07516,-1.0901 4.77156,-1.6505 8.08789,-1.6719 3.45446,-0.022 6.42436,0.7373 8.9082,2.291 2.4838,1.6215 3.7188,3.5261 3.7188,5.6973 z m 59.99414,6.416 c 0.021,-11.0976 -3.2753,-21.6758 -9.8886,-31.5254 -2.4802,-3.5186 -5.3773,-6.2399 -8.6895,-8.168 -3.3123,-1.8442 -6.627,-2.643 -9.9433,-2.4219 -3.2472,0.2167 -5.874,1.2026 -7.8809,2.9473 -2.0069,1.7302 -3.0076,3.8576 -3.0176,6.3926 -0.01,5.0183 4.3659,9.7186 13.1309,14.2383 3.3125,1.8287 5.5908,3.3672 6.832,4.6015 1.2411,1.2952 1.8555,2.7603 1.8555,4.3887 -0.01,2.7141 -1.6677,4.6428 -4.9864,5.7754 -3.2495,1.1169 -8.5358,1.5924 -15.8593,1.4375 -2.9018,-0.061 -4.7664,-0.4866 -5.5938,-1.2715 -0.7584,-0.7808 -1.1369,-2.6511 -1.1269,-5.6133 -0.041,-13.3278 -4.4082,-23.1265 -13.0996,-29.2031 -5.51824,-3.7606 -11.87138,-5.3235 -19.05676,-4.7676 -4.49086,0.3475 -8.81026,1.3995 -12.95899,3.1328 -4.07962,1.6987 -7.39893,3.8131 -9.96093,6.3418 -3.87769,3.8019 -5.82389,8.5558 -5.83789,14.3164 -0.0136,5.5849 2.49638,10.5945 7.52929,15.1192 1.72374,1.5204 2.58403,2.7374 2.58203,3.6406 -0.002,0.8128 -0.90259,1.6645 -2.70117,2.5469 -4.981,2.5236 -7.47708,6.0681 -7.48828,10.6855 -0.009,3.6059 1.5032,7.1846 4.53516,10.7754 2.41164,2.9543 5.41137,5.4843 9,7.5918 3.58853,2.1853 7.04109,3.4825 10.35742,3.8672 2.55634,0.2966 4.00855,-0.2905 4.35742,-1.7637 0.34886,-1.4757 0.73088,-2.4286 1.14649,-2.8593 0.41561,-0.4319 1.38509,-0.8331 2.90625,-1.2051 3.18048,-0.7425 10.12512,-0.6074 20.83406,0.416 l 15.4414,1.6309 c 7.3235,0.7024 13.0588,0.5567 17.207,-0.4551 4.2171,-0.9764 7.9531,-3.0886 11.2071,-6.3555 6.0929,-6.3125 9.1499,-14.4344 9.1679,-24.2363 z m -7.1357,-62.3506 c 0,0 -60.21218,6.3938 -60.21218,6.3938 -4.76723,0.5062 -8.25693,1.1618 -10.46909,1.9621 -2.21228,0.8411 -4.25316,2.2426 -6.12265,4.1972 -1.52329,1.582 -2.83819,2.6497 -3.9447,3.2091 -1.03752,0.5969 -2.38537,0.9657 -4.04354,1.1085 -8.91263,0.7674 -13.35149,-6.0527 -13.31659,-20.4601 0.0187,-7.7544 1.00093,-14.0748 2.94644,-18.9958 0.69464,-1.6894 1.90675,-3.198 3.63636,-4.5283 1.7295,-1.2942 3.69968,-2.1718 5.91057,-2.6263 1.86543,-0.3835 3.31574,-0.4294 4.35092,-0.1356 1.03517,0.2965 2.69035,1.2581 4.96552,2.9008 1.58577,1.142 4.17431,1.6849 7.7656,1.628 3.59131,-0.046 8.94506,-0.7193 16.0614,-2.0281 2.28004,-0.4194 6.52934,-1.3262 12.74804,-2.7259 6.2876,-1.3681 9.9497,-2.2025 10.9863,-2.4992 2.8333,-0.8412 5.0126,-2.7232 6.5379,-5.6564 1.8721,-3.6577 4.639,-5.8747 8.3008,-6.6307 4.3527,-0.8986 7.5956,0.6481 9.7287,4.6705 2.959,5.6267 5.4679,11.8506 7.527,18.6599 2.059,6.8711 3.0848,12.2982 3.0773,16.2347 -0.01,3.093 -2.1506,4.8669 -6.4341,5.3218 0,0 0,0 0,0 m 45.4239,-22.87 c -0.01,5.2873 -1.1567,9.6206 -3.4421,12.9792 -2.2163,3.324 -5.2244,5.1809 -9.0244,5.5904 -5.3199,0.5733 -9.5303,-1.2139 -12.6312,-5.3196 -4.8924,-6.3939 -7.3293,-14.4688 -7.3109,-24.3292 0.01,-4.1608 0.9813,-7.6484 2.9204,-10.4775 2.4934,-3.8223 5.951,-6.1951 10.3728,-7.0933 5.9418,-1.207 10.5988,1.5219 13.9711,8.2595 3.4411,6.9441 5.1559,13.7661 5.1443,20.3905 0,0 0,0 0,0 m 3.0963,-111.785289 c -0.014,8.0056 -1.3054,15.966299 -3.8741,23.830199 -1.1801,3.5114 -1.7711,5.8362 -1.7731,6.9849 0,1.2092 0.7879,3.5179 2.3701,6.9439 0.4814,1.14 0.7209,2.3799 0.7186,3.7179 -0.01,3.4061 -2.2917,7.2587 -6.8571,11.5171 -7.3323,6.73129 -15.3511,11.09899 -24.0565,13.20799 -5.9417,1.4394 -10.7411,1.3712 -14.3982,-0.1764 -3.6572,-1.455 -5.482,-4.118 -5.4744,-8.0165 0.01,-3.1848 1.4631,-6.72559 4.3709,-10.65079 0.9,-1.2041 4.1516,-4.4713 9.755,-9.8633 9.3389,-9.178 14.016,-18.0165 14.0312,-26.336099 0.014,-7.5634 -3.2568,-12.3521 -9.8122,-14.2781 -6.5554,-1.75181 -15.3949,-0.3712 -26.5184,4.0548 -16.5126,6.5703 -30.5789,15.238099 -42.19914,25.755899 -4.21944,3.8201 -7.61074,7.7249 -10.1739,11.7198 -2.49408,3.9327 -3.74447,7.3787 -3.7512,10.3658 -0.005,2.4656 1.16445,4.0999 3.50999,4.9165 2.41457,0.86099 5.48727,0.71219 9.21811,-0.4608 3.3164,-1.0426 5.66694,-2.475 7.05174,-4.3039 0.5539,-0.724 0.8659,-1.3468 0.9361,-1.8673 0.1391,-0.4933 0.2113,-1.9364 0.2164,-4.3293 0,-2.1437 0.9411,-4.2574 2.8097,-6.3508 1.9375,-2.0797 4.3571,-3.6326 7.2589,-4.6494 5.7345,-2.0092 9.8049,-0.5684 12.2114,4.3689 2.6125,5.5136 3.9103,12.4777 3.8934,20.83679 -0.018,8.941 -1.2422,16.7513 -3.6727,23.3822 -2.3607,6.2379 -6.6155,9.9917 -12.7645,11.3063 -2.4873,0.5317 -4.6623,0.3663 -6.5251,-0.4881 -1.7936,-0.8589 -2.8611,-2.244 -3.2022,-4.161 -0.3418,-1.6645 -0.892,-2.6799 -1.6509,-3.0467 -0.6898,-0.3318 -2.45054,-0.4298 -5.28204,-0.2897 -10.98077,0.5954 -20.1608,-1.0654 -27.5401,-4.9036 -5.03441,-2.5276 -8.96145,-6.0818 -11.78113,-10.678 -2.81978,-4.4716 -4.22252,-9.6238 -4.20822,-15.51649 0.0233,-9.6304 3.53387,-19.8662 10.5315,-30.9303 7.13635,-11.652799 17.1006,-22.812599 29.89271,-33.464309 10.64878,-9.1104 22.15658,-16.7467 34.52378,-22.7563 12.5053,-6.0768 24.3836,-9.1305 35.6348,-8.9684 12.0797,0.3894 21.3913,4.7628 27.9349,13.1147 5.7862,7.4804 8.6682,17.6894 8.6459,30.46191 0,0 0,0 0,0 m -140.82061,70.587989 2.38727,36.6048 m 88.59424,-42.4403 -22.8117,7.427 m 38.1963,38.1963 -11.6711,1.8568 m 32.3608,-56.7639 -5.0398,27.3209 m 0.2652,47.7454 -28.1167,44.8276 m -32.8912,-14.8541 -17.5067,1.5915 m -35.27855,-4.7746 -0.79575,-5.8355 m 3.97877,79.3103 -1.85676,5.0398 m -5.57029,40.0531 -0.26525,6.366 m -1.59151,40.8488 -0.26526,19.89395 m 88.8595,12.7321 -2.122,-18.03715 m -8.4881,-93.8992 3.7136,-18.3024 M 36.979297,270.90741 c 0,0 16.5089,-35.0288 16.5089,-35.0288 1.9537,-4.1454 2.8503,-7.5323 2.7031,-10.16085 -0.1771,-2.62863 -1.3499,-3.9454 -3.532,-3.95031 -1.8501,-0.004 -4.9153,1.23397 -9.2232,3.71438 -1.0348,0.62021 -1.9129,0.92952 -2.6326,0.92792 -1.1516,-0.002 -1.688,-1.00672 -1.6023,-3.01247 0.095,-2.00575 0.7615,-4.18315 1.9925,-6.53222 2.2448,-4.28359 5.9595,-8.39082 11.0973,-12.3217 10.5953,-8.34476 20.2307,-12.50636 29.1136,-12.4848 7.036,0.0171 11.3856,3.13984 13.1544,9.3683 1.8818,6.29757 0.8808,14.55901 -3.1096,24.78435 0,0 -18.6848,47.8795 -18.6848,47.8795 -0.6201,1.5891 -0.8361,2.5566 -0.6476,2.9027 0.1082,0.4151 0.7827,0.6239 2.0231,0.6263 0,0 8.3324,0.016 8.3324,0.016 1.564,0 2.4495,0.316 2.6575,0.9386 0.1844,0.6918 -0.1564,2.2467 -1.0232,4.6649 0,0 -1.6345,4.5599 -1.6345,4.5599 -0.7983,2.0726 -1.982,3.5914 -3.5543,4.5563 0,0 -51.4347,29.7736 -51.4347,29.7736 -1.2815,0.62 -2.6634,0.9287 -4.1442,0.926 0,0 -7.1963,-0.013 -7.1963,-0.013 -1.4808,0 -2.2637,-0.419 -2.3478,-1.2489 -0.1739,-0.761 0.2933,-2.316 1.4004,-4.6651 0,0 6.5937,-13.9907 6.5937,-13.9907 0.9769,-2.0727 1.3576,-3.4205 1.1429,-4.0432 -0.2696,-0.6229 -1.2771,-0.936 -3.0234,-0.9393 0,0 -15.6324002,-0.03 -15.6324002,-0.03 -2.0843,0 -3.185,-0.4901 -3.30039999,-1.4586 -0.1489,-0.8993 0.57189999,-2.869 2.16069999,-5.9089 0,0 3.1957,-6.1145 3.1957,-6.1145 1.7333,-3.3163 3.3218003,-5.6301 4.7622002,-6.9413 1.4003,-1.2421 3.0931,-1.8612 5.0813,-1.8573 0,0 14.59,0.029 14.59,0.029 1.5047,0 2.6895,-0.3404 3.5533,-1.0303 0.8622,-0.6898 1.7485,-2.002 2.6603,-3.9365 0,0 0,0 0,0 m 64.121903,-10.9668 c 0,0 11.369,-36.48189 11.369,-36.48189 0.8492,-2.76381 1.2634,-4.80261 1.2438,-6.11639 -0.063,-1.31389 -0.6338,-3.83899 -1.6809,-7.5753 -0.2967,-1.10705 -0.086,-2.66238 0.6295,-4.66599 1.6282,-4.55995 4.524,-7.73388 8.6626,-9.5218 4.1056,-1.78791 10.618,-2.67104 19.562,-2.64937 6.0802,0.0148 10.1549,0.85421 12.2409,2.51846 2.1794,1.73355 2.7951,4.53485 1.8293,8.4039 -0.3449,1.3818 -0.7318,2.38329 -1.1614,3.00446 -0.4476,0.69026 -1.7747,2.31174 -3.9956,4.86446 -2.6109,2.89751 -6.1024,12.568 -10.4542,29.01146 -2.5234,9.5344 -3.5636,16.5833 -3.0952,21.1467 0.4167,3.6646 2.4787,5.5006 6.1694,5.508 3.5325,0.01 6.2982,-1.4733 8.2841,-4.4416 1.9686,-2.9682 3.8125,-8.3559 5.5445,-16.163 0,0 4.5525,-20.51982 4.5525,-20.51982 0.9044,-4.07632 1.3602,-6.87484 1.3693,-8.39558 -0.035,-1.52083 -0.5383,-4.45983 -1.4796,-8.81699 -0.2154,-1.2448 -0.1362,-2.66173 0.2352,-4.25081 0.9528,-4.07632 3.4844,-7.07736 7.5669,-9.00314 4.0455,-1.92577 9.8866,-2.87937 17.5508,-2.86081 12.2452,0.0297 17.8666,4.01719 16.8645,11.96256 -0.2092,1.65816 -0.5492,2.90136 -1.0211,3.72959 -0.5283,0.89721 -1.6336,2.13864 -3.3235,3.7243 -1.3847,1.30994 -2.3586,2.79362 -2.918,4.45104 -0.5717,1.7265 -1.4711,5.90576 -2.7028,12.53776 -1.4686,7.8755 -2.8293,16.1314 -4.0725,24.7677 -0.6862,4.7672 -0.8473,7.8769 -0.4804,9.3289 0.3084,1.5211 1.6298,3.3552 3.9802,5.5023 2.0384,1.87 2.8975,4.1523 2.5633,6.8468 -0.3428,2.7636 -1.5711,5.0072 -3.6954,6.7307 -2.1478,1.7926 -6.4052,4.0304 -12.8127,6.7133 -5.696,2.3388 -11.1817,4.298 -16.4427,5.8776 -5.3075,1.6486 -8.9021,2.4712 -10.7579,2.4677 -1.6871,0 -2.9293,-0.7659 -3.7215,-2.288 -0.8408,-1.5222 -1.0291,-3.3197 -0.5703,-5.3924 0.046,-0.2073 0.2646,-1.0709 0.656,-2.5907 0.1772,-0.5526 0.3116,-1.0362 0.4032,-1.4508 0.7328,-3.3163 0.013,-4.9766 -2.1583,-4.9809 -1.303,0 -2.9943,1.3075 -5.0863,3.93 -6.8239,8.558 -14.9125,12.8283 -24.1373,12.8108 -7.0873,-0.013 -12.4604,-2.305 -16.0475,-6.8745 -2.436103,-3.254 -3.591203,-7.0932 -3.481503,-11.5176 0.1121,-4.3554 1.4553,-10.7824 4.019603,-19.2811 0,0 0,0 0,0 m 145.6828,-21.3598 c -1.5779,-0.072 -2.6251,-0.7662 -3.1406,-2.0801 -0.561,-1.314 -0.7973,-3.872 -0.7129,-7.6719 0.2071,-9.32717 2.1739,-13.98552 5.9004,-13.97652 1.7701,0.004 3.1906,1.0076 4.2695,3.01367 1.0901,2.07516 1.6505,4.77156 1.6719,8.08789 0.022,3.45446 -0.7373,6.42436 -2.291,8.90816 -1.6215,2.4838 -3.5261,3.7188 -5.6973,3.7188 z m -6.416,59.9941 c 11.0976,0.021 21.6758,-3.2753 31.5254,-9.8886 3.5186,-2.4802 6.2399,-5.3773 8.168,-8.6895 1.8442,-3.3123 2.643,-6.627 2.4219,-9.9433 -0.2167,-3.2472 -1.2026,-5.874 -2.9473,-7.8809 -1.7302,-2.0069 -3.8576,-3.0076 -6.3926,-3.0176 -5.0183,-0.01 -9.7186,4.3659 -14.2383,13.1309 -1.8287,3.3125 -3.3672,5.5908 -4.6015,6.832 -1.2952,1.2411 -2.7603,1.8555 -4.3887,1.8555 -2.7141,-0.01 -4.6428,-1.6677 -5.7754,-4.9864 -1.1169,-3.2495 -1.5924,-8.5358 -1.4375,-15.8593 0.061,-2.9018 0.4866,-4.7664 1.2715,-5.5938 0.7808,-0.7584 2.6511,-1.1369 5.6133,-1.1269 13.3278,-0.041 23.1265,-4.4082 29.2031,-13.0996 3.7606,-5.5182 5.3235,-11.8713 4.7676,-19.05668 -0.3475,-4.49086 -1.3995,-8.81026 -3.1328,-12.95899 -1.6987,-4.07962 -3.8131,-7.39893 -6.3418,-9.96093 -3.8019,-3.87769 -8.5558,-5.82389 -14.3164,-5.83789 -5.5849,-0.0136 -10.5945,2.49638 -15.1192,7.52929 -1.5204,1.72374 -2.7374,2.58403 -3.6406,2.58203 -0.8128,-0.002 -1.6645,-0.90259 -2.5469,-2.70117 -2.5236,-4.981 -6.0681,-7.47708 -10.6855,-7.48828 -3.6059,-0.009 -7.1846,1.5032 -10.7754,4.53516 -2.9543,2.41164 -5.4843,5.41137 -7.5918,9 -2.1853,3.58853 -3.4825,7.04109 -3.8672,10.35742 -0.2966,2.55634 0.2905,4.00855 1.7637,4.35742 1.4757,0.34886 2.4286,0.73088 2.8593,1.14649 0.4319,0.41561 0.8331,1.38509 1.2051,2.90625 0.7425,3.18048 0.6074,10.12508 -0.416,20.83398 l -1.6309,15.4414 c -0.7024,7.3235 -0.5567,13.0588 0.4551,17.207 0.9764,4.2171 3.0886,7.9531 6.3555,11.2071 6.3125,6.0929 14.4344,9.1499 24.2363,9.1679 z m 62.3506,-7.1357 c 0,0 -6.3938,-60.2121 -6.3938,-60.2121 -0.5062,-4.76723 -1.1618,-8.25693 -1.9621,-10.46909 -0.8411,-2.21228 -2.2426,-4.25316 -4.1972,-6.12265 -1.582,-1.52329 -2.6497,-2.83819 -3.2091,-3.9447 -0.5969,-1.03752 -0.9657,-2.38537 -1.1085,-4.04354 -0.7674,-8.91263 6.0527,-13.35149 20.4601,-13.31659 7.7544,0.0187 14.0748,1.00093 18.9958,2.94644 1.6894,0.69464 3.198,1.90675 4.5283,3.63636 1.2942,1.7295 2.1718,3.69968 2.6263,5.91057 0.3835,1.86543 0.4294,3.31574 0.1356,4.35092 -0.2965,1.03517 -1.2581,2.69035 -2.9008,4.96552 -1.142,1.58577 -1.6849,4.17431 -1.628,7.7656 0.046,3.59131 0.7193,8.94506 2.0281,16.06136 0.4194,2.28 1.3262,6.5293 2.7259,12.748 1.3681,6.2876 2.2025,9.9497 2.4992,10.9863 0.8412,2.8333 2.7232,5.0126 5.6564,6.5379 3.6577,1.8721 5.8747,4.639 6.6307,8.3008 0.8986,4.3527 -0.6481,7.5956 -4.6705,9.7287 -5.6267,2.959 -11.8506,5.4679 -18.6599,7.527 -6.8711,2.059 -12.2982,3.0848 -16.2347,3.0773 -3.093,-0.01 -4.8669,-2.1506 -5.3218,-6.4341 0,0 0,0 0,0 m 22.87,45.4239 c -5.2873,-0.01 -9.6206,-1.1567 -12.9792,-3.4421 -3.324,-2.2163 -5.1809,-5.2244 -5.5904,-9.0244 -0.5733,-5.3199 1.2139,-9.5303 5.3196,-12.6312 6.3939,-4.8924 14.4688,-7.3293 24.3292,-7.3109 4.1608,0.01 7.6484,0.9813 10.4775,2.9204 3.8223,2.4934 6.1951,5.951 7.0933,10.3728 1.207,5.9418 -1.5219,10.5988 -8.2595,13.9711 -6.9441,3.4411 -13.7661,5.1559 -20.3905,5.1443 0,0 0,0 0,0 m 111.7853,3.0963 c -8.0056,-0.014 -15.9663,-1.3054 -23.8302,-3.8741 -3.51139,-1.1801 -5.83619,-1.7711 -6.98489,-1.7731 -1.2092,0 -3.5179,0.7879 -6.9439,2.3701 -1.14,0.4814 -2.3799,0.7209 -3.7179,0.7186 -3.4061,-0.01 -7.2587,-2.2917 -11.5171,-6.8571 -6.73131,-7.3323 -11.09901,-15.3511 -13.20801,-24.0565 -1.4394,-5.9417 -1.3712,-10.7411 0.1764,-14.3982 1.455,-3.6572 4.118,-5.482 8.0165,-5.4744 3.18481,0.01 6.72561,1.4631 10.65081,4.3709 1.2041,0.9 4.4713,4.1516 9.8633,9.755 9.178,9.3389 18.01649,14.016 26.33609,14.0312 7.5634,0.014 12.3521,-3.2568 14.2781,-9.8122 1.7518,-6.5554 0.3712,-15.3949 -4.0548,-26.5184 -6.5703,-16.5126 -15.2381,-30.5789 -25.75589,-42.1991 -3.8201,-4.2194 -7.7249,-7.6107 -11.7198,-10.17386 -3.9327,-2.49408 -7.3787,-3.74447 -10.3658,-3.7512 -2.4656,-0.005 -4.0999,1.16445 -4.9165,3.50999 -0.861,2.41457 -0.7122,5.48727 0.4608,9.21807 1.0426,3.3164 2.475,5.6669 4.3039,7.0517 0.724,0.5539 1.3468,0.8659 1.8673,0.9361 0.4933,0.1391 1.9364,0.2113 4.3293,0.2164 2.1437,0 4.2574,0.9411 6.3508,2.8097 2.0797,1.9375 3.6326,4.3571 4.6494,7.2589 2.0092,5.7345 0.5684,9.8049 -4.3689,12.2114 -5.5136,2.6125 -12.4777,3.9103 -20.83681,3.8934 -8.941,-0.018 -16.7513,-1.2422 -23.3822,-3.6727 -6.2379,-2.3607 -9.9917,-6.6155 -11.3063,-12.7645 -0.5317,-2.4873 -0.3663,-4.6623 0.4881,-6.5251 0.8589,-1.7936 2.244,-2.8611 4.161,-3.2022 1.6645,-0.3418 2.6799,-0.892 3.0467,-1.6509 0.3318,-0.6898 0.4298,-2.4505 0.2897,-5.282 -0.5954,-10.98073 1.0654,-20.16076 4.9036,-27.54006 2.5276,-5.03441 6.0818,-8.96145 10.678,-11.78113 4.4716,-2.81978 9.6238,-4.22252 15.51651,-4.20822 9.6304,0.0233 19.8662,3.53387 30.93029,10.5315 11.6528,7.13635 22.8126,17.1006 33.4643,29.89271 9.1104,10.6487 16.7467,22.1565 22.7563,34.5237 6.0768,12.5053 9.1305,24.3836 8.9684,35.6348 -0.3894,12.0797 -4.7628,21.3913 -13.1147,27.9349 -7.4804,5.7862 -17.6894,8.6682 -30.4619,8.6459 0,0 0,0 0,0 m -70.588,-140.82053 -36.6048,2.38727 m 42.4403,88.59416 -7.427,-22.8117 m -38.1963,38.1963 -1.8568,-11.6711 m 56.7639,32.3608 -27.3209,-5.0398 m -47.7454,0.2652 -44.8276,-28.1167 m 14.8541,-32.8912 -1.5915,-17.5067 m 4.7746,-35.27847 5.8355,-0.79575 m -79.3103,3.97877 -5.0398,-1.85676 m -40.0531,-5.57029 -6.366,-0.26525 m -40.8488,-1.59151 -19.893903,-0.26526 m -12.7321,88.85942 18.037098,-2.122 m 93.899205,-8.4881 18.3024,3.7136 M 444.40208,109.51386 c 0,0 -16.5089,35.0288 -16.5089,35.0288 -1.9537,4.1454 -2.8503,7.5323 -2.7031,10.16085 0.1771,2.62863 1.3499,3.9454 3.532,3.95031 1.8501,0.004 4.9153,-1.23397 9.2232,-3.71438 1.0348,-0.62021 1.9129,-0.92952 2.6326,-0.92792 1.1516,0.002 1.688,1.00672 1.6023,3.01247 -0.095,2.00575 -0.7615,4.18315 -1.9925,6.53222 -2.2448,4.28359 -5.9595,8.39082 -11.0973,12.3217 -10.5953,8.34476 -20.2307,12.50636 -29.1136,12.4848 -7.036,-0.0171 -11.3856,-3.13984 -13.1544,-9.3683 -1.8818,-6.29757 -0.8808,-14.55901 3.1096,-24.78435 0,0 18.6848,-47.8795 18.6848,-47.8795 0.6201,-1.5891 0.8361,-2.5566 0.6476,-2.9027 -0.1082,-0.4151 -0.7827,-0.6239 -2.0231,-0.6263 0,0 -8.3324,-0.016 -8.3324,-0.016 -1.564,0 -2.4495,-0.316 -2.6575,-0.9386 -0.1844,-0.6918 0.1564,-2.246698 1.0232,-4.664898 0,0 1.6345,-4.5599 1.6345,-4.5599 0.7983,-2.0726 1.982,-3.5914 3.5543,-4.556298 0,0 51.4347,-29.7736 51.4347,-29.7736 1.2815,-0.62 2.6634,-0.9287 4.1442,-0.926 0,0 7.1963,0.013 7.1963,0.013 1.4808,0 2.2637,0.419 2.3478,1.2489 0.1739,0.761 -0.2933,2.316 -1.4004,4.6651 0,0 -6.5937,13.9907 -6.5937,13.9907 -0.9769,2.0727 -1.3576,3.4205 -1.1429,4.0432 0.2696,0.6229 1.2771,0.936 3.0234,0.9393 0,0 15.6324,0.03 15.6324,0.03 2.0843,0 3.185,0.4901 3.3004,1.4586 0.1489,0.8993 -0.5719,2.869 -2.1607,5.908898 0,0 -3.1957,6.1145 -3.1957,6.1145 -1.7333,3.3163 -3.3218,5.630098 -4.7622,6.941298 -1.4003,1.2421 -3.0931,1.8612 -5.0813,1.8573 0,0 -14.59,-0.029 -14.59,-0.029 -1.5047,0 -2.6895,0.3404 -3.5533,1.0303 -0.8622,0.6898 -1.7485,2.002 -2.6603,3.9365 0,0 0,0 0,0 m -64.1219,10.9668 c 0,0 -11.369,36.48189 -11.369,36.48189 -0.8492,2.76381 -1.2634,4.80261 -1.2438,6.11639 0.063,1.31389 0.6338,3.83899 1.6809,7.5753 0.2967,1.10705 0.086,2.66238 -0.6295,4.66599 -1.6282,4.55995 -4.524,7.73388 -8.6626,9.5218 -4.1056,1.78791 -10.618,2.67104 -19.562,2.64937 -6.0802,-0.0148 -10.1549,-0.85421 -12.2409,-2.51846 -2.1794,-1.73355 -2.7951,-4.53485 -1.8293,-8.4039 0.3449,-1.3818 0.7318,-2.38329 1.1614,-3.00446 0.4476,-0.69026 1.7747,-2.31174 3.9956,-4.86446 2.6109,-2.89751 6.1024,-12.568 10.4542,-29.01146 2.5234,-9.5344 3.5636,-16.5833 3.0952,-21.1467 -0.4167,-3.6646 -2.4787,-5.5006 -6.1694,-5.508 -3.5325,-0.01 -6.2982,1.4733 -8.2841,4.4416 -1.9686,2.9682 -3.8125,8.3559 -5.5445,16.163 0,0 -4.5525,20.51982 -4.5525,20.51982 -0.9044,4.07632 -1.3602,6.87484 -1.3693,8.39558 0.035,1.52083 0.5383,4.45983 1.4796,8.81699 0.2154,1.2448 0.1362,2.66173 -0.2352,4.25081 -0.9528,4.07632 -3.4844,7.07736 -7.5669,9.00314 -4.0455,1.92577 -9.8866,2.87937 -17.5508,2.86081 -12.2452,-0.0297 -17.8666,-4.01719 -16.8645,-11.96256 0.2092,-1.65816 0.5492,-2.90136 1.0211,-3.72959 0.5283,-0.89721 1.6336,-2.13864 3.3235,-3.7243 1.3847,-1.30994 2.3586,-2.79362 2.918,-4.45104 0.5717,-1.7265 1.4711,-5.90576 2.7028,-12.53776 1.4686,-7.8755 2.8293,-16.1314 4.0725,-24.7677 0.6862,-4.7672 0.8473,-7.8769 0.4804,-9.3289 -0.3084,-1.5211 -1.6298,-3.3552 -3.9802,-5.5023 -2.0384,-1.87 -2.8975,-4.1523 -2.5633,-6.8468 0.3428,-2.7636 1.5711,-5.007198 3.6954,-6.730698 2.1478,-1.7926 6.4052,-4.0304 12.8127,-6.7133 5.696,-2.3388 11.1817,-4.297998 16.4427,-5.877598 5.3075,-1.6486 8.9021,-2.4712 10.7579,-2.4677 1.6871,0 2.9293,0.7659 3.7215,2.288 0.8408,1.5222 1.0291,3.319698 0.5703,5.392398 -0.046,0.2073 -0.2646,1.0709 -0.656,2.5907 -0.1772,0.5526 -0.3116,1.0362 -0.4032,1.4508 -0.7328,3.3163 -0.013,4.9766 2.1583,4.9809 1.303,0 2.9943,-1.3075 5.0863,-3.93 6.8239,-8.557998 14.9125,-12.828298 24.1373,-12.810798 7.0873,0.013 12.4604,2.305 16.0475,6.874498 2.4361,3.254 3.5912,7.0932 3.4815,11.517598 -0.1121,4.3554 -1.4553,10.7824 -4.0196,19.2811 0,0 0,0 0,0 m -145.6828,21.3598 c 1.5779,0.072 2.6251,0.7662 3.1406,2.0801 0.561,1.314 0.7973,3.872 0.7129,7.6719 -0.2071,9.32717 -2.1739,13.98552 -5.9004,13.97652 -1.7701,-0.004 -3.1906,-1.0076 -4.2695,-3.01367 -1.0901,-2.07516 -1.6505,-4.77156 -1.6719,-8.08789 -0.022,-3.45446 0.7373,-6.42436 2.291,-8.90816 1.6215,-2.4838 3.5261,-3.7188 5.6973,-3.7188 z m 6.416,-59.994096 c -11.0976,-0.021 -21.6758,3.2753 -31.5254,9.888598 -3.5186,2.4802 -6.2399,5.3773 -8.168,8.689498 -1.8442,3.3123 -2.643,6.627 -2.4219,9.9433 0.2167,3.2472 1.2026,5.874 2.9473,7.8809 1.7302,2.0069 3.8576,3.0076 6.3926,3.0176 5.0183,0.01 9.7186,-4.3659 14.2383,-13.1309 1.8287,-3.3125 3.3672,-5.5908 4.6015,-6.832 1.2952,-1.2411 2.7603,-1.855498 4.3887,-1.855498 2.7141,0.01 4.6428,1.667698 5.7754,4.986398 1.1169,3.2495 1.5924,8.5358 1.4375,15.8593 -0.061,2.9018 -0.4866,4.7664 -1.2715,5.5938 -0.7808,0.7584 -2.6511,1.1369 -5.6133,1.1269 -13.3278,0.041 -23.1265,4.4082 -29.2031,13.0996 -3.7606,5.5182 -5.3235,11.8713 -4.7676,19.05668 0.3475,4.49086 1.3995,8.81026 3.1328,12.95899 1.6987,4.07962 3.8131,7.39893 6.3418,9.96093 3.8019,3.87769 8.5558,5.82389 14.3164,5.83789 5.5849,0.0136 10.5945,-2.49638 15.1192,-7.52929 1.5204,-1.72374 2.7374,-2.58403 3.6406,-2.58203 0.8128,0.002 1.6645,0.90259 2.5469,2.70117 2.5236,4.981 6.0681,7.47708 10.6855,7.48828 3.6059,0.009 7.1846,-1.5032 10.7754,-4.53516 2.9543,-2.41164 5.4843,-5.41137 7.5918,-9 2.1853,-3.58853 3.4825,-7.04109 3.8672,-10.35742 0.2966,-2.55634 -0.2905,-4.00855 -1.7637,-4.35742 -1.4757,-0.34886 -2.4286,-0.73088 -2.8593,-1.14649 -0.4319,-0.41561 -0.8331,-1.38509 -1.2051,-2.90625 -0.7425,-3.18048 -0.6074,-10.12508 0.416,-20.83398 l 1.6309,-15.4414 c 0.7024,-7.3235 0.5567,-13.0588 -0.4551,-17.207 -0.9764,-4.217098 -3.0886,-7.953098 -6.3555,-11.207098 -6.3125,-6.092898 -14.4344,-9.149898 -24.2363,-9.167898 z m -62.3506,7.135698 c 0,0 6.3938,60.212098 6.3938,60.212098 0.5062,4.76723 1.1618,8.25693 1.9621,10.46909 0.8411,2.21228 2.2426,4.25316 4.1972,6.12265 1.582,1.52329 2.6497,2.83819 3.2091,3.9447 0.5969,1.03752 0.9657,2.38537 1.1085,4.04354 0.7674,8.91263 -6.0527,13.35149 -20.4601,13.31659 -7.7544,-0.0187 -14.0748,-1.00093 -18.9958,-2.94644 -1.6894,-0.69464 -3.198,-1.90675 -4.5283,-3.63636 -1.2942,-1.7295 -2.1718,-3.69968 -2.6263,-5.91057 -0.3835,-1.86543 -0.4294,-3.31574 -0.1356,-4.35092 0.2965,-1.03517 1.2581,-2.69035 2.9008,-4.96552 1.142,-1.58577 1.6849,-4.17431 1.628,-7.7656 -0.046,-3.59131 -0.7193,-8.94506 -2.0281,-16.06136 -0.4194,-2.28 -1.3262,-6.5293 -2.7259,-12.748 -1.3681,-6.2876 -2.2025,-9.9497 -2.4992,-10.9863 -0.8412,-2.8333 -2.7232,-5.0126 -5.6564,-6.5379 -3.6577,-1.8721 -5.8747,-4.639 -6.6307,-8.3008 -0.8986,-4.352698 0.6481,-7.595598 4.6705,-9.728698 5.6267,-2.959 11.8506,-5.467898 18.6599,-7.526998 6.8711,-2.059 12.2982,-3.0848 16.2347,-3.0773 3.093,0.01 4.8669,2.1506 5.3218,6.434098 0,0 0,0 0,0 m -22.87,-45.423898 c 5.2873,0.01 9.6206,1.1567 12.9792,3.4421 3.324,2.2163 5.1809,5.2244 5.5904,9.0244 0.5733,5.3199 -1.2139,9.5303 -5.3196,12.6312 -6.3939,4.8924 -14.4688,7.3293 -24.3292,7.3109 -4.1608,-0.01 -7.6484,-0.9813 -10.4775,-2.9204 -3.8223,-2.4934 -6.1951,-5.951 -7.0933,-10.3728 -1.207,-5.9418 1.5219,-10.5988 8.2595,-13.9711 6.9441,-3.4411 13.7661,-5.1559 20.3905,-5.1443 0,0 0,0 0,0 m -111.785299,-3.0963 c 8.0056,0.014 15.9663,1.3054 23.8302,3.8741 3.5114,1.1801 5.8362,1.7711 6.9849,1.7731 1.2092,0 3.5179,-0.7879 6.943898,-2.3701 1.14,-0.4814 2.3799,-0.7209 3.7179,-0.7186 3.4061,0.01 7.2587,2.2917 11.5171,6.8571 6.731301,7.3323 11.099001,15.3511 13.208001,24.0565 1.4394,5.9417 1.3712,10.7411 -0.1764,14.398198 -1.455,3.6572 -4.118,5.482 -8.0165,5.4744 -3.184801,-0.01 -6.725601,-1.4631 -10.650801,-4.3709 -1.2041,-0.9 -4.4713,-4.151598 -9.8633,-9.754998 -9.177998,-9.3389 -18.016498,-14.016 -26.336098,-14.0312 -7.5634,-0.014 -12.3521,3.2568 -14.2781,9.8122 -1.7518,6.5554 -0.3712,15.394898 4.0548,26.518396 6.5703,16.5126 15.2381,30.5789 25.7559,42.1991 3.8201,4.2194 7.7249,7.6107 11.719798,10.17386 3.9327,2.49408 7.3787,3.74447 10.3658,3.7512 2.4656,0.005 4.0999,-1.16445 4.9165,-3.50999 0.861,-2.41457 0.7122,-5.48727 -0.4608,-9.21807 -1.0426,-3.3164 -2.475,-5.6669 -4.3039,-7.0517 -0.724,-0.5539 -1.3468,-0.8659 -1.8673,-0.9361 -0.4933,-0.1391 -1.9364,-0.2113 -4.3293,-0.2164 -2.1437,0 -4.2574,-0.9411 -6.350798,-2.8097 -2.0797,-1.9375 -3.6326,-4.3571 -4.6494,-7.2589 -2.0092,-5.7345 -0.5684,-9.8049 4.3689,-12.2114 5.513598,-2.6125 12.477698,-3.9103 20.836799,-3.8934 8.941,0.018 16.7513,1.2422 23.3822,3.6727 6.2379,2.3607 9.9917,6.6155 11.3063,12.7645 0.5317,2.4873 0.3663,4.6623 -0.4881,6.5251 -0.8589,1.7936 -2.244,2.8611 -4.161,3.2022 -1.6645,0.3418 -2.6799,0.892 -3.0467,1.6509 -0.3318,0.6898 -0.4298,2.4505 -0.2897,5.282 0.5954,10.98073 -1.0654,20.16076 -4.9036,27.54006 -2.5276,5.03441 -6.0818,8.96145 -10.678,11.78113 -4.4716,2.81978 -9.6238,4.22252 -15.516501,4.20822 -9.6304,-0.0233 -19.866198,-3.53387 -30.930298,-10.5315 -11.6528,-7.13635 -22.8126,-17.1006 -33.4643,-29.89271 -9.1104,-10.6487 -16.7467,-22.1565 -22.7563003,-34.5237 -6.0768,-12.5053 -9.13049998,-24.383596 -8.96839998,-35.634796 0.3894,-12.0797 4.76279998,-21.3913 13.11470028,-27.9349 7.4804,-5.7862 17.6894,-8.6682 30.4619,-8.6459 0,0 0,0 0,0 m 70.587999,140.820526 36.6048,-2.38727 m -42.4403,-88.594158 7.427,22.811698 m 38.1963,-38.196296 1.8568,11.6711 m -56.763901,-32.3608 27.320901,5.0398 m 47.7454,-0.2652 44.8276,28.1167 m -14.8541,32.891196 1.5915,17.5067 m -4.7746,35.27847 -5.8355,0.79575 m 79.3103,-3.97877 5.0398,1.85676 m 40.0531,5.57029 6.366,0.26525 m 40.8488,1.59151 19.8939,0.26526 m 12.7321,-88.859418 -18.0371,2.122 m -93.8992,8.488098 -18.3024,-3.713598 M 486.9793,118.77975 c 0,0 16.50892,-35.028795 16.50892,-35.028795 1.9537,-4.1454 2.8503,-7.5323 2.7031,-10.160853 -0.1771,-2.62863 -1.3499,-3.9454 -3.532,-3.95031 -1.8501,-0.004 -4.9153,1.23397 -9.2232,3.71438 -1.0348,0.62021 -1.9129,0.92952 -2.6326,0.92792 -1.15162,-0.002 -1.68802,-1.00672 -1.60232,-3.01247 0.095,-2.00575 0.76152,-4.18315 1.99252,-6.53222 2.2448,-4.28359 5.9595,-8.39082 11.0973,-12.3217 10.5953,-8.34476 20.2307,-12.50636 29.1136,-12.4848 7.036,0.0171 11.3856,3.13984 13.1544,9.3683 1.8818,6.29757 0.8808,14.55901 -3.1096,24.78435 0,0 -18.6848,47.879498 -18.6848,47.879498 -0.6201,1.5891 -0.8361,2.5566 -0.6476,2.9027 0.1082,0.4151 0.7827,0.6239 2.0231,0.6263 0,0 8.3324,0.016 8.3324,0.016 1.564,0 2.4495,0.316 2.6575,0.9386 0.1844,0.6918 -0.1564,2.2467 -1.0232,4.6649 0,0 -1.6345,4.5599 -1.6345,4.5599 -0.7983,2.0726 -1.982,3.5914 -3.5543,4.5563 0,0 -51.43472,29.7736 -51.43472,29.7736 -1.2815,0.62 -2.6634,0.9287 -4.1442,0.926 0,0 -7.1963,-0.013 -7.1963,-0.013 -1.4808,0 -2.2637,-0.419 -2.3478,-1.2489 -0.1739,-0.761 0.2933,-2.316 1.4004,-4.6651 0,0 6.5937,-13.9907 6.5937,-13.9907 0.9769,-2.0727 1.3576,-3.4205 1.1429,-4.0432 -0.2696,-0.6229 -1.2771,-0.936 -3.0234,-0.9393 0,0 -15.6324,-0.03 -15.6324,-0.03 -2.0843,0 -3.185,-0.4901 -3.3004,-1.4586 -0.1489,-0.8993 0.5719,-2.869 2.1607,-5.9089 0,0 3.1957,-6.1145 3.1957,-6.1145 1.7333,-3.3163 3.3218,-5.6301 4.7622,-6.9413 1.4003,-1.2421 3.0931,-1.8612 5.0813,-1.8573 0,0 14.59,0.029 14.59,0.029 1.5047,0 2.6895,-0.3404 3.5533,-1.0303 0.8622,-0.6898 1.7485,-2.002 2.6603,-3.9365 0,0 0,0 0,0 m 64.12192,-10.9668 c 0,0 11.369,-36.481888 11.369,-36.481888 0.8492,-2.76381 1.2634,-4.80261 1.2438,-6.11639 -0.063,-1.31389 -0.6338,-3.83899 -1.6809,-7.5753 -0.2967,-1.10705 -0.086,-2.66238 0.6295,-4.66599 1.6282,-4.55995 4.524,-7.73388 8.6626,-9.5218 4.1056,-1.78791 10.618,-2.67104 19.562,-2.64937 6.0802,0.0148 10.1549,0.85421 12.2409,2.51846 2.1794,1.73355 2.7951,4.53485 1.8293,8.4039 -0.3449,1.3818 -0.7318,2.38329 -1.1614,3.00446 -0.4476,0.69026 -1.7747,2.31174 -3.9956,4.86446 -2.6109,2.89751 -6.1024,12.568 -10.4542,29.011463 -2.5234,9.534397 -3.5636,16.583295 -3.0952,21.146695 0.4167,3.6646 2.4787,5.5006 6.1694,5.508 3.5325,0.01 6.2982,-1.4733 8.2841,-4.4416 1.9686,-2.9682 3.8125,-8.3559 5.5445,-16.162998 0,0 4.5525,-20.51982 4.5525,-20.51982 0.9044,-4.07632 1.3602,-6.87484 1.3693,-8.39558 -0.035,-1.52083 -0.5383,-4.45983 -1.4796,-8.81699 -0.2154,-1.2448 -0.1362,-2.66173 0.2352,-4.25081 0.9528,-4.07632 3.4844,-7.07736 7.5669,-9.00314 4.0455,-1.92577 9.8866,-2.87937 17.5508,-2.86081 12.2452,0.0297 17.8666,4.01719 16.8645,11.96256 -0.2092,1.65816 -0.5492,2.90136 -1.0211,3.72959 -0.5283,0.89721 -1.6336,2.13864 -3.3235,3.7243 -1.3847,1.30994 -2.3586,2.79362 -2.918,4.45104 -0.5717,1.7265 -1.4711,5.90576 -2.7028,12.537763 -1.4686,7.8755 -2.8293,16.131397 -4.0725,24.767695 -0.6862,4.7672 -0.8473,7.8769 -0.4804,9.3289 0.3084,1.5211 1.6298,3.3552 3.9802,5.5023 2.0384,1.87 2.8975,4.1523 2.5633,6.8468 -0.3428,2.7636 -1.5711,5.0072 -3.6954,6.7307 -2.1478,1.7926 -6.4052,4.0304 -12.8127,6.7133 -5.696,2.3388 -11.1817,4.298 -16.4427,5.8776 -5.3075,1.6486 -8.9021,2.4712 -10.7579,2.4677 -1.6871,0 -2.9293,-0.7659 -3.7215,-2.288 -0.8408,-1.5222 -1.0291,-3.3197 -0.5703,-5.3924 0.046,-0.2073 0.2646,-1.0709 0.656,-2.5907 0.1772,-0.5526 0.3116,-1.0362 0.4032,-1.4508 0.7328,-3.3163 0.013,-4.9766 -2.1583,-4.9809 -1.303,0 -2.9943,1.3075 -5.0863,3.93 -6.8239,8.558 -14.9125,12.8283 -24.1373,12.8108 -7.0873,-0.013 -12.4604,-2.305 -16.0475,-6.8745 -2.4361,-3.254 -3.5912,-7.0932 -3.4815,-11.5176 0.1121,-4.3554 1.4553,-10.7824 4.0196,-19.2811 0,0 0,0 0,0 m 145.6828,-21.359795 c -1.5779,-0.072 -2.6251,-0.7662 -3.1406,-2.0801 -0.561,-1.314 -0.7973,-3.872 -0.7129,-7.6719 0.2071,-9.327173 2.1739,-13.985523 5.9004,-13.976523 1.7701,0.004 3.1906,1.0076 4.2695,3.01367 1.0901,2.07516 1.6505,4.77156 1.6719,8.08789 0.022,3.454463 -0.7373,6.424363 -2.291,8.908163 -1.6215,2.4838 -3.5261,3.7188 -5.6973,3.7188 z m -6.416,59.994095 c 11.0976,0.021 21.6758,-3.2753 31.5254,-9.8886 3.5186,-2.4802 6.2399,-5.3773 8.168,-8.6895 1.8442,-3.3123 2.643,-6.627 2.4219,-9.9433 -0.2167,-3.2472 -1.2026,-5.874 -2.9473,-7.8809 -1.7302,-2.0069 -3.8576,-3.0076 -6.3926,-3.0176 -5.0183,-0.01 -9.7186,4.3659 -14.2383,13.1309 -1.8287,3.3125 -3.3672,5.5908 -4.6015,6.832 -1.2952,1.2411 -2.7603,1.8555 -4.3887,1.8555 -2.7141,-0.01 -4.6428,-1.6677 -5.7754,-4.9864 -1.1169,-3.2495 -1.5924,-8.5358 -1.4375,-15.8593 0.061,-2.9018 0.4866,-4.7664 1.2715,-5.5938 0.7808,-0.7584 2.6511,-1.1369 5.6133,-1.1269 13.3278,-0.041 23.1265,-4.408198 29.2031,-13.099595 3.7606,-5.5182 5.3235,-11.8713 4.7676,-19.056683 -0.3475,-4.49086 -1.3995,-8.81026 -3.1328,-12.95899 -1.6987,-4.07962 -3.8131,-7.39893 -6.3418,-9.96093 -3.8019,-3.87769 -8.5558,-5.82389 -14.3164,-5.83789 -5.5849,-0.0136 -10.5945,2.49638 -15.1192,7.52929 -1.5204,1.72374 -2.7374,2.58403 -3.6406,2.58203 -0.8128,-0.002 -1.6645,-0.90259 -2.5469,-2.70117 -2.5236,-4.981 -6.0681,-7.47708 -10.6855,-7.48828 -3.6059,-0.009 -7.1846,1.5032 -10.7754,4.53516 -2.9543,2.41164 -5.4843,5.41137 -7.5918,9 -2.1853,3.58853 -3.4825,7.04109 -3.8672,10.35742 -0.2966,2.55634 0.2905,4.00855 1.7637,4.35742 1.4757,0.34886 2.4286,0.73088 2.8593,1.14649 0.4319,0.41561 0.8331,1.38509 1.2051,2.90625 0.7425,3.180483 0.6074,10.125083 -0.416,20.83398 l -1.6309,15.441398 c -0.7024,7.3235 -0.5567,13.0588 0.4551,17.207 0.9764,4.2171 3.0886,7.9531 6.3555,11.2071 6.3125,6.0929 14.4344,9.1499 24.2363,9.1679 z m 62.3506,-7.1357 c 0,0 -6.3938,-60.212095 -6.3938,-60.212095 -0.5062,-4.767233 -1.1618,-8.256933 -1.9621,-10.469093 -0.8411,-2.21228 -2.2426,-4.25316 -4.1972,-6.12265 -1.582,-1.52329 -2.6497,-2.83819 -3.2091,-3.9447 -0.5969,-1.03752 -0.9657,-2.38537 -1.1085,-4.04354 -0.7674,-8.91263 6.0527,-13.35149 20.4601,-13.31659 7.7544,0.0187 14.0748,1.00093 18.9958,2.94644 1.6894,0.69464 3.198,1.90675 4.5283,3.63636 1.2942,1.7295 2.1718,3.69968 2.6263,5.91057 0.3835,1.86543 0.4294,3.31574 0.1356,4.35092 -0.2965,1.03517 -1.2581,2.69035 -2.9008,4.96552 -1.142,1.58577 -1.6849,4.17431 -1.628,7.7656 0.046,3.59131 0.7193,8.945063 2.0281,16.061363 0.4194,2.28 1.3262,6.529297 2.7259,12.747997 1.3681,6.287598 2.2025,9.949698 2.4992,10.986298 0.8412,2.8333 2.7232,5.0126 5.6564,6.5379 3.6577,1.8721 5.8747,4.639 6.6307,8.3008 0.8986,4.3527 -0.6481,7.5956 -4.6705,9.7287 -5.6267,2.959 -11.8506,5.4679 -18.6599,7.527 -6.8711,2.059 -12.2982,3.0848 -16.2347,3.0773 -3.093,-0.01 -4.8669,-2.1506 -5.3218,-6.4341 0,0 0,0 0,0 m 22.87,45.4239 c -5.2873,-0.01 -9.6206,-1.1567 -12.9792,-3.4421 -3.324,-2.2163 -5.1809,-5.2244 -5.5904,-9.0244 -0.5733,-5.3199 1.2139,-9.5303 5.3196,-12.6312 6.3939,-4.8924 14.4688,-7.3293 24.3292,-7.3109 4.1608,0.01 7.6484,0.9813 10.4775,2.9204 3.8223,2.4934 6.1951,5.951 7.0933,10.3728 1.207,5.9418 -1.5219,10.5988 -8.2595,13.9711 -6.9441,3.4411 -13.7661,5.1559 -20.3905,5.1443 0,0 0,0 0,0 m 111.7853,3.0963 c -8.0056,-0.014 -15.9663,-1.3054 -23.8302,-3.8741 -3.5114,-1.1801 -5.8362,-1.7711 -6.9849,-1.7731 -1.2092,0 -3.5179,0.7879 -6.9439,2.3701 -1.14,0.4814 -2.3799,0.7209 -3.7179,0.7186 -3.4061,-0.01 -7.2587,-2.2917 -11.5171,-6.8571 -6.7313,-7.3323 -11.099,-15.3511 -13.208,-24.0565 -1.4394,-5.9417 -1.3712,-10.7411 0.1764,-14.3982 1.455,-3.6572 4.118,-5.482 8.0165,-5.4744 3.1848,0.01 6.7256,1.4631 10.6508,4.3709 1.2041,0.9 4.4713,4.1516 9.8633,9.755 9.178,9.3389 18.0165,14.016 26.3361,14.0312 7.5634,0.014 12.3521,-3.2568 14.2781,-9.8122 1.7518,-6.5554 0.3712,-15.3949 -4.0548,-26.5184 -6.5703,-16.5126 -15.2381,-30.578898 -25.7559,-42.199095 -3.8201,-4.2194 -7.7249,-7.6107 -11.7198,-10.173863 -3.9327,-2.49408 -7.3787,-3.74447 -10.3658,-3.7512 -2.4656,-0.005 -4.0999,1.16445 -4.9165,3.50999 -0.861,2.414573 -0.7122,5.487273 0.4608,9.218073 1.0426,3.3164 2.475,5.6669 4.3039,7.051697 0.724,0.5539 1.3468,0.8659 1.8673,0.9361 0.4933,0.1391 1.9364,0.2113 4.3293,0.2164 2.1437,0 4.2574,0.9411 6.3508,2.8097 2.0797,1.9375 3.6326,4.3571 4.6494,7.258898 2.0092,5.7345 0.5684,9.8049 -4.3689,12.2114 -5.5136,2.6125 -12.4777,3.9103 -20.8368,3.8934 -8.941,-0.018 -16.7513,-1.2422 -23.3822,-3.6727 -6.2379,-2.3607 -9.9917,-6.6155 -11.3063,-12.7645 -0.5317,-2.487298 -0.3663,-4.662298 0.4881,-6.525098 0.8589,-1.7936 2.244,-2.8611 4.161,-3.2022 1.6645,-0.3418 2.6799,-0.892 3.0467,-1.6509 0.3318,-0.689797 0.4298,-2.450497 0.2897,-5.281997 -0.5954,-10.980733 1.0654,-20.160763 4.9036,-27.540063 2.5276,-5.03441 6.0818,-8.96145 10.678,-11.78113 4.4716,-2.81978 9.6238,-4.22252 15.5165,-4.20822 9.6304,0.0233 19.8662,3.53387 30.9303,10.5315 11.6528,7.13635 22.8126,17.1006 33.4643,29.892713 9.1104,10.648697 16.7467,22.156495 22.7563,34.523695 6.0768,12.5053 9.1305,24.3836 8.9684,35.6348 -0.3894,12.0797 -4.7628,21.3913 -13.1147,27.9349 -7.4804,5.7862 -17.6894,8.6682 -30.4619,8.6459 0,0 0,0 0,0 m -70.588,-140.820528 -36.6048,2.38727 m 42.4403,88.594158 -7.427,-22.8117 m -38.1963,38.1963 -1.8568,-11.6711 m 56.7639,32.3608 -27.3209,-5.0398 m -47.7454,0.2652 -44.8276,-28.1167 m 14.8541,-32.8912 -1.5915,-17.506698 m 4.7746,-35.27847 5.8355,-0.79575 m -79.3103,3.97877 -5.0398,-1.85676 m -40.0531,-5.57029 -6.366,-0.26525 m -40.8488,-1.59151 -19.8939,-0.26526 m -12.7321,88.859418 18.0371,-2.122 m 93.8992,-8.4881 18.3024,3.7136 m 249.54066,111.3992 c 0,0 -16.5089,35.0288 -16.5089,35.0288 -1.9537,4.1454 -2.8503,7.5323 -2.7031,10.16085 0.1771,2.62863 1.3499,3.9454 3.532,3.95031 1.8501,0.004 4.9153,-1.23397 9.2232,-3.71438 1.0348,-0.62021 1.9129,-0.92952 2.6326,-0.92792 1.1516,0.002 1.688,1.00672 1.6023,3.01247 -0.095,2.00575 -0.7615,4.18315 -1.9925,6.53222 -2.2448,4.28359 -5.9595,8.39082 -11.0973,12.3217 -10.5953,8.34476 -20.2307,12.50636 -29.1136,12.4848 -7.036,-0.0171 -11.3856,-3.13984 -13.1544,-9.3683 -1.8818,-6.29757 -0.8808,-14.55901 3.1096,-24.78435 0,0 18.6848,-47.8795 18.6848,-47.8795 0.6201,-1.5891 0.8361,-2.5566 0.6476,-2.9027 -0.1082,-0.4151 -0.7827,-0.6239 -2.0231,-0.6263 0,0 -8.3324,-0.016 -8.3324,-0.016 -1.564,0 -2.4495,-0.316 -2.6575,-0.9386 -0.1844,-0.6918 0.1564,-2.2467 1.0232,-4.6649 0,0 1.6345,-4.5599 1.6345,-4.5599 0.7983,-2.0726 1.982,-3.5914 3.5543,-4.5563 0,0 51.4347,-29.7736 51.4347,-29.7736 1.2815,-0.62 2.6634,-0.9287 4.1442,-0.926 0,0 7.1963,0.013 7.1963,0.013 1.4808,0 2.2637,0.419 2.3478,1.2489 0.1739,0.761 -0.2933,2.316 -1.4004,4.6651 0,0 -6.5937,13.9907 -6.5937,13.9907 -0.9769,2.0727 -1.3576,3.4205 -1.1429,4.0432 0.2696,0.6229 1.2771,0.936 3.0234,0.9393 0,0 15.6324,0.03 15.6324,0.03 2.0843,0 3.185,0.4901 3.3004,1.4586 0.1489,0.8993 -0.5719,2.869 -2.1607,5.9089 0,0 -3.1957,6.1145 -3.1957,6.1145 -1.7333,3.3163 -3.3218,5.6301 -4.7622,6.9413 -1.4003,1.2421 -3.0931,1.8612 -5.0813,1.8573 0,0 -14.59,-0.029 -14.59,-0.029 -1.5047,0 -2.6895,0.3404 -3.5533,1.0303 -0.8622,0.6898 -1.7485,2.002 -2.6603,3.9365 0,0 0,0 0,0 m -64.1219,10.9668 c 0,0 -11.369,36.48189 -11.369,36.48189 -0.8492,2.76381 -1.2634,4.80261 -1.2438,6.11639 0.063,1.31389 0.6338,3.83899 1.6809,7.5753 0.2967,1.10705 0.086,2.66238 -0.6295,4.66599 -1.6282,4.55995 -4.524,7.73388 -8.6626,9.5218 -4.1056,1.78791 -10.618,2.67104 -19.562,2.64937 -6.0802,-0.0148 -10.1549,-0.85421 -12.2409,-2.51846 -2.1794,-1.73355 -2.7951,-4.53485 -1.8293,-8.4039 0.3449,-1.3818 0.7318,-2.38329 1.1614,-3.00446 0.4476,-0.69026 1.7747,-2.31174 3.9956,-4.86446 2.6109,-2.89751 6.1024,-12.568 10.4542,-29.01146 2.5234,-9.5344 3.5636,-16.5833 3.0952,-21.1467 -0.4167,-3.6646 -2.4787,-5.5006 -6.1694,-5.508 -3.5325,-0.01 -6.2982,1.4733 -8.2841,4.4416 -1.9686,2.9682 -3.8125,8.3559 -5.5445,16.163 0,0 -4.5525,20.51982 -4.5525,20.51982 -0.9044,4.07632 -1.3602,6.87484 -1.3693,8.39558 0.035,1.52083 0.5383,4.45983 1.4796,8.81699 0.2154,1.2448 0.1362,2.66173 -0.2352,4.25081 -0.9528,4.07632 -3.4844,7.07736 -7.5669,9.00314 -4.0455,1.92577 -9.8866,2.87937 -17.5508,2.86081 -12.2452,-0.0297 -17.8666,-4.01719 -16.8645,-11.96256 0.2092,-1.65816 0.5492,-2.90136 1.0211,-3.72959 0.5283,-0.89721 1.6336,-2.13864 3.3235,-3.7243 1.3847,-1.30994 2.3586,-2.79362 2.918,-4.45104 0.5717,-1.7265 1.4711,-5.90576 2.7028,-12.53776 1.4686,-7.8755 2.8293,-16.1314 4.0725,-24.7677 0.6862,-4.7672 0.8473,-7.8769 0.4804,-9.3289 -0.3084,-1.5211 -1.6298,-3.3552 -3.9802,-5.5023 -2.0384,-1.87 -2.8975,-4.1523 -2.5633,-6.8468 0.3428,-2.7636 1.5711,-5.0072 3.6954,-6.7307 2.1478,-1.7926 6.4052,-4.0304 12.8127,-6.7133 5.696,-2.3388 11.1817,-4.298 16.4427,-5.8776 5.3075,-1.6486 8.9021,-2.4712 10.7579,-2.4677 1.6871,0 2.9293,0.7659 3.7215,2.288 0.8408,1.5222 1.0291,3.3197 0.5703,5.3924 -0.046,0.2073 -0.2646,1.0709 -0.656,2.5907 -0.1772,0.5526 -0.3116,1.0362 -0.4032,1.4508 -0.7328,3.3163 -0.013,4.9766 2.1583,4.9809 1.303,0 2.9943,-1.3075 5.0863,-3.93 6.8239,-8.558 14.9125,-12.8283 24.1373,-12.8108 7.0873,0.013 12.4604,2.305 16.0475,6.8745 2.4361,3.254 3.5912,7.0932 3.4815,11.5176 -0.1121,4.3554 -1.4553,10.7824 -4.0196,19.2811 0,0 0,0 0,0 m -145.6828,21.3598 c 1.5779,0.072 2.6251,0.7662 3.1406,2.0801 0.561,1.314 0.7973,3.872 0.7129,7.6719 -0.2071,9.32717 -2.1739,13.98552 -5.9004,13.97652 -1.7701,-0.004 -3.1906,-1.0076 -4.2695,-3.01367 -1.0901,-2.07516 -1.6505,-4.77156 -1.6719,-8.08789 -0.022,-3.45446 0.7373,-6.42436 2.291,-8.90816 1.6215,-2.4838 3.5261,-3.7188 5.6973,-3.7188 z m 6.416,-59.9941 c -11.0976,-0.021 -21.6758,3.2753 -31.5254,9.8886 -3.5186,2.4802 -6.2399,5.3773 -8.168,8.6895 -1.8442,3.3123 -2.643,6.627 -2.4219,9.9433 0.2167,3.2472 1.2026,5.874 2.9473,7.8809 1.7302,2.0069 3.8576,3.0076 6.3926,3.0176 5.0183,0.01 9.7186,-4.3659 14.2383,-13.1309 1.8287,-3.3125 3.3672,-5.5908 4.6015,-6.832 1.2952,-1.2411 2.7603,-1.8555 4.3887,-1.8555 2.7141,0.01 4.6428,1.6677 5.7754,4.9864 1.1169,3.2495 1.5924,8.5358 1.4375,15.8593 -0.061,2.9018 -0.4866,4.7664 -1.2715,5.5938 -0.7808,0.7584 -2.6511,1.1369 -5.6133,1.1269 -13.3278,0.041 -23.1265,4.4082 -29.2031,13.0996 -3.7606,5.5182 -5.3235,11.8713 -4.7676,19.05668 0.3475,4.49086 1.3995,8.81026 3.1328,12.95899 1.6987,4.07962 3.8131,7.39893 6.3418,9.96093 3.8019,3.87769 8.5558,5.82389 14.3164,5.83789 5.5849,0.0136 10.5945,-2.49638 15.1192,-7.52929 1.5204,-1.72374 2.7374,-2.58403 3.6406,-2.58203 0.8128,0.002 1.6645,0.90259 2.5469,2.70117 2.5236,4.981 6.0681,7.47708 10.6855,7.48828 3.6059,0.009 7.1846,-1.5032 10.7754,-4.53516 2.9543,-2.41164 5.4843,-5.41137 7.5918,-9 2.1853,-3.58853 3.4825,-7.04109 3.8672,-10.35742 0.2966,-2.55634 -0.2905,-4.00855 -1.7637,-4.35742 -1.4757,-0.34886 -2.4286,-0.73088 -2.8593,-1.14649 -0.4319,-0.41561 -0.8331,-1.38509 -1.2051,-2.90625 -0.7425,-3.18048 -0.6074,-10.12508 0.416,-20.83398 l 1.6309,-15.4414 c 0.7024,-7.3235 0.5567,-13.0588 -0.4551,-17.207 -0.9764,-4.2171 -3.0886,-7.9531 -6.3555,-11.2071 -6.3125,-6.0929 -14.4344,-9.1499 -24.2363,-9.1679 z m -62.3506,7.1357 c 0,0 6.3938,60.2121 6.3938,60.2121 0.5062,4.76723 1.1618,8.25693 1.9621,10.46909 0.8411,2.21228 2.2426,4.25316 4.1972,6.12265 1.582,1.52329 2.6497,2.83819 3.2091,3.9447 0.5969,1.03752 0.9657,2.38537 1.1085,4.04354 0.7674,8.91263 -6.0527,13.35149 -20.4601,13.31659 -7.7544,-0.0187 -14.0748,-1.00093 -18.9958,-2.94644 -1.6894,-0.69464 -3.198,-1.90675 -4.5283,-3.63636 -1.2942,-1.7295 -2.1718,-3.69968 -2.6263,-5.91057 -0.3835,-1.86543 -0.4294,-3.31574 -0.1356,-4.35092 0.2965,-1.03517 1.2581,-2.69035 2.9008,-4.96552 1.142,-1.58577 1.6849,-4.17431 1.628,-7.7656 -0.046,-3.59131 -0.7193,-8.94506 -2.0281,-16.06136 -0.4194,-2.28 -1.3262,-6.5293 -2.7259,-12.748 -1.3681,-6.2876 -2.2025,-9.9497 -2.4992,-10.9863 -0.8412,-2.8333 -2.7232,-5.0126 -5.6564,-6.5379 -3.6577,-1.8721 -5.8747,-4.639 -6.6307,-8.3008 -0.8986,-4.3527 0.6481,-7.5956 4.6705,-9.7287 5.6267,-2.959 11.8506,-5.4679 18.6599,-7.527 6.8711,-2.059 12.2982,-3.0848 16.2347,-3.0773 3.093,0.01 4.8669,2.1506 5.3218,6.4341 0,0 0,0 0,0 m -22.87,-45.4239 c 5.2873,0.01 9.6206,1.1567 12.9792,3.4421 3.324,2.2163 5.1809,5.2244 5.5904,9.0244 0.5733,5.3199 -1.2139,9.5303 -5.3196,12.6312 -6.3939,4.8924 -14.4688,7.3293 -24.3292,7.3109 -4.1608,-0.01 -7.6484,-0.9813 -10.4775,-2.9204 -3.8223,-2.4934 -6.1951,-5.951 -7.0933,-10.3728 -1.207,-5.9418 1.5219,-10.5988 8.2595,-13.9711 6.9441,-3.4411 13.7661,-5.1559 20.3905,-5.1443 0,0 0,0 0,0 m -111.7853,-3.0963 c 8.0056,0.014 15.9663,1.3054 23.8302,3.8741 3.5114,1.1801 5.8362,1.7711 6.9849,1.7731 1.2092,0 3.5179,-0.7879 6.9439,-2.3701 1.14,-0.4814 2.3799,-0.7209 3.7179,-0.7186 3.4061,0.01 7.2587,2.2917 11.5171,6.8571 6.7313,7.3323 11.099,15.3511 13.208,24.0565 1.4394,5.9417 1.3712,10.7411 -0.1764,14.3982 -1.455,3.6572 -4.118,5.482 -8.0165,5.4744 -3.1848,-0.01 -6.7256,-1.4631 -10.6508,-4.3709 -1.2041,-0.9 -4.4713,-4.1516 -9.8633,-9.755 -9.178,-9.3389 -18.0165,-14.016 -26.3361,-14.0312 -7.5634,-0.014 -12.3521,3.2568 -14.2781,9.8122 -1.75181,6.5554 -0.3712,15.3949 4.0548,26.5184 6.5703,16.5126 15.2381,30.5789 25.7559,42.1991 3.8201,4.2194 7.7249,7.6107 11.7198,10.17386 3.9327,2.49408 7.3787,3.74447 10.3658,3.7512 2.4656,0.005 4.0999,-1.16445 4.9165,-3.50999 0.861,-2.41457 0.7122,-5.48727 -0.4608,-9.21807 -1.0426,-3.3164 -2.475,-5.6669 -4.3039,-7.0517 -0.724,-0.5539 -1.3468,-0.8659 -1.8673,-0.9361 -0.4933,-0.1391 -1.9364,-0.2113 -4.3293,-0.2164 -2.1437,0 -4.2574,-0.9411 -6.3508,-2.8097 -2.0797,-1.9375 -3.6326,-4.3571 -4.6494,-7.2589 -2.0092,-5.7345 -0.5684,-9.8049 4.3689,-12.2114 5.5136,-2.6125 12.4777,-3.9103 20.8368,-3.8934 8.941,0.018 16.7513,1.2422 23.3822,3.6727 6.2379,2.3607 9.9917,6.6155 11.3063,12.7645 0.5317,2.4873 0.3663,4.6623 -0.4881,6.5251 -0.8589,1.7936 -2.244,2.8611 -4.161,3.2022 -1.6645,0.3418 -2.6799,0.892 -3.0467,1.6509 -0.3318,0.6898 -0.4298,2.4505 -0.2897,5.282 0.5954,10.98073 -1.0654,20.16076 -4.9036,27.54006 -2.5276,5.03441 -6.0818,8.96145 -10.678,11.78113 -4.4716,2.81978 -9.6238,4.22252 -15.5165,4.20822 -9.6304,-0.0233 -19.8662,-3.53387 -30.9303,-10.5315 -11.6528,-7.13635 -22.8126,-17.1006 -33.46431,-29.89271 -9.1104,-10.6487 -16.7467,-22.1565 -22.7563,-34.5237 -6.0768,-12.5053 -9.1305,-24.3836 -8.9684,-35.6348 0.3894,-12.0797 4.7628,-21.3913 13.1147,-27.9349 7.4804,-5.7862 17.6894,-8.6682 30.46191,-8.6459 0,0 0,0 0,0 m 70.588,140.82053 36.6048,-2.38727 m -42.4403,-88.59416 7.427,22.8117 m 38.1963,-38.1963 1.8568,11.6711 m -56.7639,-32.3608 27.3209,5.0398 m 47.7454,-0.2652 44.8276,28.1167 m -14.8541,32.8912 1.5915,17.5067 m -4.7746,35.27847 -5.8355,0.79575 m 79.3103,-3.97877 5.0398,1.85676 m 40.0531,5.57029 6.366,0.26525 m 40.8488,1.59151 19.8939,0.26526 m 12.7321,-88.85942 -18.0371,2.122 m -93.8992,8.4881 -18.3024,-3.7136" />
  </g>
</svg>
