<?xml version="1.0" encoding="UTF-8" standalone="no"?>
<!-- Created with Inkscape (http://www.inkscape.org/) -->

<svg
   xmlns:dc="http://purl.org/dc/elements/1.1/"
   xmlns:cc="http://creativecommons.org/ns#"
   xmlns:rdf="http://www.w3.org/1999/02/22-rdf-syntax-ns#"
   xmlns:svg="http://www.w3.org/2000/svg"
   xmlns="http://www.w3.org/2000/svg"
   xmlns:sodipodi="http://sodipodi.sourceforge.net/DTD/sodipodi-0.dtd"
   xmlns:inkscape="http://www.inkscape.org/namespaces/inkscape"
   width="11.5in"
   height="23.5in"
   viewBox="0 0 1104 2256"
   version="1.1"
   id="svg2815"
   inkscape:version="0.92.3 (2405546, 2018-03-11)"
   sodipodi:docname="12x24 Sheet Green (Light Show) - V2 3x on 12x24 with Weed Lines Green Cuts.svg">
  <defs
     id="defs2809" />
  <sodipodi:namedview
     id="base"
     pagecolor="#ffceb6"
     bordercolor="#666666"
     borderopacity="1.0"
     inkscape:pageopacity="0"
     inkscape:pageshadow="2"
     inkscape:zoom="0.73"
     inkscape:cx="650.21575"
     inkscape:cy="1749.5665"
     inkscape:document-units="in"
     inkscape:current-layer="layer4"
     showgrid="true"
     inkscape:snap-global="false"
     showguides="true"
     units="in"
     gridtolerance="10"
     inkscape:window-width="1920"
     inkscape:window-height="1017"
     inkscape:window-x="-8"
     inkscape:window-y="-8"
     inkscape:window-maximized="1"
     inkscape:pagecheckerboard="false">
    <inkscape:grid
       type="xygrid"
       id="grid3368"
       units="in"
       spacingx="24"
       spacingy="24"
       empspacing="4" />
  </sodipodi:namedview>
  <metadata
     id="metadata2812">
    <rdf:RDF>
      <cc:Work
         rdf:about="">
        <dc:format>image/svg+xml</dc:format>
        <dc:type
           rdf:resource="http://purl.org/dc/dcmitype/StillImage" />
        <dc:title></dc:title>
      </cc:Work>
    </rdf:RDF>
  </metadata>
  <g
     inkscape:groupmode="layer"
     id="layer4"
     inkscape:label="Green Cut"
     style="display:inline">
    <g
       id="g8381"
       style="stroke:#ff0000;stroke-width:0.47999999;stroke-miterlimit:4;stroke-dasharray:none;stroke-opacity:1"
       transform="translate(-1.5476138)">
      <g
         id="g5734" />
    </g>
    <path
       id="path4838"
       style="fill:none;stroke:#ff0000;stroke-width:0.47999999;stroke-linecap:butt;stroke-linejoin:miter;stroke-miterlimit:4;stroke-dasharray:none;stroke-opacity:1"
       d="m 633.86906,1360.1667 1.38889,133.3333 113.88888,-40.2778 -2.08333,-127.7778 M 213.03572,887.94444 362.34128,853.91667 M 633.17461,137.25 V 257.38889 L 748.45239,217.11111 750.53572,98.361111 M 634.5635,740.02778 631.78572,876.83333 754.00795,840.72222 757.48017,695.58333 M 210.25795,1522.6667 328.3135,1476.8333 m -106.25,647.2223 4.86111,-80.5556 98.61111,-31.25 -3.47222,77.0833 M 3.330435,2200.7154 958.61499,1867.3821 1094.0486,1830.4749 M 0.8914106,1599.9024 212.27353,1525.1057 l 8.13008,-95.122 109.26491,-45.6131 -5.09824,94.7155 34.85772,-1.9479 264.22764,-108.1301 62.58469,-19.004 30.8435,-8.8245 34.21409,-15.2609 44.71545,-5.6911 299.24803,-99.1564 M 1.7044187,982.01626 217.15158,890.95935 225.70843,780.59016 326.55198,744.83808 320.40361,852.81572 362.68003,856 618.77759,748.68293 l 62.00881,-20.63008 42.86924,-15.0576 24.39025,-13.90582 270.73171,-69.9187 80.4878,-9.7561 M 0.0784025,359.25203 1035.0378,0.288" />
  </g>
</svg>
