<?xml version="1.0" encoding="UTF-8" standalone="no"?>
<!-- Created with Inkscape (http://www.inkscape.org/) -->

<svg
   xmlns:dc="http://purl.org/dc/elements/1.1/"
   xmlns:cc="http://creativecommons.org/ns#"
   xmlns:rdf="http://www.w3.org/1999/02/22-rdf-syntax-ns#"
   xmlns:svg="http://www.w3.org/2000/svg"
   xmlns="http://www.w3.org/2000/svg"
   xmlns:sodipodi="http://sodipodi.sourceforge.net/DTD/sodipodi-0.dtd"
   xmlns:inkscape="http://www.inkscape.org/namespaces/inkscape"
   width="12in"
   height="24in"
   viewBox="0 0 1152 2304"
   version="1.1"
   id="svg2815"
   inkscape:version="0.92.3 (2405546, 2018-03-11)"
   sodipodi:docname="12x24 Sheet Calculator - Green (Light Show) - Single w Weed Lines.svg">
  <defs
     id="defs2809" />
  <sodipodi:namedview
     id="base"
     pagecolor="#1f1f1f"
     bordercolor="#666666"
     borderopacity="1.0"
     inkscape:pageopacity="0"
     inkscape:pageshadow="2"
     inkscape:zoom="1.0802957"
     inkscape:cx="458.41896"
     inkscape:cy="1839.9547"
     inkscape:document-units="in"
     inkscape:current-layer="layer2"
     showgrid="true"
     inkscape:snap-global="false"
     showguides="true"
     units="in"
     gridtolerance="10"
     inkscape:window-width="1920"
     inkscape:window-height="1017"
     inkscape:window-x="-8"
     inkscape:window-y="-8"
     inkscape:window-maximized="1">
    <inkscape:grid
       type="xygrid"
       id="grid3368" />
  </sodipodi:namedview>
  <metadata
     id="metadata2812">
    <rdf:RDF>
      <cc:Work
         rdf:about="">
        <dc:format>image/svg+xml</dc:format>
        <dc:type
           rdf:resource="http://purl.org/dc/dcmitype/StillImage" />
        <dc:title />
      </cc:Work>
    </rdf:RDF>
  </metadata>
  <g
     inkscape:label="Layer 1"
     inkscape:groupmode="layer"
     id="layer1"
     transform="translate(0,1159.8)">
    <g
       transform="translate(-0.29917528,-1178.267)"
       id="g5860"
       style="fill:#00ff00;fill-opacity:1" />
  </g>
  <g
     inkscape:groupmode="layer"
     id="layer2"
     inkscape:label="Green - Light Show">
    <path
       transform="translate(0,1159.8)"
       id="path873"
       style="fill:none;fill-rule:evenodd;stroke:#00fe00;stroke-width:1px;stroke-linecap:butt;stroke-linejoin:miter;stroke-opacity:1"
       d="m 48.662497,-460.85805 24.130163,83.65124 m 660.36214,-261.00794 -49.869,36.59742 m 330.9854,-194.64999 89.2816,29.35836 m -168.91113,59.11891 121.85733,-41.82562 m -277.09472,95.71631 122.2595,-41.82561 m -76.81436,270.25783 143.57448,-49.86901 m -158.85691,55.09721 -134.32458,17.69545 m -229.63872,-134.72674 102.55319,-28.15186 m -267.04047,84.45557 119.04214,-41.02127 m 23.72799,234.46475 86.46642,-50.67334 M 259.80143,-231.21932 378.4414,-272.2406 m -178.96538,-164.88945 36.59741,-27.74969 m -42.62995,85.66208 -9.2499,66.76012 m -129.900712,67.96663 16.891115,-62.33626 m 143.172307,92.49896 -38.60827,-11.66291 m 129.49855,-606.47145 93.70547,-8.04338 m 212.34544,184.59575 -29.76054,-11.26075 m -287.95328,120.65082 89.2816,-57.51022 m 293.18149,-356.32208 138.34627,-47.85817 m 53.08636,-17.6954 28.15186,-9.6521 m -38.60826,295.19232 104.56404,-37.40175 m -297.20318,102.5532 139.15061,-47.85816 m -215.96497,-128.29204 -0.40217,58.31456 m 2.81519,-115.42261 33.38006,-33.78223 v 0 l -0.80434,1.60868 m -509.95079,175.74802 140.35712,-48.66249 m -36.59742,293.98582 24.53234,-8.04339 m 861.59783,-530.62793 -77.8226,26.9349 -9.2207,235.71894 -53.69752,18.58503 9.22068,-235.71897 -77.82263,26.93489 1.98694,-50.79459 209.34273,-72.4548 z m -245.85605,317.61989 -53.69752,18.58503 4.61034,-117.85949 -137.74593,47.6747 -4.61034,117.85948 -53.69762,18.58507 11.20763,-286.5136 53.69762,-18.58506 -4.61034,117.85948 137.74593,-47.67469 4.61034,-117.85951 53.69752,-18.585 z m -273.94235,73.67418 q -56.23196,44.12419 -106.03839,61.3625 -63.42544,21.95192 -104.64445,-3.71086 -41.2191,-25.66285 -38.70437,-89.94983 2.51473,-64.28697 48.14549,-121.96626 44.43228,-56.48169 107.85771,-78.43362 42.41331,-14.67949 101.32771,-9.62516 l -2.26637,57.93767 q -55.94219,-12.34638 -101.85753,3.5452 -40.07862,13.87145 -68.38761,50.68011 -28.309,36.80866 -29.90787,77.68247 -1.69201,43.25481 25.70425,59.21777 27.39616,15.96299 70.19861,1.1488 18.67744,-6.46437 46.25685,-24.62189 l 1.62992,-41.66754 -42.02416,14.54481 1.98695,-50.79463 95.72167,-33.12985 z m -288.37436,120.947 -53.69761,18.58506 11.20763,-286.51359 53.69761,-18.58507 z m -77.35441,26.77282 -168.48587,58.31398 11.207629,-286.5136 53.697511,-18.58503 -9.22068,235.71886 114.78836,-39.72893 z m 887.51407,-247.61124 -121.09328,287.36165 -15.38965,5.31431 -57.23253,-151.24203 -85.95782,200.68803 -15.38966,5.3143 -76.62994,-219.08454 47.50711,-16.405 45.94161,131.86806 75.83717,-173.92029 32.45206,-11.20624 50.9599,130.13516 71.82253,-172.53396 z m -449.24236,159.5811 c -14.16233,-0.0997 -29.92024,2.84682 -47.2754,8.83984 -36.57824,12.63108 -68.27751,35.04383 -95.0957,67.24024 -27.77096,33.19996 -43.3022,68.69505 -46.5957,106.48437 -3.27329,37.55751 6.74207,64.11703 30.04687,79.67969 22.67606,15.33012 52.19171,16.7181 88.54688,4.16406 37.02433,-12.78512 68.93639,-35.15845 95.73437,-67.12305 27.99398,-33.27698 43.64724,-68.92608 46.96094,-106.94726 3.3137,-38.02113 -6.79446,-64.776 -30.32226,-80.26172 -11.94962,-7.93868 -25.94937,-11.96321 -42,-12.07617 z m -22.82227,48.63281 c 11.03942,-0.0492 20.62703,2.82144 28.76172,8.61328 14.70501,9.98767 20.99658,27.15328 18.875,51.4961 -2.12158,24.34288 -11.89929,47.16831 -29.33203,68.47851 -17.18941,21.00134 -37.60405,35.58405 -61.2461,43.74805 -23.64205,8.16398 -42.70361,7.21509 -57.18554,-2.84961 -14.46174,-10.29651 -20.6333,-27.61611 -18.51172,-51.95899 2.12158,-24.34281 11.77733,-47.01621 28.9668,-68.01757 17.20967,-21.23324 37.63529,-35.93171 61.27734,-44.09571 10.34339,-3.57174 19.80832,-5.37579 28.39453,-5.41406 z m -208.00339,271.15917 -46.16886,15.94287 9.00155,-103.28318 -118.43316,40.89694 -9.00155,103.28317 -46.16886,15.94288 21.88256,-251.07889 46.16886,-15.94287 -9.00155,103.28317 118.43316,-40.89693 9.00155,-103.28318 46.16886,-15.94287 z m -230.74822,13.57261 q -2.72774,31.29787 -24.89355,58.51483 -21.801,26.75374 -51.91118,37.15133 -38.13947,13.1701 -68.379032,-1.00972 l 5.819182,-66.76886 q 14.483872,16.24764 25.983578,22.05797 17.036783,9.29498 36.775592,2.47884 11.37491,-3.92794 20.55836,-12.49584 10.91682,-9.84095 11.88668,-20.96906 1.4851,-17.03997 -22.39549,-25.99534 -22.29875,-8.48977 -44.962329,-16.51621 -23.426066,-14.17168 -20.910484,-43.03528 2.909591,-33.38443 26.991953,-60.25137 22.28816,-24.89821 55.07474,-36.21996 28.77194,-9.93542 55.8163,-0.0488 l -5.09178,58.42273 q -31.51945,-21.83276 -57.28037,-12.93708 -11.0404,3.81243 -19.82862,11.56916 -10.52169,9.02991 -11.46124,19.81031 -1.33357,15.30123 22.69856,22.51785 38.26896,11.40718 45.05337,15.47284 23.36535,14.86724 20.45576,48.25166 z" />
  </g>
</svg>
