<?xml version="1.0" encoding="UTF-8" standalone="no"?>
<svg
   xmlns:dc="http://purl.org/dc/elements/1.1/"
   xmlns:cc="http://creativecommons.org/ns#"
   xmlns:rdf="http://www.w3.org/1999/02/22-rdf-syntax-ns#"
   xmlns:svg="http://www.w3.org/2000/svg"
   xmlns="http://www.w3.org/2000/svg"
   id="svg2815"
   version="1.1"
   viewBox="0 0 1104 2256"
   height="23.5in"
   width="11.5in">
  <defs
     id="defs2809" />
  <metadata
     id="metadata2812">
    <rdf:RDF>
      <cc:Work
         rdf:about="">
        <dc:format>image/svg+xml</dc:format>
        <dc:type
           rdf:resource="http://purl.org/dc/dcmitype/StillImage" />
        <dc:title></dc:title>
      </cc:Work>
    </rdf:RDF>
  </metadata>
  <g
     style="display:inline"
     id="layer3">
    <g
       id="g8424">
      <path
         d="m 1033.6031,1590.8987 -30.4206,-41.2583 M 0.08267215,956.95624 137.79119,860.402 l 98.83143,12.27661 34.99002,23.9394 115.40566,-54.01709 3.68316,-5.52448 23.32668,1.22767 28.23755,-33.76069 16.57422,16.57343 47.88107,-23.9394 7.36632,19.02876 38.67317,-8.59364 38.05932,-46.65112 43.58405,6.75213 14.11878,-10.43511 35.60388,15.95959 101.28687,-73.65967 31.30687,6.75214 69.36616,-47.87878 131.366,-37.44367 76.1187,5.52448 m 0.6138,582.52524 -52.1781,-5.5245 -16.5742,33.7607 -170.03919,54.0171 -11.04949,27.0085 -70.59388,-0.6138 -281.14783,108.6479 -31.30686,1.2277 -9.2079,12.8905 -27.00984,-5.5245 -87.78196,54.6309 -31.92072,42.9681 -14.73263,-27.6223 -34.37616,32.533 -31.30685,-38.0575 -46.65336,-9.2074 -34.37615,-8.5937 -71.821604,46.0373 -72.02550385,29.4803 m 0.04689771,608.2198 924.86947014,-319.6426 108.90176,-254.5609 59.2646,0.062 M 0.08267215,349.08114 1004.6049,0.13602568 m 89.58,1273.98777432 -132.59374,21.4841 -6.13859,39.899 58.31673,56.4723 -1.2277,53.4033 -46.03956,15.9596 -15.96035,61.9969 43.20385,32.922 68.53006,-33.1938 24.4764,51.7478 M 787.59403,231.27755 l 13.57809,-21.76699 4.52602,-107.11086 110.34886,4.5258 -1.29316,105.17124 9.48311,11.6378 -13.14703,27.37038 -19.61279,40.30126 -68.10593,17.24119 -18.9662,-65.73202 z m 1.72421,623.26882 10.99178,-26.2928 9.26758,-103.44711 107.3315,1.93964 -1.29315,107.32636 9.91416,14.22398 -14.65572,19.39633 -16.16438,41.16334 -35.34612,15.086 -48.49315,-20.25836 -5.60365,-37.71509 z"
         style="fill:none;stroke:#fe0000;stroke-width:0.28799999;stroke-linecap:butt;stroke-linejoin:miter;stroke-miterlimit:4;stroke-dasharray:none;stroke-opacity:1"
         id="path8414" />
    </g>
  </g>
</svg>
