<?xml version="1.0" encoding="UTF-8" standalone="no"?>
<!-- Created with Inkscape (http://www.inkscape.org/) -->

<svg
   xmlns:dc="http://purl.org/dc/elements/1.1/"
   xmlns:cc="http://creativecommons.org/ns#"
   xmlns:rdf="http://www.w3.org/1999/02/22-rdf-syntax-ns#"
   xmlns:svg="http://www.w3.org/2000/svg"
   xmlns="http://www.w3.org/2000/svg"
   xmlns:sodipodi="http://sodipodi.sourceforge.net/DTD/sodipodi-0.dtd"
   xmlns:inkscape="http://www.inkscape.org/namespaces/inkscape"
   width="11.5in"
   height="23.5in"
   viewBox="0 0 1104 2256"
   version="1.1"
   id="svg2815"
   inkscape:version="0.92.3 (2405546, 2018-03-11)"
   sodipodi:docname="12x24 Sheet Calculator - Lt. Blue (Musical) Single.svg">
  <defs
     id="defs2809" />
  <sodipodi:namedview
     id="base"
     pagecolor="#1f1f1f"
     bordercolor="#666666"
     borderopacity="1.0"
     inkscape:pageopacity="0"
     inkscape:pageshadow="2"
     inkscape:zoom="1.3043478"
     inkscape:cx="552"
     inkscape:cy="2077.9433"
     inkscape:document-units="in"
     inkscape:current-layer="layer1"
     showgrid="true"
     inkscape:snap-global="false"
     showguides="true"
     units="in"
     gridtolerance="10"
     inkscape:window-width="1920"
     inkscape:window-height="1017"
     inkscape:window-x="-8"
     inkscape:window-y="-8"
     inkscape:window-maximized="1"
     inkscape:guide-bbox="true"
     scale-x="96">
    <inkscape:grid
       type="xygrid"
       id="grid3368"
       units="in"
       spacingx="24"
       spacingy="24"
       empspacing="4" />
    <sodipodi:guide
       position="-358.88172,1152.9684"
       orientation="0,1"
       id="guide1164"
       inkscape:locked="false" />
  </sodipodi:namedview>
  <metadata
     id="metadata2812">
    <rdf:RDF>
      <cc:Work
         rdf:about="">
        <dc:format>image/svg+xml</dc:format>
        <dc:type
           rdf:resource="http://purl.org/dc/dcmitype/StillImage" />
        <dc:title></dc:title>
      </cc:Work>
    </rdf:RDF>
  </metadata>
  <g
     inkscape:label="Layer 1"
     inkscape:groupmode="layer"
     id="layer1"
     transform="translate(0,1111.8)">
    <g
       id="g1300"
       transform="translate(-26.833333,15.333333)">
      <g
         id="text1020"
         style="font-style:normal;font-variant:normal;font-weight:normal;font-stretch:normal;font-size:166.48989868px;line-height:125%;font-family:'Melody MakerNotes Only';-inkscape-font-specification:'Melody MakerNotes Only';font-variant-ligatures:normal;font-variant-caps:normal;font-variant-numeric:normal;font-feature-settings:normal;text-align:start;letter-spacing:0px;word-spacing:0px;writing-mode:lr-tb;text-anchor:start;fill:#01bfff;fill-opacity:1;stroke:none;stroke-width:1.73426986px;stroke-linecap:butt;stroke-linejoin:miter;stroke-opacity:1"
         transform="matrix(1.0915314,-0.27947075,-0.24172882,0.97803521,-1293.6768,-1016.7627)"
         aria-label="Musical" />
      <g
         id="text1901-98"
         style="font-style:normal;font-variant:normal;font-weight:normal;font-stretch:normal;font-size:119.42910767px;line-height:125%;font-family:'Melody MakerNotes Only';-inkscape-font-specification:'Melody MakerNotes Only';font-variant-ligatures:normal;font-variant-caps:normal;font-variant-numeric:normal;font-feature-settings:normal;text-align:start;letter-spacing:0px;word-spacing:0px;writing-mode:lr-tb;text-anchor:start;fill:#01bfff;fill-opacity:1;stroke:none;stroke-width:1.24405313px;stroke-linecap:butt;stroke-linejoin:miter;stroke-opacity:1"
         transform="matrix(0.98145954,0,0,1.0188907,-1570.1963,-869.71573)"
         aria-label="&gt;" />
      <g
         id="text1901-2"
         style="font-style:normal;font-variant:normal;font-weight:normal;font-stretch:normal;font-size:119.42910767px;line-height:125%;font-family:'Melody MakerNotes Only';-inkscape-font-specification:'Melody MakerNotes Only';font-variant-ligatures:normal;font-variant-caps:normal;font-variant-numeric:normal;font-feature-settings:normal;text-align:start;letter-spacing:0px;word-spacing:0px;writing-mode:lr-tb;text-anchor:start;fill:#01bfff;fill-opacity:1;stroke:none;stroke-width:1.24405313px;stroke-linecap:butt;stroke-linejoin:miter;stroke-opacity:1"
         transform="matrix(0.98145954,0,0,1.0188907,-1570.1963,-1004.3409)"
         aria-label="&gt;" />
      <g
         id="text1901-8"
         style="font-style:normal;font-variant:normal;font-weight:normal;font-stretch:normal;font-size:119.42910767px;line-height:125%;font-family:'Melody MakerNotes Only';-inkscape-font-specification:'Melody MakerNotes Only';font-variant-ligatures:normal;font-variant-caps:normal;font-variant-numeric:normal;font-feature-settings:normal;text-align:start;letter-spacing:0px;word-spacing:0px;writing-mode:lr-tb;text-anchor:start;fill:#01bfff;fill-opacity:1;stroke:none;stroke-width:1.24405313px;stroke-linecap:butt;stroke-linejoin:miter;stroke-opacity:1"
         transform="matrix(0.98145954,0,0,1.0188907,-1294.2958,-1001.7268)"
         aria-label="&gt;" />
      <g
         id="text1901-71"
         style="font-style:normal;font-variant:normal;font-weight:normal;font-stretch:normal;font-size:119.42910767px;line-height:125%;font-family:'Melody MakerNotes Only';-inkscape-font-specification:'Melody MakerNotes Only';font-variant-ligatures:normal;font-variant-caps:normal;font-variant-numeric:normal;font-feature-settings:normal;text-align:start;letter-spacing:0px;word-spacing:0px;writing-mode:lr-tb;text-anchor:start;fill:#01bfff;fill-opacity:1;stroke:none;stroke-width:1.24405313px;stroke-linecap:butt;stroke-linejoin:miter;stroke-opacity:1"
         transform="matrix(0.98145954,0,0,1.0188907,-1432.8421,-999.11277)"
         aria-label="&gt;" />
      <g
         id="text1901-14"
         style="font-style:normal;font-variant:normal;font-weight:normal;font-stretch:normal;font-size:119.42910767px;line-height:125%;font-family:'Melody MakerNotes Only';-inkscape-font-specification:'Melody MakerNotes Only';font-variant-ligatures:normal;font-variant-caps:normal;font-variant-numeric:normal;font-feature-settings:normal;text-align:start;letter-spacing:0px;word-spacing:0px;writing-mode:lr-tb;text-anchor:start;fill:#01bfff;fill-opacity:1;stroke:none;stroke-width:1.24405313px;stroke-linecap:butt;stroke-linejoin:miter;stroke-opacity:1"
         transform="matrix(0,0.98145954,-1.0188907,0,429.78231,-2717.124)"
         aria-label="&gt;" />
      <g
         id="text1901-78"
         style="font-style:normal;font-variant:normal;font-weight:normal;font-stretch:normal;font-size:119.42910767px;line-height:125%;font-family:'Melody MakerNotes Only';-inkscape-font-specification:'Melody MakerNotes Only';font-variant-ligatures:normal;font-variant-caps:normal;font-variant-numeric:normal;font-feature-settings:normal;text-align:start;letter-spacing:0px;word-spacing:0px;writing-mode:lr-tb;text-anchor:start;fill:#01bfff;fill-opacity:1;stroke:none;stroke-width:1.24405313px;stroke-linecap:butt;stroke-linejoin:miter;stroke-opacity:1"
         transform="matrix(0,0.98145954,-1.0188907,0,334.36827,-2704.0534)"
         aria-label="&gt;" />
      <g
         id="text1916-9-0-0"
         style="font-style:normal;font-variant:normal;font-weight:normal;font-stretch:normal;font-size:129.04263306px;line-height:125%;font-family:'Melody MakerNotes Only';-inkscape-font-specification:'Melody MakerNotes Only';font-variant-ligatures:normal;font-variant-caps:normal;font-variant-numeric:normal;font-feature-settings:normal;text-align:start;letter-spacing:0px;word-spacing:0px;writing-mode:lr-tb;text-anchor:start;fill:#01bfff;fill-opacity:1;stroke:none;stroke-width:1.34419405px;stroke-linecap:butt;stroke-linejoin:miter;stroke-opacity:1"
         transform="matrix(1.0769959,0,0,0.9285086,-1764.9748,-1018.2631)"
         aria-label="~" />
      <g
         id="text1916-9-0-94"
         style="font-style:normal;font-variant:normal;font-weight:normal;font-stretch:normal;font-size:129.04263306px;line-height:125%;font-family:'Melody MakerNotes Only';-inkscape-font-specification:'Melody MakerNotes Only';font-variant-ligatures:normal;font-variant-caps:normal;font-variant-numeric:normal;font-feature-settings:normal;text-align:start;letter-spacing:0px;word-spacing:0px;writing-mode:lr-tb;text-anchor:start;fill:#01bfff;fill-opacity:1;stroke:none;stroke-width:1.34419405px;stroke-linecap:butt;stroke-linejoin:miter;stroke-opacity:1"
         transform="matrix(1.0769959,0,0,0.9285086,-1912.6704,-1020.8772)"
         aria-label="~">
        <path
           id="path1936-5-2-01"
           style="fill:#01bfff;fill-opacity:1;stroke-width:1.34419405px"
           d="m 1917.1391,-57.279814 -0.3871,58.3272706 q 0,7.6135153 -7.6135,12.7752204 -6.8393,4.645535 -14.7109,4.645535 -4.3874,0 -7.7425,-2.580853 -3.7423,-2.709895 -3.7423,-6.9683018 0,-7.6135154 7.6135,-13.5494765 6.9683,-5.4197907 14.8399,-5.4197907 3.4842,0 6.065,1.0323412 V -58.183112 l -45.9391,11.484794 -0.3872,60.650038 q 0,7.613515 -7.6135,12.775221 -6.8392,4.645534 -14.7108,4.645534 -4.3875,0 -7.7426,-2.580852 -3.7422,-2.709896 -3.7422,-6.968303 0,-7.613515 7.6135,-13.549476 6.9683,-5.4197906 14.8399,-5.4197906 3.4841,0 6.065,1.0323411 V -60.763965 l 57.1659,-14.323732 q 0.129,17.807883 0.129,17.807883 z m 137.1366,2.815375 -0.3871,58.3272707 q 0,7.6135153 -7.6135,12.7752203 -6.8393,4.645535 -14.7109,4.645535 -4.3874,0 -7.7425,-2.580853 -3.7423,-2.709895 -3.7423,-6.968302 0,-7.6135151 7.6135,-13.5494762 6.9683,-5.4197907 14.8399,-5.4197907 3.4842,0 6.065,1.0323412 V -55.367737 l -45.9391,11.484794 -0.3872,60.650038 q 0,7.613515 -7.6135,12.775221 -6.8392,4.645534 -14.7108,4.645534 -4.3875,0 -7.7426,-2.580852 -3.7422,-2.709896 -3.7422,-6.968303 0,-7.613515 7.6135,-13.549476 6.9683,-5.4197905 14.8399,-5.4197905 3.4841,0 6.065,1.0323411 V -57.94859 l 57.1659,-14.323732 q 0.129,17.807883 0.129,17.807883 z m 106.1461,16.950009 q -8.022,0 -19.6595,-7.826869 v -4.923319 q 7.231,3.660911 9.7167,4.670795 5.4233,2.019875 10.5077,2.019875 4.0675,0 8.5869,-4.670901 4.5195,-4.544586 5.5363,-9.089278 h -49.3748 q -0.2259,-0.252418 -0.3389,-0.252418 -6.5532,0 -11.1856,-7.448136 -4.0675,-6.690775 -4.0675,-14.391435 0,-4.292062 2.1467,-7.574346 2.4857,-3.66091 6.2143,-3.66091 6.6661,0 11.7505,7.448136 4.8584,6.943194 4.8584,14.517539 0,3.534701 -0.9039,5.933309 h 61.1253 l 1.2428,5.175843 q -6.4402,0.757466 -12.7674,6.059519 -5.3103,4.6709 -10.5076,9.215486 -6.2143,4.79711 -12.8804,4.79711 z m 88.5927,-14.076983 q -8.022,0 -19.6595,-7.826869 v -4.923319 q 7.2311,3.66091 9.7168,4.670795 5.4233,2.019875 10.5077,2.019875 4.0675,0 8.5869,-4.670901 4.5194,-4.544586 5.5363,-9.089278 h -49.3748 q -0.226,-0.252418 -0.3389,-0.252418 -6.5532,0 -11.1856,-7.448136 -4.0675,-6.690776 -4.0675,-14.391436 0,-4.292062 2.1467,-7.57434 2.4857,-3.66092 6.2142,-3.66092 6.6662,0 11.7505,7.448141 4.8584,6.943193 4.8584,14.517539 0,3.534701 -0.9039,5.933309 h 61.1253 l 1.2429,5.175843 q -6.4402,0.757466 -12.7674,6.059518 -5.3103,4.670901 -10.5077,9.215487 -6.2142,4.79711 -12.8804,4.79711 z m -272.9884,-10.833746 q 0,9.304868 -6.7477,22.803479 h -4.2446 q 3.1562,-8.387487 4.0268,-11.270685 1.7414,-6.290614 1.7414,-12.188066 0,-4.717961 -4.0269,-9.96014 -3.918,-5.242179 -7.8361,-6.42167 v 57.270806 q -0.2176,0.26211 -0.2176,0.393164 0,7.601159 -6.4213,12.9743922 -5.7683,4.7179612 -12.4072,4.7179612 -3.7003,0 -6.5301,-2.4900349 -3.1562,-2.8831981 -3.1562,-7.2079965 0,-7.732213 6.4213,-13.629665 5.9859,-5.635342 12.516,-5.635342 3.0473,0 5.1152,1.048435 v -70.900469 l 4.4623,-1.4416 q 0.653,7.470107 5.2241,14.809157 4.0269,6.159558 7.9449,12.188064 4.1357,7.207996 4.1357,14.94021 z m 128.6415,-2.8153 q 0,9.304868 -6.7478,22.803479 h -4.2445 q 3.1561,-8.387486 4.0268,-11.270684 1.7414,-6.290615 1.7414,-12.188067 0,-4.717961 -4.0269,-9.960139 -3.9181,-5.24218 -7.8362,-6.421671 v 57.270806 q -0.2176,0.26211 -0.2176,0.393164 0,7.601159 -6.4212,12.974392 -5.7683,4.7179617 -12.4073,4.7179617 -3.7003,0 -6.53,-2.4900349 -3.1562,-2.8831978 -3.1562,-7.2079958 0,-7.732214 6.4212,-13.629666 5.9859,-5.635341 12.516,-5.635341 3.0474,0 5.1153,1.048434 v -70.900469 l 4.4622,-1.4416 q 0.6531,7.470107 5.2241,14.809157 4.0269,6.159558 7.9449,12.188064 4.1358,7.207997 4.1358,14.94021 z m -256.176,-2.815375 q 0,9.304868 -6.7478,22.803479 h -4.2445 q 3.1561,-8.387486 4.0268,-11.270684 1.7414,-6.290615 1.7414,-12.188067 0,-4.717961 -4.0269,-9.96014 -3.9181,-5.242179 -7.8362,-6.42167 v 57.270806 q -0.2176,0.26211 -0.2176,0.393164 0,7.601159 -6.4212,12.974392 -5.7683,4.7179616 -12.4073,4.7179616 -3.7003,0 -6.53,-2.4900346 -3.1562,-2.883198 -3.1562,-7.207997 0,-7.732213 6.4212,-13.629665 5.9859,-5.635341 12.516,-5.635341 3.0474,0 5.1153,1.048434 v -70.900474 l 4.4622,-1.44159 q 0.6531,7.4701 5.2241,14.809152 4.0269,6.159558 7.9449,12.188064 4.1358,7.207997 4.1358,14.94021 z m 0,144.990763 q 0,9.304868 -6.7478,22.803479 h -4.2445 q 3.1561,-8.387487 4.0268,-11.270685 1.7414,-6.290614 1.7414,-12.188066 0,-4.717961 -4.0269,-9.96014 -3.9181,-5.24218 -7.8362,-6.42167 v 57.270803 q -0.2176,0.26211 -0.2176,0.39317 0,7.60116 -6.4212,12.97439 -5.7683,4.71796 -12.4073,4.71796 -3.7003,0 -6.53,-2.49003 -3.1562,-2.8832 -3.1562,-7.208 0,-7.73221 6.4212,-13.62967 5.9859,-5.63534 12.516,-5.63534 3.0474,0 5.1153,1.04844 V 36.439097 l 4.4622,-1.441599 q 0.6531,7.470106 5.2241,14.809157 4.0269,6.159558 7.9449,12.188064 4.1358,7.207996 4.1358,14.94021 z M 2319.088,-3.2368424 q -1.7563,8.2424168 -11.0514,16.2596174 -8.1706,7.190411 -16.4388,9.645908 -4.5559,1.353005 -7.6328,-0.525832 -3.1143,-1.703498 -2.1053,-6.438493 l 24.7003,-115.919878 21.331,-12.57724 -21.8231,102.416346 q 1.9309,-0.901972 3.6183,-1.403088 11.9802,-3.557899 9.4018,8.5426596 z m -52.2182,26.6783384 -21.537,12.802734 1.9238,-9.770627 q -6.6508,8.217535 -14.5406,14.83175 -9.2204,7.666469 -16.3074,9.771164 -13.3302,3.958816 -10.5649,-9.018606 4.9326,-23.148894 47.4257,-48.2532663 l 2.6158,-12.2759397 q 1.9805,-9.29463 -4.6003,-7.340279 -6.0745,1.804007 -13.2507,9.520488 0.1879,0.601283 2.0838,2.830893 1.3136,1.252589 0.7905,3.7077774 -0.9342,4.3842642 -6.499,10.47226422 -5.3962,6.03792598 -9.7833,7.34081648 -8.2681,2.4554669 -6.5492,-5.6115685 2.5037,-11.7498282 19.2017,-25.5795316 14.7864,-12.276374 26.9354,-15.884418 17.0425,-5.061279 13.5299,11.423545 z M 2252.3364,-0.33299575 Q 2231.9046,10.991571 2229.102,24.144353 q -2.0926,9.820752 4.4881,7.866401 12.6552,-3.758357 17.6999,-27.4333738 z M 2202.9086,11.881999 q -5.089,14.981722 -17.4746,27.859287 -12.3482,12.702153 -26.1846,16.811313 -11.1366,3.307356 -15.1933,-4.358607 -3.5119,-6.513582 -0.8962,-18.789512 3.5874,-16.835564 19.6999,-36.0766659 16.8054,-20.2682691 32.6666,-24.9787441 15.1864,-4.510048 12.1595,9.694958 -1.42,6.664082 -8.8035,13.1279421 -6.5966,5.73733075 -13.3461,7.7417962 -3.7121,1.1024319 -6.2637,-0.275352 -2.514,-1.5531845 -1.7293,-5.2359559 1.831,-8.5931584 12.6075,-16.8860304 -7.4052,2.856292 -13.2508,9.520529 -5.677,6.6141523 -7.3212,14.3304469 l -6.5395,30.6898391 q -2.8773,13.503523 3.366,11.649372 9.2805,-2.756125 18.2925,-13.153351 8.1128,-9.144534 12.4738,-19.967487 0.9931,-0.952026 2.343,-1.352913 1.8561,-0.551231 3.394,-0.350865 z m -53.3339,-30.650054 q -1.3827,6.488712 -8.7662,12.9525825 -6.5965,5.73729016 -13.1772,7.691641 -3.7123,1.102462 -6.2637,-0.275352 -2.3828,-1.42788798 -1.5981,-5.1106699 1.42,-6.6640816 8.5409,-13.3784946 7.1208,-6.714372 13.7015,-8.668723 9.618,-2.856354 7.5628,6.789016 z m -26.0157,88.712647 -21.3309,12.577249 13.2283,-62.08115 21.331,-12.5772383 z m -27.1525,-20.683965 q -3.1389,14.731117 -19.9117,28.911602 -14.7864,12.276364 -29.804,16.736297 -6.2433,1.854121 -10.0699,0.526453 -4.5208,-1.778577 -3.2129,-7.916536 1.4573,-6.839452 8.5034,-13.203094 6.2591,-5.637091 13.1773,-7.691671 4.0496,-1.202661 6.2263,0.450722 2.3454,1.603289 1.4485,5.812183 -1.3452,6.31334 -6.9667,11.925354 l 3.3374,-0.826863 q 7.0495,-1.929304 14.6766,-8.79405 7.6644,-7.040098 9.1965,-14.230291 1.3079,-6.13796 -10.6724,-2.58003 -2.3624,0.701575 -6.1493,2.154778 -3.5808,1.227688 -4.2558,1.428146 -10.2929,3.056813 -14.4763,1.178007 -5.0089,-2.455002 -2.8416,-12.626484 3.0642,-14.380377 18.0748,-27.708974 13.4365,-11.875477 27.7791,-16.134951 13.6677,-4.0590455 11.6872,5.235584 -1.42,6.664082 -9.0096,13.353438 -6.84,6.138146 -13.4208,8.092527 -3.7122,1.102432 -6.2637,-0.275352 -2.5141,-1.553174 -1.7294,-5.235956 0.8969,-4.208894 3.0881,-7.816566 -5.5671,3.131769 -10.4015,8.017242 -5.4527,5.561899 -6.5364,10.647635 -1.42,6.664082 10.729,3.056068 2.5311,-0.75169 6.6181,-2.129721 4.1245,-1.553433 5.1368,-1.854091 9.7869,-2.906499 13.5954,-0.752092 4.5401,2.429944 2.4475,12.250686 z M 2028.299,83.12189 q -1.7563,8.242416 -10.8827,16.209502 -8.1707,7.190438 -16.4388,9.645908 -9.1117,2.70601 -9.6238,-4.5342 -0.2458,-2.55535 2.4821,-15.357402 -6.8558,9.921137 -16.4884,18.038572 -10.3823,8.6686 -19.3254,11.32453 -12.6552,3.75836 -9.0679,-13.07721 l 10.9489,-51.383542 21.4238,-13.754718 -12.0326,56.469282 q -0.5605,2.630558 0.529,4.935368 1.0895,2.30482 3.4518,1.60324 0.5062,-0.15031 1.7621,-0.85186 11.7719,-6.288652 18.4736,-21.420749 3.4629,-8.092166 6.9755,-24.576989 1.4755,-7.66618 3.1197,-15.382485 l 21.4238,-13.754717 -10.4631,49.103728 q 2.3057,-1.177572 4.3304,-1.778888 11.9804,-3.557929 9.402,8.54263 z m -103.2461,61.05256 q -2.1673,10.17149 -13.6549,20.31826 -10.2883,8.96926 -20.5813,12.02607 -5.737,1.70378 -9.4142,-0.32534 -4.0713,-2.40492 -2.8382,-8.19213 1.8311,-8.59316 10.4502,-17.88804 7.5885,-8.16746 16.7546,-13.35372 l 21.113,-99.084306 -46.4801,106.125026 -6.1482,3.63288 -8.0838,-73.32903 -16.7228,77.73922 q -2.1674,10.1715 -13.655,20.31826 -10.2882,8.96924 -20.5812,12.02605 -5.7371,1.70381 -9.4142,-0.32534 -4.0713,-2.40492 -2.8381,-8.19214 2.2047,-10.34686 13.8418,-21.19511 10.8873,-10.29706 21.0115,-13.30376 4.0497,-1.20269 7.1629,-0.97733 l 17.7873,-83.476334 24.7611,-14.581591 7.2805,53.362054 34.3316,-78.040512 26.2231,-15.508589 z"
           inkscape:connector-curvature="0" />
      </g>
    </g>
  </g>
</svg>
