<?xml version="1.0" encoding="UTF-8" standalone="no"?>
<!-- Created with Inkscape (http://www.inkscape.org/) -->

<svg
   xmlns:dc="http://purl.org/dc/elements/1.1/"
   xmlns:cc="http://creativecommons.org/ns#"
   xmlns:rdf="http://www.w3.org/1999/02/22-rdf-syntax-ns#"
   xmlns:svg="http://www.w3.org/2000/svg"
   xmlns="http://www.w3.org/2000/svg"
   xmlns:sodipodi="http://sodipodi.sourceforge.net/DTD/sodipodi-0.dtd"
   xmlns:inkscape="http://www.inkscape.org/namespaces/inkscape"
   width="11.5in"
   height="11.5in"
   viewBox="0 0 1104 1104"
   version="1.1"
   id="svg2815"
   inkscape:version="0.92.3 (2405546, 2018-03-11)"
   sodipodi:docname="12x24 Sheet Calculator - Orange (Right Here) - Single w Weed Lines.svg">
  <defs
     id="defs2809" />
  <sodipodi:namedview
     id="base"
     pagecolor="#1f1f1f"
     bordercolor="#666666"
     borderopacity="1.0"
     inkscape:pageopacity="0"
     inkscape:pageshadow="2"
     inkscape:zoom="1.15"
     inkscape:cx="571.18699"
     inkscape:cy="2104.4274"
     inkscape:document-units="in"
     inkscape:current-layer="layer1"
     showgrid="true"
     inkscape:snap-global="false"
     showguides="true"
     units="in"
     gridtolerance="10"
     inkscape:window-width="1920"
     inkscape:window-height="1017"
     inkscape:window-x="-8"
     inkscape:window-y="-8"
     inkscape:window-maximized="1"
     inkscape:guide-bbox="true">
    <inkscape:grid
       type="xygrid"
       id="grid3368"
       units="in"
       spacingx="24"
       spacingy="24"
       empspacing="4" />
    <sodipodi:guide
       position="-820.06909,1154.5923"
       orientation="0,1"
       id="guide9322"
       inkscape:locked="false" />
  </sodipodi:namedview>
  <metadata
     id="metadata2812">
    <rdf:RDF>
      <cc:Work
         rdf:about="">
        <dc:format>image/svg+xml</dc:format>
        <dc:type
           rdf:resource="http://purl.org/dc/dcmitype/StillImage" />
        <dc:title></dc:title>
      </cc:Work>
    </rdf:RDF>
  </metadata>
  <g
     inkscape:label="Layer 1"
     inkscape:groupmode="layer"
     id="layer1"
     transform="translate(0,-40.2)"
     style="display:inline">
    <g
       id="text7444"
       style="font-style:normal;font-variant:normal;font-weight:normal;font-stretch:normal;font-size:201.57617188px;line-height:125%;font-family:Saloon;-inkscape-font-specification:Saloon;font-variant-ligatures:normal;font-variant-caps:normal;font-variant-numeric:normal;font-feature-settings:normal;text-align:start;letter-spacing:0px;word-spacing:0px;writing-mode:lr-tb;text-anchor:start;fill:none;fill-opacity:1;stroke:#ff3f00;stroke-width:0.38745239;stroke-linecap:butt;stroke-linejoin:miter;stroke-miterlimit:4;stroke-dasharray:none;stroke-opacity:0.69803922"
       transform="matrix(0.82603084,0,-0.3042733,1.1891305,-13.697931,-3222.2309)"
       aria-label="Right Here!">
      <g
         id="g7478"
         style="fill:none;stroke:#ff3f00;stroke-width:0.38745239;stroke-miterlimit:4;stroke-dasharray:none;stroke-opacity:0.69803922" />
    </g>
    <path
       id="rect856"
       style="display:inline;fill:none;fill-opacity:1;stroke:#ff3f00;stroke-width:0.384;stroke-miterlimit:4;stroke-dasharray:none;stroke-opacity:0.69803922"
       d="M 32.475594,-1125.9441 H 1117.6043 v 191.78994 H 32.475594 Z m 58.420565,191.48123 -17.069701,-0.42675 m 83.926032,0.42675 -25.7468,0.14224 m 555.90327,0 h -25.4623 m 169.41678,-47.51066 -8.6771,-30.72551 m 206.82786,30.58326 -8.8193,-30.44096 m 50.0711,17.06969 5.6899,25.60455 m -22.1906,-108.53484 -24.7511,30.5832 m -173.39969,-30.7255 -24.03983,30.5833 m -489.75818,-30.2988 -9.24609,36.5577 m 737.46799,47.44904 12.0456,-95.88024 9.2001,-35.955 h 24.9762 l -9.2001,35.955 z m 6.3547,23.97001 -9.2002,35.95503 h -24.9762 l 9.2002,-35.95503 z m -10.1503,-155.80525 -12.2668,47.9401 h -8.3254 q -0.6749,-1.9176 -2.5855,-5.5132 -1.7441,-3.5955 -4.4785,-5.2733 -1.0428,-0.4795 -2.6466,-0.7192 -1.6037,-0.2396 -3.8735,-0.4794 h -16.6508 q -5.1618,0 -10.4987,2.6367 -5.1704,2.6368 -9.21881,9.3484 l -7.66678,29.9625 q -0.18399,0.719 0.28046,2.1573 0.46454,1.4383 1.20082,3.1161 0.7362,1.6779 1.36727,3.1161 0.79754,1.4382 1.17436,1.9176 h 22.47858 q 2.3312,0 4.1012,-4.3146 1.9365,-4.3147 2.6989,-5.9925 h 8.3254 l -9.2001,35.955 h -8.3254 q 0.4907,-1.9176 0.2451,-5.513 -0.079,-3.5956 -1.7705,-4.794 h -22.47858 q -1.57739,0.9588 -5.05632,4.794 -3.47902,3.8351 -4.24132,5.513 l -7.6668,29.96264 q -0.24534,0.9588 1.13942,3.35573 1.38474,2.39705 1.91062,3.59557 1.77904,2.15732 4.30304,3.35573 2.52396,1.19852 6.23101,1.67798 h 16.65083 q 11.156,0 19.7175,-11.98501 h 8.3254 l -12.2669,47.94004 h -54.11506 q -3.36535,-3.11612 -4.04912,-6.9513 -0.45591,-4.07491 0.32378,-11.02622 -2.15559,6.47185 -4.8633,10.54676 -2.7078,4.07491 -8.06216,7.43076 h -12.48818 l 9.20013,-35.95503 q 3.6632,0 6.46754,-1.19852 2.97079,-1.19853 6.53744,-4.07491 2.1557,-1.9176 3.46147,-3.11612 1.53354,-1.43825 3.25114,-3.59546 l 7.6668,-29.96264 q 0.36799,-1.4381 -0.41214,-3.5955 -0.61351,-2.1573 -1.9544,-4.0749 -1.27963,-2.1573 -2.84839,-3.8351 -1.50741,-1.9176 -2.76066,-2.8764 -3.59322,-2.8764 -3.36535,-3.1162 0.28921,-0.4794 5.31057,-3.8351 4.44308,-2.3971 7.92201,-6.2323 3.54027,-4.0749 7.30849,-8.3895 l 7.66678,-29.9625 q 0.55201,-2.1574 -0.78896,-4.075 -1.27955,-2.1573 -3.57567,-3.5954 -2.06831,-1.678 -4.59228,-2.8765 -2.52399,-1.1984 -4.62727,-1.4382 l 9.20013,-35.955 h 12.65463 q 3.80363,3.3557 3.97033,7.9101 0.3332,4.5543 -0.5341,10.5468 2.2782,-6.9513 4.9247,-10.7865 2.7077,-4.0749 8.1234,-7.6704 z m -136.45854,0 q 11.32257,0 17.18598,12.2246 5.75816,11.9852 -0.31392,35.7155 -7.54412,29.4831 -15.18556,37.8726 -7.51878,7.9101 -13.73208,10.0674 3.14612,0.7192 8.33448,6.472 5.20574,5.0337 -2.41719,35.47564 -1.59467,6.23211 -0.017,9.82769 1.63893,3.35572 4.60988,6.71157 0.81509,0.71907 3.06734,1.67786 2.48018,0.71919 4.39054,-0.23961 l -9.20013,35.95503 h -12.4881 q -3.36535,-3.11612 -4.04912,-6.9513 -0.45582,-4.07491 0.32379,-11.02622 -2.15551,6.47185 -4.86331,10.54676 -2.70771,4.07491 -8.06215,7.43076 h -12.4881 l 9.20012,-35.95503 q 8.22905,1.67787 13.96015,-5.75289 5.89751,-7.43064 8.65755,-18.21712 2.76006,-10.78664 0.39352,-18.45694 -2.13868,-7.9101 -8.80779,-9.8277 h -27.47387 q -1.5774,0.9588 -5.05641,4.794 -3.47893,3.8351 -4.24131,5.513 l -7.66681,29.96264 q -0.24533,0.9588 1.13951,3.35573 1.38473,2.39705 1.91061,3.59557 1.77905,2.15732 4.30305,3.35573 2.52396,1.19852 6.23101,1.67798 l -9.20013,35.95503 h -12.4881 q -3.36544,-3.11612 -4.04913,-6.9513 -0.4559,-4.07491 0.32371,-11.02622 -2.15551,6.47185 -4.86322,10.54676 -2.7078,4.07491 -8.06224,7.43076 h -12.4881 l 9.20012,-35.95503 q 3.6632,0 6.46747,-1.19852 2.97087,-1.19853 6.53752,-4.07491 2.1557,-1.9176 3.46146,-3.11612 1.53355,-1.43825 3.25106,-3.59546 l 7.66681,-29.96264 q 0.36799,-1.4381 -0.41206,-3.5955 -0.61351,-2.1573 -1.9544,-4.0749 -1.27963,-2.1573 -2.84839,-3.8351 -1.50741,-1.9176 -2.76066,-2.8764 -3.59322,-2.8764 -3.36535,-3.1162 0.28921,-0.4794 5.31057,-3.8351 4.443,-2.3971 7.92201,-6.2323 3.54027,-4.0749 7.30841,-8.3895 l 7.66677,-29.9625 q 0.55201,-2.1574 -0.78887,-4.075 -1.27955,-2.1573 -3.57576,-3.5954 -2.06822,-1.678 -4.59219,-2.8765 -2.524,-1.1984 -4.62727,-1.4382 l 9.20013,-35.955 h 12.4881 q 3.26025,2.8764 3.8826,6.9513 0.62243,4.0749 -0.15726,11.0262 3.71527,-11.2659 8.57021,-14.6218 4.85483,-3.3557 11.68165,-3.3557 1.83156,0 4.1627,0 2.49767,0 5.38957,-0.2397 h 5.99434 q 1.99809,0 2.10327,0.2397 z m -17.57574,88.2097 q 3.16362,0 11.14697,-6.4719 7.58893,-6.2322 11.90872,-21.8127 2.76004,-10.7865 1.32263,-15.5806 -1.20965,-5.0337 -7.67731,-8.3895 h -20.8135 q -4.66228,0 -10.39354,2.8764 -5.56474,2.8764 -9.32405,9.1087 l -7.66677,29.9625 q -0.184,0.719 0.28054,2.1573 0.46454,1.4383 1.20074,3.1161 0.73628,1.6779 1.36726,3.1161 0.79763,1.4382 1.17445,1.9176 z m -44.01931,-88.2097 -12.26684,47.9401 h -8.3254 q -0.67486,-1.9176 -2.58547,-5.5132 -1.74411,-3.5955 -4.47848,-5.2733 -1.04285,-0.4795 -2.64662,-0.7192 -1.60372,-0.2396 -3.87352,-0.4794 h -16.6508 q -5.16178,0 -10.49865,2.6367 -5.17037,2.6368 -9.21886,9.3484 l -7.66677,29.9625 q -0.184,0.719 0.28054,2.1573 0.46446,1.4383 1.20074,3.1161 0.7362,1.6779 1.36726,3.1161 0.79755,1.4382 1.17436,1.9176 h 22.47862 q 2.33114,0 4.10119,-4.3146 1.93658,-4.3147 2.69889,-5.9925 h 8.32539 l -9.20012,35.955 h -8.3254 q 0.49067,-1.9176 0.24514,-5.513 -0.079,-3.5956 -1.77049,-4.794 H 791.0753 q -1.57739,0.9588 -5.05632,4.794 -3.47901,3.8351 -4.24131,5.513 l -7.66681,29.96264 q -0.24533,0.9588 1.13943,3.35573 1.38473,2.39705 1.91061,3.59557 1.77913,2.15732 4.30313,3.35573 2.52396,1.19852 6.23092,1.67798 h 16.6508 q 11.15604,0 19.71751,-11.98501 h 8.3254 l -12.26684,47.94004 h -54.1151 q -3.36535,-3.11612 -4.04912,-6.9513 -0.4559,-4.07491 0.32379,-11.02622 -2.15551,6.47185 -4.86331,10.54676 -2.70779,4.07491 -8.06216,7.43076 h -12.4881 l 9.20013,-35.95503 q 3.66312,0 6.46747,-1.19852 2.97079,-1.19853 6.53744,-4.07491 2.15578,-1.9176 3.46146,-3.11612 1.53355,-1.43825 3.25114,-3.59546 l 7.66681,-29.96264 q 0.36799,-1.4381 -0.41206,-3.5955 -0.6136,-2.1573 -1.95449,-4.0749 -1.27954,-2.1573 -2.84838,-3.8351 -1.50741,-1.9176 -2.76066,-2.8764 -3.59314,-2.8764 -3.36536,-3.1162 0.28921,-0.4794 5.31057,-3.8351 4.44308,-2.3971 7.92201,-6.2323 3.54036,-4.0749 7.3085,-8.3895 l 7.66677,-29.9625 q 0.55201,-2.1574 -0.78896,-4.075 -1.27954,-2.1573 -3.57567,-3.5954 -2.06831,-1.678 -4.59227,-2.8765 -2.52392,-1.1984 -4.62719,-1.4382 l 9.20013,-35.955 h 12.65455 q 3.80362,3.3557 3.97031,7.9101 0.33325,4.5543 -0.53408,10.5468 2.27819,-6.9513 4.92465,-10.7865 2.70771,-4.0749 8.12347,-7.6704 z m -181.49335,191.76028 9.20013,-35.95503 q 3.6632,0 6.46746,-1.19852 2.97079,-1.19853 6.53744,-4.07491 2.15579,-1.9176 3.46147,-3.11612 1.53363,-1.43825 3.25114,-3.59546 l 7.6668,-29.96264 q 0.184,-0.7191 -0.28057,-2.1572 -0.23667,-1.678 -0.97287,-3.3558 -0.56975,-1.6779 -1.36726,-3.1162 -0.79752,-1.4382 -1.40223,-1.6778 h -44.95723 q -0.66603,0 -2.19963,1.4381 -1.36702,1.4383 -3.02322,3.3559 -1.42841,1.6778 -2.69033,3.3558 -1.26188,1.6779 -1.38454,2.1572 l -7.6668,29.96264 q -0.42933,1.67787 0.57858,3.59546 1.23579,1.67786 2.7432,3.59545 2.55026,2.39705 4.63607,3.35585 2.08581,0.95879 5.62632,1.43825 l -9.20013,35.95503 h -12.48818 q -3.36535,-3.11612 -4.04904,-6.9513 -0.4559,-4.07491 0.32371,-11.02622 -2.15551,6.47185 -4.86331,10.54676 -2.70771,4.07491 -8.06216,7.43076 h -12.4881 l 9.20013,-35.95503 q 3.6632,0 6.46746,-1.19852 2.97088,-1.19853 6.53744,-4.07491 2.15579,-1.9176 3.46155,-3.11612 1.53355,-1.43825 3.25106,-3.59546 l 7.6668,-29.96264 q 0.184,-0.7191 -0.28057,-2.1572 -0.46446,-1.4383 -1.26205,-2.8765 -0.56967,-1.6779 -1.36726,-3.1161 -0.79755,-1.4382 -1.27958,-2.1572 -1.44607,-2.1573 -3.84736,-3.8353 -2.17344,-1.9176 -4.01391,-3.8352 4.77602,-2.3969 8.28136,-5.0337 3.67184,-2.6367 8.00082,-7.191 l 4.96868,-5.7528 7.66678,-29.9625 q 0.55201,-2.1574 -0.78888,-4.075 -1.27954,-2.1573 -3.57575,-3.5954 -2.06823,-1.678 -4.59219,-2.8765 -2.524,-1.1984 -4.62727,-1.4382 l 9.20013,-35.955 h 12.4881 q 3.42669,2.8764 3.75994,7.4307 0.49975,4.5543 -0.15726,11.0262 2.27827,-6.9513 4.92465,-10.7865 2.70779,-4.0749 8.12347,-7.6704 h 12.48818 l -9.20013,35.955 q -4.49576,0 -10.22702,2.8764 -5.73126,2.8764 -9.49057,9.1087 l -7.66678,29.9625 q -0.42933,1.6778 1.14831,5.2734 1.74412,3.5955 2.87468,5.0337 h 44.95723 q 0.83247,0 2.13823,-1.1985 1.36699,-1.4381 2.79544,-3.1161 1.48975,-1.9176 2.58511,-3.5955 1.26183,-1.678 1.77888,-2.397 l 7.66678,-29.9625 q 0.55201,-2.1574 -0.78888,-4.075 -1.27963,-2.1573 -3.57575,-3.5954 -2.06823,-1.678 -4.59219,-2.8765 -2.524,-1.1984 -4.62727,-1.4382 l 9.20013,-35.955 h 12.4881 q 3.42669,2.8764 3.75994,7.4307 0.49966,4.5543 -0.15726,11.0262 2.27819,-6.9513 4.92465,-10.7865 2.70779,-4.0749 8.12347,-7.6704 h 12.4881 l -9.20013,35.955 q -4.49568,0 -10.22694,2.8764 -5.73126,2.8764 -9.49057,9.1087 l -7.66678,29.9625 q -0.61335,2.397 0.54354,5.0337 1.32347,2.6368 3.37427,5.0337 2.05076,2.397 4.32939,4.5544 2.27866,2.1572 3.80354,3.3557 -2.69908,1.4382 -5.85395,3.3558 -3.09344,1.6779 -5.87141,4.0749 -1.47221,1.1986 -5.11766,5.0338 -3.41767,3.5954 -4.40785,5.513 l -7.6668,29.96264 q -0.42933,1.67787 0.57858,3.59546 1.23579,1.67786 2.7432,3.59545 2.55026,2.39705 4.63607,3.35585 2.08572,0.95879 5.62624,1.43825 l -9.20013,35.95503 h -12.4881 q -3.36535,-3.11612 -4.04912,-6.9513 -0.45582,-4.07491 0.32378,-11.02622 -2.1555,6.47185 -4.8633,10.54676 -2.70771,4.07491 -8.06216,7.43076 z m -100.85498,-191.76028 -12.26684,47.9401 h -8.3254 q -0.16653,0 -0.52588,-1.1986 -0.35935,-1.1985 -0.78004,-2.1573 -3.99661,-9.1086 -15.98521,-9.1086 -3.82965,0 -4.61836,0.4794 -4.49575,0 -10.22702,2.8764 -5.73126,2.8764 -9.49057,9.1087 l -7.66677,29.9625 q -0.61336,2.397 0.54362,5.0337 1.32339,2.6368 3.37418,5.0337 2.05076,2.397 4.32939,4.5544 2.27866,2.1572 3.80362,3.3557 -2.69916,1.4382 -5.85394,3.3558 -3.09345,1.6779 -5.87141,4.0749 -1.47229,1.1986 -5.11775,5.0338 -3.41759,3.5954 -4.40784,5.513 l -7.66681,29.96264 q -0.42933,1.67787 0.57859,3.59546 1.23578,1.67786 2.7432,3.59545 2.55034,2.39705 4.63606,3.35585 2.08581,0.95879 5.62632,1.43825 l -9.20012,35.95503 h -12.4881 q -3.36544,-3.11612 -4.04913,-6.9513 -0.4559,-4.07491 0.32371,-11.02622 -2.15551,6.47185 -4.86322,10.54676 -2.7078,4.07491 -8.06225,7.43076 h -12.4881 l 9.20013,-35.95503 q 3.6632,0 6.46747,-1.19852 2.97087,-1.19853 6.53752,-4.07491 2.1557,-1.9176 3.46146,-3.11612 1.53355,-1.43825 3.25106,-3.59546 l 7.66681,-29.96264 q 0.18399,-0.7191 -0.28049,-2.1572 -0.46454,-1.4383 -1.26214,-2.8765 -0.56967,-1.6779 -1.36718,-3.1161 -0.79762,-1.4382 -1.27966,-2.1572 -1.44607,-2.1573 -3.84735,-3.8353 -2.17345,-1.9176 -4.01392,-3.8352 4.77603,-2.3969 8.28136,-5.0337 3.67184,-2.6367 8.00082,-7.191 l 4.96869,-5.7528 7.66677,-29.9625 q 0.73601,-2.8764 -0.87659,-5.0338 -1.61252,-2.1573 -4.24167,-3.5955 -2.46266,-1.4382 -5.44236,-2.1572 -2.91828,-0.9588 -4.79369,-1.4383 -8.65845,0 -14.16184,2.6367 -5.27556,2.397 -12.11085,9.5881 h -8.3254 l 12.26684,-47.9401 h 45.7897 q 3.26025,2.8764 3.88259,6.9513 0.62243,4.0749 -0.15725,11.0262 2.21696,-6.7117 4.86333,-10.5468 2.87433,-4.075 8.06221,-7.4307 z m -206.46963,191.76028 9.20013,-35.95503 q 3.6632,0 6.46746,-1.19852 2.9708,-1.19853 6.53745,-4.07491 2.15578,-1.9176 3.46154,-3.11612 1.53355,-1.43825 3.25106,-3.59546 l 7.66681,-29.96264 q 0.18399,-0.7191 -0.28058,-2.1572 -0.23667,-1.678 -0.97287,-3.3558 -0.56975,-1.6779 -1.36726,-3.1162 -0.79751,-1.4382 -1.40223,-1.6778 h -44.95723 q -0.66602,0 -2.19954,1.4381 -1.36711,1.4383 -3.02331,3.3559 -1.42841,1.6778 -2.69033,3.3558 -1.2618,1.6779 -1.38445,2.1572 l -7.66681,29.96264 q -0.42933,1.67787 0.57859,3.59546 1.2357,1.67786 2.74311,3.59545 2.55035,2.39705 4.63607,3.35585 2.08581,0.95879 5.62632,1.43825 l -9.20013,35.95503 h -12.4881 q -3.36535,-3.11612 -4.04912,-6.9513 -0.4559,-4.07491 0.32379,-11.02622 -2.15559,6.47185 -4.86331,10.54676 -2.70779,4.07491 -8.06216,7.43076 h -12.48818 l 9.20013,-35.95503 q 3.6632,0 6.46755,-1.19852 2.97079,-1.19853 6.53744,-4.07491 2.1557,-1.9176 3.46146,-3.11612 1.53355,-1.43825 3.25114,-3.59546 l 7.66681,-29.96264 q 0.18399,-0.7191 -0.28058,-2.1572 -0.46453,-1.4383 -1.26205,-2.8765 -0.56975,-1.6779 -1.36726,-3.1161 -0.79762,-1.4382 -1.27966,-2.1572 -1.44607,-2.1573 -3.84736,-3.8353 -2.17344,-1.9176 -4.01391,-3.8352 4.77602,-2.3969 8.28136,-5.0337 3.67184,-2.6367 8.0009,-7.191 l 4.96869,-5.7528 7.66677,-29.9625 q 0.55201,-2.1574 -0.78896,-4.075 -1.27954,-2.1573 -3.57567,-3.5954 -2.06831,-1.678 -4.59227,-2.8765 -2.524,-1.1984 -4.62727,-1.4382 l 9.20013,-35.955 h 12.48818 q 3.42669,2.8764 3.75986,7.4307 0.49975,4.5543 -0.15718,11.0262 2.27819,-6.9513 4.92465,-10.7865 2.70771,-4.0749 8.12347,-7.6704 h 12.4881 l -9.20013,35.955 q -4.49576,0 -10.22702,2.8764 -5.73118,2.8764 -9.49049,9.1087 l -7.66677,29.9625 q -0.42933,1.6778 1.14822,5.2734 1.74412,3.5955 2.87468,5.0337 h 44.95723 q 0.83255,0 2.13823,-1.1985 1.36708,-1.4381 2.79544,-3.1161 1.48975,-1.9176 2.58511,-3.5955 1.26192,-1.678 1.77888,-2.397 l 7.66678,-29.9625 q 0.55201,-2.1574 -0.78888,-4.075 -1.27962,-2.1573 -3.57575,-3.5954 -2.06823,-1.678 -4.59219,-2.8765 -2.524,-1.1984 -4.62727,-1.4382 l 9.20013,-35.955 h 12.4881 q 3.42669,2.8764 3.75994,7.4307 0.49975,4.5543 -0.15726,11.0262 2.27827,-6.9513 4.92465,-10.7865 2.70779,-4.0749 8.12347,-7.6704 h 12.48818 l -9.20013,35.955 q -4.49576,0 -10.22702,2.8764 -5.73126,2.8764 -9.49057,9.1087 l -7.66678,29.9625 q -0.61335,2.397 0.54363,5.0337 1.32339,2.6368 3.37418,5.0337 2.05076,2.397 4.32939,4.5544 2.27866,2.1572 3.80362,3.3557 -2.69916,1.4382 -5.85394,3.3558 -3.09353,1.6779 -5.87142,4.0749 -1.47229,1.1986 -5.11774,5.0338 -3.41759,3.5954 -4.40785,5.513 l -7.6668,29.96264 q -0.42933,1.67787 0.57858,3.59546 1.23579,1.67786 2.7432,3.59545 2.55026,2.39705 4.63607,3.35585 2.08581,0.95879 5.62632,1.43825 l -9.20013,35.95503 h -12.48818 q -3.36535,-3.11612 -4.04904,-6.9513 -0.4559,-4.07491 0.32371,-11.02622 -2.15551,6.47185 -4.86331,10.54676 -2.70771,4.07491 -8.06216,7.43076 z m -68.54327,-53.93254 7.66681,-29.96264 h -24.9762 l 6.13342,-23.97 h 33.3016 l -15.33358,59.92514 q -4.78406,18.69658 -16.91218,33.55798 -12.00546,14.38206 -25.32612,14.38206 h -23.31116 q -14.15322,0 -18.5443,-13.42326 -4.55773,-13.42315 2.37304,-40.50928 l 6.13345,-23.97014 q 0.184,-0.7191 -0.28056,-2.1572 -0.46452,-1.4383 -1.26206,-2.8765 -0.56972,-1.6779 -1.36726,-3.1161 -0.79756,-1.4382 -1.27961,-2.1572 -1.44608,-2.1573 -3.84736,-3.8353 -2.17345,-1.9176 -4.0139,-3.8352 4.77602,-2.3969 8.28136,-5.0337 3.67181,-2.6367 8.00084,-7.191 l 4.96868,-5.7528 7.66678,-29.9625 q 7.05345,-27.5656 19.84783,-37.8727 12.73299,-10.0674 22.39045,-10.0674 h 23.31117 q 10.15696,0 17.46625,9.8277 7.03765,9.588 1.17586,33.7977 l -0.93749,4.3147 h -9.65746 q -0.41203,-3.5956 -2.03357,-7.6704 -1.39356,-4.3147 -6.88832,-4.3147 h -39.96197 q -5.82781,0 -11.49749,7.1911 -5.50323,7.191 -7.95658,16.779 l -4.60007,17.9775 q -0.61335,2.397 0.54362,5.0337 1.32339,2.6368 3.37419,5.0337 2.05076,2.397 4.32939,4.5544 2.27866,2.1572 3.80354,3.3557 -2.69908,1.4382 -5.85395,3.3558 -3.09344,1.6779 -5.87141,4.0749 -1.47221,1.1986 -5.11766,5.0338 -3.41767,3.5954 -4.40785,5.513 l -4.41607,17.25845 q -2.3307,9.10862 -1.02458,17.01872 1.36751,7.67048 8.0278,7.67048 h 39.96196 q 4.6622,0 10.34079,-5.27343 5.67859,-5.27344 7.57993,-12.70408 z M 238.8357,-1090.0064 q -4.49571,0 -10.22697,2.8764 -5.73124,2.8764 -9.49055,9.1087 l -7.66677,29.9625 q -0.61335,2.397 0.54356,5.0337 1.32341,2.6368 3.37422,5.0337 2.05078,2.397 4.3294,4.5544 2.27866,2.1572 3.80356,3.3557 -2.69912,1.4382 -5.85393,3.3558 -3.09346,1.6779 -5.87142,4.0749 -1.47223,1.1986 -5.1177,5.0338 -3.41762,3.5954 -4.40782,5.513 l -7.6668,29.96264 q -0.42933,1.67787 0.57856,3.59546 1.23575,1.67786 2.74319,3.59545 2.5503,2.39705 4.63607,3.35585 2.08578,0.95879 5.62627,1.43825 l -9.20013,35.95503 h -12.4881 q -3.36535,-3.11612 -4.0491,-6.9513 -0.45589,-4.07491 0.32375,-11.02622 -2.15553,6.47185 -4.86329,10.54676 -2.70777,4.07491 -8.06218,7.43076 h -12.48811 l 9.20013,-35.95503 q 3.66319,0 6.46748,-1.19852 2.97081,-1.19853 6.53745,-4.07491 2.15575,-1.9176 3.46148,-3.11612 1.53357,-1.43825 3.25112,-3.59546 l 7.6668,-29.96264 q 0.184,-0.7191 -0.28055,-2.1572 -0.46453,-1.4383 -1.26207,-2.8765 -0.56971,-1.6779 -1.36726,-3.1161 -0.79756,-1.4382 -1.27961,-2.1572 -1.44608,-2.1573 -3.84735,-3.8353 -2.17346,-1.9176 -4.01391,-3.8352 4.77603,-2.3969 8.28136,-5.0337 3.67181,-2.6367 8.00084,-7.191 l 4.96868,-5.7528 7.66678,-29.9625 q 0.55201,-2.1574 -0.78891,-4.075 -1.27958,-2.1573 -3.57572,-3.5954 -2.06826,-1.678 -4.59222,-2.8765 -2.524,-1.1984 -4.62726,-1.4382 l 9.20013,-35.955 h 12.48811 q 3.53189,3.116 3.8651,7.6704 0.39455,4.3146 -0.47277,10.3071 2.07673,-5.5131 4.74064,-10.0674 2.83045,-4.5544 8.51784,-7.9101 h 12.48811 z m -103.19285,-35.955 q 11.32255,0 17.18596,12.2246 5.7582,11.9852 -0.31388,35.7155 -7.54412,29.4831 -15.18557,37.8726 -7.5188,7.9101 -13.73208,10.0674 3.14613,0.7192 8.33445,6.472 5.20579,5.0337 -2.41715,35.47564 -1.59467,6.23211 -0.0171,9.82769 1.63896,3.35572 4.60996,6.71157 0.81505,0.71907 3.06734,1.67786 2.4801,0.71919 4.39053,-0.23961 l -9.20013,35.95503 h -12.48812 q -3.36535,-3.11612 -4.04909,-6.9513 -0.45589,-4.07491 0.32375,-11.02622 -2.15553,6.47185 -4.8633,10.54676 -2.70776,4.07491 -8.06217,7.43076 H 90.738159 l 9.200129,-35.95503 q 8.229092,1.67787 13.960152,-5.75289 5.89754,-7.43064 8.65757,-18.21712 2.76007,-10.78664 0.39354,-18.45694 -2.13868,-7.9101 -8.80786,-9.8277 H 86.667849 q -1.577393,0.9588 -5.056364,4.794 -3.478962,3.8351 -4.241306,5.513 l -7.666804,29.96264 q -0.245336,0.9588 1.139435,3.35573 1.384748,2.39705 1.910611,3.59557 1.779096,2.15732 4.303092,3.35573 2.523957,1.19852 6.230959,1.67798 l -9.200129,35.95503 H 61.599235 q -3.365351,-3.11612 -4.049089,-6.9513 -0.455893,-4.07491 0.323746,-11.02622 -2.155533,6.47185 -4.863297,10.54676 -2.707763,4.07491 -8.062175,7.43076 H 32.460312 l 9.200129,-35.95503 q 3.663183,0 6.46748,-1.19852 2.970808,-1.19853 6.537449,-4.07491 2.155759,-1.9176 3.461479,-3.11612 1.533581,-1.43825 3.251118,-3.59546 l 7.666804,-29.96264 q 0.367989,-1.4381 -0.412064,-3.5955 -0.613542,-2.1573 -1.954462,-4.0749 -1.279579,-2.1573 -2.848343,-3.8351 -1.507432,-1.9176 -2.760665,-2.8764 -3.593204,-2.8764 -3.36536,-3.1162 0.289195,-0.4794 5.310554,-3.8351 4.443047,-2.3971 7.92201,-6.2323 3.540303,-4.0749 7.30846,-8.3895 l 7.666774,-29.9625 q 0.552013,-2.1574 -0.788907,-4.075 -1.279579,-2.1573 -3.575722,-3.5954 -2.06826,-1.678 -4.592217,-2.8765 -2.523996,-1.1984 -4.62726,-1.4382 l 9.200129,-35.955 h 12.488108 q 3.26019,2.8764 3.882586,6.9513 0.622405,4.0749 -0.157243,11.0262 3.715251,-11.2659 8.570141,-14.6218 4.85486,-3.3557 11.68169,-3.3557 1.83159,0 4.16271,0 2.49762,0 5.3896,-0.2397 h 5.99429 q 1.9981,0 2.10327,0.2397 z m -17.57576,88.2097 q 3.16366,0 11.147,-6.4719 7.58897,-6.2322 11.90872,-21.8127 2.76003,-10.7865 1.32261,-15.5806 -1.2096,-5.0337 -7.6773,-8.3895 H 113.9546 q -4.66223,0 -10.39347,2.8764 -5.564745,2.8764 -9.324047,9.1087 l -7.666774,29.9625 q -0.183995,0.719 0.280527,2.1573 0.464521,1.4383 1.200746,3.1161 0.736233,1.6779 1.367257,3.1161 0.797575,1.4382 1.174409,1.9176 z" />
  </g>
  <g
     inkscape:groupmode="layer"
     id="layer2"
     inkscape:label="Layer 2"
     style="display:inline" />
</svg>
