<?xml version="1.0" encoding="UTF-8" standalone="no"?>
<!-- Created with Inkscape (http://www.inkscape.org/) -->

<svg
   xmlns:dc="http://purl.org/dc/elements/1.1/"
   xmlns:cc="http://creativecommons.org/ns#"
   xmlns:rdf="http://www.w3.org/1999/02/22-rdf-syntax-ns#"
   xmlns:svg="http://www.w3.org/2000/svg"
   xmlns="http://www.w3.org/2000/svg"
   xmlns:sodipodi="http://sodipodi.sourceforge.net/DTD/sodipodi-0.dtd"
   xmlns:inkscape="http://www.inkscape.org/namespaces/inkscape"
   width="12in"
   height="24in"
   viewBox="0 0 1152 2304"
   version="1.1"
   id="svg2815"
   inkscape:version="0.92.3 (2405546, 2018-03-11)"
   sodipodi:docname="12x24 Sheet Calculator - Blue (Giant) - Single.svg">
  <defs
     id="defs2809" />
  <sodipodi:namedview
     id="base"
     pagecolor="#1f1f1f"
     bordercolor="#666666"
     borderopacity="1.0"
     inkscape:pageopacity="0"
     inkscape:pageshadow="2"
     inkscape:zoom="0.61580177"
     inkscape:cx="192.68598"
     inkscape:cy="1760.1301"
     inkscape:document-units="in"
     inkscape:current-layer="layer1"
     showgrid="true"
     inkscape:snap-global="false"
     showguides="true"
     units="in"
     gridtolerance="10"
     inkscape:window-width="1920"
     inkscape:window-height="1017"
     inkscape:window-x="-8"
     inkscape:window-y="-8"
     inkscape:window-maximized="1"
     inkscape:guide-bbox="true">
    <inkscape:grid
       type="xygrid"
       id="grid3368" />
    <sodipodi:guide
       position="-358.88172,1152.9684"
       orientation="0,1"
       id="guide1164"
       inkscape:locked="false" />
  </sodipodi:namedview>
  <metadata
     id="metadata2812">
    <rdf:RDF>
      <cc:Work
         rdf:about="">
        <dc:format>image/svg+xml</dc:format>
        <dc:type
           rdf:resource="http://purl.org/dc/dcmitype/StillImage" />
        <dc:title></dc:title>
      </cc:Work>
    </rdf:RDF>
  </metadata>
  <g
     inkscape:label="Layer 1"
     inkscape:groupmode="layer"
     id="layer1"
     transform="translate(0,1159.8)">
    <g
       id="g993">
      <path
         id="path1036"
         style="font-style:normal;font-variant:normal;font-weight:normal;font-stretch:normal;font-size:medium;line-height:125%;font-family:'Cooper Black';-inkscape-font-specification:'Cooper Black, ';font-variant-ligatures:normal;font-variant-caps:normal;font-variant-numeric:normal;font-feature-settings:normal;text-align:start;letter-spacing:0px;word-spacing:0px;writing-mode:lr-tb;text-anchor:start;fill:#0000ff;fill-opacity:1;stroke:none;stroke-width:2.04886508px;stroke-linecap:butt;stroke-linejoin:miter;stroke-opacity:1"
         d="m 72.382802,-1112.2704 c 8.005621,0.014 15.966304,1.3054 23.830143,3.8741 3.511482,1.1801 5.836245,1.7711 6.984935,1.7731 1.20922,0 3.51796,-0.7879 6.94396,-2.3701 1.13996,-0.4814 2.37985,-0.7209 3.7179,-0.7186 3.40607,0.01 7.25862,2.2917 11.5171,6.8571 6.73128,7.3323 11.09894,15.3511 13.20791,24.0565 1.43944,5.9417 1.37129,10.7411 -0.17636,14.3982 -1.45502,3.6572 -4.118,5.482 -8.01654,5.4744 -3.18473,-0.01 -6.72551,-1.4631 -10.65071,-4.3709 -1.20411,-0.9 -4.47131,-4.1516 -9.86339,-9.755 -9.17796,-9.3389 -18.016448,-14.016 -26.336088,-14.0312 -7.563318,-0.014 -12.352106,3.2568 -14.278025,9.8122 -1.751872,6.5554 -0.371247,15.3949 4.0548,26.5184 6.57029,16.5126 15.238076,30.5789 25.755896,42.1991 3.820017,4.2194 7.724857,7.6107 11.719787,10.17386 3.93266,2.49408 7.37869,3.74447 10.36573,3.7512 2.46561,0.005 4.09995,-1.16445 4.91658,-3.50999 0.86101,-2.41457 0.7122,-5.48727 -0.4608,-9.21807 -1.04268,-3.3164 -2.47505,-5.6669 -4.30391,-7.0517 -0.72405,-0.5539 -1.34682,-0.8659 -1.86737,-0.9361 -0.49322,-0.1391 -1.9364,-0.2113 -4.32925,-0.2164 -2.1437,0 -4.25744,-0.9411 -6.35082,-2.8097 -2.07966,-1.9375 -3.63258,-4.3571 -4.64936,-7.2589 -2.00927,-5.7345 -0.56845,-9.8049 4.36887,-12.2114 5.51361,-2.6125 12.4777,-3.9103 20.83679,-3.8934 8.94104,0.018 16.75132,1.2422 23.38225,3.6727 6.23783,2.3607 9.99167,6.6155 11.30624,12.7645 0.53174,2.4873 0.3663,4.6623 -0.48812,6.5251 -0.85887,1.7936 -2.244,2.8611 -4.16092,3.2022 -1.66458,0.3418 -2.67993,0.892 -3.04674,1.6509 -0.33179,0.6898 -0.42979,2.4505 -0.28971,5.282 0.59539,10.98073 -1.0654,20.16076 -4.90357,27.54006 -2.52762,5.03441 -6.08185,8.96145 -10.67804,11.78113 -4.47159,2.81978 -9.62378,4.22252 -15.51643,4.20822 -9.63047,-0.0233 -19.86626,-3.53387 -30.930364,-10.5315 -11.652796,-7.13635 -22.812534,-17.1006 -33.46429,-29.89271 -9.110418,-10.6487 -16.746658,-22.1565 -22.756292,-34.5237 -6.076795,-12.5053 -9.130501,-24.3836 -8.968416,-35.6348 0.389408,-12.0797 4.76278,-21.3913 13.114737,-27.9349 7.480356,-5.7862 17.689425,-8.6682 30.461887,-8.6459 0,0 0,0 0,0 m 111.785258,3.0963 c 5.28738,0.01 9.62059,1.1567 12.97926,3.4421 3.32399,2.2163 5.18089,5.2244 5.59038,9.0244 0.57327,5.3199 -1.21388,9.5303 -5.31965,12.6312 -6.39389,4.8924 -14.46875,7.3293 -24.32918,7.3109 -4.16076,-0.01 -7.64842,-0.9813 -10.47749,-2.9204 -3.82227,-2.4934 -6.1951,-5.951 -7.09331,-10.3728 -1.20696,-5.9418 1.52197,-10.5988 8.25956,-13.9711 6.94411,-3.4411 13.76609,-5.1559 20.39043,-5.1443 0,0 0,0 0,0 m 22.87003,45.4239 c 0,0 6.39378,60.2121 6.39378,60.2121 0.50622,4.76723 1.1618,8.25693 1.96208,10.46909 0.84115,2.21228 2.24268,4.25316 4.19724,6.12265 1.58205,1.52329 2.6497,2.83819 3.20915,3.9447 0.59687,1.03752 0.96565,2.38537 1.10842,4.04354 0.7674,8.91263 -6.05266,13.35149 -20.46006,13.31659 -7.75443,-0.0187 -14.07479,-1.00093 -18.99582,-2.94644 -1.68937,-0.69464 -3.19801,-1.90675 -4.52832,-3.63636 -1.29421,-1.7295 -2.17173,-3.69968 -2.62627,-5.91057 -0.38348,-1.86543 -0.42936,-3.31574 -0.13558,-4.35092 0.29646,-1.03517 1.2581,-2.69035 2.90078,-4.96552 1.14205,-1.58577 1.68488,-4.17431 1.62803,-7.7656 -0.0461,-3.59131 -0.71934,-8.94506 -2.02814,-16.06136 -0.41937,-2.28 -1.32614,-6.5293 -2.72586,-12.748 -1.36817,-6.2876 -2.20257,-9.9497 -2.49919,-10.9863 -0.84121,-2.8333 -2.72323,-5.0126 -5.65639,-6.5379 -3.65776,-1.8721 -5.87476,-4.639 -6.63075,-8.3008 -0.8986,-4.3527 0.64811,-7.5956 4.67049,-9.7287 5.6267,-2.959 11.85059,-5.4679 18.65995,-7.527 6.87109,-2.059 12.29812,-3.0848 16.23467,-3.0773 3.09299,0.01 4.86693,2.1506 5.32179,6.4341 0,0 0,0 0,0 m 62.35058,-7.1357 c -11.09757,-0.021 -21.67582,3.2753 -31.52539,9.8886 -3.51861,2.4802 -6.23985,5.3773 -8.16797,8.6895 -1.84421,3.3123 -2.64305,6.627 -2.42187,9.9433 0.21662,3.2472 1.20258,5.874 2.94726,7.8809 1.7302,2.0069 3.85761,3.0076 6.39258,3.0176 5.01831,0.01 9.71857,-4.3659 14.23828,-13.1309 1.82874,-3.3125 3.36728,-5.5908 4.60156,-6.832 1.29514,-1.2411 2.76027,-1.8555 4.38868,-1.8555 2.71412,0.01 4.64283,1.6677 5.77539,4.9864 1.11693,3.2495 1.59245,8.5358 1.4375,15.8593 -0.0613,2.9018 -0.48663,4.7664 -1.27149,5.5938 -0.78079,0.7584 -2.65115,1.1369 -5.61328,1.1269 -13.32785,0.041 -23.12654,4.4082 -29.20312,13.0996 -3.76064,5.5182 -5.32347,11.8713 -4.76758,19.05668 0.34743,4.49086 1.39948,8.81026 3.13281,12.95899 1.69864,4.07962 3.81308,7.39893 6.3418,9.96093 3.80185,3.87769 8.55576,5.82389 14.3164,5.83789 5.58483,0.0136 10.59445,-2.49638 15.11915,-7.52929 1.52042,-1.72374 2.73746,-2.58403 3.64062,-2.58203 0.81283,0.002 1.66447,0.90259 2.54688,2.70117 2.5236,4.981 6.06816,7.47708 10.68554,7.48828 3.60591,0.009 7.18462,-1.5032 10.77539,-4.53516 2.95428,-2.41164 5.48431,-5.41137 7.5918,-9 2.18528,-3.58853 3.4825,-7.04109 3.86719,-10.35742 0.29657,-2.55634 -0.29049,-4.00855 -1.76368,-4.35742 -1.47577,-0.34886 -2.42859,-0.73088 -2.85937,-1.14649 -0.43182,-0.41561 -0.83301,-1.38509 -1.20508,-2.90625 -0.7425,-3.18048 -0.60735,-10.12508 0.41602,-20.83398 l 1.63086,-15.4414 c 0.70244,-7.3235 0.55671,-13.0588 -0.45508,-17.207 -0.97641,-4.2171 -3.08855,-7.9531 -6.35547,-11.2071 -6.31246,-6.0929 -14.43439,-9.1499 -24.23633,-9.1679 z m -6.41601,59.9941 c 1.57794,0.072 2.62517,0.7662 3.14062,2.0801 0.56098,1.314 0.79729,3.872 0.71289,7.6719 -0.20707,9.32717 -2.17387,13.98552 -5.90039,13.97652 -1.77009,-0.004 -3.19063,-1.0076 -4.26953,-3.01367 -1.09004,-2.07516 -1.65048,-4.77156 -1.67187,-8.08789 -0.0223,-3.45446 0.73727,-6.42436 2.29101,-8.90816 1.62151,-2.4838 3.52609,-3.7188 5.69727,-3.7188 z m 145.68283,-21.3598 c 0,0 -11.36901,36.48189 -11.36901,36.48189 -0.84916,2.76381 -1.26337,4.80261 -1.24378,6.11639 0.0633,1.31389 0.63379,3.83899 1.68092,7.5753 0.29668,1.10705 0.0859,2.66238 -0.62957,4.66599 -1.62814,4.55995 -4.52393,7.73388 -8.66257,9.5218 -4.10556,1.78791 -10.61796,2.67104 -19.56201,2.64937 -6.08014,-0.0148 -10.15492,-0.85421 -12.24083,-2.51846 -2.17947,-1.73355 -2.79517,-4.53485 -1.82935,-8.4039 0.34491,-1.3818 0.73185,-2.38329 1.16136,-3.00446 0.44768,-0.69026 1.77476,-2.31174 3.9956,-4.86446 2.61096,-2.89751 6.10247,-12.568 10.45428,-29.01146 2.52334,-9.5344 3.56355,-16.5833 3.09513,-21.1467 -0.41668,-3.6646 -2.47867,-5.5006 -6.16941,-5.508 -3.5325,-0.01 -6.29819,1.4733 -8.28408,4.4416 -1.96856,2.9682 -3.81245,8.3559 -5.54451,16.163 0,0 -4.55247,20.51982 -4.55247,20.51982 -0.90435,4.07632 -1.36016,6.87484 -1.36932,8.39558 0.0351,1.52083 0.53833,4.45983 1.47967,8.81699 0.21536,1.2448 0.13613,2.66173 -0.23528,4.25081 -0.95281,4.07632 -3.48432,7.07736 -7.56683,9.00314 -4.04558,1.92577 -9.88661,2.87937 -17.55083,2.86081 -12.24516,-0.0297 -17.86665,-4.01719 -16.86446,-11.96256 0.20916,-1.65816 0.54913,-2.90136 1.02101,-3.72959 0.52834,-0.89721 1.63368,-2.13864 3.32355,-3.7243 1.38469,-1.30994 2.35862,-2.79362 2.91796,-4.45104 0.57174,-1.7265 1.47111,-5.90576 2.70282,-12.53776 1.46858,-7.8755 2.82929,-16.1314 4.07247,-24.7677 0.68625,-4.7672 0.84735,-7.8769 0.48049,-9.3289 -0.30842,-1.5211 -1.62985,-3.3552 -3.98029,-5.5023 -2.0384,-1.87 -2.89744,-4.1523 -2.56323,-6.8468 0.34277,-2.7636 1.57108,-5.0072 3.69541,-6.7307 2.14775,-1.7926 6.40519,-4.0304 12.81268,-6.7133 5.69594,-2.3388 11.18168,-4.298 16.44268,-5.8776 5.30752,-1.6486 8.90213,-2.4712 10.75793,-2.4677 1.68707,0 2.92932,0.7659 3.72147,2.288 0.84082,1.5222 1.02907,3.3197 0.57031,5.3924 -0.0461,0.2073 -0.26464,1.0709 -0.65602,2.5907 -0.17723,0.5526 -0.31155,1.0362 -0.40318,1.4508 -0.73284,3.3163 -0.0132,4.9766 2.15834,4.9809 1.30299,0 2.99429,-1.3075 5.08624,-3.93 6.8239,-8.558 14.91254,-12.8283 24.13736,-12.8108 7.08727,0.013 12.46031,2.305 16.04745,6.8745 2.43615,3.254 3.59116,7.0932 3.48153,11.5176 -0.1121,4.3554 -1.45536,10.7824 -4.01963,19.2811 0,0 0,0 0,0 m 64.1219,-10.9678 c 0,0 -16.50891,35.0288 -16.50891,35.0288 -1.95369,4.1454 -2.85031,7.5323 -2.70304,10.16085 0.17707,2.62863 1.34985,3.9454 3.532,3.95031 1.85009,0.004 4.91521,-1.23397 9.22312,-3.71438 1.03484,-0.62021 1.91292,-0.92952 2.63264,-0.92792 1.1516,0.002 1.68801,1.00672 1.6023,3.01247 -0.095,2.00575 -0.76153,4.18315 -1.99253,6.53222 -2.24482,4.28359 -5.95948,8.39082 -11.0973,12.3217 -10.59524,8.34476 -20.23065,12.50636 -29.11358,12.4848 -7.03596,-0.0171 -11.38563,-3.13984 -13.15435,-9.3683 -1.88186,-6.29757 -0.88087,-14.55901 3.10956,-24.78435 0,0 18.68476,-47.8795 18.68476,-47.8795 0.62014,-1.5891 0.83616,-2.5566 0.64763,-2.9027 -0.10815,-0.4151 -0.78266,-0.6239 -2.0231,-0.6263 0,0 -8.33237,-0.016 -8.33237,-0.016 -1.56399,0 -2.44953,-0.316 -2.65754,-0.9386 -0.18437,-0.6918 0.15643,-2.2467 1.0232,-4.6649 0,0 1.63456,-4.5599 1.63456,-4.5599 0.7983,-2.0726 1.98194,-3.5914 3.55428,-4.5563 0,0 51.43471,-29.7736 51.43471,-29.7736 1.28142,-0.62 2.66341,-0.9287 4.14412,-0.926 0,0 7.19635,0.013 7.19635,0.013 1.48077,0 2.2637,0.419 2.34776,1.2489 0.17394,0.761 -0.29322,2.316 -1.40032,4.6651 0,0 -6.59378,13.9907 -6.59378,13.9907 -0.9769,2.0727 -1.35753,3.4205 -1.14288,4.0432 0.26963,0.6229 1.27709,0.936 3.02342,0.9393 0,0 15.63237,0.03 15.63237,0.03 2.08433,0 3.18506,0.4901 3.30045,1.4586 0.14892,0.8993 -0.5719,2.869 -2.16076,5.9089 0,0 -3.1957,6.1145 -3.1957,6.1145 -1.73328,3.3163 -3.32175,5.6301 -4.76213,6.9413 -1.40032,1.2421 -3.0931,1.8612 -5.08135,1.8573 0,0 -14.58996,-0.029 -14.58996,-0.029 -1.50468,0 -2.68953,0.3404 -3.55334,1.0303 -0.86222,0.6898 -1.74853,2.002 -2.66029,3.9365 0,0 0,0 0,0" />
    </g>
  </g>
</svg>
