<?xml version="1.0" encoding="UTF-8" standalone="no"?>
<!-- Created with Inkscape (http://www.inkscape.org/) -->

<svg
   xmlns:dc="http://purl.org/dc/elements/1.1/"
   xmlns:cc="http://creativecommons.org/ns#"
   xmlns:rdf="http://www.w3.org/1999/02/22-rdf-syntax-ns#"
   xmlns:svg="http://www.w3.org/2000/svg"
   xmlns="http://www.w3.org/2000/svg"
   xmlns:sodipodi="http://sodipodi.sourceforge.net/DTD/sodipodi-0.dtd"
   xmlns:inkscape="http://www.inkscape.org/namespaces/inkscape"
   width="12in"
   height="24in"
   viewBox="0 0 1152 2304"
   version="1.1"
   id="svg2815"
   inkscape:version="0.92.3 (2405546, 2018-03-11)"
   sodipodi:docname="12x24 Sheet Calculator - White (Marquee Bulbs) - Single w Weed Lines.svg">
  <defs
     id="defs2809" />
  <sodipodi:namedview
     id="base"
     pagecolor="#8475e7"
     bordercolor="#666666"
     borderopacity="1.0"
     inkscape:pageopacity="0.80784314"
     inkscape:pageshadow="2"
     inkscape:zoom="0.76"
     inkscape:cx="703.65162"
     inkscape:cy="1857.0626"
     inkscape:document-units="in"
     inkscape:current-layer="layer1"
     showgrid="true"
     inkscape:snap-global="false"
     showguides="false"
     units="in"
     gridtolerance="10"
     inkscape:window-width="1920"
     inkscape:window-height="1017"
     inkscape:window-x="-8"
     inkscape:window-y="-8"
     inkscape:window-maximized="1">
    <inkscape:grid
       type="xygrid"
       id="grid3368" />
  </sodipodi:namedview>
  <metadata
     id="metadata2812">
    <rdf:RDF>
      <cc:Work
         rdf:about="">
        <dc:format>image/svg+xml</dc:format>
        <dc:type
           rdf:resource="http://purl.org/dc/dcmitype/StillImage" />
        <dc:title></dc:title>
      </cc:Work>
    </rdf:RDF>
  </metadata>
  <g
     inkscape:label="Layer 1"
     inkscape:groupmode="layer"
     id="layer1"
     transform="translate(0,1159.8)">
    <g
       id="g5166">
      <g
         id="g4811" />
      <path
         d="m 565.42056,-679.16449 14.95327,91.58879 m 481.79917,-148.7072 -125.55328,38.22938 m 134.00398,-58.14889 -66.1971,-58.1489 m 63.9839,88.53119 0.6036,-4.42656 m -15.6942,40.44266 1.8109,-4.22536 m -18.5111,40.64387 0.8048,-5.63381 m -14.8893,40.44266 0.6036,-4.22535 m -15.4929,39.83903 1.2072,-3.82294 m -15.89535,36.41852 2.01207,-4.42656 m -12.47485,35.01006 0.20121,3.62173 m -6.23743,-32.39437 1.60966,2.21328 m -10.66398,-26.96177 1.81086,3.21932 m -14.48692,-28.37023 1.81087,3.01811 m -11.0664,-31.18712 1.81086,3.21932 m -10.46277,-30.5835 1.81086,2.8169 m -11.2676,-27.96781 2.41448,3.62173 m -22.334,-6.43863 -125.35211,33.19919 m 130.7847,-20.32193 2.21328,-5.23139 m -17.70623,38.02817 1.00603,-5.6338 m -15.49296,41.44869 1.00604,-4.42656 m -17.10262,39.43662 1.20725,-3.82294 m -14.48692,39.63783 v -3.82294 m -14.68813,36.61972 0.80483,-4.82897 m -4.22536,41.6499 139.63783,-40.04024 m -155.13078,51.71026 -121.73039,-1.20725 M 827.7666,-466.8664 v 4.42656 m -7.04225,-32.59557 1.60965,3.01811 m -10.86519,-26.76057 2.01208,3.01811 m -11.46882,-30.98591 1.00604,3.82293 m -11.0664,-31.18712 2.01207,3.21932 m -12.87726,-29.37626 2.8169,2.61569 m -12.87726,-29.77867 2.01207,3.21932 m -86.31791,18.51106 67.60564,-23.94366 m -330.3823,303.21932 97.78672,-34.00403 m 13.68209,-175.45271 -2.41448,4.22535 m 32.39436,-30.18109 -3.62173,1.81087 m 36.61972,-19.71831 -5.03018,1.00603 m 37.22334,-12.87726 h -4.02414 m 34.60764,-1.20724 -3.62173,-0.80483 m 28.97384,9.45674 -2.41448,-2.41449 m 19.71831,21.93159 -1.81087,-3.01811 m 8.85312,32.19316 v -4.22535 m -4.82897,39.0342 0.2012,-4.22535 m -11.67002,41.04628 0.80483,-5.03018 m -24.74849,38.22938 3.21932,-4.02415 m -32.79678,30.18109 4.22535,-1.40845 m -36.82093,20.72434 4.42656,-0.80483 m -36.61971,11.67002 h 3.82293 m -36.01609,3.42053 4.22535,0.40241 m -29.57747,-10.06036 3.21932,1.40845 m -20.92555,-22.53521 2.8169,3.42052 m -6.63984,-34.60764 0.60362,4.42656 m 1.60966,-38.02817 v 4.02414 m 13.27968,-40.44265 -1.60966,4.42655 m -68.20926,-31.18712 69.01409,5.03018 m -234.20523,51.10664 136.61971,-39.0342 m 12.47485,10.06036 0.20121,-4.42656 m -3.42052,38.63179 0.2012,-4.42656 m -3.21931,39.03421 v -4.42656 m -147.88733,71.83098 h -4.22535 m 4.6485,-0.33295 h -3.58859 m 36.53835,-10.76576 h -5.21976 m 38.822,-10.1133 h -5.546 m 38.822,-13.04941 h -5.546 m 37.19083,-12.07071 h -3.58859 m 16.638,12.72318 v -4.24106 m -3.58859,39.80071 v -5.21977 m -1.95741,38.49577 v -4.56729 m -152.67813,67.20447 137.01883,-44.368 m -149.41577,34.25471 0.65247,3.58858 m 0.32624,-37.84329 v 5.21976 m 1.95741,-38.822 v 4.5673 m 4.24106,-39.47448 v 4.5673 m 3.91482,-39.14824 v 4.89353 m 1.63118,-38.49577 -0.32624,4.89353 m -62.96341,4.24106 52.52388,-15.65929 m -66.552,200.63471 48.28283,-1.63117 m -136.04013,46.65165 h -3.588588 m 35.233418,-4.5673 h -3.58859 m 34.2547,-25.44635 -4.24105,2.28364 m 18.92164,-35.55964 -0.65247,5.21976 m -0.65247,-35.55965 2.60989,2.60988 m -23.48895,-18.92164 3.91483,0.9787 m -32.62353,-6.19847 h 5.21976 m -26.751295,-15.33306 2.936115,1.95741 m -13.701881,-29.03494 0.978706,5.546 m 19.247885,-38.49577 -2.60988,5.21977 m 32.94976,-24.79389 -4.89353,0.32624 m 35.23342,-6.19847 -4.24106,-1.95741 m -89.062242,-63.28965 8.482118,102.11165 m 577.762734,-323.62543 159.85531,-46.32541 m 20.06775,-107.7485 -0.3268,-4.41189 m -2.94126,44.1189 -0.98042,-4.24849 m 1.47063,42.81167 0.1634,-5.0655 m 139.87325,-21.56924 -125.16695,36.76575 m 140.36346,-68.46599 1.47063,4.73869 v 0 l -0.16341,-0.1634 m 0.65362,-43.46529 0.65361,4.7387 m 0.49021,-43.95549 1.30723,4.57529 m 0.98046,-43.46529 1.634,3.92168 m 0.4902,-43.62866 -0.1634,4.73867 m 3.4315,-43.95547 0.4902,4.4119 m 54.5767,-41.9947 h 4.5753 m -43.6287,15.5233 4.7387,-0.4902 m -42.97509,13.2357 5.06551,-0.4902 m -43.13848,11.9284 h 4.57529 m -86.27696,26.7982 48.36739,-9.9676 m -240.36629,74.02167 158.66463,-47.55037 m 16.50373,14.05269 -0.49021,-4.7387 m -1.30722,43.46529 v -5.06551 m -1.47063,44.28231 v -4.9021 m -22.22286,29.576 h 4.24849 m -42.97508,11.11142 h 4.7387 m -42.97507,13.72588 h 5.0655 m -43.62869,14.21609 4.7387,-0.1634 m -42.97508,13.72588 4.41189,-0.98042 m -93.13989,130.39585 50.32822,-0.65361 m 16.83054,-26.63474 -0.1634,4.24848 m 0.32681,-42.97507 -0.49021,4.9021 m 3.26806,-44.60911 0.16341,4.57529 m 0.81701,-43.62868 1.30723,4.73869 m 0.65361,-43.79209 0.98042,4.7387 m -0.65361,-43.30188 0.32681,4.41189 m -66.66856,11.92844 53.26948,-22.87647 m -195.75718,71.89747 -4.08508,2.61445 m 41.66785,-25.32752 -5.06551,1.63404 m 43.13848,-16.17693 -4.7387,0.3268 m 41.01424,-1.63403 h -4.7387 m 19.445,105.88536 -4.41189,-85.78675 m -21.89605,110.46065 4.9021,-0.98042 m 15.52332,11.76504 0.3268,4.24848 m -0.3268,39.0534 -0.98042,-4.7387 m -21.89605,38.56319 5.88252,-2.61446 m -42.32146,24.5105 4.41189,-1.14382 m -42.81167,13.88928 5.0655,-0.49021 m -179.41685,57.68138 110.29725,-41.66785 m 27.12495,-12.58206 4.08508,2.45105 m -34.6415,-13.23567 3.10466,2.61446 m -25.16411,-25.98113 2.61445,3.59487 m -11.92844,-38.07297 1.30722,5.0655 m 0.81702,-44.93592 0.1634,5.22891 m 13.88929,-46.24314 -1.63404,4.9021 m 28.59558,-42.48487 -3.59487,4.41189 m -105.88535,0.98042 105.88535,-20.42541 m -299.8451,85.78675 160.29866,-50.00142 m -92.48628,261.77213 h 4.7387 m -42.81168,12.25525 h 4.5753 m -42.975078,13.07226 4.575298,0.1634 m -25.000713,-13.07226 0.980419,5.39231 m 3.104664,-44.93592 0.163403,5.22891 m 0.98042,-44.2823 0.653613,4.7387 m 1.143824,-43.46529 0.653613,4.41189 m 1.47063,-44.1189 0.326806,4.7387 m 0.817017,-43.46529 v 4.9021 m 170.102864,154.57955 -44.93592,10.29441 m 63.40049,-80.55784 v 4.57529 m 2.12425,-82.51868 v 4.5753 m 2.94126,-82.68209 0.65361,4.5753 m -2.45105,34.3147 0.1634,4.90209 0.16341,-0.1634 m -4.24849,73.6949 1.14382,4.24849 v 0 m -2.61445,73.8583 1.14382,4.08508 M 1013.056,-831.36992 q 0.2794,-7.14297 -4.5773,-10.55103 -4.8411,-3.80491 -11.8452,-1.38075 -7.004,2.42413 -12.2798,9.73056 -5.2603,6.9096 -5.5397,14.05256 -0.2794,7.14297 4.5773,10.55103 4.8566,3.40806 11.8606,0.98394 7.0041,-2.42416 12.2644,-9.33376 5.2603,-6.90959 5.5397,-14.05255 z m 1.5368,-39.28648 q 0.2794,-7.14306 -4.5773,-10.55113 -4.8566,-3.40806 -11.8607,-0.9839 -7.0041,2.42413 -12.2643,9.33372 -5.2603,6.90959 -5.5397,14.05266 -0.2794,7.14297 4.5773,10.55103 4.8566,3.40806 11.8606,0.98394 7.0041,-2.42417 12.2644,-9.33376 5.2603,-6.90959 5.5397,-14.05256 z m 1.5212,-38.88967 q 0.2794,-7.143 -4.5772,-10.55106 -4.8412,-3.8049 -11.8453,-1.38074 -7.004,2.42413 -12.2798,9.73056 -5.2602,6.90959 -5.5396,14.05259 -0.2795,7.14301 4.5772,10.55108 4.8567,3.40806 11.8607,0.98393 7.0041,-2.42416 12.2643,-9.33375 5.2603,-6.90959 5.5397,-14.05261 z m 1.5368,-39.28648 q 0.2794,-7.143 -4.5772,-10.55107 -4.8567,-3.40806 -11.8608,-0.9839 -7.004,2.42413 -12.2643,9.33372 -5.2602,6.9096 -5.5397,14.05259 -0.2794,7.143 4.5773,10.55106 4.8567,3.40808 11.8607,0.98395 7.0041,-2.42416 12.2643,-9.33376 5.2603,-6.90959 5.5397,-14.05259 z m -72.076,-90.53495 q 0.2794,-7.143 -4.5773,-10.551 -4.8411,-3.8049 -11.8451,-1.3808 -7.004,2.4241 -12.2798,9.7305 -5.2602,6.9096 -5.5397,14.0526 -0.2794,7.143 4.5773,10.5511 4.8567,3.4081 11.8607,0.9839 7.004,-2.4241 12.2642,-9.3337 5.2603,-6.9096 5.5397,-14.0526 z m 73.5973,51.64529 q 0.2794,-7.14299 -4.5773,-10.55106 -4.8411,-3.80493 -11.8452,-1.38073 -7.004,2.42412 -12.2798,9.73055 -5.2603,6.90959 -5.5397,14.05259 -0.2794,7.143 4.5773,10.55107 4.8566,3.40806 11.8606,0.98394 7.0041,-2.42417 12.2644,-9.33376 5.2602,-6.9096 5.5397,-14.0526 z m -35.0751,-64.97799 q 0.2794,-7.143 -4.5773,-10.5511 -4.8411,-3.8049 -11.8451,-1.3808 -7.004,2.4242 -12.6689,9.8653 -5.2603,6.9096 -5.5397,14.0526 -0.2794,7.143 4.5772,10.551 5.2458,3.2734 12.2498,0.8493 7.004,-2.4241 12.2643,-9.3337 5.2602,-6.9096 5.5397,-14.0526 z m 36.6118,25.6915 q 0.2795,-7.143 -4.5772,-10.5511 -4.8567,-3.408 -11.8608,-0.9839 -7.004,2.4242 -12.2642,9.3338 -5.2603,6.9096 -5.5397,14.0526 -0.2794,7.143 4.5772,10.551 4.8567,3.4081 11.8607,0.984 7.0041,-2.4242 12.2644,-9.3338 5.2602,-6.9096 5.5396,-14.0526 z m 1.5213,-38.8896 q 0.2794,-7.143 -4.5773,-10.5511 -4.8411,-3.8049 -11.8452,-1.3807 -7.004,2.4241 -12.2798,9.7305 -5.2602,6.9096 -5.5397,14.0526 -0.2794,7.143 4.5773,10.5511 4.8567,3.408 11.8607,0.9839 7.0041,-2.4242 12.2643,-9.3337 5.2603,-6.9096 5.5397,-14.0526 z m 38.5222,-13.3328 q 0.2794,-7.143 -4.5773,-10.5511 -4.8411,-3.8049 -11.8452,-1.3807 -7.3932,2.5588 -12.6689,9.8652 -5.2603,6.9096 -5.5397,14.0526 -0.2794,7.143 4.5772,10.5511 4.8567,3.4081 12.2498,0.8493 7.0041,-2.4242 12.2644,-9.3338 5.2602,-6.9096 5.5397,-14.0526 z m 38.133,-13.1981 q 0.2794,-7.143 -4.5773,-10.551 -4.8411,-3.8049 -11.8451,-1.3808 -7.0041,2.4242 -12.2799,9.7306 -5.2602,6.9096 -5.5397,14.0526 -0.2794,7.143 4.5773,10.5511 4.8567,3.408 11.8608,0.9839 7.004,-2.4242 12.2642,-9.3338 5.2603,-6.9096 5.5397,-14.0526 z m -435.6655,381.35673 q 0.2794,-7.14297 -4.9664,-10.41635 -4.8566,-3.40807 -11.8607,-0.98394 -7.004,2.42413 -12.2642,9.33372 -5.2603,6.90959 -5.5397,14.05256 -0.2794,7.14307 4.5617,10.94788 4.8567,3.40806 11.8607,0.98393 7.004,-2.42413 12.2643,-9.33372 5.6649,-7.44101 5.9443,-14.58408 z m 1.5212,-38.88963 q 0.2795,-7.14296 -4.9663,-10.41635 -4.8567,-3.40806 -11.8607,-0.98393 -7.004,2.42413 -12.2643,9.33372 -5.2602,6.90959 -5.5396,14.05255 -0.2794,7.14297 4.5772,10.55103 4.8567,3.40807 11.8607,0.98394 7.004,-2.42413 12.2642,-9.33372 5.6494,-7.04427 5.9288,-14.18724 z m 1.5368,-39.28649 q 0.2794,-7.143 -4.9663,-10.41638 -4.8567,-3.40807 -11.8607,-0.98394 -7.004,2.42412 -12.2643,9.33372 -5.2602,6.9096 -5.5397,14.05259 -0.2794,7.143 4.5618,10.9479 4.8566,3.40806 11.8606,0.98394 7.004,-2.42413 12.2643,-9.33372 5.6649,-7.44111 5.9443,-14.58411 z m 1.5213,-38.88965 q 0.2794,-7.143 -4.9664,-10.41638 -4.8567,-3.40807 -11.8607,-0.98394 -7.004,2.42413 -12.2642,9.33372 -5.2603,6.90959 -5.5397,14.05259 -0.2794,7.143 4.5773,10.55107 4.8566,3.40806 11.8606,0.98393 7.004,-2.42412 12.2643,-9.33371 5.6494,-7.04428 5.9288,-14.18728 z m 1.5368,-39.28648 q 0.2794,-7.143 -4.9664,-10.41638 -4.8567,-3.40808 -11.8607,-0.98395 -7.004,2.42413 -12.2642,9.33373 -5.2603,6.90959 -5.5397,14.05259 -0.2794,7.14299 4.5617,10.9479 4.8567,3.40807 11.8607,0.98394 7.004,-2.42413 12.2642,-9.33373 5.665,-7.44111 5.9444,-14.5841 z m 36.5962,26.08841 q 0.2794,-7.143 -4.5772,-10.55106 -4.8567,-3.40807 -11.8607,-0.98394 -7.004,2.42413 -12.2643,9.33372 -5.2602,6.90959 -5.5396,14.05259 -0.2794,7.14299 4.5772,10.55107 4.8567,3.40806 11.8607,0.98393 7.004,-2.42413 12.2642,-9.33372 5.2603,-6.9096 5.5397,-14.05259 z m -35.075,-64.97807 q 0.2794,-7.143 -4.9664,-10.41638 -4.8566,-3.40806 -11.8606,-0.98393 -7.004,2.42412 -12.2643,9.33371 -5.2602,6.9096 -5.5397,14.05259 -0.2794,7.143 4.5773,10.55107 4.8567,3.40807 11.8607,0.98394 7.004,-2.42413 12.2642,-9.33372 5.6494,-7.04428 5.9288,-14.18728 z m 73.5973,51.64528 q 0.2794,-7.143 -4.5773,-10.55106 -4.8567,-3.40803 -11.8607,-0.9839 -7.004,2.42413 -12.2643,9.33372 -5.2603,6.90959 -5.5397,14.05259 -0.2794,7.14299 4.5773,10.55107 4.8566,3.40806 11.8606,0.98393 7.004,-2.42413 12.2644,-9.33375 5.2603,-6.9096 5.5397,-14.0526 z m 110.5981,77.20219 q 0.2794,-7.14297 -4.5773,-10.55103 -4.8567,-3.40806 -11.8607,-0.98393 -7.0041,2.42416 -12.2643,9.33375 -5.2603,6.90959 -5.5397,14.05256 -0.2794,7.14307 4.5617,10.94788 4.8567,3.40806 11.8608,0.9839 7.004,-2.42413 12.2643,-9.33372 5.2757,-7.30634 5.5552,-14.44941 z M 672.3939,-945.60086 q 0.2794,-7.143 -4.9664,-10.41638 -4.8566,-3.40807 -11.8606,-0.98395 -7.004,2.42413 -12.2643,9.33373 -5.2603,6.90959 -5.5397,14.05259 -0.2794,7.143 4.5617,10.9479 4.8567,3.40807 11.8607,0.98394 7.004,-2.42412 12.2643,-9.33372 5.6649,-7.44111 5.9443,-14.58411 z m 110.5827,77.59901 q 0.2794,-7.143 -4.5773,-10.55106 -4.8567,-3.40807 -11.8608,-0.9839 -7.004,2.42412 -12.2642,9.33371 -5.2603,6.9096 -5.5397,14.05259 -0.2794,7.143 4.5772,10.55107 4.8567,3.40807 11.8607,0.98394 7.0041,-2.42416 12.2644,-9.33375 5.2602,-6.90961 5.5397,-14.0526 z m 73.5971,51.64532 q 0.2794,-7.14297 -4.5772,-10.55103 -4.8567,-3.40806 -11.8607,-0.98394 -7.0041,2.42417 -12.2644,9.33376 -5.2602,6.90959 -5.5396,14.05255 -0.2795,7.14297 4.5772,10.55103 4.8567,3.40807 11.8608,0.9839 7.004,-2.42412 12.2642,-9.33371 5.2603,-6.90959 5.5397,-14.05256 z m -35.075,-64.97808 q 0.2794,-7.14299 -4.9664,-10.41638 -4.8566,-3.40806 -11.8606,-0.98393 -7.0041,2.42416 -12.2644,9.33375 -5.2603,6.90959 -5.5397,14.05259 -0.2794,7.143 4.5773,10.55107 4.8566,3.40806 11.8607,0.9839 7.004,-2.42413 12.2643,-9.33372 5.6494,-7.04428 5.9288,-14.18728 z m 36.6118,25.69159 q 0.2794,-7.143 -4.5773,-10.55106 -4.8566,-3.40808 -11.8606,-0.98395 -7.0041,2.42416 -12.2644,9.33376 -5.2602,6.9096 -5.5397,14.05259 -0.2794,7.143 4.5618,10.9479 4.8566,3.40806 11.8607,0.9839 7.004,-2.42413 12.2643,-9.33372 5.2758,-7.30643 5.5552,-14.44942 z m 1.5213,-38.88966 q 0.2794,-7.143 -4.5773,-10.55106 -4.8567,-3.40806 -11.8607,-0.98393 -7.0041,2.42416 -12.2643,9.33375 -5.2603,6.90959 -5.5397,14.05259 -0.2794,7.143 4.5772,10.55107 4.8567,3.40806 11.8608,0.9839 7.004,-2.42413 12.2643,-9.33372 5.2602,-6.9096 5.5397,-14.0526 z m 1.5367,-39.28648 q 0.2794,-7.143 -4.5772,-10.55106 -4.8567,-3.40807 -11.8607,-0.98394 -7.0041,2.42416 -12.2643,9.33376 -5.2603,6.90959 -5.5397,14.05259 -0.2794,7.14299 4.5617,10.9479 4.8567,3.40807 11.8608,0.98391 7.004,-2.42413 12.2642,-9.33373 5.2758,-7.30643 5.5552,-14.44943 z m 1.5213,-38.88965 q 0.2794,-7.143 -4.5773,-10.55106 -4.8566,-3.40807 -11.8606,-0.98394 -7.0041,2.42416 -12.2644,9.33375 -5.2603,6.9096 -5.5397,14.05259 -0.2794,7.143 4.5773,10.55107 4.8566,3.40807 11.8607,0.9839 7.0041,-2.42412 12.2643,-9.33371 5.2603,-6.90961 5.5397,-14.0526 z m 1.5368,-39.28649 q 0.2794,-7.143 -4.5773,-10.551 -4.8566,-3.4081 -11.8606,-0.984 -7.0041,2.4242 -12.2644,9.3338 -5.2603,6.9096 -5.5397,14.0526 -0.2794,7.14295 4.5617,10.94785 4.8567,3.40807 11.8608,0.98391 7.004,-2.42413 12.2643,-9.33373 5.2758,-7.30643 5.5552,-14.44943 z m -458.9511,348.31259 q 0.2794,-7.14297 -4.5772,-10.55103 -4.8412,-3.80491 -11.8452,-1.38078 -7.004,2.42413 -12.2642,9.33372 -5.2603,6.90959 -5.5397,14.05256 -0.2794,7.14306 4.5617,10.94798 4.8567,3.40806 11.8607,0.98393 7.004,-2.42413 12.2643,-9.33372 5.2602,-6.90959 5.5396,-14.05266 z m 27.3963,15.96301 q 0.2794,-7.14307 -4.5773,-10.55113 -4.8566,-3.40806 -11.8606,-0.98393 -7.004,2.42412 -12.6534,9.4684 -5.2603,6.90959 -5.5397,14.05265 -0.2794,7.14297 4.5772,10.55103 4.8567,3.40807 11.8607,0.98394 7.0041,-2.42416 12.2644,-9.33375 5.6493,-7.04424 5.9287,-14.18721 z m -43.5403,-44.82396 q 0.2794,-7.143 -4.5772,-10.55106 -4.8412,-3.8049 -11.8452,-1.38078 -7.004,2.42413 -12.6534,9.4684 -5.2602,6.9096 -5.5397,14.0526 -0.2794,7.143 4.5618,10.94791 4.8566,3.40806 11.8606,0.98393 7.3932,-2.5588 12.6534,-9.46839 5.2603,-6.9096 5.5397,-14.05261 z m 77.9551,48.17974 q 0.2794,-7.14307 -4.5773,-10.55113 -4.8566,-3.40807 -11.8606,-0.98394 -7.0041,2.42416 -12.2644,9.33375 -5.2603,6.9096 -5.5397,14.05266 -0.2794,7.14297 4.5773,10.55103 4.8566,3.40807 11.8607,0.9839 7.0041,-2.42412 12.2643,-9.33371 5.2603,-6.9096 5.5397,-14.05256 z m -81.4768,-85.71546 q 0.2794,-7.143 -4.5772,-10.55107 -4.8412,-3.80489 -11.8452,-1.38076 -7.0041,2.42416 -12.2643,9.33375 -5.2603,6.90959 -5.5397,14.05259 -0.2794,7.14299 4.5617,10.9479 4.8567,3.40807 11.8608,0.98391 7.004,-2.42413 12.2642,-9.33373 5.2603,-6.90959 5.5397,-14.05259 z m 119.3925,78.07306 q 0.2794,-7.14307 -4.5772,-10.55113 -4.8567,-3.40806 -11.8607,-0.98394 -7.004,2.42413 -12.2643,9.33372 -5.2603,6.90963 -5.5398,14.0527 -0.2794,7.14296 4.5774,10.55099 4.8567,3.40806 11.8607,0.98394 7.004,-2.42413 12.2642,-9.33372 5.2603,-6.90959 5.5397,-14.05256 z M 391.4269,-770.8473 q 0.2794,-7.143 -4.5773,-10.55104 -4.8412,-3.8049 -11.8452,-1.38077 -7.004,2.42413 -12.6534,9.46841 -5.2602,6.90959 -5.5397,14.05258 -0.2794,7.143 4.5618,10.9479 4.8566,3.40808 11.8606,0.98395 7.0041,-2.42416 12.2644,-9.33376 5.6494,-7.04428 5.9288,-14.18727 z m 151.9259,100.0872 q 0.2794,-7.14307 -4.9664,-10.41645 -4.8567,-3.40807 -11.8608,-0.9839 -7.004,2.42412 -12.2642,9.33371 -5.2603,6.9096 -5.5397,14.05266 -0.2794,7.14297 4.5772,10.55103 5.2458,3.27339 12.2498,0.84926 7.004,-2.42413 12.2643,-9.33372 5.2603,-6.90962 5.5398,-14.05259 z M 410.6766,-811.56681 q 0.2949,-7.53983 -4.5617,-10.9479 -4.8567,-3.40806 -11.8608,-0.9839 -7.004,2.42413 -12.6534,9.4684 -5.2603,6.9096 -5.5397,14.0526 -0.2794,7.14299 4.5618,10.94789 4.8566,3.40807 11.8606,0.98394 7.3933,-2.55884 12.6535,-9.46843 5.2603,-6.9096 5.5397,-14.0526 z m 168.3017,113.20956 q 0.2794,-7.14307 -4.5773,-10.55113 -4.8566,-3.40807 -11.8606,-0.98394 -7.0041,2.42416 -12.2644,9.33375 -5.2603,6.9096 -5.5397,14.05266 -0.2794,7.14297 4.5773,10.55103 4.8566,3.40807 11.8607,0.9839 7.004,-2.42412 12.2643,-9.33371 5.2603,-6.9096 5.5397,-14.05256 z m 1.5368,-39.28658 q 0.2794,-7.14296 -4.5773,-10.55103 -4.8567,-3.40806 -11.8607,-0.98393 -7.0041,2.42416 -12.2798,9.7306 -5.2603,6.90959 -5.5397,14.05256 -0.2794,7.14307 4.5772,10.55113 4.8567,3.40806 11.8608,0.9839 7.004,-2.42413 12.2643,-9.33372 5.2757,-7.30644 5.5552,-14.44951 z m -36.6118,-25.69154 q 0.2794,-7.14299 -4.9664,-10.41638 -4.8567,-3.40807 -11.8608,-0.98391 -7.004,2.42413 -12.2642,9.33373 -5.2603,6.90959 -5.5397,14.05259 -0.2794,7.143 4.5772,10.55107 5.2458,3.27338 12.2498,0.84925 7.0041,-2.42416 12.2644,-9.33375 5.2603,-6.9096 5.5397,-14.0526 z m -103.7969,-84.25365 q 0.2794,-7.14299 -4.5773,-10.55107 -4.8567,-3.40806 -11.8608,-0.9839 -7.004,2.42413 -12.2642,9.33372 -5.2603,6.9096 -5.5397,14.0526 -0.2794,7.143 4.5772,10.55106 4.8567,3.40806 11.8607,0.98394 7.0041,-2.42417 12.2644,-9.33376 5.2602,-6.90959 5.5397,-14.05259 z m 141.9299,71.05558 q 0.2794,-7.143 -4.5772,-10.55106 -4.8567,-3.40807 -11.8607,-0.98394 -7.0041,2.42416 -12.2644,9.33376 -5.2602,6.90959 -5.5396,14.05259 -0.2795,7.143 4.5772,10.55107 4.8567,3.40806 11.8608,0.9839 7.004,-2.42413 12.2642,-9.33372 5.2603,-6.9096 5.5397,-14.0526 z m -105.9308,-98.39059 q 0.2794,-7.143 -4.5773,-10.55107 -4.8566,-3.40806 -11.8606,-0.98393 -7.0041,2.42416 -12.6535,9.46843 -5.2603,6.9096 -5.5397,14.0526 -0.2794,7.143 4.5772,10.55106 4.8567,3.40807 11.8608,0.98391 7.004,-2.42413 12.2643,-9.33373 5.6494,-7.04427 5.9288,-14.18727 z m 38.3348,-18.35691 q 0.2794,-7.14299 -4.5772,-10.55106 -4.8567,-3.40807 -11.8607,-0.98394 -7.004,2.42413 -12.2643,9.33373 -5.2603,6.90962 -5.5398,14.05262 -0.2794,7.143 4.5774,10.55103 4.8567,3.40807 11.8607,0.98394 7.004,-2.42413 12.2642,-9.33372 5.2603,-6.9096 5.5397,-14.0526 z m 37.9313,-8.03927 q 0.2795,-7.143 -4.5773,-10.55103 -4.8567,-3.40807 -11.8607,-0.98394 -7.004,2.42413 -12.2642,9.33372 -5.2603,6.9096 -5.5397,14.0526 -0.2794,7.143 4.5772,10.55106 4.8567,3.40807 11.8607,0.98394 7.004,-2.42412 12.2643,-9.33372 5.2603,-6.90963 5.5397,-14.05263 z m 34.8194,2.82431 q 0.2794,-7.14299 -4.5772,-10.55107 -4.8567,-3.40806 -11.8608,-0.9839 -7.004,2.42413 -12.2643,9.33372 -5.2602,6.9096 -5.5396,14.0526 -0.2795,7.143 4.5772,10.55106 4.8567,3.40806 11.8607,0.98393 7.0041,-2.42416 12.2643,-9.33375 5.2603,-6.90959 5.5397,-14.05259 z m -294.8445,315.78489 q 0.2794,-7.14297 -4.9663,-10.41635 -4.8567,-3.40807 -11.8607,-0.98394 -7.004,2.42413 -12.2643,9.33372 -5.2602,6.90959 -5.5397,14.05256 -0.2794,7.14307 4.5618,10.94787 4.8566,3.40807 11.8606,0.98394 7.004,-2.42413 12.2643,-9.33372 5.6649,-7.44102 5.9443,-14.58408 z m 1.5213,-38.88963 q 0.2794,-7.14296 -4.9664,-10.41635 -4.8567,-3.40806 -11.8607,-0.98393 -7.004,2.42412 -12.2642,9.33372 -5.2603,6.90959 -5.5397,14.05255 -0.2794,7.14297 4.5773,10.55103 4.8566,3.40807 11.8606,0.98394 7.004,-2.42413 12.2643,-9.33372 5.6494,-7.04427 5.9288,-14.18724 z m 1.5368,-39.28649 q 0.2794,-7.143 -4.9664,-10.41638 -4.8567,-3.40807 -11.8607,-0.98395 -7.004,2.42413 -12.2642,9.33373 -5.2603,6.90959 -5.5397,14.05259 -0.2794,7.143 4.5617,10.9479 4.8567,3.40806 11.8607,0.98393 7.004,-2.42412 12.2642,-9.33371 5.665,-7.44111 5.9444,-14.58411 z m 1.5212,-38.88965 q 0.2794,-7.143 -4.9664,-10.41638 -4.8566,-3.40807 -11.8606,-0.98394 -7.004,2.42413 -12.2643,9.33372 -5.2602,6.90959 -5.5397,14.05259 -0.2794,7.143 4.5773,10.55107 4.8567,3.40806 11.8607,0.98393 7.004,-2.42412 12.2642,-9.33372 5.6494,-7.04428 5.9288,-14.18727 z m 1.5368,-39.28649 q 0.2794,-7.14299 -4.9664,-10.41638 -4.8566,-3.40807 -11.8606,-0.98394 -7.004,2.42413 -12.2643,9.33373 -5.2603,6.90959 -5.5397,14.05259 -0.2794,7.14299 4.5617,10.94789 4.8567,3.40808 11.8607,0.98395 7.004,-2.42413 12.2643,-9.33373 5.6649,-7.44111 5.9443,-14.58411 z m 1.5213,-38.88965 q 0.2794,-7.143 -4.9664,-10.41638 -4.8567,-3.40806 -11.8607,-0.98393 -7.004,2.42412 -12.2642,9.33371 -5.2603,6.90959 -5.5397,14.05259 -0.2794,7.143 4.5772,10.55107 4.8567,3.40806 11.8607,0.98394 7.004,-2.42413 12.2643,-9.33372 5.6493,-7.04428 5.9288,-14.18728 z m 1.5367,-39.28648 q 0.2795,-7.143 -4.9663,-10.41638 -4.8567,-3.40807 -11.8607,-0.98395 -7.004,2.42413 -12.2643,9.33373 -5.2602,6.90959 -5.5396,14.05259 -0.2795,7.143 4.5617,10.9479 4.8566,3.40807 11.8606,0.98394 7.004,-2.42412 12.2643,-9.33372 5.6649,-7.44111 5.9443,-14.58411 z M 98.6474,-515.67058 q 0.2794,-7.14297 -4.5773,-10.55103 -4.8566,-3.40806 -11.8607,-0.9839 -7.004,2.42413 -12.2643,9.33372 -5.2603,6.90959 -5.5397,14.05256 -0.2794,7.14307 4.5618,10.94787 4.8566,3.40807 11.8606,0.98394 7.0041,-2.42416 12.2644,-9.33375 5.2758,-7.30634 5.5552,-14.44941 z m 38.5221,-13.33275 q 0.2795,-7.14297 -4.9663,-10.41635 -4.8567,-3.40806 -11.8607,-0.98394 -7.0041,2.42416 -12.2644,9.33376 -5.2602,6.90959 -5.5396,14.05255 -0.2795,7.14307 4.5617,10.94788 4.8567,3.40806 11.8608,0.9839 7.004,-2.42413 12.2642,-9.33372 5.6649,-7.44101 5.9443,-14.58408 z m -37.0009,-25.55687 q 0.2795,-7.14297 -4.5772,-10.55103 -4.8567,-3.40807 -11.8608,-0.9839 -7.004,2.42412 -12.2642,9.33371 -5.2603,6.9096 -5.5397,14.05256 -0.2794,7.14297 4.5772,10.55103 4.8567,3.40806 11.8607,0.98394 7.0041,-2.42416 12.2644,-9.33376 5.2602,-6.90959 5.5396,-14.05255 z m 75.134,12.3588 q 0.2794,-7.14297 -4.5773,-10.55103 -4.8566,-3.40807 -11.8606,-0.98394 -7.004,2.42413 -12.2643,9.33372 -5.2603,6.90959 -5.5397,14.05256 -0.2794,7.14307 4.5618,10.94788 4.8566,3.40806 11.8606,0.98393 7.004,-2.42413 12.2643,-9.33372 5.2758,-7.30634 5.5552,-14.4494 z m -73.5972,-51.6453 q 0.2794,-7.14299 -4.5772,-10.55106 -4.8567,-3.40807 -11.8608,-0.98391 -7.004,2.42413 -12.2643,9.33373 -5.2602,6.90959 -5.5396,14.05259 -0.2795,7.143 4.5617,10.9479 4.8567,3.40806 11.8607,0.98393 7.0041,-2.42416 12.2643,-9.33375 5.2758,-7.30643 5.5552,-14.44943 z m 112.1194,38.31254 q 0.2794,-7.14296 -4.9663,-10.41638 -4.8568,-3.40803 -11.8608,-0.9839 -7.004,2.42413 -12.2643,9.33372 -5.2602,6.90959 -5.5396,14.05255 -0.2795,7.14307 4.5617,10.94788 4.8567,3.40806 11.8607,0.98394 7.004,-2.42413 12.2643,-9.33376 5.6648,-7.44098 5.9443,-14.58405 z m -110.5981,-77.20219 q 0.2794,-7.143 -4.5773,-10.55106 -4.8566,-3.40806 -11.8607,-0.9839 -7.004,2.42413 -12.2643,9.33372 -5.2603,6.90959 -5.5397,14.05259 -0.2794,7.14299 4.5773,10.55107 4.8566,3.40806 11.8606,0.98393 7.0041,-2.42416 12.2644,-9.33375 5.2603,-6.9096 5.5397,-14.0526 z m 1.5368,-39.28648 q 0.2794,-7.143 -4.5773,-10.55106 -4.8567,-3.40807 -11.8608,-0.98391 -7.004,2.42413 -12.2642,9.33373 -5.2603,6.90959 -5.5397,14.05259 -0.2794,7.14299 4.5617,10.94789 4.8567,3.40808 11.8607,0.98395 7.0041,-2.42416 12.2644,-9.33376 5.2757,-7.30643 5.5552,-14.44943 z m 1.5212,-38.88966 q 0.2794,-7.14299 -4.5772,-10.55105 -4.8567,-3.40807 -11.8608,-0.98391 -7.004,2.42413 -12.2643,9.33372 -5.2602,6.90959 -5.5396,14.05259 -0.2795,7.143 4.5772,10.55107 4.8567,3.40806 11.8607,0.98394 7.0041,-2.42417 12.2643,-9.33376 5.2603,-6.9096 5.5397,-14.0526 z m 1.5368,-39.28648 q 0.2794,-7.14299 -4.5773,-10.55106 -4.8566,-3.40807 -11.8607,-0.98391 -7.004,2.42413 -12.2643,9.33373 -5.2602,6.90959 -5.5397,14.05259 -0.2794,7.143 4.5618,10.9479 4.8566,3.40807 11.8606,0.98394 7.0041,-2.42416 12.2644,-9.33376 5.2758,-7.30643 5.5552,-14.44943 z m 727.912,293.05342 q 0.7274,-8.34613 -7.302,-5.57345 -8.0294,2.77268 -8.7568,11.11881 -0.7274,8.34603 7.302,5.57335 8.0294,-2.77268 8.7568,-11.11871 z m 8.4164,-29.55217 q 0.5455,-6.25957 -3.4097,-9.27853 -3.9553,-3.01895 -9.9773,-0.93945 -6.022,2.0795 -10.7653,8.1022 -4.7432,6.02269 -5.2888,12.28227 -0.5455,6.25957 3.4097,9.27853 3.9553,3.01895 9.9773,0.93945 6.022,-2.0795 10.7653,-8.1022 4.7432,-6.02269 5.2888,-12.28227 z M 830.911,-509.7838 q 0.4849,-5.56405 -3.1661,-8.35071 -3.3165,-2.90231 -8.6693,-1.05386 -5.3529,1.84844 -9.7313,7.40788 -4.0438,5.44383 -4.5287,11.00788 -0.485,5.56406 2.8315,8.46636 3.6812,2.43899 9.0341,0.59054 5.3529,-1.84844 9.3664,-6.94456 4.3785,-5.55947 4.8634,-11.12353 z m -7.3696,-27.13649 q 0.5455,-6.25967 -3.4097,-9.27853 -3.9552,-3.01899 -9.9773,-0.93945 -6.022,2.0795 -10.7652,8.10216 -4.7432,6.0226 -5.2888,12.28228 -0.5456,6.25957 3.3794,9.62623 3.9551,3.01899 9.9772,0.93949 6.0221,-2.07954 10.7652,-8.1022 4.7736,-6.3704 5.3192,-12.62998 z m 36.8106,16.97004 q 0.4849,-5.56405 -3.1661,-8.35074 -3.3164,-2.90231 -8.6693,-1.05387 -5.3529,1.84844 -9.7313,7.40792 -4.0439,5.44382 -4.5288,11.00788 -0.4849,5.56405 2.8315,8.46636 3.6814,2.43895 9.0343,0.59051 5.3529,-1.84845 9.3664,-6.94456 4.3783,-5.55944 4.8633,-11.1235 z m -46.7961,-43.87794 q 0.5456,-6.25958 -3.4097,-9.27853 -3.9249,-3.36667 -9.9469,-1.28717 -6.022,2.07951 -11.1301,8.56542 -4.7433,6.0227 -5.2888,12.28227 -0.5456,6.25958 3.4097,9.27853 4.2897,2.90345 10.3118,0.82394 6.022,-2.0795 10.7652,-8.10219 4.7433,-6.0227 5.2888,-12.28227 z m -10.2896,-27.14011 q 0.5456,-6.25957 -3.4097,-9.27853 -3.9552,-3.01895 -9.9772,-0.93945 -6.0221,2.0795 -10.7653,8.1022 -4.7433,6.02269 -5.2888,12.28227 -0.5456,6.25957 3.4097,9.27853 3.9552,3.01895 9.9772,0.93945 6.022,-2.0795 10.7653,-8.1022 4.7433,-6.02269 5.2888,-12.28227 z m 71.7969,36.25666 q 0.5456,-6.25967 -3.4097,-9.27853 -3.9552,-3.01895 -9.9773,-0.93945 -6.022,2.0795 -11.0998,8.21775 -4.7432,6.02255 -5.2888,12.28223 -0.5455,6.25958 3.3793,9.62627 4.2899,2.90341 10.3119,0.82391 6.022,-2.0795 10.7653,-8.1022 4.7736,-6.3704 5.3191,-12.62998 z m -81.752,-63.51228 q 0.5456,-6.25957 -3.4097,-9.27852 -3.9552,-3.01896 -9.9772,-0.93946 -6.0221,2.0795 -11.0999,8.21775 -4.7432,6.02266 -5.2887,12.28223 -0.5456,6.25958 3.3792,9.62638 4.2899,2.9033 10.3119,0.8238 6.022,-2.0795 10.7653,-8.10209 4.7736,-6.37051 5.3191,-12.63009 z m -10.32,-26.79225 q 0.5455,-6.25958 -3.4097,-9.27853 -3.9249,-3.36677 -9.947,-1.28727 -6.022,2.0795 -10.7956,8.45001 -4.7432,6.0227 -5.2888,12.28227 -0.5455,6.25958 3.4097,9.27853 3.9553,3.01886 9.9773,0.93935 6.022,-2.0795 10.7653,-8.10209 4.7432,-6.0227 5.2888,-12.28227 z m 107.4523,55.31202 q 0.5455,-6.25958 -3.4097,-9.27853 -3.9553,-3.01896 -9.9773,-0.93946 -6.022,2.0795 -10.7653,8.1022 -4.7432,6.0227 -5.2888,12.28227 -0.5455,6.25958 3.4097,9.27853 3.9553,3.01896 9.9773,0.93946 6.022,-2.07951 10.7653,-8.1022 4.7432,-6.0227 5.2888,-12.28227 z m 99.5208,79.30016 q 0.7274,-8.34613 -7.302,-5.57345 -8.0293,2.77265 -8.7567,11.11878 -0.7274,8.34603 7.3019,5.57338 8.0294,-2.77268 8.7568,-11.11871 z m 8.4163,-29.55217 q 0.5456,-6.25957 -3.4097,-9.27852 -3.9551,-3.01899 -9.9772,-0.93946 -6.0221,2.0795 -11.0998,8.21771 -4.7433,6.0227 -5.2888,12.28227 -0.5456,6.25958 3.4097,9.27853 4.2897,2.90345 10.3117,0.82394 6.0222,-2.07953 10.7653,-8.10219 4.7433,-6.0227 5.2888,-12.28228 z m -13.2389,-23.08607 q 0.485,-5.56406 -3.166,-8.35075 -3.3164,-2.90231 -8.6693,-1.05386 -5.353,1.84847 -9.7313,7.40791 -4.3784,5.55934 -4.8633,11.1234 -0.4849,5.56405 3.166,8.35085 3.6813,2.43898 9.0342,0.5905 5.3529,-1.84844 9.3665,-6.94456 4.3783,-5.55944 4.8632,-11.12349 z m -78.8925,-62.81318 q 0.5456,-6.25958 -3.7442,-9.16302 -3.9552,-3.01895 -9.9773,-0.93945 -6.022,2.0795 -10.7652,8.1022 -4.7433,6.02269 -5.2889,12.28227 -0.5455,6.25957 3.4097,9.27853 3.9553,3.01895 9.9773,0.93945 6.022,-2.0795 10.7653,-8.1022 5.0778,-6.13821 5.6233,-12.39778 z m 71.523,35.67665 q 0.5456,-6.25967 -3.4097,-9.27853 -3.9552,-3.01895 -9.9773,-0.93945 -6.022,2.0795 -10.7652,8.1022 -4.7433,6.02259 -5.2889,12.28227 -0.5455,6.25957 3.3794,9.62624 3.9553,3.01895 9.9773,0.93945 6.022,-2.0795 10.7653,-8.1022 4.7736,-6.3704 5.3191,-12.62998 z m 36.8106,16.97004 q 0.4849,-5.56405 -3.1661,-8.35071 -3.3164,-2.90231 -8.6693,-1.05387 -5.3529,1.84845 -9.7313,7.40789 -4.0438,5.44382 -4.5287,11.00788 -0.485,5.56405 2.8315,8.46636 3.6812,2.43898 9.0341,0.59054 5.3529,-1.84844 9.3664,-6.94456 4.3785,-5.55948 4.8634,-11.12353 z m -46.796,-43.87795 q 0.5455,-6.25957 -3.7443,-9.16298 -3.925,-3.36666 -9.947,-1.28716 -6.022,2.0795 -10.7956,8.44991 -4.7431,6.02266 -5.2887,12.28223 -0.5455,6.25958 3.4096,9.27857 4.2899,2.90341 10.3119,0.8239 6.022,-2.0795 10.7653,-8.1022 4.7432,-6.02269 5.2888,-12.28227 z m -49.4725,-42.9537 q 0.4849,-5.56406 -3.1964,-8.00301 -3.3165,-2.9023 -8.6694,-1.05386 -5.3528,1.84844 -9.7312,7.40788 -4.0135,5.09612 -4.4985,10.66017 -0.4849,5.56406 2.8315,8.46637 3.6813,2.43898 9.0342,0.59054 5.3529,-1.84845 9.3664,-6.94456 4.3785,-5.55948 4.8634,-11.12353 z m 39.1828,15.81363 q 0.5455,-6.25957 -3.4097,-9.27852 -3.9553,-3.01896 -9.9773,-0.93946 -6.022,2.0795 -10.7653,8.1022 -4.7432,6.0227 -5.2888,12.28227 -0.5455,6.25957 3.4097,9.27853 3.9553,3.01896 9.9773,0.93945 6.022,-2.0795 10.7653,-8.10219 4.7432,-6.0227 5.2888,-12.28228 z m 71.7969,36.25667 q 0.5455,-6.25968 -3.7443,-9.16302 -3.9552,-3.01896 -9.9772,-0.93945 -6.022,2.0795 -10.7653,8.10219 -4.7433,6.0226 -5.2888,12.28227 -0.5456,6.25958 3.3794,9.62624 3.9552,3.01896 9.9772,0.93946 6.0221,-2.07951 10.7653,-8.1022 5.1081,-6.48592 5.6537,-12.74549 z m -81.5388,-62.23676 q 0.485,-5.56405 -3.1963,-8.00303 -3.3164,-2.90231 -8.6693,-1.05387 -5.3529,1.84845 -9.7313,7.40792 -4.0136,5.09612 -4.4985,10.66017 -0.4849,5.56406 2.8315,8.46636 3.6814,2.43895 9.0343,0.59051 5.3528,-1.84844 9.3664,-6.94456 4.3783,-5.55944 4.8632,-11.1235 z m -10.806,-24.93799 q 0.5455,-6.25958 -3.4096,-9.27857 -3.9553,-3.01895 -9.9773,-0.93945 -6.0221,2.07954 -10.7653,8.1022 -4.7432,6.02269 -5.2888,12.28227 -0.5455,6.25957 3.4097,9.27853 3.9552,3.01899 9.9773,0.93945 6.022,-2.0795 10.7653,-8.1022 4.7431,-6.02266 5.2887,-12.28223 z m 107.725,52.18223 q 0.5456,-6.25957 -3.4097,-9.27853 -3.9552,-3.01896 -9.9772,-0.93945 -6.022,2.0795 -10.7653,8.10219 -4.7433,6.0227 -5.2888,12.28228 -0.5456,6.25957 3.4097,9.27852 3.9552,3.01896 9.9772,0.93946 6.0221,-2.0795 10.7653,-8.1022 4.7433,-6.0227 5.2888,-12.28227 z m 15.8059,-36.15129 q 0.5455,-6.25958 -3.7443,-9.16299 -3.9553,-3.01895 -9.9773,-0.93945 -6.022,2.0795 -10.7653,8.1022 -4.7432,6.02266 -5.2887,12.28224 -0.5456,6.25957 3.4096,9.27856 3.9552,3.01896 9.9773,0.93945 6.022,-2.0795 10.7652,-8.1022 5.0779,-6.13824 5.6235,-12.39781 z m 15.4712,-36.03575 q 0.5455,-6.25957 -3.4097,-9.27853 -3.9553,-3.01895 -9.9773,-0.93945 -6.022,2.0795 -11.0999,8.21774 -4.7431,6.02267 -5.2887,12.28224 -0.5455,6.25958 3.3793,9.62627 4.2899,2.90341 10.3119,0.82391 6.022,-2.0795 10.7653,-8.1022 4.7432,-6.02259 5.3191,-12.62998 z m 15.4409,-35.68793 q 0.5455,-6.25968 -3.4097,-9.27853 -3.9553,-3.01896 -9.9773,-0.93945 -6.022,2.0795 -10.7653,8.10219 -4.7432,6.0226 -5.2888,12.28227 -0.5455,6.25958 3.4097,9.27853 3.9553,3.01886 9.9773,0.93936 6.022,-2.07951 10.7653,-8.1021 4.7432,-6.0227 5.2888,-12.28227 z m -565.8718,357.30352 q 0.5455,-6.25968 -3.4097,-9.27853 -3.925,-3.36677 -9.947,-1.28727 -6.022,2.0795 -11.0998,8.21771 -4.7432,6.0227 -5.2888,12.28227 -0.5455,6.25958 3.3794,9.62624 3.9552,3.01896 9.9773,0.93945 6.022,-2.0795 10.7652,-8.10219 5.0778,-6.13811 5.6234,-12.39768 z m 22.1181,14.28598 q 0.5455,-6.25957 -3.4097,-9.27853 -3.9553,-3.01896 -9.9773,-0.93945 -6.022,2.0795 -10.7653,8.1022 -4.7432,6.02269 -5.2888,12.28227 -0.5455,6.25957 3.4097,9.27853 3.9553,3.01895 9.9773,0.93945 6.022,-2.0795 10.7653,-8.1022 4.7432,-6.0227 5.2888,-12.28227 z m -34.8407,-39.57413 q 0.5456,-6.25958 -3.4096,-9.27857 -3.9249,-3.36666 -9.9469,-1.28716 -6.022,2.0795 -10.7653,8.1022 -4.7433,6.02259 -5.2888,12.28217 -0.5456,6.25967 3.3794,9.62634 3.9552,3.01895 9.9772,0.93945 6.0221,-2.0795 10.7653,-8.1022 4.7432,-6.02266 5.2887,-12.28223 z m 64.1033,42.62348 q 0.5455,-6.25957 -3.4096,-9.27856 -3.9553,-3.01886 -9.9773,-0.93935 -6.022,2.0795 -11.0999,8.21764 -4.7433,6.0227 -5.2888,12.28227 -0.5455,6.25957 3.4097,9.27853 3.9552,3.01896 9.9773,0.93945 6.022,-2.0795 10.7652,-8.1022 5.0778,-6.1382 5.6234,-12.39778 z m -65.1174,-75.66492 q 0.5456,-6.25957 -3.4097,-9.27853 -3.9249,-3.36666 -9.9469,-1.28716 -6.0221,2.0795 -11.0998,8.21771 -4.7433,6.0227 -5.2889,12.28227 -0.5455,6.25957 3.3794,9.62624 3.9553,3.01895 9.9773,0.93945 6.022,-2.0795 10.7653,-8.1022 5.0778,-6.13821 5.6233,-12.39778 z m 97.1451,69.32732 q 0.5456,-6.25967 -3.4097,-9.27853 -3.9552,-3.01895 -9.9772,-0.93945 -6.0221,2.0795 -10.7653,8.1022 -4.7432,6.02256 -5.2887,12.28223 -0.5456,6.25958 3.4096,9.27857 3.9552,3.01885 9.9772,0.93935 6.022,-2.0795 10.7653,-8.1021 4.7433,-6.02269 5.2888,-12.28227 z m -90.799,-104.91028 q 0.5456,-6.25957 -3.4097,-9.27852 -3.9249,-3.36667 -9.9469,-1.28717 -6.022,2.07951 -10.7653,8.1021 -4.7433,6.0227 -5.2888,12.28227 -0.5456,6.25968 3.3794,9.62634 3.9552,3.01896 9.9773,0.93945 6.022,-2.0795 10.7652,-8.10219 4.7433,-6.0227 5.2888,-12.28228 z m 124.0099,88.71989 q 0.5456,-6.25957 -3.4097,-9.27853 -3.9552,-3.01885 -9.9773,-0.93935 -6.022,2.07951 -10.7652,8.1021 -4.7432,6.02266 -5.2887,12.28224 -0.5456,6.25957 3.4096,9.27856 3.9552,3.01896 9.9772,0.93945 6.022,-2.0795 10.7653,-8.10219 4.7433,-6.0227 5.2888,-12.28228 z M 536.1562,-523.0155 q 0.5456,-6.25957 -3.4097,-9.27852 -3.9248,-3.36681 -9.9469,-1.28727 -6.022,2.0795 -10.7653,8.1022 -4.7432,6.02266 -5.2887,12.28224 -0.5456,6.25957 3.3793,9.62637 3.9552,3.01896 9.9772,0.93945 6.0221,-2.07953 10.7653,-8.10219 4.7433,-6.0227 5.2888,-12.28228 z m 137.2757,100.32888 q 0.5456,-6.25957 -3.4097,-9.27853 -3.9552,-3.01895 -9.9772,-0.93945 -6.0221,2.0795 -10.7653,8.1022 -4.7433,6.0227 -5.2888,12.28227 -0.5456,6.25957 3.4097,9.27853 3.9552,3.01895 9.9772,0.93945 6.022,-2.0795 10.7653,-8.1022 4.7433,-6.02269 5.2888,-12.28227 z M 562.5792,-554.40089 q 0.5456,-6.25957 -3.4097,-9.27853 -3.9552,-3.01896 -9.9772,-0.93945 -6.022,2.0795 -10.7653,8.10219 -4.7433,6.0227 -5.2888,12.28228 -0.5456,6.25957 3.4097,9.27853 3.9552,3.01895 9.9773,0.93945 6.022,-2.0795 10.7652,-8.1022 4.7433,-6.0227 5.2888,-12.28227 z m 137.2756,100.32891 q 0.5456,-6.25957 -3.4096,-9.27856 -3.9552,-3.01896 -9.9772,-0.93946 -6.022,2.07951 -10.7956,8.45001 -4.7433,6.0226 -5.2888,12.28227 -0.5456,6.25958 3.4097,9.27843 3.9552,3.01896 9.9772,0.93946 6.0221,-2.07951 10.7653,-8.1022 4.7735,-6.37037 5.319,-12.62995 z M 594.1757,-578.12862 q 0.5455,-6.25957 -3.4097,-9.27853 -3.9553,-3.01895 -9.9773,-0.93945 -6.022,2.0795 -10.7653,8.1022 -4.7433,6.0227 -5.2888,12.28227 -0.5456,6.25957 3.4097,9.27853 3.9552,3.01896 9.9773,0.93945 6.022,-2.0795 10.7652,-8.1022 4.7433,-6.02269 5.2889,-12.28227 z m 123.4014,88.2554 q 0.5456,-6.25957 -3.4097,-9.27843 -3.9552,-3.01895 -9.9773,-0.93945 -6.022,2.0795 -10.7955,8.44991 -4.7433,6.02269 -5.2889,12.28227 -0.5455,6.25957 3.4097,9.27853 3.9553,3.01895 9.9773,0.93945 6.022,-2.0795 10.7653,-8.1022 4.7736,-6.3704 5.3191,-12.63008 z m -89.8862,-104.21352 q 0.5455,-6.25957 -3.7444,-9.16298 -3.9552,-3.01896 -9.9772,-0.93946 -6.022,2.07951 -10.7653,8.1022 -4.7432,6.02267 -5.2887,12.28224 -0.5456,6.25957 3.4096,9.27856 4.2898,2.90341 10.3119,0.82391 6.022,-2.0795 10.7652,-8.1022 4.7433,-6.0227 5.2889,-12.28227 z m 97.236,68.28399 q 0.5455,-6.25957 -3.4097,-9.27853 -3.9553,-3.01895 -10.3119,-0.8239 -6.022,2.0795 -10.7956,8.4499 -4.7431,6.02267 -5.2887,12.28224 -0.5455,6.25957 3.4096,9.27856 4.2899,2.90341 10.3119,0.82391 6.022,-2.0795 10.7653,-8.1022 4.7735,-6.3704 5.3191,-12.62998 z m -64.8435,-75.08491 q 0.5456,-6.25958 -3.7443,-9.16299 -3.9552,-3.01895 -9.9773,-0.93945 -6.022,2.0795 -10.7652,8.1022 -4.7432,6.02266 -5.2887,12.28224 -0.5456,6.25957 3.4096,9.27856 3.9552,3.01896 9.9772,0.93945 6.3566,-2.19505 11.0999,-8.21774 4.7433,-6.0227 5.2888,-12.28227 z m 64.4984,41.81245 q 0.5455,-6.25957 -3.7442,-9.16302 -3.9553,-3.01885 -9.9773,-0.93935 -6.022,2.07951 -10.7956,8.44991 -4.7433,6.0227 -5.2888,12.28227 -0.5455,6.25957 3.4097,9.27853 4.2898,2.90344 10.3118,0.82394 6.022,-2.0795 10.7653,-8.1022 4.7735,-6.3704 5.3191,-12.63008 z m -35.54,-38.9953 q 0.5455,-6.25957 -3.4097,-9.27853 -3.9553,-3.01895 -9.9773,-0.93945 -6.022,2.0795 -10.7653,8.1022 -4.7431,6.02266 -5.2887,12.28223 -0.5455,6.25958 3.4096,9.27857 3.9553,3.01895 9.9773,0.93945 6.022,-2.0795 10.7653,-8.1022 4.7432,-6.02269 5.2888,-12.28227 z m 22.4526,14.17048 q 0.5456,-6.25958 -3.4097,-9.27853 -3.9552,-3.01896 -9.9772,-0.93946 -6.022,2.0795 -10.7956,8.45001 -4.7433,6.0227 -5.2888,12.28227 -0.5456,6.25958 3.4097,9.27853 3.9552,3.01896 9.9772,0.93946 6.022,-2.07951 10.7653,-8.1022 4.7736,-6.37051 5.3191,-12.63008 z M 260.151,-264.45864 q 0.5455,-6.25958 -3.7443,-9.16288 -3.9552,-3.01899 -9.9772,-0.93949 -6.0221,2.07954 -10.7653,8.1022 -4.7432,6.02259 -5.2888,12.28217 -0.5455,6.25967 3.3794,9.62634 3.9552,3.01899 9.9773,0.93945 6.022,-2.0795 10.7652,-8.10216 5.1081,-6.48596 5.6537,-12.74563 z m 2.9702,-34.07995 q 0.5455,-6.25958 -3.7443,-9.16298 -3.9552,-3.01889 -9.9772,-0.93939 -6.0221,2.07954 -10.7653,8.1021 -4.7432,6.02269 -5.2888,12.28227 -0.5455,6.25957 3.4097,9.27853 3.9552,3.01899 9.9773,0.93945 6.022,-2.0795 10.7652,-8.10216 5.0779,-6.13825 5.6234,-12.39782 z m 3.0005,-34.42766 q 0.5456,-6.25957 -3.7443,-9.16298 -3.9551,-3.01899 -9.9772,-0.93949 -6.0221,2.07954 -10.7652,8.1022 -4.7433,6.0227 -5.2889,12.28227 -0.5455,6.25957 3.3794,9.62624 3.9552,3.01899 9.9773,0.93945 6.022,-2.0795 10.7652,-8.10216 5.1082,-6.48595 5.6537,-12.74553 z m 2.9702,-34.07995 q 0.5456,-6.25957 -3.7443,-9.16298 -3.9551,-3.01899 -9.9772,-0.93949 -6.0221,2.07954 -10.7652,8.1022 -4.7433,6.0227 -5.2889,12.28227 -0.5455,6.25958 3.4097,9.27853 3.9552,3.01899 9.9773,0.93946 6.022,-2.07951 10.7652,-8.10217 5.0779,-6.13824 5.6234,-12.39782 z m 3.0005,-34.42775 q 0.5456,-6.25958 -3.7443,-9.16299 -3.9551,-3.01899 -9.9771,-0.93949 -6.0222,2.07954 -10.7653,8.1022 -4.7433,6.0227 -5.2888,12.28227 -0.5456,6.25958 3.3794,9.62634 3.9551,3.01889 9.9772,0.93936 6.022,-2.07951 10.7652,-8.10207 5.1082,-6.48605 5.6537,-12.74562 z m 29.7861,23.106 q 0.5455,-6.25957 -3.4097,-9.27853 -3.9552,-3.01895 -9.9773,-0.93945 -6.022,2.0795 -10.7652,8.1022 -4.7433,6.0227 -5.2889,12.28227 -0.5455,6.25957 3.4097,9.27853 3.9553,3.01896 9.9773,0.93945 6.022,-2.0795 10.7653,-8.1022 4.7433,-6.02269 5.2888,-12.28227 z m -26.8159,-57.18595 q 0.5456,-6.25958 -3.7443,-9.16299 -3.9551,-3.01899 -9.9771,-0.93948 -6.0221,2.07953 -10.7653,8.1022 -4.7433,6.02269 -5.2888,12.28227 -0.5456,6.25957 3.4097,9.27853 3.9551,3.01899 9.9772,0.93945 6.0221,-2.0795 10.7652,-8.10217 5.0779,-6.13824 5.6234,-12.39781 z m 59.937,45.74869 q 0.5455,-6.25957 -3.4096,-9.27856 -3.9553,-3.01896 -9.9773,-0.93946 -6.022,2.07951 -10.7653,8.1022 -4.7432,6.0227 -5.2888,12.28227 -0.5455,6.25958 3.4097,9.27853 3.9553,3.01896 9.9773,0.93946 6.022,-2.07951 10.7653,-8.1022 4.7431,-6.02266 5.2887,-12.28224 z m 90.088,68.39121 q 0.5456,-6.25957 -3.4097,-9.27843 -3.9552,-3.01895 -9.9773,-0.93945 -6.022,2.0795 -10.7652,8.1022 -4.7433,6.02259 -5.2888,12.28217 -0.5456,6.25967 3.3794,9.62634 3.9552,3.01895 9.9772,0.93945 6.022,-2.0795 10.7653,-8.1022 4.7736,-6.3704 5.3191,-12.63008 z M 278.0632,-469.98156 q 0.5455,-6.25968 -3.7443,-9.16298 -3.9552,-3.01899 -9.9772,-0.93949 -6.0221,2.07954 -10.7653,8.1022 -4.7433,6.02259 -5.2888,12.28227 -0.5456,6.25957 3.3794,9.62624 3.9551,3.01899 9.9773,0.93945 6.022,-2.0795 10.7651,-8.10216 5.1082,-6.48596 5.6538,-12.74553 z m 90.0576,68.73905 q 0.5455,-6.25957 -3.4097,-9.27852 -3.9553,-3.01896 -9.9773,-0.93946 -6.022,2.0795 -10.7653,8.1022 -4.7432,6.0227 -5.2888,12.28227 -0.5455,6.25957 3.4097,9.27853 3.9553,3.01896 9.9773,0.93945 6.022,-2.0795 10.7653,-8.10219 4.7432,-6.0227 5.2888,-12.28228 z m 59.937,45.74856 q 0.5456,-6.25957 -3.4097,-9.27853 -3.9552,-3.01885 -9.9772,-0.93935 -6.0221,2.0795 -10.7653,8.1021 -4.7433,6.02269 -5.2888,12.28227 -0.5456,6.25957 3.4097,9.27853 3.9552,3.01895 9.9772,0.93945 6.0221,-2.0795 10.7653,-8.1022 4.7433,-6.02269 5.2888,-12.28227 z m -26.8159,-57.18582 q 0.5455,-6.25957 -3.7442,-9.16301 -3.9553,-3.01896 -9.9773,-0.93946 -6.022,2.0795 -10.7653,8.1022 -4.7432,6.0227 -5.2888,12.28227 -0.5455,6.25957 3.4097,9.27853 3.9553,3.01896 9.9773,0.93945 6.022,-2.0795 10.7652,-8.10219 5.0778,-6.13821 5.6234,-12.39779 z m 29.8164,22.75817 q 0.5456,-6.25958 -3.4097,-9.27853 -3.9552,-3.01896 -9.9772,-0.93946 -6.022,2.07951 -10.7653,8.1022 -4.7433,6.0227 -5.2888,12.28227 -0.5456,6.25958 3.3794,9.62624 3.9552,3.01896 9.9772,0.93945 6.0221,-2.0795 10.7653,-8.10219 4.7736,-6.37041 5.3191,-12.62998 z m 2.9703,-34.07995 q 0.5455,-6.25958 -3.4097,-9.27853 -3.9553,-3.01896 -9.9773,-0.93946 -6.022,2.07951 -10.7653,8.1022 -4.7433,6.0227 -5.2888,12.28227 -0.5456,6.25958 3.4097,9.27853 3.9552,3.01896 9.9773,0.93946 6.022,-2.0795 10.7652,-8.1022 4.7433,-6.0227 5.2889,-12.28227 z m 3.0005,-34.42776 q 0.5455,-6.25957 -3.4097,-9.27853 -3.9553,-3.01896 -9.9773,-0.93945 -6.022,2.0795 -10.7653,8.10219 -4.7432,6.0227 -5.2888,12.28227 -0.5455,6.25958 3.3794,9.62635 3.9553,3.01885 9.9773,0.93935 6.022,-2.07951 10.7652,-8.1021 4.7736,-6.37051 5.3192,-12.63008 z m 2.9702,-34.07995 q 0.5455,-6.25957 -3.4097,-9.27853 -3.9553,-3.01895 -9.9773,-0.93945 -6.022,2.0795 -10.7653,8.1022 -4.7432,6.02269 -5.2888,12.28227 -0.5455,6.25957 3.4097,9.27853 3.9553,3.01895 9.9773,0.93945 6.022,-2.0795 10.7653,-8.1022 4.7432,-6.0227 5.2888,-12.28227 z m 3.0005,-34.42766 q 0.5456,-6.25967 -3.4097,-9.27853 -3.9553,-3.01895 -9.9773,-0.93945 -6.022,2.0795 -10.7653,8.1022 -4.7432,6.02259 -5.2888,12.28227 -0.5455,6.25957 3.3794,9.62624 3.9553,3.01895 9.9773,0.93945 6.022,-2.0795 10.7653,-8.1022 4.7735,-6.3704 5.3191,-12.62998 z M 94.1109,-218.92729 q 0.5456,-6.25957 -3.7442,-9.16302 -3.9552,-3.01895 -9.9772,-0.93945 -6.0221,2.0795 -10.7956,8.44991 -4.7433,6.02269 -5.2888,12.28227 -0.5456,6.25957 3.4097,9.27853 4.2898,2.90341 10.3118,0.8239 6.0221,-2.0795 10.7653,-8.10219 4.7735,-6.37037 5.319,-12.62995 z m 29.0494,1.77379 q 0.5456,-6.25957 -3.7442,-9.16291 -3.9552,-3.01896 -9.9772,-0.93946 -6.0221,2.07951 -10.7653,8.1022 -4.4088,5.90708 -4.9543,12.16666 -0.5456,6.25967 3.4097,9.27853 3.9552,3.01895 9.9772,0.93945 6.0221,-2.0795 10.7653,-8.1022 4.7736,-6.3704 5.2888,-12.28227 z m 32.8169,-11.66946 q 0.5456,-6.25957 -3.7442,-9.16301 -3.9552,-3.01896 -9.9773,-0.93946 -6.022,2.07951 -10.7956,8.45001 -4.7432,6.0226 -5.2888,12.28217 -0.5152,5.91187 3.44,8.93082 4.2898,2.90345 10.3118,0.82394 6.022,-2.0795 10.7653,-8.1022 4.7433,-6.02269 5.2888,-12.28227 z m 27.914,-29.87646 q 0.5455,-6.25958 -3.7443,-9.16302 -3.9552,-3.01896 -9.9772,-0.93946 -6.022,2.07951 -10.7956,8.45001 -4.7433,6.0226 -5.2888,12.28217 -0.5153,5.91187 3.44,8.93082 4.2897,2.90345 10.3118,0.82394 6.022,-2.0795 10.7652,-8.10219 4.7433,-6.0227 5.2889,-12.28227 z m -58.4566,-77.62768 q 0.5456,-6.25967 -3.4097,-9.27853 -3.9552,-3.01895 -9.9772,-0.93945 -6.0221,2.0795 -10.7956,8.44991 -4.7433,6.02269 -5.2888,12.28227 -0.5456,6.25957 3.4097,9.27853 3.9552,3.01895 9.9772,0.93945 6.022,-2.0795 10.7653,-8.1022 4.7736,-6.3704 5.3191,-12.62998 z m -19.5338,-17.87675 q 0.5456,-6.25958 -3.7442,-9.16302 -3.9552,-3.01896 -9.9772,-0.93945 -6.022,2.0795 -10.7956,8.4499 -4.4087,5.90715 -4.9542,12.16673 -0.5456,6.25957 3.4097,9.27853 3.9552,3.01895 9.9772,0.93945 6.0221,-2.0795 10.7653,-8.1022 4.7735,-6.37037 5.319,-12.62994 z m 85.9789,59.69155 q 0.5456,-6.25958 -3.7442,-9.16302 -3.9552,-3.01896 -9.9772,-0.93945 -6.022,2.0795 -10.7956,8.4499 -4.7433,6.0227 -5.2888,12.28227 -0.5456,6.25958 3.4097,9.27853 4.2897,2.90345 10.3117,0.82395 6.0221,-2.07951 10.7653,-8.1022 4.7736,-6.37041 5.3191,-12.62998 z m -39.2493,-33.66699 q 0.5456,-6.25957 -3.7442,-9.16302 -3.9552,-3.01895 -9.9772,-0.93945 -5.6875,1.96399 -10.4307,7.98665 -4.7433,6.0227 -5.2888,12.28227 -0.5456,6.25958 3.4097,9.27853 3.9551,3.01899 9.9772,0.93946 6.0221,-2.07951 10.7653,-8.1022 4.7432,-6.02266 5.2887,-12.28224 z m 26.162,8.84216 q 0.5455,-6.25957 -3.7443,-9.16298 -3.9552,-3.01899 -9.9773,-0.93946 -6.022,2.07951 -10.7955,8.44988 -4.7432,6.02269 -5.2888,12.28227 -0.5455,6.25957 3.4097,9.27853 4.2898,2.90344 10.3118,0.82394 6.022,-2.0795 10.7653,-8.1022 4.7735,-6.3704 5.3191,-12.62998 z m -70.2559,-68.83116 q 0.5456,-6.25957 -3.7442,-9.16302 -3.9552,-3.01895 -9.6427,-1.05496 -6.022,2.0795 -10.7956,8.44991 -4.7433,6.02269 -5.2888,12.28227 -0.5456,6.25957 3.4097,9.27853 3.9855,2.67114 10.0076,0.59164 6.022,-2.0795 10.7652,-8.1021 4.7433,-6.02269 5.2888,-12.28227 z m 26.3928,-31.03769 q 0.5455,-6.25957 -3.7442,-9.16301 -3.9553,-3.01886 -9.9773,-0.93935 -6.022,2.0795 -10.7956,8.4499 -4.7433,6.0227 -5.2888,12.28227 -0.5153,5.91177 3.44,8.93072 4.2898,2.90345 10.3118,0.82394 6.022,-2.0795 10.7653,-8.10219 4.7432,-6.0227 5.2888,-12.28228 z m 32.8459,-15.72692 q 0.5456,-6.25968 -3.4096,-9.27857 -3.9552,-3.01895 -9.9772,-0.93945 -6.022,2.0795 -10.7653,8.1022 -4.7433,6.02259 -5.2888,12.28227 -0.5456,6.25957 3.4097,9.27843 4.2897,2.90344 10.3118,0.82394 6.022,-2.0795 10.4307,-7.98669 4.7432,-6.02256 5.2887,-12.28213 z m 30.144,0.38399 q 0.5455,-6.25958 -3.4097,-9.27853 -3.9552,-3.01899 -9.9772,-0.93949 -6.0221,2.07954 -10.7956,8.44991 -4.7432,6.0227 -5.2888,12.28227 -0.5455,6.25957 3.4097,9.27853 3.9552,3.01899 9.9773,0.93945 6.022,-2.0795 10.7652,-8.10216 4.7735,-6.37041 5.3191,-12.62998 z"
         style="opacity:1;fill:#fefefe;fill-opacity:1;stroke:#e49595;stroke-width:0.096;stroke-miterlimit:4;stroke-dasharray:none;stroke-opacity:0.77294683"
         id="path5161" />
    </g>
  </g>
</svg>
