<?xml version="1.0" encoding="UTF-8" standalone="no"?>
<!-- Created with Inkscape (http://www.inkscape.org/) -->

<svg
   xmlns:dc="http://purl.org/dc/elements/1.1/"
   xmlns:cc="http://creativecommons.org/ns#"
   xmlns:rdf="http://www.w3.org/1999/02/22-rdf-syntax-ns#"
   xmlns:svg="http://www.w3.org/2000/svg"
   xmlns="http://www.w3.org/2000/svg"
   xmlns:sodipodi="http://sodipodi.sourceforge.net/DTD/sodipodi-0.dtd"
   xmlns:inkscape="http://www.inkscape.org/namespaces/inkscape"
   width="12in"
   height="24in"
   viewBox="0 0 1152 2304"
   version="1.1"
   id="svg2815"
   inkscape:version="0.92.3 (2405546, 2018-03-11)"
   sodipodi:docname="12x24 Sheet Calculator - Yellow (Holiday).svg">
  <defs
     id="defs2809" />
  <sodipodi:namedview
     id="base"
     pagecolor="#1f1f1f"
     bordercolor="#666666"
     borderopacity="1.0"
     inkscape:pageopacity="0"
     inkscape:pageshadow="2"
     inkscape:zoom="0.61580177"
     inkscape:cx="153.7124"
     inkscape:cy="1607.0344"
     inkscape:document-units="in"
     inkscape:current-layer="layer1"
     showgrid="true"
     inkscape:snap-global="false"
     showguides="true"
     units="in"
     gridtolerance="10"
     inkscape:window-width="1920"
     inkscape:window-height="1017"
     inkscape:window-x="-8"
     inkscape:window-y="-8"
     inkscape:window-maximized="1">
    <inkscape:grid
       type="xygrid"
       id="grid3368" />
  </sodipodi:namedview>
  <metadata
     id="metadata2812">
    <rdf:RDF>
      <cc:Work
         rdf:about="">
        <dc:format>image/svg+xml</dc:format>
        <dc:type
           rdf:resource="http://purl.org/dc/dcmitype/StillImage" />
        <dc:title></dc:title>
      </cc:Work>
    </rdf:RDF>
  </metadata>
  <g
     inkscape:label="Layer 1"
     inkscape:groupmode="layer"
     id="layer1"
     transform="translate(0,1159.8)">
    <path
       style="font-style:normal;font-variant:normal;font-weight:normal;font-stretch:normal;font-size:332.52804565px;line-height:125%;font-family:'Script MT Bold';-inkscape-font-specification:'Script MT Bold, ';font-variant-ligatures:normal;font-variant-caps:normal;font-variant-numeric:normal;font-feature-settings:normal;text-align:start;letter-spacing:0px;word-spacing:0px;writing-mode:lr-tb;text-anchor:start;fill:#fffe00;fill-opacity:1;stroke:none;stroke-width:1.80360878px;stroke-linecap:butt;stroke-linejoin:miter;stroke-opacity:1"
       d="m 801.48301,-1107.5415 c -0.367,0 -0.8,0.076 -1.299,0.2433 -6.0874,2.0345 -18.0087,8.6276 -35.7624,19.7819 l -27.7512,123.49206 c -3.2381,-3.5018 -6.3008,-5.7231 -9.1884,-6.668 -2.7879,-0.9782 -6.7755,-0.6013 -11.9648,1.1331 -18.6613,6.2369 -36.8011,24.45979 -54.4184,54.66841 -13.9792,23.98631 -22.8642,47.61432 -26.6886,70.88484 -9.0393,14.95048 -15.6547,24.98086 -19.8172,30.03448 -4.0901,4.93226 -8.0806,8.04929 -11.9726,9.35004 -2.1955,0.73374 -3.9727,0.0539 -5.3281,-2.03986 -1.2486,-2.2567 -1.7554,-5.52451 -1.522,-9.80452 0.5871,-10.76485 4.6613,-29.76298 12.2208,-56.99209 l 18.2894,-65.89405 -1.7973,0.59959 -38.5836,23.01874 c -13.0482,41.12638 -21.5228,74.5765 -25.4615,100.40936 l 0.2347,-4.31014 c -13.3442,20.12181 -23.1988,33.72994 -29.562,40.82264 -6.3633,7.09268 -12.2395,11.53908 -17.6283,13.34011 -5.2891,1.76769 -9.3493,-0.12204 -12.1819,-5.66934 -2.8328,-5.54726 -3.9425,-13.96271 -3.3272,-25.24637 0.2759,-5.05818 1.1825,-14.46544 2.7164,-28.22079 21.4935,-34.81477 37.6046,-66.17554 48.3362,-94.08283 10.7316,-27.90731 16.8193,-55.08892 18.2622,-81.54708 0.5093,-9.3382 -0.036,-16.415 -1.6344,-21.2285 -1.4922,-4.9767 -3.6846,-6.9823 -6.5786,-6.015 -0.5988,0.2001 -1.5119,0.7602 -2.7377,1.6792 l -39.018,30.99456 c -14.7272,36.5008 -27.6711,75.33387 -38.8317,116.49992 -10.0963,37.24009 -16.2215,68.76066 -18.4,94.60133 -10.4688,16.84855 -18.8703,26.34231 -25.1995,28.45764 -5.5885,1.86772 -10.7617,0.60525 -15.5188,-3.78953 12.1029,-38.67959 18.8165,-70.14738 20.1391,-94.40075 0.2688,-4.92849 0.043,-8.8637 -0.6786,-11.80596 -0.7212,-2.94226 -3.0148,-4.91214 -6.8791,-5.91258 -3.7576,-1.16351 -9.8768,-0.32782 -18.3593,2.50714 -22.4536,7.50432 -42.3442,24.5917 -59.6707,51.26514 -16.2034,24.83318 -25.5301,50.99173 -27.9858,78.47455 -9.0675,15.38697 -16.5222,26.38815 -22.3223,32.88515 -6.0498,6.73322 -11.9682,11.0664 -17.7562,13.00085 -7.1851,2.40136 -12.7224,0.62424 -16.6104,-5.33435 -3.8809,-6.08826 -5.4744,-15.48912 -4.7812,-28.19946 0.5729,-10.50547 3.5934,-29.08758 9.0643,-55.74598 19.3717,-12.077 33.7174,-26.2923 43.0352,-42.64912 0.3254,-5.96607 0.3767,-9.61305 0.1552,-10.93966 -0.2146,-1.45632 -0.9497,-2.35673 -2.2046,-2.70132 -11.8284,13.88521 -23.194,23.79699 -34.099,29.73362 7.0894,-25.79872 15.3977,-50.60576 24.9262,-74.41831 9.6353,-23.97561 16.918,-40.73516 21.8472,-50.27724 4.9364,-9.6718 7.4575,-15.47858 7.5636,-17.42408 0.042,-0.7782 -0.5339,-0.9678 -1.7315,-0.5676 -0.1,0.033 -6.1985,4.04474 -18.2932,12.0343 -11.9949,7.95622 -19.9221,14.10792 -23.7842,18.45467 -3.7624,4.31345 -9.4687,14.62417 -17.1183,30.93278 -7.5429,16.14557 -14.3331,31.97712 -20.3718,47.4927 -6.0388,15.51559 -11.9026,34.09164 -17.5895,55.72892 -8.6742,4.55438 -18.7678,9.07374 -30.2794,13.55776 6.4555,-41.1215 12.0251,-69.59731 16.7092,-85.42412 4.6842,-15.82683 10.2332,-28.63067 16.6453,-38.41366 6.5189,-9.94602 9.8279,-15.82809 9.927,-17.64386 0.071,-1.29697 -3.5446,-3.27015 -10.846,-5.92326 -6.4835,9.29756 -12.9187,15.01215 -19.3054,17.14671 -3.1934,1.06728 -9.1426,1.46468 -17.8474,1.19062 -8.6977,-0.40377 -14.5927,-0.0887 -17.6865,0.94524 -14.2703,4.76941 -29.1689,19.23494 -44.693,43.39593 -15.5239,24.16099 -23.8095,45.83897 -24.8563,65.03415 -0.4739,8.68971 0.7383,16.11593 3.6354,22.27834 2.9041,6.03272 6.3027,8.39755 10.1946,7.09681 3.4928,-1.16735 7.3903,-5.27088 11.6934,-12.31166 4.31,-7.17047 6.572,-12.70101 6.7841,-16.59193 0.1202,-2.20485 -1.3004,-4.02351 -4.2597,-5.45383 -6.4111,-4.60598 -9.3891,-11.05877 -8.9363,-19.35939 0.4526,-8.30062 3.5891,-17.30694 9.4094,-27.0195 5.8274,-9.84227 12.9809,-16.1809 21.4633,-19.01585 3.892,-1.30075 8.9515,-1.52702 15.1756,-0.67854 6.3239,0.81512 11.6308,0.50599 15.922,-0.92818 6.5864,-2.20125 15.2135,-7.69473 25.8821,-16.48097 -23.062,34.82962 -37.5987,59.74157 -43.6092,74.73837 -6.0105,14.9968 -11.3339,33.58479 -15.9724,55.76306 -17.5898,11.73605 -32.0351,26.87822 -43.3339,45.42511 0.068,9.52718 0.4622,14.87091 1.1827,16.03077 12.483,-16.90532 24.7723,-28.46182 36.8677,-34.66895 -5.859,35.57416 -12.5837,61.88841 -20.1759,78.94184 -7.4925,17.02009 -16.3294,27.22995 -26.5084,30.63191 -13.871299,4.63599 -20.073399,-6.46884 -18.609399,-33.31615 0.5943,-10.89457 -1.056,-15.69067 -4.9478,-14.38992 -2.6945,0.90053 -7.85,6.50521 -15.4665,16.81811 -7.5097,10.14986 -11.4306,18.27363 -11.7631,24.3694 -0.4527,8.30061 3.8673,15.32553 12.9594,21.07278 9.0991,5.61758 21.0338,5.95824 35.803299,1.02206 19.9587,-6.67048 38.3161,-21.72045 55.0737,-45.14773 16.8645,-23.59035 29.6077,-57.83596 38.2289,-102.73726 3.407,-1.39336 12.637,-5.37047 27.691,-11.92971 -3.0435,18.07981 -4.8573,32.50303 -5.4444,43.26789 -1.4146,25.93945 1.5023,44.31971 8.7502,55.14001 7.3476,10.78697 16.908,14.21169 28.6837,10.27608 10.4782,-3.502 20.8666,-10.72899 31.1635,-21.68302 10.1949,-10.89392 21.6801,-26.34215 34.4384,-46.28501 0.8434,11.22058 3.5842,19.99233 8.2421,26.28976 6.5698,8.88228 15.6419,11.38818 27.2179,7.51928 18.5616,-6.20355 35.7995,-25.84211 51.7117,-58.91885 6.6893,4.89501 13.6268,6.14181 20.8119,3.74044 2.7942,-0.93387 6.65,-3.36831 11.5674,-7.30378 4.5547,-3.7599 9.3175,-9.02534 14.2856,-15.75551 0.5858,11.63428 3.0623,20.64586 7.4376,27.02163 5.9993,8.5636 14.3374,11.06027 25.0153,7.49156 9.2808,-3.10177 19.2197,-10.17871 29.8161,-21.23281 10.3909,-10.89001 22.5652,-26.31368 36.4935,-46.18686 -0.038,0.57821 -0.091,1.18458 -0.1222,1.7518 -0.7002,12.84002 0.9115,22.80539 4.8355,29.89791 3.9312,6.96279 9.0913,9.37646 15.4781,7.2419 11.4131,-3.81443 29.41,-25.08325 53.9608,-63.73683 0.2007,11.18837 2.8048,20.33351 7.8331,27.42278 5.9207,8.20785 13.1225,10.89407 21.6048,8.05911 7.784,-2.60148 16.7096,-9.97588 26.778,-22.12683 10.1679,-12.18429 19.8138,-28.26983 28.9376,-48.25446 -0.8409,17.21637 0.5399,29.61578 4.1434,37.19743 3.7033,7.54831 9.0985,10.1391 16.1838,7.77107 5.788,-1.93445 12.6014,-7.39654 20.4395,-16.38283 7.6864,-8.85127 18.8849,-24.41059 33.531,-46.55172 0.4071,11.05616 2.7594,20.02041 7.0749,26.87015 5.6074,8.5673 12.8019,11.38247 21.5836,8.44746 8.9814,-3.00172 17.9045,-10.31379 26.7682,-21.93482 8.9634,-11.65436 18.9396,-28.42089 29.9304,-50.30283 -2.8716,36.48569 3.5767,52.0924 19.3442,46.82272 6.2869,-2.10121 13.0364,-7.28541 20.2477,-15.55281 6.9343,-7.95015 18.4632,-23.7433 34.4887,-47.21318 -0.4489,12.52848 1.3311,21.92147 5.3474,28.16959 4.3446,6.56999 10.359,8.57034 18.0432,6.0022 14.2704,-4.76941 31.58129,-23.98811 51.93469,-57.65779 l -11.4122,44.87884 c -37.15729,32.79179 -56.43169,61.96271 -57.82509,87.51305 -0.4597,8.43032 1.069,14.54014 4.5854,18.33093 3.6162,3.75744 8.6163,4.56915 15.0031,2.43459 12.5739,-4.20239 25.03909,-15.37048 37.39319,-33.50606 12.3469,-18.00589 24.0947,-45.6797 35.2429,-83.02154 28.7548,-26.03626 49.9039,-49.14931 63.4477,-69.33791 l 1.2196,-22.37216 c -15.7228,26.01006 -35.3813,49.64386 -58.9768,70.89974 l 47.2155,-165.14264 -41.4066,23.58 -20.395,66.7902 c -6.4215,20.73676 -13.9785,38.92376 -22.6694,54.56166 -8.591,15.6046 -15.9799,24.44173 -22.16699,26.50958 -6.0875,2.0345 -8.8129,-2.78546 -8.1764,-14.45821 0.7711,-14.13697 6.207,-36.58107 16.30979,-67.33423 l 21.8629,-64.0356 -44.09979,24.4804 -17.066,54.21816 c -4.9972,15.765 -8.6071,30.4898 -10.8441,44.1854 -8.8071,13.42516 -15.6817,23.62008 -20.5636,30.48683 -4.9804,6.88515 -9.4166,10.97891 -13.3086,12.27965 -6.0874,2.03451 -8.8271,-2.52542 -8.2188,-13.67938 0.58,-10.63516 5.0446,-31.4189 13.3937,-62.3499 l 16.2827,-61.40466 -8.3837,2.8016 -31.7355,32.1896 c -4.1764,-13.2476 -12.5004,-17.7866 -24.9747,-13.6175 -9.8795,3.3019 -21.5543,12.5522 -35.0219,27.74916 -13.4675,15.197 -24.8231,32.9982 -34.068,53.4053 -7.1387,15.90403 -11.8015,31.52783 -14.0142,46.87177 -15.1527,25.05122 -25.8487,38.64883 -32.0592,40.7245 -2.5947,0.86717 -4.6095,0.0767 -6.0436,-2.37272 -1.4339,-2.4494 -2.0156,-6.13919 -1.7468,-11.06769 1.1457,-21.01093 14.4697,-85.69316 39.9737,-194.04622 6.376,-27.0882 9.603,-41.344 9.6808,-42.7707 0.085,-1.5564 -0.4224,-2.3418 -1.524,-2.3557 z m -160.2771,88.5202 c -5.5649,6.8259 -11.0412,11.138 -16.4299,12.939 -4.7901,1.6009 -10.954,0.541 -18.4911,-3.1793 -3.9715,15.33396 -9.1627,29.67476 -15.5732,43.02256 5.7197,4.7097 12.8715,5.6315 21.4538,2.7631 17.6634,-5.9033 27.3429,-24.4181 29.0404,-55.54536 z m 239.5229,10.1225 c 2.4684,0.051 4.4839,1.2149 6.0435,3.495 2.2756,3.1868 3.2152,8.41346 2.8191,15.67656 -1.0185,18.6764 -6.5735,40.5874 -16.6646,65.73399 -9.9842,24.98354 -19.9665,39.14318 -29.9459,42.47842 -4.0917,1.36746 -7.3672,0.36025 -9.8282,-3.01923 -2.3541,-3.54255 -3.3407,-8.81589 -2.9588,-15.81953 1.0115,-18.5467 6.5593,-40.3288 16.6433,-65.34565 10.1839,-25.0503 20.2652,-39.24126 30.2446,-42.57656 1.3097,-0.4377 2.525,-0.646 3.647,-0.623 z m -329.6011,6.2987 c 1.4012,-0.1479 2.5109,0.9222 3.329,3.21126 0.9422,2.4865 1.2816,6.1302 1.02,10.929 -0.8914,16.3419 -5.8971,37.1781 -15.0186,62.50995 -9.1214,25.33186 -20.5171,49.2601 -34.1882,71.78315 9.1272,-45.19773 17.8335,-80.89752 26.1205,-107.0965 8.3868,-26.2323 14.4264,-39.96406 18.1188,-41.19816 0.2121,-0.071 0.4184,-0.1175 0.6185,-0.1387 z m 168.5639,46.57946 c 2.8539,-0.1181 5.1615,1.1996 6.9218,3.9538 2.447,3.6389 3.4613,9.28335 3.044,16.93548 -1.0255,18.80611 -6.3662,40.39206 -16.0228,64.75677 -9.6567,24.36468 -19.3752,38.18141 -29.1548,41.44995 -4.391,1.4675 -7.7702,0.5605 -10.1384,-2.72265 -2.2686,-3.3165 -3.2082,-8.54108 -2.8192,-15.67442 0.9902,-18.15761 6.4391,-39.90611 16.3448,-65.24538 9.9126,-25.46897 19.5095,-39.75435 28.7903,-42.85605 1.0728,-0.3586 2.0831,-0.5581 3.0343,-0.5975 z m 290.07909,72.04988 c -11.08059,45.08659 -22.15909,69.48288 -33.23629,73.18502 -5.6882,1.90108 -8.2972,-1.49461 -7.8233,-10.18433 0.4668,-8.56001 4.2389,-18.41469 11.3133,-29.56505 7.1672,-11.05402 17.0827,-22.19993 29.74629,-33.43564 z m -593.79809,27.3929 c 0.4473,-0.007 0.854,0.0245 1.2176,0.0938 -14.6918,19.68085 -22.604,39.89776 -23.7357,60.64931 -0.9619,17.63881 2.8294,32.54117 11.3754,44.71031 -9.2095,19.75859 -17.3562,30.82224 -24.4415,33.19026 -5.6881,1.90109 -9.9314,-0.24598 -12.7288,-6.44174 -2.7972,-6.19578 -3.8378,-15.84259 -3.1235,-28.942 1.2873,-23.60488 6.0543,-45.44495 14.3013,-65.5185 8.3466,-20.10691 19.0065,-32.32817 31.9797,-36.66399 2.0957,-0.70041 3.8134,-1.05875 5.1555,-1.07754 z"
       id="path862"
       inkscape:connector-curvature="0" />
    <path
       style="font-style:normal;font-variant:normal;font-weight:normal;font-stretch:normal;font-size:332.52804565px;line-height:125%;font-family:'Script MT Bold';-inkscape-font-specification:'Script MT Bold, ';font-variant-ligatures:normal;font-variant-caps:normal;font-variant-numeric:normal;font-feature-settings:normal;text-align:start;letter-spacing:0px;word-spacing:0px;writing-mode:lr-tb;text-anchor:start;fill:#fffe00;fill-opacity:1;stroke:none;stroke-width:1.80360878px;stroke-linecap:butt;stroke-linejoin:miter;stroke-opacity:1"
       d="m 791.18159,-781.52551 c -0.367,0 -0.8,0.076 -1.299,0.2433 -6.0874,2.0345 -18.0087,8.6276 -35.7624,19.7819 l -27.7512,123.4921 c -3.2381,-3.5018 -6.3008,-5.7231 -9.1884,-6.668 -2.7879,-0.9782 -6.7755,-0.6013 -11.9648,1.1331 -18.6613,6.2369 -36.8011,24.45979 -54.4184,54.66841 -13.9792,23.98631 -22.8642,47.61432 -26.6886,70.88484 -9.0393,14.95048 -15.6547,24.98086 -19.8172,30.03448 -4.0901,4.93226 -8.0806,8.04929 -11.9726,9.35004 -2.1955,0.73374 -3.9727,0.0539 -5.3281,-2.03986 -1.2486,-2.2567 -1.7554,-5.52451 -1.522,-9.80452 0.5871,-10.76485 4.6613,-29.76298 12.2208,-56.99209 l 18.2894,-65.89405 -1.7973,0.59959 -38.5836,23.01874 c -13.0482,41.12638 -21.5228,74.5765 -25.4615,100.40936 l 0.2347,-4.31014 c -13.3442,20.12181 -23.1988,33.72994 -29.562,40.82264 -6.3633,7.09268 -12.2395,11.53908 -17.6283,13.34011 -5.2891,1.76769 -9.3493,-0.12204 -12.1819,-5.66934 -2.8328,-5.54726 -3.9425,-13.96271 -3.3272,-25.24637 0.2759,-5.05818 1.1825,-14.46544 2.7164,-28.22079 21.4935,-34.81477 37.6046,-66.17554 48.3362,-94.08283 10.7316,-27.90731 16.8193,-55.08892 18.2622,-81.54712 0.5093,-9.3382 -0.036,-16.415 -1.6344,-21.2285 -1.4922,-4.9767 -3.6846,-6.9823 -6.5786,-6.015 -0.5988,0.2001 -1.5119,0.7602 -2.7377,1.6792 l -39.018,30.9946 c -14.7272,36.5008 -27.6711,75.33387 -38.8317,116.49992 -10.0963,37.24009 -16.2215,68.76066 -18.4,94.60133 -10.4688,16.84855 -18.8703,26.34231 -25.1995,28.45764 -5.5885,1.86772 -10.7617,0.60525 -15.5188,-3.78953 12.1029,-38.67959 18.8165,-70.14738 20.1391,-94.40075 0.2688,-4.92849 0.043,-8.8637 -0.6786,-11.80596 -0.7212,-2.94226 -3.0148,-4.91214 -6.8791,-5.91258 -3.7576,-1.16351 -9.8768,-0.32782 -18.3593,2.50714 -22.4536,7.50432 -42.3442,24.5917 -59.6707,51.26514 -16.2034,24.83318 -25.5301,50.99173 -27.9858,78.47455 -9.0675,15.38697 -16.5222,26.38815 -22.3223,32.88515 -6.0498,6.73322 -11.9682,11.0664 -17.7562,13.00085 -7.1851,2.40136 -12.7224,0.62424 -16.6104,-5.33435 -3.8809,-6.08826 -5.4744,-15.48912 -4.7812,-28.19946 0.5729,-10.50547 3.5934,-29.08758 9.0643,-55.74598 19.3717,-12.077 33.7174,-26.2923 43.0352,-42.64912 0.3254,-5.96607 0.3767,-9.61305 0.1552,-10.93966 -0.2146,-1.45632 -0.9497,-2.35673 -2.2046,-2.70132 -11.8284,13.88521 -23.194,23.79699 -34.099,29.73362 7.0894,-25.79872 15.3977,-50.60576 24.9262,-74.41831 9.6353,-23.97561 16.918,-40.73516 21.8472,-50.27724 4.9364,-9.6718 7.4575,-15.47858 7.5636,-17.42408 0.042,-0.7782 -0.5339,-0.9678 -1.7315,-0.5676 -0.1,0.033 -6.1985,4.04474 -18.2932,12.0343 -11.9949,7.95622 -19.9221,14.10792 -23.7842,18.45467 -3.7624,4.31345 -9.4687,14.62417 -17.1183,30.93278 -7.5429,16.14557 -14.3331,31.97712 -20.3718,47.4927 -6.0388,15.51559 -11.9026,34.09164 -17.5895,55.72892 -8.6742,4.55438 -18.7678,9.07374 -30.2794,13.55776 6.4555,-41.1215 12.0251,-69.59731 16.7092,-85.42412 4.6842,-15.82683 10.2332,-28.63067 16.6453,-38.41366 6.5189,-9.94602 9.8279,-15.82809 9.927,-17.64386 0.071,-1.29697 -3.5446,-3.27015 -10.846,-5.92326 -6.4835,9.29756 -12.9187,15.01215 -19.3054,17.14671 -3.1934,1.06728 -9.1426,1.46468 -17.8474,1.19062 -8.6977,-0.40377 -14.5927,-0.0887 -17.6865,0.94524 -14.2703,4.76941 -29.16889,19.23494 -44.69299,43.39593 -15.5239,24.16099 -23.8095,45.83897 -24.8563,65.03415 -0.4739,8.68971 0.7383,16.11593 3.6354,22.27834 2.9041,6.03272 6.3027,8.39755 10.1946,7.09681 3.4928,-1.16735 7.3903,-5.27088 11.6934,-12.31166 4.31,-7.17047 6.572,-12.70101 6.7841,-16.59193 0.1202,-2.20485 -1.3004,-4.02351 -4.2597,-5.45383 -6.4111,-4.60598 -9.3891,-11.05877 -8.9363,-19.35939 0.4526,-8.30062 3.5891,-17.30694 9.4094,-27.0195 5.8274,-9.84227 12.9809,-16.1809 21.46329,-19.01585 3.892,-1.30075 8.9515,-1.52702 15.1756,-0.67854 6.3239,0.81512 11.6308,0.50599 15.922,-0.92818 6.5864,-2.20125 15.2135,-7.69473 25.8821,-16.48097 -23.062,34.82962 -37.5987,59.74157 -43.6092,74.73837 -6.0105,14.9968 -11.3339,33.58479 -15.9724,55.76306 -17.58979,11.73605 -32.03509,26.87822 -43.33389,45.42511 0.068,9.52718 0.4622,14.87091 1.1827,16.03077 12.483,-16.90532 24.7723,-28.46182 36.8677,-34.66895 -5.859,35.57416 -12.5837,61.88841 -20.1759,78.94184 -7.4925,17.02009 -16.3294,27.22995 -26.508402,30.63191 -13.8713,4.63599 -20.0734,-6.46884 -18.6094,-33.31615 0.5943,-10.89457 -1.056,-15.69067 -4.9478,-14.38992 -2.6945,0.90053 -7.85,6.50521 -15.4665,16.81811 -7.5097,10.14986 -11.4306,18.27363 -11.7631,24.3694 -0.4527,8.30061 3.8673,15.32553 12.9594,21.07278 9.0991,5.61758 21.0338,5.95824 35.8033,1.02206 19.958702,-6.67048 38.316102,-21.72045 55.073692,-45.14773 16.8645,-23.59035 29.6077,-57.83596 38.2289,-102.73726 3.407,-1.39336 12.637,-5.37047 27.691,-11.92971 -3.0435,18.07981 -4.8573,32.50303 -5.4444,43.26789 -1.4146,25.93945 1.5023,44.31971 8.7502,55.14001 7.3476,10.78697 16.908,14.21169 28.6837,10.27608 10.4782,-3.502 20.8666,-10.72899 31.1635,-21.68302 10.1949,-10.89392 21.6801,-26.34215 34.4384,-46.28501 0.8434,11.22058 3.5842,19.99233 8.2421,26.28976 6.5698,8.88228 15.6419,11.38818 27.2179,7.51928 18.5616,-6.20355 35.7995,-25.84211 51.7117,-58.91885 6.6893,4.89501 13.6268,6.14181 20.8119,3.74044 2.7942,-0.93387 6.65,-3.36831 11.5674,-7.30378 4.5547,-3.7599 9.3175,-9.02534 14.2856,-15.75551 0.5858,11.63428 3.0623,20.64586 7.4376,27.02163 5.9993,8.5636 14.3374,11.06027 25.0153,7.49156 9.2808,-3.10177 19.2197,-10.17871 29.8161,-21.23281 10.3909,-10.89001 22.5652,-26.31368 36.4935,-46.18686 -0.038,0.57821 -0.091,1.18458 -0.1222,1.7518 -0.7002,12.84002 0.9115,22.80539 4.8355,29.89791 3.9312,6.96279 9.0913,9.37646 15.4781,7.2419 11.4131,-3.81443 29.41,-25.08325 53.9608,-63.73683 0.2007,11.18837 2.8048,20.33351 7.8331,27.42278 5.9207,8.20785 13.1225,10.89407 21.6048,8.05911 7.784,-2.60148 16.7096,-9.97588 26.778,-22.12683 10.1679,-12.18429 19.8138,-28.26983 28.9376,-48.25446 -0.8409,17.21637 0.5399,29.61578 4.1434,37.19743 3.7033,7.54831 9.0985,10.1391 16.1838,7.77107 5.788,-1.93445 12.6014,-7.39654 20.4395,-16.38283 7.6864,-8.85127 18.8849,-24.41059 33.531,-46.55172 0.4071,11.05616 2.7594,20.02041 7.0749,26.87015 5.6074,8.5673 12.8019,11.38247 21.5836,8.44746 8.9814,-3.00172 17.9045,-10.31379 26.7682,-21.93482 8.9634,-11.65436 18.9396,-28.42089 29.9304,-50.30283 -2.8716,36.48569 3.5767,52.0924 19.3442,46.82272 6.2869,-2.10121 13.0364,-7.28541 20.2477,-15.55281 6.9343,-7.95015 18.4632,-23.7433 34.4887,-47.21318 -0.4489,12.52848 1.3311,21.92147 5.3474,28.16959 4.3446,6.56999 10.359,8.57034 18.0432,6.0022 14.2704,-4.76941 31.5813,-23.98811 51.93471,-57.65779 l -11.4122,44.87884 c -37.15731,32.79179 -56.43171,61.96271 -57.82511,87.51305 -0.4597,8.43032 1.069,14.54014 4.5854,18.33093 3.6162,3.75744 8.6163,4.56915 15.0031,2.43459 12.5739,-4.20239 25.0391,-15.37048 37.39321,-33.50606 12.3469,-18.00589 24.0947,-45.6797 35.2429,-83.02154 28.7548,-26.03626 49.9039,-49.14931 63.4477,-69.33791 l 1.2196,-22.3722 c -15.7228,26.0101 -35.3813,49.6439 -58.9768,70.89978 l 47.2155,-165.14268 -41.4066,23.58 -20.395,66.7902 c -6.4215,20.7368 -13.9785,38.9238 -22.6694,54.5617 -8.59101,15.6046 -15.97991,24.44173 -22.16701,26.50958 -6.0875,2.0345 -8.8129,-2.78546 -8.1764,-14.45821 0.7711,-14.13697 6.207,-36.58107 16.3098,-67.33427 l 21.86291,-64.0356 -44.09981,24.4804 -17.066,54.2182 c -4.9972,15.765 -8.6071,30.4898 -10.8441,44.1854 -8.8071,13.42516 -15.6817,23.62008 -20.5636,30.48683 -4.9804,6.88515 -9.4166,10.97891 -13.3086,12.27965 -6.0874,2.03451 -8.8271,-2.52542 -8.2188,-13.67938 0.58,-10.63516 5.0446,-31.4189 13.3937,-62.3499 l 16.2827,-61.4047 -8.3837,2.8016 -31.7355,32.1896 c -4.1764,-13.2476 -12.5004,-17.7866 -24.9747,-13.6175 -9.8795,3.3019 -21.5543,12.5522 -35.0219,27.7492 -13.4675,15.197 -24.8231,32.9982 -34.068,53.4053 -7.1387,15.90403 -11.8015,31.52783 -14.0142,46.87177 -15.1527,25.05122 -25.8487,38.64883 -32.0592,40.7245 -2.5947,0.86717 -4.6095,0.0767 -6.0436,-2.37272 -1.4339,-2.4494 -2.0156,-6.13919 -1.7468,-11.06769 1.1457,-21.01093 14.4697,-85.69316 39.9737,-194.04626 6.376,-27.0882 9.603,-41.344 9.6808,-42.7707 0.085,-1.5564 -0.4224,-2.3418 -1.524,-2.3557 z m -160.2771,88.5202 c -5.5649,6.8259 -11.0412,11.138 -16.4299,12.939 -4.7901,1.6009 -10.954,0.541 -18.4911,-3.1793 -3.9715,15.334 -9.1627,29.6748 -15.5732,43.0226 5.7197,4.7097 12.8715,5.6315 21.4538,2.7631 17.6634,-5.9033 27.3429,-24.4181 29.0404,-55.5454 z m 239.5229,10.1225 c 2.4684,0.051 4.4839,1.2149 6.0435,3.495 2.2756,3.1868 3.2152,8.4135 2.8191,15.6766 -1.0185,18.6764 -6.5735,40.5874 -16.6646,65.73399 -9.9842,24.98354 -19.9665,39.14318 -29.9459,42.47842 -4.0917,1.36746 -7.3672,0.36025 -9.8282,-3.01923 -2.3541,-3.54255 -3.3407,-8.81589 -2.9588,-15.81953 1.0115,-18.5467 6.5593,-40.3288 16.6433,-65.34565 10.1839,-25.0503 20.2652,-39.2413 30.2446,-42.5766 1.3097,-0.4377 2.525,-0.646 3.647,-0.623 z m -329.6011,6.2987 c 1.4012,-0.1479 2.5109,0.9222 3.329,3.2113 0.9422,2.4865 1.2816,6.1302 1.02,10.929 -0.8914,16.3419 -5.8971,37.1781 -15.0186,62.50995 -9.1214,25.33186 -20.5171,49.2601 -34.1882,71.78315 9.1272,-45.19773 17.8335,-80.89752 26.1205,-107.0965 8.3868,-26.2323 14.4264,-39.9641 18.1188,-41.1982 0.2121,-0.071 0.4184,-0.1175 0.6185,-0.1387 z m 168.5639,46.5795 c 2.8539,-0.1181 5.1615,1.1996 6.9218,3.9538 2.447,3.6389 3.4613,9.28335 3.044,16.93548 -1.0255,18.80611 -6.3662,40.39206 -16.0228,64.75677 -9.6567,24.36468 -19.3752,38.18141 -29.1548,41.44995 -4.391,1.4675 -7.7702,0.5605 -10.1384,-2.72265 -2.2686,-3.3165 -3.2082,-8.54108 -2.8192,-15.67442 0.9902,-18.15761 6.4391,-39.90611 16.3448,-65.24538 9.9126,-25.46897 19.5095,-39.75435 28.7903,-42.85605 1.0728,-0.3586 2.0831,-0.5581 3.0343,-0.5975 z m 290.0791,72.04988 c -11.0806,45.08659 -22.1591,69.48288 -33.2363,73.18502 -5.6882,1.90108 -8.2972,-1.49461 -7.8233,-10.18433 0.4668,-8.56001 4.2389,-18.41469 11.3133,-29.56505 7.1672,-11.05402 17.0827,-22.19993 29.7463,-33.43564 z m -593.7981,27.3929 c 0.4473,-0.007 0.854,0.0245 1.2176,0.0938 -14.6918,19.68085 -22.604,39.89776 -23.7357,60.64931 -0.9619,17.63881 2.8294,32.54117 11.3754,44.71031 -9.2095,19.75859 -17.3562,30.82224 -24.4415,33.19026 -5.6881,1.90109 -9.9314,-0.24598 -12.7288,-6.44174 -2.7972,-6.19578 -3.8378,-15.84259 -3.1235,-28.942 1.2873,-23.60488 6.0543,-45.44495 14.3013,-65.5185 8.3466,-20.10691 19.0065,-32.32817 31.9797,-36.66399 2.0957,-0.70041 3.8134,-1.05875 5.1555,-1.07754 z"
       id="path862-2"
       inkscape:connector-curvature="0" />
    <path
       style="font-style:normal;font-variant:normal;font-weight:normal;font-stretch:normal;font-size:332.52804565px;line-height:125%;font-family:'Script MT Bold';-inkscape-font-specification:'Script MT Bold, ';font-variant-ligatures:normal;font-variant-caps:normal;font-variant-numeric:normal;font-feature-settings:normal;text-align:start;letter-spacing:0px;word-spacing:0px;writing-mode:lr-tb;text-anchor:start;fill:#fffe00;fill-opacity:1;stroke:none;stroke-width:1.80360878px;stroke-linecap:butt;stroke-linejoin:miter;stroke-opacity:1"
       d="m 794.42939,-461.61737 c -0.367,0 -0.8,0.076 -1.299,0.2433 -6.0874,2.0345 -18.0087,8.6276 -35.7624,19.7819 l -27.7512,123.4921 c -3.2381,-3.5018 -6.3008,-5.7231 -9.1884,-6.668 -2.7879,-0.9782 -6.7755,-0.6013 -11.9648,1.1331 -18.6613,6.2369 -36.8011,24.45979 -54.4184,54.66841 -13.9792,23.98631 -22.8642,47.61432 -26.6886,70.88484 -9.0393,14.95048 -15.6547,24.98086 -19.8172,30.03448 -4.0901,4.93226 -8.0806,8.04929 -11.9726,9.35004 -2.1955,0.73374 -3.9727,0.0539 -5.3281,-2.03986 -1.2486,-2.2567 -1.7554,-5.52451 -1.522,-9.80452 0.5871,-10.76485 4.6613,-29.76298 12.2208,-56.99209 l 18.2894,-65.89405 -1.7973,0.59959 -38.5836,23.01874 c -13.0482,41.12638 -21.5228,74.5765 -25.4615,100.40936 l 0.2347,-4.31014 c -13.3442,20.12181 -23.1988,33.72994 -29.562,40.82264 -6.3633,7.09268 -12.2395,11.53908 -17.6283,13.34011 -5.2891,1.76769 -9.3493,-0.12204 -12.1819,-5.66934 -2.8328,-5.54726 -3.9425,-13.96271 -3.3272,-25.24637 0.2759,-5.05818 1.1825,-14.46544 2.7164,-28.22079 21.4935,-34.81477 37.6046,-66.17554 48.3362,-94.08283 10.7316,-27.90731 16.8193,-55.08892 18.2622,-81.54712 0.5093,-9.3382 -0.036,-16.415 -1.6344,-21.2285 -1.4922,-4.9767 -3.6846,-6.9823 -6.5786,-6.015 -0.5988,0.2001 -1.5119,0.7602 -2.7377,1.6792 l -39.018,30.9946 c -14.7272,36.5008 -27.6711,75.33387 -38.8317,116.49992 -10.0963,37.24009 -16.2215,68.76066 -18.4,94.60133 -10.4688,16.84855 -18.8703,26.34231 -25.1995,28.45764 -5.5885,1.86772 -10.7617,0.60525 -15.5188,-3.78953 12.1029,-38.67959 18.8165,-70.14738 20.1391,-94.40075 0.2688,-4.92849 0.043,-8.8637 -0.6786,-11.80596 -0.7212,-2.94226 -3.0148,-4.91214 -6.8791,-5.91258 -3.7576,-1.16351 -9.8768,-0.32782 -18.3593,2.50714 -22.4536,7.50432 -42.3442,24.5917 -59.6707,51.26514 -16.2034,24.83318 -25.5301,50.99173 -27.9858,78.474554 -9.0675,15.38697 -16.5222,26.38815 -22.3223,32.88515 -6.0498,6.73322 -11.9682,11.0664 -17.7562,13.00085 -7.1851,2.40136 -12.7224,0.62424 -16.6104,-5.33435 -3.8809,-6.08826 -5.4744,-15.48912 -4.7812,-28.19946 0.5729,-10.50547 3.5934,-29.087584 9.0643,-55.745984 19.3717,-12.077 33.7174,-26.2923 43.0352,-42.64912 0.3254,-5.96607 0.3767,-9.61305 0.1552,-10.93966 -0.2146,-1.45632 -0.9497,-2.35673 -2.2046,-2.70132 -11.8284,13.88521 -23.194,23.79699 -34.099,29.73362 7.0894,-25.79872 15.3977,-50.60576 24.9262,-74.41831 9.6353,-23.97561 16.918,-40.73516 21.8472,-50.27724 4.9364,-9.6718 7.4575,-15.47858 7.5636,-17.42408 0.042,-0.7782 -0.5339,-0.9678 -1.7315,-0.5676 -0.1,0.033 -6.1985,4.04474 -18.2932,12.0343 -11.9949,7.95622 -19.9221,14.10792 -23.7842,18.45467 -3.7624,4.31345 -9.4687,14.62417 -17.1183,30.93278 -7.5429,16.14557 -14.3331,31.97712 -20.3718,47.4927 -6.0388,15.51559 -11.9026,34.09164 -17.5895,55.72892 -8.6742,4.55438 -18.7678,9.07374 -30.2794,13.55776 6.4555,-41.1215 12.0251,-69.59731 16.7092,-85.42412 4.6842,-15.82683 10.2332,-28.63067 16.6453,-38.41366 6.5189,-9.94602 9.8279,-15.82809 9.927,-17.64386 0.071,-1.29697 -3.5446,-3.27015 -10.846,-5.92326 -6.4835,9.29756 -12.9187,15.01215 -19.3054,17.14671 -3.1934,1.06728 -9.1426,1.46468 -17.8474,1.19062 -8.6977,-0.40377 -14.5927,-0.0887 -17.6865,0.94524 -14.2703,4.76941 -29.16889,19.23494 -44.69299,43.39593 -15.5239,24.16099 -23.8095,45.83897 -24.8563,65.03415 -0.4739,8.68971 0.7383,16.11593 3.6354,22.27834 2.9041,6.03272 6.3027,8.39755 10.1946,7.09681 3.4928,-1.16735 7.3903,-5.27088 11.6934,-12.31166 4.31,-7.17047 6.572,-12.70101 6.7841,-16.59193 0.1202,-2.20485 -1.3004,-4.02351 -4.2597,-5.45383 -6.4111,-4.60598 -9.3891,-11.05877 -8.9363,-19.35939 0.4526,-8.30062 3.5891,-17.30694 9.4094,-27.0195 5.8274,-9.84227 12.9809,-16.1809 21.46329,-19.01585 3.892,-1.30075 8.9515,-1.52702 15.1756,-0.67854 6.3239,0.81512 11.6308,0.50599 15.922,-0.92818 6.5864,-2.20125 15.2135,-7.69473 25.8821,-16.48097 -23.062,34.82962 -37.5987,59.74157 -43.6092,74.73837 -6.0105,14.9968 -11.3339,33.58479 -15.9724,55.76306 -17.58979,11.736054 -32.03509,26.878224 -43.33389,45.425114 0.068,9.52718 0.4622,14.87091 1.1827,16.03077 12.483,-16.90532 24.7723,-28.46182 36.8677,-34.66895 -5.859,35.57416 -12.5837,61.88841 -20.1759,78.94183968 C 121.0089,17.670304 112.172,27.880164 101.993,31.282124 88.121697,35.918114 81.919597,24.813284 83.383597,-2.0340263 c 0.5943,-10.8945697 -1.056,-15.6906697 -4.9478,-14.3899197 -2.6945,0.90053 -7.85,6.5052097 -15.4665,16.81810968 -7.5097,10.14986032 -11.4306,18.27363032 -11.7631,24.36940032 -0.4527,8.30061 3.8673,15.32553 12.9594,21.07278 9.0991,5.61758 21.0338,5.95824 35.8033,1.02206 19.958703,-6.67048 38.316103,-21.72045 55.073693,-45.1477303 16.8645,-23.5903497 29.6077,-57.8359597 38.2289,-102.7372637 3.407,-1.39336 12.637,-5.37047 27.691,-11.92971 -3.0435,18.079814 -4.8573,32.503034 -5.4444,43.267894 -1.4146,25.93945 1.5023,44.31971 8.7502,55.14001 7.3476,10.7869697 16.908,14.21168968 28.6837,10.2760797 10.4782,-3.502 20.8666,-10.7289897 31.1635,-21.6830197 10.1949,-10.89392 21.6801,-26.34215 34.4384,-46.28501 0.8434,11.22058 3.5842,19.99233 8.2421,26.28976 6.5698,8.88228 15.6419,11.38818 27.2179,7.51928 18.5616,-6.20355 35.7995,-25.84211 51.7117,-58.91885 6.6893,4.89501 13.6268,6.14181 20.8119,3.74044 2.7942,-0.93387 6.65,-3.36831 11.5674,-7.303784 4.5547,-3.7599 9.3175,-9.02534 14.2856,-15.75551 0.5858,11.63428 3.0623,20.645864 7.4376,27.021634 5.9993,8.5636 14.3374,11.06027 25.0153,7.49156 9.2808,-3.10177 19.2197,-10.17871 29.8161,-21.232814 10.3909,-10.89001 22.5652,-26.31368 36.4935,-46.18686 -0.038,0.57821 -0.091,1.18458 -0.1222,1.7518 -0.7002,12.84002 0.9115,22.80539 4.8355,29.89791 3.9312,6.96279 9.0913,9.37646 15.4781,7.2419 11.4131,-3.81443 29.41,-25.08325 53.9608,-63.73683 0.2007,11.18837 2.8048,20.33351 7.8331,27.42278 5.9207,8.20785 13.1225,10.89407 21.6048,8.05911 7.784,-2.60148 16.7096,-9.97588 26.778,-22.12683 10.1679,-12.18429 19.8138,-28.26983 28.9376,-48.25446 -0.8409,17.21637 0.5399,29.61578 4.1434,37.19743 3.7033,7.54831 9.0985,10.1391 16.1838,7.77107 5.788,-1.93445 12.6014,-7.39654 20.4395,-16.38283 7.6864,-8.85127 18.8849,-24.41059 33.531,-46.55172 0.4071,11.05616 2.7594,20.02041 7.0749,26.87015 5.6074,8.5673 12.8019,11.38247 21.5836,8.44746 8.9814,-3.00172 17.9045,-10.31379 26.7682,-21.93482 8.9634,-11.65436 18.9396,-28.42089 29.9304,-50.30283 -2.8716,36.48569 3.5767,52.0924 19.3442,46.82272 6.2869,-2.10121 13.0364,-7.28541 20.2477,-15.55281 6.9343,-7.95015 18.4632,-23.7433 34.4887,-47.21318 -0.4489,12.52848 1.3311,21.92147 5.3474,28.16959 4.3446,6.56999 10.359,8.57034 18.0432,6.0022 14.2704,-4.76941 31.5813,-23.98811 51.93471,-57.65779 l -11.4122,44.87884 c -37.15731,32.79179 -56.43171,61.96271 -57.82511,87.51305 -0.4597,8.43032 1.069,14.54014 4.5854,18.33093 3.6162,3.75744 8.6163,4.56915 15.0031,2.43459 12.5739,-4.20239 25.0391,-15.37048 37.39321,-33.50606 12.3469,-18.00589 24.0947,-45.6797 35.2429,-83.02154 28.7548,-26.03626 49.9039,-49.14931 63.4477,-69.33791 l 1.2196,-22.3722 c -15.7228,26.0101 -35.3813,49.6439 -58.9768,70.89978 l 47.2155,-165.14268 -41.4066,23.58 -20.395,66.7902 c -6.4215,20.7368 -13.9785,38.9238 -22.6694,54.5617 -8.591,15.6046 -15.97991,24.44173 -22.16701,26.50958 -6.0875,2.0345 -8.8129,-2.78546 -8.1764,-14.45821 0.7711,-14.13697 6.207,-36.58107 16.3098,-67.33427 l 21.86291,-64.0356 -44.09981,24.4804 -17.066,54.2182 c -4.9972,15.765 -8.6071,30.4898 -10.8441,44.1854 -8.8071,13.42516 -15.6817,23.62008 -20.5636,30.48683 -4.9804,6.88515 -9.4166,10.97891 -13.3086,12.27965 -6.0874,2.03451 -8.8271,-2.52542 -8.2188,-13.67938 0.58,-10.63516 5.0446,-31.4189 13.3937,-62.3499 l 16.2827,-61.4047 -8.3837,2.8016 -31.7355,32.1896 c -4.1764,-13.2476 -12.5004,-17.7866 -24.9747,-13.6175 -9.8795,3.3019 -21.5543,12.5522 -35.0219,27.7492 -13.4675,15.197 -24.8231,32.9982 -34.068,53.4053 -7.1387,15.90403 -11.8015,31.52783 -14.0142,46.87177 -15.1527,25.05122 -25.8487,38.64883 -32.0592,40.7245 -2.5947,0.86717 -4.6095,0.0767 -6.0436,-2.37272 -1.4339,-2.4494 -2.0156,-6.13919 -1.7468,-11.06769 1.1457,-21.01093 14.4697,-85.69316 39.9737,-194.04626 6.376,-27.0882 9.603,-41.344 9.6808,-42.7707 0.085,-1.5564 -0.4224,-2.3418 -1.524,-2.3557 z m -160.2771,88.5202 c -5.5649,6.8259 -11.0412,11.138 -16.4299,12.939 -4.7901,1.6009 -10.954,0.541 -18.4911,-3.1793 -3.9715,15.334 -9.1627,29.6748 -15.5732,43.0226 5.7197,4.7097 12.8715,5.6315 21.4538,2.7631 17.6634,-5.9033 27.3429,-24.4181 29.0404,-55.5454 z m 239.5229,10.1225 c 2.4684,0.051 4.4839,1.2149 6.0435,3.495 2.2756,3.1868 3.2152,8.4135 2.8191,15.6766 -1.0185,18.6764 -6.5735,40.5874 -16.6646,65.73399 -9.9842,24.98354 -19.9665,39.14318 -29.9459,42.47842 -4.0917,1.36746 -7.3672,0.36025 -9.8282,-3.01923 -2.3541,-3.54255 -3.3407,-8.81589 -2.9588,-15.81953 1.0115,-18.5467 6.5593,-40.3288 16.6433,-65.34565 10.1839,-25.0503 20.2652,-39.2413 30.2446,-42.5766 1.3097,-0.4377 2.525,-0.646 3.647,-0.623 z m -329.6011,6.2987 c 1.4012,-0.1479 2.5109,0.9222 3.329,3.2113 0.9422,2.4865 1.2816,6.1302 1.02,10.929 -0.8914,16.3419 -5.8971,37.1781 -15.0186,62.50995 -9.1214,25.33186 -20.5171,49.2601 -34.1882,71.78315 9.1272,-45.19773 17.8335,-80.89752 26.1205,-107.0965 8.3868,-26.2323 14.4264,-39.9641 18.1188,-41.1982 0.2121,-0.071 0.4184,-0.1175 0.6185,-0.1387 z m 168.5639,46.5795 c 2.8539,-0.1181 5.1615,1.1996 6.9218,3.9538 2.447,3.6389 3.4613,9.28335 3.044,16.93548 -1.0255,18.80611 -6.3662,40.39206 -16.0228,64.75677 -9.6567,24.36468 -19.3752,38.18141 -29.1548,41.44995 -4.391,1.4675 -7.7702,0.5605 -10.1384,-2.72265 -2.2686,-3.3165 -3.2082,-8.54108 -2.8192,-15.67442 0.9902,-18.15761 6.4391,-39.90611 16.3448,-65.24538 9.9126,-25.46897 19.5095,-39.75435 28.7903,-42.85605 1.0728,-0.3586 2.0831,-0.5581 3.0343,-0.5975 z m 290.07911,72.04988 c -11.08061,45.08659 -22.15911,69.48288 -33.23631,73.18502 -5.6882,1.90108 -8.2972,-1.49461 -7.8233,-10.18433 0.4668,-8.56001 4.2389,-18.41469 11.3133,-29.56505 7.1672,-11.05402 17.0827,-22.19993 29.74631,-33.43564 z m -593.79811,27.3929 c 0.4473,-0.007 0.854,0.0245 1.2176,0.0938 -14.6918,19.68085 -22.604,39.89776 -23.7357,60.64931 -0.9619,17.63881 2.8294,32.54117 11.3754,44.71031 -9.2095,19.758594 -17.3562,30.822244 -24.4415,33.190264 -5.6881,1.90109 -9.9314,-0.24598 -12.7288,-6.44174 -2.7972,-6.19578 -3.8378,-15.84259 -3.1235,-28.942004 1.2873,-23.60488 6.0543,-45.44495 14.3013,-65.5185 8.3466,-20.10691 19.0065,-32.32817 31.9797,-36.66399 2.0957,-0.70041 3.8134,-1.05875 5.1555,-1.07754 z"
       id="path862-6"
       inkscape:connector-curvature="0" />
    <path
       style="font-style:normal;font-variant:normal;font-weight:normal;font-stretch:normal;font-size:332.52804565px;line-height:125%;font-family:'Script MT Bold';-inkscape-font-specification:'Script MT Bold, ';font-variant-ligatures:normal;font-variant-caps:normal;font-variant-numeric:normal;font-feature-settings:normal;text-align:start;letter-spacing:0px;word-spacing:0px;writing-mode:lr-tb;text-anchor:start;fill:#fffe00;fill-opacity:1;stroke:none;stroke-width:1.80360878px;stroke-linecap:butt;stroke-linejoin:miter;stroke-opacity:1"
       d="m 785.24401,-131.57813 c -0.367,0 -0.8,0.076 -1.299,0.2433 -6.0874,2.0345 -18.0087,8.6276 -35.7624,19.7819 l -27.7512,123.492098 c -3.2381,-3.5018 -6.3008,-5.7231 -9.1884,-6.668 -2.7879,-0.9782 -6.7755,-0.6013 -11.9648,1.1331 -18.6613,6.2369 -36.8011,24.45979 -54.4184,54.66841 -13.9792,23.98631 -22.8642,47.614322 -26.6886,70.884842 -9.0393,14.95048 -15.6547,24.98086 -19.8172,30.03448 -4.0901,4.93226 -8.0806,8.04929 -11.9726,9.35004 -2.1955,0.73374 -3.9727,0.0539 -5.3281,-2.03986 -1.2486,-2.2567 -1.7554,-5.52451 -1.522,-9.80452 0.5871,-10.76485 4.6613,-29.76298 12.2208,-56.99209 l 18.2894,-65.894052 -1.7973,0.59959 -38.5836,23.01874 c -13.0482,41.126382 -21.5228,74.576502 -25.4615,100.409362 l 0.2347,-4.31014 c -13.3442,20.12181 -23.1988,33.72994 -29.562,40.82264 -6.3633,7.09268 -12.2395,11.53908 -17.6283,13.34011 -5.2891,1.76769 -9.3493,-0.12204 -12.1819,-5.66934 -2.8328,-5.54726 -3.9425,-13.96271 -3.3272,-25.24637 0.2759,-5.05818 1.1825,-14.46544 2.7164,-28.22079 21.4935,-34.81477 37.6046,-66.175542 48.3362,-94.082832 10.7316,-27.90731 16.8193,-55.08892 18.2622,-81.54712 0.5093,-9.3382 -0.036,-16.415 -1.6344,-21.2285 -1.4922,-4.9767 -3.6846,-6.9823 -6.5786,-6.015 -0.5988,0.2001 -1.5119,0.7602 -2.7377,1.6792 l -39.018,30.9946 c -14.7272,36.5008 -27.6711,75.33387 -38.8317,116.49992 -10.0963,37.240092 -16.2215,68.760662 -18.4,94.601332 -10.4688,16.84855 -18.8703,26.34231 -25.1995,28.45764 -5.5885,1.86772 -10.7617,0.60525 -15.5188,-3.78953 12.1029,-38.67959 18.8165,-70.14738 20.1391,-94.40075 0.2688,-4.92849 0.043,-8.8637 -0.6786,-11.80596 -0.7212,-2.94226 -3.0148,-4.91214 -6.8791,-5.91258 -3.7576,-1.16351 -9.8768,-0.32782 -18.3593,2.50714 -22.4536,7.50432 -42.3442,24.5917 -59.6707,51.26514 -16.2034,24.83318 -25.5301,50.99173 -27.9858,78.47455 -9.0675,15.38697 -16.5222,26.38815 -22.3223,32.88515 -6.0498,6.73322 -11.9682,11.0664 -17.7562,13.00085 -7.1851,2.40136 -12.7224,0.62424 -16.6104,-5.33435 -3.8809,-6.08826 -5.4744,-15.48912 -4.7812,-28.19946 0.5729,-10.50547 3.5934,-29.08758 9.0643,-55.74598 19.3717,-12.077 33.7174,-26.2923 43.0352,-42.64912 0.3254,-5.96607 0.3767,-9.61305 0.1552,-10.93966 -0.2146,-1.45632 -0.9497,-2.35673 -2.2046,-2.70132 -11.8284,13.88521 -23.194,23.79699 -34.099,29.73362 7.0894,-25.79872 15.3977,-50.60576 24.9262,-74.418312 9.6353,-23.97561 16.918,-40.73516 21.8472,-50.27724 4.9364,-9.6718 7.4575,-15.47858 7.5636,-17.42408 0.042,-0.7782 -0.5339,-0.9678 -1.7315,-0.5676 -0.1,0.033 -6.1985,4.04474 -18.2932,12.0343 -11.9949,7.95622 -19.9221,14.10792 -23.7842,18.45467 -3.7624,4.31345 -9.4687,14.62417 -17.1183,30.93278 -7.5429,16.145572 -14.3331,31.977122 -20.3718,47.492702 -6.0388,15.51559 -11.9026,34.09164 -17.5895,55.72892 -8.6742,4.55438 -18.7678,9.07374 -30.2794,13.55776 6.4555,-41.1215 12.0251,-69.59731 16.7092,-85.42412 4.6842,-15.82683 10.2332,-28.630672 16.6453,-38.413662 6.5189,-9.94602 9.8279,-15.82809 9.927,-17.64386 0.071,-1.29697 -3.5446,-3.27015 -10.846,-5.92326 -6.4835,9.29756 -12.9187,15.01215 -19.3054,17.14671 -3.1934,1.06728 -9.1426,1.46468 -17.8474,1.19062 -8.6977,-0.40377 -14.5927,-0.0887 -17.6865,0.94524 -14.2703,4.76941 -29.1689,19.23494 -44.693,43.395932 -15.5239,24.16099 -23.809496,45.83897 -24.856296,65.03415 -0.4739,8.68971 0.7383,16.11593 3.635396,22.27834 2.9041,6.03272 6.3027,8.39755 10.1946,7.09681 3.4928,-1.16735 7.3903,-5.27088 11.6934,-12.31166 4.31,-7.17047 6.572,-12.70101 6.7841,-16.59193 0.1202,-2.20485 -1.3004,-4.02351 -4.2597,-5.45383 -6.4111,-4.60598 -9.3891,-11.05877 -8.9363,-19.35939 0.4526,-8.30062 3.5891,-17.30694 9.4094,-27.0195 5.8274,-9.84227 12.9809,-16.1809 21.4633,-19.01585 3.892,-1.30075 8.9515,-1.52702 15.1756,-0.67854 6.3239,0.81512 11.6308,0.50599 15.922,-0.92818 6.5864,-2.20125 15.2135,-7.69473 25.8821,-16.480972 -23.062,34.829622 -37.5987,59.741572 -43.6092,74.738372 -6.0105,14.9968 -11.3339,33.58479 -15.9724,55.76306 -17.5898,11.73605 -32.0351,26.87822 -43.3339,45.42511 0.068,9.52718 0.4622,14.87091 1.1827,16.03077 12.483,-16.90532 24.7723,-28.46182 36.8677,-34.66895 -5.859,35.57416 -12.5837,61.88841 -20.1759,78.94184 -7.4925,17.02009 -16.3294,27.22995 -26.508396,30.63191 -13.8713,4.63599 -20.0734,-6.46884 -18.6094,-33.31615 0.5943,-10.89457 -1.056,-15.69067 -4.9478,-14.38992 -2.6945,0.90053 -7.85,6.50521 -15.4665,16.81811 -7.5097,10.14986 -11.4306,18.27363 -11.7631,24.3694 -0.4527,8.30061 3.8673,15.32553 12.9594,21.07278 9.0991,5.61758 21.0338,5.95824 35.8033,1.02206 19.958696,-6.67048 38.316096,-21.72045 55.073696,-45.14773 16.8645,-23.59035 29.6077,-57.83596 38.2289,-102.73726 3.407,-1.39336 12.637,-5.37047 27.691,-11.92971 -3.0435,18.07981 -4.8573,32.50303 -5.4444,43.26789 -1.4146,25.93945 1.5023,44.31971 8.7502,55.14001 7.3476,10.78697 16.908,14.21169 28.6837,10.27608 10.4782,-3.502 20.8666,-10.72899 31.1635,-21.68302 10.1949,-10.89392 21.6801,-26.34215 34.4384,-46.28501 0.8434,11.22058 3.5842,19.99233 8.2421,26.28976 6.5698,8.88228 15.6419,11.38818 27.2179,7.51928 18.5616,-6.20355 35.7995,-25.84211 51.7117,-58.91885 6.6893,4.89501 13.6268,6.14181 20.8119,3.74044 2.7942,-0.93387 6.65,-3.36831 11.5674,-7.30378 4.5547,-3.7599 9.3175,-9.02534 14.2856,-15.75551 0.5858,11.63428 3.0623,20.64586 7.4376,27.02163 5.9993,8.5636 14.3374,11.06027 25.0153,7.49156 9.2808,-3.10177 19.2197,-10.17871 29.8161,-21.23281 10.3909,-10.89001 22.5652,-26.31368 36.4935,-46.18686 -0.038,0.57821 -0.091,1.18458 -0.1222,1.7518 -0.7002,12.84002 0.9115,22.80539 4.8355,29.89791 3.9312,6.96279 9.0913,9.37646 15.4781,7.2419 11.4131,-3.81443 29.41,-25.08325 53.9608,-63.73683 0.2007,11.18837 2.8048,20.33351 7.8331,27.42278 5.9207,8.20785 13.1225,10.89407 21.6048,8.05911 7.784,-2.60148 16.7096,-9.97588 26.778,-22.12683 10.1679,-12.18429 19.8138,-28.26983 28.9376,-48.25446 -0.8409,17.21637 0.5399,29.61578 4.1434,37.19743 3.7033,7.54831 9.0985,10.1391 16.1838,7.77107 5.788,-1.93445 12.6014,-7.39654 20.4395,-16.38283 7.6864,-8.85127 18.8849,-24.41059 33.531,-46.55172 0.4071,11.05616 2.7594,20.02041 7.0749,26.87015 5.6074,8.5673 12.8019,11.38247 21.5836,8.44746 8.9814,-3.00172 17.9045,-10.31379 26.7682,-21.93482 8.9634,-11.65436 18.9396,-28.420892 29.9304,-50.302832 -2.8716,36.485692 3.5767,52.092402 19.3442,46.822722 6.2869,-2.10121 13.0364,-7.28541 20.2477,-15.552812 6.9343,-7.95015 18.4632,-23.7433 34.4887,-47.21318 -0.4489,12.52848 1.3311,21.92147 5.3474,28.16959 4.3446,6.56999 10.359,8.57034 18.0432,6.0022 14.2704,-4.76941 31.5813,-23.98811 51.93469,-57.65779 l -11.41219,44.87884 c -37.1573,32.791792 -56.4317,61.962712 -57.8251,87.513052 -0.4597,8.43032 1.069,14.54014 4.5854,18.33093 3.6162,3.75744 8.6163,4.56915 15.0031,2.43459 12.5739,-4.20239 25.0391,-15.37048 37.3932,-33.50606 12.34689,-18.00589 24.09469,-45.6797 35.24289,-83.021542 28.7548,-26.03626 49.9039,-49.14931 63.4477,-69.33791 l 1.2196,-22.3722 c -15.7228,26.0101 -35.3813,49.6439 -58.9768,70.89978 l 47.2155,-165.142678 -41.4066,23.579998 -20.395,66.7902 c -6.4215,20.7368 -13.9785,38.9238 -22.6694,54.5617 -8.59099,15.6046 -15.97989,24.44173 -22.16699,26.50958 -6.0875,2.0345 -8.8129,-2.78546 -8.1764,-14.45821 0.7711,-14.13697 6.207,-36.58107 16.3098,-67.33427 l 21.86289,-64.0356 -44.09979,24.4804 -17.066,54.2182 c -4.9972,15.765 -8.6071,30.4898 -10.8441,44.1854 -8.8071,13.42516 -15.6817,23.62008 -20.5636,30.48683 -4.9804,6.88515 -9.4166,10.97891 -13.3086,12.27965 -6.0874,2.03451 -8.8271,-2.52542 -8.2188,-13.67938 0.58,-10.63516 5.0446,-31.4189 13.3937,-62.3499 l 16.2827,-61.4047 -8.3837,2.8016 -31.7355,32.1896 c -4.1764,-13.2476 -12.5004,-17.7866 -24.9747,-13.6175 -9.8795,3.3019 -21.5543,12.5522 -35.0219,27.7492 -13.4675,15.197 -24.8231,32.9982 -34.068,53.4053 -7.1387,15.90403 -11.8015,31.52783 -14.0142,46.87177 -15.1527,25.051222 -25.8487,38.648832 -32.0592,40.724502 -2.5947,0.86717 -4.6095,0.0767 -6.0436,-2.37272 -1.4339,-2.4494 -2.0156,-6.13919 -1.7468,-11.06769 1.1457,-21.010932 14.4697,-85.693162 39.9737,-194.046262 6.376,-27.088198 9.603,-41.343998 9.6808,-42.770698 0.085,-1.5564 -0.4224,-2.3418 -1.524,-2.3557 z m -160.2771,88.520198 c -5.5649,6.8259 -11.0412,11.138 -16.4299,12.939 -4.7901,1.6009 -10.954,0.541 -18.4911,-3.1793 -3.9715,15.334 -9.1627,29.6748 -15.5732,43.0226 5.7197,4.7097 12.8715,5.6315 21.4538,2.7631 17.6634,-5.9033 27.3429,-24.4181 29.0404,-55.5454 z m 239.5229,10.1225 c 2.4684,0.051 4.4839,1.2149 6.0435,3.495 2.2756,3.1868 3.2152,8.4135 2.8191,15.6766 -1.0185,18.6764 -6.5735,40.5874 -16.6646,65.73399 -9.9842,24.98354 -19.9665,39.14318 -29.9459,42.47842 -4.0917,1.36746 -7.3672,0.36025 -9.8282,-3.01923 -2.3541,-3.54255 -3.3407,-8.81589 -2.9588,-15.81953 1.0115,-18.5467 6.5593,-40.3288 16.6433,-65.34565 10.1839,-25.0503 20.2652,-39.2413 30.2446,-42.5766 1.3097,-0.4377 2.525,-0.646 3.647,-0.623 z m -329.6011,6.2987 c 1.4012,-0.1479 2.5109,0.9222 3.329,3.2113 0.9422,2.4865 1.2816,6.1302 1.02,10.929 -0.8914,16.3419 -5.8971,37.1781 -15.0186,62.50995 -9.1214,25.33186 -20.5171,49.2601 -34.1882,71.783152 9.1272,-45.197732 17.8335,-80.897522 26.1205,-107.096502 8.3868,-26.2323 14.4264,-39.9641 18.1188,-41.1982 0.2121,-0.071 0.4184,-0.1175 0.6185,-0.1387 z m 168.5639,46.5795 c 2.8539,-0.1181 5.1615,1.1996 6.9218,3.9538 2.447,3.6389 3.4613,9.28335 3.044,16.93548 -1.0255,18.80611 -6.3662,40.39206 -16.0228,64.756772 -9.6567,24.36468 -19.3752,38.18141 -29.1548,41.44995 -4.391,1.4675 -7.7702,0.5605 -10.1384,-2.72265 -2.2686,-3.3165 -3.2082,-8.54108 -2.8192,-15.67442 0.9902,-18.15761 6.4391,-39.906112 16.3448,-65.245382 9.9126,-25.46897 19.5095,-39.75435 28.7903,-42.85605 1.0728,-0.3586 2.0831,-0.5581 3.0343,-0.5975 z m 290.0791,72.04988 c -11.0806,45.086592 -22.1591,69.482882 -33.2363,73.185022 -5.6882,1.90108 -8.2972,-1.49461 -7.8233,-10.18433 0.4668,-8.56001 4.2389,-18.41469 11.3133,-29.56505 7.1672,-11.05402 17.0827,-22.19993 29.7463,-33.435642 z m -593.7981,27.392902 c 0.4473,-0.007 0.854,0.0245 1.2176,0.0938 -14.6918,19.68085 -22.604,39.89776 -23.7357,60.64931 -0.9619,17.63881 2.8294,32.54117 11.3754,44.71031 -9.2095,19.75859 -17.3562,30.82224 -24.4415,33.19026 -5.6881,1.90109 -9.9314,-0.24598 -12.7288,-6.44174 -2.7972,-6.19578 -3.8378,-15.84259 -3.1235,-28.942 1.2873,-23.60488 6.0543,-45.44495 14.3013,-65.5185 8.3466,-20.10691 19.0065,-32.32817 31.9797,-36.66399 2.0957,-0.70041 3.8134,-1.05875 5.1555,-1.07754 z"
       id="path862-63"
       inkscape:connector-curvature="0" />
    <path
       style="font-style:normal;font-variant:normal;font-weight:normal;font-stretch:normal;font-size:332.52804565px;line-height:125%;font-family:'Script MT Bold';-inkscape-font-specification:'Script MT Bold, ';font-variant-ligatures:normal;font-variant-caps:normal;font-variant-numeric:normal;font-feature-settings:normal;text-align:start;letter-spacing:0px;word-spacing:0px;writing-mode:lr-tb;text-anchor:start;fill:#fffe00;fill-opacity:1;stroke:none;stroke-width:1.80360878px;stroke-linecap:butt;stroke-linejoin:miter;stroke-opacity:1"
       d="m 785.24401,194.8256 c -0.367,0 -0.8,0.076 -1.299,0.2433 -6.0874,2.0345 -18.0087,8.6276 -35.7624,19.7819 l -27.7512,123.4921 c -3.2381,-3.5018 -6.3008,-5.7231 -9.1884,-6.668 -2.7879,-0.9782 -6.7755,-0.6013 -11.9648,1.1331 -18.6613,6.2369 -36.8011,24.45979 -54.4184,54.66841 -13.9792,23.98631 -22.8642,47.61432 -26.6886,70.88484 -9.0393,14.95048 -15.6547,24.98086 -19.8172,30.03448 -4.0901,4.93226 -8.0806,8.04929 -11.9726,9.35004 -2.1955,0.73374 -3.9727,0.0539 -5.3281,-2.03986 -1.2486,-2.2567 -1.7554,-5.52451 -1.522,-9.80452 0.5871,-10.76485 4.6613,-29.76298 12.2208,-56.99209 l 18.2894,-65.89405 -1.7973,0.59959 -38.5836,23.01874 c -13.0482,41.12638 -21.5228,74.5765 -25.4615,100.40936 l 0.2347,-4.31014 c -13.3442,20.12181 -23.1988,33.72994 -29.562,40.82264 -6.3633,7.09268 -12.2395,11.53908 -17.6283,13.34011 -5.2891,1.76769 -9.3493,-0.12204 -12.1819,-5.66934 -2.8328,-5.54726 -3.9425,-13.96271 -3.3272,-25.24637 0.2759,-5.05818 1.1825,-14.46544 2.7164,-28.22079 21.4935,-34.81477 37.6046,-66.17554 48.3362,-94.08283 10.7316,-27.90731 16.8193,-55.08892 18.2622,-81.54712 0.5093,-9.3382 -0.036,-16.415 -1.6344,-21.2285 -1.4922,-4.9767 -3.6846,-6.9823 -6.5786,-6.015 -0.5988,0.2001 -1.5119,0.7602 -2.7377,1.6792 l -39.018,30.9946 c -14.7272,36.5008 -27.6711,75.33387 -38.8317,116.49992 -10.0963,37.24009 -16.2215,68.76066 -18.4,94.60133 -10.4688,16.84855 -18.8703,26.34231 -25.1995,28.45764 -5.5885,1.86772 -10.7617,0.60525 -15.5188,-3.78953 12.1029,-38.67959 18.8165,-70.14738 20.1391,-94.40075 0.2688,-4.92849 0.043,-8.8637 -0.6786,-11.80596 -0.7212,-2.94226 -3.0148,-4.91214 -6.8791,-5.91258 -3.7576,-1.16351 -9.8768,-0.32782 -18.3593,2.50714 -22.4536,7.50432 -42.3442,24.5917 -59.6707,51.26514 -16.2034,24.83318 -25.5301,50.99173 -27.9858,78.47455 -9.0675,15.38697 -16.5222,26.38815 -22.3223,32.88515 -6.0498,6.73322 -11.9682,11.0664 -17.7562,13.00085 -7.1851,2.40136 -12.7224,0.62424 -16.6104,-5.33435 -3.8809,-6.08826 -5.4744,-15.48912 -4.7812,-28.19946 0.5729,-10.50547 3.5934,-29.08758 9.0643,-55.74598 19.3717,-12.077 33.7174,-26.2923 43.0352,-42.64912 0.3254,-5.96607 0.3767,-9.61305 0.1552,-10.93966 -0.2146,-1.45632 -0.9497,-2.35673 -2.2046,-2.70132 -11.8284,13.88521 -23.194,23.79699 -34.099,29.73362 7.0894,-25.79872 15.3977,-50.60576 24.9262,-74.41831 9.6353,-23.97561 16.918,-40.73516 21.8472,-50.27724 4.9364,-9.6718 7.4575,-15.47858 7.5636,-17.42408 0.042,-0.7782 -0.5339,-0.9678 -1.7315,-0.5676 -0.1,0.033 -6.1985,4.04474 -18.2932,12.0343 -11.9949,7.95622 -19.9221,14.10792 -23.7842,18.45467 -3.7624,4.31345 -9.4687,14.62417 -17.1183,30.93278 -7.5429,16.14557 -14.3331,31.97712 -20.3718,47.4927 -6.0388,15.51559 -11.9026,34.09164 -17.5895,55.72892 -8.6742,4.55438 -18.7678,9.07374 -30.2794,13.55776 6.4555,-41.1215 12.0251,-69.59731 16.7092,-85.42412 4.6842,-15.82683 10.2332,-28.63067 16.6453,-38.41366 6.5189,-9.94602 9.8279,-15.82809 9.927,-17.64386 0.071,-1.29697 -3.5446,-3.27015 -10.846,-5.92326 -6.4835,9.29756 -12.9187,15.01215 -19.3054,17.14671 -3.1934,1.06728 -9.1426,1.46468 -17.8474,1.19062 -8.6977,-0.40377 -14.5927,-0.0887 -17.6865,0.94524 -14.2703,4.76941 -29.16889,19.23494 -44.69299,43.39593 -15.5239,24.16099 -23.809497,45.83897 -24.856297,65.03415 -0.4739,8.68971 0.7383,16.11593 3.635397,22.27834 2.9041,6.03272 6.3027,8.39755 10.1946,7.09681 3.4928,-1.16735 7.3903,-5.27088 11.6934,-12.31166 4.31,-7.17047 6.572,-12.70101 6.7841,-16.59193 0.1202,-2.20485 -1.3004,-4.02351 -4.2597,-5.45383 -6.4111,-4.60598 -9.3891,-11.05877 -8.9363,-19.35939 0.4526,-8.30062 3.5891,-17.30694 9.4094,-27.0195 5.8274,-9.84227 12.9809,-16.1809 21.46329,-19.01585 3.892,-1.30075 8.9515,-1.52702 15.1756,-0.67854 6.3239,0.81512 11.6308,0.50599 15.922,-0.92818 6.5864,-2.20125 15.2135,-7.69473 25.8821,-16.48097 -23.062,34.82962 -37.5987,59.74157 -43.6092,74.73837 -6.0105,14.9968 -11.3339,33.58479 -15.9724,55.76306 -17.58979,11.73605 -32.03509,26.87822 -43.33389,45.42511 0.068,9.52718 0.4622,14.87091 1.1827,16.03077 12.483,-16.90532 24.7723,-28.46182 36.8677,-34.66895 -5.859,35.57416 -12.5837,61.88845 -20.1759,78.94185 -7.4925,17.0201 -16.3294,27.2299 -26.508397,30.6319 -13.8713,4.636 -20.0734,-6.4688 -18.6094,-33.3161 0.5943,-10.8946 -1.056,-15.6907 -4.9478,-14.39 -2.6945,0.9006 -7.85,6.5052 -15.4665,16.8181 -7.5097,10.1499 -11.4306,18.2737 -11.7631,24.3694 -0.4527,8.3007 3.8673,15.3256 12.9594,21.0728 9.0991,5.6176 21.0338,5.9583 35.8033,1.0221 19.958697,-6.6705 38.316097,-21.7205 55.073687,-45.1477 16.8645,-23.5904 29.6077,-57.83601 38.2289,-102.73731 3.407,-1.39336 12.637,-5.37047 27.691,-11.92971 -3.0435,18.07981 -4.8573,32.50303 -5.4444,43.26789 -1.4146,25.93945 1.5023,44.31973 8.7502,55.14003 7.3476,10.787 16.908,14.2117 28.6837,10.2761 10.4782,-3.502 20.8666,-10.729 31.1635,-21.6831 10.1949,-10.89388 21.6801,-26.34211 34.4384,-46.28497 0.8434,11.22058 3.5842,19.99233 8.2421,26.28976 6.5698,8.88228 15.6419,11.38821 27.2179,7.51928 18.5616,-6.20355 35.7995,-25.84211 51.7117,-58.91885 6.6893,4.89501 13.6268,6.14181 20.8119,3.74044 2.7942,-0.93387 6.65,-3.36831 11.5674,-7.30378 4.5547,-3.7599 9.3175,-9.02534 14.2856,-15.75551 0.5858,11.63428 3.0623,20.64586 7.4376,27.02163 5.9993,8.5636 14.3374,11.06027 25.0153,7.49156 9.2808,-3.10177 19.2197,-10.17871 29.8161,-21.23281 10.3909,-10.89001 22.5652,-26.31368 36.4935,-46.18686 -0.038,0.57821 -0.091,1.18458 -0.1222,1.7518 -0.7002,12.84002 0.9115,22.80539 4.8355,29.89791 3.9312,6.96279 9.0913,9.37646 15.4781,7.2419 11.4131,-3.81443 29.41,-25.08325 53.9608,-63.73683 0.2007,11.18837 2.8048,20.33351 7.8331,27.42278 5.9207,8.20785 13.1225,10.89407 21.6048,8.05911 7.784,-2.60148 16.7096,-9.97588 26.778,-22.12683 10.1679,-12.18429 19.8138,-28.26983 28.9376,-48.25446 -0.8409,17.21637 0.5399,29.61578 4.1434,37.19743 3.7033,7.54831 9.0985,10.1391 16.1838,7.77107 5.788,-1.93445 12.6014,-7.39654 20.4395,-16.38283 7.6864,-8.85127 18.8849,-24.41059 33.531,-46.55172 0.4071,11.05616 2.7594,20.02041 7.0749,26.87015 5.6074,8.5673 12.80189,11.38247 21.58359,8.44746 8.9814,-3.00172 17.9045,-10.31379 26.7682,-21.93482 8.9634,-11.65436 18.9396,-28.42089 29.9304,-50.30283 -2.8716,36.48569 3.5767,52.0924 19.3442,46.82272 6.2869,-2.10121 13.0364,-7.28541 20.2477,-15.55281 6.9343,-7.95015 18.4632,-23.7433 34.4887,-47.21318 -0.4489,12.52848 1.3311,21.92147 5.3474,28.16959 4.3446,6.56999 10.359,8.57034 18.0432,6.0022 14.2704,-4.76941 31.5813,-23.98811 51.9347,-57.65779 l -11.4122,44.87884 c -37.1573,32.79179 -56.4317,61.96271 -57.8251,87.51305 -0.4597,8.43032 1.069,14.54014 4.5854,18.33093 3.6162,3.75744 8.6163,4.56915 15.0031,2.43459 12.5739,-4.20239 25.0391,-15.37048 37.3932,-33.50606 12.3469,-18.00589 24.0947,-45.6797 35.2429,-83.02154 28.7548,-26.03626 49.9039,-49.14931 63.4477,-69.33791 l 1.2196,-22.3722 c -15.7228,26.0101 -35.3813,49.6439 -58.9768,70.89978 l 47.2155,-165.14268 -41.4066,23.58 -20.395,66.7902 c -6.4215,20.7368 -13.9785,38.9238 -22.6694,54.5617 -8.591,15.6046 -15.9799,24.44173 -22.167,26.50958 -6.0875,2.0345 -8.8129,-2.78546 -8.1764,-14.45821 0.7711,-14.13697 6.207,-36.58107 16.3098,-67.33427 l 21.8629,-64.0356 -44.0998,24.4804 -17.066,54.2182 c -4.9972,15.765 -8.6071,30.4898 -10.8441,44.1854 -8.8071,13.42516 -15.6817,23.62008 -20.5636,30.48683 -4.9804,6.88515 -9.4166,10.97891 -13.3086,12.27965 -6.0874,2.03451 -8.8271,-2.52542 -8.2188,-13.67938 0.58,-10.63516 5.0446,-31.4189 13.3937,-62.3499 l 16.2827,-61.4047 -8.3837,2.8016 -31.7355,32.1896 c -4.1764,-13.2476 -12.5004,-17.7866 -24.9747,-13.6175 -9.8795,3.3019 -21.5543,12.5522 -35.0219,27.7492 -13.4675,15.197 -24.8231,32.9982 -34.06799,53.4053 -7.1387,15.90403 -11.8015,31.52783 -14.0142,46.87177 -15.1527,25.05122 -25.8487,38.64883 -32.0592,40.7245 -2.5947,0.86717 -4.6095,0.0767 -6.0436,-2.37272 -1.4339,-2.4494 -2.0156,-6.13919 -1.7468,-11.06769 1.1457,-21.01093 14.4697,-85.69316 39.9737,-194.04626 6.376,-27.0882 9.603,-41.344 9.6808,-42.7707 0.085,-1.5564 -0.4224,-2.3418 -1.524,-2.3557 z m -160.2771,88.5202 c -5.5649,6.8259 -11.0412,11.138 -16.4299,12.939 -4.7901,1.6009 -10.954,0.541 -18.4911,-3.1793 -3.9715,15.334 -9.1627,29.6748 -15.5732,43.0226 5.7197,4.7097 12.8715,5.6315 21.4538,2.7631 17.6634,-5.9033 27.3429,-24.4181 29.0404,-55.5454 z m 239.52289,10.1225 c 2.4684,0.051 4.4839,1.2149 6.0435,3.495 2.2756,3.1868 3.2152,8.4135 2.8191,15.6766 -1.0185,18.6764 -6.5735,40.5874 -16.6646,65.73399 -9.9842,24.98354 -19.9665,39.14318 -29.9459,42.47842 -4.0917,1.36746 -7.3672,0.36025 -9.8282,-3.01923 -2.3541,-3.54255 -3.3407,-8.81589 -2.9588,-15.81953 1.0115,-18.5467 6.5593,-40.3288 16.6433,-65.34565 10.1839,-25.0503 20.2652,-39.2413 30.2446,-42.5766 1.3097,-0.4377 2.525,-0.646 3.647,-0.623 z m -329.60109,6.2987 c 1.4012,-0.1479 2.5109,0.9222 3.329,3.2113 0.9422,2.4865 1.2816,6.1302 1.02,10.929 -0.8914,16.3419 -5.8971,37.1781 -15.0186,62.50995 -9.1214,25.33186 -20.5171,49.2601 -34.1882,71.78315 9.1272,-45.19773 17.8335,-80.89752 26.1205,-107.0965 8.3868,-26.2323 14.4264,-39.9641 18.1188,-41.1982 0.2121,-0.071 0.4184,-0.1175 0.6185,-0.1387 z m 168.5639,46.5795 c 2.8539,-0.1181 5.1615,1.1996 6.9218,3.9538 2.447,3.6389 3.4613,9.28335 3.044,16.93548 -1.0255,18.80611 -6.3662,40.39206 -16.0228,64.75677 -9.6567,24.36468 -19.3752,38.18141 -29.1548,41.44995 -4.391,1.4675 -7.7702,0.5605 -10.1384,-2.72265 -2.2686,-3.3165 -3.2082,-8.54108 -2.8192,-15.67442 0.9902,-18.15761 6.4391,-39.90611 16.3448,-65.24538 9.9126,-25.46897 19.5095,-39.75435 28.7903,-42.85605 1.0728,-0.3586 2.0831,-0.5581 3.0343,-0.5975 z m 290.07909,72.04988 c -11.0806,45.08659 -22.1591,69.48288 -33.2363,73.18502 -5.6882,1.90108 -8.2972,-1.49461 -7.8233,-10.18433 0.4668,-8.56001 4.2389,-18.41469 11.3133,-29.56505 7.1672,-11.05402 17.0827,-22.19993 29.7463,-33.43564 z m -593.79809,27.3929 c 0.4473,-0.007 0.854,0.0245 1.2176,0.0938 -14.6918,19.68085 -22.604,39.89776 -23.7357,60.64931 -0.9619,17.63881 2.8294,32.54117 11.3754,44.71031 -9.2095,19.75859 -17.3562,30.82224 -24.4415,33.19026 -5.6881,1.90109 -9.9314,-0.24598 -12.7288,-6.44174 -2.7972,-6.19578 -3.8378,-15.84259 -3.1235,-28.942 1.2873,-23.60488 6.0543,-45.44495 14.3013,-65.5185 8.3466,-20.10691 19.0065,-32.32817 31.9797,-36.66399 2.0957,-0.70041 3.8134,-1.05875 5.1555,-1.07754 z"
       id="path862-60"
       inkscape:connector-curvature="0" />
    <path
       style="font-style:normal;font-variant:normal;font-weight:normal;font-stretch:normal;font-size:332.52804565px;line-height:125%;font-family:'Script MT Bold';-inkscape-font-specification:'Script MT Bold, ';font-variant-ligatures:normal;font-variant-caps:normal;font-variant-numeric:normal;font-feature-settings:normal;text-align:start;letter-spacing:0px;word-spacing:0px;writing-mode:lr-tb;text-anchor:start;fill:#fffe00;fill-opacity:1;stroke:none;stroke-width:1.80360878px;stroke-linecap:butt;stroke-linejoin:miter;stroke-opacity:1"
       d="m 788.49181,565.07461 c -0.367,0 -0.8,0.076 -1.299,0.2433 -6.0874,2.0345 -18.0087,8.6276 -35.7624,19.7819 l -27.7512,123.4921 c -3.2381,-3.5018 -6.3008,-5.7231 -9.1884,-6.668 -2.7879,-0.9782 -6.7755,-0.6013 -11.9648,1.1331 -18.6613,6.2369 -36.8011,24.45979 -54.4184,54.66841 -13.9792,23.9863 -22.8642,47.6143 -26.6886,70.8848 -9.0393,14.9505 -15.6547,24.9809 -19.8172,30.0345 -4.0901,4.9323 -8.0806,8.0493 -11.9726,9.3501 -2.1955,0.7337 -3.9727,0.054 -5.3281,-2.0399 -1.2486,-2.2567 -1.7554,-5.5245 -1.522,-9.8045 0.5871,-10.7649 4.6613,-29.763 12.2208,-56.9921 l 18.2894,-65.89406 -1.7973,0.59959 -38.5836,23.01877 c -13.0482,41.1264 -21.5228,74.5765 -25.4615,100.4093 l 0.2347,-4.3101 c -13.3442,20.1218 -23.1988,33.7299 -29.562,40.8226 -6.3633,7.0927 -12.2395,11.5391 -17.6283,13.3401 -5.2891,1.7677 -9.3493,-0.122 -12.1819,-5.6693 -2.8328,-5.5473 -3.9425,-13.9627 -3.3272,-25.2464 0.2759,-5.0581 1.1825,-14.4654 2.7164,-28.2208 21.4935,-34.8147 37.6046,-66.1755 48.3362,-94.08279 10.7316,-27.90731 16.8193,-55.08892 18.2622,-81.54712 0.5093,-9.3382 -0.036,-16.415 -1.6344,-21.2285 -1.4922,-4.9767 -3.6846,-6.9823 -6.5786,-6.015 -0.5988,0.2001 -1.5119,0.7602 -2.7377,1.6792 l -39.018,30.9946 c -14.7272,36.5008 -27.6711,75.33387 -38.8317,116.49991 -10.0963,37.2401 -16.2215,68.7607 -18.4,94.6013 -10.4688,16.8486 -18.8703,26.3424 -25.1995,28.4577 -5.5885,1.8677 -10.7617,0.6052 -15.5188,-3.7895 12.1029,-38.6796 18.8165,-70.1474 20.1391,-94.4008 0.2688,-4.9285 0.043,-8.8637 -0.6786,-11.806 -0.7212,-2.9422 -3.0148,-4.9121 -6.8791,-5.9125 -3.7576,-1.1635 -9.8768,-0.3279 -18.3593,2.5071 -22.4536,7.5043 -42.3442,24.5917 -59.6707,51.2651 -16.2034,24.8332 -25.5301,50.9918 -27.9858,78.4746 -9.0675,15.387 -16.5222,26.3881 -22.3223,32.8851 -6.0498,6.7333 -11.9682,11.0664 -17.7562,13.0009 -7.1851,2.4014 -12.7224,0.6242 -16.6104,-5.3344 -3.8809,-6.0882 -5.4744,-15.4891 -4.7812,-28.1994 0.5729,-10.5055 3.5934,-29.0876 9.0643,-55.746 19.3717,-12.077 33.7174,-26.2923 43.0352,-42.6491 0.3254,-5.9661 0.3767,-9.6131 0.1552,-10.9397 -0.2146,-1.4563 -0.9497,-2.3567 -2.2046,-2.7013 -11.8284,13.8852 -23.194,23.797 -34.099,29.7336 7.0894,-25.7987 15.3977,-50.6057 24.9262,-74.4183 9.6353,-23.9756 16.918,-40.73515 21.8472,-50.27723 4.9364,-9.6718 7.4575,-15.47858 7.5636,-17.42408 0.042,-0.7782 -0.5339,-0.9678 -1.7315,-0.5676 -0.1,0.033 -6.1985,4.04474 -18.2932,12.0343 -11.9949,7.95622 -19.9221,14.10792 -23.7842,18.45467 -3.7624,4.31345 -9.4687,14.62414 -17.1183,30.93274 -7.5429,16.1456 -14.3331,31.9772 -20.3718,47.4927 -6.0388,15.5156 -11.9026,34.0917 -17.5895,55.729 -8.6742,4.5543 -18.7678,9.0737 -30.2794,13.5577 6.4555,-41.1215 12.0251,-69.5973 16.7092,-85.4241 4.6842,-15.8268 10.2332,-28.6307 16.6453,-38.4137 6.5189,-9.946 9.8279,-15.828 9.927,-17.6438 0.071,-1.297 -3.5446,-3.27017 -10.846,-5.92328 -6.4835,9.29758 -12.9187,15.01218 -19.3054,17.14668 -3.1934,1.0673 -9.1426,1.4647 -17.8474,1.1907 -8.6977,-0.4038 -14.5927,-0.089 -17.6865,0.9452 -14.2703,4.7694 -29.1689,19.2349 -44.693,43.3959 -15.52389,24.161 -23.80949,45.839 -24.85629,65.0342 -0.4739,8.6897 0.7383,16.1159 3.6354,22.2783 2.9041,6.0327 6.3027,8.3976 10.19459,7.0968 3.4928,-1.1673 7.3903,-5.2709 11.6934,-12.3116 4.31,-7.1705 6.572,-12.701 6.7841,-16.592 0.1202,-2.2048 -1.3004,-4.0235 -4.2597,-5.4538 -6.4111,-4.606 -9.3891,-11.0588 -8.9363,-19.3594 0.4526,-8.3006 3.5891,-17.3069 9.4094,-27.0195 5.8274,-9.8423 12.9809,-16.1809 21.4633,-19.0158 3.892,-1.3008 8.9515,-1.5271 15.1756,-0.6786 6.3239,0.8151 11.6308,0.506 15.922,-0.9282 6.5864,-2.2012 15.2135,-7.6947 25.8821,-16.4809 -23.062,34.8296 -37.5987,59.7415 -43.6092,74.7383 -6.0105,14.9968 -11.3339,33.5848 -15.9724,55.7631 -17.5898,11.7361 -32.0351,26.8782 -43.33389,45.4251 0.068,9.5272 0.4622,14.8709 1.1827,16.0308 12.48299,-16.9053 24.77229,-28.4618 36.86769,-34.669 -5.859,35.5742 -12.5837,61.88838 -20.1759,78.94188 -7.4925,17.0201 -16.32939,27.2299 -26.508393,30.6319 -13.8713,4.636 -20.0734,-6.4689 -18.6094,-33.3162 0.5943,-10.8945 -1.056,-15.6906 -4.9478,-14.3899 -2.6945,0.9005 -7.85,6.5052 -15.4665,16.8181 -7.5097,10.1499 -11.4306,18.2737 -11.7631,24.3694 -0.4527,8.3006 3.8673,15.3256 12.9594,21.0728 9.0991,5.6176 21.0338,5.9582 35.8033,1.0221 19.958693,-6.6705 38.316093,-21.7205 55.073693,-45.1478 16.8645,-23.5903 29.6077,-57.83588 38.2289,-102.73718 3.407,-1.3934 12.637,-5.3705 27.691,-11.9297 -3.0435,18.0798 -4.8573,32.503 -5.4444,43.2679 -1.4146,25.9394 1.5023,44.31968 8.7502,55.13998 7.3476,10.7869 16.908,14.2117 28.6837,10.276 10.4782,-3.502 20.8666,-10.7289 31.1635,-21.683 10.1949,-10.89388 21.6801,-26.34208 34.4384,-46.28498 0.8434,11.2206 3.5842,19.9923 8.2421,26.2898 6.5698,8.8823 15.6419,11.3882 27.2179,7.5193 18.5616,-6.2036 35.7995,-25.8422 51.7117,-58.9189 6.6893,4.895 13.6268,6.1418 20.8119,3.7404 2.7942,-0.9338 6.65,-3.3683 11.5674,-7.3037 4.5547,-3.7599 9.3175,-9.0254 14.2856,-15.7555 0.5858,11.6342 3.0623,20.6458 7.4376,27.0216 5.9993,8.5636 14.3374,11.0603 25.0153,7.4915 9.2808,-3.1017 19.2197,-10.1787 29.8161,-21.2328 10.3909,-10.89 22.5652,-26.3136 36.4935,-46.1868 -0.038,0.5782 -0.091,1.1846 -0.1222,1.7518 -0.7002,12.84 0.9115,22.8054 4.8355,29.8979 3.9312,6.9628 9.0913,9.3764 15.4781,7.2419 11.4131,-3.8144 29.41,-25.0833 53.9608,-63.7368 0.2007,11.1883 2.8048,20.3335 7.8331,27.4227 5.9207,8.2079 13.1225,10.8941 21.6048,8.0591 7.784,-2.6014 16.7096,-9.9758 26.778,-22.1268 10.1679,-12.1843 19.8138,-28.2698 28.9376,-48.2544 -0.8409,17.2163 0.5399,29.6157 4.1434,37.1974 3.7033,7.5483 9.0985,10.1391 16.1838,7.7711 5.788,-1.9345 12.6014,-7.3966 20.4395,-16.3829 7.6864,-8.8512 18.8849,-24.4106 33.531,-46.5517 0.4071,11.0562 2.7594,20.0204 7.0749,26.8702 5.6074,8.5673 12.8019,11.3824 21.5836,8.4474 8.9814,-3.0017 17.9045,-10.3138 26.7682,-21.9348 8.9634,-11.6544 18.9396,-28.4209 29.9304,-50.3028 -2.8716,36.4857 3.5767,52.0924 19.3442,46.8227 6.2869,-2.1012 13.0364,-7.2854 20.2477,-15.5528 6.9343,-7.9502 18.4632,-23.7433 34.4887,-47.21321 -0.4489,12.52851 1.3311,21.92151 5.3474,28.16961 4.3446,6.57 10.359,8.5703 18.0432,6.0022 14.2704,-4.7694 31.5813,-23.9881 51.93469,-57.65781 l -11.4122,44.87881 c -37.15729,32.7918 -56.43169,61.9627 -57.82509,87.5131 -0.4597,8.4303 1.069,14.5401 4.5854,18.3309 3.6162,3.7575 8.6163,4.5692 15.0031,2.4346 12.5739,-4.2024 25.0391,-15.3705 37.39319,-33.5061 12.3469,-18.0058 24.0947,-45.6797 35.2429,-83.0215 28.7548,-26.03626 49.9039,-49.14931 63.4477,-69.33791 l 1.2196,-22.3722 c -15.7228,26.0101 -35.3813,49.6439 -58.9768,70.89978 l 47.2155,-165.14268 -41.4066,23.58 -20.395,66.7902 c -6.4215,20.7368 -13.9785,38.9238 -22.6694,54.5617 -8.59099,15.6046 -15.97989,24.44173 -22.16699,26.50958 -6.0875,2.0345 -8.8129,-2.78546 -8.1764,-14.45821 0.7711,-14.13697 6.207,-36.58107 16.3098,-67.33427 l 21.86289,-64.0356 -44.09979,24.4804 -17.066,54.2182 c -4.9972,15.765 -8.6071,30.4898 -10.8441,44.1854 -8.8071,13.42516 -15.6817,23.62008 -20.5636,30.48683 -4.9804,6.88518 -9.4166,10.97888 -13.3086,12.27968 -6.0874,2.0345 -8.8271,-2.5254 -8.2188,-13.67941 0.58,-10.63516 5.0446,-31.4189 13.3937,-62.3499 l 16.2827,-61.4047 -8.3837,2.8016 -31.7355,32.1896 c -4.1764,-13.2476 -12.5004,-17.7866 -24.9747,-13.6175 -9.8795,3.3019 -21.5543,12.5522 -35.0219,27.7492 -13.4675,15.197 -24.8231,32.9982 -34.068,53.4053 -7.1387,15.90403 -11.8015,31.52781 -14.0142,46.87181 -15.1527,25.0512 -25.8487,38.6488 -32.0592,40.7245 -2.5947,0.8671 -4.6095,0.077 -6.0436,-2.3728 -1.4339,-2.4494 -2.0156,-6.1391 -1.7468,-11.0676 1.1457,-21.011 14.4697,-85.69321 39.9737,-194.04631 6.376,-27.0882 9.603,-41.344 9.6808,-42.7707 0.085,-1.5564 -0.4224,-2.3418 -1.524,-2.3557 z m -160.2771,88.5202 c -5.5649,6.8259 -11.0412,11.138 -16.4299,12.939 -4.7901,1.6009 -10.954,0.541 -18.4911,-3.1793 -3.9715,15.334 -9.1627,29.6748 -15.5732,43.0226 5.7197,4.7097 12.8715,5.6315 21.4538,2.7631 17.6634,-5.9033 27.3429,-24.4181 29.0404,-55.5454 z m 239.5229,10.1225 c 2.4684,0.051 4.4839,1.2149 6.0435,3.495 2.2756,3.1868 3.2152,8.4135 2.8191,15.6766 -1.0185,18.6764 -6.5735,40.5874 -16.6646,65.73399 -9.9842,24.98352 -19.9665,39.14322 -29.9459,42.47842 -4.0917,1.3675 -7.3672,0.3603 -9.8282,-3.0192 -2.3541,-3.5426 -3.3407,-8.8159 -2.9588,-15.8196 1.0115,-18.54666 6.5593,-40.32876 16.6433,-65.34561 10.1839,-25.0503 20.2652,-39.2413 30.2446,-42.5766 1.3097,-0.4377 2.525,-0.646 3.647,-0.623 z m -329.6011,6.2987 c 1.4012,-0.1479 2.5109,0.9222 3.329,3.2113 0.9422,2.4865 1.2816,6.1302 1.02,10.929 -0.8914,16.3419 -5.8971,37.1781 -15.0186,62.50995 -9.1214,25.33186 -20.5171,49.26006 -34.1882,71.78316 9.1272,-45.1977 17.8335,-80.89753 26.1205,-107.09651 8.3868,-26.2323 14.4264,-39.9641 18.1188,-41.1982 0.2121,-0.071 0.4184,-0.1175 0.6185,-0.1387 z m 168.5639,46.5795 c 2.8539,-0.1181 5.1615,1.1996 6.9218,3.9538 2.447,3.6389 3.4613,9.28335 3.044,16.93548 -1.0255,18.80611 -6.3662,40.39203 -16.0228,64.75673 -9.6567,24.3647 -19.3752,38.1815 -29.1548,41.45 -4.391,1.4675 -7.7702,0.5605 -10.1384,-2.7227 -2.2686,-3.3165 -3.2082,-8.541 -2.8192,-15.6744 0.9902,-18.1576 6.4391,-39.9061 16.3448,-65.2454 9.9126,-25.46893 19.5095,-39.75431 28.7903,-42.85601 1.0728,-0.3586 2.0831,-0.5581 3.0343,-0.5975 z m 290.0791,72.04991 c -11.0806,45.0866 -22.1591,69.4829 -33.2363,73.185 -5.6882,1.9011 -8.2972,-1.4946 -7.8233,-10.1843 0.4668,-8.56 4.2389,-18.4147 11.3133,-29.5651 7.1672,-11.054 17.0827,-22.1999 29.7463,-33.4356 z m -593.7981,27.3929 c 0.4473,-0.01 0.854,0.024 1.2176,0.094 -14.6918,19.6808 -22.604,39.8977 -23.7357,60.6493 -0.9619,17.6388 2.8294,32.5412 11.3754,44.7103 -9.2095,19.7586 -17.3562,30.8222 -24.4415,33.1903 -5.6881,1.901 -9.9314,-0.246 -12.7288,-6.4418 -2.7972,-6.1958 -3.8378,-15.8426 -3.1235,-28.942 1.2873,-23.6049 6.0543,-45.4449 14.3013,-65.5185 8.3466,-20.1069 19.0065,-32.3282 31.9797,-36.664 2.0957,-0.7004 3.8134,-1.0587 5.1555,-1.0775 z"
       id="path862-23"
       inkscape:connector-curvature="0" />
  </g>
</svg>
