<?xml version="1.0" encoding="UTF-8" standalone="no"?>
<!-- Created with Inkscape (http://www.inkscape.org/) -->

<svg
   xmlns:dc="http://purl.org/dc/elements/1.1/"
   xmlns:cc="http://creativecommons.org/ns#"
   xmlns:rdf="http://www.w3.org/1999/02/22-rdf-syntax-ns#"
   xmlns:svg="http://www.w3.org/2000/svg"
   xmlns="http://www.w3.org/2000/svg"
   xmlns:sodipodi="http://sodipodi.sourceforge.net/DTD/sodipodi-0.dtd"
   xmlns:inkscape="http://www.inkscape.org/namespaces/inkscape"
   width="18in"
   height="12in"
   viewBox="0 0 1728 1152"
   version="1.1"
   id="svg2815"
   inkscape:version="0.92.3 (2405546, 2018-03-11)"
   sodipodi:docname="18 x 12 Sheet Blue For the Rest of Us Sign.svg">
  <defs
     id="defs2809" />
  <sodipodi:namedview
     id="base"
     pagecolor="#1f1f1f"
     bordercolor="#666666"
     borderopacity="1.0"
     inkscape:pageopacity="0"
     inkscape:pageshadow="2"
     inkscape:zoom="1.2432572"
     inkscape:cx="975.15191"
     inkscape:cy="115.0474"
     inkscape:document-units="in"
     inkscape:current-layer="layer1"
     showgrid="true"
     inkscape:snap-global="false"
     showguides="true"
     units="in"
     gridtolerance="10"
     inkscape:window-width="1920"
     inkscape:window-height="1017"
     inkscape:window-x="-8"
     inkscape:window-y="-8"
     inkscape:window-maximized="1"
     inkscape:guide-bbox="true">
    <inkscape:grid
       type="xygrid"
       id="grid3368"
       units="in"
       spacingx="24"
       spacingy="24"
       empspacing="4" />
    <sodipodi:guide
       position="146.42539,1151.7791"
       orientation="0,1"
       id="guide845"
       inkscape:locked="false" />
    <sodipodi:guide
       position="1723.8948,926.85761"
       orientation="1,0"
       id="guide847"
       inkscape:locked="false" />
    <sodipodi:guide
       position="863.85986,811.57783"
       orientation="1,0"
       id="guide849"
       inkscape:locked="false" />
    <sodipodi:guide
       position="46.795743,878.55233"
       orientation="1,0"
       id="guide851"
       inkscape:locked="false" />
    <sodipodi:guide
       position="1680.1181,795.52763"
       orientation="1,0"
       id="guide853"
       inkscape:locked="false" />
    <sodipodi:guide
       position="289.8317,809.11349"
       orientation="0,1"
       id="guide927"
       inkscape:locked="false" />
    <sodipodi:guide
       position="419.65215,108.68689"
       orientation="0,1"
       id="guide929"
       inkscape:locked="false" />
  </sodipodi:namedview>
  <metadata
     id="metadata2812">
    <rdf:RDF>
      <cc:Work
         rdf:about="">
        <dc:format>image/svg+xml</dc:format>
        <dc:type
           rdf:resource="http://purl.org/dc/dcmitype/StillImage" />
        <dc:title></dc:title>
      </cc:Work>
    </rdf:RDF>
  </metadata>
  <g
     inkscape:label="Layer 1"
     inkscape:groupmode="layer"
     id="layer1"
     transform="translate(0,7.8)">
    <g
       style="font-style:normal;font-variant:normal;font-weight:normal;font-stretch:normal;font-size:medium;line-height:1.25;font-family:Mephisto™;-inkscape-font-specification:Mephisto™;letter-spacing:0px;word-spacing:0px;fill:#0000ff;fill-opacity:0.49803922;stroke:#0000ff;stroke-width:0.5073297;stroke-miterlimit:4;stroke-dasharray:none;stroke-opacity:1"
       id="g889"
       transform="matrix(0.89658437,0,-0.29289196,0.99841413,290.67588,-21.806261)">
      <path
         d="m 246.03106,89.79865 -63.33336,92.1996 q 0,-1.72336 0.43083,-8.61679 0.86168,-7.32427 0.86168,-10.34014 0,-21.54196 -20.68028,-23.26532 -37.91385,0 -70.657634,0.86168 -11.20182,0.43084 -12.063499,-0.86168 v 75.82771 q 4.739232,0 13.786856,-0.43084 10.770977,0 11.632657,0 23.69616,0 30.58959,-3.01588 14.64853,-6.03175 22.83448,-29.7279 3.01587,-4.73924 6.46259,-4.73924 v 125.80506 q -1.72336,-0.43084 -4.73924,-3.01587 -5.60091,-21.11113 -19.8186,-29.72791 -10.34014,-6.46259 -28.43539,-7.32427 -14.217695,0 -28.866229,0 -0.430839,0.86168 -2.585035,3.87755 -0.43084,29.72791 0.430839,90.0454 0.861678,17.23357 -0.430839,46.96148 -1.292518,34.89798 -1.292518,46.96148 -25.419515,-65.91841 -78.8435797,-103.83226 6.8934277,-2.58503 19.8186047,-9.04762 5.60091,-3.01588 9.478463,-12.92518 3.446714,-8.61678 3.446714,-14.64853 V 136.76013 q 0,-12.49434 -9.478463,-22.40364 Q 19.840465,109.61725 6.4844491,100.56963 -3.8556925,93.676203 -4.2865318,89.79865 Z"
         style="fill:#0000ff;fill-opacity:0.49803922;stroke:#0000ff;stroke-width:0.5073297;stroke-miterlimit:4;stroke-dasharray:none;stroke-opacity:1"
         id="path847"
         inkscape:connector-curvature="0" />
      <path
         d="m 452.21456,250.93252 q 0,43.08393 -23.69615,73.24267 -27.14288,34.0363 -72.81183,34.0363 -46.96148,0 -73.24267,-34.0363 -23.26532,-29.7279 -23.26532,-74.10435 0,-42.22224 27.14287,-72.81183 28.86623,-32.31294 72.81183,-32.31294 47.39232,0 72.38099,35.75966 20.68028,29.29707 20.68028,70.22679 z m -40.06804,0 q 0,-26.71203 -11.20182,-44.80728 -14.64854,-24.12699 -45.23812,-24.12699 -28.86623,0 -43.51477,26.28119 -11.20182,19.8186 -11.20182,43.51476 0,24.55784 12.49434,43.9456 15.07937,24.127 42.22225,24.127 27.14287,0 42.65308,-22.40364 13.78686,-19.38777 13.78686,-46.53064 z"
         style="fill:#0000ff;fill-opacity:0.49803922;stroke:#0000ff;stroke-width:0.5073297;stroke-miterlimit:4;stroke-dasharray:none;stroke-opacity:1"
         id="path849"
         inkscape:connector-curvature="0" />
      <path
         d="m 691.5323,347.00967 q -43.9456,30.15875 -40.92973,77.55106 -15.51021,-32.74378 -31.02042,-65.48756 -19.38777,-40.92973 -34.89798,-67.21092 -22.40364,-3.01587 -46.53064,-10.77098 -0.86168,2.58503 -0.86168,13.35602 0,1.72335 0.86168,12.92517 0.86168,11.20182 0.86168,16.37189 0.43084,8.61679 13.35602,17.66441 9.9093,6.89343 19.8186,13.78686 H 466.63422 q 31.8821,-13.35602 31.8821,-40.06805 V 219.9121 q 0,-18.95693 -5.60091,-31.8821 -2.15419,-5.17008 -10.34014,-7.32427 -11.20182,-3.87755 -12.49434,-4.30839 9.04763,-5.17007 27.14287,-16.3719 15.94106,-11.63265 39.63721,-38.34469 v 32.31295 q 1.72336,1.29251 4.3084,0.86167 26.28119,-11.63266 46.09979,-11.63266 33.17462,0 58.59414,20.24945 27.14287,21.9728 27.14287,54.71658 0,16.80273 -14.21769,37.91385 -14.2177,20.68029 -32.74379,27.57371 10.34015,19.81861 20.68029,39.20638 15.94105,25.41951 33.17462,25.41951 1.72336,0 6.03175,-0.43084 4.30839,-0.86168 5.60091,-0.86168 z M 629.49145,216.46538 q 0,-5.17007 -0.86168,-9.9093 -0.43084,-4.73923 -8.61678,-12.92517 -8.18595,-8.18595 -12.49434,-8.18595 -2.1542,0 -3.01588,1.72336 -0.86168,3.01587 -0.86168,3.44671 -0.86167,-0.86168 -1.29251,-4.73923 -0.43084,-3.87755 -15.51022,-3.87755 -18.09524,0 -32.31294,9.04762 -17.23357,10.34014 -17.23357,28.86623 0,16.37189 16.37189,25.41951 13.35602,7.32427 30.58959,7.32427 16.37189,0 28.43539,-7.32427 16.80273,-9.47846 16.80273,-28.86623 z"
         style="fill:#0000ff;fill-opacity:0.49803922;stroke:#0000ff;stroke-width:0.5073297;stroke-miterlimit:4;stroke-dasharray:none;stroke-opacity:1"
         id="path851"
         inkscape:connector-curvature="0" />
    </g>
    <g
       style="font-style:normal;font-variant:normal;font-weight:normal;font-stretch:normal;font-size:medium;line-height:1.25;font-family:Mephisto™;-inkscape-font-specification:Mephisto™;letter-spacing:0px;word-spacing:0px;fill:#0000ff;fill-opacity:0.49803922;stroke:#0000ff;stroke-width:0.47999999;stroke-miterlimit:4;stroke-dasharray:none;stroke-opacity:1"
       id="g884"
       transform="matrix(0.89658437,0,-0.29289196,1.115344,414.45817,627.86955)">
      <path
         d="m 935.76432,38.95962 -1.29252,239.54661 q 0.43084,47.39232 -34.0363,70.2268 -25.85035,17.23357 -62.04085,17.23357 -79.27442,0 -95.64631,-65.05673 -1.72336,-5.60091 -3.44671,-44.37644 -0.86168,-21.54196 -0.86168,-70.65763 0,-6.46259 0.86168,-17.23357 1.29251,-10.77098 1.29251,-16.80273 0,-15.07937 -5.17007,-31.8821 -2.58503,-9.04763 -13.35601,-15.94106 -14.2177,-8.61678 -18.95693,-13.786851 h 120.63499 q -9.90931,6.462589 -19.38777,12.925181 -13.35602,8.61678 -15.07937,21.11112 -2.58504,14.21769 -2.58504,65.05672 0,-1.29251 0.86168,20.24945 0.86168,18.52608 0.43084,27.14287 -4.73923,78.41274 49.11567,78.41274 51.70071,0 51.70071,-67.21092 0,-7.32427 -0.43084,-18.95693 -0.43084,-11.63266 -0.43084,-15.51021 0,-39.63721 -0.86168,-49.54651 -2.58503,-31.88211 -12.06349,-33.60546 -6.89343,-1.72336 -19.81861,-3.44672 -0.86168,-0.86167 -6.03175,-4.30839 19.38777,-4.73923 46.53064,-32.312941 22.40364,-23.696158 40.06805,-51.269869 z"
         style="fill:#0000ff;fill-opacity:0.49803922;stroke:#0000ff;stroke-width:0.47999999;stroke-miterlimit:4;stroke-dasharray:none;stroke-opacity:1"
         id="path853"
         inkscape:connector-curvature="0" />
      <path
         d="m 1146.9496,304.35659 q 0,31.02042 -28.8663,48.68483 -23.2653,14.2177 -50.839,14.2177 -23.2653,0 -49.9773,-9.47847 -26.28123,-9.04762 -35.32886,-9.04762 -10.34014,0 -31.02042,6.46259 l 69.79598,-78.41274 q -3.0159,9.04762 -3.0159,16.80273 0,18.52608 16.3719,27.57371 12.4943,7.7551 30.5896,7.7551 13.356,0 23.6961,-5.17007 13.3561,-6.89342 13.3561,-19.38776 0,-15.51021 -32.313,-24.98868 -54.7166,-16.37189 -59.4558,-18.52608 -32.31295,-15.51022 -32.31295,-45.66896 0,-31.02043 23.69615,-49.11568 20.6803,-15.51021 48.254,-15.51021 19.3878,0 43.9456,8.61679 24.5578,8.18594 30.1588,8.18594 -4.3084,0 23.2653,-4.30839 -22.4037,22.40364 -62.9026,69.79596 0.4309,-4.3084 0.4309,-7.75511 0,-34.0363 -34.898,-34.0363 -26.712,0 -26.712,17.66441 0,15.51021 32.3129,24.98867 51.2699,15.51022 59.8867,20.24945 31.8821,17.23357 31.8821,50.40819 z"
         style="fill:#0000ff;fill-opacity:0.49803922;stroke:#0000ff;stroke-width:0.47999999;stroke-miterlimit:4;stroke-dasharray:none;stroke-opacity:1"
         id="path855"
         inkscape:connector-curvature="0" />
    </g>
    <g
       id="g899"
       transform="translate(240.01688,-42.267122)"
       style="fill:#0000ff;fill-opacity:0.49803922;stroke:#0000ff;stroke-opacity:1;stroke-width:0.48;stroke-miterlimit:4;stroke-dasharray:none">
      <path
         d="m 309.14551,719.74263 q -25.16204,20.14508 -42.32517,49.6912 -15.9341,27.30776 -21.42612,56.40621 -4.70598,-44.76684 -9.77351,-89.53367 -6.15364,-55.95855 -13.14359,-92.21969 -20.78299,-4.02902 -41.8561,-14.77306 -1.9953,4.02902 -5.33424,18.80207 -0.40472,1.79067 -2.86134,17.45907 -2.45662,15.66839 -3.97432,22.38342 -2.73186,12.08705 7.08972,24.62176 7.73853,8.95337 15.37587,18.3544 H 88.233597 q 35.242553,-18.3544 43.438133,-54.61553 l 29.44338,-130.2715 q 5.96962,-26.41244 4.0295,-43.42384 -0.55048,-7.16269 -7.43499,-10.29637 -10.09539,-4.92435 -10.87653,-6.26736 10.09396,-6.26735 31.35171,-21.93574 19.0884,-15.6684 50.16345,-52.37721 l -10.01682,44.31917 q 1.40309,1.79068 4.13637,0.89534 29.21208,-15.6684 48.73634,-15.6684 32.17887,0 50.13024,27.75545 20.07759,29.54611 9.95959,74.31295 -5.26136,23.27875 -25.83773,51.92953 -20.21482,28.65078 -40.4176,38.05181 4.05288,26.8601 8.10577,53.7202 7.75624,34.47047 24.388,34.47047 1.80781,0 5.88615,-0.44767 4.54109,-0.89534 5.72695,-1.34301 z M 289.13575,541.12295 q 1.5177,-6.71503 2.77502,-13.87771 0.59222,-5.8197 -4.83261,-17.0114 -5.32365,-11.63938 -9.30081,-11.63938 -2.53092,0 -3.49956,2.686 -1.9953,4.02903 -2.09647,4.47669 -0.78115,-1.34301 -0.0297,-6.26736 0.8526,-5.37201 -13.97137,-5.37201 -17.3549,0 -33.82605,12.08704 -20.33227,14.77306 -25.99835,39.84249 -5.059,22.38342 8.37817,34.91813 10.79021,9.84871 27.42199,9.84871 15.90865,0 30.0661,-9.84871 18.94405,-13.43006 24.91367,-39.84249 z"
         style="font-style:normal;font-variant:normal;font-weight:normal;font-stretch:normal;font-size:medium;line-height:1.25;font-family:Mephisto™;-inkscape-font-specification:Mephisto™;letter-spacing:0px;word-spacing:0px;fill:#0000ff;fill-opacity:0.49803922;stroke:#0000ff;stroke-width:0.48;stroke-opacity:1;stroke-miterlimit:4;stroke-dasharray:none"
         id="path858"
         inkscape:connector-curvature="0" />
      <path
         d="M 509.02197,730.93434 H 316.31034 q 10.9763,-5.37202 30.58545,-20.14507 1.79294,-3.13368 4.41018,-6.71503 12.15788,-39.39482 22.6806,-85.95233 l 10.42154,-46.10985 q 7.89203,-34.91812 -17.89621,-48.79585 0.24552,-2.686 0.3467,-3.13367 h 184.39575 q -11.65483,14.77306 -62.0355,64.91191 -0.0877,-7.61036 0.0849,-14.77305 -1.18728,-10.74405 -8.3173,-11.19171 -61.46525,0 -61.36407,-0.44767 l -11.1298,49.24352 h 36.15603 q 6.50808,0 16.06643,-10.29638 9.55834,-10.29636 18.85631,-21.0404 l -22.86667,101.17305 q -7.69822,-33.12746 -17.72073,-33.57513 H 400.297 q -0.20235,0.89533 -11.12979,49.24352 h 69.78113 q 7.2312,0 12.73951,-14.77306 3.57102,-9.40103 4.10522,-16.56372 18.19974,47.45285 33.22891,68.94092 z"
         style="font-style:normal;font-variant:normal;font-weight:normal;font-stretch:normal;font-size:medium;line-height:1.25;font-family:Mephisto™;-inkscape-font-specification:Mephisto™;letter-spacing:0px;word-spacing:0px;fill:#0000ff;fill-opacity:0.49803922;stroke:#0000ff;stroke-width:0.48;stroke-opacity:1;stroke-miterlimit:4;stroke-dasharray:none"
         id="path860"
         inkscape:connector-curvature="0" />
      <path
         d="M 692.96788,678.10947 Q 685.68292,710.3416 657.31,728.696 q -22.86319,14.77306 -46.00304,14.77306 -19.52426,0 -39.71504,-9.84871 -19.9304,-9.40104 -27.52316,-9.40104 -8.67745,0 -27.55005,6.71503 l 76.98753,-81.47565 q -4.65571,9.40105 -6.47694,17.45907 -4.35074,19.24974 7.26377,28.65078 8.66401,8.05803 23.84954,8.05803 11.20837,0 21.09998,-5.37202 12.82724,-7.1627 15.76146,-20.14508 3.64248,-16.11605 -21.24858,-25.96476 -42.07332,-17.01139 -45.54458,-19.24974 -23.47454,-16.11606 -16.39194,-47.45285 7.28496,-32.23213 31.42033,-51.0342 20.99737,-16.11606 44.13723,-16.11606 16.27022,0 34.85555,8.95338 18.68652,8.50569 23.38681,8.50569 -3.61561,0 20.53604,-4.47668 -24.06249,23.27876 -69.17895,72.52227 1.37336,-4.47668 2.1828,-8.05803 7.99321,-35.3658 -21.29317,-35.3658 -22.41673,0 -26.56511,18.3544 -3.64248,16.11607 21.24858,25.96477 39.38319,16.11607 45.50142,21.04042 22.70826,17.90673 14.9174,52.37719 z"
         style="font-style:normal;font-variant:normal;font-weight:normal;font-stretch:normal;font-size:medium;line-height:1.25;font-family:Mephisto™;-inkscape-font-specification:Mephisto™;letter-spacing:0px;word-spacing:0px;fill:#0000ff;fill-opacity:0.49803922;stroke:#0000ff;stroke-width:0.48;stroke-opacity:1;stroke-miterlimit:4;stroke-dasharray:none"
         id="path862"
         inkscape:connector-curvature="0" />
      <path
         d="m 914.22335,521.87321 q -21.87827,26.41243 -49.10564,68.49326 0.17263,-7.1627 0.34527,-14.32538 0.25896,-10.74404 -4.61538,-14.77306 -4.87435,-4.02901 -22.5908,-4.02901 -3.25404,0 -6.07364,4.47668 l -22.46196,99.38237 q -5.5649,24.62177 -4.78234,37.15648 1.24673,23.27876 18.64621,32.67979 h -92.92099 q 8.54654,-5.81968 25.58161,-18.80207 2.21252,-1.79067 7.95291,-11.19171 6.10193,-9.40103 7.11373,-13.87772 l 28.63394,-126.69015 q -1.09954,-3.13367 -9.77699,-3.13367 -15.54709,0 -22.08348,4.92435 -8.7489,6.71502 -16.54118,29.99378 -2.20192,-28.65078 -11.59333,-70.28394 z"
         style="font-style:normal;font-variant:normal;font-weight:normal;font-stretch:normal;font-size:medium;line-height:1.25;font-family:Mephisto™;-inkscape-font-specification:Mephisto™;letter-spacing:0px;word-spacing:0px;fill:#0000ff;fill-opacity:0.49803922;stroke:#0000ff;stroke-width:0.48;stroke-opacity:1;stroke-miterlimit:4;stroke-dasharray:none"
         id="path864"
         inkscape:connector-curvature="0" />
    </g>
    <text
       xml:space="preserve"
       style="font-style:normal;font-variant:normal;font-weight:normal;font-stretch:normal;font-size:192px;line-height:1.25;font-family:CountdownD;-inkscape-font-specification:CountdownD;letter-spacing:0px;word-spacing:0px;fill:#0000ff;fill-opacity:0.49803922;stroke:#0000ff;stroke-opacity:1;stroke-width:0.48;stroke-miterlimit:4;stroke-dasharray:none"
       x="129.82045"
       y="1059.6658"
       id="text827"><tspan
         sodipodi:role="line"
         id="tspan825"
         x="129.82045"
         y="1240.4158" /></text>
    <g
       id="g918"
       transform="matrix(1,0,0,0.97203518,920.52205,-692.11457)"
       style="fill:#0000ff;fill-opacity:0.49803922;stroke:#0000ff;stroke-width:0.48685569;stroke-miterlimit:4;stroke-dasharray:none;stroke-opacity:1">
      <path
         d="m 216.84834,833.09053 q -24.13209,28.3515 -54.42857,73.52169 0.38994,-7.68854 0.77988,-15.37709 0.58492,-11.53281 -4.50714,-15.85762 -5.09206,-4.3248 -24.01996,-4.3248 -3.47655,0 -6.6174,4.80534 l -26.84921,106.67854 q -6.651832,26.42941 -6.175382,39.88431 0.664106,24.9878 18.983632,35.079 H 14.739272 q 9.29793,-6.247 27.870325,-20.1824 2.415193,-1.9222 8.817817,-12.0134 6.788909,-10.0912 7.998335,-14.8965 L 93.652445,874.41645 q -1.084826,-3.36374 -10.355634,-3.36374 -16.610203,0 -23.734817,5.28587 -9.539816,7.20802 -18.532802,32.19578 -1.530495,-30.75417 -10.369605,-75.44383 z"
         style="font-style:normal;font-variant:normal;font-weight:normal;font-stretch:normal;font-size:medium;line-height:1.25;font-family:Mephisto™;-inkscape-font-specification:Mephisto™;letter-spacing:0px;word-spacing:0px;fill:#0000ff;fill-opacity:0.49803922;stroke:#0000ff;stroke-width:0.48685569;stroke-miterlimit:4;stroke-dasharray:none;stroke-opacity:1"
         id="path867"
         inkscape:connector-curvature="0" />
      <path
         d="M 379.66875,1057.4999 H 286.1881 q 6.37551,-3.8443 19.77816,-11.0523 15.43155,-9.1301 20.39019,-28.832 14.05277,-54.30037 13.93183,-53.81984 h -78.4156 L 223.17112,1117.5666 H 218.922 q -5.37355,-21.624 -16.22908,-39.8843 -13.62989,-22.5851 -29.39349,-25.9488 1.01444,-0.9611 6.11017,-4.3248 20.9568,-1.9222 31.51838,-25.4683 3.35927,-7.208 11.96964,-39.88435 2.17696,-8.64961 7.64283,-28.83204 5.97309,-20.66295 6.45686,-22.58509 12.69895,-50.45607 14.37234,-66.31368 1.26001,-9.61069 -6.99269,-18.26029 -9.94224,-9.61069 -10.23104,-11.53283 h 88.45898 q -1.76357,2.40268 -20.6013,15.85763 -14.63552,10.57174 -17.29626,21.14349 l -13.4246,53.33927 h 77.25674 q 3.3087,-2.40267 7.42074,-18.74082 6.65183,-26.42937 5.59412,-36.04005 -0.74545,-6.24694 -6.9729,-9.13015 -5.84118,-2.88319 -11.41699,-5.28587 17.0236,-6.24694 39.00217,-24.50723 22.36487,-18.26029 36.47337,-37.48165 l -30.96125,123.01669 q 0.82314,-4.80534 -13.08524,50.45607 -10.2801,40.8454 -10.2801,40.8454 -2.17696,8.6496 -3.72942,24.0267 0.64796,8.1691 7.6949,13.9355 9.26715,7.6885 11.38987,11.5328 z"
         style="font-style:normal;font-variant:normal;font-weight:normal;font-stretch:normal;font-size:medium;line-height:1.25;font-family:Mephisto™;-inkscape-font-specification:Mephisto™;letter-spacing:0px;word-spacing:0px;fill:#0000ff;fill-opacity:0.49803922;stroke:#0000ff;stroke-width:0.48685569;stroke-miterlimit:4;stroke-dasharray:none;stroke-opacity:1"
         id="path869"
         inkscape:connector-curvature="0" />
      <path
         d="M 598.79424,1057.4999 H 392.90502 q 11.88096,-5.7664 33.25483,-21.624 2.00545,-3.3638 4.90441,-7.2081 14.11949,-42.28695 26.69749,-92.26248 l 12.45707,-49.49499 q 9.43351,-37.48165 -17.71998,-52.37821 0.33937,-2.88319 0.46031,-3.36373 h 197.0047 q -12.87562,15.85762 -68.13981,69.67742 0.1246,-8.16908 0.51455,-15.85762 -0.96023,-11.53281 -8.56496,-12.01335 -65.66823,0 -65.54729,-0.48053 l -13.30366,52.85874 h 38.62837 q 6.95311,0 17.46045,-11.05228 10.50736,-11.05229 20.74936,-22.58511 l -27.33298,108.60064 q -7.27417,-35.55947 -17.96918,-36.04 h -41.33236 q -0.24188,0.96107 -13.30366,52.8587 h 74.55276 q 7.72568,0 14.03447,-15.8576 4.08493,-10.09121 4.86116,-17.77974 18.0828,50.93664 33.52317,74.00224 z"
         style="font-style:normal;font-variant:normal;font-weight:normal;font-stretch:normal;font-size:medium;line-height:1.25;font-family:Mephisto™;-inkscape-font-specification:Mephisto™;letter-spacing:0px;word-spacing:0px;fill:#0000ff;fill-opacity:0.49803922;stroke:#0000ff;stroke-width:0.48685569;stroke-miterlimit:4;stroke-dasharray:none;stroke-opacity:1"
         id="path871"
         inkscape:connector-curvature="0" />
    </g>
    <text
       xml:space="preserve"
       style="font-style:normal;font-variant:normal;font-weight:normal;font-stretch:normal;font-size:192px;line-height:1.25;font-family:Mephisto™;-inkscape-font-specification:Mephisto™;letter-spacing:0px;word-spacing:0px;fill:#0000ff;fill-opacity:0.49803922;stroke:#0000ff;stroke-opacity:1;stroke-width:0.48;stroke-miterlimit:4;stroke-dasharray:none"
       x="1204.613"
       y="706.43341"
       id="text876"><tspan
         sodipodi:role="line"
         id="tspan874"
         x="1204.613"
         y="880.28705" /></text>
    <g
       id="g910"
       transform="matrix(1,0,0,0.95687419,-236.99779,31.933834)"
       style="fill:#0000ff;fill-opacity:0.49803922;stroke:#0000ff;stroke-opacity:1;stroke-width:0.49069747;stroke-miterlimit:4;stroke-dasharray:none">
      <path
         d="m 840.08065,928.2637 q -11.9295,47.87667 -42.62197,81.3903 -35.01583,37.8226 -78.07453,37.8226 -44.27734,0 -59.63206,-37.8226 -13.70421,-33.03487 -1.41683,-82.34784 11.69091,-46.91914 45.75235,-80.91158 36.1635,-35.9075 77.59734,-35.9075 44.68356,0 58.34245,39.73764 11.38627,32.55613 0.0533,78.03898 z m -37.77793,0 q 7.39629,-29.68355 1.84504,-49.79174 -7.13073,-26.81095 -35.97197,-26.81095 -27.21629,0 -48.30453,29.20478 -16.04921,22.02327 -22.61043,48.35544 -6.79982,27.28971 -0.38781,48.83421 7.53694,26.81096 33.12838,26.81096 25.59153,0 46.41855,-24.8959 18.36719,-21.5445 25.88277,-51.7068 z"
         style="font-style:normal;font-variant:normal;font-weight:normal;font-stretch:normal;font-size:medium;line-height:1.25;font-family:Mephisto™;-inkscape-font-specification:Mephisto™;letter-spacing:0px;word-spacing:0px;fill:#0000ff;fill-opacity:0.49803922;stroke:#0000ff;stroke-width:0.49069747;stroke-opacity:1;stroke-miterlimit:4;stroke-dasharray:none"
         id="path901"
         inkscape:connector-curvature="0" />
      <path
         d="m 1080.0879,820.06241 -70.915,77.56021 q 0.3579,-1.43629 2.1956,-7.18149 1.8378,-5.7452 2.5535,-8.61781 4.5332,-18.19313 -11.7636,-19.62944 -67.43161,0 -67.43161,0 l -15.86623,63.67599 q 3.53671,0.47876 11.66098,0.47876 8.24356,-0.47876 9.05598,-0.47876 19.09203,0 25.37558,-2.39384 13.49865,-5.26644 25.00845,-25.37464 3.39163,-3.83013 6.23513,-3.83013 l -26.36419,105.80744 q -1.21864,0 -3.17874,-1.91507 -0.46064,-17.71436 -9.9259,-25.37462 -7.09903,-5.7452 -21.60341,-6.22398 -11.78018,0 -23.56037,0 -0.6448,0.95754 -3.27244,3.35137 -6.20334,24.89587 -18.15538,76.1239 -3.17263,14.363 -10.30769,39.7376 -8.49574,29.2049 -11.12022,39.7377 -6.75936,-56.0157 -42.35081,-87.6143 6.40276,-2.8726 18.27655,-8.1391 5.06491,-2.3938 10.46193,-11.0116 4.63291,-7.1815 5.82586,-11.9692 l 36.62356,-146.98135 q 3.45955,-13.88424 -9.11357,-25.37464 -12.45373,-11.96916 -12.26346,-14.363 z"
         style="font-style:normal;font-variant:normal;font-weight:normal;font-stretch:normal;font-size:medium;line-height:1.25;font-family:Mephisto™;-inkscape-font-specification:Mephisto™;letter-spacing:0px;word-spacing:0px;fill:#0000ff;fill-opacity:0.49803922;stroke:#0000ff;stroke-width:0.49069747;stroke-opacity:1;stroke-miterlimit:4;stroke-dasharray:none"
         id="path903"
         inkscape:connector-curvature="0" />
    </g>
  </g>
</svg>
