<?xml version="1.0" encoding="UTF-8" standalone="no"?>
<!-- Created with Inkscape (http://www.inkscape.org/) -->

<svg
   xmlns:dc="http://purl.org/dc/elements/1.1/"
   xmlns:cc="http://creativecommons.org/ns#"
   xmlns:rdf="http://www.w3.org/1999/02/22-rdf-syntax-ns#"
   xmlns:svg="http://www.w3.org/2000/svg"
   xmlns="http://www.w3.org/2000/svg"
   xmlns:sodipodi="http://sodipodi.sourceforge.net/DTD/sodipodi-0.dtd"
   xmlns:inkscape="http://www.inkscape.org/namespaces/inkscape"
   width="12in"
   height="12in"
   viewBox="0 0 1152 1152"
   version="1.1"
   id="svg2815"
   inkscape:version="0.92.3 (2405546, 2018-03-11)"
   sodipodi:docname="Christmas Elf Silhouette 8''x8'' with Reg Marks (2).svg">
  <defs
     id="defs2809" />
  <sodipodi:namedview
     id="base"
     pagecolor="#ffffff"
     bordercolor="#666666"
     borderopacity="1.0"
     inkscape:pageopacity="0.0"
     inkscape:pageshadow="2"
     inkscape:zoom="0.88"
     inkscape:cx="200.24994"
     inkscape:cy="582.51246"
     inkscape:document-units="in"
     inkscape:current-layer="layer1"
     showgrid="true"
     inkscape:snap-global="false"
     showguides="true"
     units="in"
     gridtolerance="10"
     inkscape:window-width="1920"
     inkscape:window-height="1017"
     inkscape:window-x="-8"
     inkscape:window-y="-8"
     inkscape:window-maximized="1">
    <inkscape:grid
       type="xygrid"
       id="grid3368" />
  </sodipodi:namedview>
  <metadata
     id="metadata2812">
    <rdf:RDF>
      <cc:Work
         rdf:about="">
        <dc:format>image/svg+xml</dc:format>
        <dc:type
           rdf:resource="http://purl.org/dc/dcmitype/StillImage" />
        <dc:title></dc:title>
      </cc:Work>
    </rdf:RDF>
  </metadata>
  <g
     inkscape:label="Layer 1"
     inkscape:groupmode="layer"
     id="layer1"
     transform="translate(0,7.8000364)">
    <path
       style="fill:#000000;stroke-width:0.31999999"
       d="m 538.78546,679.97817 v -0.64 h 0.48 0.48 v 0.64 0.64 h -0.48 -0.48 z"
       id="path2622" />
    <path
       style="fill:#000000;stroke-width:0.31999999"
       d="m 534.682,676.28127 c 0.14471,-0.69507 0.71264,-0.7376 0.84253,-0.0631 l 0.10784,0.56 h -0.52691 -0.52691 z"
       id="path2620" />
    <path
       style="fill:#000000;stroke-width:0.31999999"
       d="m 398.94089,450.4056 -0.31543,-0.31543 -0.31543,0.31543 -0.31543,0.31543 h 0.63086 0.63086 z"
       id="path2614" />
    <path
       style="fill:#000000;stroke-width:0.31999999"
       d="m 355.42546,875.17817 v -0.64 h 0.48 0.48 v 0.64 0.64 h -0.48 -0.48 z"
       id="path2612" />
    <path
       style="fill:#000000;stroke-width:0.31999999"
       d="m 382.12823,846.3503 c -0.2746,-0.44432 0.33407,-1.07075 0.77537,-0.79799 0.36751,0.22711 0.13219,1.14586 -0.29349,1.14586 -0.14678,0 -0.36363,-0.15654 -0.48188,-0.34787 z"
       id="path2610" />
    <path
       style="fill:#000000;stroke-width:0.31999999"
       d="m 746.46546,833.41817 c 0,-0.264 0.216,-0.48 0.48,-0.48 0.264,0 0.48,0.216 0.48,0.48 0,0.264 -0.216,0.48 -0.48,0.48 -0.264,0 -0.48,-0.216 -0.48,-0.48 z"
       id="path2608" />
    <path
       style="fill:#000000;stroke-width:0.31999999"
       d="m 756.06546,818.69817 c 0,-0.264 0.216,-0.48 0.48,-0.48 0.264,0 0.48,0.216 0.48,0.48 0,0.264 -0.216,0.48 -0.48,0.48 -0.264,0 -0.48,-0.216 -0.48,-0.48 z"
       id="path2606" />
    <path
       style="fill:#000000;stroke-width:0.31999999"
       d="m 520.86546,536.13817 v -0.52691 l 0.56,0.10784 c 0.6745,0.12989 0.63197,0.69782 -0.0631,0.84253 l -0.4969,0.10345 z"
       id="path2604" />
    <path
       style="fill:#000000;stroke-width:0.31999999"
       d="m 379.74546,470.85817 c 0,-0.264 0.216,-0.48 0.48,-0.48 0.264,0 0.48,0.216 0.48,0.48 0,0.264 -0.216,0.48 -0.48,0.48 -0.264,0 -0.48,-0.216 -0.48,-0.48 z"
       id="path2602" />
    <path
       style="fill:#000000;stroke-width:0.31999999"
       d="m 395.10546,448.13817 c 0,-0.264 0.216,-0.48 0.48,-0.48 0.264,0 0.48,0.216 0.48,0.48 0,0.264 -0.216,0.48 -0.48,0.48 -0.264,0 -0.48,-0.216 -0.48,-0.48 z"
       id="path2600" />
    <path
       style="fill:#000000;stroke-width:0.31999999"
       d="m 398.62546,448.13817 c 0,-0.264 0.216,-0.48 0.48,-0.48 0.264,0 0.48,0.216 0.48,0.48 0,0.264 -0.216,0.48 -0.48,0.48 -0.264,0 -0.48,-0.216 -0.48,-0.48 z"
       id="path2598" />
    <path
       style="fill:#000000;stroke-width:0.31999999"
       d="m 345.18546,444.93817 v -0.52693 l 0.56,0.10785 c 0.67451,0.1299 0.63198,0.69782 -0.0631,0.84254 l -0.4969,0.10347 z"
       id="path2596" />
    <path
       style="fill:#000000;stroke-width:0.31999999"
       d="m 545.32821,292.43029 c -0.11824,-0.19134 -0.0547,-0.50814 0.14112,-0.704 l 0.35613,-0.35612 0.35613,0.35612 c 0.36925,0.36925 0.13814,1.05188 -0.35613,1.05188 -0.15523,0 -0.37898,-0.15655 -0.49725,-0.34788 z"
       id="path2594" />
    <g
       id="g2636">
      <path
         id="path2588"
         style="fill:#000000;stroke-width:0.31999999"
         d="m 840.54546,191.17817 v -24.16 h 24 24 v 24.16 24.16 h -24 -24 z m -720,0 v -24.16 h 24.16 24.16 v 24.16 24.16 h -24.16 -24.16 z m 311.07759,-22.56024 c -25.48185,3.87282 -41.36879,31.69831 -51.1254,52.29134 -13.1757,11.21612 -16.05131,29.84444 -19.63242,44.6696 -10.52054,1.86395 -22.64958,3.59769 -28.38472,-7.57348 -6.00739,10.22315 23.89465,15.37694 12.06441,14.93285 -9.20826,0.54264 -18.8971,-7.4511 -24.74609,-13.30273 3.18145,12.96297 16.89377,19.28826 28.50586,21.0664 -13.05382,4.33716 -26.00899,-4.9984 -30.95899,-15.12304 1.42008,14.97883 19.44477,21.34975 32.51731,22.08007 11.72355,-7.56786 16.09109,11.69573 9.40261,11.19922 -18.80239,-8.77424 -40.37301,-11.5044 -56.64062,-24.96093 -18.34059,-16.34391 -4.19382,1.2527 7.04102,9.91406 25.34526,15.58488 32.33314,47.7695 57.45312,63.51172 2.65678,10.58543 -8.96323,21.00835 -14.1582,28.97461 8.56773,-0.66798 19.70648,-23.65488 18.46484,-16.63868 -2.16677,10.93304 -13.92625,18.39307 -23.03906,18.31836 3.74152,6.17163 18.477,-4.30078 13.50195,0.56055 -6.23851,7.86308 7.47309,-2.00117 8.25781,-7.36719 2.09773,-4.19721 5.10161,-14.09883 7.32813,-15.49414 -0.24041,7.48089 -4.09898,14.2965 -5.70703,21.90235 4.49934,-4.8754 6.26152,-16.91199 7.88867,-19.28125 3.44442,16.17127 8.83841,34.00647 20.88867,48.40039 5.70999,7.92737 16.45826,13.14415 25.91992,13.43945 0.87464,9.59294 5.7412,18.31027 9.60157,26.88086 -11.43859,-0.80161 -27.70401,4.10663 -35.72657,2.68164 -3.50261,0.39297 -5.90112,-2.01805 -12.91406,-3.96094 -5.16868,-0.42563 -16.40484,-7.31712 -21.12109,-10.7207 -16.14983,-8.27037 -33.41976,-21.2522 -52.16211,-27.59961 -7.5129,-5.02558 -18.64352,-5.04641 -25.34375,-9.67187 2.16965,-9.20894 10.41412,-26.35401 -3.77344,-30.0879 -11.7625,-0.92516 -24.14661,1.91298 -33.75977,1.91993 -13.61883,-8.95566 1.74608,-24.02743 8.7793,-32.78907 3.91811,-11.40336 -13.80915,-7.28468 -19.82031,-4.9707 -9.64052,5.46203 -16.80489,14.06045 -18.87891,25.45703 -12.43066,16.67664 -34.02666,23.98353 -53.43945,22.86133 -13.7604,1.98318 -32.99353,-0.49157 -44.01953,11.16797 -3.32471,14.26179 16.93647,20.08689 27.23828,21.15234 21.36016,2.94032 46.9241,5.79113 69.90039,2.56055 9.40514,0.73378 17.24818,-5.25002 25.85547,-3.45703 3.36217,11.68678 17.80826,23.98265 27.68555,12.38086 2.26907,-5.51969 8.31027,-5.2487 15.0039,-0.60352 25.96028,11.95156 55.43362,15.51123 77.22266,35.51953 5.16099,3.75499 12.40423,10.81889 12.15234,10.24024 4.47606,2.10785 8.26613,6.03157 14.31836,9.27929 -14.28297,6.81436 -1.64486,7.36701 4.54688,10.81446 6.679,18.45683 23.25044,33.20258 20.29883,54.08593 3.15862,9.904 -0.70695,20.43694 -2.38672,30.9629 8.33605,2.67441 12.48025,8.12861 12.66211,16.9375 2.05815,8.85446 9.45632,16.62596 9.28125,24.79882 -5.34468,16.16327 -8.12929,28.80668 -11.50196,46.32032 -2.95389,12.21573 -5.36526,28.37011 -6.73828,41.18164 -2.86382,13.53092 1.85487,13.01589 7.83984,1.13867 7.88411,-13.38875 4.83823,-3.74403 3.08204,5.12109 -4.04219,9.49557 -4.7766,20.65642 -7.69141,29.93555 -4.73789,12.53946 5.10635,24.34305 7.54297,35.80078 3.34501,12.09145 7.53315,23.27832 11.94531,34.42188 -10.67462,-2.92662 -16.79278,2.82547 -17.2793,11.52148 0.56027,12.59716 -4.17092,28.95499 1.2168,39.67969 4.65062,2.50016 20.13356,7.00374 10.62305,11.81054 2.30886,7.36617 -0.14372,14.26842 -8.95899,15.38868 -13.5045,1.87704 -30.44129,1.51452 -43.04101,4.80078 -10.39141,-0.17994 -26.17406,4.54973 -33.75977,-5.1211 -0.32335,-10.33708 3.12547,-17.21031 8.96094,-24.18164 1.6065,-1.11783 -3.45743,13.13421 5.58008,12.66211 13.45404,1.21579 22.03506,-17.11325 17.52539,-27.65625 -2.12996,-8.33124 -10.77879,-4.91997 -19.26563,-5.94336 -17.19137,1.82678 -30.07772,23.11193 -32.32031,38.08008 -2.91466,12.43409 -5.59161,31.62849 1.4082,44.39649 -6.74945,9.8053 8.1763,5.62787 15.50963,7.44335 53.45648,0.53262 108.7449,1.56035 161.64272,-0.64062 14.48702,-2.67183 29.55418,-5.77372 44.31836,-9.59961 23.60282,-4.9423 49.05692,-13.48065 74.04297,-15.67969 13.24063,4.33995 23.28212,20.10787 37.47851,19.51953 17.24855,3.27319 37.6975,4.07456 57.03865,5.1211 30.87896,-0.21586 60.12363,-2.54715 89.19963,-5.1211 18.99348,-3.97218 43.57346,-10.7838 62.84375,-21.43945 11.7043,-5.15006 15.34886,-21.91891 0.83789,-24 -20.63983,-5.02505 -42.96167,-3.462 -63.91978,-5.75976 -9.39172,-0.79626 -19.80415,0.17042 -27.6017,-2.88086 -2.89723,-9.32442 -9.76669,-25.71835 -22.79102,-24.08008 -8.23627,-2.35902 -1.43043,-13.05508 -10.00781,-12.71875 -9.93705,-0.24995 -3.72008,-8.57254 2.08008,-13.85547 9.89557,-12.26235 -1.12199,-26.00702 -6.90039,-37.78906 -4.7528,-6.65639 -8.64751,-12.74459 -13.32813,-15.55664 -10.87766,-2.84678 -22.40748,8.74683 -30.94726,10.77929 -7.90031,-11.10643 -20.29764,-23.18709 -28.82422,-30.57226 -5.54843,-7.67966 -21.33367,-18.19365 -28.60156,-26.60547 -20.42134,-19.71014 -35.47615,-44.461 -51.80469,-67.51172 10.47625,0.30369 22.0699,8.69127 32.08594,10.23047 -3.51542,-11.64281 -14.97246,-26.25978 -19.19922,-33.87305 -4.72282,-5.2856 -8.27649,-13.69185 -9.5625,-14.12695 2.09042,-5.20483 29.57778,4.51333 21.49805,-5.8457 -8.10968,-4.26385 -18.58698,-17.07566 -28.32032,-23.91407 -14.83663,-10.63166 -36.30142,-19.08125 -52.32617,-28.22656 -3.39582,-6.85113 -13.87591,-16.5037 -17.68945,-22.65234 10.30043,-7.64021 0.23003,-11.45093 -5.72266,-16.26368 -3.44494,-4.70285 -12.51574,-7.081 -14.11719,-16.05664 4.8426,-9.70673 6.38886,-23.75213 15.5,-29.75976 18.30168,-7.45821 37.32077,-9.49303 54.29688,-16.32031 19.87461,2.73147 40.11951,-0.92125 59.02148,-5.75977 8.82154,-3.98373 16.53554,-3.71786 17.74024,8.31836 3.66921,8.84472 13.73547,24.85677 21.12109,9.91016 4.80443,-9.28139 19.07389,-19.29334 27.72852,-11.18946 22.25707,9.98272 48.9451,5.6997 71.63086,4.16016 20.57556,-2.43304 50.77727,-10.471 56.16015,-35.15807 1.53899,-24.03551 -28.60459,-33.24414 -45.59961,-35.56263 -10.19902,-2.35973 -22.72025,-0.75105 -33.70898,-3.03125 -0.66186,-11.66011 12.91861,-22.99504 9.22851,-36.50754 -2.2113,-9.33086 -13.22019,-28.76297 -24.32031,-18.90067 1.92267,13.15384 2.06,25.94337 -6.39844,37.64063 -7.66928,18.28826 -24.96687,31.37811 -39.66601,42.55859 -9.74528,6.14234 -18.43251,0.64001 -25.16602,-8.31836 -7.30198,-10.74505 -17.08976,-1.00658 -15.80859,7.82032 2.79327,11.93492 -7.70321,9.85048 -15.35938,10.41796 -16.72299,1.23501 -31.54769,4.65025 -49.91992,11.8418 -10.03497,5.28161 -20.1971,8.77436 -29.76172,8.95898 -8.92915,2.15183 -17.75747,0.57358 -27.19922,0.64063 -14.28325,1.11392 -25.54423,-5.09392 -41.19908,-2.88086 -7.69104,-2.78679 -16.95134,4.0295 -21.44935,-0.36328 -2.72705,-8.23671 -8.12821,-18.21323 -7.11133,-26.83594 10.2521,-5.08749 16.24075,-10.43429 22.85937,-20.99609 3.98239,-6.37341 7.01972,-13.45684 8.73047,-20.76367 -0.15429,6.96077 3.51525,14.63098 1.84961,20.63867 -20.21412,6.08097 -9.03279,38.68325 9.75977,35.20117 14.39266,-3.18524 20.03512,-23.42869 6.9668,-32 -11.3015,-2.68639 -13.68512,-9.18686 -11.12696,-20.48047 1.85841,-7.93809 -0.78066,-19.8106 3.44531,-25.91992 7.87233,7.15378 14.08763,17.23255 22.95508,24.64062 0.85508,-7.17601 -8.26306,-11.01881 -13.95508,-22.40039 -7.3714,-16.50036 8.06199,5.72631 15.25977,8.25196 7.98866,1.37511 -15.98263,-11.77886 -11.95703,-19.29297 15.38645,-9.53209 21.46328,-29.88128 32.3418,-40.73242 3.75007,-3.93654 9.21652,-10.92407 15.89062,-15.75391 5.94527,-2.67736 26.58116,-26.46678 15.55078,-16.7832 -13.88538,12.55008 -34.35969,20.32851 -52.90625,25.10937 -8.42553,4.90067 -14.89773,7.69764 -17.02539,-5.59961 -8.48559,-8.42329 -1.08772,-18.08551 -4.70312,-28.08008 -1.98732,-12.94702 -8.83574,-25.85701 -16.31641,-36.40039 -2.86083,-13.14362 -7.1451,-27.83408 -10.66016,-42.55859 -4.71091,-11.55292 -21.10369,-14.27233 -34.84179,-12.80078 z m 126.04297,500.73633 c 11.73072,12.72606 22.4067,26.3215 31.67968,36.53711 5.24613,6.9669 9.12667,11.22532 15.78907,18.24609 9.86216,9.02841 26.23863,23.834 32.6914,29.2207 9.49834,9.40376 20.86156,17.56696 27.30469,25.74805 4.10865,1.38513 10.78791,8.0526 13.25391,11.24609 -15.14425,6.14237 -3.43814,24.13255 2.16015,34.19141 10.20341,9.08195 -7.04003,12.75635 -8.26758,22.86523 -3.5527,8.86106 -3.91932,19.52946 -3.24414,27.45118 -21.23433,1.33138 -43.23275,3.65904 -64.00781,5.4375 -23.12026,2.01489 -45.66432,4.75701 -68.32031,7.04101 -15.38449,0.99166 -30.32491,4.54826 -45.83985,4.64063 -11.09278,-7.26819 -5.61734,-16.95249 -14,-25.1211 9.08567,-5.29353 21.83007,-11.45055 19.04102,-23.58189 -2.36119,-11.97059 0.42487,-24.55277 -6.96094,-35.45912 -6.83511,0.64139 -19.06692,5.93741 -15.11914,-6.52149 0.15235,-15.62898 -4.15548,-30.61948 -11.20117,-44.83789 -6.73081,-16.37256 6.26749,-31.54524 11.52148,-46.71875 3.00963,-14.24093 8.12492,-4.036 16,2.23828 6.88659,5.42717 12.58659,3.68839 14.39844,-4.31836 1.84094,-8.47552 3.16764,-13.73142 10.56055,-4.64062 8.37635,9.31027 23.76207,25.83115 19.09163,2.44932 0.1352,-10.89338 -1.45563,-22.58307 -0.29085,-31.33799 4.02666,4.32939 7.24859,6.13791 14.47852,10.00781 8.06507,3.75866 6.91,-8.64986 8.64062,-12.47852 -1.10107,-1.58974 1.11525,-1.00047 0.64063,-2.30468 z m 151.67968,174.0332 c 9.90661,2.22992 3.49817,5.15554 6.42196,12.22807 8.96727,2.88221 6.55091,10.73915 1.89836,16.73873 -9.02384,-0.47839 -18.21111,0.27209 -28.9961,1.54687 -6.33158,-10.50298 12.61613,-1.91259 13.09766,-13 4.6928,-5.66786 0.47409,-14.36876 4.61705,-16.76367 1.00191,-0.21057 3.34447,0.79421 2.96107,-0.75 z m 11.03516,16.77734 c -1.94619,3.19255 2.72662,1.66957 0,0 z m -599.8354,50.85337 v -24 h 24 24 v 24 24 h -24 -24 z" />
    </g>
  </g>
</svg>
