<?xml version="1.0" encoding="UTF-8" standalone="no"?>
<!-- Created with Inkscape (http://www.inkscape.org/) -->

<svg
   xmlns:dc="http://purl.org/dc/elements/1.1/"
   xmlns:cc="http://creativecommons.org/ns#"
   xmlns:rdf="http://www.w3.org/1999/02/22-rdf-syntax-ns#"
   xmlns:svg="http://www.w3.org/2000/svg"
   xmlns="http://www.w3.org/2000/svg"
   xmlns:sodipodi="http://sodipodi.sourceforge.net/DTD/sodipodi-0.dtd"
   xmlns:inkscape="http://www.inkscape.org/namespaces/inkscape"
   width="24in"
   height="12in"
   viewBox="0 0 1728 864"
   version="1.1"
   id="svg8"
   inkscape:version="0.92.3 (2405546, 2018-03-11)"
   sodipodi:docname="Placement stencil upper half Try #3.svg">
  <defs
     id="defs2" />
  <sodipodi:namedview
     id="base"
     pagecolor="#3f3f3f"
     bordercolor="#ff0000"
     borderopacity="1"
     inkscape:pageopacity="0"
     inkscape:pageshadow="2"
     inkscape:zoom="0.55048947"
     inkscape:cx="1272.2603"
     inkscape:cy="1108.5736"
     inkscape:document-units="in"
     inkscape:current-layer="layer1"
     showgrid="true"
     units="in"
     gridtolerance="10"
     inkscape:window-width="1920"
     inkscape:window-height="1017"
     inkscape:window-x="-8"
     inkscape:window-y="-8"
     inkscape:window-maximized="1"
     borderlayer="true"
     showborder="false"
     inkscape:snap-global="false"
     inkscape:snap-grids="false"
     inkscape:snap-to-guides="false"
     inkscape:snap-intersection-paths="false"
     inkscape:object-paths="true"
     inkscape:snap-smooth-nodes="false"
     inkscape:object-nodes="false"
     inkscape:snap-others="false">
    <inkscape:grid
       type="xygrid"
       id="grid815"
       units="in"
       spacingx="18"
       spacingy="18"
       empspacing="4"
       empcolor="#007fff"
       empopacity="0.25098039"
       color="#0000ff"
       opacity="0.1254902"
       originy="-1692" />
  </sodipodi:namedview>
  <metadata
     id="metadata5">
    <rdf:RDF>
      <cc:Work
         rdf:about="">
        <dc:format>image/svg+xml</dc:format>
        <dc:type
           rdf:resource="http://purl.org/dc/dcmitype/StillImage" />
        <dc:title></dc:title>
        <dc:creator>
          <cc:Agent>
            <dc:title>Doctor Wizard</dc:title>
          </cc:Agent>
        </dc:creator>
        <dc:rights>
          <cc:Agent>
            <dc:title>© 2019 Doctor Wizard and Wizlights</dc:title>
          </cc:Agent>
        </dc:rights>
        <dc:publisher>
          <cc:Agent>
            <dc:title>Doctor Wizard</dc:title>
          </cc:Agent>
        </dc:publisher>
      </cc:Work>
    </rdf:RDF>
  </metadata>
  <g
     inkscape:label="Layer 1"
     inkscape:groupmode="layer"
     id="layer1"
     transform="translate(0,-528.09999)">
    <path
       style="fill:none;stroke:#ffffff;stroke-width:0.48000002;stroke-linecap:butt;stroke-linejoin:miter;stroke-miterlimit:4;stroke-dasharray:none;stroke-opacity:1"
       d="M 665.77344 -498.81641 C 661.70473 -498.86954 658.15452 -498.49611 655.12109 -497.69727 C 646.46332 -495.41723 641.94853 -490.23477 641.57812 -482.14648 C 643.61457 -479.54569 646.2204 -477.47898 649.39453 -475.94727 C 652.64635 -474.37681 655.15627 -473.82502 656.92578 -474.29102 C 657.81049 -474.524 658.52162 -475.80576 659.05664 -478.13672 C 660.69077 -485.01883 664.35142 -489.20723 670.03906 -490.70508 C 676.10582 -492.30276 681.43295 -491.19197 686.02148 -487.36914 C 690.68771 -483.50759 694.02751 -477.7577 696.03906 -470.11914 L 702.10156 -444.01367 C 704.17143 -436.15373 707.47448 -431.31071 712.00977 -429.48633 C 716.60808 -427.67859 723.34718 -427.23403 732.22852 -428.15234 L 731.11328 -432.38672 C 728.78004 -432.77848 727.0226 -435.21767 725.8418 -439.70117 C 725.44829 -441.19567 724.62053 -445.62417 723.35742 -452.98633 C 722.17227 -460.30979 721.48443 -464.3312 721.29492 -465.05078 C 719.02088 -473.68566 714.04515 -480.78008 706.36523 -486.33398 C 698.74861 -491.90455 689.80449 -495.58537 679.5332 -497.37891 C 674.4292 -498.28401 669.84215 -498.76328 665.77344 -498.81641 z M 593.70703 -494.7832 L 593.82812 -479.42773 C 594.43746 -479.63752 595.06542 -479.83103 595.71289 -480.00977 C 600.45276 -481.25797 603.34844 -482.1984 604.39844 -482.83008 C 605.23337 -483.31632 605.65238 -484.01021 605.65625 -484.91016 C 605.65745 -485.21013 605.61228 -485.53296 605.52148 -485.87891 C 605.04042 -487.70552 602.33111 -490.04003 597.39258 -492.88281 C 596.05738 -493.63864 594.82876 -494.27148 593.70703 -494.7832 z M 1319.0059 -472.25195 C 1317.0894 -472.25195 1315.4718 -472.12319 1314.1543 -471.86719 C 1312.9565 -471.48319 1311.8781 -470.77986 1310.9199 -469.75586 C 1310.0815 -468.60386 1309.4824 -467.19525 1309.123 -465.53125 C 1308.8835 -463.73925 1308.8235 -462.33064 1308.9434 -461.30664 L 1308.9434 -383.93164 C 1308.7038 -381.49964 1309.5426 -379.13213 1311.459 -376.82812 C 1313.4952 -374.52405 1315.7718 -373.37109 1318.2871 -373.37109 C 1321.1617 -373.37109 1323.4964 -374.39529 1325.293 -376.44336 C 1327.0896 -378.49136 1327.9883 -380.92423 1327.9883 -383.74023 L 1327.9883 -432.31641 L 1387.8164 -432.31641 C 1390.0921 -432.31641 1391.7677 -432.44322 1392.8457 -432.69922 C 1394.0434 -432.82722 1395.0619 -433.34033 1395.9004 -434.23633 C 1396.7388 -435.13233 1397.278 -436.34681 1397.5176 -437.88281 C 1397.8769 -439.29081 1398.0566 -440.955 1398.0566 -442.875 L 1398.0566 -451.70703 L 1443.6914 -451.70703 C 1446.2067 -451.70703 1448.3016 -452.7947 1449.9785 -454.9707 C 1451.7751 -457.0187 1452.6738 -459.38817 1452.6738 -462.07617 C 1452.6738 -464.89217 1451.7751 -467.32309 1449.9785 -469.37109 C 1448.3016 -471.29109 1446.2067 -472.25195 1443.6914 -472.25195 L 1319.0059 -472.25195 z M 1511.8516 -472.01562 C 1509.9198 -472.01563 1508.3803 -471.77938 1507.2324 -471.30664 C 1505.9726 -470.95205 1504.9369 -470.22429 1504.125 -469.12109 C 1503.3131 -467.9785 1502.7942 -466.75716 1502.5703 -465.45703 C 1502.2343 -464.19623 1502.0664 -462.18567 1502.0664 -459.42773 L 1502.0664 -455.52734 L 1502.2344 -396.25195 C 1502.2344 -392.86362 1503.0331 -389.9486 1504.6289 -387.50586 C 1505.2807 -386.5376 1506.0091 -385.79104 1506.8066 -385.24023 L 1506.8066 -358.76758 C 1505.7066 -357.09864 1504.753 -355.27158 1503.957 -353.27148 C 1502.1093 -348.98002 1501.1855 -344.29294 1501.1855 -339.21094 L 1501.1855 -291.01562 C 1501.1855 -286.27242 1502.3332 -281.69933 1504.6289 -277.29492 C 1506.4766 -273.70929 1509.0089 -270.42047 1512.2285 -267.42773 C 1514.6362 -265.22553 1517.7862 -263.54429 1521.6777 -262.38672 C 1525.5692 -261.34209 1529.8668 -260.82031 1534.5703 -260.82031 L 1617.1328 -260.82031 C 1625.1678 -260.82031 1631.7048 -263.71411 1636.7441 -269.50195 C 1639.0399 -272.15589 1640.9284 -275.27568 1642.4121 -278.86133 C 1643.7839 -282.44696 1644.4707 -286.2595 1644.4707 -290.29688 L 1644.4707 -340.94727 C 1644.4707 -345.12586 1643.56 -349.28919 1641.7402 -353.43945 C 1641.6179 -353.72578 1641.4892 -354.00398 1641.3613 -354.2832 L 1641.3613 -384.7168 C 1642.1152 -385.38566 1642.818 -386.15321 1643.4629 -387.0332 C 1644.2467 -388.33334 1644.7656 -389.55466 1645.0176 -390.69727 C 1645.1296 -391.95807 1645.1855 -393.96668 1645.1855 -396.72461 L 1645.1855 -456.06055 C 1645.1855 -460.07928 1644.4428 -463.62414 1642.959 -466.69727 C 1641.3352 -469.92799 1639.2638 -471.54297 1636.7441 -471.54297 C 1633.8884 -471.54291 1631.6491 -470.08545 1630.0254 -467.16992 C 1628.4296 -464.41206 1627.6309 -460.94587 1627.6309 -456.76953 L 1627.6309 -416.10938 C 1627.6309 -414.49403 1627.5188 -413.03653 1627.2949 -411.73633 C 1627.0709 -410.43613 1626.4962 -409.31273 1625.5723 -408.36719 C 1624.5364 -407.38218 1622.9279 -406.89062 1620.7441 -406.89062 L 1587.9043 -406.89062 C 1585.6087 -406.89063 1584.0541 -407.38218 1583.2422 -408.36719 C 1582.3183 -409.47033 1581.7455 -410.82992 1581.5215 -412.44531 L 1581.5215 -417.05469 L 1581.5215 -456.5332 C 1581.5215 -461.85207 1580.5547 -465.89051 1578.623 -468.64844 C 1577.3631 -470.06684 1576.1595 -470.95205 1575.0117 -471.30664 C 1573.7519 -471.77938 1572.0294 -472.01562 1569.8457 -472.01562 L 1511.8516 -472.01562 z M 614.79492 -467.98828 C 620.67146 -462.61053 624.91069 -457.5427 627.51562 -452.7832 C 612.69602 -450.6843 601.47459 -450.81151 593.84766 -453.16602 L 593.76562 -437.58203 C 595.16242 -436.76256 596.62948 -435.99787 598.16602 -435.28711 C 610.54175 -429.60846 625.18278 -428.28449 642.08984 -431.31641 C 646.01198 -424.89129 648.97009 -420.46208 650.96289 -418.02734 C 653.01889 -415.60924 654.85896 -414.14057 656.48242 -413.62109 L 673.46484 -416.49414 C 668.22044 -422.03831 663.28318 -428.07783 658.65625 -434.61328 C 669.14185 -437.13791 676.43941 -438.55687 680.54688 -438.86914 C 684.65461 -439.18141 689.04245 -438.94568 693.70898 -438.16211 C 692.95578 -440.50899 691.23735 -444.85029 688.55469 -451.1875 C 681.49202 -454.65467 674.66674 -456.70484 668.08008 -457.33789 C 661.50794 -457.91554 653.02601 -457.28083 642.63281 -455.43164 C 639.08481 -460.17956 634.38365 -464.29906 628.53125 -467.78906 L 614.79492 -467.98828 z M 660.99023 -403.62305 C 658.20972 -403.66035 655.60299 -403.35754 653.16992 -402.7168 C 648.43019 -401.4686 645.48771 -398.14854 644.33984 -392.75586 C 637.54438 -394.69526 631.01759 -397.14777 624.76172 -400.11719 L 616.23047 -397.87109 L 616.73438 -395.96094 C 616.94394 -395.85569 617.14673 -395.76396 617.35547 -395.66016 L 616.70508 -376.81445 C 616.15112 -376.69962 615.60921 -376.57582 615.08398 -376.4375 C 610.28118 -375.17267 606.54314 -372.94605 603.86914 -369.75586 C 601.25834 -366.58231 600.39596 -363.30809 601.28516 -359.93164 C 603.26769 -352.4038 613.86343 -343.73869 633.06836 -333.93945 C 627.41316 -331.48752 623.00825 -328.05475 619.86719 -323.62891 C 615.59359 -317.53144 614.44729 -310.71535 616.42969 -303.1875 C 618.20809 -296.43459 621.69946 -290.7551 626.90039 -286.14648 C 632.16439 -281.55452 639.67121 -276.7853 649.42188 -271.83594 L 649.43555 -271.83789 C 643.77595 -269.3857 639.36923 -265.95169 636.22656 -261.52344 C 631.95296 -255.42598 630.80666 -248.61378 632.78906 -241.08594 C 634.56746 -234.33302 638.05883 -228.65158 643.25977 -224.04297 C 648.52363 -219.45098 656.03032 -214.6798 665.78125 -209.73047 L 676.68164 -212.60156 C 676.21953 -212.82922 675.80057 -213.04454 675.35352 -213.26758 L 699.79492 -226.75195 C 702.24129 -226.5221 704.66394 -226.71845 707.06055 -227.34961 C 711.98975 -228.64772 715.56223 -231.24598 717.7793 -235.14453 C 719.99636 -239.04308 720.42787 -243.56712 719.07227 -248.71484 C 717.56882 -254.4236 714.32779 -259.35728 709.37109 -263.52734 L 700.02734 -295.21875 C 700.53501 -295.85513 701.01243 -296.5212 701.42578 -297.24805 C 703.64285 -301.14659 704.0724 -305.67065 702.7168 -310.81836 C 701.30064 -316.19568 698.33951 -320.8839 693.85938 -324.89648 L 687.3418 -358.37305 L 690.23242 -358.22656 L 687.86328 -365.68359 C 671.14155 -368.61958 661.00069 -374.5311 657.44336 -383.41992 C 665.49323 -382.87628 671.51099 -383.12927 675.49219 -384.17773 C 680.54792 -385.50916 682.50607 -388.33489 681.36914 -392.65234 L 681.36523 -392.65234 C 680.02403 -397.7447 676.18725 -401.02503 669.85352 -402.49414 C 666.72545 -403.20932 663.77075 -403.58577 660.99023 -403.62305 z M 1319.0059 -364.08594 C 1317.0894 -364.08594 1315.4718 -363.95913 1314.1543 -363.70312 C 1312.9565 -363.31912 1311.8781 -362.61384 1310.9199 -361.58984 C 1309.9617 -360.43784 1309.3027 -359.03119 1308.9434 -357.36719 C 1308.584 -355.57519 1308.584 -354.16658 1308.9434 -353.14258 L 1308.9434 -279.03125 C 1308.7038 -276.34325 1309.4827 -274.10255 1311.2793 -272.31055 C 1313.1957 -270.39055 1315.5323 -269.42969 1318.2871 -269.42969 C 1321.1617 -269.4297 1323.4964 -270.45395 1325.293 -272.50195 C 1327.0896 -274.54995 1327.9883 -276.98283 1327.9883 -279.79883 L 1327.9883 -324.15039 L 1378.6523 -324.15039 L 1378.6523 -279.03125 C 1378.6523 -276.34325 1379.551 -274.10255 1381.3477 -272.31055 C 1383.2641 -270.39055 1385.4808 -269.42969 1387.9961 -269.42969 C 1390.8707 -269.42969 1393.2652 -270.32714 1395.1816 -272.11914 C 1397.098 -273.91114 1398.0566 -276.21525 1398.0566 -279.03125 L 1398.0566 -343.73438 L 1433.2715 -343.73438 L 1433.2715 -279.03125 C 1433.2715 -276.34325 1434.1682 -274.10255 1435.9648 -272.31055 C 1437.8812 -270.39055 1440.0979 -269.42969 1442.6133 -269.42969 C 1445.4879 -269.42969 1447.8825 -270.32714 1449.7988 -272.11914 C 1451.7153 -273.91114 1452.6738 -276.21525 1452.6738 -279.03125 L 1452.6738 -353.33398 C 1452.6738 -354.86998 1452.4941 -356.47069 1452.1348 -358.13477 C 1451.7754 -359.79869 1451.1763 -361.0152 1450.3379 -361.7832 C 1448.4214 -363.3192 1445.7273 -364.08594 1442.2539 -364.08594 L 1319.0059 -364.08594 z M 976.54102 -312.9668 C 961.32987 -312.38213 947.58871 -276.0306 951.9668 -258.13281 C 942.87921 -229.79637 968.75608 -193.55093 940.16602 -176.45117 C 943.81407 -155.98944 948.09495 -141.36675 934.31836 -120.63867 C 928.05245 -96.456781 909.33189 -61.899737 891.54883 -53.839844 C 875.64671 -42.153004 852.58977 -17.559989 824.17188 -21.105469 C 795.10366 -34.598055 777.15453 5.9238053 747.29883 -6.1757812 C 717.35119 -11.454701 682.70241 -26.732271 654.23828 -17.392578 C 642.68129 -12.593765 611.29229 -23.374822 594.10352 -8.546875 L 594.04297 41.162109 C 594.03355 41.16369 594.02698 41.164436 594.01758 41.166016 L 594.02148 59.160156 L 593.71289 312.92188 C 606.1167 305.77998 618.69205 295.28039 609.43359 279.93164 C 591.87649 255.34857 640.56959 241.74265 648.82227 219.37891 C 665.08831 199.45039 692.39943 181.1353 710.85156 169.17188 C 690.14723 209.27528 738.17308 182.678 751.64258 169.26562 C 752.77366 173.12437 757.59783 202.31051 770.0293 179.72656 C 789.45928 159.92126 804.86652 136.89391 814.56445 110.68359 C 826.09903 88.508238 850.68955 97.146023 861.32422 76.224609 C 879.33647 55.622396 905.80218 91.727371 902.63086 111.68555 C 914.11627 140.10831 906.56904 171.76368 917.73828 200.73047 C 890.4926 207.56086 885.2549 231.17304 910.14062 245.51562 C 903.91363 271.38779 899.12557 302.57027 904.88672 331.30664 C 907.24787 356.24156 922.03248 392.21692 952.24609 388.79102 C 981.42183 378.58823 985.41578 342.45844 986.16016 315.85938 C 993.15316 311.00972 1048.9016 331.95671 1044.1621 291.96875 C 1022.5501 283.29983 989.03747 282.9042 973.50781 256.64062 C 942.9814 239.04001 981.05548 222.73965 972.79492 204.09961 C 940.477 204.79384 957.38612 167.51012 944.5293 147.5332 C 935.27302 130.63957 931.81908 112.10639 931.57422 93.34375 L 949.64258 73.681641 C 970.38132 85.646376 983.44936 45.482483 1008.373 58.966797 C 993.11744 69.131624 986.05992 87.389448 1011.748 87.300781 C 1022.3552 68.533128 1032.1415 75.382799 1043.3828 88.757812 C 1068.8736 99.904333 1082.0737 125.15421 1103.6484 141.07617 C 1118.8597 128.21825 1079.3501 103.59643 1082.8535 81.5 C 1070.8288 55.21584 1111.6196 67.2911 1125.0098 58.691406 C 1146.7364 40.30938 1181.8977 46.254902 1200.541 26.292969 C 1216.7203 -1.3557115 1197.3845 -34.290435 1171.6484 -47.982422 C 1154.2567 -65.211489 1120.3352 -69.079158 1108.6328 -84.894531 C 1115.9677 -100.08416 1114.8125 -105.57266 1113.4941 -118.71484 C 1093.1618 -119.3987 1094.0565 -124.26733 1109.3809 -137.86914 C 1105.2758 -163.70194 1076.6762 -115.7822 1065.7305 -108.96484 C 1043.215 -103.50162 1029.2378 -63.20331 1007.3379 -78.476562 C 1001.1716 -89.79114 994.91222 -90.931774 990.73633 -87.28125 L 967.78711 -113.41992 C 970.79906 -120.04632 973.34073 -126.89011 975.09375 -134.0918 C 984.88683 -140.69156 1019.078 -132.61258 1009.0176 -163.35547 C 997.12538 -193.03987 1025.4791 -178.52007 1035.9707 -167.38477 C 1060.4328 -173.12475 1040.0802 -212.951 1020.7148 -215.20117 C 989.29682 -229.75467 1000.1392 -270.42385 992.53125 -297.68945 C 987.73555 -308.38579 982.43089 -312.77567 977.26562 -312.9668 C 977.0235 -312.97576 976.78246 -312.97608 976.54102 -312.9668 z M 1509.8574 -249.85156 C 1507.5449 -249.85156 1506.0761 -249.73954 1505.4512 -249.51367 C 1504.6699 -249.2878 1504.0918 -248.87805 1503.7168 -248.28516 L 1502.9199 -245.87109 L 1501.1855 -240.66211 C 1500.9355 -239.61747 1500.498 -238.81271 1499.873 -238.24805 C 1499.2168 -237.65514 1498.248 -237.35938 1496.9668 -237.35938 C 1493.4043 -237.35938 1491.0449 -237.65514 1489.8887 -238.24805 C 1488.6074 -238.81271 1487.3262 -239.84347 1486.0449 -241.33984 C 1484.7637 -242.97739 1483.4199 -244.59969 1482.0137 -246.20898 C 1480.4824 -247.95945 1478.9511 -248.83594 1477.4199 -248.83594 C 1475.8574 -248.83594 1474.6387 -248.25717 1473.7637 -247.09961 C 1472.8574 -245.94204 1472.4043 -244.14877 1472.4043 -241.7207 C 1472.4043 -235.00116 1475.4824 -229.15657 1481.6387 -224.1875 C 1487.6387 -219.33136 1494.9355 -216.9043 1503.5293 -216.9043 L 1530.0137 -216.9043 C 1533.0762 -216.9043 1535.1855 -217.5381 1536.3418 -218.80859 C 1537.373 -220.0791 1537.9511 -221.23662 1538.0762 -222.28125 L 1538.0762 -225.58594 L 1538.0762 -242.39844 C 1538.0762 -243.33014 1537.9512 -244.26166 1537.7012 -245.19336 C 1537.4199 -246.09682 1536.9668 -246.95857 1536.3418 -247.77734 C 1535.5605 -248.59611 1534.7324 -249.11788 1533.8574 -249.34375 C 1532.9512 -249.68255 1531.6699 -249.85156 1530.0137 -249.85156 L 1509.8574 -249.85156 z M 1319.0059 -248.75195 C 1317.0894 -248.75195 1315.4718 -248.62319 1314.1543 -248.36719 C 1312.9565 -247.98321 1311.8781 -247.27987 1310.9199 -246.25586 C 1310.0815 -245.23186 1309.4824 -243.88667 1309.123 -242.22266 C 1308.7637 -240.55866 1308.7038 -239.08663 1308.9434 -237.80664 L 1308.9434 -163.3125 C 1308.9434 -161.00849 1309.0632 -159.21555 1309.3027 -157.93555 C 1309.5423 -156.65554 1310.1414 -155.50445 1311.0996 -154.48047 C 1312.0578 -153.32845 1313.0164 -152.62319 1313.9746 -152.36719 C 1314.9328 -151.9832 1316.2509 -151.79102 1317.9277 -151.79102 L 1442.4336 -151.79102 C 1444.35 -151.79102 1445.9077 -151.91978 1447.1055 -152.17578 C 1448.423 -152.43176 1449.5594 -153.13509 1450.5176 -154.28711 C 1451.5956 -155.31109 1452.1947 -156.59095 1452.3145 -158.12695 C 1452.554 -159.66296 1452.6738 -161.13497 1452.6738 -162.54297 L 1452.6738 -238 C 1452.6738 -239.53599 1452.4941 -241.13483 1452.1348 -242.79883 C 1451.7754 -244.46284 1451.1763 -245.67927 1450.3379 -246.44727 C 1448.4214 -247.98326 1445.7273 -248.75195 1442.2539 -248.75195 L 1319.0059 -248.75195 z M 777.62109 -207.80859 C 777.53802 -207.8103 777.46171 -207.79997 777.39062 -207.78125 C 777.01134 -207.68137 775.49708 -207.01754 772.84766 -205.78711 C 770.19832 -204.55668 766.91432 -203.42444 762.99609 -202.39258 C 758.13005 -201.11109 753.49402 -200.36512 749.08984 -200.15234 C 744.68567 -199.93955 737.69142 -200.19868 728.10547 -200.92969 C 718.53409 -201.60539 710.96749 -201.21065 705.40625 -199.74609 C 698.64429 -197.96535 692.72293 -194.66026 687.64258 -189.83008 C 689.15413 -187.68296 690.19496 -186.68421 690.76367 -186.83398 C 691.07967 -186.91719 692.06098 -187.29408 693.70898 -187.96484 C 695.3569 -188.63559 696.30775 -189.00373 696.56055 -189.07031 C 700.09957 -190.00231 704.10302 -190.19827 708.57031 -189.6582 C 713.03751 -189.11811 720.09915 -187.57413 729.75781 -185.02734 C 739.43106 -182.4252 747.7844 -180.9855 754.81836 -180.70703 C 761.9156 -180.44522 768.65631 -181.15503 775.03906 -182.83594 C 779.71551 -184.06749 783.79459 -185.64548 787.27539 -187.56836 C 790.7561 -189.49126 792.35706 -190.97761 792.08008 -192.0293 C 791.84683 -192.91492 789.6211 -195.85033 785.40234 -200.83594 C 781.46076 -205.45805 778.86713 -207.78299 777.62109 -207.80859 z M 1530.959 -207.50195 C 1523.288 -207.50195 1516.6951 -205.07294 1511.1797 -200.2168 C 1508.0721 -197.44993 1505.6649 -193.92233 1503.957 -189.63086 C 1502.1093 -185.33938 1501.1855 -180.65231 1501.1855 -175.57031 L 1501.1855 -127.375 C 1501.1855 -122.63179 1502.3332 -118.05871 1504.6289 -113.6543 C 1506.2332 -110.5411 1508.3557 -107.65062 1510.9941 -104.98438 L 1510.9941 -78.412109 C 1507.9783 -75.671331 1505.6299 -72.203575 1503.957 -68 C 1502.1093 -63.708524 1501.1855 -59.023406 1501.1855 -53.941406 L 1501.1855 -5.7460938 C 1501.1855 -1.0028671 1502.3332 3.5702094 1504.6289 7.9746094 C 1506.2332 11.087776 1508.3557 13.978296 1510.9941 16.644531 L 1510.9941 43.216797 C 1507.9782 45.957598 1505.6299 49.425264 1503.957 53.628906 C 1502.1093 57.920373 1501.1855 62.607453 1501.1855 67.689453 L 1501.1855 115.88281 C 1501.1855 120.62601 1502.3332 125.20107 1504.6289 129.60547 C 1506.4766 133.19114 1509.0089 136.47993 1512.2285 139.47266 C 1514.6362 141.67486 1517.7862 143.35419 1521.6777 144.51172 C 1525.5692 145.55639 1529.8668 146.07813 1534.5703 146.07812 L 1617.1328 146.07812 C 1625.1678 146.07812 1631.7048 143.18428 1636.7441 137.39648 C 1639.0399 134.74248 1640.9284 131.62271 1642.4121 128.03711 C 1643.7839 124.45144 1644.4707 120.64085 1644.4707 116.60352 L 1644.4707 65.953125 C 1644.4707 61.774592 1643.56 57.609322 1641.7402 53.458984 C 1640.5015 50.559883 1638.9765 48.030441 1637.1719 45.859375 L 1637.1719 15.25 C 1639.2734 12.709278 1641.0227 9.7659843 1642.4121 6.4082031 C 1643.7839 2.8226031 1644.4707 -0.98798621 1644.4707 -5.0253906 L 1644.4707 -55.677734 C 1644.4707 -59.856268 1643.56 -64.019611 1641.7402 -68.169922 C 1640.5015 -71.069053 1638.9765 -73.598454 1637.1719 -75.769531 L 1637.1719 -106.37891 C 1639.2734 -108.91963 1641.0227 -111.86295 1642.4121 -115.2207 C 1643.7839 -118.80635 1644.4707 -122.61888 1644.4707 -126.65625 L 1644.4707 -177.30664 C 1644.4707 -181.48518 1643.56 -185.64853 1641.7402 -189.79883 C 1640.2564 -193.27154 1638.368 -196.22233 1636.0723 -198.65039 C 1634.1125 -200.73966 1631.7053 -202.58992 1628.8496 -204.19922 C 1624.9301 -206.40142 1621.1922 -207.50195 1617.6367 -207.50195 L 1530.959 -207.50195 z M 649.64062 -203.26172 C 648.94542 -203.07865 648.11121 -201.11168 647.13867 -197.36328 C 646.22916 -193.63154 646.19746 -190.16157 647.04297 -186.95117 C 647.93212 -183.57471 649.60393 -181.20393 652.05859 -179.83789 C 654.57646 -178.48848 658.46195 -177.58778 663.7168 -177.13672 C 669.03475 -176.7023 672.01067 -176.56797 672.64258 -176.73438 C 673.27422 -176.90081 673.5461 -177.15031 673.45898 -177.48242 C 673.40067 -177.70383 672.84373 -178.53388 671.78906 -179.97266 C 670.74897 -181.35609 669.99579 -182.93382 669.5293 -184.70508 C 668.45063 -188.80112 669.41335 -193.22733 672.41797 -197.98438 C 673.3369 -199.11423 673.71009 -200.01157 673.53516 -200.67578 C 673.43311 -201.06325 672.60146 -201.13964 671.04102 -200.90625 C 663.42857 -200.55885 657.03139 -201.24177 651.84961 -202.95508 C 650.56632 -203.20905 649.83022 -203.31167 649.64062 -203.26172 z M 792.14062 -152.67773 C 792.05755 -152.67944 791.9793 -152.67107 791.9082 -152.65234 C 791.52891 -152.55247 790.01457 -151.88669 787.36523 -150.65625 C 784.7159 -149.42583 781.43189 -148.29553 777.51367 -147.26367 C 772.64754 -145.98219 768.01355 -145.23428 763.60938 -145.02148 C 759.20529 -144.8087 752.20909 -145.06782 742.62305 -145.79883 C 733.05176 -146.47452 725.48507 -146.07979 719.92383 -144.61523 C 713.16187 -142.83449 707.24255 -139.52939 702.16211 -134.69922 C 703.67366 -132.55209 704.71245 -131.55335 705.28125 -131.70312 C 705.59716 -131.78633 706.57856 -132.16323 708.22656 -132.83398 C 709.87456 -133.50474 710.82532 -133.87288 711.07812 -133.93945 C 714.61706 -134.87144 718.62051 -135.06741 723.08789 -134.52734 C 727.55509 -133.98725 734.61868 -132.44523 744.27734 -129.89844 C 753.9505 -127.2963 762.30394 -125.85464 769.33789 -125.57617 C 776.43514 -125.31436 783.17584 -126.02417 789.55859 -127.70508 C 794.23513 -128.93663 798.31226 -130.51461 801.79297 -132.4375 C 805.27368 -134.36039 806.8765 -135.84675 806.59961 -136.89844 C 806.36636 -137.78406 804.14072 -140.71946 799.92188 -145.70508 C 795.98037 -150.32718 793.38673 -152.65213 792.14062 -152.67773 z M 664.1582 -148.13086 C 663.46309 -147.94778 662.62887 -145.98276 661.65625 -142.23438 C 660.74683 -138.50263 660.71512 -135.03072 661.56055 -131.82031 C 662.44979 -128.44385 664.12151 -126.07308 666.57617 -124.70703 C 669.09404 -123.35764 672.98157 -122.45693 678.23633 -122.00586 C 683.55437 -121.57144 686.52825 -121.4371 687.16016 -121.60352 C 687.7918 -121.76995 688.06563 -122.01946 687.97852 -122.35156 C 687.9202 -122.57297 687.36335 -123.40302 686.30859 -124.8418 C 685.2685 -126.22523 684.51523 -127.80296 684.04883 -129.57422 C 682.97007 -133.67025 683.93279 -138.09646 686.9375 -142.85352 C 687.85634 -143.98336 688.22767 -144.8807 688.05273 -145.54492 C 687.95078 -145.93239 687.11913 -146.00877 685.55859 -145.77539 C 677.94615 -145.42799 671.55083 -146.11091 666.36914 -147.82422 C 665.08585 -148.07819 664.34789 -148.18081 664.1582 -148.13086 z M 1317.0293 -133.26953 C 1314.1547 -133.26953 1311.9979 -132.50084 1310.5605 -130.96484 C 1309.8419 -130.19685 1309.3626 -129.10917 1309.123 -127.70117 C 1308.8835 -126.29316 1308.8235 -125.07673 1308.9434 -124.05273 L 1308.9434 -63.765625 C 1308.8235 -62.485625 1308.8835 -61.20579 1309.123 -59.925781 C 1309.3626 -58.645781 1309.9018 -57.684913 1310.7402 -57.044922 C 1311.5787 -56.276913 1312.4774 -55.765766 1313.4355 -55.509766 C 1314.0344 -55.381766 1315.1728 -55.318359 1316.8496 -55.318359 L 1372.0059 -55.318359 L 1373.8027 -55.318359 C 1375.9587 -55.318359 1377.4546 -55.7661 1378.293 -56.662109 C 1379.1314 -57.5581 1379.6106 -58.517007 1379.7305 -59.541016 C 1379.8912 -60.227966 1379.994 -61.104138 1380.0469 -62.136719 L 1392.9375 -62.136719 C 1393.1637 -60.466977 1393.8459 -58.959562 1395.002 -57.621094 C 1396.4393 -55.957094 1398.1168 -55.125 1400.0332 -55.125 L 1415.6641 -55.125 C 1418.4189 -55.125 1420.5739 -55.957094 1422.1309 -57.621094 C 1422.7298 -58.261094 1423.1491 -59.221953 1423.3887 -60.501953 C 1423.748 -61.653953 1423.9277 -62.933797 1423.9277 -64.341797 L 1423.9277 -124.82227 C 1423.9277 -126.10227 1423.748 -127.44552 1423.3887 -128.85352 C 1423.0293 -130.13352 1422.4302 -131.09437 1421.5918 -131.73438 C 1420.8732 -132.37438 1420.0364 -132.82212 1419.0781 -133.07812 C 1418.2397 -133.20613 1417.0414 -133.26953 1415.4844 -133.26953 L 1373.623 -133.26953 L 1371.6465 -133.26953 C 1369.6103 -133.26953 1368.1724 -132.82178 1367.334 -131.92578 C 1366.4956 -131.02978 1365.9564 -130.06892 1365.7168 -129.04492 C 1365.6136 -128.16268 1365.5631 -126.93866 1365.5488 -125.48633 L 1352.2227 -125.48633 C 1352.1249 -127.46772 1351.4177 -129.23161 1350.0859 -130.77344 C 1348.6487 -132.43744 1346.9731 -133.26953 1345.0566 -133.26953 L 1317.0293 -133.26953 z M 1599.6641 236.11523 L 1599.3926 276.32031 C 1599.3926 276.20218 1599.4366 276.02521 1599.5273 275.78906 L 1599.3926 277.20508 L 1600.0703 282.51953 C 1603.4174 287.83304 1606.7643 292.96847 1610.1113 297.92773 C 1616.1721 306.90165 1620.9681 311.91973 1624.4961 312.98242 C 1624.5381 312.98442 1624.5651 312.98528 1624.6074 312.98828 L 1624.6074 322.76172 C 1622.3189 324.57977 1618.077 330.72382 1611.877 341.20312 L 1611.4688 344.39062 C 1611.8307 348.16913 1613.1871 353.01018 1615.5391 358.91406 C 1618.0883 365.35448 1620.4128 368.61306 1622.5137 368.71094 L 1622.5137 374.36523 L 1611.0605 391.52539 L 1611.1953 400.55859 L 1621.9902 414.49414 L 1621.9902 415.875 L 1619.8945 415.875 L 1619.8945 426.96875 L 1612.1445 426.84961 C 1609.8831 427.20385 1607.9389 430.21508 1606.3105 435.88281 L 1602.2402 450.40625 C 1605.949 444.73856 1608.6178 441.9043 1610.2461 441.9043 C 1610.608 441.9043 1610.972 442.02155 1611.334 442.25781 L 1625.6543 442.6543 L 1625.6543 457.1582 C 1625.5933 457.1612 1625.5042 457.16106 1625.4453 457.16406 C 1623.4552 457.87246 1618.9328 464.18943 1611.877 476.11523 L 1611.4688 479.30469 C 1611.8307 483.08318 1613.1871 487.92434 1615.5391 493.82812 C 1618.3433 500.91292 1620.8771 504.15867 1623.1387 503.56836 C 1625.0277 503.51476 1626.0724 503.47275 1627.748 503.42188 L 1627.748 510.68945 C 1627.4909 510.00998 1627.2247 509.25913 1626.9375 508.37305 C 1626.9375 509.43575 1626.9825 511.0289 1627.0723 513.1543 C 1627.1633 515.3978 1627.207 517.05059 1627.207 518.11328 C 1627.207 519.76639 1627.163 522.24653 1627.0723 525.55273 C 1626.9813 528.97693 1626.9375 531.51486 1626.9375 533.16797 C 1627.5707 529.74377 1629.3319 527.91383 1632.2266 527.67773 C 1641.4628 526.92942 1650.7928 526.56899 1660.209 526.58203 L 1660.209 531.2207 L 1659.7734 531.2207 L 1660.209 532.18945 L 1660.209 532.62891 L 1660.4062 532.62891 L 1667.0996 547.51562 C 1667.3709 548.69633 1667.9606 549.28711 1668.8652 549.28711 C 1669.6792 549.28711 1670.4925 548.81374 1671.3066 547.86914 L 1682.4336 539.54492 C 1682.7049 539.30872 1682.8398 538.89509 1682.8398 538.30469 C 1682.8398 536.41549 1680.805 532.40172 1676.7344 526.26172 L 1688.9453 526.26172 C 1684.2413 518.58661 1680.3066 511.73684 1677.1406 505.71484 L 1677.4121 514.92578 L 1655.498 514.75391 L 1655.498 500.67188 C 1656.9468 499.9737 1658.0663 499.11453 1658.8242 498.07812 L 1660.5879 496.66211 L 1667.2383 484.08594 C 1664.8909 475.36551 1661.4609 466.93911 1656.9512 458.80664 L 1658.6387 458.80664 L 1658.6387 443.56445 L 1669 443.85156 L 1669 453.77148 L 1674.834 452.17578 L 1674.834 442.9668 L 1692.0664 443.32031 C 1681.3921 433.16557 1673.8851 423.01212 1669.543 412.85742 L 1669.543 415.875 L 1659.4141 415.875 L 1666.5566 401.62109 C 1666.828 401.03071 1666.9668 399.90897 1666.9668 398.25586 C 1666.9668 396.4847 1666.8748 395.24558 1666.6934 394.53711 L 1654.9746 375.06641 L 1654.9746 365.99023 C 1656.6788 365.25556 1657.9791 364.32167 1658.8242 363.16602 L 1660.5879 361.74805 L 1667.2383 349.17383 C 1664.9117 340.53067 1661.5191 332.17684 1657.0684 324.11133 L 1657.0684 313.13672 C 1663.0826 312.90097 1669.2725 312.55698 1675.6504 312.09766 C 1683.7013 298.28256 1689.8519 283.93641 1694.1035 269.05859 L 1694.1035 267.28711 C 1694.2844 267.52326 1694.4212 267.75995 1694.5117 267.99609 L 1694.5117 238.41602 C 1693.1548 242.31259 1690.8927 244.4984 1687.7266 244.9707 L 1607.8047 245.85547 C 1603.9148 245.85547 1601.2019 242.60951 1599.6641 236.11523 z M 1454.5605 243.43164 C 1443.3099 243.26991 1431.4324 246.32394 1418.9277 252.40039 C 1406.5605 258.40999 1395.053 266.04585 1384.4043 275.15625 C 1371.6122 285.80796 1361.6481 296.96829 1354.5117 308.62109 C 1347.5141 319.68519 1344.0031 329.92038 1343.9805 339.55078 C 1343.9665 345.44349 1345.3676 350.59481 1348.1875 355.06641 C 1350.6809 359.13087 1354.0441 362.37685 1358.2695 364.82227 L 1355.2031 392.41602 C 1353.7117 392.91336 1352.3405 393.61881 1351.0977 394.54883 C 1349.3681 395.87913 1348.1556 397.38873 1347.4609 399.07812 C 1345.5155 403.99912 1344.5323 410.31982 1344.5137 418.07422 C 1344.4787 432.48162 1348.9194 439.3006 1357.832 438.5332 C 1358.4153 438.483 1358.9447 438.39531 1359.4512 438.28906 L 1359.0977 444.12305 C 1355.1932 445.79355 1351.9948 447.84991 1349.5137 450.29883 C 1345.6359 454.10073 1343.6898 458.85465 1343.6758 464.61523 C 1343.6628 470.20014 1346.1721 475.20966 1351.2051 479.73438 C 1352.9288 481.25477 1353.7891 482.4718 1353.7871 483.375 C 1353.7871 484.1878 1352.8845 485.03947 1351.0859 485.92188 C 1346.1049 488.44547 1343.6089 491.99004 1343.5977 496.60742 C 1343.5847 500.21333 1345.1009 503.79201 1348.1328 507.38281 C 1350.5445 510.33711 1353.5443 512.8671 1357.1328 514.97461 C 1357.5272 515.21475 1357.9195 515.43955 1358.3105 515.6582 L 1356.7871 521.58203 C 1356.5554 521.54443 1356.3327 521.50423 1356.082 521.47266 C 1348.1366 520.47056 1344.1485 526.09269 1344.1191 538.33789 C 1344.1011 546.00209 1345.0547 551.84317 1346.9805 555.88867 C 1348.8812 559.91792 1351.8347 562.42914 1355.8301 563.41016 L 1353.9609 569.20312 C 1350.6483 568.60416 1348.2001 569.28362 1346.6328 571.25391 C 1344.9685 573.33991 1344.1279 577.41394 1344.1133 583.49414 C 1344.0913 592.43814 1344.9758 598.95104 1346.7637 603.05664 C 1348.5515 607.19524 1351.7253 610.09055 1356.2852 611.71875 C 1357.1448 612.0257 1357.905 612.22086 1358.5996 612.3418 L 1356.2559 629.08398 C 1354.9765 629.23476 1353.76 629.47901 1352.6113 629.82227 C 1346.3828 631.59107 1343.2615 635.94056 1343.2441 642.97656 C 1343.2231 651.8595 1347.3838 661.49451 1355.7285 672.08984 C 1359.6594 677.22758 1363.7672 680.9427 1368.0508 683.1875 C 1370.3998 684.41843 1372.5763 685.08502 1374.582 685.17969 C 1376.5878 685.26539 1377.5938 684.72973 1377.5938 683.57812 C 1377.5938 682.85839 1377.2861 681.98011 1376.666 680.94531 C 1374.1856 676.63731 1372.9531 673.57266 1372.9531 671.72266 C 1372.9631 669.54052 1374.2738 668.36652 1376.9023 668.18945 C 1379.5309 668.04225 1382.919 668.93884 1387.0645 670.89258 L 1422.0898 687.40234 C 1424.0234 688.3138 1425.3358 689.20048 1426.0254 690.0625 C 1426.7153 690.92623 1427.0547 692.11043 1427.0547 693.61523 L 1427.0254 708.20508 C 1427.0254 710.19321 1427.6406 711.88684 1428.8828 713.28711 C 1430.194 714.72751 1432.5078 716.31549 1435.8242 718.04883 L 1441.9395 721.24609 C 1444.9795 722.83489 1446.9484 723.55518 1447.8477 723.40625 C 1448.8162 723.29078 1449.3066 722.18974 1449.3066 720.10547 L 1449.3379 704.47266 C 1449.3379 702.72639 1449.6545 701.71882 1450.2773 701.44922 C 1450.9001 701.23455 1452.2476 701.61486 1454.3203 702.5918 L 1468.3105 709.18555 C 1470.6596 710.29261 1472.2155 710.7598 1472.9766 710.58594 C 1473.8065 710.50184 1474.2246 709.71908 1474.2246 708.23828 L 1474.2383 701.04297 C 1474.2383 699.56217 1473.9325 698.1799 1473.3125 696.89844 L 1443.5391 645.46289 C 1442.9653 644.52794 1442.1901 643.73504 1441.2246 643.07422 L 1436.5469 626.52734 C 1438.4871 625.94835 1440.2798 625.04774 1441.9219 623.81836 C 1446.4915 620.23125 1448.7815 614.85879 1448.7949 607.77148 C 1448.8119 598.54668 1444.5424 590.45671 1435.9844 583.63281 C 1433.3619 581.54081 1432.0547 579.84988 1432.0547 578.54688 C 1432.0547 576.37524 1433.7189 575.65587 1437.0352 576.38867 C 1437.4497 576.48027 1437.9336 576.61577 1438.4863 576.79297 C 1440.006 577.18437 1440.8707 577.40322 1441.0781 577.44922 C 1443.1507 577.90802 1444.9485 577.71971 1446.4707 576.87891 C 1447.9928 576.08671 1448.7578 574.84334 1448.7578 573.15625 C 1448.7578 571.30045 1447.9396 567.70594 1446.291 562.39844 C 1444.7115 557.13744 1442.751 551.65108 1440.4121 545.95508 C 1437.7293 539.54757 1435.4917 535.29038 1433.6992 533.14258 C 1432.7157 531.93045 1431.5565 531.02127 1430.2344 530.39062 L 1429.0488 514.67383 C 1429.1565 514.64923 1429.2753 514.63127 1429.3809 514.60547 C 1433.598 513.62907 1437.3339 511.51689 1440.5879 508.25 C 1446.6809 501.93749 1449.7379 493.81558 1449.7559 484.01367 C 1449.7769 472.91607 1446.4806 462.33788 1439.8672 452.48828 C 1437.9505 449.7689 1435.7813 447.53247 1433.3672 445.76367 L 1434.2598 422.55078 L 1442.6211 421.66211 C 1446.9046 421.20722 1449.0414 419.4348 1449.0547 416.3418 C 1449.0547 415.34606 1448.9916 414.25213 1448.8613 413.06641 L 1463.2852 412.4668 C 1466.3519 416.26673 1470.4478 417.91615 1475.5781 417.36328 C 1479.3781 416.95379 1482.3872 415.09548 1484.6035 411.77148 C 1486.8889 408.41288 1488.0315 404.08028 1488.0449 398.79297 C 1488.0569 392.16857 1486.3415 385.34644 1482.9004 378.40234 C 1480.986 374.57748 1478.6566 372.04738 1475.9141 370.79297 L 1473.6055 346.30859 C 1476.3994 344.5027 1479.1079 342.40606 1481.7266 340.00195 C 1486.2921 335.74355 1488.5687 331.89047 1488.582 328.48438 C 1488.582 327.14637 1488.3467 325.90756 1487.8652 324.76758 C 1486.2831 321.34156 1485.4941 319.03147 1485.4941 317.82227 C 1485.4941 316.67357 1486.0875 314.34929 1487.2676 310.83789 C 1489.8363 302.97398 1491.1259 295.01341 1491.1406 287.00781 C 1491.1626 274.23531 1488.2824 264.02532 1482.4961 256.54492 C 1475.9529 248.19349 1466.6412 243.82145 1454.5625 243.43164 L 1454.5605 243.43164 z M 958.00977 492.66992 A 71.855995 71.856003 0 0 0 898.9043 552.82031 L 958.00977 552.82031 L 958.00977 492.66992 z M 981.7207 492.73438 L 981.7207 552.82031 L 1040.8164 552.82031 A 71.855995 71.856003 0 0 0 981.7207 492.73438 z M 1533.207 492.78125 A 71.855995 71.856003 0 0 0 1474.1016 552.93164 L 1533.207 552.93164 L 1533.207 492.78125 z M 1556.918 492.8457 L 1556.918 552.93164 L 1616.0137 552.93164 A 71.855995 71.856003 0 0 0 1556.918 492.8457 z M 969.81641 558.86914 A 5.8559999 5.8559999 0 0 0 963.96094 564.72461 A 5.8559999 5.8559999 0 0 0 969.81641 570.58008 A 5.8559999 5.8559999 0 0 0 975.67383 564.72461 A 5.8559999 5.8559999 0 0 0 969.81641 558.86914 z M 1545.0137 558.97852 A 5.8559999 5.8559999 0 0 0 1539.1582 564.83398 A 5.8559999 5.8559999 0 0 0 1545.0137 570.68945 A 5.8559999 5.8559999 0 0 0 1550.8691 564.83398 A 5.8559999 5.8559999 0 0 0 1545.0137 558.97852 z M 899.26562 576.53125 A 71.855995 71.856003 0 0 0 958.00977 634.3125 L 958.00977 576.53125 L 899.26562 576.53125 z M 981.7207 576.53125 L 981.7207 634.37695 A 71.855995 71.856003 0 0 0 1040.4648 576.53125 L 981.7207 576.53125 z M 1474.4629 576.64258 A 71.855995 71.856003 0 0 0 1533.207 634.42383 L 1533.207 576.64258 L 1474.4629 576.64258 z M 1556.918 576.64258 L 1556.918 634.48828 A 71.855995 71.856003 0 0 0 1615.6621 576.64258 L 1556.918 576.64258 z M 1684.2168 603.09961 C 1683.0135 609.93981 1680.8637 613.35937 1677.7695 613.35938 C 1675.9646 613.35938 1673.3013 613.25006 1669.7773 613.0293 C 1666.2533 612.80859 1663.5883 612.69727 1661.7832 612.69727 L 1632.5176 613.19336 C 1623.5786 613.30376 1618.8926 613.69152 1618.4629 614.35352 L 1599.8984 631.89453 C 1599.4686 632.33586 1599.2539 632.99819 1599.2539 633.88086 C 1599.2539 635.31513 1601.4018 639.56211 1605.6992 646.62305 C 1606.3868 647.72638 1608.3217 649.43697 1611.502 651.75391 C 1614.6822 654.07084 1616.787 656.05614 1617.8184 657.71094 C 1617.3026 657.71094 1617.5174 657.76694 1618.4629 657.87695 L 1601.832 673.59766 C 1601.4022 674.36979 1600.8869 675.96928 1600.2852 678.39648 C 1600.2852 678.72742 1600.4145 679.1691 1600.6719 679.7207 L 1629.1641 707.02734 L 1670.6797 706.53125 C 1673.1722 706.53125 1674.8476 707.24724 1675.707 708.68164 C 1676.0509 709.12284 1676.91 711.32905 1678.2852 715.30078 C 1678.2852 713.64585 1678.1992 711.219 1678.0273 708.01953 C 1677.9403 704.93033 1677.8984 702.55923 1677.8984 700.9043 C 1677.8984 698.47723 1677.9404 694.89062 1678.0273 690.14648 C 1678.1992 685.40248 1678.2852 681.81783 1678.2852 679.39062 C 1677.3397 684.46569 1674.7195 687.27834 1670.4219 687.83008 C 1666.1768 688.36164 1661.8994 688.68916 1657.5918 688.82031 L 1657.5918 664.73047 C 1660.1872 664.68997 1662.7857 664.66211 1665.3926 664.66211 C 1665.8223 664.66211 1666.5097 664.16493 1667.4551 663.17188 C 1668.4007 662.17908 1669.0019 661.68359 1669.2598 661.68359 C 1669.7754 661.68359 1670.2929 662.0694 1670.8086 662.8418 L 1671.582 662.8418 L 1662.8145 653.07812 C 1662.3846 651.53359 1661.4826 650.7061 1660.1074 650.5957 L 1657.5918 650.66211 L 1657.5918 632.06836 L 1658.4316 632.06055 C 1670.3787 631.94988 1676.8241 631.83892 1677.7695 631.72852 C 1680.6059 632.05945 1682.4549 634.37689 1683.3145 638.67969 L 1684.6035 618.82031 L 1684.2168 603.09961 z M 1082.8398 643.88281 C 1075.2076 644.01759 1068.6966 648.34734 1063.3086 656.87109 C 1057.691 665.97029 1057.351 677.90631 1062.2871 692.67578 C 1068.9576 712.63445 1084.0064 730.99045 1107.4336 747.74805 C 1112.0569 751.05317 1117.0953 754.19704 1122.5371 757.18555 L 1130.7852 813.27344 C 1128.1439 814.3472 1125.775 815.57826 1123.6934 816.97266 C 1112.9064 824.32039 1109.4822 833.8826 1113.418 845.6582 C 1116.92 856.13647 1124.1456 866.52533 1135.0996 876.82227 C 1145.9936 887.01707 1161.4418 898.50137 1181.3848 911.25977 C 1170.1641 912.10297 1161.393 914.84409 1155.0957 919.50195 C 1146.2133 926.07182 1143.7072 935.1447 1147.5762 946.7207 C 1153.7798 965.2823 1173.4194 982.51951 1206.4961 998.43164 C 1201.6012 1005.1211 1200.3526 1012.0589 1202.7539 1019.2441 C 1203.6878 1022.0383 1206.1231 1025.8932 1210.0586 1030.8105 C 1213.8186 1035.3652 1219.0842 1040.1276 1225.8145 1045.0957 C 1214.1802 1045.6816 1205.1687 1048.1579 1198.793 1052.5332 C 1190.2294 1058.5325 1187.732 1066.8711 1191.3008 1077.5488 C 1194.4025 1086.8296 1201.4791 1096.7688 1212.5332 1107.3652 C 1223.4232 1117.756 1238.8475 1129.931 1258.7207 1143.8594 C 1258.1426 1143.8224 1257.536 1143.7684 1256.9688 1143.7363 C 1244.1288 1143.0362 1234.1627 1144.6483 1227.0703 1148.5723 C 1220.1075 1152.5035 1217.6936 1157.664 1219.8281 1164.0508 C 1223.6425 1175.4638 1244.9129 1193.459 1283.5664 1218.0098 C 1272.3781 1218.2103 1263.2318 1220.8153 1256.1426 1225.8438 C 1247.9347 1231.764 1245.2491 1238.9671 1248.084 1247.4492 C 1250.6855 1255.2332 1258.0599 1264.1582 1270.2109 1274.2266 C 1282.3952 1284.3943 1298.4802 1294.0402 1318.4648 1303.1641 C 1301.2484 1302.323 1288.8493 1303.703 1281.2676 1307.3066 C 1273.7193 1311.0098 1271.1281 1316.4069 1273.4961 1323.4922 C 1275.4306 1329.2801 1280.8927 1336.0936 1289.8789 1343.9316 C 1298.7303 1351.618 1314.2905 1362.8148 1336.4316 1377.4609 C 1325.3755 1377.868 1316.4103 1380.2215 1309.5605 1384.5371 C 1300.9932 1390.1444 1298.1783 1397.3395 1301.1133 1406.1211 C 1304.115 1415.1024 1311.4279 1424.0249 1323.0488 1432.8887 C 1334.7033 1441.8521 1351.4696 1451.8276 1373.3516 1462.8184 C 1336.8658 1459.9468 1321.2597 1466.3965 1326.5293 1482.1641 C 1328.6305 1488.4509 1333.8147 1495.199 1342.082 1502.4102 C 1350.0322 1509.3444 1365.8251 1520.8748 1389.2949 1536.9004 C 1376.7665 1536.4515 1367.3731 1538.2298 1361.125 1542.2461 C 1354.555 1546.5908 1352.5549 1552.6069 1355.123 1560.291 C 1355.5121 1561.4551 1356.0085 1562.6412 1356.5898 1563.8457 L 1337.5586 1570.6641 C 1316.827 1553.1675 1297.7693 1543.9361 1280.3887 1542.9883 C 1279.966 1542.9653 1279.5751 1542.9681 1279.1641 1542.9551 L 1261.166 1490.9531 L 1210.3711 1488.9668 L 1237.3066 1566.7891 L 1001.5879 1557.5684 L 1020.1719 1611.2656 L 1255.8906 1620.4863 L 1282.8262 1698.3086 L 1333.6211 1700.2969 L 1300.5273 1604.6797 C 1318.3865 1615.3117 1343.5907 1625.4904 1376.1504 1635.2109 C 1402.1867 1663.9657 1425.2997 1685.1145 1445.4883 1698.6582 L 1467.8613 1699.877 C 1466.3548 1698.9662 1464.8578 1698.0387 1463.3672 1697.1016 L 1494.375 1668.752 L 1562.1035 1688.1152 L 1538.5234 1646.709 L 1536.9316 1646.2227 L 1533.6875 1610.5195 L 1536.4902 1611.4766 L 1512.0098 1567.375 L 1510.6953 1566.9609 L 1507.1211 1526.7461 L 1508.2734 1527.0508 L 1505.4727 1518.666 L 1473.2832 1486.9316 C 1486.5308 1482.7552 1491.0696 1474.4295 1486.9004 1461.9551 C 1484.8229 1455.739 1480.3866 1448.8106 1473.5996 1441.1738 L 1533.1289 1380.7305 C 1554.9807 1385.8497 1567.129 1388.5868 1568.4062 1388.6562 C 1569.9617 1388.7413 1570.7469 1388.2349 1570.7617 1387.1348 C 1570.7615 1386.7681 1570.6867 1386.3343 1570.5195 1385.8359 C 1568.485 1379.7487 1561.8906 1367.83 1550.7363 1350.0762 L 1427.2441 1322.3242 C 1430.746 1319.0862 1432.9673 1316.0243 1433.9121 1313.1367 C 1434.8904 1310.3488 1434.5137 1306.3614 1432.7793 1301.1719 C 1427.9998 1286.8714 1416.1537 1272.8789 1397.2969 1259.1914 L 1400.9414 1211.4824 L 1402.5723 1211.9355 L 1401.9727 1210.1367 L 1378.9551 1171.5527 C 1378.5405 1171.4212 1378.1533 1171.3064 1377.7402 1171.1758 L 1397.7598 1140.2988 C 1420.1344 1147.5584 1442.0343 1151.775 1463.459 1152.9434 C 1472.7971 1153.4526 1479.8739 1152.9074 1484.6875 1151.3086 C 1489.6642 1149.8164 1491.6705 1147.6225 1490.7031 1144.7285 C 1490.503 1144.1297 1489.9425 1143.218 1489.0234 1141.9922 L 1458.0293 1102.9746 C 1421.5384 1088.2514 1382.7161 1075.3109 1341.5625 1064.1523 L 1328.8965 1024.3457 C 1331.5959 1023.5097 1333.4292 1021.2738 1334.3789 1017.6055 C 1335.5425 1013.8479 1334.7059 1007.7287 1331.8711 999.24609 C 1324.3667 976.79249 1307.2789 956.90075 1280.6055 939.57422 C 1278.4907 938.19439 1276.3625 936.8836 1274.2285 935.60352 L 1288.3027 902.22461 C 1294.1846 902.54312 1297.7973 902.59288 1299.1133 902.37305 C 1300.5697 902.15865 1301.4719 901.42472 1301.8164 900.16992 C 1301.7364 900.10212 1301.6614 900.03458 1301.582 899.9668 L 1303.1211 875.35742 C 1317.9264 880.14618 1332.3921 885.35087 1346.5 890.99609 C 1370.4756 900.63129 1387.2353 907.91274 1396.7773 912.8418 C 1406.4492 917.77834 1412.2557 920.30207 1414.2012 920.4082 C 1414.9794 920.4509 1415.1697 919.87338 1414.7695 918.67578 C 1414.7365 918.57578 1410.724 912.47761 1402.7344 900.38281 C 1394.8697 888.52599 1388.7754 880.6581 1384.4375 876.74805 L 1377.9727 834.50781 C 1377.9957 834.50981 1378.0268 834.51833 1378.0488 834.51953 C 1379.3458 834.59023 1381.3196 830.97711 1383.9727 823.67578 C 1374.6752 817.19204 1368.9607 810.7558 1366.8262 804.36914 C 1365.7588 801.1758 1365.3608 795.22433 1365.6348 786.51953 C 1366.0385 777.82179 1365.7228 771.92968 1364.6895 768.83594 C 1359.9201 754.56568 1345.4558 739.66492 1321.2949 724.14062 C 1297.134 708.61689 1275.455 700.33391 1256.2598 699.28711 C 1247.57 698.81324 1240.1448 700.02466 1233.9824 702.92188 C 1230.7167 704.49391 1228.5346 706.21228 1227.418 708.07422 L 1168.8613 703.37305 C 1168.8403 703.36025 1168.8198 703.34688 1168.7988 703.33398 C 1168.6701 703.3349 1168.5823 703.33884 1168.4551 703.33984 L 1168.0625 703.30859 L 1168.0938 703.3457 C 1160.5967 703.4152 1155.7867 703.69739 1153.7324 704.19141 L 1123.3672 675.12891 C 1125.4319 674.2904 1126.1774 672.967 1125.5684 671.14453 C 1124.6678 668.44999 1119.063 663.29426 1108.75 655.67773 C 1098.6001 648.168 1090.4767 644.24646 1084.3809 643.91406 C 1083.8621 643.88576 1083.3487 643.87577 1082.8398 643.88477 L 1082.8398 643.88281 z M 685.49805 644.29688 L 743.8125 812.7832 L 794.60742 814.76953 L 754.87695 699.98242 L 990.59766 709.20312 L 972.01172 655.50391 L 685.49805 644.29688 z M 594 664.04492 L 594 704.02148 C 597.69067 705.94695 601.20222 708.85091 604.53516 712.73438 C 609.70636 718.59317 613.56192 725.20419 616.10352 732.56445 C 622.03392 749.73845 617.72122 768.83068 603.16602 789.84375 L 661.58984 794.93359 C 664.88504 785.91893 666.5278 776.76178 666.51953 767.45898 L 666.51562 767.45898 C 666.50229 758.15632 664.84884 748.70785 661.53711 739.11719 C 653.98924 717.25959 641.91521 698.90372 625.31641 684.04492 C 615.52667 675.26986 605.0876 668.60332 594 664.04492 z M 1591.9805 721.57031 L 1599.8379 726.0625 L 1564.6367 723.55469 L 1626.6836 739.87305 L 1622.6211 735.42383 L 1659.7871 744.6543 L 1655.9023 738.71289 L 1694.127 747.35938 L 1692.0293 731.78906 L 1620.2168 721.60156 L 1630.6289 727.47461 L 1591.9805 721.57031 z M 1625.4258 751.5293 L 1625.9102 793.36133 L 1625.6543 793.36133 L 1625.6543 813.21289 C 1621.0017 815.70426 1618.8565 818.29677 1619.2383 820.99219 L 1624.3945 831.58398 L 1619.7539 831.58398 C 1618.7224 831.25305 1618.2051 831.63858 1618.2051 832.74219 C 1618.2051 833.95579 1618.9803 835.94304 1620.5273 838.70117 L 1626.1777 845.14844 L 1626.1777 856.09375 C 1625.9393 855.47066 1625.6914 854.7805 1625.4258 853.97461 C 1625.4258 854.96768 1625.4678 856.45736 1625.5547 858.44336 C 1625.6397 860.53949 1625.6836 862.08324 1625.6836 863.07617 C 1625.6836 864.62071 1625.6416 866.93814 1625.5547 870.02734 C 1625.4697 873.22681 1625.4258 875.59804 1625.4258 877.14258 C 1626.0274 873.94311 1627.7026 872.23434 1630.4531 872.01367 C 1638.6294 871.36225 1646.8807 871.0265 1655.2051 870.99219 L 1657.0137 875.32227 L 1656.625 875.32227 L 1661.1211 885.15625 L 1661.6719 886.47266 L 1661.7148 886.45508 L 1663.5879 890.54883 C 1663.8459 891.65216 1664.4042 892.20314 1665.2637 892.20312 C 1666.0373 892.20312 1666.8105 891.76144 1667.584 890.87891 L 1678.1562 883.10156 C 1678.4143 882.88103 1678.543 882.49496 1678.543 881.94336 C 1678.543 880.17816 1676.6099 876.42639 1672.7422 870.68945 L 1684.3457 870.68945 C 1680.2002 864.03799 1676.7108 858.08056 1673.8223 852.75781 L 1673.8223 829.77539 C 1674.6409 828.37342 1675.4623 826.96899 1676.2227 825.62695 C 1672.9497 818.51716 1670.5849 813.73925 1669.1094 811.24414 L 1669.1094 799.16602 C 1671.0602 800.25052 1673.0202 801.33879 1675.1914 802.5 L 1672.6133 760.13477 L 1655.7227 752.6875 C 1660.45 757.1007 1662.6855 761.89865 1662.4277 767.08398 L 1665.2637 783.79883 C 1658.7314 781.92336 1645.4523 771.16743 1625.4258 751.5293 z M 1419.4941 767.88086 C 1417.2001 767.93089 1415.4954 769.05181 1414.3789 771.24414 C 1413.1229 773.88414 1413.0215 777.26379 1414.0762 781.38281 C 1415.9683 788.77286 1419.6905 796.16234 1425.2422 803.54883 C 1429.7796 809.50737 1434.3218 813.70784 1438.8672 816.17383 L 1448.584 844.91992 L 1448.2012 844.96875 L 1449.3867 847.29492 L 1449.7383 848.33594 L 1449.9199 848.3418 L 1451.5742 851.58984 L 1452.8535 852.24023 L 1445.4668 860.61133 C 1439.8022 854.58102 1434.348 850.90711 1429.1055 849.61133 C 1425.5233 848.72599 1422.9886 849.74495 1421.5 852.66797 C 1420.244 855.30806 1420.1426 858.68762 1421.1973 862.80664 C 1423.0894 870.19669 1426.8115 877.58608 1432.3633 884.97266 C 1438.6439 893.22039 1444.9326 898.12173 1451.2285 899.67773 L 1583.2793 932.31445 L 1568.8809 904.07422 L 1496.4219 867.10156 L 1545.9668 859.25977 L 1532.4277 832.59375 L 1454.9238 813.4375 C 1455.0634 811.20239 1454.7601 808.6303 1454.0156 805.72266 C 1452.1546 798.45386 1448.0378 790.91233 1441.6641 783.0957 C 1434.9492 774.74068 1428.3888 769.77239 1421.9844 768.18945 C 1421.0888 767.9681 1420.2588 767.86418 1419.4941 767.88086 z M 593.97656 822.94141 L 593.97656 1027.3691 L 763.12891 1042.1113 L 747.18555 995.94336 L 643.9043 986.94141 L 603.00586 868.50781 L 706.28906 877.50977 L 690.34766 831.33984 L 593.97656 822.94141 z M 752 836.43945 L 770.58398 890.13672 L 1057.0977 901.3457 L 1038.5137 847.64844 L 752 836.43945 z M 1664.1035 896.70898 L 1625.0391 900.01758 L 1617.1738 913.91992 L 1622.332 926.49609 L 1616.6582 926.49609 L 1617.3027 943.87305 C 1618.5059 942.10785 1620.0113 940.95004 1621.8164 940.39844 L 1689.7598 938.9082 C 1691.7367 938.9082 1693.8433 940.01222 1696.0781 942.21875 L 1696.0781 923.02148 C 1693.3276 925.89002 1691.0062 927.10344 1689.1152 926.66211 L 1662.6855 926.33203 L 1673 916.89844 L 1664.1035 896.70898 z M 1480.6348 924.58008 C 1475.2092 924.83496 1473.3685 928.36906 1475.1133 935.18359 C 1476.7572 941.60439 1480.2613 948.54196 1485.627 955.99609 C 1490.6515 962.91192 1496.2341 968.83168 1502.375 973.75391 C 1494.4508 971.79542 1489.6989 970.90363 1488.1172 971.08008 C 1483.6357 971.44772 1482.2313 974.90149 1483.9062 981.44336 C 1485.4263 987.37954 1488.4125 993.28204 1492.8633 999.14844 C 1497.7947 1005.7008 1502.8102 1009.6062 1507.9121 1010.8672 C 1515.4022 1012.7184 1518.0461 1009.3437 1515.8438 1000.7422 C 1515.4715 999.28849 1514.9222 997.73351 1514.1934 996.07812 L 1559.7832 1007.3477 L 1547.0137 984.27539 C 1546.6843 984.19399 1546.3565 984.11793 1546.0273 984.03711 L 1545.5762 959.74805 L 1547.7344 960.28125 L 1534.9629 937.20898 L 1487.2539 925.41797 C 1484.6487 924.77408 1482.4433 924.49512 1480.6348 924.58008 z M 915.94531 928.98047 C 877.27473 929.11708 849.92019 942.06612 833.88086 967.82812 C 816.77241 995.30741 815.53534 1030.189 830.16992 1072.4727 C 841.6621 1105.6769 862.11507 1141.0237 891.53125 1178.5117 L 1019.3125 1183.5098 L 1015.6602 1172.957 L 1077.9883 1173.7656 C 1077.3811 1177.211 1076.6914 1180.6851 1075.918 1184.1895 L 1133.8555 1186.4551 C 1137.225 1147.1788 1134.0168 1113.4025 1124.2305 1085.127 C 1109.5959 1042.8433 1083.4514 1006.891 1045.7969 977.26953 C 1007.344 946.84909 966.68803 930.80153 923.83008 929.125 C 921.15146 929.02022 918.52335 928.97136 915.94531 928.98047 z M 1690.2754 945.28711 C 1689.1581 947.82458 1687.2679 949.37041 1684.6035 949.92188 C 1684.069 950.01921 1683.6747 950.1016 1683.3438 950.17773 C 1682.7903 950.1164 1681.623 950.08789 1679.832 950.08789 C 1677.7692 950.08789 1675.2779 950.80401 1672.3555 952.23828 C 1669.4332 953.67255 1666.4673 954.22338 1663.459 953.89258 L 1663.459 962.16797 C 1665.2639 962.27864 1667.7575 963.21514 1670.9375 964.98047 C 1673.8599 966.6354 1676.9955 967.40923 1680.3477 967.29883 C 1681.3934 967.24283 1682.2033 967.21351 1682.7852 967.21484 C 1682.9618 967.18818 1683.0794 967.16081 1683.3145 967.13281 C 1686.4946 966.58121 1688.8142 968.01555 1690.2754 971.43555 L 1690.2754 945.28711 z M 1625.873 962.70312 C 1624.9276 962.70312 1623.2074 963.41925 1620.7148 964.85352 L 1610.1445 975.94141 C 1609.9725 976.05207 1609.8867 976.27245 1609.8867 976.60352 C 1609.8867 978.81005 1611.9486 983.38931 1616.0742 990.33984 C 1619.7701 996.51811 1621.8768 1000.047 1622.3926 1000.9297 L 1623.0371 1000.9297 L 1623.166 1001.9238 C 1623.51 1002.4754 1623.9824 1002.75 1624.584 1002.75 C 1626.1312 1002.75 1629.3118 999.88342 1634.125 994.14648 C 1637.7728 989.81543 1640.902 986.19924 1643.582 983.20312 L 1644.3906 989.03711 C 1644.2757 988.92304 1644.1556 988.81817 1644.0508 988.68359 L 1643.5352 988.68359 L 1645.5977 1000.5996 C 1646.3711 1002.2545 1647.2752 1003.082 1648.3066 1003.082 C 1649.252 1003.082 1650.9704 1002.364 1653.4629 1000.9297 L 1664.0352 989.84375 C 1664.2072 989.73308 1664.293 989.51257 1664.293 989.18164 C 1664.293 986.97511 1662.2291 982.39598 1658.1035 975.44531 C 1654.4076 969.26705 1652.3028 965.73618 1651.7871 964.85352 L 1650.498 963.36523 C 1650.326 962.9239 1650.0254 962.70312 1649.5957 962.70312 C 1648.9081 962.70312 1644.6965 966.95011 1636.9609 975.44531 C 1635.1168 977.51989 1633.484 979.31814 1632.0195 980.89258 L 1631.293 975.64453 C 1631.333 975.69153 1631.377 975.72563 1631.416 975.77539 L 1630.9336 973.05078 L 1630.0742 966.84375 L 1629.3984 966.9375 L 1628.5801 965.18555 C 1627.8066 963.53061 1626.9045 962.70312 1625.873 962.70312 z M 1501.2344 1016.0586 C 1498.8909 1016.1389 1497.3061 1017.3957 1496.4805 1019.8301 C 1495.6587 1022.5774 1495.8211 1026.1933 1496.9688 1030.6758 C 1499.7293 1041.4579 1504.9091 1052.1554 1512.5078 1062.7715 C 1521.2852 1074.8137 1530.2333 1081.9631 1539.3516 1084.2168 C 1544.5425 1085.4998 1548.0591 1085.0392 1549.9141 1082.8496 L 1565.9551 1085.5684 C 1568.6514 1088.1165 1571.3435 1089.7395 1574.0332 1090.4043 C 1579.7864 1091.8262 1581.4071 1087.6312 1578.8945 1077.8184 C 1576.2581 1067.5208 1571.2647 1057.5493 1563.9141 1047.9023 C 1555.6639 1037.1252 1547.0887 1030.6355 1538.1875 1028.4355 C 1531.8916 1026.8795 1527.9824 1027.8998 1526.4629 1031.4961 C 1526.4345 1031.5694 1526.4192 1031.6604 1526.3926 1031.7363 L 1518.2656 1028.5957 C 1517.5935 1027.5619 1516.874 1026.5373 1516.0898 1025.5273 C 1512.1508 1020.4685 1508.0635 1017.4174 1503.8301 1016.3711 C 1502.8803 1016.1363 1502.0155 1016.0318 1501.2344 1016.0586 z M 636.98242 1061.4883 C 619.82407 1061.3548 605.29886 1064.4 593.4043 1070.627 L 593.41211 1234.6406 C 604.28571 1249.7258 617.3369 1263.6513 632.5625 1276.416 C 665.83957 1304.41 701.48857 1320.0634 739.50977 1323.377 C 777.53083 1326.6907 804.28575 1316.5824 819.77148 1293.0547 C 827.71015 1281.1051 831.73472 1267.1052 831.84766 1251.0547 C 831.94766 1236.8924 829.00088 1221.1345 823.00781 1203.7793 C 810.37675 1167.201 787.96398 1135.5017 755.76758 1108.6836 C 722.56758 1080.9125 687.07254 1065.3814 649.2832 1062.0879 C 645.04325 1061.7184 640.94204 1061.5191 636.98242 1061.4883 z M 1508.4707 1090.4863 L 1520.1484 1113.457 L 1577.7871 1127.7051 L 1566.1094 1104.7324 L 1508.4707 1090.4863 z M 1586.7695 1109.168 C 1585.3216 1109.1718 1584.2644 1109.8146 1583.6016 1111.0977 C 1582.7487 1112.9295 1582.6652 1115.1785 1583.3477 1117.8438 C 1584.5573 1122.5685 1586.9371 1127.2992 1590.4883 1132.0352 C 1594.4893 1137.3363 1598.4974 1140.4819 1602.5137 1141.4746 C 1608.484 1142.9502 1610.5864 1140.2355 1608.8184 1133.3301 C 1607.6086 1128.6054 1604.9255 1123.6867 1600.7695 1118.5742 C 1596.6135 1113.4616 1592.4726 1110.3964 1588.3477 1109.377 C 1587.7778 1109.2361 1587.2522 1109.1667 1586.7695 1109.168 z M 1545.125 1133.3652 C 1541.7286 1133.3912 1538.8968 1134.1149 1536.6289 1135.5332 C 1531.8838 1138.4457 1530.5348 1143.8989 1532.582 1151.8945 C 1534.9013 1160.9531 1539.4397 1169.5662 1546.1816 1177.7363 L 1543.1016 1201.5957 C 1537.3611 1201.2169 1535.5439 1205.1626 1537.666 1213.4512 C 1538.9688 1218.5393 1541.9929 1224.3938 1546.7383 1231.0137 C 1550.8323 1236.6783 1555.4234 1241.8988 1560.5098 1246.6738 L 1551.4375 1244.6016 L 1563.3242 1267.7969 L 1610.707 1279.5059 C 1620.9108 1282.0279 1624.4453 1277.1715 1621.3125 1264.9355 C 1619.0792 1256.213 1614.1632 1246.5438 1606.5645 1235.9277 C 1603.9437 1232.2574 1601.3848 1229.0706 1598.8848 1226.3555 L 1604.7246 1204.5586 C 1611.197 1205.0615 1613.2117 1200.5319 1610.7617 1190.9629 C 1607.8461 1179.5751 1600.1159 1167.8488 1587.5703 1155.7832 C 1575.6605 1144.2149 1564.4951 1137.142 1554.0742 1134.5664 C 1550.7499 1133.7448 1547.7666 1133.3448 1545.125 1133.3652 z M 1429.459 1176.3633 C 1424.7493 1182.083 1423.8289 1189.236 1426.6973 1197.8184 C 1432.6006 1215.4817 1451.1149 1225.1598 1482.2422 1226.8574 C 1475.4163 1221.2925 1471.1037 1215.8165 1469.3027 1210.4277 C 1467.7018 1205.6377 1468.762 1199.4747 1472.4824 1191.9375 C 1457.1484 1187.966 1442.8067 1182.7738 1429.459 1176.3633 z M 880.36133 1207.3125 L 898.94727 1261.0117 L 1016.8066 1265.6211 L 1064.4805 1403.3672 L 946.62109 1398.7559 L 965.20703 1452.4551 L 1251.7188 1463.6621 L 1233.1348 1409.9648 L 1115.2754 1405.3535 L 1067.5996 1267.6074 L 1185.459 1272.2188 L 1166.875 1218.5215 L 880.36133 1207.3125 z M 1568.4863 1283.6738 C 1566.64 1283.6856 1565.3201 1284.5301 1564.5293 1286.207 C 1563.3663 1288.4162 1563.2035 1291.1548 1564.041 1294.4258 C 1565.5609 1300.362 1568.5474 1306.2646 1572.998 1312.1309 C 1577.9605 1318.8045 1582.9919 1322.7704 1588.0938 1324.0312 C 1595.5837 1325.8825 1598.2276 1322.5076 1596.0254 1313.9062 C 1595.7152 1312.6948 1595.281 1311.3961 1594.7227 1310.0098 L 1689.8125 1333.5117 L 1678.1348 1310.541 L 1570.5078 1283.9395 C 1569.7751 1283.7584 1569.1018 1283.6699 1568.4863 1283.6738 z M 863.07227 1328.6035 L 643.98633 1405.2344 L 649.30078 1420.623 L 849.99023 1506.582 L 698.74805 1563.8145 L 704.0625 1579.2031 L 991.42383 1700.2969 L 975.13477 1653.125 L 802.59961 1581.3027 L 932.73438 1530.3418 L 921.5293 1497.8906 L 747.60938 1422.0527 L 879.47656 1376.1113 L 863.07227 1328.6035 z "
       transform="matrix(0.75,0,0,0.75,0,528.09999)"
       id="path5306" />
  </g>
</svg>
