<?xml version="1.0" encoding="UTF-8" standalone="no"?>
<!-- Created with Inkscape (http://www.inkscape.org/) -->

<svg
   xmlns:dc="http://purl.org/dc/elements/1.1/"
   xmlns:cc="http://creativecommons.org/ns#"
   xmlns:rdf="http://www.w3.org/1999/02/22-rdf-syntax-ns#"
   xmlns:svg="http://www.w3.org/2000/svg"
   xmlns="http://www.w3.org/2000/svg"
   xmlns:sodipodi="http://sodipodi.sourceforge.net/DTD/sodipodi-0.dtd"
   xmlns:inkscape="http://www.inkscape.org/namespaces/inkscape"
   width="24in"
   height="12in"
   viewBox="0 0 1728 864"
   version="1.1"
   id="svg8"
   inkscape:version="0.92.3 (2405546, 2018-03-11)"
   sodipodi:docname="Placement stencil upper half.svg">
  <defs
     id="defs2" />
  <sodipodi:namedview
     id="base"
     pagecolor="#3f3f3f"
     bordercolor="#ff0000"
     borderopacity="1"
     inkscape:pageopacity="0"
     inkscape:pageshadow="2"
     inkscape:zoom="0.55048947"
     inkscape:cx="1164.5204"
     inkscape:cy="1022.7078"
     inkscape:document-units="in"
     inkscape:current-layer="layer1"
     showgrid="true"
     units="in"
     gridtolerance="10"
     inkscape:window-width="1920"
     inkscape:window-height="1017"
     inkscape:window-x="-8"
     inkscape:window-y="-8"
     inkscape:window-maximized="1"
     borderlayer="true"
     showborder="false"
     inkscape:snap-global="true">
    <inkscape:grid
       type="xygrid"
       id="grid815"
       units="in"
       spacingx="18"
       spacingy="18"
       empspacing="4"
       empcolor="#007fff"
       empopacity="0.25098039"
       color="#0000ff"
       opacity="0.1254902"
       originy="-1692" />
  </sodipodi:namedview>
  <metadata
     id="metadata5">
    <rdf:RDF>
      <cc:Work
         rdf:about="">
        <dc:format>image/svg+xml</dc:format>
        <dc:type
           rdf:resource="http://purl.org/dc/dcmitype/StillImage" />
        <dc:title></dc:title>
        <dc:creator>
          <cc:Agent>
            <dc:title>Doctor Wizard</dc:title>
          </cc:Agent>
        </dc:creator>
        <dc:rights>
          <cc:Agent>
            <dc:title>© 2019 Doctor Wizard and Wizlights</dc:title>
          </cc:Agent>
        </dc:rights>
        <dc:publisher>
          <cc:Agent>
            <dc:title>Doctor Wizard</dc:title>
          </cc:Agent>
        </dc:publisher>
      </cc:Work>
    </rdf:RDF>
  </metadata>
  <g
     inkscape:label="Layer 1"
     inkscape:groupmode="layer"
     id="layer1"
     transform="translate(0,-528.09999)">
    <g
       id="g5216"
       transform="rotate(90,858.55423,978.65352)">
      <g
         transform="matrix(0.75,0,0,0.75,-1767.7491,178.65311)"
         style="display:inline;fill:none;stroke:#ffffff;stroke-width:0.47999999;stroke-miterlimit:4;stroke-dasharray:none;stroke-opacity:1"
         id="g1903" />
      <g
         transform="matrix(0.75,0,0,0.75,-1199.3329,399.14113)"
         id="g1978"
         style="display:inline" />
      <g
         id="g2574"
         style="display:inline"
         transform="matrix(0.75,0,0,0.75,-14.624064,546.95667)" />
      <g
         transform="matrix(0.75,0,0,0.75,31.127086,728.77706)"
         id="g2774"
         style="display:inline" />
      <g
         transform="matrix(0.75,0,0,0.75,-5.9398544,729.71983)"
         id="g2783"
         style="display:inline" />
      <path
         id="path5128"
         style="fill:none;stroke:#ffffff;stroke-width:0.36000001;stroke-linecap:butt;stroke-linejoin:miter;stroke-miterlimit:4;stroke-dasharray:none;stroke-opacity:1"
         d="m 575.56874,1391.667 67.12385,0.2558 m -241.1014,-0.2928 37.28417,0.065 m -37.28417,-0.065 c -1.32783,-4.0178 -2.40809,-7.5005 -2.8643,-9.2374 -0.41182,-1.5678 -2.2521,-5.8435 -2.91922,-6.7824 -0.7467,-1.051 -1.27785,-2.4436 -1.53053,-4.0127 -0.40132,-2.493 -0.5001,-5.8676 -0.2121,-7.2469 0.15068,-0.7217 0.38063,-1.8472 0.51105,-2.501 0.13035,-0.6538 0.44078,-1.9912 0.68978,-2.9719 0.9861,-3.8843 1.43925,-5.8922 1.66342,-7.3704 0.12885,-0.85 0.33158,-1.9733 0.45045,-2.4965 0.11888,-0.523 0.29393,-1.2984 0.38903,-1.7232 l 0.17295,-0.7722 -1.0698,0.1467 c -0.60488,0.083 -1.43753,0.025 -1.91595,-0.1326 -1.07505,-0.3549 -2.46998,-1.8867 -2.66505,-2.9268 -0.28455,-1.5168 0.24225,-11.2647 0.82567,-15.2764 0.13305,-0.9154 0.4026,-3.1622 0.5988,-4.9928 0.19628,-1.8308 0.45533,-3.9171 0.5757,-4.6362 0.38385,-2.2939 0.7257,-4.1301 0.97388,-5.2307 0.2946,-1.3065 0.69825,-3.3197 0.9534,-4.7551 0.25042,-1.4083 0.68565,-3.8403 0.97852,-5.4683 0.31695,-1.7614 1.8345,-8.7752 2.46915,-11.4121 0.1731,-0.7193 0.4359,-1.8962 0.58395,-2.6153 0.14813,-0.7192 0.486,-2.1636 0.75098,-3.2097 1.14765,-4.5317 1.46767,-5.7679 1.75402,-6.776 0.16718,-0.5884 0.44333,-1.7119 0.61358,-2.4964 0.17032,-0.7846 0.87795,-3.1347 1.57245,-5.2225 0.69457,-2.0878 1.26285,-3.9703 1.26285,-4.1833 0,-0.2131 -0.22913,-0.5911 -0.50918,-0.8403 -0.7659,-0.6812 -1.6257,-2.7019 -1.62832,-3.8269 0,-0.548 -0.11258,-1.0645 -0.24735,-1.1478 -0.28043,-0.1734 -2.48828,-4.5094 -3.40365,-6.6846 -0.61575,-1.4632 -1.25738,-3.7255 -1.81163,-6.3873 -0.16342,-0.7847 -0.39247,-1.7368 -0.50917,-2.1159 -0.11663,-0.3791 -0.2121,-0.9181 -0.2121,-1.1979 0,-0.3789 -0.56093,-0.8769 -2.19923,-1.9527 -1.20952,-0.7942 -2.5803,-1.5675 -3.04612,-1.7183 -0.9756,-0.3158 -2.45603,-1.7413 -2.82405,-2.7192 -0.366,-0.9724 -0.30863,-3.0343 0.11775,-4.2343 1.0242,-2.8823 1.89757,-6.6348 2.26192,-9.7183 0.279,-2.3619 0.28058,-1.9412 -0.021,-5.7061 -0.58537,-7.3078 -0.83145,-9.6362 -1.52017,-14.3841 -0.20873,-1.4384 -0.4713,-3.2572 -0.5835,-4.0418 -0.21833,-1.5259 -1.04115,-2.9864 -2.4111,-4.2796 -0.68513,-0.6468 -2.37548,-2.9671 -2.37548,-3.2608 0,-0.067 -0.44377,-0.9113 -0.98617,-1.8774 -2.5164,-4.4825 -6.74228,-12.7579 -7.18185,-14.064 -0.18855,-0.5604 -1.12088,-0.888 -2.5272,-0.888 -0.63473,0 -1.83135,-0.1728 -2.6592,-0.384 -3.45855,-0.8824 -4.95263,-2.3873 -4.95263,-4.9886 0,-1.7682 0.87045,-3.1658 2.5611,-4.1119 0.35348,-0.1978 0.33293,-0.2748 -0.19087,-0.7147 -0.61365,-0.5154 -1.59878,-0.8548 -3.20235,-1.1034 -0.79283,-0.1229 -1.2399,-0.4507 -2.68838,-1.9711 -0.95557,-1.003 -1.99935,-2.2237 -2.31952,-2.7127 -0.3201,-0.489 -1.12005,-1.2915 -1.77765,-1.7832 -0.6576,-0.4917 -1.92945,-1.4825 -2.82638,-2.2017 -0.89692,-0.7192 -2.55457,-2.0031 -3.6837,-2.8531 -1.12912,-0.8499 -2.5497,-1.9568 -3.15682,-2.4596 -0.60713,-0.5029 -1.48673,-1.1718 -1.95465,-1.4865 -0.468,-0.3147 -1.86465,-1.2714 -3.10373,-2.126 -1.239,-0.8546 -2.46937,-1.5972 -2.73412,-1.6501 -0.26475,-0.053 -0.88898,-0.162 -1.38713,-0.2423 -0.54982,-0.089 -1.25685,-0.4632 -1.7991,-0.953 -0.6759,-0.6107 -1.81507,-1.1297 -4.6815,-2.1328 -2.08342,-0.7291 -4.43002,-1.5503 -5.2146,-1.8248 -3.72262,-1.3025 -9.25545,-3.3179 -11.29327,-4.1137 -1.2423,-0.4852 -4.45193,-1.6883 -7.13265,-2.6738 -7.99913,-2.9406 -11.52608,-4.3454 -15.31838,-6.1014 -1.88025,-0.8706 -2.26057,-0.8675 -2.27175,0.019 -0.007,0.5748 -1.49287,1.9695 -2.38132,2.2357 -0.49898,0.1495 -1.4787,0.7057 -2.17718,1.2359 -1.75537,1.3327 -3.62632,1.8111 -7.1172,1.8198 -4.54207,0.011 -6.66345,-0.9485 -10.07092,-4.5571 -2.58368,-2.7362 -3.15773,-3.5251 -4.52873,-6.2236 -0.52305,-1.0295 -1.08082,-1.9222 -1.23937,-1.9835 -0.3207,-0.1242 -3.27413,0.5669 -3.94275,0.9226 -0.2349,0.1249 -1.03733,0.3384 -1.7832,0.4745 -2.95238,0.5385 -3.7974,0.6841 -5.3979,0.9302 -0.9153,0.1407 -2.30618,0.3567 -3.09075,0.48 -4.017,0.6311 -7.09253,0.7592 -18.0693,0.7523 -6.4074,-0.01 -13.14773,-0.1269 -14.97848,-0.273 -5.30032,-0.4228 -8.64465,-0.7209 -10.81777,-0.9641 -1.1115,-0.1243 -3.09075,-0.3363 -4.39845,-0.4709 -2.37383,-0.2444 -4.4121,-0.5343 -6.65708,-0.9468 -0.65377,-0.1202 -1.83067,-0.3333 -2.61525,-0.4736 -2.16675,-0.3877 -3.19305,-0.6222 -4.75507,-1.0864 -2.1261,-0.6317 -6.57248,-2.2202 -7.25153,-2.5906 -2.32492,-1.268 -3.67552,-2.3155 -5.3817,-4.1739 -1.62067,-1.7653 -2.06227,-2.4291 -2.72355,-4.0939 -0.65962,-1.6608 -0.80445,-2.3703 -0.88207,-4.3218 -0.13358,-3.3579 0.35467,-4.5681 2.77305,-6.8736 2.50072,-2.3838 5.89155,-4.0831 9.42165,-4.7214 0.65505,-0.1185 1.67257,-0.324 2.26095,-0.4566 2.0979,-0.4731 4.66155,-0.8978 8.67802,-1.4379 1.0461,-0.1406 2.65095,-0.3603 3.56633,-0.4881 2.01232,-0.2811 7.25617,-0.6159 14.14635,-0.9031 2.81137,-0.1172 5.70007,-0.3295 6.41932,-0.4718 0.71918,-0.1422 1.94955,-0.3591 2.73413,-0.4819 0.78457,-0.1228 2.01495,-0.3843 2.7342,-0.5812 0.71917,-0.1969 1.90522,-0.5149 2.63565,-0.7069 2.3622,-0.6206 4.41232,-1.5698 6.6777,-3.0918 1.21972,-0.8195 3.12705,-2.0118 4.23855,-2.6496 1.61287,-0.9255 2.50095,-1.6751 4.39845,-3.7125 1.3077,-1.404 2.41327,-2.7486 2.45685,-2.988 0.0435,-0.2395 0.4575,-1.6658 0.91957,-3.1696 1.21853,-3.965 2.41343,-6.1859 4.47698,-8.3214 1.01805,-1.0536 1.8333,-2.1319 1.9926,-2.6355 0.32092,-1.0148 1.24687,-1.9442 2.4156,-2.4243 0.46717,-0.192 1.2588,-0.7101 1.75905,-1.1515 1.02967,-0.9083 2.44147,-1.7786 4.52415,-2.7889 1.31475,-0.6378 2.44305,-1.016 5.02042,-1.6832 0.5382,-0.1393 3.16913,-0.2533 5.8464,-0.2533 h 4.8678 l 1.4133,0.7062 c 1.7646,0.8818 2.53433,1.6812 3.16283,3.285 0.92925,2.371 0.46792,5.3815 -1.12508,7.3419 -0.3525,0.4338 -2.26147,2.6199 -4.24222,4.8579 l -3.60128,4.0694 -1.0944,3.383 c -0.60187,1.8607 -1.09372,3.5877 -1.09305,3.8379 0,0.2501 0.18795,0.7593 0.4161,1.1315 l 0.41483,0.6766 4.04182,0.016 c 2.223,0.01 4.41623,-0.096 4.87395,-0.2334 0.45765,-0.137 1.44728,-0.3684 2.19915,-0.5142 0.75195,-0.1458 1.92878,-0.3823 2.61533,-0.5256 0.6873,-0.1434 2.04952,-0.1979 3.03135,-0.1212 0.98077,0.077 3.28102,0.2394 5.1117,0.3618 6.38812,0.4269 7.64287,0.9101 10.23127,3.9398 1.57973,1.8491 1.99703,3.4867 2.0061,7.8729 0.007,1.8439 -0.0875,3.6627 -0.20295,4.0418 -0.1155,0.3791 -0.44902,1.7592 -0.7413,3.0668 -0.2922,1.3077 -0.6792,2.8514 -0.85995,3.4304 -0.48127,1.5417 -0.42675,1.8874 0.3252,2.0613 3.9099,0.904 8.53853,2.4358 12.5415,4.1503 1.56915,0.6722 3.49493,1.4267 4.2795,1.6767 0.78465,0.2501 1.96148,0.7095 2.61533,1.0208 0.65385,0.3113 1.72372,0.8049 2.3775,1.0969 0.65385,0.2919 3.06112,1.4464 5.34945,2.5656 3.78727,1.8521 5.13202,2.5638 7.50097,3.9694 0.4407,0.2615 1.60125,0.9293 2.57903,1.4838 1.87477,1.0635 2.92545,1.7667 5.2551,3.5171 0.78465,0.5895 2.44297,1.5806 3.6852,2.2023 1.2423,0.6217 2.68665,1.4031 3.2097,1.7364 1.67415,1.0666 2.82885,1.6035 3.78967,1.7621 0.6993,0.1154 1.2495,0.466 2.17125,1.3835 1.43865,1.4321 4.53368,3.2588 7.6794,4.5324 1.21973,0.4938 2.70945,1.2097 3.31043,1.5908 0.945,0.5994 1.323,0.693 2.79585,0.693 1.44742,0 1.90957,0.1102 3.07822,0.7338 1.22888,0.6558 1.58895,0.7332 3.3858,0.7282 2.31953,-0.01 2.9817,0.1904 4.02518,1.1968 0.72465,0.6989 0.81352,0.7217 2.25862,0.5787 2.8428,-0.2813 5.54835,-0.6131 6.9726,-0.8553 1.69088,-0.2875 4.07715,-0.6291 6.53828,-0.9359 0.9807,-0.1223 2.01217,-0.2931 2.29215,-0.3798 l 0.5091,-0.1574 -0.56108,-1.4317 c -0.30862,-0.7874 -0.67042,-1.5634 -0.80415,-1.7245 -0.40965,-0.4936 -2.40412,-6.5278 -2.89177,-8.749 -0.2433,-1.1079 -0.2652,-1.1293 -1.1601,-1.1293 -3.02078,0 -10.701,-3.4849 -12.83813,-5.8254 -0.32692,-0.3579 -0.98407,-0.8996 -1.4604,-1.2036 -0.92385,-0.5898 -5.1843,-5.2952 -6.2289,-6.8796 -0.34485,-0.5231 -0.77242,-1.165 -0.95017,-1.4265 -1.16453,-1.7135 -2.85398,-4.5658 -3.68618,-6.2231 -0.5367,-1.0689 -1.0773,-2.0062 -1.20142,-2.083 -0.12405,-0.077 -0.46275,-0.8604 -0.7527,-1.7416 -0.28988,-0.8813 -0.76658,-2.0837 -1.05938,-2.6722 -0.93322,-1.8758 -1.94587,-4.5925 -2.3844,-6.3967 l -0.4254,-1.7502 -0.69832,1.3987 c -1.52115,3.047 -3.7128,4.2885 -6.02145,3.4108 -0.56348,-0.2143 -0.7452,-0.1586 -1.38255,0.424 -1.05413,0.9637 -2.8074,2.1396 -3.9912,2.6769 -1.80585,0.8196 -4.21373,0.5143 -5.26635,-0.6676 -0.36863,-0.4139 -0.6237,-0.4726 -1.56893,-0.3606 -0.7074,0.084 -1.74112,-0.02 -2.76945,-0.2776 -3.54127,-0.8876 -4.85047,-2.1781 -4.85047,-4.7812 0,-2.0962 1.2066,-3.6522 3.25747,-4.2006 0.7779,-0.2081 1.29368,-0.5627 1.93313,-1.3292 0.4797,-0.5749 1.64775,-1.8165 2.59582,-2.7591 0.94808,-0.9426 1.72373,-1.8349 1.72373,-1.9827 0,-0.1479 0.29422,-0.6203 0.65377,-1.0498 1.61963,-1.9346 2.84363,-4.5606 3.79178,-8.135 0.4293,-1.6186 0.7254,-1.197 -2.4327,-3.4638 -3.03338,-2.1773 -10.48313,-9.4345 -11.71493,-11.4122 -0.20355,-0.3269 -0.60457,-0.8618 -0.89115,-1.1888 -0.2865,-0.3269 -0.66825,-0.8775 -0.84825,-1.2234 -0.74355,-1.4291 -2.2653,-3.9717 -3.10987,-5.196 -0.49613,-0.7191 -0.90218,-1.3965 -0.90233,-1.5051 0,-0.2762 -1.62232,-2.7339 -2.42467,-3.6743 -0.36653,-0.4295 -0.66645,-0.9169 -0.66645,-1.0831 0,-0.1661 -0.56168,-0.9959 -1.24823,-1.8439 -1.47225,-1.8187 -2.05125,-2.5759 -3.07305,-4.019 -1.1226,-1.5854 -5.46652,-6.1763 -6.74902,-7.1326 -0.6138,-0.4576 -1.557,-1.2267 -2.09603,-1.7089 -1.2594,-1.1268 -3.795,-3.2334 -4.81102,-3.9972 -1.12905,-0.8487 -4.21943,-3.5251 -7.37865,-6.3903 -2.39663,-2.1735 -3.30833,-3.1566 -5.9031,-6.3657 -1.1277,-1.3946 -1.61198,-2.8455 -1.50593,-4.5114 0.17633,-2.7696 2.12858,-4.2962 4.8429,-3.7869 0.96578,0.1812 2.8995,1.825 3.7911,3.2228 0.29198,0.4576 1.0884,1.2601 1.76985,1.7831 0.68145,0.5231 1.6317,1.283 2.11163,1.6886 1.87035,1.581 7.21057,5.0874 7.74795,5.0874 0.0652,0 -0.19808,-0.6687 -0.58478,-1.4859 -0.6354,-1.3433 -0.70297,-1.7186 -0.70312,-3.9075 -2.3e-4,-2.6125 0.19875,-3.4305 1.059,-4.3545 0.4236,-0.4551 0.57697,-0.9435 0.65407,-2.0835 0.1065,-1.5757 0.51503,-2.3615 1.67955,-3.2309 0.77295,-0.5771 2.88885,-0.79031 4.04768,-0.4078 0.76837,0.2536 2.50447,1.8893 3.18502,3.0009 0.26273,0.4291 0.28418,0.4147 0.29715,-0.1988 0.0315,-1.4785 1.26668,-3.17876 2.7042,-3.72191 0.91583,-0.34605 2.1639,-0.31725 3.09405,0.0712 0.74445,0.31103 2.0616,1.62691 2.0616,2.05961 0,0.1141 0.3261,0.6907 0.72465,1.2813 0.75623,1.1206 1.84583,2.0409 2.41613,2.0409 0.1833,0 0.99645,0.224 1.80712,0.4978 1.23773,0.418 1.84523,0.4777 3.7908,0.373 2.84258,-0.153 5.2596,-0.5087 5.57063,-0.8198 0.12802,-0.128 0.32287,-0.9141 0.4329,-1.7468 0.1101,-0.8326 0.35985,-2.0488 0.555,-2.7027 0.19515,-0.65376 0.42682,-1.77718 0.5148,-2.49636 0.2739,-2.24055 1.56285,-6.58132 3.28275,-11.0556 0.7821,-2.03452 2.09685,-4.46482 2.88892,-5.34 0.20085,-0.22192 0.36518,-0.49102 0.36518,-0.59797 0,-0.29385 1.57785,-2.61015 2.0385,-2.99243 0.222,-0.18427 0.64132,-0.71107 0.9318,-1.17067 0.29055,-0.45953 1.27702,-1.638 2.19232,-2.61878 1.65878,-1.77742 2.68223,-3.63307 3.8682,-7.0137 0.22943,-0.65385 0.84165,-1.83075 1.36058,-2.61532 0.51885,-0.78458 1.3563,-2.17545 1.86082,-3.09075 0.5046,-0.91538 1.32443,-2.26575 1.82183,-3.00083 0.4974,-0.73507 0.90435,-1.44622 0.90435,-1.5804 0,-0.24075 1.05982,-1.60087 3.03135,-3.89032 0.55575,-0.64538 1.01047,-1.28355 1.01047,-1.41825 0,-0.1347 0.7884,-1.0725 1.752,-2.0841 0.96353,-1.01153 1.82265,-2.06183 1.90905,-2.33408 0.0863,-0.27217 0.92955,-1.17337 1.87373,-2.0025 0.94417,-0.8292 2.46562,-2.21662 3.381,-3.08317 3.28747,-3.11213 7.25145,-5.7237 10.99905,-7.24635 3.8103,-1.54823 5.71245,-1.80248 14.41972,-1.92758 6.05078,-0.0869 7.3446,-0.0435 8.67293,0.28935 1.2717,0.31898 3.98362,1.58108 7.7529,3.60818 0.26152,0.14062 0.921,0.37425 1.4655,0.51915 0.64845,0.17257 1.22265,0.5499 1.66432,1.0938 0.3708,0.45667 1.1289,1.36807 1.68465,2.02537 0.55575,0.6573 1.01048,1.2984 1.01048,1.42463 0,0.12622 0.4209,1.1658 0.93532,2.31015 1.04648,2.328 1.91775,5.32552 1.91775,6.59797 0,0.46253 0.2001,1.6146 0.44475,2.5602 0.24458,0.94568 0.62655,2.5218 0.84878,3.5025 0.22222,0.98078 0.92437,3.54855 1.56037,5.70615 0.636,2.1576 1.25693,4.45785 1.37985,5.1117 0.24248,1.2897 1.7952,7.33223 2.22855,8.67263 0.25118,0.77677 1.41615,2.62485 2.32643,3.6906 1.58205,1.85212 5.30212,9.16627 6.8322,13.4331 1.10077,3.06967 1.32735,3.79012 2.20545,7.01368 1.0869,3.99 1.51815,8.7515 1.32705,14.6506 l -0.14348,4.4272 0.95618,1.2725 c 0.5259,0.6999 0.95617,1.3644 0.95617,1.4765 0,0.1121 0.3732,0.7661 0.82935,1.4533 0.45615,0.6872 1.14908,1.9546 1.53983,2.8164 0.39075,0.8619 0.8229,1.6365 0.9603,1.7214 0.13732,0.085 1.50397,-0.4325 3.0369,-1.1497 2.6106,-1.2215 8.10862,-3.0354 11.34622,-3.7436 1.68225,-0.3678 7.28235,-2.3652 8.87348,-3.1648 0.6117,-0.3074 1.37962,-0.6407 1.70655,-0.7406 1.01895,-0.3115 7.6359,-3.6561 9.5502,-4.8272 3.46372,-2.1191 5.7882,-3.8233 6.6867,-4.9024 0.49597,-0.5957 1.1379,-1.1454 1.4265,-1.2217 0.2886,-0.076 0.73875,-0.4712 1.00027,-0.8774 0.42105,-0.6541 1.05158,-1.1922 3.1992,-2.7304 0.88238,-0.632 3.7911,-0.5871 4.674,0.072 1.44083,1.0758 2.00813,2.6075 1.65765,4.4757 -0.23107,1.2316 -4.9203,6.769 -8.60025,10.1558 -0.5118,0.4711 -1.18882,1.2046 -1.50442,1.63 -0.3156,0.4254 -1.01108,0.9657 -1.54538,1.2007 -0.53437,0.2349 -2.30895,1.6244 -3.9435,3.0876 -1.63455,1.4634 -3.19905,2.7686 -3.47655,2.9007 -0.28065,0.1335 -0.62512,0.6422 -0.7761,1.1463 -0.1518,0.5065 -0.61087,1.1828 -1.04085,1.5333 -2.13015,1.7366 -2.8599,2.2668 -3.11977,2.2668 -0.47205,0 -2.20448,1.9646 -2.49045,2.8242 -0.15315,0.46 -1.08038,1.6194 -2.17103,2.7145 -1.04707,1.0514 -1.90372,1.9904 -1.90372,2.0868 0,0.096 -0.38768,0.6394 -0.86153,1.2065 -0.9027,1.0805 -2.71275,3.7125 -3.5565,5.1714 -0.27225,0.4709 -0.8307,1.3911 -1.24095,2.0449 -0.41025,0.6539 -1.06162,1.8308 -1.44757,2.6153 -0.38588,0.7846 -1.08795,1.9615 -1.56015,2.6153 -0.47213,0.6538 -1.12185,1.5868 -1.44375,2.0731 -0.75585,1.1421 -6.83738,7.6341 -8.59853,9.1788 l -1.35555,1.189 0.69308,1.0311 c 0.71497,1.0637 4.59502,5.4815 4.9488,5.6345 0.69607,0.3013 4.45642,4.026 4.66312,4.6189 0.32168,0.9227 0.31988,2.8045 0,3.6603 -0.3531,0.9345 -1.35135,1.9202 -2.2425,2.2143 -0.74362,0.2455 -0.75157,0.2646 -0.66802,1.6103 0.0465,0.7491 0.20415,1.916 0.35025,2.5932 0.85117,3.9456 -2.19638,6.4227 -5.84618,4.7518 -1.59765,-0.7315 -4.52287,-3.269 -5.13375,-4.4535 -0.2406,-0.4664 -0.62197,-1.0012 -0.84765,-1.1885 -0.2256,-0.1872 -0.84172,-0.929 -1.3692,-1.6484 -0.5274,-0.7193 -1.9461,-2.331 -3.15262,-3.5814 l -2.19368,-2.2734 -0.14797,0.8469 c -0.0814,0.4659 -0.25605,2.0773 -0.3882,3.5811 -0.13215,1.5039 -0.34658,3.8041 -0.47648,5.1117 -0.12982,1.3077 -0.29235,4.2239 -0.36112,6.4804 -0.0998,3.2718 -0.0615,4.1186 0.1875,4.1807 1.87297,0.4671 4.60972,1.5533 5.66197,2.2473 0.71918,0.4744 2.31375,1.8297 3.54345,3.0117 1.90733,1.8334 2.37233,2.4384 3.1644,4.1165 0.51068,1.082 1.04003,2.6333 1.17623,3.4474 0.31597,1.8882 0.0998,6.255 -0.4086,8.2562 -1.3758,5.4147 -5.7741,10.5275 -10.0908,11.7301 -2.84745,0.7932 -3.34695,0.8709 -5.6025,0.8709 -2.44043,0 -5.25758,-0.6554 -7.3044,-1.6993 -1.16895,-0.5961 -6.02993,-5.2933 -6.60113,-6.3786 -1.96102,-3.7259 -2.83912,-6.473 -2.84685,-8.9067 l -0.007,-1.9169 -1.83937,1.9497 c -1.59705,1.6927 -1.97438,1.9712 -2.8641,2.1135 -0.65543,0.1047 -1.38263,0.4631 -2.01795,0.9943 -0.54638,0.4568 -1.44803,1.0517 -2.00378,1.3219 -1.1709,0.5694 -1.22032,0.8218 -0.56865,2.9063 0.24293,0.7773 0.8991,2.9111 1.45808,4.7418 0.55905,1.8307 1.37662,4.1357 1.81695,5.1223 0.44025,0.9865 0.80047,1.9363 0.80047,2.1106 0,0.2481 0.27075,0.2752 1.24823,0.1248 1.57657,-0.2427 25.36612,-0.2687 26.80672,-0.029 3.63473,0.6038 6.0519,1.1019 7.92038,1.6323 1.3395,0.3802 2.0802,0.4364 4.2795,0.3251 1.46287,-0.074 4.61812,-0.1944 7.01182,-0.2673 4.1079,-0.1249 4.41113,-0.1038 5.4024,0.3761 0.61718,0.2987 1.17548,0.4296 1.3539,0.3172 0.1671,-0.1052 1.48058,-0.2725 2.919,-0.3719 3.89445,-0.269 6.26498,-0.5684 7.73745,-0.9775 0.72503,-0.2013 2.25398,-0.3695 3.39765,-0.3737 1.14375,-0.01 2.19413,-0.079 2.33423,-0.1651 0.14002,-0.087 0.97905,-0.2369 1.8645,-0.3341 1.68562,-0.1851 2.01472,-0.3135 7.01505,-2.7379 1.69987,-0.8242 3.78622,-1.7805 4.63612,-2.1251 4.06515,-1.6482 12.06885,-4.3067 16.1673,-5.3702 1.1115,-0.2885 2.55585,-0.6789 3.20963,-0.8678 0.65385,-0.1888 1.7772,-0.4436 2.49645,-0.5661 0.71917,-0.1226 1.8426,-0.3294 2.49637,-0.4596 2.2698,-0.452 3.81368,-0.7195 5.5872,-0.9682 0.98078,-0.1376 2.42513,-0.3557 3.2097,-0.4846 1.3143,-0.2161 5.38988,-0.5209 11.0946,-0.8299 l 2.29778,-0.1245 0.11565,-1.3517 c 0.414,-4.8385 0.948,-7.7389 1.8906,-10.2675 0.55897,-1.4995 3.12472,-4.3685 4.38675,-4.9052 0.45292,-0.1926 1.61692,-0.3253 2.853,-0.3252 3.16695,2e-4 4.13055,0.5175 9.8622,5.2929 1.52977,1.2745 3.24165,2.8573 3.80407,3.5172 0.56243,0.6599 1.64655,1.62 2.40923,2.1335 l 1.38652,0.9337 0.8859,-0.452 c 0.96788,-0.4937 5.19315,-1.6776 5.98763,-1.6776 0.288,0 1.3707,-0.8028 2.58817,-1.9194 1.15118,-1.0556 2.34638,-2.0918 2.65605,-2.3027 0.30975,-0.2108 1.14135,-0.9057 1.84815,-1.5442 0.7068,-0.6384 1.90718,-1.5834 2.6676,-2.0997 2.47425,-1.6803 12.03068,-11.57 12.98633,-13.4393 0.32685,-0.6394 0.85522,-1.6439 1.17405,-2.2323 4.23765,-7.8201 6.76695,-12.9246 7.9092,-15.9619 0.66735,-1.7746 0.7524,-2.2426 0.62617,-3.4475 -0.15832,-1.5111 -0.5583,-7.357 -0.75907,-11.0933 -0.11033,-2.0542 -0.0645,-2.4536 0.3873,-3.3873 0.68512,-1.4153 2.07082,-2.5541 4.17217,-3.4289 3.1152,-1.2969 6.32708,-0.9023 9.30368,1.143 1.60222,1.1008 5.12527,4.5944 5.86395,5.8147 0.27922,0.4615 1.01662,1.6015 1.63852,2.5333 1.51838,2.275 2.51115,4.2822 3.18045,6.43 0.50115,1.6084 0.55598,2.2348 0.5592,6.3918 0,2.5347 -0.111,5.049 -0.25095,5.5872 -0.72795,2.7993 -1.56285,5.2281 -2.42062,7.0413 -0.52583,1.1115 -1.15793,2.4489 -1.40483,2.972 -0.24682,0.523 -0.96562,1.9674 -1.59727,3.2096 l -1.1484,2.2587 5.84977,0.1675 c 6.83063,0.1957 12.77625,0.6884 16.31093,1.3519 0.65385,0.1227 1.83067,0.3379 2.61532,0.4783 0.78458,0.1404 1.85445,0.3527 2.3775,0.4719 0.52305,0.1191 1.48598,0.3296 2.13975,0.4676 7.19355,1.5189 15.7178,5.3178 20.3057,9.0494 2.5366,2.0632 5.4841,5.1273 6.3825,6.6349 0.5204,0.8732 1.3884,2.7907 1.9291,4.2612 l 0.983,2.6736 v 4.1379 4.138 l -0.858,2.2217 c -1.7858,4.6242 -2.9335,6.3384 -6.9648,10.4029 -2.3498,2.3692 -4.2655,3.8142 -8.4633,6.3842 -3.7641,2.3044 -13.67682,5.9718 -18.18815,6.729 -0.71917,0.1206 -1.78905,0.3299 -2.3775,0.465 -3.03532,0.6965 -8.78872,1.4441 -14.62185,1.8999 -1.43842,0.1125 -3.73867,0.3348 -5.1117,0.4941 -3.19507,0.3708 -22.90387,0.3903 -26.39062,0.026 -2.33138,-0.2434 -3.279,-0.3931 -6.30045,-0.9947 -0.65385,-0.1302 -1.78095,-0.3328 -2.50478,-0.4502 -3.15712,-0.5124 -8.36572,-2.7678 -10.4931,-4.5438 l -0.75052,-0.6266 -1.4472,0.5945 c -0.81705,0.3357 -2.11658,0.6408 -2.98478,0.7009 -1.4073,0.098 -1.65442,0.2011 -2.91757,1.2231 -1.34678,1.0898 -1.96785,1.7998 -5.20853,5.954 -2.43862,3.1262 -5.08627,5.8485 -6.22357,6.399 -1.4028,0.6791 -3.69848,0.669 -5.5488,-0.024 -1.19183,-0.4466 -1.78373,-0.9259 -4.18328,-3.388 -2.57587,-2.6429 -2.94292,-3.1382 -4.67932,-6.3152 -1.03635,-1.8962 -2.25495,-4.3569 -2.7081,-5.4684 -0.45308,-1.1115 -1.04888,-2.5179 -1.32398,-3.1252 -0.57127,-1.2613 -0.0375,-1.2495 -4.54192,-0.1001 -8.82518,2.252 -10.62758,2.6622 -16.2267,3.6928 -0.68648,0.1264 -1.56915,0.2913 -1.9614,0.3665 -3.67418,0.7044 -13.98315,1.5878 -18.66368,1.5993 -3.44655,0.01 -7.7541,-0.2996 -8.22037,-0.5877 -0.13598,-0.084 -1.89945,0.3752 -3.91875,1.0206 -2.0193,0.6454 -3.82463,1.1739 -4.01183,1.1745 -0.1872,0 -1.15012,0.3128 -2.13982,0.6936 -0.98963,0.3809 -2.38785,0.8249 -3.10703,0.9867 -0.71925,0.1617 -1.52167,0.4288 -1.7832,0.5936 -0.72292,0.4554 -5.17582,1.5313 -6.33765,1.5313 -0.40897,0 -1.45065,0.201 -2.31472,0.4466 -0.864,0.2457 -2.4804,0.6856 -3.5919,0.9778 -1.1115,0.2922 -3.41175,1.0155 -5.1117,1.6073 -1.69995,0.5919 -3.62573,1.2177 -4.27958,1.3907 -0.65377,0.173 -2.1594,0.6514 -3.34575,1.0631 -1.73152,0.6009 -2.21317,0.8723 -2.44185,1.3761 -0.1566,0.3452 -0.5418,1.1091 -0.8559,1.6975 -0.31402,0.5885 -0.9138,1.9258 -1.33275,2.972 -0.41895,1.0461 -1.3185,3.0789 -1.99897,4.5173 -0.68048,1.4383 -1.42628,3.2037 -1.65728,3.9229 -0.23092,0.7192 -0.71595,2.0781 -1.07775,3.0198 l -0.65775,1.7121 0.71033,1.2598 c 0.91732,1.6271 1.31227,2.0638 2.20282,2.4359 0.40103,0.1675 0.99165,0.6134 1.31243,0.9908 0.32085,0.3774 0.8508,0.8254 1.17772,0.9958 0.32685,0.1703 0.981,0.5119 1.4535,0.7593 0.94965,0.4971 2.11275,1.751 2.11275,2.2779 0,0.186 0.0832,0.3384 0.18495,0.3384 0.1017,0 1.39823,1.0164 2.88105,2.2586 1.48283,1.2423 2.83575,2.2587 3.00645,2.2587 0.59438,0 1.84508,1.2961 2.39948,2.4866 0.75022,1.6112 0.74685,3.4085 -0.01,5.0329 -0.31215,0.6705 -0.68558,1.292 -0.8298,1.3811 -0.14423,0.089 -0.2622,0.598 -0.2622,1.1307 0,0.8984 0.1683,1.1476 2.3181,3.4327 2.0685,2.1986 3.27795,3.6889 4.50922,5.5563 0.21555,0.3269 0.62633,0.8618 0.91283,1.1887 0.51322,0.5856 0.92602,1.2854 1.64077,2.7817 0.24743,0.518 0.7125,0.9152 1.45733,1.2447 0.60165,0.2661 1.65315,0.9937 2.3367,1.6168 1.42657,1.3004 1.43392,1.3042 5.2809,2.7832 1.58557,0.6096 3.2199,1.357 3.63165,1.6608 0.41182,0.3039 1.41472,0.7952 2.22877,1.092 0.81398,0.2968 2.54985,1.1319 3.85755,1.856 1.30763,0.724 3.3939,1.7965 4.63613,2.3834 3.1977,1.5107 10.3728,5.4158 11.38935,6.1988 0.47025,0.3621 1.30665,0.7853 1.85872,0.9402 0.72525,0.2037 1.28603,0.6116 2.02095,1.4699 0.55943,0.6534 1.7151,1.7092 2.56815,2.3461 0.85313,0.637 3.09165,2.6186 4.9746,4.4037 1.88295,1.785 3.8553,3.5355 4.383,3.8898 0.52778,0.3545 1.23143,1.0445 1.56368,1.5333 0.53392,0.7857 1.50157,1.5733 5.12145,4.1688 0.52305,0.3751 1.39582,0.8084 1.93942,0.9628 0.99735,0.2834 2.45903,1.6388 2.45903,2.2803 0,0.1784 0.42742,0.8934 0.94995,1.5887 1.04775,1.3945 1.30972,2.3102 1.12635,3.9372 -0.1311,1.1632 -0.6468,2.0155 -1.69185,2.7964 -0.6192,0.4627 -1.0209,0.4941 -7.1577,0.5603 l -6.50175,0.07 1.03065,1.5942 c 1.09597,1.6953 1.38885,2.0282 2.79067,3.1719 0.57315,0.4676 0.9924,1.076 1.18095,1.7135 0.35918,1.2147 2.97968,5.6736 5.40158,9.1909 0.22507,0.3269 1.01415,1.6758 1.75357,2.9977 0.73935,1.3218 1.51245,2.5428 1.71795,2.7134 0.2055,0.1706 0.85973,1.2824 1.45373,2.4707 0.594,1.1883 1.2246,2.3226 1.40137,2.5208 0.17678,0.1982 0.67523,1.1076 1.10768,2.0209 0.70185,1.4822 0.7863,1.8821 0.7863,3.7226 0,2.235 -0.25358,2.8341 -1.6368,3.8671 -1.58978,1.1873 -5.99468,0.2069 -14.72738,-3.2776 l -2.09895,-0.8376 0.61388,0.7573 c 0.33765,0.4166 0.78885,1.0783 1.0026,1.4706 0.21382,0.3923 0.6681,1.0475 1.00957,1.4559 0.34148,0.4085 1.2093,1.6204 1.92848,2.6933 0.71925,1.0728 1.94962,2.8014 2.7342,3.841 0.78457,1.0397 1.87522,2.5559 2.42362,3.3695 1.05158,1.5597 1.9911,2.8052 3.46073,4.5874 0.49042,0.5947 0.8916,1.1915 0.8916,1.3264 0,0.2842 0.59527,1.0924 2.2587,3.0669 2.32095,2.755 2.67375,3.2053 3.06307,3.9105 0.2166,0.3923 0.73935,1.1565 1.16175,1.6981 0.7194,0.9227 1.16408,1.5105 3.08985,4.0849 1.88423,2.5189 3.65513,4.407 6.72908,7.1746 1.8156,1.6345 4.2135,3.8278 5.32875,4.8739 1.11525,1.0461 4.05997,3.7209 6.54382,5.9439 2.48385,2.223 5.37203,4.8561 6.41813,5.8514 1.15005,1.0942 2.25487,1.924 2.79465,2.0991 0.61807,0.2005 1.29442,0.7633 2.19922,1.8298 0.71865,0.847 1.30658,1.664 1.30658,1.8154 0,0.3915 11.97225,12.2179 12.55605,12.4032 0.5841,0.1854 2.18467,1.9097 2.18467,2.3535 0,0.3761 1.8765,2.7293 3.26955,4.0999 l 0.9867,0.9709 1.0221,-0.5134 c 0.56213,-0.2824 1.66403,-0.9004 2.4486,-1.3733 4.1739,-2.5161 9.4296,-4.929 10.73633,-4.929 0.29662,0 1.08225,-0.2139 1.74577,-0.4755 0.81818,-0.3225 1.767,-0.4755 2.94848,-0.4755 1.58715,0 1.9335,0.095 3.8952,1.0699 1.18425,0.5885 2.26042,1.0699 2.39152,1.0699 0.4953,0 1.77255,1.3144 2.1801,2.2434 0.2331,0.5314 1.19715,1.8222 2.14238,2.8683 0.94515,1.0462 1.94572,2.2383 2.22345,2.6493 0.27772,0.411 1.16805,1.7203 1.97842,2.9094 0.31993,0.4695 0.64874,0.9764 0.9449,1.4522 m -67.12385,-0.2558 c -0.0543,-0.1116 -0.0844,-0.2126 -0.0844,-0.2977 0,-0.4945 -1.48028,-1.7444 -2.4213,-2.0443 -0.7941,-0.2532 -2.57153,-1.8772 -2.57153,-2.3496 0,-0.2793 -9.12585,-8.6161 -10.81777,-9.8826 -0.78458,-0.5872 -1.7475,-1.3272 -2.13983,-1.6443 -0.39225,-0.3171 -0.9474,-0.6498 -1.23352,-0.7393 -0.59805,-0.187 -1.9761,-1.6709 -1.9761,-2.1278 0,-0.3215 -6.9561,-6.9014 -10.96853,-10.3754 -4.44075,-3.8449 -7.70025,-6.6109 -8.9277,-7.5762 -0.67792,-0.5331 -1.33417,-1.1508 -1.4583,-1.3726 -0.21037,-0.3759 -2.4702,-2.8344 -4.88692,-5.3164 -0.57293,-0.5885 -1.38945,-1.33 -1.81433,-1.6478 -0.42495,-0.318 -0.91777,-0.9253 -1.09515,-1.3498 -0.1773,-0.4245 -0.51937,-0.8344 -0.76012,-0.9107 -0.67373,-0.2139 -1.6656,-1.361 -2.00168,-2.315 -0.29985,-0.8509 -2.45512,-3.2531 -4.08727,-4.5555 -0.52208,-0.4166 -0.95348,-1.0365 -1.12898,-1.6222 -0.16852,-0.5623 -0.57322,-1.1586 -0.99487,-1.4655 -1.34025,-0.9759 -3.2985,-3.1331 -3.71903,-4.097 -0.50047,-1.1471 -1.95885,-2.9294 -5.07285,-6.1996 -1.26142,-1.3246 -2.3751,-2.6212 -2.47477,-2.8812 -0.0996,-0.2601 -1.0638,-1.4034 -2.1426,-2.5407 -1.53165,-1.6147 -1.96148,-1.9552 -1.96148,-1.5537 0,0.7166 -0.68895,3.0368 -1.19805,4.0347 -0.52897,1.037 -1.79782,2.2678 -2.68087,2.6007 -0.36818,0.1389 -1.52708,0.2524 -2.5755,0.2524 -2.13338,0 -3.72623,-0.5635 -6.69998,-2.3701 -1.07497,-0.6531 -1.85235,-0.9585 -2.4396,-0.9585 -0.73747,0 -0.8334,0.06 -0.66442,0.4161 0.20025,0.4222 0.46597,6.974 0.69982,17.2589 0.12023,5.2862 0.0959,5.7676 -0.36097,7.1407 -0.57443,1.726 -1.67753,3.1656 -2.77808,3.6255 -1.00012,0.4179 -3.2049,0.421 -4.19377,0.01 -0.44745,-0.1878 -2.14688,-1.8246 -4.09358,-3.9426 -1.83067,-1.9917 -4.77847,-4.9334 -6.55065,-6.537 l -3.22207,-2.9155 -0.85313,2.0436 c -2.049,4.9083 -2.66497,6.1239 -3.60945,7.123 -1.24732,1.3194 -2.13997,1.6971 -4.00462,1.6944 -3.25313,-0.01 -8.06205,-2.2962 -12.32505,-5.8734 l -2.32695,-1.9525 -0.71595,1.7148 c -0.39383,0.9431 -1.19588,2.6785 -1.78238,3.8564 -0.5865,1.1779 -1.29352,2.7292 -1.57102,3.4475 -0.27758,0.7182 -0.97283,2.3222 -1.545,3.5644 -1.54298,3.3501 -5.12153,13.3652 -5.12153,14.3335 0,0.259 0.10178,0.8578 0.22613,1.3307 0.12435,0.4729 0.44985,1.7624 0.7233,2.8658 0.5418,2.1853 2.21595,6.3663 4.0602,10.14 0.64462,1.3189 1.17202,2.4937 1.17202,2.6106 0,0.117 0.20588,0.7497 0.45758,1.406 0.6216,1.6211 1.49025,4.7385 1.72372,6.1862 0.0701,0.4346 0.18417,1.1237 0.2955,1.7865 m 772.09614,0.4633 123.0102,-0.01 m 0,0 c 11.3139,-8.1552 21.7576,-17.9424 31.3311,-29.3616 20.9955,-24.9578 32.7355,-51.6946 35.2207,-80.2105 2.4853,-28.5158 -5.0959,-48.582 -22.7417,-60.1963 -8.9622,-5.954 -19.4621,-8.9724 -31.5,-9.0571 v 0 c -10.6217,-0.075 -22.4401,2.1351 -35.4565,6.6299 -27.4337,9.4733 -51.2082,26.2828 -71.3218,50.4301 -20.8283,24.9 -32.4767,51.5213 -34.9468,79.8633 -1.4781,16.9598 0.6568,30.9294 6.4048,41.909 m -66.0283,-0.4298 33.5845,2e-4 m -153.3206,-6e-4 L 1134,1392.1 m 10.9432,-0.3748 0.3539,-4.0606 -11.7596,4.0608 m -108.3304,-6e-4 6.2992,-72.2771 34.6267,-11.9571 -6.7512,77.4623 88.8249,-30.6727 6.7511,-77.4623 34.6267,-11.9572 -11.0568,126.8647 M 44.317383,1382.9652 c -0.224987,-9e-4 -0.467101,0.033 -0.726563,0.1011 -1.369956,0.3608 -3.120843,2.3928 -5.252929,6.0967 -0.566872,1.0014 -1.041501,1.9228 -1.425293,2.7641 l 11.516601,-0.091 c -0.157342,-0.457 -0.302472,-0.9279 -0.436523,-1.4135 -0.936143,-3.5549 -1.641474,-5.7267 -2.115234,-6.5142 -0.364684,-0.6262 -0.885099,-0.9405 -1.560059,-0.9434 z m 35.061034,-66.0395 c -1.760152,0.5649 -5.016138,1.8537 -9.769042,3.8657 -2.600386,5.297 -4.138008,10.416 -4.612793,15.356 -0.433245,4.9291 0.04279,11.2905 1.429687,19.0854 -3.560943,2.661 -6.650573,6.1869 -9.268066,10.5762 l -0.149414,10.3022 c 4.033316,-4.4074 7.834188,-7.5868 11.403809,-9.5405 1.574182,11.1147 1.478769,19.5308 -0.28711,25.251 l 11.68799,0.062 c 0.614602,-1.0476 1.18812,-2.1479 1.721189,-3.3003 4.258995,-9.2818 5.251965,-20.2626 2.978025,-32.9429 4.818841,-2.9416 8.140748,-5.1601 9.966803,-6.6547 1.813575,-1.542 2.915078,-2.9221 3.304687,-4.1397 l -2.154787,-12.7368 c -4.158135,3.9333 -8.68776,7.6362 -13.589355,11.1064 -1.893472,-7.8642 -2.9577,-13.3373 -3.191895,-16.4179 -0.234202,-3.0808 -0.05739,-6.3717 0.530272,-9.8716 z m 7.507426,-28.8897 q 1.033094,9.9915 -1.000614,15.1646 -2.052425,5.1022 -10.894871,7.4308 l -19.578291,4.5477 q -8.593373,2.263 -12.937618,7.5125 -4.300681,5.1621 -2.503293,11.9872 1.685081,6.3986 9.427468,8.237 2.622323,0.6019 2.884432,1.5972 0.524258,1.9907 -1.242503,5.649 -1.72318,3.5709 -4.649077,5.8619 -9.099316,-0.4167 -11.664353,-10.1567 -1.797408,-6.8252 0.239074,-18.3092 2.017738,-11.5552 8.284623,-20.1239 6.248137,-8.6399 15.962382,-11.1982 0.809526,-0.2132 9.048416,-1.5465 8.282434,-1.421 9.963745,-1.8637 5.043937,-1.3284 5.484668,-3.9533 z m 26.626097,38.1471 c -3.81927,1.0059 -6.27949,3.8844 -7.38132,8.6347 -1.07277,4.6921 -1.12878,8.8628 -0.16767,12.5124 0.93615,3.5548 3.42701,5.7619 7.47152,6.6228 -1.45455,5.0966 -3.29488,9.9909 -5.52194,14.6828 l 1.68506,6.3985 1.43213,-0.3771 c 4.04791,-8.0604 6.67139,-15.2883 7.87195,-21.6866 3.466,-1.673 6.49826,-3.8161 9.09598,-6.4262 -3.31037,12.8839 -4.08556,22.668 -2.32559,29.351 0.94862,3.6021 2.61875,6.4057 5.01139,8.4112 2.38016,1.9581 4.83678,2.6041 7.36912,1.9372 5.64588,-1.4869 12.14427,-9.433 19.4937,-23.8367 1.83895,4.2414 4.41381,7.5441 7.73319,9.8999 4.5731,3.2052 9.68405,4.0648 15.32994,2.578 5.06468,-1.3338 9.32498,-3.9521 12.78144,-7.8528 3.44397,-3.948 7.02086,-9.5783 10.73288,-16.8913 l -0.002,-0.01 c 1.83914,4.2447 4.4153,7.5497 7.73649,9.9067 4.57309,3.2052 9.68263,4.0652 15.32851,2.5784 5.06469,-1.3338 9.32497,-3.9522 12.78143,-7.8529 3.44399,-3.9479 7.02229,-9.5785 10.73429,-16.8917 l -2.15284,-8.1748 c -3.50039,7.1052 -6.27209,11.8379 -8.31357,14.2001 -2.05395,2.3149 -4.44949,3.8332 -7.1894,4.5548 -7.01584,1.8476 -12.57168,-1.631 -16.66623,-10.4362 16.65593,-10.9245 23.69191,-21.2915 21.10813,-31.1027 -0.97358,-3.6969 -2.92277,-6.3769 -5.84668,-8.0397 -2.92391,-1.6628 -6.31626,-1.9858 -10.17705,-0.9691 -7.43098,1.957 -13.12332,7.8141 -17.07896,17.5735 -3.60505,8.8233 -4.4711,17.7865 -2.61687,26.8874 -3.40339,6.874 -6.10909,11.4824 -8.11039,13.7982 -2.05395,2.3149 -4.4509,3.8336 -7.19082,4.5551 -7.01584,1.8477 -12.57168,-1.631 -16.66623,-10.4361 16.65594,-10.9246 23.6919,-21.2916 21.10813,-31.1028 -0.97359,-3.6969 -2.92135,-6.3773 -5.84526,-8.0401 -2.92391,-1.6628 -6.31627,-1.9857 -10.17705,-0.969 -7.43099,1.957 -13.12474,7.8144 -17.08037,17.5738 -3.60353,8.8196 -4.46958,17.7789 -2.61845,26.8757 -3.2636,6.2673 -5.43069,10.1931 -6.46527,11.7047 -1.07039,1.4983 -2.35378,2.4452 -3.84828,2.8388 -1.36996,0.3608 -2.6264,0.058 -3.76872,-0.9085 -1.10082,-0.9773 -1.91314,-2.4618 -2.43737,-4.4524 -0.5617,-2.1329 -0.85048,-4.6662 -0.86871,-7.6012 -0.0307,-2.9823 0.14537,-8.6295 0.53109,-16.9419 l 0.99936,-19.7251 -5.59298,1.7759 c -2.20199,12.5413 -6.63554,20.1471 -13.30216,22.8151 0.40773,-6.0374 0.2178,-10.5504 -0.56855,-13.5363 -0.99857,-3.7918 -3.11704,-5.261 -6.35513,-4.4083 z m 161.37721,5.9304 q 0.37363,-0.098 0.56087,0.6126 0.18721,0.7109 -0.30151,6.6936 -0.50744,5.9117 -2.02553,8.7443 -1.53679,2.7615 -5.33531,3.7618 -3.6117,0.9512 -7.80991,-0.072 -4.21695,-1.0941 -4.4229,-1.8762 -0.0562,-0.2133 0.22952,-1.657 1.92747,-5.8295 1.53665,-14.3935 -0.26256,-1.7555 0.17334,-1.8703 0.74724,-0.1968 2.01833,0.837 5.35168,3.3802 9.95973,2.1667 1.99266,-0.5248 3.54902,-1.6949 1.61862,-1.1865 1.8677,-1.2521 z m -9.2606,-10.6377 q -5.43396,-5.7154 -7.4373,-13.3226 -1.64763,-6.2564 -0.88747,-17.0242 0.82238,-10.7842 0.58299,-15.7389 -0.23937,-4.9547 -1.68104,-10.429 -1.16084,-4.408 -2.54507,-7.3885 -1.38424,-2.9806 -1.4966,-3.4073 -0.337,-1.2796 5.20953,-6.0095 5.60881,-4.7461 6.60514,-5.0085 1.18315,-0.3116 3.34641,3.6042 2.16324,3.9159 3.54874,9.1769 1.89102,7.1806 1.59648,15.165 -0.31328,7.9132 -3.24069,18.7956 -2.86514,10.866 -3.47274,15.8916 -0.60758,5.0257 0.44092,9.0071 0.0749,0.2844 0.82949,2.1383 0.75461,1.854 0.84822,2.2095 0.1685,0.6398 -2.24701,2.3403 z m 50.60842,-0.2513 q 0.37362,-0.098 0.56086,0.6126 0.18722,0.7109 -0.3015,6.6937 -0.50745,5.9116 -2.02552,8.7442 -1.5368,2.7615 -5.33532,3.7619 -3.61171,0.9511 -7.80992,-0.072 -4.21693,-1.0942 -4.42289,-1.8762 -0.0562,-0.2134 0.22952,-1.6571 1.92747,-5.8294 1.53664,-14.3934 -0.26255,-1.7556 0.17335,-1.8703 0.74725,-0.1968 2.01833,0.8369 5.35169,3.3803 9.95972,2.1667 1.99267,-0.5247 3.54903,-1.6948 1.61862,-1.1866 1.8677,-1.2522 z m -9.26061,-10.6376 q -5.43394,-5.7155 -7.43728,-13.3227 -1.64763,-6.2564 -0.88748,-17.0241 0.82238,-10.7843 0.583,-15.7389 -0.23939,-4.9547 -1.68106,-10.4291 -1.16084,-4.408 -2.54506,-7.3885 -1.38424,-2.9805 -1.4966,-3.4072 -0.337,-1.2797 5.20952,-6.0095 5.60882,-4.7462 6.60515,-5.0086 1.18315,-0.3115 3.3464,3.6043 2.16325,3.9158 3.54875,9.1769 1.89102,7.1806 1.59648,15.165 -0.31328,7.9132 -3.24069,18.7955 -2.86514,10.866 -3.47274,15.8916 -0.60757,5.0258 0.44092,9.0071 0.0749,0.2844 0.8295,2.1384 0.7546,1.854 0.84821,2.2094 0.1685,0.6399 -2.24702,2.3404 z m 499.43594,-718.31046 -3.3771,1.54785 m -31.96988,-7.0446 c -6.55327,1.764 -12.8856,4.3422 -18.99615,7.73438 -0.9741,12.55132 -1.37242,20.4216 -1.19527,23.6103 0.5313,1.49257 5.26905,4.88437 14.2134,10.1763 l 2.39205,0.30615 c 2.83387,-0.27143 6.4647,-1.2888 10.89255,-3.05273 5.3136,-2.10322 7.74795,-4.0035 7.30522,-5.6997 -0.26572,-9.36255 -0.48652,-15.23137 -0.6636,-17.60595 -0.35422,-4.68127 -1.50577,-7.73347 -3.45412,-9.15825 l -1.062,-1.3227 z m 31.63103,-16.2816 c -5.75633,3.52793 -10.89368,6.47895 -15.41018,8.85345 l 6.90818,-0.20355 -0.26513,33.99023 c 0,1.08547 -0.17752,1.76325 -0.53175,2.03467 -0.4428,0.4749 -1.81515,1.08623 -4.11765,1.83248 0.79703,0 1.99185,-0.0345 3.5859,-0.10253 1.68263,-0.0682 2.92223,-0.1011 3.71925,-0.1011 1.23983,0 3.09998,0.033 5.57963,0.1011 2.56815,0.0675 4.47157,0.10253 5.7114,0.10253 -2.56815,-0.4749 -3.94058,-1.79723 -4.11765,-3.96825 -0.79703,-9.83745 -1.01783,-19.812 -0.6636,-29.92088 0.79702,-0.81412 1.46085,-1.2549 1.99222,-1.32277 0.61988,-0.13568 1.50593,0.7473 2.65718,2.64697 0.8856,1.49258 1.50465,2.74695 1.85887,3.76463 -0.26565,1.15335 -1.32772,2.40922 -3.1875,3.76612 v 0.40575 l 12.22125,-5.49457 c 0.88553,-0.20355 1.32863,-0.64433 1.32863,-1.32278 0,-0.61057 -0.35505,-1.2219 -1.0635,-1.83255 l -6.24315,-8.34517 c -0.17715,-0.20355 -0.48743,-0.30473 -0.93023,-0.30473 -1.4169,0 -4.42717,1.5261 -9.03217,4.57913 z m -62.20605,-2.34082 c -7.61606,8.00565 -15.23118,13.63597 -22.8472,16.89255 h 11.15771 l -0.66358,43.0488 c 0.26568,1.69612 2.52411,3.15427 6.77491,4.3755 l 10.89258,3.05272 c -4.25077,-2.7816 -6.3765,-4.7832 -6.3765,-6.00435 0,-0.27142 0.088,-0.54307 0.2652,-0.8145 l 1.19528,-43.25092 h 7.43992 l -1.19677,-4.3755 h -6.90675 z m -153.67745,-1.8327 c 2.92243,1.01767 4.56179,2.71432 4.91602,5.0889 l 0.66357,59.94142 c 0,2.91735 -2.43446,4.95203 -7.30517,6.10545 l 30.1538,0.20363 c -0.0886,0 -0.22133,-0.033 -0.39844,-0.1011 l 1.06202,0.1011 3.98583,-0.50835 c 3.98513,-2.51025 7.83671,-5.0205 11.55616,-7.53075 6.73044,-4.5456 10.49399,-8.14253 11.29101,-10.78853 0.26568,-4.68127 0.39844,-8.20897 0.39844,-10.58355 0,-8.6841 -0.35354,-17.94465 -1.06201,-27.78217 -10.36132,-6.03818 -21.12093,-10.6512 -32.27929,-13.8399 h -1.32862 c 0.17711,-0.13568 0.35463,-0.23828 0.53174,-0.30615 z m 83.06836,20.45512 c -6.55331,1.764 -12.88556,4.3422 -18.99609,7.73438 -0.97415,12.55132 -1.37243,20.4216 -1.19531,23.6103 0.53135,1.49257 5.26898,4.88437 14.21337,10.1763 l 2.39063,0.30615 c 2.83387,-0.27143 6.46466,-1.2888 10.89257,-3.05273 5.3135,-2.10322 7.74944,-4.0035 7.30664,-5.6997 -0.26567,-9.36255 -0.48792,-15.23137 -0.66504,-17.60595 -0.35423,-4.68127 -1.50434,-7.73347 -3.45263,-9.15825 l -1.06348,-1.3227 z m 36.81071,0.2037 c -1.32837,0 -2.25771,0.0683 -2.78906,0.20363 l -14.87842,8.95605 c -1.23982,5.22405 -1.86035,10.21132 -1.86035,14.96047 0,3.32438 0.355,6.2754 1.06348,8.85353 l 13.4165,8.95455 6.77491,-0.10103 11.95458,-9.26077 -5.84472,-5.6997 -0.53174,4.07077 c -0.0886,0.67845 -0.13183,1.05135 -0.13183,1.11915 -0.26568,1.08555 -1.37252,2.37465 -3.32081,3.86723 l -4.11767,3.15525 c -2.30252,-0.9498 -3.80912,-2.0019 -4.51758,-3.15525 l -1.32861,-20.14898 1.86034,-11.60152 c 0.35424,-0.4749 0.70779,-0.7134 1.06202,-0.7134 4.2508,2.98515 6.95226,5.05462 8.10352,6.20805 0.26567,1.8318 -0.44289,3.86805 -2.1255,6.10687 l 12.2212,-6.3105 -1.72705,-3.7647 -10.75928,-5.39355 c -0.44279,-0.20347 -1.2841,-0.30615 -2.52393,-0.30615 z m 432.32228,26.75646 3.5178,-1.68855 m 7.1764,-7.73918 -3.94,0.4221 m -81.1914,-10.27207 -3.7992,2.8143 m -40.8068,-1.54785 1.8293,4.50285 m 78.466,-35.0826 c 2.1514,2.06287 3.0615,3.804 2.7305,5.22217 l -0.2475,19.82228 -7.0752,-7.7358 -15.1421,6.67237 2.4814,29.2983 10.4268,5.8989 9.4321,-3.86865 v 4.25543 l 13.0327,-0.48345 c -1.3239,-0.90248 -2.1922,-2.03145 -2.6059,-3.3852 l -1.1177,-50.95755 c 0,-1.48268 0.828,-3.0627 2.4829,-4.7388 z m 16.7,4.35255 c 1.9031,0.83797 3.0624,2.25555 3.476,4.25385 0.073,0.40087 0.1348,0.6966 0.1919,0.94485 -0.046,0.41505 -0.067,1.2906 -0.067,2.63377 0,1.5471 0.5371,3.41573 1.6128,5.60745 1.0757,2.19173 1.4889,4.41615 1.2408,6.67238 h 6.2065 c 0.083,-1.35375 0.7854,-3.2238 2.1094,-5.60888 1.2412,-2.1918 1.8215,-4.54357 1.7387,-7.05765 -0.042,-0.78435 -0.064,-1.3917 -0.063,-1.82812 -0.02,-0.13245 -0.041,-0.22073 -0.062,-0.39698 -0.4137,-2.38515 0.662,-4.12485 3.227,-5.22067 z m -244.85049,4.25385 -11.79052,0.2901 c 5.13015,0.90247 7.69477,2.51475 7.69477,4.8354 0,1.35375 -0.082,3.35115 -0.24757,5.99415 -0.16553,2.643 -0.249,4.6419 -0.249,5.99565 l 0.37207,21.9492 c 0.0828,6.70417 0.37365,10.21867 0.87015,10.54102 l 13.15575,13.92323 c 0.33098,0.32235 0.82778,0.48337 1.48973,0.48337 1.07572,0 4.26097,-1.61077 9.55665,-4.8339 0.82747,-0.5157 2.1105,-1.96687 3.84817,-4.35202 1.73768,-2.38515 3.22658,-3.96375 4.46775,-4.7373 0,0.38677 0.042,0.22567 0.1245,-0.48338 l 11.79053,12.47303 c 0.57915,0.32235 1.7787,0.7089 3.5991,1.16017 0.24825,0 0.57945,-0.0967 0.99315,-0.29002 l 20.48002,-21.36908 -0.37207,-31.1367 c 0,-1.86945 0.53707,-3.12592 1.6128,-3.77055 0.33097,-0.25785 1.98555,-0.90217 4.96432,-1.93357 -1.24117,0 -3.06127,0.0645 -5.4609,0.19335 -2.3169,0.0645 -4.0953,0.0967 -5.33647,0.0967 -1.82033,0 -4.51028,-0.0323 -8.06835,-0.0967 -3.558,-0.12893 -6.24645,-0.19335 -8.06685,-0.19335 3.80625,0.70912 5.91577,2.67427 6.32955,5.89747 0.66195,5.286 0.9096,10.63688 0.74415,16.05173 -0.24825,8.76697 -0.28853,14.21452 -0.123,16.34182 -6.28868,6.51075 -10.0125,9.86273 -11.17095,10.05615 -0.49643,-0.45127 -1.19918,-1.74135 -2.10938,-3.86865 -0.0827,-0.25785 -0.66307,-0.7089 -1.73872,-1.35352 -1.07573,-0.70913 -1.6128,-1.28903 -1.6128,-1.74023 -0.9102,-10.443 -1.36523,-21.01447 -1.36523,-31.71532 0,-0.32235 -0.37297,-0.83783 -1.11772,-1.54688 -0.74468,-0.70912 -1.11623,-1.16017 -1.11623,-1.35352 0,-0.38678 0.28943,-0.77483 0.86865,-1.1616 v -0.58013 l -7.3227,6.5757 c -1.15845,0.32235 -1.77907,0.99885 -1.86187,2.03025 l 0.61965,23.30423 c -3.47528,3.80332 -6.16373,7.02645 -8.06685,9.66945 -0.4965,0.0645 -0.9933,0.0967 -1.4898,0.0967 -1.7376,0 -3.06098,-0.74242 -3.97118,-2.2251 -0.4137,-0.70912 -0.70455,-5.60752 -0.87007,-14.69677 l -0.12308,-14.89163 c -0.0828,-8.96032 -0.16627,-13.7943 -0.249,-14.50342 0.24818,-2.1273 1.9863,-3.51405 5.21333,-4.15868 z m 188.90179,0.19342 c -5.3784,3.35205 -10.1779,6.15638 -14.3979,8.4126 l 6.4541,-0.19342 -0.2476,32.29687 c 0,1.03148 -0.1656,1.6758 -0.4966,1.93365 -0.4137,0.4512 -1.6967,1.0311 -3.8481,1.74023 0.7448,0 1.8621,-0.0322 3.3516,-0.0967 1.5721,-0.0645 2.7299,-0.0967 3.4746,-0.0967 1.1584,0 2.8965,0.0322 5.2134,0.0967 2.3996,0.0645 4.178,0.0967 5.3364,0.0967 -2.3996,-0.45128 -3.6812,-1.70768 -3.8467,-3.77055 -0.7447,-9.3471 -0.9521,-18.8232 -0.6211,-28.42823 0.7447,-0.77355 1.3654,-1.19377 1.8618,-1.25827 0.5792,-0.12893 1.4072,0.71017 2.483,2.51512 0.8274,1.41818 1.4063,2.61023 1.7373,3.57713 -0.2483,1.0959 -1.242,2.28795 -2.9796,3.5772 v 0.3882 l 11.42,-5.22218 c 0.8275,-0.19342 1.2407,-0.61222 1.2407,-1.25685 0,-0.5802 -0.3312,-1.1601 -0.9931,-1.74022 l -5.8331,-7.92923 c -0.1654,-0.19335 -0.4549,-0.29002 -0.8686,-0.29002 -1.3239,0 -4.1378,1.44975 -8.4405,4.3506 z m -33.7968,6.09225 c -7.2816,3.35205 -11.3367,5.44763 -12.1641,6.28568 -0.4137,0.38677 -0.6196,0.87 -0.6196,1.4502 0,1.5471 0.6609,2.99685 1.9849,4.35052 l 3.7236,3.86865 2.6074,-0.0967 -1.1177,-3.19185 c 0,-1.16033 1.5307,-2.48123 4.5923,-3.9639 1.8204,-0.90248 2.9378,-1.45013 3.3515,-1.64355 l 1.8619,-0.7734 v 28.33147 c -0.4965,1.28933 -1.4065,1.86923 -2.7305,1.7403 -2.3996,-2.51407 -3.6006,-5.93047 -3.6006,-10.24957 0,-0.90248 0.084,-1.806 0.2491,-2.70848 -0.083,-1.35367 1.2823,-3.2223 4.0956,-5.60737 l -8.1914,2.90032 c -3.7235,1.28933 -6.2896,3.03045 -7.6963,5.22218 3.1443,11.73232 6.537,17.33947 10.1778,16.82377 l 7.9438,-3.86722 v 3.48045 c -0.2482,0.77362 0.041,1.16167 0.8687,1.16167 0.9102,0 2.4006,-0.5814 4.4692,-1.74172 l 8.9356,-7.83105 -4.5923,-0.19335 0.4965,-22.04738 c 0.4138,-1.67602 -1.572,-3.8682 -5.9574,-6.5757 -3.0617,-1.86937 -5.9575,-3.5769 -8.688,-5.124 z m -17.3453,0.77348 -31.77389,1.93357 -5.58547,12.66795 c 3.3099,-3.54547 6.9084,-5.22217 10.79737,-5.02882 l 12.53618,-2.12693 c -1.40663,4.89915 -9.47355,14.85848 -24.2022,29.87843 l 33.38681,-0.38678 5.5854,-12.37642 c -3.4753,3.22312 -7.2395,5.0595 -11.29399,5.51077 l -13.40475,1.54688 c 5.13015,-4.12568 9.34943,-8.41193 12.65918,-12.85988 2.97886,-3.99675 6.74446,-10.24965 11.29536,-18.75877 z m 140.0117,8.17372 c -1.6549,0 -5.0893,1.54785 -10.3023,4.64205 -4.6337,2.77193 -7.2818,4.3506 -7.9438,4.73738 l -1.1162,0.96675 c -0.331,0.12892 -0.4966,0.35445 -0.4966,0.6768 0,0.5157 3.1852,3.6744 9.5566,9.47602 6.4542,5.7372 9.6812,9.02483 9.6812,9.8628 0,0.38678 -0.1656,0.67673 -0.4966,0.87015 l 0.6211,-0.0967 c -1.5722,1.5471 -2.3584,2.67615 -2.3584,3.3852 -0.9102,0.19342 -2.3588,-0.2898 -4.3447,-1.4502 -1.9859,-1.22475 -3.1034,-2.22495 -3.3516,-2.9985 0.083,-0.32235 7e-4,-0.90225 -0.2475,-1.74023 -0.1655,-0.90247 -0.2476,-1.48237 -0.2476,-1.74022 0,-0.77355 0.3297,-1.41788 0.9917,-1.93358 l -5.461,0.96675 -2.4814,1.16018 c -1.2412,0.58012 -1.8618,1.2567 -1.8618,2.03025 0,0.70912 0.5371,1.9992 1.6128,3.86865 l 8.3159,7.92772 c 0.083,0.12893 0.2483,0.19335 0.4966,0.19335 1.6549,0 5.0893,-1.54635 10.3022,-4.64062 4.6337,-2.77185 7.2804,-4.35195 7.9424,-4.73873 v -0.48337 l 0.7456,-0.0967 c 0.4137,-0.25792 0.6197,-0.6123 0.6197,-1.0635 0,-1.16032 -2.15,-3.54585 -6.4527,-7.15575 -6.1231,-5.15707 -10.4676,-9.02452 -13.0327,-11.60302 -0.331,-0.32235 -0.4966,-0.70898 -0.4966,-1.16018 0,-0.77355 0.4551,-1.57897 1.3652,-2.41702 0.9103,-0.83798 1.8203,-1.25685 2.7306,-1.25685 1.0755,0 2.2333,0.35445 3.4746,1.0635 1.3239,0.64462 2.1101,1.35337 2.3583,2.127 -0.083,0.38677 -0.041,1.0311 0.1245,1.93357 0.2483,0.90248 0.3721,1.51455 0.3721,1.8369 0,0.83805 -0.3312,1.51605 -0.9931,2.03175 v 0.3867 l 8.937,-1.54687 c 1.2412,-0.58013 1.8618,-1.2582 1.8618,-2.03175 0,-0.70905 -0.5386,-1.99778 -1.6143,-3.86715 l -8.3145,-7.92923 c -0.083,-0.12892 -0.2483,-0.19335 -0.4965,-0.19335 z m -200.68526,33.0564 4.4043,-7.80772 -4.42748,28.98615 3.36915,-5.89425 -1.88107,26.40088 12.23887,-46.53463 -3.33727,3.04665 6.9228,-27.87458 -4.45635,2.91353 6.4854,-28.66725 -11.6784,1.57267 z M 54.342778,609.64999 q 0,-2.83463 3.634568,-4.6614 3.457275,-1.66935 7.97835,-1.66935 h 44.501254 q 3.10267,0 4.52107,0.126 1.28543,0.2835 2.74808,1.16535 1.4184,1.03942 2.34922,2.3307 0.70913,1.41735 0.70913,4.25197 v 44.37794 q 0,1.95278 -0.53183,3.37013 -0.5319,1.41727 -2.17192,2.58262 -1.81725,1.25986 -4.3437,1.79528 -2.74815,0.62993 -6.38272,0.62993 H 82.133946 q -4.521075,0 -5.097218,0.12599 -1.063807,0.2835 -2.703825,1.29136 -2.748082,1.82677 -2.748082,4.6614 v 22.83465 q 0,2.17328 0.1773,2.5827 0,0.25193 1.285432,1.16535 1.28535,0.88193 2.925368,1.00785 1.63995,0.2835 5.052908,0.2835 h 29.076591 q 3.9891,0 6.87023,1.79526 2.92537,1.79528 2.92537,4.7559 0,2.58268 -2.52652,4.28347 -2.74808,1.79528 -6.55995,1.79528 l -44.456929,0.12598 q -1.994625,0 -2.925375,0 -3.102675,0 -4.521075,-0.37795 -1.46265,-0.25197 -2.748075,-1.16535 -1.2411,-0.91339 -1.640017,-2.33071 -0.531833,-1.29134 -0.531833,-3.46457 v -43.49609 q 0,-2.4567 0.531833,-3.87398 0.398917,-1.29134 1.994617,-2.7087 3.102675,-2.17319 9.0864,-2.17319 h 29.608425 q 1.640033,0 3.457283,0 1.817316,-0.25201 3.058346,-1.29135 1.10813,-0.91343 1.10813,-3.49606 v -24.62991 q 0,-2.4567 -1.10813,-3.62205 -1.06373,-1.03935 -2.526454,-1.29135 -1.462725,-0.25193 -3.279975,-0.25193 H 65.423796 q -4.698375,0 -7.800975,-1.79535 -3.279975,-1.8267 -3.280043,-5.03932 z m 81.939452,0.50392 q 2.73157,-2.5827 6.6384,-4.25197 4.66905,-2.0472 9.36997,-2.0472 h 37.98796 q 4.54205,0 8.57589,1.54327 4.03385,1.66928 7.01953,4.25198 6.51132,5.66925 6.51132,14.70862 v 61.92128 q 0,5.29132 -1.17521,9.6693 -1.30227,4.37796 -3.77975,7.08661 -3.36683,3.62205 -7.40067,5.70079 -4.95496,2.58268 -10.29106,2.58268 h -36.14579 q -5.71725,0 -10.54515,-2.07874 -4.82789,-1.92126 -7.94062,-5.41732 -5.46315,-6.20475 -5.46315,-14.83462 v -65.0079 q 0,-3.99998 2.47748,-8.40945 1.81042,-3.21263 4.16085,-5.41733 z m 93.69952,104.32942 q 0,-1.4414 -0.66702,-2.17969 -0.63525,-0.70312 -1.81047,-0.98437 l -3.9068,-1.30078 -1.81046,-0.59766 q -0.667,-0.42187 -0.92111,-1.30078 -0.2541,-0.70312 -0.2541,-3.30468 v -15.11721 q 0,-1.8633 0.38115,-2.88277 0.2541,-0.98438 1.17521,-1.8633 0.92112,-0.70313 1.93751,-1.01955 1.04816,-0.28125 2.09633,-0.28125 h 12.60972 q 1.17522,0 2.47749,0 1.17521,0.14062 2.60453,1.3008 1.42931,1.3008 1.42931,4.74607 v 19.8633 q 0,9.66797 -5.46316,16.41797 -5.5902,6.92578 -13.14969,6.92578 -2.73158,0 -4.03384,-1.01953 -1.30226,-0.98438 -1.30226,-2.74219 0,-1.72266 1.96927,-3.44531 1.81046,-1.58204 3.6527,-3.02344 1.68342,-1.44141 2.31867,-2.88281 0.66702,-1.30079 0.66702,-5.3086 z m 29.03096,-104.32942 q 2.73157,-2.5827 6.63837,-4.25197 4.66909,-2.0472 9.36995,-2.0472 h 37.988 q 4.54204,0 8.57589,1.54327 4.03384,1.66928 7.01952,4.25198 6.51132,5.66925 6.51132,14.70862 v 61.92128 q 0,5.29132 -1.17522,9.6693 -1.30227,4.37796 -3.77974,7.08661 -3.36683,3.62205 -7.40067,5.70079 -4.95496,2.58268 -10.29107,2.58268 h -36.14577 q -5.71725,0 -10.54516,-2.07874 -4.8279,-1.92126 -7.94063,-5.41732 -5.46316,-6.20475 -5.46316,-14.83462 v -65.0079 q 0,-3.99998 2.47748,-8.40945 1.81046,-3.21263 4.16089,-5.41733 z m 91.222,0 q 2.73158,-2.5827 6.63837,-4.25197 4.6691,-2.0472 9.36995,-2.0472 h 37.988 q 4.54208,0 8.57588,1.54327 4.03387,1.66928 7.01955,4.25198 6.51135,5.66925 6.51135,14.70862 v 61.92128 q 0,5.29132 -1.17525,9.6693 -1.30223,4.37796 -3.77978,7.08661 -3.36682,3.62205 -7.40062,5.70079 -4.95495,2.58268 -10.29108,2.58268 h -36.14577 q -5.71725,0 -10.54516,-2.07874 -4.82791,-1.92126 -7.94063,-5.41732 -5.46316,-6.20475 -5.46316,-14.83462 v -65.0079 q 0,-3.99998 2.47747,-8.40945 1.81047,-3.21263 4.16088,-5.41733 z m 91.22205,0 q 2.73157,-2.5827 6.63832,-4.25197 4.66913,-2.0472 9.36998,-2.0472 h 37.98802 q 4.542,0 8.57588,1.54327 4.0338,1.66928 7.01955,4.25198 6.51127,5.66925 6.51127,14.70862 v 61.92128 q 0,5.29132 -1.17525,9.6693 -1.30222,4.37796 -3.7797,7.08661 -3.36682,3.62205 -7.4007,5.70079 -4.95495,2.58268 -10.29105,2.58268 h -36.1458 q -5.71725,0 -10.54515,-2.07874 -4.8279,-1.92126 -7.94062,-5.41732 -5.46315,-6.20475 -5.46315,-14.83462 v -65.0079 q 0,-3.99998 2.47747,-8.40945 1.8105,-3.21263 4.16093,-5.41733 z M 127.97208,848.49294 q 0,2.82968 -2.59208,5.12039 -2.592,2.15598 -5.328,1.88645 H 62.019996 q -1.152,0.1348 -3.168,-0.13472 -1.871993,-0.40425 -3.168,-1.34748 -1.151993,-1.07796 -1.584,-2.42543 -0.288,-1.48221 -0.288,-3.63819 v -93.51463 q 0,-2.82969 2.16,-4.71622 2.304,-2.02118 5.472007,-2.02118 3.023993,0 5.327993,2.02118 2.448,1.88653 2.448,4.71622 v 34.22582 h 6.624 q 2.16,0 3.744007,0.40425 1.727993,0.26945 2.735993,1.21267 1.008,0.94324 1.152,2.29071 0.288007,1.21275 0.288007,3.77291 v 44.87086 H 120.196 q 3.168,0 5.472,2.02126 2.30408,2.02118 2.30408,5.25513 z m 77.95572,0 q 0,3.09921 -2.16,5.25519 -2.016,2.02118 -5.04,1.75165 h -55.58397 q -1.152,0.40426 -3.168,0 -1.872,-0.40424 -3.168,-1.4822 -1.152,-1.07796 -1.584,-2.42543 -0.288,-1.48221 -0.288,-3.63819 v -92.43667 q 0,-3.90765 1.728,-6.06363 0.864,-0.94323 2.73592,-1.34748 1.87208,-0.40425 3.60008,-0.40425 h 55.72797 q 3.168,0 5.184,2.15598 2.016,2.15591 2.016,5.38985 0,2.82976 -2.16,4.98567 -2.016,2.02125 -5.04,2.02125 h -48.52798 v 26.41047 h 48.52797 q 3.168,0 5.184,2.15591 2.016,2.15598 2.016,5.38992 0,2.82968 -2.16,4.98566 -2.016,2.02118 -5.04,2.02118 h -33.84 v 37.99874 h 33.264 q 3.168,0 5.472,2.02126 2.304,2.02118 2.30401,5.25512 z m 88.22925,0.26952 q 0,1.88646 -0.43199,2.96441 -0.288,1.07803 -1.58402,2.15598 -1.15198,1.07796 -2.59199,1.34748 -1.44,0.26945 -4.03201,0.26945 h -55.87199 q -1.43999,0.26953 -3.31199,-0.13472 -1.87201,-0.40425 -3.02401,-1.34748 -1.15201,-1.07796 -1.58399,-2.42543 -0.288,-1.48221 -0.288,-3.63819 v -92.43667 q 0,-3.90765 1.72799,-6.06363 0.86399,-0.94323 2.736,-1.34748 1.872,-0.40425 3.59999,-0.40425 h 56.59201 q 1.584,0 3.31201,0.26952 1.728,0.13473 2.87998,1.34748 1.29602,1.07796 1.584,2.56016 0.288,1.34749 0.288,3.50347 z m 72.49952,-61.57951 q 0,2.1559 -1.872,3.77291 -1.872,1.61693 -4.32001,1.61693 -2.59199,0 -4.46399,-1.48221 -1.728,-1.617 -1.728,-3.90763 v -5.52465 h -33.984 v 20.48157 h 39.88799 q 2.016,0 3.168,0.26946 1.15201,0.13479 2.16,1.07802 1.00801,0.94323 1.00801,3.36867 0,0.94323 0,1.34748 v 41.36746 q 0,1.88646 -0.144,2.56016 -0.288,1.07795 -1.15201,2.02119 -0.71999,0.94323 -2.15999,1.21275 -1.44001,0.26952 -2.88001,0.13472 h -45.21599 q -1.152,0.1348 -2.73601,-0.13472 -1.584,-0.26952 -2.44799,-1.07796 -1.728,-1.617 -1.728,-4.85094 v -21.02055 q 0,-2.15598 1.872,-3.77291 1.872,-1.617 4.31999,-1.617 2.59201,0 4.32001,1.4822 1.72799,1.48228 1.72799,3.90771 v 14.82221 h 22.032 v -30.18339 h -27.936 q -2.016,0 -3.168,-0.13479 -1.152,-0.26945 -2.16,-1.21268 -1.008,-0.94323 -1.008,-3.23394 0,-0.94323 0,-1.48228 V 775.5946 q 0,-1.75165 0.144,-2.69488 0.288,-1.07803 1.008,-1.88646 0.72,-0.94323 2.16,-1.34748 1.584,-0.40425 3.024,-0.40425 h 45.36 q 1.584,0 2.88,0.40425 1.44,0.26945 2.16,0.94323 1.872,1.75165 1.872,4.85087 z m 852.63833,-121.3578 -2.8895,8.53727 m -35.934,17.18674 -2.8895,8.53726 m 135.9395,-30.34011 6.0417,-16.68047 m -236.8043,95.7212 q -1.7505,7.0829 -11.0292,14.1486 -8.3099,6.24574 -16.6237,8.37435 -4.6339,1.18643 -7.604,-0.22656 -3.2884,-1.67465 -2.2924,-5.70458 1.479,-5.98384 8.4407,-12.45632 6.1293,-5.68741 13.5329,-9.29885 l 17.0532,-68.99731 -37.5425,73.9001 -4.9659,2.52976 -6.5294,-51.06263 -13.5072,54.13366 q -1.7506,7.08292 -11.0293,14.14862 -8.3098,6.2457 -16.62358,8.37431 -4.63395,1.18647 -7.60395,-0.22653 -3.28845,-1.67468 -2.29237,-5.7046 1.7808,-7.20502 11.18017,-14.7592 8.79373,-7.17036 16.97113,-9.26407 3.2711,-0.83749 5.7856,-0.68056 l 14.367,-58.12871 19.9998,-10.15388 5.8805,37.15864 27.73,-54.34349 21.1806,-10.79935 z m 83.3929,-42.51393 q -1.4186,5.7396 -8.79,11.28748 -6.5997,5.00706 -13.2779,6.71692 -7.3596,1.88433 -7.7732,-3.15738 -0.1985,-1.77942 2.0048,-10.69412 -5.5375,6.90857 -13.3178,12.56115 -8.3859,6.03638 -15.6093,7.88582 -10.2218,2.61714 -7.3243,-9.1063 l 8.8436,-35.7809 17.3042,-9.5781 -9.7189,39.32236 q -0.4527,1.83179 0.4273,3.43674 0.88,1.60496 2.788,1.11641 0.4089,-0.10466 1.4233,-0.59319 9.5083,-4.3791 14.9213,-14.91633 2.7971,-5.63496 5.6343,-17.11416 1.1917,-5.33835 2.5197,-10.71159 l 17.3043,-9.5781 -8.4512,34.19337 q 1.8623,-0.82001 3.4977,-1.23874 9.6767,-2.47755 7.5941,5.94866 z m 55.0111,-23.57926 q -2.5354,10.25799 -16.0829,20.13257 -11.9431,8.54864 -24.073,11.65431 -5.0428,1.29112 -8.1335,0.3666 -3.6516,-1.23852 -2.5951,-5.51268 1.1771,-4.76264 6.8683,-9.19396 5.0555,-3.92539 10.6434,-5.3561 3.2709,-0.83746 5.029,0.31386 1.8945,1.11645 1.17,4.04731 -1.0865,4.39629 -5.6271,8.30421 l 2.6957,-0.57579 q 5.6939,-1.34345 11.8544,-6.12372 6.1906,-4.90237 7.4281,-9.90927 1.0564,-4.27415 -8.6202,-1.79659 -1.9081,0.48854 -4.9668,1.50047 -2.8922,0.8549 -3.4375,0.9945 -8.3137,2.12861 -11.6926,0.8203 -4.0458,-1.70953 -2.2952,-8.79245 2.4749,-10.01376 14.5992,-19.29513 10.8528,-8.26951 22.4375,-11.23555 11.0394,-2.82655 9.4398,3.64581 -1.147,4.64048 -7.2771,9.29864 -5.5248,4.2743 -10.8402,5.63522 -2.9983,0.76769 -5.0593,-0.19174 -2.0306,-1.08155 -1.3968,-3.64605 0.7245,-2.93086 2.4943,-5.44306 -4.4966,2.18081 -8.4014,5.5828 -4.4041,3.87302 -5.2795,7.41447 -1.147,4.64054 8.6659,2.1281 2.0444,-0.52344 5.3455,-1.48303 3.3314,-1.08174 4.1491,-1.2911 7.9049,-2.02394 10.9811,-0.52371 3.6671,1.69208 1.9769,8.53076 z m 21.9313,14.40326 -17.2292,8.75816 10.6847,-43.23015 17.2293,-8.75817 z m 21.0132,-61.775 q -1.1168,4.51839 -7.0806,9.01953 -5.328,3.99514 -10.6434,5.35603 -2.9984,0.76774 -5.0592,-0.19169 -1.9246,-0.99431 -1.2908,-3.55882 1.1469,-4.64056 6.8986,-9.31614 5.7515,-4.67551 11.0668,-6.03647 7.7686,-1.98898 6.1086,4.72756 z m 43.0783,21.34311 q -4.1104,10.43255 -14.1144,19.39984 -9.9738,8.84513 -21.1496,11.70653 -8.9951,2.30308 -12.2717,-3.0351 -2.8367,-4.53573 -0.7239,-13.08407 2.8975,-11.72342 15.9118,-25.12193 13.5738,-14.11383 26.3851,-17.39395 12.2662,-3.14055 9.8213,6.75104 -1.1469,4.64056 -7.1106,9.14163 -5.3281,3.99522 -10.7798,5.39105 -2.9983,0.76766 -5.0593,-0.19177 -2.0305,-1.0816 -1.3967,-3.64603 1.4789,-5.9839 10.1832,-11.75863 -5.9813,1.98898 -10.7028,6.62962 -4.5854,4.60576 -5.9134,9.97904 l -5.2821,21.37083 q -2.324,9.40317 2.7188,8.11203 7.4959,-1.91922 14.7751,-9.15932 6.5527,-6.3678 10.0752,-13.90436 0.8021,-0.66297 1.8924,-0.94211 1.4992,-0.38383 2.7414,-0.24434 z m 39.9233,-8.50588 q -16.503,7.88589 -18.7667,17.0448 -1.6902,6.83867 3.6252,5.47776 10.2216,-2.61713 14.2963,-19.10324 z m 11.7388,16.55536 -17.3957,8.91518 1.5539,-6.80377 q -5.3719,5.72228 -11.7446,10.32808 -7.4474,5.33855 -13.1716,6.80415 -10.767,2.75671 -8.5334,-6.28011 3.9841,-16.1197 38.3062,-33.6011 l 2.1128,-8.54841 q 1.5997,-6.47228 -3.7157,-5.11139 -4.9064,1.25627 -10.7027,6.62962 0.1517,0.4187 1.6831,1.97128 1.061,0.87222 0.6385,2.58191 -0.7546,3.05296 -5.2493,7.29236 -4.3586,4.20454 -7.9021,5.11177 -6.6782,1.70985 -5.2898,-3.90762 2.0222,-8.18197 15.5094,-17.81228 11.9431,-8.54863 21.756,-11.06109 13.7654,-3.52447 10.9281,7.95473 z m 42.1771,-18.57742 q -1.4185,5.73956 -8.9263,11.32238 -6.5995,5.00699 -13.2778,6.7169 -3.6798,0.94215 -6.1651,-0.36619 -2.5154,-1.18622 -1.7005,-4.48345 l 19.9508,-80.72074 17.2292,-8.7581 -17.6267,71.31753 q 1.5596,-0.62809 2.9225,-0.97705 9.6765,-2.47751 7.5939,5.94872 z m -777.76827,72.71295 c 6.0042,0.0105 11.97472,0.97904 17.87265,2.90557 2.63355,0.88508 4.37715,1.32833 5.23867,1.32982 0.9069,0 2.63842,-0.59092 5.20793,-1.77757 0.85499,-0.36105 1.78492,-0.54067 2.78842,-0.53895 2.55458,0.008 5.44403,1.71878 8.63783,5.14282 5.04847,5.49923 8.32425,11.51333 9.906,18.04238 1.07955,4.45627 1.0284,8.05582 -0.1323,10.79865 -1.09125,2.7429 -3.0885,4.1115 -6.01238,4.1058 -2.3886,-0.007 -5.0442,-1.09733 -7.9881,-3.27818 -0.90307,-0.675 -3.35347,-3.1137 -7.39747,-7.31625 -6.8835,-7.00417 -13.51238,-10.512 -19.75208,-10.5234 -5.67255,-0.0105 -9.26407,2.4426 -10.70857,7.35915 -1.31385,4.91655 -0.2784,11.54618 3.0411,19.8888 4.92772,12.38445 11.42857,22.93418 19.31692,31.64933 2.86508,3.16455 5.79368,5.70802 8.78985,7.63039 2.94953,1.87056 5.53403,2.80836 7.77435,2.8134 1.8492,0.004 3.07493,-0.87333 3.68738,-2.63249 0.64575,-1.81093 0.53415,-4.11545 -0.3456,-6.91355 -0.78195,-2.4873 -1.85625,-4.25018 -3.22793,-5.28878 -0.543,-0.41542 -1.0101,-0.64942 -1.40047,-0.70207 -0.36998,-0.10433 -1.4523,-0.15848 -3.24698,-0.1623 -1.60777,0 -3.19305,-0.70583 -4.7631,-2.10728 -1.55977,-1.45312 -2.72445,-3.26782 -3.48705,-5.44417 -1.5069,-4.30088 -0.4263,-7.35368 3.27668,-9.15855 4.1352,-1.95938 9.35827,-2.93273 15.6276,-2.92005 6.70575,0.0135 12.56347,0.93165 17.53665,2.75452 4.67842,1.77053 7.49377,4.96163 8.47972,9.57338 0.39878,1.86547 0.27473,3.49672 -0.36607,4.89382 -0.64418,1.3452 -1.683,2.14583 -3.12075,2.40165 -1.24838,0.25635 -2.00993,0.669 -2.28503,1.23818 -0.24885,0.51735 -0.32235,1.83787 -0.21727,3.9615 0.44655,8.23555 -0.79905,15.12057 -3.6777,20.65504 -1.8957,3.77581 -4.56135,6.72109 -8.0085,8.83585 -3.3537,2.11484 -7.21785,3.16689 -11.63738,3.15617 -7.2228,-0.0175 -14.89965,-2.65041 -23.19772,-7.89863 -8.7396,-5.35226 -17.10945,-12.82545 -25.09823,-22.41953 -6.8328,-7.98653 -12.56002,-16.61738 -17.06722,-25.89278 -4.5576,-9.37897 -6.84788,-18.2877 -6.7263,-26.7261 0.29205,-9.05977 3.5721,-16.04347 9.83602,-20.95117 5.6103,-4.33965 13.26705,-6.50115 22.84643,-6.48443 0,0 0,0 0,0 m 83.83897,2.32223 c 3.96548,0.007 7.21545,0.86752 9.7344,2.58157 2.493,1.66223 3.88568,3.9183 4.1928,6.7683 0.42998,3.98993 -0.91042,7.14773 -3.9897,9.4734 -4.79542,3.6693 -10.8516,5.49698 -18.2469,5.48318 -3.1206,-0.007 -5.7363,-0.73598 -7.85812,-2.1903 -2.86673,-1.87005 -4.64633,-4.46325 -5.31998,-7.7796 -0.90525,-4.45635 1.14143,-7.9491 6.19463,-10.47833 5.20807,-2.58082 10.32457,-3.86692 15.29287,-3.85822 0,0 0,0 0,0 m 17.1525,34.06792 c 0,0 4.79535,45.15908 4.79535,45.15908 0.37965,3.57542 0.87135,6.1927 1.47157,7.85182 0.63083,1.65921 1.68196,3.18987 3.14791,4.59198 1.1865,1.14247 1.98727,2.12865 2.40682,2.95853 0.44768,0.77814 0.72428,1.78903 0.83138,3.03265 0.57555,6.68448 -4.53953,10.01362 -15.34508,9.98745 -5.8158,-0.014 -10.5561,-0.7507 -14.24685,-2.20983 -1.26705,-0.52098 -2.3985,-1.43007 -3.39623,-2.72727 -0.97064,-1.29713 -1.62885,-2.77476 -1.96972,-4.43293 -0.28762,-1.39907 -0.32205,-2.48681 -0.1017,-3.26319 0.22238,-0.77638 0.94358,-2.01776 2.1756,-3.72414 0.8565,-1.18933 1.26368,-3.13073 1.221,-5.8242 -0.0345,-2.69348 -0.53948,-6.70879 -1.52107,-12.04602 -0.31455,-1.71 -0.99465,-4.89698 -2.04443,-9.561 -1.02608,-4.7157 -1.65187,-7.46228 -1.8744,-8.23973 -0.6309,-2.12497 -2.0424,-3.75945 -4.2423,-4.90342 -2.74328,-1.40408 -4.40602,-3.47925 -4.97303,-6.2256 -0.67394,-3.26453 0.48608,-5.6967 3.50288,-7.29653 4.22003,-2.21925 8.88795,-4.10092 13.99493,-5.64525 5.15332,-1.54425 9.22365,-2.3136 12.17602,-2.30797 2.31975,0.007 3.65018,1.61295 3.99135,4.82557 0,0 0,0 0,0 m 151.21305,23.62395 c 0,0 -8.52675,27.36142 -8.52675,27.36142 -0.6369,2.07286 -0.94755,3.60196 -0.93285,4.5873 0.0473,0.98541 0.47535,2.87924 1.26067,5.68147 0.22253,0.83029 0.0645,1.99678 -0.47212,3.49949 -1.22115,3.41996 -3.393,5.80041 -6.49695,7.14135 -3.0792,1.34093 -7.9635,2.00328 -14.6715,1.98703 -4.56015,-0.0111 -7.61618,-0.64066 -9.18068,-1.88885 -1.63454,-1.30016 -2.09632,-3.40113 -1.37197,-6.30292 0.25868,-1.03635 0.54885,-1.78747 0.87105,-2.25335 0.3357,-0.51769 1.33102,-1.7338 2.9967,-3.64834 1.95818,-2.17313 4.5768,-9.426 7.84065,-21.7586 1.89255,-7.1508 2.6727,-12.43747 2.3214,-15.86002 -0.31252,-2.74845 -1.85902,-4.12545 -4.62705,-4.131 -2.64937,-0.008 -4.72365,1.10497 -6.21307,3.3312 -1.47645,2.22615 -2.85938,6.26692 -4.15838,12.12225 0,0 -3.41437,15.38986 -3.41437,15.38986 -0.6783,3.05724 -1.02015,5.15613 -1.02698,6.29669 0.0263,1.14062 0.40373,3.34487 1.1097,6.61274 0.16155,0.9336 0.10215,1.9963 -0.1764,3.18811 -0.7146,3.05724 -2.6133,5.30802 -5.67517,6.75235 -3.03413,1.44433 -7.41495,2.15953 -13.1631,2.14561 -9.1839,-0.0223 -13.39995,-3.01289 -12.64838,-8.97192 0.1569,-1.24362 0.4119,-2.17602 0.76583,-2.79719 0.39622,-0.67291 1.2252,-1.60398 2.49262,-2.79323 1.03853,-0.98245 1.76895,-2.09521 2.1885,-3.33828 0.42878,-1.29487 1.10333,-4.42932 2.0271,-9.40332 1.10145,-5.90662 2.12198,-12.09855 3.05438,-18.57577 0.51465,-3.5754 0.63547,-5.90768 0.3603,-6.99668 -0.2313,-1.14082 -1.22235,-2.5164 -2.98515,-4.12672 -1.5288,-1.4025 -2.17313,-3.11423 -1.92248,-5.1351 0.2571,-2.0727 1.17833,-3.7554 2.77155,-5.04803 1.61085,-1.34445 4.8039,-3.0228 9.60953,-5.03497 4.272,-1.7541 8.38627,-3.2235 12.33202,-4.4082 3.98063,-1.23645 6.67658,-1.8534 8.06843,-1.85078 1.26532,0 2.19697,0.57443 2.79112,1.716 0.6306,1.14165 0.77183,2.48978 0.42773,4.0443 -0.0345,0.15548 -0.19845,0.80318 -0.492,1.94303 -0.1329,0.41445 -0.2337,0.77715 -0.3024,1.0881 -0.5496,2.48722 -0.01,3.73245 1.61872,3.73567 0.97725,0 2.24573,-0.98062 3.81473,-2.9475 5.11792,-6.4185 11.18437,-9.62122 18.10297,-9.6081 5.31548,0.01 9.3453,1.72875 12.03563,5.15588 1.82707,2.4405 2.6934,5.3199 2.61112,8.6382 -0.0841,3.26655 -1.09147,8.0868 -3.0147,14.46082 0,0 0,0 0,0 m 48.09142,-8.22585 c 0,0 -12.38167,26.2716 -12.38167,26.2716 -1.46528,3.10906 -2.13773,5.64923 -2.02733,7.62064 0.13283,1.97148 1.01243,2.95905 2.64901,2.96273 1.38757,0.003 3.68647,-0.92547 6.91739,-2.78578 0.7761,-0.46516 1.43468,-0.69714 1.97445,-0.69594 0.86371,0.002 1.266,0.75504 1.20173,2.25935 -0.0712,1.50431 -0.57113,3.13736 -1.49438,4.89917 -1.6836,3.21269 -4.46962,6.29311 -8.32297,9.24127 -7.94647,6.25857 -15.17303,9.37977 -21.8352,9.3636 -5.277,-0.0128 -8.5392,-2.35488 -9.8658,-7.02622 -1.41135,-4.72318 -0.6606,-10.91926 2.3322,-18.58827 0,0 14.0136,-35.90962 14.0136,-35.90962 0.46507,-1.19183 0.62707,-1.91745 0.4857,-2.17703 -0.0811,-0.31132 -0.58703,-0.46792 -1.51733,-0.46972 0,0 -6.2493,-0.012 -6.2493,-0.012 -1.17299,0 -1.83712,-0.237 -1.99312,-0.70395 -0.1383,-0.51885 0.1173,-1.68503 0.7674,-3.49867 0,0 1.22588,-3.41993 1.22588,-3.41993 0.59872,-1.55445 1.4865,-2.69355 2.66572,-3.41722 0,0 38.57602,-22.3302 38.57602,-22.3302 0.96113,-0.465 1.99755,-0.69653 3.10815,-0.6945 0,0 5.39723,0.01 5.39723,0.01 1.1106,0 1.69778,0.31425 1.76085,0.93667 0.13042,0.57075 -0.21997,1.737 -1.0503,3.49883 0,0 -4.94527,10.49302 -4.94527,10.49302 -0.73268,1.55453 -1.0182,2.56538 -0.85718,3.0324 0.2022,0.46718 0.95783,0.702 2.26755,0.70448 0,0 11.7243,0.0225 11.7243,0.0225 1.56323,0 2.38875,0.36757 2.4753,1.09395 0.11168,0.67447 -0.42892,2.15175 -1.62052,4.43167 0,0 -2.39678,4.58588 -2.39678,4.58588 -1.29997,2.48722 -2.49135,4.22257 -3.57165,5.20597 -1.05022,0.93158 -2.31982,1.3959 -3.81097,1.39298 0,0 -10.9425,-0.0217 -10.9425,-0.0217 -1.12853,0 -2.01713,0.2553 -2.66498,0.77272 -0.64665,0.51735 -1.31138,1.5015 -1.99522,2.95238 0,0 0,0 0,0 M 771.01095,749.8886 c -8.3232,-0.0158 -16.25685,2.45647 -23.64405,7.41645 -2.63895,1.86015 -4.67993,4.03298 -6.126,6.51713 -1.38315,2.48422 -1.98225,4.97024 -1.81643,7.45747 0.16253,2.4354 0.90196,4.4055 2.21048,5.91068 1.29765,1.50517 2.8932,2.25569 4.79445,2.2632 3.76372,0.007 7.28895,-3.27443 10.67872,-9.84818 1.37153,-2.48437 2.52541,-4.1931 3.45113,-5.124 0.9714,-0.93083 2.07022,-1.39162 3.29152,-1.39162 2.03558,0.007 3.48211,1.25077 4.33155,3.73979 0.83768,2.43713 1.1943,6.40185 1.07813,11.89448 -0.0457,2.17635 -0.36495,3.5748 -0.95362,4.19535 -0.5856,0.5688 -1.98833,0.85267 -4.20998,0.84517 -9.99585,0.0308 -17.34487,3.30615 -21.90233,9.8247 -2.82045,4.13865 -3.99262,8.90348 -3.57569,14.29251 0.26062,3.36815 1.04962,6.6077 2.3496,9.71925 1.27402,3.05971 2.85982,5.54919 4.75634,7.47069 2.85143,2.90827 6.41686,4.36792 10.7373,4.37842 4.18868,0.0102 7.94588,-1.87228 11.33941,-5.64697 1.1403,-1.2928 2.05305,-1.93802 2.73045,-1.93652 0.6096,0.002 1.24837,0.67694 1.91017,2.02588 1.8927,3.73575 4.55108,5.60781 8.01412,5.61621 2.70443,0.007 5.38846,-1.1274 8.08156,-3.40137 2.21572,-1.80873 4.11322,-4.05853 5.69385,-6.75 1.63897,-2.6914 2.61187,-5.28082 2.9004,-7.76807 0.22245,-1.91725 -0.21788,-3.00641 -1.32278,-3.26806 -1.10677,-0.26165 -1.82145,-0.54816 -2.14447,-0.85987 -0.32393,-0.31171 -0.62483,-1.03882 -0.90383,-2.17969 -0.55687,-2.38536 -0.45555,-7.59381 0.312,-15.62548 l 1.22318,-11.58105 c 0.5268,-5.49263 0.41752,-9.7941 -0.34133,-12.90525 -0.7323,-3.16283 -2.31645,-5.96483 -4.76662,-8.40533 -4.73438,-4.56967 -10.8258,-6.86242 -18.17723,-6.87592 z m 677.34015,-90.75248 c -0.2753,0 -0.5998,0.0562 -0.9742,0.18164 -4.5654,1.52589 -13.5059,6.47169 -26.8212,14.8374 l -20.814,92.61915 c -2.4285,-2.62635 -4.7249,-4.29231 -6.8906,-5.00098 -2.0909,-0.73365 -5.0816,-0.45119 -8.9737,0.84961 -13.9959,4.67768 -27.6004,18.34451 -40.8134,41.00097 -10.4844,17.98974 -17.1488,35.71068 -20.0171,53.16358 -6.7795,11.2129 -11.7404,18.73606 -14.8623,22.52637 -3.0676,3.6991 -6.0605,6.03661 -8.9795,7.01221 -1.6466,0.5503 -2.9796,0.0391 -3.9961,-1.53077 -0.9365,-1.6925 -1.3177,-4.14351 -1.1426,-7.35352 0.4403,-8.07359 3.4959,-22.32224 9.1655,-42.74413 l 13.7183,-49.41943 -1.3491,0.4497 -28.9366,17.26318 c -9.786,30.84476 -16.1431,55.93292 -19.0971,75.30762 l 0.1758,-3.23291 c -10.0081,15.0913 -17.398,25.2972 -22.1704,30.6167 -4.7724,5.3195 -9.1801,8.65408 -13.2217,10.00488 -3.9668,1.3258 -7.0118,-0.09 -9.1363,-4.25098 -2.1246,-4.1604 -2.9575,-10.47177 -2.496,-18.93457 0.2069,-3.79359 0.8871,-10.84892 2.0375,-21.16552 16.1202,-26.111 28.2033,-49.63252 36.252,-70.56299 8.0487,-20.93049 12.6156,-41.31653 13.6978,-61.16015 0.3819,-7.00365 -0.027,-12.31126 -1.2261,-15.9214 -1.1192,-3.73251 -2.7645,-5.23718 -4.935,-4.51171 -0.4491,0.15008 -1.133,0.57052 -2.0523,1.25976 l -29.2632,23.24561 c -11.0454,27.3756 -20.7536,56.50051 -29.124,87.375 -7.5722,27.9301 -12.1664,51.57067 -13.8003,70.95117 -7.8516,12.6365 -14.1525,19.75774 -18.8995,21.34424 -4.1913,1.4008 -8.0717,0.45284 -11.6396,-2.84326 9.0771,-29.0097 14.112,-52.61029 15.1041,-70.80029 0.2016,-3.69641 0.033,-6.64829 -0.5084,-8.85498 -0.5409,-2.2067 -2.261,-3.68378 -5.1592,-4.43408 -2.8182,-0.8727 -7.4076,-0.24534 -13.7695,1.88085 -16.8402,5.6283 -31.759,18.44412 -44.7539,38.44922 -12.1525,18.6249 -19.1466,38.24385 -20.9883,58.85596 -6.8007,11.5402 -12.3915,19.79088 -16.7417,24.66357 -4.5373,5.05 -8.9758,8.29911 -13.3168,9.75 -5.3889,1.801 -9.5426,0.46851 -12.4586,-4.00049 -2.9107,-4.56619 -4.1058,-11.61661 -3.5859,-21.14941 0.4297,-7.8791 2.6951,-21.81577 6.7983,-41.80957 14.5289,-9.0577 25.2881,-19.71873 32.2764,-31.98633 0.2441,-4.4746 0.2819,-7.20969 0.1157,-8.20459 -0.1608,-1.0923 -0.7112,-1.76894 -1.6523,-2.02734 -8.8713,10.4139 -17.3959,17.84828 -25.5747,22.30078 5.3171,-19.3491 11.5479,-37.95398 18.6943,-55.81348 7.2264,-17.98165 12.6889,-30.55144 16.3857,-37.708 3.7024,-7.25385 5.5938,-11.60874 5.6734,-13.06788 0.032,-0.58365 -0.4011,-0.72642 -1.2993,-0.42627 -0.075,0.0248 -4.6486,3.0342 -13.7197,9.02637 -8.9961,5.96716 -14.9424,10.58125 -17.8389,13.84131 -2.8218,3.23509 -7.1007,10.96725 -12.8379,23.19873 -5.6572,12.1091 -10.7508,23.98244 -15.2798,35.61914 -4.5291,11.6367 -8.9257,25.56985 -13.1909,41.79785 -6.5057,3.4158 -14.0758,6.80448 -22.7095,10.16748 4.8417,-30.84109 9.0188,-52.19777 12.5318,-64.06786 3.5131,-11.87011 7.6743,-21.47332 12.4833,-28.81056 4.8892,-7.45951 7.3714,-11.8701 7.4458,-13.23193 0.053,-0.97273 -2.6582,-2.45303 -8.1342,-4.44287 -4.8628,6.97317 -9.69,11.25894 -14.48,12.85986 -2.395,0.80046 -6.8572,1.09911 -13.38577,0.89356 -6.52328,-0.30283 -10.94386,-0.0665 -13.26413,0.70898 -10.70273,3.57706 -21.8769,14.4252 -33.52005,32.5459 -11.64285,18.1207 -17.85645,34.37997 -18.64155,48.77637 -0.35543,6.5173 0.55312,12.08621 2.72603,16.708 2.178,4.52451 4.72762,6.29875 7.64647,5.32325 2.6196,-0.8755 5.54265,-3.95377 8.77005,-9.23437 3.2325,-5.3778 4.9284,-9.52566 5.0874,-12.44385 0.09,-1.6537 -0.97545,-3.01705 -3.19485,-4.08984 -4.8084,-3.4545 -7.04122,-8.29414 -6.70162,-14.51954 0.33952,-6.2255 2.69092,-12.98014 7.05614,-20.26465 4.37048,-7.3817 9.7368,-12.13551 16.09861,-14.26172 2.91899,-0.9756 6.71227,-1.14617 11.38042,-0.50976 4.74285,0.6113 8.72445,0.3798 11.94285,-0.6958 4.9398,-1.6509 11.4092,-5.77065 19.4106,-12.36036 -17.29643,26.1222 -28.1991,44.80611 -32.70698,56.05371 -4.5078,11.2476 -8.50065,25.18906 -11.97952,41.82276 -13.19227,8.802 -24.0264,20.15767 -32.5005,34.06787 0.051,7.1454 0.3474,11.15354 0.8877,12.02344 9.36233,-12.679 18.57892,-21.34714 27.6504,-26.00245 -4.39418,26.68061 -9.4377,46.41749 -15.13185,59.20752 -5.61937,12.7651 -12.2466,20.4217 -19.88085,22.9732 -10.40348,3.477 -15.05505,-4.8519 -13.95705,-24.9873 0.4458,-8.17109 -0.79163,-11.76705 -3.7104,-10.79156 -2.02095,0.6754 -5.88772,4.87904 -11.6001,12.61376 -5.63235,7.6124 -8.5734,13.705 -8.82278,18.2769 -0.33952,6.2254 2.90026,11.4938 9.71925,15.8042 6.8244,4.2132 15.77641,4.4682 26.85353,0.7661 14.96895,-5.0029 28.73595,-16.2895 41.30415,-33.8599 12.64845,-17.69282 22.20555,-43.3777 28.67145,-77.05369 2.55505,-1.04501 9.47805,-4.02787 20.76855,-8.94727 -2.2826,13.5598 -3.6422,24.37698 -4.0826,32.45068 -1.0608,19.4546 1.1265,33.24028 6.5625,41.35547 5.5108,8.09021 12.6811,10.65831 21.5128,7.70651 7.8587,-2.6265 15.6503,-8.0457 23.373,-16.2612 7.6461,-8.1705 16.2594,-19.75666 25.8282,-34.71386 0.6324,8.41549 2.6882,14.9938 6.1816,19.7168 4.9274,6.66179 11.732,8.54134 20.414,5.63964 13.9212,-4.6527 26.8491,-19.38243 38.7832,-44.18994 5.0171,3.6712 10.2205,4.60764 15.6094,2.80665 2.0956,-0.70041 4.9868,-2.52692 8.6748,-5.47852 3.416,-2.82 6.9878,-6.76919 10.7139,-11.8169 0.4394,8.7257 2.2966,15.48432 5.5781,20.26611 4.4995,6.4227 10.7534,8.29575 18.7617,5.61915 6.9606,-2.3263 14.415,-7.63372 22.3623,-15.92432 7.7931,-8.1675 16.9244,-19.73572 27.3707,-34.64062 -0.028,0.43359 -0.068,0.88856 -0.092,1.31396 -0.5251,9.63 0.684,17.10453 3.627,22.42383 2.9484,5.2221 6.8188,7.03254 11.6089,5.43164 8.5598,-2.8608 22.0562,-18.81361 40.4693,-47.80371 0.1504,8.3912 2.1042,15.25097 5.8755,20.56787 4.4404,6.1559 9.8424,8.17014 16.204,6.04395 5.838,-1.95111 12.5318,-7.48192 20.0831,-16.59522 7.6258,-9.1382 14.8602,-21.20193 21.7031,-36.19043 -0.6308,12.9123 0.4042,22.21165 3.1069,27.89795 2.7774,5.6612 6.8252,7.60461 12.1392,5.82861 4.3409,-1.45089 9.451,-5.54741 15.3295,-12.2871 5.7648,-6.63851 14.1624,-18.30876 25.147,-34.91456 0.3053,8.29211 2.0704,15.01602 5.3071,20.15333 4.2055,6.42549 9.6018,8.53664 16.188,6.33544 6.736,-2.2513 13.4279,-7.73596 20.0757,-16.45166 6.7226,-8.7408 14.2042,-21.31559 22.4473,-37.72705 -2.1537,27.36426 2.6836,39.0689 14.5093,35.1167 4.7151,-1.5759 9.7762,-5.46405 15.1846,-11.66455 5.2007,-5.9626 13.8484,-17.80726 25.8676,-35.40967 -0.3367,9.39636 0.9971,16.44135 4.0093,21.12744 3.2585,4.92752 7.7706,6.42757 13.5337,4.50147 10.7028,-3.57703 23.6852,-17.9914 38.9502,-43.24366 l -8.5591,33.65919 c -27.868,24.59388 -42.3232,46.47245 -43.3682,65.63525 -0.017,0.31704 -0.014,0.61017 -0.024,0.91846 l -39.0014,13.49853 -1.4897,38.09619 58.3667,-20.20166 -6.9156,176.78907 40.273,-13.938 6.9155,-176.78905 58.3667,-20.20167 1.4912,-38.09619 -71.7129,24.82032 c 7.974,-13.39433 15.6081,-32.29745 22.8985,-56.71729 21.5661,-19.52719 37.4276,-36.86197 47.5854,-52.00342 l 0.9141,-16.77979 c -11.7921,19.50756 -26.5358,37.23339 -44.2325,53.1753 l 35.4112,-123.85693 -31.0547,17.68505 -15.2959,50.0918 c -4.8161,15.55257 -10.4843,29.19345 -17.0024,40.92188 -6.4433,11.70345 -11.9843,18.33143 -16.6245,19.88232 -4.5656,1.52587 -6.6092,-2.08967 -6.1319,-10.84424 0.5784,-10.60272 4.6544,-27.43562 12.2315,-50.50049 l 16.3975,-48.02636 -33.0748,18.36035 -12.7998,40.66406 c -3.7479,11.82375 -6.455,22.86746 -8.1328,33.13916 -6.6053,10.06887 -11.7619,17.71469 -15.4234,22.86475 -3.7353,5.16386 -7.0624,8.23391 -9.9813,9.20947 -4.5657,1.52588 -6.6204,-1.8943 -6.1641,-10.25977 0.435,-7.97637 3.7841,-23.56395 10.0458,-46.7622 l 12.2124,-46.05323 -6.2885,2.10059 -23.8008,24.14209 c -3.1323,-9.9357 -9.3766,-13.33972 -18.7324,-10.21289 -7.4096,2.47642 -16.1655,9.41478 -26.2662,20.8125 -10.1005,11.39775 -18.6175,24.74791 -25.5512,40.05322 -5.354,11.92803 -8.8507,23.64683 -10.5103,35.15479 -11.3646,18.78841 -19.3861,28.98665 -24.0439,30.54345 -1.9461,0.6503 -3.4567,0.0578 -4.5322,-1.77978 -1.0755,-1.837 -1.5127,-4.60497 -1.3111,-8.30127 0.8592,-15.7582 10.853,-64.27036 29.981,-145.53516 4.782,-20.31615 7.2015,-31.00712 7.2598,-32.07715 0.064,-1.1673 -0.3164,-1.75617 -1.1426,-1.7666 z m -120.208,66.38966 c -4.1737,5.11942 -8.2807,8.35383 -12.3223,9.70458 -3.5925,1.20068 -8.2148,0.40545 -13.8677,-2.38477 -2.9786,11.50048 -6.8727,22.25674 -11.6806,32.26759 4.2898,3.53226 9.6545,4.22259 16.0913,2.07129 13.2475,-4.42748 20.5061,-18.31325 21.7793,-41.65869 z m 169.1983,387.77722 -40.2732,13.9388 3.4577,-88.3946 -103.3094,35.756 -3.4577,88.3946 -40.2733,13.9388 8.4058,-214.88521 40.2732,-13.9388 -3.4577,88.39461 103.3094,-35.756 3.4577,-88.39464 40.2732,-13.93875 z m -205.4568,55.2556 q -42.174,33.0932 -79.5288,46.0219 -47.5691,16.4639 -78.4833,-2.7831 -30.9144,-19.2472 -29.0283,-67.4624 1.8861,-48.2152 36.1091,-91.4747 33.3242,-42.3613 80.8933,-58.82522 31.81,-11.00962 75.9958,-7.21887 l -1.6998,43.45329 q -41.9566,-9.2598 -76.3931,2.6589 -30.059,10.4035 -51.2907,38.01 -21.2318,27.6065 -22.4309,58.2619 -1.269,32.4411 19.2781,44.4133 20.5472,11.9723 52.649,0.8616 14.0081,-4.8483 34.6926,-18.4664 l 1.2225,-31.2507 -31.5181,10.9087 1.4902,-38.096 71.7912,-24.8474 z m -216.2808,90.7103 -40.2732,13.9388 8.4057,-214.8852 40.2732,-13.9388 z m -58.0158,20.0796 -126.3644,43.7355 8.4057,-214.8852 40.2732,-13.9388 -6.91552,176.7892 86.09122,-29.7967 z m 665.6355,-185.7084 -90.8199,215.5212 -11.5423,3.9857 -42.9243,-113.4315 -64.4684,150.516 -11.5423,3.9858 -57.4724,-164.3134 35.6303,-12.3038 34.4562,98.9011 56.8779,-130.4403 24.339,-8.4046 38.22,97.6013 53.8668,-129.4004 z m -699.62925,243.6806 c -6.97702,0.01 -14.0619,1.2501 -21.25493,3.7339 -16.39319,5.6609 -30.16154,14.7164 -41.30564,27.1655 -6.58126,7.3423 -11.5812,15.1716 -15,23.4873 h 29.98245 c 1.44412,-2.768 3.62347,-5.4017 6.5361,-7.9014 4.39409,-3.8784 9.351,-6.7701 14.87114,-8.6763 12.8805,-4.4478 27.19973,-1.2132 42.95953,9.7032 l 3.8187,-43.818 c -6.761,-2.4714 -13.63032,-3.7034 -20.60735,-3.6972 z m -147.65811,-227.476 a 4.3919999,4.3919999 0 0 1 -4.392,4.392 4.3919999,4.3919999 0 0 1 -4.392,-4.392 4.3919999,4.3919999 0 0 1 4.392,-4.392 4.3919999,4.3919999 0 0 1 4.392,4.392 z m -13.3197,-53.2494 a 53.892002,53.891996 0 0 0 -45.0644,44.3218 h 45.0644 z m 17.7833,0.2637 v 44.0581 h 43.3843 a 53.892002,53.891996 0 0 0 -43.3843,-44.0581 z m -62.8961,61.8413 a 53.892002,53.891996 0 0 0 45.1128,44.3291 v -44.3291 z m 62.8961,0 v 44.0581 a 53.892002,53.891996 0 0 0 43.3359,-44.0581 z m -4.3814,-440.25317 a 4.3919999,4.3919999 0 0 1 -4.392,4.392 4.3919999,4.3919999 0 0 1 -4.392,-4.392 4.3919999,4.3919999 0 0 1 4.392,-4.392 4.3919999,4.3919999 0 0 1 4.392,4.392 z m -13.3196,-53.24938 a 53.892002,53.891996 0 0 0 -45.0644,44.32178 h 45.0644 z m 17.7832,0.26367 v 44.05811 h 43.3843 a 53.892002,53.891996 0 0 0 -43.3843,-44.05811 z m -62.896,61.84131 a 53.892002,53.891996 0 0 0 45.1128,44.3291 v -44.3291 z m 62.896,0 v 44.05811 a 53.892002,53.891996 0 0 0 43.336,-44.05811 z"
         inkscape:connector-curvature="0" />
    </g>
  </g>
</svg>
